<?xml version="1.0" encoding="UTF-8" standalone="no"?>
<!-- Created with Inkscape (http://www.inkscape.org/) -->

<svg
   xmlns:dc="http://purl.org/dc/elements/1.1/"
   xmlns:cc="http://creativecommons.org/ns#"
   xmlns:rdf="http://www.w3.org/1999/02/22-rdf-syntax-ns#"
   xmlns:svg="http://www.w3.org/2000/svg"
   xmlns="http://www.w3.org/2000/svg"
   xmlns:sodipodi="http://sodipodi.sourceforge.net/DTD/sodipodi-0.dtd"
   xmlns:inkscape="http://www.inkscape.org/namespaces/inkscape"
   id="svg2"
   version="1.1"
   inkscape:version="0.91 r13725"
   width="179"
   height="285"
   viewBox="0 0 179 285"
   sodipodi:docname="Sam-I-Am-Green.svg">
  <metadata
     id="metadata8">
    <rdf:RDF>
      <cc:Work
         rdf:about="">
        <dc:format>image/svg+xml</dc:format>
        <dc:type
           rdf:resource="http://purl.org/dc/dcmitype/StillImage" />
      </cc:Work>
    </rdf:RDF>
  </metadata>
  <defs
     id="defs6" />
  <sodipodi:namedview
     pagecolor="#ffffff"
     bordercolor="#666666"
     borderopacity="1"
     objecttolerance="10"
     gridtolerance="10"
     guidetolerance="10"
     inkscape:pageopacity="0"
     inkscape:pageshadow="2"
     inkscape:window-width="796"
     inkscape:window-height="651"
     id="namedview4"
     showgrid="false"
     inkscape:zoom="0.91547848"
     inkscape:cx="14.559699"
     inkscape:cy="82.74563"
     inkscape:window-x="2515"
     inkscape:window-y="300"
     inkscape:window-maximized="0"
     inkscape:current-layer="g4138"
     showguides="false" />
  <g
     id="g4138"
     transform="translate(2.415252,6.0381356)">
    <path
       style="fill:#01af01"
       d="M 97.617188 46.769531 C 95.703451 46.867655 94.001953 47.681416 94.001953 48.898438 C 94.001953 53.330317 102.20006 55.071425 102.8125 50.769531 C 103.01473 49.349058 102.37066 48.183875 100.96875 47.433594 C 99.989164 46.909345 98.765425 46.710657 97.617188 46.769531 z M 62.595703 56.441406 C 61.20078 56.385636 59.853395 56.958614 58.695312 58.238281 C 51.544334 66.140019 53.088389 81.041194 61.662109 86.867188 C 66.129319 89.902736 72.370445 90.332131 75.171875 87.796875 C 77.868165 85.356763 77.430188 82.720055 73.335938 76.775391 C 71.319418 73.847493 69.992252 71.126895 70.388672 70.730469 C 70.785102 70.334044 71.529346 70.671393 72.041016 71.480469 C 73.656366 74.034697 73.117481 70.838715 70.962891 65.080078 C 68.960251 59.727537 65.664535 56.564101 62.595703 56.441406 z M 57.207031 56.611328 C 56.813299 56.600257 55.939654 56.977626 54.548828 57.611328 C 53.013458 58.310892 51.995558 59.601776 51.986328 60.861328 C 51.975128 62.393471 51.745327 62.595044 51.123047 61.613281 C 48.884967 58.082282 38.001953 73.248376 38.001953 79.898438 C 38.001953 82.191232 37.79145 82.33756 36.0625 81.257812 C 33.28002 79.520122 29.627583 81.7354 27.501953 86.449219 C 25.654563 90.545981 26.379762 93.407409 29.763672 95.378906 C 31.787262 96.55786 42.588946 96.667997 45.478516 95.539062 C 47.399536 94.78853 47.392376 94.732283 45.228516 93.574219 C 41.491336 91.574143 42.751043 90.316175 46.751953 92.052734 C 50.305993 93.595333 60.723993 94.156261 65.501953 93.0625 C 66.601953 92.810691 68.176953 92.540135 69.001953 92.460938 C 69.826953 92.381737 68.350976 91.738123 65.722656 91.03125 C 63.094326 90.324377 59.856021 88.722722 58.525391 87.472656 C 51.711721 81.071546 50.199051 68.284845 55.337891 60.519531 C 57.184866 57.728568 57.863251 56.62978 57.207031 56.611328 z M 60.849609 64.041016 C 61.60436 64.010539 62.416141 64.267702 62.878906 64.730469 C 64.716616 66.568186 64.153914 67.562439 62.027344 66.234375 C 59.582434 64.707505 58.464029 65.744053 57.480469 70.451172 L 56.75 73.951172 L 58.783203 71.455078 L 60.818359 68.958984 L 60.287109 71.740234 C 59.932859 73.593369 60.348253 75.176945 61.533203 76.486328 C 62.511253 77.567056 62.816951 78.451172 62.212891 78.451172 C 61.608841 78.451172 60.414774 77.450894 59.558594 76.228516 C 57.459694 73.231928 57.574747 74.920675 59.716797 78.546875 C 61.873657 82.198144 65.965486 82.619372 66.072266 79.201172 C 66.138966 77.065711 66.182176 77.052984 66.947266 78.951172 C 68.724696 83.360958 63.567373 85.01836 59.945312 81.201172 C 54.519163 75.48272 54.619906 66.070123 60.128906 64.169922 C 60.352776 64.092703 60.598026 64.051174 60.849609 64.041016 z M 62.466797 69.726562 C 62.579342 69.699417 62.920734 70.11562 63.515625 70.892578 C 64.333065 71.960199 65.001953 73.422699 65.001953 74.142578 C 65.001953 75.381662 64.76114 75.660274 64.359375 75.109375 C 64.376669 75.33527 64.399851 75.560975 64.402344 75.789062 C 64.419614 77.370396 63.168994 77.391649 61.615234 75.837891 C 59.963364 74.186022 60.094738 70.039062 61.798828 70.039062 C 62.047287 70.039062 62.293795 70.171127 62.533203 70.363281 C 62.425597 69.96483 62.395046 69.74387 62.466797 69.726562 z M 49.220703 70.951172 L 50.087891 75.365234 C 51.151321 80.783815 55.086219 86.925443 59.037109 89.328125 C 60.663129 90.316963 61.696731 91.424372 61.332031 91.789062 C 60.017721 93.103375 52.416086 92.367796 48.384766 90.537109 C 44.515796 88.780144 41.001953 85.213201 41.001953 83.041016 C 41.001953 82.509686 41.9153 83.054118 43.03125 84.251953 C 44.14721 85.449786 46.50971 87.167506 48.28125 88.068359 L 51.501953 89.707031 L 49.228516 87.238281 C 46.434046 84.206349 45.028562 79.622192 46.076172 76.951172 C 46.791432 75.127515 46.867551 75.114928 46.931641 76.800781 C 47.028541 79.349154 50.019495 85.451172 51.171875 85.451172 C 51.690395 85.451172 51.414774 84.450894 50.558594 83.228516 C 49.601464 81.862023 49.043958 79.069637 49.111328 75.978516 L 49.220703 70.951172 z M 95.460938 73.761719 C 93.717861 73.7785 92.153441 74.8275 91.304688 76.720703 C 89.077348 81.688909 93.311075 83.233844 97.546875 78.998047 C 98.896875 77.648048 100.00195 76.93373 100.00195 77.412109 C 100.00195 77.634782 99.922578 77.884715 99.802734 78.146484 C 100.18719 77.535561 100.41602 76.946307 100.41602 76.427734 C 100.41602 75.902989 100.92737 75.252601 101.67969 74.714844 C 100.25399 75.10146 99.026783 75.000357 97.898438 74.396484 C 97.082278 73.959688 96.253245 73.754091 95.460938 73.761719 z M 33.082031 85.951172 L 34.574219 88.701172 C 35.394759 90.213672 36.325518 91.451172 36.642578 91.451172 C 36.959638 91.451172 36.915865 90.213672 36.546875 88.701172 C 35.885025 85.988061 35.917177 85.998121 38.898438 89.451172 C 43.311338 94.562415 43.313582 94.555642 36.201172 94.962891 C 33.491672 95.118034 31.365312 94.6739 30.451172 93.759766 C 28.791852 92.100448 28.513343 87.871185 30.001953 86.951172 C 30.569113 86.600649 31.001953 87.441211 31.001953 88.892578 C 31.001953 90.300037 31.451953 91.451172 32.001953 91.451172 C 32.551953 91.451172 33.018996 90.213672 33.041016 88.701172 L 33.082031 85.951172 z "
       transform="translate(-2.415252,-6.0381356)"
       id="path4142"
       inkscape:export-xdpi="300"
       inkscape:export-ydpi="300" />
    <path
       style="fill:none;fill-opacity:1;stroke:#000000;stroke-width:1.09869361;stroke-linejoin:bevel;stroke-miterlimit:4;stroke-dasharray:none;stroke-opacity:1"
       d="m 230.38027,277.25564 c 0,19.68456 -15.95749,35.64205 -35.64205,35.64205 -19.68457,0 -32.54947,-35.64205 -96.742725,-35.64205 -64.193256,0 -77.058164,35.64205 -96.7427253,35.64205 -19.6845617,0 -35.6420527,-15.95749 -35.6420557,-35.64205 C -34.389289,257.57107 1.2527686,243.53 1.2527697,141.47637 1.2527708,39.422747 -34.389286,25.381673 -34.389286,5.6971086 c 0,-19.6845636 15.957492,-35.6420556 35.6420557,-35.6420556 19.6845633,0 32.5494713,35.6420566 96.7427253,35.6420556 64.193245,-1e-6 77.058155,-35.6420586 96.742725,-35.6420556 19.68456,3e-6 35.64205,15.957494 35.64205,35.6420556 0,19.6845614 -35.64205,33.7256354 -35.64205,135.7792614 0,102.05363 35.64205,116.0947 35.64205,135.77927 z"
       id="path4733-1"
       inkscape:connector-curvature="0"
       sodipodi:nodetypes="sssssssssssss"
       inkscape:export-xdpi="300"
       inkscape:export-ydpi="300" />
  </g>
</svg>
