<?xml version="1.0" encoding="UTF-8" standalone="no"?>
<!-- Created with Inkscape (http://www.inkscape.org/) -->

<svg
   xmlns:dc="http://purl.org/dc/elements/1.1/"
   xmlns:cc="http://creativecommons.org/ns#"
   xmlns:rdf="http://www.w3.org/1999/02/22-rdf-syntax-ns#"
   xmlns:svg="http://www.w3.org/2000/svg"
   xmlns="http://www.w3.org/2000/svg"
   xmlns:sodipodi="http://sodipodi.sourceforge.net/DTD/sodipodi-0.dtd"
   xmlns:inkscape="http://www.inkscape.org/namespaces/inkscape"
   id="svg2"
   version="1.1"
   inkscape:version="0.91 r13725"
   width="179"
   height="285"
   viewBox="0 0 179 285"
   sodipodi:docname="Sam-I-Am-Yellow.svg"
   inkscape:export-filename="C:\Users\jrainier\Documents\what\git\PCBs\ColourTest\Silk.png"
   inkscape:export-xdpi="300"
   inkscape:export-ydpi="300">
  <metadata
     id="metadata8">
    <rdf:RDF>
      <cc:Work
         rdf:about="">
        <dc:format>image/svg+xml</dc:format>
        <dc:type
           rdf:resource="http://purl.org/dc/dcmitype/StillImage" />
      </cc:Work>
    </rdf:RDF>
  </metadata>
  <defs
     id="defs6" />
  <sodipodi:namedview
     pagecolor="#ffffff"
     bordercolor="#666666"
     borderopacity="1"
     objecttolerance="10"
     gridtolerance="10"
     guidetolerance="10"
     inkscape:pageopacity="0"
     inkscape:pageshadow="2"
     inkscape:window-width="1920"
     inkscape:window-height="1058"
     id="namedview4"
     showgrid="false"
     inkscape:zoom="1.4142136"
     inkscape:cx="152.18902"
     inkscape:cy="212.81345"
     inkscape:window-x="1912"
     inkscape:window-y="-8"
     inkscape:window-maximized="1"
     inkscape:current-layer="g4138"
     showguides="false" />
  <g
     id="g4138"
     transform="translate(2.415252,6.0381356)">
    <path
       style="fill:#dbdc0c"
       d="M 62.347656 15.378906 C 61.694804 15.182111 56.472238 22.491504 56.443359 23.789062 C 56.395319 25.947533 57.249117 25.178571 59.873047 20.701172 C 61.271232 18.315351 62.416016 15.983639 62.416016 15.521484 C 62.416016 15.437645 62.39118 15.392026 62.347656 15.378906 z M 94.037109 45.681641 L 92.789062 45.927734 C 93.2341 45.851617 93.658716 45.773512 94.037109 45.681641 z M 56.310547 47.039062 C 55.724951 47.039062 55.590622 48.460997 55.980469 50.539062 C 56.784377 54.824264 55.695832 55.141757 54.265625 51.039062 C 53.005313 47.42373 51.743442 47.224382 50.291016 50.412109 C 49.512599 52.120549 49.517414 53.361515 50.308594 54.839844 C 51.374872 56.832202 51.526192 56.841975 55.363281 55.214844 C 58.808789 53.753763 59.24245 53.216765 58.728516 51.039062 C 57.960954 47.786673 57.508901 47.039062 56.310547 47.039062 z M 89.853516 47.039062 C 86.132541 47.039062 85.987044 48.96164 89.59375 50.472656 C 91.420833 51.238105 94.041016 53.077375 95.416016 54.560547 C 99.293676 58.743265 105.13375 60.071276 103.74609 56.455078 C 103.44697 55.675596 102.0945 55.039062 100.74219 55.039062 C 97.120367 55.039062 94.847808 53.495101 93.431641 50.076172 C 92.541318 47.926743 91.494594 47.039068 89.853516 47.039062 z M 61.457031 70.482422 C 61.319266 70.499632 61.202192 70.572191 61.115234 70.712891 C 60.154363 72.267613 61.511047 76.039062 63.03125 76.039062 C 63.792103 76.039062 64.416016 75.448394 64.416016 74.728516 C 64.416016 73.002616 62.421387 70.36195 61.457031 70.482422 z M 108.10938 73.810547 C 108.41542 75.883434 105.87584 79.932824 103.60742 80.767578 C 102.67697 81.109974 99.920247 83.12876 97.482422 85.251953 C 93.651588 88.588369 92.466957 89.080976 88.751953 88.888672 C 86.387838 88.766296 84.144805 88.974343 83.767578 89.351562 C 83.390351 89.728791 84.675131 90.039062 86.623047 90.039062 C 88.570964 90.039062 91.684766 90.26843 93.541016 90.548828 C 95.397266 90.829226 96.34913 90.790264 95.658203 90.462891 C 93.150017 89.274468 95.525547 88.208973 98.671875 89.111328 C 103.38499 90.463031 104.48043 90.10426 100.41602 88.539062 C 98.490972 87.797748 97.703516 87.155124 98.666016 87.113281 C 99.628516 87.071438 100.41602 86.589063 100.41602 86.039062 C 100.41602 85.489064 101.05286 85.039062 101.83203 85.039062 C 102.61119 85.039062 103.39869 84.701562 103.58203 84.289062 C 103.76536 83.876565 105.63734 82.250526 107.74219 80.677734 L 111.56836 77.818359 L 111.24219 80.677734 C 111.04439 82.407498 110.39288 83.429883 109.5918 83.263672 C 108.86342 83.112545 108.55205 83.450045 108.90039 84.013672 C 109.24873 84.5773 109.71605 85.039073 109.93945 85.039062 C 110.8237 85.039062 117.41602 78.77382 117.41602 77.933594 C 117.41602 77.44057 115.61602 77.039063 113.41602 77.039062 C 111.21602 77.039062 109.41602 76.565071 109.41602 75.986328 C 109.41602 75.845828 109.53122 75.724849 109.71875 75.619141 L 109.24805 75.519531 L 108.10938 73.810547 z M 104.49609 74.039062 C 103.37702 74.039062 101.66302 75.518428 100.38281 77.589844 C 97.686932 81.951908 94.284008 84.289739 91.253906 83.861328 C 89.766298 83.651003 88.850612 84.104809 88.640625 85.158203 C 88.107524 87.832502 93.396213 86.214043 97.667969 82.394531 C 99.732053 80.548968 102.07875 79.039062 102.88281 79.039062 C 103.68687 79.039062 104.81151 78.167359 105.38086 77.103516 C 106.81194 74.429519 106.69756 74.039062 104.49609 74.039062 z M 87.642578 78.59375 C 87.341647 78.615734 86.953835 78.750569 86.480469 79.003906 C 85.416627 79.573257 83.391627 80.039062 81.980469 80.039062 C 80.569312 80.039062 79.416016 80.489064 79.416016 81.039062 C 79.416016 81.589062 80.541016 82.039062 81.916016 82.039062 C 83.291016 82.039062 84.416016 82.54015 84.416016 83.154297 C 84.416016 83.778856 83.533485 84.040782 82.414062 83.748047 C 81.313305 83.460192 80.664438 83.632151 80.972656 84.130859 C 81.280874 84.629566 82.208203 85.039073 83.033203 85.039062 C 83.858203 85.039062 84.255935 85.489064 83.916016 86.039062 C 83.576097 86.589062 83.66051 87.034728 84.105469 87.03125 C 84.550428 87.027773 85.703516 85.642266 86.666016 83.951172 C 88.629667 80.501073 88.946615 78.498484 87.642578 78.59375 z M 117.80273 81.753906 C 117.51531 81.709293 116.79897 82.128277 115.66602 83.009766 C 108.48681 88.595535 97.782644 95.132748 92.623047 97.082031 C 72.879526 104.54108 30.52625 109.82185 16.166016 106.61523 C 13.632836 106.04958 14.014392 106.75701 17.166016 108.4668 C 20.523224 110.28811 34.24698 110.51054 48.224609 108.9707 C 65.198668 107.10075 75.65685 104.96004 85.416016 101.35742 C 100.42119 95.818256 116.23981 86.541189 117.85352 82.335938 C 117.99257 81.973583 117.97519 81.780674 117.80273 81.753906 z M 105.33203 87.162109 C 104.98463 87.1478 104.58945 87.211035 104.22852 87.355469 C 103.43079 87.674695 103.66708 87.911 104.83203 87.958984 C 105.88619 88.002404 106.47682 87.765886 106.14453 87.433594 C 105.97838 87.267448 105.67943 87.176419 105.33203 87.162109 z M 88.416016 92.167969 C 87.962891 92.167969 87.509766 92.236294 87.166016 92.375 C 86.478516 92.652413 87.041016 92.880859 88.416016 92.880859 C 89.791016 92.880859 90.353516 92.652413 89.666016 92.375 C 89.322266 92.236294 88.869141 92.167969 88.416016 92.167969 z M 87.105469 94.169922 L 83.916016 94.300781 L 87.416016 95.039062 C 89.341016 95.44426 91.05465 95.833847 91.224609 95.90625 C 91.394568 95.978652 91.255935 95.589065 90.916016 95.039062 C 90.576097 94.489064 88.86051 94.09752 87.105469 94.169922 z M 83.224609 96.15625 C 79.206099 96.266588 79.118272 96.32716 81.916016 97.039062 C 86.229159 98.136572 86.237718 98.136572 86.916016 97.039062 C 87.295281 96.425399 85.868895 96.083644 83.224609 96.15625 z M 74.294922 98.166016 C 73.751172 98.1593 73.170077 98.21893 72.683594 98.345703 C 71.710626 98.599243 72.266016 98.823371 73.916016 98.84375 C 75.566016 98.86413 76.360626 98.656737 75.683594 98.382812 C 75.345077 98.245852 74.838672 98.172731 74.294922 98.166016 z M 62.416016 99.167969 C 61.962891 99.167969 61.509766 99.236294 61.166016 99.375 C 60.478516 99.652413 61.041016 99.880859 62.416016 99.880859 C 63.791016 99.880859 64.353516 99.652413 63.666016 99.375 C 63.322266 99.236294 62.869141 99.167969 62.416016 99.167969 z M 26.978516 103.5332 C 26.470599 103.57804 26.60907 103.73465 27.416016 104.00391 C 29.89367 104.83062 37.13321 105.37476 36.332031 104.67383 C 36.102864 104.47334 33.441016 104.05336 30.416016 103.74023 C 28.640734 103.55647 27.486432 103.48836 26.978516 103.5332 z M 144.32617 123.64844 C 139.73696 123.6528 134.6859 126.32277 129.36328 131.58984 C 126.14366 134.77586 123.78772 137.83196 124.12695 138.38086 C 124.48299 138.95693 124.09136 139.12871 123.20117 138.78711 C 121.19429 138.017 119.41602 139.84955 119.41602 142.6875 C 119.41602 144.88248 119.50195 144.89909 123.02344 143.42773 C 125.00788 142.59858 126.90143 142.1905 127.23047 142.51953 C 127.5595 142.84857 126.86683 143.3684 125.69141 143.67578 C 124.38078 144.01851 123.76199 144.77725 124.0918 145.63672 C 124.38758 146.40752 124.13028 147.03906 123.52148 147.03906 C 122.91263 147.03906 122.41602 147.71406 122.41602 148.53906 C 122.41602 149.36406 121.62852 150.05603 120.66602 150.07812 C 118.21063 150.13452 107.50949 154.94893 109.73047 154.99805 C 110.72913 155.02015 112.52913 154.52261 113.73047 153.89258 L 115.91602 152.74805 L 113.91602 155.06445 C 111.83268 157.47841 113.45832 156.98521 116.66602 154.23047 C 119.05925 152.17519 118.86343 153.51213 116.25586 157.03906 C 115.10046 158.60183 113.81365 159.66449 113.33594 159.46875 L 113.16992 160.29297 C 113.30571 160.30044 113.37503 160.52521 113.38477 160.99023 C 113.40347 161.88131 114.88134 161.01123 117.20703 158.74023 C 119.29272 156.70361 121.43479 155.03906 121.9668 155.03906 C 122.49881 155.03906 123.49663 154.13906 124.18359 153.03906 C 125.58128 150.801 124.56965 150.37729 122.39258 152.28906 C 121.60968 152.97656 121.81451 152.52656 122.84766 151.28906 C 123.88081 150.05156 125.04393 149.03906 125.43359 149.03906 C 126.30741 149.03906 126.05264 151.91362 124.96289 154.35156 C 124.4707 155.45268 124.68276 157.22077 125.50195 158.85156 C 127.77548 163.37753 127.7792 163.60224 125.56055 161.63281 C 122.7829 159.16722 122.8566 160.00058 125.95117 166.10742 C 127.34731 168.86256 128.94951 170.82644 129.51562 170.47656 C 130.18715 170.06154 130.34151 171.17598 129.96289 173.68945 C 129.45466 177.06331 129.52811 177.2616 130.55273 175.28906 C 132.34556 171.83764 133.30064 172.61226 132.36523 176.75977 C 131.30974 181.43965 131.76725 182.01777 133.40234 178.07031 C 134.97014 174.28531 136.6779 174.08576 135.80664 177.78906 C 135.19013 180.40949 135.27419 180.37416 137.60938 177.03906 C 139.04048 174.99516 139.65472 173.26582 139.08594 172.88477 C 138.55025 172.5259 139.98048 171.28003 142.26367 170.11523 C 144.54682 168.95043 146.41602 167.3314 146.41602 166.51758 C 146.41602 165.69043 147.32361 165.03906 148.47461 165.03906 C 149.60707 165.03906 150.289 164.64358 149.99023 164.16016 C 149.69146 163.67674 147.49021 163.50181 145.09766 163.77148 C 140.10349 164.3344 135.69825 162.48472 132.57617 158.51562 C 130.70786 156.14046 130.48626 156.08479 129.51953 157.74609 C 128.62035 159.29131 128.47153 159.31368 128.44531 157.91016 C 128.42861 157.01501 129.10008 155.71453 129.9375 155.01953 C 130.81647 154.29005 131.21167 152.96956 130.87109 151.89648 C 130.54661 150.87413 130.7606 150.03906 131.34766 150.03906 C 131.93473 150.03906 132.41602 151.28879 132.41602 152.81641 C 132.41602 160.38338 143.97035 166.36877 147.85938 160.81641 C 149.13897 158.98954 149.41602 158.90053 149.41602 160.31641 C 149.41602 161.26379 149.89431 162.03906 150.48047 162.03906 C 153.22602 162.03906 159.41602 157.04247 159.41602 154.82617 C 159.41602 154.32787 159.93034 154.23941 160.56055 154.62891 C 161.37812 155.13419 161.49928 154.50655 160.98047 152.43945 C 160.58055 150.84605 160.17677 149.48665 160.08398 149.41797 C 159.99118 149.34927 158.41088 148.5273 156.57227 147.5918 C 152.68686 145.61487 152.87646 144.50215 156.8418 146.00977 C 158.32888 146.57516 160.52877 146.99015 161.73047 146.93164 C 163.68337 146.83654 163.62402 146.70956 161.16602 145.73828 C 157.57327 144.3186 157.6895 143.43319 161.57422 142.65625 C 163.31207 142.30868 164.48311 141.77217 164.17578 141.46484 C 163.86845 141.15751 161.88365 141.37299 159.76562 141.94336 C 154.24052 143.43112 153.90713 143.31384 154.25391 140.00781 C 154.62464 136.4735 152.78047 130.24561 150.63477 127.78906 C 148.47716 125.31888 150.10595 125.6149 153.38672 128.28906 C 153.49572 128.37791 153.6318 128.48018 153.74609 128.57227 L 153.60938 127.73633 C 153.5234 127.65261 153.43984 127.568 153.36719 127.48047 C 152.65613 126.6237 150.58073 125.29845 148.75391 124.53516 C 147.33362 123.94172 145.85591 123.64698 144.32617 123.64844 z M 136.64453 127.6543 C 136.80338 127.66299 136.95312 127.69235 137.08789 127.74414 C 138.68343 128.35731 138.59774 128.5216 136.42578 129.03516 C 135.05696 129.35882 132.91946 131.13302 131.67578 132.97852 C 130.16507 135.22025 129.41602 135.7617 129.41602 134.60938 C 129.41602 132.0234 134.26187 127.52388 136.64453 127.6543 z M 146.33789 130.22852 C 147.5359 130.26361 148.79587 130.88185 149.42773 132.0625 C 150.83474 134.69153 150.17351 135.65671 148.41602 133.53906 C 147.63031 132.59234 146.3664 132.237 145.15625 132.62109 C 143.76085 133.06398 143.30977 132.84886 143.625 131.89258 C 144.00442 130.74156 145.13988 130.19342 146.33789 130.22852 z M 137.36328 130.24609 C 137.49976 130.26063 137.63212 130.29086 137.75977 130.33984 C 140.05059 131.2189 139.83983 133.03906 137.44727 133.03906 C 136.32863 133.03906 134.83432 134.22597 133.98633 135.78906 C 132.64263 138.2659 132.49114 138.32517 132.45508 136.39844 C 132.40155 133.53774 135.31603 130.02802 137.36328 130.24609 z M 137.33203 136.03906 C 138.84882 136.03906 141.41602 139.73256 141.41602 141.91602 C 141.41602 144.77902 138.70053 150.03906 137.22266 150.03906 C 136.59512 150.03906 136.37902 149.74012 136.74219 149.37695 C 137.10536 149.01379 136.5047 148.08833 135.4082 147.32031 C 131.99761 144.93144 133.51434 136.03906 137.33203 136.03906 z M 147.94531 136.17383 C 148.86203 136.22743 149.71321 136.72798 150.25391 137.73828 C 151.37182 139.82711 150.64857 145.03906 149.24023 145.03906 C 148.72188 145.03906 148.51613 144.68409 148.7832 144.25195 C 149.05028 143.8198 148.45221 143.4668 147.45508 143.4668 C 145.41511 143.4668 145.79969 145.58835 147.99219 146.42969 C 149.90141 147.16232 149.80236 149.6763 147.83398 150.43164 C 146.964 150.76549 146.1765 151.0024 146.08398 150.95898 C 145.99148 150.91558 145.35352 150.65241 144.66602 150.375 C 143.10448 149.7449 143.02572 147.33452 144.55078 146.82617 C 145.36324 146.55535 145.30454 145.8326 144.3418 144.29102 C 143.35862 142.71669 143.25877 141.37962 143.97461 139.33594 C 144.71038 137.23534 146.41746 136.08449 147.94531 136.17383 z M 147.41602 137.53906 C 146.68269 137.53906 145.89519 138.10156 145.66602 138.78906 C 145.41816 139.53265 146.12713 140.03906 147.41602 140.03906 C 148.70491 140.03906 149.41388 139.53265 149.16602 138.78906 C 148.93685 138.10156 148.14935 137.53906 147.41602 137.53906 z M 137.52734 138.17383 C 137.13324 138.1572 136.69833 138.3544 136.24805 138.80469 C 135.35843 139.69431 135.47734 140.12566 136.74805 140.61328 C 138.82227 141.40923 138.96016 145.03906 136.91602 145.03906 C 136.09102 145.03906 135.41602 144.51276 135.41602 143.87109 C 135.41602 143.22943 135.12681 142.99428 134.77344 143.34766 C 133.86615 144.25495 136.4847 147.17975 137.81445 146.74414 C 138.4194 146.54597 139.06072 144.89906 139.23828 143.08398 C 139.52009 140.20337 138.70965 138.22371 137.52734 138.17383 z M 124.33789 140.25781 C 124.50164 140.24083 124.65213 140.24272 124.7832 140.26562 C 124.93301 140.2918 125.05705 140.34611 125.14453 140.43359 C 125.38792 140.67698 124.6471 141.37828 123.5 141.99219 C 122.35216 142.60649 121.41602 142.69052 121.41602 142.17969 C 121.41602 141.39281 123.19161 140.37666 124.33789 140.25781 z M 119.79297 146.42773 C 119.67149 146.42364 119.53818 146.46246 119.39844 146.54883 C 118.83947 146.89429 118.64059 147.59542 118.95703 148.10742 C 119.81426 149.49446 120.41602 149.23505 120.41602 147.47852 C 120.41602 146.83542 120.15741 146.44 119.79297 146.42773 z M 122.72461 155.53906 L 120.57031 157.44336 C 119.38517 158.4911 118.41602 159.7286 118.41602 160.19336 C 118.41602 161.66016 119.13021 161.12462 120.95508 158.28906 L 122.72461 155.53906 z M 117.91602 237.57227 C 115.89871 237.49062 110.41602 239.82351 110.41602 241.00391 C 110.41602 241.40961 108.57062 243.49651 106.31641 245.64062 C 98.477479 253.0967 96.308993 255.3663 95.388672 257.08594 C 94.560486 258.63342 94.836803 258.73173 98.011719 258.01562 C 99.963685 257.57538 102.51971 256.3883 103.69141 255.37695 C 110.97219 249.09259 112.41602 247.53485 112.41602 245.95898 C 112.41602 243.43951 113.47309 241.03906 114.58203 241.03906 C 115.10564 241.03906 115.21834 241.54605 114.83398 242.16797 C 114.44961 242.78988 113.97978 244.92738 113.78906 246.91797 C 113.29712 252.05271 111.49658 263.29203 110.91406 264.86133 C 110.64407 265.58868 110.93803 267.16368 111.56836 268.36133 C 113.46211 271.95935 116.41602 273.27154 116.41602 270.51562 C 116.41602 267.96758 124.26731 260.29567 129.74805 257.48828 L 134.91602 254.8418 L 130.9707 255.52148 C 126.77853 256.24461 117.98069 260.31581 116.92773 262.01953 C 116.58135 262.57999 115.78379 263.03906 115.15625 263.03906 C 114.3344 263.03906 114.35049 262.70226 115.21484 261.83789 C 115.87484 261.17789 116.41983 259.49039 116.42578 258.08789 C 116.43178 256.68539 117.14951 253.28906 118.01953 250.53906 C 119.74898 245.07256 119.98876 239.21142 118.54297 237.76562 C 118.42238 237.64504 118.2042 237.58393 117.91602 237.57227 z M 110.41602 244.03906 C 110.96602 244.03906 111.41602 244.48906 111.41602 245.03906 C 111.41602 245.58906 110.96602 246.03906 110.41602 246.03906 C 109.86602 246.03906 109.41602 245.58906 109.41602 245.03906 C 109.41602 244.48906 109.86602 244.03906 110.41602 244.03906 z M 71.814453 257.59375 C 71.233715 257.66021 70.699757 258.45925 69.601562 260.23633 C 68.479236 262.05246 66.741008 266.1238 65.738281 269.2832 C 64.622101 272.80007 63.450743 274.8554 62.716797 274.58398 C 62.057452 274.34014 61.238656 275.0179 60.898438 276.08984 C 59.266921 281.2303 55.416016 274.59618 55.416016 266.64648 C 55.416016 259.97177 53.830657 258.53293 50.970703 262.60938 C 47.113389 268.10739 41.421184 272.95627 37.416016 274.15625 C 32.33868 275.67745 32.113468 277.50548 37.119141 276.56641 C 42.417851 275.57237 48.558797 272.20308 49.142578 269.9707 C 49.417317 268.9201 50.041827 268.30615 50.529297 268.60742 C 51.016768 268.9087 51.42859 268.11762 51.445312 266.84766 C 51.473172 264.73179 51.565192 264.69083 52.541016 266.36914 C 53.126713 267.37648 53.367539 269.11238 53.076172 270.22656 C 52.412197 272.76561 53.985146 277.14336 56.152344 278.78906 C 58.82623 280.81953 63.034701 280.23033 66.462891 277.3457 C 69.246792 275.0032 69.430949 274.56982 67.878906 274.02539 C 66.383631 273.50088 66.65758 273.05212 69.570312 271.25195 C 71.482197 270.07034 73.910642 268.1475 74.966797 266.98047 L 76.886719 264.85938 L 72.900391 265.50586 L 68.916016 266.15234 L 72.177734 263.26172 C 75.357252 260.44526 75.39159 260.32708 73.541016 258.65234 C 72.746126 257.93298 72.266139 257.54206 71.814453 257.59375 z "
       transform="translate(-2.415252,-6.0381356)"
       id="path4146" />
    <path
       style="fill:none;fill-opacity:1;stroke:#000000;stroke-width:1.09869361;stroke-linejoin:bevel;stroke-miterlimit:4;stroke-dasharray:none;stroke-opacity:1"
       d="m 230.38027,277.25564 c 0,19.68456 -15.95749,35.64205 -35.64205,35.64205 -19.68457,0 -32.54947,-35.64205 -96.742725,-35.64205 -64.193256,0 -77.058164,35.64205 -96.7427253,35.64205 -19.6845617,0 -35.6420527,-15.95749 -35.6420557,-35.64205 C -34.389289,257.57107 1.2527686,243.53 1.2527697,141.47637 1.2527708,39.422747 -34.389286,25.381673 -34.389286,5.6971086 c 0,-19.6845636 15.957492,-35.6420556 35.6420557,-35.6420556 19.6845633,0 32.5494713,35.6420566 96.7427253,35.6420556 64.193245,-1e-6 77.058155,-35.6420586 96.742725,-35.6420556 19.68456,3e-6 35.64205,15.957494 35.64205,35.6420556 0,19.6845614 -35.64205,33.7256354 -35.64205,135.7792614 0,102.05363 35.64205,116.0947 35.64205,135.77927 z"
       id="path4733-1"
       inkscape:connector-curvature="0"
       sodipodi:nodetypes="sssssssssssss" />
  </g>
</svg>
