<?xml version="1.0" encoding="UTF-8" standalone="no"?>
<!-- Created with Inkscape (http://www.inkscape.org/) -->

<svg
   xmlns:dc="http://purl.org/dc/elements/1.1/"
   xmlns:cc="http://creativecommons.org/ns#"
   xmlns:rdf="http://www.w3.org/1999/02/22-rdf-syntax-ns#"
   xmlns:svg="http://www.w3.org/2000/svg"
   xmlns="http://www.w3.org/2000/svg"
   xmlns:sodipodi="http://sodipodi.sourceforge.net/DTD/sodipodi-0.dtd"
   xmlns:inkscape="http://www.inkscape.org/namespaces/inkscape"
   id="svg2"
   version="1.1"
   inkscape:version="0.91 r13725"
   width="179"
   height="285"
   viewBox="0 0 179 285"
   sodipodi:docname="Sam-I-Am-Yellow.svg">
  <metadata
     id="metadata8">
    <rdf:RDF>
      <cc:Work
         rdf:about="">
        <dc:format>image/svg+xml</dc:format>
        <dc:type
           rdf:resource="http://purl.org/dc/dcmitype/StillImage" />
        <dc:title></dc:title>
      </cc:Work>
    </rdf:RDF>
  </metadata>
  <defs
     id="defs6" />
  <sodipodi:namedview
     pagecolor="#ffffff"
     bordercolor="#666666"
     borderopacity="1"
     objecttolerance="10"
     gridtolerance="10"
     guidetolerance="10"
     inkscape:pageopacity="0"
     inkscape:pageshadow="2"
     inkscape:window-width="1256"
     inkscape:window-height="758"
     id="namedview4"
     showgrid="false"
     inkscape:zoom="1.2946821"
     inkscape:cx="230.05852"
     inkscape:cy="114.62398"
     inkscape:window-x="2515"
     inkscape:window-y="120"
     inkscape:window-maximized="0"
     inkscape:current-layer="g4138"
     showguides="false" />
  <g
     id="g4138"
     transform="translate(2.415252,6.0381356)">
    <path
       style="fill:#dbdc0c"
       d="M 72.898438 115.9668 L 71.328125 121.53906 C 70.243485 125.38906 69.085579 130.68477 68.755859 133.30859 C 68.540966 135.01866 68.425746 136.13649 68.552734 137.0293 C 68.595064 137.3269 68.664247 137.6003 68.765625 137.86133 C 69.171139 138.90543 70.091741 139.76509 71.863281 141.30859 C 77.879931 146.55073 81.52051 149.83316 83.59375 152.00195 C 84.112036 152.54416 84.5321 153.01534 84.867188 153.43164 C 84.939419 153.52136 84.992199 153.59898 85.056641 153.68359 C 85.291504 153.99199 85.489739 154.27656 85.628906 154.52539 C 85.806123 154.84225 85.91045 155.11547 85.955078 155.35938 C 85.999706 155.60328 85.98453 155.81821 85.921875 156.01562 C 85.882571 156.13947 85.861629 156.27342 85.857422 156.41602 C 85.849008 156.7012 85.909298 157.02082 86.03125 157.36133 C 86.092226 157.53158 86.168704 157.70756 86.259766 157.88672 C 86.441889 158.24503 86.682163 158.61799 86.974609 158.99219 C 87.120833 159.17929 87.279873 159.36659 87.451172 159.55273 C 87.622458 159.73889 87.805296 159.92357 88 160.10547 L 88.001953 160.10547 C 88.360046 160.44001 88.738629 160.83203 89.119141 161.25586 L 89.119141 161.25781 C 89.499326 161.68133 89.881005 162.13433 90.240234 162.5918 L 90.240234 162.59375 C 90.958894 163.50905 91.594096 164.43827 91.96875 165.1582 C 92.343575 165.87848 93.187913 167.1235 94.248047 168.55078 C 95.308181 169.97806 96.584709 171.58599 97.818359 173.03125 C 98.126772 173.39256 98.44466 173.78964 98.769531 174.21289 C 99.094427 174.63614 99.424048 175.08506 99.755859 175.55469 L 99.757812 175.55664 C 100.08912 176.0256 100.42135 176.514 100.75 177.01367 C 100.87813 177.20849 101.00023 177.41152 101.12695 177.60938 C 101.65152 178.42841 102.167 179.26315 102.64258 180.09375 C 103.52787 181.63992 104.29343 183.14876 104.81055 184.41211 C 105.11536 185.15679 105.39013 185.7584 105.64648 186.29102 C 105.72187 186.44734 105.79239 186.58429 105.86328 186.72266 C 106.03373 187.05589 106.18838 187.3336 106.33203 187.56641 C 106.40951 187.69159 106.49513 187.8447 106.56445 187.94141 C 106.57659 187.95838 106.58773 187.97217 106.59961 187.98828 C 106.73493 188.17123 106.85561 188.30693 106.95703 188.38086 C 106.99556 187.48788 106.54921 185.42334 105.49023 182.42188 C 104.2993 179.0464 104.11297 177.41434 104.82422 177.78906 C 104.8243 177.78502 104.82607 177.78329 104.82617 177.7793 C 104.83465 177.43817 104.93418 177.28497 105.125 177.33008 C 105.13095 177.33146 105.13841 177.33612 105.14453 177.33789 C 105.2003 177.35424 105.26191 177.38714 105.33203 177.43555 C 105.35475 177.4511 105.38007 177.47126 105.4043 177.49023 C 105.45053 177.52668 105.50107 177.57418 105.55273 177.62305 C 105.69435 177.75649 105.85681 177.93712 106.03906 178.16602 C 106.28246 178.47186 106.55305 178.84478 106.86719 179.32422 C 106.98676 179.50671 107.10098 179.69793 107.21094 179.89844 L 107.21289 179.90039 C 107.3224 180.10022 107.4273 180.30882 107.52734 180.52539 C 107.58385 180.64766 107.62813 180.79064 107.68164 180.91797 C 108.38928 182.60185 108.84507 184.69993 109.04688 187.01562 C 109.15537 188.26064 109.19416 189.56355 109.16406 190.88672 C 109.14901 191.5483 109.11706 192.21539 109.06836 192.88281 C 108.97096 194.21765 108.80613 195.55599 108.57812 196.85938 C 108.35013 198.16276 108.05833 199.43199 107.70508 200.63086 C 106.99857 203.0286 106.04668 205.14428 104.87109 206.68555 C 104.11648 207.67489 103.61575 208.39213 103.34961 208.9043 L 103.34961 208.90625 C 103.1729 209.24672 103.09918 209.49565 103.125 209.67188 L 103.125 209.67383 C 103.13819 209.76121 103.17704 209.83102 103.23828 209.88477 C 103.36165 209.99303 103.58053 210.03906 103.89062 210.03906 C 105.3188 210.03906 105.31434 210.33114 103.85547 213.15234 C 102.9697 214.86524 100.42652 218.24024 98.203125 220.65234 C 97.352074 221.57562 96.655349 222.42458 96.158203 223.125 C 95.826772 223.59194 95.58462 223.99304 95.443359 224.30664 C 95.372146 224.46459 95.326515 224.59823 95.308594 224.70898 C 95.306786 224.71997 95.311816 224.72388 95.310547 224.73438 C 95.299065 224.82928 95.304029 224.91029 95.337891 224.96289 C 95.356615 224.99147 95.381195 225.01431 95.414062 225.0293 L 95.416016 225.0293 C 95.449081 225.04405 95.489522 225.05221 95.537109 225.05273 L 95.539062 225.05273 C 95.544086 225.05279 95.545808 225.05462 95.550781 225.05469 C 95.779825 225.05779 95.950771 225.07307 96.074219 225.09961 C 96.426034 225.16837 96.363426 225.34556 95.916016 225.68359 C 95.911257 225.6872 95.911097 225.68971 95.90625 225.69336 C 95.871657 225.84338 95.576454 226.0799 95.001953 226.45117 C 94.176953 226.98433 91.34891 227.42713 88.71875 227.43555 C 83.481302 227.45229 79.27584 228.9202 76.373047 231.70703 C 76.186802 231.90268 76.005198 232.10373 75.830078 232.31055 C 75.655691 232.51816 75.486429 232.72982 75.324219 232.94922 C 75.069184 233.29417 74.819981 233.58766 74.576172 233.85742 C 74.406782 234.04996 74.251861 234.20888 74.091797 234.36719 C 74.077815 234.38093 74.062755 234.39855 74.048828 234.41211 C 73.11377 235.44475 72.299523 235.97337 72.0625 235.61914 C 71.629774 234.97251 65.878489 233.19763 63.798828 232.91992 C 63.812516 232.93106 63.833251 232.94744 63.847656 232.95898 C 64.038323 233.11238 64.334812 233.32437 64.632812 233.53711 C 65.1798 233.92538 65.823053 234.36711 66.582031 234.84766 L 69.748047 236.85156 L 68.904297 236.99414 L 69.333984 237.26562 L 61.417969 238.59766 C 58.279199 239.12569 56.480808 239.47659 55.699219 239.75977 C 55.773975 239.82509 55.915204 239.88929 56.119141 239.95508 C 56.323077 240.02087 56.589722 240.08826 56.916016 240.1582 C 58.153516 240.42348 60.662375 240.68187 63.160156 240.82227 C 63.992607 240.86909 64.822958 240.90365 65.605469 240.91992 L 65.607422 240.91992 C 66.389934 240.9362 67.151367 240.9761 67.859375 241.03516 C 68.567448 241.09414 69.219788 241.1729 69.785156 241.26367 L 69.787109 241.26367 C 69.910405 241.28348 69.977277 241.30907 70.091797 241.33008 C 70.502904 241.40549 70.90655 241.48284 71.183594 241.57031 C 71.537923 241.68203 71.768595 241.80023 71.84375 241.92188 C 71.874198 241.97114 71.873834 242.02587 71.859375 242.08203 C 71.853809 242.10592 71.84117 242.13126 71.828125 242.15625 C 71.815255 242.17969 71.794585 242.20418 71.775391 242.22852 C 71.704688 242.32115 71.599845 242.41817 71.445312 242.52148 C 71.097482 243.51786 64.449803 245.45117 61.058594 245.45117 C 60.232824 245.45117 59.657287 245.50815 59.302734 245.60742 C 59.331044 245.67669 59.397297 245.75047 59.490234 245.82812 C 59.507102 245.84217 59.53186 245.85681 59.550781 245.87109 C 59.619339 245.92303 59.7076 245.97847 59.802734 246.0332 C 60.012442 246.15327 60.279016 246.27892 60.609375 246.4082 C 60.666104 246.43043 60.734787 246.45221 60.794922 246.47461 C 61.029148 246.56174 61.315744 246.65158 61.599609 246.74023 C 61.983756 246.86021 62.42157 246.98053 62.890625 247.09961 C 63.115324 247.15661 63.325449 247.21346 63.568359 247.26953 C 64.309425 247.44051 65.111486 247.60818 66.007812 247.76172 C 68.727373 248.22756 71.225285 248.77833 72.441406 249.16211 C 72.644105 249.22602 72.810942 249.28446 72.9375 249.33789 C 73.065033 249.39165 73.15062 249.43968 73.191406 249.48047 C 73.296944 249.58601 73.361408 249.69171 73.408203 249.79688 C 73.415657 249.81396 73.423758 249.8306 73.429688 249.84766 C 73.548916 250.18101 73.376831 250.50763 72.957031 250.8125 L 72.955078 250.81445 C 72.457065 251.64824 70.170797 252.37818 66.734375 252.70312 C 64.63187 252.90193 62.690855 253.23461 61.835938 253.51953 C 62.015338 253.71144 62.696539 253.90535 63.613281 254.08594 C 63.847748 254.13194 64.098992 254.17687 64.367188 254.2207 C 64.693765 254.2742 65.031282 254.32568 65.398438 254.375 C 65.726382 254.41885 66.071614 254.45831 66.423828 254.49805 C 66.790847 254.53958 67.157747 254.58097 67.542969 254.61719 C 67.942061 254.65452 68.350508 254.68606 68.759766 254.7168 C 69.134949 254.74506 69.508504 254.77492 69.884766 254.79688 C 70.317915 254.82199 70.737936 254.83584 71.162109 254.85156 C 71.510817 254.86454 71.865244 254.88078 72.201172 254.88672 C 72.711196 254.89561 73.177986 254.88799 73.640625 254.87891 C 73.862733 254.87454 74.110801 254.87803 74.318359 254.86914 C 74.380977 254.86646 74.434943 254.86246 74.496094 254.85938 C 75.052045 254.83111 75.560974 254.78883 75.96875 254.72266 C 76.916295 254.56889 77.777414 254.53478 78.402344 254.60352 C 79.027841 254.6719 79.416016 254.84362 79.416016 255.10156 C 79.416016 255.1607 79.396263 255.21731 79.367188 255.27344 C 79.360022 255.2873 79.350627 255.30081 79.341797 255.31445 C 79.320491 255.34737 79.290387 255.37866 79.259766 255.41016 C 79.189135 255.48292 79.101499 255.55187 78.986328 255.61523 C 78.981835 255.61771 78.979165 255.62059 78.974609 255.62305 C 78.972748 255.62405 78.972575 255.62595 78.970703 255.62695 C 78.815642 256.08923 77.74019 256.45117 76.433594 256.45117 C 75.642577 256.45117 75.11047 256.4966 74.769531 256.63867 C 74.740627 256.71759 74.725419 256.80896 74.71875 256.9082 C 74.717854 256.92432 74.717113 256.94033 74.716797 256.95703 C 74.713937 257.04768 74.719008 257.14695 74.732422 257.25586 C 74.736371 257.28517 74.742978 257.31891 74.748047 257.34961 C 74.78813 257.61054 74.863367 257.91282 74.980469 258.28906 C 75.119251 258.73497 75.215945 259.06781 75.285156 259.33594 C 75.395308 259.76263 75.413284 260.00371 75.267578 259.99023 C 75.265959 259.99008 75.263375 259.98848 75.261719 259.98828 C 75.182121 259.97854 75.054429 259.90564 74.880859 259.77539 L 74.878906 259.77344 C 75.013204 260.30029 75.000309 260.51998 74.710938 260.35938 C 74.660521 260.88511 74.132103 261.47043 73.046875 262.46094 C 73.177789 262.37097 73.321651 262.2768 73.460938 262.18359 C 73.780685 261.96258 74.084309 261.7469 74.478516 261.49805 L 74.480469 261.49805 C 75.057 261.13412 75.576407 260.81797 76.054688 260.53906 C 76.203243 260.45237 76.320114 260.39108 76.458984 260.3125 C 76.750846 260.14749 77.03994 259.98601 77.287109 259.85742 C 77.474241 259.75988 77.623984 259.69219 77.785156 259.61523 C 77.935136 259.54383 78.090328 259.46727 78.216797 259.41406 C 78.380042 259.34498 78.507003 259.30301 78.630859 259.26367 C 78.728283 259.23317 78.830643 259.1971 78.902344 259.18555 C 79.297068 259.11706 79.298337 259.33056 78.892578 259.81445 C 78.870211 259.84106 78.839361 259.87407 78.814453 259.90234 C 78.664144 260.07333 78.481038 260.26525 78.234375 260.49805 L 78.232422 260.5 C 77.93523 260.81208 77.5596 261.17466 77.001953 261.65039 C 76.650472 261.95024 76.406503 262.17841 76.179688 262.39453 C 76.028954 262.56484 75.953781 262.68535 75.941406 262.76562 C 75.939725 262.78015 75.934388 262.79714 75.9375 262.80859 C 75.941109 262.8256 75.953268 262.83698 75.966797 262.84766 C 75.974755 262.85335 75.988976 262.85563 76 262.85938 C 76.031529 262.87108 76.091898 262.86464 76.150391 262.85938 C 76.28468 262.8464 76.463585 262.80664 76.734375 262.70898 C 76.739216 262.70724 76.741208 262.70685 76.746094 262.70508 C 77.249836 262.52192 77.795235 262.35509 78.267578 262.23438 C 78.739549 262.11365 79.139208 262.03906 79.351562 262.03906 C 79.45774 262.03906 79.633996 261.96875 79.863281 261.8418 C 80.551136 261.46094 81.707577 260.57031 82.820312 259.53906 C 84.303962 258.16406 86.057637 257.04431 86.716797 257.05273 C 86.897545 257.05506 87.024481 257.07691 87.109375 257.11328 C 87.259583 257.17211 87.250034 257.28454 87.140625 257.43164 C 87.130089 257.44528 87.123965 257.45833 87.111328 257.47266 C 87.04476 257.5502 86.943891 257.63784 86.8125 257.73633 C 86.808863 257.73906 86.808372 257.7414 86.804688 257.74414 C 86.745975 257.8949 86.521375 258.10121 86.099609 258.36914 C 85.946715 258.55601 85.7678 258.83624 85.589844 259.11523 C 85.490089 259.27181 85.390487 259.42717 85.285156 259.60742 C 85.129942 259.8729 84.971431 260.16227 84.808594 260.46875 C 84.704949 260.66413 84.601065 260.86237 84.496094 261.07031 C 84.327707 261.40353 84.159405 261.74661 83.992188 262.10156 C 83.884746 262.33006 83.778857 262.55995 83.673828 262.79297 C 83.525841 263.12085 83.379872 263.44868 83.240234 263.77734 C 83.097936 264.11296 82.967057 264.44142 82.837891 264.76758 C 82.747715 264.99501 82.656161 265.22475 82.574219 265.44336 C 82.432437 265.82223 82.315958 266.16782 82.205078 266.50586 C 82.152542 266.66597 82.089194 266.84036 82.044922 266.98828 C 81.944461 267.32416 81.886897 267.59074 81.835938 267.84766 C 81.815003 267.95331 81.77308 268.09402 81.761719 268.18359 C 81.745317 268.31301 81.738849 268.42769 81.744141 268.51953 C 81.744652 268.5284 81.741453 268.54228 81.742188 268.55078 C 81.75114 268.65582 81.774976 268.73201 81.818359 268.77539 C 81.839002 268.79603 81.884263 268.78384 81.935547 268.76367 C 82.097236 268.68703 82.392917 268.4292 82.753906 268.07422 C 83.395001 267.39526 84.191963 266.47385 85.039062 265.4043 C 87.429442 262.38619 87.980139 261.05794 87.074219 260.49805 C 86.487278 260.13529 86.478803 259.8166 87.039062 259.50977 C 87.049357 259.44205 87.091566 259.37626 87.152344 259.31055 C 87.167401 259.29415 87.188842 259.27802 87.207031 259.26172 C 87.265009 259.21014 87.337944 259.15816 87.427734 259.10742 C 87.452059 259.09363 87.47723 259.08015 87.503906 259.06641 C 87.569481 259.03275 87.654589 258.99826 87.734375 258.96484 C 87.963745 258.86846 88.231022 258.77323 88.580078 258.67773 C 88.98715 258.56636 89.27302 258.46933 89.525391 258.37305 C 89.614044 258.33868 89.717775 258.30322 89.789062 258.26953 C 89.788096 258.05774 89.527262 257.81165 89.001953 257.4668 C 87.942769 256.77146 87.83938 256.55908 88.65625 256.49609 C 88.566279 256.41153 88.520603 256.34278 88.511719 256.28711 C 88.510947 256.2827 88.508088 256.27769 88.507812 256.27344 C 88.506835 256.25232 88.513637 256.23413 88.525391 256.2168 C 88.532519 256.20553 88.544267 256.19538 88.556641 256.18555 C 88.57442 256.17212 88.58921 256.15736 88.617188 256.14648 L 88.619141 256.14648 C 88.620428 256.14597 88.62369 256.14504 88.625 256.14453 C 88.689465 256.1205 88.799635 256.10508 88.916016 256.0918 C 89.103893 256.06958 89.336441 256.05562 89.666016 256.05273 C 89.906641 256.05073 90.136523 256.09517 90.345703 256.17578 C 90.764062 256.33694 91.099609 256.64501 91.277344 257.03125 C 91.366211 257.2244 91.416016 257.43707 91.416016 257.66016 C 91.416016 257.98875 91.432389 258.23972 91.476562 258.41602 C 91.609083 258.9449 91.986762 258.80135 92.882812 258.0625 C 93.519697 257.37487 94.001953 256.46355 94.001953 255.83008 C 94.001953 255.28463 94.278084 254.81846 94.669922 254.5957 C 94.670935 254.59414 94.67281 254.59336 94.673828 254.5918 C 94.726953 254.51044 94.780783 254.4367 94.847656 254.37109 L 94.849609 254.36914 C 94.919313 254.29779 94.996183 254.23796 95.078125 254.1875 C 95.153027 254.14419 95.227839 254.10369 95.310547 254.08008 C 95.398107 254.05508 95.488205 254.03906 95.582031 254.03906 C 95.685928 254.03906 95.763786 254.02194 95.847656 254.00977 C 95.828072 253.97325 95.822028 253.93921 95.783203 253.90039 C 95.480323 253.59751 92.228661 254.3215 88.556641 255.50781 C 84.884611 256.69411 81.606868 257.39202 81.273438 257.05859 C 81.006197 256.79135 81.165318 256.57034 81.599609 256.49023 L 81.599609 256.48828 C 81.549131 256.3666 81.585727 256.26414 81.708984 256.18555 C 81.735815 256.16702 81.773396 256.15404 81.808594 256.13867 C 81.859736 256.1176 81.904189 256.09422 81.970703 256.08008 C 82.083889 256.05496 82.21672 256.03906 82.375 256.03906 C 82.585149 256.03906 83.041646 255.93063 83.683594 255.73828 C 84.325542 255.54593 85.153237 255.26925 86.103516 254.93359 C 88.004073 254.26227 90.397947 253.35272 92.791016 252.40234 C 95.183458 251.45222 97.575065 250.46006 99.472656 249.62305 C 100.42245 249.20402 101.24853 248.82475 101.88867 248.50781 C 102.52761 248.19147 102.98223 247.93716 103.18945 247.77148 C 103.40968 247.59541 103.54339 247.46504 103.69531 247.32422 L 103.69727 247.32227 C 104.49885 246.28472 101.94788 247.00755 96.658203 249.38086 C 93.011393 251.01707 88.335475 252.59721 86.265625 252.89258 C 83.474777 253.29082 82.994269 253.32398 84.935547 252.71484 C 84.929389 252.71558 84.929914 252.71412 84.923828 252.71484 C 84.32725 252.78574 84.095279 252.7839 84.228516 252.70117 C 84.291444 252.66231 84.518332 252.58373 84.742188 252.50586 C 84.916894 252.44555 85.077905 252.38469 85.351562 252.29883 C 85.868572 252.13614 86.535424 251.93514 87.416016 251.67188 C 88.079751 251.47344 88.857053 251.20541 89.693359 250.89844 C 89.896768 250.82379 90.122989 250.73218 90.333984 250.65234 C 90.964314 250.41377 91.613214 250.16102 92.292969 249.88477 C 92.626905 249.74902 92.969636 249.60541 93.310547 249.46289 C 93.928944 249.20438 94.54942 248.93973 95.175781 248.66602 C 95.481193 248.53251 95.784036 248.39917 96.087891 248.26367 C 96.73601 247.9747 97.372941 247.68506 97.998047 247.39453 C 98.310493 247.24924 98.623217 247.10468 98.925781 246.96094 C 99.497871 246.68923 100.0319 246.42559 100.55469 246.16602 C 100.85336 246.01763 101.16558 245.86483 101.44336 245.72266 C 101.94564 245.46566 102.37274 245.2332 102.79102 245.00391 C 103.00824 244.88474 103.27062 244.75032 103.46094 244.64062 C 103.4901 244.62383 103.51252 244.61031 103.54102 244.59375 C 104.00564 244.32353 104.38777 244.0838 104.65039 243.88867 C 104.65529 243.88504 104.66315 243.88056 104.66797 243.87695 C 104.6819 243.83652 104.68317 243.80036 104.6582 243.77539 C 104.39909 243.51628 102.7276 244.05976 100.94336 244.98242 C 96.580838 247.23836 87.413163 250.16818 82.501953 250.87695 C 79.722385 251.27809 78.86138 251.31723 80.332031 250.77344 C 80.140081 250.78091 80.034773 250.76817 80 250.74023 C 79.993001 250.73429 79.984173 250.72832 79.984375 250.7207 C 79.984529 250.71231 79.994913 250.70187 80.003906 250.69141 C 80.014048 250.67991 80.018225 250.67029 80.039062 250.65625 C 80.095355 250.61833 80.227126 250.56115 80.363281 250.50391 C 80.530176 250.43402 80.760285 250.34632 81.048828 250.24609 C 81.10521 250.22652 81.132229 250.21414 81.193359 250.19336 C 81.216457 250.1855 81.259422 250.17209 81.283203 250.16406 C 81.78967 249.99316 82.571748 249.75194 83.396484 249.49805 C 84.696238 249.09785 86.267477 248.62461 88.416016 247.99219 C 89.287214 247.73575 90.212548 247.44128 91.154297 247.12891 C 91.500056 247.01422 91.854287 246.88792 92.205078 246.76758 C 92.813224 246.55892 93.421393 246.34855 94.035156 246.12695 C 94.413089 245.99049 94.787843 245.8507 95.164062 245.71094 C 95.779128 245.48244 96.389714 245.25258 96.990234 245.01953 C 97.347094 244.881 97.698763 244.74214 98.046875 244.60352 C 98.572504 244.39423 99.077895 244.1868 99.576172 243.98047 C 99.978285 243.81388 100.38288 243.64871 100.76172 243.48633 C 101.22568 243.28751 101.64912 243.09735 102.07031 242.9082 C 102.37548 242.77106 102.69991 242.62841 102.97852 242.49805 C 103.46852 242.26898 103.87544 242.0635 104.26953 241.86133 C 104.90686 241.53392 105.45295 241.23412 105.77539 241.00391 C 105.78004 241.0006 105.78644 240.99743 105.79102 240.99414 L 105.79102 240.99219 C 105.8006 240.9526 105.79863 240.91581 105.77148 240.88867 C 105.57526 240.69245 102.58205 241.41442 99.119141 242.49219 C 92.982447 244.40214 90.870371 244.78449 92.447266 243.94727 L 92.445312 243.94531 C 92.15486 243.90883 92.706271 243.58545 93.892578 243.05469 C 94.106577 242.95878 94.300544 242.87106 94.5625 242.75977 C 95.125499 242.52069 95.832856 242.23702 96.613281 241.92969 C 96.869357 241.82886 97.064308 241.74669 97.34375 241.63867 C 98.515768 241.18543 99.839061 240.68768 101.41602 240.11328 C 104.30352 239.0615 107.58878 237.80959 110.55664 236.64062 C 113.52416 235.47123 116.17359 234.38393 117.78906 233.66211 C 118.9071 233.16255 119.8368 232.76502 120.67578 232.41406 C 120.94398 232.30202 121.18947 232.20198 121.42773 232.10547 C 122.16241 231.80724 122.79631 231.56019 123.24219 231.4082 C 123.25181 231.40494 123.26786 231.39773 123.27734 231.39453 C 123.38563 231.35787 123.44106 231.34802 123.53125 231.32031 C 123.68929 231.27201 123.83648 231.2294 123.9375 231.20898 C 124.17942 231.15972 124.27092 231.18332 124.17578 231.29492 C 124.11742 231.36373 123.99932 231.45957 123.80859 231.58984 C 123.99444 231.68217 122.94596 232.36357 120.50195 233.65625 C 119.47649 234.19864 118.70498 234.70343 118.20898 235.12891 C 118.20451 235.13455 118.19768 235.14089 118.19336 235.14648 C 118.15007 235.2026 118.12163 235.25391 118.09375 235.30469 C 118.07633 235.33691 118.0596 235.36862 118.04883 235.39844 C 118.0334 235.43948 118.02437 235.47733 118.02148 235.51367 C 118.01927 235.55179 118.02674 235.58668 118.03906 235.61914 C 118.04739 235.64282 118.05217 235.66892 118.06836 235.68945 C 118.10867 235.73852 118.16513 235.78089 118.25195 235.81055 L 118.25391 235.81055 C 118.34535 235.84136 118.44184 235.8645 118.54297 235.87891 C 119.25546 235.98129 120.16735 235.68626 120.70312 235.15039 C 121.00907 234.84445 121.40492 234.57088 121.79688 234.375 C 122.18882 234.17912 122.57648 234.06157 122.86523 234.07031 C 122.92998 234.07227 122.97992 234.08355 123.01953 234.10156 C 123.0445 234.11249 123.05813 234.13003 123.07422 234.14648 C 123.08297 234.15605 123.09381 234.16447 123.09961 234.17578 C 123.11457 234.20196 123.11962 234.23444 123.11914 234.26953 C 123.11759 234.38436 123.00888 234.55499 122.85352 234.74609 C 122.84291 234.75878 122.83347 234.77026 122.82227 234.7832 C 122.71079 234.91518 122.57116 235.05426 122.39648 235.20898 C 122.39487 235.21087 122.39227 235.21295 122.39062 235.21484 C 122.1942 235.44366 121.93763 235.69915 121.56055 235.98438 C 121.39608 236.10876 121.27886 236.21855 121.14844 236.33398 L 121.14648 236.33594 C 121.14404 236.33882 121.14304 236.34088 121.14062 236.34375 C 120.88958 236.64184 120.79778 236.87258 120.91602 236.97656 C 120.92058 236.98002 120.92266 236.98513 120.92773 236.98828 C 120.97204 237.01964 121.0371 237.03906 121.13086 237.03906 C 121.20989 237.03906 121.28328 237.05342 121.34961 237.08203 C 121.41637 237.11083 121.47404 237.15362 121.52734 237.20898 C 121.57995 237.26363 121.62711 237.33004 121.66602 237.4082 L 121.66602 237.41016 C 121.74391 237.56729 121.79522 237.76827 121.81445 238.00586 L 121.81445 238.00781 C 121.84311 238.36502 121.80252 238.80385 121.68555 239.28906 C 121.59298 239.67304 121.53253 239.98203 121.50391 240.2207 C 121.41802 240.93673 121.62286 241.01908 122.14062 240.58789 C 124.39625 237.91705 127.31205 227.4793 127.77148 220.17969 C 128.04049 215.90556 128.71698 212.12636 129.27539 211.78125 C 129.34083 211.7408 129.39914 211.72104 129.45508 211.70508 C 129.45649 211.7021 129.45757 211.70022 129.45898 211.69727 C 129.47527 211.66313 129.49162 211.64063 129.50781 211.61133 C 129.56939 211.4978 129.63021 211.40576 129.68945 211.36914 C 129.7684 211.32035 129.84116 211.28864 129.90625 211.27539 C 130.03642 211.24889 130.13779 211.29302 130.21094 211.40234 C 130.24751 211.45701 130.27691 211.5282 130.29883 211.61523 C 130.3208 211.70217 130.33671 211.8036 130.34375 211.92188 L 130.34375 211.92383 C 130.35068 212.04165 130.34991 212.17446 130.3418 212.32227 C 130.32552 212.61991 130.27815 212.97577 130.19922 213.38867 C 130.09476 213.93513 130.03346 214.37485 130 214.74609 C 129.97348 215.04099 129.96902 215.28351 129.98438 215.4707 C 129.98799 215.51555 129.99019 215.55885 129.99609 215.59766 C 130.00429 215.65086 130.01294 215.70228 130.02539 215.74414 C 130.03711 215.78404 130.0529 215.81397 130.06836 215.84375 C 130.08427 215.87387 130.09942 215.90807 130.11914 215.92773 C 130.1356 215.94449 130.15669 215.9476 130.17578 215.95703 C 130.23501 215.9855 130.30541 215.98347 130.38867 215.94336 C 130.39968 215.93805 130.4085 215.94009 130.41992 215.93359 C 131.12412 215.09825 132.20472 213.08984 133.52539 209.98242 C 135.03749 206.4246 137.22638 202.72486 138.38867 201.75977 C 138.39399 201.75535 138.39765 201.75363 138.40234 201.75 L 138.4043 201.74805 C 138.54508 201.59223 138.68215 201.44583 138.80273 201.3457 C 139.52917 200.74252 139.95188 200.45884 140 200.52148 C 140.01045 200.53339 140.00476 200.55957 139.98438 200.59961 L 139.98438 200.60156 C 139.94203 200.6827 139.83738 200.82048 139.66602 201.01562 C 139.13075 201.62517 138.77543 202.12603 138.59375 202.50977 L 138.59375 202.51172 C 138.45851 202.79863 138.41872 203.02 138.47266 203.17188 L 138.47266 203.17383 C 138.4907 203.22388 138.52044 203.26602 138.55859 203.30078 C 138.59715 203.33591 138.64628 203.36357 138.70508 203.38281 C 138.88148 203.44055 139.14671 203.42596 139.5 203.33594 C 139.73503 203.27605 140.00992 203.18263 140.32031 203.05469 C 140.63149 202.92632 140.9807 202.7633 141.36523 202.56445 C 141.82619 202.32608 142.24281 202.12226 142.625 201.94336 C 142.76291 201.87883 142.87656 201.83223 143.00391 201.77539 C 143.24992 201.66557 143.48582 201.56166 143.69141 201.48047 C 143.78825 201.44216 143.86733 201.41679 143.95508 201.38477 C 144.13739 201.31835 144.30538 201.25993 144.44727 201.2207 C 144.52839 201.19814 144.59628 201.18375 144.66406 201.16992 C 144.76879 201.14879 144.85789 201.1368 144.92969 201.13672 C 145.00645 201.13624 145.08412 201.1352 145.12305 201.1582 C 145.12596 201.15997 145.13012 201.16021 145.13281 201.16211 C 145.15272 201.17565 145.16363 201.19425 145.17188 201.21484 C 145.175 201.22315 145.17843 201.23081 145.17969 201.24023 C 145.18328 201.26383 145.17841 201.29153 145.16992 201.32227 C 145.16699 201.33265 145.16447 201.34427 145.16016 201.35547 C 145.12992 201.43458 145.0578 201.5368 144.95703 201.65625 C 144.8999 201.72376 144.80664 201.81232 144.72656 201.89258 C 144.63406 201.98554 144.56157 202.06764 144.4375 202.17773 C 144.18037 202.45837 143.7904 202.81291 143.18164 203.28125 L 141.42188 204.63477 L 144.67188 204.25586 C 145.01975 204.21525 145.33864 204.18612 145.63281 204.16992 C 146.2211 204.13752 146.71069 204.15745 147.13867 204.24609 C 147.56665 204.33474 147.93296 204.49156 148.27344 204.73242 C 148.44401 204.85309 148.6072 204.99541 148.76953 205.16016 C 148.84438 205.23605 148.91964 205.33406 148.99414 205.41992 C 149.24229 205.70591 149.48996 206.02973 149.75586 206.43555 C 149.84184 206.56677 149.94831 206.70732 150.07422 206.85547 L 150.07617 206.85742 C 150.20215 207.00552 150.34706 207.16061 150.50781 207.32227 C 150.58526 207.40017 150.69659 207.48983 150.78125 207.57031 C 151.04769 207.82356 151.31839 208.07851 151.64453 208.34961 C 151.64726 208.35188 151.64961 208.3532 151.65234 208.35547 C 152.08091 208.71142 152.55284 209.07801 153.04883 209.44141 C 153.05277 209.44429 153.0566 209.44633 153.06055 209.44922 C 153.5578 209.81324 154.07711 210.17462 154.60156 210.51953 C 154.94763 210.74715 155.2894 210.95039 155.63281 211.16016 C 155.81213 211.26969 155.99568 211.39105 156.17188 211.49414 C 156.442 211.65218 156.68742 211.77633 156.94531 211.91602 C 157.17908 212.04261 157.42547 212.18647 157.64453 212.29492 C 157.78909 212.36649 157.90055 212.40418 158.03711 212.4668 C 158.33978 212.60568 158.65084 212.75143 158.9043 212.83984 C 159.08167 212.90157 159.24711 212.95123 159.39453 212.98438 C 159.53206 213.01529 159.6523 213.02979 159.75977 213.0332 C 159.76789 213.03346 159.77917 213.03701 159.78711 213.03711 C 159.97601 212.71552 160.17017 212.24584 160.3125 211.70117 C 160.56756 210.72515 160.70461 210.50639 160.79492 211.06445 C 161.01882 210.26969 161.1453 210.13419 161.22656 210.78906 C 161.25414 211.01128 161.27755 211.30282 161.29883 211.69922 C 161.30718 211.85479 161.29393 212.02034 161.26172 212.19336 C 161.26146 212.19472 161.26198 212.1959 161.26172 212.19727 C 161.25619 212.22673 161.24296 212.25916 161.23633 212.28906 C 161.20364 212.43641 161.16365 212.58541 161.10547 212.74219 C 161.03558 212.9305 160.94675 213.12574 160.84375 213.32422 C 160.53427 213.92056 160.08102 214.55175 159.54492 215.17188 C 159.19001 215.58241 158.79945 215.98338 158.38477 216.36719 C 158.38065 216.371 158.37716 216.3751 158.37305 216.37891 C 156.69388 218.0514 154.54494 219.45117 153.07422 219.45117 C 150.03609 219.45117 146.81386 220.9265 144.58398 223.19727 C 144.27101 223.54984 143.98168 223.91818 143.7207 224.30273 C 142.46075 226.15934 141.63857 227.54014 141.2168 228.45898 C 141.18796 228.52181 141.14802 228.59593 141.12305 228.6543 C 140.81042 229.38472 140.79985 229.76586 141.08594 229.78906 C 141.22889 229.80066 141.44622 229.72308 141.73633 229.55469 C 142.46159 229.13371 143.64347 228.14688 145.27148 226.57617 C 148.10038 223.84685 150.41602 221.92887 150.41602 222.31445 C 150.41602 222.35804 150.37678 222.43637 150.31836 222.5332 C 150.29842 222.56651 150.26859 222.60929 150.24219 222.64844 C 150.2001 222.71048 150.14945 222.78148 150.0918 222.85742 C 150.00171 222.97676 149.85228 223.14605 149.72656 223.29688 C 149.55596 223.50043 149.37431 223.71237 149.14648 223.96484 C 148.93799 224.19695 148.71959 224.43438 148.46875 224.70117 C 148.29373 224.88682 148.10456 225.08199 147.91211 225.28125 C 147.58593 225.61965 147.27139 225.94527 146.90234 226.31445 L 146.89453 226.32227 C 146.23555 226.98999 145.5197 227.69834 144.75195 228.42969 C 144.13632 229.01614 143.63843 229.51603 143.16211 230 C 143.16093 230.0012 143.15938 230.00271 143.1582 230.00391 C 142.66516 230.51603 142.26609 230.95723 141.94531 231.33594 C 141.66608 231.66576 141.44957 231.94564 141.29883 232.17188 C 141.28074 232.19906 141.26233 232.22824 141.24609 232.25391 C 141.19273 232.33811 141.14887 232.41462 141.11523 232.48242 C 141.09787 232.51757 141.08627 232.5494 141.07422 232.58008 C 141.05325 232.6333 141.03441 232.6829 141.0293 232.72266 C 141.02572 232.75025 141.03308 232.768 141.03711 232.78906 C 141.04263 232.81848 141.04622 232.8505 141.06641 232.86719 C 141.08042 232.87837 141.10809 232.8776 141.12891 232.88281 C 141.18431 232.89708 141.26335 232.88828 141.36719 232.85938 C 141.41384 232.84633 141.45148 232.84213 141.50781 232.82031 C 141.55399 232.80252 141.61526 232.76986 141.66797 232.74609 C 141.74632 232.71062 141.82538 232.67559 141.91797 232.62695 C 142.15294 232.50388 142.45473 232.31705 142.78125 232.10742 C 143.09757 231.90417 143.47435 231.64099 143.875 231.35547 C 144.02914 231.24567 144.15766 231.16122 144.32422 231.03906 C 144.94134 230.58619 145.6315 230.06191 146.41602 229.4375 L 150.91602 225.85547 L 151.45898 228.69727 C 151.56437 229.24813 151.6508 229.65331 151.74219 229.97266 C 151.76763 230.06139 151.79343 230.17681 151.82031 230.24609 C 151.88129 230.40325 151.94778 230.50908 152.02539 230.56055 C 152.02641 230.56122 152.02632 230.5638 152.02734 230.56445 C 152.05726 230.58366 152.0913 230.58703 152.125 230.58984 C 152.13648 230.59075 152.14623 230.59868 152.1582 230.59766 C 152.20401 230.59405 152.25258 230.57558 152.30664 230.54297 C 152.77036 229.95617 153.45779 228.79805 154.55273 226.95117 C 155.70758 225.00326 157.04269 223.25363 158.01953 222.32812 C 158.29042 222.03782 158.53544 221.8095 158.75977 221.62695 C 158.82539 221.57324 158.88854 221.52385 158.94922 221.48047 C 159.0008 221.44385 159.05389 221.40373 159.10156 221.375 C 159.22144 221.30214 159.33189 221.24759 159.42383 221.22852 C 159.52364 221.20781 159.64421 221.16515 159.78125 221.10352 C 159.78401 221.10227 159.78824 221.10087 159.79102 221.09961 C 159.92479 221.03882 160.07728 220.95625 160.24023 220.86133 C 160.46332 220.73088 160.74055 220.53288 161.00586 220.34766 C 161.14633 220.24992 161.2648 220.18109 161.41406 220.07031 C 161.8115 219.77442 162.23761 219.43016 162.66992 219.0625 C 162.69323 219.04272 162.71493 219.02776 162.73828 219.00781 C 162.73964 219.00665 162.74083 219.00507 162.74219 219.00391 C 163.20421 218.60827 163.67276 218.18208 164.125 217.74219 C 168.12354 213.65615 167.35919 211.18727 161.17773 207.99609 C 155.56022 205.09605 149.62353 199.59208 145.37695 193.3457 C 141.66642 187.8878 138.99814 186.8802 135.51367 189.62109 C 134.13213 190.70781 133.00195 191.16089 133.00195 190.62891 C 133.00195 190.42083 133.03006 190.15259 133.08008 189.8418 L 131.70898 190.84375 C 131.68696 190.90748 131.66021 190.99567 131.63867 191.05664 C 131.48291 191.49762 131.33155 191.92601 131.20117 192.24219 C 131.18532 192.28066 131.16584 192.33451 131.15039 192.37109 C 131.14971 192.37271 131.14912 192.37534 131.14844 192.37695 C 131.14454 192.38616 131.14059 192.3913 131.13672 192.40039 C 131.03659 192.63568 130.94671 192.82362 130.86523 192.97656 C 130.84538 193.01383 130.82922 193.03803 130.81055 193.07031 C 130.75088 193.17354 130.69741 193.25513 130.65039 193.30664 C 130.62095 193.33869 130.59057 193.36958 130.56641 193.38086 C 130.52897 193.39848 130.49672 193.39837 130.47266 193.36523 C 130.47157 193.36377 130.4698 193.36484 130.46875 193.36328 C 129.79269 194.65999 129.76165 193.18892 130.91992 188.20117 C 131.5742 185.38366 131.43411 184.21123 130.70703 184.70703 C 130.49669 184.94748 130.25728 185.27511 129.99414 185.68359 C 129.98623 185.69587 129.98061 185.70045 129.97266 185.71289 C 129.96952 185.71785 129.96799 185.72158 129.96484 185.72656 C 129.694 186.15082 129.39663 186.66541 129.06836 187.28906 L 127.35742 190.53906 L 127.44922 189.98828 L 126.94336 190.95117 L 127.44727 187.95117 C 127.72514 186.30117 128.26908 183.82617 128.6543 182.45117 C 129.10224 180.85232 129.21547 180.33384 128.51367 180.97656 C 128.15838 181.34825 127.70512 181.84835 127.08789 182.53906 C 126.67732 182.99852 126.32103 183.35735 126.00586 183.65039 C 126.00417 183.65196 126.00168 183.65469 126 183.65625 C 124.93577 184.73403 124.28466 185.10281 124.53125 184.38867 C 125.24608 182.31848 120.93783 180.01914 118.05664 180.93359 C 117.48788 181.11412 116.88603 181.50081 116.35938 181.98047 C 116.35729 181.98235 116.35558 181.98445 116.35352 181.98633 C 116.35065 181.98949 116.34856 181.99293 116.3457 181.99609 C 116.16681 182.19463 116.00757 182.40385 115.86523 182.61523 C 115.83787 182.65613 115.81283 182.69715 115.78711 182.73828 C 115.65365 182.95054 115.53483 183.16475 115.45312 183.37695 C 115.1318 184.2117 114.9332 184.70998 114.75195 184.875 C 114.75069 184.87613 114.74931 184.87585 114.74805 184.87695 C 114.70989 184.9102 114.67237 184.9227 114.63477 184.92578 C 114.61602 184.92715 114.59712 184.93015 114.57812 184.92383 C 114.57618 184.92321 114.57423 184.92453 114.57227 184.92383 C 114.15786 185.77359 113.96499 185.34623 113.20312 183.45117 C 112.65037 182.07617 109.62692 178.02617 106.48633 174.45117 C 98.502264 165.3628 90.811374 155.62695 88.115234 151.19531 C 86.858364 149.12938 85.468521 147.66363 85.025391 147.9375 C 83.863281 148.65572 77.004508 140.77385 76.986328 138.69922 C 76.97932 137.90014 76.930095 137.53092 76.763672 137.54492 C 76.658377 137.68723 76.559592 137.81689 76.416016 138.03906 C 76.229128 138.32825 76.080241 138.53259 75.957031 138.66797 C 75.921806 138.70755 75.888243 138.74033 75.857422 138.76758 C 75.845051 138.77813 75.832014 138.78831 75.820312 138.79688 C 75.779018 138.82839 75.742301 138.8473 75.708984 138.85352 L 75.707031 138.85547 C 75.17895 139.56037 75.028303 139.33585 75.017578 137.89648 C 75.003541 136.00899 76.972982 132.82355 79.255859 130.46484 C 79.262165 130.45794 79.269078 130.45221 79.275391 130.44531 C 79.294739 130.42417 79.314576 130.4058 79.333984 130.38477 C 79.696221 129.99226 80.069319 129.6282 80.445312 129.2832 C 80.68728 129.06114 80.926946 128.84468 81.169922 128.64844 C 81.196086 128.6273 81.221895 128.60284 81.248047 128.58203 L 81.25 128.58203 C 81.538044 128.35297 81.822259 128.15138 82.105469 127.9668 C 82.182865 127.91635 82.259192 127.869 82.335938 127.82227 C 82.614649 127.65248 82.891962 127.50069 83.158203 127.38477 C 83.167207 127.38085 83.176561 127.37299 83.185547 127.36914 L 83.1875 127.36914 C 83.211177 127.359 83.218962 127.35374 83.242188 127.34375 C 83.687157 127.15229 84.005325 127.00022 84.289062 126.85547 C 84.436945 126.77933 84.593373 126.70182 84.701172 126.63477 L 84.703125 126.63281 C 84.75445 126.39658 84.427761 126.19288 83.738281 125.92188 C 82.769031 125.54089 80.655216 125.42128 79.041016 125.6582 C 77.426816 125.89511 76.334871 125.72198 76.613281 125.27148 C 76.679905 125.16368 76.815819 125.05859 77 124.96094 C 77.004737 124.92747 77.004278 124.89474 77.027344 124.85742 C 77.166549 124.63218 77.59629 124.42049 78.175781 124.25977 C 78.755273 124.09904 79.484589 123.98931 80.224609 123.9707 C 80.827401 123.95554 81.252642 123.94048 81.587891 123.91797 C 81.327245 123.75726 80.892837 123.54027 80.242188 123.22656 C 78.599338 122.43446 77.304468 122.44775 75.492188 123.27344 C 73.031468 124.39462 73.000289 124.34991 72.943359 119.67969 L 72.898438 115.9668 z M 126.49805 201.5293 C 126.65985 201.51159 126.80054 201.52517 126.92773 201.55273 C 127.01205 201.57091 127.09352 201.59009 127.1582 201.62695 C 127.23062 201.66823 127.28304 201.72557 127.32617 201.78906 C 127.33663 201.80439 127.3469 201.81936 127.35547 201.83594 C 127.39087 201.90455 127.41602 201.98109 127.41602 202.07031 C 127.41602 202.13979 127.40265 202.20606 127.38086 202.27148 L 127.38086 202.27344 C 127.37858 202.28022 127.37359 202.28624 127.37109 202.29297 C 127.34984 202.35021 127.31951 202.40417 127.2832 202.45703 C 127.27411 202.46989 127.25798 202.47963 127.24805 202.49219 C 127.16628 202.59851 127.06131 202.6954 126.92773 202.77539 C 126.92642 202.77618 126.92515 202.77656 126.92383 202.77734 C 126.72921 203.16676 126.16757 203.45117 125.50195 203.45117 C 124.67695 203.45117 124.00195 203.27474 124.00195 203.05859 C 124.00195 202.95238 124.16601 202.79124 124.42969 202.61914 L 124.43164 202.61914 C 124.44221 202.56296 124.48698 202.498 124.56836 202.42188 C 124.64891 202.34652 124.75561 202.26497 124.89062 202.17969 C 125.0182 202.09832 125.16912 202.01369 125.33398 201.93164 C 125.33695 201.93017 125.34078 201.9292 125.34375 201.92773 C 125.52006 201.8404 125.71215 201.75401 125.91602 201.67578 C 126.12227 201.59664 126.31875 201.54891 126.49805 201.5293 z M 125.62695 205.11133 C 125.7565 205.11514 125.86443 205.1535 125.94141 205.23047 C 125.98821 205.27728 126.00914 205.33178 126.01758 205.38867 C 126.01839 205.39636 126.01746 205.40427 126.01758 205.41211 C 126.02838 205.58863 125.85233 205.80082 125.56836 206.00977 C 125.56468 206.01248 125.56231 206.01487 125.55859 206.01758 C 125.41467 206.30319 124.95551 206.63518 124.29492 206.88672 C 122.86972 207.4294 122.7541 207.31574 123.73438 206.32812 C 123.78561 206.27649 123.84013 206.24255 123.89258 206.19531 C 123.97883 206.10082 124.02958 206.03381 124.14844 205.91406 C 124.3047 205.75663 124.46666 205.62639 124.62891 205.51172 C 124.67025 205.48248 124.70889 205.45981 124.75 205.43359 C 124.87062 205.35655 124.98724 205.29552 125.10156 205.24609 C 125.14429 205.22762 125.18532 205.20774 125.22656 205.19336 C 125.37165 205.14258 125.50966 205.10788 125.62695 205.11133 z M 126.21875 207.64844 C 126.3457 207.66835 126.41602 207.73687 126.41602 207.85547 C 126.41602 207.90671 126.40086 207.96258 126.37305 208.02344 L 126.37109 208.02539 C 126.29712 208.20165 126.0951 208.41671 125.84375 208.64062 C 125.83712 208.64651 125.83486 208.6523 125.82812 208.6582 C 125.46479 209.14584 124.55995 209.78747 123.50195 210.26953 C 122.12695 210.89602 121.00195 211.24487 121.00195 211.04492 C 121.00195 210.9664 121.21184 210.76006 121.50586 210.50781 C 121.55995 210.43046 121.65045 210.33338 121.79492 210.20312 C 121.80795 210.19121 121.82612 210.17831 121.83984 210.16602 C 121.97266 210.0485 122.11561 209.92542 122.30273 209.7793 C 122.33094 209.7571 122.36517 209.7337 122.39453 209.71094 C 122.82061 209.38278 123.33397 209.01223 123.91602 208.63086 C 124.22713 208.42701 124.51759 208.26153 124.79297 208.11719 C 124.87235 208.0756 124.94224 208.04411 125.01758 208.00781 C 125.21501 207.91251 125.39301 207.83642 125.55664 207.7793 C 125.6335 207.75247 125.71323 207.72112 125.78125 207.70312 C 125.81818 207.69331 125.8526 207.68488 125.88672 207.67773 C 126.0168 207.65062 126.13453 207.63522 126.21875 207.64844 z M 125.30469 211.17578 C 125.38576 211.17234 125.44037 211.18425 125.48047 211.20508 C 125.49201 211.21105 125.49785 211.2205 125.50586 211.22852 C 125.52616 211.2488 125.53452 211.27689 125.53125 211.31055 C 125.52976 211.32461 125.52912 211.33712 125.52344 211.35352 C 125.50501 211.4078 125.47138 211.46995 125.4043 211.55078 C 124.72904 212.36441 124.66754 212.82856 125.23047 213.12109 C 125.31089 213.16289 125.40382 213.20101 125.50977 213.23633 C 125.58285 213.26069 125.63238 213.29815 125.66992 213.3418 C 125.68042 213.35383 125.68742 213.36747 125.69531 213.38086 C 125.7155 213.41563 125.72748 213.45471 125.73047 213.49805 C 125.73203 213.51812 125.7364 213.53681 125.73438 213.55859 C 125.72862 213.61426 125.71188 213.67445 125.68359 213.74023 L 125.68359 213.74219 C 125.63293 213.86176 125.5404 213.99788 125.41992 214.14453 C 125.41151 214.15472 125.40131 214.16548 125.39258 214.17578 C 125.2705 214.32044 125.11971 214.47466 124.9375 214.63672 C 124.93595 214.6381 124.93515 214.63925 124.93359 214.64062 C 124.60216 215.01726 124.07974 215.45722 123.38867 215.90234 L 120.50195 217.76172 L 122.40625 215.60742 C 124.49862 213.24066 123.95982 212.86867 120.84961 214.5332 C 119.73866 215.12776 118.62576 215.40897 118.375 215.1582 C 118.28992 215.07312 118.48137 214.86481 118.7793 214.61523 C 118.78754 214.59546 118.81324 214.56758 118.82812 214.54492 C 118.8526 214.50769 118.87638 214.47222 118.91797 214.42773 C 118.93279 214.41189 118.95574 214.39171 118.97266 214.375 C 119.08256 214.26634 119.27143 214.1287 119.46289 213.98828 C 119.57418 213.9066 119.66899 213.83243 119.80469 213.74219 C 120.02361 213.5965 120.28595 213.43791 120.56055 213.27539 C 120.69008 213.19873 120.79529 213.13006 120.93555 213.05078 C 121.38262 212.79796 121.87016 212.53771 122.4043 212.27344 C 123.04547 211.95621 123.58594 211.72397 124.05664 211.54102 C 124.39154 211.41089 124.69054 211.30324 124.91797 211.24609 C 125.07067 211.20756 125.20685 211.17994 125.30469 211.17578 z M 168.07227 211.44531 C 168.20673 211.85208 168.31737 212.25985 168.36914 212.6582 C 168.32221 212.26636 168.23142 211.86176 168.07227 211.44531 z M 168.39258 212.86133 C 168.40165 212.96111 168.40533 213.06026 168.4082 213.1582 C 168.40913 213.13171 168.41602 213.1021 168.41602 213.07617 C 168.41602 213.00707 168.39708 212.93191 168.39258 212.86133 z M 123.38477 218.03906 C 123.40392 218.04541 123.39795 218.0785 123.36719 218.13672 C 123.2755 218.31021 122.96654 218.71534 122.46484 219.36133 C 122.27112 219.61078 122.0195 219.86813 121.74023 220.12891 C 121.66068 220.20319 121.58365 220.2768 121.49805 220.35156 C 119.12467 222.71808 113.3926 225.4659 110.79102 225.34961 C 109.35664 225.2855 109.14289 225.17098 110.22266 224.85547 C 110.06662 224.83073 109.98637 224.80053 109.96289 224.76367 C 109.95761 224.75563 109.95588 224.74702 109.95703 224.73828 C 109.95894 224.72462 109.95883 224.7108 109.97656 224.69531 C 110.00572 224.66976 110.05406 224.64047 110.12695 224.60938 C 110.12889 224.60856 110.1289 224.60824 110.13086 224.60742 C 110.2433 224.56049 110.44129 224.50086 110.65234 224.43945 C 110.96974 224.34687 111.3651 224.24233 111.91602 224.10938 C 113.67381 223.68516 115.47472 223.01529 117.18359 222.16797 C 118.03803 221.74431 118.86866 221.27773 119.66016 220.77344 C 120.45165 220.26915 121.20369 219.72831 121.89844 219.16016 C 122.36681 218.77712 122.71936 218.49023 122.96484 218.30273 C 123.20999 218.1149 123.34738 218.02577 123.38477 218.03906 z M 125.9082 218.53906 L 123.41211 221.38281 C 123.08724 221.75305 122.71483 222.12654 122.32031 222.49805 L 122.30859 222.50977 C 119.81142 225.01144 115.84802 227.48957 114.30078 227.41211 C 114.07984 227.40105 114.22183 227.20986 114.625 226.91406 L 114.62695 226.91406 C 114.63387 226.87692 114.69729 226.81461 114.75586 226.75391 C 114.80251 226.70514 114.86007 226.65187 114.9375 226.58984 C 115.00817 226.53348 115.07976 226.47799 115.17383 226.41211 C 115.30523 226.31962 115.46454 226.21782 115.63867 226.10938 C 115.72632 226.0549 115.79917 226.00695 115.89648 225.94922 C 116.19755 225.7703 116.53216 225.58091 116.91602 225.37891 C 118.56602 224.51059 121.2641 222.61708 122.91211 221.16992 L 125.9082 218.53906 z M 124.09375 224.12695 C 124.1408 224.13201 124.17219 224.15602 124.19531 224.1875 C 124.20089 224.19513 124.20483 224.2038 124.20898 224.21289 C 124.21773 224.23199 124.21635 224.25983 124.21875 224.28516 C 124.22338 224.3336 124.21632 224.39132 124.19727 224.46094 C 124.18889 224.49189 124.18308 224.51983 124.16992 224.55469 C 124.12932 224.66194 124.07312 224.78144 123.98633 224.92188 C 123.90511 225.05328 123.78295 225.19402 123.64258 225.33789 C 123.53896 225.44901 123.41588 225.56275 123.2832 225.67969 C 120.78421 228.51033 108.13793 233.47499 103.50195 233.32812 C 101.50186 233.26476 101.10312 233.18385 102.54688 232.8418 C 101.83557 232.77269 102.02219 232.64782 103.13867 232.39062 C 103.58643 232.2871 104.14699 232.16685 104.91602 232.01172 C 105.4258 231.90888 105.9738 231.76738 106.55078 231.60352 C 107.37955 231.3682 108.28372 231.07365 109.36328 230.66602 C 112.41411 229.51407 116.72982 227.56488 123.80469 224.20117 C 123.92695 224.14304 124.02337 224.11939 124.09375 224.12695 z M 124.0957 227.84766 C 124.19186 227.83471 124.26859 227.83387 124.32227 227.84766 C 124.38361 227.86342 124.41602 227.89624 124.41602 227.94922 C 124.41602 228.00429 124.39867 228.06503 124.36914 228.12891 C 124.29667 228.30909 124.08587 228.53044 123.82422 228.76562 C 123.82335 228.76681 123.82119 228.76835 123.82031 228.76953 C 121.91081 231.35509 104.45032 238.49227 99.783203 238.41406 C 99.331938 238.40651 99.431017 238.23054 99.943359 237.94141 L 99.943359 237.93945 C 99.875696 237.88268 99.973951 237.77792 100.17773 237.64258 C 100.21711 237.61633 100.25386 237.59138 100.30273 237.5625 C 100.54575 237.41944 100.92613 237.24095 101.38477 237.04102 C 101.77154 236.87193 102.2733 236.67631 102.79688 236.47461 C 103.05925 236.37362 103.25941 236.28737 103.55273 236.17969 C 104.44169 235.85299 105.44382 235.50374 106.58008 235.13281 C 111.34565 233.57709 117.30815 231.15172 119.83008 229.74219 C 120.39413 229.42693 120.92167 229.15404 121.42188 228.90625 C 121.59233 228.82175 121.74011 228.75332 121.90039 228.67773 C 122.23619 228.51937 122.54078 228.38312 122.82227 228.26758 C 122.94922 228.21539 123.07152 228.1658 123.18555 228.12305 C 123.48213 228.01185 123.72514 227.93638 123.91992 227.89453 C 123.96637 227.88455 124.03626 227.85925 124.07617 227.85352 C 124.08115 227.85279 124.09083 227.84831 124.0957 227.84766 z M 80.416016 247.16797 C 80.869141 247.16797 81.322266 247.23629 81.666016 247.375 C 81.776632 247.41963 81.842906 247.46262 81.890625 247.50391 C 81.909781 247.521 81.928829 247.53836 81.9375 247.55469 C 81.942329 247.56305 81.948999 247.57193 81.951172 247.58008 C 81.954447 247.59501 81.948931 247.60892 81.943359 247.62305 C 81.927875 247.66922 81.859944 247.70843 81.755859 247.74414 C 81.652193 247.77948 81.517385 247.80963 81.335938 247.83203 C 81.86345 248.08931 81.304443 248.29297 80.001953 248.29297 C 78.626953 248.29297 78.064453 248.06647 78.751953 247.78906 C 78.825496 247.75939 78.919469 247.74598 79.001953 247.72266 C 78.950387 247.69964 78.913916 247.67523 78.894531 247.64844 C 78.875787 247.62253 78.869974 247.59524 78.882812 247.56641 C 78.887259 247.55522 78.904697 247.54282 78.914062 247.53125 C 78.92983 247.51264 78.939982 247.49408 78.96875 247.47461 C 79.015829 247.44219 79.081038 247.40929 79.166016 247.375 C 79.509766 247.23629 79.962891 247.16797 80.416016 247.16797 z M 79.332031 257.16211 C 79.679428 257.17641 79.978386 257.26747 80.144531 257.43359 C 80.194224 257.48329 80.216617 257.52943 80.226562 257.57422 C 80.227446 257.57971 80.226304 257.58445 80.226562 257.58984 C 80.243279 257.72617 80.059024 257.82655 79.759766 257.89062 C 79.998783 258.19939 79.424754 258.41452 78.417969 258.37305 C 77.253029 258.32505 77.016723 258.08875 77.814453 257.76953 C 77.815792 257.769 77.81702 257.76811 77.818359 257.76758 C 77.691876 257.66124 77.815751 257.52064 78.228516 257.35547 C 78.589456 257.21103 78.984635 257.14781 79.332031 257.16211 z "
       transform="translate(-2.415252,-6.0381356)"
       id="path4146"
       inkscape:export-xdpi="300"
       inkscape:export-ydpi="300" />
    <path
       style="fill:none;fill-opacity:1;stroke:#000000;stroke-width:1.09869361;stroke-linejoin:bevel;stroke-miterlimit:4;stroke-dasharray:none;stroke-opacity:1"
       d="m 230.38027,277.25564 c 0,19.68456 -15.95749,35.64205 -35.64205,35.64205 -19.68457,0 -32.54947,-35.64205 -96.742725,-35.64205 -64.193256,0 -77.058164,35.64205 -96.7427253,35.64205 -19.6845617,0 -35.6420527,-15.95749 -35.6420557,-35.64205 C -34.389289,257.57107 1.2527686,243.53 1.2527697,141.47637 1.2527708,39.422747 -34.389286,25.381673 -34.389286,5.6971086 c 0,-19.6845636 15.957492,-35.6420556 35.6420557,-35.6420556 19.6845633,0 32.5494713,35.6420566 96.7427253,35.6420556 64.193245,-1e-6 77.058155,-35.6420586 96.742725,-35.6420556 19.68456,3e-6 35.64205,15.957494 35.64205,35.6420556 0,19.6845614 -35.64205,33.7256354 -35.64205,135.7792614 0,102.05363 35.64205,116.0947 35.64205,135.77927 z"
       id="path4733-1"
       inkscape:connector-curvature="0"
       sodipodi:nodetypes="sssssssssssss"
       inkscape:export-xdpi="300"
       inkscape:export-ydpi="300" />
  </g>
</svg>
