<?xml version="1.0" encoding="UTF-8" standalone="no"?>
<!-- Created with Inkscape (http://www.inkscape.org/) -->

<svg
   xmlns:dc="http://purl.org/dc/elements/1.1/"
   xmlns:cc="http://creativecommons.org/ns#"
   xmlns:rdf="http://www.w3.org/1999/02/22-rdf-syntax-ns#"
   xmlns:svg="http://www.w3.org/2000/svg"
   xmlns="http://www.w3.org/2000/svg"
   xmlns:sodipodi="http://sodipodi.sourceforge.net/DTD/sodipodi-0.dtd"
   xmlns:inkscape="http://www.inkscape.org/namespaces/inkscape"
   id="svg2"
   version="1.1"
   inkscape:version="0.91 r13725"
   width="179"
   height="285"
   viewBox="0 0 179 285"
   sodipodi:docname="Sam-I-Am-Black.svg"
   inkscape:export-filename="C:\Users\jrainier\Documents\what\git\PCBs\ColourTest\CopperMask.png"
   inkscape:export-xdpi="300"
   inkscape:export-ydpi="300">
  <metadata
     id="metadata8">
    <rdf:RDF>
      <cc:Work
         rdf:about="">
        <dc:format>image/svg+xml</dc:format>
        <dc:type
           rdf:resource="http://purl.org/dc/dcmitype/StillImage" />
        <dc:title></dc:title>
      </cc:Work>
    </rdf:RDF>
  </metadata>
  <defs
     id="defs6" />
  <sodipodi:namedview
     pagecolor="#ffffff"
     bordercolor="#666666"
     borderopacity="1"
     objecttolerance="10"
     gridtolerance="10"
     guidetolerance="10"
     inkscape:pageopacity="0"
     inkscape:pageshadow="2"
     inkscape:window-width="1083"
     inkscape:window-height="480"
     id="namedview4"
     showgrid="false"
     inkscape:zoom="1.830957"
     inkscape:cx="92.453971"
     inkscape:cy="86.426461"
     inkscape:window-x="2228"
     inkscape:window-y="300"
     inkscape:window-maximized="0"
     inkscape:current-layer="g4138"
     showguides="false" />
  <g
     id="g4138"
     transform="translate(2.415252,6.0381356)">
    <path
       style="fill:#16170f;stroke:#000000;stroke-opacity:1;stroke-width:0.2;stroke-miterlimit:4;stroke-dasharray:none"
       d="m 53.370098,275.67594 c -1.49385,-0.92644 -3.25902,-3.05196 -3.92259,-4.72339 -0.66357,-1.67142 -1.28539,-3.15802 -1.38183,-3.30355 -0.0964,-0.14553 -2.27711,0.91011 -4.84593,2.34585 -6.23449,3.48452 -12.96976,3.46746 -20.16137,-0.0511 -4.68387,-2.2916 -7.32993,-5.00577 -6.08949,-6.24621 0.23637,-0.23638 2.15947,0.0505 4.27354,0.63755 2.11407,0.58702 6.75887,1.06983 10.32177,1.07289 l 6.47799,0.006 5.62149,-6 c 3.09182,-3.3 6.30912,-6 7.14956,-6 2.7497,0 4.03769,2.7263 3.42084,7.24092 -0.34529,2.52704 -0.0673,5.45366 0.68352,7.19653 l 1.26546,2.93746 2.02268,-2.93746 c 1.89842,-2.75738 5.38046,-11.04129 5.38046,-12.80072 0,-0.43781 -1.35,-0.49951 -3,-0.13711 -3.46641,0.76135 -4.08812,-0.84729 -0.97199,-2.51499 2.54781,-1.36355 1.65003,-2.98501 -1.65277,-2.98501 -1.3787,0 -3.43793,-0.49837 -4.57608,-1.10749 -1.65978,-0.88829 -1.79521,-1.2811 -0.68426,-1.98468 0.91579,-0.57998 -0.13964,-0.88758 -3.1149,-0.90783 -3.27775,-0.0223 -4.09258,-0.29392 -3,-1 0.825,-0.53316 2.9625,-0.97627 4.75,-0.98469 1.7875,-0.008 3.25,-0.40906 3.25,-0.89031 0,-1.01144 -4.8691,-2.125 -9.29167,-2.125 -5.29859,0 -1.87445,-1.40539 3.9436,-1.61859 5.91402,-0.21672 10.23676,-2.37213 4.79807,-2.39242 -4.4813,-0.0167 -10.45,-1.15767 -10.45,-1.99758 0,-0.4108 3.7125,-1.31186 8.25,-2.00236 4.5375,-0.69049 8.52307,-1.40724 8.85682,-1.59277 0.33376,-0.18554 -1.38658,-2.41777 -3.82296,-4.96051 -2.43638,-2.54275 -4.22391,-4.82905 -3.97228,-5.08068 0.25162,-0.25162 2.62255,0.91555 5.26874,2.59371 5.95501,3.77656 11.05251,4.03401 15.09296,0.76227 3.81787,-3.09151 7.77127,-4.70462 11.62377,-4.74287 3.10478,-0.0308 3.14165,-0.0809 1.20295,-1.63454 -2.06007,-1.65086 -1.77531,-1.61989 3.25,0.35357 1.54238,0.6057 1.5848,0.48419 0.3575,-1.02417 -0.76587,-0.94126 -1.10337,-2.00052 -0.75,-2.35389 0.35338,-0.35338 0.6425,-0.1175 0.6425,0.52416 0,2.29126 2.80648,1.10917 5.38131,-2.26661 1.44028,-1.8883 2.61869,-3.67705 2.61869,-3.975 0,-0.29795 -1.4625,-0.27111 -3.25,0.0596 l -3.25,0.60135 3.74548,-2.87635 c 5.775762,-4.43547 8.754532,-9.48594 8.754532,-14.84314 0,-6.29101 -3.903412,-15.34686 -10.294402,-23.8829 -2.9444,-3.93266 -5.99519,-8.0974 -6.77953,-9.255 -5.73632,-8.46613 -13.48278,-17.6318 -16.00329,-18.93521 -3.54744,-1.83445 -6.91557,-6.92952 -6.91469,-10.46007 3.4e-4,-1.375 1.06509,-5.54003 2.36611,-9.25561 1.94998,-5.56898 2.21249,-7.57455 1.49449,-11.41782 -0.47905,-2.56421 -1.07143,-4.86263 -1.3164,-5.10761 -0.24498,-0.24498 -7.88455,0.33465 -16.97683,1.28806 -19.27238,2.02088 -34.03533,1.73214 -37.80747,-0.73947 -1.3873004,-0.90899 -2.8269004,-2.86609 -3.1991104,-4.349109 -0.8667,-3.453187 2.5146904,-7.17896 9.4734204,-10.438253 4.38136,-2.052117 4.95769,-2.683199 4.95769,-5.428615 0,-4.67647 3.82327,-9.609018 9,-11.611253 1.60109,-0.619261 3.16541,-2.581544 4.3506,-5.457368 1.01783,-2.469736 3.78586,-6.642899 6.15117,-9.273695 4.05613,-4.511385 4.27065,-5.048703 3.77421,-9.453124 -0.4522,-4.011927 -0.1565,-5.10941 2.09883,-7.789718 1.95477,-2.323113 2.62519,-4.232849 2.62519,-7.478037 0,-2.396996 0.5014,-5.62497 1.11421,-7.173274 0.61282,-1.548305 1.07588,-4.294735 1.02902,-6.103179 -0.15125,-5.837875 8.46182,-15.8101185 11.84782,-13.7174514 1.78422,1.1027083 1.08433,3.4448558 -1.99105,6.6629464 -1.65,1.726567 -3,3.733999 -3,4.460961 0,0.726961 -1.34476,2.315971 -2.98835,3.531132 -3.07372,2.2725 -3.79158,4.407299 -4.39773,13.078082 -0.27593,3.947173 -0.0143,4.827954 1.58508,5.335569 1.95842,0.621578 3.83198,4.233351 3.76186,7.25194 -0.0215,0.926695 -0.65209,0.276422 -1.40125,-1.445052 -2.28538,-5.251513 -3.96122,-5.391647 -3.26703,-0.273189 l 0.59718,4.403141 -1.44775,-3.25 c -1.59565,-3.582022 -2.58721,-3.984891 -4.40802,-1.790959 -1.01522,1.223267 -0.66055,7.540959 0.42334,7.540959 0.16413,0 1.91393,-0.675 3.88843,-1.5 10.34035,-4.320474 16.73276,0.171181 19.65872,13.813297 0.5678,2.647313 1.74834,5.906021 2.62343,7.241572 1.595,2.434283 2.30091,2.498535 8.62209,0.784798 0.9625,-0.260943 1.75,-0.03367 1.75,0.505047 0,0.53872 -1.8,1.283598 -4,1.655286 -3.11251,0.525856 -4,1.120808 -4,2.681517 0,1.224515 0.85549,2.229439 2.19645,2.580106 2.09647,0.54824 2.10785,0.609055 0.25,1.336096 -1.82164,0.712868 -1.80596,0.766217 0.24453,0.831996 1.20505,0.03866 2.50943,0.58553 2.89863,1.215274 0.48757,0.788912 -0.10663,0.98933 -1.91072,0.644456 -1.4401,-0.275292 -2.38042,-0.115537 -2.08961,0.355012 0.29082,0.470549 2.6397,0.908785 5.21974,0.973858 6.21185,0.156673 10.99749,1.230552 9.55183,2.143394 -0.62653,0.395617 -3.22241,0.330107 -5.76862,-0.145577 -2.54621,-0.475684 -4.83449,-0.53317 -5.08505,-0.127746 -0.25057,0.405424 2.12031,1.004908 5.26862,1.332187 3.31957,0.345083 5.86423,0.192694 6.05753,-0.36276 0.18334,-0.526797 1.19584,-0.957813 2.25,-0.957813 1.05417,0 1.91667,-0.476558 1.91667,-1.059017 0,-0.582459 -0.40844,-0.806587 -0.90765,-0.49806 -0.4992,0.308526 -1.9617,0.0985 -3.25,-0.466725 -1.87881,-0.82431 -1.39215,-0.926027 2.45921,-0.514002 2.78935,0.298408 4.564212,0.12962 4.235182,-0.402765 -0.311532,-0.504043 0.22778,-1.102202 1.19844,-1.329242 0.97066,-0.227039 -0.0352,-0.318894 -2.235182,-0.204122 -2.2,0.114773 -3.20582,0.01119 -2.23517,-0.230189 0.97066,-0.241377 1.5066,-0.856694 1.19099,-1.367372 -0.72243,-1.168909 0.21748,-1.169386 4.287312,-0.0022 1.98202,0.568436 3.4511,0.568436 3.80241,0 0.31488,-0.509459 -0.80405,-0.926306 -2.48651,-0.926306 -1.68246,0 -3.05902,-0.435877 -3.05902,-0.968615 0,-0.532739 0.675,-0.709594 1.5,-0.393011 0.825,0.316582 1.5,0.07746 1.5,-0.531385 0,-0.608844 0.70156,-1.106989 1.55902,-1.106989 0.85746,0 1.31004,-0.402847 1.00574,-0.895215 -0.3043,-0.492369 0.0682,-1.133701 0.8278,-1.425182 0.96658,-0.370913 1.22997,0.04782 0.87762,1.395215 -0.27689,1.05885 -1.23846,1.938866 -2.13681,1.955591 -1.37359,0.02557 -1.33612,0.20311 0.23564,1.116289 1.56843,0.911248 2.53098,0.423898 5.98529,-3.030409 l 4.11629,-4.116289 -2.9853,-0.13708 c -1.64191,-0.07539 -3.7626,-0.134856 -4.71264,-0.132138 -0.95004,0.0027 -1.48599,-0.385596 -1.19098,-0.86292 0.82579,-1.336157 6.81734,-1.027803 8.84551,0.455233 2.88277,2.107931 1.2228,6.993088 -3.70427,10.901362 -8.18607,6.493403 -21.564092,13.22651 -37.313382,18.779689 l -6.09046,2.14749 2.09046,5.32832 c 2.29295,5.84443 3.87966,5.90579 5.1957,0.20094 0.72294,-3.13386 0.74401,-3.14393 1.42481,-0.6809 0.38005,1.375 0.5092,3.625 0.28699,5 -0.34819,2.15448 0.42271,2.98372 5.57793,6 6.27817,3.67331 6.19364,4.73556 -0.39497,4.96298 -1.65,0.057 -4.06255,0.98875 -5.36122,2.07065 -1.95198,1.62615 -2.24976,2.56127 -1.71808,5.39537 0.6693,3.56764 4.48561,9.19097 4.54603,6.69856 0.0495,-2.04006 2.77479,0.4491 4.70757,4.29961 3.95132,7.87187 24.969482,32.2728 27.307532,31.70254 0.835,-0.20367 3.29071,-0.47964 5.45714,-0.61329 4.12581,-0.25452 5.34915,-1.66554 5.49075,-6.33314 0.0632,-2.08267 -3.96537,-8.64334 -6.35972,-10.35706 -0.55978,-0.40066 -0.40298,-1.32253 0.38681,-2.27417 1.47951,-1.78269 0.81844,-3.14921 -0.98444,-2.03497 -0.63838,0.39455 -0.96736,1.72875 -0.73105,2.9649 0.2363,1.23614 -0.22756,3.0959 -1.03081,4.13278 -1.39578,1.80177 -1.43692,1.78562 -0.92909,-0.36476 0.75227,-3.18548 -0.71106,-2.78975 -3.69784,1 -1.87614,2.38053 -2.56436,2.78182 -2.57248,1.5 -0.006,-0.9625 0.46547,-1.75 1.04793,-1.75 0.58246,0 0.78665,-0.4407 0.45375,-0.97933 -0.33289,-0.53864 -0.0958,-1.93122 0.52681,-3.09463 1.0329,-1.92998 0.92744,-2.05408 -1.20375,-1.41654 -1.28471,0.38431 -3.3325,1.32689 -4.55065,2.09463 -3.26028,2.05477 -3.48493,1.71444 -0.7887,-1.19483 1.32054,-1.42489 2.82071,-2.3313 3.3337,-2.01425 0.513,0.31705 2.57937,-0.54099 4.59194,-1.90676 l 3.65921,-2.48321 -2.54067,4.33532 c -3.56492,6.08309 -3.1613,6.74467 1.08693,1.78157 2.1636,-2.52767 4.19374,-4.02077 5.03042,-3.69971 0.84665,0.32489 1.85088,-0.44504 2.53292,-1.94197 0.62156,-1.36416 1.56297,-2.48029 2.09203,-2.48029 0.52906,0 0.40372,0.6726 -0.27854,1.49467 -1.19614,1.44126 -1.09928,2.72314 0.5293,7.00533 0.62547,1.64459 0.52124,1.77787 -0.58654,0.75 -2.74799,-2.54976 -2.90878,-1.10774 -0.42337,3.79699 1.40663,2.77584 3.23363,5.30644 4.06002,5.62355 1.30185,0.49957 1.27287,0.83032 -0.21703,2.47664 -1.36928,1.51305 -1.46621,2.14988 -0.47585,3.12645 0.98425,0.97054 1.56241,0.80916 2.77156,-0.77363 1.42103,-1.86015 1.4842,-1.68533 0.90342,2.5 l -0.62445,4.5 1.98734,-3.5 c 2.49662,-4.3969 2.51981,-3.35939 0.13057,5.84014 -2.46731,9.50014 -4.22653,11.89129 -2.14084,2.90986 1.07123,-4.61299 0.0206,-4.84478 -2.26641,-0.5 l -1.71071,3.25 0.50521,-3 c 0.27787,-1.65 0.82039,-4.125 1.20561,-5.5 0.68214,-2.4348 0.63048,-2.42176 -1.98042,0.5 -1.47445,1.65 -2.43806,2.29696 -2.14136,1.43769 0.71483,-2.07019 -3.59488,-4.36941 -6.47607,-3.45496 -1.20115,0.38123 -2.55843,1.66608 -3.01617,2.85521 -0.82595,2.14565 -0.83989,2.14308 -1.83731,-0.33794 -0.55278,-1.375 -3.57463,-5.425 -6.71522,-9 -7.984042,-9.08837 -15.675172,-18.82459 -18.371312,-23.25623 -1.25687,-2.06593 -2.64779,-3.53215 -3.09092,-3.25828 -1.16211,0.71822 -8.02061,-7.16374 -8.03879,-9.23837 -0.0131,-1.49368 -0.15593,-1.52953 -0.98469,-0.24712 -0.79864,1.23581 -0.97207,1.13793 -0.98469,-0.55572 -0.0212,-2.85055 4.46858,-8.70504 7.75587,-10.11328 2.33596,-1.0007 2.47511,-1.26872 0.96655,-1.86169 -0.96925,-0.38099 -3.08299,-0.49887 -4.69719,-0.26195 -1.6142,0.23691 -2.70712,0.0622 -2.42871,-0.3883 0.27841,-0.45048 1.71715,-0.84952 3.19719,-0.88674 2.66336,-0.067 2.6678,-0.0789 0.43244,-1.15662 -1.64285,-0.7921 -2.93772,-0.77949 -4.75,0.0462 -2.46072,1.12118 -2.49217,1.07684 -2.5491,-3.59338 l -0.0576,-4.72856 -1.97208,7 c -1.08464,3.85 -2.24184,9.14676 -2.57156,11.77058 -0.57305,4.56018 -0.43601,4.913 3.10707,8 12.0333,10.48428 14.56023,13.12767 14.05899,14.70696 -0.31443,0.99067 0.52096,2.63422 2.07859,4.08942 1.43237,1.33817 3.21766,3.61167 3.96732,5.05221 0.74965,1.44055 3.38171,4.98414 5.84901,7.87466 2.4673,2.89051 5.614272,8.01189 6.993262,11.38083 2.70706,6.61352 3.59063,4.67123 1.09402,-2.40492 -1.76168,-4.99315 -1.33314,-6.18721 0.96291,-2.68299 3.8264,5.83983 2.70605,21.19482 -1.99628,27.35989 -2.0123,2.63826 -2.221542,3.35336 -0.98116,3.35336 1.42817,0 1.42497,0.29316 -0.0339,3.11436 -0.88577,1.7129 -3.429652,5.0879 -5.653052,7.5 -2.26947,2.46208 -3.43843,4.39236 -2.66518,4.40095 1.08782,0.0121 1.06204,0.21909 -0.12264,0.98469 -0.825,0.53316 -3.65196,0.97627 -6.28212,0.98469 -6.19455,0.0198 -10.95288,2.06157 -13.80963,5.92553 -1.25815,1.70175 -2.53971,2.71725 -2.8479,2.25666 -0.52774,-0.78861 -9.06038,-3.2925 -9.06038,-2.65871 0,0.16251 1.42499,1.19771 3.16665,2.30045 l 3.16665,2.00498 -7.91665,1.33181 c -6.5527,1.10236 -7.39978,1.44261 -4.91665,1.97491 1.65,0.3537 5.56094,0.69633 8.69098,0.76141 3.13005,0.0651 5.93696,0.5163 6.23758,1.00272 0.56628,0.91626 -6.75502,3.11559 -10.37138,3.11559 -4.45867,0 -1.70295,1.65445 4.53568,2.72308 3.62608,0.62112 6.85858,1.39502 7.18334,1.71978 1.17884,1.17885 -1.37991,2.36803 -6.04427,2.80909 -2.62244,0.24797 -5.02282,0.70561 -5.33419,1.01698 -0.90365,0.90365 10.36695,2.03094 14.15664,1.41596 1.89509,-0.30753 3.44562,-0.13744 3.44562,0.37798 0,0.51542 -1.15532,0.93713 -2.56739,0.93713 -2.2033,0 -2.46807,0.31908 -1.8671,2.25 0.69482,2.23241 0.68357,2.23506 -1.43874,0.33946 -1.17647,-1.05079 -2.31541,-1.72579 -2.53098,-1.5 -1.23363,1.29211 -6.59579,13.55796 -6.59579,15.08775 0,1.00254 -0.68912,1.82279 -1.53138,1.82279 -0.84226,0 -1.79041,0.675 -2.10699,1.5 -1.85664,4.83833 -5.36163,-1.43095 -5.36163,-9.59021 0,-2.63546 -0.40939,-5.04477 -0.90976,-5.35402 -1.44272,-0.89165 -3.96012,0.45889 -4.59726,2.46636 -1.11411,3.51026 -7.99175,9.04557 -13.99298,11.26195 -5.59449,2.06616 -5.78522,2.23673 -2.82216,2.5239 6.70798,0.65009 16.30279,-3.83124 16.33747,-7.63056 0.0132,-1.44848 0.14762,-1.47269 0.98469,-0.17742 0.75203,1.16368 1.00221,0.82737 1.11581,-1.5 0.0805,-1.65 0.48275,-0.36718 0.89381,2.85072 1.34197,10.50531 7.96563,13.21964 14.9117,6.11073 3.31882,-3.39662 3.39715,-3.6112 1.07868,-2.95504 -1.70503,0.48255 -0.93038,-0.42571 2.43609,-2.85627 5.27868,-3.81116 8.28924,-7.52619 5.11054,-6.30641 -7.47506,2.86845 -8.23945,1.38126 -1.48244,-2.88425 4.7689,-3.01047 6.32093,-3.14803 2.93581,-0.2602 -1.74604,1.48954 -1.94756,1.93188 -0.66821,1.46673 1.00748,-0.36631 2.17927,-0.66601 2.60398,-0.66601 0.4247,0 1.98608,-1.125 3.46973,-2.5 1.48365,-1.375 3.23686,-2.49311 3.89602,-2.48469 0.77824,0.01 0.70397,0.32836 -0.21182,0.90809 -1.38176,0.87471 -5.38561,10.11402 -4.68606,10.81358 0.19539,0.19538 1.83059,-1.50751 3.63378,-3.78422 2.39038,-3.01811 2.94193,-4.34749 2.03601,-4.90738 -0.8564,-0.52929 -0.51707,-0.96638 1.09204,-1.40662 1.93814,-0.53026 2.07984,-0.80591 0.83453,-1.62342 -1.28415,-0.84302 -1.24818,-0.98692 0.25,-1.00003 0.9625,-0.008 1.75,0.71479 1.75,1.60713 0,1.3288 0.27149,1.39713 1.5,0.37756 0.825,-0.68469 1.5,-1.86479 1.5,-2.62244 0,-0.75766 0.525,-1.37756 1.16667,-1.37756 0.64166,0 0.91886,-0.24781 0.61598,-0.55068 -0.30288,-0.30288 -3.55507,0.41993 -7.22709,1.60624 -3.67203,1.1863 -6.94922,1.88411 -7.28265,1.55068 -0.33343,-0.33343 -0.0245,-0.60624 0.68644,-0.60624 1.68119,0 19.15546,-6.93966 20.814832,-8.26631 2.67514,-2.13877 0.26505,-1.66764 -6.116892,1.19574 -3.64681,1.63621 -8.32407,3.21659 -10.39392,3.51196 -3.55313,0.50702 -3.51198,0.46187 0.73663,-0.80831 5.53352,-1.65433 18.302822,-7.6636 17.656982,-8.30944 -0.25911,-0.25911 -1.93093,0.28379 -3.715172,1.20645 -4.36251,2.25594 -13.5306,5.18689 -18.44181,5.89566 -4.88458,0.70492 -4.1114,0.35747 5.5,-2.47166 7.48237,-2.20243 18.447232,-6.8402 17.770932,-7.5165 -0.19622,-0.19622 -3.19004,0.52505 -6.652952,1.60282 -10.40122,3.23723 -9.32961,2.1177 1.88202,-1.96617 5.775012,-2.10356 13.143502,-5.00581 16.374442,-6.44945 7.02929,-3.1408 8.69124,-3.36451 3.12557,-0.42072 -2.32727,1.23094 -3.44068,2.30495 -2.6625,2.5683 0.73563,0.24895 1.83813,-0.048 2.45,-0.65987 0.61188,-0.61188 1.585,-1.09819 2.1625,-1.0807 0.5775,0.0175 0.17649,0.6925 -0.89113,1.5 -1.06762,0.80751 -1.44725,1.4682 -0.84362,1.4682 0.63221,0 0.86754,0.95391 0.55509,2.25 -0.39906,1.65529 -0.23996,1.97027 0.60193,1.19169 2.28554,-2.1137 5.4203,-13.12239 5.89804,-20.71284 0.26901,-4.27413 0.94598,-8.05351 1.50439,-8.39862 0.63155,-0.39032 0.82391,0.37358 0.50896,2.02115 -0.89458,4.67968 0.91241,2.83425 3.74056,-3.82014 1.5121,-3.55782 3.70023,-7.25838 4.86252,-8.22347 1.16229,-0.96509 1.55076,-1.11414 0.86326,-0.33124 -2.14335,2.4408 -1.37595,3.13996 1.70034,1.54915 3.95915,-2.04736 5.08585,-1.89372 2.22924,0.30398 l -2.32042,1.78518 3.39699,-0.39658 c 2.78301,-0.3249 3.7021,0.0691 5.08505,2.17972 1.37902,2.10466 8.22221,6.60202 10.04564,6.60202 0.25658,0 0.67231,-0.7875 0.92383,-1.75 0.35783,-1.36928 0.48256,-1.27984 0.57333,0.41111 0.13213,2.46169 -5.05914,7.33889 -7.8115,7.33889 -3.67683,0 -7.64673,2.14 -9.76766,5.2653 -4.3075,6.34735 -3.65793,7.29856 1.55171,2.27229 2.8289,-2.72932 5.14345,-4.64694 5.14345,-4.26136 0,0.38557 -2.3625,2.95152 -5.25,5.70212 -6.08179,5.79344 -5.32489,6.65367 1.25,1.42064 l 4.5,-3.58159 0.54356,2.8413 c 0.54041,2.8249 0.56066,2.81245 3.50787,-2.1587 1.63037,-2.75 3.63577,-5.13929 4.45644,-5.30952 0.82067,-0.17024 3.00295,-1.80106 4.8495,-3.62404 4.30988,-4.25487 3.6401,-6.75827 -2.6813,-10.02169 -5.61751,-2.90004 -11.55344,-8.4041 -15.80002,-14.65048 -3.71053,-5.4579 -6.37969,-6.46585 -9.86416,-3.72496 -1.38154,1.08672 -2.51189,1.54059 -2.51189,1.00861 0,-2.59387 4.19398,-14.09402 5.55051,-15.21984 1.14931,-0.95384 1.23767,-1.47096 0.34556,-2.02231 -0.77018,-0.476 0.30264,-1.50666 3.00138,-2.88346 2.31,-1.17847 4.45121,-2.79734 4.75826,-3.59749 0.30705,-0.80015 1.18512,-1.45482 1.95128,-1.45482 0.76615,0 1.39301,-0.4288 1.39301,-0.95289 0,-0.55104 -2.03318,-0.71208 -4.82124,-0.38188 -5.56614,0.65923 -10.18513,-1.21912 -12.79581,-5.20353 -1.28174,-1.95618 -1.93323,-2.24989 -3.00942,-1.35674 -0.8224,0.68253 -1.37353,0.73868 -1.37353,0.13993 0,-0.55 0.64798,-1.53778 1.43997,-2.19507 0.79198,-0.65728 1.63069,-2.17488 1.86381,-3.37244 0.27261,-1.4004 0.4838,-0.92844 0.59184,1.32262 0.20192,4.20706 1.55264,6.1492 5.80472,8.34632 4.11424,2.12591 7.13683,2.09572 9.64281,-0.0963 1.10035,-0.9625 1.67173,-1.1875 1.26973,-0.5 -0.50801,0.86879 0.0734,1.25 1.90652,1.25 1.7564,0 3.97895,-1.35498 6.65332,-4.05622 4.79106,-4.83918 4.71803,-8.3887 -0.20791,-10.10589 -1.63064,-0.56847 -2.96481,-1.45537 -2.96481,-1.97092 0,-0.56742 0.69066,-0.58371 1.75,-0.0413 0.9625,0.49284 3.55,1.16313 5.75,1.48952 3.66444,0.54365 3.83716,0.47143 2.05887,-0.8609 -1.06762,-0.79988 -2.30512,-1.45433 -2.75,-1.45433 -2.00857,0 -0.52949,-2.03374 1.94113,-2.66904 l 2.75,-0.70714 -2.5,-0.71223 c -1.96885,-0.56091 -1.54393,-0.73015 2,-0.7966 6.91436,-0.12963 8.28746,1.52026 1.98644,2.38688 l -5.27071,0.7249 3.14213,2.45909 c 1.72818,1.3525 3.14214,3.10148 3.14214,3.88662 0,1.7955 -0.96818,1.76616 -3.44113,-0.10428 -2.69328,-2.0371 -3.82489,-1.83379 -2.59405,0.46606 1.28649,2.40383 1.36732,7.38905 0.10718,6.61024 -0.51041,-0.31545 -1.2178,0.33953 -1.572,1.4555 -0.3542,1.11597 -1.06477,1.76899 -1.57906,1.45114 -0.51429,-0.31785 -1.20404,0.12303 -1.53279,0.97973 -0.32874,0.85671 -1.00057,1.30867 -1.49293,1.00437 -0.49237,-0.3043 -0.89522,-0.0994 -0.89522,0.45522 0,0.55467 -2.8125,3.01652 -6.25,5.47077 -6.99393,4.99343 -10.20115,8.83171 -12.26316,14.67608 l -1.39812,3.96271 2.82078,0 c 3.6107,0 7.39819,2.9959 10.28817,8.13792 2.26611,4.032 6.0574,6.79781 9.50267,6.93237 1.58433,0.0619 1.56036,0.16431 -0.20034,0.85613 -1.82731,0.71799 -1.69779,0.97064 1.5,2.92598 1.925,1.17707 3.99276,2.14181 4.59501,2.14386 1.90298,0.006 4.40499,3.55973 4.40499,6.25576 0,3.00474 -3.59229,7.65664 -7.54704,9.77315 -1.50752,0.80681 -4.74403,4.3937 -7.19224,7.97087 -4.37981,6.39953 -4.441,6.44375 -3.81069,2.75396 0.78461,-4.59303 0.13958,-4.66422 -6.79604,-0.75 -2.92363,1.65 -5.6244,3 -6.00169,3 -0.3773,0 0.44389,-2.22972 1.82487,-4.95494 l 2.51085,-4.95494 -2.49401,-2.69108 c -1.3717,-1.4801 -2.49401,-3.52538 -2.49401,-4.54506 0,-2.22528 1.55415,-2.45823 2.36163,-0.35398 0.6391,1.66547 6.62408,2.09231 8.18837,0.58399 0.5225,-0.50381 2.56378,-1.16464 4.53618,-1.46852 7.74373,-1.19305 8.8545,-2.77776 3.51173,-5.01011 -1.87115,-0.78182 -4.38865,-2.75588 -5.59445,-4.38681 -1.91632,-2.59196 -2.58967,-2.87166 -5.34791,-2.22142 -7.12806,1.6804 -8.31417,2.85043 -11.52485,11.36858 -1.68629,4.47386 -3.56595,10.15929 -4.17701,12.63429 -0.61106,2.475 -2.71333,7.425 -4.6717,11 -3.47059,6.33555 -6.62052,15.64323 -5.76338,17.03011 0.23487,0.38003 2.57677,-0.36762 5.20422,-1.66144 3.18374,-1.56776 7.9459,-2.68289 14.27717,-3.34321 14.11725,-1.47236 16.69505,-1.16658 8.19963,0.97262 -11.51562,2.89972 -16.09359,5.63812 -20.8326,12.46145 -4.56423,6.57168 -6.92398,8.11947 -10.86923,7.12927 -3.63076,-0.91126 -6.03017,-6.62289 -4.55723,-10.84815 0.58268,-1.6715 1.04253,-4.20945 1.02188,-5.63987 -0.0367,-2.54231 -0.11613,-2.51085 -3.5331,1.39922 -1.92256,2.2 -4.252702,5.2375 -5.178072,6.75 -2.61451,4.27334 -3.53997,3.23618 -1.20185,-1.34691 3.440722,-6.74435 1.39208,-5.61235 -3.41483,1.8869 -4.06068,6.33508 -6.63461,9.3334 -6.63461,7.72853 0,-0.32973 0.95215,-1.88735 2.11588,-3.46138 4.27588,-5.78344 1.1726,-5.02727 -3.55428,0.86606 -2.68583,3.34862 -5.06733,5.9044 -5.29223,5.67951 -0.22489,-0.2249 0.53165,-2.25251 1.68119,-4.5058 2.4515,-4.80533 1.40693,-5.21565 -3.16576,-1.24356 -1.80664,1.56934 -4.31271,3.39342 -5.56904,4.05351 -1.9206,1.0091 -1.72161,0.46308 1.25,-3.42995 1.94383,-2.54656 3.53424,-5.05911 3.53424,-5.58344 0,-1.58105 -5.74038,3.16993 -10.15302,8.40305 -3.96456,4.70174 -9.22383,8.72169 -11.34698,8.67313 -0.55,-0.0126 -2.22224,-0.78087 -3.7161,-1.70731 z m -24.12305,-7.93482 c -0.66484,-0.66484 -4.56749,1.01453 -4.10324,1.76569 0.29431,0.47621 1.39378,0.32958 2.44327,-0.32583 1.04949,-0.65542 1.79648,-1.30336 1.65997,-1.43986 z m 84.339162,-2.91414 c 0,-2.50754 10.48099,-12.09126 14.69756,-13.43932 3.93323,-1.25748 6.59277,-2.97406 4.60778,-2.97406 -2.84587,0 -14.2129,4.22572 -17.60917,6.54626 -3.01903,2.06278 -3.61096,2.22296 -2.86901,0.77637 1.19675,-2.33329 4.43976,-15.04905 4.67298,-18.32263 0.34108,-4.78749 -0.545,-6.23679 -3.39025,-5.54526 -1.43544,0.34888 -3.85021,0.76711 -5.36617,0.9294 -1.51595,0.16229 -3.09095,0.64816 -3.5,1.0797 -0.40904,0.43154 0.37775,0.4388 1.74844,0.0161 2.31987,-0.71535 2.39311,-0.63752 1.05948,1.12577 -0.78797,1.04184 -4.72194,5.1529 -8.742162,9.1357 -4.02022,3.98283 -7.30949,7.69533 -7.30949,8.25004 0,1.85748 3.56749,1.03494 8.05422,-1.85703 5.727242,-3.69154 9.512862,-7.89233 10.365642,-11.50242 1.11909,-4.73743 1.43633,-2.50943 0.40837,2.868 -0.52569,2.75 -1.1033,6.40781 -1.28358,8.12846 -0.18028,1.72065 -0.64362,4.99795 -1.02966,7.28289 -0.5184,3.06837 -0.2793,4.7994 0.91462,6.62155 1.81559,2.77094 4.5704,3.30165 4.5704,0.88048 z M 62.855228,243.75766 c -0.67703,-0.27392 -2.02703,-0.29059 -3,-0.0371 -0.97296,0.25354 -0.41903,0.47766 1.23097,0.49804 1.65,0.0204 2.44607,-0.18706 1.76903,-0.46099 z m 77.730982,-26.73707 c 0,-0.21616 -0.675,-0.65203 -1.5,-0.96862 -0.825,-0.31658 -1.5,-0.13972 -1.5,0.39301 0,0.53274 0.675,0.96862 1.5,0.96862 0.825,0 1.5,-0.17686 1.5,-0.39301 z M 76.086198,114.4136 c 0.33992,-0.55 0.14148,-1 -0.44098,-1 -0.58246,0 -1.05902,0.45 -1.05902,1 0,0.55 0.19844,1 0.44098,1 0.24255,0 0.7191,-0.45 1.05902,-1 z m -36.5,-10.42798 c 16.48836,-1.39855 20.05915,-1.85515 28.2834,-3.61665 19.81502,-4.244046 47.716612,-18.704235 47.716612,-24.729456 0,-1.192227 -0.85559,-0.808798 -3.25,1.456475 -4.35764,4.122625 -14.468582,10.864235 -19.868422,13.24756 -17.07369,7.5358 -63.29559,13.640921 -79.38159,10.484951 l -3,-0.58857 2.5,1.83683 c 2.35569,1.73081 13.4012,3.34923 18.5,2.71066 1.1,-0.13776 4.925,-0.49857 8.5,-0.8018 z m -6.23488,-4.40569 c 0.76285,-0.484226 -1.78033,-1.276514 -6.40574,-1.995611 -4.21898,-0.655909 -7.84708,-1.016349 -8.06245,-0.800977 -0.36104,0.361042 9.92516,3.324488 12.20307,3.515698 0.55,0.0462 1.56931,-0.27743 2.26512,-0.71911 z m 2.23488,-3.166326 c -1.375,-0.440352 -3.4,-0.80064 -4.5,-0.80064 -1.58366,0 -1.47958,0.166667 0.5,0.80064 1.375,0.440352 3.4,0.80064 4.5,0.80064 1.58367,0 1.47958,-0.166667 -0.5,-0.80064 z m 18.25,0.337719 c -0.6875,-0.277412 -1.8125,-0.277412 -2.5,0 -0.6875,0.277413 -0.125,0.504386 1.25,0.504386 1.375,0 1.9375,-0.226973 1.25,-0.504386 z m 11.75,-2.337719 c -1.375,-0.440352 -4.3,-0.781639 -6.5,-0.758415 l -4,0.04223 4,0.716185 c 2.2,0.393904 5.125,0.735191 6.5,0.758415 l 2.5,0.04222 -2.5,-0.80064 z m 11.397,-0.833333 c 0.28326,-0.458334 -0.0277,-0.843109 -0.69099,-0.855057 -0.6633,-0.01195 -3.90324,-0.346685 -7.19987,-0.743859 -7.02484,-0.846346 -6.91447,0.198761 0.14611,1.383545 6.79528,1.140268 7.16674,1.150597 7.74475,0.215371 z m 7.103,-2.166667 c 0.34698,-0.561418 -0.44309,-1 -1.80141,-1 -1.3307,0 -4.61975,-0.212636 -7.30902,-0.472525 l -4.88957,-0.472525 5.5,1.360306 c 7.04766,1.743087 7.75407,1.791684 8.5,0.584744 z m -41.0223,-1.913242 c 1.92102,-0.750532 1.91386,-0.806835 -0.25,-1.964899 -3.73718,-2.000076 -2.47861,-3.257605 1.5223,-1.521046 3.55404,1.542599 13.97204,2.103806 18.75,1.010045 1.1,-0.251809 2.675,-0.522638 3.5,-0.60184 0.825,-0.0792 -0.65045,-0.722356 -3.27877,-1.429229 -2.62833,-0.706873 -5.86748,-2.308004 -7.19811,-3.55807 -6.81367,-6.40111 -8.32548,-19.188674 -3.18664,-26.953988 2.95516,-4.465541 2.91944,-4.597087 -0.78943,-2.907216 -1.53537,0.699564 -2.55313,1.990448 -2.56236,3.25 -0.0112,1.532143 -0.24168,1.732353 -0.86396,0.75059 -2.23808,-3.530999 -13.12073,11.635382 -13.12073,18.285443 0,2.292794 -0.20934,2.439667 -1.93829,1.359919 -2.78248,-1.737692 -6.43484,0.476977 -8.56047,5.190796 -1.84739,4.096762 -1.12289,6.958004 2.26102,8.929501 2.02359,1.178954 12.82587,1.288928 15.71544,0.159994 z m -15.02715,-1.779064 c -1.65932,-1.659318 -1.93916,-5.887681 -0.45055,-6.807694 0.56716,-0.350523 1,0.489616 1,1.940983 0,1.407459 0.45,2.559017 1,2.559017 0.55,0 1.01802,-1.2375 1.04004,-2.75 l 0.04,-2.75 1.4919,2.75 c 0.82054,1.5125 1.75131,2.75 2.06837,2.75 0.31706,0 0.27459,-1.2375 -0.0944,-2.75 -0.66185,-2.713111 -0.63031,-2.703051 2.35095,0.75 4.4129,5.111243 4.41604,5.104816 -2.69637,5.512065 -2.7095,0.155143 -4.83586,-0.290237 -5.75,-1.204371 z m 17.93195,-3.221442 c -3.86897,-1.756965 -7.3825,-5.325135 -7.3825,-7.49732 0,-0.53133 0.91305,0.01399 2.029,1.211825 1.11596,1.197833 3.47846,2.91494 5.25,3.815793 l 3.221,1.637913 -2.27388,-2.467104 c -2.79447,-3.031932 -4.19872,-7.616339 -3.15111,-10.287359 0.71526,-1.823657 0.79062,-1.836982 0.85471,-0.151129 0.0969,2.548373 3.08855,8.651129 4.24093,8.651129 0.51852,0 0.24224,-1.000128 -0.61394,-2.222506 -0.95713,-1.366493 -1.51451,-4.158879 -1.44714,-7.25 l 0.10956,-5.027494 0.86636,4.414422 c 1.06343,5.418581 5.00005,11.558857 8.95094,13.961539 1.62602,0.988838 2.65801,2.096271 2.29331,2.460963 -1.31431,1.314312 -8.91592,0.580015 -12.94724,-1.250672 z m 42.1175,4.913748 c -0.33992,-0.55 -2.27897,-0.946758 -4.30902,-0.881685 l -3.69098,0.118315 3,0.76337 c 4.40682,1.121345 5.69303,1.121345 5,0 z m -15.32874,-7.654988 c 2.69629,-2.440112 2.25659,-5.077429 -1.83766,-11.022093 -2.01652,-2.927898 -3.34205,-5.647799 -2.94563,-6.044225 0.39643,-0.396425 1.13942,-0.05881 1.65109,0.750266 1.61535,2.554228 1.07735,-0.642815 -1.07724,-6.401452 -2.91293,-7.785515 -8.56283,-10.935845 -12.26869,-6.84091 -7.15098,7.901738 -5.60666,22.802468 2.96706,28.628462 4.46721,3.035548 10.70964,3.465208 13.51107,0.929952 z m -15.22833,-6.595012 c -5.42615,-5.718452 -5.32378,-15.131917 0.18522,-17.032118 0.89548,-0.308876 2.13298,-0.05676 2.75,0.560263 1.83771,1.837717 1.27338,2.833433 -0.85319,1.505369 -2.44491,-1.52687 -3.56202,-0.490633 -4.54558,4.216486 l -0.73133,3.5 2.03431,-2.495913 2.03432,-2.495913 -0.53162,2.780954 c -0.35425,1.853135 0.0617,3.43653 1.24665,4.745913 0.97805,1.080728 1.28404,1.964959 0.67998,1.964959 -0.60405,0 -1.7988,-1.000128 -2.65498,-2.222506 -2.0989,-2.996588 -1.98315,-1.307986 0.1589,2.318214 2.15686,3.651269 6.2479,4.072492 6.35468,0.654292 0.0667,-2.135461 0.11132,-2.148188 0.87641,-0.25 1.77743,4.409786 -3.38171,6.067188 -7.00377,2.25 z m 3.16864,-9 c -0.99182,-2.973367 -0.95758,-3.084775 0.40217,-1.30887 0.81744,1.067621 1.48626,2.530121 1.48626,3.25 0,2.229952 -0.75649,1.452356 -1.88843,-1.94113 z m -4.67633,-48.854785 c -0.3043,-0.492368 -0.0853,-0.895215 0.48669,-0.895215 0.57198,0 1.31415,-1.092439 1.64927,-2.427642 0.33511,-1.335204 1.18124,-2.647119 1.88029,-2.915367 1.13408,-0.435191 2.92738,-4.6569909 1.97815,-4.6569909 -0.21072,0 -2.1936,2.2904089 -4.40638,5.0897979 -4.13795,5.234893 -5.20376,8.300434 -2.529,7.274032 0.82184,-0.31537 1.24528,-0.976246 0.94098,-1.468615 z m 19.37726,234.421671 c 0.72188,-0.28887 1.58438,-0.25335 1.91667,0.0789 0.33229,0.33229 -0.25834,0.56864 -1.3125,0.52522 -1.16494,-0.048 -1.4019,-0.28494 -0.60417,-0.60416 z m 0.9375,-9.97917 c 0.6875,-0.27741 1.8125,-0.27741 2.5,0 0.6875,0.27741 0.125,0.50439 -1.25,0.50439 -1.375,0 -1.9375,-0.22698 -1.25,-0.50439 z m 27.414692,-12.24277 c 4.76557,-1.55572 10.72807,-3.98184 13.25,-5.39137 2.52192,-1.40953 4.58532,-2.21598 4.58532,-1.79211 0,2.13237 -19.27945,10.13306 -24.218462,10.0503 -1.25485,-0.021 1.61756,-1.3111 6.383142,-2.86682 z m -1.66468,-3.12099 c 3.31123,-0.66796 7.56942,-2.42872 18.8892,-7.81066 0.48905,-0.23252 0.57102,0.0921 0.18215,0.72126 -1.70042,2.75134 -15.24529,8.14417 -20.07135,7.99132 -2.641872,-0.0837 -2.522492,-0.19134 1,-0.90192 z m 12,-6.63281 c 1.65,-0.86832 4.34836,-2.7628 5.99637,-4.20996 l 2.99636,-2.63119 -2.49636,2.84501 c -2.38629,2.71956 -7.00222,5.69979 -8.69671,5.61495 -0.43981,-0.022 0.55034,-0.75048 2.20034,-1.61881 z m -5,-1.26986 c 3.51559,-0.84842 7.2038,-2.67716 9.98277,-4.94979 1.8735,-1.53214 1.90474,-1.52104 0.56689,0.20159 -1.91736,2.46882 -8.44469,5.70039 -11.25982,5.57455 -1.85938,-0.0831 -1.72588,-0.23846 0.71016,-0.82635 z m 10.90499,-8.91649 c 2.09237,-2.36676 1.55383,-2.73831 -1.55638,-1.07378 -1.11095,0.59456 -2.22508,0.87585 -2.47584,0.62508 -0.25077,-0.25077 1.37676,-1.36269 3.61673,-2.47094 2.23997,-1.10825 3.5899,-1.4333 2.99985,-0.72233 -0.77172,0.92986 -0.74212,1.40291 0.10546,1.68544 0.64806,0.21602 -0.12065,1.22944 -1.70826,2.25205 l -2.88655,1.85928 1.90499,-2.1548 z m -1.40499,-4.56123 c 0,-0.19995 1.125,-1.10068 2.5,-2.00161 1.375,-0.90094 2.5,-1.24992 2.5,-0.77553 0,0.4744 -1.125,1.37512 -2.5,2.00162 -1.375,0.62649 -2.5,0.97547 -2.5,0.77552 z m 2.73333,-4.71766 c 0.67834,-0.68342 1.48524,-0.99067 1.79313,-0.68278 0.30789,0.30789 -0.24711,0.86705 -1.23333,1.24258 -1.4252,0.54268 -1.54006,0.42782 -0.5598,-0.5598 z m 0.26667,-3.26892 c 0,-0.21616 0.675,-0.65203 1.5,-0.96862 0.825,-0.31658 1.5,-0.13972 1.5,0.39301 0,0.53274 -0.675,0.96862 -1.5,0.96862 -0.825,0 -1.5,-0.17686 -1.5,-0.39301 z m -15,-45.69523 c 0,-0.75479 -1.1711,-0.91464 -3.5,-0.47774 -1.925,0.36113 -3.500012,0.38903 -3.500012,0.062 0,-0.32703 3.375012,-2.19738 7.500012,-4.15633 4.125,-1.95896 7.5,-3.78492 7.5,-4.0577 0,-0.27278 -0.7875,-0.19616 -1.75,0.17027 -1.40315,0.53418 -1.50225,0.41665 -0.5,-0.59301 2.19136,-2.20757 1.37198,-2.85925 -3.59501,-2.85925 -5.53075,0 -8.53071,-2.31704 -7.98535,-6.16753 0.28758,-2.03039 0.80524,-2.29119 3.99715,-2.01376 4.06411,0.35324 9.25282,-1.86385 10.21203,-4.36351 2.23444,-5.82286 -1.18358,-10.84384 -7.06414,-10.37703 -8.993732,0.71393 -13.314692,-1.53936 -13.314692,-6.94331 0,-3.45402 3.29129,-7.90512 6.881332,-9.30623 4.1977,-1.638274 13.12247,-3.08635 19.79719,-3.212165 7.3193,-0.137964 10.40693,1.684913 14.37676,8.487755 2.47859,4.24741 2.74839,4.40626 7.99308,4.7063 7.03838,0.40265 9.14067,2.23781 8.74717,7.63566 -0.27392,3.75749 -0.11277,4.04671 2.20448,3.95652 1.375,-0.0535 3.4,-0.41966 4.5,-0.81366 1.1,-0.39399 0.71809,0.0249 -0.84868,0.93095 -1.92643,1.11399 -3.70703,1.4056 -5.5,0.90075 -1.45823,-0.41059 -3.32632,-0.65447 -4.15132,-0.54194 -1.32145,0.18024 -1.32339,0.0861 -0.0164,-0.79051 2.29493,-1.53927 -5.2785,-4.39803 -9.33722,-3.52455 -4.21226,0.90652 -7.99008,2.90669 -9.67101,5.12032 -1.18002,1.55397 -1.17672,1.63561 0.0228,0.56594 0.77097,-0.6875 2.54927,-1.20942 3.95177,-1.15981 2.28318,0.0807 2.20501,0.18965 -0.74703,1.04078 -1.81337,0.52282 -3.5635,1.64497 -3.88917,2.49366 -0.47913,1.24859 -0.75354,1.28852 -1.43796,0.20922 -0.64154,-1.01169 -1.67123,-0.4404 -4.26329,2.36533 -1.87961,2.03455 -3.12386,3.8733 -2.76501,4.08611 0.35885,0.2128 0.16165,0.27731 -0.43822,0.14334 -1.78026,-0.39759 -3.05862,0.89668 -3.7744,3.82137 -0.78749,3.21772 -0.90437,3.17836 3.71084,1.25 5.34897,-2.23494 5.79439,-1.73539 0.70547,0.79122 -5.06805,2.51625 -6.39868,4.69811 -2.88456,4.72987 1.28333,0.0116 -0.81667,1.13453 -4.66667,2.4954 -9.2424,3.26694 -9.66227,3.52104 -5.25,3.17728 2.0625,-0.16069 3.75,-0.20928 3.75,-0.10798 0,0.1013 -1.125,0.92132 -2.5,1.82225 -1.56801,1.02741 -2.5,1.21519 -2.5,0.50372 z m 3,-13.91176 c 0,-0.55 -0.64948,-1 -1.4433,-1 -0.79381,0 -2.13346,-0.98535 -2.977,-2.18967 -0.84353,-1.20431 -1.83317,-1.89019 -2.1992,-1.52416 -1.20827,1.20826 2.77061,4.73796 6.3695,5.65044 0.1375,0.0349 0.25,-0.38661 0.25,-0.93661 z m 2.5,0 c 0.33992,-0.55 0.14148,-1 -0.44098,-1 -0.58246,0 -1.05902,0.45 -1.05902,1 0,0.55 0.19844,1 0.44098,1 0.24254,0 0.7191,-0.45 1.05902,-1 z m 2.14515,-3.6359 c 1.89608,-0.89975 6.82013,-4.69936 10.94235,-8.44358 10.79817,-9.808 21.43084,-13.50681 24.92442,-8.67052 l 1.62533,2.25 -0.31863,-2.49063 c -0.20522,-1.6042 -1.3827,-2.99917 -3.30836,-3.91947 -5.49086,-2.62416 -18.06773,2.08432 -26.21845,9.81556 -3.71668,3.5254 -3.90327,2.32507 -0.23798,-1.53089 2.57185,-2.70563 2.87533,-3.33097 1.19617,-2.46482 -4.26437,2.19969 -2.23241,-0.41535 2.50407,-3.22262 3.90354,-2.31359 4.25781,-2.73757 1.99593,-2.38867 -3.33487,0.51442 -3.5316,-0.6068 -0.5,-2.84968 l 2.25,-1.66463 -2.75,0.62698 c -3.08081,0.7024 -3.70599,-0.75493 -1,-2.33103 1.40443,-0.81801 0.97175,-1.02529 -2.19113,-1.04969 -3.69082,-0.0285 -3.81784,-0.12456 -2,-1.51275 1.80476,-1.3782 1.69524,-1.44237 -1.55887,-0.91347 -1.925,0.31289 -4.0625,0.74081 -4.75,0.95096 -2.76634,0.84557 -1.02888,-0.73627 1.94887,-1.77432 2.81911,-0.98275 2.96751,-1.20567 1.25,-1.87769 -1.40243,-0.548752 -0.78015,-0.782273 2.21934,-0.832851 4.61636,-0.07784 7.33179,0.676481 7.33179,2.036701 0,0.49115 -0.75,0.89301 -1.66667,0.89301 -2.33087,0 -1.20638,0.87565 1.72739,1.34512 1.58614,0.25382 2.33779,0.95564 2.14911,2.00664 -0.197,1.09734 0.20435,1.42653 1.25,1.02528 2.08268,-0.7992 1.95203,0.58983 -0.20983,2.23091 -1.55697,1.18192 -1.34414,1.33195 1.9296,1.36025 l 3.67961,0.0318 -2.43042,-4.34849 c -1.63442,-2.9243 -3.65834,-4.88964 -6.17961,-6.00076 -7.37525,-3.250273 -12.14534,-2.587039 -18.03398,2.50745 -1.80663,1.56299 -4.28163,2.80627 -5.5,2.76285 -2.01745,-0.0719 -1.97739,-0.16605 0.44879,-1.05466 3.44048,-1.26012 4.8631,-4.290223 1.57972,-3.36473 -6.792352,1.91457 -9.743722,4.55484 -9.743722,8.71665 0,5.08253 10.066902,6.40161 18.250012,2.39132 5.22102,-2.55867 6.5296,-1.77394 1.75,1.04944 -3.86357,2.28227 -3.83036,3.51574 0.0761,2.82752 1.9709,-0.34722 2.84792,-0.1727 2.44098,0.48574 -0.34932,0.56522 -1.33868,1.02767 -2.19856,1.02767 -1.10767,0 -1.27724,0.36439 -0.5817,1.25 1.64251,2.09134 2.17949,7.15483 0.93589,8.82514 -1.68002,2.2565 -5.83471,4.79702 -8.70639,5.32381 -1.35649,0.24884 -2.6054,0.48587 -2.77536,0.52674 -0.16996,0.0409 -0.0309,0.52431 0.30902,1.07431 0.91292,1.47713 4.23958,1.21741 8.14515,-0.6359 z M 141.81,144.23739 c -1.36262,-1.36262 0.14328,-3.82379 2.33964,-3.82379 2.00243,0 2.7568,1.90923 1.40022,3.5438 -1.46369,1.76364 -2.20101,1.81884 -3.73986,0.27999 z m 2.77621,-1.26477 c 0,-0.24254 -0.45,-0.7191 -1,-1.05902 -0.55,-0.33992 -1,-0.14148 -1,0.44098 0,0.58246 0.45,1.05902 1,1.05902 0.55,0 1,-0.19844 1,-0.44098 z m -10.25636,0.58309 c 0.134,-0.25449 -0.6535,-1.0911 -1.75,-1.85912 -2.25833,-1.5818 -2.7434,-7.13323 -0.79364,-9.08299 1.80186,-1.80186 4.59814,-1.4457 5.76482,0.73426 1.62419,3.03483 1.2269,5.75327 -1.21482,8.3124 -1.2375,1.297 -2.14036,2.14995 -2.00636,1.89545 z m 2.24538,-4.12159 c 1.47128,-2.74912 0.23618,-7.02052 -2.03004,-7.02052 -2.16233,0 -3.38357,3.17214 -2.53022,6.57217 0.73632,2.93375 3.10546,3.16667 4.56026,0.44835 z m -3.98902,-1.85385 c 0,-1.00834 0.675,-1.83334 1.5,-1.83334 0.825,0 1.5,0.825 1.5,1.83334 0,1.00833 -0.675,1.83333 -1.5,1.83333 -0.825,0 -1.5,-0.825 -1.5,-1.83333 z m -15,3.94996 c 0,-0.48585 0.92572,-1.12545 2.05715,-1.42132 1.68797,-0.44142 1.84546,-0.28289 0.87756,0.88336 -1.32028,1.59084 -2.93471,1.88678 -2.93471,0.53796 z m 23.46453,-3.48364 c -1.28196,-3.11519 0.72303,-7.13299 3.55955,-7.13299 1.97589,0 2.54147,0.57245 2.80049,2.83447 0.50033,4.36927 -0.41671,5.95418 -2.72906,4.71664 -1.41358,-0.75652 -2.05912,-0.70084 -2.39841,0.20688 -0.30329,0.81138 -0.73064,0.59469 -1.23257,-0.625 z m 4.54633,-6.00481 c -0.85291,-0.84002 -1.51144,-0.63237 -2.57818,0.81295 -0.78797,1.06762 -1.42579,2.41762 -1.41737,3 0.008,0.58238 0.45153,0.38387 0.98469,-0.44113 0.86167,-1.33333 0.97278,-1.33333 1,0 0.0272,1.33333 0.13833,1.33333 1,0 0.77608,-1.2009 1.0023,-1.0015 1.13452,1 0.15141,2.29209 0.20077,2.26117 0.59349,-0.37182 0.23559,-1.5795 -0.0871,-3.3795 -0.71715,-4 z m 5.7378,0.47599 c -0.25884,-3.08229 -0.81204,-6.40656 -1.22933,-7.38726 -0.68909,-1.61949 -0.4954,-1.67088 2.11098,-0.56007 3.61156,1.5392 5.6505,3.30253 2.84362,2.45924 -1.83547,-0.55145 -1.99047,-0.23531 -1.64757,3.36031 l 0.37851,3.96903 2.8479,-1.47271 c 1.56635,-0.80999 3.43276,-1.436 4.14757,-1.39114 0.71481,0.0449 -0.18341,0.72955 -1.99606,1.52153 -1.81264,0.79197 -3.08855,1.77513 -2.83536,2.18481 0.2532,0.40968 -0.57689,1.23437 -1.84464,1.83265 -2.23894,1.05661 -2.31848,0.92719 -2.77562,-4.51639 z m -32.74866,3.50282 c 0,-0.21616 0.69837,-0.661 1.55194,-0.98855 0.88992,-0.34149 1.29132,-0.17385 0.94098,0.39301 -0.58726,0.95021 -2.49292,1.40545 -2.49292,0.59554 z m 11.04004,-4.29189 c -0.0984,-2.91266 2.02179,-6.3151 3.93521,-6.3151 1.11361,0 2.02475,0.45 2.02475,1 0,0.55 -0.66063,1 -1.46806,1 -0.80744,0 -2.13942,1.2375 -2.95997,2.75 -0.82054,1.5125 -1.50991,2.21679 -1.53193,1.5651 z m 15.95996,-4.25684 c 0,-0.85707 -0.81083,-1.07157 -2.47336,-0.6543 -1.93951,0.48678 -2.3481,0.29434 -1.89301,-0.89159 0.77476,-2.01899 3.99173,-1.93104 4.78292,0.13076 0.34679,0.90372 0.39493,1.87872 0.10699,2.16666 -0.28795,0.28795 -0.52354,-0.0502 -0.52354,-0.75153 z M 83.823808,82.163604 c -1.10006,-1.365138 -0.0685,-5.11845 1.70863,-6.216771 0.59751,-0.369284 0.83324,-1.081031 0.52383,-1.581661 -0.30941,-0.500629 -0.0947,-1.784445 0.47714,-2.852925 2.26084,-4.224413 3.81322,-4.909038 11.02882,-4.863867 l 7.023982,0.04397 0,2.907137 c 0,2.242788 -0.7266,3.296424 -3.17954,4.610626 -1.748762,0.93692 -5.061582,3.39099 -7.361842,5.45349 -4.28623,3.843197 -8.3397,4.834652 -10.22102,2.5 z m 8.43567,-3.101649 c 1.5547,-1.293407 4.73922,-3.549052 7.07672,-5.012545 2.681842,-1.679073 4.250012,-3.39423 4.250012,-4.648351 0,-2.301133 -0.0257,-2.308382 -3.50038,-0.987312 -1.787322,0.679536 -3.262822,0.661777 -4.602882,-0.0554 -2.61171,-1.397749 -5.35878,-0.429272 -6.59333,2.324478 -2.22734,4.968206 2.00624,6.51203 6.24204,2.276233 1.35,-1.349999 2.45454,-2.063144 2.45454,-1.584765 0,2.1717 -6.17547,6.539311 -9.24609,6.539311 -2.25861,0 -3.31207,0.518559 -3.55513,1.75 -0.51715,2.619992 4.04327,2.252908 7.4745,-0.601649 z m -13.67328,-1.648351 c -0.825,-0.533156 -1.05,-0.969374 -0.5,-0.969374 0.55,0 1.675,0.436218 2.5,0.969374 0.825,0.533156 1.05,0.969374 0.5,0.969374 -0.55,0 -1.675,-0.436218 -2.5,-0.969374 z m 13.43943,-26.621897 c -2.11218,-1.992043 -5.12454,-4.069575 -6.69413,-4.616738 -2.11479,-0.737217 -2.77502,-1.547269 -2.54955,-3.128103 0.24848,-1.742241 1.22074,-2.256119 5.30425,-2.803523 2.75,-0.368643 6.14476,-0.965874 7.54391,-1.327179 1.77711,-0.458908 3.27587,-0.0642 4.972292,1.309468 2.07906,1.683519 2.39575,2.716378 2.20154,7.180052 -0.27942,6.421708 -0.62546,7.00792 -4.136882,7.00792 -1.84568,0 -4.11099,-1.235388 -6.64143,-3.621897 z m 8.438702,1.718388 c 1.7721,-1.122433 0.56715,-3.096491 -1.890092,-3.096491 -3.47004,0 -6.87696,-2.242593 -7.91034,-5.206953 -0.83893,-2.406548 -1.50532,-2.874155 -3.72265,-2.612164 -4.0073,0.473487 -3.95448,2.466181 0.10084,3.80456 1.95771,0.6461 4.01732,2.030246 4.57693,3.075878 0.55961,1.045633 2.24365,2.566577 3.74232,3.379877 3.24319,1.760016 3.33934,1.772362 5.102992,0.655293 z m -0.0674,-7.77883 c 0.20223,-1.420473 -0.441232,-2.58475 -1.843142,-3.335031 -2.61223,-1.397998 -6.96759,-0.482242 -6.96759,1.464993 0,4.431881 8.19825,6.171932 8.810692,1.870038 z"
       id="path4140"
       inkscape:connector-curvature="0"
       inkscape:export-xdpi="300"
       inkscape:export-ydpi="300" />
    <path
       style="color:#000000;font-style:normal;font-variant:normal;font-weight:normal;font-stretch:normal;font-size:medium;line-height:normal;font-family:sans-serif;text-indent:0;text-align:start;text-decoration:none;text-decoration-line:none;text-decoration-style:solid;text-decoration-color:#000000;letter-spacing:normal;word-spacing:normal;text-transform:none;direction:ltr;block-progression:tb;writing-mode:lr-tb;baseline-shift:baseline;text-anchor:start;white-space:normal;clip-rule:nonzero;display:inline;overflow:visible;visibility:visible;opacity:1;isolation:auto;mix-blend-mode:normal;color-interpolation:sRGB;color-interpolation-filters:linearRGB;solid-color:#000000;solid-opacity:1;fill:#000000;fill-opacity:1;fill-rule:nonzero;stroke:#000000;stroke-width:0.21973872;stroke-linecap:butt;stroke-linejoin:bevel;stroke-miterlimit:4;stroke-dasharray:none;stroke-dashoffset:0;stroke-opacity:1;color-rendering:auto;image-rendering:auto;shape-rendering:auto;text-rendering:auto;enable-background:accumulate"
       d="m 1.2519531,-30.494141 c -19.9814531,0 -36.1914061,16.209954 -36.1914061,36.1914066 0,5.0869214 2.293859,9.7491794 5.646484,15.4472654 3.352626,5.698086 7.79004,12.460561 12.228516,21.789063 8.8769515,18.657002 17.76757855,47.58011 17.767578,98.542966 -5.5e-7,50.96286 -8.8906264,79.88401 -17.767578,98.54102 -4.438476,9.3285 -8.875891,16.09293 -12.228516,21.79101 -3.352625,5.69809 -5.646485,10.36035 -5.646484,15.44727 3e-6,19.98145 16.209955,36.19141 36.1914061,36.19141 5.0869204,0 9.6906579,-2.29834 14.7011719,-5.66211 5.010514,-3.36378 10.45731,-7.81132 17.279297,-12.24805 13.643974,-8.87346 32.768715,-17.73242 64.763672,-17.73242 31.994956,0 51.117746,8.85896 64.761716,17.73242 6.82199,4.43673 12.27074,8.88427 17.28125,12.24805 5.01052,3.36377 9.6123,5.66211 14.69922,5.66211 19.98145,0 36.19141,-16.20996 36.19141,-36.19141 0,-5.08692 -2.29191,-9.74918 -5.64453,-15.44727 -3.35263,-5.69808 -7.792,-12.46251 -12.23047,-21.79101 -8.87695,-18.65701 -17.76758,-47.57816 -17.76758,-98.54102 0,-50.962858 8.89063,-79.885964 17.76758,-98.542966 4.43847,-9.328502 8.87784,-16.090977 12.23047,-21.789063 3.35262,-5.698086 5.64453,-10.360345 5.64453,-15.4472654 0,-19.9814506 -16.20996,-36.1914036 -36.19141,-36.1914066 -5.08692,0 -9.6887,2.298333 -14.69922,5.66211 -5.01051,3.363777 -10.45926,7.811318 -17.28125,12.248047 -13.64397,8.8734566 -32.76677,17.732421 -64.761716,17.7324215 -31.994956,5e-7 -51.119698,-8.858965 -64.763672,-17.7324215 -6.821987,-4.436729 -12.268783,-8.88427 -17.279297,-12.248047 -5.010514,-3.363777 -9.614251,-5.66211 -14.7011719,-5.66211 z m 0,1.097657 c 4.7553608,0 9.1439119,2.157454 14.0878909,5.476562 4.943978,3.319109 10.415955,7.782074 17.294922,12.25586 13.757933,8.9475707 33.163029,17.9101563 65.361328,17.9101558 32.198296,-6e-7 51.603396,-8.962585 65.361326,-17.9101558 6.87897,-4.473786 12.34899,-8.936752 17.29297,-12.25586 4.94398,-3.319108 9.33253,-5.476563 14.08789,-5.476562 19.38767,3e-6 35.0918,15.706077 35.0918,35.0937496 0,4.7553604 -2.16193,9.2305504 -5.49219,14.8906254 -3.33026,5.660074 -7.80335,12.475959 -12.27539,21.875 -8.94407,18.798081 -17.87305,47.922906 -17.87305,99.013669 0,51.09077 8.92898,80.21559 17.87305,99.01367 4.47204,9.39905 8.94513,16.21493 12.27539,21.875 3.33026,5.66008 5.49219,10.13527 5.49219,14.89063 0,19.38767 -15.70413,35.0918 -35.0918,35.0918 -4.75536,0 -9.14391,-2.15551 -14.08789,-5.47461 -4.94398,-3.31911 -10.414,-7.78403 -17.29297,-12.25782 -13.75793,-8.94757 -33.16303,-17.9082 -65.361326,-17.9082 -32.1983,0 -51.603395,8.96063 -65.361328,17.9082 -6.878967,4.47379 -12.350944,8.93871 -17.294922,12.25782 -4.943978,3.3191 -9.3325306,5.47461 -14.0878909,5.47461 -19.3876731,0 -35.0917941,-15.70413 -35.0917971,-35.0918 0,-4.75536 2.161928,-9.23055 5.492188,-14.89063 3.33026,-5.66007 7.803352,-12.47595 12.27539,-21.875 8.944077,-18.79808 17.8749998,-47.9229 17.8750004,-99.01367 5e-7,-51.090762 -8.9309235,-80.215588 -17.8750004,-99.013669 -4.472038,-9.399041 -8.94513,-16.214926 -12.27539,-21.875 -3.33026,-5.660075 -5.492188,-10.135264 -5.492188,-14.8906254 0,-19.3876746 15.704122,-35.0937496 35.0917971,-35.0937496 z"
       id="path4733-1"
       inkscape:connector-curvature="0"
       inkscape:export-xdpi="300"
       inkscape:export-ydpi="300" />
  </g>
</svg>
