%
M48
METRIC,000.000
T01C0.50
%
T01
X051750Y089284
X051750Y088284
X051750Y087284
X051750Y086284
X051750Y085284
X049278Y084575
X049131Y085564
X048970Y086551
X048796Y087536
X048609Y088518
X048112Y089265
X040695Y045749
X039695Y045749
X038695Y045749
X037695Y045749
X036436Y048826
X037418Y049015
X038398Y049213
X039376Y049419
X040353Y049634
X041328Y049857
X023695Y045749
X022695Y045749
X021695Y045749
X020695Y045749
X020142Y049671
X021099Y049381
X022062Y049111
X023031Y048863
X024004Y048635
X058099Y048910
X057115Y048731
X056134Y048539
X055623Y047776
X053957Y052188
X054787Y051750
X055787Y051750
X056787Y051750
X057787Y051750
X083964Y048824
X082979Y048996
X081992Y049154
X081003Y049300
X080787Y051750
X081787Y051750
X082787Y051750
X083787Y051750
X084787Y051750
X085787Y051750
X051750Y063284
X051750Y062284
X051750Y061284
X051750Y060284
X051750Y059284
X048367Y058726
X048570Y059705
X048760Y060687
X048937Y061671
X049100Y062657
X049250Y063646
X053555Y040052
X053356Y039072
X053170Y038089
X052998Y037104
X052839Y036117
X052693Y035128
X050075Y036021
X050075Y037021
X050075Y038021
X050075Y039021
X050075Y040021
X052508Y016181
X052634Y015189
X052773Y014199
X052927Y013211
X053093Y012225
X050075Y012021
X050075Y013021
X050075Y014021
X050075Y015021
X050075Y016021
M30