%MOIN*%
%OFA0B0*%
%FSLAX33Y33*%
%IPPOS*%
%LPD*%
%AMRect-W1550000-H1550000-RO0.5000*
21,1,0.0610236220472441,0.0610236220472441,0,0,270*%
%AMRect-W1570000-H1570000-RO1.0000*
21,1,0.061811023622047247,0.061811023622047247,0,0,180*%
%AMCOMP118970*
4,1,3,
-0.030511811023622045,0.030511811023622055,
-0.030511811023622055,-0.030511811023622045,
0.030511811023622045,-0.030511811023622055,
0.030511811023622055,0.030511811023622045,
0*%
%AMCOMP118980*
4,1,3,
0.03090551181102363,0.03090551181102362,
-0.03090551181102362,0.03090551181102363,
-0.03090551181102363,-0.03090551181102362,
0.03090551181102362,-0.03090551181102363,
0*%
%AMCOMP11989*
4,1,3,
-0.030511811023622045,0.030511811023622055,
-0.030511811023622055,-0.030511811023622045,
0.030511811023622045,-0.030511811023622055,
0.030511811023622055,0.030511811023622045,
0*%
%AMCOMP11990*
4,1,3,
0.03090551181102363,0.03090551181102362,
-0.03090551181102362,0.03090551181102363,
-0.03090551181102363,-0.03090551181102362,
0.03090551181102362,-0.03090551181102363,
0*%
%ADD10C,0.042*%
%ADD11R,0.0610236220472441X0.0610236220472441*%
%ADD12C,0.0610236220472441*%
%ADD23C,0.042*%
%ADD24R,0.0610236220472441X0.0610236220472441*%
%ADD25C,0.0610236220472441*%
%ADD26C,0.11811023622047245*%
%ADD27C,0.0610236220472441*%
%AMCOMP11991*
4,1,3,
-0.030511811023622045,0.030511811023622055,
-0.030511811023622055,-0.030511811023622045,
0.030511811023622045,-0.030511811023622055,
0.030511811023622055,0.030511811023622045,
0*%
%ADD28COMP11991*%
%ADD29C,0.061811023622047247*%
%AMCOMP11992*
4,1,3,
0.03090551181102363,0.03090551181102362,
-0.03090551181102362,0.03090551181102363,
-0.03090551181102363,-0.03090551181102362,
0.03090551181102362,-0.03090551181102363,
0*%
%ADD30COMP11992*%
%ADD41C,0.042*%
%ADD42R,0.061811023622047247X0.061811023622047247*%
%ADD43C,0.061811023622047247*%
%ADD44C,0.07874015748031496*%
%ADD45C,0.11811023622047245*%
%ADD46C,0.023622047244094488*%
%ADD57C,0.042*%
%ADD58R,0.0610236220472441X0.0610236220472441*%
%ADD59C,0.0610236220472441*%
%LPD*%
D10*
G01*
X003803Y000000D02*
X002334Y000980D03*
X003216Y001847D03*
X002627Y001164D03*
X002364Y001709D03*
X002935Y001522D03*
X002629Y001522D03*
X002368Y000643D03*
X002948Y000262D03*
X002921Y001709D03*
X002340Y001130D03*
X003194Y000282D03*
X002309Y001841D03*
X002326Y001284D03*
X002627Y000979D03*
X003141Y000793D03*
X002635Y000616D03*
X002637Y000443D03*
X002939Y001164D03*
X002942Y000980D03*
X003143Y001152D03*
X003131Y000616D03*
X002620Y001342D03*
X002647Y001711D03*
X002340Y000461D03*
X002635Y000797D03*
X002645Y000250D03*
X002318Y000260D03*
X003167Y000977D03*
X002946Y000797D03*
X002948Y000628D03*
X002951Y000453D03*
X003145Y001526D03*
X002938Y001342D03*
X002328Y000811D03*
X003149Y000447D03*
X003198Y001689D03*
D11*
X003312Y000529D03*
D12*
X003312Y000629D03*
X003312Y000728D03*
X003312Y000829D03*
X003312Y000929D03*
X003312Y001029D03*
X003312Y001129D03*
X003312Y001229D03*
X003312Y001329D03*
X003312Y001429D03*
D11*
X002187Y000531D03*
D12*
X002187Y000631D03*
X002187Y000731D03*
X002187Y000831D03*
X002187Y000931D03*
X002187Y001031D03*
X002187Y001131D03*
X002187Y001231D03*
X002187Y001330D03*
X002187Y001431D03*
D23*
G01*
X002933Y002933D02*
X002933Y003540D03*
X003033Y003369D03*
X003391Y002393D03*
X003511Y002933D03*
X003391Y002937D03*
X003341Y002475D03*
X002546Y002933D03*
X003486Y003151D03*
X002817Y002361D03*
X003047Y002343D03*
X003561Y003338D03*
X002933Y002393D03*
X002937Y003400D03*
X003457Y002933D03*
X002933Y003490D03*
X003204Y002969D03*
X002933Y002342D03*
X002608Y002933D03*
X002980Y002937D03*
X002496Y002933D03*
D24*
X002633Y002125D03*
D25*
X002733Y002125D03*
X002833Y002125D03*
X002933Y002125D03*
X003033Y002125D03*
X003133Y002125D03*
X003233Y002125D03*
D26*
X002263Y003602D03*
D27*
X002652Y003514D03*
X002551Y003415D03*
X002652Y003415D03*
X002551Y003315D03*
X002652Y003315D03*
X002551Y003215D03*
X002652Y003215D03*
D28*
X002551Y003514D03*
D27*
X002125Y003133D03*
X002125Y003033D03*
X002125Y002933D03*
X002125Y002833D03*
X002125Y002733D03*
X002125Y002633D03*
D28*
X002125Y003233D03*
D26*
X003602Y002263D03*
D29*
X003088Y002486D03*
X002987Y002486D03*
X002888Y002486D03*
X002788Y002486D03*
D30*
X003188Y002486D03*
D26*
X002263Y002263D03*
X003602Y003602D03*
D27*
X003740Y003133D03*
X003740Y003033D03*
X003740Y002933D03*
X003740Y002833D03*
X003740Y002733D03*
X003740Y002633D03*
D28*
X003740Y003233D03*
D24*
X002633Y003740D03*
D25*
X002733Y003740D03*
X002833Y003740D03*
X002933Y003740D03*
X003033Y003740D03*
X003133Y003740D03*
X003233Y003740D03*
G04 next file*
%LPD*%
D41*
G01*
X-000006Y-000003D02*
X001384Y001266D03*
X001320Y000529D03*
X001714Y000622D03*
X000748Y000777D03*
X000892Y000698D03*
X001384Y001522D03*
X001685Y001219D03*
X000531Y000882D03*
X000865Y001127D03*
X000917Y001091D03*
X000992Y001618D03*
X000443Y000443D03*
X000765Y000845D03*
X001107Y000336D03*
X000756Y000513D03*
X000483Y001706D03*
X001155Y000522D03*
X000065Y000987D03*
X001135Y001018D03*
X000968Y001043D03*
X001002Y000561D03*
X000701Y000727D03*
X000643Y001134D03*
X001783Y000466D03*
X001384Y001578D03*
X000190Y000537D03*
X000841Y000075D03*
X001252Y000336D03*
X000932Y000746D03*
X000932Y000698D03*
X000575Y000605D03*
X000998Y001275D03*
X001670Y000350D03*
X001382Y001324D03*
X001447Y001061D03*
X000643Y000406D03*
X000643Y000481D03*
X000478Y000359D03*
X000109Y001718D03*
X001002Y000484D03*
X001186Y000707D03*
X001565Y001008D03*
X001670Y000232D03*
X001533Y001493D03*
X000892Y000746D03*
X000643Y000684D03*
X000912Y001267D03*
X001417Y000281D03*
X001740Y000807D03*
X000910Y001571D03*
X000536Y000194D03*
X001078Y001311D03*
X001484Y000739D03*
X001818Y000553D03*
X001841Y001116D03*
X001565Y000945D03*
X001384Y001650D03*
X001115Y000214D03*
X000038Y000379D03*
X001384Y001390D03*
X000483Y000983D03*
X000376Y000043D03*
X001078Y001101D03*
X000591Y001484D03*
X001740Y001565D03*
X001098Y000522D03*
X001630Y001223D03*
X000961Y000273D03*
X001154Y001455D03*
X000788Y001396D03*
X001662Y000466D03*
X001135Y001178D03*
D42*
X000634Y001699D03*
D43*
X000734Y001699D03*
X000835Y001699D03*
X000935Y001699D03*
D44*
X001304Y001126D03*
D45*
X001804Y000948D03*
D44*
X001408Y000080D03*
D46*
X001586Y000768D03*
X001586Y000709D03*
X001625Y000768D03*
X001625Y000709D03*
X001606Y000739D03*
D45*
X000199Y000822D03*
X000697Y000160D03*
G04 next file*
D57*
G01*
X000000Y001905D02*
X000980Y003374D03*
X001847Y002492D03*
X001164Y003080D03*
X001709Y003344D03*
X001522Y002773D03*
X001522Y003078D03*
X000643Y003340D03*
X000262Y002759D03*
X001709Y002787D03*
X001130Y003368D03*
X000282Y002513D03*
X001841Y003399D03*
X001284Y003381D03*
X000979Y003080D03*
X000793Y002566D03*
X000616Y003072D03*
X000443Y003070D03*
X001164Y002767D03*
X000980Y002765D03*
X001152Y002563D03*
X000616Y002575D03*
X001342Y003088D03*
X001711Y003061D03*
X000461Y003368D03*
X000797Y003072D03*
X000250Y003061D03*
X000260Y003389D03*
X000977Y002541D03*
X000797Y002761D03*
X000628Y002759D03*
X000453Y002755D03*
X001526Y002562D03*
X001342Y002769D03*
X000811Y003379D03*
X000447Y002559D03*
X001689Y002509D03*
D58*
X000529Y002395D03*
D59*
X000629Y002395D03*
X000728Y002395D03*
X000829Y002395D03*
X000929Y002395D03*
X001029Y002395D03*
X001129Y002395D03*
X001229Y002395D03*
X001329Y002395D03*
X001429Y002395D03*
D58*
X000531Y003520D03*
D59*
X000631Y003520D03*
X000731Y003520D03*
X000831Y003520D03*
X000931Y003520D03*
X001031Y003520D03*
X001131Y003520D03*
X001231Y003520D03*
X001330Y003520D03*
X001431Y003520D03*
M02*