%MOIN*%
%OFA0B0*%
%FSLAX44Y44*%
%IPPOS*%
%LPD*%
%ADD10C,0*%
D10*
X00014701Y00017913D02*
X00014701Y00017913D01*
X00009314Y00017913D01*
X00009269Y00017915D01*
X00009225Y00017923D01*
X00009181Y00017936D01*
X00009140Y00017953D01*
X00009101Y00017975D01*
X00009065Y00018002D01*
X00009031Y00018032D01*
X00009002Y00018066D01*
X00008977Y00018103D01*
X00008956Y00018143D01*
X00008939Y00018185D01*
X00008928Y00018229D01*
X00008922Y00018273D01*
X00008920Y00018318D01*
X00008924Y00018363D01*
X00008933Y00018407D01*
X00008947Y00018450D01*
X00008966Y00018491D01*
X00008989Y00018529D01*
X00009016Y00018565D01*
X00009432Y00019044D01*
X00009446Y00019059D01*
X00009461Y00019074D01*
X00009477Y00019088D01*
X00009493Y00019101D01*
X00009510Y00019113D01*
X00009528Y00019124D01*
X00009546Y00019134D01*
X00009565Y00019143D01*
X00009584Y00019152D01*
X00009604Y00019159D01*
X00009624Y00019165D01*
X00009644Y00019170D01*
X00009664Y00019174D01*
X00009685Y00019177D01*
X00009706Y00019179D01*
X00009727Y00019180D01*
X00009748Y00019179D01*
X00009768Y00019178D01*
X00009789Y00019175D01*
X00009810Y00019171D01*
X00009812Y00019171D01*
X00009975Y00019139D01*
X00010139Y00019108D01*
X00010302Y00019078D01*
X00010466Y00019050D01*
X00010631Y00019024D01*
X00010795Y00018999D01*
X00010960Y00018976D01*
X00011125Y00018954D01*
X00011290Y00018933D01*
X00011455Y00018915D01*
X00011621Y00018897D01*
X00011786Y00018918D01*
X00011952Y00018940D01*
X00012117Y00018962D01*
X00012282Y00018985D01*
X00012448Y00019008D01*
X00012613Y00019032D01*
X00012778Y00019057D01*
X00012943Y00019082D01*
X00013107Y00019108D01*
X00013272Y00019134D01*
X00013437Y00019162D01*
X00013601Y00019189D01*
X00013766Y00019218D01*
X00013930Y00019247D01*
X00014094Y00019276D01*
X00014245Y00019304D01*
X00014268Y00019308D01*
X00014292Y00019310D01*
X00014315Y00019311D01*
X00014338Y00019310D01*
X00014362Y00019308D01*
X00014385Y00019305D01*
X00014408Y00019300D01*
X00014430Y00019294D01*
X00014453Y00019286D01*
X00014474Y00019277D01*
X00014496Y00019267D01*
X00014516Y00019256D01*
X00014536Y00019244D01*
X00014555Y00019230D01*
X00014573Y00019215D01*
X00014591Y00019199D01*
X00014607Y00019183D01*
X00014622Y00019165D01*
X00014636Y00019146D01*
X00014649Y00019127D01*
X00015034Y00018516D01*
X00015054Y00018480D01*
X00015071Y00018441D01*
X00015083Y00018401D01*
X00015091Y00018360D01*
X00015094Y00018318D01*
X00015093Y00018276D01*
X00015088Y00018234D01*
X00015078Y00018194D01*
X00015064Y00018154D01*
X00015046Y00018116D01*
X00015023Y00018081D01*
X00014998Y00018048D01*
X00014968Y00018018D01*
X00014936Y00017991D01*
X00014901Y00017968D01*
X00014864Y00017948D01*
X00014825Y00017933D01*
X00014784Y00017922D01*
X00014743Y00017915D01*
X00014701Y00017913D01*
X00022927Y00020472D02*
X00022927Y00020472D01*
X00031563Y00020472D01*
X00031582Y00020471D01*
X00031601Y00020470D01*
X00031619Y00020468D01*
X00031638Y00020465D01*
X00031656Y00020461D01*
X00031674Y00020456D01*
X00031692Y00020450D01*
X00031710Y00020444D01*
X00031727Y00020436D01*
X00031744Y00020428D01*
X00031761Y00020419D01*
X00031777Y00020409D01*
X00031792Y00020398D01*
X00031807Y00020387D01*
X00031822Y00020375D01*
X00031836Y00020362D01*
X00031849Y00020349D01*
X00031862Y00020335D01*
X00031873Y00020320D01*
X00031885Y00020305D01*
X00032140Y00019944D01*
X00032164Y00019905D01*
X00032184Y00019864D01*
X00032198Y00019821D01*
X00032208Y00019776D01*
X00032212Y00019731D01*
X00032211Y00019685D01*
X00032204Y00019640D01*
X00032193Y00019596D01*
X00032176Y00019553D01*
X00032155Y00019513D01*
X00032129Y00019475D01*
X00032099Y00019441D01*
X00032065Y00019410D01*
X00032028Y00019384D01*
X00031988Y00019362D01*
X00031946Y00019344D01*
X00031902Y00019332D01*
X00031857Y00019325D01*
X00031811Y00019323D01*
X00031765Y00019327D01*
X00031679Y00019339D01*
X00031514Y00019360D01*
X00031348Y00019380D01*
X00031183Y00019400D01*
X00031017Y00019419D01*
X00030852Y00019436D01*
X00030686Y00019453D01*
X00030520Y00019469D01*
X00030354Y00019483D01*
X00030188Y00019497D01*
X00030022Y00019510D01*
X00029856Y00019522D01*
X00029689Y00019533D01*
X00029523Y00019543D01*
X00029357Y00019552D01*
X00029190Y00019560D01*
X00029024Y00019567D01*
X00028857Y00019573D01*
X00028691Y00019578D01*
X00028524Y00019583D01*
X00028358Y00019586D01*
X00028191Y00019588D01*
X00028025Y00019590D01*
X00027858Y00019590D01*
X00027691Y00019590D01*
X00027525Y00019588D01*
X00027358Y00019586D01*
X00027192Y00019582D01*
X00027025Y00019578D01*
X00026859Y00019572D01*
X00026692Y00019566D01*
X00026526Y00019559D01*
X00026359Y00019551D01*
X00026193Y00019542D01*
X00026027Y00019531D01*
X00025860Y00019520D01*
X00025694Y00019508D01*
X00025528Y00019495D01*
X00025362Y00019481D01*
X00025196Y00019466D01*
X00025030Y00019451D01*
X00024865Y00019434D01*
X00024699Y00019416D01*
X00024533Y00019397D01*
X00024368Y00019378D01*
X00024203Y00019357D01*
X00024037Y00019335D01*
X00023872Y00019313D01*
X00023707Y00019289D01*
X00023543Y00019265D01*
X00023378Y00019240D01*
X00023213Y00019213D01*
X00023123Y00019198D01*
X00023094Y00019195D01*
X00023065Y00019193D01*
X00023036Y00019194D01*
X00023008Y00019196D01*
X00022979Y00019201D01*
X00022951Y00019208D01*
X00022923Y00019217D01*
X00022896Y00019228D01*
X00022870Y00019241D01*
X00022845Y00019256D01*
X00022822Y00019272D01*
X00022799Y00019291D01*
X00022778Y00019311D01*
X00022759Y00019332D01*
X00022741Y00019355D01*
X00022724Y00019379D01*
X00022710Y00019404D01*
X00022697Y00019430D01*
X00022687Y00019457D01*
X00022678Y00019485D01*
X00022547Y00019976D01*
X00022539Y00020012D01*
X00022535Y00020047D01*
X00022533Y00020083D01*
X00022536Y00020119D01*
X00022541Y00020155D01*
X00022550Y00020190D01*
X00022561Y00020224D01*
X00022576Y00020257D01*
X00022594Y00020288D01*
X00022615Y00020318D01*
X00022638Y00020346D01*
X00022664Y00020371D01*
X00022692Y00020394D01*
X00022721Y00020414D01*
X00022753Y00020431D01*
X00022786Y00020446D01*
X00022820Y00020457D01*
X00022855Y00020465D01*
X00022891Y00020470D01*
X00022927Y00020472D01*
X00019616Y00014147D02*
X00019616Y00014147D01*
X00019618Y00014188D01*
X00019624Y00014228D01*
X00019635Y00014268D01*
X00019649Y00014306D01*
X00019668Y00014343D01*
X00019690Y00014377D01*
X00019716Y00014409D01*
X00019745Y00014438D01*
X00019777Y00014464D01*
X00019811Y00014487D01*
X00019848Y00014506D01*
X00019886Y00014520D01*
X00019925Y00014531D01*
X00019966Y00014538D01*
X00020007Y00014540D01*
X00020048Y00014538D01*
X00020089Y00014532D01*
X00020128Y00014522D01*
X00020167Y00014508D01*
X00020203Y00014489D01*
X00020650Y00014236D01*
X00020670Y00014224D01*
X00020689Y00014211D01*
X00020708Y00014196D01*
X00020725Y00014181D01*
X00020742Y00014164D01*
X00020758Y00014147D01*
X00020772Y00014128D01*
X00020786Y00014109D01*
X00020798Y00014089D01*
X00020809Y00014068D01*
X00020819Y00014047D01*
X00020827Y00014025D01*
X00020834Y00014003D01*
X00020840Y00013980D01*
X00020844Y00013957D01*
X00020848Y00013933D01*
X00020849Y00013910D01*
X00020849Y00013887D01*
X00020848Y00013863D01*
X00020846Y00013840D01*
X00020824Y00013682D01*
X00020802Y00013517D01*
X00020781Y00013353D01*
X00020762Y00013188D01*
X00020743Y00013023D01*
X00020725Y00012859D01*
X00020708Y00012694D01*
X00020692Y00012529D01*
X00020677Y00012363D01*
X00020662Y00012198D01*
X00020649Y00012033D01*
X00020637Y00011868D01*
X00020626Y00011702D01*
X00020615Y00011537D01*
X00020606Y00011371D01*
X00020597Y00011205D01*
X00020590Y00011040D01*
X00020583Y00010874D01*
X00020578Y00010708D01*
X00020573Y00010543D01*
X00020569Y00010377D01*
X00020567Y00010211D01*
X00020565Y00010045D01*
X00020564Y00009879D01*
X00020564Y00009714D01*
X00020565Y00009548D01*
X00020567Y00009382D01*
X00020570Y00009216D01*
X00020574Y00009050D01*
X00020579Y00008885D01*
X00020585Y00008719D01*
X00020592Y00008553D01*
X00020600Y00008387D01*
X00020608Y00008222D01*
X00020618Y00008056D01*
X00020629Y00007891D01*
X00020640Y00007725D01*
X00020653Y00007560D01*
X00020666Y00007395D01*
X00020681Y00007230D01*
X00020696Y00007064D01*
X00020712Y00006899D01*
X00020730Y00006735D01*
X00020748Y00006570D01*
X00020759Y00006477D01*
X00020761Y00006435D01*
X00020759Y00006393D01*
X00020753Y00006352D01*
X00020743Y00006312D01*
X00020728Y00006273D01*
X00020709Y00006235D01*
X00020686Y00006200D01*
X00020660Y00006168D01*
X00020631Y00006138D01*
X00020598Y00006112D01*
X00020563Y00006089D01*
X00020526Y00006071D01*
X00020487Y00006056D01*
X00020446Y00006045D01*
X00020405Y00006039D01*
X00020363Y00006038D01*
X00020321Y00006040D01*
X00020280Y00006047D01*
X00020240Y00006059D01*
X00020201Y00006074D01*
X00019843Y00006241D01*
X00019823Y00006251D01*
X00019804Y00006262D01*
X00019785Y00006274D01*
X00019767Y00006288D01*
X00019750Y00006302D01*
X00019733Y00006317D01*
X00019718Y00006333D01*
X00019703Y00006350D01*
X00019690Y00006368D01*
X00019677Y00006386D01*
X00019666Y00006406D01*
X00019656Y00006425D01*
X00019646Y00006446D01*
X00019638Y00006467D01*
X00019631Y00006488D01*
X00019626Y00006509D01*
X00019621Y00006531D01*
X00019618Y00006553D01*
X00019616Y00006576D01*
X00019616Y00006598D01*
X00019616Y00014147D01*
X00021316Y00020612D02*
X00021316Y00020612D01*
X00021323Y00020605D01*
X00021329Y00020598D01*
X00021336Y00020591D01*
X00021342Y00020583D01*
X00021349Y00020575D01*
X00021355Y00020567D01*
X00021360Y00020559D01*
X00021366Y00020551D01*
X00021371Y00020543D01*
X00021376Y00020534D01*
X00021381Y00020526D01*
X00021386Y00020517D01*
X00021391Y00020508D01*
X00021395Y00020499D01*
X00021399Y00020490D01*
X00021403Y00020481D01*
X00021406Y00020472D01*
X00021410Y00020462D01*
X00021413Y00020453D01*
X00021416Y00020443D01*
X00021909Y00018739D01*
X00021912Y00018728D01*
X00021915Y00018717D01*
X00021917Y00018706D01*
X00021919Y00018694D01*
X00021921Y00018683D01*
X00021922Y00018671D01*
X00021923Y00018660D01*
X00021924Y00018648D01*
X00021924Y00018637D01*
X00021924Y00018625D01*
X00021924Y00018614D01*
X00021923Y00018602D01*
X00021922Y00018591D01*
X00021921Y00018579D01*
X00021920Y00018568D01*
X00021918Y00018557D01*
X00021915Y00018545D01*
X00021913Y00018534D01*
X00021910Y00018523D01*
X00021906Y00018512D01*
X00021862Y00018372D01*
X00021814Y00018213D01*
X00021766Y00018054D01*
X00021719Y00017895D01*
X00021673Y00017736D01*
X00021628Y00017576D01*
X00021583Y00017416D01*
X00021540Y00017256D01*
X00021498Y00017096D01*
X00021456Y00016936D01*
X00021416Y00016775D01*
X00021376Y00016614D01*
X00021338Y00016452D01*
X00021300Y00016291D01*
X00021263Y00016129D01*
X00021227Y00015967D01*
X00021209Y00015883D01*
X00021204Y00015861D01*
X00021197Y00015840D01*
X00021190Y00015819D01*
X00021181Y00015799D01*
X00021171Y00015779D01*
X00021160Y00015760D01*
X00021148Y00015741D01*
X00021135Y00015723D01*
X00021121Y00015706D01*
X00021105Y00015690D01*
X00021089Y00015675D01*
X00021073Y00015660D01*
X00021055Y00015647D01*
X00021037Y00015634D01*
X00021018Y00015623D01*
X00020998Y00015612D01*
X00020978Y00015603D01*
X00020957Y00015595D01*
X00020936Y00015588D01*
X00020915Y00015583D01*
X00020100Y00015390D01*
X00020065Y00015384D01*
X00020030Y00015380D01*
X00019994Y00015380D01*
X00019959Y00015383D01*
X00019924Y00015389D01*
X00019890Y00015399D01*
X00019856Y00015411D01*
X00019824Y00015426D01*
X00019794Y00015444D01*
X00019765Y00015465D01*
X00019738Y00015488D01*
X00019714Y00015514D01*
X00019691Y00015541D01*
X00019672Y00015571D01*
X00019655Y00015602D01*
X00019641Y00015635D01*
X00019630Y00015668D01*
X00019622Y00015703D01*
X00019617Y00015738D01*
X00019616Y00015774D01*
X00019616Y00017913D01*
X00016007Y00017913D01*
X00015970Y00017915D01*
X00015934Y00017920D01*
X00015899Y00017928D01*
X00015865Y00017939D01*
X00015831Y00017954D01*
X00015800Y00017972D01*
X00015770Y00017992D01*
X00015742Y00018015D01*
X00015716Y00018041D01*
X00015693Y00018069D01*
X00015672Y00018099D01*
X00015655Y00018130D01*
X00015640Y00018164D01*
X00015628Y00018198D01*
X00015620Y00018233D01*
X00015615Y00018269D01*
X00015613Y00018306D01*
X00015615Y00018342D01*
X00015620Y00018378D01*
X00015628Y00018413D01*
X00015916Y00019438D01*
X00015922Y00019458D01*
X00015930Y00019478D01*
X00015938Y00019497D01*
X00015947Y00019516D01*
X00015958Y00019534D01*
X00015969Y00019552D01*
X00015981Y00019569D01*
X00015994Y00019585D01*
X00016008Y00019601D01*
X00016023Y00019616D01*
X00016039Y00019630D01*
X00016055Y00019643D01*
X00016072Y00019656D01*
X00016090Y00019667D01*
X00016108Y00019678D01*
X00016127Y00019687D01*
X00016146Y00019696D01*
X00016166Y00019703D01*
X00016186Y00019709D01*
X00016206Y00019715D01*
X00016217Y00019717D01*
X00016380Y00019755D01*
X00016542Y00019794D01*
X00016704Y00019834D01*
X00016866Y00019874D01*
X00017028Y00019914D01*
X00017190Y00019956D01*
X00017351Y00019998D01*
X00017512Y00020040D01*
X00017674Y00020083D01*
X00017835Y00020127D01*
X00017995Y00020171D01*
X00018156Y00020216D01*
X00018207Y00020375D01*
X00018258Y00020533D01*
X00018307Y00020692D01*
X00018356Y00020852D01*
X00018404Y00021011D01*
X00018450Y00021171D01*
X00018496Y00021332D01*
X00018541Y00021492D01*
X00018585Y00021653D01*
X00018627Y00021811D01*
X00011680Y00021811D01*
X00011680Y00022440D01*
X00018786Y00022440D01*
X00018752Y00022298D01*
X00018711Y00022136D01*
X00018670Y00021975D01*
X00018628Y00021814D01*
X00018627Y00021811D01*
X00019160Y00021811D01*
X00019160Y00022440D01*
X00018786Y00022440D01*
X00018791Y00022460D01*
X00018829Y00022622D01*
X00018867Y00022784D01*
X00018903Y00022947D01*
X00018937Y00023101D01*
X00018937Y00023101D01*
X00018943Y00023124D01*
X00018950Y00023146D01*
X00018958Y00023168D01*
X00018968Y00023190D01*
X00018979Y00023211D01*
X00018991Y00023231D01*
X00019005Y00023250D01*
X00019019Y00023269D01*
X00019035Y00023287D01*
X00019052Y00023303D01*
X00019070Y00023319D01*
X00019088Y00023333D01*
X00019108Y00023347D01*
X00019128Y00023359D01*
X00019149Y00023370D01*
X00019170Y00023380D01*
X00019192Y00023388D01*
X00019215Y00023395D01*
X00019238Y00023401D01*
X00019261Y00023406D01*
X00020017Y00023524D01*
X00020051Y00023528D01*
X00020085Y00023529D01*
X00020119Y00023526D01*
X00020153Y00023522D01*
X00020186Y00023514D01*
X00020218Y00023503D01*
X00020249Y00023490D01*
X00020279Y00023474D01*
X00020307Y00023455D01*
X00020334Y00023434D01*
X00020359Y00023411D01*
X00020382Y00023386D01*
X00020402Y00023359D01*
X00020420Y00023330D01*
X00020436Y00023300D01*
X00020449Y00023268D01*
X00020459Y00023236D01*
X00020466Y00023203D01*
X00020470Y00023169D01*
X00020472Y00023135D01*
X00020472Y00021456D01*
X00021316Y00020612D01*
X00007796Y00019701D02*
X00007796Y00019701D01*
X00007813Y00019695D01*
X00007830Y00019688D01*
X00007847Y00019680D01*
X00007864Y00019672D01*
X00007880Y00019663D01*
X00007895Y00019653D01*
X00007910Y00019642D01*
X00007925Y00019630D01*
X00007939Y00019618D01*
X00007952Y00019605D01*
X00007965Y00019592D01*
X00007977Y00019578D01*
X00007989Y00019564D01*
X00008000Y00019548D01*
X00008010Y00019533D01*
X00008019Y00019517D01*
X00008027Y00019501D01*
X00008035Y00019484D01*
X00008042Y00019467D01*
X00008048Y00019449D01*
X00008382Y00018429D01*
X00008392Y00018393D01*
X00008399Y00018357D01*
X00008402Y00018320D01*
X00008401Y00018283D01*
X00008397Y00018246D01*
X00008390Y00018209D01*
X00008379Y00018174D01*
X00008364Y00018139D01*
X00008347Y00018107D01*
X00008327Y00018076D01*
X00008304Y00018047D01*
X00008278Y00018020D01*
X00008250Y00017996D01*
X00008219Y00017974D01*
X00008187Y00017956D01*
X00008153Y00017941D01*
X00008118Y00017929D01*
X00008082Y00017920D01*
X00008045Y00017915D01*
X00008008Y00017913D01*
X00005836Y00017913D01*
X00005836Y00017519D01*
X00004655Y00017519D01*
X00004655Y00017913D01*
X00000000Y00017913D01*
X00000000Y00003267D01*
X00003238Y00000000D01*
X00004655Y00000000D01*
X00004655Y00000354D01*
X00005836Y00000354D01*
X00005836Y00000000D01*
X00019616Y00000000D01*
X00019616Y00004425D01*
X00019616Y00004447D01*
X00019618Y00004469D01*
X00019621Y00004491D01*
X00019626Y00004513D01*
X00019631Y00004534D01*
X00019638Y00004555D01*
X00019646Y00004576D01*
X00019655Y00004596D01*
X00019665Y00004616D01*
X00019677Y00004635D01*
X00019689Y00004653D01*
X00019702Y00004671D01*
X00019717Y00004688D01*
X00019732Y00004704D01*
X00019748Y00004719D01*
X00019765Y00004733D01*
X00019783Y00004747D01*
X00019801Y00004759D01*
X00019821Y00004770D01*
X00019840Y00004780D01*
X00020451Y00005070D01*
X00020484Y00005084D01*
X00020519Y00005095D01*
X00020554Y00005103D01*
X00020590Y00005107D01*
X00020627Y00005108D01*
X00020663Y00005106D01*
X00020698Y00005100D01*
X00020734Y00005092D01*
X00020768Y00005080D01*
X00020801Y00005064D01*
X00020832Y00005046D01*
X00020862Y00005025D01*
X00020889Y00005002D01*
X00020914Y00004976D01*
X00020937Y00004948D01*
X00020957Y00004918D01*
X00020974Y00004886D01*
X00020989Y00004852D01*
X00021000Y00004818D01*
X00021008Y00004783D01*
X00021011Y00004765D01*
X00021040Y00004602D01*
X00021071Y00004439D01*
X00021102Y00004276D01*
X00021135Y00004113D01*
X00021168Y00003951D01*
X00021202Y00003789D01*
X00021237Y00003627D01*
X00021273Y00003465D01*
X00021311Y00003303D01*
X00021348Y00003142D01*
X00021387Y00002980D01*
X00021427Y00002820D01*
X00021468Y00002659D01*
X00021510Y00002498D01*
X00021552Y00002338D01*
X00021596Y00002178D01*
X00021640Y00002018D01*
X00021685Y00001859D01*
X00021732Y00001699D01*
X00022874Y00000400D01*
X00022874Y00000400D01*
X00023036Y00000367D01*
X00023198Y00000335D01*
X00023361Y00000304D01*
X00023524Y00000275D01*
X00023687Y00000247D01*
X00023851Y00000221D01*
X00024015Y00000196D01*
X00024179Y00000172D01*
X00024343Y00000150D01*
X00024507Y00000130D01*
X00024672Y00000111D01*
X00024837Y00000094D01*
X00025001Y00000078D01*
X00025166Y00000063D01*
X00025332Y00000050D01*
X00025497Y00000039D01*
X00025662Y00000029D01*
X00025828Y00000020D01*
X00025993Y00000013D01*
X00026159Y00000007D01*
X00026324Y00000003D01*
X00026490Y00000001D01*
X00026656Y00000000D01*
X00026821Y00000000D01*
X00026987Y00000002D01*
X00027152Y00000005D01*
X00027318Y00000010D01*
X00027484Y00000016D01*
X00027649Y00000024D01*
X00027814Y00000033D01*
X00027980Y00000044D01*
X00028145Y00000056D01*
X00028310Y00000070D01*
X00028475Y00000085D01*
X00028640Y00000102D01*
X00028804Y00000120D01*
X00028969Y00000140D01*
X00029133Y00000161D01*
X00029297Y00000183D01*
X00029461Y00000207D01*
X00029625Y00000233D01*
X00029788Y00000260D01*
X00029951Y00000289D01*
X00030114Y00000318D01*
X00030277Y00000350D01*
X00030439Y00000383D01*
X00030601Y00000417D01*
X00030763Y00000453D01*
X00030925Y00000490D01*
X00031086Y00000529D01*
X00031246Y00000569D01*
X00031407Y00000610D01*
X00031567Y00000653D01*
X00031726Y00000698D01*
X00031886Y00000744D01*
X00032044Y00000791D01*
X00032203Y00000840D01*
X00032360Y00000890D01*
X00032518Y00000941D01*
X00032675Y00000994D01*
X00032831Y00001049D01*
X00032987Y00001104D01*
X00033143Y00001162D01*
X00033298Y00001220D01*
X00033452Y00001280D01*
X00033606Y00001341D01*
X00033759Y00001404D01*
X00033759Y00001404D01*
X00033868Y00001530D01*
X00033976Y00001657D01*
X00034083Y00001785D01*
X00034188Y00001913D01*
X00034292Y00002043D01*
X00034395Y00002174D01*
X00034497Y00002305D01*
X00034598Y00002438D01*
X00034697Y00002571D01*
X00034795Y00002705D01*
X00034892Y00002841D01*
X00034988Y00002977D01*
X00035083Y00003114D01*
X00035176Y00003251D01*
X00035268Y00003390D01*
X00035359Y00003529D01*
X00035448Y00003670D01*
X00035537Y00003811D01*
X00035624Y00003953D01*
X00035709Y00004095D01*
X00035794Y00004239D01*
X00035877Y00004383D01*
X00035958Y00004528D01*
X00036039Y00004673D01*
X00036118Y00004820D01*
X00036196Y00004967D01*
X00036272Y00005115D01*
X00036347Y00005263D01*
X00036421Y00005412D01*
X00036493Y00005562D01*
X00036564Y00005713D01*
X00036634Y00005864D01*
X00036702Y00006015D01*
X00036769Y00006168D01*
X00036834Y00006321D01*
X00036899Y00006474D01*
X00036961Y00006628D01*
X00037023Y00006783D01*
X00037082Y00006938D01*
X00037141Y00007094D01*
X00037198Y00007250D01*
X00037254Y00007407D01*
X00037308Y00007565D01*
X00037361Y00007722D01*
X00037412Y00007881D01*
X00037462Y00008039D01*
X00037510Y00008198D01*
X00037557Y00008358D01*
X00037603Y00008518D01*
X00037647Y00008679D01*
X00037690Y00008839D01*
X00037731Y00009001D01*
X00037771Y00009162D01*
X00037809Y00009324D01*
X00037846Y00009486D01*
X00037881Y00009649D01*
X00037915Y00009812D01*
X00037947Y00009975D01*
X00037978Y00010139D01*
X00038007Y00010302D01*
X00038035Y00010466D01*
X00038062Y00010631D01*
X00038086Y00010795D01*
X00038110Y00010960D01*
X00038132Y00011125D01*
X00038152Y00011290D01*
X00038171Y00011455D01*
X00038188Y00011621D01*
X00038168Y00011786D01*
X00038146Y00011952D01*
X00038124Y00012117D01*
X00038101Y00012282D01*
X00038078Y00012448D01*
X00038054Y00012613D01*
X00038029Y00012778D01*
X00038004Y00012943D01*
X00037978Y00013107D01*
X00037951Y00013272D01*
X00037924Y00013437D01*
X00037896Y00013601D01*
X00037868Y00013766D01*
X00037839Y00013930D01*
X00037809Y00014094D01*
X00037779Y00014258D01*
X00037748Y00014422D01*
X00037717Y00014586D01*
X00037685Y00014750D01*
X00037652Y00014913D01*
X00037619Y00015077D01*
X00037585Y00015240D01*
X00037550Y00015403D01*
X00037515Y00015566D01*
X00037479Y00015729D01*
X00037443Y00015892D01*
X00037406Y00016055D01*
X00037368Y00016217D01*
X00037330Y00016380D01*
X00037291Y00016542D01*
X00037252Y00016704D01*
X00037212Y00016866D01*
X00037171Y00017028D01*
X00037130Y00017190D01*
X00037088Y00017351D01*
X00037046Y00017512D01*
X00037002Y00017674D01*
X00036959Y00017835D01*
X00036914Y00017995D01*
X00036870Y00018156D01*
X00036711Y00018207D01*
X00036552Y00018258D01*
X00036393Y00018307D01*
X00036234Y00018356D01*
X00036074Y00018404D01*
X00035914Y00018450D01*
X00035754Y00018496D01*
X00035594Y00018541D01*
X00035433Y00018585D01*
X00035275Y00018627D01*
X00035275Y00011680D01*
X00034645Y00011680D01*
X00034645Y00018786D01*
X00034788Y00018752D01*
X00034949Y00018711D01*
X00035111Y00018670D01*
X00035272Y00018628D01*
X00035275Y00018627D01*
X00035275Y00019160D01*
X00034645Y00019160D01*
X00034645Y00018786D01*
X00034626Y00018791D01*
X00034464Y00018829D01*
X00034301Y00018867D01*
X00034139Y00018903D01*
X00033976Y00018939D01*
X00033813Y00018974D01*
X00033650Y00019007D01*
X00033487Y00019040D01*
X00033323Y00019072D01*
X00033302Y00019076D01*
X00033264Y00019085D01*
X00033227Y00019098D01*
X00033192Y00019114D01*
X00033158Y00019134D01*
X00033127Y00019157D01*
X00033098Y00019183D01*
X00033072Y00019212D01*
X00033048Y00019243D01*
X00033028Y00019276D01*
X00033011Y00019311D01*
X00032998Y00019348D01*
X00032989Y00019386D01*
X00032983Y00019424D01*
X00032981Y00019463D01*
X00032983Y00019502D01*
X00032989Y00019541D01*
X00032998Y00019578D01*
X00033012Y00019615D01*
X00033028Y00019650D01*
X00033048Y00019683D01*
X00033464Y00020299D01*
X00033475Y00020314D01*
X00033487Y00020329D01*
X00033500Y00020344D01*
X00033513Y00020358D01*
X00033527Y00020371D01*
X00033541Y00020383D01*
X00033557Y00020395D01*
X00033572Y00020406D01*
X00033589Y00020416D01*
X00033605Y00020426D01*
X00033623Y00020435D01*
X00033640Y00020442D01*
X00033658Y00020449D01*
X00033676Y00020455D01*
X00033695Y00020460D01*
X00033714Y00020464D01*
X00033733Y00020468D01*
X00033752Y00020470D01*
X00033771Y00020471D01*
X00033790Y00020472D01*
X00037204Y00020472D01*
X00038188Y00021456D01*
X00038188Y00037204D01*
X00037204Y00038188D01*
X00021456Y00038188D01*
X00020472Y00037204D01*
X00020472Y00035132D01*
X00020470Y00035096D01*
X00020465Y00035060D01*
X00020457Y00035024D01*
X00020445Y00034990D01*
X00020431Y00034956D01*
X00020413Y00034925D01*
X00020393Y00034895D01*
X00020369Y00034867D01*
X00020344Y00034841D01*
X00020316Y00034818D01*
X00020286Y00034797D01*
X00020254Y00034780D01*
X00020221Y00034765D01*
X00020186Y00034753D01*
X00020151Y00034745D01*
X00020115Y00034740D01*
X00020079Y00034738D01*
X00020042Y00034740D01*
X00020006Y00034745D01*
X00019971Y00034753D01*
X00018852Y00035070D01*
X00018851Y00035070D01*
X00018851Y00035070D01*
X00018850Y00035070D01*
X00018849Y00035071D01*
X00018848Y00035071D01*
X00018848Y00035071D01*
X00018847Y00035071D01*
X00018846Y00035071D01*
X00018845Y00035072D01*
X00018845Y00035072D01*
X00018844Y00035072D01*
X00018843Y00035072D01*
X00018842Y00035073D01*
X00018842Y00035073D01*
X00018841Y00035073D01*
X00018840Y00035073D01*
X00018839Y00035074D01*
X00018839Y00035074D01*
X00018838Y00035074D01*
X00018837Y00035074D01*
X00018688Y00035123D01*
X00018530Y00035174D01*
X00018372Y00035223D01*
X00018213Y00035272D01*
X00018054Y00035320D01*
X00017895Y00035367D01*
X00017736Y00035413D01*
X00017576Y00035458D01*
X00017416Y00035502D01*
X00017256Y00035545D01*
X00017096Y00035588D01*
X00016936Y00035629D01*
X00016775Y00035670D01*
X00016614Y00035709D01*
X00016452Y00035748D01*
X00016291Y00035786D01*
X00016129Y00035822D01*
X00015967Y00035858D01*
X00015805Y00035893D01*
X00015643Y00035927D01*
X00015480Y00035960D01*
X00015318Y00035992D01*
X00015155Y00036023D01*
X00014992Y00036054D01*
X00014829Y00036083D01*
X00014665Y00036111D01*
X00014502Y00036139D01*
X00014338Y00036165D01*
X00014174Y00036191D01*
X00014010Y00036215D01*
X00013846Y00036239D01*
X00013682Y00036262D01*
X00013517Y00036283D01*
X00013353Y00036304D01*
X00013188Y00036324D01*
X00013023Y00036343D01*
X00012859Y00036361D01*
X00012694Y00036378D01*
X00012529Y00036394D01*
X00012363Y00036409D01*
X00012198Y00036423D01*
X00012033Y00036436D01*
X00011868Y00036449D01*
X00011702Y00036460D01*
X00011537Y00036470D01*
X00011371Y00036480D01*
X00011205Y00036488D01*
X00011040Y00036496D01*
X00010874Y00036502D01*
X00010708Y00036508D01*
X00010543Y00036513D01*
X00010377Y00036516D01*
X00010211Y00036519D01*
X00010045Y00036521D01*
X00009879Y00036522D01*
X00009714Y00036521D01*
X00009548Y00036520D01*
X00009382Y00036518D01*
X00009216Y00036515D01*
X00009050Y00036511D01*
X00008885Y00036506D01*
X00008719Y00036501D01*
X00008553Y00036494D01*
X00008387Y00036486D01*
X00008222Y00036477D01*
X00008056Y00036468D01*
X00007891Y00036457D01*
X00007725Y00036445D01*
X00007560Y00036433D01*
X00007395Y00036419D01*
X00007230Y00036405D01*
X00007064Y00036390D01*
X00006899Y00036373D01*
X00006735Y00036356D01*
X00006570Y00036338D01*
X00006405Y00036319D01*
X00006240Y00036298D01*
X00006076Y00036277D01*
X00005912Y00036255D01*
X00005747Y00036232D01*
X00005583Y00036209D01*
X00005419Y00036184D01*
X00005255Y00036158D01*
X00005092Y00036131D01*
X00004928Y00036103D01*
X00004765Y00036075D01*
X00004602Y00036045D01*
X00004439Y00036015D01*
X00004276Y00035983D01*
X00004113Y00035951D01*
X00003951Y00035918D01*
X00003789Y00035883D01*
X00003627Y00035848D01*
X00003465Y00035812D01*
X00003303Y00035775D01*
X00003142Y00035737D01*
X00002980Y00035698D01*
X00002820Y00035658D01*
X00002659Y00035618D01*
X00002498Y00035576D01*
X00002338Y00035533D01*
X00002178Y00035490D01*
X00002018Y00035445D01*
X00001859Y00035400D01*
X00001699Y00035354D01*
X00000400Y00034212D01*
X00000400Y00034212D01*
X00000367Y00034050D01*
X00000335Y00033887D01*
X00000304Y00033725D01*
X00000275Y00033562D01*
X00000247Y00033398D01*
X00000221Y00033235D01*
X00000196Y00033071D01*
X00000172Y00032907D01*
X00000150Y00032743D01*
X00000130Y00032578D01*
X00000111Y00032414D01*
X00000094Y00032249D01*
X00000078Y00032084D01*
X00000063Y00031919D01*
X00000050Y00031754D01*
X00000039Y00031589D01*
X00000029Y00031423D01*
X00000020Y00031258D01*
X00000013Y00031092D01*
X00000007Y00030927D01*
X00000003Y00030761D01*
X00000001Y00030596D01*
X00000000Y00030430D01*
X00000000Y00030264D01*
X00000002Y00030099D01*
X00000005Y00029933D01*
X00000010Y00029768D01*
X00000016Y00029602D01*
X00000024Y00029437D01*
X00000033Y00029271D01*
X00000044Y00029106D01*
X00000056Y00028941D01*
X00000070Y00028776D01*
X00000085Y00028611D01*
X00000102Y00028446D01*
X00000120Y00028281D01*
X00000140Y00028117D01*
X00000161Y00027952D01*
X00000183Y00027788D01*
X00000207Y00027624D01*
X00000233Y00027461D01*
X00000260Y00027297D01*
X00000289Y00027134D01*
X00000318Y00026971D01*
X00000350Y00026809D01*
X00000383Y00026646D01*
X00000417Y00026484D01*
X00000453Y00026322D01*
X00000490Y00026161D01*
X00000529Y00026000D01*
X00000569Y00025839D01*
X00000610Y00025679D01*
X00000653Y00025519D01*
X00000698Y00025359D01*
X00000744Y00025200D01*
X00000791Y00025041D01*
X00000840Y00024883D01*
X00000890Y00024725D01*
X00000941Y00024568D01*
X00000994Y00024411D01*
X00001049Y00024254D01*
X00001104Y00024098D01*
X00001162Y00023943D01*
X00001220Y00023788D01*
X00001280Y00023633D01*
X00001341Y00023480D01*
X00001404Y00023326D01*
X00001404Y00023326D01*
X00001530Y00023217D01*
X00001657Y00023110D01*
X00001785Y00023003D01*
X00001913Y00022898D01*
X00002043Y00022793D01*
X00002174Y00022690D01*
X00002305Y00022589D01*
X00002438Y00022488D01*
X00002571Y00022388D01*
X00002705Y00022290D01*
X00002841Y00022193D01*
X00002977Y00022097D01*
X00003114Y00022003D01*
X00003251Y00021910D01*
X00003390Y00021817D01*
X00003529Y00021727D01*
X00003670Y00021637D01*
X00003811Y00021549D01*
X00003953Y00021462D01*
X00004095Y00021376D01*
X00004239Y00021292D01*
X00004383Y00021209D01*
X00004528Y00021127D01*
X00004673Y00021047D01*
X00004820Y00020968D01*
X00004967Y00020890D01*
X00005115Y00020814D01*
X00005263Y00020738D01*
X00005412Y00020665D01*
X00005562Y00020592D01*
X00005713Y00020521D01*
X00005864Y00020452D01*
X00006015Y00020383D01*
X00006168Y00020317D01*
X00006321Y00020251D01*
X00006474Y00020187D01*
X00006628Y00020124D01*
X00006783Y00020063D01*
X00006938Y00020003D01*
X00007094Y00019945D01*
X00007250Y00019888D01*
X00007407Y00019832D01*
X00007565Y00019778D01*
X00007722Y00019725D01*
X00007796Y00019701D01*
X00019325Y00033127D02*
X00019325Y00033127D01*
X00019322Y00033150D01*
X00019321Y00033174D01*
X00019322Y00033198D01*
X00019323Y00033222D01*
X00019327Y00033246D01*
X00019332Y00033270D01*
X00019338Y00033293D01*
X00019345Y00033316D01*
X00019354Y00033338D01*
X00019365Y00033360D01*
X00019376Y00033381D01*
X00019389Y00033401D01*
X00019403Y00033421D01*
X00019419Y00033439D01*
X00019435Y00033457D01*
X00019453Y00033473D01*
X00019471Y00033489D01*
X00019490Y00033503D01*
X00019510Y00033516D01*
X00019531Y00033528D01*
X00019895Y00033719D01*
X00019932Y00033736D01*
X00019970Y00033750D01*
X00020009Y00033759D01*
X00020049Y00033764D01*
X00020090Y00033765D01*
X00020130Y00033761D01*
X00020170Y00033754D01*
X00020209Y00033743D01*
X00020246Y00033727D01*
X00020282Y00033708D01*
X00020315Y00033686D01*
X00020346Y00033660D01*
X00020374Y00033631D01*
X00020399Y00033599D01*
X00020421Y00033565D01*
X00020439Y00033528D01*
X00020453Y00033491D01*
X00020464Y00033451D01*
X00020470Y00033412D01*
X00020472Y00033371D01*
X00020472Y00024896D01*
X00020470Y00024856D01*
X00020464Y00024817D01*
X00020454Y00024779D01*
X00020441Y00024742D01*
X00020423Y00024706D01*
X00020403Y00024672D01*
X00020379Y00024641D01*
X00020352Y00024612D01*
X00020322Y00024586D01*
X00020290Y00024563D01*
X00020255Y00024544D01*
X00020219Y00024528D01*
X00020181Y00024516D01*
X00020143Y00024507D01*
X00020104Y00024503D01*
X00020064Y00024502D01*
X00020025Y00024506D01*
X00019986Y00024513D01*
X00019948Y00024524D01*
X00019911Y00024539D01*
X00019524Y00024721D01*
X00019501Y00024732D01*
X00019480Y00024745D01*
X00019459Y00024759D01*
X00019439Y00024774D01*
X00019420Y00024791D01*
X00019403Y00024808D01*
X00019386Y00024827D01*
X00019371Y00024847D01*
X00019357Y00024868D01*
X00019344Y00024890D01*
X00019333Y00024912D01*
X00019323Y00024935D01*
X00019315Y00024959D01*
X00019308Y00024983D01*
X00019303Y00025007D01*
X00019299Y00025032D01*
X00019297Y00025057D01*
X00019297Y00025082D01*
X00019298Y00025107D01*
X00019301Y00025132D01*
X00019316Y00025242D01*
X00019339Y00025407D01*
X00019360Y00025572D01*
X00019380Y00025737D01*
X00019400Y00025903D01*
X00019419Y00026068D01*
X00019436Y00026234D01*
X00019453Y00026400D01*
X00019469Y00026566D01*
X00019483Y00026732D01*
X00019497Y00026898D01*
X00019510Y00027064D01*
X00019522Y00027230D01*
X00019533Y00027396D01*
X00019543Y00027563D01*
X00019552Y00027729D01*
X00019560Y00027895D01*
X00019567Y00028062D01*
X00019573Y00028228D01*
X00019578Y00028395D01*
X00019583Y00028561D01*
X00019586Y00028728D01*
X00019588Y00028894D01*
X00019590Y00029061D01*
X00019590Y00029228D01*
X00019590Y00029394D01*
X00019588Y00029561D01*
X00019586Y00029727D01*
X00019582Y00029894D01*
X00019578Y00030061D01*
X00019572Y00030227D01*
X00019566Y00030394D01*
X00019559Y00030560D01*
X00019551Y00030726D01*
X00019542Y00030893D01*
X00019531Y00031059D01*
X00019520Y00031225D01*
X00019508Y00031391D01*
X00019495Y00031558D01*
X00019481Y00031724D01*
X00019466Y00031889D01*
X00019451Y00032055D01*
X00019434Y00032221D01*
X00019416Y00032387D01*
X00019397Y00032552D01*
X00019378Y00032718D01*
X00019357Y00032883D01*
X00019335Y00033048D01*
X00019325Y00033127D01*
M02*