%MOIN*%
%OFA0B0*%
%FSLAX33Y33*%
%IPPOS*%
%LPD*%
%AMRect-W2000001-H800001-RO0.500*
21,1,0.078740196850393712,0.031496102362204723,0,0,360*%
%AMRect-W1200000-H800001-RO0.500*
21,1,0.047244094488188976,0.031496102362204723,0,0,360*%
%AMCOMP11891*
4,1,3,
-0.039370098425196856,-0.015748051181102354,
0.039370098425196856,-0.015748051181102372,
0.039370098425196856,0.015748051181102354,
-0.039370098425196856,0.015748051181102372,
0*%
%AMCOMP11892*
4,1,3,
-0.023622047244094491,-0.015748051181102354,
0.023622047244094484,-0.015748051181102368,
0.023622047244094491,0.015748051181102354,
-0.023622047244094484,0.015748051181102368,
0*%
%AMRect-W670710-H1320710-RO1.5000*
21,1,0.026405905511811028,0.05199645669291339,0,0,90*%
%AMRR-H1749999-W549999-R274999-RO1.5000*
21,1,0.000000039370078740157479,0.068897598425196854,0,0,90*
21,1,0.021653503937007875,0.047244133858267721,0,0,90*
1,1,0.021653464566929133,-0.023622066929133861,-0.00000001968503937007874*
1,1,0.021653464566929133,-0.023622066929133861,0.00000001968503937007874*
1,1,0.021653464566929133,0.023622066929133861,0.00000001968503937007874*
1,1,0.021653464566929133,0.023622066929133861,-0.00000001968503937007874*%
%AMRR-H1749999-W549999-R274999-RO0.0000*
21,1,0.000000039370078740157479,0.068897598425196854,0,0,360*
21,1,0.021653503937007875,0.047244133858267721,0,0,360*
1,1,0.021653464566929133,-0.00000001968503937007874,0.023622066929133861*
1,1,0.021653464566929133,0.00000001968503937007874,0.023622066929133861*
1,1,0.021653464566929133,0.00000001968503937007874,-0.023622066929133861*
1,1,0.021653464566929133,-0.00000001968503937007874,-0.023622066929133861*%
%AMRect-W670710-H870710-RO1.0000*
21,1,0.026405905511811028,0.03427992125984252,0,0,180*%
%AMRect-W670710-H1320710-RO0.5000*
21,1,0.026405905511811028,0.05199645669291339,0,0,270*%
%AMRect-W670710-H870710-RO1.5000*
21,1,0.026405905511811028,0.03427992125984252,0,0,90*%
%AMRect-W670710-H870710-RO0.5000*
21,1,0.026405905511811028,0.03427992125984252,0,0,270*%
%AMCOMP119080*
4,1,3,
0.025998228346456695,-0.013202952755905516,
0.025998228346456695,0.013202952755905511,
-0.025998228346456695,0.013202952755905516,
-0.025998228346456695,-0.013202952755905511,
0*%
%AMCOMP119090*
4,1,3,
0.034448799212598427,-0.000000019685039372188054,
0.034448799212598427,0.000000019685039367969429,
-0.034448799212598427,0.000000019685039372188054,
-0.034448799212598427,-0.000000019685039367969429,
0*
4,1,3,
0.023622066929133861,-0.010826751968503939,
0.023622066929133861,0.010826751968503936,
-0.023622066929133861,0.010826751968503939,
-0.023622066929133861,-0.010826751968503936,
0*
4,1,19,
-0.023622066929133861,0.010826712598425197,
-0.020276422659995429,0.010296814603332715,
-0.017258273362394577,0.0087589907258313459,
-0.014863056518263147,0.006363773881699915,
-0.013325232640761778,0.0033456245840990623,
-0.012795334645669294,-0.000000019685039369415817,
-0.013325232640761776,-0.003345663954177801,
-0.014863056518263144,-0.0063638132517786538,
-0.017258273362394577,-0.0087590300959100847,
-0.020276422659995429,-0.010296853973411454,
-0.023622066929133861,-0.010826751968503938,
-0.026967711198272296,-0.010296853973411454,
-0.029985860495873141,-0.0087590300959100864,
-0.032381077340004574,-0.0063638132517786546,
-0.033918901217505945,-0.0033456639541778041,
-0.034448799212598427,-0.000000019685039372067514,
-0.033918901217505945,0.00334562458409906,
-0.032381077340004581,0.0063637738816999133,
-0.029985860495873148,0.0087589907258313442,
-0.026967711198272296,0.010296814603332713,
0*
4,1,19,
-0.023622066929133861,0.010826751968503938,
-0.020276422659995429,0.010296853973411456,
-0.017258273362394577,0.0087590300959100847,
-0.014863056518263147,0.0063638132517786538,
-0.013325232640761778,0.0033456639541778023,
-0.012795334645669294,0.000000019685039370741665,
-0.013325232640761776,-0.003345624584099061,
-0.014863056518263144,-0.006363773881699915,
-0.017258273362394577,-0.0087589907258313459,
-0.020276422659995429,-0.010296814603332713,
-0.023622066929133861,-0.010826712598425197,
-0.026967711198272296,-0.010296814603332713,
-0.029985860495873141,-0.0087589907258313476,
-0.032381077340004574,-0.0063637738816999159,
-0.033918901217505945,-0.0033456245840990636,
-0.034448799212598427,0.000000019685039368089969,
-0.033918901217505945,0.0033456639541778,
-0.032381077340004581,0.0063638132517786529,
-0.029985860495873148,0.0087590300959100829,
-0.026967711198272296,0.010296853973411454,
0*
4,1,19,
0.023622066929133861,0.010826751968503938,
0.026967711198272296,0.010296853973411456,
0.029985860495873148,0.0087590300959100847,
0.032381077340004574,0.0063638132517786538,
0.033918901217505945,0.0033456639541778023,
0.034448799212598427,0.000000019685039370741665,
0.033918901217505945,-0.003345624584099061,
0.032381077340004581,-0.006363773881699915,
0.029985860495873148,-0.0087589907258313459,
0.026967711198272296,-0.010296814603332713,
0.023622066929133861,-0.010826712598425197,
0.020276422659995429,-0.010296814603332713,
0.017258273362394577,-0.0087589907258313476,
0.014863056518263147,-0.0063637738816999159,
0.013325232640761778,-0.0033456245840990636,
0.012795334645669294,0.000000019685039368089969,
0.013325232640761776,0.0033456639541778,
0.014863056518263144,0.0063638132517786529,
0.017258273362394577,0.0087590300959100829,
0.020276422659995429,0.010296853973411454,
0*
4,1,19,
0.023622066929133861,0.010826712598425197,
0.026967711198272296,0.010296814603332715,
0.029985860495873148,0.0087589907258313459,
0.032381077340004574,0.006363773881699915,
0.033918901217505945,0.0033456245840990623,
0.034448799212598427,-0.000000019685039369415817,
0.033918901217505945,-0.003345663954177801,
0.032381077340004581,-0.0063638132517786538,
0.029985860495873148,-0.0087590300959100847,
0.026967711198272296,-0.010296853973411454,
0.023622066929133861,-0.010826751968503938,
0.020276422659995429,-0.010296853973411454,
0.017258273362394577,-0.0087590300959100864,
0.014863056518263147,-0.0063638132517786546,
0.013325232640761778,-0.0033456639541778041,
0.012795334645669294,-0.000000019685039372067514,
0.013325232640761776,0.00334562458409906,
0.014863056518263144,0.0063637738816999133,
0.017258273362394577,0.0087589907258313442,
0.020276422659995429,0.010296814603332713,
0*%
%AMCOMP119100*
4,1,3,
-0.000000019685039378515985,-0.034448799212598427,
0.000000019685039361641497,-0.034448799212598427,
0.000000019685039378515985,0.034448799212598427,
-0.000000019685039361641497,0.034448799212598427,
0*
4,1,3,
-0.010826751968503945,-0.023622066929133857,
0.010826751968503931,-0.023622066929133864,
0.010826751968503945,0.023622066929133857,
-0.010826751968503931,0.023622066929133864,
0*
4,1,19,
-0.00000001968503937007874,0.034448799212598427,
0.0033456245840990614,0.033918901217505945,
0.006363773881699915,0.032381077340004581,
0.0087589907258313459,0.029985860495873148,
0.010296814603332713,0.026967711198272296,
0.010826712598425197,0.023622066929133861,
0.010296814603332715,0.020276422659995429,
0.0087589907258313459,0.017258273362394577,
0.0063637738816999159,0.014863056518263147,
0.0033456245840990631,0.013325232640761778,
-0.000000019685039368752892,0.012795334645669294,
-0.0033456639541778049,0.013325232640761778,
-0.0063638132517786529,0.014863056518263144,
-0.0087590300959100847,0.017258273362394577,
-0.010296853973411454,0.020276422659995429,
-0.010826751968503938,0.023622066929133861,
-0.010296853973411456,0.026967711198272289,
-0.0087590300959100864,0.029985860495873141,
-0.0063638132517786555,0.032381077340004574,
-0.0033456639541778045,0.033918901217505945,
0*
4,1,19,
0.00000001968503937007874,0.034448799212598427,
0.0033456639541778019,0.033918901217505945,
0.0063638132517786538,0.032381077340004581,
0.0087590300959100847,0.029985860495873148,
0.010296853973411454,0.026967711198272296,
0.010826751968503938,0.023622066929133861,
0.010296853973411456,0.020276422659995429,
0.0087590300959100847,0.017258273362394577,
0.0063638132517786546,0.014863056518263147,
0.0033456639541778032,0.013325232640761778,
0.000000019685039371404588,0.012795334645669294,
-0.0033456245840990649,0.013325232640761778,
-0.0063637738816999133,0.014863056518263144,
-0.0087589907258313459,0.017258273362394577,
-0.010296814603332713,0.020276422659995429,
-0.010826712598425197,0.023622066929133861,
-0.010296814603332715,0.026967711198272289,
-0.0087589907258313476,0.029985860495873141,
-0.0063637738816999167,0.032381077340004574,
-0.0033456245840990644,0.033918901217505945,
0*
4,1,19,
0.00000001968503937007874,-0.012795334645669294,
0.0033456639541778019,-0.013325232640761776,
0.0063638132517786538,-0.014863056518263144,
0.0087590300959100847,-0.017258273362394577,
0.010296853973411454,-0.020276422659995429,
0.010826751968503938,-0.023622066929133861,
0.010296853973411456,-0.026967711198272296,
0.0087590300959100847,-0.029985860495873148,
0.0063638132517786546,-0.032381077340004574,
0.0033456639541778032,-0.033918901217505945,
0.000000019685039371404588,-0.034448799212598427,
-0.0033456245840990649,-0.033918901217505945,
-0.0063637738816999133,-0.032381077340004581,
-0.0087589907258313459,-0.029985860495873148,
-0.010296814603332713,-0.026967711198272296,
-0.010826712598425197,-0.023622066929133861,
-0.010296814603332715,-0.020276422659995432,
-0.0087589907258313476,-0.017258273362394577,
-0.0063637738816999167,-0.014863056518263149,
-0.0033456245840990644,-0.013325232640761778,
0*
4,1,19,
-0.00000001968503937007874,-0.012795334645669294,
0.0033456245840990614,-0.013325232640761776,
0.006363773881699915,-0.014863056518263144,
0.0087589907258313459,-0.017258273362394577,
0.010296814603332713,-0.020276422659995429,
0.010826712598425197,-0.023622066929133861,
0.010296814603332715,-0.026967711198272296,
0.0087589907258313459,-0.029985860495873148,
0.0063637738816999159,-0.032381077340004574,
0.0033456245840990631,-0.033918901217505945,
-0.000000019685039368752892,-0.034448799212598427,
-0.0033456639541778049,-0.033918901217505945,
-0.0063638132517786529,-0.032381077340004581,
-0.0087590300959100847,-0.029985860495873148,
-0.010296853973411454,-0.026967711198272296,
-0.010826751968503938,-0.023622066929133861,
-0.010296853973411456,-0.020276422659995432,
-0.0087590300959100864,-0.017258273362394577,
-0.0063638132517786555,-0.014863056518263149,
-0.0033456639541778045,-0.013325232640761778,
0*%
%AMCOMP119110*
4,1,3,
0.013202952755905516,0.017139960629921257,
-0.013202952755905511,0.017139960629921264,
-0.013202952755905516,-0.017139960629921257,
0.013202952755905511,-0.017139960629921264,
0*%
%AMCOMP119120*
4,1,3,
-0.025998228346456691,0.013202952755905517,
-0.0259982283464567,-0.013202952755905509,
0.025998228346456691,-0.013202952755905517,
0.0259982283464567,0.013202952755905509,
0*%
%AMCOMP119130*
4,1,3,
0.01713996062992126,-0.013202952755905514,
0.01713996062992126,0.013202952755905514,
-0.01713996062992126,0.013202952755905514,
-0.01713996062992126,-0.013202952755905514,
0*%
%AMCOMP119140*
4,1,3,
-0.017139960629921257,0.013202952755905516,
-0.017139960629921264,-0.013202952755905511,
0.017139960629921257,-0.013202952755905516,
0.017139960629921264,0.013202952755905511,
0*%
%AMCOMP12057*
4,1,3,
-0.039370098425196856,-0.015748051181102354,
0.039370098425196856,-0.015748051181102372,
0.039370098425196856,0.015748051181102354,
-0.039370098425196856,0.015748051181102372,
0*%
%AMCOMP12058*
4,1,3,
-0.023622047244094491,-0.015748051181102354,
0.023622047244094484,-0.015748051181102368,
0.023622047244094491,0.015748051181102354,
-0.023622047244094484,0.015748051181102368,
0*%
%AMCOMP12059*
4,1,3,
0.025998228346456695,-0.013202952755905516,
0.025998228346456695,0.013202952755905511,
-0.025998228346456695,0.013202952755905516,
-0.025998228346456695,-0.013202952755905511,
0*%
%AMCOMP12060*
4,1,3,
0.034448799212598427,-0.000000019685039372188054,
0.034448799212598427,0.000000019685039367969429,
-0.034448799212598427,0.000000019685039372188054,
-0.034448799212598427,-0.000000019685039367969429,
0*
4,1,3,
0.023622066929133861,-0.010826751968503939,
0.023622066929133861,0.010826751968503936,
-0.023622066929133861,0.010826751968503939,
-0.023622066929133861,-0.010826751968503936,
0*
4,1,19,
-0.023622066929133861,0.010826712598425197,
-0.020276422659995429,0.010296814603332715,
-0.017258273362394577,0.0087589907258313459,
-0.014863056518263147,0.006363773881699915,
-0.013325232640761778,0.0033456245840990623,
-0.012795334645669294,-0.000000019685039369415817,
-0.013325232640761776,-0.003345663954177801,
-0.014863056518263144,-0.0063638132517786538,
-0.017258273362394577,-0.0087590300959100847,
-0.020276422659995429,-0.010296853973411454,
-0.023622066929133861,-0.010826751968503938,
-0.026967711198272296,-0.010296853973411454,
-0.029985860495873141,-0.0087590300959100864,
-0.032381077340004574,-0.0063638132517786546,
-0.033918901217505945,-0.0033456639541778041,
-0.034448799212598427,-0.000000019685039372067514,
-0.033918901217505945,0.00334562458409906,
-0.032381077340004581,0.0063637738816999133,
-0.029985860495873148,0.0087589907258313442,
-0.026967711198272296,0.010296814603332713,
0*
4,1,19,
-0.023622066929133861,0.010826751968503938,
-0.020276422659995429,0.010296853973411456,
-0.017258273362394577,0.0087590300959100847,
-0.014863056518263147,0.0063638132517786538,
-0.013325232640761778,0.0033456639541778023,
-0.012795334645669294,0.000000019685039370741665,
-0.013325232640761776,-0.003345624584099061,
-0.014863056518263144,-0.006363773881699915,
-0.017258273362394577,-0.0087589907258313459,
-0.020276422659995429,-0.010296814603332713,
-0.023622066929133861,-0.010826712598425197,
-0.026967711198272296,-0.010296814603332713,
-0.029985860495873141,-0.0087589907258313476,
-0.032381077340004574,-0.0063637738816999159,
-0.033918901217505945,-0.0033456245840990636,
-0.034448799212598427,0.000000019685039368089969,
-0.033918901217505945,0.0033456639541778,
-0.032381077340004581,0.0063638132517786529,
-0.029985860495873148,0.0087590300959100829,
-0.026967711198272296,0.010296853973411454,
0*
4,1,19,
0.023622066929133861,0.010826751968503938,
0.026967711198272296,0.010296853973411456,
0.029985860495873148,0.0087590300959100847,
0.032381077340004574,0.0063638132517786538,
0.033918901217505945,0.0033456639541778023,
0.034448799212598427,0.000000019685039370741665,
0.033918901217505945,-0.003345624584099061,
0.032381077340004581,-0.006363773881699915,
0.029985860495873148,-0.0087589907258313459,
0.026967711198272296,-0.010296814603332713,
0.023622066929133861,-0.010826712598425197,
0.020276422659995429,-0.010296814603332713,
0.017258273362394577,-0.0087589907258313476,
0.014863056518263147,-0.0063637738816999159,
0.013325232640761778,-0.0033456245840990636,
0.012795334645669294,0.000000019685039368089969,
0.013325232640761776,0.0033456639541778,
0.014863056518263144,0.0063638132517786529,
0.017258273362394577,0.0087590300959100829,
0.020276422659995429,0.010296853973411454,
0*
4,1,19,
0.023622066929133861,0.010826712598425197,
0.026967711198272296,0.010296814603332715,
0.029985860495873148,0.0087589907258313459,
0.032381077340004574,0.006363773881699915,
0.033918901217505945,0.0033456245840990623,
0.034448799212598427,-0.000000019685039369415817,
0.033918901217505945,-0.003345663954177801,
0.032381077340004581,-0.0063638132517786538,
0.029985860495873148,-0.0087590300959100847,
0.026967711198272296,-0.010296853973411454,
0.023622066929133861,-0.010826751968503938,
0.020276422659995429,-0.010296853973411454,
0.017258273362394577,-0.0087590300959100864,
0.014863056518263147,-0.0063638132517786546,
0.013325232640761778,-0.0033456639541778041,
0.012795334645669294,-0.000000019685039372067514,
0.013325232640761776,0.00334562458409906,
0.014863056518263144,0.0063637738816999133,
0.017258273362394577,0.0087589907258313442,
0.020276422659995429,0.010296814603332713,
0*%
%AMCOMP12061*
4,1,3,
-0.000000019685039378515985,-0.034448799212598427,
0.000000019685039361641497,-0.034448799212598427,
0.000000019685039378515985,0.034448799212598427,
-0.000000019685039361641497,0.034448799212598427,
0*
4,1,3,
-0.010826751968503945,-0.023622066929133857,
0.010826751968503931,-0.023622066929133864,
0.010826751968503945,0.023622066929133857,
-0.010826751968503931,0.023622066929133864,
0*
4,1,19,
-0.00000001968503937007874,0.034448799212598427,
0.0033456245840990614,0.033918901217505945,
0.006363773881699915,0.032381077340004581,
0.0087589907258313459,0.029985860495873148,
0.010296814603332713,0.026967711198272296,
0.010826712598425197,0.023622066929133861,
0.010296814603332715,0.020276422659995429,
0.0087589907258313459,0.017258273362394577,
0.0063637738816999159,0.014863056518263147,
0.0033456245840990631,0.013325232640761778,
-0.000000019685039368752892,0.012795334645669294,
-0.0033456639541778049,0.013325232640761778,
-0.0063638132517786529,0.014863056518263144,
-0.0087590300959100847,0.017258273362394577,
-0.010296853973411454,0.020276422659995429,
-0.010826751968503938,0.023622066929133861,
-0.010296853973411456,0.026967711198272289,
-0.0087590300959100864,0.029985860495873141,
-0.0063638132517786555,0.032381077340004574,
-0.0033456639541778045,0.033918901217505945,
0*
4,1,19,
0.00000001968503937007874,0.034448799212598427,
0.0033456639541778019,0.033918901217505945,
0.0063638132517786538,0.032381077340004581,
0.0087590300959100847,0.029985860495873148,
0.010296853973411454,0.026967711198272296,
0.010826751968503938,0.023622066929133861,
0.010296853973411456,0.020276422659995429,
0.0087590300959100847,0.017258273362394577,
0.0063638132517786546,0.014863056518263147,
0.0033456639541778032,0.013325232640761778,
0.000000019685039371404588,0.012795334645669294,
-0.0033456245840990649,0.013325232640761778,
-0.0063637738816999133,0.014863056518263144,
-0.0087589907258313459,0.017258273362394577,
-0.010296814603332713,0.020276422659995429,
-0.010826712598425197,0.023622066929133861,
-0.010296814603332715,0.026967711198272289,
-0.0087589907258313476,0.029985860495873141,
-0.0063637738816999167,0.032381077340004574,
-0.0033456245840990644,0.033918901217505945,
0*
4,1,19,
0.00000001968503937007874,-0.012795334645669294,
0.0033456639541778019,-0.013325232640761776,
0.0063638132517786538,-0.014863056518263144,
0.0087590300959100847,-0.017258273362394577,
0.010296853973411454,-0.020276422659995429,
0.010826751968503938,-0.023622066929133861,
0.010296853973411456,-0.026967711198272296,
0.0087590300959100847,-0.029985860495873148,
0.0063638132517786546,-0.032381077340004574,
0.0033456639541778032,-0.033918901217505945,
0.000000019685039371404588,-0.034448799212598427,
-0.0033456245840990649,-0.033918901217505945,
-0.0063637738816999133,-0.032381077340004581,
-0.0087589907258313459,-0.029985860495873148,
-0.010296814603332713,-0.026967711198272296,
-0.010826712598425197,-0.023622066929133861,
-0.010296814603332715,-0.020276422659995432,
-0.0087589907258313476,-0.017258273362394577,
-0.0063637738816999167,-0.014863056518263149,
-0.0033456245840990644,-0.013325232640761778,
0*
4,1,19,
-0.00000001968503937007874,-0.012795334645669294,
0.0033456245840990614,-0.013325232640761776,
0.006363773881699915,-0.014863056518263144,
0.0087589907258313459,-0.017258273362394577,
0.010296814603332713,-0.020276422659995429,
0.010826712598425197,-0.023622066929133861,
0.010296814603332715,-0.026967711198272296,
0.0087589907258313459,-0.029985860495873148,
0.0063637738816999159,-0.032381077340004574,
0.0033456245840990631,-0.033918901217505945,
-0.000000019685039368752892,-0.034448799212598427,
-0.0033456639541778049,-0.033918901217505945,
-0.0063638132517786529,-0.032381077340004581,
-0.0087590300959100847,-0.029985860495873148,
-0.010296853973411454,-0.026967711198272296,
-0.010826751968503938,-0.023622066929133861,
-0.010296853973411456,-0.020276422659995432,
-0.0087590300959100864,-0.017258273362394577,
-0.0063638132517786555,-0.014863056518263149,
-0.0033456639541778045,-0.013325232640761778,
0*%
%AMCOMP12062*
4,1,3,
0.013202952755905516,0.017139960629921257,
-0.013202952755905511,0.017139960629921264,
-0.013202952755905516,-0.017139960629921257,
0.013202952755905511,-0.017139960629921264,
0*%
%AMCOMP12063*
4,1,3,
-0.025998228346456691,0.013202952755905517,
-0.0259982283464567,-0.013202952755905509,
0.025998228346456691,-0.013202952755905517,
0.0259982283464567,0.013202952755905509,
0*%
%AMCOMP12064*
4,1,3,
0.01713996062992126,-0.013202952755905514,
0.01713996062992126,0.013202952755905514,
-0.01713996062992126,0.013202952755905514,
-0.01713996062992126,-0.013202952755905514,
0*%
%AMCOMP12065*
4,1,3,
-0.017139960629921257,0.013202952755905516,
-0.017139960629921264,-0.013202952755905511,
0.017139960629921257,-0.013202952755905516,
0.017139960629921264,0.013202952755905511,
0*%
%AMRect-W670710-H870710-RO0.5001*
21,1,0.026405905511811028,0.03427992125984252,0,0,270*%
%AMRect-W1500000-H4000000-RO1.5000*
21,1,0.059055118110236227,0.15748031496062992,0,0,90*%
%AMRect-W670710-H870710-RO1.0001*
21,1,0.026405905511811028,0.03427992125984252,0,0,180*%
%AMRect-W1400000-H1000000-RO1.0000*
21,1,0.055118110236220472,0.03937007874015748,0,0,180*%
%AMRect-W670710-H870710-RO1.5001*
21,1,0.026405905511811028,0.03427992125984252,0,0,90*%
%AMRect-W700000-H1600000-RO1.5000*
21,1,0.027559055118110236,0.062992125984251982,0,0,90*%
%AMRect-W1200000-H1600000-RO0.5000*
21,1,0.047244094488188976,0.062992125984251982,0,0,270*%
%AMRect-W1600000-H1400000-RO0.5000*
21,1,0.062992125984251982,0.055118110236220472,0,0,270*%
%AMRect-W1200000-H2200000-RO0.5000*
21,1,0.047244094488188976,0.086614173228346469,0,0,270*%
%AMRect-W230000-H800000-RO0.5000*
21,1,0.0090551181102362221,0.031496062992125991,0,0,270*%
%AMRect-W1050000-H680000-RO0.5000*
21,1,0.041338582677165357,0.02677165354330709,0,0,270*%
%AMRect-W500000-H260000-RO0.5000*
21,1,0.01968503937007874,0.010236220472440947,0,0,270*%
%AMRect-W1280000-H550000-RO1.0000*
21,1,0.050393700787401581,0.021653543307086617,0,0,180*%
%AMRect-W1520000-H1680000-RO1.0000*
21,1,0.059842519685039376,0.066141732283464566,0,0,180*%
%AMRect-W1880000-H1680000-RO1.0000*
21,1,0.074015748031496062,0.066141732283464566,0,0,180*%
%AMRect-W2300000-H500000-RO1.7500*
21,1,0.0905511811023622,0.01968503937007874,0,0,45*%
%AMRect-W2500000-H2000000-RO1.7500*
21,1,0.0984251968503937,0.07874015748031496,0,0,45*%
%AMRect-W600000-H1200000-RO0.5000*
21,1,0.023622047244094488,0.047244094488188976,0,0,270*%
%AMCOMP119430*
4,1,3,
-0.017139960629921257,0.013202952755905516,
-0.017139960629921264,-0.013202952755905511,
0.017139960629921257,-0.013202952755905516,
0.017139960629921264,0.013202952755905511,
0*%
%AMCOMP119440*
4,1,3,
0.07874015748031496,-0.029527559055118117,
0.07874015748031496,0.029527559055118106,
-0.07874015748031496,0.029527559055118117,
-0.07874015748031496,-0.029527559055118106,
0*%
%AMCOMP119450*
4,1,3,
0.013202952755905516,0.017139960629921257,
-0.013202952755905511,0.017139960629921264,
-0.013202952755905516,-0.017139960629921257,
0.013202952755905511,-0.017139960629921264,
0*%
%AMCOMP119460*
4,1,3,
0.027559055118110239,0.019685039370078736,
-0.027559055118110232,0.019685039370078747,
-0.027559055118110239,-0.019685039370078736,
0.027559055118110232,-0.019685039370078747,
0*%
%AMCOMP119470*
4,1,3,
0.01713996062992126,-0.013202952755905514,
0.01713996062992126,0.013202952755905514,
-0.01713996062992126,0.013202952755905514,
-0.01713996062992126,-0.013202952755905514,
0*%
%AMCOMP119480*
4,1,3,
0.031496062992125991,-0.01377952755905512,
0.031496062992125991,0.013779527559055116,
-0.031496062992125991,0.01377952755905512,
-0.031496062992125991,-0.013779527559055116,
0*%
%AMCOMP119490*
4,1,3,
-0.031496062992125984,0.023622047244094491,
-0.031496062992125991,-0.023622047244094484,
0.031496062992125984,-0.023622047244094491,
0.031496062992125991,0.023622047244094484,
0*%
%AMCOMP119500*
4,1,3,
-0.027559055118110232,0.031496062992125991,
-0.027559055118110239,-0.031496062992125984,
0.027559055118110232,-0.031496062992125991,
0.027559055118110239,0.031496062992125984,
0*%
%AMCOMP119510*
4,1,3,
-0.043307086614173235,0.0236220472440945,
-0.043307086614173235,-0.023622047244094481,
0.043307086614173235,-0.0236220472440945,
0.043307086614173235,0.023622047244094481,
0*%
%AMCOMP119520*
4,1,3,
-0.015748031496062995,0.0045275590551181136,
-0.015748031496062995,-0.0045275590551181076,
0.015748031496062995,-0.0045275590551181136,
0.015748031496062995,0.0045275590551181076,
0*%
%AMCOMP119530*
4,1,3,
-0.013385826771653541,0.020669291338582682,
-0.01338582677165355,-0.020669291338582675,
0.013385826771653541,-0.020669291338582682,
0.01338582677165355,0.020669291338582675,
0*%
%AMCOMP119540*
4,1,3,
-0.0051181102362204706,0.00984251968503937,
-0.005118110236220475,-0.00984251968503937,
0.0051181102362204706,-0.00984251968503937,
0.005118110236220475,0.00984251968503937,
0*%
%AMCOMP119550*
4,1,3,
0.025196850393700791,0.010826771653543307,
-0.025196850393700791,0.01082677165354331,
-0.025196850393700791,-0.010826771653543307,
0.025196850393700791,-0.01082677165354331,
0*%
%AMCOMP119560*
4,1,3,
0.029921259842519692,0.033070866141732283,
-0.029921259842519681,0.03307086614173229,
-0.029921259842519692,-0.033070866141732283,
0.029921259842519681,-0.03307086614173229,
0*%
%AMCOMP119570*
4,1,3,
0.037007874015748038,0.033070866141732283,
-0.037007874015748024,0.03307086614173229,
-0.037007874015748038,-0.033070866141732283,
0.037007874015748024,-0.03307086614173229,
0*%
%AMCOMP119580*
4,1,3,
-0.025054964687712313,-0.038974389514219152,
0.038974389514219152,0.02505496468771231,
0.025054964687712313,0.038974389514219152,
-0.038974389514219152,-0.02505496468771231,
0*%
%AMCOMP119590*
4,1,3,
-0.0069597124132534244,-0.062637411719280792,
0.062637411719280792,0.0069597124132534157,
0.0069597124132534244,0.062637411719280792,
-0.062637411719280792,-0.0069597124132534157,
0*%
%AMCOMP119600*
4,1,3,
-0.023622047244094488,0.011811023622047249,
-0.023622047244094488,-0.011811023622047241,
0.023622047244094488,-0.011811023622047249,
0.023622047244094488,0.011811023622047241,
0*%
%AMRect-W2000001-H800001-RO0.50000*
21,1,0.078740196850393712,0.031496102362204723,0,0,270*%
%AMRect-W1200000-H800001-RO0.50000*
21,1,0.047244094488188976,0.031496102362204723,0,0,270*%
%AMCOMP1198100*
4,1,3,
-0.015748051181102354,0.039370098425196856,
-0.015748051181102368,-0.039370098425196856,
0.015748051181102354,-0.039370098425196856,
0.015748051181102368,0.039370098425196856,
0*%
%AMCOMP1198200*
4,1,3,
-0.015748051181102358,0.023622047244094491,
-0.015748051181102368,-0.023622047244094484,
0.015748051181102358,-0.023622047244094491,
0.015748051181102368,0.023622047244094484,
0*%
%AMCOMP120660*
4,1,3,
-0.017139960629921257,0.013202952755905516,
-0.017139960629921264,-0.013202952755905511,
0.017139960629921257,-0.013202952755905516,
0.017139960629921264,0.013202952755905511,
0*%
%AMCOMP120670*
4,1,3,
0.07874015748031496,-0.029527559055118117,
0.07874015748031496,0.029527559055118106,
-0.07874015748031496,0.029527559055118117,
-0.07874015748031496,-0.029527559055118106,
0*%
%AMCOMP120680*
4,1,3,
0.013202952755905516,0.017139960629921257,
-0.013202952755905511,0.017139960629921264,
-0.013202952755905516,-0.017139960629921257,
0.013202952755905511,-0.017139960629921264,
0*%
%AMCOMP120690*
4,1,3,
0.027559055118110239,0.019685039370078736,
-0.027559055118110232,0.019685039370078747,
-0.027559055118110239,-0.019685039370078736,
0.027559055118110232,-0.019685039370078747,
0*%
%AMCOMP120700*
4,1,3,
0.01713996062992126,-0.013202952755905514,
0.01713996062992126,0.013202952755905514,
-0.01713996062992126,0.013202952755905514,
-0.01713996062992126,-0.013202952755905514,
0*%
%AMCOMP120710*
4,1,3,
0.031496062992125991,-0.01377952755905512,
0.031496062992125991,0.013779527559055116,
-0.031496062992125991,0.01377952755905512,
-0.031496062992125991,-0.013779527559055116,
0*%
%AMCOMP120720*
4,1,3,
-0.031496062992125984,0.023622047244094491,
-0.031496062992125991,-0.023622047244094484,
0.031496062992125984,-0.023622047244094491,
0.031496062992125991,0.023622047244094484,
0*%
%AMCOMP120730*
4,1,3,
-0.027559055118110232,0.031496062992125991,
-0.027559055118110239,-0.031496062992125984,
0.027559055118110232,-0.031496062992125991,
0.027559055118110239,0.031496062992125984,
0*%
%AMCOMP120740*
4,1,3,
-0.043307086614173235,0.0236220472440945,
-0.043307086614173235,-0.023622047244094481,
0.043307086614173235,-0.0236220472440945,
0.043307086614173235,0.023622047244094481,
0*%
%AMCOMP120750*
4,1,3,
-0.015748031496062995,0.0045275590551181136,
-0.015748031496062995,-0.0045275590551181076,
0.015748031496062995,-0.0045275590551181136,
0.015748031496062995,0.0045275590551181076,
0*%
%AMCOMP120760*
4,1,3,
-0.013385826771653541,0.020669291338582682,
-0.01338582677165355,-0.020669291338582675,
0.013385826771653541,-0.020669291338582682,
0.01338582677165355,0.020669291338582675,
0*%
%AMCOMP120770*
4,1,3,
-0.0051181102362204706,0.00984251968503937,
-0.005118110236220475,-0.00984251968503937,
0.0051181102362204706,-0.00984251968503937,
0.005118110236220475,0.00984251968503937,
0*%
%AMCOMP120780*
4,1,3,
0.025196850393700791,0.010826771653543307,
-0.025196850393700791,0.01082677165354331,
-0.025196850393700791,-0.010826771653543307,
0.025196850393700791,-0.01082677165354331,
0*%
%AMCOMP120790*
4,1,3,
0.029921259842519692,0.033070866141732283,
-0.029921259842519681,0.03307086614173229,
-0.029921259842519692,-0.033070866141732283,
0.029921259842519681,-0.03307086614173229,
0*%
%AMCOMP120800*
4,1,3,
0.037007874015748038,0.033070866141732283,
-0.037007874015748024,0.03307086614173229,
-0.037007874015748038,-0.033070866141732283,
0.037007874015748024,-0.03307086614173229,
0*%
%AMCOMP120810*
4,1,3,
-0.025054964687712313,-0.038974389514219152,
0.038974389514219152,0.02505496468771231,
0.025054964687712313,0.038974389514219152,
-0.038974389514219152,-0.02505496468771231,
0*%
%AMCOMP120820*
4,1,3,
-0.0069597124132534244,-0.062637411719280792,
0.062637411719280792,0.0069597124132534157,
0.0069597124132534244,0.062637411719280792,
-0.062637411719280792,-0.0069597124132534157,
0*%
%AMCOMP120830*
4,1,3,
-0.023622047244094488,0.011811023622047249,
-0.023622047244094488,-0.011811023622047241,
0.023622047244094488,-0.011811023622047249,
0.023622047244094488,0.011811023622047241,
0*%
%AMCOMP120840*
4,1,3,
-0.015748051181102354,0.039370098425196856,
-0.015748051181102368,-0.039370098425196856,
0.015748051181102354,-0.039370098425196856,
0.015748051181102368,0.039370098425196856,
0*%
%AMCOMP120850*
4,1,3,
-0.015748051181102358,0.023622047244094491,
-0.015748051181102368,-0.023622047244094484,
0.015748051181102358,-0.023622047244094491,
0.015748051181102368,0.023622047244094484,
0*%
%AMCOMP12086*
4,1,3,
-0.039370098425196856,-0.015748051181102354,
0.039370098425196856,-0.015748051181102372,
0.039370098425196856,0.015748051181102354,
-0.039370098425196856,0.015748051181102372,
0*%
%ADD10COMP12086*%
%AMCOMP12087*
4,1,3,
-0.023622047244094491,-0.015748051181102354,
0.023622047244094484,-0.015748051181102368,
0.023622047244094491,0.015748051181102354,
-0.023622047244094484,0.015748051181102368,
0*%
%ADD11COMP12087*%
%ADD22R,0.026405905511811028X0.03427992125984252*%
%AMCOMP12088*
4,1,3,
0.025998228346456695,-0.013202952755905516,
0.025998228346456695,0.013202952755905511,
-0.025998228346456695,0.013202952755905516,
-0.025998228346456695,-0.013202952755905511,
0*%
%ADD23COMP12088*%
%AMCOMP12089*
4,1,3,
0.034448799212598427,-0.000000019685039372188054,
0.034448799212598427,0.000000019685039367969429,
-0.034448799212598427,0.000000019685039372188054,
-0.034448799212598427,-0.000000019685039367969429,
0*
4,1,3,
0.023622066929133861,-0.010826751968503939,
0.023622066929133861,0.010826751968503936,
-0.023622066929133861,0.010826751968503939,
-0.023622066929133861,-0.010826751968503936,
0*
4,1,19,
-0.023622066929133861,0.010826712598425197,
-0.020276422659995429,0.010296814603332715,
-0.017258273362394577,0.0087589907258313459,
-0.014863056518263147,0.006363773881699915,
-0.013325232640761778,0.0033456245840990623,
-0.012795334645669294,-0.000000019685039369415817,
-0.013325232640761776,-0.003345663954177801,
-0.014863056518263144,-0.0063638132517786538,
-0.017258273362394577,-0.0087590300959100847,
-0.020276422659995429,-0.010296853973411454,
-0.023622066929133861,-0.010826751968503938,
-0.026967711198272296,-0.010296853973411454,
-0.029985860495873141,-0.0087590300959100864,
-0.032381077340004574,-0.0063638132517786546,
-0.033918901217505945,-0.0033456639541778041,
-0.034448799212598427,-0.000000019685039372067514,
-0.033918901217505945,0.00334562458409906,
-0.032381077340004581,0.0063637738816999133,
-0.029985860495873148,0.0087589907258313442,
-0.026967711198272296,0.010296814603332713,
0*
4,1,19,
-0.023622066929133861,0.010826751968503938,
-0.020276422659995429,0.010296853973411456,
-0.017258273362394577,0.0087590300959100847,
-0.014863056518263147,0.0063638132517786538,
-0.013325232640761778,0.0033456639541778023,
-0.012795334645669294,0.000000019685039370741665,
-0.013325232640761776,-0.003345624584099061,
-0.014863056518263144,-0.006363773881699915,
-0.017258273362394577,-0.0087589907258313459,
-0.020276422659995429,-0.010296814603332713,
-0.023622066929133861,-0.010826712598425197,
-0.026967711198272296,-0.010296814603332713,
-0.029985860495873141,-0.0087589907258313476,
-0.032381077340004574,-0.0063637738816999159,
-0.033918901217505945,-0.0033456245840990636,
-0.034448799212598427,0.000000019685039368089969,
-0.033918901217505945,0.0033456639541778,
-0.032381077340004581,0.0063638132517786529,
-0.029985860495873148,0.0087590300959100829,
-0.026967711198272296,0.010296853973411454,
0*
4,1,19,
0.023622066929133861,0.010826751968503938,
0.026967711198272296,0.010296853973411456,
0.029985860495873148,0.0087590300959100847,
0.032381077340004574,0.0063638132517786538,
0.033918901217505945,0.0033456639541778023,
0.034448799212598427,0.000000019685039370741665,
0.033918901217505945,-0.003345624584099061,
0.032381077340004581,-0.006363773881699915,
0.029985860495873148,-0.0087589907258313459,
0.026967711198272296,-0.010296814603332713,
0.023622066929133861,-0.010826712598425197,
0.020276422659995429,-0.010296814603332713,
0.017258273362394577,-0.0087589907258313476,
0.014863056518263147,-0.0063637738816999159,
0.013325232640761778,-0.0033456245840990636,
0.012795334645669294,0.000000019685039368089969,
0.013325232640761776,0.0033456639541778,
0.014863056518263144,0.0063638132517786529,
0.017258273362394577,0.0087590300959100829,
0.020276422659995429,0.010296853973411454,
0*
4,1,19,
0.023622066929133861,0.010826712598425197,
0.026967711198272296,0.010296814603332715,
0.029985860495873148,0.0087589907258313459,
0.032381077340004574,0.006363773881699915,
0.033918901217505945,0.0033456245840990623,
0.034448799212598427,-0.000000019685039369415817,
0.033918901217505945,-0.003345663954177801,
0.032381077340004581,-0.0063638132517786538,
0.029985860495873148,-0.0087590300959100847,
0.026967711198272296,-0.010296853973411454,
0.023622066929133861,-0.010826751968503938,
0.020276422659995429,-0.010296853973411454,
0.017258273362394577,-0.0087590300959100864,
0.014863056518263147,-0.0063638132517786546,
0.013325232640761778,-0.0033456639541778041,
0.012795334645669294,-0.000000019685039372067514,
0.013325232640761776,0.00334562458409906,
0.014863056518263144,0.0063637738816999133,
0.017258273362394577,0.0087589907258313442,
0.020276422659995429,0.010296814603332713,
0*%
%ADD24COMP12089*%
%AMCOMP12090*
4,1,3,
-0.000000019685039378515985,-0.034448799212598427,
0.000000019685039361641497,-0.034448799212598427,
0.000000019685039378515985,0.034448799212598427,
-0.000000019685039361641497,0.034448799212598427,
0*
4,1,3,
-0.010826751968503945,-0.023622066929133857,
0.010826751968503931,-0.023622066929133864,
0.010826751968503945,0.023622066929133857,
-0.010826751968503931,0.023622066929133864,
0*
4,1,19,
-0.00000001968503937007874,0.034448799212598427,
0.0033456245840990614,0.033918901217505945,
0.006363773881699915,0.032381077340004581,
0.0087589907258313459,0.029985860495873148,
0.010296814603332713,0.026967711198272296,
0.010826712598425197,0.023622066929133861,
0.010296814603332715,0.020276422659995429,
0.0087589907258313459,0.017258273362394577,
0.0063637738816999159,0.014863056518263147,
0.0033456245840990631,0.013325232640761778,
-0.000000019685039368752892,0.012795334645669294,
-0.0033456639541778049,0.013325232640761778,
-0.0063638132517786529,0.014863056518263144,
-0.0087590300959100847,0.017258273362394577,
-0.010296853973411454,0.020276422659995429,
-0.010826751968503938,0.023622066929133861,
-0.010296853973411456,0.026967711198272289,
-0.0087590300959100864,0.029985860495873141,
-0.0063638132517786555,0.032381077340004574,
-0.0033456639541778045,0.033918901217505945,
0*
4,1,19,
0.00000001968503937007874,0.034448799212598427,
0.0033456639541778019,0.033918901217505945,
0.0063638132517786538,0.032381077340004581,
0.0087590300959100847,0.029985860495873148,
0.010296853973411454,0.026967711198272296,
0.010826751968503938,0.023622066929133861,
0.010296853973411456,0.020276422659995429,
0.0087590300959100847,0.017258273362394577,
0.0063638132517786546,0.014863056518263147,
0.0033456639541778032,0.013325232640761778,
0.000000019685039371404588,0.012795334645669294,
-0.0033456245840990649,0.013325232640761778,
-0.0063637738816999133,0.014863056518263144,
-0.0087589907258313459,0.017258273362394577,
-0.010296814603332713,0.020276422659995429,
-0.010826712598425197,0.023622066929133861,
-0.010296814603332715,0.026967711198272289,
-0.0087589907258313476,0.029985860495873141,
-0.0063637738816999167,0.032381077340004574,
-0.0033456245840990644,0.033918901217505945,
0*
4,1,19,
0.00000001968503937007874,-0.012795334645669294,
0.0033456639541778019,-0.013325232640761776,
0.0063638132517786538,-0.014863056518263144,
0.0087590300959100847,-0.017258273362394577,
0.010296853973411454,-0.020276422659995429,
0.010826751968503938,-0.023622066929133861,
0.010296853973411456,-0.026967711198272296,
0.0087590300959100847,-0.029985860495873148,
0.0063638132517786546,-0.032381077340004574,
0.0033456639541778032,-0.033918901217505945,
0.000000019685039371404588,-0.034448799212598427,
-0.0033456245840990649,-0.033918901217505945,
-0.0063637738816999133,-0.032381077340004581,
-0.0087589907258313459,-0.029985860495873148,
-0.010296814603332713,-0.026967711198272296,
-0.010826712598425197,-0.023622066929133861,
-0.010296814603332715,-0.020276422659995432,
-0.0087589907258313476,-0.017258273362394577,
-0.0063637738816999167,-0.014863056518263149,
-0.0033456245840990644,-0.013325232640761778,
0*
4,1,19,
-0.00000001968503937007874,-0.012795334645669294,
0.0033456245840990614,-0.013325232640761776,
0.006363773881699915,-0.014863056518263144,
0.0087589907258313459,-0.017258273362394577,
0.010296814603332713,-0.020276422659995429,
0.010826712598425197,-0.023622066929133861,
0.010296814603332715,-0.026967711198272296,
0.0087589907258313459,-0.029985860495873148,
0.0063637738816999159,-0.032381077340004574,
0.0033456245840990631,-0.033918901217505945,
-0.000000019685039368752892,-0.034448799212598427,
-0.0033456639541778049,-0.033918901217505945,
-0.0063638132517786529,-0.032381077340004581,
-0.0087590300959100847,-0.029985860495873148,
-0.010296853973411454,-0.026967711198272296,
-0.010826751968503938,-0.023622066929133861,
-0.010296853973411456,-0.020276422659995432,
-0.0087590300959100864,-0.017258273362394577,
-0.0063638132517786555,-0.014863056518263149,
-0.0033456639541778045,-0.013325232640761778,
0*%
%ADD25COMP12090*%
%AMCOMP12091*
4,1,3,
0.013202952755905516,0.017139960629921257,
-0.013202952755905511,0.017139960629921264,
-0.013202952755905516,-0.017139960629921257,
0.013202952755905511,-0.017139960629921264,
0*%
%ADD26COMP12091*%
%AMCOMP12092*
4,1,3,
-0.025998228346456691,0.013202952755905517,
-0.0259982283464567,-0.013202952755905509,
0.025998228346456691,-0.013202952755905517,
0.0259982283464567,0.013202952755905509,
0*%
%ADD27COMP12092*%
%AMCOMP12093*
4,1,3,
0.01713996062992126,-0.013202952755905514,
0.01713996062992126,0.013202952755905514,
-0.01713996062992126,0.013202952755905514,
-0.01713996062992126,-0.013202952755905514,
0*%
%ADD28COMP12093*%
%AMCOMP12094*
4,1,3,
-0.017139960629921257,0.013202952755905516,
-0.017139960629921264,-0.013202952755905511,
0.017139960629921257,-0.013202952755905516,
0.017139960629921264,0.013202952755905511,
0*%
%ADD29COMP12094*%
%AMCOMP12095*
4,1,3,
-0.017139960629921257,0.013202952755905516,
-0.017139960629921264,-0.013202952755905511,
0.017139960629921257,-0.013202952755905516,
0.017139960629921264,0.013202952755905511,
0*%
%ADD40COMP12095*%
%AMCOMP12096*
4,1,3,
0.07874015748031496,-0.029527559055118117,
0.07874015748031496,0.029527559055118106,
-0.07874015748031496,0.029527559055118117,
-0.07874015748031496,-0.029527559055118106,
0*%
%ADD41COMP12096*%
%ADD42R,0.026405905511811028X0.03427992125984252*%
%AMCOMP12097*
4,1,3,
0.013202952755905516,0.017139960629921257,
-0.013202952755905511,0.017139960629921264,
-0.013202952755905516,-0.017139960629921257,
0.013202952755905511,-0.017139960629921264,
0*%
%ADD43COMP12097*%
%ADD44R,0.026405905511811028X0.05199645669291339*%
%AMCOMP12098*
4,1,3,
0.027559055118110239,0.019685039370078736,
-0.027559055118110232,0.019685039370078747,
-0.027559055118110239,-0.019685039370078736,
0.027559055118110232,-0.019685039370078747,
0*%
%ADD45COMP12098*%
%AMCOMP12099*
4,1,3,
0.01713996062992126,-0.013202952755905514,
0.01713996062992126,0.013202952755905514,
-0.01713996062992126,0.013202952755905514,
-0.01713996062992126,-0.013202952755905514,
0*%
%ADD46COMP12099*%
%AMCOMP12100*
4,1,3,
0.031496062992125991,-0.01377952755905512,
0.031496062992125991,0.013779527559055116,
-0.031496062992125991,0.01377952755905512,
-0.031496062992125991,-0.013779527559055116,
0*%
%ADD47COMP12100*%
%AMCOMP12101*
4,1,3,
-0.031496062992125984,0.023622047244094491,
-0.031496062992125991,-0.023622047244094484,
0.031496062992125984,-0.023622047244094491,
0.031496062992125991,0.023622047244094484,
0*%
%ADD48COMP12101*%
%AMCOMP12102*
4,1,3,
-0.027559055118110232,0.031496062992125991,
-0.027559055118110239,-0.031496062992125984,
0.027559055118110232,-0.031496062992125991,
0.027559055118110239,0.031496062992125984,
0*%
%ADD49COMP12102*%
%AMCOMP12103*
4,1,3,
-0.043307086614173235,0.0236220472440945,
-0.043307086614173235,-0.023622047244094481,
0.043307086614173235,-0.0236220472440945,
0.043307086614173235,0.023622047244094481,
0*%
%ADD50COMP12103*%
%ADD51R,0.027559055118110236X0.059055118110236227*%
%ADD52R,0.03937007874015748X0.031496062992125991*%
%ADD53R,0.048031496062992125X0.024409448818897637*%
%AMCOMP12104*
4,1,3,
-0.015748031496062995,0.0045275590551181136,
-0.015748031496062995,-0.0045275590551181076,
0.015748031496062995,-0.0045275590551181136,
0.015748031496062995,0.0045275590551181076,
0*%
%ADD54COMP12104*%
%AMCOMP12105*
4,1,3,
-0.013385826771653541,0.020669291338582682,
-0.01338582677165355,-0.020669291338582675,
0.013385826771653541,-0.020669291338582682,
0.01338582677165355,0.020669291338582675,
0*%
%ADD55COMP12105*%
%AMCOMP12106*
4,1,3,
-0.0051181102362204706,0.00984251968503937,
-0.005118110236220475,-0.00984251968503937,
0.0051181102362204706,-0.00984251968503937,
0.005118110236220475,0.00984251968503937,
0*%
%ADD56COMP12106*%
%AMCOMP12107*
4,1,3,
0.025196850393700791,0.010826771653543307,
-0.025196850393700791,0.01082677165354331,
-0.025196850393700791,-0.010826771653543307,
0.025196850393700791,-0.01082677165354331,
0*%
%ADD57COMP12107*%
%AMCOMP12108*
4,1,3,
0.029921259842519692,0.033070866141732283,
-0.029921259842519681,0.03307086614173229,
-0.029921259842519692,-0.033070866141732283,
0.029921259842519681,-0.03307086614173229,
0*%
%ADD58COMP12108*%
%AMCOMP12109*
4,1,3,
0.037007874015748038,0.033070866141732283,
-0.037007874015748024,0.03307086614173229,
-0.037007874015748038,-0.033070866141732283,
0.037007874015748024,-0.03307086614173229,
0*%
%ADD59COMP12109*%
%AMCOMP12110*
4,1,3,
-0.025054964687712313,-0.038974389514219152,
0.038974389514219152,0.02505496468771231,
0.025054964687712313,0.038974389514219152,
-0.038974389514219152,-0.02505496468771231,
0*%
%ADD60COMP12110*%
%AMCOMP12111*
4,1,3,
-0.0069597124132534244,-0.062637411719280792,
0.062637411719280792,0.0069597124132534157,
0.0069597124132534244,0.062637411719280792,
-0.062637411719280792,-0.0069597124132534157,
0*%
%ADD61COMP12111*%
%AMCOMP12112*
4,1,3,
-0.023622047244094488,0.011811023622047249,
-0.023622047244094488,-0.011811023622047241,
0.023622047244094488,-0.011811023622047249,
0.023622047244094488,0.011811023622047241,
0*%
%ADD62COMP12112*%
%ADD63R,0.07874015748031496X0.047244094488188976*%
%ADD64R,0.047244094488188976X0.07874015748031496*%
%ADD65R,0.035433070866141732X0.00984251968503937*%
%ADD66R,0.00984251968503937X0.035433070866141732*%
%ADD67R,0.035433070866141732X0.035433070866141732*%
%AMCOMP12113*
4,1,3,
-0.015748051181102354,0.039370098425196856,
-0.015748051181102368,-0.039370098425196856,
0.015748051181102354,-0.039370098425196856,
0.015748051181102368,0.039370098425196856,
0*%
%ADD78COMP12113*%
%AMCOMP12114*
4,1,3,
-0.015748051181102358,0.023622047244094491,
-0.015748051181102368,-0.023622047244094484,
0.015748051181102358,-0.023622047244094491,
0.015748051181102368,0.023622047244094484,
0*%
%ADD79COMP12114*%
%LPD*%
D10*
G01*
X003803Y000000D02*
X002522Y001248D03*
D11*
X002438Y001248D03*
D10*
X002522Y001609D03*
D11*
X002438Y001609D03*
D10*
X002840Y001609D03*
D11*
X002755Y001609D03*
D10*
X002522Y000526D03*
D11*
X002438Y000526D03*
D10*
X003100Y000707D03*
D11*
X003015Y000707D03*
D10*
X002840Y000346D03*
D11*
X002755Y000346D03*
D10*
X002840Y000526D03*
D11*
X002755Y000526D03*
D10*
X002840Y000707D03*
D11*
X002755Y000707D03*
D10*
X002522Y000887D03*
D11*
X002438Y000887D03*
D10*
X002840Y001248D03*
D11*
X002755Y001248D03*
D10*
X002840Y001068D03*
D11*
X002755Y001068D03*
D10*
X002840Y001429D03*
D11*
X002755Y001429D03*
D10*
X002522Y000165D03*
D11*
X002438Y000165D03*
D10*
X002522Y001068D03*
D11*
X002438Y001068D03*
D10*
X002522Y001429D03*
D11*
X002438Y001429D03*
D10*
X003100Y001068D03*
D11*
X003015Y001068D03*
D10*
X003100Y000887D03*
D11*
X003015Y000887D03*
D10*
X003100Y000346D03*
D11*
X003015Y000346D03*
D10*
X003100Y000165D03*
D11*
X003015Y000165D03*
D10*
X003100Y000526D03*
D11*
X003015Y000526D03*
D10*
X003100Y001248D03*
D11*
X003015Y001248D03*
D10*
X002522Y000346D03*
D11*
X002438Y000346D03*
D10*
X003100Y001609D03*
D11*
X003015Y001609D03*
D10*
X002840Y000887D03*
D11*
X002755Y000887D03*
D10*
X002840Y001789D03*
D11*
X002755Y001789D03*
D10*
X002840Y000165D03*
D11*
X002755Y000165D03*
D10*
X002522Y000707D03*
D11*
X002438Y000707D03*
D10*
X003100Y001789D03*
D11*
X003015Y001789D03*
D10*
X002522Y001789D03*
D11*
X002438Y001789D03*
D10*
X003100Y001429D03*
D11*
X003015Y001429D03*
D22*
G01*
X002933Y002933D02*
X003270Y003364D03*
X003337Y003364D03*
D23*
X003486Y003033D03*
X003486Y003114D03*
D24*
X002876Y003095D03*
X002876Y003063D03*
X002876Y003032D03*
X002876Y002999D03*
X002876Y002969D03*
X002876Y002937D03*
X002876Y002906D03*
X002876Y002875D03*
X002876Y002843D03*
X002876Y002812D03*
X002876Y002780D03*
D25*
X002941Y002715D03*
X002973Y002715D03*
X003004Y002715D03*
X003036Y002715D03*
X003067Y002715D03*
X003099Y002715D03*
X003130Y002715D03*
X003162Y002715D03*
X003193Y002715D03*
X003225Y002715D03*
X003255Y002715D03*
D24*
X003320Y002780D03*
X003320Y002812D03*
X003320Y002843D03*
X003320Y002875D03*
X003320Y002906D03*
X003320Y002937D03*
X003320Y002969D03*
X003320Y002999D03*
X003320Y003032D03*
X003320Y003063D03*
X003320Y003095D03*
D25*
X003255Y003160D03*
X003225Y003160D03*
X003193Y003160D03*
X003162Y003160D03*
X003130Y003160D03*
X003099Y003160D03*
X003067Y003160D03*
X003036Y003160D03*
X003004Y003160D03*
X002973Y003160D03*
X002941Y003160D03*
D26*
X002360Y003033D03*
X002293Y003033D03*
D27*
X003033Y003508D03*
X003033Y003426D03*
D26*
X002360Y002933D03*
X002293Y002933D03*
D22*
X003548Y002833D03*
X003615Y002833D03*
D26*
X002360Y002833D03*
X002293Y002833D03*
D22*
X003548Y003033D03*
X003615Y003033D03*
X003121Y002393D03*
X003188Y002393D03*
D23*
X003341Y002343D03*
X003341Y002426D03*
D26*
X003476Y003364D03*
X003409Y003364D03*
D27*
X002432Y003023D03*
X002432Y002939D03*
D28*
X002933Y003581D03*
X002933Y003648D03*
X003033Y003581D03*
X003033Y003648D03*
D29*
X002833Y002292D03*
X002833Y002225D03*
D22*
X003548Y002933D03*
X003615Y002933D03*
D28*
X002833Y003581D03*
X002833Y003648D03*
D22*
X003270Y003303D03*
X003337Y003303D03*
D29*
X002933Y002292D03*
X002933Y002225D03*
D26*
X003476Y003303D03*
X003409Y003303D03*
D29*
X003033Y002292D03*
X003033Y002225D03*
G04 next file*
%LPD*%
D40*
G01*
X-000006Y-000003D02*
X001818Y000785D03*
X001818Y000718D03*
D41*
X001372Y000684D03*
X001372Y000790D03*
D42*
X001035Y001729D03*
X001102Y001729D03*
D43*
X000719Y001354D03*
X000652Y001354D03*
D44*
X000875Y000487D03*
X000958Y000487D03*
D45*
X000703Y000988D03*
X000703Y001063D03*
X000617Y001025D03*
D40*
X000865Y000987D03*
X000865Y000920D03*
D44*
X001578Y000622D03*
X001660Y000622D03*
D42*
X001311Y000281D03*
X001377Y000281D03*
D45*
X000703Y000845D03*
X000703Y000920D03*
X000617Y000882D03*
D46*
X000912Y001151D03*
X000912Y001218D03*
D42*
X001311Y000336D03*
X001377Y000336D03*
D40*
X001078Y001218D03*
X001078Y001151D03*
D46*
X001155Y000404D03*
X001155Y000471D03*
X000998Y001151D03*
X000998Y001218D03*
D47*
X000512Y001268D03*
X000512Y001311D03*
X000512Y001354D03*
X000512Y001396D03*
X000512Y001441D03*
X000512Y001484D03*
X000512Y001527D03*
X000512Y001571D03*
X000512Y001614D03*
D48*
X000483Y001657D03*
D49*
X000483Y001083D03*
D50*
X000109Y001657D03*
X000065Y001047D03*
D40*
X000756Y000618D03*
X000756Y000551D03*
D43*
X001202Y000586D03*
X001135Y000586D03*
D46*
X000968Y000920D03*
X000968Y000987D03*
D42*
X001447Y000945D03*
X001514Y000945D03*
D40*
X000917Y000987D03*
X000917Y000920D03*
D51*
X001670Y000148D03*
X001729Y000148D03*
X001552Y000148D03*
D52*
X001497Y000125D03*
X001497Y000034D03*
X001784Y000125D03*
X001784Y000034D03*
D43*
X000719Y001527D03*
X000652Y001527D03*
D53*
X001188Y000223D03*
X001188Y000185D03*
X001188Y000148D03*
X001291Y000148D03*
X001291Y000223D03*
D54*
X001548Y000778D03*
X001548Y000758D03*
X001548Y000739D03*
X001548Y000719D03*
X001548Y000698D03*
X001664Y000778D03*
X001664Y000758D03*
X001664Y000739D03*
X001664Y000719D03*
X001664Y000698D03*
D55*
X001588Y000764D03*
X001588Y000713D03*
X001624Y000764D03*
X001624Y000713D03*
D56*
X001596Y000803D03*
X001596Y000673D03*
X001616Y000803D03*
X001616Y000673D03*
D57*
X001615Y000391D03*
X001615Y000466D03*
X001535Y000429D03*
D40*
X001818Y000667D03*
X001818Y000600D03*
D42*
X000877Y000561D03*
X000944Y000561D03*
X000426Y000762D03*
X000493Y000762D03*
D46*
X001098Y000404D03*
X001098Y000471D03*
D43*
X001377Y000448D03*
X001311Y000448D03*
D58*
X001022Y000344D03*
D59*
X000881Y000344D03*
D58*
X001040Y000219D03*
D59*
X000899Y000219D03*
D43*
X000719Y001308D03*
X000652Y001308D03*
X001514Y000890D03*
X001447Y000890D03*
D44*
X001447Y001008D03*
X001530Y001008D03*
D60*
X000318Y000412D03*
X000342Y000390D03*
X000364Y000368D03*
X000386Y000346D03*
X000409Y000323D03*
D61*
X000084Y000336D03*
X000237Y000489D03*
X000332Y000088D03*
X000485Y000241D03*
D43*
X001377Y000392D03*
X001311Y000392D03*
D44*
X001538Y000324D03*
X001621Y000324D03*
D43*
X000719Y001441D03*
X000652Y001441D03*
D62*
X000490Y000481D03*
X000490Y000443D03*
X000490Y000406D03*
X000580Y000406D03*
X000580Y000443D03*
X000580Y000481D03*
D43*
X001102Y001571D03*
X001035Y001571D03*
D42*
X001035Y001657D03*
X001102Y001657D03*
D63*
X001250Y001729D03*
X001250Y001650D03*
X001250Y001571D03*
X001250Y001493D03*
X001250Y001414D03*
X001250Y001335D03*
X001250Y001256D03*
X001250Y001178D03*
X001841Y001178D03*
X001841Y001256D03*
X001841Y001335D03*
X001841Y001414D03*
X001841Y001493D03*
X001841Y001571D03*
X001841Y001650D03*
X001841Y001729D03*
D64*
X001348Y001138D03*
X001427Y001138D03*
X001506Y001138D03*
X001585Y001138D03*
X001664Y001138D03*
X001743Y001138D03*
D42*
X001035Y001493D03*
X001102Y001493D03*
D44*
X000493Y000549D03*
X000575Y000549D03*
D42*
X001135Y000657D03*
X001202Y000657D03*
D65*
X000816Y000787D03*
X000816Y000767D03*
X000816Y000746D03*
X000816Y000728D03*
X000816Y000707D03*
X000816Y000688D03*
X000816Y000669D03*
X001006Y000669D03*
X001006Y000688D03*
X001006Y000707D03*
X001006Y000728D03*
X001006Y000746D03*
X001006Y000767D03*
X001006Y000787D03*
D66*
X000853Y000633D03*
X000873Y000633D03*
X000892Y000633D03*
X000912Y000633D03*
X000932Y000633D03*
X000951Y000633D03*
X000971Y000633D03*
X000971Y000822D03*
X000951Y000822D03*
X000932Y000822D03*
X000912Y000822D03*
X000892Y000822D03*
X000873Y000822D03*
X000853Y000822D03*
D67*
X000869Y000771D03*
X000912Y000771D03*
X000955Y000771D03*
X000869Y000728D03*
X000912Y000728D03*
X000955Y000728D03*
X000869Y000685D03*
X000912Y000685D03*
X000955Y000685D03*
D42*
X000426Y000698D03*
X000493Y000698D03*
D46*
X000778Y000920D03*
X000778Y000987D03*
G04 next file*
D78*
G01*
X000000Y001905D02*
X001248Y003185D03*
D79*
X001248Y003270D03*
D78*
X001609Y003185D03*
D79*
X001609Y003270D03*
D78*
X001609Y002867D03*
D79*
X001609Y002951D03*
D78*
X000526Y003185D03*
D79*
X000526Y003270D03*
D78*
X000707Y002608D03*
D79*
X000707Y002692D03*
D78*
X000346Y002867D03*
D79*
X000346Y002951D03*
D78*
X000526Y002867D03*
D79*
X000526Y002951D03*
D78*
X000707Y002867D03*
D79*
X000707Y002951D03*
D78*
X000887Y003185D03*
D79*
X000887Y003270D03*
D78*
X001248Y002867D03*
D79*
X001248Y002951D03*
D78*
X001068Y002867D03*
D79*
X001068Y002951D03*
D78*
X001429Y002867D03*
D79*
X001429Y002951D03*
D78*
X000165Y003185D03*
D79*
X000165Y003270D03*
D78*
X001068Y003185D03*
D79*
X001068Y003270D03*
D78*
X001429Y003185D03*
D79*
X001429Y003270D03*
D78*
X001068Y002608D03*
D79*
X001068Y002692D03*
D78*
X000887Y002608D03*
D79*
X000887Y002692D03*
D78*
X000346Y002608D03*
D79*
X000346Y002692D03*
D78*
X000165Y002608D03*
D79*
X000165Y002692D03*
D78*
X000526Y002608D03*
D79*
X000526Y002692D03*
D78*
X001248Y002608D03*
D79*
X001248Y002692D03*
D78*
X000346Y003185D03*
D79*
X000346Y003270D03*
D78*
X001609Y002608D03*
D79*
X001609Y002692D03*
D78*
X000887Y002867D03*
D79*
X000887Y002951D03*
D78*
X001789Y002867D03*
D79*
X001789Y002951D03*
D78*
X000165Y002867D03*
D79*
X000165Y002951D03*
D78*
X000707Y003185D03*
D79*
X000707Y003270D03*
D78*
X001789Y002608D03*
D79*
X001789Y002692D03*
D78*
X001789Y003185D03*
D79*
X001789Y003270D03*
D78*
X001429Y002608D03*
D79*
X001429Y002692D03*
M02*