<?xml version="1.0" encoding="UTF-8" standalone="no"?>
<svg
   xmlns:pcbmode="pcbmode"
   xmlns:dc="http://purl.org/dc/elements/1.1/"
   xmlns:cc="http://creativecommons.org/ns#"
   xmlns:rdf="http://www.w3.org/1999/02/22-rdf-syntax-ns#"
   xmlns:svg="http://www.w3.org/2000/svg"
   xmlns="http://www.w3.org/2000/svg"
   xmlns:sodipodi="http://sodipodi.sourceforge.net/DTD/sodipodi-0.dtd"
   xmlns:inkscape="http://www.inkscape.org/namespaces/inkscape"
   fill="black"
   height="37.99933mm"
   version="1.1"
   viewBox="0, 0, 38.000145, 37.99933"
   width="38.000145mm"
   id="svg6392"
   sodipodi:docname="drillhits.svg"
   inkscape:version="0.92.4 (5da689c313, 2019-01-14)">
  <metadata
     id="metadata6394">
    <rdf:RDF>
      <cc:Work
         rdf:about="">
        <dc:format>image/svg+xml</dc:format>
        <dc:type
           rdf:resource="http://purl.org/dc/dcmitype/StillImage" />
        <dc:title></dc:title>
      </cc:Work>
    </rdf:RDF>
  </metadata>
  <sodipodi:namedview
     id="namedview-pcbmode"
     showgrid="true"
     inkscape:document-units="mm"
     inkscape:window-maximized="0"
     inkscape:zoom="6.5729231"
     inkscape:cx="75.256725"
     inkscape:cy="73.909544"
     inkscape:window-width="756"
     inkscape:window-height="696"
     inkscape:window-x="-7"
     inkscape:window-y="40"
     inkscape:current-layer="g3980">
    <inkscape:grid
       emspacing="5"
       enabled="false"
       id="pcbmode-grid"
       spacingx="0.1mm"
       spacingy="0.1mm"
       type="xygrid"
       units="mm"
       visible="true" />
  </sodipodi:namedview>
  <!--
Hello! This SVG file was generated using PCBmodE version 4.1.dev170+g59ea5d5 on 2019-12-23 05:27:03 GMT.
PCBmodE is open source software

  http://pcbmode.com

and is maintained by Boldport

  http://boldport.com

-->
  <g
     inkscape:groupmode="layer"
     inkscape:label="top"
     transform="translate(19.0000725 18.999665)"
     pcbmode:pcb-layer="top"
     id="g5534">
    <g
       inkscape:groupmode="layer"
       inkscape:label="soldermask"
       style="stroke:#67E667;fill:#67E667;stroke-opacity:0.6;fill-opacity:0.6;"
       pcbmode:sheet="soldermask"
       id="g3980">
      <g
         transform="translate(3.201616,4.812292)"
         pcbmode:type="component-shapes"
         id="g3612">
        <path
           d="m 0.245712,0.476979 c -0.16080980702157033,0.21313025792487866 -0.4639480191797623,0.2555442775333169 -0.677078277104641,0.0947344705117466 -0.21313017809818102,-0.16080974679119306 -0.2555442775333169,-0.4639480191797623 -0.09473453074212385,-0.6770781972779434 0.16080980702157033,-0.21313025792487866 0.20395485793619444,-0.12648339792762028 0.9574662031093821,-0.46634848332824386 -0.1191920468819817,0.8465048668548655 -0.024843528010669746,0.8355618723428643 -0.18565339526261737,1.0486922100944405 z "
           style="stroke:none;"
           pcbmode:style="fill"
           transform="translate(0.0,-0.0)"
           id="path3610" />
      </g>
      <g
         transform="translate(5.584533,0.344272)"
         pcbmode:type="component-shapes"
         id="g3616">
        <path
           d="m -0.534636,-0.045248 c -0.0951255665278201,-0.24947029376300753 0.029995573663639807,-0.5288202982502083 0.2794658674266473,-0.6239458647780283 0.24947020032536096,-0.09512553089909281 0.5288202982502083,0.029995573663639807 0.623945829149301,0.2794657739890008 0.0951255665278201,0.24947029376300753 -0.0012033373988888235,0.2399878872072389 -0.11360482062846555,1.058922274168045 -0.6538257758212767,-0.5507168859955138 -0.6946812737909354,-0.4649717961783634 -0.7898068759474828,-0.7144421833790174 z "
           style="stroke:none;"
           pcbmode:style="fill"
           transform="translate(0.0,-0.0)"
           id="path3614" />
      </g>
      <g
         transform="translate(3.976502,0.745392)"
         pcbmode:type="component-shapes"
         id="g3620">
        <path
           d="m -0.489050,0.220712 c -0.20452712512166768,-0.17161863525534077 -0.2312046466141903,-0.4765449125369584 -0.059586011358849555,-0.6810720376586261 0.1716185709765798,-0.20452704851722336 0.4765449125369584,-0.2312046466141903 0.6810719610541818,-0.059586075637610536 0.20452712512166768,0.17161863525534077 0.11576458878825617,0.21022415182318122 0.4161996044605716,0.9803062415623568 -0.8392065530807333,-0.16281767384176787 -0.8331583524297919,-0.06802942873201845 -1.0376855541559038,-0.2396481282661202 z "
           style="stroke:none;"
           pcbmode:style="fill"
           transform="translate(0.0,-0.0)"
           id="path3618" />
      </g>
      <g
         transform="translate(-3.717576,4.458913)"
         pcbmode:type="component-shapes"
         id="g3624">
        <path
           d="m 0.535835,-0.027653 c 0.12806946219156687,0.23427017251755036 0.04197674089864489,0.5280043517854545 -0.1922934316189055,0.6560738139770214 -0.23427008477302075,0.1280694142238952 -0.5280043517854545,0.04197674089864489 -0.6560737660093496,-0.19229334387437585 -0.12806946219156687,-0.23427017251755036 -0.031344381308861,-0.23793520922186928 -0.03100859135511913,-1.064547277137761 0.7224529819967849,0.4569889741042371 0.7513062788241358,0.36649654677303567 0.8793757889833743,0.6007668070351155 z "
           style="stroke:none;"
           pcbmode:style="fill"
           transform="translate(0.0,-0.0)"
           id="path3622" />
      </g>
      <g
         transform="translate(-3.663353,-0.030585)"
         pcbmode:type="component-shapes"
         id="g3628">
        <path
           d="m -0.535044,0.040136 c -0.13349559999999996,-0.2312211617868918 -0.054273341027759464,-0.5268823841565919 0.17694782075913235,-0.6603779841565919 0.23122107518435145,-0.13349554999999996 0.5268823841565919,-0.054273341027759464 0.6603779341565919,0.17694773415659198 0.13349559999999996,0.2312211617868918 0.03688223529555784,0.23713990542861635 0.055815215843407984,1.0635351896762062 -0.7329092811018294,-0.440024112207149 -0.7596453207591323,-0.348883691286774 -0.8931409707591322,-0.5801049396762061 z "
           style="stroke:none;"
           pcbmode:style="fill"
           transform="translate(0.0,-0.0)"
           id="path3626" />
      </g>
      <g
         transform="translate(-5.946442,1.106143)"
         pcbmode:type="component-shapes"
         id="g3632">
        <path
           d="m -0.533885,-0.053383 c -0.09131636849069232,-0.25088966045477457 0.038043358827586526,-0.5283023236083345 0.2889330192823611,-0.6196186920990269 0.2508895664855125,-0.09131633428867798 0.5283023236083345,0.038043358827586526 0.6196186578970125,0.288932925313099 0.09131636849069232,0.25088966045477457 -0.004857001162301505,0.23994175036203974 -0.129713690273288,1.0570699109117312 -0.6453653570694051,-0.5606075182724266 -0.6875215842133791,-0.4754943897017668 -0.7788379869060856,-0.7263841441258034 z "
           style="stroke:none;"
           pcbmode:style="fill"
           transform="translate(0.0,-0.0)"
           id="path3630" />
      </g>
      <g
         transform="translate(-9.836729,-1.104106)"
         pcbmode:type="component-shapes"
         id="g3636">
        <path
           d="m -0.132436,-0.519946 c 0.20452712512166765,-0.1716186352553408 0.5094533900776019,-0.1449409728796129 0.6810720253329428,0.05958615224205471 0.17161857097657982,0.20452704851722334 0.1449409728796129,0.5094533900776019 -0.059586075637610425,0.6810719610541818 -0.20452712512166765,0.1716186352553408 -0.2271326844673266,0.07750082369727337 -1.0376854898771428,0.23964820487056465 0.3060707961554012,-0.7981841274979657 0.2116723384556985,-0.8086876186326994 0.41619954018181043,-0.9803063181668011 z "
           style="stroke:none;"
           pcbmode:style="fill"
           transform="translate(0.0,-0.0)"
           id="path3634" />
      </g>
      <g
         transform="translate(-9.659258263,-2.588190451)"
         pcbmode:type="component-shapes"
         id="g3640">
        <path
           d="m -0.040136,-0.535044 c 0.23122116178689173,-0.1334956000000001 0.5268823841565918,-0.05427334102775977 0.660377984156592,0.17694782075913193 0.1334955500000001,0.23122107518435134 0.05427334102775977,0.5268823841565918 -0.17694773415659157,0.660377934156592 -0.23122116178689173,0.1334956000000001 -0.23713990542861632,0.03688223529555798 -1.0635351896762062,0.05581521584340865 0.44002411220714854,-0.7329092811018296 0.34888369128677355,-0.7596453207591325 0.5801049396762057,-0.8931409707591326 z "
           style="stroke:none;"
           pcbmode:style="fill"
           transform="translate(0.0,-0.0)"
           id="path3638" />
      </g>
      <g
         transform="translate(-9.06307787,-4.226182617)"
         pcbmode:type="component-shapes"
         id="g3644">
        <path
           d="m 0.053383,-0.533885 c 0.2508896604547746,-0.09131636849069223 0.5283023236083345,0.03804335882758669 0.6196186920990268,0.2889330192823613 0.0913163342886779,0.2508895664855125 -0.03804335882758669,0.5283023236083345 -0.2889329253130992,0.6196186578970124 -0.2508896604547746,0.09131636849069223 -0.23994175036203974,-0.0048570011623015885 -1.0570699109117312,-0.12971369027328838 0.5606075182724268,-0.6453653570694049 0.47549438970176694,-0.6875215842133788 0.7263841441258037,-0.7788379869060853 z "
           style="stroke:none;"
           pcbmode:style="fill"
           transform="translate(0.0,-0.0)"
           id="path3642" />
      </g>
      <g
         transform="translate(-8.012637,-5.610546)"
         pcbmode:type="component-shapes"
         id="g3648">
        <path
           d="m 0.145280,-0.516505 c 0.262935003746033,-0.04636253533310693 0.5136700642911127,0.1292041304758249 0.5600325996242197,0.3921391342218579 0.046362517968289156,0.2629349052652577 -0.1292041304758249,0.5136700642911127 -0.3921390357410826,0.5600325822594019 -0.262935003746033,0.04636253533310693 -0.23545308662709669,-0.046448660097605586 -1.0184860978073877,-0.31130131154932494 0.664157148576089,-0.5382123332330548 0.5876574316974424,-0.5945078522340101 0.8505925339242507,-0.6408704049319349 z "
           style="stroke:none;"
           pcbmode:style="fill"
           transform="translate(0.0,-0.0)"
           id="path3646" />
      </g>
      <g
         transform="translate(-6.892184,-6.784854)"
         pcbmode:type="component-shapes"
         id="g3652">
        <path
           d="m 0.232763,-0.483430 c 0.2669912,-4.904548777207661e-17 0.48343020000000003,0.2164390999999999 0.4834302000000001,0.48343029999999987 4.9045469402374625e-17,0.2669911 -0.2164390999999999,0.48343020000000003 -0.48343019999999987,0.4834302000000001 -0.2669912,4.904548777207661e-17 -0.22381030000000002,-0.08662899999999996 -0.9489561000000001,-0.4834301999999998 0.7475266999999999,-0.41470600000000013 0.6819647999999999,-0.4834303000000001 0.9489560999999999,-0.48343030000000015 z "
           style="stroke:none;"
           pcbmode:style="fill"
           transform="translate(0.0,-0.0)"
           id="path3650" />
      </g>
      <g
         transform="translate(-5.601339,-7.702024)"
         pcbmode:type="component-shapes"
         id="g3656">
        <path
           d="m 0.313174,-0.435667 c 0.26293500374603307,0.04636253533310683 0.43850155370937194,0.2970976769941441 0.3921390183762651,0.5600326807401771 -0.046362517968289066,0.26293490526525776 -0.2970976769941441,0.43850155370937194 -0.5600325822594018,0.39213903574108283 -0.26293500374603307,-0.04636253533310683 -0.2053671506608797,-0.12417716157378347 -0.8505925512890689,-0.6408703064511593 0.8081830309111728,-0.27859903480830694 0.7555510129453972,-0.35766396272802525 1.0184861151722056,-0.3113014100301007 z "
           style="stroke:none;"
           pcbmode:style="fill"
           transform="translate(0.0,-0.0)"
           id="path3654" />
      </g>
      <g
         transform="translate(-0.7844016847,-9.961946981)"
         pcbmode:type="component-shapes"
         id="g3660">
        <path
           d="m 0.489050,-0.220712 c 0.2045271251216677,0.17161863525534074 0.23120464661419038,0.4765449125369584 0.059586011358849666,0.6810720376586261 -0.17161857097657976,0.2045270485172234 -0.4765449125369584,0.23120464661419038 -0.6810719610541818,0.05958607563761059 -0.2045271251216677,-0.17161863525534074 -0.11576458878825621,-0.21022415182318122 -0.4161996044605717,-0.9803062415623567 0.8392065530807333,0.16281767384176776 0.8331583524297919,0.06802942873201834 1.0376855541559038,0.23964812826612003 z "
           style="stroke:none;"
           pcbmode:style="fill"
           transform="translate(0.0,-0.0)"
           id="path3658" />
      </g>
      <g
         transform="translate(-3.803564356,-9.06307787)"
         pcbmode:type="component-shapes"
         id="g3664">
        <path
           d="m 0.384069,-0.374666 c 0.25088966045477457,0.09131636849069234 0.38024925960177697,0.3687290914115001 0.2889328911110846,0.6196187518662747 -0.09131633428867801,0.2508895664855125 -0.3687290914115001,0.38024925960177697 -0.6196186578970126,0.28893292531309894 -0.25088966045477457,-0.09131636849069234 -0.18068402436972097,-0.15795226292982342 -0.7263841783278177,-0.7788378929368236 0.8442831293884563,-0.13402697892187654 0.806180190689709,-0.22103018693525667 1.0570699451137457,-0.12971378424254998 z "
           style="stroke:none;"
           pcbmode:style="fill"
           transform="translate(0.0,-0.0)"
           id="path3662" />
      </g>
      <g
         transform="translate(-2.329371406,-9.659258263)"
         pcbmode:type="component-shapes"
         id="g3668">
        <path
           d="m 0.443294,-0.302281 c 0.23122116178689178,0.13349560000000002 0.31044328415659184,0.42915685897224054 0.17694768415659184,0.6603780207591323 -0.13349555000000002,0.23122107518435142 -0.42915685897224054,0.31044328415659184 -0.660377934156592,0.17694773415659185 -0.23122116178689178,-0.13349560000000002 -0.1505109054286163,-0.18692806470444215 -0.5801049896762059,-0.893140884156592 0.8547301122071489,0.014617418898170642 0.8323139912867741,-0.07768052075913218 1.0635352396762061,0.055815129240867845 z "
           style="stroke:none;"
           pcbmode:style="fill"
           transform="translate(0.0,-0.0)"
           id="path3666" />
      </g>
      <g
         transform="translate(0.7844016847,-9.961946981)"
         pcbmode:type="component-shapes"
         id="g3672">
        <path
           d="m 0.519946,-0.132436 c 0.17161863525534074,0.20452712512166768 0.14494097287961283,0.5094533900776019 -0.059586152242054824,0.6810720253329428 -0.20452704851722336,0.17161857097657976 -0.5094533900776019,0.14494097287961283 -0.6810719610541818,-0.059586075637610536 -0.17161863525534074,-0.20452712512166768 -0.0775008236972733,-0.2271326844673266 -0.23964820487056437,-1.0376854898771428 0.7981841274979656,0.30607079615540134 0.8086876186326992,0.21167233845569872 0.980306318166801,0.41619954018181066 z "
           style="stroke:none;"
           pcbmode:style="fill"
           transform="translate(0.0,-0.0)"
           id="path3670" />
      </g>
      <g
         transform="translate(2.329371406,-9.659258263)"
         pcbmode:type="component-shapes"
         id="g3676">
        <path
           d="m 0.535044,-0.040136 c 0.13349559999999996,0.2312211617868918 0.054273341027759464,0.5268823841565919 -0.17694782075913235,0.6603779841565919 -0.23122107518435145,0.13349554999999996 -0.5268823841565919,0.054273341027759464 -0.6603779341565919,-0.17694773415659198 -0.13349559999999996,-0.2312211617868918 -0.03688223529555784,-0.23713990542861635 -0.055815215843407984,-1.0635351896762062 0.7329092811018294,0.440024112207149 0.7596453207591323,0.348883691286774 0.8931409707591322,0.5801049396762061 z "
           style="stroke:none;"
           pcbmode:style="fill"
           transform="translate(0.0,-0.0)"
           id="path3674" />
      </g>
      <g
         transform="translate(3.803564356,-9.06307787)"
         pcbmode:type="component-shapes"
         id="g3680">
        <path
           d="m 0.535044,-0.040136 c 0.13349559999999996,0.2312211617868918 0.054273341027759464,0.5268823841565919 -0.17694782075913235,0.6603779841565919 -0.23122107518435145,0.13349554999999996 -0.5268823841565919,0.054273341027759464 -0.6603779341565919,-0.17694773415659198 -0.13349559999999996,-0.2312211617868918 -0.03688223529555784,-0.23713990542861635 -0.055815215843407984,-1.0635351896762062 0.7329092811018294,0.440024112207149 0.7596453207591323,0.348883691286774 0.8931409707591322,0.5801049396762061 z "
           style="stroke:none;"
           pcbmode:style="fill"
           transform="translate(0.0,-0.0)"
           id="path3678" />
      </g>
      <g
         transform="translate(5.849605,-8.039733)"
         pcbmode:type="component-shapes"
         id="g3684">
        <path
           d="m 0.516505,0.145280 c 0.04636253533310693,0.262935003746033 -0.1292041304758249,0.5136700642911127 -0.3921391342218579,0.5600325996242197 -0.2629349052652577,0.046362517968289156 -0.5136700642911127,-0.1292041304758249 -0.5600325822594019,-0.3921390357410826 -0.04636253533310693,-0.262935003746033 0.046448660097605586,-0.23545308662709669 0.31130131154932494,-1.0184860978073877 0.5382123332330548,0.664157148576089 0.5945078522340101,0.5876574316974424 0.6408704049319349,0.8505925339242507 z "
           style="stroke:none;"
           pcbmode:style="fill"
           transform="translate(0.0,-0.0)"
           id="path3682" />
      </g>
      <g
         transform="translate(7.071067812,-7.071067812)"
         pcbmode:type="component-shapes"
         id="g3688">
        <path
           d="m 0.483430,0.232763 c 0.0,0.2669912 -0.2164391,0.4834302 -0.4834303,0.4834302 -0.2669911,0.0 -0.4834302,-0.2164391 -0.4834302,-0.4834302 0.0,-0.2669912 0.086629,-0.2238103 0.4834302,-0.9489561 0.414706,0.7475267 0.4834303,0.6819648 0.4834303,0.9489561 z "
           style="stroke:none;"
           pcbmode:style="fill"
           transform="translate(0.0,-0.0)"
           id="path3686" />
      </g>
      <g
         transform="translate(8.191520443,-5.735764364)"
         pcbmode:type="component-shapes"
         id="g3692">
        <path
           d="m 0.435667,0.313174 c -0.04636253533310693,0.262935003746033 -0.29709767699414424,0.43850155370937177 -0.5600326807401772,0.39213901837626486 -0.2629349052652577,-0.046362517968289156 -0.43850155370937177,-0.29709767699414424 -0.3921390357410826,-0.5600325822594019 0.04636253533310693,-0.262935003746033 0.12417716157378353,-0.20536715066087968 0.6408703064511596,-0.8505925512890685 0.27859903480830667,0.8081830309111729 0.357663962728025,0.7555510129453974 0.31130141003010026,1.0184861151722056 z "
           style="stroke:none;"
           pcbmode:style="fill"
           transform="translate(0.0,-0.0)"
           id="path3690" />
      </g>
      <g
         transform="translate(9.06307787,-4.226182617)"
         pcbmode:type="component-shapes"
         id="g3696">
        <path
           d="m 0.374666,0.384069 c -0.09131636849069227,0.2508896604547746 -0.3687290914115,0.3802492596017771 -0.6196187518662746,0.2889328911110848 -0.2508895664855125,-0.09131633428867794 -0.3802492596017771,-0.3687290914115 -0.2889329253130991,-0.6196186578970125 0.09131636849069227,-0.2508896604547746 0.15795226292982337,-0.18068402436972103 0.7788378929368234,-0.7263841783278179 0.13402697892187676,0.8442831293884563 0.22103018693525692,0.8061801906897089 0.1297137842425503,1.0570699451137455 z "
           style="stroke:none;"
           pcbmode:style="fill"
           transform="translate(0.0,-0.0)"
           id="path3694" />
      </g>
      <g
         transform="translate(9.301491,-2.534525)"
         pcbmode:type="component-shapes"
         id="g3700">
        <path
           d="m 0.302281,0.443294 c -0.13349559999999996,0.2312211617868918 -0.42915685897224043,0.31044328415659195 -0.6603780207591323,0.17694768415659198 -0.23122107518435145,-0.13349554999999996 -0.31044328415659195,-0.42915685897224043 -0.17694773415659198,-0.6603779341565919 0.13349559999999996,-0.2312211617868918 0.18692806470444212,-0.15051090542861634 0.8931408841565919,-0.5801049896762062 -0.014617418898170476,0.854730112207149 0.07768052075913234,0.832313991286774 -0.05581512924086762,1.0635352396762061 z "
           style="stroke:none;"
           pcbmode:style="fill"
           transform="translate(0.0,-0.0)"
           id="path3698" />
      </g>
      <g
         transform="translate(9.49685,-0.978888)"
         pcbmode:type="component-shapes"
         id="g3704">
        <path
           d="m 0.220712,0.489050 c -0.17161863525534074,0.20452712512166768 -0.4765449125369584,0.23120464661419032 -0.6810720376586261,0.05958601135884961 -0.20452704851722336,-0.17161857097657976 -0.23120464661419032,-0.4765449125369584 -0.059586075637610536,-0.6810719610541818 0.17161863525534074,-0.20452712512166768 0.21022415182318122,-0.11576458878825618 0.9803062415623567,-0.4161996044605716 -0.16281767384176782,0.8392065530807332 -0.0680294287320184,0.8331583524297919 -0.2396481282661201,1.0376855541559038 z "
           style="stroke:none;"
           pcbmode:style="fill"
           transform="translate(0.0,-0.0)"
           id="path3702" />
      </g>
      <g
         transform="translate(9.71675,1.143325)"
         pcbmode:type="component-shapes"
         id="g3708">
        <path
           d="m 0.132436,0.519946 c -0.20452712512166768,0.17161863525534077 -0.509453390077602,0.14494097287961283 -0.6810720253329428,-0.059586152242054824 -0.1716185709765798,-0.20452704851722336 -0.14494097287961283,-0.509453390077602 0.059586075637610536,-0.6810719610541818 0.20452712512166768,-0.17161863525534077 0.2271326844673266,-0.07750082369727333 1.0376854898771428,-0.23964820487056449 -0.3060707961554013,0.7981841274979657 -0.21167233845569866,0.8086876186326993 -0.4161995401818106,0.980306318166801 z "
           style="stroke:none;"
           pcbmode:style="fill"
           transform="translate(0.0,-0.0)"
           id="path3706" />
      </g>
      <g
         transform="translate(9.659258263,2.588190451)"
         pcbmode:type="component-shapes"
         id="g3712">
        <path
           d="m 0.040136,0.535044 c -0.23122116178689178,0.13349560000000002 -0.5268823841565919,0.054273341027759575 -0.660377984156592,-0.1769478207591322 -0.13349555000000002,-0.23122107518435142 -0.054273341027759575,-0.5268823841565919 0.17694773415659185,-0.660377934156592 0.23122116178689178,-0.13349560000000002 0.23713990542861632,-0.0368822352955579 1.063535189676206,-0.055815215843408206 -0.4400241122071488,0.7329092811018294 -0.34888369128677393,0.7596453207591323 -0.5801049396762059,0.8931409707591323 z "
           style="stroke:none;"
           pcbmode:style="fill"
           transform="translate(0.0,-0.0)"
           id="path3710" />
      </g>
      <g
         transform="translate(9.06307787,4.226182617)"
         pcbmode:type="component-shapes"
         id="g3716">
        <path
           d="m -0.053383,0.533885 c -0.25088966045477457,0.0913163684906923 -0.5283023236083345,-0.038043358827586554 -0.6196186920990269,-0.28893301928236115 -0.09131633428867797,-0.2508895664855125 0.038043358827586554,-0.5283023236083345 0.288932925313099,-0.6196186578970125 0.25088966045477457,-0.0913163684906923 0.2399417503620397,0.004857001162301519 1.0570699109117312,0.12971369027328805 -0.5606075182724266,0.6453653570694051 -0.47549438970176683,0.687521584213379 -0.7263841441258034,0.7788379869060855 z "
           style="stroke:none;"
           pcbmode:style="fill"
           transform="translate(0.0,-0.0)"
           id="path3714" />
      </g>
      <g
         transform="translate(8.191520443,5.735764364)"
         pcbmode:type="component-shapes"
         id="g3720">
        <path
           d="m -0.145280,0.516505 c -0.262935003746033,0.04636253533310695 -0.5136700642911128,-0.12920413047582488 -0.5600325996242197,-0.39213913422185787 -0.046362517968289184,-0.2629349052652577 0.12920413047582488,-0.5136700642911128 0.39213903574108255,-0.560032582259402 0.262935003746033,-0.04636253533310695 0.23545308662709669,0.046448660097605565 1.018486097807388,0.3113013115493249 -0.6641571485760889,0.538212333233055 -0.5876574316974424,0.5945078522340103 -0.8505925339242507,0.6408704049319349 z "
           style="stroke:none;"
           pcbmode:style="fill"
           transform="translate(0.0,-0.0)"
           id="path3718" />
      </g>
      <g
         transform="translate(7.004754,6.735157)"
         pcbmode:type="component-shapes"
         id="g3724">
        <path
           d="m -0.232763,0.483430 c -0.2669912,1.634849592402554e-17 -0.4834302,-0.21643909999999997 -0.48343020000000003,-0.4834302999999999 -1.6348489800791545e-17,-0.2669911 0.21643909999999997,-0.4834302 0.4834301999999999,-0.48343020000000003 0.2669912,-1.634849592402554e-17 0.2238103,0.08662899999999998 0.9489561,0.4834301999999999 -0.7475267,0.4147060000000001 -0.6819648,0.48343030000000003 -0.9489561,0.48343030000000003 z "
           style="stroke:none;"
           pcbmode:style="fill"
           transform="translate(0.0,-0.0)"
           id="path3722" />
      </g>
      <g
         transform="translate(5.735764,7.708535)"
         pcbmode:type="component-shapes"
         id="g3728">
        <path
           d="m -0.313174,0.435667 c -0.262935003746033,-0.04636253533310692 -0.43850155370937177,-0.29709767699414424 -0.39213901837626486,-0.5600326807401772 0.04636251796828915,-0.2629349052652577 0.29709767699414424,-0.43850155370937177 0.5600325822594019,-0.39213903574108266 0.262935003746033,0.04636253533310692 0.20536715066087968,0.12417716157378353 0.8505925512890685,0.6408703064511596 -0.8081830309111729,0.27859903480830667 -0.7555510129453973,0.357663962728025 -1.0184861151722056,0.3113014100301003 z "
           style="stroke:none;"
           pcbmode:style="fill"
           transform="translate(0.0,-0.0)"
           id="path3726" />
      </g>
      <g
         transform="translate(3.947905,9.050429)"
         pcbmode:type="component-shapes"
         id="g3732">
        <path
           d="m -0.384069,0.374666 c -0.2508896604547746,-0.09131636849069227 -0.3802492596017771,-0.3687290914115 -0.2889328911110848,-0.6196187518662746 0.09131633428867794,-0.2508895664855125 0.3687290914115,-0.3802492596017771 0.6196186578970125,-0.2889329253130991 0.2508896604547746,0.09131636849069227 0.18068402436972103,0.15795226292982337 0.7263841783278179,0.7788378929368234 -0.8442831293884563,0.13402697892187676 -0.8061801906897089,0.22103018693525692 -1.0570699451137455,0.1297137842425503 z "
           style="stroke:none;"
           pcbmode:style="fill"
           transform="translate(0.0,-0.0)"
           id="path3730" />
      </g>
      <g
         transform="translate(2.588190451,9.659258263)"
         pcbmode:type="component-shapes"
         id="g3736">
        <path
           d="m -0.443294,0.302281 c -0.2312211617868918,-0.13349559999999994 -0.310443284156592,-0.4291568589722404 -0.17694768415659207,-0.6603780207591322 0.13349554999999994,-0.23122107518435145 0.4291568589722404,-0.310443284156592 0.6603779341565919,-0.17694773415659207 0.2312211617868918,0.13349559999999994 0.15051090542861637,0.18692806470444207 0.5801049896762063,0.8931408841565918 -0.8547301122071489,-0.014617418898170365 -0.8323139912867739,0.07768052075913245 -1.063535239676206,-0.055815129240867456 z "
           style="stroke:none;"
           pcbmode:style="fill"
           transform="translate(0.0,-0.0)"
           id="path3734" />
      </g>
      <g
         transform="translate(0.8715574275,9.961946981)"
         pcbmode:type="component-shapes"
         id="g3740">
        <path
           d="m -0.489050,0.220712 c -0.20452712512166768,-0.17161863525534077 -0.2312046466141903,-0.4765449125369584 -0.059586011358849555,-0.6810720376586261 0.1716185709765798,-0.20452704851722336 0.4765449125369584,-0.2312046466141903 0.6810719610541818,-0.059586075637610536 0.20452712512166768,0.17161863525534077 0.11576458878825617,0.21022415182318122 0.4161996044605716,0.9803062415623568 -0.8392065530807333,-0.16281767384176787 -0.8331583524297919,-0.06802942873201845 -1.0376855541559038,-0.2396481282661202 z "
           style="stroke:none;"
           pcbmode:style="fill"
           transform="translate(0.0,-0.0)"
           id="path3738" />
      </g>
      <g
         transform="translate(-0.817892,9.71151)"
         pcbmode:type="component-shapes"
         id="g3744">
        <path
           d="m -0.519946,0.132436 c -0.1716186352553408,-0.20452712512166765 -0.1449409728796129,-0.5094533900776019 0.05958615224205471,-0.6810720253329428 0.20452704851722334,-0.17161857097657982 0.5094533900776019,-0.1449409728796129 0.6810719610541818,0.059586075637610425 0.1716186352553408,0.20452712512166765 0.07750082369727337,0.2271326844673266 0.23964820487056465,1.0376854898771428 -0.7981841274979657,-0.3060707961554012 -0.8086876186326994,-0.2116723384556985 -0.9803063181668011,-0.41619954018181043 z "
           style="stroke:none;"
           pcbmode:style="fill"
           transform="translate(0.0,-0.0)"
           id="path3742" />
      </g>
      <g
         transform="translate(-2.284615,9.406279)"
         pcbmode:type="component-shapes"
         id="g3748">
        <path
           d="m -0.535044,0.040136 c -0.13349559999999996,-0.2312211617868918 -0.054273341027759464,-0.5268823841565919 0.17694782075913235,-0.6603779841565919 0.23122107518435145,-0.13349554999999996 0.5268823841565919,-0.054273341027759464 0.6603779341565919,0.17694773415659198 0.13349559999999996,0.2312211617868918 0.03688223529555784,0.23713990542861635 0.055815215843407984,1.0635351896762062 -0.7329092811018294,-0.440024112207149 -0.7596453207591323,-0.348883691286774 -0.8931409707591322,-0.5801049396762061 z "
           style="stroke:none;"
           pcbmode:style="fill"
           transform="translate(0.0,-0.0)"
           id="path3746" />
      </g>
      <g
         transform="translate(-3.88466,8.848045)"
         pcbmode:type="component-shapes"
         id="g3752">
        <path
           d="m -0.533885,-0.053383 c -0.09131636849069232,-0.25088966045477457 0.038043358827586526,-0.5283023236083345 0.2889330192823611,-0.6196186920990269 0.2508895664855125,-0.09131633428867798 0.5283023236083345,0.038043358827586526 0.6196186578970125,0.288932925313099 0.09131636849069232,0.25088966045477457 -0.004857001162301505,0.23994175036203974 -0.129713690273288,1.0570699109117312 -0.6453653570694051,-0.5606075182724266 -0.6875215842133791,-0.4754943897017668 -0.7788379869060856,-0.7263841441258034 z "
           style="stroke:none;"
           pcbmode:style="fill"
           transform="translate(0.0,-0.0)"
           id="path3750" />
      </g>
      <g
         transform="translate(-5.811658,7.925892)"
         pcbmode:type="component-shapes"
         id="g3756">
        <path
           d="m -0.516505,-0.145280 c -0.04636253533310691,-0.262935003746033 0.12920413047582496,-0.5136700642911127 0.392139134221858,-0.5600325996242197 0.2629349052652577,-0.04636251796828914 0.5136700642911127,0.12920413047582496 0.5600325822594019,0.39213903574108266 0.04636253533310691,0.262935003746033 -0.0464486600976056,0.23545308662709669 -0.31130131154932505,1.0184860978073877 -0.5382123332330548,-0.664157148576089 -0.5945078522340101,-0.5876574316974426 -0.6408704049319348,-0.8505925339242508 z "
           style="stroke:none;"
           pcbmode:style="fill"
           transform="translate(0.0,-0.0)"
           id="path3754" />
      </g>
      <g
         transform="translate(-7.071067812,7.071067812)"
         pcbmode:type="component-shapes"
         id="g3760">
        <path
           d="m -0.483430,-0.232763 c -3.269699184805108e-17,-0.2669912 0.21643909999999994,-0.4834302 0.4834302999999999,-0.48343020000000003 0.2669911,-3.269697960158309e-17 0.4834302,0.21643909999999994 0.48343020000000003,0.4834301999999999 3.269699184805108e-17,0.2669912 -0.08662899999999997,0.2238103 -0.48343019999999987,0.9489561000000001 -0.41470600000000013,-0.7475267 -0.4834303000000001,-0.6819647999999999 -0.4834303000000001,-0.9489560999999999 z "
           style="stroke:none;"
           pcbmode:style="fill"
           transform="translate(0.0,-0.0)"
           id="path3758" />
      </g>
      <g
         transform="translate(-8.191520443,5.735764364)"
         pcbmode:type="component-shapes"
         id="g3764">
        <path
           d="m -0.435667,-0.313174 c 0.04636253533310696,-0.262935003746033 0.2970976769941443,-0.4385015537093717 0.5600326807401773,-0.3921390183762648 0.2629349052652577,0.0463625179682892 0.4385015537093717,0.2970976769941443 0.39213903574108255,0.560032582259402 -0.04636253533310696,0.262935003746033 -0.12417716157378357,0.20536715066087965 -0.6408703064511597,0.8505925512890684 -0.27859903480830656,-0.808183030911173 -0.35766396272802486,-0.7555510129453974 -0.31130141003010015,-1.0184861151722058 z "
           style="stroke:none;"
           pcbmode:style="fill"
           transform="translate(0.0,-0.0)"
           id="path3762" />
      </g>
      <g
         transform="translate(-9.06307787,4.226182617)"
         pcbmode:type="component-shapes"
         id="g3768">
        <path
           d="m -0.374666,-0.384069 c 0.09131636849069226,-0.2508896604547746 0.36872909141149995,-0.3802492596017771 0.6196187518662746,-0.28893289111108483 0.2508895664855125,0.09131633428867793 0.3802492596017771,0.36872909141149995 0.28893292531309916,0.6196186578970124 -0.09131636849069226,0.2508896604547746 -0.15795226292982337,0.18068402436972103 -0.7788378929368234,0.726384178327818 -0.13402697892187682,-0.8442831293884563 -0.22103018693525694,-0.8061801906897088 -0.12971378424255037,-1.0570699451137455 z "
           style="stroke:none;"
           pcbmode:style="fill"
           transform="translate(0.0,-0.0)"
           id="path3766" />
      </g>
      <g
         transform="translate(-9.301491,2.48086)"
         pcbmode:type="component-shapes"
         id="g3772">
        <path
           d="m -0.302281,-0.443294 c 0.13349560000000002,-0.23122116178689178 0.42915685897224054,-0.31044328415659184 0.6603780207591323,-0.17694768415659184 0.23122107518435142,0.13349555000000002 0.31044328415659184,0.42915685897224054 0.17694773415659185,0.660377934156592 -0.13349560000000002,0.23122116178689178 -0.18692806470444215,0.1505109054286163 -0.893140884156592,0.5801049896762059 0.014617418898170642,-0.8547301122071489 -0.07768052075913218,-0.8323139912867741 0.055815129240867845,-1.0635352396762061 z "
           style="stroke:none;"
           pcbmode:style="fill"
           transform="translate(0.0,-0.0)"
           id="path3770" />
      </g>
      <g
         transform="translate(-9.461073,1.014664)"
         pcbmode:type="component-shapes"
         id="g3776">
        <path
           d="m -0.220712,-0.489050 c 0.17161863525534074,-0.20452712512166768 0.4765449125369584,-0.23120464661419032 0.6810720376586261,-0.05958601135884961 0.20452704851722336,0.17161857097657976 0.23120464661419032,0.4765449125369584 0.059586075637610536,0.6810719610541818 -0.17161863525534074,0.20452712512166768 -0.21022415182318122,0.11576458878825618 -0.9803062415623567,0.4161996044605716 0.16281767384176782,-0.8392065530807332 0.0680294287320184,-0.8331583524297919 0.2396481282661201,-1.0376855541559038 z "
           style="stroke:none;"
           pcbmode:style="fill"
           transform="translate(0.0,-0.0)"
           id="path3774" />
      </g>
      <path
         inkscape:connector-curvature="0"
         id="path7212"
         d="m -9.1852894,1.7957702 c -0.2290854,0 -0.4198757,0.1597203 -0.4697385,0.3736205 -0.00633,0.033187 -0.013436,0.063918 -0.013436,0.1100709 0,0.2669911 0.2161833,0.4831747 0.4831743,0.4831747 0.043552,0 0.070975,-0.00651 0.1018026,-0.011369 0.2180992,-0.046754 0.3818888,-0.2397426 0.3818888,-0.4718058 0,-0.1511522 -0.030697,-0.2091608 -0.1250569,-0.3550171 -0.1448046,-0.093886 -0.2089251,-0.1286743 -0.3586343,-0.1286742 z"
         style="fill:#009999;fill-opacity:0.6;stroke:none;stroke-width:1" />
      <path
         style="fill:#009999;fill-opacity:0.6;stroke:none;stroke-width:1"
         d="m -9.3117057,0.35291549 c -0.2290854,0 -0.4198757,0.1597203 -0.4697385,0.3736205 -0.00633,0.033187 -0.013436,0.063918 -0.013436,0.1100709 0,0.26699111 0.2161833,0.48317471 0.4831743,0.48317471 0.043552,0 0.070975,-0.00651 0.1018026,-0.011369 0.2180992,-0.046754 0.3818888,-0.2397426 0.3818888,-0.47180581 0,-0.1511522 -0.030697,-0.2091608 -0.1250569,-0.3550171 -0.1448046,-0.093886 -0.2089251,-0.1286743 -0.3586343,-0.1286742 z"
         id="path7214"
         inkscape:connector-curvature="0" />
      <path
         style="fill:#009999;fill-opacity:0.6;stroke:none;stroke-width:1"
         d="m -9.4578594,-3.1880825 c -0.2290855,0 -0.4198758,0.1597203 -0.4697386,0.3736205 -0.00633,0.033187 -0.013436,0.063918 -0.013436,0.1100709 0,0.2669911 0.2161833,0.4831747 0.4831744,0.4831747 0.043552,0 0.070975,-0.00651 0.1018026,-0.011369 0.2180992,-0.046754 0.3818888,-0.2397426 0.3818888,-0.4718058 0,-0.1511522 -0.030697,-0.2091608 -0.1250569,-0.3550171 -0.1448046,-0.093886 -0.2089251,-0.1286743 -0.3586343,-0.1286742 z"
         id="path7218"
         inkscape:connector-curvature="0" />
      <path
         inkscape:connector-curvature="0"
         id="path7220"
         d="m -8.8444814,-4.7893536 c -0.2290855,0 -0.4198758,0.1597203 -0.4697386,0.3736205 -0.00633,0.033187 -0.013436,0.063918 -0.013436,0.1100709 0,0.2669911 0.2161833,0.4831747 0.4831744,0.4831747 0.043552,0 0.070975,-0.00651 0.1018026,-0.011369 0.2180992,-0.046754 0.3818888,-0.2397426 0.3818888,-0.4718058 0,-0.1511522 -0.030697,-0.2091608 -0.1250569,-0.3550171 -0.1448046,-0.093886 -0.2089251,-0.1286743 -0.3586343,-0.1286742 z"
         style="fill:#009999;fill-opacity:0.6;stroke:none;stroke-width:1" />
      <path
         style="fill:#009999;fill-opacity:0.6;stroke:none;stroke-width:1"
         d="m -7.7835904,-6.1344762 c -0.2290855,0 -0.4198758,0.1597203 -0.4697386,0.3736205 -0.00633,0.033187 -0.013436,0.063918 -0.013436,0.1100709 0,0.2669911 0.2161833,0.4831747 0.4831744,0.4831747 0.043552,0 0.070975,-0.00651 0.1018026,-0.011369 0.2180992,-0.046754 0.3818888,-0.2397426 0.3818888,-0.4718058 0,-0.1511522 -0.030697,-0.2091608 -0.1250569,-0.3550171 -0.1448046,-0.093886 -0.2089251,-0.1286743 -0.3586343,-0.1286742 z"
         id="path7222"
         inkscape:connector-curvature="0" />
      <path
         inkscape:connector-curvature="0"
         id="path7224"
         d="m -6.659682,-7.2682896 c -0.2290855,0 -0.4198758,0.1597203 -0.4697386,0.3736205 -0.00633,0.033187 -0.013436,0.063918 -0.013436,0.1100709 0,0.2669911 0.2161833,0.4831747 0.4831744,0.4831747 0.043552,0 0.070975,-0.00651 0.1018026,-0.011369 0.2180992,-0.046754 0.3818888,-0.2397426 0.3818888,-0.4718058 0,-0.1511522 -0.030697,-0.2091608 -0.1250569,-0.3550171 -0.1448046,-0.093886 -0.2089251,-0.1286743 -0.3586343,-0.1286742 z"
         style="fill:#009999;fill-opacity:0.6;stroke:none;stroke-width:1" />
      <path
         style="fill:#009999;fill-opacity:0.6;stroke:none;stroke-width:1"
         d="m -5.372292,-8.1449602 c -0.2290854,0 -0.4198757,0.1597203 -0.4697385,0.3736205 -0.00633,0.033187 -0.013436,0.063918 -0.013436,0.1100709 0,0.2669911 0.2161833,0.4831747 0.4831743,0.4831747 0.043552,0 0.070975,-0.00651 0.1018026,-0.011369 0.2180992,-0.046754 0.3818888,-0.2397426 0.3818888,-0.4718058 0,-0.1511522 -0.030697,-0.2091608 -0.1250569,-0.3550171 -0.1448046,-0.093886 -0.2089251,-0.1286743 -0.3586343,-0.1286742 z"
         id="path7226"
         inkscape:connector-curvature="0" />
      <path
         inkscape:connector-curvature="0"
         id="path7228"
         d="m -3.5849677,-9.4667723 c -0.2290854,0 -0.4198757,0.1597203 -0.4697385,0.3736205 -0.00633,0.033187 -0.013436,0.063918 -0.013436,0.1100709 0,0.2669911 0.2161833,0.4831747 0.4831743,0.4831747 0.043552,0 0.070975,-0.00651 0.1018026,-0.011369 0.2180992,-0.046754 0.3818888,-0.2397426 0.3818888,-0.4718058 0,-0.1511522 -0.030697,-0.2091608 -0.1250569,-0.3550171 -0.1448046,-0.093886 -0.2089251,-0.1286743 -0.3586343,-0.1286742 z"
         style="fill:#009999;fill-opacity:0.6;stroke:none;stroke-width:1" />
      <path
         style="fill:#009999;fill-opacity:0.6;stroke:none;stroke-width:1"
         d="m -2.1279728,-10.026232 c -0.2290855,0 -0.4198758,0.1597208 -0.4697386,0.373621 -0.00633,0.033187 -0.013436,0.063918 -0.013436,0.1100709 0,0.2669911 0.2161833,0.4831747 0.4831744,0.4831747 0.043552,0 0.070975,-0.00651 0.1018026,-0.011369 0.2180992,-0.046754 0.3818888,-0.2397426 0.3818888,-0.4718058 0,-0.1511522 -0.030697,-0.2091608 -0.1250569,-0.3550171 -0.1448046,-0.093886 -0.2089251,-0.1286747 -0.3586343,-0.1286747 z"
         id="path7230"
         inkscape:connector-curvature="0" />
      <path
         style="fill:#009999;fill-opacity:0.6;stroke:none;stroke-width:1"
         d="m 2.4455723,-9.9410343 c -0.2290855,0 -0.4198758,0.1597203 -0.4697386,0.3736205 -0.00633,0.033187 -0.013436,0.063918 -0.013436,0.1100709 0,0.2669911 0.2161833,0.4831747 0.4831744,0.4831747 0.043552,0 0.070975,-0.00651 0.1018026,-0.011369 0.2180992,-0.046754 0.3818888,-0.2397426 0.3818888,-0.4718058 0,-0.1511522 -0.030697,-0.2091608 -0.1250569,-0.3550171 C 2.659402,-9.9062461 2.5952815,-9.9410344 2.4455723,-9.9410343 Z"
         id="path7234"
         inkscape:connector-curvature="0" />
      <path
         style="fill:#009999;fill-opacity:0.6;stroke:none;stroke-width:1"
         d="m -0.96777584,9.0497616 c -0.22908546,0 -0.41987576,0.1597203 -0.46973856,0.3736205 -0.00633,0.033187 -0.013436,0.063918 -0.013436,0.1100709 0,0.2669911 0.2161833,0.483175 0.48317436,0.483175 0.043552,0 0.070975,-0.0065 0.1018026,-0.01137 0.2180992,-0.046754 0.3818888,-0.2397429 0.3818888,-0.4718061 0,-0.1511522 -0.030697,-0.2091608 -0.1250569,-0.3550171 -0.1448046,-0.093886 -0.2089251,-0.1286743 -0.3586343,-0.1286742 z"
         id="path7240"
         inkscape:connector-curvature="0" />
      <path
         inkscape:connector-curvature="0"
         id="path7242"
         d="m -2.4013325,8.7211889 c -0.2290855,0 -0.4198758,0.1597203 -0.4697386,0.3736205 -0.00633,0.033187 -0.013436,0.063918 -0.013436,0.1100709 0,0.2669911 0.2161833,0.4831747 0.4831744,0.4831747 0.043552,0 0.070975,-0.00651 0.1018026,-0.011369 0.2180992,-0.046754 0.3818888,-0.2397426 0.3818888,-0.4718058 0,-0.1511522 -0.030697,-0.2091608 -0.1250569,-0.3550171 -0.1448046,-0.093886 -0.2089251,-0.1286743 -0.3586343,-0.1286742 z"
         style="fill:#009999;fill-opacity:0.6;stroke:none;stroke-width:1" />
      <path
         style="fill:#009999;fill-opacity:0.6;stroke:none;stroke-width:1"
         d="m -3.9646564,8.1457573 c -0.2290855,0 -0.4198758,0.1597203 -0.4697386,0.3736205 -0.00633,0.033187 -0.013436,0.063918 -0.013436,0.1100709 0,0.2669911 0.2161833,0.4831747 0.4831744,0.4831747 0.043552,0 0.070975,-0.00651 0.1018026,-0.011369 0.2180992,-0.046754 0.3818888,-0.2397426 0.3818888,-0.4718058 0,-0.1511522 -0.030697,-0.2091608 -0.1250569,-0.3550171 -0.1448046,-0.093886 -0.2089251,-0.1286743 -0.3586343,-0.1286742 z"
         id="path7244"
         inkscape:connector-curvature="0" />
      <path
         inkscape:connector-curvature="0"
         id="path7246"
         d="m -5.8524136,7.2131542 c -0.2290855,0 -0.4198758,0.1597203 -0.4697386,0.3736205 -0.00633,0.033187 -0.013436,0.063918 -0.013436,0.1100709 0,0.2669911 0.2161833,0.4831747 0.4831744,0.4831747 0.043552,0 0.070975,-0.00651 0.1018026,-0.011369 0.2180992,-0.046754 0.3818888,-0.2397426 0.3818888,-0.4718058 0,-0.1511522 -0.030697,-0.2091608 -0.1250569,-0.3550171 -0.1448046,-0.093886 -0.2089251,-0.1286743 -0.3586343,-0.1286742 z"
         style="fill:#009999;fill-opacity:0.6;stroke:none;stroke-width:1" />
      <path
         style="fill:#009999;fill-opacity:0.6;stroke:none;stroke-width:1"
         d="m -7.0713285,6.3548746 c -0.2290855,0 -0.4198758,0.1597203 -0.4697386,0.3736205 -0.00633,0.033187 -0.013436,0.063918 -0.013436,0.1100709 0,0.2669911 0.2161833,0.4831747 0.4831744,0.4831747 0.043552,0 0.070975,-0.00651 0.1018026,-0.011369 0.2180992,-0.046754 0.3818888,-0.2397426 0.3818888,-0.4718058 0,-0.1511522 -0.030697,-0.2091608 -0.1250569,-0.3550171 -0.1448046,-0.093886 -0.2089251,-0.1286743 -0.3586343,-0.1286742 z"
         id="path7248"
         inkscape:connector-curvature="0" />
      <path
         inkscape:connector-curvature="0"
         id="path7250"
         d="m -8.1512817,5.0230261 c -0.2290855,0 -0.4198758,0.1597203 -0.4697386,0.3736205 -0.00633,0.033187 -0.013436,0.063918 -0.013436,0.1100709 0,0.2669911 0.2161833,0.4831747 0.4831744,0.4831747 0.043552,0 0.070975,-0.00651 0.1018026,-0.011369 0.2180992,-0.046754 0.3818888,-0.2397426 0.3818888,-0.4718058 0,-0.1511522 -0.030697,-0.2091608 -0.1250569,-0.3550171 C -7.937452,5.0578143 -8.0015725,5.023026 -8.1512817,5.0230261 Z"
         style="fill:#009999;fill-opacity:0.6;stroke:none;stroke-width:1" />
      <path
         style="fill:#009999;fill-opacity:0.6;stroke:none;stroke-width:1"
         d="m -8.9835974,3.5238947 c -0.2290855,0 -0.4198758,0.1597203 -0.4697386,0.3736205 -0.00633,0.033187 -0.013436,0.063918 -0.013436,0.1100709 0,0.2669911 0.2161833,0.4831747 0.4831744,0.4831747 0.043552,0 0.070975,-0.00651 0.1018026,-0.011369 0.2180992,-0.046754 0.3818888,-0.2397426 0.3818888,-0.4718058 0,-0.1511522 -0.030697,-0.2091608 -0.1250569,-0.3550171 -0.1448046,-0.093886 -0.2089251,-0.1286743 -0.3586343,-0.1286742 z"
         id="path7252"
         inkscape:connector-curvature="0" />
      <path
         inkscape:connector-curvature="0"
         id="path7254"
         d="m -6.0264384,0.40385534 c -0.2290855,0 -0.4198758,0.1597203 -0.4697386,0.3736205 -0.00633,0.033187 -0.013436,0.063918 -0.013436,0.1100709 0,0.26699106 0.2161833,0.48317466 0.4831744,0.48317466 0.043552,0 0.070975,-0.00651 0.1018026,-0.011369 0.2180992,-0.046754 0.3818888,-0.2397426 0.3818888,-0.47180576 0,-0.1511522 -0.030697,-0.2091608 -0.1250569,-0.3550171 -0.1448046,-0.093886 -0.2089251,-0.1286743 -0.3586343,-0.1286742 z"
         style="fill:#009999;fill-opacity:0.6;stroke:none;stroke-width:1" />
      <path
         style="fill:#009999;fill-opacity:0.6;stroke:none;stroke-width:1"
         d="m -3.6060945,4.1798054 c -0.2290855,0 -0.4198758,0.1597203 -0.4697386,0.3736205 -0.00633,0.033187 -0.013436,0.063918 -0.013436,0.1100709 0,0.2669911 0.2161833,0.4831747 0.4831744,0.4831747 0.043552,0 0.070975,-0.00651 0.1018026,-0.011369 0.2180992,-0.046754 0.3818888,-0.2397426 0.3818888,-0.4718058 0,-0.1511522 -0.030697,-0.2091608 -0.1250569,-0.3550171 -0.1448046,-0.093886 -0.2089251,-0.1286743 -0.3586343,-0.1286742 z"
         id="path7256"
         inkscape:connector-curvature="0" />
      <path
         inkscape:connector-curvature="0"
         id="path7258"
         d="m -3.7800705,-0.71567506 c -0.2290855,0 -0.4198758,0.1597203 -0.4697386,0.3736205 -0.00633,0.033187 -0.013436,0.063918 -0.013436,0.1100709 0,0.2669911 0.2161833,0.4831747 0.4831744,0.4831747 0.043552,0 0.070975,-0.00651 0.1018026,-0.011369 0.2180992,-0.046754 0.3818888,-0.239742599752 0.3818888,-0.4718058 0,-0.1511522 -0.030697,-0.2091608 -0.1250569,-0.3550171 -0.1448046,-0.093886 -0.2089251,-0.1286743 -0.3586343,-0.1286742 z"
         style="fill:#009999;fill-opacity:0.6;stroke:none;stroke-width:1" />
      <path
         style="fill:#009999;fill-opacity:0.6;stroke:none;stroke-width:1"
         d="m 5.5012166,-0.35677683 c -0.2290855,0 -0.4198758,0.1597203 -0.4697386,0.3736205 -0.00633,0.033187 -0.013436,0.063918 -0.013436,0.1100709 0,0.2669911 0.2161833,0.4831747 0.4831744,0.4831747 0.043552,0 0.070975,-0.00651 0.1018026,-0.011369 0.2180992,-0.046754 0.3818888,-0.2397426 0.3818888,-0.4718058 0,-0.1511522 -0.030697,-0.2091608 -0.1250569,-0.3550171 -0.1448046,-0.093886 -0.2089251,-0.1286743 -0.3586343,-0.1286742 z"
         id="path7260"
         inkscape:connector-curvature="0" />
      <path
         inkscape:connector-curvature="0"
         id="path7262"
         d="m 3.7979281,0.11233346 c -0.2290855,0 -0.4198758,0.1597203 -0.4697386,0.3736205 -0.00633,0.033187 -0.013436,0.063918 -0.013436,0.1100709 0,0.2669911 0.2161833,0.48317474 0.4831744,0.48317474 0.043552,0 0.070975,-0.00651 0.1018026,-0.011369 0.2180992,-0.046754 0.3818888,-0.23974264 0.3818888,-0.47180584 0,-0.1511522 -0.030697,-0.2091608 -0.1250569,-0.3550171 -0.1448046,-0.093886 -0.2089251,-0.1286743 -0.3586343,-0.1286742 z"
         style="fill:#009999;fill-opacity:0.6;stroke:none;stroke-width:1" />
      <path
         style="fill:#009999;fill-opacity:0.6;stroke:none;stroke-width:1"
         d="m 3.0611386,4.5146907 c -0.2290855,0 -0.4198758,0.1597203 -0.4697386,0.3736205 -0.00633,0.033187 -0.013436,0.063918 -0.013436,0.1100709 0,0.2669911 0.2161833,0.4831747 0.4831744,0.4831747 0.043552,0 0.070975,-0.00651 0.1018026,-0.011369 0.2180992,-0.046754 0.3818888,-0.2397426 0.3818888,-0.4718058 0,-0.1511522 -0.030697,-0.2091608 -0.1250569,-0.3550171 C 3.2749683,4.5494789 3.2108478,4.5146906 3.0611386,4.5146907 Z"
         id="path7264"
         inkscape:connector-curvature="0" />
      <path
         inkscape:connector-curvature="0"
         id="path7266"
         d="m 6.7717354,6.2517265 c -0.2290855,0 -0.4198758,0.1597203 -0.4697386,0.3736205 -0.00633,0.033187 -0.013436,0.063918 -0.013436,0.1100709 0,0.2669911 0.2161833,0.4831747 0.4831744,0.4831747 0.043552,0 0.070975,-0.00651 0.1018026,-0.011369 C 7.091637,7.1604696 7.2554266,6.967481 7.2554266,6.7354178 7.2554266,6.5842656 7.2247296,6.526257 7.1303697,6.3804007 6.9855651,6.2865147 6.9214446,6.2517264 6.7717354,6.2517265 Z"
         style="fill:#009999;fill-opacity:0.6;stroke:none;stroke-width:1" />
      <path
         style="fill:#009999;fill-opacity:0.6;stroke:none;stroke-width:1"
         d="m 5.5062004,7.1846051 c -0.2290855,0 -0.4198758,0.1597203 -0.4697386,0.3736205 -0.00633,0.033187 -0.013436,0.063918 -0.013436,0.1100709 0,0.2669911 0.2161833,0.4831747 0.4831744,0.4831747 0.043552,0 0.070975,-0.00651 0.1018026,-0.011369 0.2180992,-0.046754 0.3818888,-0.2397426 0.3818888,-0.4718058 0,-0.1511522 -0.030697,-0.2091608 -0.1250569,-0.3550171 C 5.7200301,7.2193933 5.6559096,7.184605 5.5062004,7.1846051 Z"
         id="path7268"
         inkscape:connector-curvature="0" />
      <path
         inkscape:connector-curvature="0"
         id="path7270"
         d="m 3.7287917,8.4872574 c -0.2290855,0 -0.4198758,0.1597203 -0.4697386,0.3736205 -0.00633,0.033187 -0.013436,0.063918 -0.013436,0.1100709 0,0.2669911 0.2161833,0.4831747 0.4831744,0.4831747 0.043552,0 0.070975,-0.00651 0.1018026,-0.011369 0.2180992,-0.046754 0.3818888,-0.2397426 0.3818888,-0.4718058 0,-0.1511522 -0.030697,-0.2091608 -0.1250569,-0.3550171 C 3.9426214,8.5220456 3.8785009,8.4872573 3.7287917,8.4872574 Z"
         style="fill:#009999;fill-opacity:0.6;stroke:none;stroke-width:1" />
      <path
         style="fill:#009999;fill-opacity:0.6;stroke:none;stroke-width:1"
         d="m 2.3862752,9.0593654 c -0.2290855,0 -0.4198758,0.1597203 -0.4697386,0.3736205 -0.00633,0.033187 -0.013436,0.063918 -0.013436,0.1100709 0,0.2669911 0.2161833,0.4831752 0.4831744,0.4831752 0.043552,0 0.070975,-0.0065 0.1018026,-0.01137 0.2180992,-0.046755 0.3818888,-0.2397431 0.3818888,-0.4718063 0,-0.1511522 -0.030697,-0.2091608 -0.1250569,-0.3550171 C 2.6001049,9.0941536 2.5359844,9.0593653 2.3862752,9.0593654 Z"
         id="path7272"
         inkscape:connector-curvature="0" />
      <path
         inkscape:connector-curvature="0"
         id="path7282"
         d="m 7.9619572,5.2928285 c -0.2290855,0 -0.4198758,0.1597203 -0.4697386,0.3736205 -0.00633,0.033187 -0.013436,0.063918 -0.013436,0.1100709 0,0.2669911 0.2161833,0.4831747 0.4831744,0.4831747 0.043552,0 0.070975,-0.00651 0.1018026,-0.011369 C 8.2818588,6.2015716 8.4456484,6.008583 8.4456484,5.7765198 8.4456484,5.6253676 8.4149514,5.567359 8.3205915,5.4215027 8.1757869,5.3276167 8.1116664,5.2928284 7.9619572,5.2928285 Z"
         style="fill:#009999;fill-opacity:0.6;stroke:none;stroke-width:1" />
      <path
         style="fill:#009999;fill-opacity:0.6;stroke:none;stroke-width:1"
         d="m 8.8439648,3.8224875 c -0.2290855,0 -0.4198758,0.1597203 -0.4697386,0.3736205 -0.00633,0.033187 -0.013436,0.063918 -0.013436,0.1100709 0,0.2669911 0.2161833,0.4831747 0.4831744,0.4831747 0.043552,0 0.070975,-0.00651 0.1018026,-0.011369 C 9.1638664,4.7312306 9.327656,4.538242 9.327656,4.3061788 9.327656,4.1550266 9.296959,4.097018 9.2025991,3.9511617 9.0577945,3.8572757 8.993674,3.8224874 8.8439648,3.8224875 Z"
         id="path7284"
         inkscape:connector-curvature="0" />
      <path
         inkscape:connector-curvature="0"
         id="path7286"
         d="m 9.4573428,2.2212164 c -0.2290855,0 -0.4198758,0.1597203 -0.4697386,0.3736205 -0.00633,0.033187 -0.013436,0.063918 -0.013436,0.1100709 0,0.2669911 0.2161833,0.4831747 0.4831744,0.4831747 0.043552,0 0.070975,-0.00651 0.1018026,-0.011369 C 9.7772444,3.1299595 9.941034,2.9369709 9.941034,2.7049077 9.941034,2.5537555 9.910337,2.4957469 9.8159771,2.3498906 9.6711725,2.2560046 9.607052,2.2212163 9.4573428,2.2212164 Z"
         style="fill:#009999;fill-opacity:0.6;stroke:none;stroke-width:1" />
      <g
         id="g7309">
        <path
           style="fill:#009999;fill-opacity:0.6;stroke:none;stroke-width:1"
           d="m -9.6586718,-1.7371644 c -0.2290854,0 -0.4198762,0.1597203 -0.4697382,0.3736205 -0.0063,0.033187 -0.01344,0.063918 -0.01344,0.1100709 0,0.26699106 0.216183,0.48317466 0.483174,0.48317466 0.043552,0 0.070975,-0.00651 0.1018026,-0.011369 0.2180992,-0.046754 0.3818888,-0.23974256 0.3818888,-0.47180576 0,-0.1511522 -0.030697,-0.2091608 -0.1250569,-0.3550171 -0.1448046,-0.093886 -0.2089251,-0.1286743 -0.3586343,-0.1286742 z"
           id="path7216"
           inkscape:connector-curvature="0" />
        <path
           style="fill:#009999;fill-opacity:0.6;stroke:none;stroke-width:1"
           d="m -0.60634437,-10.295755 c -0.22908547,0 -0.41987573,0.159721 -0.46973853,0.373621 -0.00633,0.033187 -0.013436,0.063918 -0.013436,0.1100709 0,0.2669911 0.21618326,0.4831747 0.48317433,0.4831747 0.043552,0 0.070975,-0.00651 0.1018026,-0.011369 0.2180992,-0.046754 0.3818888,-0.2397426 0.3818888,-0.4718058 0,-0.1511522 -0.030697,-0.2091608 -0.1250569,-0.3550168 -0.1448046,-0.09389 -0.2089251,-0.128675 -0.3586343,-0.128675 z"
           id="path7232"
           inkscape:connector-curvature="0" />
        <path
           style="fill:#009999;fill-opacity:0.6;stroke:none;stroke-width:1"
           d="m 0.93376893,-10.267065 c -0.22908547,0 -0.41987577,0.159721 -0.46973857,0.3736209 -0.00633,0.033187 -0.013436,0.063918 -0.013436,0.1100709 0,0.2669911 0.2161833,0.4831747 0.48317437,0.4831747 0.043552,0 0.070975,-0.00651 0.10180257,-0.011369 0.2180992,-0.046754 0.3818888,-0.2397426 0.3818888,-0.4718058 0,-0.1511522 -0.030697,-0.2091608 -0.1250569,-0.3550167 -0.1448046,-0.09389 -0.2089251,-0.128675 -0.35863427,-0.128675 z"
           id="path7236"
           inkscape:connector-curvature="0" />
        <path
           style="fill:#009999;fill-opacity:0.6;stroke:none;stroke-width:1"
           d="m 0.69298351,9.3288884 c -0.2290855,0 -0.4198758,0.1597203 -0.4697386,0.3736205 -0.00633,0.033187 -0.013436,0.063918 -0.013436,0.1100709 0,0.2669912 0.2161833,0.4831752 0.4831744,0.4831752 0.043552,0 0.070975,-0.0065 0.1018026,-0.01137 0.21809919,-0.04675 0.38188879,-0.239743 0.38188879,-0.4718063 0,-0.1511522 -0.030697,-0.2091608 -0.1250569,-0.3550171 C 0.90681321,9.3636756 0.84269271,9.3288873 0.69298351,9.3288874 Z"
           id="path7238"
           inkscape:connector-curvature="0" />
        <path
           inkscape:connector-curvature="0"
           id="path7288"
           d="m 9.5381762,0.80951734 c -0.2290855,0 -0.4198758,0.1597203 -0.4697386,0.37362046 -0.00633,0.033187 -0.013436,0.063918 -0.013436,0.1100709 0,0.2669911 0.2161833,0.4831747 0.4831744,0.4831747 0.043552,0 0.070975,-0.00651 0.1018026,-0.011369 0.2180992,-0.046754 0.3818884,-0.2397426 0.3818884,-0.4718058 0,-0.1511522 -0.030697,-0.2091608 -0.1250565,-0.35501706 -0.1448046,-0.093886 -0.2089251,-0.1286743 -0.3586343,-0.1286742 z"
           style="fill:#009999;fill-opacity:0.6;stroke:none;stroke-width:1" />
      </g>
      <path
         inkscape:connector-curvature="0"
         id="path7290"
         d="m 9.3469661,-1.2840056 c -0.2290855,0 -0.4198758,0.1597203 -0.4697386,0.37362051 -0.00633,0.033187 -0.013436,0.063918 -0.013436,0.1100709 0,0.2669911 0.2161833,0.4831747 0.4831744,0.4831747 0.043552,0 0.070975,-0.00651 0.1018026,-0.011369 0.2180992,-0.046754 0.3818888,-0.2397426 0.3818888,-0.4718058 0,-0.1511522 -0.030697,-0.20916081 -0.1250569,-0.35501711 -0.1448046,-0.093886 -0.2089251,-0.1286743 -0.3586343,-0.1286742 z"
         style="fill:#009999;fill-opacity:0.6;stroke:none;stroke-width:1" />
      <path
         style="fill:#009999;fill-opacity:0.6;stroke:none;stroke-width:1"
         d="m 9.1847728,-2.8163013 c -0.2290855,0 -0.4198758,0.1597203 -0.4697386,0.3736205 -0.00633,0.033187 -0.013436,0.063918 -0.013436,0.1100709 0,0.2669911 0.2161833,0.4831747 0.4831744,0.4831747 0.043552,0 0.070975,-0.00651 0.1018026,-0.011369 0.2180992,-0.046754 0.3818888,-0.2397426 0.3818888,-0.4718058 0,-0.1511522 -0.030697,-0.2091608 -0.1250569,-0.3550171 C 9.3986025,-2.7815131 9.334482,-2.8163014 9.1847728,-2.8163013 Z"
         id="path7292"
         inkscape:connector-curvature="0" />
      <path
         inkscape:connector-curvature="0"
         id="path7294"
         d="m 8.9830808,-4.4907608 c -0.2290855,0 -0.4198758,0.1597203 -0.4697386,0.3736205 -0.00633,0.033187 -0.013436,0.063918 -0.013436,0.1100709 0,0.2669911 0.2161833,0.4831747 0.4831744,0.4831747 0.043552,0 0.070975,-0.00651 0.1018026,-0.011369 0.2180992,-0.046754 0.3818888,-0.2397426 0.3818888,-0.4718058 0,-0.1511522 -0.030697,-0.2091608 -0.1250569,-0.3550171 C 9.1969105,-4.4559726 9.13279,-4.4907609 8.9830808,-4.4907608 Z"
         style="fill:#009999;fill-opacity:0.6;stroke:none;stroke-width:1" />
      <path
         style="fill:#009999;fill-opacity:0.6;stroke:none;stroke-width:1"
         d="m 8.1507651,-5.9898922 c -0.2290855,0 -0.4198758,0.1597203 -0.4697386,0.3736205 -0.00633,0.033187 -0.013436,0.063918 -0.013436,0.1100709 0,0.2669911 0.2161833,0.4831747 0.4831744,0.4831747 0.043552,0 0.070975,-0.00651 0.1018026,-0.011369 0.2180992,-0.046754 0.3818888,-0.2397426 0.3818888,-0.4718058 0,-0.1511522 -0.030697,-0.2091608 -0.1250569,-0.3550171 C 8.3645948,-5.955104 8.3004743,-5.9898923 8.1507651,-5.9898922 Z"
         id="path7296"
         inkscape:connector-curvature="0" />
      <path
         inkscape:connector-curvature="0"
         id="path7298"
         d="m 7.0708066,-7.3217407 c -0.2290855,0 -0.4198758,0.1597203 -0.4697386,0.3736205 -0.00633,0.033187 -0.013436,0.063918 -0.013436,0.1100709 0,0.2669911 0.2161833,0.4831747 0.4831744,0.4831747 0.043552,0 0.070975,-0.00651 0.1018026,-0.011369 0.2180992,-0.046754 0.3818888,-0.2397426 0.3818888,-0.4718058 0,-0.1511522 -0.030697,-0.2091608 -0.1250569,-0.3550171 -0.1448046,-0.093886 -0.2089251,-0.1286743 -0.3586343,-0.1286742 z"
         style="fill:#009999;fill-opacity:0.6;stroke:none;stroke-width:1" />
      <path
         style="fill:#009999;fill-opacity:0.6;stroke:none;stroke-width:1"
         d="m 5.889844,-8.2938613 c -0.2290855,0 -0.4198758,0.1597203 -0.4697386,0.3736205 -0.00633,0.033187 -0.013436,0.063918 -0.013436,0.1100709 0,0.2669911 0.2161833,0.4831747 0.4831744,0.4831747 0.043552,0 0.070975,-0.00651 0.1018026,-0.011369 0.2180992,-0.046754 0.3818888,-0.2397426 0.3818888,-0.4718058 0,-0.1511522 -0.030697,-0.2091608 -0.1250569,-0.3550171 C 6.1036737,-8.2590731 6.0395532,-8.2938614 5.889844,-8.2938613 Z"
         id="path7300"
         inkscape:connector-curvature="0" />
      <path
         inkscape:connector-curvature="0"
         id="path7302"
         d="m 3.9197653,-9.3448539 c -0.2290855,0 -0.4198758,0.1597203 -0.4697386,0.3736205 -0.00633,0.033187 -0.013436,0.063918 -0.013436,0.1100709 0,0.2669911 0.2161833,0.4831747 0.4831744,0.4831747 0.043552,0 0.070975,-0.00651 0.1018026,-0.011369 0.2180992,-0.046754 0.3818888,-0.2397426 0.3818888,-0.4718058 0,-0.1511522 -0.030697,-0.2091608 -0.1250569,-0.3550171 C 4.133595,-9.3100657 4.0694745,-9.344854 3.9197653,-9.3448539 Z"
         style="fill:#009999;fill-opacity:0.6;stroke:none;stroke-width:1" />
    </g>
  </g>
  <g
     inkscape:groupmode="layer"
     inkscape:label="outline"
     transform="translate(19.0000725 18.999665)"
     style="stroke:#555555;stroke-opacity:1;fill:none;"
     pcbmode:sheet="outline"
     sodipodi:insensitive="true"
     id="g5554">
    <g
       pcbmode:type="module-shapes"
       id="g5552">
      <path
         d="m -11.203420,15.336095 c 3.326917,2.43667 7.262956,3.66357 11.203395,3.66357 4.862523,1e-05 9.724963,-1.85481 13.434938,-5.56479 3.709987,-3.70998 5.565162,-8.57278 5.565159,-13.4353 -4e-06,-3.93876 -1.226054,-7.87299 -3.660652,-11.19901 l 0.0029,-0.003 c -0.148236,-0.19883 -0.128329,-0.47626 0.04677,-0.65189 0.02337,-0.023 0.04895,-0.0437 0.07638,-0.0618 l -0.0073,-0.007 2.219121,-2.21912 -3.535329,-3.53531 -2.21912,2.21913 -0.0073,-0.007 c -0.01803,0.0274 -0.03871,0.053 -0.06175,0.0764 -0.164361,0.16398 -0.420027,0.19316 -0.617174,0.0705 l -0.0036,0.004 c -3.333134,-2.45109 -7.280894,-3.68513 -11.232994,-3.68514 -4.862528,1e-05 -9.725329,1.85518 -13.435305,5.56516 -3.709976,3.70998 -5.564793,8.57242 -5.564792,13.43494 4e-06,3.95043 1.233201,7.89637 3.680388,11.23043 0.111391,0.18033 0.100126,0.41074 -0.02831,0.57899 l -0.04107,0.0444 -2.288547,2.28855 3.535317,3.53531 2.288548,-2.28854 0.04425,-0.0413 c 0.17739,-0.13603 0.423151,-0.1402 0.603651,-0.009 z "
         style="stroke-width:0.05;fill:none;"
         pcbmode:style="stroke"
         transform="translate(0.0,-0.0)"
         id="path5550" />
    </g>
  </g>
  <defs
     id="defs6390">
    <mask
       id="mask-top"
       transform="translate(19.0000725 18.999665)"
       pcbmode:pcb-layer="top">
      <path
         d="m -11.203420,15.336095 c 3.326917,2.43667 7.262956,3.66357 11.203395,3.66357 4.862523,1e-05 9.724963,-1.85481 13.434938,-5.56479 3.709987,-3.70998 5.565162,-8.57278 5.565159,-13.4353 -4e-06,-3.93876 -1.226054,-7.87299 -3.660652,-11.19901 l 0.0029,-0.003 c -0.148236,-0.19883 -0.128329,-0.47626 0.04677,-0.65189 0.02337,-0.023 0.04895,-0.0437 0.07638,-0.0618 l -0.0073,-0.007 2.219121,-2.21912 -3.535329,-3.53531 -2.21912,2.21913 -0.0073,-0.007 c -0.01803,0.0274 -0.03871,0.053 -0.06175,0.0764 -0.164361,0.16398 -0.420027,0.19316 -0.617174,0.0705 l -0.0036,0.004 c -3.333134,-2.45109 -7.280894,-3.68513 -11.232994,-3.68514 -4.862528,1e-05 -9.725329,1.85518 -13.435305,5.56516 -3.709976,3.70998 -5.564793,8.57242 -5.564792,13.43494 4e-06,3.95043 1.233201,7.89637 3.680388,11.23043 0.111391,0.18033 0.100126,0.41074 -0.02831,0.57899 l -0.04107,0.0444 -2.288547,2.28855 3.535317,3.53531 2.288548,-2.28854 0.04425,-0.0413 c 0.17739,-0.13603 0.423151,-0.1402 0.603651,-0.009 z "
         style="fill:none;stroke:#000;stroke-linejoin:round;stroke-width:0.8;"
         pcbmode:style="stroke"
         transform="translate(0.0,-0.0)"
         pcbmode:gerber-lp="c"
         id="path5786" />
      <g
         id="g5788" />
      <g
         transform="translate(-12.707046,-7.880364)"
         id="g5790" />
      <g
         transform="translate(-0.369981,-15.177115)"
         id="g5792" />
      <g
         transform="translate(-0.098349,7.630361)"
         id="g5794" />
      <g
         transform="translate(0.664953,-3.20461)"
         id="g5796" />
      <g
         transform="translate(-7.737115,-0.204735)"
         id="g5798" />
      <g
         transform="translate(-15.522579,-9.378666)"
         id="g5800" />
      <g
         transform="translate(-13.294853,-7.29839)"
         id="g5802" />
      <g
         transform="translate(12.899583,-7.929187)"
         id="g5804" />
      <g
         transform="translate(-0.249152,3.231329)"
         id="g5806" />
      <g
         transform="translate(12.729552,7.810595)"
         id="g5808" />
      <g
         transform="translate(-0.693656,-11.768183)"
         id="g5810" />
      <g
         transform="translate(-14.992282,-10.045828)"
         id="g5812" />
      <g
         transform="translate(13.309148,7.209716)"
         id="g5814" />
      <g
         transform="translate(16.188125,-7.946559)"
         id="g5816" />
      <g
         transform="translate(-0.441294,14.912453)"
         id="g5818" />
      <g
         transform="translate(7.747438,0.045702)"
         id="g5820" />
      <g
         transform="translate(-0.236214,-7.667553)"
         id="g5822" />
      <g
         transform="translate(-1.17027,2.998948)"
         id="g5824" />
      <g
         transform="translate(-12.917209,7.970503)"
         id="g5826" />
      <g
         transform="translate(14.962804,10.076212)"
         id="g5828" />
      <g
         transform="translate(-16.156203,8.000197)"
         id="g5830" />
      <g
         transform="translate(-15.860667,8.741064)"
         id="g5832" />
      <g
         transform="translate(2.586331,-11.469316)"
         id="g5834" />
      <g
         transform="translate(-2.48521,11.435856)"
         id="g5836" />
      <g
         transform="translate(13.170709,-7.086862)"
         id="g5838" />
      <g
         transform="translate(-11.270104,3.557371)"
         id="g5840" />
      <g
         transform="translate(15.54874,9.375472)"
         id="g5842" />
      <g
         transform="translate(-6.002074,10.170421)"
         id="g5844" />
      <g
         transform="translate(0.71749,11.909733)"
         id="g5846" />
      <g
         transform="translate(-9.88128,6.535113)"
         id="g5848" />
      <g
         transform="translate(-5.761039,-10.359238)"
         id="g5850" />
      <g
         transform="translate(11.845343,0.21225)"
         id="g5852" />
      <g
         transform="translate(5.745971,10.309199)"
         id="g5854" />
      <g
         transform="translate(0.454715,-14.910063)"
         id="g5856" />
      <g
         transform="translate(10.637666,5.321874)"
         id="g5858" />
      <g
         transform="translate(6.066533,-10.127214)"
         id="g5860" />
      <g
         transform="translate(9.939666,-6.540195)"
         id="g5862" />
      <g
         transform="translate(0.420592,15.207871)"
         id="g5864" />
      <g
         transform="translate(-1.210497,18.006469)"
         id="g5866" />
      <g
         transform="translate(1.191902,-17.980974)"
         id="g5868" />
      <g
         transform="translate(11.255901,-3.454861)"
         id="g5870" />
      <g
         transform="translate(15.875605,-8.745853)"
         id="g5872" />
      <g
         transform="translate(-8.620319,-7.94115)"
         id="g5874" />
      <g
         transform="translate(-0.424974,0.102274)"
         id="g5876" />
      <g
         transform="translate(-0.344085,18.125603)"
         id="g5878" />
      <g
         transform="translate(-10.651066,-5.346349)"
         id="g5880" />
      <g
         transform="translate(0.34008,-18.079758)"
         id="g5882" />
      <g
         transform="translate(8.615326,7.962846)"
         id="g5884" />
      <g
         transform="translate(-13.125726,7.025482)"
         id="g5886" />
      <g
         transform="translate(-11.830091,-0.127628)"
         id="g5888" />
      <g
         transform="translate(0.427535,0.136833)"
         id="g5890" />
      <g
         transform="translate(-4.149455,2.129271)"
         id="g5892" />
      <g
         transform="translate(-4.149455,2.129271)"
         id="g5894" />
      <g
         transform="translate(-4.149455,2.129271)"
         id="g5896" />
      <g
         transform="translate(-4.149455,2.129271)"
         id="g5898" />
      <g
         transform="translate(-4.149455,2.129271)"
         id="g5900" />
      <g
         transform="translate(-4.149455,2.129271)"
         id="g5902" />
      <g
         transform="translate(3.531606,3.159031)"
         id="g5904" />
      <g
         transform="translate(3.531606,3.159031)"
         id="g5906" />
      <g
         transform="translate(3.531606,3.159031)"
         id="g5908" />
      <g
         transform="translate(3.531606,3.159031)"
         id="g5910" />
      <g
         transform="translate(3.531606,3.159031)"
         id="g5912" />
      <g
         transform="translate(3.531606,3.159031)"
         id="g5914" />
      <g
         transform="translate(-11.380482,-12.341562)"
         id="g5916" />
      <g
         transform="translate(-11.380482,-12.341562)"
         id="g5918" />
      <g
         transform="translate(-11.380482,-12.341562)"
         id="g5920" />
      <g
         transform="translate(-11.380482,-12.341562)"
         id="g5922" />
      <g
         transform="translate(-11.380482,-12.341562)"
         id="g5924" />
      <g
         transform="translate(-11.380482,-12.341562)"
         id="g5926" />
      <g
         transform="translate(-16.352018,-3.629974)"
         id="g5928" />
      <g
         transform="translate(-16.352018,-3.629974)"
         id="g5930" />
      <g
         transform="translate(-16.352018,-3.629974)"
         id="g5932" />
      <g
         transform="translate(-16.352018,-3.629974)"
         id="g5934" />
      <g
         transform="translate(-16.352018,-3.629974)"
         id="g5936" />
      <g
         transform="translate(-16.352018,-3.629974)"
         id="g5938" />
      <g
         transform="translate(5,-16)"
         id="g5940" />
      <g
         transform="translate(5,-16)"
         id="g5942" />
      <g
         transform="translate(5,-16)"
         id="g5944" />
      <g
         transform="translate(5,-16)"
         id="g5946" />
      <g
         transform="translate(5,-16)"
         id="g5948" />
      <g
         transform="translate(5,-16)"
         id="g5950" />
      <g
         transform="translate(-5,-16)"
         id="g5952" />
      <g
         transform="translate(-5,-16)"
         id="g5954" />
      <g
         transform="translate(-5,-16)"
         id="g5956" />
      <g
         transform="translate(-5,-16)"
         id="g5958" />
      <g
         transform="translate(-5,-16)"
         id="g5960" />
      <g
         transform="translate(-5,-16)"
         id="g5962" />
      <g
         transform="translate(16.36862,-3.637718)"
         id="g5964" />
      <g
         transform="translate(16.36862,-3.637718)"
         id="g5966" />
      <g
         transform="translate(16.36862,-3.637718)"
         id="g5968" />
      <g
         transform="translate(16.36862,-3.637718)"
         id="g5970" />
      <g
         transform="translate(16.36862,-3.637718)"
         id="g5972" />
      <g
         transform="translate(16.36862,-3.637718)"
         id="g5974" />
      <g
         transform="translate(11.390619,-12.329285)"
         id="g5976" />
      <g
         transform="translate(11.390619,-12.329285)"
         id="g5978" />
      <g
         transform="translate(11.390619,-12.329285)"
         id="g5980" />
      <g
         transform="translate(11.390619,-12.329285)"
         id="g5982" />
      <g
         transform="translate(11.390619,-12.329285)"
         id="g5984" />
      <g
         transform="translate(11.390619,-12.329285)"
         id="g5986" />
      <g
         transform="translate(11.408874,12.301901)"
         id="g5988" />
      <g
         transform="translate(11.408874,12.301901)"
         id="g5990" />
      <g
         transform="translate(11.408874,12.301901)"
         id="g5992" />
      <g
         transform="translate(11.408874,12.301901)"
         id="g5994" />
      <g
         transform="translate(11.408874,12.301901)"
         id="g5996" />
      <g
         transform="translate(11.408874,12.301901)"
         id="g5998" />
      <g
         transform="translate(16.36862,3.657845)"
         id="g6000" />
      <g
         transform="translate(16.36862,3.657845)"
         id="g6002" />
      <g
         transform="translate(16.36862,3.657845)"
         id="g6004" />
      <g
         transform="translate(16.36862,3.657845)"
         id="g6006" />
      <g
         transform="translate(16.36862,3.657845)"
         id="g6008" />
      <g
         transform="translate(16.36862,3.657845)"
         id="g6010" />
      <g
         transform="translate(-5.040254,16.006338)"
         id="g6012" />
      <g
         transform="translate(-5.040254,16.006338)"
         id="g6014" />
      <g
         transform="translate(-5.040254,16.006338)"
         id="g6016" />
      <g
         transform="translate(-5.040254,16.006338)"
         id="g6018" />
      <g
         transform="translate(-5.040254,16.006338)"
         id="g6020" />
      <g
         transform="translate(-5.040254,16.006338)"
         id="g6022" />
      <g
         transform="translate(4.919493,16.066718)"
         id="g6024" />
      <g
         transform="translate(4.919493,16.066718)"
         id="g6026" />
      <g
         transform="translate(4.919493,16.066718)"
         id="g6028" />
      <g
         transform="translate(4.919493,16.066718)"
         id="g6030" />
      <g
         transform="translate(4.919493,16.066718)"
         id="g6032" />
      <g
         transform="translate(4.919493,16.066718)"
         id="g6034" />
      <g
         transform="translate(-16.388747,3.677972)"
         id="g6036" />
      <g
         transform="translate(-16.388747,3.677972)"
         id="g6038" />
      <g
         transform="translate(-16.388747,3.677972)"
         id="g6040" />
      <g
         transform="translate(-16.388747,3.677972)"
         id="g6042" />
      <g
         transform="translate(-16.388747,3.677972)"
         id="g6044" />
      <g
         transform="translate(-16.388747,3.677972)"
         id="g6046" />
      <g
         transform="translate(-11.408873,12.301901)"
         id="g6048" />
      <g
         transform="translate(-11.408873,12.301901)"
         id="g6050" />
      <g
         transform="translate(-11.408873,12.301901)"
         id="g6052" />
      <g
         transform="translate(-11.408873,12.301901)"
         id="g6054" />
      <g
         transform="translate(-11.408873,12.301901)"
         id="g6056" />
      <g
         transform="translate(-11.408873,12.301901)"
         id="g6058" />
      <rect
         height="37.99933"
         style="fill:#fff;"
         width="38.000145"
         x="-19.0000725"
         y="-18.999665"
         pcbmode:type="mask-cover"
         id="rect6060" />
    </mask>
    <mask
       id="mask-internal-1"
       transform="translate(19.0000725 18.999665)"
       pcbmode:pcb-layer="internal-1">
      <path
         d="m -11.203420,15.336095 c 3.326917,2.43667 7.262956,3.66357 11.203395,3.66357 4.862523,1e-05 9.724963,-1.85481 13.434938,-5.56479 3.709987,-3.70998 5.565162,-8.57278 5.565159,-13.4353 -4e-06,-3.93876 -1.226054,-7.87299 -3.660652,-11.19901 l 0.0029,-0.003 c -0.148236,-0.19883 -0.128329,-0.47626 0.04677,-0.65189 0.02337,-0.023 0.04895,-0.0437 0.07638,-0.0618 l -0.0073,-0.007 2.219121,-2.21912 -3.535329,-3.53531 -2.21912,2.21913 -0.0073,-0.007 c -0.01803,0.0274 -0.03871,0.053 -0.06175,0.0764 -0.164361,0.16398 -0.420027,0.19316 -0.617174,0.0705 l -0.0036,0.004 c -3.333134,-2.45109 -7.280894,-3.68513 -11.232994,-3.68514 -4.862528,1e-05 -9.725329,1.85518 -13.435305,5.56516 -3.709976,3.70998 -5.564793,8.57242 -5.564792,13.43494 4e-06,3.95043 1.233201,7.89637 3.680388,11.23043 0.111391,0.18033 0.100126,0.41074 -0.02831,0.57899 l -0.04107,0.0444 -2.288547,2.28855 3.535317,3.53531 2.288548,-2.28854 0.04425,-0.0413 c 0.17739,-0.13603 0.423151,-0.1402 0.603651,-0.009 z "
         style="fill:none;stroke:#000;stroke-linejoin:round;stroke-width:0.8;"
         pcbmode:style="stroke"
         transform="translate(0.0,-0.0)"
         pcbmode:gerber-lp="c"
         id="path6063" />
      <g
         id="g6065" />
      <g
         transform="translate(-12.707046,-7.880364)"
         id="g6067" />
      <g
         transform="translate(-0.369981,-15.177115)"
         id="g6069" />
      <g
         transform="translate(-0.098349,7.630361)"
         id="g6071" />
      <g
         transform="translate(0.664953,-3.20461)"
         id="g6073" />
      <g
         transform="translate(-7.737115,-0.204735)"
         id="g6075" />
      <g
         transform="translate(-15.522579,-9.378666)"
         id="g6077" />
      <g
         transform="translate(-13.294853,-7.29839)"
         id="g6079" />
      <g
         transform="translate(12.899583,-7.929187)"
         id="g6081" />
      <g
         transform="translate(-0.249152,3.231329)"
         id="g6083" />
      <g
         transform="translate(12.729552,7.810595)"
         id="g6085" />
      <g
         transform="translate(-0.693656,-11.768183)"
         id="g6087" />
      <g
         transform="translate(-14.992282,-10.045828)"
         id="g6089" />
      <g
         transform="translate(13.309148,7.209716)"
         id="g6091" />
      <g
         transform="translate(16.188125,-7.946559)"
         id="g6093" />
      <g
         transform="translate(-0.441294,14.912453)"
         id="g6095" />
      <g
         transform="translate(7.747438,0.045702)"
         id="g6097" />
      <g
         transform="translate(-0.236214,-7.667553)"
         id="g6099" />
      <g
         transform="translate(-1.17027,2.998948)"
         id="g6101" />
      <g
         transform="translate(-12.917209,7.970503)"
         id="g6103" />
      <g
         transform="translate(14.962804,10.076212)"
         id="g6105" />
      <g
         transform="translate(-16.156203,8.000197)"
         id="g6107" />
      <g
         transform="translate(-15.860667,8.741064)"
         id="g6109" />
      <g
         transform="translate(2.586331,-11.469316)"
         id="g6111" />
      <g
         transform="translate(-2.48521,11.435856)"
         id="g6113" />
      <g
         transform="translate(13.170709,-7.086862)"
         id="g6115" />
      <g
         transform="translate(-11.270104,3.557371)"
         id="g6117" />
      <g
         transform="translate(15.54874,9.375472)"
         id="g6119" />
      <g
         transform="translate(-6.002074,10.170421)"
         id="g6121" />
      <g
         transform="translate(0.71749,11.909733)"
         id="g6123" />
      <g
         transform="translate(-9.88128,6.535113)"
         id="g6125" />
      <g
         transform="translate(-5.761039,-10.359238)"
         id="g6127" />
      <g
         transform="translate(11.845343,0.21225)"
         id="g6129" />
      <g
         transform="translate(5.745971,10.309199)"
         id="g6131" />
      <g
         transform="translate(0.454715,-14.910063)"
         id="g6133" />
      <g
         transform="translate(10.637666,5.321874)"
         id="g6135" />
      <g
         transform="translate(6.066533,-10.127214)"
         id="g6137" />
      <g
         transform="translate(9.939666,-6.540195)"
         id="g6139" />
      <g
         transform="translate(0.420592,15.207871)"
         id="g6141" />
      <g
         transform="translate(-1.210497,18.006469)"
         id="g6143" />
      <g
         transform="translate(1.191902,-17.980974)"
         id="g6145" />
      <g
         transform="translate(11.255901,-3.454861)"
         id="g6147" />
      <g
         transform="translate(15.875605,-8.745853)"
         id="g6149" />
      <g
         transform="translate(-8.620319,-7.94115)"
         id="g6151" />
      <g
         transform="translate(-0.424974,0.102274)"
         id="g6153" />
      <g
         transform="translate(-0.344085,18.125603)"
         id="g6155" />
      <g
         transform="translate(-10.651066,-5.346349)"
         id="g6157" />
      <g
         transform="translate(0.34008,-18.079758)"
         id="g6159" />
      <g
         transform="translate(8.615326,7.962846)"
         id="g6161" />
      <g
         transform="translate(-13.125726,7.025482)"
         id="g6163" />
      <g
         transform="translate(-11.830091,-0.127628)"
         id="g6165" />
      <g
         transform="translate(0.427535,0.136833)"
         id="g6167" />
      <rect
         height="37.99933"
         style="fill:#fff;"
         width="38.000145"
         x="-19.0000725"
         y="-18.999665"
         pcbmode:type="mask-cover"
         id="rect6169" />
    </mask>
    <mask
       id="mask-internal-2"
       transform="translate(19.0000725 18.999665)"
       pcbmode:pcb-layer="internal-2">
      <path
         d="m -11.203420,15.336095 c 3.326917,2.43667 7.262956,3.66357 11.203395,3.66357 4.862523,1e-05 9.724963,-1.85481 13.434938,-5.56479 3.709987,-3.70998 5.565162,-8.57278 5.565159,-13.4353 -4e-06,-3.93876 -1.226054,-7.87299 -3.660652,-11.19901 l 0.0029,-0.003 c -0.148236,-0.19883 -0.128329,-0.47626 0.04677,-0.65189 0.02337,-0.023 0.04895,-0.0437 0.07638,-0.0618 l -0.0073,-0.007 2.219121,-2.21912 -3.535329,-3.53531 -2.21912,2.21913 -0.0073,-0.007 c -0.01803,0.0274 -0.03871,0.053 -0.06175,0.0764 -0.164361,0.16398 -0.420027,0.19316 -0.617174,0.0705 l -0.0036,0.004 c -3.333134,-2.45109 -7.280894,-3.68513 -11.232994,-3.68514 -4.862528,1e-05 -9.725329,1.85518 -13.435305,5.56516 -3.709976,3.70998 -5.564793,8.57242 -5.564792,13.43494 4e-06,3.95043 1.233201,7.89637 3.680388,11.23043 0.111391,0.18033 0.100126,0.41074 -0.02831,0.57899 l -0.04107,0.0444 -2.288547,2.28855 3.535317,3.53531 2.288548,-2.28854 0.04425,-0.0413 c 0.17739,-0.13603 0.423151,-0.1402 0.603651,-0.009 z "
         style="fill:none;stroke:#000;stroke-linejoin:round;stroke-width:0.8;"
         pcbmode:style="stroke"
         transform="translate(0.0,-0.0)"
         pcbmode:gerber-lp="c"
         id="path6172" />
      <g
         id="g6174" />
      <g
         transform="translate(-12.707046,-7.880364)"
         id="g6176" />
      <g
         transform="translate(-0.369981,-15.177115)"
         id="g6178" />
      <g
         transform="translate(-0.098349,7.630361)"
         id="g6180" />
      <g
         transform="translate(0.664953,-3.20461)"
         id="g6182" />
      <g
         transform="translate(-7.737115,-0.204735)"
         id="g6184" />
      <g
         transform="translate(-15.522579,-9.378666)"
         id="g6186" />
      <g
         transform="translate(-13.294853,-7.29839)"
         id="g6188" />
      <g
         transform="translate(12.899583,-7.929187)"
         id="g6190" />
      <g
         transform="translate(-0.249152,3.231329)"
         id="g6192" />
      <g
         transform="translate(12.729552,7.810595)"
         id="g6194" />
      <g
         transform="translate(-0.693656,-11.768183)"
         id="g6196" />
      <g
         transform="translate(-14.992282,-10.045828)"
         id="g6198" />
      <g
         transform="translate(13.309148,7.209716)"
         id="g6200" />
      <g
         transform="translate(16.188125,-7.946559)"
         id="g6202" />
      <g
         transform="translate(-0.441294,14.912453)"
         id="g6204" />
      <g
         transform="translate(7.747438,0.045702)"
         id="g6206" />
      <g
         transform="translate(-0.236214,-7.667553)"
         id="g6208" />
      <g
         transform="translate(-1.17027,2.998948)"
         id="g6210" />
      <g
         transform="translate(-12.917209,7.970503)"
         id="g6212" />
      <g
         transform="translate(14.962804,10.076212)"
         id="g6214" />
      <g
         transform="translate(-16.156203,8.000197)"
         id="g6216" />
      <g
         transform="translate(-15.860667,8.741064)"
         id="g6218" />
      <g
         transform="translate(2.586331,-11.469316)"
         id="g6220" />
      <g
         transform="translate(-2.48521,11.435856)"
         id="g6222" />
      <g
         transform="translate(13.170709,-7.086862)"
         id="g6224" />
      <g
         transform="translate(-11.270104,3.557371)"
         id="g6226" />
      <g
         transform="translate(15.54874,9.375472)"
         id="g6228" />
      <g
         transform="translate(-6.002074,10.170421)"
         id="g6230" />
      <g
         transform="translate(0.71749,11.909733)"
         id="g6232" />
      <g
         transform="translate(-9.88128,6.535113)"
         id="g6234" />
      <g
         transform="translate(-5.761039,-10.359238)"
         id="g6236" />
      <g
         transform="translate(11.845343,0.21225)"
         id="g6238" />
      <g
         transform="translate(5.745971,10.309199)"
         id="g6240" />
      <g
         transform="translate(0.454715,-14.910063)"
         id="g6242" />
      <g
         transform="translate(10.637666,5.321874)"
         id="g6244" />
      <g
         transform="translate(6.066533,-10.127214)"
         id="g6246" />
      <g
         transform="translate(9.939666,-6.540195)"
         id="g6248" />
      <g
         transform="translate(0.420592,15.207871)"
         id="g6250" />
      <g
         transform="translate(-1.210497,18.006469)"
         id="g6252" />
      <g
         transform="translate(1.191902,-17.980974)"
         id="g6254" />
      <g
         transform="translate(11.255901,-3.454861)"
         id="g6256" />
      <g
         transform="translate(15.875605,-8.745853)"
         id="g6258" />
      <g
         transform="translate(-8.620319,-7.94115)"
         id="g6260" />
      <g
         transform="translate(-0.424974,0.102274)"
         id="g6262" />
      <g
         transform="translate(-0.344085,18.125603)"
         id="g6264" />
      <g
         transform="translate(-10.651066,-5.346349)"
         id="g6266" />
      <g
         transform="translate(0.34008,-18.079758)"
         id="g6268" />
      <g
         transform="translate(8.615326,7.962846)"
         id="g6270" />
      <g
         transform="translate(-13.125726,7.025482)"
         id="g6272" />
      <g
         transform="translate(-11.830091,-0.127628)"
         id="g6274" />
      <g
         transform="translate(0.427535,0.136833)"
         id="g6276" />
      <rect
         height="37.99933"
         style="fill:#fff;"
         width="38.000145"
         x="-19.0000725"
         y="-18.999665"
         pcbmode:type="mask-cover"
         id="rect6278" />
    </mask>
    <mask
       id="mask-bottom"
       transform="translate(19.0000725 18.999665)"
       pcbmode:pcb-layer="bottom">
      <path
         d="m -11.203420,15.336095 c 3.326917,2.43667 7.262956,3.66357 11.203395,3.66357 4.862523,1e-05 9.724963,-1.85481 13.434938,-5.56479 3.709987,-3.70998 5.565162,-8.57278 5.565159,-13.4353 -4e-06,-3.93876 -1.226054,-7.87299 -3.660652,-11.19901 l 0.0029,-0.003 c -0.148236,-0.19883 -0.128329,-0.47626 0.04677,-0.65189 0.02337,-0.023 0.04895,-0.0437 0.07638,-0.0618 l -0.0073,-0.007 2.219121,-2.21912 -3.535329,-3.53531 -2.21912,2.21913 -0.0073,-0.007 c -0.01803,0.0274 -0.03871,0.053 -0.06175,0.0764 -0.164361,0.16398 -0.420027,0.19316 -0.617174,0.0705 l -0.0036,0.004 c -3.333134,-2.45109 -7.280894,-3.68513 -11.232994,-3.68514 -4.862528,1e-05 -9.725329,1.85518 -13.435305,5.56516 -3.709976,3.70998 -5.564793,8.57242 -5.564792,13.43494 4e-06,3.95043 1.233201,7.89637 3.680388,11.23043 0.111391,0.18033 0.100126,0.41074 -0.02831,0.57899 l -0.04107,0.0444 -2.288547,2.28855 3.535317,3.53531 2.288548,-2.28854 0.04425,-0.0413 c 0.17739,-0.13603 0.423151,-0.1402 0.603651,-0.009 z "
         style="fill:none;stroke:#000;stroke-linejoin:round;stroke-width:0.8;"
         pcbmode:style="stroke"
         transform="translate(0.0,-0.0)"
         pcbmode:gerber-lp="c"
         id="path6281" />
      <g
         id="g6283" />
      <g
         transform="translate(-12.707046,-7.880364)"
         id="g6285" />
      <g
         transform="translate(-0.369981,-15.177115)"
         id="g6287" />
      <g
         transform="translate(-0.098349,7.630361)"
         id="g6289" />
      <g
         transform="translate(0.664953,-3.20461)"
         id="g6291" />
      <g
         transform="translate(-7.737115,-0.204735)"
         id="g6293" />
      <g
         transform="translate(-15.522579,-9.378666)"
         id="g6295" />
      <g
         transform="translate(-13.294853,-7.29839)"
         id="g6297" />
      <g
         transform="translate(12.899583,-7.929187)"
         id="g6299" />
      <g
         transform="translate(-0.249152,3.231329)"
         id="g6301" />
      <g
         transform="translate(12.729552,7.810595)"
         id="g6303" />
      <g
         transform="translate(-0.693656,-11.768183)"
         id="g6305" />
      <g
         transform="translate(-14.992282,-10.045828)"
         id="g6307" />
      <g
         transform="translate(13.309148,7.209716)"
         id="g6309" />
      <g
         transform="translate(16.188125,-7.946559)"
         id="g6311" />
      <g
         transform="translate(-0.441294,14.912453)"
         id="g6313" />
      <g
         transform="translate(7.747438,0.045702)"
         id="g6315" />
      <g
         transform="translate(-0.236214,-7.667553)"
         id="g6317" />
      <g
         transform="translate(-1.17027,2.998948)"
         id="g6319" />
      <g
         transform="translate(-12.917209,7.970503)"
         id="g6321" />
      <g
         transform="translate(14.962804,10.076212)"
         id="g6323" />
      <g
         transform="translate(-16.156203,8.000197)"
         id="g6325" />
      <g
         transform="translate(-15.860667,8.741064)"
         id="g6327" />
      <g
         transform="translate(2.586331,-11.469316)"
         id="g6329" />
      <g
         transform="translate(-2.48521,11.435856)"
         id="g6331" />
      <g
         transform="translate(13.170709,-7.086862)"
         id="g6333" />
      <g
         transform="translate(-11.270104,3.557371)"
         id="g6335" />
      <g
         transform="translate(15.54874,9.375472)"
         id="g6337" />
      <g
         transform="translate(-6.002074,10.170421)"
         id="g6339" />
      <g
         transform="translate(0.71749,11.909733)"
         id="g6341" />
      <g
         transform="translate(-9.88128,6.535113)"
         id="g6343" />
      <g
         transform="translate(-5.761039,-10.359238)"
         id="g6345" />
      <g
         transform="translate(11.845343,0.21225)"
         id="g6347" />
      <g
         transform="translate(5.745971,10.309199)"
         id="g6349" />
      <g
         transform="translate(0.454715,-14.910063)"
         id="g6351" />
      <g
         transform="translate(10.637666,5.321874)"
         id="g6353" />
      <g
         transform="translate(6.066533,-10.127214)"
         id="g6355" />
      <g
         transform="translate(9.939666,-6.540195)"
         id="g6357" />
      <g
         transform="translate(0.420592,15.207871)"
         id="g6359" />
      <g
         transform="translate(-1.210497,18.006469)"
         id="g6361" />
      <g
         transform="translate(1.191902,-17.980974)"
         id="g6363" />
      <g
         transform="translate(11.255901,-3.454861)"
         id="g6365" />
      <g
         transform="translate(15.875605,-8.745853)"
         id="g6367" />
      <g
         transform="translate(-8.620319,-7.94115)"
         id="g6369" />
      <g
         transform="translate(-0.424974,0.102274)"
         id="g6371" />
      <g
         transform="translate(-0.344085,18.125603)"
         id="g6373" />
      <g
         transform="translate(-10.651066,-5.346349)"
         id="g6375" />
      <g
         transform="translate(0.34008,-18.079758)"
         id="g6377" />
      <g
         transform="translate(8.615326,7.962846)"
         id="g6379" />
      <g
         transform="translate(-13.125726,7.025482)"
         id="g6381" />
      <g
         transform="translate(-11.830091,-0.127628)"
         id="g6383" />
      <g
         transform="translate(0.427535,0.136833)"
         id="g6385" />
      <rect
         height="37.99933"
         style="fill:#fff;"
         width="38.000145"
         x="-19.0000725"
         y="-18.999665"
         pcbmode:type="mask-cover"
         id="rect6387" />
    </mask>
  </defs>
</svg>
