<?xml version="1.0" encoding="UTF-8" standalone="no"?>
<!-- Created with Inkscape (http://www.inkscape.org/) -->

<svg
   xmlns:pcbmode="pcbmode"
   xmlns:dc="http://purl.org/dc/elements/1.1/"
   xmlns:cc="http://creativecommons.org/ns#"
   xmlns:rdf="http://www.w3.org/1999/02/22-rdf-syntax-ns#"
   xmlns:svg="http://www.w3.org/2000/svg"
   xmlns="http://www.w3.org/2000/svg"
   xmlns:sodipodi="http://sodipodi.sourceforge.net/DTD/sodipodi-0.dtd"
   xmlns:inkscape="http://www.inkscape.org/namespaces/inkscape"
   width="210mm"
   height="297mm"
   viewBox="0 0 210 297"
   version="1.1"
   id="svg106330"
   inkscape:version="0.92.4 (5da689c313, 2019-01-14)"
   sodipodi:docname="roman.svg">
  <defs
     id="defs106324">
    <mask
       id="mask-bottom"
       transform="translate(19.0000725 18.999665)"
       pcbmode:pcb-layer="bottom">
      <path
         inkscape:connector-curvature="0"
         d="m -11.20342,15.336095 c 3.326917,2.43667 7.262956,3.66357 11.203395,3.66357 4.862523,10e-6 9.724963,-1.85481 13.434938,-5.56479 3.709987,-3.70998 5.565162,-8.57278 5.565159,-13.4353 -4e-6,-3.93876 -1.226054,-7.87299 -3.660652,-11.19901 l 0.0029,-0.003 c -0.148236,-0.19883 -0.128329,-0.47626 0.04677,-0.65189 0.02337,-0.023 0.04895,-0.0437 0.07638,-0.0618 l -0.0073,-0.007 2.219121,-2.21912 -3.535329,-3.53531 -2.21912,2.21913 -0.0073,-0.007 c -0.01803,0.0274 -0.03871,0.053 -0.06175,0.0764 -0.164361,0.16398 -0.420027,0.19316 -0.617174,0.0705 l -0.0036,0.004 c -3.333134,-2.45109 -7.280894,-3.68513 -11.232994,-3.68514 -4.862528,10e-6 -9.725329,1.85518 -13.435305,5.56516 -3.709976,3.70998 -5.564793,8.57242 -5.564792,13.43494 4e-6,3.95043 1.233201,7.89637 3.680388,11.23043 0.111391,0.18033 0.100126,0.41074 -0.02831,0.57899 l -0.04107,0.0444 -2.288547,2.28855 3.535317,3.53531 2.288548,-2.28854 0.04425,-0.0413 c 0.17739,-0.13603 0.423151,-0.1402 0.603651,-0.009 z"
         style="fill:none;stroke:#000000;stroke-width:0.80000001;stroke-linejoin:round"
         pcbmode:style="stroke"
         pcbmode:gerber-lp="c"
         id="path106093" />
      <g
         id="g106095" />
      <g
         transform="translate(-12.707046,-7.880364)"
         id="g106097" />
      <g
         transform="translate(-0.369981,-15.177115)"
         id="g106099" />
      <g
         transform="translate(-15.522579,-9.378666)"
         id="g106101" />
      <g
         transform="translate(8.615326,7.962846)"
         id="g106103" />
      <g
         transform="translate(-13.294853,-7.29839)"
         id="g106105" />
      <g
         transform="translate(12.899583,-7.929187)"
         id="g106107" />
      <g
         transform="translate(12.729552,7.810595)"
         id="g106109" />
      <g
         transform="translate(-0.693656,-11.768183)"
         id="g106111" />
      <g
         transform="translate(-14.992282,-10.045828)"
         id="g106113" />
      <g
         transform="translate(13.309148,7.209716)"
         id="g106115" />
      <g
         transform="translate(5.745971,10.309199)"
         id="g106117" />
      <g
         transform="translate(16.188125,-7.946559)"
         id="g106119" />
      <g
         transform="translate(-2.48521,11.435856)"
         id="g106121" />
      <g
         transform="translate(-0.441294,14.912453)"
         id="g106123" />
      <g
         transform="translate(-0.422087,3.766478)"
         id="g106125" />
      <g
         transform="translate(-11.830091,-0.127628)"
         id="g106127" />
      <g
         transform="translate(0.032504,-3.097094)"
         id="g106129" />
      <g
         transform="translate(-12.917209,7.970503)"
         id="g106131" />
      <g
         transform="translate(0.577913,3.766478)"
         id="g106133" />
      <g
         transform="translate(14.962804,10.076212)"
         id="g106135" />
      <g
         transform="translate(-16.156203,8.000197)"
         id="g106137" />
      <g
         transform="translate(-15.860667,8.741064)"
         id="g106139" />
      <g
         transform="translate(2.586331,-11.469316)"
         id="g106141" />
      <g
         transform="translate(11.845343,0.21225)"
         id="g106143" />
      <g
         transform="translate(13.170709,-7.086862)"
         id="g106145" />
      <g
         transform="translate(6.066533,-10.127214)"
         id="g106147" />
      <g
         transform="translate(15.54874,9.375472)"
         id="g106149" />
      <g
         transform="translate(0.71749,11.909733)"
         id="g106151" />
      <g
         transform="translate(-9.88128,6.535113)"
         id="g106153" />
      <g
         transform="translate(-5.761039,-10.359238)"
         id="g106155" />
      <g
         transform="translate(0.471806,0.162131)"
         id="g106157" />
      <g
         transform="translate(0.454715,-14.910063)"
         id="g106159" />
      <g
         transform="translate(10.637666,5.321874)"
         id="g106161" />
      <g
         transform="translate(9.939666,-6.540195)"
         id="g106163" />
      <g
         transform="translate(0.420592,15.207871)"
         id="g106165" />
      <g
         transform="translate(-1.210497,18.006469)"
         id="g106167" />
      <g
         transform="translate(1.191902,-17.980974)"
         id="g106169" />
      <g
         transform="translate(11.255901,-3.454861)"
         id="g106171" />
      <g
         transform="translate(15.875605,-8.745853)"
         id="g106173" />
      <g
         transform="translate(-13.290511,7.127683)"
         id="g106175" />
      <g
         transform="translate(-0.424974,0.102274)"
         id="g106177" />
      <g
         transform="translate(-0.344085,18.125603)"
         id="g106179" />
      <g
         transform="translate(-10.651066,-5.346349)"
         id="g106181" />
      <g
         transform="translate(0.34008,-18.079758)"
         id="g106183" />
      <g
         transform="translate(-11.270104,3.557371)"
         id="g106185" />
      <g
         transform="translate(-8.620319,-7.94115)"
         id="g106187" />
      <g
         transform="translate(-6.002074,10.170421)"
         id="g106189" />
      <rect
         height="37.999329"
         style="fill:#ffffff"
         width="38.000145"
         x="-19.000072"
         y="-18.999664"
         pcbmode:type="mask-cover"
         id="rect106191" />
    </mask>
  </defs>
  <sodipodi:namedview
     id="base"
     pagecolor="#ffffff"
     bordercolor="#666666"
     borderopacity="1.0"
     inkscape:pageopacity="0.0"
     inkscape:pageshadow="2"
     inkscape:zoom="3.959798"
     inkscape:cx="377.58797"
     inkscape:cy="702.8539"
     inkscape:document-units="mm"
     inkscape:current-layer="layer1"
     showgrid="false"
     inkscape:window-width="1366"
     inkscape:window-height="705"
     inkscape:window-x="-8"
     inkscape:window-y="32"
     inkscape:window-maximized="1" />
  <metadata
     id="metadata106327">
    <rdf:RDF>
      <cc:Work
         rdf:about="">
        <dc:format>image/svg+xml</dc:format>
        <dc:type
           rdf:resource="http://purl.org/dc/dcmitype/StillImage" />
        <dc:title></dc:title>
      </cc:Work>
    </rdf:RDF>
  </metadata>
  <g
     inkscape:label="Layer 1"
     inkscape:groupmode="layer"
     id="layer1">
    <g
       transform="translate(105.69159,112.02096)"
       style="fill:#a60000;fill-opacity:0.2;stroke:#a60000;stroke-linecap:round;stroke-linejoin:round;stroke-opacity:0.2"
       mask="url(#mask-bottom)"
       id="g100858">
      <g
         transform="translate(0,-14)"
         pcbmode:type="pours"
         id="g100856">
        <path
           inkscape:connector-curvature="0"
           d="m 0.204897,-4.897242 c 3.261828,0.035 6.463649,0.90945 9.29504,2.54403 L 5.314663,4.896468 C 3.699622,3.960698 1.866806,3.466318 2.58e-4,3.462968 c -0.222578,4.8e-4 -0.44481,0.009 -0.66611,0.0232 v -0.85679 c 0.229979,-0.0172 0.4118,-0.20741 0.411861,-0.44183 -2.51e-4,-0.037 -0.0051,-0.0738 -0.01447,-0.10956 0.101094,0.0111 0.202678,0.0171 0.304374,0.0181 1.697622,1.3e-4 3.073847,-1.3761 3.073712,-3.07372 -0.0028,-1.10767 -0.601372,-2.12816 -1.566828,-2.67115 0.05687,-0.0765 0.08766,-0.16925 0.08785,-0.26459 2.17e-4,-0.24589 -0.199032,-0.44538 -0.444934,-0.44544 -0.175207,1.7e-4 -0.334002,0.10315 -0.405659,0.26303 -0.04874,-0.19389 -0.220787,-0.33149 -0.420647,-0.33641 -0.0034,-4e-5 -0.0069,-4e-5 -0.01033,0 -0.223377,2.5e-4 -0.411951,0.16606 -0.440801,0.38757 -1.644769,0.0685 -2.943508,1.42079 -2.945556,3.06699 5.98e-4,1.28221 0.797129,2.42932 1.998329,2.87786 -0.068,0.0803 -0.105354,0.1821 -0.105421,0.28733 6.7e-5,0.2457 0.199232,0.44487 0.444934,0.44493 0.0048,0 0.0092,-10e-4 0.01395,-0.002 v 0.85576 c -1.627365,0.10875 -3.210978,0.59088 -4.627108,1.41232 l -4.18734,-7.25227 c 2.75681,-1.59151 5.869302,-2.46488 9.051644,-2.5399 0.217895,-0.005 0.435734,-0.006 0.65319,-0.004 z"
           style="stroke:none"
           pcbmode:style="fill"
           id="path100854" />
      </g>
    </g>
    <circle
       style="opacity:1;fill:#009999;fill-opacity:0.6;stroke:none;stroke-width:0.2;stroke-miterlimit:4;stroke-dasharray:0.79999999, 0.2;stroke-dashoffset:0;stroke-opacity:0"
       id="path106989"
       cx="105.69159"
       cy="112.12239"
       r="19" />
    <circle
       style="opacity:1;fill:#009999;fill-opacity:0.6;stroke:none;stroke-width:0.19391736;stroke-miterlimit:4;stroke-dasharray:0.77566944, 0.19391736;stroke-dashoffset:0;stroke-opacity:0"
       id="path106991"
       cx="82.70945"
       cy="130.00496"
       r="8.5206776"
       transform="rotate(-10.844262)" />
    <path
       inkscape:connector-curvature="0"
       id="path107146"
       style="font-style:normal;font-variant:normal;font-weight:normal;font-stretch:normal;font-size:2.46944451px;line-height:1.25;font-family:Georgia;-inkscape-font-specification:Georgia;letter-spacing:0.03175px;word-spacing:0px;fill:#000000;fill-opacity:1;stroke:none;stroke-width:0.26458332"
       d="m 114.18867,111.37543 -0.10252,-0.76365 0.0849,-0.0114 q 0.007,0.0319 0.0197,0.0922 0.013,0.0603 0.0259,0.0841 0.0208,0.0374 0.0495,0.0517 0.0299,0.0142 0.0777,0.008 l 1.22852,-0.16494 q 0.0418,-0.006 0.0675,-0.0225 0.0269,-0.017 0.0395,-0.0686 0.01,-0.0378 0.0141,-0.0944 0.006,-0.0555 0.004,-0.0905 l 0.0849,-0.0114 0.10252,0.76364 -0.0849,0.0114 q -0.006,-0.0369 -0.0214,-0.0871 -0.0141,-0.0504 -0.0312,-0.0871 -0.0204,-0.0435 -0.0548,-0.0547 -0.0343,-0.0112 -0.0738,-0.006 l -1.22732,0.16477 q -0.0394,0.005 -0.0683,0.0262 -0.0275,0.0219 -0.0398,0.0662 -0.006,0.0264 -0.0106,0.0842 -0.003,0.0588 0.001,0.0984 z" />
    <path
       inkscape:connector-curvature="0"
       id="path107148"
       style="font-style:normal;font-variant:normal;font-weight:normal;font-stretch:normal;font-size:2.46944451px;line-height:1.25;font-family:Georgia;-inkscape-font-specification:Georgia;letter-spacing:0.03175px;word-spacing:0px;fill:#000000;fill-opacity:1;stroke:none;stroke-width:0.26458332"
       d="m 114.21908,112.37176 -0.013,-0.77038 0.0856,-0.001 q 0.003,0.0325 0.009,0.0939 0.006,0.0614 0.0159,0.0866 0.0163,0.0395 0.0432,0.0572 0.028,0.0176 0.0763,0.0168 l 1.23937,-0.0209 q 0.0422,-7.1e-4 0.0697,-0.0144 0.0287,-0.0138 0.0472,-0.0635 0.0139,-0.0364 0.025,-0.0921 0.0123,-0.0545 0.0142,-0.0895 l 0.0856,-10e-4 0.013,0.77039 -0.0856,0.001 q -0.002,-0.0374 -0.0112,-0.0891 -0.008,-0.0517 -0.0208,-0.0901 -0.0152,-0.0456 -0.0481,-0.0607 -0.0328,-0.0151 -0.0726,-0.0145 l -1.23817,0.0209 q -0.0398,6.7e-4 -0.0708,0.0181 -0.0298,0.0186 -0.0472,0.0611 -0.009,0.0255 -0.0203,0.0823 -0.01,0.0581 -0.0104,0.0979 z" />
    <path
       inkscape:connector-curvature="0"
       id="path107150"
       style="font-style:normal;font-variant:normal;font-weight:normal;font-stretch:normal;font-size:2.46944451px;line-height:1.25;font-family:Georgia;-inkscape-font-specification:Georgia;letter-spacing:0.03175px;word-spacing:0px;fill:#000000;fill-opacity:1;stroke:none;stroke-width:0.26458332"
       d="m 114.13233,113.36484 0.0775,-0.76659 0.0852,0.009 q -8.8e-4,0.0326 -0.002,0.0943 -0.001,0.0617 0.006,0.0878 0.0116,0.0412 0.0362,0.0618 0.0258,0.0208 0.0738,0.0256 l 1.23325,0.12472 q 0.042,0.004 0.0709,-0.006 0.0301,-0.0103 0.0543,-0.0575 0.018,-0.0345 0.0356,-0.0885 0.0186,-0.0526 0.0246,-0.0872 l 0.0852,0.009 -0.0775,0.76659 -0.0852,-0.009 q 0.003,-0.0373 -6.2e-4,-0.0897 -0.002,-0.0523 -0.0101,-0.0919 -0.01,-0.047 -0.0406,-0.0659 -0.0308,-0.0189 -0.0704,-0.0229 l -1.23206,-0.1246 q -0.0396,-0.004 -0.0725,0.01 -0.0318,0.015 -0.0541,0.0551 -0.0121,0.0242 -0.0298,0.0794 -0.0166,0.0565 -0.0218,0.096 z" />
    <path
       inkscape:connector-curvature="0"
       id="path107152"
       style="font-style:normal;font-variant:normal;font-weight:normal;font-stretch:normal;font-size:2.46944451px;line-height:1.25;font-family:Georgia;-inkscape-font-specification:Georgia;letter-spacing:0.03175px;word-spacing:0px;fill:#000000;fill-opacity:1;stroke:none;stroke-width:0.26458332"
       d="m 113.23833,116.09738 0.32862,-0.69691 0.0774,0.0365 q -0.0117,0.0305 -0.0336,0.0881 -0.0219,0.0577 -0.0239,0.0847 -0.003,0.0427 0.0135,0.0703 0.0174,0.0282 0.061,0.0487 l 1.12116,0.52867 q 0.0382,0.018 0.0689,0.0178 0.0318,3.5e-4 0.0704,-0.0361 0.0285,-0.0266 0.0631,-0.0716 0.0351,-0.0434 0.0522,-0.074 l 0.0774,0.0365 -0.32861,0.6969 -0.0774,-0.0365 q 0.0149,-0.0343 0.0293,-0.0848 0.0156,-0.05 0.0211,-0.09 0.006,-0.0476 -0.0163,-0.0757 -0.0228,-0.0281 -0.0588,-0.045 l -1.12006,-0.52815 q -0.036,-0.017 -0.0715,-0.0151 -0.035,0.004 -0.0693,0.034 -0.0195,0.0188 -0.0546,0.0649 -0.0345,0.0477 -0.0526,0.0832 z" />
    <path
       inkscape:connector-curvature="0"
       id="path107154"
       style="font-style:normal;font-variant:normal;font-weight:normal;font-stretch:normal;font-size:2.46944451px;line-height:1.25;font-family:Georgia;-inkscape-font-specification:Georgia;letter-spacing:0.03175px;word-spacing:0px;fill:#000000;fill-opacity:1;stroke:none;stroke-width:0.26458332"
       d="m 113.59334,118.54651 q 0.0166,-0.0266 0.0307,-0.071 0.0151,-0.0437 0.0164,-0.0778 0.002,-0.0481 -0.0166,-0.0915 -0.0194,-0.0423 -0.0507,-0.0927 -0.1132,-0.17455 -0.35855,-0.53653 -0.24435,-0.36131 -0.51221,-0.75023 l 0.0562,-0.0828 q 0.48358,0.11856 0.93244,0.22813 0.44887,0.10958 0.60707,0.14707 0.0391,0.009 0.0755,0.005 0.0375,-0.004 0.0808,-0.0224 0.0353,-0.0154 0.0656,-0.0429 0.0313,-0.0268 0.0523,-0.0534 l 0.0708,0.0481 -0.3977,0.5855 -0.0708,-0.0481 q 0.0468,-0.0775 0.0711,-0.13683 0.0236,-0.0583 -0.004,-0.0773 -0.011,-0.007 -0.0286,-0.0136 -0.0177,-0.006 -0.0287,-0.009 -0.12281,-0.0295 -0.40048,-0.0971 -0.27667,-0.0669 -0.78828,-0.19144 0.13303,0.20115 0.31732,0.47063 0.18428,0.26948 0.255,0.36708 0.0684,0.0946 0.0999,0.12327 0.0309,0.0297 0.0528,0.0446 0.0229,0.0156 0.0521,0.005 0.0295,-0.009 0.0635,-0.0356 0.0323,-0.0261 0.0603,-0.0567 0.028,-0.0305 0.0547,-0.0634 l 0.0708,0.0481 -0.35773,0.52665 z" />
    <path
       inkscape:connector-curvature="0"
       id="path107156"
       style="font-style:normal;font-variant:normal;font-weight:normal;font-stretch:normal;font-size:2.46944451px;line-height:1.25;font-family:Georgia;-inkscape-font-specification:Georgia;letter-spacing:0.03175px;word-spacing:0px;fill:#000000;fill-opacity:1;stroke:none;stroke-width:0.26458332"
       d="m 110.30251,121.2051 q 0.026,-0.0176 0.0569,-0.0524 0.0315,-0.0338 0.0466,-0.0644 0.0215,-0.0431 0.022,-0.0903 -5.1e-4,-0.0465 -0.009,-0.10534 -0.0325,-0.20549 -0.10969,-0.63592 -0.0765,-0.42941 -0.1633,-0.89361 l 0.085,-0.0528 q 0.39372,0.30477 0.75938,0.58723 0.36566,0.28246 0.49499,0.38098 0.032,0.0241 0.0671,0.0349 0.0358,0.0119 0.0829,0.0124 0.0385,2.4e-4 0.0774,-0.0126 0.0395,-0.0118 0.0695,-0.0275 l 0.0452,0.0727 -0.60125,0.37347 -0.0452,-0.0727 q 0.0743,-0.0518 0.12054,-0.0962 0.0452,-0.0437 0.0274,-0.0724 -0.007,-0.0113 -0.0206,-0.0241 -0.0136,-0.0128 -0.0224,-0.0201 -0.10025,-0.0768 -0.32651,-0.25141 -0.22562,-0.17356 -0.64255,-0.49514 0.0399,0.23784 0.0988,0.55894 0.0589,0.3211 0.0839,0.43902 0.0241,0.1142 0.0412,0.15323 0.0161,0.0397 0.0301,0.0622 0.0146,0.0236 0.0457,0.0256 0.0307,0.004 0.0725,-0.007 0.0402,-0.0108 0.0782,-0.0273 0.038,-0.0165 0.0758,-0.0357 l 0.0452,0.0727 -0.54082,0.33593 z" />
    <path
       inkscape:connector-curvature="0"
       id="path107158"
       style="font-style:normal;font-variant:normal;font-weight:normal;font-stretch:normal;font-size:2.46944451px;line-height:1.25;font-family:Georgia;-inkscape-font-specification:Georgia;letter-spacing:0.03175px;word-spacing:0px;fill:#000000;fill-opacity:1;stroke:none;stroke-width:0.26458332"
       d="m 105.46264,122.30517 q 0.0312,-0.003 0.0749,-0.0193 0.0437,-0.0149 0.0715,-0.0348 0.0393,-0.0279 0.062,-0.0692 0.0215,-0.0413 0.0421,-0.097 0.0683,-0.19652 0.2034,-0.61242 0.13518,-0.4147 0.27774,-0.86491 l 0.0999,-0.006 q 0.20329,0.45451 0.39237,0.87609 0.18908,0.42159 0.25661,0.56948 0.0169,0.0364 0.0427,0.0625 0.0259,0.0273 0.0673,0.05 0.0338,0.0184 0.0741,0.0254 0.0404,0.008 0.0743,0.008 l 0.006,0.0854 -0.70633,0.0455 -0.006,-0.0854 q 0.0899,-0.0106 0.15165,-0.0279 0.0605,-0.0172 0.0584,-0.0509 -8.6e-4,-0.0132 -0.007,-0.031 -0.006,-0.0177 -0.0103,-0.0283 -0.0521,-0.11505 -0.16921,-0.37574 -0.11701,-0.25949 -0.33283,-0.73977 -0.0771,0.2285 -0.17669,0.53941 -0.0996,0.3109 -0.1332,0.42665 -0.0326,0.11206 -0.0359,0.15456 -0.005,0.0426 -0.003,0.0691 0.002,0.0277 0.0282,0.0441 0.0253,0.0177 0.0671,0.0283 0.0405,0.009 0.0818,0.0129 0.0413,0.003 0.0837,0.004 l 0.005,0.0854 -0.63533,0.0409 z" />
    <path
       inkscape:connector-curvature="0"
       id="path107160"
       style="font-style:normal;font-variant:normal;font-weight:normal;font-stretch:normal;font-size:2.46944451px;line-height:1.25;font-family:Georgia;-inkscape-font-specification:Georgia;letter-spacing:0.03175px;word-spacing:0px;fill:#000000;fill-opacity:1;stroke:none;stroke-width:0.26458332"
       d="m 104.51376,120.57239 0.76716,0.0716 -0.008,0.0852 q -0.0326,-6.2e-4 -0.0943,-0.002 -0.0617,-9.1e-4 -0.0878,0.006 -0.0411,0.0119 -0.0616,0.0366 -0.0206,0.0259 -0.0251,0.074 l -0.11521,1.23418 q -0.004,0.042 0.007,0.0709 0.0105,0.0301 0.0579,0.0538 0.0347,0.0178 0.0888,0.0349 0.0528,0.0182 0.0874,0.0239 l -0.008,0.0852 -0.76716,-0.0716 0.008,-0.0852 q 0.0373,0.002 0.0897,-0.001 0.0523,-0.002 0.0918,-0.0108 0.047,-0.0101 0.0656,-0.0411 0.0186,-0.031 0.0223,-0.0706 l 0.1151,-1.23298 q 0.004,-0.0396 -0.0102,-0.0724 -0.0152,-0.0317 -0.0555,-0.0536 -0.0243,-0.012 -0.0796,-0.0292 -0.0566,-0.0162 -0.0961,-0.0211 z" />
    <path
       inkscape:connector-curvature="0"
       id="path107162"
       style="font-style:normal;font-variant:normal;font-weight:normal;font-stretch:normal;font-size:2.46944451px;line-height:1.25;font-family:Georgia;-inkscape-font-specification:Georgia;letter-spacing:0.03175px;word-spacing:0px;fill:#000000;fill-opacity:1;stroke:none;stroke-width:0.26458332"
       d="m 100.95057,121.13546 q 0.0294,0.0111 0.0756,0.0162 0.0458,0.006 0.0795,8e-4 0.0476,-0.007 0.0864,-0.0342 0.0377,-0.0273 0.081,-0.0679 0.14893,-0.14528 0.45568,-0.45693 0.30629,-0.31054 0.63504,-0.64956 l 0.0922,0.0389 q -0.0213,0.49744 -0.0406,0.95909 -0.0193,0.46164 -0.025,0.62412 -10e-4,0.0401 0.0102,0.075 0.011,0.036 0.0378,0.0748 0.022,0.0315 0.055,0.0559 0.0324,0.0255 0.0626,0.0408 l -0.0333,0.0789 -0.65219,-0.27498 0.0333,-0.0789 q 0.0852,0.0307 0.14813,0.0428 0.0618,0.0117 0.0749,-0.0194 0.005,-0.0122 0.008,-0.0308 0.003,-0.0185 0.003,-0.0299 0.005,-0.12621 0.0166,-0.41175 0.0113,-0.28443 0.0329,-0.81053 -0.17111,0.16995 -0.39916,0.40356 -0.22804,0.23361 -0.30986,0.32212 -0.0793,0.0857 -0.10124,0.12219 -0.0231,0.0361 -0.0334,0.0605 -0.0108,0.0256 0.006,0.0521 0.0147,0.0272 0.0473,0.0553 0.032,0.0266 0.0674,0.0481 0.0354,0.0215 0.0729,0.0412 l -0.0333,0.0789 -0.58664,-0.24735 z" />
    <path
       inkscape:connector-curvature="0"
       id="path107164"
       style="font-style:normal;font-variant:normal;font-weight:normal;font-stretch:normal;font-size:2.46944451px;line-height:1.25;font-family:Georgia;-inkscape-font-specification:Georgia;letter-spacing:0.03175px;word-spacing:0px;fill:#000000;fill-opacity:1;stroke:none;stroke-width:0.26458332"
       d="m 100.87577,119.162 0.65474,0.40617 -0.0451,0.0727 q -0.0289,-0.0151 -0.0837,-0.0434 -0.0548,-0.0283 -0.0814,-0.0335 -0.0421,-0.008 -0.0714,0.005 -0.03,0.014 -0.0554,0.055 l -0.65344,1.05332 q -0.0222,0.0359 -0.0256,0.0664 -0.004,0.0316 0.0279,0.074 0.0231,0.0314 0.0639,0.0709 0.0391,0.0399 0.0676,0.0604 l -0.0451,0.0727 -0.654742,-0.40618 0.04513,-0.0727 q 0.0324,0.0187 0.0809,0.0388 0.0479,0.0212 0.087,0.0313 0.0466,0.0119 0.077,-0.008 0.0305,-0.0194 0.0515,-0.0532 l 0.6528,-1.0523 q 0.021,-0.0338 0.0232,-0.0694 5.2e-4,-0.0352 -0.0258,-0.0728 -0.0164,-0.0215 -0.0582,-0.0617 -0.0435,-0.0397 -0.0766,-0.0617 z" />
    <path
       inkscape:connector-curvature="0"
       id="path107166"
       style="font-style:normal;font-variant:normal;font-weight:normal;font-stretch:normal;font-size:2.46944451px;line-height:1.25;font-family:Georgia;-inkscape-font-specification:Georgia;letter-spacing:0.03175px;word-spacing:0px;fill:#000000;fill-opacity:1;stroke:none;stroke-width:0.26458332"
       d="m 100.08708,118.55232 0.60321,0.47937 -0.0533,0.067 q -0.027,-0.0184 -0.0781,-0.0529 -0.0511,-0.0345 -0.077,-0.0427 -0.0409,-0.0125 -0.0716,-0.003 -0.0314,0.0105 -0.0614,0.0482 l -0.771203,0.97042 q -0.02626,0.033 -0.03313,0.063 -0.0076,0.0309 0.01908,0.0768 0.01932,0.0338 0.05524,0.0778 0.03423,0.0441 0.0601,0.0678 l -0.05326,0.067 -0.603211,-0.47938 0.05326,-0.067 q 0.03001,0.0223 0.07586,0.048 0.04509,0.0266 0.0828,0.0412 0.04487,0.0172 0.0774,0.001 0.03253,-0.0157 0.05728,-0.0469 l 0.770454,-0.96948 q 0.0248,-0.0311 0.031,-0.0662 0.005,-0.0348 -0.0172,-0.0753 -0.0138,-0.0233 -0.0507,-0.068 -0.0386,-0.0445 -0.069,-0.0702 z" />
    <path
       inkscape:connector-curvature="0"
       id="path107168"
       style="font-style:normal;font-variant:normal;font-weight:normal;font-stretch:normal;font-size:2.46944451px;line-height:1.25;font-family:Georgia;-inkscape-font-specification:Georgia;letter-spacing:0.03175px;word-spacing:0px;fill:#000000;fill-opacity:1;stroke:none;stroke-width:0.26458332"
       d="m 97.184178,117.72402 q 0.02039,0.0239 0.05846,0.0506 0.03712,0.0275 0.06926,0.039 0.04529,0.0165 0.09221,0.0117 0.04617,-0.006 0.103694,-0.0205 0.200505,-0.0555 0.619488,-0.18072 0.418037,-0.12447 0.869489,-0.26306 l 0.06206,0.0785 q -0.25842,0.42558 -0.49783,0.82076 -0.23941,0.39519 -0.322713,0.53481 -0.02035,0.0345 -0.02715,0.0706 -0.0078,0.0369 -0.0029,0.0838 0.0041,0.0383 0.02121,0.0755 0.01616,0.0379 0.0352,0.0659 l -0.06716,0.0531 -0.438902,-0.55528 0.06716,-0.0531 q 0.05986,0.068 0.109148,0.10893 0.04854,0.04 0.07502,0.0191 0.01041,-0.008 0.02161,-0.0232 0.0112,-0.015 0.01747,-0.0246 0.06504,-0.10828 0.212985,-0.35278 0.147,-0.24376 0.419502,-0.6943 -0.231829,0.0664 -0.544236,0.1612 -0.312406,0.0948 -0.426749,0.13289 -0.110757,0.0368 -0.147604,0.0583 -0.0376,0.0205 -0.05841,0.037 -0.02176,0.0172 -0.02025,0.0483 -1.81e-4,0.0309 0.01484,0.0713 0.01521,0.0387 0.03591,0.0746 0.02069,0.0359 0.04402,0.0712 l -0.06716,0.0531 -0.394787,-0.49947 z" />
    <path
       inkscape:connector-curvature="0"
       id="path107170"
       style="font-style:normal;font-variant:normal;font-weight:normal;font-stretch:normal;font-size:2.46944451px;line-height:1.25;font-family:Georgia;-inkscape-font-specification:Georgia;letter-spacing:0.03175px;word-spacing:0px;fill:#000000;fill-opacity:1;stroke:none;stroke-width:0.26458332"
       d="m 98.07098,115.95825 0.376907,0.67202 -0.07467,0.0419 q -0.01803,-0.0272 -0.05232,-0.0785 -0.03429,-0.0513 -0.05509,-0.0686 -0.03314,-0.027 -0.06512,-0.0298 -0.03304,-0.002 -0.0751,0.0214 l -1.081114,0.60636 q -0.03681,0.0206 -0.05451,0.0458 -0.01875,0.0257 -0.01139,0.0783 0.0051,0.0386 0.02169,0.0929 0.01497,0.0538 0.02998,0.0855 l -0.07467,0.0419 -0.376907,-0.67202 0.07467,-0.0419 q 0.01934,0.032 0.05206,0.0731 0.03167,0.0417 0.06106,0.0694 0.03503,0.0329 0.0711,0.0306 0.03606,-0.002 0.07077,-0.0217 l 1.080062,-0.60577 q 0.03471,-0.0195 0.05379,-0.0495 0.01744,-0.0305 0.01257,-0.0762 -0.004,-0.0268 -0.02118,-0.0821 -0.01885,-0.0558 -0.03726,-0.0911 z" />
    <path
       inkscape:connector-curvature="0"
       id="path107172"
       style="font-style:normal;font-variant:normal;font-weight:normal;font-stretch:normal;font-size:2.46944451px;line-height:1.25;font-family:Georgia;-inkscape-font-specification:Georgia;letter-spacing:0.03175px;word-spacing:0px;fill:#000000;fill-opacity:1;stroke:none;stroke-width:0.26458332"
       d="m 97.676425,115.0428 0.29534,0.71164 -0.07907,0.0328 q -0.01471,-0.0292 -0.04273,-0.0841 -0.02803,-0.0549 -0.04664,-0.0746 -0.02973,-0.0307 -0.06116,-0.0373 -0.03255,-0.006 -0.07709,0.0124 l -1.144868,0.47513 q -0.03898,0.0162 -0.05951,0.0391 -0.02165,0.0233 -0.02051,0.0764 5.02e-4,0.0389 0.01063,0.0948 0.0085,0.0552 0.01972,0.0884 l -0.07907,0.0328 -0.29534,-0.71164 0.07907,-0.0328 q 0.01544,0.0341 0.04311,0.0787 0.02656,0.0451 0.05248,0.0761 0.03093,0.0368 0.067,0.0388 0.03608,0.002 0.07283,-0.0132 l 1.143754,-0.47467 q 0.03675,-0.0153 0.05924,-0.0429 0.02091,-0.0283 0.02144,-0.0742 -7.97e-4,-0.0271 -0.01138,-0.0841 -0.01216,-0.0576 -0.0263,-0.0948 z" />
    <path
       inkscape:connector-curvature="0"
       id="path107174"
       style="font-style:normal;font-variant:normal;font-weight:normal;font-stretch:normal;font-size:2.46944451px;line-height:1.25;font-family:Georgia;-inkscape-font-specification:Georgia;letter-spacing:0.03175px;word-spacing:0px;fill:#000000;fill-opacity:1;stroke:none;stroke-width:0.26458332"
       d="m 97.391662,114.08759 0.210258,0.74125 -0.08236,0.0234 q -0.0112,-0.0307 -0.03263,-0.0885 -0.02142,-0.0579 -0.03761,-0.0796 -0.02594,-0.034 -0.05639,-0.0442 -0.03162,-0.01 -0.07802,0.003 l -1.192499,0.33826 q -0.0406,0.0115 -0.06366,0.0318 -0.02422,0.0207 -0.02929,0.0735 -0.004,0.0387 -5.13e-4,0.0954 0.002,0.0558 0.0093,0.0901 l -0.08236,0.0234 -0.210258,-0.74126 0.08236,-0.0234 q 0.01136,0.0356 0.03363,0.0832 0.02111,0.0479 0.04324,0.0817 0.02642,0.0401 0.06202,0.0463 0.0356,0.006 0.07388,-0.005 l 1.19134,-0.33792 q 0.03828,-0.0109 0.06384,-0.0357 0.02406,-0.0256 0.02995,-0.0712 0.0024,-0.027 -0.0015,-0.0848 -0.0054,-0.0587 -0.01505,-0.0973 z" />
    <path
       inkscape:connector-curvature="0"
       id="path107176"
       style="font-style:normal;font-variant:normal;font-weight:normal;font-stretch:normal;font-size:2.46944451px;line-height:1.25;font-family:Georgia;-inkscape-font-specification:Georgia;letter-spacing:0.03175px;word-spacing:0px;fill:#000000;fill-opacity:1;stroke:none;stroke-width:0.26458332"
       d="m 97.168583,112.47739 0.0675,0.76753 -0.08528,0.008 q -0.0053,-0.0322 -0.01545,-0.0931 -0.01019,-0.0608 -0.02202,-0.0852 -0.0191,-0.0383 -0.04711,-0.054 -0.02921,-0.0156 -0.07726,-0.0114 l -1.234779,0.1086 q -0.04204,0.004 -0.06851,0.0193 -0.02766,0.0157 -0.04255,0.0667 -0.01124,0.0373 -0.0184,0.0936 -0.0085,0.0552 -0.0078,0.0903 l -0.08528,0.007 -0.0675,-0.76753 0.08528,-0.008 q 0.0045,0.0371 0.01743,0.088 0.01175,0.051 0.02714,0.0884 0.01843,0.0444 0.05223,0.0571 0.0338,0.0128 0.07344,0.009 l 1.233578,-0.10849 q 0.03964,-0.003 0.06939,-0.023 0.02844,-0.0207 0.04276,-0.0643 0.0074,-0.0261 0.01444,-0.0836 0.0057,-0.0586 0.0035,-0.0984 z" />
    <path
       inkscape:connector-curvature="0"
       id="path107178"
       style="font-style:normal;font-variant:normal;font-weight:normal;font-stretch:normal;font-size:2.46944451px;line-height:1.25;font-family:Georgia;-inkscape-font-specification:Georgia;letter-spacing:0.03175px;word-spacing:0px;fill:#000000;fill-opacity:1;stroke:none;stroke-width:0.26458332"
       d="m 97.260755,110.59248 -0.06093,0.79832 -0.08536,-0.007 q 0.0051,-0.0988 -0.0059,-0.16008 -0.01215,-0.0626 -0.04582,-0.0652 -0.01803,-10e-4 -0.07665,0.022 -0.05862,0.0233 -0.131655,0.0613 -0.08062,0.0422 -0.18906,0.10045 -0.109646,0.0581 -0.209582,0.11582 0.131389,0.11644 0.318287,0.26615 0.185695,0.14961 0.220561,0.15228 0.03967,0.003 0.06166,-0.0316 0.02088,-0.0359 0.03523,-0.16056 l 0.08536,0.007 -0.04864,0.63722 -0.08536,-0.007 q -1.9e-5,-0.0314 -0.0024,-0.08 -0.0035,-0.0499 -0.01669,-0.0823 -0.02889,-0.0651 -0.06452,-0.1053 -0.03674,-0.0415 -0.0867,-0.084 -0.09993,-0.085 -0.248252,-0.21727 -0.149525,-0.13234 -0.272306,-0.23483 -0.107517,0.0619 -0.272073,0.15821 -0.165758,0.0962 -0.354259,0.20515 -0.07969,0.0459 -0.113243,0.0736 -0.03346,0.0265 -0.06007,0.074 -0.01543,0.0279 -0.02659,0.079 -0.01227,0.0499 -0.01697,0.0797 l -0.08536,-0.007 0.06029,-0.7899 0.08536,0.007 q -0.0029,0.0699 0.0069,0.14685 0.0087,0.0756 0.04,0.078 0.02284,0.002 0.08285,-0.0239 0.0588,-0.0257 0.126845,-0.0617 0.07054,-0.0369 0.156242,-0.0824 0.0857,-0.0455 0.198394,-0.11183 -0.17358,-0.1499 -0.313937,-0.25978 -0.140356,-0.10987 -0.184841,-0.11327 -0.03847,-0.003 -0.05999,0.0414 -0.02143,0.0431 -0.03441,0.14974 l -0.08536,-0.007 0.04854,-0.63601 0.08536,0.007 q -0.0011,0.0302 0.0036,0.0801 0.0035,0.0486 0.01549,0.0822 0.02529,0.0648 0.05777,0.0987 0.03257,0.0327 0.09475,0.0895 0.116494,0.10563 0.219662,0.19574 0.102058,0.0888 0.249637,0.21496 0.144402,-0.0857 0.327727,-0.19024 0.183416,-0.10572 0.350377,-0.20181 0.05695,-0.0332 0.109912,-0.0775 0.05176,-0.0444 0.07209,-0.0731 0.01904,-0.0276 0.02752,-0.0753 0.0074,-0.049 0.01114,-0.0826 z" />
    <path
       inkscape:connector-curvature="0"
       id="path107180"
       style="font-style:normal;font-variant:normal;font-weight:normal;font-stretch:normal;font-size:2.46944451px;line-height:1.25;font-family:Georgia;-inkscape-font-specification:Georgia;letter-spacing:0.03175px;word-spacing:0px;fill:#000000;fill-opacity:1;stroke:none;stroke-width:0.26458332"
       d="m 98.675675,107.20835 -0.389933,0.69927 -0.07477,-0.0417 q 0.04605,-0.0875 0.06172,-0.14782 0.01521,-0.0619 -0.01428,-0.0784 -0.0158,-0.009 -0.0788,-0.0122 -0.063,-0.003 -0.145225,4.7e-4 -0.09089,0.005 -0.213756,0.012 -0.12392,0.007 -0.238827,0.0173 0.07048,0.16079 0.177422,0.37505 0.105886,0.21367 0.136426,0.2307 0.03475,0.0194 0.06922,-0.003 0.034,-0.0238 0.09929,-0.13101 l 0.07477,0.0417 -0.311243,0.55815 -0.07477,-0.0417 q 0.01316,-0.0285 0.03139,-0.0736 0.01776,-0.0467 0.01934,-0.0817 0.001,-0.0712 -0.01445,-0.12264 -0.01596,-0.0531 -0.04351,-0.11262 -0.05509,-0.11908 -0.134323,-0.30132 -0.08029,-0.18283 -0.148805,-0.32734 -0.123575,0.0112 -0.313332,0.0296 -0.190811,0.0178 -0.407625,0.0378 -0.0916,0.008 -0.13366,0.0193 -0.04148,0.01 -0.08556,0.042 -0.02568,0.0188 -0.05725,0.0606 -0.03204,0.0401 -0.04882,0.0653 l -0.07477,-0.0417 0.385823,-0.6919 0.07477,0.0417 q -0.03195,0.0623 -0.05526,0.13624 -0.02377,0.0723 0.0036,0.0876 0.02001,0.0112 0.08524,0.013 0.06418,0.001 0.141012,-0.003 0.07953,-0.004 0.176392,-0.009 0.09686,-0.005 0.227,-0.0184 -0.09477,-0.20885 -0.176146,-0.36744 -0.08138,-0.15858 -0.120344,-0.18031 -0.0337,-0.0188 -0.07181,0.0124 -0.03753,0.0302 -0.094,0.12153 l -0.07477,-0.0417 0.310655,-0.5571 0.07477,0.0417 q -0.01363,0.0269 -0.03033,0.0742 -0.01717,0.0456 -0.02039,0.0811 -0.0042,0.0695 0.01106,0.11386 0.01586,0.0434 0.04853,0.12094 0.06149,0.14474 0.117391,0.26979 0.05543,0.12341 0.136551,0.2998 0.167035,-0.0173 0.377287,-0.0354 0.21084,-0.0191 0.402703,-0.0364 0.0656,-0.006 0.132263,-0.0243 0.06562,-0.0186 0.09609,-0.0361 0.02884,-0.0171 0.05654,-0.0568 0.02724,-0.0414 0.04473,-0.0703 z" />
    <path
       inkscape:connector-curvature="0"
       id="path107182"
       style="font-style:normal;font-variant:normal;font-weight:normal;font-stretch:normal;font-size:2.46944451px;line-height:1.25;font-family:Georgia;-inkscape-font-specification:Georgia;letter-spacing:0.03175px;word-spacing:0px;fill:#000000;fill-opacity:1;stroke:none;stroke-width:0.26458332"
       d="m 101.37246,104.72219 -0.64614,0.47278 -0.0506,-0.0691 q 0.0784,-0.0603 0.11777,-0.10858 0.0397,-0.0499 0.0197,-0.0772 -0.0107,-0.0146 -0.0665,-0.044 -0.0558,-0.0294 -0.13217,-0.0602 -0.0845,-0.0338 -0.19925,-0.0783 -0.11547,-0.0455 -0.22427,-0.0839 -0.003,0.17554 0.005,0.41487 0.007,0.23836 0.0277,0.26658 0.0235,0.0321 0.0641,0.0263 0.0409,-0.007 0.1449,-0.0776 l 0.0506,0.0691 -0.515749,0.37738 -0.05055,-0.0691 q 0.02388,-0.0205 0.05924,-0.0538 0.03562,-0.035 0.05167,-0.0662 0.0307,-0.0643 0.038,-0.11749 0.008,-0.0549 0.007,-0.1205 -3.8e-4,-0.1312 0.004,-0.32988 0.003,-0.19965 0.001,-0.35957 -0.116959,-0.0414 -0.297102,-0.10384 -0.180855,-0.0634 -0.386204,-0.13576 -0.0867,-0.0307 -0.129541,-0.0382 -0.04187,-0.008 -0.09529,0.003 -0.03119,0.006 -0.0773,0.0312 -0.04585,0.0231 -0.07161,0.0389 l -0.05055,-0.0691 0.639328,-0.46781 0.05055,0.0691 q -0.05502,0.0433 -0.107065,0.10076 -0.05179,0.0558 -0.03327,0.0811 0.01353,0.0185 0.07203,0.0474 0.05779,0.0279 0.129328,0.0563 0.07393,0.0296 0.164193,0.0651 0.09026,0.0356 0.213963,0.078 0.001,-0.22934 -0.007,-0.40742 -0.008,-0.17808 -0.0341,-0.21408 -0.0228,-0.0311 -0.07044,-0.0187 -0.04668,0.0117 -0.13614,0.0712 l -0.05055,-0.0691 0.514779,-0.37666 0.0506,0.0691 q -0.0236,0.0188 -0.0585,0.0548 -0.0346,0.0343 -0.0524,0.0652 -0.0328,0.0613 -0.0375,0.10809 -0.004,0.046 -0.006,0.13015 -0.005,0.1572 -0.006,0.29417 -0.001,0.13528 -9.9e-4,0.32943 0.15901,0.054 0.35762,0.12529 0.19958,0.0706 0.38115,0.13498 0.0622,0.0217 0.13033,0.0331 0.0674,0.0104 0.10241,0.007 0.0333,-0.003 0.0751,-0.0281 0.042,-0.0263 0.07,-0.0452 z" />
    <path
       inkscape:connector-curvature="0"
       id="path107184"
       style="font-style:normal;font-variant:normal;font-weight:normal;font-stretch:normal;font-size:2.46944451px;line-height:1.25;font-family:Georgia;-inkscape-font-specification:Georgia;letter-spacing:0.03175px;word-spacing:0px;fill:#000000;fill-opacity:1;stroke:none;stroke-width:0.26458332"
       d="m 102.19104,104.34233 -0.6879,0.34708 -0.0386,-0.0764 q 0.028,-0.0168 0.0807,-0.0488 0.0527,-0.032 0.071,-0.052 0.0285,-0.0319 0.0327,-0.0637 0.004,-0.0329 -0.0181,-0.076 l -0.55836,-1.10667 q -0.019,-0.0377 -0.0433,-0.0565 -0.0249,-0.0199 -0.0777,-0.0148 -0.0388,0.003 -0.0938,0.0176 -0.0544,0.0126 -0.0867,0.0262 l -0.0386,-0.0764 0.6879,-0.34707 0.0386,0.0764 q -0.0328,0.0179 -0.0753,0.0488 -0.043,0.0298 -0.072,0.058 -0.0344,0.0335 -0.0337,0.0697 6.7e-4,0.0361 0.0186,0.0717 l 0.55782,1.10559 q 0.0179,0.0355 0.0471,0.0559 0.0297,0.0188 0.0756,0.0159 0.0269,-0.003 0.083,-0.0176 0.0566,-0.0164 0.0926,-0.0332 z" />
    <path
       inkscape:connector-curvature="0"
       id="path107186"
       style="font-style:normal;font-variant:normal;font-weight:normal;font-stretch:normal;font-size:2.46944451px;line-height:1.25;font-family:Georgia;-inkscape-font-specification:Georgia;letter-spacing:0.03175px;word-spacing:0px;fill:#000000;fill-opacity:1;stroke:none;stroke-width:0.26458332"
       d="m 105.8638,103.55666 -0.79784,0.0669 -0.007,-0.0853 q 0.0983,-0.0107 0.15709,-0.0313 0.0599,-0.022 0.057,-0.0556 -0.002,-0.018 -0.0339,-0.0722 -0.0324,-0.0542 -0.0815,-0.12022 -0.0545,-0.0729 -0.12926,-0.17066 -0.0749,-0.099 -0.1477,-0.18848 -0.094,0.14825 -0.2121,0.3566 -0.11815,0.20714 -0.11523,0.24198 0.003,0.0397 0.041,0.0559 0.0388,0.0149 0.16413,0.009 l 0.007,0.0853 -0.63683,0.0534 -0.007,-0.0853 q 0.031,-0.005 0.0786,-0.0151 0.0487,-0.0113 0.0786,-0.0296 0.0597,-0.0389 0.0937,-0.0805 0.0351,-0.0429 0.0691,-0.099 0.068,-0.11219 0.17499,-0.27967 0.10685,-0.16868 0.18849,-0.30621 -0.0783,-0.0963 -0.1995,-0.24342 -0.12134,-0.14834 -0.25892,-0.31709 -0.058,-0.0714 -0.0907,-0.10009 -0.0315,-0.0288 -0.0826,-0.0475 -0.0299,-0.0108 -0.0822,-0.0137 -0.0512,-0.004 -0.0814,-0.004 l -0.007,-0.0853 0.78943,-0.0662 0.007,0.0853 q -0.0695,0.008 -0.14388,0.0302 -0.0733,0.0207 -0.0707,0.0519 0.002,0.0228 0.0368,0.078 0.0348,0.054 0.0811,0.11542 0.0477,0.0638 0.10622,0.14113 0.0585,0.0774 0.14199,0.17806 0.12036,-0.19522 0.20649,-0.35128 0.0861,-0.15605 0.0824,-0.20051 -0.003,-0.0385 -0.0504,-0.0526 -0.046,-0.0143 -0.15331,-0.0101 l -0.007,-0.0853 0.63563,-0.0533 0.007,0.0853 q -0.0299,0.004 -0.0785,0.0163 -0.0475,0.0112 -0.0787,0.0284 -0.06,0.0353 -0.0883,0.0727 -0.0271,0.0374 -0.0732,0.10778 -0.0857,0.13183 -0.15828,0.24802 -0.0714,0.1149 -0.17248,0.28067 0.10761,0.12892 0.23998,0.29327 0.13357,0.16425 0.25501,0.31379 0.0418,0.0509 0.094,0.0962 0.0521,0.044 0.0836,0.0595 0.0302,0.0144 0.0787,0.0152 0.0496,-5.3e-4 0.0833,-0.002 z" />
    <path
       inkscape:connector-curvature="0"
       id="path107188"
       style="font-style:normal;font-variant:normal;font-weight:normal;font-stretch:normal;font-size:2.46944451px;line-height:1.25;font-family:Georgia;-inkscape-font-specification:Georgia;letter-spacing:0.03175px;word-spacing:0px;fill:#000000;fill-opacity:1;stroke:none;stroke-width:0.26458332"
       d="m 106.76042,103.65794 -0.76803,-0.0616 0.007,-0.0853 q 0.0326,2e-4 0.0943,3.1e-4 0.0617,1.2e-4 0.0877,-0.007 0.0409,-0.0125 0.0611,-0.0374 0.0203,-0.0262 0.0241,-0.0743 l 0.0992,-1.23558 q 0.003,-0.0421 -0.008,-0.0708 -0.0109,-0.0299 -0.0586,-0.0531 -0.0349,-0.0173 -0.0892,-0.0338 -0.053,-0.0176 -0.0877,-0.0228 l 0.007,-0.0853 0.76803,0.0617 -0.007,0.0853 q -0.0374,-0.002 -0.0897,0.002 -0.0523,0.003 -0.0917,0.012 -0.0468,0.0108 -0.0651,0.0419 -0.0182,0.0312 -0.0214,0.0709 l -0.0991,1.23437 q -0.003,0.0397 0.0111,0.0723 0.0156,0.0315 0.0562,0.0529 0.0245,0.0116 0.08,0.0282 0.0568,0.0155 0.0964,0.0198 z" />
    <path
       inkscape:connector-curvature="0"
       id="path107190"
       style="font-style:normal;font-variant:normal;font-weight:normal;font-stretch:normal;font-size:2.46944451px;line-height:1.25;font-family:Georgia;-inkscape-font-specification:Georgia;letter-spacing:0.03175px;word-spacing:0px;fill:#000000;fill-opacity:1;stroke:none;stroke-width:0.26458332"
       d="m 107.74037,103.84063 -0.75546,-0.15148 0.0168,-0.0839 q 0.0324,0.004 0.0936,0.0114 0.0612,0.007 0.088,0.003 0.0421,-0.008 0.065,-0.03 0.0232,-0.0236 0.0327,-0.0709 l 0.2437,-1.21535 q 0.008,-0.0414 7.4e-4,-0.0712 -0.007,-0.031 -0.052,-0.0596 -0.0326,-0.0213 -0.0846,-0.044 -0.0506,-0.0237 -0.0844,-0.0329 l 0.0168,-0.0839 0.75546,0.15149 -0.0168,0.0839 q -0.0369,-0.006 -0.0894,-0.008 -0.0523,-0.003 -0.0925,0.001 -0.0478,0.005 -0.0695,0.034 -0.0218,0.0288 -0.0296,0.0679 l -0.24347,1.21417 q -0.008,0.039 0.003,0.0731 0.0118,0.0331 0.0496,0.0591 0.0229,0.0144 0.0761,0.0374 0.0546,0.022 0.0934,0.031 z" />
    <path
       inkscape:connector-curvature="0"
       id="path107192"
       style="font-style:normal;font-variant:normal;font-weight:normal;font-stretch:normal;font-size:2.46944451px;line-height:1.25;font-family:Georgia;-inkscape-font-specification:Georgia;letter-spacing:0.03175px;word-spacing:0px;fill:#000000;fill-opacity:1;stroke:none;stroke-width:0.26458332"
       d="m 110.37429,104.99354 -0.66221,-0.39387 0.0438,-0.0736 q 0.0292,0.0146 0.0845,0.0419 0.0553,0.0273 0.082,0.0319 0.0422,0.007 0.0713,-0.007 0.0297,-0.0146 0.0544,-0.056 l 0.63365,-1.06534 q 0.0216,-0.0363 0.0243,-0.0669 0.003,-0.0316 -0.0292,-0.0735 -0.0237,-0.0309 -0.0652,-0.0696 -0.0399,-0.0391 -0.0687,-0.0591 l 0.0438,-0.0736 0.66221,0.39387 -0.0438,0.0736 q -0.0327,-0.0181 -0.0816,-0.0373 -0.0483,-0.0203 -0.0876,-0.0297 -0.0468,-0.011 -0.0769,0.009 -0.0301,0.02 -0.0505,0.0542 l -0.63303,1.06431 q -0.0203,0.0342 -0.0219,0.0698 1.4e-4,0.0351 0.0272,0.0723 0.0168,0.0212 0.0594,0.0606 0.0442,0.0389 0.0778,0.0603 z" />
    <path
       inkscape:connector-curvature="0"
       id="path107194"
       style="font-style:normal;font-variant:normal;font-weight:normal;font-stretch:normal;font-size:2.46944451px;line-height:1.25;font-family:Georgia;-inkscape-font-specification:Georgia;letter-spacing:0.03175px;word-spacing:0px;fill:#000000;fill-opacity:1;stroke:none;stroke-width:0.26458332"
       d="m 113.16599,108.00869 -0.40156,-0.65758 0.0731,-0.0446 q 0.019,0.0265 0.0552,0.0765 0.0362,0.05 0.0576,0.0665 0.0341,0.0258 0.0662,0.0274 0.0331,9.9e-4 0.0743,-0.0242 l 1.05789,-0.64602 q 0.036,-0.022 0.0528,-0.0478 0.0178,-0.0264 0.008,-0.0786 -0.006,-0.0384 -0.0251,-0.092 -0.017,-0.0532 -0.0331,-0.0843 l 0.0731,-0.0446 0.40156,0.65758 -0.0731,0.0446 q -0.0205,-0.0313 -0.0547,-0.0711 -0.0332,-0.0405 -0.0636,-0.0671 -0.0362,-0.0316 -0.0722,-0.028 -0.036,0.004 -0.0699,0.0243 l -1.05687,0.64539 q -0.034,0.0207 -0.0519,0.0515 -0.0163,0.0311 -0.01,0.0766 0.005,0.0266 0.0242,0.0813 0.0209,0.055 0.0406,0.0896 z" />
    <path
       inkscape:connector-curvature="0"
       id="path107196"
       style="font-style:normal;font-variant:normal;font-weight:normal;font-stretch:normal;font-size:2.46944451px;line-height:1.25;font-family:Georgia;-inkscape-font-specification:Georgia;letter-spacing:0.03175px;word-spacing:0px;fill:#000000;fill-opacity:1;stroke:none;stroke-width:0.26458332"
       d="m 113.59418,108.90885 -0.32149,-0.70023 0.0778,-0.0357 q 0.0158,0.0286 0.0458,0.0825 0.0301,0.0539 0.0494,0.0729 0.0309,0.0296 0.0625,0.035 0.0328,0.005 0.0766,-0.0153 l 1.12649,-0.51719 q 0.0384,-0.0176 0.058,-0.0412 0.0208,-0.0241 0.0177,-0.0771 -0.002,-0.0389 -0.0141,-0.0944 -0.0106,-0.0548 -0.023,-0.0876 l 0.0778,-0.0357 0.32148,0.70023 -0.0778,0.0357 q -0.0167,-0.0335 -0.046,-0.0771 -0.0282,-0.0441 -0.0553,-0.0741 -0.0323,-0.0356 -0.0684,-0.0363 -0.0361,-6.6e-4 -0.0723,0.0159 l -1.12539,0.51669 q -0.0362,0.0166 -0.0576,0.045 -0.0198,0.029 -0.0187,0.0749 0.002,0.027 0.0145,0.0836 0.0143,0.0571 0.0298,0.0938 z" />
    <g
       id="g107032"
       transform="rotate(-30,105.69159,112.12239)">
      <rect
         style="opacity:1;fill:#009999;fill-opacity:0.6;stroke:none;stroke-width:0.2;stroke-miterlimit:4;stroke-dasharray:0.79999999, 0.2;stroke-dashoffset:0;stroke-opacity:0"
         id="rect107028"
         width="45.970356"
         height="0.66817379"
         x="82.706413"
         y="111.78831" />
      <rect
         y="90.573784"
         x="105.02341"
         height="43.097214"
         width="1.3363477"
         id="rect107030"
         style="opacity:1;fill:#009999;fill-opacity:0.6;stroke:none;stroke-width:0.1490391;stroke-miterlimit:4;stroke-dasharray:0.59615643, 0.14903911;stroke-dashoffset:0;stroke-opacity:0" />
    </g>
    <g
       id="g107026"
       transform="rotate(30,101.91767,82.209862)">
      <rect
         style="opacity:1;fill:#009999;fill-opacity:0.6;stroke:none;stroke-width:0.2;stroke-miterlimit:4;stroke-dasharray:0.79999999, 0.2;stroke-dashoffset:0;stroke-opacity:0"
         id="rect107022"
         width="45.970356"
         height="0.66817379"
         x="82.706413"
         y="111.78831" />
      <rect
         y="90.573784"
         x="105.02341"
         height="43.097214"
         width="1.3363477"
         id="rect107024"
         style="opacity:1;fill:#009999;fill-opacity:0.6;stroke:none;stroke-width:0.1490391;stroke-miterlimit:4;stroke-dasharray:0.59615643, 0.14903911;stroke-dashoffset:0;stroke-opacity:0" />
    </g>
  </g>
</svg>
