<?xml version="1.0" encoding="UTF-8" standalone="no"?>
<!-- Created with Inkscape (http://www.inkscape.org/) -->

<svg
   xmlns:dc="http://purl.org/dc/elements/1.1/"
   xmlns:cc="http://creativecommons.org/ns#"
   xmlns:rdf="http://www.w3.org/1999/02/22-rdf-syntax-ns#"
   xmlns:svg="http://www.w3.org/2000/svg"
   xmlns="http://www.w3.org/2000/svg"
   xmlns:sodipodi="http://sodipodi.sourceforge.net/DTD/sodipodi-0.dtd"
   xmlns:inkscape="http://www.inkscape.org/namespaces/inkscape"
   width="210mm"
   height="297mm"
   viewBox="0 0 210 297"
   version="1.1"
   id="svg1380"
   inkscape:version="0.92.3 (2405546, 2018-03-11)"
   sodipodi:docname="drawing.svg">
  <defs
     id="defs1374" />
  <sodipodi:namedview
     id="base"
     pagecolor="#ffffff"
     bordercolor="#666666"
     borderopacity="1.0"
     inkscape:pageopacity="0.0"
     inkscape:pageshadow="2"
     inkscape:zoom="14.856845"
     inkscape:cx="349.10934"
     inkscape:cy="416.89822"
     inkscape:document-units="mm"
     inkscape:current-layer="layer1"
     showgrid="false"
     inkscape:window-width="1366"
     inkscape:window-height="705"
     inkscape:window-x="-8"
     inkscape:window-y="32"
     inkscape:window-maximized="1" />
  <metadata
     id="metadata1377">
    <rdf:RDF>
      <cc:Work
         rdf:about="">
        <dc:format>image/svg+xml</dc:format>
        <dc:type
           rdf:resource="http://purl.org/dc/dcmitype/StillImage" />
        <dc:title></dc:title>
      </cc:Work>
    </rdf:RDF>
  </metadata>
  <g
     inkscape:label="Layer 1"
     inkscape:groupmode="layer"
     id="layer1">
    <path
       style="fill:none;fill-opacity:1;stroke:#f60000;stroke-width:0.06336587;stroke-miterlimit:4;stroke-dasharray:none;stroke-opacity:1"
       d="m 88.918207,193.94594 c 0,2.06669 -0.418847,4.03556 -1.176285,5.82635 -0.757438,1.79078 -1.853468,3.40348 -3.207834,4.75785 -1.354366,1.35437 -2.967069,2.4504 -4.757853,3.20784 -1.790785,0.75743 -3.759651,1.17628 -5.826345,1.17628 -2.066694,0 -4.03556,-0.41885 -5.826345,-1.17628 -1.790784,-0.75744 -3.403487,-1.85347 -4.757853,-3.20784 -1.354366,-1.35437 -2.450396,-2.96707 -3.207834,-4.75785 -0.757438,-1.79079 -1.176285,-3.75966 -1.176285,-5.82635 0,-2.06669 0.418846,-4.03556 1.176284,-5.82635 0.757438,-1.79078 1.853467,-3.40348 3.207833,-4.75785 1.354367,-1.35437 2.96707,-2.4504 4.757855,-3.20784 1.790785,-0.75743 3.759651,-1.17628 5.826345,-1.17628 2.066694,0 4.03556,0.41885 5.826345,1.17628 1.790785,0.75744 3.403488,1.85347 4.757855,3.20784 1.354366,1.35437 2.450395,2.96707 3.207833,4.75785 0.757438,1.79079 1.176284,3.75966 1.176284,5.82635 z"
       id="path1927"
       inkscape:connector-curvature="0"
       sodipodi:nodetypes="sssssssssssssssss" />
    <path
       style="fill:none;fill-opacity:1;stroke:#f60000;stroke-width:0.04260852;stroke-miterlimit:4;stroke-dasharray:none;stroke-opacity:1"
       d="m 84.014895,193.94594 a 10.065005,10.065005 0 0 1 -10.065005,10.065 10.065005,10.065005 0 0 1 -10.065005,-10.065 10.065005,10.065005 0 0 1 10.065005,-10.06501 10.065005,10.065005 0 0 1 10.065005,10.06501 z"
       id="circle2252" />
    <path
       style="fill:none;fill-opacity:1;stroke:#f60000;stroke-width:0.06635863;stroke-miterlimit:4;stroke-dasharray:none;stroke-opacity:1"
       d="m 49.426536,189.33611 a 2.6168209,2.6168209 0 0 1 -2.616821,2.61682 2.6168209,2.6168209 0 0 1 -2.616821,-2.61682 2.6168209,2.6168209 0 0 1 2.616821,-2.61683 2.6168209,2.6168209 0 0 1 2.616821,2.61683 z"
       id="path1933"
       inkscape:connector-curvature="0" />
    <path
       sodipodi:type="spiral"
       style="fill:none;fill-rule:evenodd;stroke:#000000;stroke-width:0.127;stroke-miterlimit:4;stroke-dasharray:none"
       id="path2475"
       sodipodi:cx="96.290894"
       sodipodi:cy="183.92625"
       sodipodi:expansion="1"
       sodipodi:revolution="8.1999998"
       sodipodi:radius="2.7308362"
       sodipodi:argument="-31.154127"
       sodipodi:t0="0.25"
       d="m 96.863462,184.29808 c -0.190783,0.3505 -0.646947,0.46091 -0.989743,0.27057 -0.388428,-0.21568 -0.509936,-0.72399 -0.295044,-1.10492 0.240533,-0.42638 0.801043,-0.55899 1.220084,-0.31952 0.464347,0.26536 0.608072,0.87811 0.344004,1.33525 -0.290168,0.50233 -0.955191,0.65717 -1.450425,0.36849 -0.540311,-0.31496 -0.706273,-1.03228 -0.392965,-1.5656 0.339737,-0.5783 1.10937,-0.75539 1.680766,-0.41744 0.616303,0.3645 0.804515,1.18647 0.441926,1.79593 -0.389265,0.65431 -1.26357,0.85365 -1.911107,0.46641 -0.692313,-0.41402 -0.902783,-1.34067 -0.490886,-2.02628 0.438763,-0.73032 1.417783,-0.95192 2.141448,-0.51536 0.768334,0.4635 1.001069,1.49489 0.539846,2.25662 -0.488244,0.80634 -1.572007,1.05021 -2.371789,0.56432 -0.844366,-0.51298 -1.09937,-1.64912 -0.588807,-2.48696 0.53771,-0.88238 1.726239,-1.14852 2.60213,-0.61328 0.920405,0.56243 1.197681,1.80335 0.637768,2.7173 -0.587165,0.95842 -1.880477,1.24684 -2.832471,0.66224 -0.996448,-0.61189 -1.296,-1.95759 -0.686728,-2.94764 0.636612,-1.03447 2.034718,-1.34516 3.062811,-0.71121 1.072497,0.66134 1.394325,2.11184 0.735689,3.17799 -0.686052,1.11052 -2.188964,1.44349 -3.293152,0.76017 -1.148548,-0.71078 -1.492655,-2.26609 -0.78465,-3.40833 0.735488,-1.18657 2.343212,-1.54182 3.523494,-0.80913 1.224601,0.76021 1.590988,2.42034 0.83361,3.63867 -0.453707,0.72983 -1.249081,1.20541 -2.105453,1.26698" />
    <circle
       style="fill:#000000;fill-opacity:1;stroke:none;stroke-width:0.001;stroke-miterlimit:4;stroke-dasharray:none;stroke-opacity:1"
       id="path2477"
       cx="96.05262"
       cy="183.72517"
       r="0.24240704" />
    <circle
       r="0.24240704"
       cy="184.09267"
       cx="96.754204"
       id="circle2479"
       style="fill:none;fill-opacity:1;stroke:#f60000;stroke-width:0.11518594;stroke-miterlimit:4;stroke-dasharray:none;stroke-opacity:1" />
    <path
       style="fill:none;fill-rule:evenodd;stroke:#000000;stroke-width:0.127;stroke-miterlimit:4;stroke-dasharray:none"
       d="m 103.28906,196.20433 c -0.19078,0.3505 -0.64695,0.46091 -0.98974,0.27057 -0.38843,-0.21568 -0.50994,-0.72399 -0.29505,-1.10492 0.24054,-0.42638 0.80105,-0.55899 1.22009,-0.31952 0.46434,0.26536 0.60807,0.87811 0.344,1.33525 -0.29017,0.50233 -0.95519,0.65717 -1.45042,0.36849 -0.54031,-0.31496 -0.70628,-1.03228 -0.39297,-1.5656 0.33974,-0.5783 1.10937,-0.75539 1.68077,-0.41744 0.6163,0.3645 0.80451,1.18647 0.44192,1.79593 -0.38926,0.65431 -1.26357,0.85365 -1.9111,0.46641 -0.69232,-0.41402 -0.90279,-1.34067 -0.49089,-2.02628 0.43876,-0.73032 1.41778,-0.95192 2.14145,-0.51536 0.76833,0.4635 1.00107,1.49489 0.53984,2.25662 -0.48824,0.80634 -1.572,1.05021 -2.37178,0.56432 -0.84437,-0.51298 -1.09937,-1.64912 -0.58881,-2.48696 0.53771,-0.88238 1.72624,-1.14852 2.60213,-0.61328 0.9204,0.56243 1.19768,1.80335 0.63777,2.7173 -0.58717,0.95842 -1.88048,1.24684 -2.83247,0.66224 -0.99645,-0.61189 -1.296,-1.95759 -0.68673,-2.94764 0.63661,-1.03447 2.03472,-1.34516 3.06281,-0.71121 1.07249,0.66134 1.39432,2.11184 0.73569,3.17799 -0.68606,1.11052 -2.18897,1.44349 -3.29316,0.76017 -1.14854,-0.71078 -1.49265,-2.26609 -0.78464,-3.40833 0.73548,-1.18657 2.34321,-1.54182 3.52349,-0.80913 1.2246,0.76021 1.59099,2.42034 0.83361,3.63867 -0.45371,0.72983 -1.24908,1.20541 -2.10545,1.26698"
       id="path2481" />
  </g>
</svg>
