G04                                                      *
G04 Greetings!                                           *
G04 This Gerber was generated by PCBmodE, an open source *
G04 PCB design software. Get it here:                    *
G04                                                      *
G04   http://pcbmode.com                                 *
G04                                                      *
G04 Also visit                                           *
G04                                                      *
G04   http://boldport.com                                *
G04                                                      *
G04 and follow @boldport / @pcbmode for updates!         *
G04                                                      *

G04 leading zeros omitted (L); absolute data (A); 6 integer digits and 6 fractional digits *
%FSLAX66Y66*%

G04 mode (MO): millimeters (MM) *
%MOMM*%

G04 Aperture definitions *
%ADD10C,0.001X*%
%ADD11C,0.001X*%

%LPD*%
G36*
G01X14232892Y-21024462D02*
G01X14109183Y-21181612D01*
G01X13794883Y-20934194D01*
G01X13918592Y-20777044D01*
G01X14232892Y-21024462D01*
G37*
G36*
G01X14480311Y-20710160D02*
G01X14356602Y-20867310D01*
G01X14042303Y-20619892D01*
G01X14166012Y-20462742D01*
G01X14480311Y-20710160D01*
G37*
G36*
G01X14727729Y-20395861D02*
G01X14604020Y-20553011D01*
G01X14289720Y-20305593D01*
G01X14413429Y-20148443D01*
G01X14727729Y-20395861D01*
G37*
G36*
G01X15411516Y-21952279D02*
G01X15287807Y-22109429D01*
G01X14973508Y-21862011D01*
G01X15097217Y-21704861D01*
G01X15411516Y-21952279D01*
G37*
G36*
G01X15658936Y-21637978D02*
G01X15535227Y-21795128D01*
G01X15220927Y-21547710D01*
G01X15344636Y-21390560D01*
G01X15658936Y-21637978D01*
G37*
G36*
G01X15906353Y-21323679D02*
G01X15782644Y-21480829D01*
G01X15468344Y-21233411D01*
G01X15592053Y-21076261D01*
G01X15906353Y-21323679D01*
G37*
G36*
G01X23004442Y-21747608D02*
G01X22961503Y-21552272D01*
G01X23352175Y-21466393D01*
G01X23395115Y-21661729D01*
G01X23004442Y-21747608D01*
G37*
G36*
G01X23090322Y-22138282D02*
G01X23047383Y-21942946D01*
G01X23438055Y-21857067D01*
G01X23480994Y-22052403D01*
G01X23090322Y-22138282D01*
G37*
G36*
G01X23176201Y-22528953D02*
G01X23133262Y-22333617D01*
G01X23523934Y-22247738D01*
G01X23566874Y-22443074D01*
G01X23176201Y-22528953D01*
G37*
G36*
G01X21539422Y-22069656D02*
G01X21496482Y-21874320D01*
G01X21887154Y-21788440D01*
G01X21930094Y-21983777D01*
G01X21539422Y-22069656D01*
G37*
G36*
G01X21625302Y-22460330D02*
G01X21582362Y-22264994D01*
G01X21973034Y-22179115D01*
G01X22015974Y-22374451D01*
G01X21625302Y-22460330D01*
G37*
G36*
G01X21711181Y-22851001D02*
G01X21668241Y-22655665D01*
G01X22058913Y-22569786D01*
G01X22101853Y-22765122D01*
G01X21711181Y-22851001D01*
G37*
G36*
G01X7945904Y-6123296D02*
G01X7845904Y-5950091D01*
G01X8192314Y-5750091D01*
G01X8292314Y-5923296D01*
G01X7945904Y-6123296D01*
G37*
G36*
G01X8145905Y-6469708D02*
G01X8045905Y-6296503D01*
G01X8392315Y-6096503D01*
G01X8492315Y-6269708D01*
G01X8145905Y-6469708D01*
G37*
G36*
G01X8345904Y-6816118D02*
G01X8245904Y-6642912D01*
G01X8592314Y-6442912D01*
G01X8692314Y-6616118D01*
G01X8345904Y-6816118D01*
G37*
G36*
G01X6646866Y-6873296D02*
G01X6546866Y-6700091D01*
G01X6893276Y-6500091D01*
G01X6993276Y-6673296D01*
G01X6646866Y-6873296D01*
G37*
G36*
G01X6846867Y-7219708D02*
G01X6746867Y-7046503D01*
G01X7093277Y-6846503D01*
G01X7193277Y-7019708D01*
G01X6846867Y-7219708D01*
G37*
G36*
G01X7046866Y-7566118D02*
G01X6946866Y-7392912D01*
G01X7293276Y-7192912D01*
G01X7393276Y-7366118D01*
G01X7046866Y-7566118D01*
G37*
G36*
G01X3039004Y-15859240D02*
G01X3235965Y-15824510D01*
G01X3305424Y-16218433D01*
G01X3108463Y-16253163D01*
G01X3039004Y-15859240D01*
G37*
G36*
G01X2645078Y-15928699D02*
G01X2842040Y-15893970D01*
G01X2911499Y-16287893D01*
G01X2714538Y-16322622D01*
G01X2645078Y-15928699D01*
G37*
G36*
G01X2251156Y-15998158D02*
G01X2448118Y-15963429D01*
G01X2517577Y-16357352D01*
G01X2320616Y-16392081D01*
G01X2251156Y-15998158D01*
G37*
G36*
G01X2778531Y-14382028D02*
G01X2975493Y-14347298D01*
G01X3044952Y-14741221D01*
G01X2847991Y-14775951D01*
G01X2778531Y-14382028D01*
G37*
G36*
G01X2384606Y-14451488D02*
G01X2581568Y-14416758D01*
G01X2651027Y-14810681D01*
G01X2454065Y-14845411D01*
G01X2384606Y-14451488D01*
G37*
G36*
G01X1990684Y-14520947D02*
G01X2187646Y-14486217D01*
G01X2257105Y-14880140D01*
G01X2060143Y-14914870D01*
G01X1990684Y-14520947D01*
G37*
G36*
G01X24626386Y-3014857D02*
G01X24726386Y-2841652D01*
G01X25072796Y-3041652D01*
G01X24972796Y-3214857D01*
G01X24626386Y-3014857D01*
G37*
G36*
G01X24426385Y-3361269D02*
G01X24526385Y-3188064D01*
G01X24872795Y-3388064D01*
G01X24772795Y-3561269D01*
G01X24426385Y-3361269D01*
G37*
G36*
G01X24226385Y-3707679D02*
G01X24326385Y-3534473D01*
G01X24672795Y-3734473D01*
G01X24572795Y-3907679D01*
G01X24226385Y-3707679D01*
G37*
G36*
G01X23327348Y-2264857D02*
G01X23427348Y-2091652D01*
G01X23773758Y-2291652D01*
G01X23673758Y-2464857D01*
G01X23327348Y-2264857D01*
G37*
G36*
G01X23127347Y-2611269D02*
G01X23227347Y-2438064D01*
G01X23573757Y-2638064D01*
G01X23473757Y-2811269D01*
G01X23127347Y-2611269D01*
G37*
G36*
G01X22927347Y-2957679D02*
G01X23027347Y-2784473D01*
G01X23373757Y-2984473D01*
G01X23273757Y-3157679D01*
G01X22927347Y-2957679D01*
G37*
G36*
G01X13771585Y-3583011D02*
G01X13900142Y-3736220D01*
G01X13593725Y-3993335D01*
G01X13465167Y-3840126D01*
G01X13771585Y-3583011D01*
G37*
G36*
G01X13514469Y-3276592D02*
G01X13643026Y-3429800D01*
G01X13336608Y-3686915D01*
G01X13208051Y-3533707D01*
G01X13514469Y-3276592D01*
G37*
G36*
G01X13257354Y-2970175D02*
G01X13385912Y-3123383D01*
G01X13079494Y-3380498D01*
G01X12950936Y-3227290D01*
G01X13257354Y-2970175D01*
G37*
G36*
G01X14920652Y-2618829D02*
G01X15049209Y-2772038D01*
G01X14742791Y-3029153D01*
G01X14614234Y-2875944D01*
G01X14920652Y-2618829D01*
G37*
G36*
G01X14663535Y-2312410D02*
G01X14792093Y-2465619D01*
G01X14485675Y-2722734D01*
G01X14357118Y-2569525D01*
G01X14663535Y-2312410D01*
G37*
G36*
G01X14406421Y-2005993D02*
G01X14534978Y-2159202D01*
G01X14228561Y-2416317D01*
G01X14100003Y-2263108D01*
G01X14406421Y-2005993D01*
G37*
G36*
G01X35668692Y-15911946D02*
G01X35868693Y-15911946D01*
G01X35868693Y-16311946D01*
G01X35668692Y-16311946D01*
G01X35668692Y-15911946D01*
G37*
G36*
G01X35268690Y-15911946D02*
G01X35468691Y-15911946D01*
G01X35468691Y-16311946D01*
G01X35268690Y-16311946D01*
G01X35268690Y-15911946D01*
G37*
G36*
G01X34868691Y-15911946D02*
G01X35068691Y-15911946D01*
G01X35068691Y-16311946D01*
G01X34868691Y-16311946D01*
G01X34868691Y-15911946D01*
G37*
G36*
G01X35668692Y-14411946D02*
G01X35868693Y-14411946D01*
G01X35868693Y-14811946D01*
G01X35668692Y-14811946D01*
G01X35668692Y-14411946D01*
G37*
G36*
G01X35268690Y-14411946D02*
G01X35468691Y-14411946D01*
G01X35468691Y-14811946D01*
G01X35268690Y-14811946D01*
G01X35268690Y-14411946D01*
G37*
G36*
G01X34868691Y-14411946D02*
G01X35068691Y-14411946D01*
G01X35068691Y-14811946D01*
G01X34868691Y-14811946D01*
G01X34868691Y-14411946D01*
G37*
G36*
G01X29771256Y-6764177D02*
G01X29702852Y-6952116D01*
G01X29326975Y-6815308D01*
G01X29395379Y-6627369D01*
G01X29771256Y-6764177D01*
G37*
G36*
G01X29908065Y-6388298D02*
G01X29839661Y-6576237D01*
G01X29463784Y-6439429D01*
G01X29532188Y-6251490D01*
G01X29908065Y-6388298D01*
G37*
G36*
G01X30044872Y-6012422D02*
G01X29976468Y-6200361D01*
G01X29600591Y-6063553D01*
G01X29668995Y-5875614D01*
G01X30044872Y-6012422D01*
G37*
G36*
G01X31180795Y-7277208D02*
G01X31112391Y-7465146D01*
G01X30736514Y-7328338D01*
G01X30804918Y-7140399D01*
G01X31180795Y-7277208D01*
G37*
G36*
G01X31317604Y-6901329D02*
G01X31249200Y-7089267D01*
G01X30873323Y-6952459D01*
G01X30941727Y-6764521D01*
G01X31317604Y-6901329D01*
G37*
G36*
G01X31454411Y-6525452D02*
G01X31386007Y-6713391D01*
G01X31010130Y-6576583D01*
G01X31078534Y-6388644D01*
G01X31454411Y-6525452D01*
G37*
G36*
G01X30082633Y-31836373D02*
G01X30182633Y-32009578D01*
G01X29836223Y-32209578D01*
G01X29736223Y-32036373D01*
G01X30082633Y-31836373D01*
G37*
G36*
G01X29882632Y-31489961D02*
G01X29982632Y-31663166D01*
G01X29636222Y-31863166D01*
G01X29536222Y-31689961D01*
G01X29882632Y-31489961D01*
G37*
G36*
G01X29682633Y-31143551D02*
G01X29782633Y-31316757D01*
G01X29436223Y-31516757D01*
G01X29336223Y-31343551D01*
G01X29682633Y-31143551D01*
G37*
G36*
G01X31381671Y-31086373D02*
G01X31481671Y-31259578D01*
G01X31135261Y-31459578D01*
G01X31035261Y-31286373D01*
G01X31381671Y-31086373D01*
G37*
G36*
G01X31181670Y-30739961D02*
G01X31281670Y-30913166D01*
G01X30935260Y-31113166D01*
G01X30835260Y-30939961D01*
G01X31181670Y-30739961D01*
G37*
G36*
G01X30981671Y-30393551D02*
G01X31081671Y-30566757D01*
G01X30735261Y-30766757D01*
G01X30635261Y-30593551D01*
G01X30981671Y-30393551D01*
G37*
G36*
G01X34977743Y-22167961D02*
G01X34780782Y-22202691D01*
G01X34711323Y-21808768D01*
G01X34908284Y-21774038D01*
G01X34977743Y-22167961D01*
G37*
G36*
G01X35371669Y-22098502D02*
G01X35174707Y-22133231D01*
G01X35105248Y-21739308D01*
G01X35302209Y-21704579D01*
G01X35371669Y-22098502D01*
G37*
G36*
G01X35765591Y-22029043D02*
G01X35568629Y-22063772D01*
G01X35499170Y-21669849D01*
G01X35696131Y-21635120D01*
G01X35765591Y-22029043D01*
G37*
G36*
G01X35238216Y-23645173D02*
G01X35041254Y-23679903D01*
G01X34971795Y-23285980D01*
G01X35168756Y-23251250D01*
G01X35238216Y-23645173D01*
G37*
G36*
G01X35632141Y-23575713D02*
G01X35435179Y-23610443D01*
G01X35365720Y-23216520D01*
G01X35562682Y-23181790D01*
G01X35632141Y-23575713D01*
G37*
G36*
G01X36026063Y-23506254D02*
G01X35829101Y-23540984D01*
G01X35759642Y-23147061D01*
G01X35956604Y-23112331D01*
G01X36026063Y-23506254D01*
G37*
G36*
G01X13333505Y-34990811D02*
G01X13233505Y-35164016D01*
G01X12887095Y-34964016D01*
G01X12987095Y-34790811D01*
G01X13333505Y-34990811D01*
G37*
G36*
G01X13533506Y-34644399D02*
G01X13433506Y-34817604D01*
G01X13087096Y-34617604D01*
G01X13187096Y-34444399D01*
G01X13533506Y-34644399D01*
G37*
G36*
G01X13733506Y-34297989D02*
G01X13633506Y-34471195D01*
G01X13287096Y-34271195D01*
G01X13387096Y-34097989D01*
G01X13733506Y-34297989D01*
G37*
G36*
G01X14632543Y-35740811D02*
G01X14532543Y-35914016D01*
G01X14186133Y-35714016D01*
G01X14286133Y-35540811D01*
G01X14632543Y-35740811D01*
G37*
G36*
G01X14832544Y-35394399D02*
G01X14732544Y-35567604D01*
G01X14386134Y-35367604D01*
G01X14486134Y-35194399D01*
G01X14832544Y-35394399D01*
G37*
G36*
G01X15032544Y-35047989D02*
G01X14932544Y-35221195D01*
G01X14586134Y-35021195D01*
G01X14686134Y-34847989D01*
G01X15032544Y-35047989D01*
G37*
G36*
G01X24148053Y-34483037D02*
G01X24019496Y-34329828D01*
G01X24325913Y-34072713D01*
G01X24454471Y-34225922D01*
G01X24148053Y-34483037D01*
G37*
G36*
G01X24405169Y-34789456D02*
G01X24276612Y-34636248D01*
G01X24583030Y-34379133D01*
G01X24711587Y-34532341D01*
G01X24405169Y-34789456D01*
G37*
G36*
G01X24662284Y-35095873D02*
G01X24533726Y-34942665D01*
G01X24840144Y-34685550D01*
G01X24968702Y-34838758D01*
G01X24662284Y-35095873D01*
G37*
G36*
G01X22998986Y-35447219D02*
G01X22870429Y-35294010D01*
G01X23176847Y-35036895D01*
G01X23305404Y-35190104D01*
G01X22998986Y-35447219D01*
G37*
G36*
G01X23256103Y-35753638D02*
G01X23127545Y-35600429D01*
G01X23433963Y-35343314D01*
G01X23562520Y-35496523D01*
G01X23256103Y-35753638D01*
G37*
G36*
G01X23513217Y-36060055D02*
G01X23384660Y-35906846D01*
G01X23691077Y-35649731D01*
G01X23819635Y-35802940D01*
G01X23513217Y-36060055D01*
G37*
G36*
G01X2311326Y-22127638D02*
G01X2111325Y-22127638D01*
G01X2111325Y-21727638D01*
G01X2311326Y-21727638D01*
G01X2311326Y-22127638D01*
G37*
G36*
G01X2711327Y-22127638D02*
G01X2511328Y-22127638D01*
G01X2511328Y-21727638D01*
G01X2711327Y-21727638D01*
G01X2711327Y-22127638D01*
G37*
G36*
G01X3111327Y-22127638D02*
G01X2911326Y-22127638D01*
G01X2911326Y-21727638D01*
G01X3111327Y-21727638D01*
G01X3111327Y-22127638D01*
G37*
G36*
G01X2311326Y-23627638D02*
G01X2111325Y-23627638D01*
G01X2111325Y-23227638D01*
G01X2311326Y-23227638D01*
G01X2311326Y-23627638D01*
G37*
G36*
G01X2711327Y-23627638D02*
G01X2511328Y-23627638D01*
G01X2511328Y-23227638D01*
G01X2711327Y-23227638D01*
G01X2711327Y-23627638D01*
G37*
G36*
G01X3111327Y-23627638D02*
G01X2911326Y-23627638D01*
G01X2911326Y-23227638D01*
G01X3111327Y-23227638D01*
G01X3111327Y-23627638D01*
G37*
G36*
G01X8210635Y-31207769D02*
G01X8279039Y-31019830D01*
G01X8654916Y-31156638D01*
G01X8586512Y-31344577D01*
G01X8210635Y-31207769D01*
G37*
G36*
G01X8073826Y-31583648D02*
G01X8142230Y-31395709D01*
G01X8518107Y-31532517D01*
G01X8449703Y-31720456D01*
G01X8073826Y-31583648D01*
G37*
G36*
G01X7937019Y-31959524D02*
G01X8005423Y-31771585D01*
G01X8381300Y-31908393D01*
G01X8312896Y-32096332D01*
G01X7937019Y-31959524D01*
G37*
G36*
G01X6801096Y-30694738D02*
G01X6869500Y-30506800D01*
G01X7245377Y-30643608D01*
G01X7176973Y-30831547D01*
G01X6801096Y-30694738D01*
G37*
G36*
G01X6664287Y-31070617D02*
G01X6732691Y-30882679D01*
G01X7108568Y-31019487D01*
G01X7040164Y-31207425D01*
G01X6664287Y-31070617D01*
G37*
G36*
G01X6527480Y-31446494D02*
G01X6595884Y-31258555D01*
G01X6971761Y-31395363D01*
G01X6903357Y-31583302D01*
G01X6527480Y-31446494D01*
G37*
G36*
G01X39400145Y-5800000D02*
G01X40600145Y-5800000D01*
G01X40600145Y-7000000D01*
G01X39400145Y-7000000D01*
G01X39400145Y-5800000D01*
G37*
G36*
G01X40850145Y-6179102D02*
G01X40850145Y-6179102D01*
G01X40868016Y-6143946D01*
G01X40868016Y-6143946D01*
G01X40925023Y-6136381D01*
G01X40929246Y-6136329D01*
G01X40963231Y-6136329D01*
G01X40963231Y-6136329D01*
G01X40961027Y-6079044D01*
G01X40957976Y-6029204D01*
G01X40955614Y-6001563D01*
G01X40955614Y-6001563D01*
G01X40995457Y-5998047D01*
G01X40995457Y-5998047D01*
G01X41043692Y-6014500D01*
G01X41052879Y-6043750D01*
G01X41052879Y-6043750D01*
G01X41051512Y-6079530D01*
G01X41048192Y-6137500D01*
G01X41048192Y-6137500D01*
G01X41117918Y-6137098D01*
G01X41174754Y-6135889D01*
G01X41218700Y-6133875D01*
G01X41249754Y-6131055D01*
G01X41249754Y-6131055D01*
G01X41249754Y-6131055D01*
G01X41254442Y-6159180D01*
G01X41254442Y-6159180D01*
G01X41241844Y-6191407D01*
G01X41241844Y-6191407D01*
G01X41201707Y-6200782D01*
G01X41201707Y-6200782D01*
G01X41166597Y-6201428D01*
G01X41115407Y-6201818D01*
G01X41048138Y-6201953D01*
G01X41045848Y-6201954D01*
G01X41045848Y-6201954D01*
G01X41045042Y-6251647D01*
G01X41044405Y-6302314D01*
G01X41043938Y-6353953D01*
G01X41043639Y-6406566D01*
G01X41043510Y-6460151D01*
G01X41043504Y-6474415D01*
G01X41043504Y-6474415D01*
G01X41046542Y-6539514D01*
G01X41055654Y-6586313D01*
G01X41066942Y-6610059D01*
G01X41066942Y-6610059D01*
G01X41122010Y-6640169D01*
G01X41144286Y-6642579D01*
G01X41144286Y-6642579D01*
G01X41193585Y-6632374D01*
G01X41230418Y-6606250D01*
G01X41230418Y-6606250D01*
G01X41252098Y-6649610D01*
G01X41252098Y-6649610D01*
G01X41225239Y-6688111D01*
G01X41221043Y-6690332D01*
G01X41221043Y-6690332D01*
G01X41159336Y-6705194D01*
G01X41145457Y-6705860D01*
G01X41145457Y-6705860D01*
G01X41087677Y-6699980D01*
G01X41041837Y-6682340D01*
G01X41007937Y-6652940D01*
G01X41004539Y-6648438D01*
G01X41004539Y-6648438D01*
G01X40978649Y-6590592D01*
G01X40966750Y-6528545D01*
G01X40963400Y-6484832D01*
G01X40963231Y-6476758D01*
G01X40963231Y-6476758D01*
G01X40964037Y-6399885D01*
G01X40964674Y-6334476D01*
G01X40965141Y-6280532D01*
G01X40965440Y-6238053D01*
G01X40965569Y-6207038D01*
G01X40965575Y-6200782D01*
G01X40965575Y-6200782D01*
G01X40941172Y-6202561D01*
G01X40874291Y-6207901D01*
G01X40853661Y-6209571D01*
G01X40853661Y-6209571D01*
G01X40850145Y-6179102D01*
G37*
G36*
G01X41325926Y-6415821D02*
G01X41325926Y-6415821D01*
G01X41329414Y-6360323D01*
G01X41339879Y-6309844D01*
G01X41357320Y-6264386D01*
G01X41381737Y-6223946D01*
G01X41397996Y-6204004D01*
G01X41397996Y-6204004D01*
G01X41455355Y-6159133D01*
G01X41514738Y-6135270D01*
G01X41562781Y-6125780D01*
G01X41586119Y-6124029D01*
G01X41586668Y-6124024D01*
G01X41586668Y-6124024D01*
G01X41640550Y-6128631D01*
G01X41689133Y-6142451D01*
G01X41732418Y-6165486D01*
G01X41770403Y-6197734D01*
G01X41776219Y-6204004D01*
G01X41776219Y-6204004D01*
G01X41813934Y-6262365D01*
G01X41835391Y-6324049D01*
G01X41845175Y-6377320D01*
G01X41847872Y-6410443D01*
G01X41847996Y-6415821D01*
G01X41847996Y-6415821D01*
G01X41838352Y-6498098D01*
G01X41816405Y-6561712D01*
G01X41792636Y-6604739D01*
G01X41777524Y-6625253D01*
G01X41776219Y-6626758D01*
G01X41776219Y-6626758D01*
G01X41718855Y-6671136D01*
G01X41659179Y-6694737D01*
G01X41610774Y-6704123D01*
G01X41587223Y-6705855D01*
G01X41586668Y-6705860D01*
G01X41586668Y-6705860D01*
G01X41533265Y-6701304D01*
G01X41484991Y-6687635D01*
G01X41441847Y-6664854D01*
G01X41403833Y-6632960D01*
G01X41397996Y-6626758D01*
G01X41397996Y-6626758D01*
G01X41360127Y-6568859D01*
G01X41338583Y-6507439D01*
G01X41328759Y-6454287D01*
G01X41326051Y-6421197D01*
G01X41325926Y-6415821D01*
G37*
%LPC*%
G36*
G01X41410301Y-6398829D02*
G01X41410301Y-6398829D01*
G01X41413953Y-6453868D01*
G01X41424909Y-6503487D01*
G01X41443169Y-6547686D01*
G01X41456883Y-6570508D01*
G01X41456883Y-6570508D01*
G01X41510657Y-6618444D01*
G01X41562523Y-6636368D01*
G01X41586644Y-6639063D01*
G01X41586668Y-6639063D01*
G01X41586668Y-6639063D01*
G01X41639378Y-6632560D01*
G01X41683552Y-6613053D01*
G01X41717332Y-6582813D01*
G01X41717332Y-6582813D01*
G01X41749468Y-6521594D01*
G01X41762020Y-6463139D01*
G01X41764204Y-6433255D01*
G01X41764207Y-6432813D01*
G01X41764207Y-6432813D01*
G01X41760441Y-6377727D01*
G01X41749140Y-6327970D01*
G01X41730306Y-6283542D01*
G01X41716161Y-6260547D01*
G01X41716161Y-6260547D01*
G01X41661810Y-6212202D01*
G01X41610400Y-6194124D01*
G01X41586693Y-6191407D01*
G01X41586668Y-6191407D01*
G01X41586668Y-6191407D01*
G01X41534027Y-6197977D01*
G01X41490055Y-6217688D01*
G01X41456590Y-6248243D01*
G01X41456590Y-6248243D01*
G01X41424856Y-6309864D01*
G01X41412461Y-6368475D01*
G01X41410304Y-6398387D01*
G01X41410301Y-6398829D01*
G37*
%LPD*%
G36*
G01X41973973Y-6142188D02*
G01X41973973Y-6142188D01*
G01X42020848Y-6132813D01*
G01X42020848Y-6132813D01*
G01X42062428Y-6151555D01*
G01X42072411Y-6192579D01*
G01X42072411Y-6192579D01*
G01X42118517Y-6162586D01*
G01X42165428Y-6141163D01*
G01X42213145Y-6128309D01*
G01X42261668Y-6124024D01*
G01X42261668Y-6124024D01*
G01X42261668Y-6124024D01*
G01X42312935Y-6129798D01*
G01X42358454Y-6147122D01*
G01X42398224Y-6175994D01*
G01X42410204Y-6188184D01*
G01X42410204Y-6188184D01*
G01X42443909Y-6245784D01*
G01X42461217Y-6309949D01*
G01X42467593Y-6362084D01*
G01X42468504Y-6383594D01*
G01X42468504Y-6383594D01*
G01X42468504Y-6383594D01*
G01X42465714Y-6437219D01*
G01X42457344Y-6487844D01*
G01X42443394Y-6535469D01*
G01X42441258Y-6541211D01*
G01X42441258Y-6541211D01*
G01X42405817Y-6604637D01*
G01X42369582Y-6645678D01*
G01X42354247Y-6659278D01*
G01X42354247Y-6659278D01*
G01X42290955Y-6691850D01*
G01X42235084Y-6704029D01*
G01X42210131Y-6705860D01*
G01X42210106Y-6705860D01*
G01X42210106Y-6705860D01*
G01X42160046Y-6700620D01*
G01X42111961Y-6684901D01*
G01X42075926Y-6665430D01*
G01X42075926Y-6665430D01*
G01X42076301Y-6707618D01*
G01X42076512Y-6728418D01*
G01X42076512Y-6728418D01*
G01X42077494Y-6797617D01*
G01X42077684Y-6805762D01*
G01X42077684Y-6805762D01*
G01X42080365Y-6864140D01*
G01X42080614Y-6868750D01*
G01X42080614Y-6868750D01*
G01X42086867Y-6932415D01*
G01X42087938Y-6939063D01*
G01X42087938Y-6939063D01*
G01X42099948Y-6988275D01*
G01X42099950Y-6988282D01*
G01X42099950Y-6988282D01*
G01X42051903Y-6997657D01*
G01X42051903Y-6997657D01*
G01X42005563Y-6982438D01*
G01X42005321Y-6982129D01*
G01X42005321Y-6982129D01*
G01X41993318Y-6929970D01*
G01X41993309Y-6929102D01*
G01X41993309Y-6929102D01*
G01X41993366Y-6884891D01*
G01X41993537Y-6837053D01*
G01X41993822Y-6785590D01*
G01X41994220Y-6730500D01*
G01X41994733Y-6671785D01*
G01X41995067Y-6637598D01*
G01X41995067Y-6637598D01*
G01X41995958Y-6541724D01*
G01X41996482Y-6471644D01*
G01X41996736Y-6425323D01*
G01X41996817Y-6400728D01*
G01X41996825Y-6395313D01*
G01X41996825Y-6395313D01*
G01X41995911Y-6324625D01*
G01X41993168Y-6263969D01*
G01X41988598Y-6213344D01*
G01X41982200Y-6172750D01*
G01X41973973Y-6142188D01*
G01X41973973Y-6142188D01*
G37*
%LPC*%
G36*
G01X42075926Y-6257618D02*
G01X42075926Y-6257618D01*
G01X42076577Y-6332619D01*
G01X42077121Y-6399420D01*
G01X42077561Y-6458021D01*
G01X42077895Y-6508422D01*
G01X42078123Y-6550623D01*
G01X42078246Y-6584623D01*
G01X42078270Y-6602735D01*
G01X42078270Y-6602735D01*
G01X42119652Y-6622975D01*
G01X42168891Y-6635088D01*
G01X42222411Y-6639063D01*
G01X42222411Y-6639063D01*
G01X42272288Y-6629908D01*
G01X42314110Y-6602442D01*
G01X42314110Y-6602442D01*
G01X42314110Y-6602442D01*
G01X42353887Y-6546459D01*
G01X42367355Y-6513918D01*
G01X42367430Y-6513672D01*
G01X42367430Y-6513672D01*
G01X42380231Y-6445912D01*
G01X42382931Y-6403661D01*
G01X42382957Y-6401172D01*
G01X42382957Y-6401172D01*
G01X42379240Y-6341600D01*
G01X42368086Y-6292258D01*
G01X42349497Y-6253147D01*
G01X42341649Y-6242383D01*
G01X42341649Y-6242383D01*
G01X42283619Y-6201353D01*
G01X42239933Y-6191616D01*
G01X42235301Y-6191407D01*
G01X42235301Y-6191407D01*
G01X42188359Y-6196975D01*
G01X42142007Y-6213680D01*
G01X42096247Y-6241522D01*
G01X42075926Y-6257618D01*
G37*
%LPD*%
G36*
G01X42845848Y-6610352D02*
G01X42845848Y-6610352D01*
G01X42867243Y-6574235D01*
G01X42899754Y-6559961D01*
G01X42899754Y-6559961D01*
G01X42926789Y-6599723D01*
G01X42956883Y-6618848D01*
G01X42956883Y-6618848D01*
G01X43023035Y-6636827D01*
G01X43052098Y-6639063D01*
G01X43052098Y-6639063D01*
G01X43119607Y-6624918D01*
G01X43135594Y-6616211D01*
G01X43135594Y-6616211D01*
G01X43165910Y-6561336D01*
G01X43167528Y-6545313D01*
G01X43167528Y-6545313D01*
G01X43149565Y-6500928D01*
G01X43135594Y-6490235D01*
G01X43135594Y-6490235D01*
G01X43075478Y-6465254D01*
G01X43058250Y-6460645D01*
G01X43058250Y-6460645D01*
G01X42991672Y-6443680D01*
G01X42967137Y-6436622D01*
G01X42967137Y-6436622D01*
G01X42908777Y-6403367D01*
G01X42889500Y-6384473D01*
G01X42889500Y-6384473D01*
G01X42862321Y-6323012D01*
G01X42857574Y-6283477D01*
G01X42857567Y-6282813D01*
G01X42857567Y-6282813D01*
G01X42866029Y-6234665D01*
G01X42891417Y-6193415D01*
G01X42919383Y-6168555D01*
G01X42919383Y-6168555D01*
G01X42984328Y-6136826D01*
G01X43038271Y-6125483D01*
G01X43059129Y-6124024D01*
G01X43059129Y-6124024D01*
G01X43108232Y-6128902D01*
G01X43156541Y-6143535D01*
G01X43169579Y-6149219D01*
G01X43169579Y-6149219D01*
G01X43218502Y-6196894D01*
G01X43223778Y-6218946D01*
G01X43223778Y-6218946D01*
G01X43202382Y-6256155D01*
G01X43169871Y-6269336D01*
G01X43169871Y-6269336D01*
G01X43142077Y-6230894D01*
G01X43115672Y-6213086D01*
G01X43115672Y-6213086D01*
G01X43051276Y-6193130D01*
G01X43030418Y-6191407D01*
G01X43030418Y-6191407D01*
G01X42980455Y-6201402D01*
G01X42959520Y-6213672D01*
G01X42959520Y-6213672D01*
G01X42930444Y-6267034D01*
G01X42929637Y-6276368D01*
G01X42929637Y-6276368D01*
G01X42947124Y-6320924D01*
G01X42961571Y-6332618D01*
G01X42961571Y-6332618D01*
G01X43020886Y-6358837D01*
G01X43038914Y-6363965D01*
G01X43038914Y-6363965D01*
G01X43104516Y-6381183D01*
G01X43130028Y-6388575D01*
G01X43130028Y-6388575D01*
G01X43189161Y-6421179D01*
G01X43207664Y-6438379D01*
G01X43207664Y-6438379D01*
G01X43235606Y-6498914D01*
G01X43239598Y-6532422D01*
G01X43239598Y-6532422D01*
G01X43239598Y-6532422D01*
G01X43232520Y-6585488D01*
G01X43211285Y-6629139D01*
G01X43178368Y-6661622D01*
G01X43178368Y-6661622D01*
G01X43114052Y-6692555D01*
G01X43057797Y-6704121D01*
G01X43032787Y-6705860D01*
G01X43032762Y-6705860D01*
G01X43032762Y-6705860D01*
G01X42979467Y-6701883D01*
G01X42930910Y-6689953D01*
G01X42902684Y-6678321D01*
G01X42902684Y-6678321D01*
G01X42851380Y-6630827D01*
G01X42845848Y-6610352D01*
G37*
G36*
G01X43342137Y-6415821D02*
G01X43342137Y-6415821D01*
G01X43345625Y-6360323D01*
G01X43356090Y-6309844D01*
G01X43373531Y-6264386D01*
G01X43397948Y-6223946D01*
G01X43414207Y-6204004D01*
G01X43414207Y-6204004D01*
G01X43471566Y-6159133D01*
G01X43530949Y-6135270D01*
G01X43578992Y-6125780D01*
G01X43602330Y-6124029D01*
G01X43602879Y-6124024D01*
G01X43602879Y-6124024D01*
G01X43656761Y-6128631D01*
G01X43705344Y-6142451D01*
G01X43748629Y-6165486D01*
G01X43786614Y-6197734D01*
G01X43792430Y-6204004D01*
G01X43792430Y-6204004D01*
G01X43830145Y-6262365D01*
G01X43851602Y-6324049D01*
G01X43861386Y-6377320D01*
G01X43864083Y-6410443D01*
G01X43864207Y-6415821D01*
G01X43864207Y-6415821D01*
G01X43854563Y-6498098D01*
G01X43832616Y-6561712D01*
G01X43808847Y-6604739D01*
G01X43793735Y-6625253D01*
G01X43792430Y-6626758D01*
G01X43792430Y-6626758D01*
G01X43735066Y-6671136D01*
G01X43675390Y-6694738D01*
G01X43626985Y-6704123D01*
G01X43603434Y-6705855D01*
G01X43602879Y-6705860D01*
G01X43602879Y-6705860D01*
G01X43549476Y-6701304D01*
G01X43501202Y-6687635D01*
G01X43458058Y-6664854D01*
G01X43420044Y-6632960D01*
G01X43414207Y-6626758D01*
G01X43414207Y-6626758D01*
G01X43376338Y-6568860D01*
G01X43354794Y-6507439D01*
G01X43344970Y-6454287D01*
G01X43342262Y-6421197D01*
G01X43342137Y-6415821D01*
G37*
%LPC*%
G36*
G01X43426512Y-6398829D02*
G01X43426512Y-6398829D01*
G01X43430164Y-6453868D01*
G01X43441120Y-6503487D01*
G01X43459380Y-6547686D01*
G01X43473094Y-6570508D01*
G01X43473094Y-6570508D01*
G01X43526868Y-6618444D01*
G01X43578734Y-6636368D01*
G01X43602854Y-6639063D01*
G01X43602879Y-6639063D01*
G01X43602879Y-6639063D01*
G01X43655589Y-6632560D01*
G01X43699763Y-6613053D01*
G01X43733543Y-6582813D01*
G01X43733543Y-6582813D01*
G01X43765679Y-6521594D01*
G01X43778231Y-6463139D01*
G01X43780415Y-6433255D01*
G01X43780418Y-6432813D01*
G01X43780418Y-6432813D01*
G01X43776651Y-6377727D01*
G01X43765351Y-6327970D01*
G01X43746516Y-6283542D01*
G01X43732371Y-6260547D01*
G01X43732371Y-6260547D01*
G01X43678021Y-6212202D01*
G01X43626611Y-6194124D01*
G01X43602904Y-6191407D01*
G01X43602879Y-6191407D01*
G01X43602879Y-6191407D01*
G01X43550238Y-6197977D01*
G01X43506266Y-6217688D01*
G01X43472801Y-6248243D01*
G01X43472801Y-6248243D01*
G01X43441067Y-6309864D01*
G01X43428672Y-6368475D01*
G01X43426515Y-6398387D01*
G01X43426512Y-6398829D01*
G37*
%LPD*%
G36*
G01X43990184Y-5805860D02*
G01X43990184Y-5805860D01*
G01X44032371Y-5802344D01*
G01X44032371Y-5802344D01*
G01X44079496Y-5819912D01*
G01X44087450Y-5848047D01*
G01X44087450Y-5848047D01*
G01X44086380Y-5888691D01*
G01X44085692Y-5912207D01*
G01X44085692Y-5912207D01*
G01X44083849Y-5976627D01*
G01X44082158Y-6037843D01*
G01X44081310Y-6069071D01*
G01X44081297Y-6069532D01*
G01X44081297Y-6069532D01*
G01X44079729Y-6144038D01*
G01X44078952Y-6208111D01*
G01X44078689Y-6251555D01*
G01X44078661Y-6264649D01*
G01X44078661Y-6451563D01*
G01X44078661Y-6451563D01*
G01X44079668Y-6514883D01*
G01X44082692Y-6570968D01*
G01X44087730Y-6619817D01*
G01X44094785Y-6661432D01*
G01X44101512Y-6688282D01*
G01X44101512Y-6688282D01*
G01X44056395Y-6697657D01*
G01X44056395Y-6697657D01*
G01X44010106Y-6683301D01*
G01X44010106Y-6683301D01*
G01X43997215Y-6635547D01*
G01X43997215Y-6635547D01*
G01X43997215Y-6635547D01*
G01X43997343Y-6607784D01*
G01X43997726Y-6557751D01*
G01X43998364Y-6485449D01*
G01X43998387Y-6482911D01*
G01X43998387Y-6482911D01*
G01X43999103Y-6393698D01*
G01X43999445Y-6332444D01*
G01X43999551Y-6299047D01*
G01X43999559Y-6292188D01*
G01X43999559Y-6152735D01*
G01X43999559Y-6152735D01*
G01X43999348Y-6072763D01*
G01X43998715Y-6002653D01*
G01X43997661Y-5942404D01*
G01X43996184Y-5892016D01*
G01X43994286Y-5851490D01*
G01X43991965Y-5820825D01*
G01X43990184Y-5805860D01*
G37*
G36*
G01X44227489Y-6415821D02*
G01X44227489Y-6415821D01*
G01X44231062Y-6360753D01*
G01X44241782Y-6310535D01*
G01X44259648Y-6265167D01*
G01X44284661Y-6224648D01*
G01X44301317Y-6204590D01*
G01X44301317Y-6204590D01*
G01X44360295Y-6158013D01*
G01X44418065Y-6134095D01*
G01X44461992Y-6125283D01*
G01X44479442Y-6124024D01*
G01X44479442Y-6124024D01*
G01X44479442Y-6124024D01*
G01X44527908Y-6128765D01*
G01X44575290Y-6142990D01*
G01X44618895Y-6165040D01*
G01X44618895Y-6165040D01*
G01X44620423Y-6106924D01*
G01X44621163Y-6058462D01*
G01X44621239Y-6040235D01*
G01X44621239Y-6040235D01*
G01X44620785Y-5978215D01*
G01X44619424Y-5922095D01*
G01X44617155Y-5871873D01*
G01X44613979Y-5827550D01*
G01X44611864Y-5805860D01*
G01X44611864Y-5805860D01*
G01X44654637Y-5802344D01*
G01X44654637Y-5802344D01*
G01X44700759Y-5819912D01*
G01X44708543Y-5848047D01*
G01X44708543Y-5848047D01*
G01X44708353Y-5870975D01*
G01X44707782Y-5906806D01*
G01X44706830Y-5955540D01*
G01X44705497Y-6017177D01*
G01X44703784Y-6091717D01*
G01X44703270Y-6113477D01*
G01X44703270Y-6113477D01*
G01X44701122Y-6210156D01*
G01X44699655Y-6287669D01*
G01X44698738Y-6347009D01*
G01X44698243Y-6389170D01*
G01X44698039Y-6415146D01*
G01X44697997Y-6425929D01*
G01X44697996Y-6426368D01*
G01X44697996Y-6426368D01*
G01X44698821Y-6497503D01*
G01X44701296Y-6558612D01*
G01X44705421Y-6609695D01*
G01X44711196Y-6650752D01*
G01X44718620Y-6681782D01*
G01X44720848Y-6688282D01*
G01X44720848Y-6688282D01*
G01X44675145Y-6697657D01*
G01X44675145Y-6697657D01*
G01X44633775Y-6678914D01*
G01X44622411Y-6637891D01*
G01X44622411Y-6637891D01*
G01X44579866Y-6671597D01*
G01X44535152Y-6693870D01*
G01X44488271Y-6704711D01*
G01X44466551Y-6705860D01*
G01X44465379Y-6705860D01*
G01X44465379Y-6705860D01*
G01X44417114Y-6700315D01*
G01X44372255Y-6683679D01*
G01X44330802Y-6655952D01*
G01X44298387Y-6623829D01*
G01X44298387Y-6623829D01*
G01X44259856Y-6562320D01*
G01X44238653Y-6499268D01*
G01X44229601Y-6447078D01*
G01X44227525Y-6418153D01*
G01X44227489Y-6415821D01*
G37*
%LPC*%
G36*
G01X44311864Y-6398829D02*
G01X44311864Y-6398829D01*
G01X44315537Y-6453638D01*
G01X44326558Y-6502895D01*
G01X44344925Y-6546598D01*
G01X44362254Y-6574024D01*
G01X44362254Y-6574024D01*
G01X44418947Y-6623752D01*
G01X44467328Y-6640728D01*
G01X44484129Y-6642579D01*
G01X44484129Y-6642579D01*
G01X44530157Y-6635113D01*
G01X44574652Y-6612716D01*
G01X44617617Y-6575388D01*
G01X44618895Y-6574024D01*
G01X44618895Y-6574024D01*
G01X44618245Y-6487179D01*
G01X44617700Y-6412622D01*
G01X44617260Y-6350351D01*
G01X44616926Y-6300368D01*
G01X44616698Y-6262671D01*
G01X44616575Y-6237262D01*
G01X44616551Y-6227149D01*
G01X44616551Y-6227149D01*
G01X44567359Y-6204706D01*
G01X44519414Y-6193137D01*
G01X44492918Y-6191407D01*
G01X44492918Y-6191407D01*
G01X44440006Y-6197977D01*
G01X44395221Y-6217688D01*
G01X44360496Y-6248243D01*
G01X44360496Y-6248243D01*
G01X44327155Y-6309864D01*
G01X44314133Y-6368475D01*
G01X44311867Y-6398387D01*
G01X44311864Y-6398829D01*
G37*
%LPD*%
G36*
G01X44846239Y-6418165D02*
G01X44846239Y-6418165D01*
G01X44849766Y-6361504D01*
G01X44860347Y-6310631D01*
G01X44877983Y-6265547D01*
G01X44902673Y-6226251D01*
G01X44926219Y-6200196D01*
G01X44926219Y-6200196D01*
G01X44989304Y-6156159D01*
G01X45050108Y-6133545D01*
G01X45095917Y-6125214D01*
G01X45114012Y-6124024D01*
G01X45114012Y-6124024D01*
G01X45114012Y-6124024D01*
G01X45167331Y-6129510D01*
G01X45213335Y-6145970D01*
G01X45249950Y-6171485D01*
G01X45249950Y-6171485D01*
G01X45290834Y-6231175D01*
G01X45301681Y-6275791D01*
G01X45302098Y-6282813D01*
G01X45302098Y-6282813D01*
G01X45295470Y-6335596D01*
G01X45285399Y-6360743D01*
G01X45285399Y-6360743D01*
G01X45245890Y-6406645D01*
G01X45241746Y-6409668D01*
G01X45241746Y-6409668D01*
G01X45182628Y-6432883D01*
G01X45163817Y-6437207D01*
G01X45163817Y-6437207D01*
G01X45094603Y-6446839D01*
G01X45063622Y-6449219D01*
G01X45063622Y-6449219D01*
G01X45063622Y-6449219D01*
G01X44998469Y-6451031D01*
G01X44944600Y-6451538D01*
G01X44934129Y-6451563D01*
G01X44934129Y-6451563D01*
G01X44944331Y-6506035D01*
G01X44962187Y-6552312D01*
G01X44985985Y-6588379D01*
G01X44985985Y-6588379D01*
G01X45042790Y-6626984D01*
G01X45092492Y-6638362D01*
G01X45104051Y-6639063D01*
G01X45104051Y-6639063D01*
G01X45160366Y-6631815D01*
G01X45203406Y-6610073D01*
G01X45231786Y-6576368D01*
G01X45231786Y-6576368D01*
G01X45274642Y-6608083D01*
G01X45279246Y-6626758D01*
G01X45279246Y-6626758D01*
G01X45259629Y-6664586D01*
G01X45224754Y-6684180D01*
G01X45224754Y-6684180D01*
G01X45156761Y-6701407D01*
G01X45108961Y-6705733D01*
G01X45102879Y-6705860D01*
G01X45102879Y-6705860D01*
G01X45048918Y-6701410D01*
G01X45000121Y-6688062D01*
G01X44956486Y-6665815D01*
G01X44918016Y-6634668D01*
G01X44918016Y-6634668D01*
G01X44918016Y-6634668D01*
G01X44880301Y-6579256D01*
G01X44858844Y-6516338D01*
G01X44849060Y-6459934D01*
G01X44846363Y-6424063D01*
G01X44846239Y-6418165D01*
G37*
%LPC*%
G36*
G01X44932957Y-6391797D02*
G01X44932957Y-6391797D01*
G01X44988453Y-6391389D01*
G01X45019090Y-6390625D01*
G01X45019090Y-6390625D01*
G01X45082049Y-6384997D01*
G01X45094676Y-6383301D01*
G01X45094676Y-6383301D01*
G01X45155749Y-6368374D01*
G01X45160887Y-6366309D01*
G01X45160887Y-6366309D01*
G01X45202149Y-6335308D01*
G01X45202196Y-6335254D01*
G01X45202196Y-6335254D01*
G01X45219475Y-6285582D01*
G01X45219481Y-6285157D01*
G01X45219481Y-6285157D01*
G01X45205698Y-6238704D01*
G01X45187840Y-6218360D01*
G01X45187840Y-6218360D01*
G01X45128683Y-6192173D01*
G01X45109325Y-6190235D01*
G01X45109325Y-6190235D01*
G01X45058880Y-6196973D01*
G01X45014212Y-6217187D01*
G01X44986278Y-6239454D01*
G01X44986278Y-6239454D01*
G01X44951511Y-6296090D01*
G01X44936513Y-6355740D01*
G01X44933008Y-6390335D01*
G01X44932957Y-6391797D01*
G37*
%LPD*%
G36*
G01X45428075Y-6136329D02*
G01X45428075Y-6136329D01*
G01X45469090Y-6132813D01*
G01X45469090Y-6132813D01*
G01X45513970Y-6151293D01*
G01X45520653Y-6177930D01*
G01X45520653Y-6177930D01*
G01X45520067Y-6194336D01*
G01X45520067Y-6194336D01*
G01X45519481Y-6220118D01*
G01X45519481Y-6220118D01*
G01X45550125Y-6182386D01*
G01X45583641Y-6153614D01*
G01X45583641Y-6153614D01*
G01X45645883Y-6126063D01*
G01X45663036Y-6124024D01*
G01X45663036Y-6124024D01*
G01X45706395Y-6136622D01*
G01X45706395Y-6136622D01*
G01X45722215Y-6170899D01*
G01X45722215Y-6170899D01*
G01X45705264Y-6215078D01*
G01X45698192Y-6224805D01*
G01X45698192Y-6224805D01*
G01X45653240Y-6202961D01*
G01X45640184Y-6201954D01*
G01X45640184Y-6201954D01*
G01X45593955Y-6214507D01*
G01X45573094Y-6228321D01*
G01X45573094Y-6228321D01*
G01X45528800Y-6278005D01*
G01X45516551Y-6298047D01*
G01X45516551Y-6298047D01*
G01X45515905Y-6332775D01*
G01X45515515Y-6382816D01*
G01X45515379Y-6448172D01*
G01X45515379Y-6450391D01*
G01X45515379Y-6450391D01*
G01X45516387Y-6514540D01*
G01X45519410Y-6571144D01*
G01X45524449Y-6620203D01*
G01X45531503Y-6661717D01*
G01X45538231Y-6688282D01*
G01X45538231Y-6688282D01*
G01X45492528Y-6697657D01*
G01X45492528Y-6697657D01*
G01X45446188Y-6682438D01*
G01X45445946Y-6682129D01*
G01X45445946Y-6682129D01*
G01X45433943Y-6629970D01*
G01X45433934Y-6629102D01*
G01X45433934Y-6629102D01*
G01X45434263Y-6592888D01*
G01X45435106Y-6534473D01*
G01X45435106Y-6534473D01*
G01X45436061Y-6456431D01*
G01X45436275Y-6419448D01*
G01X45436278Y-6416993D01*
G01X45436278Y-6416993D01*
G01X45436012Y-6357219D01*
G01X45435215Y-6301509D01*
G01X45433886Y-6249861D01*
G01X45432025Y-6202275D01*
G01X45429633Y-6158752D01*
G01X45428075Y-6136329D01*
G37*
G36*
G01X45806004Y-6142188D02*
G01X45806004Y-6142188D01*
G01X45852879Y-6132813D01*
G01X45852879Y-6132813D01*
G01X45894459Y-6151555D01*
G01X45904442Y-6192579D01*
G01X45904442Y-6192579D01*
G01X45950548Y-6162586D01*
G01X45997459Y-6141163D01*
G01X46045177Y-6128309D01*
G01X46093700Y-6124024D01*
G01X46093700Y-6124024D01*
G01X46093700Y-6124024D01*
G01X46144966Y-6129798D01*
G01X46190485Y-6147122D01*
G01X46230255Y-6175994D01*
G01X46242235Y-6188184D01*
G01X46242235Y-6188184D01*
G01X46275940Y-6245784D01*
G01X46293248Y-6309949D01*
G01X46299625Y-6362084D01*
G01X46300536Y-6383594D01*
G01X46300536Y-6383594D01*
G01X46300536Y-6383594D01*
G01X46297746Y-6437219D01*
G01X46289376Y-6487844D01*
G01X46275426Y-6535469D01*
G01X46273289Y-6541211D01*
G01X46273289Y-6541211D01*
G01X46237848Y-6604637D01*
G01X46201614Y-6645678D01*
G01X46186278Y-6659278D01*
G01X46186278Y-6659278D01*
G01X46122986Y-6691850D01*
G01X46067115Y-6704029D01*
G01X46042162Y-6705860D01*
G01X46042137Y-6705860D01*
G01X46042137Y-6705860D01*
G01X45992077Y-6700620D01*
G01X45943992Y-6684901D01*
G01X45907957Y-6665430D01*
G01X45907957Y-6665430D01*
G01X45908332Y-6707618D01*
G01X45908543Y-6728418D01*
G01X45908543Y-6728418D01*
G01X45909525Y-6797617D01*
G01X45909715Y-6805762D01*
G01X45909715Y-6805762D01*
G01X45912396Y-6864140D01*
G01X45912645Y-6868750D01*
G01X45912645Y-6868750D01*
G01X45918898Y-6932415D01*
G01X45919969Y-6939063D01*
G01X45919969Y-6939063D01*
G01X45931979Y-6988275D01*
G01X45931981Y-6988282D01*
G01X45931981Y-6988282D01*
G01X45883934Y-6997657D01*
G01X45883934Y-6997657D01*
G01X45837594Y-6982438D01*
G01X45837352Y-6982129D01*
G01X45837352Y-6982129D01*
G01X45825349Y-6929970D01*
G01X45825340Y-6929102D01*
G01X45825340Y-6929102D01*
G01X45825397Y-6884891D01*
G01X45825568Y-6837053D01*
G01X45825853Y-6785590D01*
G01X45826252Y-6730500D01*
G01X45826764Y-6671785D01*
G01X45827098Y-6637598D01*
G01X45827098Y-6637598D01*
G01X45827989Y-6541724D01*
G01X45828513Y-6471644D01*
G01X45828767Y-6425323D01*
G01X45828849Y-6400728D01*
G01X45828856Y-6395313D01*
G01X45828856Y-6395313D01*
G01X45827942Y-6324625D01*
G01X45825200Y-6263969D01*
G01X45820629Y-6213344D01*
G01X45814231Y-6172750D01*
G01X45806004Y-6142188D01*
G01X45806004Y-6142188D01*
G37*
%LPC*%
G36*
G01X45907957Y-6257618D02*
G01X45907957Y-6257618D01*
G01X45908608Y-6332619D01*
G01X45909153Y-6399420D01*
G01X45909592Y-6458021D01*
G01X45909926Y-6508422D01*
G01X45910155Y-6550623D01*
G01X45910278Y-6584624D01*
G01X45910301Y-6602735D01*
G01X45910301Y-6602735D01*
G01X45951683Y-6622975D01*
G01X46000922Y-6635088D01*
G01X46054442Y-6639063D01*
G01X46054442Y-6639063D01*
G01X46104320Y-6629908D01*
G01X46146141Y-6602442D01*
G01X46146141Y-6602442D01*
G01X46146141Y-6602442D01*
G01X46185918Y-6546459D01*
G01X46199386Y-6513918D01*
G01X46199461Y-6513672D01*
G01X46199461Y-6513672D01*
G01X46212262Y-6445912D01*
G01X46214962Y-6403661D01*
G01X46214989Y-6401172D01*
G01X46214989Y-6401172D01*
G01X46211271Y-6341600D01*
G01X46200118Y-6292258D01*
G01X46181529Y-6253147D01*
G01X46173680Y-6242383D01*
G01X46173680Y-6242383D01*
G01X46115650Y-6201353D01*
G01X46071964Y-6191616D01*
G01X46067332Y-6191407D01*
G01X46067332Y-6191407D01*
G01X46020390Y-6196975D01*
G01X45974039Y-6213680D01*
G01X45928279Y-6241522D01*
G01X45907957Y-6257618D01*
G37*
%LPD*%
G36*
G01X46407762Y-6537110D02*
G01X46407762Y-6537110D01*
G01X46415526Y-6482370D01*
G01X46436473Y-6447168D01*
G01X46436473Y-6447168D01*
G01X46491530Y-6412388D01*
G01X46515575Y-6403516D01*
G01X46515575Y-6403516D01*
G01X46557603Y-6393711D01*
G01X46604283Y-6385438D01*
G01X46655613Y-6378696D01*
G01X46711595Y-6373486D01*
G01X46744090Y-6371290D01*
G01X46744090Y-6371290D01*
G01X46741004Y-6307638D01*
G01X46731745Y-6259419D01*
G01X46718895Y-6230372D01*
G01X46718895Y-6230372D01*
G01X46665907Y-6198623D01*
G01X46616111Y-6191514D01*
G01X46611668Y-6191407D01*
G01X46611668Y-6191407D01*
G01X46565027Y-6201296D01*
G01X46542235Y-6212793D01*
G01X46542235Y-6212793D01*
G01X46496736Y-6259390D01*
G01X46488036Y-6275196D01*
G01X46488036Y-6275196D01*
G01X46440498Y-6251209D01*
G01X46432957Y-6227149D01*
G01X46432957Y-6227149D01*
G01X46447386Y-6184961D01*
G01X46490672Y-6152149D01*
G01X46490672Y-6152149D01*
G01X46490672Y-6152149D01*
G01X46557704Y-6131056D01*
G01X46611262Y-6124518D01*
G01X46625145Y-6124024D01*
G01X46625145Y-6124024D01*
G01X46685505Y-6128404D01*
G01X46734585Y-6141544D01*
G01X46772385Y-6163444D01*
G01X46776317Y-6166797D01*
G01X46776317Y-6166797D01*
G01X46808580Y-6220714D01*
G01X46821727Y-6281749D01*
G01X46824347Y-6318169D01*
G01X46824364Y-6319727D01*
G01X46824364Y-6319727D01*
G01X46823773Y-6359180D01*
G01X46823192Y-6390332D01*
G01X46823192Y-6390332D01*
G01X46822127Y-6463495D01*
G01X46822020Y-6482032D01*
G01X46822020Y-6482032D01*
G01X46823448Y-6546778D01*
G01X46827733Y-6602735D01*
G01X46834874Y-6649903D01*
G01X46844871Y-6688282D01*
G01X46844871Y-6688282D01*
G01X46844871Y-6688282D01*
G01X46797996Y-6697657D01*
G01X46797996Y-6697657D01*
G01X46760789Y-6685059D01*
G01X46760789Y-6685059D01*
G01X46746434Y-6644922D01*
G01X46746434Y-6644922D01*
G01X46701364Y-6676000D01*
G01X46655450Y-6696110D01*
G01X46608692Y-6705250D01*
G01X46592918Y-6705860D01*
G01X46592918Y-6705860D01*
G01X46532434Y-6700392D01*
G01X46483872Y-6683990D01*
G01X46447232Y-6656652D01*
G01X46422515Y-6618380D01*
G01X46409719Y-6569172D01*
G01X46407762Y-6537110D01*
G37*
%LPC*%
G36*
G01X46492137Y-6537110D02*
G01X46492137Y-6537110D01*
G01X46502227Y-6589425D01*
G01X46523192Y-6616797D01*
G01X46523192Y-6616797D01*
G01X46583393Y-6640929D01*
G01X46602293Y-6642579D01*
G01X46602293Y-6642579D01*
G01X46653304Y-6636708D01*
G01X46698826Y-6619097D01*
G01X46738861Y-6589745D01*
G01X46739989Y-6588672D01*
G01X46739989Y-6588672D01*
G01X46738831Y-6540790D01*
G01X46738817Y-6532422D01*
G01X46738817Y-6532422D01*
G01X46740176Y-6481914D01*
G01X46742918Y-6432813D01*
G01X46742918Y-6432813D01*
G01X46692203Y-6438483D01*
G01X46690770Y-6438672D01*
G01X46690770Y-6438672D01*
G01X46643602Y-6444532D01*
G01X46643602Y-6444532D01*
G01X46599657Y-6451563D01*
G01X46599657Y-6451563D01*
G01X46564500Y-6461231D01*
G01X46564500Y-6461231D01*
G01X46533446Y-6474707D01*
G01X46533446Y-6474707D01*
G01X46511766Y-6490821D01*
G01X46511766Y-6490821D01*
G01X46496239Y-6511036D01*
G01X46496239Y-6511036D01*
G01X46492137Y-6537110D01*
G37*
%LPD*%
G36*
G01X46958543Y-6610352D02*
G01X46958543Y-6610352D01*
G01X46979939Y-6574235D01*
G01X47012450Y-6559961D01*
G01X47012450Y-6559961D01*
G01X47039485Y-6599723D01*
G01X47069579Y-6618848D01*
G01X47069579Y-6618848D01*
G01X47135731Y-6636827D01*
G01X47164793Y-6639063D01*
G01X47164793Y-6639063D01*
G01X47232302Y-6624918D01*
G01X47248289Y-6616211D01*
G01X47248289Y-6616211D01*
G01X47278606Y-6561336D01*
G01X47280223Y-6545313D01*
G01X47280223Y-6545313D01*
G01X47262260Y-6500928D01*
G01X47248289Y-6490235D01*
G01X47248289Y-6490235D01*
G01X47188173Y-6465254D01*
G01X47170946Y-6460645D01*
G01X47170946Y-6460645D01*
G01X47104368Y-6443680D01*
G01X47079832Y-6436622D01*
G01X47079832Y-6436622D01*
G01X47021472Y-6403367D01*
G01X47002196Y-6384473D01*
G01X47002196Y-6384473D01*
G01X46975016Y-6323012D01*
G01X46970269Y-6283477D01*
G01X46970262Y-6282813D01*
G01X46970262Y-6282813D01*
G01X46978725Y-6234665D01*
G01X47004113Y-6193415D01*
G01X47032079Y-6168555D01*
G01X47032079Y-6168555D01*
G01X47097023Y-6136826D01*
G01X47150966Y-6125483D01*
G01X47171825Y-6124024D01*
G01X47171825Y-6124024D01*
G01X47220928Y-6128902D01*
G01X47269236Y-6143535D01*
G01X47282274Y-6149219D01*
G01X47282274Y-6149219D01*
G01X47331198Y-6196894D01*
G01X47336473Y-6218946D01*
G01X47336473Y-6218946D01*
G01X47315078Y-6256155D01*
G01X47282567Y-6269336D01*
G01X47282567Y-6269336D01*
G01X47254772Y-6230894D01*
G01X47228368Y-6213086D01*
G01X47228368Y-6213086D01*
G01X47163972Y-6193130D01*
G01X47143114Y-6191407D01*
G01X47143114Y-6191407D01*
G01X47093150Y-6201402D01*
G01X47072215Y-6213672D01*
G01X47072215Y-6213672D01*
G01X47043139Y-6267034D01*
G01X47042332Y-6276368D01*
G01X47042332Y-6276368D01*
G01X47059819Y-6320924D01*
G01X47074266Y-6332618D01*
G01X47074266Y-6332618D01*
G01X47133582Y-6358837D01*
G01X47151610Y-6363965D01*
G01X47151610Y-6363965D01*
G01X47217211Y-6381183D01*
G01X47242723Y-6388575D01*
G01X47242723Y-6388575D01*
G01X47301856Y-6421179D01*
G01X47320360Y-6438379D01*
G01X47320360Y-6438379D01*
G01X47348302Y-6498914D01*
G01X47352293Y-6532422D01*
G01X47352293Y-6532422D01*
G01X47352293Y-6532422D01*
G01X47345215Y-6585488D01*
G01X47323980Y-6629139D01*
G01X47291063Y-6661622D01*
G01X47291063Y-6661622D01*
G01X47226747Y-6692555D01*
G01X47170493Y-6704121D01*
G01X47145483Y-6705860D01*
G01X47145457Y-6705860D01*
G01X47145457Y-6705860D01*
G01X47092162Y-6701883D01*
G01X47043606Y-6689953D01*
G01X47015379Y-6678321D01*
G01X47015379Y-6678321D01*
G01X46964076Y-6630827D01*
G01X46958543Y-6610352D01*
G37*
G36*
G01X47400926Y-6179102D02*
G01X47400926Y-6179102D01*
G01X47418797Y-6143946D01*
G01X47418797Y-6143946D01*
G01X47475804Y-6136381D01*
G01X47480028Y-6136329D01*
G01X47514012Y-6136329D01*
G01X47514012Y-6136329D01*
G01X47511808Y-6079044D01*
G01X47508757Y-6029204D01*
G01X47506395Y-6001563D01*
G01X47506395Y-6001563D01*
G01X47546239Y-5998047D01*
G01X47546239Y-5998047D01*
G01X47594473Y-6014500D01*
G01X47603661Y-6043750D01*
G01X47603661Y-6043750D01*
G01X47602294Y-6079530D01*
G01X47598973Y-6137500D01*
G01X47598973Y-6137500D01*
G01X47668700Y-6137098D01*
G01X47725536Y-6135889D01*
G01X47769481Y-6133875D01*
G01X47800536Y-6131055D01*
G01X47800536Y-6131055D01*
G01X47800536Y-6131055D01*
G01X47805223Y-6159180D01*
G01X47805223Y-6159180D01*
G01X47792625Y-6191407D01*
G01X47792625Y-6191407D01*
G01X47752489Y-6200782D01*
G01X47752489Y-6200782D01*
G01X47717378Y-6201428D01*
G01X47666189Y-6201818D01*
G01X47598919Y-6201953D01*
G01X47596629Y-6201954D01*
G01X47596629Y-6201954D01*
G01X47595823Y-6251647D01*
G01X47595186Y-6302314D01*
G01X47594719Y-6353953D01*
G01X47594421Y-6406566D01*
G01X47594291Y-6460151D01*
G01X47594286Y-6474415D01*
G01X47594286Y-6474415D01*
G01X47597323Y-6539514D01*
G01X47606436Y-6586313D01*
G01X47617723Y-6610059D01*
G01X47617723Y-6610059D01*
G01X47672791Y-6640169D01*
G01X47695067Y-6642579D01*
G01X47695067Y-6642579D01*
G01X47744366Y-6632374D01*
G01X47781200Y-6606250D01*
G01X47781200Y-6606250D01*
G01X47802879Y-6649610D01*
G01X47802879Y-6649610D01*
G01X47776020Y-6688111D01*
G01X47771825Y-6690333D01*
G01X47771825Y-6690333D01*
G01X47710117Y-6705194D01*
G01X47696239Y-6705860D01*
G01X47696239Y-6705860D01*
G01X47638459Y-6699980D01*
G01X47592619Y-6682340D01*
G01X47558719Y-6652940D01*
G01X47555321Y-6648438D01*
G01X47555321Y-6648438D01*
G01X47529430Y-6590592D01*
G01X47517531Y-6528545D01*
G01X47514181Y-6484832D01*
G01X47514012Y-6476758D01*
G01X47514012Y-6476758D01*
G01X47514818Y-6399885D01*
G01X47515455Y-6334476D01*
G01X47515922Y-6280532D01*
G01X47516221Y-6238053D01*
G01X47516350Y-6207038D01*
G01X47516356Y-6200782D01*
G01X47516356Y-6200782D01*
G01X47491953Y-6202561D01*
G01X47425073Y-6207901D01*
G01X47404442Y-6209571D01*
G01X47404442Y-6209571D01*
G01X47400926Y-6179102D01*
G37*
G36*
G01X47876707Y-6418165D02*
G01X47876707Y-6418165D01*
G01X47880235Y-6361504D01*
G01X47890816Y-6310631D01*
G01X47908452Y-6265547D01*
G01X47933142Y-6226251D01*
G01X47956688Y-6200196D01*
G01X47956688Y-6200196D01*
G01X48019772Y-6156159D01*
G01X48080577Y-6133545D01*
G01X48126385Y-6125214D01*
G01X48144481Y-6124024D01*
G01X48144481Y-6124024D01*
G01X48144481Y-6124024D01*
G01X48197800Y-6129510D01*
G01X48243803Y-6145970D01*
G01X48280418Y-6171485D01*
G01X48280418Y-6171485D01*
G01X48321303Y-6231175D01*
G01X48332150Y-6275791D01*
G01X48332567Y-6282813D01*
G01X48332567Y-6282813D01*
G01X48325939Y-6335596D01*
G01X48315868Y-6360743D01*
G01X48315868Y-6360743D01*
G01X48276358Y-6406645D01*
G01X48272215Y-6409668D01*
G01X48272215Y-6409668D01*
G01X48213097Y-6432883D01*
G01X48194286Y-6437207D01*
G01X48194286Y-6437207D01*
G01X48125072Y-6446839D01*
G01X48094090Y-6449219D01*
G01X48094090Y-6449219D01*
G01X48094090Y-6449219D01*
G01X48028938Y-6451031D01*
G01X47975068Y-6451538D01*
G01X47964598Y-6451563D01*
G01X47964598Y-6451563D01*
G01X47974800Y-6506035D01*
G01X47992656Y-6552312D01*
G01X48016454Y-6588379D01*
G01X48016454Y-6588379D01*
G01X48073258Y-6626984D01*
G01X48122961Y-6638362D01*
G01X48134520Y-6639063D01*
G01X48134520Y-6639063D01*
G01X48190835Y-6631815D01*
G01X48233874Y-6610073D01*
G01X48262254Y-6576368D01*
G01X48262254Y-6576368D01*
G01X48305110Y-6608083D01*
G01X48309715Y-6626758D01*
G01X48309715Y-6626758D01*
G01X48290098Y-6664586D01*
G01X48255223Y-6684180D01*
G01X48255223Y-6684180D01*
G01X48187229Y-6701407D01*
G01X48139430Y-6705733D01*
G01X48133348Y-6705860D01*
G01X48133348Y-6705860D01*
G01X48079387Y-6701410D01*
G01X48030589Y-6688062D01*
G01X47986955Y-6665815D01*
G01X47948485Y-6634668D01*
G01X47948485Y-6634668D01*
G01X47948485Y-6634668D01*
G01X47910770Y-6579256D01*
G01X47889313Y-6516338D01*
G01X47879529Y-6459934D01*
G01X47876831Y-6424063D01*
G01X47876707Y-6418165D01*
G37*
%LPC*%
G36*
G01X47963426Y-6391797D02*
G01X47963426Y-6391797D01*
G01X48018922Y-6391389D01*
G01X48049559Y-6390625D01*
G01X48049559Y-6390625D01*
G01X48112518Y-6384997D01*
G01X48125145Y-6383301D01*
G01X48125145Y-6383301D01*
G01X48186217Y-6368374D01*
G01X48191356Y-6366309D01*
G01X48191356Y-6366309D01*
G01X48232618Y-6335308D01*
G01X48232664Y-6335254D01*
G01X48232664Y-6335254D01*
G01X48249944Y-6285582D01*
G01X48249950Y-6285157D01*
G01X48249950Y-6285157D01*
G01X48236167Y-6238704D01*
G01X48218309Y-6218360D01*
G01X48218309Y-6218360D01*
G01X48159152Y-6192173D01*
G01X48139793Y-6190235D01*
G01X48139793Y-6190235D01*
G01X48089349Y-6196973D01*
G01X48044680Y-6217187D01*
G01X48016747Y-6239454D01*
G01X48016747Y-6239454D01*
G01X47981980Y-6296090D01*
G01X47966981Y-6355740D01*
G01X47963477Y-6390335D01*
G01X47963426Y-6391797D01*
G37*

G04 Pad flashes *
%LPD*%
D11*

G04 end of program *
M02*
