G04                                                      *
G04 Greetings!                                           *
G04 This Gerber was generated by PCBmodE, an open source *
G04 PCB design software. Get it here:                    *
G04                                                      *
G04   http://pcbmode.com                                 *
G04                                                      *
G04 Also visit                                           *
G04                                                      *
G04   http://boldport.com                                *
G04                                                      *
G04 and follow @boldport / @pcbmode for updates!         *
G04                                                      *

G04 leading zeros omitted (L); absolute data (A); 6 integer digits and 6 fractional digits *
%FSLAX66Y66*%

G04 mode (MO): millimeters (MM) *
%MOMM*%

G04 Aperture definitions *
%ADD10C,0.001X*%
%ADD11C,0.001X*%

%LPD*%
G36*
G01X19000174Y-10483137D02*
G01X19000174Y-10483137D01*
G01X18935624Y-10483257D01*
G01X18871086Y-10483857D01*
G01X18806564Y-10484938D01*
G01X18742060Y-10486500D01*
G01X18677577Y-10488543D01*
G01X18613119Y-10491068D01*
G01X18548687Y-10494074D01*
G01X18484285Y-10497563D01*
G01X18419915Y-10501534D01*
G01X18355581Y-10505988D01*
G01X18291284Y-10510924D01*
G01X18227028Y-10516344D01*
G01X18162815Y-10522248D01*
G01X18098648Y-10528636D01*
G01X18034531Y-10535508D01*
G01X17970465Y-10542864D01*
G01X17906453Y-10550705D01*
G01X17842499Y-10559032D01*
G01X17778605Y-10567844D01*
G01X17714773Y-10577141D01*
G01X17651007Y-10586925D01*
G01X17587310Y-10597195D01*
G01X17523683Y-10607952D01*
G01X17460131Y-10619196D01*
G01X17396655Y-10630927D01*
G01X17396655Y-10630927D01*
G01X17396655Y-10630927D01*
G01X17258488Y-10658565D01*
G01X17121291Y-10688329D01*
G01X16985077Y-10720199D01*
G01X16849862Y-10754155D01*
G01X16715657Y-10790177D01*
G01X16582478Y-10828243D01*
G01X16450338Y-10868332D01*
G01X16319251Y-10910426D01*
G01X16189232Y-10954502D01*
G01X16060293Y-11000541D01*
G01X15932450Y-11048522D01*
G01X15805715Y-11098424D01*
G01X15680103Y-11150227D01*
G01X15555628Y-11203911D01*
G01X15432304Y-11259454D01*
G01X15310144Y-11316837D01*
G01X15189163Y-11376038D01*
G01X15069374Y-11437038D01*
G01X14950792Y-11499816D01*
G01X14833430Y-11564350D01*
G01X14717302Y-11630621D01*
G01X14602423Y-11698609D01*
G01X14488805Y-11768292D01*
G01X14376464Y-11839650D01*
G01X14265412Y-11912662D01*
G01X14155665Y-11987309D01*
G01X14047235Y-12063569D01*
G01X13940137Y-12141422D01*
G01X13834384Y-12220848D01*
G01X13729992Y-12301825D01*
G01X13626972Y-12384334D01*
G01X13525341Y-12468354D01*
G01X13425110Y-12553864D01*
G01X13326295Y-12640844D01*
G01X13228909Y-12729273D01*
G01X13132966Y-12819130D01*
G01X13038481Y-12910396D01*
G01X12945466Y-13003050D01*
G01X12853936Y-13097071D01*
G01X12763905Y-13192438D01*
G01X12675387Y-13289132D01*
G01X12588396Y-13387131D01*
G01X12502945Y-13486415D01*
G01X12419049Y-13586964D01*
G01X12336721Y-13688756D01*
G01X12255976Y-13791772D01*
G01X12176827Y-13895991D01*
G01X12099289Y-14001393D01*
G01X12023374Y-14107956D01*
G01X11949098Y-14215661D01*
G01X11876474Y-14324486D01*
G01X11805516Y-14434412D01*
G01X11736238Y-14545417D01*
G01X11668653Y-14657482D01*
G01X11602777Y-14770585D01*
G01X11538622Y-14884707D01*
G01X11476202Y-14999826D01*
G01X11415532Y-15115922D01*
G01X11356626Y-15232975D01*
G01X11299497Y-15350964D01*
G01X11244160Y-15469868D01*
G01X11190627Y-15589668D01*
G01X11138914Y-15710342D01*
G01X11089034Y-15831870D01*
G01X11041001Y-15954231D01*
G01X10994829Y-16077405D01*
G01X10950532Y-16201371D01*
G01X10908124Y-16326110D01*
G01X10867618Y-16451599D01*
G01X10829029Y-16577820D01*
G01X10792371Y-16704750D01*
G01X10757657Y-16832371D01*
G01X10724902Y-16960660D01*
G01X10694119Y-17089598D01*
G01X10665322Y-17219165D01*
G01X10638526Y-17349339D01*
G01X10613744Y-17480099D01*
G01X10590990Y-17611427D01*
G01X10570278Y-17743300D01*
G01X10551622Y-17875699D01*
G01X10535035Y-18008603D01*
G01X10520533Y-18141992D01*
G01X10508128Y-18275844D01*
G01X10497835Y-18410140D01*
G01X10489667Y-18544858D01*
G01X10483639Y-18679979D01*
G01X10479765Y-18815482D01*
G01X10478058Y-18951345D01*
G01X10478532Y-19087550D01*
G01X10481201Y-19224075D01*
G01X10486079Y-19360899D01*
G01X10493181Y-19498003D01*
G01X10502519Y-19635365D01*
G01X10514109Y-19772965D01*
G01X10527963Y-19910783D01*
G01X10544096Y-20048798D01*
G01X10562522Y-20186989D01*
G01X10583254Y-20325337D01*
G01X10606307Y-20463819D01*
G01X10631695Y-20602417D01*
G01X10631695Y-20602417D01*
G01X10631695Y-20602417D01*
G01X10655634Y-20722477D01*
G01X10681206Y-20841858D01*
G01X10708395Y-20960551D01*
G01X10737190Y-21078544D01*
G01X10767578Y-21195827D01*
G01X10799545Y-21312389D01*
G01X10833078Y-21428219D01*
G01X10868165Y-21543307D01*
G01X10904792Y-21657642D01*
G01X10942947Y-21771212D01*
G01X10982616Y-21884008D01*
G01X11023787Y-21996019D01*
G01X11066446Y-22107233D01*
G01X11110580Y-22217641D01*
G01X11156178Y-22327231D01*
G01X11203224Y-22435992D01*
G01X11251707Y-22543915D01*
G01X11301614Y-22650987D01*
G01X11352931Y-22757199D01*
G01X11405646Y-22862540D01*
G01X11459745Y-22966999D01*
G01X11515216Y-23070565D01*
G01X11572045Y-23173227D01*
G01X11630220Y-23274976D01*
G01X11689728Y-23375799D01*
G01X11750555Y-23475687D01*
G01X11812688Y-23574628D01*
G01X11876116Y-23672612D01*
G01X11940823Y-23769628D01*
G01X12006799Y-23865666D01*
G01X12074029Y-23960714D01*
G01X12142500Y-24054762D01*
G01X12212201Y-24147800D01*
G01X12283117Y-24239815D01*
G01X12355235Y-24330799D01*
G01X12428543Y-24420739D01*
G01X12503028Y-24509626D01*
G01X12578677Y-24597448D01*
G01X12655476Y-24684195D01*
G01X12733413Y-24769856D01*
G01X12812474Y-24854420D01*
G01X12892647Y-24937877D01*
G01X12973919Y-25020215D01*
G01X13056277Y-25101425D01*
G01X13139707Y-25181495D01*
G01X13224197Y-25260414D01*
G01X13309734Y-25338173D01*
G01X13396304Y-25414760D01*
G01X13483896Y-25490164D01*
G01X13572494Y-25564374D01*
G01X13662088Y-25637381D01*
G01X13752664Y-25709173D01*
G01X13844208Y-25779740D01*
G01X13936708Y-25849070D01*
G01X14030151Y-25917153D01*
G01X14124523Y-25983978D01*
G01X14219813Y-26049535D01*
G01X14316006Y-26113813D01*
G01X14413090Y-26176801D01*
G01X14511052Y-26238488D01*
G01X14609878Y-26298864D01*
G01X14709557Y-26357918D01*
G01X14810074Y-26415639D01*
G01X14911417Y-26472016D01*
G01X15013573Y-26527039D01*
G01X15116529Y-26580697D01*
G01X15220272Y-26632979D01*
G01X15324788Y-26683875D01*
G01X15430066Y-26733373D01*
G01X15536091Y-26781463D01*
G01X15642851Y-26828135D01*
G01X15750333Y-26873377D01*
G01X15858525Y-26917178D01*
G01X15967411Y-26959529D01*
G01X16076981Y-27000419D01*
G01X16187221Y-27039835D01*
G01X16298118Y-27077769D01*
G01X16409659Y-27114209D01*
G01X16521830Y-27149144D01*
G01X16634620Y-27182564D01*
G01X16748015Y-27214458D01*
G01X16862001Y-27244815D01*
G01X16976567Y-27273624D01*
G01X17091698Y-27300875D01*
G01X17207383Y-27326557D01*
G01X17323607Y-27350660D01*
G01X17440359Y-27373171D01*
G01X17557624Y-27394082D01*
G01X17675391Y-27413381D01*
G01X17793645Y-27431057D01*
G01X17912375Y-27447099D01*
G01X18031567Y-27461498D01*
G01X18151207Y-27474241D01*
G01X18271284Y-27485319D01*
G01X18391784Y-27494721D01*
G01X18512694Y-27502435D01*
G01X18634001Y-27508452D01*
G01X18755692Y-27512760D01*
G01X18877754Y-27515348D01*
G01X19000174Y-27516207D01*
G01X19000174Y-27516207D01*
G01X19000174Y-25816047D01*
G01X19000174Y-25816047D01*
G01X18902189Y-25815365D01*
G01X18804491Y-25813298D01*
G01X18707089Y-25809855D01*
G01X18609995Y-25805045D01*
G01X18513219Y-25798875D01*
G01X18416770Y-25791355D01*
G01X18320661Y-25782493D01*
G01X18224900Y-25772298D01*
G01X18129499Y-25760779D01*
G01X18034467Y-25747943D01*
G01X17939816Y-25733800D01*
G01X17845555Y-25718358D01*
G01X17751695Y-25701626D01*
G01X17658246Y-25683612D01*
G01X17565219Y-25664325D01*
G01X17472625Y-25643774D01*
G01X17380473Y-25621967D01*
G01X17288774Y-25598912D01*
G01X17197538Y-25574619D01*
G01X17106776Y-25549095D01*
G01X17016498Y-25522350D01*
G01X16926715Y-25494393D01*
G01X16837437Y-25465230D01*
G01X16748674Y-25434873D01*
G01X16660437Y-25403327D01*
G01X16572736Y-25370604D01*
G01X16485581Y-25336710D01*
G01X16398984Y-25301655D01*
G01X16312954Y-25265447D01*
G01X16227502Y-25228095D01*
G01X16142638Y-25189608D01*
G01X16058372Y-25149993D01*
G01X15974715Y-25109260D01*
G01X15891678Y-25067417D01*
G01X15809271Y-25024473D01*
G01X15727504Y-24980437D01*
G01X15646387Y-24935316D01*
G01X15565931Y-24889120D01*
G01X15486147Y-24841856D01*
G01X15407044Y-24793535D01*
G01X15328634Y-24744164D01*
G01X15250926Y-24693752D01*
G01X15173931Y-24642307D01*
G01X15097660Y-24589838D01*
G01X15022122Y-24536354D01*
G01X14947329Y-24481864D01*
G01X14873290Y-24426375D01*
G01X14800016Y-24369897D01*
G01X14727517Y-24312437D01*
G01X14655805Y-24254006D01*
G01X14584888Y-24194610D01*
G01X14514778Y-24134260D01*
G01X14445485Y-24072963D01*
G01X14377019Y-24010727D01*
G01X14309391Y-23947563D01*
G01X14242611Y-23883477D01*
G01X14176690Y-23818480D01*
G01X14111638Y-23752578D01*
G01X14047465Y-23685782D01*
G01X13984182Y-23618099D01*
G01X13921799Y-23549539D01*
G01X13860327Y-23480109D01*
G01X13799776Y-23409818D01*
G01X13740156Y-23338676D01*
G01X13681478Y-23266690D01*
G01X13623752Y-23193869D01*
G01X13566988Y-23120221D01*
G01X13511198Y-23045756D01*
G01X13456391Y-22970482D01*
G01X13402578Y-22894408D01*
G01X13349769Y-22817541D01*
G01X13297974Y-22739891D01*
G01X13247205Y-22661466D01*
G01X13197471Y-22582276D01*
G01X13148782Y-22502327D01*
G01X13101150Y-22421630D01*
G01X13054585Y-22340192D01*
G01X13009096Y-22258022D01*
G01X12964695Y-22175130D01*
G01X12921391Y-22091522D01*
G01X12879196Y-22007209D01*
G01X12838120Y-21922198D01*
G01X12798172Y-21836498D01*
G01X12759364Y-21750118D01*
G01X12721705Y-21663067D01*
G01X12685207Y-21575352D01*
G01X12649879Y-21486983D01*
G01X12615733Y-21397968D01*
G01X12582777Y-21308316D01*
G01X12551024Y-21218035D01*
G01X12520482Y-21127134D01*
G01X12491163Y-21035621D01*
G01X12463078Y-20943506D01*
G01X12436235Y-20850796D01*
G01X12410647Y-20757500D01*
G01X12386322Y-20663627D01*
G01X12363272Y-20569186D01*
G01X12341508Y-20474185D01*
G01X12321038Y-20378632D01*
G01X12301875Y-20282537D01*
G01X12301875Y-20282537D01*
G01X12301875Y-20282537D01*
G01X12281557Y-20171601D01*
G01X12263109Y-20060756D01*
G01X12246517Y-19950021D01*
G01X12231773Y-19839410D01*
G01X12218863Y-19728940D01*
G01X12207777Y-19618628D01*
G01X12198505Y-19508491D01*
G01X12191034Y-19398544D01*
G01X12185353Y-19288804D01*
G01X12181452Y-19179288D01*
G01X12179320Y-19070012D01*
G01X12178944Y-18960992D01*
G01X12180315Y-18852245D01*
G01X12183420Y-18743787D01*
G01X12188249Y-18635635D01*
G01X12194791Y-18527805D01*
G01X12203034Y-18420313D01*
G01X12212967Y-18313177D01*
G01X12224579Y-18206411D01*
G01X12237859Y-18100034D01*
G01X12252796Y-17994061D01*
G01X12269379Y-17888509D01*
G01X12287596Y-17783393D01*
G01X12307437Y-17678732D01*
G01X12328890Y-17574540D01*
G01X12351943Y-17470835D01*
G01X12376587Y-17367632D01*
G01X12402809Y-17264949D01*
G01X12430599Y-17162802D01*
G01X12459946Y-17061207D01*
G01X12490838Y-16960180D01*
G01X12523264Y-16859738D01*
G01X12557213Y-16759898D01*
G01X12592674Y-16660676D01*
G01X12629635Y-16562088D01*
G01X12668086Y-16464150D01*
G01X12708016Y-16366880D01*
G01X12749413Y-16270294D01*
G01X12792265Y-16174407D01*
G01X12836563Y-16079237D01*
G01X12882295Y-15984800D01*
G01X12929449Y-15891112D01*
G01X12978015Y-15798190D01*
G01X13027981Y-15706051D01*
G01X13079337Y-15614710D01*
G01X13132070Y-15524183D01*
G01X13186171Y-15434489D01*
G01X13241627Y-15345642D01*
G01X13298428Y-15257660D01*
G01X13356562Y-15170558D01*
G01X13416019Y-15084354D01*
G01X13476786Y-14999063D01*
G01X13538854Y-14914703D01*
G01X13602211Y-14831289D01*
G01X13666845Y-14748837D01*
G01X13732746Y-14667366D01*
G01X13799903Y-14586890D01*
G01X13868303Y-14507426D01*
G01X13937937Y-14428991D01*
G01X14008793Y-14351601D01*
G01X14080860Y-14275273D01*
G01X14154126Y-14200022D01*
G01X14228581Y-14125866D01*
G01X14304213Y-14052821D01*
G01X14381011Y-13980903D01*
G01X14458965Y-13910129D01*
G01X14538062Y-13840515D01*
G01X14618293Y-13772077D01*
G01X14699644Y-13704833D01*
G01X14782107Y-13638798D01*
G01X14865669Y-13573988D01*
G01X14950318Y-13510421D01*
G01X15036045Y-13448113D01*
G01X15122838Y-13387080D01*
G01X15210686Y-13327338D01*
G01X15299577Y-13268905D01*
G01X15389501Y-13211796D01*
G01X15480445Y-13156028D01*
G01X15572400Y-13101617D01*
G01X15665354Y-13048580D01*
G01X15759296Y-12996933D01*
G01X15854215Y-12946692D01*
G01X15950099Y-12897875D01*
G01X16046938Y-12850497D01*
G01X16144719Y-12804575D01*
G01X16243433Y-12760125D01*
G01X16343068Y-12717165D01*
G01X16443613Y-12675709D01*
G01X16545056Y-12635775D01*
G01X16647387Y-12597379D01*
G01X16750594Y-12560537D01*
G01X16854666Y-12525267D01*
G01X16959593Y-12491583D01*
G01X17065362Y-12459504D01*
G01X17171963Y-12429045D01*
G01X17279385Y-12400222D01*
G01X17387616Y-12373053D01*
G01X17496645Y-12347553D01*
G01X17606462Y-12323739D01*
G01X17717054Y-12301627D01*
G01X17717054Y-12301627D01*
G01X17717054Y-12301627D01*
G01X17767847Y-12292233D01*
G01X17818701Y-12283225D01*
G01X17869614Y-12274606D01*
G01X17920584Y-12266373D01*
G01X17971609Y-12258529D01*
G01X18022686Y-12251072D01*
G01X18073813Y-12244003D01*
G01X18124989Y-12237322D01*
G01X18176210Y-12231030D01*
G01X18227475Y-12225126D01*
G01X18278781Y-12219611D01*
G01X18330127Y-12214484D01*
G01X18381509Y-12209747D01*
G01X18432926Y-12205398D01*
G01X18484376Y-12201439D01*
G01X18535856Y-12197869D01*
G01X18587364Y-12194689D01*
G01X18638898Y-12191898D01*
G01X18690456Y-12189497D01*
G01X18742035Y-12187486D01*
G01X18793633Y-12185865D01*
G01X18845248Y-12184635D01*
G01X18896879Y-12183795D01*
G01X18948521Y-12183346D01*
G01X19000174Y-12183287D01*
G01X19000174Y-12183287D01*
G37*
G36*
G01X18999970Y-27516193D02*
G01X18999970Y-27516193D01*
G01X19064521Y-27516073D01*
G01X19129059Y-27515473D01*
G01X19193581Y-27514392D01*
G01X19258085Y-27512830D01*
G01X19322568Y-27510787D01*
G01X19387026Y-27508262D01*
G01X19451458Y-27505256D01*
G01X19515860Y-27501767D01*
G01X19580230Y-27497796D01*
G01X19644564Y-27493342D01*
G01X19708861Y-27488406D01*
G01X19773117Y-27482986D01*
G01X19837330Y-27477082D01*
G01X19901497Y-27470694D01*
G01X19965614Y-27463822D01*
G01X20029680Y-27456466D01*
G01X20093692Y-27448625D01*
G01X20157646Y-27440298D01*
G01X20221540Y-27431486D01*
G01X20285372Y-27422189D01*
G01X20349138Y-27412405D01*
G01X20412835Y-27402135D01*
G01X20476462Y-27391378D01*
G01X20540014Y-27380134D01*
G01X20603490Y-27368403D01*
G01X20603490Y-27368403D01*
G01X20603490Y-27368403D01*
G01X20741657Y-27340765D01*
G01X20878854Y-27311001D01*
G01X21015068Y-27279131D01*
G01X21150283Y-27245175D01*
G01X21284488Y-27209153D01*
G01X21417667Y-27171087D01*
G01X21549807Y-27130998D01*
G01X21680894Y-27088904D01*
G01X21810913Y-27044828D01*
G01X21939852Y-26998789D01*
G01X22067695Y-26950808D01*
G01X22194430Y-26900906D01*
G01X22320042Y-26849103D01*
G01X22444517Y-26795419D01*
G01X22567841Y-26739876D01*
G01X22690001Y-26682493D01*
G01X22810982Y-26623292D01*
G01X22930771Y-26562292D01*
G01X23049353Y-26499514D01*
G01X23166715Y-26434980D01*
G01X23282843Y-26368709D01*
G01X23397722Y-26300721D01*
G01X23511340Y-26231038D01*
G01X23623681Y-26159680D01*
G01X23734733Y-26086668D01*
G01X23844480Y-26012021D01*
G01X23952910Y-25935761D01*
G01X24060008Y-25857908D01*
G01X24165761Y-25778482D01*
G01X24270153Y-25697505D01*
G01X24373173Y-25614996D01*
G01X24474804Y-25530976D01*
G01X24575035Y-25445466D01*
G01X24673850Y-25358486D01*
G01X24771236Y-25270057D01*
G01X24867179Y-25180200D01*
G01X24961664Y-25088934D01*
G01X25054679Y-24996280D01*
G01X25146209Y-24902259D01*
G01X25236240Y-24806892D01*
G01X25324758Y-24710198D01*
G01X25411749Y-24612199D01*
G01X25497200Y-24512915D01*
G01X25581096Y-24412366D01*
G01X25663424Y-24310574D01*
G01X25744169Y-24207558D01*
G01X25823318Y-24103339D01*
G01X25900856Y-23997937D01*
G01X25976771Y-23891374D01*
G01X26051047Y-23783669D01*
G01X26123671Y-23674844D01*
G01X26194629Y-23564918D01*
G01X26263907Y-23453913D01*
G01X26331492Y-23341848D01*
G01X26397368Y-23228745D01*
G01X26461523Y-23114623D01*
G01X26523943Y-22999504D01*
G01X26584613Y-22883408D01*
G01X26643519Y-22766355D01*
G01X26700648Y-22648366D01*
G01X26755985Y-22529462D01*
G01X26809518Y-22409662D01*
G01X26861231Y-22288988D01*
G01X26911111Y-22167460D01*
G01X26959144Y-22045099D01*
G01X27005316Y-21921925D01*
G01X27049613Y-21797959D01*
G01X27092021Y-21673220D01*
G01X27132527Y-21547731D01*
G01X27171116Y-21421510D01*
G01X27207774Y-21294580D01*
G01X27242488Y-21166959D01*
G01X27275243Y-21038670D01*
G01X27306026Y-20909732D01*
G01X27334823Y-20780165D01*
G01X27361619Y-20649991D01*
G01X27386401Y-20519231D01*
G01X27409155Y-20387903D01*
G01X27429867Y-20256030D01*
G01X27448523Y-20123631D01*
G01X27465110Y-19990727D01*
G01X27479612Y-19857338D01*
G01X27492017Y-19723486D01*
G01X27502310Y-19589190D01*
G01X27510478Y-19454472D01*
G01X27516506Y-19319351D01*
G01X27520380Y-19183848D01*
G01X27522087Y-19047985D01*
G01X27521613Y-18911780D01*
G01X27518944Y-18775255D01*
G01X27514066Y-18638431D01*
G01X27506964Y-18501327D01*
G01X27497626Y-18363965D01*
G01X27486036Y-18226365D01*
G01X27472182Y-18088547D01*
G01X27456049Y-17950532D01*
G01X27437623Y-17812341D01*
G01X27416891Y-17673993D01*
G01X27393838Y-17535511D01*
G01X27368451Y-17396913D01*
G01X27368451Y-17396913D01*
G01X27368451Y-17396913D01*
G01X27344511Y-17276853D01*
G01X27318939Y-17157472D01*
G01X27291750Y-17038779D01*
G01X27262955Y-16920786D01*
G01X27232567Y-16803503D01*
G01X27200600Y-16686941D01*
G01X27167067Y-16571111D01*
G01X27131980Y-16456023D01*
G01X27095353Y-16341688D01*
G01X27057198Y-16228118D01*
G01X27017529Y-16115322D01*
G01X26976358Y-16003311D01*
G01X26933699Y-15892097D01*
G01X26889565Y-15781689D01*
G01X26843967Y-15672099D01*
G01X26796921Y-15563338D01*
G01X26748438Y-15455415D01*
G01X26698531Y-15348343D01*
G01X26647214Y-15242131D01*
G01X26594499Y-15136790D01*
G01X26540400Y-15032331D01*
G01X26484929Y-14928765D01*
G01X26428100Y-14826103D01*
G01X26369925Y-14724354D01*
G01X26310417Y-14623531D01*
G01X26249590Y-14523643D01*
G01X26187457Y-14424702D01*
G01X26124029Y-14326718D01*
G01X26059322Y-14229702D01*
G01X25993346Y-14133664D01*
G01X25926116Y-14038616D01*
G01X25857645Y-13944568D01*
G01X25787944Y-13851530D01*
G01X25717028Y-13759515D01*
G01X25644910Y-13668531D01*
G01X25571602Y-13578591D01*
G01X25497117Y-13489704D01*
G01X25421468Y-13401882D01*
G01X25344669Y-13315135D01*
G01X25266732Y-13229474D01*
G01X25187671Y-13144910D01*
G01X25107498Y-13061454D01*
G01X25026226Y-12979115D01*
G01X24943868Y-12897905D01*
G01X24860438Y-12817835D01*
G01X24775948Y-12738916D01*
G01X24690411Y-12661157D01*
G01X24603841Y-12584570D01*
G01X24516249Y-12509166D01*
G01X24427650Y-12434955D01*
G01X24338057Y-12361949D01*
G01X24247481Y-12290157D01*
G01X24155937Y-12219590D01*
G01X24063437Y-12150260D01*
G01X23969994Y-12082177D01*
G01X23875622Y-12015352D01*
G01X23780332Y-11949795D01*
G01X23684139Y-11885517D01*
G01X23587055Y-11822529D01*
G01X23489093Y-11760842D01*
G01X23390267Y-11700466D01*
G01X23290588Y-11641412D01*
G01X23190071Y-11583691D01*
G01X23088728Y-11527314D01*
G01X22986572Y-11472291D01*
G01X22883616Y-11418633D01*
G01X22779873Y-11366351D01*
G01X22675357Y-11315456D01*
G01X22570079Y-11265957D01*
G01X22464054Y-11217867D01*
G01X22357294Y-11171195D01*
G01X22249812Y-11125953D01*
G01X22141620Y-11082152D01*
G01X22032734Y-11039801D01*
G01X21923164Y-10998911D01*
G01X21812924Y-10959495D01*
G01X21702027Y-10921561D01*
G01X21590486Y-10885121D01*
G01X21478315Y-10850186D01*
G01X21365525Y-10816766D01*
G01X21252130Y-10784872D01*
G01X21138144Y-10754515D01*
G01X21023578Y-10725706D01*
G01X20908447Y-10698455D01*
G01X20792762Y-10672773D01*
G01X20676538Y-10648670D01*
G01X20559786Y-10626159D01*
G01X20442521Y-10605248D01*
G01X20324754Y-10585949D01*
G01X20206500Y-10568273D01*
G01X20087770Y-10552231D01*
G01X19968578Y-10537832D01*
G01X19848938Y-10525089D01*
G01X19728861Y-10514011D01*
G01X19608361Y-10504609D01*
G01X19487451Y-10496895D01*
G01X19366144Y-10490878D01*
G01X19244453Y-10486570D01*
G01X19122391Y-10483982D01*
G01X18999970Y-10483123D01*
G01X18999970Y-10483123D01*
G01X18999970Y-12183283D01*
G01X18999970Y-12183283D01*
G01X19097956Y-12183965D01*
G01X19195654Y-12186032D01*
G01X19293056Y-12189475D01*
G01X19390150Y-12194285D01*
G01X19486926Y-12200455D01*
G01X19583375Y-12207975D01*
G01X19679484Y-12216837D01*
G01X19775245Y-12227032D01*
G01X19870646Y-12238551D01*
G01X19965678Y-12251387D01*
G01X20060329Y-12265530D01*
G01X20154590Y-12280972D01*
G01X20248450Y-12297704D01*
G01X20341899Y-12315718D01*
G01X20434926Y-12335005D01*
G01X20527520Y-12355556D01*
G01X20619672Y-12377363D01*
G01X20711371Y-12400418D01*
G01X20802607Y-12424711D01*
G01X20893369Y-12450235D01*
G01X20983647Y-12476980D01*
G01X21073430Y-12504937D01*
G01X21162708Y-12534100D01*
G01X21251471Y-12564457D01*
G01X21339708Y-12596003D01*
G01X21427409Y-12628726D01*
G01X21514564Y-12662620D01*
G01X21601161Y-12697675D01*
G01X21687191Y-12733883D01*
G01X21772643Y-12771235D01*
G01X21857507Y-12809722D01*
G01X21941773Y-12849337D01*
G01X22025430Y-12890070D01*
G01X22108467Y-12931913D01*
G01X22190874Y-12974857D01*
G01X22272641Y-13018893D01*
G01X22353758Y-13064014D01*
G01X22434214Y-13110210D01*
G01X22513998Y-13157474D01*
G01X22593101Y-13205795D01*
G01X22671511Y-13255166D01*
G01X22749219Y-13305578D01*
G01X22826214Y-13357023D01*
G01X22902485Y-13409492D01*
G01X22978023Y-13462976D01*
G01X23052816Y-13517466D01*
G01X23126855Y-13572955D01*
G01X23200129Y-13629433D01*
G01X23272628Y-13686893D01*
G01X23344341Y-13745324D01*
G01X23415257Y-13804720D01*
G01X23485367Y-13865070D01*
G01X23554660Y-13926367D01*
G01X23623126Y-13988603D01*
G01X23690754Y-14051767D01*
G01X23757534Y-14115853D01*
G01X23823455Y-14180850D01*
G01X23888507Y-14246752D01*
G01X23952680Y-14313548D01*
G01X24015963Y-14381231D01*
G01X24078346Y-14449791D01*
G01X24139818Y-14519221D01*
G01X24200369Y-14589512D01*
G01X24259989Y-14660654D01*
G01X24318667Y-14732640D01*
G01X24376393Y-14805461D01*
G01X24433157Y-14879109D01*
G01X24488947Y-14953574D01*
G01X24543754Y-15028848D01*
G01X24597567Y-15104922D01*
G01X24650376Y-15181789D01*
G01X24702171Y-15259439D01*
G01X24752940Y-15337864D01*
G01X24802674Y-15417054D01*
G01X24851363Y-15497003D01*
G01X24898995Y-15577700D01*
G01X24945560Y-15659138D01*
G01X24991049Y-15741308D01*
G01X25035450Y-15824200D01*
G01X25078754Y-15907808D01*
G01X25120949Y-15992121D01*
G01X25162025Y-16077132D01*
G01X25201973Y-16162832D01*
G01X25240781Y-16249212D01*
G01X25278440Y-16336263D01*
G01X25314938Y-16423978D01*
G01X25350266Y-16512347D01*
G01X25384412Y-16601362D01*
G01X25417368Y-16691014D01*
G01X25449121Y-16781295D01*
G01X25479663Y-16872196D01*
G01X25508982Y-16963709D01*
G01X25537067Y-17055824D01*
G01X25563910Y-17148534D01*
G01X25589498Y-17241830D01*
G01X25613823Y-17335703D01*
G01X25636873Y-17430144D01*
G01X25658637Y-17525145D01*
G01X25679107Y-17620698D01*
G01X25698270Y-17716793D01*
G01X25698270Y-17716793D01*
G01X25698270Y-17716793D01*
G01X25718588Y-17827729D01*
G01X25737036Y-17938574D01*
G01X25753628Y-18049309D01*
G01X25768372Y-18159920D01*
G01X25781282Y-18270390D01*
G01X25792368Y-18380702D01*
G01X25801640Y-18490839D01*
G01X25809111Y-18600786D01*
G01X25814792Y-18710526D01*
G01X25818693Y-18820042D01*
G01X25820825Y-18929318D01*
G01X25821201Y-19038338D01*
G01X25819830Y-19147085D01*
G01X25816725Y-19255543D01*
G01X25811896Y-19363695D01*
G01X25805354Y-19471525D01*
G01X25797111Y-19579017D01*
G01X25787178Y-19686153D01*
G01X25775566Y-19792919D01*
G01X25762286Y-19899296D01*
G01X25747349Y-20005269D01*
G01X25730766Y-20110821D01*
G01X25712549Y-20215937D01*
G01X25692708Y-20320598D01*
G01X25671256Y-20424790D01*
G01X25648202Y-20528495D01*
G01X25623558Y-20631698D01*
G01X25597336Y-20734381D01*
G01X25569546Y-20836528D01*
G01X25540199Y-20938123D01*
G01X25509307Y-21039150D01*
G01X25476881Y-21139592D01*
G01X25442932Y-21239432D01*
G01X25407471Y-21338654D01*
G01X25370510Y-21437242D01*
G01X25332059Y-21535180D01*
G01X25292129Y-21632450D01*
G01X25250732Y-21729036D01*
G01X25207880Y-21824923D01*
G01X25163582Y-21920093D01*
G01X25117850Y-22014530D01*
G01X25070696Y-22108218D01*
G01X25022130Y-22201140D01*
G01X24972164Y-22293279D01*
G01X24920808Y-22384620D01*
G01X24868075Y-22475147D01*
G01X24813974Y-22564841D01*
G01X24758518Y-22653688D01*
G01X24701717Y-22741670D01*
G01X24643583Y-22828772D01*
G01X24584126Y-22914976D01*
G01X24523359Y-23000267D01*
G01X24461291Y-23084627D01*
G01X24397934Y-23168041D01*
G01X24333300Y-23250493D01*
G01X24267399Y-23331964D01*
G01X24200242Y-23412440D01*
G01X24131842Y-23491904D01*
G01X24062208Y-23570339D01*
G01X23991352Y-23647729D01*
G01X23919285Y-23724057D01*
G01X23846019Y-23799308D01*
G01X23771564Y-23873464D01*
G01X23695932Y-23946509D01*
G01X23619134Y-24018427D01*
G01X23541180Y-24089201D01*
G01X23462083Y-24158815D01*
G01X23381852Y-24227253D01*
G01X23300501Y-24294497D01*
G01X23218038Y-24360532D01*
G01X23134476Y-24425342D01*
G01X23049827Y-24488909D01*
G01X22964100Y-24551217D01*
G01X22877307Y-24612250D01*
G01X22789459Y-24671992D01*
G01X22700568Y-24730425D01*
G01X22610644Y-24787534D01*
G01X22519700Y-24843302D01*
G01X22427745Y-24897713D01*
G01X22334791Y-24950750D01*
G01X22240849Y-25002397D01*
G01X22145930Y-25052638D01*
G01X22050046Y-25101455D01*
G01X21953207Y-25148833D01*
G01X21855426Y-25194755D01*
G01X21756712Y-25239205D01*
G01X21657077Y-25282165D01*
G01X21556532Y-25323621D01*
G01X21455089Y-25363555D01*
G01X21352758Y-25401951D01*
G01X21249551Y-25438793D01*
G01X21145479Y-25474063D01*
G01X21040552Y-25507747D01*
G01X20934783Y-25539826D01*
G01X20828182Y-25570285D01*
G01X20720760Y-25599108D01*
G01X20612529Y-25626277D01*
G01X20503500Y-25651777D01*
G01X20393683Y-25675591D01*
G01X20283091Y-25697703D01*
G01X20283091Y-25697703D01*
G01X20283091Y-25697703D01*
G01X20232298Y-25707097D01*
G01X20181444Y-25716105D01*
G01X20130531Y-25724724D01*
G01X20079561Y-25732957D01*
G01X20028536Y-25740801D01*
G01X19977459Y-25748258D01*
G01X19926332Y-25755327D01*
G01X19875156Y-25762008D01*
G01X19823935Y-25768300D01*
G01X19772670Y-25774204D01*
G01X19721364Y-25779719D01*
G01X19670018Y-25784846D01*
G01X19618636Y-25789583D01*
G01X19567219Y-25793932D01*
G01X19515769Y-25797891D01*
G01X19464289Y-25801461D01*
G01X19412781Y-25804641D01*
G01X19361247Y-25807432D01*
G01X19309689Y-25809833D01*
G01X19258110Y-25811844D01*
G01X19206512Y-25813465D01*
G01X19154897Y-25814695D01*
G01X19103266Y-25815535D01*
G01X19051624Y-25815984D01*
G01X18999970Y-25816043D01*
G01X18999970Y-25816043D01*
G37*
G36*
G01X22447401Y-24288936D02*
G01X22447401Y-24288936D01*
G01X22411618Y-24331173D01*
G01X22372129Y-24368323D01*
G01X22329412Y-24400321D01*
G01X22283945Y-24427099D01*
G01X22236206Y-24448591D01*
G01X22186673Y-24464729D01*
G01X22135825Y-24475446D01*
G01X22084139Y-24480676D01*
G01X22032095Y-24480352D01*
G01X21980169Y-24474407D01*
G01X21928840Y-24462773D01*
G01X21878586Y-24445385D01*
G01X21829885Y-24422174D01*
G01X21783216Y-24393075D01*
G01X21770322Y-24383670D01*
G01X21770322Y-24383670D01*
G01X21728086Y-24347888D01*
G01X21690935Y-24308399D01*
G01X21658937Y-24265682D01*
G01X21632159Y-24220215D01*
G01X21610667Y-24172476D01*
G01X21594530Y-24122943D01*
G01X21583812Y-24072095D01*
G01X21578582Y-24020409D01*
G01X21578906Y-23968365D01*
G01X21584852Y-23916439D01*
G01X21596485Y-23865110D01*
G01X21613873Y-23814856D01*
G01X21637084Y-23766155D01*
G01X21666183Y-23719486D01*
G01X21675588Y-23706592D01*
G01X21675588Y-23706592D01*
G01X21698930Y-23676780D01*
G01X21721129Y-23650920D01*
G01X21742804Y-23628467D01*
G01X21764578Y-23608877D01*
G01X21787071Y-23591605D01*
G01X21810904Y-23576105D01*
G01X21836698Y-23561834D01*
G01X21865074Y-23548246D01*
G01X21896654Y-23534798D01*
G01X21932058Y-23520944D01*
G01X21971907Y-23506139D01*
G01X22016822Y-23489839D01*
G01X22067425Y-23471499D01*
G01X22124336Y-23450574D01*
G01X22188176Y-23426520D01*
G01X22259567Y-23398792D01*
G01X22339129Y-23366845D01*
G01X22427483Y-23330134D01*
G01X22525251Y-23288115D01*
G01X22633054Y-23240244D01*
G01X22633054Y-23240244D01*
G01X22633054Y-23240244D01*
G01X22616718Y-23360924D01*
G01X22603234Y-23469553D01*
G01X22592250Y-23566943D01*
G01X22583414Y-23653905D01*
G01X22576375Y-23731250D01*
G01X22570782Y-23799788D01*
G01X22566283Y-23860332D01*
G01X22562526Y-23913692D01*
G01X22559160Y-23960679D01*
G01X22555834Y-24002105D01*
G01X22552195Y-24038781D01*
G01X22547893Y-24071517D01*
G01X22542576Y-24101126D01*
G01X22535891Y-24128417D01*
G01X22527489Y-24154203D01*
G01X22517017Y-24179294D01*
G01X22504124Y-24204502D01*
G01X22488457Y-24230638D01*
G01X22469667Y-24258512D01*
G01X22447400Y-24288936D01*
G01X22447400Y-24288936D01*
G37*
G36*
G01X24049969Y-19298689D02*
G01X24049969Y-19298689D01*
G01X24033198Y-19245934D01*
G01X24022704Y-19192742D01*
G01X24018291Y-19139552D01*
G01X24019761Y-19086806D01*
G01X24026917Y-19034944D01*
G01X24039561Y-18984407D01*
G01X24057496Y-18935634D01*
G01X24080526Y-18889068D01*
G01X24108451Y-18845148D01*
G01X24141076Y-18804316D01*
G01X24178202Y-18767011D01*
G01X24219632Y-18733675D01*
G01X24265170Y-18704748D01*
G01X24314617Y-18680670D01*
G01X24329435Y-18674743D01*
G01X24329435Y-18674743D01*
G01X24382190Y-18657972D01*
G01X24435382Y-18647478D01*
G01X24488572Y-18643065D01*
G01X24541318Y-18644535D01*
G01X24593180Y-18651690D01*
G01X24643718Y-18664335D01*
G01X24692490Y-18682270D01*
G01X24739056Y-18705299D01*
G01X24782976Y-18733225D01*
G01X24823808Y-18765849D01*
G01X24861113Y-18802975D01*
G01X24894449Y-18844406D01*
G01X24923377Y-18889944D01*
G01X24947454Y-18939391D01*
G01X24953381Y-18954209D01*
G01X24953381Y-18954209D01*
G01X24966236Y-18989823D01*
G01X24976351Y-19022369D01*
G01X24983856Y-19052661D01*
G01X24988885Y-19081516D01*
G01X24991568Y-19109748D01*
G01X24992037Y-19138174D01*
G01X24990423Y-19167609D01*
G01X24986858Y-19198868D01*
G01X24981474Y-19232767D01*
G01X24974401Y-19270121D01*
G01X24965773Y-19311746D01*
G01X24955719Y-19358458D01*
G01X24944372Y-19411072D01*
G01X24931863Y-19470404D01*
G01X24918324Y-19537268D01*
G01X24903886Y-19612482D01*
G01X24888680Y-19696859D01*
G01X24872839Y-19791216D01*
G01X24856494Y-19896368D01*
G01X24839776Y-20013131D01*
G01X24839776Y-20013131D01*
G01X24839776Y-20013131D01*
G01X24746216Y-19935176D01*
G01X24661351Y-19866038D01*
G01X24584678Y-19804990D01*
G01X24515699Y-19751303D01*
G01X24453913Y-19704248D01*
G01X24398820Y-19663095D01*
G01X24349918Y-19627118D01*
G01X24306708Y-19595585D01*
G01X24268689Y-19567770D01*
G01X24235360Y-19542943D01*
G01X24206222Y-19520375D01*
G01X24180774Y-19499337D01*
G01X24158515Y-19479102D01*
G01X24138945Y-19458939D01*
G01X24121564Y-19438121D01*
G01X24105870Y-19415919D01*
G01X24091365Y-19391603D01*
G01X24077546Y-19364445D01*
G01X24063915Y-19333717D01*
G01X24049969Y-19298689D01*
G01X24049969Y-19298689D01*
G37*
G36*
G01X22487524Y-19965769D02*
G01X22487524Y-19965769D01*
G01X22447195Y-19927850D01*
G01X22412137Y-19886492D01*
G01X22382391Y-19842177D01*
G01X22358001Y-19795386D01*
G01X22339007Y-19746599D01*
G01X22325453Y-19696298D01*
G01X22317380Y-19644963D01*
G01X22314831Y-19593077D01*
G01X22317846Y-19541118D01*
G01X22326470Y-19489569D01*
G01X22340742Y-19438911D01*
G01X22360707Y-19389623D01*
G01X22386405Y-19342189D01*
G01X22417879Y-19297087D01*
G01X22427938Y-19284697D01*
G01X22427938Y-19284697D01*
G01X22465858Y-19244368D01*
G01X22507215Y-19209309D01*
G01X22551530Y-19179564D01*
G01X22598322Y-19155173D01*
G01X22647108Y-19136180D01*
G01X22697409Y-19122626D01*
G01X22748744Y-19114553D01*
G01X22800631Y-19112003D01*
G01X22852589Y-19115019D01*
G01X22904138Y-19123642D01*
G01X22954797Y-19137915D01*
G01X23004084Y-19157879D01*
G01X23051519Y-19183578D01*
G01X23096620Y-19215052D01*
G01X23109010Y-19225111D01*
G01X23109010Y-19225111D01*
G01X23137575Y-19249964D01*
G01X23162252Y-19273471D01*
G01X23183554Y-19296279D01*
G01X23201992Y-19319036D01*
G01X23218078Y-19342393D01*
G01X23232324Y-19366995D01*
G01X23245242Y-19393493D01*
G01X23257343Y-19422534D01*
G01X23269140Y-19454767D01*
G01X23281145Y-19490840D01*
G01X23293869Y-19531402D01*
G01X23307824Y-19577100D01*
G01X23323522Y-19628584D01*
G01X23341475Y-19686501D01*
G01X23362194Y-19751500D01*
G01X23386193Y-19824229D01*
G01X23413982Y-19905337D01*
G01X23446073Y-19995472D01*
G01X23482978Y-20095283D01*
G01X23525210Y-20205417D01*
G01X23525210Y-20205417D01*
G01X23525210Y-20205417D01*
G01X23405537Y-20182861D01*
G01X23297750Y-20163776D01*
G01X23201058Y-20147769D01*
G01X23114670Y-20134447D01*
G01X23037793Y-20123417D01*
G01X22969636Y-20114286D01*
G01X22909406Y-20106662D01*
G01X22856311Y-20100150D01*
G01X22809561Y-20094358D01*
G01X22768363Y-20088893D01*
G01X22731924Y-20083363D01*
G01X22699454Y-20077373D01*
G01X22670160Y-20070531D01*
G01X22643251Y-20062444D01*
G01X22617934Y-20052719D01*
G01X22593418Y-20040963D01*
G01X22568911Y-20026783D01*
G01X22543621Y-20009786D01*
G01X22516756Y-19989579D01*
G01X22487524Y-19965769D01*
G01X22487524Y-19965769D01*
G37*
G36*
G01X15818331Y-23430925D02*
G01X15818331Y-23430925D01*
G01X15842101Y-23480919D01*
G01X15859709Y-23532197D01*
G01X15871293Y-23584297D01*
G01X15876987Y-23636756D01*
G01X15876929Y-23689109D01*
G01X15871253Y-23740894D01*
G01X15860096Y-23791648D01*
G01X15843592Y-23840906D01*
G01X15821879Y-23888207D01*
G01X15795092Y-23933085D01*
G01X15763366Y-23975079D01*
G01X15726837Y-24013725D01*
G01X15685642Y-24048559D01*
G01X15639916Y-24079118D01*
G01X15626038Y-24086999D01*
G01X15626038Y-24086999D01*
G01X15576044Y-24110768D01*
G01X15524766Y-24128376D01*
G01X15472666Y-24139960D01*
G01X15420207Y-24145655D01*
G01X15367854Y-24145596D01*
G01X15316069Y-24139920D01*
G01X15265315Y-24128763D01*
G01X15216057Y-24112260D01*
G01X15168756Y-24090546D01*
G01X15123878Y-24063759D01*
G01X15081884Y-24032033D01*
G01X15043239Y-23995505D01*
G01X15008405Y-23954310D01*
G01X14977845Y-23908583D01*
G01X14969964Y-23894705D01*
G01X14969964Y-23894705D01*
G01X14952400Y-23861163D01*
G01X14937966Y-23830289D01*
G01X14926423Y-23801294D01*
G01X14917528Y-23773388D01*
G01X14911043Y-23745780D01*
G01X14906724Y-23717680D01*
G01X14904333Y-23688298D01*
G01X14903627Y-23656844D01*
G01X14904365Y-23622528D01*
G01X14906308Y-23584560D01*
G01X14909214Y-23542149D01*
G01X14912842Y-23494505D01*
G01X14916951Y-23440839D01*
G01X14921300Y-23380359D01*
G01X14925649Y-23312276D01*
G01X14929757Y-23235800D01*
G01X14933382Y-23150140D01*
G01X14936284Y-23054507D01*
G01X14938223Y-22948110D01*
G01X14938956Y-22830158D01*
G01X14938956Y-22830158D01*
G01X14938956Y-22830158D01*
G01X15042221Y-22894709D01*
G01X15135676Y-22951703D01*
G01X15219917Y-23001792D01*
G01X15295538Y-23045632D01*
G01X15363133Y-23083876D01*
G01X15423298Y-23117179D01*
G01X15476625Y-23146195D01*
G01X15523712Y-23171578D01*
G01X15565151Y-23193982D01*
G01X15601537Y-23214061D01*
G01X15633466Y-23232470D01*
G01X15661532Y-23249863D01*
G01X15686328Y-23266894D01*
G01X15708451Y-23284217D01*
G01X15728495Y-23302486D01*
G01X15747053Y-23322356D01*
G01X15764722Y-23344481D01*
G01X15782094Y-23369515D01*
G01X15799766Y-23398111D01*
G01X15818331Y-23430925D01*
G01X15818331Y-23430925D01*
G37*
G36*
G01X14801675Y-19009216D02*
G01X14801675Y-19009216D01*
G01X14776748Y-18959790D01*
G01X14757949Y-18908936D01*
G01X14745154Y-18857120D01*
G01X14738238Y-18804808D01*
G01X14737076Y-18752468D01*
G01X14741543Y-18700564D01*
G01X14751514Y-18649565D01*
G01X14766865Y-18599935D01*
G01X14787469Y-18552141D01*
G01X14813203Y-18506650D01*
G01X14843942Y-18463929D01*
G01X14879559Y-18424442D01*
G01X14919931Y-18388657D01*
G01X14964933Y-18357041D01*
G01X14978623Y-18348838D01*
G01X14978623Y-18348838D01*
G01X15028049Y-18323910D01*
G01X15078903Y-18305111D01*
G01X15130719Y-18292316D01*
G01X15183031Y-18285400D01*
G01X15235371Y-18284238D01*
G01X15287275Y-18288705D01*
G01X15338275Y-18298677D01*
G01X15387904Y-18314027D01*
G01X15435698Y-18334632D01*
G01X15481189Y-18360366D01*
G01X15523911Y-18391104D01*
G01X15563397Y-18426722D01*
G01X15599182Y-18467094D01*
G01X15630799Y-18512095D01*
G01X15639001Y-18525786D01*
G01X15639001Y-18525786D01*
G01X15657343Y-18558910D01*
G01X15672492Y-18589439D01*
G01X15684708Y-18618157D01*
G01X15694251Y-18645848D01*
G01X15701378Y-18673298D01*
G01X15706351Y-18701289D01*
G01X15709427Y-18730607D01*
G01X15710866Y-18762036D01*
G01X15710927Y-18796360D01*
G01X15709870Y-18834363D01*
G01X15707954Y-18876830D01*
G01X15705437Y-18924545D01*
G01X15702580Y-18978293D01*
G01X15699642Y-19038858D01*
G01X15696881Y-19107024D01*
G01X15694557Y-19183575D01*
G01X15692929Y-19269296D01*
G01X15692257Y-19364971D01*
G01X15692800Y-19471384D01*
G01X15694816Y-19589321D01*
G01X15694816Y-19589321D01*
G01X15694816Y-19589321D01*
G01X15590075Y-19527194D01*
G01X15495316Y-19472395D01*
G01X15409930Y-19424283D01*
G01X15333308Y-19382218D01*
G01X15264840Y-19345560D01*
G01X15203916Y-19313668D01*
G01X15149926Y-19285904D01*
G01X15102261Y-19261625D01*
G01X15060311Y-19240193D01*
G01X15023466Y-19220967D01*
G01X14991117Y-19203308D01*
G01X14962653Y-19186574D01*
G01X14937466Y-19170125D01*
G01X14914946Y-19153323D01*
G01X14894482Y-19135525D01*
G01X14875465Y-19116094D01*
G01X14857286Y-19094387D01*
G01X14839334Y-19069765D01*
G01X14821001Y-19041588D01*
G01X14801675Y-19009216D01*
G01X14801675Y-19009216D01*
G37*
G36*
G01X12519746Y-20052425D02*
G01X12519746Y-20052425D01*
G01X12503779Y-19999421D01*
G01X12494096Y-19946075D01*
G01X12490493Y-19892825D01*
G01X12492766Y-19840107D01*
G01X12500711Y-19788360D01*
G01X12514123Y-19738021D01*
G01X12532799Y-19689527D01*
G01X12556534Y-19643317D01*
G01X12585125Y-19599827D01*
G01X12618368Y-19559496D01*
G01X12656058Y-19522761D01*
G01X12697991Y-19490059D01*
G01X12743964Y-19461829D01*
G01X12793772Y-19438507D01*
G01X12808679Y-19432806D01*
G01X12808679Y-19432806D01*
G01X12861682Y-19416840D01*
G01X12915028Y-19407157D01*
G01X12968279Y-19403554D01*
G01X13020997Y-19405827D01*
G01X13072744Y-19413772D01*
G01X13123083Y-19427184D01*
G01X13171576Y-19445860D01*
G01X13217787Y-19469595D01*
G01X13261276Y-19498186D01*
G01X13301607Y-19531429D01*
G01X13338342Y-19569119D01*
G01X13371044Y-19611052D01*
G01X13399275Y-19657025D01*
G01X13422597Y-19706832D01*
G01X13428297Y-19721739D01*
G01X13428297Y-19721739D01*
G01X13440608Y-19757545D01*
G01X13450226Y-19790241D01*
G01X13457270Y-19820644D01*
G01X13461859Y-19849572D01*
G01X13464111Y-19877842D01*
G01X13464147Y-19906271D01*
G01X13462086Y-19935678D01*
G01X13458045Y-19966879D01*
G01X13452146Y-20000692D01*
G01X13444505Y-20037935D01*
G01X13435244Y-20079424D01*
G01X13424480Y-20125977D01*
G01X13412333Y-20178412D01*
G01X13398922Y-20237547D01*
G01X13384367Y-20304197D01*
G01X13368785Y-20379182D01*
G01X13352297Y-20463318D01*
G01X13335021Y-20557423D01*
G01X13317077Y-20662314D01*
G01X13298583Y-20778809D01*
G01X13298583Y-20778809D01*
G01X13298583Y-20778809D01*
G01X13206221Y-20699438D01*
G01X13122418Y-20629017D01*
G01X13046684Y-20566809D01*
G01X12978530Y-20512077D01*
G01X12917468Y-20464087D01*
G01X12863007Y-20422100D01*
G01X12814659Y-20385382D01*
G01X12771934Y-20353196D01*
G01X12734343Y-20324805D01*
G01X12701396Y-20299473D01*
G01X12672605Y-20276464D01*
G01X12647480Y-20255042D01*
G01X12625532Y-20234470D01*
G01X12606271Y-20214012D01*
G01X12589209Y-20192931D01*
G01X12573855Y-20170492D01*
G01X12559721Y-20145959D01*
G01X12546318Y-20118594D01*
G01X12533156Y-20087661D01*
G01X12519746Y-20052425D01*
G01X12519746Y-20052425D01*
G37*
G36*
G01X9030907Y-17375613D02*
G01X9030907Y-17375613D01*
G01X9075254Y-17342481D01*
G01X9122071Y-17315137D01*
G01X9170878Y-17293539D01*
G01X9221194Y-17277644D01*
G01X9272537Y-17267411D01*
G01X9324428Y-17262797D01*
G01X9376385Y-17263761D01*
G01X9427926Y-17270260D01*
G01X9478571Y-17282253D01*
G01X9527840Y-17299696D01*
G01X9575250Y-17322549D01*
G01X9620322Y-17350769D01*
G01X9662573Y-17384313D01*
G01X9701524Y-17423141D01*
G01X9711980Y-17435199D01*
G01X9711980Y-17435199D01*
G01X9745111Y-17479546D01*
G01X9772456Y-17526363D01*
G01X9794054Y-17575170D01*
G01X9809949Y-17625485D01*
G01X9820182Y-17676829D01*
G01X9824795Y-17728720D01*
G01X9823832Y-17780676D01*
G01X9817332Y-17832218D01*
G01X9805340Y-17882863D01*
G01X9787896Y-17932131D01*
G01X9765044Y-17979542D01*
G01X9736824Y-18024613D01*
G01X9703279Y-18066865D01*
G01X9664451Y-18105816D01*
G01X9652393Y-18116271D01*
G01X9652393Y-18116271D01*
G01X9622958Y-18140086D01*
G01X9595523Y-18160307D01*
G01X9569363Y-18177324D01*
G01X9543749Y-18191530D01*
G01X9517954Y-18203316D01*
G01X9491251Y-18213073D01*
G01X9462913Y-18221193D01*
G01X9432212Y-18228068D01*
G01X9398420Y-18234089D01*
G01X9360810Y-18239647D01*
G01X9318656Y-18245134D01*
G01X9271228Y-18250942D01*
G01X9217801Y-18257461D01*
G01X9157646Y-18265084D01*
G01X9090037Y-18274202D01*
G01X9014245Y-18285207D01*
G01X8929544Y-18298489D01*
G01X8835205Y-18314441D01*
G01X8730503Y-18333454D01*
G01X8614708Y-18355919D01*
G01X8614708Y-18355919D01*
G01X8614708Y-18355919D01*
G01X8657702Y-18241981D01*
G01X8695215Y-18139146D01*
G01X8727769Y-18046703D01*
G01X8755889Y-17963940D01*
G01X8780101Y-17890146D01*
G01X8800929Y-17824610D01*
G01X8818896Y-17766619D01*
G01X8834529Y-17715462D01*
G01X8848351Y-17670428D01*
G01X8860887Y-17630804D01*
G01X8872661Y-17595880D01*
G01X8884198Y-17564943D01*
G01X8896023Y-17537282D01*
G01X8908659Y-17512186D01*
G01X8922633Y-17488943D01*
G01X8938467Y-17466841D01*
G01X8956687Y-17445168D01*
G01X8977818Y-17423214D01*
G01X9002383Y-17400266D01*
G01X9030907Y-17375613D01*
G01X9030907Y-17375613D01*
G37*
G36*
G01X9300678Y-15876431D02*
G01X9300678Y-15876431D01*
G01X9350104Y-15851503D01*
G01X9400958Y-15832704D01*
G01X9452774Y-15819909D01*
G01X9505086Y-15812993D01*
G01X9557426Y-15811831D01*
G01X9609330Y-15816298D01*
G01X9660330Y-15826269D01*
G01X9709959Y-15841620D01*
G01X9757753Y-15862224D01*
G01X9803244Y-15887958D01*
G01X9845966Y-15918697D01*
G01X9885452Y-15954314D01*
G01X9921237Y-15994686D01*
G01X9952854Y-16039688D01*
G01X9961056Y-16053378D01*
G01X9961056Y-16053378D01*
G01X9985984Y-16102804D01*
G01X10004783Y-16153658D01*
G01X10017578Y-16205474D01*
G01X10024494Y-16257786D01*
G01X10025656Y-16310127D01*
G01X10021189Y-16362030D01*
G01X10011218Y-16413030D01*
G01X9995867Y-16462660D01*
G01X9975262Y-16510453D01*
G01X9949528Y-16555944D01*
G01X9918790Y-16598666D01*
G01X9883172Y-16638152D01*
G01X9842800Y-16673937D01*
G01X9797799Y-16705554D01*
G01X9784108Y-16713756D01*
G01X9784108Y-16713756D01*
G01X9750984Y-16732098D01*
G01X9720455Y-16747247D01*
G01X9691737Y-16759464D01*
G01X9664046Y-16769006D01*
G01X9636597Y-16776133D01*
G01X9608605Y-16781106D01*
G01X9579287Y-16784182D01*
G01X9547858Y-16785621D01*
G01X9513535Y-16785682D01*
G01X9475531Y-16784625D01*
G01X9433064Y-16782709D01*
G01X9385349Y-16780192D01*
G01X9331601Y-16777335D01*
G01X9271036Y-16774397D01*
G01X9202871Y-16771636D01*
G01X9126320Y-16769312D01*
G01X9040599Y-16767684D01*
G01X8944923Y-16767012D01*
G01X8838510Y-16767555D01*
G01X8720573Y-16769572D01*
G01X8720573Y-16769572D01*
G01X8720573Y-16769572D01*
G01X8782700Y-16664830D01*
G01X8837499Y-16570071D01*
G01X8885611Y-16484685D01*
G01X8927676Y-16408063D01*
G01X8964334Y-16339595D01*
G01X8996226Y-16278671D01*
G01X9023991Y-16224681D01*
G01X9048269Y-16177016D01*
G01X9069701Y-16135066D01*
G01X9088927Y-16098221D01*
G01X9106587Y-16065872D01*
G01X9123321Y-16037408D01*
G01X9139769Y-16012221D01*
G01X9156572Y-15989701D01*
G01X9174369Y-15969237D01*
G01X9193801Y-15950220D01*
G01X9215507Y-15932041D01*
G01X9240129Y-15914089D01*
G01X9268306Y-15895756D01*
G01X9300678Y-15876431D01*
G01X9300678Y-15876431D01*
G37*
G36*
G01X9990378Y-14239597D02*
G01X9990378Y-14239597D01*
G01X10043381Y-14223631D01*
G01X10096727Y-14213948D01*
G01X10149978Y-14210345D01*
G01X10202696Y-14212618D01*
G01X10254443Y-14220563D01*
G01X10304782Y-14233975D01*
G01X10353276Y-14252651D01*
G01X10399486Y-14276386D01*
G01X10442975Y-14304977D01*
G01X10483306Y-14338220D01*
G01X10520041Y-14375910D01*
G01X10552743Y-14417843D01*
G01X10580974Y-14463816D01*
G01X10604296Y-14513624D01*
G01X10609996Y-14528530D01*
G01X10609996Y-14528530D01*
G01X10625963Y-14581534D01*
G01X10635645Y-14634880D01*
G01X10639248Y-14688131D01*
G01X10636975Y-14740848D01*
G01X10629031Y-14792596D01*
G01X10615619Y-14842935D01*
G01X10596943Y-14891428D01*
G01X10573207Y-14937638D01*
G01X10544616Y-14981128D01*
G01X10511374Y-15021459D01*
G01X10473684Y-15058194D01*
G01X10431751Y-15090896D01*
G01X10385778Y-15119127D01*
G01X10335970Y-15142448D01*
G01X10321063Y-15148149D01*
G01X10321063Y-15148149D01*
G01X10285257Y-15160460D01*
G01X10252562Y-15170078D01*
G01X10222159Y-15177122D01*
G01X10193231Y-15181711D01*
G01X10164961Y-15183963D01*
G01X10136531Y-15183999D01*
G01X10107125Y-15181938D01*
G01X10075923Y-15177897D01*
G01X10042110Y-15171997D01*
G01X10004868Y-15164357D01*
G01X9963379Y-15155096D01*
G01X9916825Y-15144332D01*
G01X9864390Y-15132185D01*
G01X9805256Y-15118774D01*
G01X9738605Y-15104218D01*
G01X9663621Y-15088637D01*
G01X9579484Y-15072149D01*
G01X9485380Y-15054873D01*
G01X9380488Y-15036929D01*
G01X9263993Y-15018435D01*
G01X9263993Y-15018435D01*
G01X9263993Y-15018435D01*
G01X9343364Y-14926073D01*
G01X9413786Y-14842270D01*
G01X9475994Y-14766536D01*
G01X9530725Y-14698382D01*
G01X9578716Y-14637320D01*
G01X9620702Y-14582859D01*
G01X9657420Y-14534511D01*
G01X9689607Y-14491786D01*
G01X9717998Y-14454195D01*
G01X9743330Y-14421248D01*
G01X9766339Y-14392457D01*
G01X9787761Y-14367332D01*
G01X9808333Y-14345384D01*
G01X9828791Y-14326123D01*
G01X9849871Y-14309060D01*
G01X9872310Y-14293707D01*
G01X9896844Y-14279573D01*
G01X9924209Y-14266170D01*
G01X9955141Y-14253008D01*
G01X9990378Y-14239597D01*
G01X9990378Y-14239597D01*
G37*
G36*
G01X11132715Y-12872614D02*
G01X11132715Y-12872614D01*
G01X11187687Y-12866094D01*
G01X11241904Y-12865822D01*
G01X11294971Y-12871521D01*
G01X11346493Y-12882913D01*
G01X11396074Y-12899723D01*
G01X11443320Y-12921673D01*
G01X11487833Y-12948486D01*
G01X11529220Y-12979885D01*
G01X11567084Y-13015593D01*
G01X11601030Y-13055334D01*
G01X11630662Y-13098831D01*
G01X11655585Y-13145805D01*
G01X11675404Y-13195982D01*
G01X11689723Y-13249083D01*
G01X11692748Y-13264753D01*
G01X11692748Y-13264753D01*
G01X11699268Y-13319724D01*
G01X11699540Y-13373941D01*
G01X11693841Y-13427008D01*
G01X11682449Y-13478530D01*
G01X11665639Y-13528112D01*
G01X11643689Y-13575357D01*
G01X11616876Y-13619871D01*
G01X11585477Y-13661258D01*
G01X11549769Y-13699122D01*
G01X11510028Y-13733068D01*
G01X11466532Y-13762700D01*
G01X11419557Y-13787623D01*
G01X11369380Y-13807442D01*
G01X11316279Y-13821760D01*
G01X11300609Y-13824786D01*
G01X11300609Y-13824786D01*
G01X11263209Y-13830692D01*
G01X11229340Y-13834486D01*
G01X11198176Y-13836144D01*
G01X11168891Y-13835639D01*
G01X11140659Y-13832949D01*
G01X11112655Y-13828048D01*
G01X11084053Y-13820911D01*
G01X11054028Y-13811514D01*
G01X11021753Y-13799832D01*
G01X10986403Y-13785841D01*
G01X10947152Y-13769515D01*
G01X10903175Y-13750831D01*
G01X10853646Y-13729764D01*
G01X10797739Y-13706288D01*
G01X10734628Y-13680380D01*
G01X10663488Y-13652014D01*
G01X10583494Y-13621166D01*
G01X10493818Y-13587812D01*
G01X10393637Y-13551926D01*
G01X10282123Y-13513484D01*
G01X10282123Y-13513484D01*
G01X10282123Y-13513484D01*
G01X10376327Y-13436308D01*
G01X10460230Y-13366006D01*
G01X10534645Y-13302225D01*
G01X10600379Y-13244611D01*
G01X10658244Y-13192810D01*
G01X10709050Y-13146467D01*
G01X10753606Y-13105230D01*
G01X10792722Y-13068743D01*
G01X10827209Y-13036653D01*
G01X10857877Y-13008606D01*
G01X10885536Y-12984247D01*
G01X10910996Y-12963224D01*
G01X10935067Y-12945181D01*
G01X10958559Y-12929766D01*
G01X10982282Y-12916623D01*
G01X11007046Y-12905399D01*
G01X11033661Y-12895741D01*
G01X11062938Y-12887293D01*
G01X11095686Y-12879702D01*
G01X11132715Y-12872614D01*
G01X11132715Y-12872614D01*
G37*
G36*
G01X12340651Y-11731381D02*
G01X12340651Y-11731381D01*
G01X12395920Y-11734506D01*
G01X12449360Y-11743652D01*
G01X12500632Y-11758480D01*
G01X12549393Y-11778646D01*
G01X12595302Y-11803810D01*
G01X12638018Y-11833630D01*
G01X12677199Y-11867766D01*
G01X12712505Y-11905874D01*
G01X12743593Y-11947615D01*
G01X12770122Y-11992647D01*
G01X12791751Y-12040628D01*
G01X12808139Y-12091217D01*
G01X12818943Y-12144073D01*
G01X12823823Y-12198854D01*
G01X12824082Y-12214811D01*
G01X12824082Y-12214811D01*
G01X12820957Y-12270079D01*
G01X12811810Y-12323520D01*
G01X12796983Y-12374791D01*
G01X12776817Y-12423552D01*
G01X12751653Y-12469462D01*
G01X12721832Y-12512178D01*
G01X12687697Y-12551359D01*
G01X12649588Y-12586665D01*
G01X12607847Y-12617753D01*
G01X12562815Y-12644282D01*
G01X12514834Y-12665911D01*
G01X12464245Y-12682298D01*
G01X12411390Y-12693103D01*
G01X12356609Y-12697983D01*
G01X12340651Y-12698241D01*
G01X12340651Y-12698241D01*
G01X12302794Y-12697564D01*
G01X12268781Y-12695419D01*
G01X12237802Y-12691640D01*
G01X12209049Y-12686058D01*
G01X12181714Y-12678506D01*
G01X12154986Y-12668816D01*
G01X12128058Y-12656821D01*
G01X12100121Y-12642353D01*
G01X12070365Y-12625244D01*
G01X12037981Y-12605327D01*
G01X12002162Y-12582434D01*
G01X11962097Y-12556397D01*
G01X11916979Y-12527049D01*
G01X11865998Y-12494222D01*
G01X11808345Y-12457748D01*
G01X11743212Y-12417460D01*
G01X11669789Y-12373190D01*
G01X11587268Y-12324770D01*
G01X11494840Y-12272033D01*
G01X11391695Y-12214811D01*
G01X11391695Y-12214811D01*
G01X11391695Y-12214811D01*
G01X11497869Y-12155166D01*
G01X11592706Y-12100502D01*
G01X11677065Y-12050612D01*
G01X11751806Y-12005287D01*
G01X11817787Y-11964321D01*
G01X11875868Y-11927505D01*
G01X11926908Y-11894631D01*
G01X11971766Y-11865491D01*
G01X12011302Y-11839877D01*
G01X12046374Y-11817581D01*
G01X12077843Y-11798396D01*
G01X12106566Y-11782113D01*
G01X12133405Y-11768525D01*
G01X12159216Y-11757423D01*
G01X12184861Y-11748599D01*
G01X12211198Y-11741846D01*
G01X12239086Y-11736956D01*
G01X12269385Y-11733720D01*
G01X12302954Y-11731931D01*
G01X12340651Y-11731381D01*
G01X12340651Y-11731381D01*
G37*
G36*
G01X13711908Y-10861974D02*
G01X13711908Y-10861974D01*
G01X13765793Y-10874648D01*
G01X13816834Y-10892936D01*
G01X13864752Y-10916441D01*
G01X13909270Y-10944768D01*
G01X13950112Y-10977522D01*
G01X13987001Y-11014307D01*
G01X14019660Y-11054728D01*
G01X14047811Y-11098388D01*
G01X14071179Y-11144893D01*
G01X14089485Y-11193848D01*
G01X14102454Y-11244856D01*
G01X14109808Y-11297522D01*
G01X14111270Y-11351451D01*
G01X14106563Y-11406247D01*
G01X14104047Y-11422007D01*
G01X14104047Y-11422007D01*
G01X14091372Y-11475893D01*
G01X14073084Y-11526933D01*
G01X14049579Y-11574851D01*
G01X14021252Y-11619369D01*
G01X13988498Y-11660211D01*
G01X13951713Y-11697100D01*
G01X13911293Y-11729759D01*
G01X13867632Y-11757910D01*
G01X13821127Y-11781278D01*
G01X13772173Y-11799584D01*
G01X13721165Y-11812553D01*
G01X13668499Y-11819907D01*
G01X13614570Y-11821369D01*
G01X13559774Y-11816662D01*
G01X13544014Y-11814146D01*
G01X13544014Y-11814146D01*
G01X13506850Y-11806905D01*
G01X13473725Y-11798886D01*
G01X13443874Y-11789784D01*
G01X13416527Y-11779295D01*
G01X13390918Y-11767111D01*
G01X13366279Y-11752927D01*
G01X13341843Y-11736438D01*
G01X13316842Y-11717338D01*
G01X13290509Y-11695322D01*
G01X13262077Y-11670085D01*
G01X13230777Y-11641319D01*
G01X13195842Y-11608721D01*
G01X13156505Y-11571984D01*
G01X13111999Y-11530803D01*
G01X13061556Y-11484872D01*
G01X13004408Y-11433885D01*
G01X12939788Y-11377538D01*
G01X12866929Y-11315524D01*
G01X12785062Y-11247539D01*
G01X12693421Y-11173275D01*
G01X12693421Y-11173275D01*
G01X12693421Y-11173275D01*
G01X12808340Y-11132973D01*
G01X12911228Y-11095608D01*
G01X13002969Y-11061124D01*
G01X13084444Y-11029467D01*
G01X13156537Y-11000581D01*
G01X13220128Y-10974410D01*
G01X13276101Y-10950898D01*
G01X13325338Y-10929990D01*
G01X13368721Y-10911631D01*
G01X13407132Y-10895764D01*
G01X13441454Y-10882335D01*
G01X13472569Y-10871287D01*
G01X13501359Y-10862565D01*
G01X13528707Y-10856114D01*
G01X13555494Y-10851878D01*
G01X13582603Y-10849801D01*
G01X13610917Y-10849827D01*
G01X13641318Y-10851902D01*
G01X13674687Y-10855970D01*
G01X13711908Y-10861974D01*
G01X13711908Y-10861974D01*
G37*
G36*
G01X18704721Y-8817006D02*
G01X18704721Y-8817006D01*
G01X18745050Y-8854925D01*
G01X18780109Y-8896283D01*
G01X18809854Y-8940598D01*
G01X18834245Y-8987389D01*
G01X18853238Y-9036176D01*
G01X18866792Y-9086477D01*
G01X18874865Y-9137812D01*
G01X18877415Y-9189699D01*
G01X18874399Y-9241657D01*
G01X18865776Y-9293206D01*
G01X18851503Y-9343865D01*
G01X18831538Y-9393152D01*
G01X18805840Y-9440586D01*
G01X18774366Y-9485688D01*
G01X18764307Y-9498078D01*
G01X18764307Y-9498078D01*
G01X18726387Y-9538407D01*
G01X18685030Y-9573466D01*
G01X18640715Y-9603211D01*
G01X18593924Y-9627602D01*
G01X18545137Y-9646595D01*
G01X18494836Y-9660149D01*
G01X18443501Y-9668222D01*
G01X18391614Y-9670772D01*
G01X18339656Y-9667756D01*
G01X18288107Y-9659133D01*
G01X18237448Y-9644860D01*
G01X18188161Y-9624896D01*
G01X18140726Y-9599197D01*
G01X18095625Y-9567723D01*
G01X18083235Y-9557664D01*
G01X18083235Y-9557664D01*
G01X18054670Y-9532811D01*
G01X18029993Y-9509304D01*
G01X18008691Y-9486496D01*
G01X17990253Y-9463739D01*
G01X17974167Y-9440382D01*
G01X17959922Y-9415780D01*
G01X17947004Y-9389282D01*
G01X17934902Y-9360241D01*
G01X17923105Y-9328008D01*
G01X17911101Y-9291935D01*
G01X17898377Y-9251373D01*
G01X17884422Y-9205675D01*
G01X17868724Y-9154191D01*
G01X17850771Y-9096274D01*
G01X17830051Y-9031275D01*
G01X17806052Y-8958546D01*
G01X17778264Y-8877438D01*
G01X17746172Y-8787303D01*
G01X17709267Y-8687492D01*
G01X17667035Y-8577358D01*
G01X17667035Y-8577358D01*
G01X17667035Y-8577358D01*
G01X17786709Y-8599914D01*
G01X17894495Y-8618999D01*
G01X17991187Y-8635006D01*
G01X18077575Y-8648328D01*
G01X18154452Y-8659358D01*
G01X18222610Y-8668489D01*
G01X18282840Y-8676113D01*
G01X18335934Y-8682625D01*
G01X18382684Y-8688417D01*
G01X18423883Y-8693882D01*
G01X18460321Y-8699412D01*
G01X18492791Y-8705402D01*
G01X18522085Y-8712244D01*
G01X18548994Y-8720331D01*
G01X18574311Y-8730056D01*
G01X18598827Y-8741812D01*
G01X18623334Y-8755992D01*
G01X18648624Y-8772989D01*
G01X18675489Y-8793196D01*
G01X18704721Y-8817006D01*
G01X18704721Y-8817006D01*
G37*
G36*
G01X15580577Y-9561921D02*
G01X15580577Y-9561921D01*
G01X15631443Y-9583760D01*
G01X15678533Y-9610633D01*
G01X15721641Y-9642102D01*
G01X15760564Y-9677729D01*
G01X15795098Y-9717078D01*
G01X15825039Y-9759709D01*
G01X15850182Y-9805187D01*
G01X15870325Y-9853073D01*
G01X15885262Y-9902929D01*
G01X15894789Y-9954319D01*
G01X15898703Y-10006804D01*
G01X15896800Y-10059947D01*
G01X15888875Y-10113310D01*
G01X15874725Y-10166456D01*
G01X15869510Y-10181540D01*
G01X15869510Y-10181540D01*
G01X15847671Y-10232406D01*
G01X15820798Y-10279495D01*
G01X15789329Y-10322604D01*
G01X15753702Y-10361527D01*
G01X15714354Y-10396061D01*
G01X15671722Y-10426002D01*
G01X15626244Y-10451145D01*
G01X15578358Y-10471287D01*
G01X15528502Y-10486224D01*
G01X15477113Y-10495752D01*
G01X15424627Y-10499666D01*
G01X15371484Y-10497763D01*
G01X15318121Y-10489838D01*
G01X15264975Y-10475688D01*
G01X15249891Y-10470473D01*
G01X15249891Y-10470473D01*
G01X15214549Y-10456888D01*
G01X15183320Y-10443239D01*
G01X15155503Y-10429092D01*
G01X15130393Y-10414013D01*
G01X15107289Y-10397567D01*
G01X15085487Y-10379321D01*
G01X15064286Y-10358839D01*
G01X15042981Y-10335688D01*
G01X15020872Y-10309434D01*
G01X14997253Y-10279642D01*
G01X14971424Y-10245879D01*
G01X14942681Y-10207709D01*
G01X14910321Y-10164700D01*
G01X14873642Y-10116416D01*
G01X14831941Y-10062423D01*
G01X14784515Y-10002288D01*
G01X14730661Y-9935575D01*
G01X14669677Y-9861852D01*
G01X14600860Y-9780683D01*
G01X14523507Y-9691635D01*
G01X14523507Y-9691635D01*
G01X14523507Y-9691635D01*
G01X14643678Y-9671900D01*
G01X14751492Y-9652969D01*
G01X14847827Y-9634940D01*
G01X14933562Y-9617912D01*
G01X15009575Y-9601983D01*
G01X15076745Y-9587252D01*
G01X15135950Y-9573817D01*
G01X15188070Y-9561777D01*
G01X15233982Y-9551230D01*
G01X15274565Y-9542274D01*
G01X15310697Y-9535009D01*
G01X15343258Y-9529532D01*
G01X15373125Y-9525942D01*
G01X15401177Y-9524338D01*
G01X15428293Y-9524817D01*
G01X15455351Y-9527479D01*
G01X15483230Y-9532422D01*
G01X15512809Y-9539745D01*
G01X15544965Y-9549545D01*
G01X15580577Y-9561921D01*
G01X15580577Y-9561921D01*
G37*
G36*
G01X17113995Y-9038126D02*
G01X17113995Y-9038126D01*
G01X17160296Y-9068466D01*
G01X17202004Y-9103107D01*
G01X17238993Y-9141584D01*
G01X17271138Y-9183429D01*
G01X17298314Y-9228176D01*
G01X17320397Y-9275360D01*
G01X17337262Y-9324512D01*
G01X17348783Y-9375168D01*
G01X17354835Y-9426861D01*
G01X17355294Y-9479124D01*
G01X17350035Y-9531492D01*
G01X17338933Y-9583497D01*
G01X17321862Y-9634673D01*
G01X17298698Y-9684555D01*
G01X17290943Y-9698504D01*
G01X17290943Y-9698504D01*
G01X17260603Y-9744805D01*
G01X17225961Y-9786512D01*
G01X17187485Y-9823501D01*
G01X17145640Y-9855646D01*
G01X17100892Y-9882823D01*
G01X17053709Y-9904906D01*
G01X17004556Y-9921770D01*
G01X16953900Y-9933291D01*
G01X16902208Y-9939344D01*
G01X16849944Y-9939803D01*
G01X16797577Y-9934544D01*
G01X16745572Y-9923441D01*
G01X16694395Y-9906371D01*
G01X16644514Y-9883206D01*
G01X16630565Y-9875451D01*
G01X16630565Y-9875451D01*
G01X16598118Y-9855936D01*
G01X16569734Y-9837072D01*
G01X16544796Y-9818309D01*
G01X16522686Y-9799099D01*
G01X16502789Y-9778891D01*
G01X16484487Y-9757136D01*
G01X16467164Y-9733284D01*
G01X16450203Y-9706785D01*
G01X16432988Y-9677090D01*
G01X16414902Y-9643650D01*
G01X16395328Y-9605914D01*
G01X16373650Y-9563333D01*
G01X16349250Y-9515358D01*
G01X16321513Y-9461438D01*
G01X16289821Y-9401025D01*
G01X16253558Y-9333567D01*
G01X16212107Y-9258517D01*
G01X16164851Y-9175324D01*
G01X16111174Y-9083438D01*
G01X16050460Y-8982311D01*
G01X16050460Y-8982311D01*
G01X16050460Y-8982311D01*
G01X16172232Y-8983743D01*
G01X16281695Y-8983821D01*
G01X16379697Y-8982795D01*
G01X16467087Y-8980913D01*
G01X16544711Y-8978426D01*
G01X16613419Y-8975582D01*
G01X16674058Y-8972632D01*
G01X16727476Y-8969826D01*
G01X16774522Y-8967411D01*
G01X16816043Y-8965639D01*
G01X16852888Y-8964758D01*
G01X16885905Y-8965019D01*
G01X16915942Y-8966670D01*
G01X16943847Y-8969961D01*
G01X16970468Y-8975142D01*
G01X16996653Y-8982462D01*
G01X17023250Y-8992171D01*
G01X17051107Y-9004518D01*
G01X17081073Y-9019753D01*
G01X17113995Y-9038126D01*
G01X17113995Y-9038126D01*
G37*
G36*
G01X20304420Y-8905282D02*
G01X20304420Y-8905282D01*
G01X20337552Y-8949628D01*
G01X20364896Y-8996446D01*
G01X20386495Y-9045253D01*
G01X20402389Y-9095568D01*
G01X20412623Y-9146912D01*
G01X20417236Y-9198803D01*
G01X20416272Y-9250759D01*
G01X20409773Y-9302300D01*
G01X20397781Y-9352946D01*
G01X20380337Y-9402214D01*
G01X20357484Y-9449625D01*
G01X20329264Y-9494696D01*
G01X20295720Y-9536948D01*
G01X20256892Y-9575899D01*
G01X20244834Y-9586354D01*
G01X20244834Y-9586354D01*
G01X20200488Y-9619486D01*
G01X20153670Y-9646830D01*
G01X20104864Y-9668429D01*
G01X20054548Y-9684323D01*
G01X20003204Y-9694556D01*
G01X19951314Y-9699170D01*
G01X19899357Y-9698206D01*
G01X19847816Y-9691707D01*
G01X19797170Y-9679715D01*
G01X19747902Y-9662271D01*
G01X19700491Y-9639418D01*
G01X19655420Y-9611198D01*
G01X19613168Y-9577654D01*
G01X19574217Y-9538826D01*
G01X19563762Y-9526768D01*
G01X19563762Y-9526768D01*
G01X19539947Y-9497332D01*
G01X19519727Y-9469898D01*
G01X19502709Y-9443737D01*
G01X19488503Y-9418123D01*
G01X19476717Y-9392329D01*
G01X19466960Y-9365626D01*
G01X19458840Y-9337288D01*
G01X19451965Y-9306586D01*
G01X19445944Y-9272794D01*
G01X19440386Y-9235185D01*
G01X19434899Y-9193030D01*
G01X19429092Y-9145603D01*
G01X19422572Y-9092175D01*
G01X19414949Y-9032021D01*
G01X19405831Y-8964411D01*
G01X19394826Y-8888619D01*
G01X19381544Y-8803918D01*
G01X19365592Y-8709580D01*
G01X19346579Y-8604877D01*
G01X19324114Y-8489082D01*
G01X19324114Y-8489082D01*
G01X19324114Y-8489082D01*
G01X19438052Y-8532077D01*
G01X19540887Y-8569589D01*
G01X19633330Y-8602143D01*
G01X19716093Y-8630264D01*
G01X19789887Y-8654476D01*
G01X19855423Y-8675303D01*
G01X19913414Y-8693271D01*
G01X19964571Y-8708903D01*
G01X20009605Y-8722725D01*
G01X20049229Y-8735261D01*
G01X20084153Y-8747035D01*
G01X20115090Y-8758572D01*
G01X20142751Y-8770397D01*
G01X20167847Y-8783034D01*
G01X20191090Y-8797007D01*
G01X20213192Y-8812842D01*
G01X20234865Y-8831062D01*
G01X20256819Y-8852192D01*
G01X20279767Y-8876757D01*
G01X20304420Y-8905282D01*
G01X20304420Y-8905282D01*
G37*
G36*
G01X21864488Y-9300271D02*
G01X21864488Y-9300271D01*
G01X21889416Y-9349697D01*
G01X21908215Y-9400551D01*
G01X21921010Y-9452367D01*
G01X21927926Y-9504678D01*
G01X21929088Y-9557019D01*
G01X21924621Y-9608922D01*
G01X21914649Y-9659922D01*
G01X21899299Y-9709552D01*
G01X21878694Y-9757345D01*
G01X21852960Y-9802836D01*
G01X21822222Y-9845558D01*
G01X21786604Y-9885045D01*
G01X21746232Y-9920829D01*
G01X21701230Y-9952446D01*
G01X21687540Y-9960649D01*
G01X21687540Y-9960649D01*
G01X21638114Y-9985577D01*
G01X21587260Y-10004376D01*
G01X21535444Y-10017171D01*
G01X21483132Y-10024087D01*
G01X21430792Y-10025249D01*
G01X21378889Y-10020781D01*
G01X21327889Y-10010810D01*
G01X21278259Y-9995460D01*
G01X21230465Y-9974855D01*
G01X21184975Y-9949121D01*
G01X21142253Y-9918383D01*
G01X21102766Y-9882765D01*
G01X21066981Y-9842393D01*
G01X21035365Y-9797391D01*
G01X21027162Y-9783701D01*
G01X21027162Y-9783701D01*
G01X21008820Y-9750577D01*
G01X20993671Y-9720048D01*
G01X20981455Y-9691330D01*
G01X20971913Y-9663638D01*
G01X20964785Y-9636189D01*
G01X20959813Y-9608198D01*
G01X20956737Y-9578880D01*
G01X20955298Y-9547451D01*
G01X20955236Y-9513127D01*
G01X20956294Y-9475124D01*
G01X20958210Y-9432657D01*
G01X20960726Y-9384941D01*
G01X20963583Y-9331193D01*
G01X20966522Y-9270629D01*
G01X20969283Y-9202463D01*
G01X20971606Y-9125912D01*
G01X20973234Y-9040191D01*
G01X20973906Y-8944516D01*
G01X20973364Y-8838102D01*
G01X20971347Y-8720166D01*
G01X20971347Y-8720166D01*
G01X20971347Y-8720166D01*
G01X21076089Y-8782292D01*
G01X21170847Y-8837092D01*
G01X21256233Y-8885204D01*
G01X21332855Y-8927269D01*
G01X21401323Y-8963927D01*
G01X21462248Y-8995818D01*
G01X21516238Y-9023583D01*
G01X21563903Y-9047861D01*
G01X21605853Y-9069293D01*
G01X21642698Y-9088519D01*
G01X21675047Y-9106179D01*
G01X21703510Y-9122913D01*
G01X21728697Y-9139361D01*
G01X21751218Y-9156164D01*
G01X21771682Y-9173961D01*
G01X21790698Y-9193393D01*
G01X21808877Y-9215100D01*
G01X21826829Y-9239722D01*
G01X21845163Y-9267899D01*
G01X21864488Y-9300271D01*
G01X21864488Y-9300271D01*
G37*
G36*
G01X23338681Y-9896451D02*
G01X23338681Y-9896451D01*
G01X23363609Y-9945877D01*
G01X23382408Y-9996731D01*
G01X23395203Y-10048547D01*
G01X23402119Y-10100859D01*
G01X23403281Y-10153199D01*
G01X23398814Y-10205103D01*
G01X23388842Y-10256102D01*
G01X23373492Y-10305732D01*
G01X23352887Y-10353526D01*
G01X23327153Y-10399017D01*
G01X23296415Y-10441739D01*
G01X23260797Y-10481225D01*
G01X23220425Y-10517010D01*
G01X23175423Y-10548627D01*
G01X23161733Y-10556829D01*
G01X23161733Y-10556829D01*
G01X23112307Y-10581757D01*
G01X23061453Y-10600556D01*
G01X23009637Y-10613351D01*
G01X22957325Y-10620267D01*
G01X22904985Y-10621429D01*
G01X22853081Y-10616962D01*
G01X22802082Y-10606990D01*
G01X22752452Y-10591640D01*
G01X22704658Y-10571035D01*
G01X22659167Y-10545301D01*
G01X22616446Y-10514563D01*
G01X22576959Y-10478945D01*
G01X22541174Y-10438573D01*
G01X22509558Y-10393572D01*
G01X22501355Y-10379881D01*
G01X22501355Y-10379881D01*
G01X22483013Y-10346757D01*
G01X22467864Y-10316228D01*
G01X22455648Y-10287510D01*
G01X22446106Y-10259819D01*
G01X22438978Y-10232369D01*
G01X22434006Y-10204378D01*
G01X22430930Y-10175060D01*
G01X22429491Y-10143631D01*
G01X22429429Y-10109307D01*
G01X22430487Y-10071304D01*
G01X22432403Y-10028837D01*
G01X22434919Y-9981122D01*
G01X22437776Y-9927374D01*
G01X22440715Y-9866809D01*
G01X22443476Y-9798644D01*
G01X22445799Y-9722092D01*
G01X22447427Y-9636371D01*
G01X22448099Y-9540696D01*
G01X22447556Y-9434283D01*
G01X22445540Y-9316346D01*
G01X22445540Y-9316346D01*
G01X22445540Y-9316346D01*
G01X22550282Y-9378473D01*
G01X22645040Y-9433272D01*
G01X22730426Y-9481384D01*
G01X22807048Y-9523449D01*
G01X22875516Y-9560107D01*
G01X22936441Y-9591999D01*
G01X22990430Y-9619763D01*
G01X23038096Y-9644042D01*
G01X23080046Y-9665474D01*
G01X23116890Y-9684700D01*
G01X23149240Y-9702360D01*
G01X23177703Y-9719094D01*
G01X23202890Y-9735542D01*
G01X23225411Y-9752344D01*
G01X23245874Y-9770142D01*
G01X23264891Y-9789574D01*
G01X23283070Y-9811280D01*
G01X23301022Y-9835902D01*
G01X23319356Y-9864079D01*
G01X23338681Y-9896451D01*
G01X23338681Y-9896451D01*
G37*
G36*
G01X25366183Y-11105212D02*
G01X25366183Y-11105212D01*
G01X25372702Y-11160183D01*
G01X25372975Y-11214400D01*
G01X25367276Y-11267467D01*
G01X25355883Y-11318989D01*
G01X25339073Y-11368571D01*
G01X25317124Y-11415816D01*
G01X25290311Y-11460330D01*
G01X25258912Y-11501717D01*
G01X25223203Y-11539580D01*
G01X25183462Y-11573526D01*
G01X25139966Y-11603159D01*
G01X25092991Y-11628082D01*
G01X25042815Y-11647901D01*
G01X24989714Y-11662219D01*
G01X24974043Y-11665245D01*
G01X24974043Y-11665245D01*
G01X24919072Y-11671765D01*
G01X24864855Y-11672037D01*
G01X24811788Y-11666338D01*
G01X24760266Y-11654945D01*
G01X24710685Y-11638136D01*
G01X24663439Y-11616186D01*
G01X24618925Y-11589373D01*
G01X24577539Y-11557974D01*
G01X24539675Y-11522265D01*
G01X24505729Y-11482524D01*
G01X24476097Y-11439028D01*
G01X24451173Y-11392053D01*
G01X24431355Y-11341877D01*
G01X24417036Y-11288776D01*
G01X24414011Y-11273106D01*
G01X24414011Y-11273106D01*
G01X24408104Y-11235706D01*
G01X24404310Y-11201837D01*
G01X24402653Y-11170672D01*
G01X24403157Y-11141387D01*
G01X24405848Y-11113155D01*
G01X24410749Y-11085151D01*
G01X24417886Y-11056550D01*
G01X24427283Y-11026524D01*
G01X24438964Y-10994249D01*
G01X24452956Y-10958899D01*
G01X24469281Y-10919649D01*
G01X24487965Y-10875672D01*
G01X24509033Y-10826142D01*
G01X24532508Y-10770235D01*
G01X24558417Y-10707125D01*
G01X24586783Y-10635985D01*
G01X24617630Y-10555990D01*
G01X24650985Y-10466315D01*
G01X24686870Y-10366133D01*
G01X24725312Y-10254619D01*
G01X24725312Y-10254619D01*
G01X24725312Y-10254619D01*
G01X24802489Y-10348823D01*
G01X24872790Y-10432727D01*
G01X24936571Y-10507141D01*
G01X24994185Y-10572876D01*
G01X25045987Y-10630741D01*
G01X25092329Y-10681546D01*
G01X25133567Y-10726102D01*
G01X25170054Y-10765219D01*
G01X25202144Y-10799706D01*
G01X25230191Y-10830374D01*
G01X25254549Y-10858033D01*
G01X25275573Y-10883493D01*
G01X25293615Y-10907564D01*
G01X25309031Y-10931055D01*
G01X25322173Y-10954778D01*
G01X25333397Y-10979542D01*
G01X25343056Y-11006158D01*
G01X25351504Y-11035434D01*
G01X25359095Y-11068182D01*
G01X25366183Y-11105212D01*
G01X25366183Y-11105212D01*
G37*
G36*
G01X26554570Y-12161360D02*
G01X26554570Y-12161360D01*
G01X26551446Y-12216628D01*
G01X26542299Y-12270069D01*
G01X26527472Y-12321340D01*
G01X26507305Y-12370101D01*
G01X26482141Y-12416011D01*
G01X26452321Y-12458727D01*
G01X26418186Y-12497908D01*
G01X26380077Y-12533214D01*
G01X26338336Y-12564302D01*
G01X26293304Y-12590831D01*
G01X26245323Y-12612460D01*
G01X26194734Y-12628847D01*
G01X26141878Y-12639652D01*
G01X26087097Y-12644532D01*
G01X26071140Y-12644790D01*
G01X26071140Y-12644790D01*
G01X26015872Y-12641666D01*
G01X25962431Y-12632519D01*
G01X25911160Y-12617692D01*
G01X25862399Y-12597525D01*
G01X25816490Y-12572361D01*
G01X25773774Y-12542541D01*
G01X25734592Y-12508406D01*
G01X25699287Y-12470297D01*
G01X25668199Y-12428556D01*
G01X25641669Y-12383524D01*
G01X25620040Y-12335543D01*
G01X25603653Y-12284954D01*
G01X25592848Y-12232098D01*
G01X25587968Y-12177318D01*
G01X25587710Y-12161360D01*
G01X25587710Y-12161360D01*
G01X25588387Y-12123503D01*
G01X25590532Y-12089489D01*
G01X25594312Y-12058511D01*
G01X25599894Y-12029758D01*
G01X25607446Y-12002423D01*
G01X25617135Y-11975695D01*
G01X25629130Y-11948767D01*
G01X25643598Y-11920829D01*
G01X25660707Y-11891073D01*
G01X25680624Y-11858690D01*
G01X25703518Y-11822871D01*
G01X25729554Y-11782806D01*
G01X25758903Y-11737688D01*
G01X25791730Y-11686707D01*
G01X25828204Y-11629054D01*
G01X25868492Y-11563920D01*
G01X25912762Y-11490498D01*
G01X25961181Y-11407977D01*
G01X26013918Y-11315548D01*
G01X26071140Y-11212404D01*
G01X26071140Y-11212404D01*
G01X26071140Y-11212404D01*
G01X26130786Y-11318578D01*
G01X26185450Y-11413415D01*
G01X26235340Y-11497774D01*
G01X26280664Y-11572515D01*
G01X26321630Y-11638496D01*
G01X26358446Y-11696577D01*
G01X26391320Y-11747616D01*
G01X26420460Y-11792475D01*
G01X26446074Y-11832010D01*
G01X26468370Y-11867083D01*
G01X26487555Y-11898551D01*
G01X26503838Y-11927275D01*
G01X26517427Y-11954113D01*
G01X26528529Y-11979925D01*
G01X26537352Y-12005570D01*
G01X26544105Y-12031907D01*
G01X26548996Y-12059795D01*
G01X26552231Y-12090094D01*
G01X26554020Y-12123662D01*
G01X26554570Y-12161360D01*
G01X26554570Y-12161360D01*
G37*
G36*
G01X27627260Y-13577075D02*
G01X27627260Y-13577075D01*
G01X27614585Y-13630961D01*
G01X27596298Y-13682001D01*
G01X27572793Y-13729919D01*
G01X27544466Y-13774437D01*
G01X27511712Y-13815279D01*
G01X27474927Y-13852168D01*
G01X27434506Y-13884827D01*
G01X27390846Y-13912978D01*
G01X27344341Y-13936346D01*
G01X27295386Y-13954652D01*
G01X27244378Y-13967621D01*
G01X27191712Y-13974975D01*
G01X27137783Y-13976437D01*
G01X27082987Y-13971730D01*
G01X27067227Y-13969214D01*
G01X27067227Y-13969214D01*
G01X27013341Y-13956539D01*
G01X26962301Y-13938252D01*
G01X26914383Y-13914746D01*
G01X26869865Y-13886419D01*
G01X26829023Y-13853665D01*
G01X26792134Y-13816881D01*
G01X26759475Y-13776460D01*
G01X26731324Y-13732799D01*
G01X26707956Y-13686294D01*
G01X26689650Y-13637340D01*
G01X26676681Y-13586332D01*
G01X26669327Y-13533666D01*
G01X26667865Y-13479737D01*
G01X26672572Y-13424941D01*
G01X26675088Y-13409181D01*
G01X26675088Y-13409181D01*
G01X26682329Y-13372017D01*
G01X26690348Y-13338892D01*
G01X26699449Y-13309041D01*
G01X26709939Y-13281694D01*
G01X26722123Y-13256085D01*
G01X26736307Y-13231446D01*
G01X26752796Y-13207010D01*
G01X26771896Y-13182009D01*
G01X26793912Y-13155676D01*
G01X26819149Y-13127244D01*
G01X26847915Y-13095944D01*
G01X26880513Y-13061009D01*
G01X26917250Y-13021672D01*
G01X26958431Y-12977166D01*
G01X27004362Y-12926723D01*
G01X27055349Y-12869575D01*
G01X27111696Y-12804955D01*
G01X27173710Y-12732096D01*
G01X27241695Y-12650229D01*
G01X27315959Y-12558589D01*
G01X27315959Y-12558589D01*
G01X27315959Y-12558589D01*
G01X27356261Y-12673507D01*
G01X27393626Y-12776395D01*
G01X27428110Y-12868136D01*
G01X27459767Y-12949612D01*
G01X27488653Y-13021704D01*
G01X27514824Y-13085296D01*
G01X27538336Y-13141269D01*
G01X27559244Y-13190505D01*
G01X27577603Y-13233888D01*
G01X27593470Y-13272300D01*
G01X27606899Y-13306621D01*
G01X27617947Y-13337736D01*
G01X27626669Y-13366526D01*
G01X27633120Y-13393874D01*
G01X27637356Y-13420661D01*
G01X27639433Y-13447771D01*
G01X27639407Y-13476084D01*
G01X27637332Y-13506485D01*
G01X27633264Y-13539854D01*
G01X27627260Y-13577075D01*
G01X27627260Y-13577075D01*
G37*
G36*
G01X28437816Y-15157551D02*
G01X28437816Y-15157551D01*
G01X28415977Y-15208418D01*
G01X28389104Y-15255507D01*
G01X28357636Y-15298615D01*
G01X28322008Y-15337538D01*
G01X28282660Y-15372072D01*
G01X28240028Y-15402013D01*
G01X28194551Y-15427157D01*
G01X28146665Y-15447299D01*
G01X28096808Y-15462236D01*
G01X28045419Y-15471763D01*
G01X27992934Y-15475678D01*
G01X27939791Y-15473774D01*
G01X27886427Y-15465850D01*
G01X27833281Y-15451699D01*
G01X27818198Y-15446484D01*
G01X27818198Y-15446484D01*
G01X27767331Y-15424645D01*
G01X27720242Y-15397772D01*
G01X27677134Y-15366303D01*
G01X27638211Y-15330676D01*
G01X27603677Y-15291328D01*
G01X27573736Y-15248696D01*
G01X27548592Y-15203218D01*
G01X27528450Y-15155333D01*
G01X27513513Y-15105476D01*
G01X27503986Y-15054087D01*
G01X27500071Y-15001602D01*
G01X27501975Y-14948459D01*
G01X27509899Y-14895095D01*
G01X27524050Y-14841949D01*
G01X27529265Y-14826866D01*
G01X27529265Y-14826866D01*
G01X27542849Y-14791523D01*
G01X27556498Y-14760295D01*
G01X27570645Y-14732477D01*
G01X27585724Y-14707367D01*
G01X27602170Y-14684263D01*
G01X27620417Y-14662462D01*
G01X27640898Y-14641260D01*
G01X27664049Y-14619956D01*
G01X27690303Y-14597846D01*
G01X27720095Y-14574227D01*
G01X27753859Y-14548398D01*
G01X27792028Y-14519655D01*
G01X27835038Y-14487295D01*
G01X27883322Y-14450616D01*
G01X27937314Y-14408915D01*
G01X27997450Y-14361489D01*
G01X28064162Y-14307635D01*
G01X28137885Y-14246651D01*
G01X28219054Y-14177834D01*
G01X28308103Y-14100481D01*
G01X28308103Y-14100481D01*
G01X28308103Y-14100481D01*
G01X28327838Y-14220652D01*
G01X28346769Y-14328466D01*
G01X28364797Y-14424801D01*
G01X28381826Y-14510536D01*
G01X28397754Y-14586549D01*
G01X28412485Y-14653719D01*
G01X28425920Y-14712925D01*
G01X28437961Y-14765044D01*
G01X28448508Y-14810956D01*
G01X28457463Y-14851539D01*
G01X28464729Y-14887671D01*
G01X28470206Y-14920232D01*
G01X28473795Y-14950099D01*
G01X28475400Y-14978151D01*
G01X28474920Y-15005267D01*
G01X28472258Y-15032326D01*
G01X28467315Y-15060205D01*
G01X28459993Y-15089783D01*
G01X28450193Y-15121939D01*
G01X28437816Y-15157551D01*
G01X28437816Y-15157551D01*
G37*
G36*
G01X28603845Y-16908434D02*
G01X28603845Y-16908434D01*
G01X28573504Y-16954735D01*
G01X28538863Y-16996443D01*
G01X28500386Y-17033432D01*
G01X28458541Y-17065577D01*
G01X28413794Y-17092753D01*
G01X28366611Y-17114836D01*
G01X28317458Y-17131701D01*
G01X28266802Y-17143222D01*
G01X28215109Y-17149274D01*
G01X28162846Y-17149733D01*
G01X28110479Y-17144474D01*
G01X28058473Y-17133372D01*
G01X28007297Y-17116301D01*
G01X27957415Y-17093137D01*
G01X27943466Y-17085382D01*
G01X27943466Y-17085382D01*
G01X27897165Y-17055042D01*
G01X27855458Y-17020400D01*
G01X27818469Y-16981924D01*
G01X27786324Y-16940078D01*
G01X27759147Y-16895331D01*
G01X27737064Y-16848148D01*
G01X27720200Y-16798995D01*
G01X27708679Y-16748339D01*
G01X27702626Y-16696646D01*
G01X27702167Y-16644383D01*
G01X27707426Y-16592016D01*
G01X27718529Y-16540011D01*
G01X27735600Y-16488834D01*
G01X27758764Y-16438953D01*
G01X27766519Y-16425004D01*
G01X27766519Y-16425004D01*
G01X27786034Y-16392557D01*
G01X27804898Y-16364173D01*
G01X27823661Y-16339235D01*
G01X27842871Y-16317125D01*
G01X27863079Y-16297228D01*
G01X27884835Y-16278926D01*
G01X27908687Y-16261603D01*
G01X27935185Y-16244642D01*
G01X27964880Y-16227427D01*
G01X27998320Y-16209341D01*
G01X28036056Y-16189767D01*
G01X28078637Y-16168089D01*
G01X28126612Y-16143689D01*
G01X28180532Y-16115952D01*
G01X28240946Y-16084260D01*
G01X28308403Y-16047997D01*
G01X28383453Y-16006546D01*
G01X28466646Y-15959290D01*
G01X28558532Y-15905613D01*
G01X28659660Y-15844899D01*
G01X28659660Y-15844899D01*
G01X28659660Y-15844899D01*
G01X28658227Y-15966671D01*
G01X28658149Y-16076134D01*
G01X28659176Y-16174136D01*
G01X28661057Y-16261526D01*
G01X28663545Y-16339150D01*
G01X28666388Y-16407858D01*
G01X28669338Y-16468496D01*
G01X28672145Y-16521915D01*
G01X28674559Y-16568961D01*
G01X28676331Y-16610482D01*
G01X28677212Y-16647327D01*
G01X28676952Y-16680344D01*
G01X28675301Y-16710381D01*
G01X28672009Y-16738286D01*
G01X28666829Y-16764907D01*
G01X28659508Y-16791091D01*
G01X28649799Y-16817689D01*
G01X28637452Y-16845546D01*
G01X28622217Y-16875512D01*
G01X28603845Y-16908434D01*
G01X28603845Y-16908434D01*
G37*
G36*
G01X28717634Y-18509827D02*
G01X28717634Y-18509827D01*
G01X28679715Y-18550156D01*
G01X28638357Y-18585215D01*
G01X28594043Y-18614960D01*
G01X28547251Y-18639351D01*
G01X28498465Y-18658344D01*
G01X28448163Y-18671898D01*
G01X28396829Y-18679971D01*
G01X28344942Y-18682521D01*
G01X28292984Y-18679505D01*
G01X28241435Y-18670882D01*
G01X28190776Y-18656609D01*
G01X28141489Y-18636645D01*
G01X28094054Y-18610946D01*
G01X28048953Y-18579472D01*
G01X28036562Y-18569413D01*
G01X28036562Y-18569413D01*
G01X27996233Y-18531494D01*
G01X27961175Y-18490136D01*
G01X27931429Y-18445821D01*
G01X27907039Y-18399030D01*
G01X27888045Y-18350243D01*
G01X27874491Y-18299942D01*
G01X27866418Y-18248608D01*
G01X27863869Y-18196721D01*
G01X27866884Y-18144762D01*
G01X27875508Y-18093213D01*
G01X27889780Y-18042555D01*
G01X27909745Y-17993267D01*
G01X27935443Y-17945833D01*
G01X27966917Y-17900731D01*
G01X27976976Y-17888341D01*
G01X27976976Y-17888341D01*
G01X28001830Y-17859776D01*
G01X28025336Y-17835099D01*
G01X28048144Y-17813797D01*
G01X28070902Y-17795360D01*
G01X28094258Y-17779274D01*
G01X28118861Y-17765028D01*
G01X28145359Y-17752110D01*
G01X28174400Y-17740008D01*
G01X28206633Y-17728211D01*
G01X28242706Y-17716207D01*
G01X28283267Y-17703483D01*
G01X28328966Y-17689528D01*
G01X28380449Y-17673830D01*
G01X28438366Y-17655877D01*
G01X28503365Y-17635157D01*
G01X28576095Y-17611159D01*
G01X28657203Y-17583370D01*
G01X28747338Y-17551279D01*
G01X28847148Y-17514373D01*
G01X28957283Y-17472141D01*
G01X28957283Y-17472141D01*
G01X28957283Y-17472141D01*
G01X28934727Y-17591815D01*
G01X28915641Y-17699602D01*
G01X28899635Y-17796293D01*
G01X28886313Y-17882681D01*
G01X28875283Y-17959558D01*
G01X28866152Y-18027716D01*
G01X28858527Y-18087946D01*
G01X28852015Y-18141040D01*
G01X28846224Y-18187791D01*
G01X28840759Y-18228989D01*
G01X28835228Y-18265427D01*
G01X28829238Y-18297897D01*
G01X28822397Y-18327191D01*
G01X28814310Y-18354100D01*
G01X28804585Y-18379417D01*
G01X28792829Y-18403933D01*
G01X28778649Y-18428440D01*
G01X28761652Y-18453730D01*
G01X28741445Y-18480595D01*
G01X28717634Y-18509827D01*
G01X28717634Y-18509827D01*
G37*
G36*
G01X28849259Y-20662936D02*
G01X28849259Y-20662936D01*
G01X28804912Y-20696068D01*
G01X28758095Y-20723412D01*
G01X28709288Y-20745010D01*
G01X28658972Y-20760905D01*
G01X28607629Y-20771138D01*
G01X28555738Y-20775752D01*
G01X28503781Y-20774788D01*
G01X28452240Y-20768289D01*
G01X28401595Y-20756296D01*
G01X28352326Y-20738853D01*
G01X28304916Y-20716000D01*
G01X28259844Y-20687780D01*
G01X28217593Y-20654236D01*
G01X28178642Y-20615408D01*
G01X28168186Y-20603350D01*
G01X28168186Y-20603350D01*
G01X28135055Y-20559003D01*
G01X28107710Y-20512186D01*
G01X28086112Y-20463379D01*
G01X28070217Y-20413064D01*
G01X28059984Y-20361720D01*
G01X28055371Y-20309829D01*
G01X28056334Y-20257873D01*
G01X28062834Y-20206331D01*
G01X28074826Y-20155686D01*
G01X28092270Y-20106418D01*
G01X28115122Y-20059007D01*
G01X28143342Y-20013936D01*
G01X28176887Y-19971684D01*
G01X28215715Y-19932733D01*
G01X28227773Y-19922278D01*
G01X28227773Y-19922278D01*
G01X28257208Y-19898463D01*
G01X28284643Y-19878242D01*
G01X28310803Y-19861225D01*
G01X28336417Y-19847019D01*
G01X28362212Y-19835233D01*
G01X28388915Y-19825476D01*
G01X28417253Y-19817356D01*
G01X28447954Y-19810481D01*
G01X28481746Y-19804460D01*
G01X28519356Y-19798902D01*
G01X28561510Y-19793415D01*
G01X28608938Y-19787607D01*
G01X28662365Y-19781088D01*
G01X28722520Y-19773465D01*
G01X28790129Y-19764347D01*
G01X28865921Y-19753342D01*
G01X28950622Y-19740060D01*
G01X29044961Y-19724108D01*
G01X29149663Y-19705095D01*
G01X29265458Y-19682630D01*
G01X29265458Y-19682630D01*
G01X29265458Y-19682630D01*
G01X29222464Y-19796568D01*
G01X29184951Y-19899403D01*
G01X29152397Y-19991846D01*
G01X29124277Y-20074609D01*
G01X29100065Y-20148403D01*
G01X29079237Y-20213939D01*
G01X29061270Y-20271930D01*
G01X29045637Y-20323087D01*
G01X29031815Y-20368121D01*
G01X29019279Y-20407745D01*
G01X29007505Y-20442669D01*
G01X28995968Y-20473606D01*
G01X28984143Y-20501267D01*
G01X28971507Y-20526363D01*
G01X28957533Y-20549606D01*
G01X28941699Y-20571708D01*
G01X28923479Y-20593381D01*
G01X28902348Y-20615335D01*
G01X28877783Y-20638283D01*
G01X28849259Y-20662936D01*
G01X28849259Y-20662936D01*
G37*
G36*
G01X28699467Y-22122899D02*
G01X28699467Y-22122899D01*
G01X28650041Y-22147827D01*
G01X28599187Y-22166626D01*
G01X28547371Y-22179421D01*
G01X28495059Y-22186337D01*
G01X28442719Y-22187499D01*
G01X28390815Y-22183032D01*
G01X28339815Y-22173061D01*
G01X28290186Y-22157710D01*
G01X28242392Y-22137106D01*
G01X28196901Y-22111372D01*
G01X28154179Y-22080633D01*
G01X28114693Y-22045016D01*
G01X28078908Y-22004644D01*
G01X28047291Y-21959642D01*
G01X28039089Y-21945952D01*
G01X28039089Y-21945952D01*
G01X28014161Y-21896526D01*
G01X27995362Y-21845672D01*
G01X27982567Y-21793856D01*
G01X27975651Y-21741544D01*
G01X27974489Y-21689203D01*
G01X27978956Y-21637300D01*
G01X27988927Y-21586300D01*
G01X28004278Y-21536670D01*
G01X28024883Y-21488877D01*
G01X28050617Y-21443386D01*
G01X28081355Y-21400664D01*
G01X28116973Y-21361178D01*
G01X28157345Y-21325393D01*
G01X28202346Y-21293776D01*
G01X28216037Y-21285574D01*
G01X28216037Y-21285574D01*
G01X28249161Y-21267232D01*
G01X28279690Y-21252083D01*
G01X28308408Y-21239866D01*
G01X28336099Y-21230324D01*
G01X28363548Y-21223197D01*
G01X28391540Y-21218224D01*
G01X28420858Y-21215148D01*
G01X28452287Y-21213709D01*
G01X28486610Y-21213648D01*
G01X28524614Y-21214705D01*
G01X28567081Y-21216621D01*
G01X28614796Y-21219138D01*
G01X28668544Y-21221995D01*
G01X28729109Y-21224933D01*
G01X28797274Y-21227694D01*
G01X28873825Y-21230018D01*
G01X28959546Y-21231646D01*
G01X29055222Y-21232318D01*
G01X29161635Y-21231775D01*
G01X29279572Y-21229758D01*
G01X29279572Y-21229758D01*
G01X29279572Y-21229758D01*
G01X29217445Y-21334500D01*
G01X29162646Y-21429259D01*
G01X29114534Y-21514645D01*
G01X29072469Y-21591267D01*
G01X29035811Y-21659735D01*
G01X29003919Y-21720659D01*
G01X28976154Y-21774649D01*
G01X28951876Y-21822314D01*
G01X28930444Y-21864264D01*
G01X28911218Y-21901109D01*
G01X28893558Y-21933458D01*
G01X28876824Y-21961922D01*
G01X28860376Y-21987109D01*
G01X28843573Y-22009629D01*
G01X28825776Y-22030093D01*
G01X28806344Y-22049110D01*
G01X28784638Y-22067289D01*
G01X28760016Y-22085241D01*
G01X28731839Y-22103574D01*
G01X28699467Y-22122899D01*
G01X28699467Y-22122899D01*
G37*
G36*
G01X28009767Y-23759733D02*
G01X28009767Y-23759733D01*
G01X27956764Y-23775699D01*
G01X27903418Y-23785382D01*
G01X27850167Y-23788985D01*
G01X27797449Y-23786712D01*
G01X27745702Y-23778767D01*
G01X27695363Y-23765355D01*
G01X27646870Y-23746679D01*
G01X27600659Y-23722944D01*
G01X27557170Y-23694353D01*
G01X27516839Y-23661110D01*
G01X27480104Y-23623420D01*
G01X27447402Y-23581487D01*
G01X27419171Y-23535514D01*
G01X27395849Y-23485706D01*
G01X27390149Y-23470800D01*
G01X27390149Y-23470800D01*
G01X27374182Y-23417796D01*
G01X27364500Y-23364450D01*
G01X27360897Y-23311199D01*
G01X27363170Y-23258482D01*
G01X27371114Y-23206734D01*
G01X27384526Y-23156395D01*
G01X27403202Y-23107902D01*
G01X27426938Y-23061692D01*
G01X27455529Y-23018202D01*
G01X27488771Y-22977871D01*
G01X27526461Y-22941136D01*
G01X27568394Y-22908434D01*
G01X27614367Y-22880203D01*
G01X27664175Y-22856882D01*
G01X27679082Y-22851181D01*
G01X27679082Y-22851181D01*
G01X27714888Y-22838870D01*
G01X27747583Y-22829252D01*
G01X27777986Y-22822208D01*
G01X27806914Y-22817619D01*
G01X27835184Y-22815367D01*
G01X27863614Y-22815331D01*
G01X27893020Y-22817392D01*
G01X27924222Y-22821433D01*
G01X27958035Y-22827333D01*
G01X27995277Y-22834973D01*
G01X28036766Y-22844234D01*
G01X28083320Y-22854998D01*
G01X28135755Y-22867145D01*
G01X28194889Y-22880556D01*
G01X28261540Y-22895112D01*
G01X28336524Y-22910693D01*
G01X28420661Y-22927181D01*
G01X28514765Y-22944457D01*
G01X28619657Y-22962401D01*
G01X28736152Y-22980895D01*
G01X28736152Y-22980895D01*
G01X28736152Y-22980895D01*
G01X28656781Y-23073257D01*
G01X28586359Y-23157060D01*
G01X28524151Y-23232794D01*
G01X28469420Y-23300948D01*
G01X28421429Y-23362010D01*
G01X28379443Y-23416471D01*
G01X28342725Y-23464819D01*
G01X28310538Y-23507544D01*
G01X28282147Y-23545135D01*
G01X28256815Y-23578082D01*
G01X28233806Y-23606873D01*
G01X28212384Y-23631998D01*
G01X28191812Y-23653946D01*
G01X28171354Y-23673207D01*
G01X28150274Y-23690270D01*
G01X28127835Y-23705623D01*
G01X28103301Y-23719757D01*
G01X28075936Y-23733160D01*
G01X28045004Y-23746322D01*
G01X28009767Y-23759733D01*
G01X28009767Y-23759733D01*
G37*
G36*
G01X27046313Y-25251934D02*
G01X27046313Y-25251934D01*
G01X26991342Y-25258454D01*
G01X26937125Y-25258726D01*
G01X26884058Y-25253028D01*
G01X26832536Y-25241635D01*
G01X26782954Y-25224825D01*
G01X26735709Y-25202876D01*
G01X26691195Y-25176063D01*
G01X26649808Y-25144663D01*
G01X26611944Y-25108955D01*
G01X26577999Y-25069214D01*
G01X26548366Y-25025718D01*
G01X26523443Y-24978743D01*
G01X26503624Y-24928567D01*
G01X26489306Y-24875465D01*
G01X26486280Y-24859795D01*
G01X26486280Y-24859795D01*
G01X26479760Y-24804824D01*
G01X26479488Y-24750607D01*
G01X26485187Y-24697540D01*
G01X26496580Y-24646018D01*
G01X26513389Y-24596436D01*
G01X26535339Y-24549191D01*
G01X26562152Y-24504677D01*
G01X26593551Y-24463291D01*
G01X26629260Y-24425427D01*
G01X26669001Y-24391481D01*
G01X26712497Y-24361849D01*
G01X26759472Y-24336925D01*
G01X26809648Y-24317107D01*
G01X26862749Y-24302788D01*
G01X26878419Y-24299763D01*
G01X26878419Y-24299763D01*
G01X26915819Y-24293856D01*
G01X26949688Y-24290062D01*
G01X26980853Y-24288405D01*
G01X27010138Y-24288909D01*
G01X27038370Y-24291599D01*
G01X27066373Y-24296501D01*
G01X27094975Y-24303638D01*
G01X27125001Y-24313035D01*
G01X27157276Y-24324716D01*
G01X27192626Y-24338708D01*
G01X27231876Y-24355033D01*
G01X27275853Y-24373717D01*
G01X27325383Y-24394785D01*
G01X27381290Y-24418260D01*
G01X27444400Y-24444169D01*
G01X27515540Y-24472534D01*
G01X27595535Y-24503382D01*
G01X27685210Y-24536737D01*
G01X27785392Y-24572622D01*
G01X27896905Y-24611064D01*
G01X27896905Y-24611064D01*
G01X27896905Y-24611064D01*
G01X27802702Y-24688240D01*
G01X27718798Y-24758542D01*
G01X27644384Y-24822323D01*
G01X27578649Y-24879937D01*
G01X27520784Y-24931739D01*
G01X27469979Y-24978081D01*
G01X27425423Y-25019319D01*
G01X27386306Y-25055806D01*
G01X27351819Y-25087896D01*
G01X27321151Y-25115943D01*
G01X27293492Y-25140301D01*
G01X27268032Y-25161325D01*
G01X27243961Y-25179367D01*
G01X27220470Y-25194783D01*
G01X27196747Y-25207925D01*
G01X27171983Y-25219149D01*
G01X27145367Y-25228808D01*
G01X27116091Y-25237256D01*
G01X27083342Y-25244846D01*
G01X27046313Y-25251934D01*
G01X27046313Y-25251934D01*
G37*
G36*
G01X25772064Y-26218252D02*
G01X25772064Y-26218252D01*
G01X25716795Y-26215127D01*
G01X25663355Y-26205981D01*
G01X25612083Y-26191153D01*
G01X25563322Y-26170987D01*
G01X25517413Y-26145823D01*
G01X25474697Y-26116003D01*
G01X25435516Y-26081867D01*
G01X25400210Y-26043759D01*
G01X25369122Y-26002018D01*
G01X25342593Y-25956986D01*
G01X25320964Y-25909005D01*
G01X25304576Y-25858416D01*
G01X25293772Y-25805560D01*
G01X25288892Y-25750779D01*
G01X25288633Y-25734822D01*
G01X25288633Y-25734822D01*
G01X25291758Y-25679554D01*
G01X25300905Y-25626113D01*
G01X25315732Y-25574842D01*
G01X25335898Y-25526081D01*
G01X25361062Y-25480171D01*
G01X25390883Y-25437455D01*
G01X25425018Y-25398274D01*
G01X25463127Y-25362968D01*
G01X25504868Y-25331880D01*
G01X25549899Y-25305351D01*
G01X25597881Y-25283722D01*
G01X25648470Y-25267335D01*
G01X25701325Y-25256530D01*
G01X25756106Y-25251650D01*
G01X25772064Y-25251392D01*
G01X25772064Y-25251392D01*
G01X25809921Y-25252069D01*
G01X25843934Y-25254214D01*
G01X25874913Y-25257993D01*
G01X25903666Y-25263575D01*
G01X25931001Y-25271127D01*
G01X25957729Y-25280817D01*
G01X25984657Y-25292812D01*
G01X26012594Y-25307280D01*
G01X26042350Y-25324389D01*
G01X26074734Y-25344306D01*
G01X26110553Y-25367199D01*
G01X26150618Y-25393236D01*
G01X26195736Y-25422584D01*
G01X26246717Y-25455411D01*
G01X26304370Y-25491885D01*
G01X26369503Y-25532173D01*
G01X26442926Y-25576443D01*
G01X26525447Y-25624863D01*
G01X26617875Y-25677600D01*
G01X26721020Y-25734822D01*
G01X26721020Y-25734822D01*
G01X26721020Y-25734822D01*
G01X26614846Y-25794467D01*
G01X26520009Y-25849131D01*
G01X26435650Y-25899021D01*
G01X26360909Y-25944346D01*
G01X26294928Y-25985312D01*
G01X26236847Y-26022128D01*
G01X26185807Y-26055002D01*
G01X26140949Y-26084142D01*
G01X26101413Y-26109756D01*
G01X26066341Y-26132052D01*
G01X26034872Y-26151237D01*
G01X26006149Y-26167520D01*
G01X25979310Y-26181108D01*
G01X25953499Y-26192210D01*
G01X25927854Y-26201034D01*
G01X25901517Y-26207787D01*
G01X25873629Y-26212677D01*
G01X25843330Y-26215913D01*
G01X25809761Y-26217702D01*
G01X25772064Y-26218252D01*
G01X25772064Y-26218252D01*
G37*
G36*
G01X24422663Y-27143867D02*
G01X24422663Y-27143867D01*
G01X24368777Y-27131193D01*
G01X24317736Y-27112905D01*
G01X24269818Y-27089400D01*
G01X24225300Y-27061073D01*
G01X24184458Y-27028319D01*
G01X24147569Y-26991534D01*
G01X24114910Y-26951113D01*
G01X24086759Y-26907453D01*
G01X24063391Y-26860948D01*
G01X24045085Y-26811993D01*
G01X24032116Y-26760985D01*
G01X24024762Y-26708319D01*
G01X24023300Y-26654390D01*
G01X24028007Y-26599594D01*
G01X24030523Y-26583834D01*
G01X24030523Y-26583834D01*
G01X24043198Y-26529948D01*
G01X24061486Y-26478908D01*
G01X24084991Y-26430990D01*
G01X24113318Y-26386472D01*
G01X24146072Y-26345630D01*
G01X24182857Y-26308741D01*
G01X24223277Y-26276082D01*
G01X24266938Y-26247931D01*
G01X24313443Y-26224563D01*
G01X24362397Y-26206257D01*
G01X24413405Y-26193288D01*
G01X24466071Y-26185934D01*
G01X24520000Y-26184472D01*
G01X24574796Y-26189179D01*
G01X24590556Y-26191695D01*
G01X24590556Y-26191695D01*
G01X24627720Y-26198936D01*
G01X24660845Y-26206955D01*
G01X24690696Y-26216057D01*
G01X24718043Y-26226546D01*
G01X24743652Y-26238730D01*
G01X24768291Y-26252914D01*
G01X24792727Y-26269403D01*
G01X24817728Y-26288503D01*
G01X24844061Y-26310519D01*
G01X24872493Y-26335756D01*
G01X24903793Y-26364522D01*
G01X24938728Y-26397120D01*
G01X24978065Y-26433857D01*
G01X25022571Y-26475038D01*
G01X25073014Y-26520969D01*
G01X25130162Y-26571956D01*
G01X25194782Y-26628303D01*
G01X25267641Y-26690317D01*
G01X25349508Y-26758302D01*
G01X25441149Y-26832566D01*
G01X25441149Y-26832566D01*
G01X25441149Y-26832566D01*
G01X25326230Y-26872868D01*
G01X25223342Y-26910233D01*
G01X25131601Y-26944717D01*
G01X25050126Y-26976374D01*
G01X24978033Y-27005260D01*
G01X24914442Y-27031431D01*
G01X24858469Y-27054943D01*
G01X24809232Y-27075851D01*
G01X24765849Y-27094210D01*
G01X24727438Y-27110077D01*
G01X24693116Y-27123506D01*
G01X24662001Y-27134554D01*
G01X24633211Y-27143276D01*
G01X24605863Y-27149727D01*
G01X24579076Y-27153963D01*
G01X24551967Y-27156040D01*
G01X24523653Y-27156014D01*
G01X24493252Y-27153939D01*
G01X24459883Y-27149871D01*
G01X24422662Y-27143867D01*
G01X24422662Y-27143867D01*
G37*
G36*
G01X22563909Y-28424760D02*
G01X22563909Y-28424760D01*
G01X22513042Y-28402921D01*
G01X22465953Y-28376048D01*
G01X22422845Y-28344579D01*
G01X22383922Y-28308952D01*
G01X22349388Y-28269603D01*
G01X22319447Y-28226972D01*
G01X22294303Y-28181494D01*
G01X22274161Y-28133608D01*
G01X22259224Y-28083752D01*
G01X22249696Y-28032362D01*
G01X22245782Y-27979877D01*
G01X22247686Y-27926734D01*
G01X22255610Y-27873371D01*
G01X22269761Y-27820225D01*
G01X22274976Y-27805141D01*
G01X22274976Y-27805141D01*
G01X22296815Y-27754275D01*
G01X22323688Y-27707186D01*
G01X22355156Y-27664077D01*
G01X22390784Y-27625154D01*
G01X22430132Y-27590620D01*
G01X22472764Y-27560680D01*
G01X22518241Y-27535536D01*
G01X22566127Y-27515394D01*
G01X22615984Y-27500457D01*
G01X22667373Y-27490929D01*
G01X22719858Y-27487015D01*
G01X22773001Y-27488918D01*
G01X22826365Y-27496843D01*
G01X22879511Y-27510993D01*
G01X22894594Y-27516208D01*
G01X22894594Y-27516208D01*
G01X22929937Y-27529793D01*
G01X22961165Y-27543442D01*
G01X22988983Y-27557589D01*
G01X23014093Y-27572668D01*
G01X23037197Y-27589114D01*
G01X23058998Y-27607360D01*
G01X23080200Y-27627842D01*
G01X23101504Y-27650993D01*
G01X23123614Y-27677247D01*
G01X23147232Y-27707039D01*
G01X23173062Y-27740802D01*
G01X23201805Y-27778972D01*
G01X23234165Y-27821981D01*
G01X23270844Y-27870265D01*
G01X23312545Y-27924258D01*
G01X23359971Y-27984393D01*
G01X23413825Y-28051106D01*
G01X23474809Y-28124829D01*
G01X23543626Y-28205998D01*
G01X23620978Y-28295046D01*
G01X23620978Y-28295046D01*
G01X23620978Y-28295046D01*
G01X23500807Y-28314781D01*
G01X23392994Y-28333712D01*
G01X23296659Y-28351741D01*
G01X23210924Y-28368769D01*
G01X23134911Y-28384698D01*
G01X23067741Y-28399429D01*
G01X23008535Y-28412864D01*
G01X22956416Y-28424904D01*
G01X22910504Y-28435451D01*
G01X22869921Y-28444407D01*
G01X22833789Y-28451672D01*
G01X22801228Y-28457149D01*
G01X22771361Y-28460739D01*
G01X22743308Y-28462343D01*
G01X22716192Y-28461864D01*
G01X22689134Y-28459202D01*
G01X22661255Y-28454259D01*
G01X22631677Y-28446937D01*
G01X22599521Y-28437136D01*
G01X22563909Y-28424760D01*
G01X22563909Y-28424760D01*
G37*
G36*
G01X21144969Y-28961204D02*
G01X21144969Y-28961204D01*
G01X21098668Y-28930864D01*
G01X21056960Y-28896223D01*
G01X21019971Y-28857746D01*
G01X20987826Y-28815901D01*
G01X20960650Y-28771154D01*
G01X20938567Y-28723971D01*
G01X20921702Y-28674818D01*
G01X20910181Y-28624162D01*
G01X20904129Y-28572469D01*
G01X20903670Y-28520206D01*
G01X20908929Y-28467838D01*
G01X20920031Y-28415833D01*
G01X20937102Y-28364657D01*
G01X20960266Y-28314775D01*
G01X20968021Y-28300826D01*
G01X20968021Y-28300826D01*
G01X20998361Y-28254525D01*
G01X21033003Y-28212818D01*
G01X21071479Y-28175829D01*
G01X21113324Y-28143684D01*
G01X21158072Y-28116507D01*
G01X21205255Y-28094424D01*
G01X21254408Y-28077560D01*
G01X21305064Y-28066039D01*
G01X21356756Y-28059986D01*
G01X21409020Y-28059527D01*
G01X21461387Y-28064786D01*
G01X21513392Y-28075889D01*
G01X21564569Y-28092959D01*
G01X21614450Y-28116124D01*
G01X21628399Y-28123879D01*
G01X21628399Y-28123879D01*
G01X21660846Y-28143394D01*
G01X21689230Y-28162258D01*
G01X21714168Y-28181021D01*
G01X21736278Y-28200231D01*
G01X21756175Y-28220439D01*
G01X21774477Y-28242194D01*
G01X21791800Y-28266046D01*
G01X21808761Y-28292545D01*
G01X21825976Y-28322240D01*
G01X21844062Y-28355680D01*
G01X21863636Y-28393416D01*
G01X21885314Y-28435997D01*
G01X21909714Y-28483972D01*
G01X21937451Y-28537892D01*
G01X21969143Y-28598305D01*
G01X22005406Y-28665763D01*
G01X22046857Y-28740813D01*
G01X22094113Y-28824006D01*
G01X22147790Y-28915892D01*
G01X22208504Y-29017019D01*
G01X22208504Y-29017019D01*
G01X22208504Y-29017019D01*
G01X22086732Y-29015587D01*
G01X21977269Y-29015509D01*
G01X21879267Y-29016535D01*
G01X21791877Y-29018417D01*
G01X21714253Y-29020904D01*
G01X21645545Y-29023748D01*
G01X21584906Y-29026698D01*
G01X21531488Y-29029504D01*
G01X21484442Y-29031919D01*
G01X21442921Y-29033691D01*
G01X21406076Y-29034572D01*
G01X21373059Y-29034311D01*
G01X21343022Y-29032660D01*
G01X21315117Y-29029369D01*
G01X21288496Y-29024188D01*
G01X21262311Y-29016868D01*
G01X21235714Y-29007159D01*
G01X21207857Y-28994812D01*
G01X21177891Y-28979577D01*
G01X21144969Y-28961204D01*
G01X21144969Y-28961204D01*
G37*
G36*
G01X19382580Y-29182324D02*
G01X19382580Y-29182324D01*
G01X19342251Y-29144405D01*
G01X19307192Y-29103047D01*
G01X19277447Y-29058732D01*
G01X19253056Y-29011941D01*
G01X19234063Y-28963154D01*
G01X19220509Y-28912853D01*
G01X19212436Y-28861518D01*
G01X19209886Y-28809631D01*
G01X19212902Y-28757673D01*
G01X19221525Y-28706124D01*
G01X19235798Y-28655465D01*
G01X19255762Y-28606178D01*
G01X19281461Y-28558744D01*
G01X19312935Y-28513642D01*
G01X19322994Y-28501252D01*
G01X19322994Y-28501252D01*
G01X19360913Y-28460923D01*
G01X19402271Y-28425864D01*
G01X19446586Y-28396119D01*
G01X19493377Y-28371728D01*
G01X19542164Y-28352735D01*
G01X19592465Y-28339181D01*
G01X19643799Y-28331108D01*
G01X19695686Y-28328558D01*
G01X19747645Y-28331574D01*
G01X19799194Y-28340197D01*
G01X19849852Y-28354470D01*
G01X19899139Y-28374434D01*
G01X19946574Y-28400133D01*
G01X19991676Y-28431607D01*
G01X20004066Y-28441666D01*
G01X20004066Y-28441666D01*
G01X20032631Y-28466519D01*
G01X20057308Y-28490026D01*
G01X20078609Y-28512834D01*
G01X20097047Y-28535591D01*
G01X20113133Y-28558948D01*
G01X20127379Y-28583550D01*
G01X20140297Y-28610048D01*
G01X20152399Y-28639089D01*
G01X20164196Y-28671322D01*
G01X20176200Y-28707395D01*
G01X20188924Y-28747957D01*
G01X20202879Y-28793655D01*
G01X20218577Y-28845139D01*
G01X20236530Y-28903056D01*
G01X20257250Y-28968055D01*
G01X20281248Y-29040784D01*
G01X20309037Y-29121892D01*
G01X20341128Y-29212027D01*
G01X20378034Y-29311838D01*
G01X20420265Y-29421972D01*
G01X20420265Y-29421972D01*
G01X20420265Y-29421972D01*
G01X20300592Y-29399416D01*
G01X20192805Y-29380331D01*
G01X20096114Y-29364324D01*
G01X20009725Y-29351002D01*
G01X19932848Y-29339972D01*
G01X19864691Y-29330841D01*
G01X19804461Y-29323217D01*
G01X19751367Y-29316705D01*
G01X19704616Y-29310913D01*
G01X19663418Y-29305448D01*
G01X19626980Y-29299918D01*
G01X19594510Y-29293928D01*
G01X19565216Y-29287086D01*
G01X19538306Y-29278999D01*
G01X19512990Y-29269274D01*
G01X19488474Y-29257518D01*
G01X19463967Y-29243338D01*
G01X19438677Y-29226341D01*
G01X19411812Y-29206134D01*
G01X19382580Y-29182324D01*
G01X19382580Y-29182324D01*
G37*
G36*
G01X17662235Y-28843611D02*
G01X17662235Y-28843611D01*
G01X17629103Y-28799265D01*
G01X17601758Y-28752447D01*
G01X17580160Y-28703640D01*
G01X17564265Y-28653325D01*
G01X17554032Y-28601981D01*
G01X17549419Y-28550090D01*
G01X17550382Y-28498134D01*
G01X17556882Y-28446593D01*
G01X17568874Y-28395947D01*
G01X17586318Y-28346679D01*
G01X17609170Y-28299268D01*
G01X17637390Y-28254197D01*
G01X17670935Y-28211945D01*
G01X17709763Y-28172994D01*
G01X17721821Y-28162539D01*
G01X17721821Y-28162539D01*
G01X17766167Y-28129407D01*
G01X17812984Y-28102063D01*
G01X17861791Y-28080465D01*
G01X17912107Y-28064570D01*
G01X17963451Y-28054337D01*
G01X18015341Y-28049723D01*
G01X18067298Y-28050687D01*
G01X18118839Y-28057186D01*
G01X18169484Y-28069178D01*
G01X18218753Y-28086622D01*
G01X18266163Y-28109475D01*
G01X18311235Y-28137695D01*
G01X18353487Y-28171239D01*
G01X18392437Y-28210067D01*
G01X18402893Y-28222125D01*
G01X18402893Y-28222125D01*
G01X18426708Y-28251561D01*
G01X18446928Y-28278995D01*
G01X18463946Y-28305156D01*
G01X18478151Y-28330770D01*
G01X18489937Y-28356564D01*
G01X18499695Y-28383267D01*
G01X18507815Y-28411605D01*
G01X18514690Y-28442307D01*
G01X18520710Y-28476099D01*
G01X18526268Y-28513708D01*
G01X18531756Y-28555863D01*
G01X18537563Y-28603290D01*
G01X18544083Y-28656718D01*
G01X18551706Y-28716872D01*
G01X18560824Y-28784482D01*
G01X18571828Y-28860274D01*
G01X18585111Y-28944975D01*
G01X18601063Y-29039313D01*
G01X18620075Y-29144016D01*
G01X18642541Y-29259811D01*
G01X18642541Y-29259811D01*
G01X18642541Y-29259811D01*
G01X18528602Y-29216816D01*
G01X18425767Y-29179304D01*
G01X18333324Y-29146750D01*
G01X18250562Y-29118629D01*
G01X18176768Y-29094417D01*
G01X18111231Y-29073590D01*
G01X18053240Y-29055622D01*
G01X18002084Y-29039990D01*
G01X17957049Y-29026168D01*
G01X17917426Y-29013632D01*
G01X17882501Y-29001858D01*
G01X17851565Y-28990321D01*
G01X17823904Y-28978496D01*
G01X17798808Y-28965859D01*
G01X17775564Y-28951886D01*
G01X17753462Y-28936051D01*
G01X17731790Y-28917831D01*
G01X17709835Y-28896701D01*
G01X17686888Y-28872136D01*
G01X17662234Y-28843611D01*
G01X17662234Y-28843611D01*
G37*
G36*
G01X16180414Y-28446080D02*
G01X16180414Y-28446080D01*
G01X16155486Y-28396654D01*
G01X16136687Y-28345800D01*
G01X16123892Y-28293984D01*
G01X16116976Y-28241672D01*
G01X16115814Y-28189332D01*
G01X16120281Y-28137428D01*
G01X16130252Y-28086429D01*
G01X16145603Y-28036799D01*
G01X16166207Y-27989005D01*
G01X16191941Y-27943514D01*
G01X16222680Y-27900793D01*
G01X16258297Y-27861306D01*
G01X16298669Y-27825521D01*
G01X16343671Y-27793905D01*
G01X16357361Y-27785702D01*
G01X16357361Y-27785702D01*
G01X16406787Y-27760774D01*
G01X16457641Y-27741975D01*
G01X16509457Y-27729180D01*
G01X16561769Y-27722264D01*
G01X16614110Y-27721102D01*
G01X16666013Y-27725569D01*
G01X16717013Y-27735541D01*
G01X16766642Y-27750891D01*
G01X16814436Y-27771496D01*
G01X16859927Y-27797230D01*
G01X16902649Y-27827968D01*
G01X16942135Y-27863586D01*
G01X16977920Y-27903958D01*
G01X17009537Y-27948959D01*
G01X17017739Y-27962650D01*
G01X17017739Y-27962650D01*
G01X17036081Y-27995774D01*
G01X17051230Y-28026303D01*
G01X17063447Y-28055021D01*
G01X17072989Y-28082712D01*
G01X17080116Y-28110162D01*
G01X17085089Y-28138153D01*
G01X17088165Y-28167471D01*
G01X17089604Y-28198900D01*
G01X17089665Y-28233224D01*
G01X17088608Y-28271227D01*
G01X17086692Y-28313694D01*
G01X17084175Y-28361409D01*
G01X17081318Y-28415157D01*
G01X17078380Y-28475722D01*
G01X17075619Y-28543888D01*
G01X17073295Y-28620439D01*
G01X17071667Y-28706160D01*
G01X17070995Y-28801835D01*
G01X17071538Y-28908248D01*
G01X17073554Y-29026185D01*
G01X17073554Y-29026185D01*
G01X17073554Y-29026185D01*
G01X16968813Y-28964058D01*
G01X16874054Y-28909259D01*
G01X16788668Y-28861147D01*
G01X16712046Y-28819082D01*
G01X16643578Y-28782424D01*
G01X16582654Y-28750532D01*
G01X16528664Y-28722768D01*
G01X16480999Y-28698489D01*
G01X16439049Y-28677057D01*
G01X16402204Y-28657831D01*
G01X16369855Y-28640172D01*
G01X16341391Y-28623438D01*
G01X16316204Y-28606989D01*
G01X16293684Y-28590187D01*
G01X16273220Y-28572389D01*
G01X16254203Y-28552958D01*
G01X16236024Y-28531251D01*
G01X16218072Y-28506629D01*
G01X16199739Y-28478452D01*
G01X16180414Y-28446080D01*
G01X16180414Y-28446080D01*
G37*
G36*
G01X14581527Y-27794327D02*
G01X14581527Y-27794327D01*
G01X14565561Y-27741323D01*
G01X14555878Y-27687977D01*
G01X14552275Y-27634727D01*
G01X14554548Y-27582009D01*
G01X14562493Y-27530262D01*
G01X14575905Y-27479923D01*
G01X14594581Y-27431429D01*
G01X14618316Y-27385219D01*
G01X14646907Y-27341729D01*
G01X14680150Y-27301398D01*
G01X14717840Y-27264663D01*
G01X14759773Y-27231961D01*
G01X14805746Y-27203731D01*
G01X14855554Y-27180409D01*
G01X14870461Y-27174708D01*
G01X14870461Y-27174708D01*
G01X14923464Y-27158742D01*
G01X14976810Y-27149059D01*
G01X15030061Y-27145456D01*
G01X15082779Y-27147729D01*
G01X15134526Y-27155674D01*
G01X15184865Y-27169086D01*
G01X15233358Y-27187762D01*
G01X15279569Y-27211497D01*
G01X15323058Y-27240088D01*
G01X15363389Y-27273331D01*
G01X15400124Y-27311021D01*
G01X15432826Y-27352954D01*
G01X15461057Y-27398927D01*
G01X15484379Y-27448734D01*
G01X15490079Y-27463641D01*
G01X15490079Y-27463641D01*
G01X15502390Y-27499447D01*
G01X15512008Y-27532143D01*
G01X15519052Y-27562546D01*
G01X15523641Y-27591474D01*
G01X15525893Y-27619744D01*
G01X15525929Y-27648173D01*
G01X15523868Y-27677580D01*
G01X15519827Y-27708781D01*
G01X15513927Y-27742594D01*
G01X15506287Y-27779837D01*
G01X15497026Y-27821326D01*
G01X15486262Y-27867879D01*
G01X15474115Y-27920314D01*
G01X15460704Y-27979449D01*
G01X15446149Y-28046099D01*
G01X15430567Y-28121084D01*
G01X15414079Y-28205220D01*
G01X15396803Y-28299325D01*
G01X15378859Y-28404216D01*
G01X15360365Y-28520711D01*
G01X15360365Y-28520711D01*
G01X15360365Y-28520711D01*
G01X15268003Y-28441340D01*
G01X15184200Y-28370919D01*
G01X15108466Y-28308711D01*
G01X15040312Y-28253979D01*
G01X14979250Y-28205989D01*
G01X14924789Y-28164002D01*
G01X14876441Y-28127284D01*
G01X14833716Y-28095098D01*
G01X14796125Y-28066707D01*
G01X14763178Y-28041375D01*
G01X14734387Y-28018366D01*
G01X14709262Y-27996944D01*
G01X14687314Y-27976372D01*
G01X14668053Y-27955914D01*
G01X14650991Y-27934833D01*
G01X14635637Y-27912394D01*
G01X14621503Y-27887861D01*
G01X14608100Y-27860496D01*
G01X14594938Y-27829563D01*
G01X14581527Y-27794327D01*
G01X14581527Y-27794327D01*
G37*
G36*
G01X12671909Y-26780277D02*
G01X12671909Y-26780277D01*
G01X12665390Y-26725306D01*
G01X12665117Y-26671089D01*
G01X12670816Y-26618022D01*
G01X12682209Y-26566500D01*
G01X12699019Y-26516918D01*
G01X12720968Y-26469673D01*
G01X12747781Y-26425159D01*
G01X12779180Y-26383772D01*
G01X12814889Y-26345909D01*
G01X12854630Y-26311963D01*
G01X12898126Y-26282330D01*
G01X12945101Y-26257407D01*
G01X12995277Y-26237588D01*
G01X13048378Y-26223270D01*
G01X13064049Y-26220244D01*
G01X13064049Y-26220244D01*
G01X13119020Y-26213724D01*
G01X13173237Y-26213452D01*
G01X13226304Y-26219151D01*
G01X13277826Y-26230544D01*
G01X13327407Y-26247353D01*
G01X13374653Y-26269303D01*
G01X13419167Y-26296116D01*
G01X13460553Y-26327515D01*
G01X13498417Y-26363224D01*
G01X13532363Y-26402965D01*
G01X13561995Y-26446461D01*
G01X13586919Y-26493436D01*
G01X13606737Y-26543612D01*
G01X13621056Y-26596713D01*
G01X13624081Y-26612383D01*
G01X13624081Y-26612383D01*
G01X13629988Y-26649783D01*
G01X13633782Y-26683652D01*
G01X13635439Y-26714817D01*
G01X13634935Y-26744102D01*
G01X13632244Y-26772334D01*
G01X13627343Y-26800338D01*
G01X13620206Y-26828939D01*
G01X13610809Y-26858965D01*
G01X13599128Y-26891240D01*
G01X13585136Y-26926590D01*
G01X13568811Y-26965840D01*
G01X13550127Y-27009817D01*
G01X13529059Y-27059347D01*
G01X13505584Y-27115254D01*
G01X13479675Y-27178364D01*
G01X13451309Y-27249504D01*
G01X13420462Y-27329499D01*
G01X13387107Y-27419174D01*
G01X13351222Y-27519356D01*
G01X13312780Y-27630870D01*
G01X13312780Y-27630870D01*
G01X13312780Y-27630870D01*
G01X13235603Y-27536666D01*
G01X13165302Y-27452762D01*
G01X13101521Y-27378348D01*
G01X13043907Y-27312613D01*
G01X12992105Y-27254748D01*
G01X12945763Y-27203943D01*
G01X12904525Y-27159387D01*
G01X12868038Y-27120270D01*
G01X12835948Y-27085783D01*
G01X12807901Y-27055115D01*
G01X12783543Y-27027456D01*
G01X12762519Y-27001996D01*
G01X12744477Y-26977926D01*
G01X12729061Y-26954434D01*
G01X12715919Y-26930711D01*
G01X12704695Y-26905947D01*
G01X12695036Y-26879331D01*
G01X12686588Y-26850055D01*
G01X12678997Y-26817307D01*
G01X12671909Y-26780277D01*
G01X12671909Y-26780277D01*
G37*
G36*
G01X11445575Y-25837970D02*
G01X11445575Y-25837970D01*
G01X11448699Y-25782702D01*
G01X11457846Y-25729261D01*
G01X11472673Y-25677990D01*
G01X11492840Y-25629229D01*
G01X11518004Y-25583319D01*
G01X11547824Y-25540603D01*
G01X11581959Y-25501422D01*
G01X11620068Y-25466116D01*
G01X11661809Y-25435028D01*
G01X11706841Y-25408499D01*
G01X11754822Y-25386870D01*
G01X11805411Y-25370483D01*
G01X11858267Y-25359678D01*
G01X11913048Y-25354798D01*
G01X11929005Y-25354540D01*
G01X11929005Y-25354540D01*
G01X11984273Y-25357664D01*
G01X12037714Y-25366811D01*
G01X12088985Y-25381638D01*
G01X12137746Y-25401805D01*
G01X12183655Y-25426969D01*
G01X12226371Y-25456789D01*
G01X12265553Y-25490924D01*
G01X12300858Y-25529033D01*
G01X12331946Y-25570774D01*
G01X12358476Y-25615806D01*
G01X12380105Y-25663787D01*
G01X12396492Y-25714376D01*
G01X12407297Y-25767232D01*
G01X12412177Y-25822012D01*
G01X12412435Y-25837970D01*
G01X12412435Y-25837970D01*
G01X12411758Y-25875827D01*
G01X12409613Y-25909841D01*
G01X12405833Y-25940819D01*
G01X12400251Y-25969572D01*
G01X12392699Y-25996907D01*
G01X12383010Y-26023635D01*
G01X12371015Y-26050563D01*
G01X12356547Y-26078501D01*
G01X12339438Y-26108257D01*
G01X12319521Y-26140640D01*
G01X12296627Y-26176459D01*
G01X12270591Y-26216524D01*
G01X12241242Y-26261642D01*
G01X12208415Y-26312623D01*
G01X12171941Y-26370276D01*
G01X12131653Y-26435410D01*
G01X12087383Y-26508832D01*
G01X12038964Y-26591353D01*
G01X11986227Y-26683782D01*
G01X11929005Y-26786926D01*
G01X11929005Y-26786926D01*
G01X11929005Y-26786926D01*
G01X11869359Y-26680752D01*
G01X11814695Y-26585915D01*
G01X11764805Y-26501556D01*
G01X11719481Y-26426815D01*
G01X11678515Y-26360834D01*
G01X11641699Y-26302753D01*
G01X11608825Y-26251714D01*
G01X11579685Y-26206855D01*
G01X11554071Y-26167320D01*
G01X11531775Y-26132247D01*
G01X11512590Y-26100779D01*
G01X11496307Y-26072055D01*
G01X11482718Y-26045217D01*
G01X11471616Y-26019405D01*
G01X11462793Y-25993760D01*
G01X11456040Y-25967423D01*
G01X11451149Y-25939535D01*
G01X11447914Y-25909236D01*
G01X11446125Y-25875668D01*
G01X11445575Y-25837970D01*
G01X11445575Y-25837970D01*
G37*
G36*
G01X10372885Y-24422255D02*
G01X10372885Y-24422255D01*
G01X10385560Y-24368369D01*
G01X10403847Y-24317329D01*
G01X10427352Y-24269411D01*
G01X10455679Y-24224893D01*
G01X10488433Y-24184051D01*
G01X10525218Y-24147162D01*
G01X10565639Y-24114503D01*
G01X10609299Y-24086352D01*
G01X10655805Y-24062984D01*
G01X10704759Y-24044678D01*
G01X10755767Y-24031709D01*
G01X10808433Y-24024355D01*
G01X10862362Y-24022893D01*
G01X10917158Y-24027600D01*
G01X10932918Y-24030116D01*
G01X10932918Y-24030116D01*
G01X10986804Y-24042791D01*
G01X11037844Y-24061078D01*
G01X11085762Y-24084584D01*
G01X11130280Y-24112911D01*
G01X11171122Y-24145665D01*
G01X11208011Y-24182449D01*
G01X11240670Y-24222870D01*
G01X11268821Y-24266531D01*
G01X11292189Y-24313036D01*
G01X11310495Y-24361990D01*
G01X11323464Y-24412998D01*
G01X11330818Y-24465664D01*
G01X11332280Y-24519593D01*
G01X11327573Y-24574389D01*
G01X11325057Y-24590149D01*
G01X11325057Y-24590149D01*
G01X11317816Y-24627313D01*
G01X11309797Y-24660438D01*
G01X11300696Y-24690289D01*
G01X11290206Y-24717636D01*
G01X11278022Y-24743245D01*
G01X11263838Y-24767884D01*
G01X11247349Y-24792320D01*
G01X11228249Y-24817321D01*
G01X11206233Y-24843654D01*
G01X11180996Y-24872086D01*
G01X11152230Y-24903386D01*
G01X11119632Y-24938321D01*
G01X11082895Y-24977657D01*
G01X11041714Y-25022164D01*
G01X10995783Y-25072607D01*
G01X10944796Y-25129755D01*
G01X10888449Y-25194375D01*
G01X10826435Y-25267234D01*
G01X10758450Y-25349101D01*
G01X10684186Y-25440741D01*
G01X10684186Y-25440741D01*
G01X10684186Y-25440741D01*
G01X10643884Y-25325823D01*
G01X10606519Y-25222935D01*
G01X10572035Y-25131194D01*
G01X10540378Y-25049718D01*
G01X10511492Y-24977626D01*
G01X10485321Y-24914034D01*
G01X10461809Y-24858061D01*
G01X10440901Y-24808825D01*
G01X10422542Y-24765442D01*
G01X10406675Y-24727030D01*
G01X10393246Y-24692709D01*
G01X10382198Y-24661594D01*
G01X10373476Y-24632804D01*
G01X10367025Y-24605456D01*
G01X10362789Y-24578669D01*
G01X10360712Y-24551559D01*
G01X10360738Y-24523246D01*
G01X10362813Y-24492845D01*
G01X10366881Y-24459476D01*
G01X10372885Y-24422255D01*
G01X10372885Y-24422255D01*
G37*
G36*
G01X9562329Y-22841779D02*
G01X9562329Y-22841779D01*
G01X9584168Y-22790912D01*
G01X9611041Y-22743823D01*
G01X9642509Y-22700715D01*
G01X9678137Y-22661792D01*
G01X9717485Y-22627258D01*
G01X9760117Y-22597317D01*
G01X9805594Y-22572173D01*
G01X9853480Y-22552031D01*
G01X9903337Y-22537094D01*
G01X9954726Y-22527567D01*
G01X10007211Y-22523652D01*
G01X10060354Y-22525556D01*
G01X10113718Y-22533480D01*
G01X10166864Y-22547631D01*
G01X10181947Y-22552846D01*
G01X10181947Y-22552846D01*
G01X10232814Y-22574685D01*
G01X10279903Y-22601558D01*
G01X10323011Y-22633027D01*
G01X10361934Y-22668654D01*
G01X10396468Y-22708002D01*
G01X10426409Y-22750634D01*
G01X10451553Y-22796112D01*
G01X10471695Y-22843997D01*
G01X10486632Y-22893854D01*
G01X10496159Y-22945243D01*
G01X10500074Y-22997728D01*
G01X10498170Y-23050871D01*
G01X10490246Y-23104235D01*
G01X10476095Y-23157381D01*
G01X10470880Y-23172464D01*
G01X10470880Y-23172464D01*
G01X10457296Y-23207807D01*
G01X10443647Y-23239035D01*
G01X10429500Y-23266853D01*
G01X10414421Y-23291963D01*
G01X10397975Y-23315067D01*
G01X10379728Y-23336868D01*
G01X10359247Y-23358070D01*
G01X10336096Y-23379374D01*
G01X10309842Y-23401484D01*
G01X10280050Y-23425103D01*
G01X10246286Y-23450932D01*
G01X10208117Y-23479675D01*
G01X10165107Y-23512035D01*
G01X10116823Y-23548714D01*
G01X10062831Y-23590415D01*
G01X10002695Y-23637841D01*
G01X9935983Y-23691695D01*
G01X9862260Y-23752679D01*
G01X9781091Y-23821496D01*
G01X9692042Y-23898849D01*
G01X9692042Y-23898849D01*
G01X9692042Y-23898849D01*
G01X9672307Y-23778678D01*
G01X9653376Y-23670864D01*
G01X9635348Y-23574529D01*
G01X9618319Y-23488794D01*
G01X9602391Y-23412781D01*
G01X9587660Y-23345611D01*
G01X9574225Y-23286405D01*
G01X9562184Y-23234286D01*
G01X9551637Y-23188374D01*
G01X9542682Y-23147791D01*
G01X9535416Y-23111659D01*
G01X9529939Y-23079098D01*
G01X9526350Y-23049231D01*
G01X9524745Y-23021179D01*
G01X9525225Y-22994063D01*
G01X9527887Y-22967004D01*
G01X9532830Y-22939125D01*
G01X9540152Y-22909547D01*
G01X9549952Y-22877391D01*
G01X9562329Y-22841779D01*
G01X9562329Y-22841779D01*
G37*
G36*
G01X9396301Y-21037231D02*
G01X9396301Y-21037231D01*
G01X9426641Y-20990930D01*
G01X9461282Y-20949222D01*
G01X9499759Y-20912233D01*
G01X9541604Y-20880088D01*
G01X9586351Y-20852912D01*
G01X9633534Y-20830829D01*
G01X9682687Y-20813964D01*
G01X9733343Y-20802443D01*
G01X9785036Y-20796391D01*
G01X9837299Y-20795932D01*
G01X9889666Y-20801191D01*
G01X9941672Y-20812293D01*
G01X9992848Y-20829364D01*
G01X10042730Y-20852528D01*
G01X10056679Y-20860283D01*
G01X10056679Y-20860283D01*
G01X10102980Y-20890624D01*
G01X10144687Y-20925265D01*
G01X10181676Y-20963741D01*
G01X10213821Y-21005587D01*
G01X10240998Y-21050334D01*
G01X10263081Y-21097517D01*
G01X10279945Y-21146670D01*
G01X10291466Y-21197326D01*
G01X10297519Y-21249019D01*
G01X10297978Y-21301282D01*
G01X10292719Y-21353649D01*
G01X10281616Y-21405654D01*
G01X10264545Y-21456831D01*
G01X10241381Y-21506712D01*
G01X10233626Y-21520661D01*
G01X10233626Y-21520661D01*
G01X10214111Y-21553108D01*
G01X10195247Y-21581492D01*
G01X10176484Y-21606430D01*
G01X10157274Y-21628540D01*
G01X10137066Y-21648437D01*
G01X10115310Y-21666739D01*
G01X10091458Y-21684062D01*
G01X10064960Y-21701023D01*
G01X10035265Y-21718238D01*
G01X10001825Y-21736324D01*
G01X9964089Y-21755898D01*
G01X9921508Y-21777576D01*
G01X9873533Y-21801976D01*
G01X9819613Y-21829713D01*
G01X9759199Y-21861405D01*
G01X9691742Y-21897668D01*
G01X9616692Y-21939119D01*
G01X9533499Y-21986375D01*
G01X9441613Y-22040052D01*
G01X9340485Y-22100766D01*
G01X9340485Y-22100766D01*
G01X9340485Y-22100766D01*
G01X9341918Y-21978994D01*
G01X9341996Y-21869531D01*
G01X9340969Y-21771529D01*
G01X9339088Y-21684139D01*
G01X9336600Y-21606515D01*
G01X9333757Y-21537807D01*
G01X9330807Y-21477169D01*
G01X9328000Y-21423750D01*
G01X9325586Y-21376704D01*
G01X9323814Y-21335183D01*
G01X9322933Y-21298338D01*
G01X9323193Y-21265321D01*
G01X9324844Y-21235284D01*
G01X9328136Y-21207379D01*
G01X9333316Y-21180758D01*
G01X9340637Y-21154574D01*
G01X9350346Y-21127976D01*
G01X9362693Y-21100119D01*
G01X9377928Y-21070153D01*
G01X9396301Y-21037231D01*
G01X9396301Y-21037231D01*
G37*
G36*
G01X9318288Y-19525279D02*
G01X9318288Y-19525279D01*
G01X9356207Y-19484950D01*
G01X9397565Y-19449891D01*
G01X9441879Y-19420146D01*
G01X9488671Y-19395755D01*
G01X9537457Y-19376762D01*
G01X9587759Y-19363208D01*
G01X9639093Y-19355135D01*
G01X9690980Y-19352585D01*
G01X9742938Y-19355601D01*
G01X9794487Y-19364224D01*
G01X9845146Y-19378497D01*
G01X9894433Y-19398461D01*
G01X9941868Y-19424160D01*
G01X9986969Y-19455634D01*
G01X9999360Y-19465693D01*
G01X9999360Y-19465693D01*
G01X10039689Y-19503612D01*
G01X10074747Y-19544970D01*
G01X10104493Y-19589285D01*
G01X10128883Y-19636076D01*
G01X10147877Y-19684863D01*
G01X10161431Y-19735164D01*
G01X10169504Y-19786498D01*
G01X10172053Y-19838385D01*
G01X10169038Y-19890344D01*
G01X10160414Y-19941893D01*
G01X10146142Y-19992551D01*
G01X10126177Y-20041839D01*
G01X10100479Y-20089273D01*
G01X10069005Y-20134375D01*
G01X10058946Y-20146765D01*
G01X10058946Y-20146765D01*
G01X10034092Y-20175330D01*
G01X10010586Y-20200007D01*
G01X9987778Y-20221308D01*
G01X9965020Y-20239746D01*
G01X9941664Y-20255832D01*
G01X9917061Y-20270078D01*
G01X9890563Y-20282996D01*
G01X9861522Y-20295098D01*
G01X9829289Y-20306895D01*
G01X9793216Y-20318899D01*
G01X9752655Y-20331623D01*
G01X9706956Y-20345578D01*
G01X9655473Y-20361276D01*
G01X9597556Y-20379229D01*
G01X9532557Y-20399949D01*
G01X9459827Y-20423947D01*
G01X9378719Y-20451736D01*
G01X9288584Y-20483827D01*
G01X9188774Y-20520733D01*
G01X9078639Y-20562965D01*
G01X9078639Y-20562965D01*
G01X9078639Y-20562965D01*
G01X9101195Y-20443291D01*
G01X9120281Y-20335504D01*
G01X9136287Y-20238813D01*
G01X9149609Y-20152425D01*
G01X9160639Y-20075548D01*
G01X9169770Y-20007390D01*
G01X9177395Y-19947160D01*
G01X9183907Y-19894066D01*
G01X9189698Y-19847315D01*
G01X9195163Y-19806117D01*
G01X9200694Y-19769679D01*
G01X9206684Y-19737209D01*
G01X9213525Y-19707915D01*
G01X9221612Y-19681006D01*
G01X9231337Y-19655689D01*
G01X9243093Y-19631173D01*
G01X9257273Y-19606666D01*
G01X9274270Y-19581376D01*
G01X9294477Y-19554511D01*
G01X9318288Y-19525279D01*
G01X9318288Y-19525279D01*
G37*
G36*
G01X14338214Y-21011922D02*
G01X14121724Y-21286934D01*
G01X13689561Y-20946734D01*
G01X13906052Y-20671722D01*
G01X14338214Y-21011922D01*
G37*
G36*
G01X14585633Y-20697620D02*
G01X14369143Y-20972633D01*
G01X13936981Y-20632433D01*
G01X14153471Y-20357421D01*
G01X14585633Y-20697620D01*
G37*
G36*
G01X14833051Y-20383321D02*
G01X14616560Y-20658334D01*
G01X14184398Y-20318134D01*
G01X14400889Y-20043122D01*
G01X14833051Y-20383321D01*
G37*
G36*
G01X15516838Y-21939739D02*
G01X15300348Y-22214751D01*
G01X14868185Y-21874552D01*
G01X15084676Y-21599539D01*
G01X15516838Y-21939739D01*
G37*
G36*
G01X15764258Y-21625438D02*
G01X15547767Y-21900450D01*
G01X15115605Y-21560250D01*
G01X15332095Y-21285238D01*
G01X15764258Y-21625438D01*
G37*
G36*
G01X16011675Y-21311139D02*
G01X15795184Y-21586151D01*
G01X15363022Y-21245951D01*
G01X15579513Y-20970939D01*
G01X16011675Y-21311139D01*
G37*
G36*
G01X22947293Y-21836961D02*
G01X22872149Y-21495123D01*
G01X23409323Y-21377039D01*
G01X23484468Y-21718877D01*
G01X22947293Y-21836961D01*
G37*
G36*
G01X23033173Y-22227635D02*
G01X22958029Y-21885797D01*
G01X23495203Y-21767713D01*
G01X23570347Y-22109551D01*
G01X23033173Y-22227635D01*
G37*
G36*
G01X23119052Y-22618306D02*
G01X23043908Y-22276468D01*
G01X23581082Y-22158384D01*
G01X23656227Y-22500222D01*
G01X23119052Y-22618306D01*
G37*
G36*
G01X21482273Y-22159009D02*
G01X21407128Y-21817171D01*
G01X21944303Y-21699087D01*
G01X22019447Y-22040925D01*
G01X21482273Y-22159009D01*
G37*
G36*
G01X21568153Y-22549683D02*
G01X21493008Y-22207845D01*
G01X22030182Y-22089761D01*
G01X22105327Y-22431599D01*
G01X21568153Y-22549683D01*
G37*
G36*
G01X21654032Y-22940354D02*
G01X21578887Y-22598516D01*
G01X22116062Y-22480432D01*
G01X22191206Y-22822270D01*
G01X21654032Y-22940354D01*
G37*
G36*
G01X7918452Y-6225747D02*
G01X7743452Y-5922638D01*
G01X8219766Y-5647638D01*
G01X8394766Y-5950747D01*
G01X7918452Y-6225747D01*
G37*
G36*
G01X8118453Y-6572159D02*
G01X7943453Y-6269050D01*
G01X8419767Y-5994050D01*
G01X8594767Y-6297159D01*
G01X8118453Y-6572159D01*
G37*
G36*
G01X8318452Y-6918569D02*
G01X8143452Y-6615460D01*
G01X8619766Y-6340460D01*
G01X8794766Y-6643569D01*
G01X8318452Y-6918569D01*
G37*
G36*
G01X6619414Y-6975747D02*
G01X6444414Y-6672638D01*
G01X6920728Y-6397638D01*
G01X7095728Y-6700747D01*
G01X6619414Y-6975747D01*
G37*
G36*
G01X6819415Y-7322159D02*
G01X6644415Y-7019050D01*
G01X7120729Y-6744050D01*
G01X7295729Y-7047159D01*
G01X6819415Y-7322159D01*
G37*
G36*
G01X7019414Y-7668569D02*
G01X6844414Y-7365460D01*
G01X7320728Y-7090460D01*
G01X7495728Y-7393569D01*
G01X7019414Y-7668569D01*
G37*
G36*
G01X2952119Y-15798403D02*
G01X3296801Y-15737626D01*
G01X3392308Y-16279270D01*
G01X3047625Y-16340047D01*
G01X2952119Y-15798403D01*
G37*
G36*
G01X2558193Y-15867862D02*
G01X2902876Y-15807085D01*
G01X2998383Y-16348730D01*
G01X2653700Y-16409506D01*
G01X2558193Y-15867862D01*
G37*
G36*
G01X2164271Y-15937321D02*
G01X2508954Y-15876544D01*
G01X2604461Y-16418189D01*
G01X2259778Y-16478966D01*
G01X2164271Y-15937321D01*
G37*
G36*
G01X2691646Y-14321191D02*
G01X3036329Y-14260414D01*
G01X3131836Y-14802058D01*
G01X2787153Y-14862835D01*
G01X2691646Y-14321191D01*
G37*
G36*
G01X2297721Y-14390651D02*
G01X2642404Y-14329874D01*
G01X2737910Y-14871518D01*
G01X2393228Y-14932295D01*
G01X2297721Y-14390651D01*
G37*
G36*
G01X1903799Y-14460110D02*
G01X2248482Y-14399333D01*
G01X2343988Y-14940977D01*
G01X1999306Y-15001754D01*
G01X1903799Y-14460110D01*
G37*
G36*
G01X24523934Y-3042308D02*
G01X24698934Y-2739199D01*
G01X25175248Y-3014199D01*
G01X25000248Y-3317308D01*
G01X24523934Y-3042308D01*
G37*
G36*
G01X24323933Y-3388720D02*
G01X24498933Y-3085611D01*
G01X24975247Y-3360611D01*
G01X24800247Y-3663720D01*
G01X24323933Y-3388720D01*
G37*
G36*
G01X24123933Y-3735130D02*
G01X24298933Y-3432021D01*
G01X24775247Y-3707021D01*
G01X24600247Y-4010130D01*
G01X24123933Y-3735130D01*
G37*
G36*
G01X23224896Y-2292308D02*
G01X23399896Y-1989199D01*
G01X23876210Y-2264199D01*
G01X23701210Y-2567308D01*
G01X23224896Y-2292308D01*
G37*
G36*
G01X23024895Y-2638720D02*
G01X23199895Y-2335611D01*
G01X23676209Y-2610611D01*
G01X23501209Y-2913720D01*
G01X23024895Y-2638720D01*
G37*
G36*
G01X22824895Y-2985130D02*
G01X22999895Y-2682021D01*
G01X23476209Y-2957021D01*
G01X23301209Y-3260130D01*
G01X22824895Y-2985130D01*
G37*
G36*
G01X13780829Y-3477349D02*
G01X14005805Y-3745464D01*
G01X13584480Y-4098998D01*
G01X13359505Y-3830882D01*
G01X13780829Y-3477349D01*
G37*
G36*
G01X13523713Y-3170930D02*
G01X13748688Y-3439045D01*
G01X13327364Y-3792578D01*
G01X13102388Y-3524463D01*
G01X13523713Y-3170930D01*
G37*
G36*
G01X13266598Y-2864513D02*
G01X13491574Y-3132628D01*
G01X13070249Y-3486161D01*
G01X12845274Y-3218046D01*
G01X13266598Y-2864513D01*
G37*
G36*
G01X14929896Y-2513167D02*
G01X15154871Y-2781283D01*
G01X14733547Y-3134816D01*
G01X14508571Y-2866701D01*
G01X14929896Y-2513167D01*
G37*
G36*
G01X14672779Y-2206748D02*
G01X14897755Y-2474864D01*
G01X14476431Y-2828397D01*
G01X14251455Y-2560281D01*
G01X14672779Y-2206748D01*
G37*
G36*
G01X14415665Y-1900331D02*
G01X14640641Y-2168447D01*
G01X14219316Y-2521980D01*
G01X13994340Y-2253864D01*
G01X14415665Y-1900331D01*
G37*
G36*
G01X35593693Y-15836946D02*
G01X35943692Y-15836946D01*
G01X35943692Y-16386946D01*
G01X35593693Y-16386946D01*
G01X35593693Y-15836946D01*
G37*
G36*
G01X35193691Y-15836946D02*
G01X35543690Y-15836946D01*
G01X35543690Y-16386946D01*
G01X35193691Y-16386946D01*
G01X35193691Y-15836946D01*
G37*
G36*
G01X34793692Y-15836946D02*
G01X35143692Y-15836946D01*
G01X35143692Y-16386946D01*
G01X34793692Y-16386946D01*
G01X34793692Y-15836946D01*
G37*
G36*
G01X35593693Y-14336946D02*
G01X35943692Y-14336946D01*
G01X35943692Y-14886946D01*
G01X35593693Y-14886946D01*
G01X35593693Y-14336946D01*
G37*
G36*
G01X35193691Y-14336946D02*
G01X35543690Y-14336946D01*
G01X35543690Y-14886946D01*
G01X35193691Y-14886946D01*
G01X35193691Y-14336946D01*
G37*
G36*
G01X34793692Y-14336946D02*
G01X35143692Y-14336946D01*
G01X35143692Y-14886946D01*
G01X34793692Y-14886946D01*
G01X34793692Y-14336946D01*
G37*
G36*
G01X29867384Y-6719351D02*
G01X29747677Y-7048244D01*
G01X29230846Y-6860133D01*
G01X29350553Y-6531240D01*
G01X29867384Y-6719351D01*
G37*
G36*
G01X30004193Y-6343472D02*
G01X29884486Y-6672365D01*
G01X29367655Y-6484254D01*
G01X29487362Y-6155361D01*
G01X30004193Y-6343472D01*
G37*
G36*
G01X30141000Y-5967596D02*
G01X30021293Y-6296489D01*
G01X29504462Y-6108378D01*
G01X29624169Y-5779485D01*
G01X30141000Y-5967596D01*
G37*
G36*
G01X31276923Y-7232381D02*
G01X31157216Y-7561274D01*
G01X30640385Y-7373163D01*
G01X30760092Y-7044270D01*
G01X31276923Y-7232381D01*
G37*
G36*
G01X31413732Y-6856503D02*
G01X31294025Y-7185395D01*
G01X30777194Y-6997284D01*
G01X30896901Y-6668391D01*
G01X31413732Y-6856503D01*
G37*
G36*
G01X31550539Y-6480626D02*
G01X31430832Y-6809519D01*
G01X30914001Y-6621408D01*
G01X31033708Y-6292515D01*
G01X31550539Y-6480626D01*
G37*
G36*
G01X30110085Y-31733922D02*
G01X30285085Y-32037031D01*
G01X29808771Y-32312031D01*
G01X29633771Y-32008922D01*
G01X30110085Y-31733922D01*
G37*
G36*
G01X29910084Y-31387510D02*
G01X30085084Y-31690619D01*
G01X29608770Y-31965619D01*
G01X29433770Y-31662510D01*
G01X29910084Y-31387510D01*
G37*
G36*
G01X29710085Y-31041100D02*
G01X29885085Y-31344209D01*
G01X29408771Y-31619209D01*
G01X29233771Y-31316100D01*
G01X29710085Y-31041100D01*
G37*
G36*
G01X31409123Y-30983922D02*
G01X31584123Y-31287031D01*
G01X31107809Y-31562031D01*
G01X30932809Y-31258922D01*
G01X31409123Y-30983922D01*
G37*
G36*
G01X31209122Y-30637510D02*
G01X31384122Y-30940619D01*
G01X30907808Y-31215619D01*
G01X30732808Y-30912510D01*
G01X31209122Y-30637510D01*
G37*
G36*
G01X31009123Y-30291100D02*
G01X31184123Y-30594209D01*
G01X30707809Y-30869209D01*
G01X30532809Y-30566100D01*
G01X31009123Y-30291100D01*
G37*
G36*
G01X35064628Y-22228798D02*
G01X34719946Y-22289575D01*
G01X34624439Y-21747931D01*
G01X34969122Y-21687154D01*
G01X35064628Y-22228798D01*
G37*
G36*
G01X35458554Y-22159339D02*
G01X35113871Y-22220116D01*
G01X35018364Y-21678471D01*
G01X35363047Y-21617695D01*
G01X35458554Y-22159339D01*
G37*
G36*
G01X35852476Y-22089880D02*
G01X35507793Y-22150657D01*
G01X35412286Y-21609012D01*
G01X35756969Y-21548235D01*
G01X35852476Y-22089880D01*
G37*
G36*
G01X35325101Y-23706010D02*
G01X34980418Y-23766787D01*
G01X34884912Y-23225143D01*
G01X35229594Y-23164366D01*
G01X35325101Y-23706010D01*
G37*
G36*
G01X35719026Y-23636550D02*
G01X35374343Y-23697327D01*
G01X35278837Y-23155683D01*
G01X35623519Y-23094906D01*
G01X35719026Y-23636550D01*
G37*
G36*
G01X36112948Y-23567091D02*
G01X35768265Y-23627868D01*
G01X35672759Y-23086224D01*
G01X36017441Y-23025447D01*
G01X36112948Y-23567091D01*
G37*
G36*
G01X13435957Y-34963360D02*
G01X13260957Y-35266469D01*
G01X12784643Y-34991469D01*
G01X12959643Y-34688360D01*
G01X13435957Y-34963360D01*
G37*
G36*
G01X13635958Y-34616948D02*
G01X13460958Y-34920057D01*
G01X12984644Y-34645057D01*
G01X13159644Y-34341948D01*
G01X13635958Y-34616948D01*
G37*
G36*
G01X13835958Y-34270538D02*
G01X13660958Y-34573647D01*
G01X13184644Y-34298647D01*
G01X13359644Y-33995538D01*
G01X13835958Y-34270538D01*
G37*
G36*
G01X14734995Y-35713360D02*
G01X14559995Y-36016469D01*
G01X14083681Y-35741469D01*
G01X14258681Y-35438360D01*
G01X14734995Y-35713360D01*
G37*
G36*
G01X14934996Y-35366948D02*
G01X14759996Y-35670057D01*
G01X14283682Y-35395057D01*
G01X14458682Y-35091948D01*
G01X14934996Y-35366948D01*
G37*
G36*
G01X15134996Y-35020538D02*
G01X14959996Y-35323647D01*
G01X14483682Y-35048647D01*
G01X14658682Y-34745538D01*
G01X15134996Y-35020538D01*
G37*
G36*
G01X24138809Y-34588699D02*
G01X23913833Y-34320584D01*
G01X24335158Y-33967050D01*
G01X24560133Y-34235166D01*
G01X24138809Y-34588699D01*
G37*
G36*
G01X24395925Y-34895118D02*
G01X24170950Y-34627003D01*
G01X24592274Y-34273470D01*
G01X24817250Y-34541585D01*
G01X24395925Y-34895118D01*
G37*
G36*
G01X24653040Y-35201535D02*
G01X24428064Y-34933420D01*
G01X24849389Y-34579887D01*
G01X25074364Y-34848002D01*
G01X24653040Y-35201535D01*
G37*
G36*
G01X22989742Y-35552881D02*
G01X22764767Y-35284765D01*
G01X23186091Y-34931232D01*
G01X23411067Y-35199347D01*
G01X22989742Y-35552881D01*
G37*
G36*
G01X23246859Y-35859300D02*
G01X23021883Y-35591184D01*
G01X23443207Y-35237651D01*
G01X23668183Y-35505767D01*
G01X23246859Y-35859300D01*
G37*
G36*
G01X23503973Y-36165717D02*
G01X23278997Y-35897601D01*
G01X23700322Y-35544068D01*
G01X23925298Y-35812184D01*
G01X23503973Y-36165717D01*
G37*
G36*
G01X2386325Y-22202638D02*
G01X2036325Y-22202638D01*
G01X2036325Y-21652638D01*
G01X2386325Y-21652638D01*
G01X2386325Y-22202638D01*
G37*
G36*
G01X2786328Y-22202638D02*
G01X2436327Y-22202638D01*
G01X2436327Y-21652638D01*
G01X2786328Y-21652638D01*
G01X2786328Y-22202638D01*
G37*
G36*
G01X3186326Y-22202638D02*
G01X2836327Y-22202638D01*
G01X2836327Y-21652638D01*
G01X3186326Y-21652638D01*
G01X3186326Y-22202638D01*
G37*
G36*
G01X2386325Y-23702638D02*
G01X2036325Y-23702638D01*
G01X2036325Y-23152638D01*
G01X2386325Y-23152638D01*
G01X2386325Y-23702638D01*
G37*
G36*
G01X2786328Y-23702638D02*
G01X2436327Y-23702638D01*
G01X2436327Y-23152638D01*
G01X2786328Y-23152638D01*
G01X2786328Y-23702638D01*
G37*
G36*
G01X3186326Y-23702638D02*
G01X2836327Y-23702638D01*
G01X2836327Y-23152638D01*
G01X3186326Y-23152638D01*
G01X3186326Y-23702638D01*
G37*
G36*
G01X8114507Y-31252595D02*
G01X8234214Y-30923702D01*
G01X8751045Y-31111813D01*
G01X8631338Y-31440706D01*
G01X8114507Y-31252595D01*
G37*
G36*
G01X7977698Y-31628474D02*
G01X8097405Y-31299581D01*
G01X8614236Y-31487692D01*
G01X8494529Y-31816585D01*
G01X7977698Y-31628474D01*
G37*
G36*
G01X7840891Y-32004350D02*
G01X7960598Y-31675457D01*
G01X8477429Y-31863568D01*
G01X8357722Y-32192461D01*
G01X7840891Y-32004350D01*
G37*
G36*
G01X6704968Y-30739565D02*
G01X6824675Y-30410672D01*
G01X7341506Y-30598783D01*
G01X7221799Y-30927676D01*
G01X6704968Y-30739565D01*
G37*
G36*
G01X6568159Y-31115443D02*
G01X6687866Y-30786551D01*
G01X7204697Y-30974662D01*
G01X7084990Y-31303555D01*
G01X6568159Y-31115443D01*
G37*
G36*
G01X6431352Y-31491320D02*
G01X6551059Y-31162427D01*
G01X7067890Y-31350538D01*
G01X6948183Y-31679431D01*
G01X6431352Y-31491320D01*
G37*
G36*
G01X39400145Y-1450000D02*
G01X40600145Y-1450000D01*
G01X40600145Y-2650000D01*
G01X39400145Y-2650000D01*
G01X39400145Y-1450000D01*
G37*
G36*
G01X40850145Y-1829102D02*
G01X40850145Y-1829102D01*
G01X40868017Y-1793946D01*
G01X40868017Y-1793946D01*
G01X40925023Y-1786381D01*
G01X40929247Y-1786329D01*
G01X40963231Y-1786329D01*
G01X40963231Y-1786329D01*
G01X40961027Y-1729044D01*
G01X40957977Y-1679204D01*
G01X40955614Y-1651563D01*
G01X40955614Y-1651563D01*
G01X40995458Y-1648047D01*
G01X40995458Y-1648047D01*
G01X41043692Y-1664500D01*
G01X41052880Y-1693750D01*
G01X41052880Y-1693750D01*
G01X41051513Y-1729530D01*
G01X41048192Y-1787500D01*
G01X41048192Y-1787500D01*
G01X41117919Y-1787098D01*
G01X41174755Y-1785889D01*
G01X41218700Y-1783875D01*
G01X41249755Y-1781055D01*
G01X41249755Y-1781055D01*
G01X41249755Y-1781055D01*
G01X41254442Y-1809180D01*
G01X41254442Y-1809180D01*
G01X41241845Y-1841407D01*
G01X41241845Y-1841407D01*
G01X41201708Y-1850782D01*
G01X41201708Y-1850782D01*
G01X41166598Y-1851428D01*
G01X41115408Y-1851818D01*
G01X41048138Y-1851953D01*
G01X41045849Y-1851954D01*
G01X41045849Y-1851954D01*
G01X41045043Y-1901647D01*
G01X41044406Y-1952314D01*
G01X41043938Y-2003953D01*
G01X41043640Y-2056566D01*
G01X41043511Y-2110151D01*
G01X41043505Y-2124415D01*
G01X41043505Y-2124415D01*
G01X41046542Y-2189514D01*
G01X41055655Y-2236313D01*
G01X41066942Y-2260059D01*
G01X41066942Y-2260059D01*
G01X41122010Y-2290169D01*
G01X41144286Y-2292579D01*
G01X41144286Y-2292579D01*
G01X41193585Y-2282374D01*
G01X41230419Y-2256250D01*
G01X41230419Y-2256250D01*
G01X41252099Y-2299610D01*
G01X41252099Y-2299610D01*
G01X41225239Y-2338111D01*
G01X41221044Y-2340332D01*
G01X41221044Y-2340332D01*
G01X41159336Y-2355194D01*
G01X41145458Y-2355860D01*
G01X41145458Y-2355860D01*
G01X41087678Y-2349980D01*
G01X41041838Y-2332340D01*
G01X41007938Y-2302940D01*
G01X41004540Y-2298438D01*
G01X41004540Y-2298438D01*
G01X40978650Y-2240592D01*
G01X40966750Y-2178545D01*
G01X40963401Y-2134832D01*
G01X40963231Y-2126758D01*
G01X40963231Y-2126758D01*
G01X40964037Y-2049885D01*
G01X40964674Y-1984476D01*
G01X40965142Y-1930532D01*
G01X40965440Y-1888053D01*
G01X40965569Y-1857038D01*
G01X40965575Y-1850782D01*
G01X40965575Y-1850782D01*
G01X40941172Y-1852561D01*
G01X40874292Y-1857901D01*
G01X40853661Y-1859571D01*
G01X40853661Y-1859571D01*
G01X40850145Y-1829102D01*
G37*
G36*
G01X41325927Y-2065821D02*
G01X41325927Y-2065821D01*
G01X41329415Y-2010323D01*
G01X41339879Y-1959844D01*
G01X41357321Y-1914386D01*
G01X41381738Y-1873946D01*
G01X41397997Y-1854004D01*
G01X41397997Y-1854004D01*
G01X41455355Y-1809133D01*
G01X41514738Y-1785270D01*
G01X41562781Y-1775780D01*
G01X41586119Y-1774029D01*
G01X41586669Y-1774024D01*
G01X41586669Y-1774024D01*
G01X41640551Y-1778631D01*
G01X41689134Y-1792451D01*
G01X41732418Y-1815486D01*
G01X41770404Y-1847734D01*
G01X41776220Y-1854004D01*
G01X41776220Y-1854004D01*
G01X41813935Y-1912365D01*
G01X41835392Y-1974049D01*
G01X41845176Y-2027320D01*
G01X41847873Y-2060443D01*
G01X41847997Y-2065821D01*
G01X41847997Y-2065821D01*
G01X41838353Y-2148098D01*
G01X41816406Y-2211712D01*
G01X41792636Y-2254739D01*
G01X41777524Y-2275253D01*
G01X41776220Y-2276758D01*
G01X41776220Y-2276758D01*
G01X41718856Y-2321136D01*
G01X41659179Y-2344737D01*
G01X41610774Y-2354123D01*
G01X41587224Y-2355855D01*
G01X41586669Y-2355860D01*
G01X41586669Y-2355860D01*
G01X41533265Y-2351304D01*
G01X41484991Y-2337635D01*
G01X41441848Y-2314854D01*
G01X41403834Y-2282960D01*
G01X41397997Y-2276758D01*
G01X41397997Y-2276758D01*
G01X41360128Y-2218859D01*
G01X41338583Y-2157439D01*
G01X41328759Y-2104287D01*
G01X41326051Y-2071197D01*
G01X41325927Y-2065821D01*
G37*
%LPC*%
G36*
G01X41410302Y-2048829D02*
G01X41410302Y-2048829D01*
G01X41413954Y-2103868D01*
G01X41424910Y-2153487D01*
G01X41443170Y-2197686D01*
G01X41456884Y-2220508D01*
G01X41456884Y-2220508D01*
G01X41510658Y-2268444D01*
G01X41562524Y-2286368D01*
G01X41586644Y-2289063D01*
G01X41586669Y-2289063D01*
G01X41586669Y-2289063D01*
G01X41639378Y-2282560D01*
G01X41683553Y-2263053D01*
G01X41717333Y-2232813D01*
G01X41717333Y-2232813D01*
G01X41749469Y-2171594D01*
G01X41762021Y-2113139D01*
G01X41764205Y-2083255D01*
G01X41764208Y-2082813D01*
G01X41764208Y-2082813D01*
G01X41760441Y-2027727D01*
G01X41749140Y-1977970D01*
G01X41730306Y-1933542D01*
G01X41716161Y-1910547D01*
G01X41716161Y-1910547D01*
G01X41661811Y-1862202D01*
G01X41610400Y-1844124D01*
G01X41586693Y-1841407D01*
G01X41586669Y-1841407D01*
G01X41586669Y-1841407D01*
G01X41534027Y-1847977D01*
G01X41490056Y-1867688D01*
G01X41456591Y-1898243D01*
G01X41456591Y-1898243D01*
G01X41424856Y-1959864D01*
G01X41412461Y-2018475D01*
G01X41410305Y-2048387D01*
G01X41410302Y-2048829D01*
G37*
%LPD*%
G36*
G01X41973974Y-1792188D02*
G01X41973974Y-1792188D01*
G01X42020849Y-1782813D01*
G01X42020849Y-1782813D01*
G01X42062429Y-1801555D01*
G01X42072411Y-1842579D01*
G01X42072411Y-1842579D01*
G01X42118517Y-1812586D01*
G01X42165429Y-1791163D01*
G01X42213146Y-1778309D01*
G01X42261669Y-1774024D01*
G01X42261669Y-1774024D01*
G01X42261669Y-1774024D01*
G01X42312935Y-1779798D01*
G01X42358454Y-1797122D01*
G01X42398225Y-1825994D01*
G01X42410204Y-1838184D01*
G01X42410204Y-1838184D01*
G01X42443909Y-1895784D01*
G01X42461217Y-1959949D01*
G01X42467594Y-2012084D01*
G01X42468505Y-2033594D01*
G01X42468505Y-2033594D01*
G01X42468505Y-2033594D01*
G01X42465715Y-2087219D01*
G01X42457345Y-2137844D01*
G01X42443395Y-2185469D01*
G01X42441259Y-2191211D01*
G01X42441259Y-2191211D01*
G01X42405817Y-2254637D01*
G01X42369583Y-2295678D01*
G01X42354247Y-2309278D01*
G01X42354247Y-2309278D01*
G01X42290956Y-2341850D01*
G01X42235084Y-2354029D01*
G01X42210132Y-2355860D01*
G01X42210106Y-2355860D01*
G01X42210106Y-2355860D01*
G01X42160047Y-2350620D01*
G01X42111961Y-2334901D01*
G01X42075927Y-2315430D01*
G01X42075927Y-2315430D01*
G01X42076302Y-2357618D01*
G01X42076513Y-2378418D01*
G01X42076513Y-2378418D01*
G01X42077494Y-2447617D01*
G01X42077684Y-2455762D01*
G01X42077684Y-2455762D01*
G01X42080366Y-2514140D01*
G01X42080614Y-2518750D01*
G01X42080614Y-2518750D01*
G01X42086868Y-2582415D01*
G01X42087938Y-2589063D01*
G01X42087938Y-2589063D01*
G01X42099948Y-2638275D01*
G01X42099950Y-2638282D01*
G01X42099950Y-2638282D01*
G01X42051903Y-2647657D01*
G01X42051903Y-2647657D01*
G01X42005564Y-2632438D01*
G01X42005321Y-2632129D01*
G01X42005321Y-2632129D01*
G01X41993318Y-2579970D01*
G01X41993310Y-2579102D01*
G01X41993310Y-2579102D01*
G01X41993366Y-2534891D01*
G01X41993537Y-2487053D01*
G01X41993822Y-2435590D01*
G01X41994221Y-2380500D01*
G01X41994733Y-2321785D01*
G01X41995067Y-2287598D01*
G01X41995067Y-2287598D01*
G01X41995958Y-2191724D01*
G01X41996482Y-2121644D01*
G01X41996736Y-2075323D01*
G01X41996818Y-2050728D01*
G01X41996825Y-2045313D01*
G01X41996825Y-2045313D01*
G01X41995911Y-1974625D01*
G01X41993169Y-1913969D01*
G01X41988599Y-1863344D01*
G01X41982200Y-1822750D01*
G01X41973974Y-1792188D01*
G01X41973974Y-1792188D01*
G37*
%LPC*%
G36*
G01X42075927Y-1907618D02*
G01X42075927Y-1907618D01*
G01X42076577Y-1982619D01*
G01X42077122Y-2049420D01*
G01X42077561Y-2108021D01*
G01X42077895Y-2158422D01*
G01X42078124Y-2200623D01*
G01X42078247Y-2234623D01*
G01X42078270Y-2252735D01*
G01X42078270Y-2252735D01*
G01X42119652Y-2272975D01*
G01X42168891Y-2285088D01*
G01X42222411Y-2289063D01*
G01X42222411Y-2289063D01*
G01X42272289Y-2279908D01*
G01X42314110Y-2252442D01*
G01X42314110Y-2252442D01*
G01X42314110Y-2252442D01*
G01X42353887Y-2196459D01*
G01X42367356Y-2163918D01*
G01X42367431Y-2163672D01*
G01X42367431Y-2163672D01*
G01X42380231Y-2095912D01*
G01X42382931Y-2053661D01*
G01X42382958Y-2051172D01*
G01X42382958Y-2051172D01*
G01X42379240Y-1991600D01*
G01X42368087Y-1942258D01*
G01X42349498Y-1903147D01*
G01X42341649Y-1892383D01*
G01X42341649Y-1892383D01*
G01X42283619Y-1851353D01*
G01X42239933Y-1841616D01*
G01X42235302Y-1841407D01*
G01X42235302Y-1841407D01*
G01X42188359Y-1846975D01*
G01X42142008Y-1863680D01*
G01X42096248Y-1891522D01*
G01X42075927Y-1907618D01*
G37*
%LPD*%
G36*
G01X42845849Y-2260352D02*
G01X42845849Y-2260352D01*
G01X42867244Y-2224235D01*
G01X42899755Y-2209961D01*
G01X42899755Y-2209961D01*
G01X42926790Y-2249723D01*
G01X42956884Y-2268848D01*
G01X42956884Y-2268848D01*
G01X43023036Y-2286827D01*
G01X43052099Y-2289063D01*
G01X43052099Y-2289063D01*
G01X43119607Y-2274918D01*
G01X43135595Y-2266211D01*
G01X43135595Y-2266211D01*
G01X43165911Y-2211336D01*
G01X43167528Y-2195313D01*
G01X43167528Y-2195313D01*
G01X43149566Y-2150928D01*
G01X43135595Y-2140235D01*
G01X43135595Y-2140235D01*
G01X43075478Y-2115254D01*
G01X43058251Y-2110645D01*
G01X43058251Y-2110645D01*
G01X42991673Y-2093680D01*
G01X42967138Y-2086622D01*
G01X42967138Y-2086622D01*
G01X42908777Y-2053367D01*
G01X42889501Y-2034473D01*
G01X42889501Y-2034473D01*
G01X42862321Y-1973012D01*
G01X42857574Y-1933477D01*
G01X42857567Y-1932813D01*
G01X42857567Y-1932813D01*
G01X42866030Y-1884665D01*
G01X42891418Y-1843415D01*
G01X42919384Y-1818555D01*
G01X42919384Y-1818555D01*
G01X42984328Y-1786826D01*
G01X43038271Y-1775483D01*
G01X43059130Y-1774024D01*
G01X43059130Y-1774024D01*
G01X43108233Y-1778902D01*
G01X43156542Y-1793535D01*
G01X43169579Y-1799219D01*
G01X43169579Y-1799219D01*
G01X43218503Y-1846894D01*
G01X43223778Y-1868946D01*
G01X43223778Y-1868946D01*
G01X43202383Y-1906155D01*
G01X43169872Y-1919336D01*
G01X43169872Y-1919336D01*
G01X43142078Y-1880894D01*
G01X43115673Y-1863086D01*
G01X43115673Y-1863086D01*
G01X43051277Y-1843130D01*
G01X43030419Y-1841407D01*
G01X43030419Y-1841407D01*
G01X42980455Y-1851402D01*
G01X42959520Y-1863672D01*
G01X42959520Y-1863672D01*
G01X42930444Y-1917034D01*
G01X42929638Y-1926368D01*
G01X42929638Y-1926368D01*
G01X42947124Y-1970924D01*
G01X42961571Y-1982618D01*
G01X42961571Y-1982618D01*
G01X43020887Y-2008837D01*
G01X43038915Y-2013965D01*
G01X43038915Y-2013965D01*
G01X43104516Y-2031183D01*
G01X43130028Y-2038575D01*
G01X43130028Y-2038575D01*
G01X43189162Y-2071179D01*
G01X43207665Y-2088379D01*
G01X43207665Y-2088379D01*
G01X43235607Y-2148914D01*
G01X43239599Y-2182422D01*
G01X43239599Y-2182422D01*
G01X43239599Y-2182422D01*
G01X43232520Y-2235488D01*
G01X43211286Y-2279139D01*
G01X43178368Y-2311622D01*
G01X43178368Y-2311622D01*
G01X43114053Y-2342555D01*
G01X43057798Y-2354121D01*
G01X43032788Y-2355860D01*
G01X43032763Y-2355860D01*
G01X43032763Y-2355860D01*
G01X42979468Y-2351883D01*
G01X42930911Y-2339953D01*
G01X42902684Y-2328321D01*
G01X42902684Y-2328321D01*
G01X42851381Y-2280827D01*
G01X42845849Y-2260352D01*
G37*
G36*
G01X43342138Y-2065821D02*
G01X43342138Y-2065821D01*
G01X43345626Y-2010323D01*
G01X43356090Y-1959844D01*
G01X43373531Y-1914386D01*
G01X43397949Y-1873946D01*
G01X43414208Y-1854004D01*
G01X43414208Y-1854004D01*
G01X43471566Y-1809133D01*
G01X43530949Y-1785270D01*
G01X43578992Y-1775780D01*
G01X43602330Y-1774029D01*
G01X43602880Y-1774024D01*
G01X43602880Y-1774024D01*
G01X43656762Y-1778631D01*
G01X43705345Y-1792451D01*
G01X43748629Y-1815486D01*
G01X43786615Y-1847734D01*
G01X43792431Y-1854004D01*
G01X43792431Y-1854004D01*
G01X43830146Y-1912365D01*
G01X43851603Y-1974049D01*
G01X43861387Y-2027320D01*
G01X43864084Y-2060443D01*
G01X43864208Y-2065821D01*
G01X43864208Y-2065821D01*
G01X43854563Y-2148098D01*
G01X43832617Y-2211712D01*
G01X43808847Y-2254739D01*
G01X43793735Y-2275253D01*
G01X43792431Y-2276758D01*
G01X43792431Y-2276758D01*
G01X43735067Y-2321136D01*
G01X43675390Y-2344738D01*
G01X43626985Y-2354123D01*
G01X43603435Y-2355855D01*
G01X43602880Y-2355860D01*
G01X43602880Y-2355860D01*
G01X43549476Y-2351304D01*
G01X43501202Y-2337635D01*
G01X43458059Y-2314854D01*
G01X43420045Y-2282960D01*
G01X43414208Y-2276758D01*
G01X43414208Y-2276758D01*
G01X43376339Y-2218860D01*
G01X43354794Y-2157439D01*
G01X43344970Y-2104287D01*
G01X43342262Y-2071197D01*
G01X43342138Y-2065821D01*
G37*
%LPC*%
G36*
G01X43426513Y-2048829D02*
G01X43426513Y-2048829D01*
G01X43430165Y-2103868D01*
G01X43441121Y-2153487D01*
G01X43459381Y-2197686D01*
G01X43473095Y-2220508D01*
G01X43473095Y-2220508D01*
G01X43526869Y-2268444D01*
G01X43578735Y-2286368D01*
G01X43602855Y-2289063D01*
G01X43602880Y-2289063D01*
G01X43602880Y-2289063D01*
G01X43655589Y-2282560D01*
G01X43699764Y-2263053D01*
G01X43733544Y-2232813D01*
G01X43733544Y-2232813D01*
G01X43765680Y-2171594D01*
G01X43778232Y-2113139D01*
G01X43780416Y-2083255D01*
G01X43780419Y-2082813D01*
G01X43780419Y-2082813D01*
G01X43776652Y-2027727D01*
G01X43765351Y-1977970D01*
G01X43746517Y-1933542D01*
G01X43732372Y-1910547D01*
G01X43732372Y-1910547D01*
G01X43678021Y-1862202D01*
G01X43626611Y-1844124D01*
G01X43602904Y-1841407D01*
G01X43602880Y-1841407D01*
G01X43602880Y-1841407D01*
G01X43550238Y-1847977D01*
G01X43506267Y-1867688D01*
G01X43472802Y-1898243D01*
G01X43472802Y-1898243D01*
G01X43441067Y-1959864D01*
G01X43428672Y-2018475D01*
G01X43426516Y-2048387D01*
G01X43426513Y-2048829D01*
G37*
%LPD*%
G36*
G01X43990184Y-1455860D02*
G01X43990184Y-1455860D01*
G01X44032372Y-1452344D01*
G01X44032372Y-1452344D01*
G01X44079497Y-1469912D01*
G01X44087450Y-1498047D01*
G01X44087450Y-1498047D01*
G01X44086381Y-1538691D01*
G01X44085692Y-1562207D01*
G01X44085692Y-1562207D01*
G01X44083850Y-1626627D01*
G01X44082159Y-1687843D01*
G01X44081310Y-1719071D01*
G01X44081298Y-1719532D01*
G01X44081298Y-1719532D01*
G01X44079729Y-1794038D01*
G01X44078953Y-1858111D01*
G01X44078689Y-1901555D01*
G01X44078661Y-1914649D01*
G01X44078661Y-2101563D01*
G01X44078661Y-2101563D01*
G01X44079669Y-2164883D01*
G01X44082692Y-2220968D01*
G01X44087731Y-2269817D01*
G01X44094785Y-2311432D01*
G01X44101513Y-2338282D01*
G01X44101513Y-2338282D01*
G01X44056395Y-2347657D01*
G01X44056395Y-2347657D01*
G01X44010106Y-2333301D01*
G01X44010106Y-2333301D01*
G01X43997216Y-2285547D01*
G01X43997216Y-2285547D01*
G01X43997216Y-2285547D01*
G01X43997343Y-2257784D01*
G01X43997726Y-2207751D01*
G01X43998364Y-2135449D01*
G01X43998388Y-2132911D01*
G01X43998388Y-2132911D01*
G01X43999104Y-2043698D01*
G01X43999445Y-1982444D01*
G01X43999551Y-1949047D01*
G01X43999559Y-1942188D01*
G01X43999559Y-1802735D01*
G01X43999559Y-1802735D01*
G01X43999349Y-1722763D01*
G01X43998716Y-1652653D01*
G01X43997661Y-1592404D01*
G01X43996184Y-1542016D01*
G01X43994286Y-1501490D01*
G01X43991966Y-1470825D01*
G01X43990184Y-1455860D01*
G37*
G36*
G01X44227489Y-2065821D02*
G01X44227489Y-2065821D01*
G01X44231062Y-2010753D01*
G01X44241782Y-1960535D01*
G01X44259649Y-1915167D01*
G01X44284662Y-1874648D01*
G01X44301317Y-1854590D01*
G01X44301317Y-1854590D01*
G01X44360296Y-1808013D01*
G01X44418065Y-1784095D01*
G01X44461992Y-1775283D01*
G01X44479442Y-1774024D01*
G01X44479442Y-1774024D01*
G01X44479442Y-1774024D01*
G01X44527908Y-1778765D01*
G01X44575290Y-1792990D01*
G01X44618895Y-1815040D01*
G01X44618895Y-1815040D01*
G01X44620423Y-1756924D01*
G01X44621163Y-1708462D01*
G01X44621239Y-1690235D01*
G01X44621239Y-1690235D01*
G01X44620785Y-1628215D01*
G01X44619424Y-1572095D01*
G01X44617155Y-1521873D01*
G01X44613979Y-1477550D01*
G01X44611864Y-1455860D01*
G01X44611864Y-1455860D01*
G01X44654638Y-1452344D01*
G01X44654638Y-1452344D01*
G01X44700760Y-1469912D01*
G01X44708544Y-1498047D01*
G01X44708544Y-1498047D01*
G01X44708353Y-1520975D01*
G01X44707782Y-1556806D01*
G01X44706831Y-1605540D01*
G01X44705498Y-1667177D01*
G01X44703785Y-1741717D01*
G01X44703270Y-1763477D01*
G01X44703270Y-1763477D01*
G01X44701123Y-1860156D01*
G01X44699655Y-1937669D01*
G01X44698738Y-1997009D01*
G01X44698243Y-2039170D01*
G01X44698039Y-2065146D01*
G01X44697997Y-2075929D01*
G01X44697997Y-2076368D01*
G01X44697997Y-2076368D01*
G01X44698822Y-2147503D01*
G01X44701297Y-2208612D01*
G01X44705421Y-2259695D01*
G01X44711196Y-2300752D01*
G01X44718621Y-2331782D01*
G01X44720849Y-2338282D01*
G01X44720849Y-2338282D01*
G01X44675145Y-2347657D01*
G01X44675145Y-2347657D01*
G01X44633775Y-2328914D01*
G01X44622411Y-2287891D01*
G01X44622411Y-2287891D01*
G01X44579866Y-2321597D01*
G01X44535153Y-2343870D01*
G01X44488271Y-2354711D01*
G01X44466552Y-2355860D01*
G01X44465380Y-2355860D01*
G01X44465380Y-2355860D01*
G01X44417114Y-2350315D01*
G01X44372255Y-2333679D01*
G01X44330802Y-2305952D01*
G01X44298388Y-2273829D01*
G01X44298388Y-2273829D01*
G01X44259857Y-2212320D01*
G01X44238653Y-2149268D01*
G01X44229601Y-2097078D01*
G01X44227525Y-2068153D01*
G01X44227489Y-2065821D01*
G37*
%LPC*%
G36*
G01X44311864Y-2048829D02*
G01X44311864Y-2048829D01*
G01X44315538Y-2103638D01*
G01X44326558Y-2152895D01*
G01X44344925Y-2196598D01*
G01X44362255Y-2224024D01*
G01X44362255Y-2224024D01*
G01X44418948Y-2273752D01*
G01X44467329Y-2290728D01*
G01X44484130Y-2292579D01*
G01X44484130Y-2292579D01*
G01X44530157Y-2285113D01*
G01X44574653Y-2262716D01*
G01X44617617Y-2225388D01*
G01X44618895Y-2224024D01*
G01X44618895Y-2224024D01*
G01X44618245Y-2137179D01*
G01X44617700Y-2062622D01*
G01X44617261Y-2000351D01*
G01X44616927Y-1950368D01*
G01X44616698Y-1912671D01*
G01X44616575Y-1887262D01*
G01X44616552Y-1877149D01*
G01X44616552Y-1877149D01*
G01X44567359Y-1854706D01*
G01X44519414Y-1843137D01*
G01X44492919Y-1841407D01*
G01X44492919Y-1841407D01*
G01X44440006Y-1847977D01*
G01X44395222Y-1867688D01*
G01X44360497Y-1898243D01*
G01X44360497Y-1898243D01*
G01X44327156Y-1959864D01*
G01X44314133Y-2018475D01*
G01X44311867Y-2048387D01*
G01X44311864Y-2048829D01*
G37*
%LPD*%
G36*
G01X44846239Y-2068165D02*
G01X44846239Y-2068165D01*
G01X44849766Y-2011504D01*
G01X44860348Y-1960631D01*
G01X44877983Y-1915547D01*
G01X44902673Y-1876251D01*
G01X44926220Y-1850196D01*
G01X44926220Y-1850196D01*
G01X44989304Y-1806159D01*
G01X45050109Y-1783545D01*
G01X45095917Y-1775214D01*
G01X45114013Y-1774024D01*
G01X45114013Y-1774024D01*
G01X45114013Y-1774024D01*
G01X45167332Y-1779510D01*
G01X45213335Y-1795970D01*
G01X45249950Y-1821485D01*
G01X45249950Y-1821485D01*
G01X45290834Y-1881175D01*
G01X45301681Y-1925791D01*
G01X45302099Y-1932813D01*
G01X45302099Y-1932813D01*
G01X45295471Y-1985596D01*
G01X45285399Y-2010743D01*
G01X45285399Y-2010743D01*
G01X45245890Y-2056645D01*
G01X45241747Y-2059668D01*
G01X45241747Y-2059668D01*
G01X45182629Y-2082883D01*
G01X45163817Y-2087207D01*
G01X45163817Y-2087207D01*
G01X45094603Y-2096839D01*
G01X45063622Y-2099219D01*
G01X45063622Y-2099219D01*
G01X45063622Y-2099219D01*
G01X44998470Y-2101031D01*
G01X44944600Y-2101538D01*
G01X44934130Y-2101563D01*
G01X44934130Y-2101563D01*
G01X44944332Y-2156035D01*
G01X44962188Y-2202312D01*
G01X44985985Y-2238379D01*
G01X44985985Y-2238379D01*
G01X45042790Y-2276984D01*
G01X45092493Y-2288362D01*
G01X45104052Y-2289063D01*
G01X45104052Y-2289063D01*
G01X45160367Y-2281815D01*
G01X45203406Y-2260073D01*
G01X45231786Y-2226368D01*
G01X45231786Y-2226368D01*
G01X45274642Y-2258083D01*
G01X45279247Y-2276758D01*
G01X45279247Y-2276758D01*
G01X45259630Y-2314586D01*
G01X45224755Y-2334180D01*
G01X45224755Y-2334180D01*
G01X45156761Y-2351407D01*
G01X45108961Y-2355733D01*
G01X45102880Y-2355860D01*
G01X45102880Y-2355860D01*
G01X45048919Y-2351410D01*
G01X45000121Y-2338062D01*
G01X44956487Y-2315815D01*
G01X44918017Y-2284668D01*
G01X44918017Y-2284668D01*
G01X44918017Y-2284668D01*
G01X44880301Y-2229256D01*
G01X44858844Y-2166338D01*
G01X44849060Y-2109934D01*
G01X44846363Y-2074063D01*
G01X44846239Y-2068165D01*
G37*
%LPC*%
G36*
G01X44932958Y-2041797D02*
G01X44932958Y-2041797D01*
G01X44988454Y-2041389D01*
G01X45019091Y-2040625D01*
G01X45019091Y-2040625D01*
G01X45082050Y-2034997D01*
G01X45094677Y-2033301D01*
G01X45094677Y-2033301D01*
G01X45155749Y-2018374D01*
G01X45160888Y-2016309D01*
G01X45160888Y-2016309D01*
G01X45202150Y-1985308D01*
G01X45202196Y-1985254D01*
G01X45202196Y-1985254D01*
G01X45219475Y-1935582D01*
G01X45219481Y-1935157D01*
G01X45219481Y-1935157D01*
G01X45205699Y-1888704D01*
G01X45187841Y-1868360D01*
G01X45187841Y-1868360D01*
G01X45128684Y-1842173D01*
G01X45109325Y-1840235D01*
G01X45109325Y-1840235D01*
G01X45058881Y-1846973D01*
G01X45014212Y-1867187D01*
G01X44986278Y-1889454D01*
G01X44986278Y-1889454D01*
G01X44951512Y-1946090D01*
G01X44936513Y-2005740D01*
G01X44933008Y-2040335D01*
G01X44932958Y-2041797D01*
G37*
%LPD*%
G36*
G01X45428075Y-1786329D02*
G01X45428075Y-1786329D01*
G01X45469091Y-1782813D01*
G01X45469091Y-1782813D01*
G01X45513971Y-1801293D01*
G01X45520653Y-1827930D01*
G01X45520653Y-1827930D01*
G01X45520067Y-1844336D01*
G01X45520067Y-1844336D01*
G01X45519481Y-1870118D01*
G01X45519481Y-1870118D01*
G01X45550125Y-1832386D01*
G01X45583642Y-1803614D01*
G01X45583642Y-1803614D01*
G01X45645883Y-1776063D01*
G01X45663036Y-1774024D01*
G01X45663036Y-1774024D01*
G01X45706395Y-1786622D01*
G01X45706395Y-1786622D01*
G01X45722216Y-1820899D01*
G01X45722216Y-1820899D01*
G01X45705265Y-1865078D01*
G01X45698192Y-1874805D01*
G01X45698192Y-1874805D01*
G01X45653241Y-1852961D01*
G01X45640184Y-1851954D01*
G01X45640184Y-1851954D01*
G01X45593955Y-1864507D01*
G01X45573095Y-1878321D01*
G01X45573095Y-1878321D01*
G01X45528801Y-1928005D01*
G01X45516552Y-1948047D01*
G01X45516552Y-1948047D01*
G01X45515906Y-1982775D01*
G01X45515515Y-2032816D01*
G01X45515380Y-2098172D01*
G01X45515380Y-2100391D01*
G01X45515380Y-2100391D01*
G01X45516388Y-2164540D01*
G01X45519411Y-2221144D01*
G01X45524450Y-2270203D01*
G01X45531504Y-2311717D01*
G01X45538231Y-2338282D01*
G01X45538231Y-2338282D01*
G01X45492528Y-2347657D01*
G01X45492528Y-2347657D01*
G01X45446189Y-2332438D01*
G01X45445946Y-2332129D01*
G01X45445946Y-2332129D01*
G01X45433943Y-2279970D01*
G01X45433934Y-2279102D01*
G01X45433934Y-2279102D01*
G01X45434264Y-2242888D01*
G01X45435106Y-2184473D01*
G01X45435106Y-2184473D01*
G01X45436061Y-2106431D01*
G01X45436275Y-2069448D01*
G01X45436278Y-2066993D01*
G01X45436278Y-2066993D01*
G01X45436012Y-2007219D01*
G01X45435215Y-1951509D01*
G01X45433886Y-1899861D01*
G01X45432026Y-1852275D01*
G01X45429634Y-1808752D01*
G01X45428075Y-1786329D01*
G37*
G36*
G01X45806005Y-1792188D02*
G01X45806005Y-1792188D01*
G01X45849364Y-1782813D01*
G01X45849364Y-1782813D01*
G01X45892788Y-1800241D01*
G01X45904442Y-1842579D01*
G01X45904442Y-1842579D01*
G01X45945018Y-1815332D01*
G01X45992919Y-1793360D01*
G01X45992919Y-1793360D01*
G01X45992919Y-1793360D01*
G01X46062059Y-1776441D01*
G01X46092528Y-1774024D01*
G01X46092528Y-1774024D01*
G01X46092528Y-1774024D01*
G01X46147729Y-1781513D01*
G01X46190542Y-1803980D01*
G01X46220966Y-1841425D01*
G01X46226122Y-1851954D01*
G01X46226122Y-1851954D01*
G01X46262175Y-1823732D01*
G01X46309747Y-1799651D01*
G01X46316649Y-1796875D01*
G01X46316649Y-1796875D01*
G01X46387177Y-1777826D01*
G01X46425011Y-1774047D01*
G01X46426513Y-1774024D01*
G01X46426513Y-1774024D01*
G01X46479039Y-1781794D01*
G01X46522151Y-1805106D01*
G01X46532274Y-1814161D01*
G01X46532274Y-1814161D01*
G01X46562814Y-1871817D01*
G01X46572281Y-1927723D01*
G01X46572997Y-1943360D01*
G01X46572997Y-1943360D01*
G01X46572307Y-1973575D01*
G01X46570946Y-2029786D01*
G01X46570946Y-2029786D01*
G01X46569338Y-2110968D01*
G01X46568912Y-2152045D01*
G01X46568895Y-2157227D01*
G01X46568895Y-2157227D01*
G01X46570503Y-2215837D01*
G01X46575327Y-2268291D01*
G01X46583366Y-2314589D01*
G01X46589403Y-2338282D01*
G01X46589403Y-2338282D01*
G01X46542528Y-2347657D01*
G01X46542528Y-2347657D01*
G01X46497704Y-2333887D01*
G01X46497704Y-2333887D01*
G01X46483934Y-2286719D01*
G01X46483934Y-2286719D01*
G01X46483934Y-2286719D01*
G01X46484272Y-2252291D01*
G01X46485286Y-2202772D01*
G01X46486975Y-2138163D01*
G01X46487450Y-2121485D01*
G01X46487450Y-2121485D01*
G01X46490000Y-2026311D01*
G01X46490871Y-1984066D01*
G01X46490966Y-1975586D01*
G01X46490966Y-1975586D01*
G01X46484753Y-1919040D01*
G01X46466114Y-1878285D01*
G01X46462841Y-1874219D01*
G01X46462841Y-1874219D01*
G01X46406113Y-1843353D01*
G01X46389013Y-1841407D01*
G01X46389013Y-1841407D01*
G01X46344881Y-1847488D01*
G01X46298948Y-1865732D01*
G01X46251213Y-1896139D01*
G01X46240184Y-1904688D01*
G01X46240184Y-1904688D01*
G01X46241066Y-1969524D01*
G01X46241740Y-2026711D01*
G01X46242207Y-2076250D01*
G01X46242468Y-2118140D01*
G01X46242528Y-2144922D01*
G01X46242528Y-2144922D01*
G01X46243043Y-2203179D01*
G01X46244588Y-2256682D01*
G01X46247163Y-2305432D01*
G01X46250145Y-2342969D01*
G01X46250145Y-2342969D01*
G01X46209130Y-2346485D01*
G01X46209130Y-2346485D01*
G01X46163008Y-2328917D01*
G01X46155224Y-2300782D01*
G01X46155224Y-2300782D01*
G01X46156981Y-2252442D01*
G01X46156981Y-2252442D01*
G01X46158843Y-2188507D01*
G01X46159823Y-2138568D01*
G01X46159911Y-2133204D01*
G01X46159911Y-2133204D01*
G01X46160714Y-2061560D01*
G01X46161028Y-2003352D01*
G01X46161083Y-1975974D01*
G01X46161083Y-1975586D01*
G01X46161083Y-1975586D01*
G01X46153953Y-1914884D01*
G01X46132564Y-1872322D01*
G01X46096916Y-1847901D01*
G01X46055614Y-1841407D01*
G01X46055614Y-1841407D01*
G01X46012097Y-1847770D01*
G01X45966552Y-1866858D01*
G01X45918980Y-1898673D01*
G01X45907958Y-1907618D01*
G01X45907958Y-1907618D01*
G01X45908876Y-1975208D01*
G01X45909567Y-2034121D01*
G01X45910031Y-2084356D01*
G01X45910268Y-2125913D01*
G01X45910302Y-2144922D01*
G01X45910302Y-2144922D01*
G01X45910777Y-2203179D01*
G01X45912203Y-2256682D01*
G01X45914580Y-2305432D01*
G01X45917333Y-2342969D01*
G01X45917333Y-2342969D01*
G01X45876903Y-2346485D01*
G01X45876903Y-2346485D01*
G01X45830781Y-2328917D01*
G01X45822997Y-2300782D01*
G01X45822997Y-2300782D01*
G01X45823949Y-2269833D01*
G01X45825927Y-2212598D01*
G01X45825927Y-2212598D01*
G01X45827894Y-2137635D01*
G01X45828696Y-2077789D01*
G01X45828855Y-2047671D01*
G01X45828856Y-2046485D01*
G01X45828856Y-2046485D01*
G01X45827942Y-1973313D01*
G01X45825200Y-1911297D01*
G01X45820630Y-1860438D01*
G01X45814231Y-1820735D01*
G01X45806005Y-1792188D01*
G01X45806005Y-1792188D01*
G37*
G36*
G01X46715380Y-2187110D02*
G01X46715380Y-2187110D01*
G01X46723143Y-2132370D01*
G01X46744091Y-2097168D01*
G01X46744091Y-2097168D01*
G01X46799147Y-2062388D01*
G01X46823192Y-2053516D01*
G01X46823192Y-2053516D01*
G01X46865221Y-2043711D01*
G01X46911900Y-2035438D01*
G01X46963231Y-2028696D01*
G01X47019212Y-2023486D01*
G01X47051708Y-2021290D01*
G01X47051708Y-2021290D01*
G01X47048621Y-1957638D01*
G01X47039362Y-1909419D01*
G01X47026513Y-1880372D01*
G01X47026513Y-1880372D01*
G01X46973525Y-1848623D01*
G01X46923728Y-1841514D01*
G01X46919286Y-1841407D01*
G01X46919286Y-1841407D01*
G01X46872645Y-1851296D01*
G01X46849852Y-1862793D01*
G01X46849852Y-1862793D01*
G01X46804353Y-1909390D01*
G01X46795653Y-1925196D01*
G01X46795653Y-1925196D01*
G01X46748115Y-1901209D01*
G01X46740575Y-1877149D01*
G01X46740575Y-1877149D01*
G01X46755004Y-1834961D01*
G01X46798290Y-1802149D01*
G01X46798290Y-1802149D01*
G01X46798290Y-1802149D01*
G01X46865322Y-1781056D01*
G01X46918880Y-1774518D01*
G01X46932763Y-1774024D01*
G01X46932763Y-1774024D01*
G01X46993123Y-1778404D01*
G01X47042203Y-1791544D01*
G01X47080003Y-1813444D01*
G01X47083934Y-1816797D01*
G01X47083934Y-1816797D01*
G01X47116198Y-1870714D01*
G01X47129345Y-1931749D01*
G01X47131965Y-1968169D01*
G01X47131981Y-1969727D01*
G01X47131981Y-1969727D01*
G01X47131391Y-2009180D01*
G01X47130809Y-2040332D01*
G01X47130809Y-2040332D01*
G01X47129744Y-2113495D01*
G01X47129638Y-2132032D01*
G01X47129638Y-2132032D01*
G01X47131066Y-2196778D01*
G01X47135350Y-2252735D01*
G01X47142492Y-2299903D01*
G01X47152489Y-2338282D01*
G01X47152489Y-2338282D01*
G01X47152489Y-2338282D01*
G01X47105614Y-2347657D01*
G01X47105614Y-2347657D01*
G01X47068407Y-2335059D01*
G01X47068407Y-2335059D01*
G01X47054052Y-2294922D01*
G01X47054052Y-2294922D01*
G01X47008981Y-2326000D01*
G01X46963067Y-2346110D01*
G01X46916309Y-2355250D01*
G01X46900536Y-2355860D01*
G01X46900536Y-2355860D01*
G01X46840052Y-2350392D01*
G01X46791490Y-2333990D01*
G01X46754850Y-2306652D01*
G01X46730132Y-2268380D01*
G01X46717337Y-2219172D01*
G01X46715380Y-2187110D01*
G37*
%LPC*%
G36*
G01X46799755Y-2187110D02*
G01X46799755Y-2187110D01*
G01X46809844Y-2239425D01*
G01X46830809Y-2266797D01*
G01X46830809Y-2266797D01*
G01X46891011Y-2290929D01*
G01X46909911Y-2292579D01*
G01X46909911Y-2292579D01*
G01X46960921Y-2286708D01*
G01X47006444Y-2269097D01*
G01X47046479Y-2239745D01*
G01X47047606Y-2238672D01*
G01X47047606Y-2238672D01*
G01X47046449Y-2190790D01*
G01X47046434Y-2182422D01*
G01X47046434Y-2182422D01*
G01X47047794Y-2131914D01*
G01X47050536Y-2082813D01*
G01X47050536Y-2082813D01*
G01X46999821Y-2088483D01*
G01X46998388Y-2088672D01*
G01X46998388Y-2088672D01*
G01X46951220Y-2094532D01*
G01X46951220Y-2094532D01*
G01X46907274Y-2101563D01*
G01X46907274Y-2101563D01*
G01X46872118Y-2111231D01*
G01X46872118Y-2111231D01*
G01X46841063Y-2124707D01*
G01X46841063Y-2124707D01*
G01X46819384Y-2140821D01*
G01X46819384Y-2140821D01*
G01X46803856Y-2161036D01*
G01X46803856Y-2161036D01*
G01X46799755Y-2187110D01*
G37*
%LPD*%
G36*
G01X47266161Y-2260352D02*
G01X47266161Y-2260352D01*
G01X47287556Y-2224235D01*
G01X47320067Y-2209961D01*
G01X47320067Y-2209961D01*
G01X47347102Y-2249723D01*
G01X47377196Y-2268848D01*
G01X47377196Y-2268848D01*
G01X47443348Y-2286827D01*
G01X47472411Y-2289063D01*
G01X47472411Y-2289063D01*
G01X47539920Y-2274918D01*
G01X47555907Y-2266211D01*
G01X47555907Y-2266211D01*
G01X47586223Y-2211336D01*
G01X47587841Y-2195313D01*
G01X47587841Y-2195313D01*
G01X47569878Y-2150928D01*
G01X47555907Y-2140235D01*
G01X47555907Y-2140235D01*
G01X47495791Y-2115254D01*
G01X47478563Y-2110645D01*
G01X47478563Y-2110645D01*
G01X47411985Y-2093680D01*
G01X47387450Y-2086622D01*
G01X47387450Y-2086622D01*
G01X47329090Y-2053367D01*
G01X47309813Y-2034473D01*
G01X47309813Y-2034473D01*
G01X47282634Y-1973012D01*
G01X47277887Y-1933477D01*
G01X47277880Y-1932813D01*
G01X47277880Y-1932813D01*
G01X47286342Y-1884665D01*
G01X47311730Y-1843415D01*
G01X47339696Y-1818555D01*
G01X47339696Y-1818555D01*
G01X47404641Y-1786826D01*
G01X47458584Y-1775483D01*
G01X47479442Y-1774024D01*
G01X47479442Y-1774024D01*
G01X47528545Y-1778902D01*
G01X47576854Y-1793535D01*
G01X47589892Y-1799219D01*
G01X47589892Y-1799219D01*
G01X47638815Y-1846894D01*
G01X47644091Y-1868946D01*
G01X47644091Y-1868946D01*
G01X47622695Y-1906155D01*
G01X47590184Y-1919336D01*
G01X47590184Y-1919336D01*
G01X47562390Y-1880894D01*
G01X47535985Y-1863086D01*
G01X47535985Y-1863086D01*
G01X47471589Y-1843130D01*
G01X47450731Y-1841407D01*
G01X47450731Y-1841407D01*
G01X47400768Y-1851402D01*
G01X47379833Y-1863672D01*
G01X47379833Y-1863672D01*
G01X47350757Y-1917034D01*
G01X47349950Y-1926368D01*
G01X47349950Y-1926368D01*
G01X47367437Y-1970924D01*
G01X47381884Y-1982618D01*
G01X47381884Y-1982618D01*
G01X47441199Y-2008837D01*
G01X47459227Y-2013965D01*
G01X47459227Y-2013965D01*
G01X47524829Y-2031183D01*
G01X47550341Y-2038575D01*
G01X47550341Y-2038575D01*
G01X47609474Y-2071179D01*
G01X47627977Y-2088379D01*
G01X47627977Y-2088379D01*
G01X47655919Y-2148914D01*
G01X47659911Y-2182422D01*
G01X47659911Y-2182422D01*
G01X47659911Y-2182422D01*
G01X47652833Y-2235488D01*
G01X47631598Y-2279139D01*
G01X47598681Y-2311622D01*
G01X47598681Y-2311622D01*
G01X47534365Y-2342555D01*
G01X47478110Y-2354121D01*
G01X47453100Y-2355860D01*
G01X47453075Y-2355860D01*
G01X47453075Y-2355860D01*
G01X47399780Y-2351883D01*
G01X47351223Y-2339953D01*
G01X47322997Y-2328321D01*
G01X47322997Y-2328321D01*
G01X47271693Y-2280827D01*
G01X47266161Y-2260352D01*
G37*
G36*
G01X47780614Y-1455860D02*
G01X47780614Y-1455860D01*
G01X47822802Y-1452344D01*
G01X47822802Y-1452344D01*
G01X47869927Y-1469912D01*
G01X47877880Y-1498047D01*
G01X47877880Y-1498047D01*
G01X47876424Y-1544425D01*
G01X47876122Y-1553125D01*
G01X47876122Y-1553125D01*
G01X47873930Y-1618514D01*
G01X47872134Y-1674196D01*
G01X47871727Y-1687012D01*
G01X47871727Y-1687012D01*
G01X47869995Y-1759968D01*
G01X47869259Y-1819460D01*
G01X47869093Y-1851868D01*
G01X47869091Y-1854297D01*
G01X47869091Y-1854297D01*
G01X47912450Y-1819178D01*
G01X47957567Y-1794092D01*
G01X48004442Y-1779041D01*
G01X48053075Y-1774024D01*
G01X48053075Y-1774024D01*
G01X48053075Y-1774024D01*
G01X48108201Y-1780530D01*
G01X48152009Y-1800047D01*
G01X48171727Y-1816797D01*
G01X48171727Y-1816797D01*
G01X48205299Y-1877551D01*
G01X48212380Y-1919138D01*
G01X48212450Y-1921680D01*
G01X48212450Y-1921680D01*
G01X48206314Y-1973152D01*
G01X48187904Y-2019169D01*
G01X48167626Y-2048243D01*
G01X48167626Y-2048243D01*
G01X48112329Y-2089396D01*
G01X48060618Y-2107014D01*
G01X48041942Y-2110352D01*
G01X48041942Y-2110352D01*
G01X48078977Y-2169872D01*
G01X48108332Y-2213432D01*
G01X48130007Y-2241032D01*
G01X48132177Y-2243360D01*
G01X48132177Y-2243360D01*
G01X48175194Y-2275210D01*
G01X48206591Y-2282032D01*
G01X48206591Y-2282032D01*
G01X48237645Y-2276758D01*
G01X48237645Y-2276758D01*
G01X48248778Y-2311915D01*
G01X48248778Y-2311915D01*
G01X48223583Y-2344727D01*
G01X48223583Y-2344727D01*
G01X48175536Y-2355860D01*
G01X48175536Y-2355860D01*
G01X48129552Y-2344734D01*
G01X48088817Y-2313086D01*
G01X48088817Y-2313086D01*
G01X48058642Y-2277051D01*
G01X48058642Y-2277051D01*
G01X48028832Y-2234098D01*
G01X48028759Y-2233985D01*
G01X48028759Y-2233985D01*
G01X48003563Y-2193555D01*
G01X48003563Y-2193555D01*
G01X47976278Y-2147402D01*
G01X47976024Y-2146973D01*
G01X47976024Y-2146973D01*
G01X47952294Y-2106250D01*
G01X47952294Y-2106250D01*
G01X47920653Y-2081055D01*
G01X47920653Y-2081055D01*
G01X47927099Y-2052344D01*
G01X47927099Y-2052344D01*
G01X47979489Y-2060676D01*
G01X47988036Y-2061133D01*
G01X47988036Y-2061133D01*
G01X48041515Y-2053717D01*
G01X48082773Y-2031470D01*
G01X48090282Y-2024512D01*
G01X48090282Y-2024512D01*
G01X48122810Y-1964556D01*
G01X48126317Y-1939844D01*
G01X48126317Y-1939844D01*
G01X48115270Y-1890407D01*
G01X48101708Y-1870118D01*
G01X48101708Y-1870118D01*
G01X48046169Y-1842638D01*
G01X48032567Y-1841407D01*
G01X48032567Y-1841407D01*
G01X47986197Y-1849124D01*
G01X47947313Y-1866016D01*
G01X47947313Y-1866016D01*
G01X47890347Y-1906741D01*
G01X47869091Y-1927539D01*
G01X47869091Y-2101563D01*
G01X47869091Y-2101563D01*
G01X47870099Y-2164883D01*
G01X47873122Y-2220968D01*
G01X47878161Y-2269817D01*
G01X47885215Y-2311432D01*
G01X47891942Y-2338282D01*
G01X47891942Y-2338282D01*
G01X47846825Y-2347657D01*
G01X47846825Y-2347657D01*
G01X47800536Y-2333301D01*
G01X47800536Y-2333301D01*
G01X47787645Y-2285547D01*
G01X47787645Y-2285547D01*
G01X47787645Y-2285547D01*
G01X47787773Y-2257784D01*
G01X47788156Y-2207751D01*
G01X47788794Y-2135449D01*
G01X47788817Y-2132911D01*
G01X47788817Y-2132911D01*
G01X47789533Y-2043698D01*
G01X47789875Y-1982444D01*
G01X47789981Y-1949047D01*
G01X47789989Y-1942188D01*
G01X47789989Y-1802735D01*
G01X47789989Y-1802735D01*
G01X47789778Y-1722763D01*
G01X47789145Y-1652653D01*
G01X47788091Y-1592404D01*
G01X47786614Y-1542016D01*
G01X47784716Y-1501490D01*
G01X47782395Y-1470825D01*
G01X47780614Y-1455860D01*
G37*

G04 Pad flashes *
%LPD*%
D11*

G04 end of program *
M02*
