G04                                                      *
G04 Greetings!                                           *
G04 This Gerber was generated by PCBmodE, an open source *
G04 PCB design software. Get it here:                    *
G04                                                      *
G04   http://pcbmode.com                                 *
G04                                                      *
G04 Also visit                                           *
G04                                                      *
G04   http://boldport.com                                *
G04                                                      *
G04 and follow @boldport / @pcbmode for updates!         *
G04                                                      *

G04 leading zeros omitted (L); absolute data (A); 6 integer digits and 6 fractional digits *
%FSLAX66Y66*%

G04 mode (MO): millimeters (MM) *
%MOMM*%

G04 Aperture definitions *
%ADD10C,0.001X*%
%ADD11C,0.001X*%

%LPD*%
G36*
G01X39400145Y-20675000D02*
G01X40600145Y-20675000D01*
G01X40600145Y-21875000D01*
G01X39400145Y-21875000D01*
G01X39400145Y-20675000D01*
G37*
G36*
G01X40850145Y-20680859D02*
G01X40850145Y-20680859D01*
G01X40893504Y-20677343D01*
G01X40893504Y-20677343D01*
G01X40939626Y-20694912D01*
G01X40947410Y-20723047D01*
G01X40947410Y-20723047D01*
G01X40947290Y-20746162D01*
G01X40946930Y-20795257D01*
G01X40946330Y-20870332D01*
G01X40946239Y-20881543D01*
G01X40946239Y-20881543D01*
G01X40945504Y-20978363D01*
G01X40945166Y-21034864D01*
G01X40945071Y-21059653D01*
G01X40945067Y-21062890D01*
G01X40945067Y-21062890D01*
G01X40991443Y-21033997D01*
G01X41039166Y-21013738D01*
G01X41088236Y-21002114D01*
G01X41130809Y-20999023D01*
G01X41130809Y-20999023D01*
G01X41183868Y-21005140D01*
G01X41230547Y-21023492D01*
G01X41270845Y-21054078D01*
G01X41282860Y-21066992D01*
G01X41282860Y-21066992D01*
G01X41315568Y-21124600D01*
G01X41332963Y-21188470D01*
G01X41339881Y-21241980D01*
G01X41341157Y-21268509D01*
G01X41341160Y-21269140D01*
G01X41341160Y-21269140D01*
G01X41338013Y-21325120D01*
G01X41328569Y-21377045D01*
G01X41312829Y-21424914D01*
G01X41290794Y-21468728D01*
G01X41276121Y-21490918D01*
G01X41276121Y-21490918D01*
G01X41221857Y-21541377D01*
G01X41162669Y-21568213D01*
G01X41113475Y-21578885D01*
G01X41089198Y-21580853D01*
G01X41088621Y-21580859D01*
G01X41088621Y-21580859D01*
G01X41034826Y-21577267D01*
G01X40984184Y-21566492D01*
G01X40936694Y-21548533D01*
G01X40892357Y-21523391D01*
G01X40860692Y-21499414D01*
G01X40860692Y-21499414D01*
G01X40863668Y-21466039D01*
G01X40866035Y-21423570D01*
G01X40867793Y-21372007D01*
G01X40868942Y-21311351D01*
G01X40869481Y-21241601D01*
G01X40869481Y-21241601D01*
G01X40869481Y-21241601D01*
G01X40869303Y-21202524D01*
G01X40868769Y-21157808D01*
G01X40867880Y-21107453D01*
G01X40866636Y-21051459D01*
G01X40865036Y-20989826D01*
G01X40863328Y-20930761D01*
G01X40863328Y-20930761D01*
G01X40859595Y-20826359D01*
G01X40856030Y-20754582D01*
G01X40853014Y-20710015D01*
G01X40850925Y-20687246D01*
G01X40850145Y-20680859D01*
G01X40850145Y-20680859D01*
G37*
%LPC*%
G36*
G01X40943895Y-21451367D02*
G01X40943895Y-21451367D01*
G01X40987699Y-21483095D01*
G01X41034035Y-21503750D01*
G01X41082903Y-21513330D01*
G01X41099754Y-21514062D01*
G01X41099754Y-21514062D01*
G01X41150209Y-21505592D01*
G01X41190829Y-21480183D01*
G01X41217821Y-21444921D01*
G01X41217821Y-21444921D01*
G01X41243420Y-21378993D01*
G01X41254292Y-21318697D01*
G01X41256746Y-21283586D01*
G01X41256785Y-21280859D01*
G01X41256785Y-21280859D01*
G01X41252909Y-21221076D01*
G01X41241281Y-21171101D01*
G01X41221902Y-21130935D01*
G01X41213719Y-21119726D01*
G01X41213719Y-21119726D01*
G01X41155663Y-21077357D01*
G01X41111428Y-21066717D01*
G01X41105614Y-21066406D01*
G01X41103856Y-21066406D01*
G01X41103856Y-21066406D01*
G01X41055613Y-21071728D01*
G01X41009440Y-21087694D01*
G01X40965337Y-21114303D01*
G01X40946239Y-21129687D01*
G01X40946239Y-21129687D01*
G01X40946486Y-21168906D01*
G01X40946824Y-21206738D01*
G01X40946824Y-21206738D01*
G01X40947337Y-21280676D01*
G01X40947410Y-21307812D01*
G01X40947410Y-21307812D01*
G01X40947410Y-21307812D01*
G01X40946980Y-21369120D01*
G01X40945688Y-21418513D01*
G01X40943895Y-21451367D01*
G37*
%LPD*%
G36*
G01X41441356Y-21290820D02*
G01X41441356Y-21290820D01*
G01X41444844Y-21235322D01*
G01X41455309Y-21184844D01*
G01X41472750Y-21139385D01*
G01X41497167Y-21098946D01*
G01X41513426Y-21079004D01*
G01X41513426Y-21079004D01*
G01X41570784Y-21034133D01*
G01X41630167Y-21010269D01*
G01X41678210Y-21000779D01*
G01X41701549Y-20999028D01*
G01X41702098Y-20999023D01*
G01X41702098Y-20999023D01*
G01X41755980Y-21003630D01*
G01X41804563Y-21017451D01*
G01X41847847Y-21040485D01*
G01X41885833Y-21072733D01*
G01X41891649Y-21079004D01*
G01X41891649Y-21079004D01*
G01X41929364Y-21137364D01*
G01X41950821Y-21199048D01*
G01X41960605Y-21252319D01*
G01X41963302Y-21285442D01*
G01X41963426Y-21290820D01*
G01X41963426Y-21290820D01*
G01X41953782Y-21373097D01*
G01X41931835Y-21436711D01*
G01X41908065Y-21479738D01*
G01X41892953Y-21500252D01*
G01X41891649Y-21501757D01*
G01X41891649Y-21501757D01*
G01X41834285Y-21546135D01*
G01X41774608Y-21569737D01*
G01X41726203Y-21579123D01*
G01X41702653Y-21580854D01*
G01X41702098Y-21580859D01*
G01X41702098Y-21580859D01*
G01X41648694Y-21576303D01*
G01X41600420Y-21562634D01*
G01X41557277Y-21539853D01*
G01X41519263Y-21507959D01*
G01X41513426Y-21501757D01*
G01X41513426Y-21501757D01*
G01X41475557Y-21443859D01*
G01X41454012Y-21382438D01*
G01X41444188Y-21329286D01*
G01X41441480Y-21296196D01*
G01X41441356Y-21290820D01*
G37*
%LPC*%
G36*
G01X41525731Y-21273828D02*
G01X41525731Y-21273828D01*
G01X41529383Y-21328867D01*
G01X41540339Y-21378487D01*
G01X41558599Y-21422685D01*
G01X41572313Y-21445507D01*
G01X41572313Y-21445507D01*
G01X41626087Y-21493443D01*
G01X41677953Y-21511368D01*
G01X41702073Y-21514062D01*
G01X41702098Y-21514062D01*
G01X41702098Y-21514062D01*
G01X41754807Y-21507560D01*
G01X41798982Y-21488052D01*
G01X41832762Y-21457812D01*
G01X41832762Y-21457812D01*
G01X41864898Y-21396593D01*
G01X41877450Y-21338139D01*
G01X41879634Y-21308254D01*
G01X41879637Y-21307812D01*
G01X41879637Y-21307812D01*
G01X41875870Y-21252727D01*
G01X41864569Y-21202970D01*
G01X41845735Y-21158541D01*
G01X41831590Y-21135547D01*
G01X41831590Y-21135547D01*
G01X41777240Y-21087201D01*
G01X41725829Y-21069123D01*
G01X41702122Y-21066406D01*
G01X41702098Y-21066406D01*
G01X41702098Y-21066406D01*
G01X41649456Y-21072976D01*
G01X41605485Y-21092687D01*
G01X41572020Y-21123242D01*
G01X41572020Y-21123242D01*
G01X41540286Y-21184863D01*
G01X41527890Y-21243474D01*
G01X41525734Y-21273386D01*
G01X41525731Y-21273828D01*
G37*
%LPD*%
G36*
G01X42017332Y-21054101D02*
G01X42017332Y-21054101D01*
G01X42035203Y-21018945D01*
G01X42035203Y-21018945D01*
G01X42092210Y-21011380D01*
G01X42096434Y-21011328D01*
G01X42130418Y-21011328D01*
G01X42130418Y-21011328D01*
G01X42128214Y-20954043D01*
G01X42125164Y-20904203D01*
G01X42122801Y-20876562D01*
G01X42122801Y-20876562D01*
G01X42162645Y-20873047D01*
G01X42162645Y-20873047D01*
G01X42210879Y-20889500D01*
G01X42220067Y-20918750D01*
G01X42220067Y-20918750D01*
G01X42218700Y-20954529D01*
G01X42215379Y-21012500D01*
G01X42215379Y-21012500D01*
G01X42285106Y-21012097D01*
G01X42341942Y-21010888D01*
G01X42385887Y-21008874D01*
G01X42416942Y-21006054D01*
G01X42416942Y-21006054D01*
G01X42416942Y-21006054D01*
G01X42421629Y-21034179D01*
G01X42421629Y-21034179D01*
G01X42409031Y-21066406D01*
G01X42409031Y-21066406D01*
G01X42368895Y-21075781D01*
G01X42368895Y-21075781D01*
G01X42333785Y-21076427D01*
G01X42282595Y-21076817D01*
G01X42215325Y-21076953D01*
G01X42213035Y-21076953D01*
G01X42213035Y-21076953D01*
G01X42212229Y-21126646D01*
G01X42211593Y-21177313D01*
G01X42211125Y-21228952D01*
G01X42210827Y-21281565D01*
G01X42210698Y-21335151D01*
G01X42210692Y-21349414D01*
G01X42210692Y-21349414D01*
G01X42213729Y-21414513D01*
G01X42222842Y-21461312D01*
G01X42234129Y-21485058D01*
G01X42234129Y-21485058D01*
G01X42289197Y-21515168D01*
G01X42311473Y-21517578D01*
G01X42311473Y-21517578D01*
G01X42360772Y-21507373D01*
G01X42397606Y-21481250D01*
G01X42397606Y-21481250D01*
G01X42419285Y-21524609D01*
G01X42419285Y-21524609D01*
G01X42392426Y-21563110D01*
G01X42388231Y-21565332D01*
G01X42388231Y-21565332D01*
G01X42326523Y-21580193D01*
G01X42312645Y-21580859D01*
G01X42312645Y-21580859D01*
G01X42254865Y-21574979D01*
G01X42209025Y-21557339D01*
G01X42175125Y-21527939D01*
G01X42171727Y-21523437D01*
G01X42171727Y-21523437D01*
G01X42145837Y-21465591D01*
G01X42133937Y-21403544D01*
G01X42130587Y-21359832D01*
G01X42130418Y-21351757D01*
G01X42130418Y-21351757D01*
G01X42131224Y-21274884D01*
G01X42131861Y-21209476D01*
G01X42132329Y-21155532D01*
G01X42132627Y-21113052D01*
G01X42132756Y-21082037D01*
G01X42132762Y-21075781D01*
G01X42132762Y-21075781D01*
G01X42108359Y-21077561D01*
G01X42041479Y-21082900D01*
G01X42020848Y-21084570D01*
G01X42020848Y-21084570D01*
G01X42017332Y-21054101D01*
G37*
G36*
G01X42439207Y-21054101D02*
G01X42439207Y-21054101D01*
G01X42457078Y-21018945D01*
G01X42457078Y-21018945D01*
G01X42514085Y-21011380D01*
G01X42518309Y-21011328D01*
G01X42552293Y-21011328D01*
G01X42552293Y-21011328D01*
G01X42550089Y-20954043D01*
G01X42547039Y-20904203D01*
G01X42544676Y-20876562D01*
G01X42544676Y-20876562D01*
G01X42584520Y-20873047D01*
G01X42584520Y-20873047D01*
G01X42632754Y-20889500D01*
G01X42641942Y-20918750D01*
G01X42641942Y-20918750D01*
G01X42640575Y-20954529D01*
G01X42637254Y-21012500D01*
G01X42637254Y-21012500D01*
G01X42706981Y-21012097D01*
G01X42763817Y-21010888D01*
G01X42807762Y-21008874D01*
G01X42838817Y-21006054D01*
G01X42838817Y-21006054D01*
G01X42838817Y-21006054D01*
G01X42843504Y-21034179D01*
G01X42843504Y-21034179D01*
G01X42830906Y-21066406D01*
G01X42830906Y-21066406D01*
G01X42790770Y-21075781D01*
G01X42790770Y-21075781D01*
G01X42755660Y-21076427D01*
G01X42704470Y-21076817D01*
G01X42637200Y-21076953D01*
G01X42634910Y-21076953D01*
G01X42634910Y-21076953D01*
G01X42634104Y-21126646D01*
G01X42633468Y-21177313D01*
G01X42633000Y-21228952D01*
G01X42632702Y-21281565D01*
G01X42632573Y-21335151D01*
G01X42632567Y-21349414D01*
G01X42632567Y-21349414D01*
G01X42635604Y-21414513D01*
G01X42644717Y-21461312D01*
G01X42656004Y-21485058D01*
G01X42656004Y-21485058D01*
G01X42711072Y-21515168D01*
G01X42733348Y-21517578D01*
G01X42733348Y-21517578D01*
G01X42782647Y-21507373D01*
G01X42819481Y-21481250D01*
G01X42819481Y-21481250D01*
G01X42841160Y-21524609D01*
G01X42841160Y-21524609D01*
G01X42814301Y-21563110D01*
G01X42810106Y-21565332D01*
G01X42810106Y-21565332D01*
G01X42748398Y-21580193D01*
G01X42734520Y-21580859D01*
G01X42734520Y-21580859D01*
G01X42676740Y-21574979D01*
G01X42630900Y-21557339D01*
G01X42597000Y-21527939D01*
G01X42593602Y-21523437D01*
G01X42593602Y-21523437D01*
G01X42567712Y-21465591D01*
G01X42555812Y-21403544D01*
G01X42552462Y-21359832D01*
G01X42552293Y-21351757D01*
G01X42552293Y-21351757D01*
G01X42553099Y-21274884D01*
G01X42553736Y-21209476D01*
G01X42554204Y-21155532D01*
G01X42554502Y-21113052D01*
G01X42554631Y-21082037D01*
G01X42554637Y-21075781D01*
G01X42554637Y-21075781D01*
G01X42530234Y-21077561D01*
G01X42463354Y-21082900D01*
G01X42442723Y-21084570D01*
G01X42442723Y-21084570D01*
G01X42439207Y-21054101D01*
G37*
G36*
G01X42914989Y-21290820D02*
G01X42914989Y-21290820D01*
G01X42918477Y-21235322D01*
G01X42928941Y-21184844D01*
G01X42946382Y-21139385D01*
G01X42970800Y-21098946D01*
G01X42987059Y-21079004D01*
G01X42987059Y-21079004D01*
G01X43044417Y-21034133D01*
G01X43103800Y-21010269D01*
G01X43151843Y-21000779D01*
G01X43175181Y-20999028D01*
G01X43175731Y-20999023D01*
G01X43175731Y-20999023D01*
G01X43229613Y-21003630D01*
G01X43278196Y-21017451D01*
G01X43321480Y-21040485D01*
G01X43359466Y-21072733D01*
G01X43365282Y-21079004D01*
G01X43365282Y-21079004D01*
G01X43402997Y-21137364D01*
G01X43424454Y-21199048D01*
G01X43434238Y-21252319D01*
G01X43436935Y-21285442D01*
G01X43437059Y-21290820D01*
G01X43437059Y-21290820D01*
G01X43427414Y-21373097D01*
G01X43405468Y-21436711D01*
G01X43381698Y-21479738D01*
G01X43366586Y-21500252D01*
G01X43365282Y-21501757D01*
G01X43365282Y-21501757D01*
G01X43307918Y-21546135D01*
G01X43248241Y-21569737D01*
G01X43199836Y-21579123D01*
G01X43176286Y-21580854D01*
G01X43175731Y-21580859D01*
G01X43175731Y-21580859D01*
G01X43122327Y-21576303D01*
G01X43074053Y-21562634D01*
G01X43030909Y-21539853D01*
G01X42992896Y-21507959D01*
G01X42987059Y-21501757D01*
G01X42987059Y-21501757D01*
G01X42949190Y-21443859D01*
G01X42927645Y-21382438D01*
G01X42917821Y-21329286D01*
G01X42915113Y-21296196D01*
G01X42914989Y-21290820D01*
G37*
%LPC*%
G36*
G01X42999364Y-21273828D02*
G01X42999364Y-21273828D01*
G01X43003016Y-21328867D01*
G01X43013972Y-21378487D01*
G01X43032232Y-21422685D01*
G01X43045946Y-21445507D01*
G01X43045946Y-21445507D01*
G01X43099720Y-21493443D01*
G01X43151585Y-21511368D01*
G01X43175706Y-21514062D01*
G01X43175731Y-21514062D01*
G01X43175731Y-21514062D01*
G01X43228440Y-21507560D01*
G01X43272615Y-21488052D01*
G01X43306395Y-21457812D01*
G01X43306395Y-21457812D01*
G01X43338531Y-21396593D01*
G01X43351083Y-21338139D01*
G01X43353267Y-21308254D01*
G01X43353270Y-21307812D01*
G01X43353270Y-21307812D01*
G01X43349503Y-21252727D01*
G01X43338202Y-21202970D01*
G01X43319368Y-21158541D01*
G01X43305223Y-21135547D01*
G01X43305223Y-21135547D01*
G01X43250872Y-21087201D01*
G01X43199462Y-21069123D01*
G01X43175755Y-21066406D01*
G01X43175731Y-21066406D01*
G01X43175731Y-21066406D01*
G01X43123089Y-21072976D01*
G01X43079118Y-21092687D01*
G01X43045653Y-21123242D01*
G01X43045653Y-21123242D01*
G01X43013918Y-21184863D01*
G01X43001523Y-21243474D01*
G01X42999367Y-21273386D01*
G01X42999364Y-21273828D01*
G37*
%LPD*%
G36*
G01X43563035Y-21017187D02*
G01X43563035Y-21017187D01*
G01X43606395Y-21007812D01*
G01X43606395Y-21007812D01*
G01X43649818Y-21025240D01*
G01X43661473Y-21067578D01*
G01X43661473Y-21067578D01*
G01X43702049Y-21040332D01*
G01X43749949Y-21018359D01*
G01X43749949Y-21018359D01*
G01X43749949Y-21018359D01*
G01X43819090Y-21001440D01*
G01X43849559Y-20999023D01*
G01X43849559Y-20999023D01*
G01X43849559Y-20999023D01*
G01X43904759Y-21006512D01*
G01X43947572Y-21028979D01*
G01X43977997Y-21066424D01*
G01X43983153Y-21076953D01*
G01X43983153Y-21076953D01*
G01X44019205Y-21048731D01*
G01X44066778Y-21024651D01*
G01X44073680Y-21021875D01*
G01X44073680Y-21021875D01*
G01X44144208Y-21002825D01*
G01X44182041Y-20999046D01*
G01X44183543Y-20999023D01*
G01X44183543Y-20999023D01*
G01X44236070Y-21006794D01*
G01X44279181Y-21030105D01*
G01X44289305Y-21039160D01*
G01X44289305Y-21039160D01*
G01X44319845Y-21096816D01*
G01X44329312Y-21152722D01*
G01X44330028Y-21168359D01*
G01X44330028Y-21168359D01*
G01X44329338Y-21198575D01*
G01X44327977Y-21254785D01*
G01X44327977Y-21254785D01*
G01X44326369Y-21335968D01*
G01X44325942Y-21377044D01*
G01X44325926Y-21382226D01*
G01X44325926Y-21382226D01*
G01X44327534Y-21440836D01*
G01X44332357Y-21493290D01*
G01X44340396Y-21539588D01*
G01X44346434Y-21563281D01*
G01X44346434Y-21563281D01*
G01X44299559Y-21572656D01*
G01X44299559Y-21572656D01*
G01X44254735Y-21558886D01*
G01X44254735Y-21558886D01*
G01X44240965Y-21511718D01*
G01X44240965Y-21511718D01*
G01X44240965Y-21511718D01*
G01X44241303Y-21477290D01*
G01X44242317Y-21427771D01*
G01X44244006Y-21363162D01*
G01X44244481Y-21346484D01*
G01X44244481Y-21346484D01*
G01X44247031Y-21251310D01*
G01X44247901Y-21209065D01*
G01X44247996Y-21200586D01*
G01X44247996Y-21200586D01*
G01X44241784Y-21144040D01*
G01X44223145Y-21103285D01*
G01X44219871Y-21099218D01*
G01X44219871Y-21099218D01*
G01X44163144Y-21068352D01*
G01X44146043Y-21066406D01*
G01X44146043Y-21066406D01*
G01X44101912Y-21072487D01*
G01X44055979Y-21090731D01*
G01X44008243Y-21121138D01*
G01X43997215Y-21129687D01*
G01X43997215Y-21129687D01*
G01X43998096Y-21194523D01*
G01X43998770Y-21251710D01*
G01X43999238Y-21301249D01*
G01X43999499Y-21343139D01*
G01X43999559Y-21369922D01*
G01X43999559Y-21369922D01*
G01X44000074Y-21428178D01*
G01X44001619Y-21481681D01*
G01X44004193Y-21530431D01*
G01X44007176Y-21567968D01*
G01X44007176Y-21567968D01*
G01X43966160Y-21571484D01*
G01X43966160Y-21571484D01*
G01X43920038Y-21553916D01*
G01X43912254Y-21525781D01*
G01X43912254Y-21525781D01*
G01X43914012Y-21477441D01*
G01X43914012Y-21477441D01*
G01X43915873Y-21413506D01*
G01X43916854Y-21363567D01*
G01X43916942Y-21358203D01*
G01X43916942Y-21358203D01*
G01X43917745Y-21286559D01*
G01X43918059Y-21228351D01*
G01X43918113Y-21200974D01*
G01X43918114Y-21200586D01*
G01X43918114Y-21200586D01*
G01X43910984Y-21139883D01*
G01X43889595Y-21097321D01*
G01X43853946Y-21072900D01*
G01X43812645Y-21066406D01*
G01X43812645Y-21066406D01*
G01X43769127Y-21072769D01*
G01X43723583Y-21091857D01*
G01X43676011Y-21123672D01*
G01X43664989Y-21132617D01*
G01X43664989Y-21132617D01*
G01X43665906Y-21200208D01*
G01X43666597Y-21259120D01*
G01X43667061Y-21309355D01*
G01X43667299Y-21350912D01*
G01X43667332Y-21369922D01*
G01X43667332Y-21369922D01*
G01X43667808Y-21428178D01*
G01X43669234Y-21481681D01*
G01X43671610Y-21530431D01*
G01X43674364Y-21567968D01*
G01X43674364Y-21567968D01*
G01X43633934Y-21571484D01*
G01X43633934Y-21571484D01*
G01X43587812Y-21553916D01*
G01X43580028Y-21525781D01*
G01X43580028Y-21525781D01*
G01X43580979Y-21494832D01*
G01X43582957Y-21437597D01*
G01X43582957Y-21437597D01*
G01X43584925Y-21362634D01*
G01X43585726Y-21302789D01*
G01X43585886Y-21272670D01*
G01X43585887Y-21271484D01*
G01X43585887Y-21271484D01*
G01X43584973Y-21198312D01*
G01X43582231Y-21136297D01*
G01X43577660Y-21085437D01*
G01X43571262Y-21045734D01*
G01X43563035Y-21017187D01*
G01X43563035Y-21017187D01*
G37*
G36*
G01X44742528Y-21485351D02*
G01X44742528Y-21485351D01*
G01X44763923Y-21449234D01*
G01X44796434Y-21434961D01*
G01X44796434Y-21434961D01*
G01X44823469Y-21474722D01*
G01X44853563Y-21493847D01*
G01X44853563Y-21493847D01*
G01X44919715Y-21511827D01*
G01X44948778Y-21514062D01*
G01X44948778Y-21514062D01*
G01X45016286Y-21499918D01*
G01X45032274Y-21491211D01*
G01X45032274Y-21491211D01*
G01X45062590Y-21436335D01*
G01X45064207Y-21420312D01*
G01X45064207Y-21420312D01*
G01X45046245Y-21375927D01*
G01X45032274Y-21365234D01*
G01X45032274Y-21365234D01*
G01X44972157Y-21340254D01*
G01X44954930Y-21335644D01*
G01X44954930Y-21335644D01*
G01X44888352Y-21318679D01*
G01X44863817Y-21311621D01*
G01X44863817Y-21311621D01*
G01X44805456Y-21278366D01*
G01X44786180Y-21259472D01*
G01X44786180Y-21259472D01*
G01X44759001Y-21198011D01*
G01X44754253Y-21158477D01*
G01X44754246Y-21157812D01*
G01X44754246Y-21157812D01*
G01X44762709Y-21109664D01*
G01X44788097Y-21068414D01*
G01X44816063Y-21043554D01*
G01X44816063Y-21043554D01*
G01X44881007Y-21011826D01*
G01X44934950Y-21000482D01*
G01X44955809Y-20999023D01*
G01X44955809Y-20999023D01*
G01X45004912Y-21003901D01*
G01X45053221Y-21018534D01*
G01X45066258Y-21024218D01*
G01X45066258Y-21024218D01*
G01X45115182Y-21071893D01*
G01X45120457Y-21093945D01*
G01X45120457Y-21093945D01*
G01X45099062Y-21131154D01*
G01X45066551Y-21144336D01*
G01X45066551Y-21144336D01*
G01X45038757Y-21105893D01*
G01X45012352Y-21088086D01*
G01X45012352Y-21088086D01*
G01X44947956Y-21068130D01*
G01X44927098Y-21066406D01*
G01X44927098Y-21066406D01*
G01X44877134Y-21076401D01*
G01X44856199Y-21088671D01*
G01X44856199Y-21088671D01*
G01X44827123Y-21142033D01*
G01X44826317Y-21151367D01*
G01X44826317Y-21151367D01*
G01X44843803Y-21195923D01*
G01X44858250Y-21207617D01*
G01X44858250Y-21207617D01*
G01X44917566Y-21233836D01*
G01X44935594Y-21238964D01*
G01X44935594Y-21238964D01*
G01X45001195Y-21256183D01*
G01X45026707Y-21263574D01*
G01X45026707Y-21263574D01*
G01X45085841Y-21296178D01*
G01X45104344Y-21313379D01*
G01X45104344Y-21313379D01*
G01X45132286Y-21373913D01*
G01X45136278Y-21407422D01*
G01X45136278Y-21407422D01*
G01X45136278Y-21407422D01*
G01X45129199Y-21460487D01*
G01X45107965Y-21504138D01*
G01X45075047Y-21536621D01*
G01X45075047Y-21536621D01*
G01X45010732Y-21567554D01*
G01X44954477Y-21579120D01*
G01X44929467Y-21580859D01*
G01X44929442Y-21580859D01*
G01X44929442Y-21580859D01*
G01X44876147Y-21576882D01*
G01X44827590Y-21564952D01*
G01X44799364Y-21553320D01*
G01X44799364Y-21553320D01*
G01X44748060Y-21505826D01*
G01X44742528Y-21485351D01*
G37*
G36*
G01X45238817Y-21290820D02*
G01X45238817Y-21290820D01*
G01X45242305Y-21235322D01*
G01X45252769Y-21184844D01*
G01X45270210Y-21139385D01*
G01X45294628Y-21098946D01*
G01X45310887Y-21079004D01*
G01X45310887Y-21079004D01*
G01X45368245Y-21034133D01*
G01X45427628Y-21010269D01*
G01X45475671Y-21000779D01*
G01X45499009Y-20999028D01*
G01X45499559Y-20999023D01*
G01X45499559Y-20999023D01*
G01X45553441Y-21003630D01*
G01X45602024Y-21017451D01*
G01X45645308Y-21040485D01*
G01X45683294Y-21072733D01*
G01X45689110Y-21079004D01*
G01X45689110Y-21079004D01*
G01X45726825Y-21137364D01*
G01X45748282Y-21199048D01*
G01X45758066Y-21252319D01*
G01X45760763Y-21285442D01*
G01X45760887Y-21290820D01*
G01X45760887Y-21290820D01*
G01X45751243Y-21373097D01*
G01X45729296Y-21436711D01*
G01X45705526Y-21479738D01*
G01X45690414Y-21500252D01*
G01X45689110Y-21501757D01*
G01X45689110Y-21501757D01*
G01X45631746Y-21546135D01*
G01X45572069Y-21569737D01*
G01X45523664Y-21579123D01*
G01X45500114Y-21580854D01*
G01X45499559Y-21580859D01*
G01X45499559Y-21580859D01*
G01X45446155Y-21576303D01*
G01X45397881Y-21562634D01*
G01X45354738Y-21539853D01*
G01X45316724Y-21507959D01*
G01X45310887Y-21501757D01*
G01X45310887Y-21501757D01*
G01X45273018Y-21443859D01*
G01X45251473Y-21382438D01*
G01X45241649Y-21329286D01*
G01X45238941Y-21296196D01*
G01X45238817Y-21290820D01*
G37*
%LPC*%
G36*
G01X45323192Y-21273828D02*
G01X45323192Y-21273828D01*
G01X45326844Y-21328867D01*
G01X45337800Y-21378487D01*
G01X45356060Y-21422685D01*
G01X45369774Y-21445507D01*
G01X45369774Y-21445507D01*
G01X45423548Y-21493443D01*
G01X45475414Y-21511368D01*
G01X45499534Y-21514062D01*
G01X45499559Y-21514062D01*
G01X45499559Y-21514062D01*
G01X45552268Y-21507560D01*
G01X45596443Y-21488052D01*
G01X45630223Y-21457812D01*
G01X45630223Y-21457812D01*
G01X45662359Y-21396593D01*
G01X45674911Y-21338139D01*
G01X45677095Y-21308254D01*
G01X45677098Y-21307812D01*
G01X45677098Y-21307812D01*
G01X45673331Y-21252727D01*
G01X45662030Y-21202970D01*
G01X45643196Y-21158541D01*
G01X45629051Y-21135547D01*
G01X45629051Y-21135547D01*
G01X45574701Y-21087201D01*
G01X45523290Y-21069123D01*
G01X45499583Y-21066406D01*
G01X45499559Y-21066406D01*
G01X45499559Y-21066406D01*
G01X45446917Y-21072976D01*
G01X45402946Y-21092687D01*
G01X45369481Y-21123242D01*
G01X45369481Y-21123242D01*
G01X45337746Y-21184863D01*
G01X45325351Y-21243474D01*
G01X45323195Y-21273386D01*
G01X45323192Y-21273828D01*
G37*
%LPD*%
G36*
G01X45886864Y-20680859D02*
G01X45886864Y-20680859D01*
G01X45929051Y-20677343D01*
G01X45929051Y-20677343D01*
G01X45976176Y-20694912D01*
G01X45984129Y-20723047D01*
G01X45984129Y-20723047D01*
G01X45983060Y-20763690D01*
G01X45982371Y-20787207D01*
G01X45982371Y-20787207D01*
G01X45980529Y-20851626D01*
G01X45978838Y-20912842D01*
G01X45977989Y-20944070D01*
G01X45977977Y-20944531D01*
G01X45977977Y-20944531D01*
G01X45976409Y-21019037D01*
G01X45975632Y-21083110D01*
G01X45975368Y-21126555D01*
G01X45975340Y-21139648D01*
G01X45975340Y-21326562D01*
G01X45975340Y-21326562D01*
G01X45976348Y-21389882D01*
G01X45979371Y-21445967D01*
G01X45984410Y-21494816D01*
G01X45991464Y-21536431D01*
G01X45998192Y-21563281D01*
G01X45998192Y-21563281D01*
G01X45953074Y-21572656D01*
G01X45953074Y-21572656D01*
G01X45906785Y-21558300D01*
G01X45906785Y-21558300D01*
G01X45893895Y-21510547D01*
G01X45893895Y-21510547D01*
G01X45893895Y-21510547D01*
G01X45894022Y-21482783D01*
G01X45894405Y-21432750D01*
G01X45895043Y-21360448D01*
G01X45895067Y-21357910D01*
G01X45895067Y-21357910D01*
G01X45895783Y-21268697D01*
G01X45896124Y-21207444D01*
G01X45896231Y-21174047D01*
G01X45896239Y-21167187D01*
G01X45896239Y-21027734D01*
G01X45896239Y-21027734D01*
G01X45896028Y-20947762D01*
G01X45895395Y-20877652D01*
G01X45894340Y-20817403D01*
G01X45892864Y-20767015D01*
G01X45890965Y-20726489D01*
G01X45888645Y-20695824D01*
G01X45886864Y-20680859D01*
G37*
G36*
G01X46124168Y-21290820D02*
G01X46124168Y-21290820D01*
G01X46127742Y-21235752D01*
G01X46138461Y-21185534D01*
G01X46156328Y-21140166D01*
G01X46181341Y-21099647D01*
G01X46197996Y-21079589D01*
G01X46197996Y-21079589D01*
G01X46256975Y-21033012D01*
G01X46314744Y-21009094D01*
G01X46358671Y-21000282D01*
G01X46376121Y-20999023D01*
G01X46376121Y-20999023D01*
G01X46376121Y-20999023D01*
G01X46424587Y-21003764D01*
G01X46471969Y-21017989D01*
G01X46515574Y-21040039D01*
G01X46515574Y-21040039D01*
G01X46517102Y-20981924D01*
G01X46517842Y-20933461D01*
G01X46517918Y-20915234D01*
G01X46517918Y-20915234D01*
G01X46517464Y-20853215D01*
G01X46516103Y-20797094D01*
G01X46513834Y-20746872D01*
G01X46510658Y-20702549D01*
G01X46508543Y-20680859D01*
G01X46508543Y-20680859D01*
G01X46551317Y-20677343D01*
G01X46551317Y-20677343D01*
G01X46597439Y-20694912D01*
G01X46605223Y-20723047D01*
G01X46605223Y-20723047D01*
G01X46605033Y-20745975D01*
G01X46604461Y-20781805D01*
G01X46603510Y-20830539D01*
G01X46602177Y-20892176D01*
G01X46600464Y-20966716D01*
G01X46599949Y-20988476D01*
G01X46599949Y-20988476D01*
G01X46597802Y-21085156D01*
G01X46596334Y-21162668D01*
G01X46595418Y-21222009D01*
G01X46594922Y-21264170D01*
G01X46594718Y-21290145D01*
G01X46594676Y-21300928D01*
G01X46594676Y-21301367D01*
G01X46594676Y-21301367D01*
G01X46595501Y-21372502D01*
G01X46597976Y-21433611D01*
G01X46602101Y-21484694D01*
G01X46607875Y-21525751D01*
G01X46615300Y-21556781D01*
G01X46617528Y-21563281D01*
G01X46617528Y-21563281D01*
G01X46571824Y-21572656D01*
G01X46571824Y-21572656D01*
G01X46530454Y-21553913D01*
G01X46519090Y-21512890D01*
G01X46519090Y-21512890D01*
G01X46476545Y-21546596D01*
G01X46431832Y-21568869D01*
G01X46384950Y-21579710D01*
G01X46363231Y-21580859D01*
G01X46362059Y-21580859D01*
G01X46362059Y-21580859D01*
G01X46313793Y-21575314D01*
G01X46268934Y-21558678D01*
G01X46227481Y-21530951D01*
G01X46195067Y-21498828D01*
G01X46195067Y-21498828D01*
G01X46156536Y-21437320D01*
G01X46135332Y-21374268D01*
G01X46126280Y-21322077D01*
G01X46124205Y-21293152D01*
G01X46124168Y-21290820D01*
G37*
%LPC*%
G36*
G01X46208543Y-21273828D02*
G01X46208543Y-21273828D01*
G01X46212217Y-21328637D01*
G01X46223237Y-21377894D01*
G01X46241605Y-21421597D01*
G01X46258934Y-21449023D01*
G01X46258934Y-21449023D01*
G01X46315627Y-21498751D01*
G01X46364008Y-21515727D01*
G01X46380809Y-21517578D01*
G01X46380809Y-21517578D01*
G01X46426836Y-21510112D01*
G01X46471332Y-21487715D01*
G01X46514296Y-21450387D01*
G01X46515574Y-21449023D01*
G01X46515574Y-21449023D01*
G01X46514924Y-21362178D01*
G01X46514379Y-21287621D01*
G01X46513940Y-21225350D01*
G01X46513606Y-21175367D01*
G01X46513377Y-21137671D01*
G01X46513254Y-21112261D01*
G01X46513231Y-21102148D01*
G01X46513231Y-21102148D01*
G01X46464038Y-21079706D01*
G01X46416093Y-21068136D01*
G01X46389598Y-21066406D01*
G01X46389598Y-21066406D01*
G01X46336685Y-21072976D01*
G01X46291901Y-21092687D01*
G01X46257176Y-21123242D01*
G01X46257176Y-21123242D01*
G01X46223835Y-21184863D01*
G01X46210812Y-21243474D01*
G01X46208546Y-21273386D01*
G01X46208543Y-21273828D01*
G37*
%LPD*%
G36*
G01X46742918Y-21293164D02*
G01X46742918Y-21293164D01*
G01X46746445Y-21236503D01*
G01X46757027Y-21185631D01*
G01X46774662Y-21140546D01*
G01X46799352Y-21101250D01*
G01X46822899Y-21075195D01*
G01X46822899Y-21075195D01*
G01X46885983Y-21031158D01*
G01X46946788Y-21008545D01*
G01X46992596Y-21000213D01*
G01X47010692Y-20999023D01*
G01X47010692Y-20999023D01*
G01X47010692Y-20999023D01*
G01X47064011Y-21004510D01*
G01X47110014Y-21020969D01*
G01X47146629Y-21046484D01*
G01X47146629Y-21046484D01*
G01X47187514Y-21106175D01*
G01X47198360Y-21150790D01*
G01X47198778Y-21157812D01*
G01X47198778Y-21157812D01*
G01X47192150Y-21210596D01*
G01X47182078Y-21235742D01*
G01X47182078Y-21235742D01*
G01X47142569Y-21281644D01*
G01X47138426Y-21284668D01*
G01X47138426Y-21284668D01*
G01X47079308Y-21307882D01*
G01X47060496Y-21312207D01*
G01X47060496Y-21312207D01*
G01X46991282Y-21321838D01*
G01X46960301Y-21324218D01*
G01X46960301Y-21324218D01*
G01X46960301Y-21324218D01*
G01X46895149Y-21326030D01*
G01X46841279Y-21326537D01*
G01X46830809Y-21326562D01*
G01X46830809Y-21326562D01*
G01X46841011Y-21381035D01*
G01X46858867Y-21427311D01*
G01X46882664Y-21463379D01*
G01X46882664Y-21463379D01*
G01X46939469Y-21501983D01*
G01X46989172Y-21513361D01*
G01X47000731Y-21514062D01*
G01X47000731Y-21514062D01*
G01X47057046Y-21506815D01*
G01X47100085Y-21485072D01*
G01X47128465Y-21451367D01*
G01X47128465Y-21451367D01*
G01X47171321Y-21483082D01*
G01X47175926Y-21501757D01*
G01X47175926Y-21501757D01*
G01X47156309Y-21539586D01*
G01X47121434Y-21559179D01*
G01X47121434Y-21559179D01*
G01X47053440Y-21576406D01*
G01X47005640Y-21580733D01*
G01X46999559Y-21580859D01*
G01X46999559Y-21580859D01*
G01X46945598Y-21576410D01*
G01X46896800Y-21563061D01*
G01X46853166Y-21540814D01*
G01X46814696Y-21509668D01*
G01X46814696Y-21509668D01*
G01X46814696Y-21509668D01*
G01X46776980Y-21454255D01*
G01X46755523Y-21391338D01*
G01X46745739Y-21334933D01*
G01X46743042Y-21299062D01*
G01X46742918Y-21293164D01*
G37*
%LPC*%
G36*
G01X46829637Y-21266797D02*
G01X46829637Y-21266797D01*
G01X46885133Y-21266389D01*
G01X46915770Y-21265625D01*
G01X46915770Y-21265625D01*
G01X46978729Y-21259996D01*
G01X46991356Y-21258300D01*
G01X46991356Y-21258300D01*
G01X47052428Y-21243373D01*
G01X47057567Y-21241308D01*
G01X47057567Y-21241308D01*
G01X47098829Y-21210307D01*
G01X47098875Y-21210254D01*
G01X47098875Y-21210254D01*
G01X47116154Y-21160582D01*
G01X47116160Y-21160156D01*
G01X47116160Y-21160156D01*
G01X47102378Y-21113703D01*
G01X47084520Y-21093359D01*
G01X47084520Y-21093359D01*
G01X47025363Y-21067172D01*
G01X47006004Y-21065234D01*
G01X47006004Y-21065234D01*
G01X46955560Y-21071972D01*
G01X46910891Y-21092186D01*
G01X46882957Y-21114453D01*
G01X46882957Y-21114453D01*
G01X46848191Y-21171089D01*
G01X46833192Y-21230739D01*
G01X46829687Y-21265334D01*
G01X46829637Y-21266797D01*
G37*
%LPD*%
G36*
G01X47324754Y-21011328D02*
G01X47324754Y-21011328D01*
G01X47365770Y-21007812D01*
G01X47365770Y-21007812D01*
G01X47410650Y-21026292D01*
G01X47417332Y-21052929D01*
G01X47417332Y-21052929D01*
G01X47416746Y-21069336D01*
G01X47416746Y-21069336D01*
G01X47416160Y-21095117D01*
G01X47416160Y-21095117D01*
G01X47446804Y-21057385D01*
G01X47480321Y-21028613D01*
G01X47480321Y-21028613D01*
G01X47542563Y-21001062D01*
G01X47559715Y-20999023D01*
G01X47559715Y-20999023D01*
G01X47603074Y-21011621D01*
G01X47603074Y-21011621D01*
G01X47618895Y-21045898D01*
G01X47618895Y-21045898D01*
G01X47601944Y-21090077D01*
G01X47594871Y-21099804D01*
G01X47594871Y-21099804D01*
G01X47549920Y-21077961D01*
G01X47536864Y-21076953D01*
G01X47536864Y-21076953D01*
G01X47490634Y-21089506D01*
G01X47469774Y-21103320D01*
G01X47469774Y-21103320D01*
G01X47425480Y-21153004D01*
G01X47413231Y-21173047D01*
G01X47413231Y-21173047D01*
G01X47412585Y-21207774D01*
G01X47412194Y-21257815D01*
G01X47412059Y-21323171D01*
G01X47412059Y-21325390D01*
G01X47412059Y-21325390D01*
G01X47413067Y-21389540D01*
G01X47416090Y-21446144D01*
G01X47421129Y-21495202D01*
G01X47428183Y-21536716D01*
G01X47434910Y-21563281D01*
G01X47434910Y-21563281D01*
G01X47389207Y-21572656D01*
G01X47389207Y-21572656D01*
G01X47342868Y-21557438D01*
G01X47342625Y-21557129D01*
G01X47342625Y-21557129D01*
G01X47330622Y-21504969D01*
G01X47330614Y-21504101D01*
G01X47330614Y-21504101D01*
G01X47330943Y-21467887D01*
G01X47331785Y-21409472D01*
G01X47331785Y-21409472D01*
G01X47332740Y-21331430D01*
G01X47332954Y-21294448D01*
G01X47332957Y-21291992D01*
G01X47332957Y-21291992D01*
G01X47332692Y-21232218D01*
G01X47331894Y-21176508D01*
G01X47330565Y-21124860D01*
G01X47328705Y-21077274D01*
G01X47326313Y-21033752D01*
G01X47324754Y-21011328D01*
G37*
G36*
G01X47702684Y-21017187D02*
G01X47702684Y-21017187D01*
G01X47749559Y-21007812D01*
G01X47749559Y-21007812D01*
G01X47791139Y-21026555D01*
G01X47801121Y-21067578D01*
G01X47801121Y-21067578D01*
G01X47847227Y-21037585D01*
G01X47894139Y-21016162D01*
G01X47941856Y-21003308D01*
G01X47990379Y-20999023D01*
G01X47990379Y-20999023D01*
G01X47990379Y-20999023D01*
G01X48041646Y-21004797D01*
G01X48087164Y-21022121D01*
G01X48126935Y-21050993D01*
G01X48138914Y-21063183D01*
G01X48138914Y-21063183D01*
G01X48172619Y-21120784D01*
G01X48189928Y-21184948D01*
G01X48196304Y-21237083D01*
G01X48197215Y-21258593D01*
G01X48197215Y-21258593D01*
G01X48197215Y-21258593D01*
G01X48194425Y-21312218D01*
G01X48186055Y-21362843D01*
G01X48172105Y-21410468D01*
G01X48169969Y-21416211D01*
G01X48169969Y-21416211D01*
G01X48134527Y-21479636D01*
G01X48098293Y-21520677D01*
G01X48082957Y-21534277D01*
G01X48082957Y-21534277D01*
G01X48019666Y-21566849D01*
G01X47963794Y-21579028D01*
G01X47938842Y-21580859D01*
G01X47938817Y-21580859D01*
G01X47938817Y-21580859D01*
G01X47888757Y-21575619D01*
G01X47840672Y-21559900D01*
G01X47804637Y-21540429D01*
G01X47804637Y-21540429D01*
G01X47805012Y-21582617D01*
G01X47805223Y-21603418D01*
G01X47805223Y-21603418D01*
G01X47806205Y-21672616D01*
G01X47806395Y-21680761D01*
G01X47806395Y-21680761D01*
G01X47809076Y-21739139D01*
G01X47809324Y-21743750D01*
G01X47809324Y-21743750D01*
G01X47815578Y-21807414D01*
G01X47816649Y-21814062D01*
G01X47816649Y-21814062D01*
G01X47828658Y-21863274D01*
G01X47828660Y-21863281D01*
G01X47828660Y-21863281D01*
G01X47780614Y-21872656D01*
G01X47780614Y-21872656D01*
G01X47734274Y-21857438D01*
G01X47734032Y-21857129D01*
G01X47734032Y-21857129D01*
G01X47722029Y-21804969D01*
G01X47722020Y-21804101D01*
G01X47722020Y-21804101D01*
G01X47722077Y-21759890D01*
G01X47722248Y-21712052D01*
G01X47722532Y-21660589D01*
G01X47722931Y-21605499D01*
G01X47723444Y-21546784D01*
G01X47723778Y-21512597D01*
G01X47723778Y-21512597D01*
G01X47724669Y-21416723D01*
G01X47725192Y-21346643D01*
G01X47725446Y-21300323D01*
G01X47725528Y-21275727D01*
G01X47725535Y-21270312D01*
G01X47725535Y-21270312D01*
G01X47724621Y-21199625D01*
G01X47721879Y-21138968D01*
G01X47717309Y-21088343D01*
G01X47710910Y-21047750D01*
G01X47702684Y-21017187D01*
G01X47702684Y-21017187D01*
G37*
%LPC*%
G36*
G01X47804637Y-21132617D02*
G01X47804637Y-21132617D01*
G01X47805287Y-21207618D01*
G01X47805832Y-21274420D01*
G01X47806272Y-21333021D01*
G01X47806606Y-21383422D01*
G01X47806834Y-21425622D01*
G01X47806957Y-21459623D01*
G01X47806981Y-21477734D01*
G01X47806981Y-21477734D01*
G01X47848362Y-21497975D01*
G01X47897601Y-21510087D01*
G01X47951121Y-21514062D01*
G01X47951121Y-21514062D01*
G01X48000999Y-21504907D01*
G01X48042821Y-21477441D01*
G01X48042821Y-21477441D01*
G01X48042821Y-21477441D01*
G01X48082598Y-21421459D01*
G01X48096066Y-21388918D01*
G01X48096141Y-21388672D01*
G01X48096141Y-21388672D01*
G01X48108941Y-21320911D01*
G01X48111641Y-21278660D01*
G01X48111668Y-21276172D01*
G01X48111668Y-21276172D01*
G01X48107950Y-21216599D01*
G01X48096797Y-21167257D01*
G01X48078208Y-21128146D01*
G01X48070360Y-21117382D01*
G01X48070360Y-21117382D01*
G01X48012329Y-21076352D01*
G01X47968643Y-21066615D01*
G01X47964012Y-21066406D01*
G01X47964012Y-21066406D01*
G01X47917069Y-21071974D01*
G01X47870718Y-21088679D01*
G01X47824958Y-21116521D01*
G01X47804637Y-21132617D01*
G37*
%LPD*%
G36*
G01X48304442Y-21412109D02*
G01X48304442Y-21412109D01*
G01X48312205Y-21357369D01*
G01X48333153Y-21322168D01*
G01X48333153Y-21322168D01*
G01X48388209Y-21287387D01*
G01X48412254Y-21278515D01*
G01X48412254Y-21278515D01*
G01X48454283Y-21268711D01*
G01X48500962Y-21260437D01*
G01X48552293Y-21253696D01*
G01X48608274Y-21248485D01*
G01X48640770Y-21246289D01*
G01X48640770Y-21246289D01*
G01X48637683Y-21182638D01*
G01X48628424Y-21134419D01*
G01X48615574Y-21105371D01*
G01X48615574Y-21105371D01*
G01X48562587Y-21073622D01*
G01X48512790Y-21066513D01*
G01X48508348Y-21066406D01*
G01X48508348Y-21066406D01*
G01X48461707Y-21076295D01*
G01X48438914Y-21087793D01*
G01X48438914Y-21087793D01*
G01X48393415Y-21134389D01*
G01X48384715Y-21150195D01*
G01X48384715Y-21150195D01*
G01X48337177Y-21126208D01*
G01X48329637Y-21102148D01*
G01X48329637Y-21102148D01*
G01X48344066Y-21059961D01*
G01X48387352Y-21027148D01*
G01X48387352Y-21027148D01*
G01X48387352Y-21027148D01*
G01X48454384Y-21006056D01*
G01X48507942Y-20999517D01*
G01X48521824Y-20999023D01*
G01X48521824Y-20999023D01*
G01X48582184Y-21003403D01*
G01X48631264Y-21016543D01*
G01X48669064Y-21038443D01*
G01X48672996Y-21041797D01*
G01X48672996Y-21041797D01*
G01X48705259Y-21095713D01*
G01X48718407Y-21156748D01*
G01X48721027Y-21193168D01*
G01X48721043Y-21194726D01*
G01X48721043Y-21194726D01*
G01X48720452Y-21234179D01*
G01X48719871Y-21265332D01*
G01X48719871Y-21265332D01*
G01X48718806Y-21338494D01*
G01X48718699Y-21357031D01*
G01X48718699Y-21357031D01*
G01X48720128Y-21421777D01*
G01X48724412Y-21477734D01*
G01X48731553Y-21524902D01*
G01X48741551Y-21563281D01*
G01X48741551Y-21563281D01*
G01X48741551Y-21563281D01*
G01X48694676Y-21572656D01*
G01X48694676Y-21572656D01*
G01X48657469Y-21560058D01*
G01X48657469Y-21560058D01*
G01X48643114Y-21519922D01*
G01X48643114Y-21519922D01*
G01X48598043Y-21551000D01*
G01X48552129Y-21571109D01*
G01X48505371Y-21580250D01*
G01X48489598Y-21580859D01*
G01X48489598Y-21580859D01*
G01X48429114Y-21575392D01*
G01X48380552Y-21558989D01*
G01X48343912Y-21531652D01*
G01X48319194Y-21493379D01*
G01X48306399Y-21444172D01*
G01X48304442Y-21412109D01*
G37*
%LPC*%
G36*
G01X48388817Y-21412109D02*
G01X48388817Y-21412109D01*
G01X48398906Y-21464424D01*
G01X48419871Y-21491797D01*
G01X48419871Y-21491797D01*
G01X48480073Y-21515928D01*
G01X48498973Y-21517578D01*
G01X48498973Y-21517578D01*
G01X48549983Y-21511707D01*
G01X48595506Y-21494096D01*
G01X48635541Y-21464744D01*
G01X48636668Y-21463672D01*
G01X48636668Y-21463672D01*
G01X48635511Y-21415789D01*
G01X48635496Y-21407422D01*
G01X48635496Y-21407422D01*
G01X48636856Y-21356914D01*
G01X48639598Y-21307812D01*
G01X48639598Y-21307812D01*
G01X48588883Y-21313482D01*
G01X48587449Y-21313672D01*
G01X48587449Y-21313672D01*
G01X48540282Y-21319531D01*
G01X48540282Y-21319531D01*
G01X48496336Y-21326562D01*
G01X48496336Y-21326562D01*
G01X48461180Y-21336230D01*
G01X48461180Y-21336230D01*
G01X48430125Y-21349707D01*
G01X48430125Y-21349707D01*
G01X48408446Y-21365820D01*
G01X48408446Y-21365820D01*
G01X48392918Y-21386035D01*
G01X48392918Y-21386035D01*
G01X48388817Y-21412109D01*
G37*
%LPD*%
G36*
G01X48855223Y-21485351D02*
G01X48855223Y-21485351D01*
G01X48876618Y-21449234D01*
G01X48909129Y-21434961D01*
G01X48909129Y-21434961D01*
G01X48936164Y-21474722D01*
G01X48966258Y-21493847D01*
G01X48966258Y-21493847D01*
G01X49032410Y-21511827D01*
G01X49061473Y-21514062D01*
G01X49061473Y-21514062D01*
G01X49128981Y-21499918D01*
G01X49144969Y-21491211D01*
G01X49144969Y-21491211D01*
G01X49175285Y-21436335D01*
G01X49176903Y-21420312D01*
G01X49176903Y-21420312D01*
G01X49158940Y-21375927D01*
G01X49144969Y-21365234D01*
G01X49144969Y-21365234D01*
G01X49084853Y-21340254D01*
G01X49067625Y-21335644D01*
G01X49067625Y-21335644D01*
G01X49001047Y-21318679D01*
G01X48976512Y-21311621D01*
G01X48976512Y-21311621D01*
G01X48918152Y-21278366D01*
G01X48898875Y-21259472D01*
G01X48898875Y-21259472D01*
G01X48871696Y-21198011D01*
G01X48866949Y-21158477D01*
G01X48866942Y-21157812D01*
G01X48866942Y-21157812D01*
G01X48875404Y-21109664D01*
G01X48900792Y-21068414D01*
G01X48928758Y-21043554D01*
G01X48928758Y-21043554D01*
G01X48993703Y-21011826D01*
G01X49047646Y-21000482D01*
G01X49068504Y-20999023D01*
G01X49068504Y-20999023D01*
G01X49117607Y-21003901D01*
G01X49165916Y-21018534D01*
G01X49178953Y-21024218D01*
G01X49178953Y-21024218D01*
G01X49227877Y-21071893D01*
G01X49233153Y-21093945D01*
G01X49233153Y-21093945D01*
G01X49211757Y-21131154D01*
G01X49179246Y-21144336D01*
G01X49179246Y-21144336D01*
G01X49151452Y-21105893D01*
G01X49125047Y-21088086D01*
G01X49125047Y-21088086D01*
G01X49060651Y-21068130D01*
G01X49039793Y-21066406D01*
G01X49039793Y-21066406D01*
G01X48989830Y-21076401D01*
G01X48968895Y-21088672D01*
G01X48968895Y-21088672D01*
G01X48939819Y-21142033D01*
G01X48939012Y-21151367D01*
G01X48939012Y-21151367D01*
G01X48956499Y-21195923D01*
G01X48970946Y-21207617D01*
G01X48970946Y-21207617D01*
G01X49030261Y-21233836D01*
G01X49048289Y-21238964D01*
G01X49048289Y-21238964D01*
G01X49113891Y-21256183D01*
G01X49139403Y-21263574D01*
G01X49139403Y-21263574D01*
G01X49198536Y-21296178D01*
G01X49217039Y-21313379D01*
G01X49217039Y-21313379D01*
G01X49244981Y-21373913D01*
G01X49248973Y-21407422D01*
G01X49248973Y-21407422D01*
G01X49248973Y-21407422D01*
G01X49241895Y-21460487D01*
G01X49220660Y-21504138D01*
G01X49187742Y-21536621D01*
G01X49187742Y-21536621D01*
G01X49123427Y-21567554D01*
G01X49067172Y-21579120D01*
G01X49042162Y-21580859D01*
G01X49042137Y-21580859D01*
G01X49042137Y-21580859D01*
G01X48988842Y-21576882D01*
G01X48940285Y-21564952D01*
G01X48912059Y-21553320D01*
G01X48912059Y-21553320D01*
G01X48860755Y-21505826D01*
G01X48855223Y-21485351D01*
G37*
G36*
G01X49297606Y-21054101D02*
G01X49297606Y-21054101D01*
G01X49315477Y-21018945D01*
G01X49315477Y-21018945D01*
G01X49372484Y-21011380D01*
G01X49376707Y-21011328D01*
G01X49410692Y-21011328D01*
G01X49410692Y-21011328D01*
G01X49408487Y-20954043D01*
G01X49405437Y-20904203D01*
G01X49403074Y-20876562D01*
G01X49403074Y-20876562D01*
G01X49442918Y-20873047D01*
G01X49442918Y-20873047D01*
G01X49491153Y-20889500D01*
G01X49500340Y-20918750D01*
G01X49500340Y-20918750D01*
G01X49498973Y-20954529D01*
G01X49495653Y-21012500D01*
G01X49495653Y-21012500D01*
G01X49565379Y-21012097D01*
G01X49622215Y-21010888D01*
G01X49666160Y-21008874D01*
G01X49697215Y-21006054D01*
G01X49697215Y-21006054D01*
G01X49697215Y-21006054D01*
G01X49701903Y-21034179D01*
G01X49701903Y-21034179D01*
G01X49689305Y-21066406D01*
G01X49689305Y-21066406D01*
G01X49649168Y-21075781D01*
G01X49649168Y-21075781D01*
G01X49614058Y-21076427D01*
G01X49562868Y-21076817D01*
G01X49495598Y-21076953D01*
G01X49493309Y-21076953D01*
G01X49493309Y-21076953D01*
G01X49492503Y-21126646D01*
G01X49491866Y-21177313D01*
G01X49491398Y-21228952D01*
G01X49491100Y-21281565D01*
G01X49490971Y-21335151D01*
G01X49490965Y-21349414D01*
G01X49490965Y-21349414D01*
G01X49494003Y-21414513D01*
G01X49503115Y-21461312D01*
G01X49514403Y-21485058D01*
G01X49514403Y-21485058D01*
G01X49569470Y-21515168D01*
G01X49591746Y-21517578D01*
G01X49591746Y-21517578D01*
G01X49641046Y-21507373D01*
G01X49677879Y-21481250D01*
G01X49677879Y-21481250D01*
G01X49699559Y-21524609D01*
G01X49699559Y-21524609D01*
G01X49672700Y-21563110D01*
G01X49668504Y-21565332D01*
G01X49668504Y-21565332D01*
G01X49606796Y-21580193D01*
G01X49592918Y-21580859D01*
G01X49592918Y-21580859D01*
G01X49535138Y-21574979D01*
G01X49489298Y-21557339D01*
G01X49455398Y-21527939D01*
G01X49452000Y-21523437D01*
G01X49452000Y-21523437D01*
G01X49426110Y-21465591D01*
G01X49414210Y-21403544D01*
G01X49410861Y-21359832D01*
G01X49410692Y-21351757D01*
G01X49410692Y-21351757D01*
G01X49411498Y-21274884D01*
G01X49412134Y-21209476D01*
G01X49412602Y-21155532D01*
G01X49412900Y-21113052D01*
G01X49413030Y-21082037D01*
G01X49413035Y-21075781D01*
G01X49413035Y-21075781D01*
G01X49388633Y-21077561D01*
G01X49321752Y-21082900D01*
G01X49301121Y-21084570D01*
G01X49301121Y-21084570D01*
G01X49297606Y-21054101D01*
G37*
G36*
G01X49773387Y-21293164D02*
G01X49773387Y-21293164D01*
G01X49776914Y-21236503D01*
G01X49787496Y-21185631D01*
G01X49805131Y-21140546D01*
G01X49829821Y-21101250D01*
G01X49853367Y-21075195D01*
G01X49853367Y-21075195D01*
G01X49916452Y-21031158D01*
G01X49977257Y-21008545D01*
G01X50023065Y-21000213D01*
G01X50041160Y-20999023D01*
G01X50041160Y-20999023D01*
G01X50041160Y-20999023D01*
G01X50094479Y-21004510D01*
G01X50140483Y-21020969D01*
G01X50177098Y-21046484D01*
G01X50177098Y-21046484D01*
G01X50217982Y-21106175D01*
G01X50228829Y-21150790D01*
G01X50229246Y-21157812D01*
G01X50229246Y-21157812D01*
G01X50222618Y-21210596D01*
G01X50212547Y-21235742D01*
G01X50212547Y-21235742D01*
G01X50173038Y-21281644D01*
G01X50168895Y-21284668D01*
G01X50168895Y-21284668D01*
G01X50109777Y-21307882D01*
G01X50090965Y-21312207D01*
G01X50090965Y-21312207D01*
G01X50021751Y-21321838D01*
G01X49990770Y-21324218D01*
G01X49990770Y-21324218D01*
G01X49990770Y-21324218D01*
G01X49925617Y-21326030D01*
G01X49871748Y-21326537D01*
G01X49861278Y-21326562D01*
G01X49861278Y-21326562D01*
G01X49871480Y-21381035D01*
G01X49889336Y-21427311D01*
G01X49913133Y-21463379D01*
G01X49913133Y-21463379D01*
G01X49969938Y-21501983D01*
G01X50019641Y-21513361D01*
G01X50031199Y-21514062D01*
G01X50031199Y-21514062D01*
G01X50087515Y-21506815D01*
G01X50130554Y-21485072D01*
G01X50158934Y-21451367D01*
G01X50158934Y-21451367D01*
G01X50201790Y-21483082D01*
G01X50206395Y-21501757D01*
G01X50206395Y-21501757D01*
G01X50186778Y-21539586D01*
G01X50151903Y-21559179D01*
G01X50151903Y-21559179D01*
G01X50083909Y-21576406D01*
G01X50036109Y-21580733D01*
G01X50030028Y-21580859D01*
G01X50030028Y-21580859D01*
G01X49976066Y-21576410D01*
G01X49927269Y-21563061D01*
G01X49883635Y-21540814D01*
G01X49845164Y-21509668D01*
G01X49845164Y-21509668D01*
G01X49845164Y-21509668D01*
G01X49807449Y-21454255D01*
G01X49785992Y-21391338D01*
G01X49776208Y-21334933D01*
G01X49773511Y-21299062D01*
G01X49773387Y-21293164D01*
G37*
%LPC*%
G36*
G01X49860106Y-21266797D02*
G01X49860106Y-21266797D01*
G01X49915601Y-21266389D01*
G01X49946239Y-21265625D01*
G01X49946239Y-21265625D01*
G01X50009197Y-21259996D01*
G01X50021824Y-21258300D01*
G01X50021824Y-21258300D01*
G01X50082897Y-21243373D01*
G01X50088035Y-21241308D01*
G01X50088035Y-21241308D01*
G01X50129298Y-21210307D01*
G01X50129344Y-21210254D01*
G01X50129344Y-21210254D01*
G01X50146623Y-21160582D01*
G01X50146629Y-21160156D01*
G01X50146629Y-21160156D01*
G01X50132847Y-21113703D01*
G01X50114989Y-21093359D01*
G01X50114989Y-21093359D01*
G01X50055831Y-21067172D01*
G01X50036473Y-21065234D01*
G01X50036473Y-21065234D01*
G01X49986029Y-21071972D01*
G01X49941360Y-21092186D01*
G01X49913426Y-21114453D01*
G01X49913426Y-21114453D01*
G01X49878660Y-21171089D01*
G01X49863661Y-21230739D01*
G01X49860156Y-21265334D01*
G01X49860106Y-21266797D01*
G37*

G04 Pad flashes *
%LPD*%
D11*

G04 end of program *
M02*
