M48
METRIC,TZ
G90
M71
T1C0.254
M95
T1
X6.293026Y-11.119301
X18.630091Y-3.822550
X18.901723Y-26.630026
X19.665025Y-15.795055
X11.262958Y-18.794930
X3.477494Y-9.620999
X5.705220Y-11.701275
X31.899656Y-11.070478
X18.750920Y-22.230994
X31.729624Y-26.810260
X18.306417Y-7.231482
X4.007790Y-8.953837
X32.309221Y-26.209381
X35.188198Y-11.053106
X18.558778Y-33.912118
X26.747511Y-19.045367
X18.763859Y-11.332112
X17.829802Y-21.998613
X6.082864Y-26.970168
X33.962877Y-29.075877
X2.843869Y-26.999862
X3.139406Y-27.740729
X21.586403Y-7.530349
X16.514862Y-30.435521
X32.170781Y-11.912803
X7.729969Y-22.557036
X34.548812Y-28.375137
X12.997998Y-29.170086
X19.717562Y-30.909398
X9.118792Y-25.534778
X13.239033Y-8.640427
X30.845416Y-19.211915
X24.746043Y-29.308864
X19.454787Y-4.089602
X29.637739Y-24.321539
X25.066606Y-8.872451
X28.939739Y-12.459470
X19.420665Y-34.207536
X17.789576Y-37.006134
X20.191975Y-1.018691
X30.255973Y-15.544804
X34.875678Y-10.253812
X10.379753Y-11.058515
X18.575098Y-19.101939
X18.655987Y-37.125268
X8.349006Y-13.653316
X19.340152Y-0.919907
X27.615399Y-26.962511
X5.874346Y-26.025147
X7.169981Y-18.872037
X19.427608Y-19.136498
M30
