%FSLAX33Y33*%
%MOMM*%
%AMRect-W2000001-H800001-RO0.500*
21,1,2.000001,0.800001,0.,0.,270*%
%AMRect-W1200000-H800001-RO0.500*
21,1,1.2,0.800001,0.,0.,270*%
%ADD10C,0.0508*%
%ADD11C,1.0668*%
%ADD12Rect-W2000001-H800001-RO0.500*%
%ADD13Rect-W1200000-H800001-RO0.500*%
%ADD14R,1.55X1.55*%
%ADD15C,1.55*%
D10*
%LNpour fill*%
G01*
X46664Y6516D02*
X46664Y6516D01*
X29649Y6516*
X29648Y6516*
X29557Y6525*
X29554Y6526*
X29466Y6553*
X29464Y6554*
X29382Y6597*
X29380Y6599*
X29309Y6657*
X29307Y6659*
X29249Y6730*
X29247Y6732*
X29204Y6814*
X29203Y6816*
X29176Y6904*
X29175Y6907*
X29166Y6998*
X29166Y6999*
X29166Y8601*
X29166Y8602*
X29175Y8693*
X29176Y8696*
X29203Y8784*
X29204Y8786*
X29247Y8868*
X29249Y8870*
X29307Y8941*
X29309Y8943*
X29380Y9001*
X29382Y9003*
X29464Y9046*
X29466Y9047*
X29554Y9074*
X29557Y9075*
X29648Y9084*
X29649Y9084*
X47315Y9084*
X47622Y10425*
X27875Y10425*
X27875Y5625*
X46411Y5625*
X46664Y6516*
X27850Y5650D02*
X46444Y5650D01*
X27850Y5699D02*
X46458Y5699D01*
X27850Y5749D02*
X46472Y5749D01*
X27850Y5798D02*
X46486Y5798D01*
X27850Y5848D02*
X46500Y5848D01*
X27850Y5897D02*
X46514Y5897D01*
X27850Y5947D02*
X46529Y5947D01*
X27850Y5996D02*
X46543Y5996D01*
X27850Y6046D02*
X46557Y6046D01*
X27850Y6095D02*
X46571Y6095D01*
X27850Y6145D02*
X46585Y6145D01*
X27850Y6194D02*
X46599Y6194D01*
X27850Y6244D02*
X46613Y6244D01*
X27850Y6293D02*
X46627Y6293D01*
X27850Y6343D02*
X46641Y6343D01*
X27850Y6392D02*
X46655Y6392D01*
X27850Y6442D02*
X46669Y6442D01*
X27850Y6492D02*
X46684Y6492D01*
X27850Y6541D02*
X46698Y6541D01*
X27850Y6591D02*
X29449Y6591D01*
X27850Y6640D02*
X29370Y6640D01*
X27850Y6690D02*
X29315Y6690D01*
X27850Y6739D02*
X29274Y6739D01*
X27850Y6789D02*
X29246Y6789D01*
X27850Y6838D02*
X29223Y6838D01*
X27850Y6888D02*
X29208Y6888D01*
X27850Y6937D02*
X29198Y6937D01*
X27850Y6987D02*
X29193Y6987D01*
X27850Y7036D02*
X29192Y7036D01*
X27850Y7086D02*
X29192Y7086D01*
X27850Y7135D02*
X29192Y7135D01*
X27850Y7185D02*
X29192Y7185D01*
X27850Y7234D02*
X29192Y7234D01*
X27850Y7284D02*
X29192Y7284D01*
X27850Y7334D02*
X29192Y7334D01*
X27850Y7383D02*
X29192Y7383D01*
X27850Y7433D02*
X29192Y7433D01*
X27850Y7482D02*
X29192Y7482D01*
X27850Y7532D02*
X29192Y7532D01*
X27850Y7581D02*
X29192Y7581D01*
X27850Y7631D02*
X29192Y7631D01*
X27850Y7680D02*
X29192Y7680D01*
X27850Y7730D02*
X29192Y7730D01*
X27850Y7779D02*
X29192Y7779D01*
X27850Y7829D02*
X29192Y7829D01*
X27850Y7878D02*
X29192Y7878D01*
X27850Y7928D02*
X29192Y7928D01*
X27850Y7977D02*
X29192Y7977D01*
X27850Y8027D02*
X29192Y8027D01*
X27850Y8076D02*
X29192Y8076D01*
X27850Y8126D02*
X29192Y8126D01*
X27850Y8176D02*
X29192Y8176D01*
X27850Y8225D02*
X29192Y8225D01*
X27850Y8275D02*
X29192Y8275D01*
X27850Y8324D02*
X29192Y8324D01*
X27850Y8374D02*
X29192Y8374D01*
X27850Y8423D02*
X29192Y8423D01*
X27850Y8473D02*
X29192Y8473D01*
X27850Y8522D02*
X29192Y8522D01*
X27850Y8572D02*
X29192Y8572D01*
X27850Y8621D02*
X29194Y8621D01*
X27850Y8671D02*
X29199Y8671D01*
X27850Y8720D02*
X29210Y8720D01*
X27850Y8770D02*
X29225Y8770D01*
X27850Y8819D02*
X29250Y8819D01*
X27850Y8869D02*
X29281Y8869D01*
X27850Y8919D02*
X29321Y8919D01*
X27850Y8968D02*
X29380Y8968D01*
X27850Y9018D02*
X29464Y9018D01*
X27850Y9067D02*
X47337Y9067D01*
X27850Y9117D02*
X47348Y9117D01*
X27850Y9166D02*
X47360Y9166D01*
X27850Y9216D02*
X47371Y9216D01*
X27850Y9265D02*
X47382Y9265D01*
X27850Y9315D02*
X47394Y9315D01*
X27850Y9364D02*
X47405Y9364D01*
X27850Y9414D02*
X47416Y9414D01*
X27850Y9463D02*
X47428Y9463D01*
X27850Y9513D02*
X47439Y9513D01*
X27850Y9562D02*
X47450Y9562D01*
X27850Y9612D02*
X47462Y9612D01*
X27850Y9661D02*
X47473Y9661D01*
X27850Y9711D02*
X47485Y9711D01*
X27850Y9761D02*
X47496Y9761D01*
X27850Y9810D02*
X47507Y9810D01*
X27850Y9860D02*
X47519Y9860D01*
X27850Y9909D02*
X47530Y9909D01*
X27850Y9959D02*
X47541Y9959D01*
X27850Y10008D02*
X47553Y10008D01*
X27850Y10058D02*
X47564Y10058D01*
X27850Y10107D02*
X47575Y10107D01*
X27850Y10157D02*
X47587Y10157D01*
X27850Y10206D02*
X47598Y10206D01*
X27850Y10256D02*
X47609Y10256D01*
X27850Y10305D02*
X47621Y10305D01*
X27850Y10355D02*
X47632Y10355D01*
X27850Y10404D02*
X47644Y10404D01*
X47081Y8116D02*
X47081Y8116D01*
X30134Y8116*
X30134Y7484*
X46918Y7484*
X47081Y8116*
X30108Y7508D02*
X46951Y7508D01*
X30108Y7557D02*
X46963Y7557D01*
X30108Y7607D02*
X46976Y7607D01*
X30108Y7656D02*
X46989Y7656D01*
X30108Y7706D02*
X47002Y7706D01*
X30108Y7755D02*
X47014Y7755D01*
X30108Y7805D02*
X47027Y7805D01*
X30108Y7854D02*
X47040Y7854D01*
X30108Y7904D02*
X47052Y7904D01*
X30108Y7954D02*
X47065Y7954D01*
X30108Y8003D02*
X47078Y8003D01*
X30108Y8053D02*
X47091Y8053D01*
X30108Y8102D02*
X47103Y8102D01*
%LNtop solder mask_traces*%
D11*
X24900Y37300D03*
X46900Y14900D03*
X29550Y29850D03*
X43400Y36550D03*
X38650Y22050D03*
X38650Y29800D03*
X16350Y36450D03*
X6650Y21700D03*
X43400Y22400D03*
X28700Y37150D03*
X7150Y15450D03*
X46750Y37950D03*
X32600Y37500D03*
X24850Y29850D03*
X20150Y16800D03*
X15650Y29650D03*
X11250Y29600D03*
X29550Y21900D03*
X24900Y21850D03*
X29250Y16750D03*
X15650Y17050D03*
X34100Y30050D03*
X43450Y29350D03*
X11700Y37150D03*
X20250Y29650D03*
X6350Y29400D03*
X6600Y37700D03*
X24800Y16150D03*
X20250Y21750D03*
X15950Y21700D03*
X11500Y21600D03*
X38750Y16700D03*
X34100Y21950D03*
X20600Y37450D03*
X11350Y16600D03*
X42900Y15350D03*
%LNtop solder mask component b63a915f14e56ab0*%
D12*
X31697Y32520D03*
D13*
X31697Y34670D03*
%LNtop solder mask component 2d8a75f5f516d1e8*%
D12*
X40864Y32520D03*
D13*
X40864Y34670D03*
%LNtop solder mask component dda7386182c8d90b*%
D12*
X40864Y24450D03*
D13*
X40864Y26600D03*
%LNtop solder mask component 237f822594edd433*%
D12*
X13364Y32520D03*
D13*
X13364Y34670D03*
%LNtop solder mask component 00b1c4d6fd4119b1*%
D12*
X17947Y17845D03*
D13*
X17947Y19995D03*
%LNtop solder mask component ef6e12693dbf5f4e*%
D12*
X8781Y24450D03*
D13*
X8781Y26600D03*
%LNtop solder mask component c27913cca4f7b2bc*%
D12*
X13364Y24450D03*
D13*
X13364Y26600D03*
%LNtop solder mask component 6ecb9e78d0b4ad16*%
D12*
X17947Y24450D03*
D13*
X17947Y26600D03*
%LNtop solder mask component d3f5827382159297*%
D14*
X13420Y12450D03*
D15*
X15960Y12450D03*
X18500Y12450D03*
X21040Y12450D03*
X23580Y12450D03*
X26120Y12450D03*
X28660Y12450D03*
X31200Y12450D03*
X33740Y12450D03*
X36280Y12450D03*
%LNtop solder mask component f06a9b999809c5bc*%
D12*
X22531Y32520D03*
D13*
X22531Y34670D03*
%LNtop solder mask component 9d9787e56fb843b5*%
D12*
X31697Y24450D03*
D13*
X31697Y26600D03*
%LNtop solder mask component 625668e8c4110400*%
D12*
X27114Y24450D03*
D13*
X27114Y26600D03*
%LNtop solder mask component 1c0a852161275c55*%
D12*
X36281Y24450D03*
D13*
X36281Y26600D03*
%LNtop solder mask component 6b81eb568788a618*%
D12*
X4197Y32520D03*
D13*
X4197Y34670D03*
%LNtop solder mask component ce574d7d1471fc53*%
D12*
X27114Y32520D03*
D13*
X27114Y34670D03*
%LNtop solder mask component 6b1c98187ecd4732*%
D12*
X36281Y32520D03*
D13*
X36281Y34670D03*
%LNtop solder mask component 763fc9b59c2e9779*%
D12*
X27114Y17845D03*
D13*
X27114Y19995D03*
%LNtop solder mask component e859c303c48e5b51*%
D12*
X22531Y17845D03*
D13*
X22531Y19995D03*
%LNtop solder mask component f3a27893b55f737a*%
D14*
X13495Y41025D03*
D15*
X16035Y41025D03*
X18575Y41025D03*
X21115Y41025D03*
X23655Y41025D03*
X26195Y41025D03*
X28735Y41025D03*
X31275Y41025D03*
X33815Y41025D03*
X36355Y41025D03*
%LNtop solder mask component aa635499163bf62b*%
D12*
X8781Y17845D03*
D13*
X8781Y19995D03*
%LNtop solder mask component 23c76c2c48bda672*%
D12*
X4197Y17845D03*
D13*
X4197Y19995D03*
%LNtop solder mask component 18ae8cbd932e49cf*%
D12*
X13364Y17845D03*
D13*
X13364Y19995D03*
%LNtop solder mask component 0aded2140b9cfb25*%
D12*
X31697Y17845D03*
D13*
X31697Y19995D03*
%LNtop solder mask component e87c228dd111c435*%
D12*
X8781Y32520D03*
D13*
X8781Y34670D03*
%LNtop solder mask component 76dc57f52eff33a9*%
D12*
X40864Y17845D03*
D13*
X40864Y19995D03*
%LNtop solder mask component 3eba9d942e51c6cb*%
D12*
X22531Y24450D03*
D13*
X22531Y26600D03*
%LNtop solder mask component 9ec9439801b11cfa*%
D12*
X45447Y24450D03*
D13*
X45447Y26600D03*
%LNtop solder mask component 733d94552b139b24*%
D12*
X4197Y24450D03*
D13*
X4197Y26600D03*
%LNtop solder mask component 18887290ca97bcee*%
D12*
X17947Y32520D03*
D13*
X17947Y34670D03*
%LNtop solder mask component ee666b82db008739*%
D12*
X45447Y17845D03*
D13*
X45447Y19995D03*
%LNtop solder mask component 730cdaa1f653b3c7*%
D12*
X45447Y32520D03*
D13*
X45447Y34670D03*
%LNtop solder mask component 2eac6afefd26ab07*%
D12*
X36281Y17845D03*
D13*
X36281Y19995D03*
M02*