%FSLAX33Y33*%
%MOMM*%
%LNbottom silkscreen_traces*%
%LNtext*%
G36*
G01*
X30667Y26540D02*
X30667Y27449D01*
X30547Y27449D01*
X30547Y26647D01*
X30099Y26647D01*
X30099Y26540D01*
X30667Y26540D01*
X30667Y26540D01*
X29969Y26540D02*
X29969Y27199D01*
X29858Y27199D01*
X29858Y26540D01*
X29969Y26540D01*
X29969Y26540D01*
X29969Y27321D02*
X29969Y27449D01*
X29858Y27449D01*
X29858Y27321D01*
X29969Y27321D01*
X29969Y27321D01*
X29708Y26485D02*
X29600Y26469D01*
X29595Y26446D01*
X29587Y26426D01*
X29576Y26409D01*
X29562Y26396D01*
X29539Y26383D01*
X29513Y26373D01*
X29483Y26367D01*
X29448Y26365D01*
X29412Y26367D01*
X29380Y26373D01*
X29352Y26383D01*
X29329Y26396D01*
X29309Y26413D01*
X29293Y26433D01*
X29281Y26457D01*
X29272Y26483D01*
X29268Y26505D01*
X29265Y26536D01*
X29264Y26576D01*
X29264Y26626D01*
X29316Y26682D01*
X29306Y26692D01*
X29284Y26725D01*
X29267Y26768D01*
X29258Y26818D01*
X29254Y26877D01*
X29258Y26934D01*
X29268Y26983D01*
X29285Y27025D01*
X29308Y27060D01*
X29336Y27087D01*
X29367Y27106D01*
X29401Y27117D01*
X29437Y27121D01*
X29473Y27117D01*
X29506Y27106D01*
X29536Y27087D01*
X29564Y27061D01*
X29587Y27027D01*
X29603Y26985D01*
X29613Y26937D01*
X29616Y26881D01*
X29616Y26881D01*
X29613Y26821D01*
X29603Y26769D01*
X29587Y26726D01*
X29564Y26692D01*
X29537Y26666D01*
X29506Y26647D01*
X29473Y26636D01*
X29435Y26632D01*
X29399Y26636D01*
X29365Y26647D01*
X29334Y26666D01*
X29316Y26682D01*
X29264Y26626D01*
X29303Y26588D01*
X29346Y26562D01*
X29394Y26545D01*
X29446Y26540D01*
X29510Y26546D01*
X29566Y26564D01*
X29615Y26595D01*
X29656Y26638D01*
X29689Y26689D01*
X29712Y26746D01*
X29726Y26807D01*
X29731Y26873D01*
X29728Y26919D01*
X29722Y26964D01*
X29711Y27006D01*
X29697Y27047D01*
X29678Y27085D01*
X29655Y27118D01*
X29628Y27146D01*
X29598Y27170D01*
X29564Y27189D01*
X29527Y27203D01*
X29488Y27211D01*
X29445Y27213D01*
X29390Y27208D01*
X29339Y27190D01*
X29294Y27160D01*
X29253Y27119D01*
X29253Y27199D01*
X29150Y27199D01*
X29150Y26629D01*
X29152Y26558D01*
X29158Y26498D01*
X29168Y26449D01*
X29182Y26411D01*
X29199Y26381D01*
X29222Y26354D01*
X29249Y26330D01*
X29281Y26310D01*
X29317Y26294D01*
X29356Y26282D01*
X29400Y26275D01*
X29448Y26273D01*
X29504Y26276D01*
X29554Y26286D01*
X29599Y26303D01*
X29638Y26326D01*
X29670Y26356D01*
X29692Y26392D01*
X29705Y26435D01*
X29708Y26485D01*
X29708Y26485D01*
X28982Y26540D02*
X28982Y27449D01*
X28870Y27449D01*
X28870Y27123D01*
X28828Y27163D01*
X28782Y27191D01*
X28730Y27208D01*
X28673Y27213D01*
X28637Y27212D01*
X28604Y27206D01*
X28574Y27197D01*
X28546Y27185D01*
X28521Y27169D01*
X28499Y27150D01*
X28482Y27129D01*
X28468Y27105D01*
X28458Y27077D01*
X28451Y27043D01*
X28447Y27003D01*
X28445Y26957D01*
X28445Y26540D01*
X28557Y26540D01*
X28557Y26957D01*
X28559Y26996D01*
X28566Y27030D01*
X28577Y27057D01*
X28593Y27079D01*
X28613Y27096D01*
X28637Y27108D01*
X28664Y27115D01*
X28696Y27117D01*
X28720Y27116D01*
X28744Y27111D01*
X28767Y27103D01*
X28789Y27092D01*
X28809Y27078D01*
X28826Y27061D01*
X28840Y27043D01*
X28851Y27022D01*
X28859Y26998D01*
X28865Y26969D01*
X28869Y26937D01*
X28870Y26900D01*
X28870Y26540D01*
X28982Y26540D01*
X28982Y26540D01*
X28031Y26640D02*
X28015Y26541D01*
X28038Y26537D01*
X28060Y26534D01*
X28080Y26532D01*
X28100Y26531D01*
X28128Y26533D01*
X28154Y26536D01*
X28176Y26542D01*
X28194Y26551D01*
X28209Y26561D01*
X28222Y26573D01*
X28233Y26586D01*
X28241Y26601D01*
X28247Y26621D01*
X28251Y26650D01*
X28254Y26687D01*
X28255Y26733D01*
X28255Y27112D01*
X28337Y27112D01*
X28337Y27199D01*
X28255Y27199D01*
X28255Y27362D01*
X28144Y27429D01*
X28144Y27199D01*
X28031Y27199D01*
X28031Y27112D01*
X28144Y27112D01*
X28144Y26727D01*
X28143Y26705D01*
X28142Y26687D01*
X28140Y26674D01*
X28138Y26665D01*
X28134Y26659D01*
X28130Y26653D01*
X28125Y26648D01*
X28119Y26644D01*
X28111Y26640D01*
X28102Y26638D01*
X28092Y26636D01*
X28080Y26635D01*
X28070Y26636D01*
X28059Y26637D01*
X28046Y26638D01*
X28031Y26640D01*
X28031Y26640D01*
X27555Y26540D02*
X27555Y27449D01*
X27212Y27449D01*
X27170Y27449D01*
X27132Y27447D01*
X27101Y27444D01*
X27074Y27440D01*
X27042Y27434D01*
X27013Y27424D01*
X26986Y27412D01*
X26962Y27398D01*
X26940Y27381D01*
X26921Y27360D01*
X26904Y27337D01*
X26889Y27310D01*
X26877Y27281D01*
X26868Y27251D01*
X26863Y27219D01*
X26861Y27186D01*
X26866Y27130D01*
X26880Y27079D01*
X26903Y27032D01*
X26935Y26990D01*
X26979Y26955D01*
X27039Y26930D01*
X27113Y26915D01*
X27140Y26913D01*
X27146Y27020D01*
X27100Y27028D01*
X27063Y27041D01*
X27034Y27060D01*
X27013Y27084D01*
X26998Y27113D01*
X26988Y27145D01*
X26985Y27182D01*
X26987Y27210D01*
X26993Y27235D01*
X27002Y27259D01*
X27014Y27280D01*
X27030Y27299D01*
X27048Y27314D01*
X27068Y27326D01*
X27090Y27334D01*
X27109Y27337D01*
X27133Y27340D01*
X27165Y27341D01*
X27202Y27342D01*
X27435Y27342D01*
X27435Y27017D01*
X27435Y27017D01*
X27200Y27017D01*
X27146Y27020D01*
X27140Y26913D01*
X27202Y26910D01*
X27435Y26910D01*
X27435Y26540D01*
X27555Y26540D01*
X27555Y26540D01*
X26293Y26621D02*
X26323Y26597D01*
X26328Y26594D01*
X26370Y26656D01*
X26350Y26674D01*
X26333Y26695D01*
X26320Y26718D01*
X26312Y26739D01*
X26306Y26765D01*
X26303Y26795D01*
X26302Y26830D01*
X26302Y26871D01*
X26302Y26871D01*
X26336Y26859D01*
X26378Y26848D01*
X26427Y26838D01*
X26484Y26828D01*
X26516Y26823D01*
X26543Y26818D01*
X26565Y26812D01*
X26582Y26806D01*
X26595Y26799D01*
X26607Y26791D01*
X26617Y26781D01*
X26626Y26770D01*
X26632Y26757D01*
X26637Y26745D01*
X26640Y26731D01*
X26641Y26717D01*
X26639Y26695D01*
X26633Y26676D01*
X26622Y26658D01*
X26607Y26642D01*
X26589Y26629D01*
X26566Y26620D01*
X26539Y26614D01*
X26508Y26613D01*
X26477Y26614D01*
X26448Y26620D01*
X26420Y26628D01*
X26394Y26641D01*
X26370Y26656D01*
X26328Y26594D01*
X26354Y26576D01*
X26383Y26560D01*
X26412Y26547D01*
X26441Y26537D01*
X26472Y26531D01*
X26503Y26526D01*
X26535Y26525D01*
X26586Y26528D01*
X26631Y26538D01*
X26670Y26555D01*
X26702Y26578D01*
X26727Y26606D01*
X26746Y26639D01*
X26757Y26674D01*
X26760Y26714D01*
X26759Y26737D01*
X26755Y26760D01*
X26748Y26781D01*
X26738Y26802D01*
X26726Y26821D01*
X26713Y26838D01*
X26698Y26853D01*
X26681Y26866D01*
X26662Y26878D01*
X26643Y26887D01*
X26622Y26896D01*
X26600Y26903D01*
X26582Y26907D01*
X26559Y26911D01*
X26532Y26915D01*
X26501Y26920D01*
X26438Y26928D01*
X26384Y26937D01*
X26338Y26947D01*
X26302Y26958D01*
X26302Y26968D01*
X26302Y26977D01*
X26301Y26983D01*
X26301Y26987D01*
X26303Y27019D01*
X26309Y27045D01*
X26319Y27067D01*
X26333Y27083D01*
X26357Y27100D01*
X26386Y27112D01*
X26421Y27119D01*
X26460Y27121D01*
X26497Y27119D01*
X26529Y27114D01*
X26555Y27106D01*
X26576Y27093D01*
X26594Y27077D01*
X26609Y27055D01*
X26622Y27028D01*
X26632Y26996D01*
X26741Y27011D01*
X26732Y27044D01*
X26721Y27074D01*
X26708Y27101D01*
X26692Y27124D01*
X26673Y27144D01*
X26650Y27162D01*
X26624Y27177D01*
X26593Y27190D01*
X26560Y27200D01*
X26524Y27208D01*
X26485Y27212D01*
X26444Y27213D01*
X26404Y27212D01*
X26368Y27208D01*
X26335Y27202D01*
X26307Y27194D01*
X26282Y27183D01*
X26261Y27171D01*
X26244Y27158D01*
X26229Y27144D01*
X26218Y27128D01*
X26208Y27110D01*
X26201Y27090D01*
X26195Y27068D01*
X26192Y27051D01*
X26191Y27028D01*
X26189Y26999D01*
X26189Y26965D01*
X26189Y26816D01*
X26189Y26745D01*
X26187Y26689D01*
X26185Y26647D01*
X26182Y26619D01*
X26178Y26599D01*
X26171Y26579D01*
X26163Y26559D01*
X26154Y26540D01*
X26270Y26540D01*
X26278Y26558D01*
X26285Y26578D01*
X26289Y26599D01*
X26293Y26621D01*
X26293Y26621D01*
X26016Y26540D02*
X26016Y27199D01*
X25916Y27199D01*
X25916Y27105D01*
X25875Y27152D01*
X25827Y27186D01*
X25771Y27207D01*
X25706Y27213D01*
X25677Y27212D01*
X25649Y27208D01*
X25622Y27201D01*
X25597Y27192D01*
X25573Y27181D01*
X25553Y27167D01*
X25536Y27152D01*
X25522Y27136D01*
X25510Y27118D01*
X25501Y27098D01*
X25493Y27077D01*
X25487Y27053D01*
X25484Y27035D01*
X25482Y27011D01*
X25481Y26981D01*
X25481Y26945D01*
X25481Y26540D01*
X25593Y26540D01*
X25593Y26941D01*
X25593Y26973D01*
X25596Y27000D01*
X25600Y27024D01*
X25606Y27043D01*
X25613Y27059D01*
X25624Y27073D01*
X25636Y27086D01*
X25652Y27097D01*
X25669Y27105D01*
X25688Y27112D01*
X25708Y27115D01*
X25730Y27117D01*
X25764Y27114D01*
X25796Y27105D01*
X25826Y27091D01*
X25853Y27071D01*
X25875Y27044D01*
X25892Y27006D01*
X25901Y26958D01*
X25904Y26900D01*
X25904Y26540D01*
X26016Y26540D01*
X26016Y26540D01*
X24859Y26752D02*
X24744Y26738D01*
X24760Y26690D01*
X24783Y26648D01*
X24811Y26612D01*
X24845Y26581D01*
X24884Y26557D01*
X24929Y26539D01*
X24978Y26529D01*
X25033Y26525D01*
X25102Y26531D01*
X25163Y26547D01*
X25216Y26575D01*
X25262Y26614D01*
X25299Y26663D01*
X25326Y26721D01*
X25342Y26788D01*
X25347Y26864D01*
X25342Y26942D01*
X25326Y27011D01*
X25299Y27071D01*
X25261Y27122D01*
X25215Y27162D01*
X25163Y27191D01*
X25104Y27208D01*
X25039Y27213D01*
X25030Y27213D01*
X25038Y27122D01*
X25075Y27118D01*
X25109Y27109D01*
X25140Y27093D01*
X25167Y27070D01*
X25191Y27042D01*
X25208Y27010D01*
X25220Y26973D01*
X25225Y26933D01*
X25225Y26933D01*
X24858Y26933D01*
X24863Y26971D01*
X24872Y27005D01*
X24884Y27034D01*
X24900Y27057D01*
X24929Y27085D01*
X24961Y27106D01*
X24998Y27118D01*
X25038Y27122D01*
X25030Y27213D01*
X24976Y27208D01*
X24919Y27191D01*
X24868Y27163D01*
X24824Y27124D01*
X24787Y27074D01*
X24761Y27015D01*
X24745Y26947D01*
X24740Y26871D01*
X24740Y26865D01*
X24740Y26858D01*
X24740Y26850D01*
X24741Y26841D01*
X25232Y26841D01*
X25225Y26790D01*
X25213Y26745D01*
X25195Y26707D01*
X25170Y26675D01*
X25141Y26649D01*
X25108Y26631D01*
X25072Y26620D01*
X25033Y26617D01*
X25003Y26619D01*
X24976Y26625D01*
X24951Y26635D01*
X24928Y26649D01*
X24907Y26668D01*
X24889Y26691D01*
X24873Y26719D01*
X24859Y26752D01*
X24859Y26752D01*
X24606Y26540D02*
X24606Y27449D01*
X24494Y27449D01*
X24494Y26540D01*
X24606Y26540D01*
X24606Y26540D01*
X30590Y25040D02*
X30590Y25949D01*
X30187Y25949D01*
X30130Y25948D01*
X30080Y25943D01*
X30038Y25935D01*
X30002Y25925D01*
X29972Y25910D01*
X29945Y25891D01*
X29922Y25867D01*
X29901Y25838D01*
X29885Y25806D01*
X29873Y25773D01*
X29866Y25738D01*
X29863Y25701D01*
X29867Y25655D01*
X29879Y25612D01*
X29899Y25573D01*
X29926Y25538D01*
X29962Y25508D01*
X30006Y25484D01*
X30058Y25466D01*
X30089Y25460D01*
X30108Y25557D01*
X30082Y25565D01*
X30060Y25575D01*
X30041Y25587D01*
X30025Y25602D01*
X30012Y25619D01*
X30001Y25639D01*
X29993Y25659D01*
X29989Y25679D01*
X29987Y25701D01*
X29990Y25732D01*
X29999Y25760D01*
X30014Y25785D01*
X30034Y25807D01*
X30061Y25825D01*
X30095Y25838D01*
X30135Y25846D01*
X30182Y25849D01*
X30470Y25849D01*
X30470Y25548D01*
X30470Y25548D01*
X30211Y25548D01*
X30172Y25549D01*
X30138Y25552D01*
X30108Y25557D01*
X30089Y25460D01*
X30119Y25454D01*
X30097Y25442D01*
X30077Y25431D01*
X30061Y25420D01*
X30047Y25408D01*
X30021Y25383D01*
X29996Y25354D01*
X29971Y25322D01*
X29947Y25287D01*
X29789Y25040D01*
X29940Y25040D01*
X30061Y25229D01*
X30086Y25268D01*
X30109Y25301D01*
X30129Y25330D01*
X30147Y25354D01*
X30164Y25374D01*
X30180Y25391D01*
X30195Y25405D01*
X30208Y25415D01*
X30222Y25423D01*
X30236Y25430D01*
X30249Y25435D01*
X30263Y25439D01*
X30275Y25441D01*
X30290Y25443D01*
X30309Y25443D01*
X30330Y25444D01*
X30470Y25444D01*
X30470Y25040D01*
X30590Y25040D01*
X30590Y25040D01*
X29300Y25040D02*
X29411Y25040D01*
X29411Y25751D01*
X29433Y25732D01*
X29458Y25713D01*
X29486Y25694D01*
X29517Y25674D01*
X29549Y25656D01*
X29579Y25641D01*
X29608Y25628D01*
X29635Y25617D01*
X29635Y25725D01*
X29589Y25748D01*
X29547Y25773D01*
X29507Y25801D01*
X29471Y25831D01*
X29438Y25862D01*
X29411Y25893D01*
X29389Y25923D01*
X29372Y25953D01*
X29300Y25953D01*
X29300Y25040D01*
X29300Y25040D01*
X28677Y25298D02*
X28569Y25313D01*
X28565Y25265D01*
X28557Y25225D01*
X28545Y25194D01*
X28530Y25170D01*
X28510Y25153D01*
X28488Y25141D01*
X28462Y25134D01*
X28433Y25132D01*
X28412Y25133D01*
X28391Y25137D01*
X28372Y25143D01*
X28355Y25153D01*
X28340Y25164D01*
X28328Y25177D01*
X28317Y25192D01*
X28310Y25209D01*
X28305Y25229D01*
X28301Y25255D01*
X28298Y25286D01*
X28298Y25323D01*
X28298Y25949D01*
X28177Y25949D01*
X28177Y25330D01*
X28179Y25276D01*
X28184Y25228D01*
X28193Y25187D01*
X28205Y25153D01*
X28221Y25123D01*
X28241Y25098D01*
X28264Y25076D01*
X28292Y25057D01*
X28324Y25043D01*
X28357Y25033D01*
X28394Y25027D01*
X28433Y25024D01*
X28489Y25029D01*
X28538Y25042D01*
X28581Y25063D01*
X28616Y25093D01*
X28644Y25132D01*
X28663Y25179D01*
X28674Y25234D01*
X28677Y25298D01*
X28677Y25298D01*
X27563Y25040D02*
X27563Y25137D01*
X27605Y25088D01*
X27654Y25053D01*
X27710Y25032D01*
X27772Y25025D01*
X27801Y25027D01*
X27829Y25031D01*
X27855Y25038D01*
X27881Y25047D01*
X27905Y25059D01*
X27925Y25073D01*
X27942Y25087D01*
X27956Y25104D01*
X27968Y25121D01*
X27977Y25141D01*
X27985Y25163D01*
X27991Y25186D01*
X27994Y25205D01*
X27996Y25229D01*
X27997Y25257D01*
X27997Y25291D01*
X27997Y25699D01*
X27886Y25699D01*
X27886Y25333D01*
X27885Y25293D01*
X27884Y25260D01*
X27882Y25234D01*
X27879Y25215D01*
X27872Y25195D01*
X27863Y25176D01*
X27850Y25160D01*
X27834Y25146D01*
X27816Y25135D01*
X27796Y25128D01*
X27774Y25123D01*
X27750Y25121D01*
X27725Y25123D01*
X27701Y25128D01*
X27678Y25136D01*
X27656Y25147D01*
X27635Y25161D01*
X27618Y25177D01*
X27604Y25196D01*
X27593Y25217D01*
X27585Y25242D01*
X27580Y25271D01*
X27576Y25306D01*
X27575Y25346D01*
X27575Y25699D01*
X27463Y25699D01*
X27463Y25040D01*
X27563Y25040D01*
X27563Y25040D01*
X27291Y25040D02*
X27291Y25949D01*
X27179Y25949D01*
X27179Y25040D01*
X27291Y25040D01*
X27291Y25040D01*
X27011Y24786D02*
X27024Y24891D01*
X27006Y24887D01*
X26990Y24884D01*
X26974Y24882D01*
X26960Y24881D01*
X26942Y24882D01*
X26926Y24884D01*
X26913Y24888D01*
X26900Y24894D01*
X26890Y24900D01*
X26880Y24909D01*
X26871Y24918D01*
X26864Y24928D01*
X26858Y24940D01*
X26850Y24958D01*
X26841Y24981D01*
X26830Y25011D01*
X26828Y25017D01*
X26826Y25023D01*
X26823Y25030D01*
X26820Y25039D01*
X27070Y25699D01*
X26949Y25699D01*
X26812Y25317D01*
X26799Y25280D01*
X26787Y25243D01*
X26776Y25204D01*
X26765Y25165D01*
X26755Y25203D01*
X26744Y25241D01*
X26732Y25278D01*
X26719Y25315D01*
X26578Y25699D01*
X26466Y25699D01*
X26717Y25029D01*
X26736Y24979D01*
X26753Y24937D01*
X26767Y24904D01*
X26780Y24879D01*
X26795Y24854D01*
X26811Y24832D01*
X26829Y24813D01*
X26848Y24798D01*
X26868Y24787D01*
X26890Y24779D01*
X26914Y24774D01*
X26940Y24773D01*
X26956Y24774D01*
X26974Y24776D01*
X26992Y24780D01*
X27011Y24786D01*
X27011Y24786D01*
X25463Y25147D02*
X25463Y25040D01*
X26064Y25040D01*
X26064Y25060D01*
X26061Y25080D01*
X26057Y25099D01*
X26051Y25118D01*
X26038Y25148D01*
X26021Y25178D01*
X26001Y25209D01*
X25977Y25238D01*
X25949Y25269D01*
X25916Y25303D01*
X25876Y25338D01*
X25831Y25376D01*
X25763Y25434D01*
X25707Y25485D01*
X25663Y25530D01*
X25631Y25569D01*
X25608Y25604D01*
X25592Y25638D01*
X25582Y25671D01*
X25579Y25703D01*
X25582Y25735D01*
X25591Y25764D01*
X25606Y25791D01*
X25626Y25815D01*
X25652Y25835D01*
X25681Y25849D01*
X25714Y25858D01*
X25750Y25860D01*
X25788Y25857D01*
X25823Y25848D01*
X25853Y25833D01*
X25879Y25812D01*
X25900Y25786D01*
X25916Y25754D01*
X25925Y25719D01*
X25928Y25678D01*
X26043Y25690D01*
X26033Y25750D01*
X26015Y25803D01*
X25988Y25848D01*
X25954Y25886D01*
X25912Y25915D01*
X25864Y25936D01*
X25809Y25949D01*
X25748Y25953D01*
X25686Y25948D01*
X25630Y25935D01*
X25582Y25912D01*
X25540Y25880D01*
X25507Y25842D01*
X25483Y25799D01*
X25469Y25752D01*
X25464Y25700D01*
X25466Y25673D01*
X25470Y25646D01*
X25477Y25620D01*
X25487Y25593D01*
X25500Y25566D01*
X25516Y25539D01*
X25537Y25511D01*
X25561Y25482D01*
X25591Y25450D01*
X25630Y25413D01*
X25677Y25370D01*
X25733Y25322D01*
X25778Y25283D01*
X25815Y25251D01*
X25843Y25226D01*
X25862Y25208D01*
X25875Y25193D01*
X25888Y25178D01*
X25899Y25162D01*
X25909Y25147D01*
X25463Y25147D01*
X25463Y25147D01*
X25343Y25488D02*
X25341Y25565D01*
X25335Y25634D01*
X25325Y25695D01*
X25310Y25748D01*
X25292Y25794D01*
X25269Y25835D01*
X25242Y25870D01*
X25212Y25899D01*
X25177Y25923D01*
X25138Y25939D01*
X25094Y25949D01*
X25047Y25953D01*
X25011Y25951D01*
X24978Y25945D01*
X24947Y25936D01*
X24919Y25923D01*
X24892Y25907D01*
X24868Y25887D01*
X24847Y25865D01*
X24827Y25838D01*
X24810Y25809D01*
X24795Y25777D01*
X24782Y25742D01*
X24771Y25703D01*
X24762Y25660D01*
X24756Y25610D01*
X24752Y25552D01*
X24750Y25488D01*
X24753Y25412D01*
X24759Y25344D01*
X24769Y25283D01*
X24783Y25230D01*
X24802Y25184D01*
X24824Y25143D01*
X24851Y25108D01*
X24882Y25078D01*
X24916Y25055D01*
X24956Y25038D01*
X24999Y25028D01*
X25047Y25024D01*
X25055Y25025D01*
X25047Y25116D01*
X25010Y25121D01*
X24976Y25135D01*
X24945Y25158D01*
X24918Y25191D01*
X24895Y25237D01*
X24878Y25302D01*
X24868Y25386D01*
X24865Y25488D01*
X24868Y25591D01*
X24878Y25675D01*
X24895Y25740D01*
X24918Y25787D01*
X24945Y25819D01*
X24976Y25842D01*
X25011Y25856D01*
X25048Y25860D01*
X25085Y25856D01*
X25117Y25844D01*
X25146Y25824D01*
X25171Y25795D01*
X25196Y25745D01*
X25214Y25677D01*
X25225Y25591D01*
X25229Y25488D01*
X25229Y25488D01*
X25225Y25386D01*
X25215Y25302D01*
X25199Y25237D01*
X25176Y25190D01*
X25148Y25158D01*
X25118Y25135D01*
X25084Y25121D01*
X25047Y25116D01*
X25055Y25025D01*
X25109Y25030D01*
X25164Y25048D01*
X25212Y25078D01*
X25253Y25119D01*
X25293Y25184D01*
X25321Y25268D01*
X25338Y25369D01*
X25343Y25488D01*
X25343Y25488D01*
X24217Y25040D02*
X24328Y25040D01*
X24328Y25751D01*
X24350Y25732D01*
X24375Y25713D01*
X24403Y25694D01*
X24434Y25674D01*
X24466Y25656D01*
X24496Y25641D01*
X24525Y25628D01*
X24551Y25617D01*
X24551Y25725D01*
X24506Y25748D01*
X24464Y25773D01*
X24424Y25801D01*
X24388Y25831D01*
X24355Y25862D01*
X24328Y25893D01*
X24306Y25923D01*
X24288Y25953D01*
X24217Y25953D01*
X24217Y25040D01*
X24217Y25040D01*
X23759Y25533D02*
X23722Y25463D01*
X23738Y25455D01*
X23765Y25433D01*
X23788Y25405D01*
X23804Y25374D01*
X23814Y25340D01*
X23817Y25302D01*
X23817Y25302D01*
X23816Y25279D01*
X23811Y25255D01*
X23804Y25232D01*
X23795Y25210D01*
X23782Y25189D01*
X23766Y25170D01*
X23748Y25154D01*
X23727Y25141D01*
X23704Y25130D01*
X23681Y25122D01*
X23656Y25118D01*
X23631Y25116D01*
X23593Y25119D01*
X23558Y25129D01*
X23527Y25145D01*
X23499Y25168D01*
X23476Y25195D01*
X23460Y25226D01*
X23450Y25261D01*
X23447Y25299D01*
X23450Y25337D01*
X23460Y25372D01*
X23477Y25404D01*
X23501Y25432D01*
X23529Y25455D01*
X23561Y25471D01*
X23596Y25481D01*
X23635Y25485D01*
X23673Y25481D01*
X23707Y25472D01*
X23722Y25463D01*
X23759Y25533D01*
X23717Y25599D01*
X23692Y25586D01*
X23663Y25578D01*
X23632Y25576D01*
X23601Y25578D01*
X23573Y25586D01*
X23548Y25599D01*
X23526Y25616D01*
X23508Y25638D01*
X23495Y25662D01*
X23487Y25688D01*
X23485Y25716D01*
X23487Y25745D01*
X23495Y25772D01*
X23509Y25797D01*
X23527Y25819D01*
X23550Y25837D01*
X23575Y25851D01*
X23603Y25858D01*
X23633Y25861D01*
X23664Y25858D01*
X23691Y25851D01*
X23717Y25838D01*
X23739Y25820D01*
X23757Y25799D01*
X23771Y25775D01*
X23779Y25750D01*
X23781Y25722D01*
X23781Y25722D01*
X23779Y25691D01*
X23771Y25664D01*
X23758Y25639D01*
X23740Y25617D01*
X23717Y25599D01*
X23759Y25533D01*
X23791Y25547D01*
X23819Y25564D01*
X23843Y25583D01*
X23862Y25606D01*
X23876Y25630D01*
X23887Y25657D01*
X23893Y25687D01*
X23895Y25718D01*
X23891Y25766D01*
X23877Y25810D01*
X23855Y25849D01*
X23824Y25885D01*
X23785Y25915D01*
X23741Y25936D01*
X23690Y25949D01*
X23634Y25953D01*
X23578Y25948D01*
X23527Y25936D01*
X23482Y25914D01*
X23443Y25884D01*
X23411Y25847D01*
X23388Y25807D01*
X23375Y25763D01*
X23370Y25715D01*
X23372Y25685D01*
X23378Y25656D01*
X23389Y25630D01*
X23403Y25605D01*
X23422Y25583D01*
X23445Y25564D01*
X23472Y25547D01*
X23504Y25533D01*
X23465Y25517D01*
X23430Y25497D01*
X23401Y25473D01*
X23377Y25445D01*
X23357Y25413D01*
X23344Y25378D01*
X23336Y25341D01*
X23333Y25300D01*
X23338Y25244D01*
X23353Y25193D01*
X23379Y25146D01*
X23415Y25104D01*
X23460Y25069D01*
X23511Y25044D01*
X23568Y25029D01*
X23632Y25024D01*
X23696Y25029D01*
X23754Y25044D01*
X23805Y25069D01*
X23849Y25104D01*
X23885Y25146D01*
X23911Y25194D01*
X23927Y25246D01*
X23932Y25303D01*
X23929Y25345D01*
X23921Y25384D01*
X23907Y25420D01*
X23887Y25451D01*
X23862Y25479D01*
X23832Y25502D01*
X23798Y25520D01*
X23759Y25533D01*
X23759Y25533D01*
X30963Y28158D02*
X30855Y28173D01*
X30851Y28125D01*
X30843Y28085D01*
X30831Y28054D01*
X30816Y28030D01*
X30797Y28013D01*
X30774Y28001D01*
X30749Y27994D01*
X30720Y27992D01*
X30698Y27993D01*
X30678Y27997D01*
X30659Y28003D01*
X30642Y28013D01*
X30626Y28024D01*
X30614Y28037D01*
X30604Y28052D01*
X30596Y28069D01*
X30591Y28089D01*
X30587Y28115D01*
X30585Y28146D01*
X30584Y28183D01*
X30584Y28809D01*
X30464Y28809D01*
X30464Y28190D01*
X30465Y28136D01*
X30470Y28088D01*
X30479Y28047D01*
X30491Y28013D01*
X30507Y27983D01*
X30527Y27958D01*
X30551Y27936D01*
X30579Y27917D01*
X30610Y27903D01*
X30644Y27893D01*
X30680Y27887D01*
X30719Y27884D01*
X30775Y27889D01*
X30825Y27902D01*
X30867Y27923D01*
X30902Y27953D01*
X30930Y27992D01*
X30949Y28039D01*
X30961Y28094D01*
X30963Y28158D01*
X30963Y28158D01*
X29852Y27981D02*
X29882Y27957D01*
X29887Y27954D01*
X29929Y28016D01*
X29909Y28034D01*
X29892Y28055D01*
X29879Y28078D01*
X29871Y28099D01*
X29865Y28125D01*
X29862Y28155D01*
X29861Y28190D01*
X29861Y28231D01*
X29861Y28231D01*
X29895Y28219D01*
X29937Y28208D01*
X29986Y28198D01*
X30043Y28188D01*
X30075Y28183D01*
X30102Y28178D01*
X30124Y28172D01*
X30140Y28166D01*
X30154Y28159D01*
X30166Y28151D01*
X30176Y28141D01*
X30185Y28130D01*
X30191Y28117D01*
X30196Y28105D01*
X30199Y28091D01*
X30200Y28077D01*
X30198Y28055D01*
X30192Y28036D01*
X30181Y28018D01*
X30166Y28002D01*
X30147Y27989D01*
X30125Y27980D01*
X30098Y27974D01*
X30067Y27973D01*
X30036Y27974D01*
X30006Y27980D01*
X29979Y27988D01*
X29953Y28001D01*
X29929Y28016D01*
X29887Y27954D01*
X29912Y27936D01*
X29942Y27920D01*
X29971Y27907D01*
X30000Y27897D01*
X30030Y27891D01*
X30062Y27886D01*
X30094Y27885D01*
X30145Y27888D01*
X30190Y27898D01*
X30228Y27915D01*
X30261Y27938D01*
X30286Y27966D01*
X30304Y27999D01*
X30315Y28034D01*
X30319Y28074D01*
X30318Y28097D01*
X30314Y28120D01*
X30307Y28141D01*
X30297Y28162D01*
X30285Y28181D01*
X30272Y28198D01*
X30256Y28213D01*
X30239Y28226D01*
X30221Y28238D01*
X30201Y28247D01*
X30181Y28256D01*
X30159Y28263D01*
X30141Y28267D01*
X30118Y28271D01*
X30091Y28275D01*
X30060Y28280D01*
X29997Y28288D01*
X29943Y28297D01*
X29897Y28307D01*
X29861Y28318D01*
X29861Y28328D01*
X29860Y28337D01*
X29860Y28343D01*
X29860Y28347D01*
X29862Y28379D01*
X29868Y28405D01*
X29878Y28427D01*
X29892Y28443D01*
X29916Y28460D01*
X29945Y28472D01*
X29979Y28479D01*
X30019Y28481D01*
X30056Y28479D01*
X30087Y28474D01*
X30114Y28466D01*
X30135Y28453D01*
X30153Y28437D01*
X30168Y28415D01*
X30180Y28388D01*
X30191Y28356D01*
X30300Y28371D01*
X30291Y28404D01*
X30280Y28434D01*
X30267Y28461D01*
X30251Y28484D01*
X30232Y28504D01*
X30209Y28522D01*
X30183Y28537D01*
X30152Y28550D01*
X30119Y28560D01*
X30083Y28568D01*
X30044Y28572D01*
X30003Y28573D01*
X29963Y28572D01*
X29926Y28568D01*
X29894Y28562D01*
X29866Y28554D01*
X29841Y28543D01*
X29820Y28531D01*
X29802Y28518D01*
X29788Y28504D01*
X29777Y28488D01*
X29767Y28470D01*
X29759Y28450D01*
X29754Y28428D01*
X29751Y28411D01*
X29749Y28388D01*
X29748Y28359D01*
X29748Y28325D01*
X29748Y28176D01*
X29747Y28105D01*
X29746Y28049D01*
X29744Y28007D01*
X29741Y27979D01*
X29736Y27959D01*
X29730Y27939D01*
X29722Y27919D01*
X29713Y27900D01*
X29829Y27900D01*
X29837Y27918D01*
X29843Y27938D01*
X29848Y27959D01*
X29852Y27981D01*
X29852Y27981D01*
X29576Y27900D02*
X29576Y28559D01*
X29476Y28559D01*
X29476Y28459D01*
X29457Y28491D01*
X29439Y28517D01*
X29421Y28537D01*
X29405Y28551D01*
X29388Y28561D01*
X29371Y28568D01*
X29352Y28572D01*
X29333Y28573D01*
X29305Y28571D01*
X29276Y28564D01*
X29247Y28553D01*
X29218Y28537D01*
X29257Y28434D01*
X29277Y28445D01*
X29298Y28452D01*
X29318Y28457D01*
X29339Y28458D01*
X29356Y28457D01*
X29373Y28453D01*
X29389Y28446D01*
X29404Y28436D01*
X29418Y28424D01*
X29429Y28410D01*
X29439Y28393D01*
X29446Y28375D01*
X29454Y28345D01*
X29460Y28313D01*
X29463Y28279D01*
X29465Y28245D01*
X29465Y27900D01*
X29576Y27900D01*
X29576Y27900D01*
X29153Y27900D02*
X29153Y28559D01*
X29053Y28559D01*
X29053Y28459D01*
X29034Y28491D01*
X29016Y28517D01*
X28998Y28537D01*
X28982Y28551D01*
X28965Y28561D01*
X28948Y28568D01*
X28929Y28572D01*
X28910Y28573D01*
X28882Y28571D01*
X28853Y28564D01*
X28824Y28553D01*
X28795Y28537D01*
X28834Y28434D01*
X28854Y28445D01*
X28875Y28452D01*
X28895Y28457D01*
X28916Y28458D01*
X28934Y28457D01*
X28950Y28453D01*
X28966Y28446D01*
X28981Y28436D01*
X28995Y28424D01*
X29006Y28410D01*
X29016Y28393D01*
X29023Y28375D01*
X29031Y28345D01*
X29037Y28313D01*
X29040Y28279D01*
X29042Y28245D01*
X29042Y27900D01*
X29153Y27900D01*
X29153Y27900D01*
X28278Y28112D02*
X28163Y28098D01*
X28180Y28050D01*
X28202Y28008D01*
X28230Y27972D01*
X28264Y27941D01*
X28303Y27917D01*
X28348Y27899D01*
X28398Y27889D01*
X28453Y27885D01*
X28521Y27891D01*
X28582Y27907D01*
X28636Y27935D01*
X28682Y27974D01*
X28719Y28023D01*
X28745Y28081D01*
X28761Y28148D01*
X28766Y28224D01*
X28761Y28302D01*
X28745Y28371D01*
X28718Y28431D01*
X28681Y28482D01*
X28635Y28522D01*
X28582Y28551D01*
X28524Y28568D01*
X28459Y28573D01*
X28449Y28573D01*
X28458Y28482D01*
X28494Y28478D01*
X28528Y28469D01*
X28559Y28453D01*
X28587Y28430D01*
X28610Y28402D01*
X28628Y28370D01*
X28639Y28333D01*
X28645Y28293D01*
X28645Y28293D01*
X28277Y28293D01*
X28282Y28331D01*
X28291Y28365D01*
X28304Y28394D01*
X28319Y28417D01*
X28348Y28445D01*
X28380Y28466D01*
X28417Y28478D01*
X28458Y28482D01*
X28449Y28573D01*
X28396Y28568D01*
X28339Y28551D01*
X28288Y28523D01*
X28243Y28484D01*
X28206Y28434D01*
X28180Y28375D01*
X28164Y28307D01*
X28159Y28231D01*
X28159Y28225D01*
X28159Y28218D01*
X28160Y28210D01*
X28160Y28201D01*
X28651Y28201D01*
X28645Y28150D01*
X28633Y28105D01*
X28614Y28067D01*
X28590Y28035D01*
X28560Y28009D01*
X28528Y27991D01*
X28491Y27980D01*
X28452Y27977D01*
X28422Y27979D01*
X28395Y27985D01*
X28370Y27995D01*
X28347Y28009D01*
X28327Y28028D01*
X28308Y28051D01*
X28292Y28079D01*
X28278Y28112D01*
X28278Y28112D01*
X27779Y28000D02*
X27763Y27901D01*
X27786Y27897D01*
X27808Y27894D01*
X27828Y27892D01*
X27847Y27891D01*
X27876Y27893D01*
X27901Y27896D01*
X27923Y27902D01*
X27942Y27911D01*
X27957Y27921D01*
X27970Y27933D01*
X27981Y27946D01*
X27989Y27961D01*
X27995Y27981D01*
X27999Y28010D01*
X28001Y28047D01*
X28002Y28093D01*
X28002Y28472D01*
X28084Y28472D01*
X28084Y28559D01*
X28002Y28559D01*
X28002Y28722D01*
X27891Y28789D01*
X27891Y28559D01*
X27779Y28559D01*
X27779Y28472D01*
X27891Y28472D01*
X27891Y28087D01*
X27891Y28065D01*
X27890Y28047D01*
X27888Y28034D01*
X27885Y28025D01*
X27882Y28019D01*
X27878Y28013D01*
X27872Y28008D01*
X27866Y28004D01*
X27859Y28000D01*
X27850Y27998D01*
X27840Y27996D01*
X27828Y27995D01*
X27818Y27996D01*
X27807Y27997D01*
X27794Y27998D01*
X27779Y28000D01*
X27779Y28000D01*
X27426Y28000D02*
X27410Y27901D01*
X27433Y27897D01*
X27455Y27894D01*
X27475Y27892D01*
X27494Y27891D01*
X27523Y27893D01*
X27548Y27896D01*
X27570Y27902D01*
X27589Y27911D01*
X27604Y27921D01*
X27617Y27933D01*
X27628Y27946D01*
X27636Y27961D01*
X27642Y27981D01*
X27646Y28010D01*
X27649Y28047D01*
X27650Y28093D01*
X27650Y28472D01*
X27731Y28472D01*
X27731Y28559D01*
X27650Y28559D01*
X27650Y28722D01*
X27538Y28789D01*
X27538Y28559D01*
X27426Y28559D01*
X27426Y28472D01*
X27538Y28472D01*
X27538Y28087D01*
X27538Y28065D01*
X27537Y28047D01*
X27535Y28034D01*
X27533Y28025D01*
X27529Y28019D01*
X27525Y28013D01*
X27520Y28008D01*
X27513Y28004D01*
X27506Y28000D01*
X27497Y27998D01*
X27487Y27996D01*
X27475Y27995D01*
X27465Y27996D01*
X27454Y27997D01*
X27441Y27998D01*
X27426Y28000D01*
X27426Y28000D01*
X26948Y27900D02*
X26948Y28809D01*
X26545Y28809D01*
X26488Y28808D01*
X26438Y28803D01*
X26396Y28795D01*
X26360Y28785D01*
X26330Y28770D01*
X26303Y28751D01*
X26280Y28727D01*
X26259Y28698D01*
X26243Y28666D01*
X26231Y28633D01*
X26224Y28598D01*
X26221Y28561D01*
X26225Y28515D01*
X26237Y28472D01*
X26257Y28433D01*
X26284Y28398D01*
X26320Y28368D01*
X26364Y28344D01*
X26416Y28326D01*
X26447Y28320D01*
X26466Y28417D01*
X26440Y28425D01*
X26418Y28435D01*
X26399Y28447D01*
X26383Y28462D01*
X26370Y28479D01*
X26359Y28499D01*
X26351Y28519D01*
X26347Y28539D01*
X26345Y28561D01*
X26348Y28592D01*
X26357Y28620D01*
X26372Y28645D01*
X26392Y28667D01*
X26419Y28685D01*
X26453Y28698D01*
X26493Y28706D01*
X26540Y28709D01*
X26828Y28709D01*
X26828Y28408D01*
X26828Y28408D01*
X26569Y28408D01*
X26530Y28409D01*
X26496Y28412D01*
X26466Y28417D01*
X26447Y28320D01*
X26477Y28314D01*
X26455Y28302D01*
X26435Y28291D01*
X26419Y28280D01*
X26405Y28268D01*
X26379Y28243D01*
X26354Y28214D01*
X26329Y28182D01*
X26305Y28147D01*
X26147Y27900D01*
X26298Y27900D01*
X26419Y28089D01*
X26444Y28128D01*
X26467Y28161D01*
X26487Y28190D01*
X26505Y28214D01*
X26522Y28234D01*
X26538Y28251D01*
X26553Y28265D01*
X26566Y28275D01*
X26580Y28283D01*
X26594Y28290D01*
X26607Y28295D01*
X26621Y28299D01*
X26633Y28301D01*
X26648Y28303D01*
X26667Y28303D01*
X26688Y28304D01*
X26828Y28304D01*
X26828Y27900D01*
X26948Y27900D01*
X26948Y27900D01*
X25617Y27981D02*
X25648Y27957D01*
X25653Y27954D01*
X25695Y28016D01*
X25675Y28034D01*
X25658Y28055D01*
X25645Y28078D01*
X25637Y28099D01*
X25631Y28125D01*
X25628Y28155D01*
X25627Y28190D01*
X25627Y28231D01*
X25627Y28231D01*
X25661Y28219D01*
X25703Y28208D01*
X25752Y28198D01*
X25809Y28188D01*
X25841Y28183D01*
X25868Y28178D01*
X25890Y28172D01*
X25906Y28166D01*
X25920Y28159D01*
X25932Y28151D01*
X25942Y28141D01*
X25950Y28130D01*
X25957Y28117D01*
X25962Y28105D01*
X25965Y28091D01*
X25966Y28077D01*
X25964Y28055D01*
X25957Y28036D01*
X25947Y28018D01*
X25932Y28002D01*
X25913Y27989D01*
X25890Y27980D01*
X25864Y27974D01*
X25833Y27973D01*
X25802Y27974D01*
X25772Y27980D01*
X25744Y27988D01*
X25718Y28001D01*
X25695Y28016D01*
X25653Y27954D01*
X25678Y27936D01*
X25708Y27920D01*
X25737Y27907D01*
X25766Y27897D01*
X25796Y27891D01*
X25828Y27886D01*
X25860Y27885D01*
X25911Y27888D01*
X25956Y27898D01*
X25994Y27915D01*
X26027Y27938D01*
X26052Y27966D01*
X26070Y27999D01*
X26081Y28034D01*
X26085Y28074D01*
X26084Y28097D01*
X26079Y28120D01*
X26073Y28141D01*
X26063Y28162D01*
X26051Y28181D01*
X26038Y28198D01*
X26022Y28213D01*
X26005Y28226D01*
X25987Y28238D01*
X25967Y28247D01*
X25947Y28256D01*
X25925Y28263D01*
X25906Y28267D01*
X25884Y28271D01*
X25857Y28275D01*
X25826Y28280D01*
X25763Y28288D01*
X25708Y28297D01*
X25663Y28307D01*
X25627Y28318D01*
X25626Y28328D01*
X25626Y28337D01*
X25626Y28343D01*
X25626Y28347D01*
X25628Y28379D01*
X25634Y28405D01*
X25644Y28427D01*
X25658Y28443D01*
X25682Y28460D01*
X25711Y28472D01*
X25745Y28479D01*
X25785Y28481D01*
X25822Y28479D01*
X25853Y28474D01*
X25880Y28466D01*
X25901Y28453D01*
X25919Y28437D01*
X25934Y28415D01*
X25946Y28388D01*
X25957Y28356D01*
X26066Y28371D01*
X26057Y28404D01*
X26046Y28434D01*
X26033Y28461D01*
X26017Y28484D01*
X25998Y28504D01*
X25975Y28522D01*
X25948Y28537D01*
X25918Y28550D01*
X25885Y28560D01*
X25849Y28568D01*
X25810Y28572D01*
X25769Y28573D01*
X25729Y28572D01*
X25692Y28568D01*
X25660Y28562D01*
X25632Y28554D01*
X25607Y28543D01*
X25586Y28531D01*
X25568Y28518D01*
X25554Y28504D01*
X25543Y28488D01*
X25533Y28470D01*
X25525Y28450D01*
X25519Y28428D01*
X25517Y28411D01*
X25515Y28388D01*
X25514Y28359D01*
X25514Y28325D01*
X25514Y28176D01*
X25513Y28105D01*
X25512Y28049D01*
X25510Y28007D01*
X25507Y27979D01*
X25502Y27959D01*
X25496Y27939D01*
X25488Y27919D01*
X25478Y27900D01*
X25595Y27900D01*
X25603Y27918D01*
X25609Y27938D01*
X25614Y27959D01*
X25617Y27981D01*
X25617Y27981D01*
X25340Y27900D02*
X25340Y28559D01*
X25229Y28559D01*
X25229Y27900D01*
X25340Y27900D01*
X25340Y27900D01*
X25340Y28681D02*
X25340Y28809D01*
X25229Y28809D01*
X25229Y28681D01*
X25340Y28681D01*
X25340Y28681D01*
X25059Y27900D02*
X25059Y28559D01*
X24958Y28559D01*
X24958Y28465D01*
X24918Y28512D01*
X24870Y28546D01*
X24813Y28567D01*
X24749Y28573D01*
X24719Y28572D01*
X24691Y28568D01*
X24665Y28561D01*
X24639Y28552D01*
X24616Y28541D01*
X24596Y28527D01*
X24578Y28512D01*
X24564Y28496D01*
X24553Y28478D01*
X24543Y28458D01*
X24536Y28437D01*
X24530Y28413D01*
X24527Y28395D01*
X24525Y28371D01*
X24524Y28341D01*
X24524Y28305D01*
X24524Y27900D01*
X24635Y27900D01*
X24635Y28301D01*
X24636Y28333D01*
X24638Y28360D01*
X24642Y28384D01*
X24648Y28403D01*
X24656Y28419D01*
X24666Y28433D01*
X24679Y28446D01*
X24694Y28457D01*
X24712Y28465D01*
X24730Y28472D01*
X24751Y28475D01*
X24772Y28477D01*
X24807Y28474D01*
X24839Y28465D01*
X24868Y28451D01*
X24895Y28431D01*
X24918Y28404D01*
X24934Y28366D01*
X24944Y28318D01*
X24947Y28260D01*
X24947Y27900D01*
X25059Y27900D01*
X25059Y27900D01*
X24352Y27900D02*
X24352Y28559D01*
X24240Y28559D01*
X24240Y27900D01*
X24352Y27900D01*
X24352Y27900D01*
X24352Y28681D02*
X24352Y28809D01*
X24240Y28809D01*
X24240Y28681D01*
X24352Y28681D01*
X24352Y28681D01*
X23619Y28112D02*
X23504Y28098D01*
X23521Y28050D01*
X23543Y28008D01*
X23571Y27972D01*
X23605Y27941D01*
X23645Y27917D01*
X23689Y27899D01*
X23739Y27889D01*
X23794Y27885D01*
X23862Y27891D01*
X23923Y27907D01*
X23977Y27935D01*
X24023Y27974D01*
X24060Y28023D01*
X24086Y28081D01*
X24102Y28148D01*
X24107Y28224D01*
X24102Y28302D01*
X24086Y28371D01*
X24059Y28431D01*
X24022Y28482D01*
X23976Y28522D01*
X23924Y28551D01*
X23865Y28568D01*
X23800Y28573D01*
X23791Y28573D01*
X23799Y28482D01*
X23836Y28478D01*
X23869Y28469D01*
X23900Y28453D01*
X23928Y28430D01*
X23951Y28402D01*
X23969Y28370D01*
X23980Y28333D01*
X23986Y28293D01*
X23986Y28293D01*
X23618Y28293D01*
X23624Y28331D01*
X23632Y28365D01*
X23645Y28394D01*
X23660Y28417D01*
X23689Y28445D01*
X23722Y28466D01*
X23758Y28478D01*
X23799Y28482D01*
X23791Y28573D01*
X23737Y28568D01*
X23680Y28551D01*
X23629Y28523D01*
X23584Y28484D01*
X23547Y28434D01*
X23521Y28375D01*
X23506Y28307D01*
X23500Y28231D01*
X23500Y28225D01*
X23501Y28218D01*
X23501Y28210D01*
X23501Y28201D01*
X23992Y28201D01*
X23986Y28150D01*
X23974Y28105D01*
X23955Y28067D01*
X23931Y28035D01*
X23901Y28009D01*
X23869Y27991D01*
X23833Y27980D01*
X23793Y27977D01*
X23763Y27979D01*
X23736Y27985D01*
X23711Y27995D01*
X23688Y28009D01*
X23668Y28028D01*
X23649Y28051D01*
X23633Y28079D01*
X23619Y28112D01*
X23619Y28112D01*
X23365Y27900D02*
X23365Y28559D01*
X23265Y28559D01*
X23265Y28459D01*
X23246Y28491D01*
X23228Y28517D01*
X23210Y28537D01*
X23194Y28551D01*
X23177Y28561D01*
X23160Y28568D01*
X23141Y28572D01*
X23122Y28573D01*
X23094Y28571D01*
X23065Y28564D01*
X23036Y28553D01*
X23007Y28537D01*
X23046Y28434D01*
X23066Y28445D01*
X23087Y28452D01*
X23107Y28457D01*
X23128Y28458D01*
X23145Y28457D01*
X23162Y28453D01*
X23178Y28446D01*
X23193Y28436D01*
X23207Y28424D01*
X23218Y28410D01*
X23228Y28393D01*
X23235Y28375D01*
X23243Y28345D01*
X23249Y28313D01*
X23252Y28279D01*
X23254Y28245D01*
X23254Y27900D01*
X23365Y27900D01*
X23365Y27900D01*
X30698Y23585D02*
X30677Y23679D01*
X30661Y23676D01*
X30647Y23673D01*
X30635Y23671D01*
X30624Y23671D01*
X30609Y23672D01*
X30595Y23676D01*
X30583Y23683D01*
X30574Y23693D01*
X30566Y23709D01*
X30561Y23733D01*
X30558Y23765D01*
X30557Y23807D01*
X30557Y24499D01*
X30445Y24499D01*
X30445Y23804D01*
X30447Y23748D01*
X30453Y23701D01*
X30463Y23663D01*
X30477Y23635D01*
X30500Y23608D01*
X30531Y23588D01*
X30567Y23577D01*
X30611Y23573D01*
X30633Y23573D01*
X30655Y23576D01*
X30677Y23579D01*
X30698Y23585D01*
X30698Y23585D01*
X30557Y24619D02*
X30557Y24749D01*
X30445Y24749D01*
X30445Y24619D01*
X30557Y24619D01*
X30557Y24619D01*
X30275Y23840D02*
X30275Y24499D01*
X30175Y24499D01*
X30175Y24399D01*
X30156Y24431D01*
X30138Y24457D01*
X30121Y24477D01*
X30104Y24491D01*
X30087Y24501D01*
X30070Y24508D01*
X30051Y24512D01*
X30032Y24513D01*
X30004Y24511D01*
X29975Y24504D01*
X29947Y24493D01*
X29918Y24477D01*
X29956Y24374D01*
X29977Y24385D01*
X29997Y24392D01*
X30017Y24397D01*
X30038Y24398D01*
X30056Y24397D01*
X30073Y24393D01*
X30089Y24386D01*
X30104Y24376D01*
X30117Y24364D01*
X30129Y24350D01*
X30138Y24333D01*
X30145Y24315D01*
X30153Y24285D01*
X30159Y24253D01*
X30163Y24219D01*
X30164Y24185D01*
X30164Y23840D01*
X30275Y23840D01*
X30275Y23840D01*
X29422Y23921D02*
X29452Y23897D01*
X29457Y23894D01*
X29499Y23956D01*
X29479Y23974D01*
X29462Y23995D01*
X29449Y24018D01*
X29441Y24039D01*
X29435Y24065D01*
X29432Y24095D01*
X29431Y24130D01*
X29431Y24171D01*
X29431Y24171D01*
X29465Y24159D01*
X29507Y24148D01*
X29556Y24138D01*
X29613Y24128D01*
X29645Y24123D01*
X29672Y24118D01*
X29694Y24112D01*
X29710Y24106D01*
X29724Y24099D01*
X29736Y24091D01*
X29746Y24081D01*
X29755Y24070D01*
X29761Y24057D01*
X29766Y24045D01*
X29769Y24031D01*
X29770Y24017D01*
X29768Y23995D01*
X29762Y23976D01*
X29751Y23958D01*
X29736Y23942D01*
X29717Y23929D01*
X29695Y23920D01*
X29668Y23914D01*
X29637Y23913D01*
X29606Y23914D01*
X29576Y23920D01*
X29549Y23928D01*
X29523Y23941D01*
X29499Y23956D01*
X29457Y23894D01*
X29482Y23876D01*
X29512Y23860D01*
X29541Y23847D01*
X29570Y23837D01*
X29600Y23831D01*
X29632Y23826D01*
X29664Y23825D01*
X29715Y23828D01*
X29760Y23838D01*
X29799Y23855D01*
X29831Y23878D01*
X29856Y23906D01*
X29875Y23939D01*
X29885Y23974D01*
X29889Y24014D01*
X29888Y24037D01*
X29884Y24060D01*
X29877Y24081D01*
X29867Y24102D01*
X29855Y24121D01*
X29842Y24138D01*
X29826Y24153D01*
X29809Y24166D01*
X29791Y24178D01*
X29772Y24187D01*
X29751Y24196D01*
X29729Y24203D01*
X29711Y24207D01*
X29688Y24211D01*
X29661Y24215D01*
X29630Y24220D01*
X29567Y24228D01*
X29513Y24237D01*
X29467Y24247D01*
X29431Y24258D01*
X29431Y24268D01*
X29430Y24277D01*
X29430Y24283D01*
X29430Y24287D01*
X29432Y24319D01*
X29438Y24345D01*
X29448Y24367D01*
X29462Y24383D01*
X29486Y24400D01*
X29515Y24412D01*
X29549Y24419D01*
X29589Y24421D01*
X29626Y24419D01*
X29657Y24414D01*
X29684Y24406D01*
X29705Y24393D01*
X29723Y24377D01*
X29738Y24355D01*
X29751Y24328D01*
X29761Y24296D01*
X29870Y24311D01*
X29861Y24344D01*
X29850Y24374D01*
X29837Y24401D01*
X29821Y24424D01*
X29802Y24444D01*
X29779Y24462D01*
X29753Y24477D01*
X29722Y24490D01*
X29689Y24500D01*
X29653Y24508D01*
X29614Y24512D01*
X29573Y24513D01*
X29533Y24512D01*
X29496Y24508D01*
X29464Y24502D01*
X29436Y24494D01*
X29411Y24483D01*
X29390Y24471D01*
X29372Y24458D01*
X29358Y24444D01*
X29347Y24428D01*
X29337Y24410D01*
X29329Y24390D01*
X29324Y24368D01*
X29321Y24351D01*
X29319Y24328D01*
X29318Y24299D01*
X29318Y24265D01*
X29318Y24116D01*
X29318Y24045D01*
X29316Y23989D01*
X29314Y23947D01*
X29311Y23919D01*
X29306Y23899D01*
X29300Y23879D01*
X29292Y23859D01*
X29283Y23840D01*
X29399Y23840D01*
X29407Y23858D01*
X29413Y23878D01*
X29418Y23899D01*
X29422Y23921D01*
X29422Y23921D01*
X29144Y23840D02*
X29144Y24499D01*
X29033Y24499D01*
X29033Y23840D01*
X29144Y23840D01*
X29144Y23840D01*
X29144Y24621D02*
X29144Y24749D01*
X29033Y24749D01*
X29033Y24621D01*
X29144Y24621D01*
X29144Y24621D01*
X28863Y23840D02*
X28863Y24499D01*
X28762Y24499D01*
X28762Y24405D01*
X28722Y24452D01*
X28674Y24486D01*
X28617Y24507D01*
X28553Y24513D01*
X28524Y24512D01*
X28496Y24508D01*
X28469Y24501D01*
X28443Y24492D01*
X28420Y24481D01*
X28400Y24467D01*
X28383Y24452D01*
X28369Y24436D01*
X28357Y24418D01*
X28348Y24398D01*
X28340Y24377D01*
X28334Y24353D01*
X28331Y24335D01*
X28329Y24311D01*
X28328Y24281D01*
X28328Y24245D01*
X28328Y23840D01*
X28439Y23840D01*
X28439Y24241D01*
X28440Y24273D01*
X28443Y24300D01*
X28447Y24324D01*
X28452Y24343D01*
X28460Y24359D01*
X28470Y24373D01*
X28483Y24386D01*
X28498Y24397D01*
X28516Y24405D01*
X28535Y24412D01*
X28555Y24415D01*
X28576Y24417D01*
X28611Y24414D01*
X28643Y24405D01*
X28672Y24391D01*
X28699Y24371D01*
X28722Y24344D01*
X28738Y24306D01*
X28748Y24258D01*
X28751Y24200D01*
X28751Y23840D01*
X28863Y23840D01*
X28863Y23840D01*
X28156Y23840D02*
X28156Y24499D01*
X28044Y24499D01*
X28044Y23840D01*
X28156Y23840D01*
X28156Y23840D01*
X28156Y24621D02*
X28156Y24749D01*
X28044Y24749D01*
X28044Y24621D01*
X28156Y24621D01*
X28156Y24621D01*
X27874Y23840D02*
X27874Y24499D01*
X27775Y24499D01*
X27775Y24406D01*
X27758Y24429D01*
X27738Y24450D01*
X27717Y24468D01*
X27692Y24484D01*
X27665Y24497D01*
X27637Y24506D01*
X27607Y24512D01*
X27575Y24513D01*
X27540Y24512D01*
X27508Y24506D01*
X27480Y24496D01*
X27455Y24483D01*
X27433Y24466D01*
X27415Y24447D01*
X27400Y24424D01*
X27389Y24398D01*
X27347Y24449D01*
X27299Y24485D01*
X27245Y24506D01*
X27185Y24513D01*
X27139Y24510D01*
X27099Y24500D01*
X27064Y24483D01*
X27035Y24459D01*
X27012Y24428D01*
X26995Y24390D01*
X26985Y24345D01*
X26982Y24292D01*
X26982Y23840D01*
X27093Y23840D01*
X27093Y24255D01*
X27094Y24286D01*
X27096Y24312D01*
X27099Y24334D01*
X27104Y24351D01*
X27110Y24365D01*
X27119Y24378D01*
X27130Y24389D01*
X27143Y24399D01*
X27158Y24407D01*
X27174Y24412D01*
X27192Y24416D01*
X27210Y24417D01*
X27243Y24414D01*
X27274Y24405D01*
X27301Y24391D01*
X27326Y24371D01*
X27346Y24344D01*
X27360Y24310D01*
X27369Y24270D01*
X27371Y24223D01*
X27371Y23840D01*
X27483Y23840D01*
X27483Y24268D01*
X27485Y24303D01*
X27490Y24333D01*
X27498Y24359D01*
X27510Y24380D01*
X27526Y24396D01*
X27546Y24407D01*
X27571Y24414D01*
X27600Y24417D01*
X27623Y24415D01*
X27645Y24411D01*
X27666Y24403D01*
X27687Y24392D01*
X27705Y24378D01*
X27721Y24361D01*
X27734Y24342D01*
X27745Y24319D01*
X27753Y24293D01*
X27758Y24261D01*
X27762Y24224D01*
X27763Y24182D01*
X27763Y23840D01*
X27874Y23840D01*
X27874Y23840D01*
X26858Y24169D02*
X26852Y24255D01*
X26833Y24328D01*
X26801Y24390D01*
X26756Y24440D01*
X26711Y24472D01*
X26662Y24495D01*
X26608Y24509D01*
X26549Y24513D01*
X26484Y24508D01*
X26426Y24491D01*
X26373Y24463D01*
X26327Y24424D01*
X26289Y24376D01*
X26263Y24318D01*
X26246Y24253D01*
X26241Y24179D01*
X26243Y24118D01*
X26250Y24065D01*
X26262Y24018D01*
X26279Y23979D01*
X26300Y23944D01*
X26326Y23914D01*
X26356Y23888D01*
X26390Y23865D01*
X26427Y23848D01*
X26466Y23835D01*
X26507Y23828D01*
X26549Y23825D01*
X26557Y23826D01*
X26549Y23917D01*
X26509Y23921D01*
X26473Y23933D01*
X26440Y23952D01*
X26411Y23980D01*
X26387Y24016D01*
X26369Y24060D01*
X26359Y24112D01*
X26356Y24173D01*
X26359Y24230D01*
X26370Y24280D01*
X26387Y24323D01*
X26411Y24358D01*
X26441Y24386D01*
X26473Y24405D01*
X26510Y24417D01*
X26549Y24421D01*
X26589Y24417D01*
X26626Y24405D01*
X26659Y24386D01*
X26688Y24358D01*
X26712Y24323D01*
X26729Y24280D01*
X26740Y24229D01*
X26743Y24169D01*
X26743Y24169D01*
X26740Y24110D01*
X26729Y24059D01*
X26712Y24015D01*
X26688Y23980D01*
X26659Y23952D01*
X26626Y23933D01*
X26589Y23921D01*
X26549Y23917D01*
X26557Y23826D01*
X26615Y23831D01*
X26674Y23847D01*
X26727Y23875D01*
X26773Y23914D01*
X26810Y23963D01*
X26837Y24022D01*
X26853Y24091D01*
X26858Y24169D01*
X26858Y24169D01*
X26078Y23840D02*
X26078Y23967D01*
X25951Y23967D01*
X25951Y23840D01*
X26078Y23840D01*
X26078Y23840D01*
X25328Y24081D02*
X25218Y24067D01*
X25230Y24013D01*
X25250Y23966D01*
X25276Y23924D01*
X25310Y23889D01*
X25349Y23861D01*
X25392Y23841D01*
X25440Y23829D01*
X25492Y23825D01*
X25556Y23831D01*
X25614Y23847D01*
X25665Y23875D01*
X25709Y23913D01*
X25745Y23962D01*
X25771Y24021D01*
X25786Y24089D01*
X25791Y24167D01*
X25789Y24218D01*
X25783Y24267D01*
X25771Y24312D01*
X25756Y24353D01*
X25736Y24391D01*
X25711Y24423D01*
X25682Y24451D01*
X25648Y24473D01*
X25612Y24491D01*
X25573Y24503D01*
X25533Y24511D01*
X25491Y24513D01*
X25440Y24510D01*
X25394Y24500D01*
X25352Y24483D01*
X25316Y24459D01*
X25285Y24429D01*
X25260Y24394D01*
X25241Y24352D01*
X25228Y24305D01*
X25337Y24288D01*
X25346Y24319D01*
X25358Y24346D01*
X25374Y24369D01*
X25392Y24388D01*
X25412Y24403D01*
X25435Y24413D01*
X25460Y24420D01*
X25487Y24422D01*
X25527Y24418D01*
X25563Y24407D01*
X25596Y24388D01*
X25624Y24361D01*
X25647Y24327D01*
X25663Y24283D01*
X25673Y24231D01*
X25677Y24170D01*
X25673Y24108D01*
X25664Y24055D01*
X25648Y24012D01*
X25626Y23977D01*
X25598Y23951D01*
X25567Y23932D01*
X25532Y23921D01*
X25493Y23917D01*
X25462Y23919D01*
X25433Y23927D01*
X25407Y23940D01*
X25383Y23957D01*
X25363Y23980D01*
X25347Y24008D01*
X25335Y24042D01*
X25328Y24081D01*
X25328Y24081D01*
X25164Y24169D02*
X25157Y24255D01*
X25138Y24328D01*
X25107Y24390D01*
X25062Y24440D01*
X25017Y24472D01*
X24968Y24495D01*
X24914Y24509D01*
X24855Y24513D01*
X24790Y24508D01*
X24732Y24491D01*
X24679Y24463D01*
X24633Y24424D01*
X24595Y24376D01*
X24568Y24318D01*
X24552Y24253D01*
X24547Y24179D01*
X24549Y24118D01*
X24556Y24065D01*
X24568Y24018D01*
X24585Y23979D01*
X24606Y23944D01*
X24632Y23914D01*
X24662Y23888D01*
X24696Y23865D01*
X24733Y23848D01*
X24772Y23835D01*
X24813Y23828D01*
X24855Y23825D01*
X24863Y23826D01*
X24855Y23917D01*
X24815Y23921D01*
X24779Y23933D01*
X24746Y23952D01*
X24717Y23980D01*
X24693Y24016D01*
X24675Y24060D01*
X24665Y24112D01*
X24661Y24173D01*
X24665Y24230D01*
X24675Y24280D01*
X24693Y24323D01*
X24717Y24358D01*
X24746Y24386D01*
X24779Y24405D01*
X24815Y24417D01*
X24855Y24421D01*
X24895Y24417D01*
X24932Y24405D01*
X24964Y24386D01*
X24994Y24358D01*
X25018Y24323D01*
X25035Y24280D01*
X25046Y24229D01*
X25049Y24169D01*
X25049Y24169D01*
X25046Y24110D01*
X25035Y24059D01*
X25018Y24015D01*
X24994Y23980D01*
X24964Y23952D01*
X24932Y23933D01*
X24895Y23921D01*
X24855Y23917D01*
X24863Y23826D01*
X24921Y23831D01*
X24980Y23847D01*
X25033Y23875D01*
X25079Y23914D01*
X25116Y23963D01*
X25142Y24022D01*
X25158Y24091D01*
X25164Y24169D01*
X25164Y24169D01*
X24416Y23840D02*
X24416Y24499D01*
X24316Y24499D01*
X24316Y24406D01*
X24299Y24429D01*
X24280Y24450D01*
X24258Y24468D01*
X24234Y24484D01*
X24207Y24497D01*
X24179Y24506D01*
X24148Y24512D01*
X24116Y24513D01*
X24081Y24512D01*
X24050Y24506D01*
X24021Y24496D01*
X23996Y24483D01*
X23975Y24466D01*
X23956Y24447D01*
X23942Y24424D01*
X23930Y24398D01*
X23888Y24449D01*
X23840Y24485D01*
X23787Y24506D01*
X23727Y24513D01*
X23681Y24510D01*
X23640Y24500D01*
X23605Y24483D01*
X23576Y24459D01*
X23553Y24428D01*
X23537Y24390D01*
X23527Y24345D01*
X23524Y24292D01*
X23524Y23840D01*
X23635Y23840D01*
X23635Y24255D01*
X23635Y24286D01*
X23637Y24312D01*
X23641Y24334D01*
X23645Y24351D01*
X23652Y24365D01*
X23661Y24378D01*
X23672Y24389D01*
X23685Y24399D01*
X23700Y24407D01*
X23716Y24412D01*
X23733Y24416D01*
X23752Y24417D01*
X23785Y24414D01*
X23815Y24405D01*
X23843Y24391D01*
X23867Y24371D01*
X23887Y24344D01*
X23902Y24310D01*
X23910Y24270D01*
X23913Y24223D01*
X23913Y23840D01*
X24025Y23840D01*
X24025Y24268D01*
X24026Y24303D01*
X24031Y24333D01*
X24040Y24359D01*
X24052Y24380D01*
X24068Y24396D01*
X24088Y24407D01*
X24112Y24414D01*
X24141Y24417D01*
X24164Y24415D01*
X24187Y24411D01*
X24208Y24403D01*
X24228Y24392D01*
X24247Y24378D01*
X24263Y24361D01*
X24276Y24342D01*
X24286Y24319D01*
X24294Y24293D01*
X24300Y24261D01*
X24303Y24224D01*
X24304Y24182D01*
X24304Y23840D01*
X24416Y23840D01*
X24416Y23840D01*
G37*
M02*