%FSLAX33Y33*%
%MOMM*%
%ADD10C,0.15*%
%ADD11C,0.5*%
D10*
%LNtop silkscreen_traces*%
%LNtop silkscreen component b63a915f14e56ab0*%
G01*
X30997Y34900D02*
X30997Y31900D01*
X32397Y34900D02*
X32397Y31900D01*
G36*
X31443Y30804D02*
X31989Y30804D01*
X31989Y30732D01*
X31718Y30732D01*
X31989Y30461D01*
X31989Y30363D01*
X31768Y30592D01*
X31443Y30353D01*
X31443Y30448D01*
X31719Y30643D01*
X31632Y30732D01*
X31443Y30732D01*
X31443Y30804D01*
X31443Y30804D01*
X32967Y36486D02*
X33683Y36486D01*
X33683Y36391D01*
X33052Y36391D01*
X33052Y36038D01*
X32967Y36038D01*
X32967Y36486D01*
X32967Y36486D01*
X32967Y35924D02*
X33683Y35924D01*
X33683Y35406D01*
X33599Y35406D01*
X33599Y35829D01*
X33379Y35829D01*
X33379Y35433D01*
X33295Y35433D01*
X33295Y35829D01*
X33052Y35829D01*
X33052Y35390D01*
X32967Y35390D01*
X32967Y35924D01*
X32967Y35924D01*
X32967Y35259D02*
X33683Y35259D01*
X33683Y35014D01*
X33599Y35014D01*
X33599Y35164D01*
X33052Y35164D01*
X33052Y35164D01*
X33052Y35011D01*
X33053Y34978D01*
X33055Y34948D01*
X33059Y34922D01*
X33065Y34900D01*
X33072Y34881D01*
X33081Y34864D01*
X33091Y34849D01*
X33102Y34836D01*
X33120Y34820D01*
X33141Y34806D01*
X33166Y34794D01*
X33193Y34783D01*
X33223Y34775D01*
X33255Y34769D01*
X33291Y34766D01*
X33331Y34765D01*
X33383Y34767D01*
X33430Y34774D01*
X33470Y34785D01*
X33503Y34801D01*
X33531Y34821D01*
X33553Y34842D01*
X33571Y34866D01*
X33584Y34891D01*
X33590Y34913D01*
X33595Y34941D01*
X33598Y34974D01*
X33599Y35014D01*
X33683Y35014D01*
X33683Y35012D01*
X33682Y34973D01*
X33680Y34938D01*
X33677Y34909D01*
X33673Y34885D01*
X33664Y34855D01*
X33653Y34828D01*
X33639Y34803D01*
X33622Y34780D01*
X33596Y34753D01*
X33567Y34730D01*
X33535Y34711D01*
X33499Y34695D01*
X33461Y34683D01*
X33419Y34674D01*
X33376Y34669D01*
X33329Y34667D01*
X33289Y34668D01*
X33252Y34672D01*
X33217Y34678D01*
X33185Y34686D01*
X33154Y34696D01*
X33127Y34708D01*
X33102Y34721D01*
X33080Y34735D01*
X33061Y34750D01*
X33043Y34766D01*
X33028Y34783D01*
X33015Y34800D01*
X33004Y34819D01*
X32995Y34839D01*
X32986Y34861D01*
X32979Y34885D01*
X32974Y34911D01*
X32970Y34939D01*
X32968Y34969D01*
X32967Y35000D01*
X32967Y35259D01*
X32967Y35259D01*
X33589Y34566D02*
X33674Y34566D01*
X33674Y34103D01*
X33605Y34103D01*
X33566Y34137D01*
X33521Y34171D01*
X33469Y34205D01*
X33412Y34238D01*
X33351Y34270D01*
X33290Y34298D01*
X33227Y34322D01*
X33164Y34342D01*
X33118Y34354D01*
X33070Y34364D01*
X33020Y34371D01*
X32967Y34376D01*
X32967Y34466D01*
X33012Y34464D01*
X33060Y34457D01*
X33114Y34447D01*
X33171Y34433D01*
X33231Y34415D01*
X33289Y34394D01*
X33346Y34370D01*
X33402Y34342D01*
X33455Y34312D01*
X33504Y34281D01*
X33549Y34249D01*
X33589Y34216D01*
X33589Y34566D01*
X33589Y34566D01*
G37*
%LNtop silkscreen component 2d8a75f5f516d1e8*%
X40164Y34900D02*
X40164Y31900D01*
X41564Y34900D02*
X41564Y31900D01*
G36*
X40610Y30804D02*
X41155Y30804D01*
X41155Y30732D01*
X40885Y30732D01*
X41155Y30461D01*
X41155Y30363D01*
X40934Y30592D01*
X40610Y30353D01*
X40610Y30448D01*
X40886Y30643D01*
X40799Y30732D01*
X40610Y30732D01*
X40610Y30804D01*
X40610Y30804D01*
X42134Y36486D02*
X42850Y36486D01*
X42850Y36391D01*
X42218Y36391D01*
X42218Y36038D01*
X42134Y36038D01*
X42134Y36486D01*
X42134Y36486D01*
X42134Y35924D02*
X42850Y35924D01*
X42850Y35406D01*
X42765Y35406D01*
X42765Y35829D01*
X42546Y35829D01*
X42546Y35433D01*
X42462Y35433D01*
X42462Y35829D01*
X42218Y35829D01*
X42218Y35390D01*
X42134Y35390D01*
X42134Y35924D01*
X42134Y35924D01*
X42134Y35259D02*
X42850Y35259D01*
X42850Y35014D01*
X42765Y35014D01*
X42765Y35164D01*
X42218Y35164D01*
X42218Y35164D01*
X42218Y35011D01*
X42219Y34978D01*
X42222Y34948D01*
X42226Y34922D01*
X42232Y34900D01*
X42239Y34881D01*
X42247Y34864D01*
X42257Y34849D01*
X42269Y34836D01*
X42287Y34820D01*
X42308Y34806D01*
X42332Y34794D01*
X42359Y34783D01*
X42389Y34775D01*
X42422Y34769D01*
X42458Y34766D01*
X42497Y34765D01*
X42550Y34767D01*
X42596Y34774D01*
X42636Y34785D01*
X42670Y34801D01*
X42697Y34821D01*
X42720Y34842D01*
X42738Y34866D01*
X42751Y34891D01*
X42757Y34913D01*
X42762Y34941D01*
X42764Y34974D01*
X42765Y35014D01*
X42850Y35014D01*
X42850Y35012D01*
X42849Y34973D01*
X42847Y34938D01*
X42844Y34909D01*
X42839Y34885D01*
X42831Y34855D01*
X42820Y34828D01*
X42805Y34803D01*
X42788Y34780D01*
X42763Y34753D01*
X42734Y34730D01*
X42701Y34711D01*
X42666Y34695D01*
X42627Y34683D01*
X42586Y34674D01*
X42542Y34669D01*
X42496Y34667D01*
X42456Y34668D01*
X42419Y34672D01*
X42384Y34678D01*
X42351Y34686D01*
X42321Y34696D01*
X42294Y34708D01*
X42269Y34721D01*
X42247Y34735D01*
X42227Y34750D01*
X42210Y34766D01*
X42195Y34783D01*
X42182Y34800D01*
X42171Y34819D01*
X42161Y34839D01*
X42153Y34861D01*
X42146Y34885D01*
X42141Y34911D01*
X42137Y34939D01*
X42135Y34969D01*
X42134Y35000D01*
X42134Y35259D01*
X42134Y35259D01*
X42299Y34559D02*
X42307Y34474D01*
X42279Y34468D01*
X42256Y34459D01*
X42236Y34447D01*
X42221Y34433D01*
X42209Y34417D01*
X42201Y34399D01*
X42196Y34378D01*
X42194Y34356D01*
X42195Y34336D01*
X42199Y34318D01*
X42204Y34301D01*
X42213Y34285D01*
X42223Y34270D01*
X42234Y34257D01*
X42247Y34245D01*
X42262Y34235D01*
X42279Y34225D01*
X42299Y34217D01*
X42321Y34209D01*
X42346Y34202D01*
X42372Y34196D01*
X42399Y34192D01*
X42426Y34190D01*
X42453Y34189D01*
X42457Y34189D01*
X42461Y34189D01*
X42465Y34189D01*
X42471Y34189D01*
X42503Y34234D01*
X42520Y34221D01*
X42548Y34209D01*
X42580Y34202D01*
X42615Y34199D01*
X42615Y34199D01*
X42651Y34202D01*
X42683Y34209D01*
X42711Y34222D01*
X42735Y34239D01*
X42755Y34261D01*
X42769Y34284D01*
X42777Y34309D01*
X42780Y34336D01*
X42777Y34365D01*
X42768Y34391D01*
X42753Y34416D01*
X42732Y34438D01*
X42706Y34457D01*
X42677Y34471D01*
X42644Y34479D01*
X42608Y34482D01*
X42575Y34479D01*
X42546Y34472D01*
X42520Y34459D01*
X42497Y34441D01*
X42478Y34419D01*
X42465Y34394D01*
X42457Y34368D01*
X42454Y34339D01*
X42457Y34310D01*
X42465Y34283D01*
X42478Y34259D01*
X42497Y34238D01*
X42503Y34234D01*
X42471Y34189D01*
X42451Y34204D01*
X42433Y34221D01*
X42417Y34240D01*
X42403Y34261D01*
X42391Y34285D01*
X42383Y34309D01*
X42378Y34334D01*
X42377Y34360D01*
X42381Y34403D01*
X42393Y34442D01*
X42413Y34478D01*
X42441Y34511D01*
X42476Y34538D01*
X42516Y34557D01*
X42561Y34568D01*
X42611Y34572D01*
X42663Y34568D01*
X42709Y34556D01*
X42750Y34536D01*
X42786Y34508D01*
X42815Y34474D01*
X42836Y34436D01*
X42848Y34393D01*
X42853Y34347D01*
X42850Y34313D01*
X42843Y34280D01*
X42831Y34249D01*
X42815Y34219D01*
X42794Y34192D01*
X42769Y34168D01*
X42741Y34148D01*
X42708Y34131D01*
X42669Y34118D01*
X42623Y34109D01*
X42568Y34103D01*
X42506Y34101D01*
X42441Y34103D01*
X42383Y34109D01*
X42332Y34118D01*
X42288Y34131D01*
X42250Y34148D01*
X42216Y34168D01*
X42188Y34192D01*
X42164Y34220D01*
X42146Y34251D01*
X42132Y34284D01*
X42124Y34320D01*
X42122Y34358D01*
X42125Y34398D01*
X42133Y34434D01*
X42148Y34466D01*
X42168Y34495D01*
X42194Y34519D01*
X42224Y34538D01*
X42260Y34551D01*
X42299Y34559D01*
X42299Y34559D01*
G37*
%LNtop silkscreen component dda7386182c8d90b*%
X40164Y26830D02*
X40164Y23830D01*
X41564Y26830D02*
X41564Y23830D01*
G36*
X40610Y22734D02*
X41155Y22734D01*
X41155Y22662D01*
X40885Y22662D01*
X41155Y22391D01*
X41155Y22293D01*
X40934Y22522D01*
X40610Y22283D01*
X40610Y22378D01*
X40886Y22573D01*
X40799Y22662D01*
X40610Y22662D01*
X40610Y22734D01*
X40610Y22734D01*
X42134Y28416D02*
X42850Y28416D01*
X42850Y28321D01*
X42218Y28321D01*
X42218Y27968D01*
X42134Y27968D01*
X42134Y28416D01*
X42134Y28416D01*
X42134Y27854D02*
X42850Y27854D01*
X42850Y27336D01*
X42765Y27336D01*
X42765Y27759D01*
X42546Y27759D01*
X42546Y27363D01*
X42462Y27363D01*
X42462Y27759D01*
X42218Y27759D01*
X42218Y27320D01*
X42134Y27320D01*
X42134Y27854D01*
X42134Y27854D01*
X42134Y27189D02*
X42850Y27189D01*
X42850Y26944D01*
X42765Y26944D01*
X42765Y27094D01*
X42218Y27094D01*
X42218Y27094D01*
X42218Y26941D01*
X42219Y26908D01*
X42222Y26878D01*
X42226Y26852D01*
X42232Y26830D01*
X42239Y26811D01*
X42247Y26794D01*
X42257Y26779D01*
X42269Y26766D01*
X42287Y26750D01*
X42308Y26736D01*
X42332Y26724D01*
X42359Y26713D01*
X42389Y26705D01*
X42422Y26699D01*
X42458Y26696D01*
X42497Y26695D01*
X42550Y26697D01*
X42596Y26704D01*
X42636Y26715D01*
X42670Y26731D01*
X42697Y26751D01*
X42720Y26772D01*
X42738Y26796D01*
X42751Y26821D01*
X42757Y26843D01*
X42762Y26871D01*
X42764Y26904D01*
X42765Y26944D01*
X42850Y26944D01*
X42850Y26942D01*
X42849Y26903D01*
X42847Y26868D01*
X42844Y26839D01*
X42839Y26815D01*
X42831Y26785D01*
X42820Y26758D01*
X42805Y26733D01*
X42788Y26710D01*
X42763Y26683D01*
X42734Y26660D01*
X42701Y26641D01*
X42666Y26625D01*
X42627Y26613D01*
X42586Y26604D01*
X42542Y26599D01*
X42496Y26597D01*
X42456Y26598D01*
X42419Y26602D01*
X42384Y26608D01*
X42351Y26616D01*
X42321Y26626D01*
X42294Y26638D01*
X42269Y26651D01*
X42247Y26665D01*
X42227Y26680D01*
X42210Y26696D01*
X42195Y26713D01*
X42182Y26730D01*
X42171Y26749D01*
X42161Y26769D01*
X42153Y26791D01*
X42146Y26815D01*
X42141Y26841D01*
X42137Y26869D01*
X42135Y26899D01*
X42134Y26930D01*
X42134Y27189D01*
X42134Y27189D01*
X42134Y26171D02*
X42134Y26259D01*
X42694Y26259D01*
X42679Y26276D01*
X42664Y26296D01*
X42649Y26318D01*
X42633Y26342D01*
X42619Y26367D01*
X42607Y26391D01*
X42597Y26414D01*
X42588Y26435D01*
X42673Y26435D01*
X42691Y26399D01*
X42711Y26366D01*
X42733Y26335D01*
X42757Y26306D01*
X42781Y26280D01*
X42806Y26259D01*
X42829Y26241D01*
X42853Y26228D01*
X42853Y26171D01*
X42134Y26171D01*
X42134Y26171D01*
X42299Y25933D02*
X42307Y25848D01*
X42279Y25842D01*
X42256Y25833D01*
X42236Y25821D01*
X42221Y25807D01*
X42209Y25791D01*
X42201Y25773D01*
X42196Y25752D01*
X42194Y25730D01*
X42195Y25710D01*
X42199Y25692D01*
X42204Y25675D01*
X42213Y25659D01*
X42223Y25644D01*
X42234Y25631D01*
X42247Y25619D01*
X42262Y25609D01*
X42279Y25599D01*
X42299Y25591D01*
X42321Y25583D01*
X42346Y25576D01*
X42372Y25570D01*
X42399Y25566D01*
X42426Y25564D01*
X42453Y25563D01*
X42457Y25563D01*
X42461Y25563D01*
X42465Y25563D01*
X42471Y25563D01*
X42503Y25608D01*
X42520Y25595D01*
X42548Y25583D01*
X42580Y25575D01*
X42615Y25573D01*
X42615Y25573D01*
X42651Y25575D01*
X42683Y25583D01*
X42711Y25596D01*
X42735Y25613D01*
X42755Y25634D01*
X42769Y25658D01*
X42777Y25683D01*
X42780Y25710D01*
X42777Y25739D01*
X42768Y25765D01*
X42753Y25790D01*
X42732Y25812D01*
X42706Y25831D01*
X42677Y25845D01*
X42644Y25853D01*
X42608Y25856D01*
X42575Y25853D01*
X42546Y25845D01*
X42520Y25832D01*
X42497Y25814D01*
X42478Y25793D01*
X42465Y25768D01*
X42457Y25742D01*
X42454Y25713D01*
X42457Y25683D01*
X42465Y25657D01*
X42478Y25633D01*
X42497Y25612D01*
X42503Y25608D01*
X42471Y25563D01*
X42451Y25578D01*
X42433Y25594D01*
X42417Y25614D01*
X42403Y25635D01*
X42391Y25659D01*
X42383Y25683D01*
X42378Y25708D01*
X42377Y25734D01*
X42381Y25777D01*
X42393Y25816D01*
X42413Y25852D01*
X42441Y25884D01*
X42476Y25911D01*
X42516Y25931D01*
X42561Y25942D01*
X42611Y25946D01*
X42663Y25942D01*
X42709Y25930D01*
X42750Y25910D01*
X42786Y25882D01*
X42815Y25848D01*
X42836Y25809D01*
X42848Y25767D01*
X42853Y25721D01*
X42850Y25687D01*
X42843Y25654D01*
X42831Y25623D01*
X42815Y25593D01*
X42794Y25566D01*
X42769Y25542D01*
X42741Y25522D01*
X42708Y25505D01*
X42669Y25492D01*
X42623Y25483D01*
X42568Y25477D01*
X42506Y25475D01*
X42441Y25477D01*
X42383Y25483D01*
X42332Y25492D01*
X42288Y25505D01*
X42250Y25522D01*
X42216Y25542D01*
X42188Y25566D01*
X42164Y25594D01*
X42146Y25624D01*
X42132Y25658D01*
X42124Y25693D01*
X42122Y25732D01*
X42125Y25772D01*
X42133Y25808D01*
X42148Y25840D01*
X42168Y25869D01*
X42194Y25893D01*
X42224Y25911D01*
X42260Y25925D01*
X42299Y25933D01*
X42299Y25933D01*
G37*
%LNtop silkscreen component 237f822594edd433*%
X12664Y34900D02*
X12664Y31900D01*
X14064Y34900D02*
X14064Y31900D01*
G36*
X13110Y30804D02*
X13655Y30804D01*
X13655Y30732D01*
X13385Y30732D01*
X13655Y30461D01*
X13655Y30363D01*
X13434Y30592D01*
X13110Y30353D01*
X13110Y30448D01*
X13386Y30643D01*
X13299Y30732D01*
X13110Y30732D01*
X13110Y30804D01*
X13110Y30804D01*
X14634Y36486D02*
X15350Y36486D01*
X15350Y36391D01*
X14718Y36391D01*
X14718Y36038D01*
X14634Y36038D01*
X14634Y36486D01*
X14634Y36486D01*
X14634Y35924D02*
X15350Y35924D01*
X15350Y35406D01*
X15265Y35406D01*
X15265Y35829D01*
X15046Y35829D01*
X15046Y35433D01*
X14962Y35433D01*
X14962Y35829D01*
X14718Y35829D01*
X14718Y35390D01*
X14634Y35390D01*
X14634Y35924D01*
X14634Y35924D01*
X14634Y35259D02*
X15350Y35259D01*
X15350Y35014D01*
X15265Y35014D01*
X15265Y35164D01*
X14718Y35164D01*
X14718Y35164D01*
X14718Y35011D01*
X14719Y34978D01*
X14722Y34948D01*
X14726Y34922D01*
X14732Y34900D01*
X14739Y34881D01*
X14747Y34864D01*
X14757Y34849D01*
X14769Y34836D01*
X14787Y34820D01*
X14808Y34806D01*
X14832Y34794D01*
X14859Y34783D01*
X14889Y34775D01*
X14922Y34769D01*
X14958Y34766D01*
X14997Y34765D01*
X15050Y34767D01*
X15096Y34774D01*
X15136Y34785D01*
X15170Y34801D01*
X15197Y34821D01*
X15220Y34842D01*
X15238Y34866D01*
X15251Y34891D01*
X15257Y34913D01*
X15262Y34941D01*
X15264Y34974D01*
X15265Y35014D01*
X15350Y35014D01*
X15350Y35012D01*
X15349Y34973D01*
X15347Y34938D01*
X15344Y34909D01*
X15339Y34885D01*
X15331Y34855D01*
X15320Y34828D01*
X15305Y34803D01*
X15288Y34780D01*
X15263Y34753D01*
X15234Y34730D01*
X15201Y34711D01*
X15166Y34695D01*
X15127Y34683D01*
X15086Y34674D01*
X15042Y34669D01*
X14996Y34667D01*
X14956Y34668D01*
X14919Y34672D01*
X14884Y34678D01*
X14851Y34686D01*
X14821Y34696D01*
X14794Y34708D01*
X14769Y34721D01*
X14747Y34735D01*
X14727Y34750D01*
X14710Y34766D01*
X14695Y34783D01*
X14682Y34800D01*
X14671Y34819D01*
X14661Y34839D01*
X14653Y34861D01*
X14646Y34885D01*
X14641Y34911D01*
X14637Y34939D01*
X14635Y34969D01*
X14634Y35000D01*
X14634Y35259D01*
X14634Y35259D01*
X14823Y34572D02*
X14835Y34484D01*
X14800Y34475D01*
X14770Y34463D01*
X14746Y34449D01*
X14727Y34432D01*
X14712Y34413D01*
X14702Y34392D01*
X14696Y34369D01*
X14694Y34344D01*
X14697Y34314D01*
X14705Y34286D01*
X14718Y34261D01*
X14737Y34239D01*
X14760Y34220D01*
X14785Y34207D01*
X14813Y34199D01*
X14843Y34196D01*
X14872Y34199D01*
X14899Y34206D01*
X14922Y34218D01*
X14943Y34236D01*
X14960Y34257D01*
X14973Y34281D01*
X14980Y34307D01*
X14983Y34336D01*
X14982Y34350D01*
X14980Y34364D01*
X14977Y34381D01*
X14973Y34398D01*
X15050Y34389D01*
X15049Y34384D01*
X15049Y34381D01*
X15049Y34377D01*
X15049Y34374D01*
X15051Y34347D01*
X15056Y34321D01*
X15065Y34296D01*
X15078Y34273D01*
X15095Y34254D01*
X15115Y34240D01*
X15140Y34231D01*
X15169Y34228D01*
X15192Y34230D01*
X15213Y34237D01*
X15232Y34247D01*
X15249Y34261D01*
X15263Y34279D01*
X15272Y34299D01*
X15278Y34321D01*
X15280Y34346D01*
X15278Y34370D01*
X15272Y34393D01*
X15262Y34413D01*
X15248Y34431D01*
X15230Y34447D01*
X15208Y34459D01*
X15182Y34469D01*
X15151Y34475D01*
X15167Y34563D01*
X15209Y34552D01*
X15246Y34537D01*
X15277Y34516D01*
X15304Y34490D01*
X15325Y34459D01*
X15340Y34426D01*
X15350Y34388D01*
X15353Y34348D01*
X15351Y34319D01*
X15346Y34291D01*
X15338Y34265D01*
X15327Y34240D01*
X15314Y34216D01*
X15298Y34196D01*
X15279Y34179D01*
X15259Y34164D01*
X15237Y34153D01*
X15214Y34145D01*
X15191Y34140D01*
X15167Y34138D01*
X15144Y34140D01*
X15122Y34144D01*
X15102Y34152D01*
X15082Y34163D01*
X15064Y34177D01*
X15048Y34194D01*
X15034Y34214D01*
X15022Y34237D01*
X15012Y34207D01*
X14999Y34180D01*
X14982Y34157D01*
X14961Y34138D01*
X14936Y34123D01*
X14909Y34112D01*
X14879Y34105D01*
X14845Y34103D01*
X14800Y34107D01*
X14759Y34120D01*
X14721Y34141D01*
X14686Y34171D01*
X14658Y34208D01*
X14637Y34249D01*
X14625Y34294D01*
X14621Y34344D01*
X14625Y34389D01*
X14635Y34430D01*
X14653Y34467D01*
X14677Y34501D01*
X14707Y34528D01*
X14742Y34550D01*
X14780Y34564D01*
X14823Y34572D01*
X14823Y34572D01*
G37*
%LNtop silkscreen component 00b1c4d6fd4119b1*%
X17247Y20225D02*
X17247Y17225D01*
X18647Y20225D02*
X18647Y17225D01*
G36*
X17693Y16129D02*
X18239Y16129D01*
X18239Y16057D01*
X17968Y16057D01*
X18239Y15786D01*
X18239Y15688D01*
X18018Y15917D01*
X17693Y15678D01*
X17693Y15773D01*
X17969Y15968D01*
X17882Y16057D01*
X17693Y16057D01*
X17693Y16129D01*
X17693Y16129D01*
X19217Y21811D02*
X19933Y21811D01*
X19933Y21716D01*
X19302Y21716D01*
X19302Y21363D01*
X19217Y21363D01*
X19217Y21811D01*
X19217Y21811D01*
X19217Y21249D02*
X19933Y21249D01*
X19933Y20731D01*
X19849Y20731D01*
X19849Y21154D01*
X19629Y21154D01*
X19629Y20758D01*
X19545Y20758D01*
X19545Y21154D01*
X19302Y21154D01*
X19302Y20715D01*
X19217Y20715D01*
X19217Y21249D01*
X19217Y21249D01*
X19217Y20584D02*
X19933Y20584D01*
X19933Y20339D01*
X19849Y20339D01*
X19849Y20489D01*
X19302Y20489D01*
X19302Y20489D01*
X19302Y20336D01*
X19303Y20303D01*
X19305Y20273D01*
X19309Y20247D01*
X19315Y20225D01*
X19322Y20206D01*
X19331Y20189D01*
X19341Y20174D01*
X19352Y20161D01*
X19370Y20145D01*
X19391Y20131D01*
X19416Y20119D01*
X19443Y20108D01*
X19473Y20100D01*
X19505Y20094D01*
X19541Y20091D01*
X19581Y20090D01*
X19633Y20092D01*
X19680Y20099D01*
X19720Y20110D01*
X19753Y20126D01*
X19781Y20146D01*
X19803Y20167D01*
X19821Y20191D01*
X19834Y20216D01*
X19840Y20238D01*
X19845Y20266D01*
X19848Y20299D01*
X19849Y20339D01*
X19933Y20339D01*
X19933Y20337D01*
X19932Y20298D01*
X19930Y20263D01*
X19927Y20234D01*
X19923Y20210D01*
X19914Y20180D01*
X19903Y20153D01*
X19889Y20128D01*
X19872Y20105D01*
X19846Y20078D01*
X19817Y20055D01*
X19785Y20036D01*
X19749Y20020D01*
X19711Y20008D01*
X19669Y19999D01*
X19626Y19994D01*
X19579Y19992D01*
X19539Y19993D01*
X19502Y19997D01*
X19467Y20003D01*
X19435Y20011D01*
X19404Y20021D01*
X19377Y20033D01*
X19352Y20046D01*
X19330Y20060D01*
X19311Y20075D01*
X19293Y20091D01*
X19278Y20108D01*
X19265Y20125D01*
X19254Y20144D01*
X19245Y20164D01*
X19236Y20186D01*
X19229Y20210D01*
X19224Y20236D01*
X19220Y20264D01*
X19218Y20294D01*
X19217Y20325D01*
X19217Y20584D01*
X19217Y20584D01*
X19302Y19435D02*
X19217Y19435D01*
X19217Y19908D01*
X19233Y19908D01*
X19248Y19906D01*
X19263Y19903D01*
X19278Y19898D01*
X19302Y19888D01*
X19326Y19875D01*
X19350Y19859D01*
X19373Y19840D01*
X19398Y19818D01*
X19424Y19792D01*
X19452Y19761D01*
X19482Y19725D01*
X19527Y19672D01*
X19568Y19627D01*
X19603Y19593D01*
X19633Y19568D01*
X19661Y19550D01*
X19688Y19537D01*
X19714Y19529D01*
X19739Y19527D01*
X19764Y19529D01*
X19787Y19536D01*
X19808Y19548D01*
X19827Y19564D01*
X19843Y19584D01*
X19854Y19607D01*
X19861Y19633D01*
X19863Y19661D01*
X19861Y19691D01*
X19854Y19718D01*
X19842Y19742D01*
X19825Y19763D01*
X19804Y19780D01*
X19780Y19792D01*
X19752Y19799D01*
X19720Y19801D01*
X19729Y19892D01*
X19776Y19884D01*
X19818Y19870D01*
X19853Y19849D01*
X19883Y19822D01*
X19906Y19789D01*
X19923Y19751D01*
X19933Y19708D01*
X19936Y19659D01*
X19932Y19611D01*
X19922Y19567D01*
X19904Y19529D01*
X19879Y19496D01*
X19849Y19470D01*
X19815Y19451D01*
X19778Y19440D01*
X19737Y19436D01*
X19716Y19437D01*
X19695Y19441D01*
X19674Y19446D01*
X19653Y19454D01*
X19632Y19464D01*
X19610Y19477D01*
X19588Y19493D01*
X19565Y19512D01*
X19540Y19536D01*
X19511Y19566D01*
X19477Y19604D01*
X19439Y19648D01*
X19409Y19684D01*
X19384Y19713D01*
X19364Y19734D01*
X19349Y19749D01*
X19337Y19760D01*
X19326Y19770D01*
X19314Y19779D01*
X19302Y19786D01*
X19302Y19435D01*
X19302Y19435D01*
X19217Y19059D02*
X19389Y19059D01*
X19389Y19370D01*
X19469Y19370D01*
X19831Y19115D01*
X19792Y19059D01*
X19469Y19283D01*
X19469Y19059D01*
X19469Y19059D01*
X19792Y19059D01*
X19831Y19115D01*
X19933Y19043D01*
X19933Y18971D01*
X19469Y18971D01*
X19469Y18875D01*
X19389Y18875D01*
X19389Y18971D01*
X19217Y18971D01*
X19217Y19059D01*
X19217Y19059D01*
G37*
%LNtop silkscreen component ef6e12693dbf5f4e*%
X8081Y26830D02*
X8081Y23830D01*
X9481Y26830D02*
X9481Y23830D01*
G36*
X8527Y22734D02*
X9072Y22734D01*
X9072Y22662D01*
X8802Y22662D01*
X9072Y22391D01*
X9072Y22293D01*
X8851Y22522D01*
X8527Y22283D01*
X8527Y22378D01*
X8803Y22573D01*
X8716Y22662D01*
X8527Y22662D01*
X8527Y22734D01*
X8527Y22734D01*
X10051Y28416D02*
X10766Y28416D01*
X10766Y28321D01*
X10135Y28321D01*
X10135Y27968D01*
X10051Y27968D01*
X10051Y28416D01*
X10051Y28416D01*
X10051Y27854D02*
X10766Y27854D01*
X10766Y27336D01*
X10682Y27336D01*
X10682Y27759D01*
X10463Y27759D01*
X10463Y27363D01*
X10379Y27363D01*
X10379Y27759D01*
X10135Y27759D01*
X10135Y27320D01*
X10051Y27320D01*
X10051Y27854D01*
X10051Y27854D01*
X10051Y27189D02*
X10766Y27189D01*
X10766Y26944D01*
X10682Y26944D01*
X10682Y27094D01*
X10135Y27094D01*
X10135Y27094D01*
X10135Y26941D01*
X10136Y26908D01*
X10138Y26878D01*
X10142Y26852D01*
X10148Y26830D01*
X10155Y26811D01*
X10164Y26794D01*
X10174Y26779D01*
X10185Y26766D01*
X10204Y26750D01*
X10225Y26736D01*
X10249Y26724D01*
X10276Y26713D01*
X10306Y26705D01*
X10339Y26699D01*
X10375Y26696D01*
X10414Y26695D01*
X10467Y26697D01*
X10513Y26704D01*
X10553Y26715D01*
X10586Y26731D01*
X10614Y26751D01*
X10637Y26772D01*
X10655Y26796D01*
X10667Y26821D01*
X10674Y26843D01*
X10678Y26871D01*
X10681Y26904D01*
X10682Y26944D01*
X10766Y26944D01*
X10766Y26942D01*
X10766Y26903D01*
X10764Y26868D01*
X10761Y26839D01*
X10756Y26815D01*
X10748Y26785D01*
X10736Y26758D01*
X10722Y26733D01*
X10705Y26710D01*
X10679Y26683D01*
X10650Y26660D01*
X10618Y26641D01*
X10583Y26625D01*
X10544Y26613D01*
X10503Y26604D01*
X10459Y26599D01*
X10412Y26597D01*
X10373Y26598D01*
X10335Y26602D01*
X10300Y26608D01*
X10268Y26616D01*
X10238Y26626D01*
X10210Y26638D01*
X10186Y26651D01*
X10164Y26665D01*
X10144Y26680D01*
X10127Y26696D01*
X10112Y26713D01*
X10099Y26730D01*
X10088Y26749D01*
X10078Y26769D01*
X10070Y26791D01*
X10063Y26815D01*
X10057Y26841D01*
X10054Y26869D01*
X10051Y26899D01*
X10051Y26930D01*
X10051Y27189D01*
X10051Y27189D01*
X10051Y26171D02*
X10051Y26259D01*
X10611Y26259D01*
X10595Y26276D01*
X10580Y26296D01*
X10565Y26318D01*
X10550Y26342D01*
X10536Y26367D01*
X10524Y26391D01*
X10513Y26414D01*
X10505Y26435D01*
X10590Y26435D01*
X10608Y26399D01*
X10628Y26366D01*
X10650Y26335D01*
X10674Y26306D01*
X10698Y26280D01*
X10722Y26259D01*
X10746Y26241D01*
X10769Y26228D01*
X10769Y26171D01*
X10051Y26171D01*
X10051Y26171D01*
X10135Y25484D02*
X10051Y25484D01*
X10051Y25957D01*
X10066Y25957D01*
X10082Y25955D01*
X10097Y25952D01*
X10112Y25947D01*
X10136Y25937D01*
X10160Y25923D01*
X10183Y25908D01*
X10207Y25889D01*
X10231Y25867D01*
X10257Y25840D01*
X10285Y25810D01*
X10315Y25774D01*
X10361Y25720D01*
X10401Y25676D01*
X10436Y25642D01*
X10467Y25616D01*
X10494Y25598D01*
X10521Y25586D01*
X10547Y25578D01*
X10573Y25575D01*
X10598Y25578D01*
X10621Y25585D01*
X10642Y25596D01*
X10661Y25613D01*
X10676Y25633D01*
X10688Y25656D01*
X10694Y25682D01*
X10697Y25710D01*
X10694Y25740D01*
X10687Y25767D01*
X10675Y25791D01*
X10658Y25812D01*
X10638Y25828D01*
X10613Y25840D01*
X10585Y25848D01*
X10553Y25850D01*
X10562Y25941D01*
X10610Y25933D01*
X10651Y25919D01*
X10687Y25898D01*
X10716Y25871D01*
X10740Y25838D01*
X10756Y25800D01*
X10766Y25757D01*
X10769Y25708D01*
X10766Y25659D01*
X10755Y25616D01*
X10737Y25578D01*
X10712Y25545D01*
X10682Y25519D01*
X10648Y25500D01*
X10611Y25489D01*
X10571Y25485D01*
X10549Y25486D01*
X10528Y25489D01*
X10507Y25495D01*
X10486Y25503D01*
X10465Y25513D01*
X10444Y25526D01*
X10421Y25542D01*
X10399Y25561D01*
X10374Y25585D01*
X10344Y25615D01*
X10311Y25652D01*
X10273Y25696D01*
X10242Y25732D01*
X10217Y25761D01*
X10197Y25783D01*
X10183Y25798D01*
X10171Y25809D01*
X10159Y25819D01*
X10147Y25827D01*
X10135Y25835D01*
X10135Y25484D01*
X10135Y25484D01*
G37*
%LNtop silkscreen component c27913cca4f7b2bc*%
X12664Y26830D02*
X12664Y23830D01*
X14064Y26830D02*
X14064Y23830D01*
G36*
X13110Y22734D02*
X13655Y22734D01*
X13655Y22662D01*
X13385Y22662D01*
X13655Y22391D01*
X13655Y22293D01*
X13434Y22522D01*
X13110Y22283D01*
X13110Y22378D01*
X13386Y22573D01*
X13299Y22662D01*
X13110Y22662D01*
X13110Y22734D01*
X13110Y22734D01*
X14634Y28416D02*
X15350Y28416D01*
X15350Y28321D01*
X14718Y28321D01*
X14718Y27968D01*
X14634Y27968D01*
X14634Y28416D01*
X14634Y28416D01*
X14634Y27854D02*
X15350Y27854D01*
X15350Y27336D01*
X15265Y27336D01*
X15265Y27759D01*
X15046Y27759D01*
X15046Y27363D01*
X14962Y27363D01*
X14962Y27759D01*
X14718Y27759D01*
X14718Y27320D01*
X14634Y27320D01*
X14634Y27854D01*
X14634Y27854D01*
X14634Y27189D02*
X15350Y27189D01*
X15350Y26944D01*
X15265Y26944D01*
X15265Y27094D01*
X14718Y27094D01*
X14718Y27094D01*
X14718Y26941D01*
X14719Y26908D01*
X14722Y26878D01*
X14726Y26852D01*
X14732Y26830D01*
X14739Y26811D01*
X14747Y26794D01*
X14757Y26779D01*
X14769Y26766D01*
X14787Y26750D01*
X14808Y26736D01*
X14832Y26724D01*
X14859Y26713D01*
X14889Y26705D01*
X14922Y26699D01*
X14958Y26696D01*
X14997Y26695D01*
X15050Y26697D01*
X15096Y26704D01*
X15136Y26715D01*
X15170Y26731D01*
X15197Y26751D01*
X15220Y26772D01*
X15238Y26796D01*
X15251Y26821D01*
X15257Y26843D01*
X15262Y26871D01*
X15264Y26904D01*
X15265Y26944D01*
X15350Y26944D01*
X15350Y26942D01*
X15349Y26903D01*
X15347Y26868D01*
X15344Y26839D01*
X15339Y26815D01*
X15331Y26785D01*
X15320Y26758D01*
X15305Y26733D01*
X15288Y26710D01*
X15263Y26683D01*
X15234Y26660D01*
X15201Y26641D01*
X15166Y26625D01*
X15127Y26613D01*
X15086Y26604D01*
X15042Y26599D01*
X14996Y26597D01*
X14956Y26598D01*
X14919Y26602D01*
X14884Y26608D01*
X14851Y26616D01*
X14821Y26626D01*
X14794Y26638D01*
X14769Y26651D01*
X14747Y26665D01*
X14727Y26680D01*
X14710Y26696D01*
X14695Y26713D01*
X14682Y26730D01*
X14671Y26749D01*
X14661Y26769D01*
X14653Y26791D01*
X14646Y26815D01*
X14641Y26841D01*
X14637Y26869D01*
X14635Y26899D01*
X14634Y26930D01*
X14634Y27189D01*
X14634Y27189D01*
X14634Y26171D02*
X14634Y26259D01*
X15194Y26259D01*
X15179Y26276D01*
X15164Y26296D01*
X15149Y26318D01*
X15133Y26342D01*
X15119Y26367D01*
X15107Y26391D01*
X15097Y26414D01*
X15088Y26435D01*
X15173Y26435D01*
X15191Y26399D01*
X15211Y26366D01*
X15233Y26335D01*
X15257Y26306D01*
X15281Y26280D01*
X15306Y26259D01*
X15329Y26241D01*
X15353Y26228D01*
X15353Y26171D01*
X14634Y26171D01*
X14634Y26171D01*
X14823Y25946D02*
X14835Y25858D01*
X14800Y25849D01*
X14770Y25837D01*
X14746Y25823D01*
X14727Y25806D01*
X14712Y25787D01*
X14702Y25766D01*
X14696Y25743D01*
X14694Y25717D01*
X14697Y25688D01*
X14705Y25660D01*
X14718Y25635D01*
X14737Y25613D01*
X14760Y25594D01*
X14785Y25581D01*
X14813Y25573D01*
X14843Y25570D01*
X14872Y25572D01*
X14899Y25580D01*
X14922Y25592D01*
X14943Y25610D01*
X14960Y25631D01*
X14973Y25654D01*
X14980Y25681D01*
X14983Y25710D01*
X14982Y25723D01*
X14980Y25738D01*
X14977Y25754D01*
X14973Y25772D01*
X15050Y25762D01*
X15049Y25758D01*
X15049Y25754D01*
X15049Y25751D01*
X15049Y25748D01*
X15051Y25721D01*
X15056Y25695D01*
X15065Y25670D01*
X15078Y25647D01*
X15095Y25628D01*
X15115Y25613D01*
X15140Y25605D01*
X15169Y25602D01*
X15192Y25604D01*
X15213Y25610D01*
X15232Y25621D01*
X15249Y25635D01*
X15263Y25653D01*
X15272Y25672D01*
X15278Y25695D01*
X15280Y25719D01*
X15278Y25744D01*
X15272Y25766D01*
X15262Y25787D01*
X15248Y25805D01*
X15230Y25820D01*
X15208Y25833D01*
X15182Y25842D01*
X15151Y25849D01*
X15167Y25937D01*
X15209Y25926D01*
X15246Y25910D01*
X15277Y25889D01*
X15304Y25863D01*
X15325Y25833D01*
X15340Y25799D01*
X15350Y25762D01*
X15353Y25721D01*
X15351Y25693D01*
X15346Y25665D01*
X15338Y25639D01*
X15327Y25613D01*
X15314Y25590D01*
X15298Y25570D01*
X15279Y25553D01*
X15259Y25538D01*
X15237Y25527D01*
X15214Y25518D01*
X15191Y25514D01*
X15167Y25512D01*
X15144Y25513D01*
X15122Y25518D01*
X15102Y25526D01*
X15082Y25537D01*
X15064Y25551D01*
X15048Y25568D01*
X15034Y25588D01*
X15022Y25611D01*
X15012Y25581D01*
X14999Y25554D01*
X14982Y25531D01*
X14961Y25512D01*
X14936Y25497D01*
X14909Y25486D01*
X14879Y25479D01*
X14845Y25477D01*
X14800Y25481D01*
X14759Y25494D01*
X14721Y25515D01*
X14686Y25545D01*
X14658Y25582D01*
X14637Y25623D01*
X14625Y25668D01*
X14621Y25718D01*
X14625Y25763D01*
X14635Y25804D01*
X14653Y25841D01*
X14677Y25874D01*
X14707Y25902D01*
X14742Y25923D01*
X14780Y25938D01*
X14823Y25946D01*
X14823Y25946D01*
G37*
%LNtop silkscreen component 6ecb9e78d0b4ad16*%
X17247Y26830D02*
X17247Y23830D01*
X18647Y26830D02*
X18647Y23830D01*
G36*
X17693Y22734D02*
X18239Y22734D01*
X18239Y22662D01*
X17968Y22662D01*
X18239Y22391D01*
X18239Y22293D01*
X18018Y22522D01*
X17693Y22283D01*
X17693Y22378D01*
X17969Y22573D01*
X17882Y22662D01*
X17693Y22662D01*
X17693Y22734D01*
X17693Y22734D01*
X19217Y28416D02*
X19933Y28416D01*
X19933Y28321D01*
X19302Y28321D01*
X19302Y27968D01*
X19217Y27968D01*
X19217Y28416D01*
X19217Y28416D01*
X19217Y27854D02*
X19933Y27854D01*
X19933Y27336D01*
X19849Y27336D01*
X19849Y27759D01*
X19629Y27759D01*
X19629Y27363D01*
X19545Y27363D01*
X19545Y27759D01*
X19302Y27759D01*
X19302Y27320D01*
X19217Y27320D01*
X19217Y27854D01*
X19217Y27854D01*
X19217Y27189D02*
X19933Y27189D01*
X19933Y26944D01*
X19849Y26944D01*
X19849Y27094D01*
X19302Y27094D01*
X19302Y27094D01*
X19302Y26941D01*
X19303Y26908D01*
X19305Y26878D01*
X19309Y26852D01*
X19315Y26830D01*
X19322Y26811D01*
X19331Y26794D01*
X19341Y26779D01*
X19352Y26766D01*
X19370Y26750D01*
X19391Y26736D01*
X19416Y26724D01*
X19443Y26713D01*
X19473Y26705D01*
X19505Y26699D01*
X19541Y26696D01*
X19581Y26695D01*
X19633Y26697D01*
X19680Y26704D01*
X19720Y26715D01*
X19753Y26731D01*
X19781Y26751D01*
X19803Y26772D01*
X19821Y26796D01*
X19834Y26821D01*
X19840Y26843D01*
X19845Y26871D01*
X19848Y26904D01*
X19849Y26944D01*
X19933Y26944D01*
X19933Y26942D01*
X19932Y26903D01*
X19930Y26868D01*
X19927Y26839D01*
X19923Y26815D01*
X19914Y26785D01*
X19903Y26758D01*
X19889Y26733D01*
X19872Y26710D01*
X19846Y26683D01*
X19817Y26660D01*
X19785Y26641D01*
X19749Y26625D01*
X19711Y26613D01*
X19669Y26604D01*
X19626Y26599D01*
X19579Y26597D01*
X19539Y26598D01*
X19502Y26602D01*
X19467Y26608D01*
X19435Y26616D01*
X19404Y26626D01*
X19377Y26638D01*
X19352Y26651D01*
X19330Y26665D01*
X19311Y26680D01*
X19293Y26696D01*
X19278Y26713D01*
X19265Y26730D01*
X19254Y26749D01*
X19245Y26769D01*
X19236Y26791D01*
X19229Y26815D01*
X19224Y26841D01*
X19220Y26869D01*
X19218Y26899D01*
X19217Y26930D01*
X19217Y27189D01*
X19217Y27189D01*
X19217Y26171D02*
X19217Y26259D01*
X19777Y26259D01*
X19762Y26276D01*
X19747Y26296D01*
X19732Y26318D01*
X19717Y26342D01*
X19703Y26367D01*
X19690Y26391D01*
X19680Y26414D01*
X19671Y26435D01*
X19756Y26435D01*
X19775Y26399D01*
X19795Y26366D01*
X19817Y26335D01*
X19840Y26306D01*
X19865Y26280D01*
X19889Y26259D01*
X19913Y26241D01*
X19936Y26228D01*
X19936Y26171D01*
X19217Y26171D01*
X19217Y26171D01*
X19217Y25664D02*
X19389Y25664D01*
X19389Y25975D01*
X19469Y25975D01*
X19831Y25720D01*
X19792Y25664D01*
X19469Y25888D01*
X19469Y25664D01*
X19469Y25664D01*
X19792Y25664D01*
X19831Y25720D01*
X19933Y25648D01*
X19933Y25576D01*
X19469Y25576D01*
X19469Y25480D01*
X19389Y25480D01*
X19389Y25576D01*
X19217Y25576D01*
X19217Y25664D01*
X19217Y25664D01*
G37*
%LNtop silkscreen component d3f5827382159297*%
X12150Y11200D02*
X12150Y13700D01*
X37550Y13700*
X37550Y11200*
X12150Y11200*
D11*
X11525Y12450D03*
G36*
X11954Y14603D02*
X12039Y14615D01*
X12042Y14577D01*
X12049Y14546D01*
X12058Y14521D01*
X12070Y14503D01*
X12085Y14489D01*
X12103Y14480D01*
X12123Y14474D01*
X12146Y14472D01*
X12163Y14473D01*
X12179Y14476D01*
X12194Y14481D01*
X12207Y14489D01*
X12219Y14498D01*
X12229Y14508D01*
X12237Y14520D01*
X12243Y14533D01*
X12247Y14549D01*
X12250Y14569D01*
X12252Y14594D01*
X12253Y14623D01*
X12253Y15116D01*
X12347Y15116D01*
X12347Y14628D01*
X12346Y14586D01*
X12342Y14548D01*
X12335Y14516D01*
X12326Y14489D01*
X12313Y14466D01*
X12298Y14445D01*
X12279Y14428D01*
X12257Y14414D01*
X12232Y14402D01*
X12206Y14394D01*
X12177Y14389D01*
X12146Y14388D01*
X12102Y14391D01*
X12063Y14401D01*
X12030Y14418D01*
X12002Y14442D01*
X11980Y14472D01*
X11965Y14509D01*
X11956Y14553D01*
X11954Y14603D01*
X11954Y14603D01*
X12928Y14484D02*
X12928Y14400D01*
X12455Y14400D01*
X12456Y14416D01*
X12457Y14431D01*
X12461Y14446D01*
X12466Y14461D01*
X12476Y14485D01*
X12489Y14509D01*
X12505Y14533D01*
X12523Y14556D01*
X12546Y14581D01*
X12572Y14607D01*
X12603Y14635D01*
X12638Y14665D01*
X12692Y14710D01*
X12736Y14750D01*
X12771Y14786D01*
X12796Y14816D01*
X12814Y14844D01*
X12827Y14871D01*
X12835Y14897D01*
X12837Y14922D01*
X12835Y14947D01*
X12828Y14970D01*
X12816Y14991D01*
X12800Y15010D01*
X12780Y15026D01*
X12757Y15037D01*
X12731Y15044D01*
X12702Y15046D01*
X12672Y15044D01*
X12645Y15036D01*
X12621Y15025D01*
X12601Y15008D01*
X12584Y14987D01*
X12572Y14962D01*
X12565Y14934D01*
X12562Y14902D01*
X12472Y14912D01*
X12480Y14959D01*
X12494Y15001D01*
X12515Y15036D01*
X12542Y15066D01*
X12575Y15089D01*
X12613Y15106D01*
X12656Y15115D01*
X12704Y15119D01*
X12753Y15115D01*
X12797Y15104D01*
X12835Y15087D01*
X12867Y15062D01*
X12894Y15031D01*
X12912Y14998D01*
X12924Y14961D01*
X12927Y14920D01*
X12926Y14899D01*
X12923Y14877D01*
X12918Y14856D01*
X12910Y14836D01*
X12900Y14815D01*
X12887Y14793D01*
X12870Y14771D01*
X12852Y14748D01*
X12828Y14723D01*
X12797Y14694D01*
X12760Y14660D01*
X12716Y14622D01*
X12680Y14592D01*
X12651Y14566D01*
X12629Y14547D01*
X12614Y14532D01*
X12604Y14520D01*
X12594Y14508D01*
X12585Y14496D01*
X12577Y14484D01*
X12928Y14484D01*
X12928Y14484D01*
G37*
%LNtop silkscreen component f06a9b999809c5bc*%
D10*
X21831Y34900D02*
X21831Y31900D01*
X23231Y34900D02*
X23231Y31900D01*
G36*
X22277Y30804D02*
X22822Y30804D01*
X22822Y30732D01*
X22552Y30732D01*
X22822Y30461D01*
X22822Y30363D01*
X22601Y30592D01*
X22277Y30353D01*
X22277Y30448D01*
X22553Y30643D01*
X22466Y30732D01*
X22277Y30732D01*
X22277Y30804D01*
X22277Y30804D01*
X23801Y36486D02*
X24516Y36486D01*
X24516Y36391D01*
X23885Y36391D01*
X23885Y36038D01*
X23801Y36038D01*
X23801Y36486D01*
X23801Y36486D01*
X23801Y35924D02*
X24516Y35924D01*
X24516Y35406D01*
X24432Y35406D01*
X24432Y35829D01*
X24213Y35829D01*
X24213Y35433D01*
X24129Y35433D01*
X24129Y35829D01*
X23885Y35829D01*
X23885Y35390D01*
X23801Y35390D01*
X23801Y35924D01*
X23801Y35924D01*
X23801Y35259D02*
X24516Y35259D01*
X24516Y35014D01*
X24432Y35014D01*
X24432Y35164D01*
X23885Y35164D01*
X23885Y35164D01*
X23885Y35011D01*
X23886Y34978D01*
X23888Y34948D01*
X23892Y34922D01*
X23898Y34900D01*
X23905Y34881D01*
X23914Y34864D01*
X23924Y34849D01*
X23935Y34836D01*
X23954Y34820D01*
X23975Y34806D01*
X23999Y34794D01*
X24026Y34783D01*
X24056Y34775D01*
X24089Y34769D01*
X24125Y34766D01*
X24164Y34765D01*
X24217Y34767D01*
X24263Y34774D01*
X24303Y34785D01*
X24336Y34801D01*
X24364Y34821D01*
X24387Y34842D01*
X24405Y34866D01*
X24417Y34891D01*
X24424Y34913D01*
X24428Y34941D01*
X24431Y34974D01*
X24432Y35014D01*
X24516Y35014D01*
X24516Y35012D01*
X24516Y34973D01*
X24514Y34938D01*
X24511Y34909D01*
X24506Y34885D01*
X24498Y34855D01*
X24486Y34828D01*
X24472Y34803D01*
X24455Y34780D01*
X24429Y34753D01*
X24400Y34730D01*
X24368Y34711D01*
X24333Y34695D01*
X24294Y34683D01*
X24253Y34674D01*
X24209Y34669D01*
X24162Y34667D01*
X24123Y34668D01*
X24085Y34672D01*
X24050Y34678D01*
X24018Y34686D01*
X23988Y34696D01*
X23960Y34708D01*
X23936Y34721D01*
X23914Y34735D01*
X23894Y34750D01*
X23877Y34766D01*
X23862Y34783D01*
X23849Y34800D01*
X23838Y34819D01*
X23828Y34839D01*
X23820Y34861D01*
X23813Y34885D01*
X23807Y34911D01*
X23804Y34939D01*
X23801Y34969D01*
X23801Y35000D01*
X23801Y35259D01*
X23801Y35259D01*
X23988Y34572D02*
X23996Y34480D01*
X23964Y34473D01*
X23937Y34463D01*
X23914Y34449D01*
X23895Y34432D01*
X23880Y34413D01*
X23869Y34391D01*
X23863Y34368D01*
X23861Y34342D01*
X23864Y34312D01*
X23873Y34284D01*
X23888Y34258D01*
X23908Y34235D01*
X23934Y34216D01*
X23964Y34202D01*
X23998Y34194D01*
X24035Y34191D01*
X24071Y34193D01*
X24103Y34201D01*
X24130Y34215D01*
X24154Y34233D01*
X24173Y34256D01*
X24187Y34282D01*
X24195Y34311D01*
X24198Y34344D01*
X24196Y34364D01*
X24193Y34384D01*
X24187Y34403D01*
X24178Y34420D01*
X24168Y34436D01*
X24156Y34451D01*
X24143Y34463D01*
X24128Y34474D01*
X24139Y34557D01*
X24507Y34487D01*
X24507Y34131D01*
X24423Y34131D01*
X24423Y34417D01*
X24230Y34455D01*
X24250Y34423D01*
X24264Y34389D01*
X24272Y34355D01*
X24275Y34320D01*
X24271Y34275D01*
X24259Y34234D01*
X24239Y34196D01*
X24210Y34162D01*
X24175Y34134D01*
X24136Y34114D01*
X24092Y34102D01*
X24043Y34098D01*
X23996Y34101D01*
X23953Y34112D01*
X23912Y34129D01*
X23875Y34154D01*
X23837Y34192D01*
X23810Y34236D01*
X23794Y34286D01*
X23788Y34342D01*
X23792Y34389D01*
X23802Y34431D01*
X23819Y34468D01*
X23843Y34502D01*
X23873Y34529D01*
X23907Y34550D01*
X23945Y34564D01*
X23988Y34572D01*
X23988Y34572D01*
G37*
%LNtop silkscreen component 9d9787e56fb843b5*%
X30997Y26830D02*
X30997Y23830D01*
X32397Y26830D02*
X32397Y23830D01*
G36*
X31443Y22734D02*
X31989Y22734D01*
X31989Y22662D01*
X31718Y22662D01*
X31989Y22391D01*
X31989Y22293D01*
X31768Y22522D01*
X31443Y22283D01*
X31443Y22378D01*
X31719Y22573D01*
X31632Y22662D01*
X31443Y22662D01*
X31443Y22734D01*
X31443Y22734D01*
X32967Y28416D02*
X33683Y28416D01*
X33683Y28321D01*
X33052Y28321D01*
X33052Y27968D01*
X32967Y27968D01*
X32967Y28416D01*
X32967Y28416D01*
X32967Y27854D02*
X33683Y27854D01*
X33683Y27336D01*
X33599Y27336D01*
X33599Y27759D01*
X33379Y27759D01*
X33379Y27363D01*
X33295Y27363D01*
X33295Y27759D01*
X33052Y27759D01*
X33052Y27320D01*
X32967Y27320D01*
X32967Y27854D01*
X32967Y27854D01*
X32967Y27189D02*
X33683Y27189D01*
X33683Y26944D01*
X33599Y26944D01*
X33599Y27094D01*
X33052Y27094D01*
X33052Y27094D01*
X33052Y26941D01*
X33053Y26908D01*
X33055Y26878D01*
X33059Y26852D01*
X33065Y26830D01*
X33072Y26811D01*
X33081Y26794D01*
X33091Y26779D01*
X33102Y26766D01*
X33120Y26750D01*
X33141Y26736D01*
X33166Y26724D01*
X33193Y26713D01*
X33223Y26705D01*
X33255Y26699D01*
X33291Y26696D01*
X33331Y26695D01*
X33383Y26697D01*
X33430Y26704D01*
X33470Y26715D01*
X33503Y26731D01*
X33531Y26751D01*
X33553Y26772D01*
X33571Y26796D01*
X33584Y26821D01*
X33590Y26843D01*
X33595Y26871D01*
X33598Y26904D01*
X33599Y26944D01*
X33683Y26944D01*
X33683Y26942D01*
X33682Y26903D01*
X33680Y26868D01*
X33677Y26839D01*
X33673Y26815D01*
X33664Y26785D01*
X33653Y26758D01*
X33639Y26733D01*
X33622Y26710D01*
X33596Y26683D01*
X33567Y26660D01*
X33535Y26641D01*
X33499Y26625D01*
X33461Y26613D01*
X33419Y26604D01*
X33376Y26599D01*
X33329Y26597D01*
X33289Y26598D01*
X33252Y26602D01*
X33217Y26608D01*
X33185Y26616D01*
X33154Y26626D01*
X33127Y26638D01*
X33102Y26651D01*
X33080Y26665D01*
X33061Y26680D01*
X33043Y26696D01*
X33028Y26713D01*
X33015Y26730D01*
X33004Y26749D01*
X32995Y26769D01*
X32986Y26791D01*
X32979Y26815D01*
X32974Y26841D01*
X32970Y26869D01*
X32968Y26899D01*
X32967Y26930D01*
X32967Y27189D01*
X32967Y27189D01*
X32967Y26171D02*
X32967Y26259D01*
X33527Y26259D01*
X33512Y26276D01*
X33497Y26296D01*
X33482Y26318D01*
X33467Y26342D01*
X33453Y26367D01*
X33440Y26391D01*
X33430Y26414D01*
X33421Y26435D01*
X33506Y26435D01*
X33525Y26399D01*
X33545Y26366D01*
X33567Y26335D01*
X33590Y26306D01*
X33615Y26280D01*
X33639Y26259D01*
X33663Y26241D01*
X33686Y26228D01*
X33686Y26171D01*
X32967Y26171D01*
X32967Y26171D01*
X33589Y25940D02*
X33674Y25940D01*
X33674Y25477D01*
X33605Y25477D01*
X33566Y25511D01*
X33521Y25545D01*
X33469Y25579D01*
X33412Y25612D01*
X33351Y25644D01*
X33290Y25672D01*
X33227Y25696D01*
X33164Y25716D01*
X33118Y25728D01*
X33070Y25738D01*
X33020Y25745D01*
X32967Y25750D01*
X32967Y25840D01*
X33012Y25837D01*
X33060Y25831D01*
X33114Y25821D01*
X33171Y25807D01*
X33231Y25789D01*
X33289Y25768D01*
X33346Y25744D01*
X33402Y25716D01*
X33455Y25686D01*
X33504Y25655D01*
X33549Y25623D01*
X33589Y25590D01*
X33589Y25940D01*
X33589Y25940D01*
G37*
%LNtop silkscreen component 625668e8c4110400*%
X26414Y26830D02*
X26414Y23830D01*
X27814Y26830D02*
X27814Y23830D01*
G36*
X26860Y22734D02*
X27405Y22734D01*
X27405Y22662D01*
X27135Y22662D01*
X27405Y22391D01*
X27405Y22293D01*
X27184Y22522D01*
X26860Y22283D01*
X26860Y22378D01*
X27136Y22573D01*
X27049Y22662D01*
X26860Y22662D01*
X26860Y22734D01*
X26860Y22734D01*
X28384Y28416D02*
X29100Y28416D01*
X29100Y28321D01*
X28468Y28321D01*
X28468Y27968D01*
X28384Y27968D01*
X28384Y28416D01*
X28384Y28416D01*
X28384Y27854D02*
X29100Y27854D01*
X29100Y27336D01*
X29015Y27336D01*
X29015Y27759D01*
X28796Y27759D01*
X28796Y27363D01*
X28712Y27363D01*
X28712Y27759D01*
X28468Y27759D01*
X28468Y27320D01*
X28384Y27320D01*
X28384Y27854D01*
X28384Y27854D01*
X28384Y27189D02*
X29100Y27189D01*
X29100Y26944D01*
X29015Y26944D01*
X29015Y27094D01*
X28468Y27094D01*
X28468Y27094D01*
X28468Y26941D01*
X28469Y26908D01*
X28472Y26878D01*
X28476Y26852D01*
X28482Y26830D01*
X28489Y26811D01*
X28497Y26794D01*
X28507Y26779D01*
X28519Y26766D01*
X28537Y26750D01*
X28558Y26736D01*
X28582Y26724D01*
X28609Y26713D01*
X28639Y26705D01*
X28672Y26699D01*
X28708Y26696D01*
X28747Y26695D01*
X28800Y26697D01*
X28846Y26704D01*
X28886Y26715D01*
X28920Y26731D01*
X28947Y26751D01*
X28970Y26772D01*
X28988Y26796D01*
X29001Y26821D01*
X29007Y26843D01*
X29012Y26871D01*
X29014Y26904D01*
X29015Y26944D01*
X29100Y26944D01*
X29100Y26942D01*
X29099Y26903D01*
X29097Y26868D01*
X29094Y26839D01*
X29089Y26815D01*
X29081Y26785D01*
X29070Y26758D01*
X29055Y26733D01*
X29038Y26710D01*
X29013Y26683D01*
X28984Y26660D01*
X28951Y26641D01*
X28916Y26625D01*
X28877Y26613D01*
X28836Y26604D01*
X28792Y26599D01*
X28746Y26597D01*
X28706Y26598D01*
X28669Y26602D01*
X28634Y26608D01*
X28601Y26616D01*
X28571Y26626D01*
X28544Y26638D01*
X28519Y26651D01*
X28497Y26665D01*
X28477Y26680D01*
X28460Y26696D01*
X28445Y26713D01*
X28432Y26730D01*
X28421Y26749D01*
X28411Y26769D01*
X28403Y26791D01*
X28396Y26815D01*
X28391Y26841D01*
X28387Y26869D01*
X28385Y26899D01*
X28384Y26930D01*
X28384Y27189D01*
X28384Y27189D01*
X28384Y26171D02*
X28384Y26259D01*
X28944Y26259D01*
X28929Y26276D01*
X28914Y26296D01*
X28899Y26318D01*
X28883Y26342D01*
X28869Y26367D01*
X28857Y26391D01*
X28847Y26414D01*
X28838Y26435D01*
X28923Y26435D01*
X28941Y26399D01*
X28961Y26366D01*
X28983Y26335D01*
X29007Y26306D01*
X29031Y26280D01*
X29056Y26259D01*
X29079Y26241D01*
X29103Y26228D01*
X29103Y26171D01*
X28384Y26171D01*
X28384Y26171D01*
X28924Y25490D02*
X28918Y25577D01*
X28942Y25584D01*
X28962Y25591D01*
X28979Y25600D01*
X28993Y25611D01*
X29009Y25629D01*
X29021Y25650D01*
X29028Y25673D01*
X29030Y25698D01*
X29029Y25719D01*
X29025Y25738D01*
X29017Y25756D01*
X29007Y25772D01*
X28990Y25792D01*
X28970Y25809D01*
X28946Y25825D01*
X28919Y25838D01*
X28886Y25848D01*
X28848Y25856D01*
X28804Y25861D01*
X28753Y25862D01*
X28717Y25816D01*
X28705Y25825D01*
X28679Y25838D01*
X28649Y25846D01*
X28616Y25849D01*
X28616Y25849D01*
X28593Y25848D01*
X28571Y25844D01*
X28550Y25838D01*
X28529Y25830D01*
X28509Y25819D01*
X28492Y25806D01*
X28478Y25792D01*
X28466Y25776D01*
X28456Y25758D01*
X28449Y25740D01*
X28445Y25722D01*
X28444Y25703D01*
X28447Y25676D01*
X28455Y25651D01*
X28469Y25628D01*
X28489Y25607D01*
X28513Y25590D01*
X28542Y25577D01*
X28574Y25570D01*
X28611Y25567D01*
X28646Y25570D01*
X28677Y25577D01*
X28705Y25589D01*
X28728Y25607D01*
X28747Y25628D01*
X28760Y25651D01*
X28768Y25677D01*
X28771Y25706D01*
X28768Y25735D01*
X28760Y25761D01*
X28747Y25785D01*
X28728Y25807D01*
X28717Y25816D01*
X28753Y25862D01*
X28776Y25846D01*
X28795Y25827D01*
X28812Y25807D01*
X28825Y25785D01*
X28835Y25762D01*
X28842Y25738D01*
X28847Y25714D01*
X28848Y25689D01*
X28844Y25646D01*
X28832Y25607D01*
X28812Y25572D01*
X28784Y25539D01*
X28749Y25512D01*
X28709Y25493D01*
X28665Y25481D01*
X28616Y25477D01*
X28583Y25479D01*
X28551Y25485D01*
X28521Y25494D01*
X28491Y25506D01*
X28464Y25522D01*
X28440Y25541D01*
X28420Y25562D01*
X28402Y25586D01*
X28389Y25612D01*
X28379Y25640D01*
X28374Y25670D01*
X28372Y25701D01*
X28377Y25754D01*
X28392Y25801D01*
X28417Y25843D01*
X28452Y25881D01*
X28499Y25911D01*
X28559Y25933D01*
X28633Y25946D01*
X28719Y25950D01*
X28816Y25945D01*
X28898Y25931D01*
X28966Y25907D01*
X29021Y25873D01*
X29056Y25837D01*
X29082Y25795D01*
X29098Y25747D01*
X29103Y25693D01*
X29100Y25653D01*
X29091Y25616D01*
X29076Y25584D01*
X29055Y25555D01*
X29029Y25530D01*
X28999Y25511D01*
X28964Y25498D01*
X28924Y25490D01*
X28924Y25490D01*
G37*
%LNtop silkscreen component 1c0a852161275c55*%
X35581Y26830D02*
X35581Y23830D01*
X36981Y26830D02*
X36981Y23830D01*
G36*
X36027Y22734D02*
X36572Y22734D01*
X36572Y22662D01*
X36302Y22662D01*
X36572Y22391D01*
X36572Y22293D01*
X36351Y22522D01*
X36027Y22283D01*
X36027Y22378D01*
X36303Y22573D01*
X36216Y22662D01*
X36027Y22662D01*
X36027Y22734D01*
X36027Y22734D01*
X37551Y28416D02*
X38266Y28416D01*
X38266Y28321D01*
X37635Y28321D01*
X37635Y27968D01*
X37551Y27968D01*
X37551Y28416D01*
X37551Y28416D01*
X37551Y27854D02*
X38266Y27854D01*
X38266Y27336D01*
X38182Y27336D01*
X38182Y27759D01*
X37963Y27759D01*
X37963Y27363D01*
X37879Y27363D01*
X37879Y27759D01*
X37635Y27759D01*
X37635Y27320D01*
X37551Y27320D01*
X37551Y27854D01*
X37551Y27854D01*
X37551Y27189D02*
X38266Y27189D01*
X38266Y26944D01*
X38182Y26944D01*
X38182Y27094D01*
X37635Y27094D01*
X37635Y27094D01*
X37635Y26941D01*
X37636Y26908D01*
X37638Y26878D01*
X37642Y26852D01*
X37648Y26830D01*
X37655Y26811D01*
X37664Y26794D01*
X37674Y26779D01*
X37685Y26766D01*
X37704Y26750D01*
X37725Y26736D01*
X37749Y26724D01*
X37776Y26713D01*
X37806Y26705D01*
X37839Y26699D01*
X37875Y26696D01*
X37914Y26695D01*
X37967Y26697D01*
X38013Y26704D01*
X38053Y26715D01*
X38086Y26731D01*
X38114Y26751D01*
X38137Y26772D01*
X38155Y26796D01*
X38167Y26821D01*
X38174Y26843D01*
X38178Y26871D01*
X38181Y26904D01*
X38182Y26944D01*
X38266Y26944D01*
X38266Y26942D01*
X38266Y26903D01*
X38264Y26868D01*
X38261Y26839D01*
X38256Y26815D01*
X38248Y26785D01*
X38236Y26758D01*
X38222Y26733D01*
X38205Y26710D01*
X38179Y26683D01*
X38150Y26660D01*
X38118Y26641D01*
X38083Y26625D01*
X38044Y26613D01*
X38003Y26604D01*
X37959Y26599D01*
X37912Y26597D01*
X37873Y26598D01*
X37835Y26602D01*
X37800Y26608D01*
X37768Y26616D01*
X37738Y26626D01*
X37710Y26638D01*
X37686Y26651D01*
X37664Y26665D01*
X37644Y26680D01*
X37627Y26696D01*
X37612Y26713D01*
X37599Y26730D01*
X37588Y26749D01*
X37578Y26769D01*
X37570Y26791D01*
X37563Y26815D01*
X37557Y26841D01*
X37554Y26869D01*
X37551Y26899D01*
X37551Y26930D01*
X37551Y27189D01*
X37551Y27189D01*
X37551Y26171D02*
X37551Y26259D01*
X38111Y26259D01*
X38095Y26276D01*
X38080Y26296D01*
X38065Y26318D01*
X38050Y26342D01*
X38036Y26367D01*
X38024Y26391D01*
X38013Y26414D01*
X38005Y26435D01*
X38090Y26435D01*
X38108Y26399D01*
X38128Y26366D01*
X38150Y26335D01*
X38174Y26306D01*
X38198Y26280D01*
X38222Y26259D01*
X38246Y26241D01*
X38269Y26228D01*
X38269Y26171D01*
X37551Y26171D01*
X37551Y26171D01*
X37939Y25811D02*
X37884Y25782D01*
X37878Y25794D01*
X37860Y25816D01*
X37838Y25834D01*
X37813Y25846D01*
X37787Y25854D01*
X37757Y25857D01*
X37757Y25857D01*
X37738Y25856D01*
X37720Y25852D01*
X37702Y25847D01*
X37684Y25839D01*
X37668Y25829D01*
X37653Y25817D01*
X37641Y25802D01*
X37630Y25786D01*
X37621Y25768D01*
X37615Y25749D01*
X37612Y25730D01*
X37611Y25710D01*
X37613Y25680D01*
X37621Y25653D01*
X37633Y25628D01*
X37651Y25606D01*
X37673Y25588D01*
X37697Y25575D01*
X37724Y25568D01*
X37754Y25565D01*
X37785Y25568D01*
X37812Y25576D01*
X37837Y25589D01*
X37859Y25607D01*
X37877Y25630D01*
X37890Y25655D01*
X37898Y25683D01*
X37901Y25713D01*
X37898Y25743D01*
X37890Y25770D01*
X37884Y25782D01*
X37939Y25811D01*
X37991Y25778D01*
X37980Y25758D01*
X37974Y25736D01*
X37972Y25711D01*
X37974Y25686D01*
X37980Y25664D01*
X37990Y25645D01*
X38004Y25627D01*
X38021Y25613D01*
X38040Y25603D01*
X38060Y25597D01*
X38083Y25595D01*
X38106Y25597D01*
X38127Y25603D01*
X38147Y25614D01*
X38164Y25628D01*
X38178Y25646D01*
X38189Y25666D01*
X38195Y25688D01*
X38197Y25712D01*
X38195Y25736D01*
X38189Y25758D01*
X38179Y25777D01*
X38165Y25795D01*
X38148Y25810D01*
X38129Y25820D01*
X38109Y25826D01*
X38088Y25828D01*
X38088Y25828D01*
X38063Y25826D01*
X38042Y25820D01*
X38022Y25810D01*
X38005Y25796D01*
X37991Y25778D01*
X37939Y25811D01*
X37950Y25836D01*
X37963Y25858D01*
X37978Y25877D01*
X37996Y25892D01*
X38015Y25903D01*
X38037Y25912D01*
X38060Y25917D01*
X38085Y25918D01*
X38122Y25915D01*
X38157Y25904D01*
X38188Y25887D01*
X38216Y25862D01*
X38239Y25832D01*
X38256Y25797D01*
X38266Y25757D01*
X38269Y25713D01*
X38266Y25668D01*
X38256Y25628D01*
X38239Y25593D01*
X38215Y25562D01*
X38186Y25537D01*
X38154Y25519D01*
X38120Y25508D01*
X38082Y25505D01*
X38058Y25506D01*
X38036Y25511D01*
X38015Y25519D01*
X37996Y25531D01*
X37978Y25545D01*
X37963Y25564D01*
X37950Y25585D01*
X37939Y25610D01*
X37926Y25579D01*
X37911Y25552D01*
X37892Y25529D01*
X37869Y25510D01*
X37844Y25495D01*
X37817Y25484D01*
X37787Y25477D01*
X37755Y25475D01*
X37711Y25479D01*
X37671Y25492D01*
X37634Y25512D01*
X37601Y25540D01*
X37574Y25575D01*
X37554Y25615D01*
X37542Y25661D01*
X37538Y25711D01*
X37542Y25762D01*
X37554Y25807D01*
X37574Y25847D01*
X37601Y25882D01*
X37634Y25910D01*
X37672Y25931D01*
X37713Y25943D01*
X37758Y25947D01*
X37791Y25945D01*
X37822Y25938D01*
X37850Y25927D01*
X37875Y25912D01*
X37896Y25892D01*
X37914Y25869D01*
X37928Y25842D01*
X37939Y25811D01*
X37939Y25811D01*
G37*
%LNtop silkscreen component 6b81eb568788a618*%
X3497Y34900D02*
X3497Y31900D01*
X4897Y34900D02*
X4897Y31900D01*
G36*
X3943Y30804D02*
X4489Y30804D01*
X4489Y30732D01*
X4218Y30732D01*
X4489Y30461D01*
X4489Y30363D01*
X4268Y30592D01*
X3943Y30353D01*
X3943Y30448D01*
X4219Y30643D01*
X4132Y30732D01*
X3943Y30732D01*
X3943Y30804D01*
X3943Y30804D01*
X5467Y36486D02*
X6183Y36486D01*
X6183Y36391D01*
X5552Y36391D01*
X5552Y36038D01*
X5467Y36038D01*
X5467Y36486D01*
X5467Y36486D01*
X5467Y35924D02*
X6183Y35924D01*
X6183Y35406D01*
X6099Y35406D01*
X6099Y35829D01*
X5879Y35829D01*
X5879Y35433D01*
X5795Y35433D01*
X5795Y35829D01*
X5552Y35829D01*
X5552Y35390D01*
X5467Y35390D01*
X5467Y35924D01*
X5467Y35924D01*
X5467Y35259D02*
X6183Y35259D01*
X6183Y35014D01*
X6099Y35014D01*
X6099Y35164D01*
X5552Y35164D01*
X5552Y35164D01*
X5552Y35011D01*
X5553Y34978D01*
X5555Y34948D01*
X5559Y34922D01*
X5565Y34900D01*
X5572Y34881D01*
X5581Y34864D01*
X5591Y34849D01*
X5602Y34836D01*
X5620Y34820D01*
X5641Y34806D01*
X5666Y34794D01*
X5693Y34783D01*
X5723Y34775D01*
X5755Y34769D01*
X5791Y34766D01*
X5831Y34765D01*
X5883Y34767D01*
X5930Y34774D01*
X5970Y34785D01*
X6003Y34801D01*
X6031Y34821D01*
X6053Y34842D01*
X6071Y34866D01*
X6084Y34891D01*
X6090Y34913D01*
X6095Y34941D01*
X6098Y34974D01*
X6099Y35014D01*
X6183Y35014D01*
X6183Y35012D01*
X6182Y34973D01*
X6180Y34938D01*
X6177Y34909D01*
X6173Y34885D01*
X6164Y34855D01*
X6153Y34828D01*
X6139Y34803D01*
X6122Y34780D01*
X6096Y34753D01*
X6067Y34730D01*
X6035Y34711D01*
X5999Y34695D01*
X5961Y34683D01*
X5919Y34674D01*
X5876Y34669D01*
X5829Y34667D01*
X5789Y34668D01*
X5752Y34672D01*
X5717Y34678D01*
X5685Y34686D01*
X5654Y34696D01*
X5627Y34708D01*
X5602Y34721D01*
X5580Y34735D01*
X5561Y34750D01*
X5543Y34766D01*
X5528Y34783D01*
X5515Y34800D01*
X5504Y34819D01*
X5495Y34839D01*
X5486Y34861D01*
X5479Y34885D01*
X5474Y34911D01*
X5470Y34939D01*
X5468Y34969D01*
X5467Y35000D01*
X5467Y35259D01*
X5467Y35259D01*
X5467Y34241D02*
X5467Y34329D01*
X6027Y34329D01*
X6012Y34346D01*
X5997Y34366D01*
X5982Y34388D01*
X5967Y34412D01*
X5953Y34437D01*
X5940Y34461D01*
X5930Y34484D01*
X5921Y34505D01*
X6006Y34505D01*
X6025Y34469D01*
X6045Y34436D01*
X6067Y34405D01*
X6090Y34376D01*
X6115Y34350D01*
X6139Y34329D01*
X6163Y34311D01*
X6186Y34298D01*
X6186Y34241D01*
X5467Y34241D01*
X5467Y34241D01*
G37*
%LNtop silkscreen component ce574d7d1471fc53*%
X26414Y34900D02*
X26414Y31900D01*
X27814Y34900D02*
X27814Y31900D01*
G36*
X26860Y30804D02*
X27405Y30804D01*
X27405Y30732D01*
X27135Y30732D01*
X27405Y30461D01*
X27405Y30363D01*
X27184Y30592D01*
X26860Y30353D01*
X26860Y30448D01*
X27136Y30643D01*
X27049Y30732D01*
X26860Y30732D01*
X26860Y30804D01*
X26860Y30804D01*
X28384Y36486D02*
X29100Y36486D01*
X29100Y36391D01*
X28468Y36391D01*
X28468Y36038D01*
X28384Y36038D01*
X28384Y36486D01*
X28384Y36486D01*
X28384Y35924D02*
X29100Y35924D01*
X29100Y35406D01*
X29015Y35406D01*
X29015Y35829D01*
X28796Y35829D01*
X28796Y35433D01*
X28712Y35433D01*
X28712Y35829D01*
X28468Y35829D01*
X28468Y35390D01*
X28384Y35390D01*
X28384Y35924D01*
X28384Y35924D01*
X28384Y35259D02*
X29100Y35259D01*
X29100Y35014D01*
X29015Y35014D01*
X29015Y35164D01*
X28468Y35164D01*
X28468Y35164D01*
X28468Y35011D01*
X28469Y34978D01*
X28472Y34948D01*
X28476Y34922D01*
X28482Y34900D01*
X28489Y34881D01*
X28497Y34864D01*
X28507Y34849D01*
X28519Y34836D01*
X28537Y34820D01*
X28558Y34806D01*
X28582Y34794D01*
X28609Y34783D01*
X28639Y34775D01*
X28672Y34769D01*
X28708Y34766D01*
X28747Y34765D01*
X28800Y34767D01*
X28846Y34774D01*
X28886Y34785D01*
X28920Y34801D01*
X28947Y34821D01*
X28970Y34842D01*
X28988Y34866D01*
X29001Y34891D01*
X29007Y34913D01*
X29012Y34941D01*
X29014Y34974D01*
X29015Y35014D01*
X29100Y35014D01*
X29100Y35012D01*
X29099Y34973D01*
X29097Y34938D01*
X29094Y34909D01*
X29089Y34885D01*
X29081Y34855D01*
X29070Y34828D01*
X29055Y34803D01*
X29038Y34780D01*
X29013Y34753D01*
X28984Y34730D01*
X28951Y34711D01*
X28916Y34695D01*
X28877Y34683D01*
X28836Y34674D01*
X28792Y34669D01*
X28746Y34667D01*
X28706Y34668D01*
X28669Y34672D01*
X28634Y34678D01*
X28601Y34686D01*
X28571Y34696D01*
X28544Y34708D01*
X28519Y34721D01*
X28497Y34735D01*
X28477Y34750D01*
X28460Y34766D01*
X28445Y34783D01*
X28432Y34800D01*
X28421Y34819D01*
X28411Y34839D01*
X28403Y34861D01*
X28396Y34885D01*
X28391Y34911D01*
X28387Y34939D01*
X28385Y34969D01*
X28384Y35000D01*
X28384Y35259D01*
X28384Y35259D01*
X28924Y34116D02*
X28918Y34203D01*
X28942Y34210D01*
X28962Y34218D01*
X28979Y34227D01*
X28993Y34237D01*
X29009Y34256D01*
X29021Y34276D01*
X29028Y34300D01*
X29030Y34325D01*
X29029Y34345D01*
X29025Y34364D01*
X29017Y34382D01*
X29007Y34398D01*
X28990Y34418D01*
X28970Y34435D01*
X28946Y34451D01*
X28919Y34464D01*
X28886Y34474D01*
X28848Y34482D01*
X28804Y34487D01*
X28753Y34489D01*
X28717Y34442D01*
X28705Y34452D01*
X28679Y34465D01*
X28649Y34472D01*
X28616Y34475D01*
X28616Y34475D01*
X28593Y34474D01*
X28571Y34470D01*
X28550Y34464D01*
X28529Y34456D01*
X28509Y34445D01*
X28492Y34433D01*
X28478Y34418D01*
X28466Y34402D01*
X28456Y34384D01*
X28449Y34366D01*
X28445Y34348D01*
X28444Y34329D01*
X28447Y34302D01*
X28455Y34277D01*
X28469Y34254D01*
X28489Y34233D01*
X28513Y34216D01*
X28542Y34203D01*
X28574Y34196D01*
X28611Y34193D01*
X28646Y34196D01*
X28677Y34203D01*
X28705Y34215D01*
X28728Y34233D01*
X28747Y34254D01*
X28760Y34277D01*
X28768Y34304D01*
X28771Y34332D01*
X28768Y34361D01*
X28760Y34387D01*
X28747Y34412D01*
X28728Y34433D01*
X28717Y34442D01*
X28753Y34489D01*
X28776Y34472D01*
X28795Y34453D01*
X28812Y34433D01*
X28825Y34411D01*
X28835Y34388D01*
X28842Y34364D01*
X28847Y34340D01*
X28848Y34315D01*
X28844Y34273D01*
X28832Y34233D01*
X28812Y34198D01*
X28784Y34165D01*
X28749Y34138D01*
X28709Y34119D01*
X28665Y34107D01*
X28616Y34103D01*
X28583Y34105D01*
X28551Y34111D01*
X28521Y34120D01*
X28491Y34132D01*
X28464Y34148D01*
X28440Y34167D01*
X28420Y34188D01*
X28402Y34212D01*
X28389Y34239D01*
X28379Y34266D01*
X28374Y34296D01*
X28372Y34328D01*
X28377Y34380D01*
X28392Y34427D01*
X28417Y34470D01*
X28452Y34507D01*
X28499Y34537D01*
X28559Y34559D01*
X28633Y34572D01*
X28719Y34576D01*
X28816Y34571D01*
X28898Y34557D01*
X28966Y34533D01*
X29021Y34499D01*
X29056Y34463D01*
X29082Y34421D01*
X29098Y34373D01*
X29103Y34319D01*
X29100Y34279D01*
X29091Y34242D01*
X29076Y34210D01*
X29055Y34181D01*
X29029Y34157D01*
X28999Y34138D01*
X28964Y34124D01*
X28924Y34116D01*
X28924Y34116D01*
G37*
%LNtop silkscreen component 6b1c98187ecd4732*%
X35581Y34900D02*
X35581Y31900D01*
X36981Y34900D02*
X36981Y31900D01*
G36*
X36027Y30804D02*
X36572Y30804D01*
X36572Y30732D01*
X36302Y30732D01*
X36572Y30461D01*
X36572Y30363D01*
X36351Y30592D01*
X36027Y30353D01*
X36027Y30448D01*
X36303Y30643D01*
X36216Y30732D01*
X36027Y30732D01*
X36027Y30804D01*
X36027Y30804D01*
X37551Y36486D02*
X38266Y36486D01*
X38266Y36391D01*
X37635Y36391D01*
X37635Y36038D01*
X37551Y36038D01*
X37551Y36486D01*
X37551Y36486D01*
X37551Y35924D02*
X38266Y35924D01*
X38266Y35406D01*
X38182Y35406D01*
X38182Y35829D01*
X37963Y35829D01*
X37963Y35433D01*
X37879Y35433D01*
X37879Y35829D01*
X37635Y35829D01*
X37635Y35390D01*
X37551Y35390D01*
X37551Y35924D01*
X37551Y35924D01*
X37551Y35259D02*
X38266Y35259D01*
X38266Y35014D01*
X38182Y35014D01*
X38182Y35164D01*
X37635Y35164D01*
X37635Y35164D01*
X37635Y35011D01*
X37636Y34978D01*
X37638Y34948D01*
X37642Y34922D01*
X37648Y34900D01*
X37655Y34881D01*
X37664Y34864D01*
X37674Y34849D01*
X37685Y34836D01*
X37704Y34820D01*
X37725Y34806D01*
X37749Y34794D01*
X37776Y34783D01*
X37806Y34775D01*
X37839Y34769D01*
X37875Y34766D01*
X37914Y34765D01*
X37967Y34767D01*
X38013Y34774D01*
X38053Y34785D01*
X38086Y34801D01*
X38114Y34821D01*
X38137Y34842D01*
X38155Y34866D01*
X38167Y34891D01*
X38174Y34913D01*
X38178Y34941D01*
X38181Y34974D01*
X38182Y35014D01*
X38266Y35014D01*
X38266Y35012D01*
X38266Y34973D01*
X38264Y34938D01*
X38261Y34909D01*
X38256Y34885D01*
X38248Y34855D01*
X38236Y34828D01*
X38222Y34803D01*
X38205Y34780D01*
X38179Y34753D01*
X38150Y34730D01*
X38118Y34711D01*
X38083Y34695D01*
X38044Y34683D01*
X38003Y34674D01*
X37959Y34669D01*
X37912Y34667D01*
X37873Y34668D01*
X37835Y34672D01*
X37800Y34678D01*
X37768Y34686D01*
X37738Y34696D01*
X37710Y34708D01*
X37686Y34721D01*
X37664Y34735D01*
X37644Y34750D01*
X37627Y34766D01*
X37612Y34783D01*
X37599Y34800D01*
X37588Y34819D01*
X37578Y34839D01*
X37570Y34861D01*
X37563Y34885D01*
X37557Y34911D01*
X37554Y34939D01*
X37551Y34969D01*
X37551Y35000D01*
X37551Y35259D01*
X37551Y35259D01*
X37939Y34437D02*
X37884Y34408D01*
X37878Y34420D01*
X37860Y34442D01*
X37838Y34460D01*
X37813Y34473D01*
X37787Y34480D01*
X37757Y34483D01*
X37757Y34483D01*
X37738Y34482D01*
X37720Y34478D01*
X37702Y34473D01*
X37684Y34465D01*
X37668Y34455D01*
X37653Y34443D01*
X37641Y34428D01*
X37630Y34412D01*
X37621Y34394D01*
X37615Y34375D01*
X37612Y34356D01*
X37611Y34336D01*
X37613Y34306D01*
X37621Y34279D01*
X37633Y34254D01*
X37651Y34232D01*
X37673Y34214D01*
X37697Y34202D01*
X37724Y34194D01*
X37754Y34191D01*
X37785Y34194D01*
X37812Y34202D01*
X37837Y34215D01*
X37859Y34234D01*
X37877Y34256D01*
X37890Y34281D01*
X37898Y34309D01*
X37901Y34339D01*
X37898Y34369D01*
X37890Y34396D01*
X37884Y34408D01*
X37939Y34437D01*
X37991Y34404D01*
X37980Y34384D01*
X37974Y34362D01*
X37972Y34337D01*
X37974Y34313D01*
X37980Y34291D01*
X37990Y34271D01*
X38004Y34254D01*
X38021Y34239D01*
X38040Y34229D01*
X38060Y34223D01*
X38083Y34221D01*
X38106Y34223D01*
X38127Y34229D01*
X38147Y34240D01*
X38164Y34255D01*
X38178Y34272D01*
X38189Y34292D01*
X38195Y34314D01*
X38197Y34338D01*
X38195Y34362D01*
X38189Y34384D01*
X38179Y34404D01*
X38165Y34421D01*
X38148Y34436D01*
X38129Y34446D01*
X38109Y34452D01*
X38088Y34454D01*
X38088Y34454D01*
X38063Y34452D01*
X38042Y34446D01*
X38022Y34436D01*
X38005Y34422D01*
X37991Y34404D01*
X37939Y34437D01*
X37950Y34462D01*
X37963Y34485D01*
X37978Y34503D01*
X37996Y34518D01*
X38015Y34529D01*
X38037Y34538D01*
X38060Y34543D01*
X38085Y34544D01*
X38122Y34541D01*
X38157Y34530D01*
X38188Y34513D01*
X38216Y34488D01*
X38239Y34458D01*
X38256Y34423D01*
X38266Y34383D01*
X38269Y34339D01*
X38266Y34294D01*
X38256Y34254D01*
X38239Y34219D01*
X38215Y34188D01*
X38186Y34163D01*
X38154Y34145D01*
X38120Y34134D01*
X38082Y34131D01*
X38058Y34132D01*
X38036Y34137D01*
X38015Y34145D01*
X37996Y34157D01*
X37978Y34172D01*
X37963Y34190D01*
X37950Y34211D01*
X37939Y34236D01*
X37926Y34205D01*
X37911Y34178D01*
X37892Y34155D01*
X37869Y34136D01*
X37844Y34121D01*
X37817Y34110D01*
X37787Y34104D01*
X37755Y34101D01*
X37711Y34106D01*
X37671Y34118D01*
X37634Y34138D01*
X37601Y34166D01*
X37574Y34201D01*
X37554Y34242D01*
X37542Y34287D01*
X37538Y34337D01*
X37542Y34388D01*
X37554Y34433D01*
X37574Y34473D01*
X37601Y34508D01*
X37634Y34537D01*
X37672Y34557D01*
X37713Y34569D01*
X37758Y34573D01*
X37791Y34571D01*
X37822Y34564D01*
X37850Y34553D01*
X37875Y34538D01*
X37896Y34518D01*
X37914Y34495D01*
X37928Y34468D01*
X37939Y34437D01*
X37939Y34437D01*
G37*
%LNtop silkscreen component 763fc9b59c2e9779*%
X26414Y20225D02*
X26414Y17225D01*
X27814Y20225D02*
X27814Y17225D01*
G36*
X26860Y16129D02*
X27405Y16129D01*
X27405Y16057D01*
X27135Y16057D01*
X27405Y15786D01*
X27405Y15688D01*
X27184Y15917D01*
X26860Y15678D01*
X26860Y15773D01*
X27136Y15968D01*
X27049Y16057D01*
X26860Y16057D01*
X26860Y16129D01*
X26860Y16129D01*
X28384Y21811D02*
X29100Y21811D01*
X29100Y21716D01*
X28468Y21716D01*
X28468Y21363D01*
X28384Y21363D01*
X28384Y21811D01*
X28384Y21811D01*
X28384Y21249D02*
X29100Y21249D01*
X29100Y20731D01*
X29015Y20731D01*
X29015Y21154D01*
X28796Y21154D01*
X28796Y20758D01*
X28712Y20758D01*
X28712Y21154D01*
X28468Y21154D01*
X28468Y20715D01*
X28384Y20715D01*
X28384Y21249D01*
X28384Y21249D01*
X28384Y20584D02*
X29100Y20584D01*
X29100Y20339D01*
X29015Y20339D01*
X29015Y20489D01*
X28468Y20489D01*
X28468Y20489D01*
X28468Y20336D01*
X28469Y20303D01*
X28472Y20273D01*
X28476Y20247D01*
X28482Y20225D01*
X28489Y20206D01*
X28497Y20189D01*
X28507Y20174D01*
X28519Y20161D01*
X28537Y20145D01*
X28558Y20131D01*
X28582Y20119D01*
X28609Y20108D01*
X28639Y20100D01*
X28672Y20094D01*
X28708Y20091D01*
X28747Y20090D01*
X28800Y20092D01*
X28846Y20099D01*
X28886Y20110D01*
X28920Y20126D01*
X28947Y20146D01*
X28970Y20167D01*
X28988Y20191D01*
X29001Y20216D01*
X29007Y20238D01*
X29012Y20266D01*
X29014Y20299D01*
X29015Y20339D01*
X29100Y20339D01*
X29100Y20337D01*
X29099Y20298D01*
X29097Y20263D01*
X29094Y20234D01*
X29089Y20210D01*
X29081Y20180D01*
X29070Y20153D01*
X29055Y20128D01*
X29038Y20105D01*
X29013Y20078D01*
X28984Y20055D01*
X28951Y20036D01*
X28916Y20020D01*
X28877Y20008D01*
X28836Y19999D01*
X28792Y19994D01*
X28746Y19992D01*
X28706Y19993D01*
X28669Y19997D01*
X28634Y20003D01*
X28601Y20011D01*
X28571Y20021D01*
X28544Y20033D01*
X28519Y20046D01*
X28497Y20060D01*
X28477Y20075D01*
X28460Y20091D01*
X28445Y20108D01*
X28432Y20125D01*
X28421Y20144D01*
X28411Y20164D01*
X28403Y20186D01*
X28396Y20210D01*
X28391Y20236D01*
X28387Y20264D01*
X28385Y20294D01*
X28384Y20325D01*
X28384Y20584D01*
X28384Y20584D01*
X28468Y19435D02*
X28384Y19435D01*
X28384Y19908D01*
X28400Y19908D01*
X28415Y19906D01*
X28430Y19903D01*
X28445Y19898D01*
X28469Y19888D01*
X28493Y19875D01*
X28517Y19859D01*
X28540Y19840D01*
X28564Y19818D01*
X28591Y19792D01*
X28619Y19761D01*
X28649Y19725D01*
X28694Y19672D01*
X28734Y19627D01*
X28770Y19593D01*
X28800Y19568D01*
X28828Y19550D01*
X28855Y19537D01*
X28881Y19529D01*
X28906Y19527D01*
X28931Y19529D01*
X28954Y19536D01*
X28975Y19548D01*
X28994Y19564D01*
X29010Y19584D01*
X29021Y19607D01*
X29028Y19633D01*
X29030Y19661D01*
X29028Y19691D01*
X29020Y19718D01*
X29008Y19742D01*
X28992Y19763D01*
X28971Y19780D01*
X28946Y19792D01*
X28918Y19799D01*
X28886Y19801D01*
X28896Y19892D01*
X28943Y19884D01*
X28985Y19870D01*
X29020Y19849D01*
X29050Y19822D01*
X29073Y19789D01*
X29089Y19751D01*
X29099Y19708D01*
X29103Y19659D01*
X29099Y19611D01*
X29088Y19567D01*
X29071Y19529D01*
X29046Y19496D01*
X29015Y19470D01*
X28982Y19451D01*
X28944Y19440D01*
X28904Y19436D01*
X28883Y19437D01*
X28861Y19441D01*
X28840Y19446D01*
X28819Y19454D01*
X28798Y19464D01*
X28777Y19477D01*
X28755Y19493D01*
X28732Y19512D01*
X28707Y19536D01*
X28678Y19566D01*
X28644Y19604D01*
X28606Y19648D01*
X28576Y19684D01*
X28550Y19713D01*
X28530Y19734D01*
X28516Y19749D01*
X28504Y19760D01*
X28492Y19770D01*
X28480Y19779D01*
X28468Y19786D01*
X28468Y19435D01*
X28468Y19435D01*
X28924Y18885D02*
X28918Y18972D01*
X28942Y18979D01*
X28962Y18986D01*
X28979Y18995D01*
X28993Y19006D01*
X29009Y19024D01*
X29021Y19045D01*
X29028Y19068D01*
X29030Y19093D01*
X29029Y19114D01*
X29025Y19133D01*
X29017Y19151D01*
X29007Y19167D01*
X28990Y19187D01*
X28970Y19204D01*
X28946Y19220D01*
X28919Y19233D01*
X28886Y19243D01*
X28848Y19251D01*
X28804Y19256D01*
X28753Y19257D01*
X28717Y19211D01*
X28705Y19220D01*
X28679Y19233D01*
X28649Y19241D01*
X28616Y19244D01*
X28616Y19244D01*
X28593Y19243D01*
X28571Y19239D01*
X28550Y19233D01*
X28529Y19225D01*
X28509Y19214D01*
X28492Y19201D01*
X28478Y19187D01*
X28466Y19171D01*
X28456Y19153D01*
X28449Y19135D01*
X28445Y19117D01*
X28444Y19098D01*
X28447Y19071D01*
X28455Y19046D01*
X28469Y19023D01*
X28489Y19002D01*
X28513Y18985D01*
X28542Y18972D01*
X28574Y18965D01*
X28611Y18962D01*
X28646Y18965D01*
X28677Y18972D01*
X28705Y18984D01*
X28728Y19002D01*
X28747Y19023D01*
X28760Y19046D01*
X28768Y19072D01*
X28771Y19101D01*
X28768Y19130D01*
X28760Y19156D01*
X28747Y19180D01*
X28728Y19202D01*
X28717Y19211D01*
X28753Y19257D01*
X28776Y19241D01*
X28795Y19222D01*
X28812Y19202D01*
X28825Y19180D01*
X28835Y19157D01*
X28842Y19133D01*
X28847Y19109D01*
X28848Y19084D01*
X28844Y19041D01*
X28832Y19002D01*
X28812Y18967D01*
X28784Y18934D01*
X28749Y18907D01*
X28709Y18888D01*
X28665Y18876D01*
X28616Y18872D01*
X28583Y18874D01*
X28551Y18880D01*
X28521Y18889D01*
X28491Y18901D01*
X28464Y18917D01*
X28440Y18936D01*
X28420Y18957D01*
X28402Y18981D01*
X28389Y19007D01*
X28379Y19035D01*
X28374Y19065D01*
X28372Y19096D01*
X28377Y19149D01*
X28392Y19196D01*
X28417Y19238D01*
X28452Y19276D01*
X28499Y19306D01*
X28559Y19328D01*
X28633Y19341D01*
X28719Y19345D01*
X28816Y19340D01*
X28898Y19326D01*
X28966Y19302D01*
X29021Y19268D01*
X29056Y19232D01*
X29082Y19190D01*
X29098Y19142D01*
X29103Y19088D01*
X29100Y19048D01*
X29091Y19011D01*
X29076Y18979D01*
X29055Y18950D01*
X29029Y18925D01*
X28999Y18906D01*
X28964Y18893D01*
X28924Y18885D01*
X28924Y18885D01*
G37*
%LNtop silkscreen component e859c303c48e5b51*%
X21831Y20225D02*
X21831Y17225D01*
X23231Y20225D02*
X23231Y17225D01*
G36*
X22277Y16129D02*
X22822Y16129D01*
X22822Y16057D01*
X22552Y16057D01*
X22822Y15786D01*
X22822Y15688D01*
X22601Y15917D01*
X22277Y15678D01*
X22277Y15773D01*
X22553Y15968D01*
X22466Y16057D01*
X22277Y16057D01*
X22277Y16129D01*
X22277Y16129D01*
X23801Y21811D02*
X24516Y21811D01*
X24516Y21716D01*
X23885Y21716D01*
X23885Y21363D01*
X23801Y21363D01*
X23801Y21811D01*
X23801Y21811D01*
X23801Y21249D02*
X24516Y21249D01*
X24516Y20731D01*
X24432Y20731D01*
X24432Y21154D01*
X24213Y21154D01*
X24213Y20758D01*
X24129Y20758D01*
X24129Y21154D01*
X23885Y21154D01*
X23885Y20715D01*
X23801Y20715D01*
X23801Y21249D01*
X23801Y21249D01*
X23801Y20584D02*
X24516Y20584D01*
X24516Y20339D01*
X24432Y20339D01*
X24432Y20489D01*
X23885Y20489D01*
X23885Y20489D01*
X23885Y20336D01*
X23886Y20303D01*
X23888Y20273D01*
X23892Y20247D01*
X23898Y20225D01*
X23905Y20206D01*
X23914Y20189D01*
X23924Y20174D01*
X23935Y20161D01*
X23954Y20145D01*
X23975Y20131D01*
X23999Y20119D01*
X24026Y20108D01*
X24056Y20100D01*
X24089Y20094D01*
X24125Y20091D01*
X24164Y20090D01*
X24217Y20092D01*
X24263Y20099D01*
X24303Y20110D01*
X24336Y20126D01*
X24364Y20146D01*
X24387Y20167D01*
X24405Y20191D01*
X24417Y20216D01*
X24424Y20238D01*
X24428Y20266D01*
X24431Y20299D01*
X24432Y20339D01*
X24516Y20339D01*
X24516Y20337D01*
X24516Y20298D01*
X24514Y20263D01*
X24511Y20234D01*
X24506Y20210D01*
X24498Y20180D01*
X24486Y20153D01*
X24472Y20128D01*
X24455Y20105D01*
X24429Y20078D01*
X24400Y20055D01*
X24368Y20036D01*
X24333Y20020D01*
X24294Y20008D01*
X24253Y19999D01*
X24209Y19994D01*
X24162Y19992D01*
X24123Y19993D01*
X24085Y19997D01*
X24050Y20003D01*
X24018Y20011D01*
X23988Y20021D01*
X23960Y20033D01*
X23936Y20046D01*
X23914Y20060D01*
X23894Y20075D01*
X23877Y20091D01*
X23862Y20108D01*
X23849Y20125D01*
X23838Y20144D01*
X23828Y20164D01*
X23820Y20186D01*
X23813Y20210D01*
X23807Y20236D01*
X23804Y20264D01*
X23801Y20294D01*
X23801Y20325D01*
X23801Y20584D01*
X23801Y20584D01*
X23885Y19435D02*
X23801Y19435D01*
X23801Y19908D01*
X23816Y19908D01*
X23832Y19906D01*
X23847Y19903D01*
X23862Y19898D01*
X23886Y19888D01*
X23910Y19875D01*
X23933Y19859D01*
X23957Y19840D01*
X23981Y19818D01*
X24007Y19792D01*
X24035Y19761D01*
X24065Y19725D01*
X24111Y19672D01*
X24151Y19627D01*
X24186Y19593D01*
X24217Y19568D01*
X24244Y19550D01*
X24271Y19537D01*
X24297Y19529D01*
X24323Y19527D01*
X24348Y19529D01*
X24371Y19536D01*
X24392Y19548D01*
X24411Y19564D01*
X24426Y19584D01*
X24438Y19607D01*
X24444Y19633D01*
X24447Y19661D01*
X24444Y19691D01*
X24437Y19718D01*
X24425Y19742D01*
X24408Y19763D01*
X24388Y19780D01*
X24363Y19792D01*
X24335Y19799D01*
X24303Y19801D01*
X24312Y19892D01*
X24360Y19884D01*
X24401Y19870D01*
X24437Y19849D01*
X24466Y19822D01*
X24490Y19789D01*
X24506Y19751D01*
X24516Y19708D01*
X24519Y19659D01*
X24516Y19611D01*
X24505Y19567D01*
X24487Y19529D01*
X24462Y19496D01*
X24432Y19470D01*
X24398Y19451D01*
X24361Y19440D01*
X24321Y19436D01*
X24299Y19437D01*
X24278Y19441D01*
X24257Y19446D01*
X24236Y19454D01*
X24215Y19464D01*
X24194Y19477D01*
X24171Y19493D01*
X24149Y19512D01*
X24124Y19536D01*
X24094Y19566D01*
X24061Y19604D01*
X24023Y19648D01*
X23992Y19684D01*
X23967Y19713D01*
X23947Y19734D01*
X23933Y19749D01*
X23921Y19760D01*
X23909Y19770D01*
X23897Y19779D01*
X23885Y19786D01*
X23885Y19435D01*
X23885Y19435D01*
X23988Y19341D02*
X23996Y19249D01*
X23964Y19242D01*
X23937Y19232D01*
X23914Y19218D01*
X23895Y19201D01*
X23880Y19181D01*
X23869Y19160D01*
X23863Y19136D01*
X23861Y19111D01*
X23864Y19080D01*
X23873Y19052D01*
X23888Y19027D01*
X23908Y19004D01*
X23934Y18984D01*
X23964Y18971D01*
X23998Y18962D01*
X24035Y18960D01*
X24071Y18962D01*
X24103Y18970D01*
X24130Y18983D01*
X24154Y19002D01*
X24173Y19025D01*
X24187Y19051D01*
X24195Y19080D01*
X24198Y19112D01*
X24196Y19133D01*
X24193Y19153D01*
X24187Y19172D01*
X24178Y19189D01*
X24168Y19205D01*
X24156Y19220D01*
X24143Y19232D01*
X24128Y19243D01*
X24139Y19325D01*
X24507Y19256D01*
X24507Y18900D01*
X24423Y18900D01*
X24423Y19186D01*
X24230Y19224D01*
X24250Y19192D01*
X24264Y19158D01*
X24272Y19124D01*
X24275Y19089D01*
X24271Y19044D01*
X24259Y19003D01*
X24239Y18965D01*
X24210Y18931D01*
X24175Y18903D01*
X24136Y18882D01*
X24092Y18870D01*
X24043Y18866D01*
X23996Y18870D01*
X23953Y18881D01*
X23912Y18898D01*
X23875Y18923D01*
X23837Y18961D01*
X23810Y19004D01*
X23794Y19055D01*
X23788Y19111D01*
X23792Y19158D01*
X23802Y19200D01*
X23819Y19237D01*
X23843Y19270D01*
X23873Y19298D01*
X23907Y19319D01*
X23945Y19333D01*
X23988Y19341D01*
X23988Y19341D01*
G37*
%LNtop silkscreen component f3a27893b55f737a*%
X12225Y39775D02*
X12225Y42275D01*
X37625Y42275*
X37625Y39775*
X12225Y39775*
D11*
X11600Y41025D03*
G36*
X12029Y43178D02*
X12114Y43190D01*
X12117Y43152D01*
X12124Y43121D01*
X12133Y43096D01*
X12145Y43078D01*
X12160Y43064D01*
X12178Y43055D01*
X12198Y43049D01*
X12221Y43047D01*
X12238Y43048D01*
X12254Y43051D01*
X12269Y43056D01*
X12282Y43064D01*
X12294Y43073D01*
X12304Y43083D01*
X12312Y43095D01*
X12318Y43108D01*
X12322Y43124D01*
X12325Y43144D01*
X12327Y43169D01*
X12328Y43198D01*
X12328Y43691D01*
X12422Y43691D01*
X12422Y43203D01*
X12421Y43161D01*
X12417Y43123D01*
X12410Y43091D01*
X12401Y43064D01*
X12388Y43041D01*
X12373Y43020D01*
X12354Y43003D01*
X12332Y42989D01*
X12307Y42977D01*
X12281Y42969D01*
X12252Y42964D01*
X12221Y42963D01*
X12177Y42966D01*
X12138Y42976D01*
X12105Y42993D01*
X12077Y43017D01*
X12055Y43047D01*
X12040Y43084D01*
X12031Y43128D01*
X12029Y43178D01*
X12029Y43178D01*
X12873Y42975D02*
X12785Y42975D01*
X12785Y43535D01*
X12768Y43520D01*
X12748Y43505D01*
X12726Y43490D01*
X12701Y43475D01*
X12676Y43460D01*
X12653Y43448D01*
X12630Y43438D01*
X12609Y43429D01*
X12609Y43514D01*
X12645Y43532D01*
X12678Y43552D01*
X12709Y43574D01*
X12738Y43598D01*
X12763Y43623D01*
X12785Y43647D01*
X12802Y43670D01*
X12816Y43694D01*
X12873Y43694D01*
X12873Y42975D01*
X12873Y42975D01*
G37*
%LNtop silkscreen component aa635499163bf62b*%
D10*
X8081Y20225D02*
X8081Y17225D01*
X9481Y20225D02*
X9481Y17225D01*
G36*
X8527Y16129D02*
X9072Y16129D01*
X9072Y16057D01*
X8802Y16057D01*
X9072Y15786D01*
X9072Y15688D01*
X8851Y15917D01*
X8527Y15678D01*
X8527Y15773D01*
X8803Y15968D01*
X8716Y16057D01*
X8527Y16057D01*
X8527Y16129D01*
X8527Y16129D01*
X10051Y21811D02*
X10766Y21811D01*
X10766Y21716D01*
X10135Y21716D01*
X10135Y21363D01*
X10051Y21363D01*
X10051Y21811D01*
X10051Y21811D01*
X10051Y21249D02*
X10766Y21249D01*
X10766Y20731D01*
X10682Y20731D01*
X10682Y21154D01*
X10463Y21154D01*
X10463Y20758D01*
X10379Y20758D01*
X10379Y21154D01*
X10135Y21154D01*
X10135Y20715D01*
X10051Y20715D01*
X10051Y21249D01*
X10051Y21249D01*
X10051Y20584D02*
X10766Y20584D01*
X10766Y20339D01*
X10682Y20339D01*
X10682Y20489D01*
X10135Y20489D01*
X10135Y20489D01*
X10135Y20336D01*
X10136Y20303D01*
X10138Y20273D01*
X10142Y20247D01*
X10148Y20225D01*
X10155Y20206D01*
X10164Y20189D01*
X10174Y20174D01*
X10185Y20161D01*
X10204Y20145D01*
X10225Y20131D01*
X10249Y20119D01*
X10276Y20108D01*
X10306Y20100D01*
X10339Y20094D01*
X10375Y20091D01*
X10414Y20090D01*
X10467Y20092D01*
X10513Y20099D01*
X10553Y20110D01*
X10586Y20126D01*
X10614Y20146D01*
X10637Y20167D01*
X10655Y20191D01*
X10667Y20216D01*
X10674Y20238D01*
X10678Y20266D01*
X10681Y20299D01*
X10682Y20339D01*
X10766Y20339D01*
X10766Y20337D01*
X10766Y20298D01*
X10764Y20263D01*
X10761Y20234D01*
X10756Y20210D01*
X10748Y20180D01*
X10736Y20153D01*
X10722Y20128D01*
X10705Y20105D01*
X10679Y20078D01*
X10650Y20055D01*
X10618Y20036D01*
X10583Y20020D01*
X10544Y20008D01*
X10503Y19999D01*
X10459Y19994D01*
X10412Y19992D01*
X10373Y19993D01*
X10335Y19997D01*
X10300Y20003D01*
X10268Y20011D01*
X10238Y20021D01*
X10210Y20033D01*
X10186Y20046D01*
X10164Y20060D01*
X10144Y20075D01*
X10127Y20091D01*
X10112Y20108D01*
X10099Y20125D01*
X10088Y20144D01*
X10078Y20164D01*
X10070Y20186D01*
X10063Y20210D01*
X10057Y20236D01*
X10054Y20264D01*
X10051Y20294D01*
X10051Y20325D01*
X10051Y20584D01*
X10051Y20584D01*
X10135Y19435D02*
X10051Y19435D01*
X10051Y19908D01*
X10066Y19908D01*
X10082Y19906D01*
X10097Y19903D01*
X10112Y19898D01*
X10136Y19888D01*
X10160Y19875D01*
X10183Y19859D01*
X10207Y19840D01*
X10231Y19818D01*
X10257Y19792D01*
X10285Y19761D01*
X10315Y19725D01*
X10361Y19672D01*
X10401Y19627D01*
X10436Y19593D01*
X10467Y19568D01*
X10494Y19550D01*
X10521Y19537D01*
X10547Y19529D01*
X10573Y19527D01*
X10598Y19529D01*
X10621Y19536D01*
X10642Y19548D01*
X10661Y19564D01*
X10676Y19584D01*
X10688Y19607D01*
X10694Y19633D01*
X10697Y19661D01*
X10694Y19691D01*
X10687Y19718D01*
X10675Y19742D01*
X10658Y19763D01*
X10638Y19780D01*
X10613Y19792D01*
X10585Y19799D01*
X10553Y19801D01*
X10562Y19892D01*
X10610Y19884D01*
X10651Y19870D01*
X10687Y19849D01*
X10716Y19822D01*
X10740Y19789D01*
X10756Y19751D01*
X10766Y19708D01*
X10769Y19659D01*
X10766Y19611D01*
X10755Y19567D01*
X10737Y19529D01*
X10712Y19496D01*
X10682Y19470D01*
X10648Y19451D01*
X10611Y19440D01*
X10571Y19436D01*
X10549Y19437D01*
X10528Y19441D01*
X10507Y19446D01*
X10486Y19454D01*
X10465Y19464D01*
X10444Y19477D01*
X10421Y19493D01*
X10399Y19512D01*
X10374Y19536D01*
X10344Y19566D01*
X10311Y19604D01*
X10273Y19648D01*
X10242Y19684D01*
X10217Y19713D01*
X10197Y19734D01*
X10183Y19749D01*
X10171Y19760D01*
X10159Y19770D01*
X10147Y19779D01*
X10135Y19786D01*
X10135Y19435D01*
X10135Y19435D01*
X10135Y18879D02*
X10051Y18879D01*
X10051Y19352D01*
X10066Y19352D01*
X10082Y19350D01*
X10097Y19347D01*
X10112Y19342D01*
X10136Y19332D01*
X10160Y19318D01*
X10183Y19303D01*
X10207Y19284D01*
X10231Y19262D01*
X10257Y19235D01*
X10285Y19205D01*
X10315Y19169D01*
X10361Y19115D01*
X10401Y19071D01*
X10436Y19037D01*
X10467Y19011D01*
X10494Y18993D01*
X10521Y18981D01*
X10547Y18973D01*
X10573Y18970D01*
X10598Y18973D01*
X10621Y18980D01*
X10642Y18991D01*
X10661Y19008D01*
X10676Y19028D01*
X10688Y19051D01*
X10694Y19077D01*
X10697Y19105D01*
X10694Y19135D01*
X10687Y19162D01*
X10675Y19186D01*
X10658Y19207D01*
X10638Y19223D01*
X10613Y19235D01*
X10585Y19243D01*
X10553Y19245D01*
X10562Y19336D01*
X10610Y19328D01*
X10651Y19314D01*
X10687Y19293D01*
X10716Y19266D01*
X10740Y19233D01*
X10756Y19195D01*
X10766Y19152D01*
X10769Y19103D01*
X10766Y19054D01*
X10755Y19011D01*
X10737Y18973D01*
X10712Y18940D01*
X10682Y18914D01*
X10648Y18895D01*
X10611Y18884D01*
X10571Y18880D01*
X10549Y18881D01*
X10528Y18884D01*
X10507Y18890D01*
X10486Y18898D01*
X10465Y18908D01*
X10444Y18921D01*
X10421Y18937D01*
X10399Y18956D01*
X10374Y18980D01*
X10344Y19010D01*
X10311Y19047D01*
X10273Y19091D01*
X10242Y19127D01*
X10217Y19156D01*
X10197Y19178D01*
X10183Y19193D01*
X10171Y19204D01*
X10159Y19214D01*
X10147Y19222D01*
X10135Y19230D01*
X10135Y18879D01*
X10135Y18879D01*
G37*
%LNtop silkscreen component 23c76c2c48bda672*%
X3497Y20225D02*
X3497Y17225D01*
X4897Y20225D02*
X4897Y17225D01*
G36*
X3943Y16129D02*
X4489Y16129D01*
X4489Y16057D01*
X4218Y16057D01*
X4489Y15786D01*
X4489Y15688D01*
X4268Y15917D01*
X3943Y15678D01*
X3943Y15773D01*
X4219Y15968D01*
X4132Y16057D01*
X3943Y16057D01*
X3943Y16129D01*
X3943Y16129D01*
X5467Y21811D02*
X6183Y21811D01*
X6183Y21716D01*
X5552Y21716D01*
X5552Y21363D01*
X5467Y21363D01*
X5467Y21811D01*
X5467Y21811D01*
X5467Y21249D02*
X6183Y21249D01*
X6183Y20731D01*
X6099Y20731D01*
X6099Y21154D01*
X5879Y21154D01*
X5879Y20758D01*
X5795Y20758D01*
X5795Y21154D01*
X5552Y21154D01*
X5552Y20715D01*
X5467Y20715D01*
X5467Y21249D01*
X5467Y21249D01*
X5467Y20584D02*
X6183Y20584D01*
X6183Y20339D01*
X6099Y20339D01*
X6099Y20489D01*
X5552Y20489D01*
X5552Y20489D01*
X5552Y20336D01*
X5553Y20303D01*
X5555Y20273D01*
X5559Y20247D01*
X5565Y20225D01*
X5572Y20206D01*
X5581Y20189D01*
X5591Y20174D01*
X5602Y20161D01*
X5620Y20145D01*
X5641Y20131D01*
X5666Y20119D01*
X5693Y20108D01*
X5723Y20100D01*
X5755Y20094D01*
X5791Y20091D01*
X5831Y20090D01*
X5883Y20092D01*
X5930Y20099D01*
X5970Y20110D01*
X6003Y20126D01*
X6031Y20146D01*
X6053Y20167D01*
X6071Y20191D01*
X6084Y20216D01*
X6090Y20238D01*
X6095Y20266D01*
X6098Y20299D01*
X6099Y20339D01*
X6183Y20339D01*
X6183Y20337D01*
X6182Y20298D01*
X6180Y20263D01*
X6177Y20234D01*
X6173Y20210D01*
X6164Y20180D01*
X6153Y20153D01*
X6139Y20128D01*
X6122Y20105D01*
X6096Y20078D01*
X6067Y20055D01*
X6035Y20036D01*
X5999Y20020D01*
X5961Y20008D01*
X5919Y19999D01*
X5876Y19994D01*
X5829Y19992D01*
X5789Y19993D01*
X5752Y19997D01*
X5717Y20003D01*
X5685Y20011D01*
X5654Y20021D01*
X5627Y20033D01*
X5602Y20046D01*
X5580Y20060D01*
X5561Y20075D01*
X5543Y20091D01*
X5528Y20108D01*
X5515Y20125D01*
X5504Y20144D01*
X5495Y20164D01*
X5486Y20186D01*
X5479Y20210D01*
X5474Y20236D01*
X5470Y20264D01*
X5468Y20294D01*
X5467Y20325D01*
X5467Y20584D01*
X5467Y20584D01*
X5552Y19435D02*
X5467Y19435D01*
X5467Y19908D01*
X5483Y19908D01*
X5498Y19906D01*
X5513Y19903D01*
X5528Y19898D01*
X5552Y19888D01*
X5576Y19875D01*
X5600Y19859D01*
X5623Y19840D01*
X5648Y19818D01*
X5674Y19792D01*
X5702Y19761D01*
X5732Y19725D01*
X5777Y19672D01*
X5818Y19627D01*
X5853Y19593D01*
X5883Y19568D01*
X5911Y19550D01*
X5938Y19537D01*
X5964Y19529D01*
X5989Y19527D01*
X6014Y19529D01*
X6037Y19536D01*
X6058Y19548D01*
X6077Y19564D01*
X6093Y19584D01*
X6104Y19607D01*
X6111Y19633D01*
X6113Y19661D01*
X6111Y19691D01*
X6104Y19718D01*
X6092Y19742D01*
X6075Y19763D01*
X6054Y19780D01*
X6030Y19792D01*
X6002Y19799D01*
X5970Y19801D01*
X5979Y19892D01*
X6026Y19884D01*
X6068Y19870D01*
X6103Y19849D01*
X6133Y19822D01*
X6156Y19789D01*
X6173Y19751D01*
X6183Y19708D01*
X6186Y19659D01*
X6182Y19611D01*
X6172Y19567D01*
X6154Y19529D01*
X6129Y19496D01*
X6099Y19470D01*
X6065Y19451D01*
X6028Y19440D01*
X5987Y19436D01*
X5966Y19437D01*
X5945Y19441D01*
X5924Y19446D01*
X5903Y19454D01*
X5882Y19464D01*
X5860Y19477D01*
X5838Y19493D01*
X5815Y19512D01*
X5790Y19536D01*
X5761Y19566D01*
X5727Y19604D01*
X5689Y19648D01*
X5659Y19684D01*
X5634Y19713D01*
X5614Y19734D01*
X5599Y19749D01*
X5587Y19760D01*
X5576Y19770D01*
X5564Y19779D01*
X5552Y19786D01*
X5552Y19435D01*
X5552Y19435D01*
X5467Y19010D02*
X5467Y19098D01*
X6027Y19098D01*
X6012Y19115D01*
X5997Y19135D01*
X5982Y19157D01*
X5967Y19181D01*
X5953Y19206D01*
X5940Y19230D01*
X5930Y19252D01*
X5921Y19274D01*
X6006Y19274D01*
X6025Y19238D01*
X6045Y19205D01*
X6067Y19173D01*
X6090Y19145D01*
X6115Y19119D01*
X6139Y19098D01*
X6163Y19080D01*
X6186Y19067D01*
X6186Y19010D01*
X5467Y19010D01*
X5467Y19010D01*
G37*
%LNtop silkscreen component 18ae8cbd932e49cf*%
X12664Y20225D02*
X12664Y17225D01*
X14064Y20225D02*
X14064Y17225D01*
G36*
X13110Y16129D02*
X13655Y16129D01*
X13655Y16057D01*
X13385Y16057D01*
X13655Y15786D01*
X13655Y15688D01*
X13434Y15917D01*
X13110Y15678D01*
X13110Y15773D01*
X13386Y15968D01*
X13299Y16057D01*
X13110Y16057D01*
X13110Y16129D01*
X13110Y16129D01*
X14634Y21811D02*
X15350Y21811D01*
X15350Y21716D01*
X14718Y21716D01*
X14718Y21363D01*
X14634Y21363D01*
X14634Y21811D01*
X14634Y21811D01*
X14634Y21249D02*
X15350Y21249D01*
X15350Y20731D01*
X15265Y20731D01*
X15265Y21154D01*
X15046Y21154D01*
X15046Y20758D01*
X14962Y20758D01*
X14962Y21154D01*
X14718Y21154D01*
X14718Y20715D01*
X14634Y20715D01*
X14634Y21249D01*
X14634Y21249D01*
X14634Y20584D02*
X15350Y20584D01*
X15350Y20339D01*
X15265Y20339D01*
X15265Y20489D01*
X14718Y20489D01*
X14718Y20489D01*
X14718Y20336D01*
X14719Y20303D01*
X14722Y20273D01*
X14726Y20247D01*
X14732Y20225D01*
X14739Y20206D01*
X14747Y20189D01*
X14757Y20174D01*
X14769Y20161D01*
X14787Y20145D01*
X14808Y20131D01*
X14832Y20119D01*
X14859Y20108D01*
X14889Y20100D01*
X14922Y20094D01*
X14958Y20091D01*
X14997Y20090D01*
X15050Y20092D01*
X15096Y20099D01*
X15136Y20110D01*
X15170Y20126D01*
X15197Y20146D01*
X15220Y20167D01*
X15238Y20191D01*
X15251Y20216D01*
X15257Y20238D01*
X15262Y20266D01*
X15264Y20299D01*
X15265Y20339D01*
X15350Y20339D01*
X15350Y20337D01*
X15349Y20298D01*
X15347Y20263D01*
X15344Y20234D01*
X15339Y20210D01*
X15331Y20180D01*
X15320Y20153D01*
X15305Y20128D01*
X15288Y20105D01*
X15263Y20078D01*
X15234Y20055D01*
X15201Y20036D01*
X15166Y20020D01*
X15127Y20008D01*
X15086Y19999D01*
X15042Y19994D01*
X14996Y19992D01*
X14956Y19993D01*
X14919Y19997D01*
X14884Y20003D01*
X14851Y20011D01*
X14821Y20021D01*
X14794Y20033D01*
X14769Y20046D01*
X14747Y20060D01*
X14727Y20075D01*
X14710Y20091D01*
X14695Y20108D01*
X14682Y20125D01*
X14671Y20144D01*
X14661Y20164D01*
X14653Y20186D01*
X14646Y20210D01*
X14641Y20236D01*
X14637Y20264D01*
X14635Y20294D01*
X14634Y20325D01*
X14634Y20584D01*
X14634Y20584D01*
X14718Y19435D02*
X14634Y19435D01*
X14634Y19908D01*
X14650Y19908D01*
X14665Y19906D01*
X14680Y19903D01*
X14695Y19898D01*
X14719Y19888D01*
X14743Y19875D01*
X14767Y19859D01*
X14790Y19840D01*
X14814Y19818D01*
X14841Y19792D01*
X14869Y19761D01*
X14899Y19725D01*
X14944Y19672D01*
X14984Y19627D01*
X15020Y19593D01*
X15050Y19568D01*
X15078Y19550D01*
X15105Y19537D01*
X15131Y19529D01*
X15156Y19527D01*
X15181Y19529D01*
X15204Y19536D01*
X15225Y19548D01*
X15244Y19564D01*
X15260Y19584D01*
X15271Y19607D01*
X15278Y19633D01*
X15280Y19661D01*
X15278Y19691D01*
X15270Y19718D01*
X15258Y19742D01*
X15242Y19763D01*
X15221Y19780D01*
X15196Y19792D01*
X15168Y19799D01*
X15136Y19801D01*
X15146Y19892D01*
X15193Y19884D01*
X15235Y19870D01*
X15270Y19849D01*
X15300Y19822D01*
X15323Y19789D01*
X15339Y19751D01*
X15349Y19708D01*
X15353Y19659D01*
X15349Y19611D01*
X15338Y19567D01*
X15321Y19529D01*
X15296Y19496D01*
X15265Y19470D01*
X15232Y19451D01*
X15194Y19440D01*
X15154Y19436D01*
X15133Y19437D01*
X15111Y19441D01*
X15090Y19446D01*
X15069Y19454D01*
X15048Y19464D01*
X15027Y19477D01*
X15005Y19493D01*
X14982Y19512D01*
X14957Y19536D01*
X14928Y19566D01*
X14894Y19604D01*
X14856Y19648D01*
X14826Y19684D01*
X14800Y19713D01*
X14780Y19734D01*
X14766Y19749D01*
X14754Y19760D01*
X14742Y19770D01*
X14730Y19779D01*
X14718Y19786D01*
X14718Y19435D01*
X14718Y19435D01*
X14823Y19341D02*
X14835Y19253D01*
X14800Y19244D01*
X14770Y19232D01*
X14746Y19218D01*
X14727Y19201D01*
X14712Y19182D01*
X14702Y19161D01*
X14696Y19138D01*
X14694Y19112D01*
X14697Y19083D01*
X14705Y19055D01*
X14718Y19030D01*
X14737Y19008D01*
X14760Y18989D01*
X14785Y18976D01*
X14813Y18968D01*
X14843Y18965D01*
X14872Y18967D01*
X14899Y18975D01*
X14922Y18987D01*
X14943Y19005D01*
X14960Y19026D01*
X14973Y19049D01*
X14980Y19076D01*
X14983Y19105D01*
X14982Y19118D01*
X14980Y19133D01*
X14977Y19149D01*
X14973Y19167D01*
X15050Y19157D01*
X15049Y19153D01*
X15049Y19149D01*
X15049Y19146D01*
X15049Y19143D01*
X15051Y19116D01*
X15056Y19090D01*
X15065Y19065D01*
X15078Y19042D01*
X15095Y19023D01*
X15115Y19008D01*
X15140Y19000D01*
X15169Y18997D01*
X15192Y18999D01*
X15213Y19005D01*
X15232Y19016D01*
X15249Y19030D01*
X15263Y19048D01*
X15272Y19067D01*
X15278Y19090D01*
X15280Y19114D01*
X15278Y19139D01*
X15272Y19161D01*
X15262Y19182D01*
X15248Y19200D01*
X15230Y19215D01*
X15208Y19228D01*
X15182Y19237D01*
X15151Y19244D01*
X15167Y19332D01*
X15209Y19321D01*
X15246Y19305D01*
X15277Y19284D01*
X15304Y19258D01*
X15325Y19228D01*
X15340Y19194D01*
X15350Y19157D01*
X15353Y19116D01*
X15351Y19088D01*
X15346Y19060D01*
X15338Y19034D01*
X15327Y19008D01*
X15314Y18985D01*
X15298Y18965D01*
X15279Y18948D01*
X15259Y18933D01*
X15237Y18922D01*
X15214Y18913D01*
X15191Y18909D01*
X15167Y18907D01*
X15144Y18908D01*
X15122Y18913D01*
X15102Y18921D01*
X15082Y18932D01*
X15064Y18946D01*
X15048Y18963D01*
X15034Y18983D01*
X15022Y19006D01*
X15012Y18976D01*
X14999Y18949D01*
X14982Y18926D01*
X14961Y18907D01*
X14936Y18892D01*
X14909Y18881D01*
X14879Y18874D01*
X14845Y18872D01*
X14800Y18876D01*
X14759Y18889D01*
X14721Y18910D01*
X14686Y18940D01*
X14658Y18977D01*
X14637Y19018D01*
X14625Y19063D01*
X14621Y19113D01*
X14625Y19158D01*
X14635Y19199D01*
X14653Y19236D01*
X14677Y19269D01*
X14707Y19297D01*
X14742Y19318D01*
X14780Y19333D01*
X14823Y19341D01*
X14823Y19341D01*
G37*
%LNtop silkscreen component 0aded2140b9cfb25*%
X30997Y20225D02*
X30997Y17225D01*
X32397Y20225D02*
X32397Y17225D01*
G36*
X31443Y16129D02*
X31989Y16129D01*
X31989Y16057D01*
X31718Y16057D01*
X31989Y15786D01*
X31989Y15688D01*
X31768Y15917D01*
X31443Y15678D01*
X31443Y15773D01*
X31719Y15968D01*
X31632Y16057D01*
X31443Y16057D01*
X31443Y16129D01*
X31443Y16129D01*
X32967Y21811D02*
X33683Y21811D01*
X33683Y21716D01*
X33052Y21716D01*
X33052Y21363D01*
X32967Y21363D01*
X32967Y21811D01*
X32967Y21811D01*
X32967Y21249D02*
X33683Y21249D01*
X33683Y20731D01*
X33599Y20731D01*
X33599Y21154D01*
X33379Y21154D01*
X33379Y20758D01*
X33295Y20758D01*
X33295Y21154D01*
X33052Y21154D01*
X33052Y20715D01*
X32967Y20715D01*
X32967Y21249D01*
X32967Y21249D01*
X32967Y20584D02*
X33683Y20584D01*
X33683Y20339D01*
X33599Y20339D01*
X33599Y20489D01*
X33052Y20489D01*
X33052Y20489D01*
X33052Y20336D01*
X33053Y20303D01*
X33055Y20273D01*
X33059Y20247D01*
X33065Y20225D01*
X33072Y20206D01*
X33081Y20189D01*
X33091Y20174D01*
X33102Y20161D01*
X33120Y20145D01*
X33141Y20131D01*
X33166Y20119D01*
X33193Y20108D01*
X33223Y20100D01*
X33255Y20094D01*
X33291Y20091D01*
X33331Y20090D01*
X33383Y20092D01*
X33430Y20099D01*
X33470Y20110D01*
X33503Y20126D01*
X33531Y20146D01*
X33553Y20167D01*
X33571Y20191D01*
X33584Y20216D01*
X33590Y20238D01*
X33595Y20266D01*
X33598Y20299D01*
X33599Y20339D01*
X33683Y20339D01*
X33683Y20337D01*
X33682Y20298D01*
X33680Y20263D01*
X33677Y20234D01*
X33673Y20210D01*
X33664Y20180D01*
X33653Y20153D01*
X33639Y20128D01*
X33622Y20105D01*
X33596Y20078D01*
X33567Y20055D01*
X33535Y20036D01*
X33499Y20020D01*
X33461Y20008D01*
X33419Y19999D01*
X33376Y19994D01*
X33329Y19992D01*
X33289Y19993D01*
X33252Y19997D01*
X33217Y20003D01*
X33185Y20011D01*
X33154Y20021D01*
X33127Y20033D01*
X33102Y20046D01*
X33080Y20060D01*
X33061Y20075D01*
X33043Y20091D01*
X33028Y20108D01*
X33015Y20125D01*
X33004Y20144D01*
X32995Y20164D01*
X32986Y20186D01*
X32979Y20210D01*
X32974Y20236D01*
X32970Y20264D01*
X32968Y20294D01*
X32967Y20325D01*
X32967Y20584D01*
X32967Y20584D01*
X33052Y19435D02*
X32967Y19435D01*
X32967Y19908D01*
X32983Y19908D01*
X32998Y19906D01*
X33013Y19903D01*
X33028Y19898D01*
X33052Y19888D01*
X33076Y19875D01*
X33100Y19859D01*
X33123Y19840D01*
X33148Y19818D01*
X33174Y19792D01*
X33202Y19761D01*
X33232Y19725D01*
X33277Y19672D01*
X33318Y19627D01*
X33353Y19593D01*
X33383Y19568D01*
X33411Y19550D01*
X33438Y19537D01*
X33464Y19529D01*
X33489Y19527D01*
X33514Y19529D01*
X33537Y19536D01*
X33558Y19548D01*
X33577Y19564D01*
X33593Y19584D01*
X33604Y19607D01*
X33611Y19633D01*
X33613Y19661D01*
X33611Y19691D01*
X33604Y19718D01*
X33592Y19742D01*
X33575Y19763D01*
X33554Y19780D01*
X33530Y19792D01*
X33502Y19799D01*
X33470Y19801D01*
X33479Y19892D01*
X33526Y19884D01*
X33568Y19870D01*
X33603Y19849D01*
X33633Y19822D01*
X33656Y19789D01*
X33673Y19751D01*
X33683Y19708D01*
X33686Y19659D01*
X33682Y19611D01*
X33672Y19567D01*
X33654Y19529D01*
X33629Y19496D01*
X33599Y19470D01*
X33565Y19451D01*
X33528Y19440D01*
X33487Y19436D01*
X33466Y19437D01*
X33445Y19441D01*
X33424Y19446D01*
X33403Y19454D01*
X33382Y19464D01*
X33360Y19477D01*
X33338Y19493D01*
X33315Y19512D01*
X33290Y19536D01*
X33261Y19566D01*
X33227Y19604D01*
X33189Y19648D01*
X33159Y19684D01*
X33134Y19713D01*
X33114Y19734D01*
X33099Y19749D01*
X33087Y19760D01*
X33076Y19770D01*
X33064Y19779D01*
X33052Y19786D01*
X33052Y19435D01*
X33052Y19435D01*
X33589Y19335D02*
X33674Y19335D01*
X33674Y18872D01*
X33605Y18872D01*
X33566Y18906D01*
X33521Y18940D01*
X33469Y18974D01*
X33412Y19007D01*
X33351Y19039D01*
X33290Y19067D01*
X33227Y19091D01*
X33164Y19111D01*
X33118Y19123D01*
X33070Y19133D01*
X33020Y19140D01*
X32967Y19145D01*
X32967Y19235D01*
X33012Y19232D01*
X33060Y19226D01*
X33114Y19216D01*
X33171Y19202D01*
X33231Y19184D01*
X33289Y19163D01*
X33346Y19139D01*
X33402Y19111D01*
X33455Y19081D01*
X33504Y19050D01*
X33549Y19018D01*
X33589Y18985D01*
X33589Y19335D01*
X33589Y19335D01*
G37*
%LNtop silkscreen component e87c228dd111c435*%
X8081Y34900D02*
X8081Y31900D01*
X9481Y34900D02*
X9481Y31900D01*
G36*
X8527Y30804D02*
X9072Y30804D01*
X9072Y30732D01*
X8802Y30732D01*
X9072Y30461D01*
X9072Y30363D01*
X8851Y30592D01*
X8527Y30353D01*
X8527Y30448D01*
X8803Y30643D01*
X8716Y30732D01*
X8527Y30732D01*
X8527Y30804D01*
X8527Y30804D01*
X10051Y36486D02*
X10766Y36486D01*
X10766Y36391D01*
X10135Y36391D01*
X10135Y36038D01*
X10051Y36038D01*
X10051Y36486D01*
X10051Y36486D01*
X10051Y35924D02*
X10766Y35924D01*
X10766Y35406D01*
X10682Y35406D01*
X10682Y35829D01*
X10463Y35829D01*
X10463Y35433D01*
X10379Y35433D01*
X10379Y35829D01*
X10135Y35829D01*
X10135Y35390D01*
X10051Y35390D01*
X10051Y35924D01*
X10051Y35924D01*
X10051Y35259D02*
X10766Y35259D01*
X10766Y35014D01*
X10682Y35014D01*
X10682Y35164D01*
X10135Y35164D01*
X10135Y35164D01*
X10135Y35011D01*
X10136Y34978D01*
X10138Y34948D01*
X10142Y34922D01*
X10148Y34900D01*
X10155Y34881D01*
X10164Y34864D01*
X10174Y34849D01*
X10185Y34836D01*
X10204Y34820D01*
X10225Y34806D01*
X10249Y34794D01*
X10276Y34783D01*
X10306Y34775D01*
X10339Y34769D01*
X10375Y34766D01*
X10414Y34765D01*
X10467Y34767D01*
X10513Y34774D01*
X10553Y34785D01*
X10586Y34801D01*
X10614Y34821D01*
X10637Y34842D01*
X10655Y34866D01*
X10667Y34891D01*
X10674Y34913D01*
X10678Y34941D01*
X10681Y34974D01*
X10682Y35014D01*
X10766Y35014D01*
X10766Y35012D01*
X10766Y34973D01*
X10764Y34938D01*
X10761Y34909D01*
X10756Y34885D01*
X10748Y34855D01*
X10736Y34828D01*
X10722Y34803D01*
X10705Y34780D01*
X10679Y34753D01*
X10650Y34730D01*
X10618Y34711D01*
X10583Y34695D01*
X10544Y34683D01*
X10503Y34674D01*
X10459Y34669D01*
X10412Y34667D01*
X10373Y34668D01*
X10335Y34672D01*
X10300Y34678D01*
X10268Y34686D01*
X10238Y34696D01*
X10210Y34708D01*
X10186Y34721D01*
X10164Y34735D01*
X10144Y34750D01*
X10127Y34766D01*
X10112Y34783D01*
X10099Y34800D01*
X10088Y34819D01*
X10078Y34839D01*
X10070Y34861D01*
X10063Y34885D01*
X10057Y34911D01*
X10054Y34939D01*
X10051Y34969D01*
X10051Y35000D01*
X10051Y35259D01*
X10051Y35259D01*
X10135Y34110D02*
X10051Y34110D01*
X10051Y34583D01*
X10066Y34583D01*
X10082Y34581D01*
X10097Y34578D01*
X10112Y34573D01*
X10136Y34563D01*
X10160Y34550D01*
X10183Y34534D01*
X10207Y34515D01*
X10231Y34493D01*
X10257Y34467D01*
X10285Y34436D01*
X10315Y34400D01*
X10361Y34347D01*
X10401Y34302D01*
X10436Y34268D01*
X10467Y34243D01*
X10494Y34225D01*
X10521Y34212D01*
X10547Y34204D01*
X10573Y34202D01*
X10598Y34204D01*
X10621Y34211D01*
X10642Y34223D01*
X10661Y34239D01*
X10676Y34259D01*
X10688Y34282D01*
X10694Y34308D01*
X10697Y34336D01*
X10694Y34366D01*
X10687Y34393D01*
X10675Y34417D01*
X10658Y34438D01*
X10638Y34455D01*
X10613Y34467D01*
X10585Y34474D01*
X10553Y34476D01*
X10562Y34567D01*
X10610Y34559D01*
X10651Y34545D01*
X10687Y34524D01*
X10716Y34497D01*
X10740Y34464D01*
X10756Y34426D01*
X10766Y34383D01*
X10769Y34334D01*
X10766Y34286D01*
X10755Y34242D01*
X10737Y34204D01*
X10712Y34171D01*
X10682Y34145D01*
X10648Y34126D01*
X10611Y34115D01*
X10571Y34111D01*
X10549Y34112D01*
X10528Y34116D01*
X10507Y34121D01*
X10486Y34129D01*
X10465Y34139D01*
X10444Y34152D01*
X10421Y34168D01*
X10399Y34187D01*
X10374Y34211D01*
X10344Y34241D01*
X10311Y34279D01*
X10273Y34323D01*
X10242Y34359D01*
X10217Y34388D01*
X10197Y34409D01*
X10183Y34424D01*
X10171Y34435D01*
X10159Y34445D01*
X10147Y34453D01*
X10135Y34461D01*
X10135Y34110D01*
X10135Y34110D01*
G37*
%LNtop silkscreen component 76dc57f52eff33a9*%
X40164Y20225D02*
X40164Y17225D01*
X41564Y20225D02*
X41564Y17225D01*
G36*
X40610Y16129D02*
X41155Y16129D01*
X41155Y16057D01*
X40885Y16057D01*
X41155Y15786D01*
X41155Y15688D01*
X40934Y15917D01*
X40610Y15678D01*
X40610Y15773D01*
X40886Y15968D01*
X40799Y16057D01*
X40610Y16057D01*
X40610Y16129D01*
X40610Y16129D01*
X42134Y21811D02*
X42850Y21811D01*
X42850Y21716D01*
X42218Y21716D01*
X42218Y21363D01*
X42134Y21363D01*
X42134Y21811D01*
X42134Y21811D01*
X42134Y21249D02*
X42850Y21249D01*
X42850Y20731D01*
X42765Y20731D01*
X42765Y21154D01*
X42546Y21154D01*
X42546Y20758D01*
X42462Y20758D01*
X42462Y21154D01*
X42218Y21154D01*
X42218Y20715D01*
X42134Y20715D01*
X42134Y21249D01*
X42134Y21249D01*
X42134Y20584D02*
X42850Y20584D01*
X42850Y20339D01*
X42765Y20339D01*
X42765Y20489D01*
X42218Y20489D01*
X42218Y20489D01*
X42218Y20336D01*
X42219Y20303D01*
X42222Y20273D01*
X42226Y20247D01*
X42232Y20225D01*
X42239Y20206D01*
X42247Y20189D01*
X42257Y20174D01*
X42269Y20161D01*
X42287Y20145D01*
X42308Y20131D01*
X42332Y20119D01*
X42359Y20108D01*
X42389Y20100D01*
X42422Y20094D01*
X42458Y20091D01*
X42497Y20090D01*
X42550Y20092D01*
X42596Y20099D01*
X42636Y20110D01*
X42670Y20126D01*
X42697Y20146D01*
X42720Y20167D01*
X42738Y20191D01*
X42751Y20216D01*
X42757Y20238D01*
X42762Y20266D01*
X42764Y20299D01*
X42765Y20339D01*
X42850Y20339D01*
X42850Y20337D01*
X42849Y20298D01*
X42847Y20263D01*
X42844Y20234D01*
X42839Y20210D01*
X42831Y20180D01*
X42820Y20153D01*
X42805Y20128D01*
X42788Y20105D01*
X42763Y20078D01*
X42734Y20055D01*
X42701Y20036D01*
X42666Y20020D01*
X42627Y20008D01*
X42586Y19999D01*
X42542Y19994D01*
X42496Y19992D01*
X42456Y19993D01*
X42419Y19997D01*
X42384Y20003D01*
X42351Y20011D01*
X42321Y20021D01*
X42294Y20033D01*
X42269Y20046D01*
X42247Y20060D01*
X42227Y20075D01*
X42210Y20091D01*
X42195Y20108D01*
X42182Y20125D01*
X42171Y20144D01*
X42161Y20164D01*
X42153Y20186D01*
X42146Y20210D01*
X42141Y20236D01*
X42137Y20264D01*
X42135Y20294D01*
X42134Y20325D01*
X42134Y20584D01*
X42134Y20584D01*
X42218Y19435D02*
X42134Y19435D01*
X42134Y19908D01*
X42150Y19908D01*
X42165Y19906D01*
X42180Y19903D01*
X42195Y19898D01*
X42219Y19888D01*
X42243Y19875D01*
X42267Y19859D01*
X42290Y19840D01*
X42314Y19818D01*
X42341Y19792D01*
X42369Y19761D01*
X42399Y19725D01*
X42444Y19672D01*
X42484Y19627D01*
X42520Y19593D01*
X42550Y19568D01*
X42578Y19550D01*
X42605Y19537D01*
X42631Y19529D01*
X42656Y19527D01*
X42681Y19529D01*
X42704Y19536D01*
X42725Y19548D01*
X42744Y19564D01*
X42760Y19584D01*
X42771Y19607D01*
X42778Y19633D01*
X42780Y19661D01*
X42778Y19691D01*
X42770Y19718D01*
X42758Y19742D01*
X42742Y19763D01*
X42721Y19780D01*
X42696Y19792D01*
X42668Y19799D01*
X42636Y19801D01*
X42646Y19892D01*
X42693Y19884D01*
X42735Y19870D01*
X42770Y19849D01*
X42800Y19822D01*
X42823Y19789D01*
X42839Y19751D01*
X42849Y19708D01*
X42853Y19659D01*
X42849Y19611D01*
X42838Y19567D01*
X42821Y19529D01*
X42796Y19496D01*
X42765Y19470D01*
X42732Y19451D01*
X42694Y19440D01*
X42654Y19436D01*
X42633Y19437D01*
X42611Y19441D01*
X42590Y19446D01*
X42569Y19454D01*
X42548Y19464D01*
X42527Y19477D01*
X42505Y19493D01*
X42482Y19512D01*
X42457Y19536D01*
X42428Y19566D01*
X42394Y19604D01*
X42356Y19648D01*
X42326Y19684D01*
X42300Y19713D01*
X42280Y19734D01*
X42266Y19749D01*
X42254Y19760D01*
X42242Y19770D01*
X42230Y19779D01*
X42218Y19786D01*
X42218Y19435D01*
X42218Y19435D01*
X42299Y19328D02*
X42307Y19243D01*
X42279Y19237D01*
X42256Y19228D01*
X42236Y19216D01*
X42221Y19202D01*
X42209Y19186D01*
X42201Y19168D01*
X42196Y19147D01*
X42194Y19125D01*
X42195Y19105D01*
X42199Y19087D01*
X42204Y19070D01*
X42213Y19054D01*
X42223Y19039D01*
X42234Y19026D01*
X42247Y19014D01*
X42262Y19004D01*
X42279Y18994D01*
X42299Y18986D01*
X42321Y18978D01*
X42346Y18971D01*
X42372Y18965D01*
X42399Y18961D01*
X42426Y18959D01*
X42453Y18958D01*
X42457Y18958D01*
X42461Y18958D01*
X42465Y18958D01*
X42471Y18958D01*
X42503Y19003D01*
X42520Y18990D01*
X42548Y18978D01*
X42580Y18970D01*
X42615Y18968D01*
X42615Y18968D01*
X42651Y18970D01*
X42683Y18978D01*
X42711Y18991D01*
X42735Y19008D01*
X42755Y19029D01*
X42769Y19053D01*
X42777Y19078D01*
X42780Y19105D01*
X42777Y19134D01*
X42768Y19160D01*
X42753Y19185D01*
X42732Y19207D01*
X42706Y19226D01*
X42677Y19240D01*
X42644Y19248D01*
X42608Y19251D01*
X42575Y19248D01*
X42546Y19240D01*
X42520Y19227D01*
X42497Y19209D01*
X42478Y19188D01*
X42465Y19163D01*
X42457Y19137D01*
X42454Y19108D01*
X42457Y19078D01*
X42465Y19052D01*
X42478Y19028D01*
X42497Y19007D01*
X42503Y19003D01*
X42471Y18958D01*
X42451Y18973D01*
X42433Y18989D01*
X42417Y19009D01*
X42403Y19030D01*
X42391Y19054D01*
X42383Y19078D01*
X42378Y19103D01*
X42377Y19129D01*
X42381Y19172D01*
X42393Y19211D01*
X42413Y19247D01*
X42441Y19279D01*
X42476Y19306D01*
X42516Y19326D01*
X42561Y19337D01*
X42611Y19341D01*
X42663Y19337D01*
X42709Y19325D01*
X42750Y19305D01*
X42786Y19277D01*
X42815Y19243D01*
X42836Y19204D01*
X42848Y19162D01*
X42853Y19116D01*
X42850Y19082D01*
X42843Y19049D01*
X42831Y19018D01*
X42815Y18988D01*
X42794Y18961D01*
X42769Y18937D01*
X42741Y18917D01*
X42708Y18900D01*
X42669Y18887D01*
X42623Y18878D01*
X42568Y18872D01*
X42506Y18870D01*
X42441Y18872D01*
X42383Y18878D01*
X42332Y18887D01*
X42288Y18900D01*
X42250Y18917D01*
X42216Y18937D01*
X42188Y18961D01*
X42164Y18989D01*
X42146Y19019D01*
X42132Y19053D01*
X42124Y19088D01*
X42122Y19127D01*
X42125Y19167D01*
X42133Y19203D01*
X42148Y19235D01*
X42168Y19264D01*
X42194Y19288D01*
X42224Y19306D01*
X42260Y19320D01*
X42299Y19328D01*
X42299Y19328D01*
G37*
%LNtop silkscreen component 3eba9d942e51c6cb*%
X21831Y26830D02*
X21831Y23830D01*
X23231Y26830D02*
X23231Y23830D01*
G36*
X22277Y22734D02*
X22822Y22734D01*
X22822Y22662D01*
X22552Y22662D01*
X22822Y22391D01*
X22822Y22293D01*
X22601Y22522D01*
X22277Y22283D01*
X22277Y22378D01*
X22553Y22573D01*
X22466Y22662D01*
X22277Y22662D01*
X22277Y22734D01*
X22277Y22734D01*
X23801Y28416D02*
X24516Y28416D01*
X24516Y28321D01*
X23885Y28321D01*
X23885Y27968D01*
X23801Y27968D01*
X23801Y28416D01*
X23801Y28416D01*
X23801Y27854D02*
X24516Y27854D01*
X24516Y27336D01*
X24432Y27336D01*
X24432Y27759D01*
X24213Y27759D01*
X24213Y27363D01*
X24129Y27363D01*
X24129Y27759D01*
X23885Y27759D01*
X23885Y27320D01*
X23801Y27320D01*
X23801Y27854D01*
X23801Y27854D01*
X23801Y27189D02*
X24516Y27189D01*
X24516Y26944D01*
X24432Y26944D01*
X24432Y27094D01*
X23885Y27094D01*
X23885Y27094D01*
X23885Y26941D01*
X23886Y26908D01*
X23888Y26878D01*
X23892Y26852D01*
X23898Y26830D01*
X23905Y26811D01*
X23914Y26794D01*
X23924Y26779D01*
X23935Y26766D01*
X23954Y26750D01*
X23975Y26736D01*
X23999Y26724D01*
X24026Y26713D01*
X24056Y26705D01*
X24089Y26699D01*
X24125Y26696D01*
X24164Y26695D01*
X24217Y26697D01*
X24263Y26704D01*
X24303Y26715D01*
X24336Y26731D01*
X24364Y26751D01*
X24387Y26772D01*
X24405Y26796D01*
X24417Y26821D01*
X24424Y26843D01*
X24428Y26871D01*
X24431Y26904D01*
X24432Y26944D01*
X24516Y26944D01*
X24516Y26942D01*
X24516Y26903D01*
X24514Y26868D01*
X24511Y26839D01*
X24506Y26815D01*
X24498Y26785D01*
X24486Y26758D01*
X24472Y26733D01*
X24455Y26710D01*
X24429Y26683D01*
X24400Y26660D01*
X24368Y26641D01*
X24333Y26625D01*
X24294Y26613D01*
X24253Y26604D01*
X24209Y26599D01*
X24162Y26597D01*
X24123Y26598D01*
X24085Y26602D01*
X24050Y26608D01*
X24018Y26616D01*
X23988Y26626D01*
X23960Y26638D01*
X23936Y26651D01*
X23914Y26665D01*
X23894Y26680D01*
X23877Y26696D01*
X23862Y26713D01*
X23849Y26730D01*
X23838Y26749D01*
X23828Y26769D01*
X23820Y26791D01*
X23813Y26815D01*
X23807Y26841D01*
X23804Y26869D01*
X23801Y26899D01*
X23801Y26930D01*
X23801Y27189D01*
X23801Y27189D01*
X23801Y26171D02*
X23801Y26259D01*
X24361Y26259D01*
X24345Y26276D01*
X24330Y26296D01*
X24315Y26318D01*
X24300Y26342D01*
X24286Y26367D01*
X24274Y26391D01*
X24263Y26414D01*
X24255Y26435D01*
X24340Y26435D01*
X24358Y26399D01*
X24378Y26366D01*
X24400Y26335D01*
X24424Y26306D01*
X24448Y26280D01*
X24472Y26259D01*
X24496Y26241D01*
X24519Y26228D01*
X24519Y26171D01*
X23801Y26171D01*
X23801Y26171D01*
X23988Y25946D02*
X23996Y25854D01*
X23964Y25847D01*
X23937Y25837D01*
X23914Y25823D01*
X23895Y25806D01*
X23880Y25786D01*
X23869Y25765D01*
X23863Y25741D01*
X23861Y25716D01*
X23864Y25685D01*
X23873Y25657D01*
X23888Y25632D01*
X23908Y25609D01*
X23934Y25589D01*
X23964Y25576D01*
X23998Y25567D01*
X24035Y25565D01*
X24071Y25567D01*
X24103Y25575D01*
X24130Y25588D01*
X24154Y25607D01*
X24173Y25630D01*
X24187Y25656D01*
X24195Y25685D01*
X24198Y25717D01*
X24196Y25738D01*
X24193Y25758D01*
X24187Y25777D01*
X24178Y25794D01*
X24168Y25810D01*
X24156Y25825D01*
X24143Y25837D01*
X24128Y25848D01*
X24139Y25930D01*
X24507Y25861D01*
X24507Y25505D01*
X24423Y25505D01*
X24423Y25791D01*
X24230Y25829D01*
X24250Y25797D01*
X24264Y25763D01*
X24272Y25729D01*
X24275Y25694D01*
X24271Y25649D01*
X24259Y25608D01*
X24239Y25570D01*
X24210Y25536D01*
X24175Y25508D01*
X24136Y25487D01*
X24092Y25475D01*
X24043Y25471D01*
X23996Y25475D01*
X23953Y25486D01*
X23912Y25503D01*
X23875Y25528D01*
X23837Y25566D01*
X23810Y25609D01*
X23794Y25660D01*
X23788Y25716D01*
X23792Y25763D01*
X23802Y25805D01*
X23819Y25842D01*
X23843Y25875D01*
X23873Y25903D01*
X23907Y25924D01*
X23945Y25938D01*
X23988Y25946D01*
X23988Y25946D01*
G37*
%LNtop silkscreen component 9ec9439801b11cfa*%
X44747Y26830D02*
X44747Y23830D01*
X46147Y26830D02*
X46147Y23830D01*
G36*
X45193Y22734D02*
X45739Y22734D01*
X45739Y22662D01*
X45468Y22662D01*
X45739Y22391D01*
X45739Y22293D01*
X45518Y22522D01*
X45193Y22283D01*
X45193Y22378D01*
X45469Y22573D01*
X45382Y22662D01*
X45193Y22662D01*
X45193Y22734D01*
X45193Y22734D01*
X46717Y28416D02*
X47433Y28416D01*
X47433Y28321D01*
X46802Y28321D01*
X46802Y27968D01*
X46717Y27968D01*
X46717Y28416D01*
X46717Y28416D01*
X46717Y27854D02*
X47433Y27854D01*
X47433Y27336D01*
X47349Y27336D01*
X47349Y27759D01*
X47129Y27759D01*
X47129Y27363D01*
X47045Y27363D01*
X47045Y27759D01*
X46802Y27759D01*
X46802Y27320D01*
X46717Y27320D01*
X46717Y27854D01*
X46717Y27854D01*
X46717Y27189D02*
X47433Y27189D01*
X47433Y26944D01*
X47349Y26944D01*
X47349Y27094D01*
X46802Y27094D01*
X46802Y27094D01*
X46802Y26941D01*
X46803Y26908D01*
X46805Y26878D01*
X46809Y26852D01*
X46815Y26830D01*
X46822Y26811D01*
X46831Y26794D01*
X46841Y26779D01*
X46852Y26766D01*
X46870Y26750D01*
X46891Y26736D01*
X46916Y26724D01*
X46943Y26713D01*
X46973Y26705D01*
X47005Y26699D01*
X47041Y26696D01*
X47081Y26695D01*
X47133Y26697D01*
X47180Y26704D01*
X47220Y26715D01*
X47253Y26731D01*
X47281Y26751D01*
X47303Y26772D01*
X47321Y26796D01*
X47334Y26821D01*
X47340Y26843D01*
X47345Y26871D01*
X47348Y26904D01*
X47349Y26944D01*
X47433Y26944D01*
X47433Y26942D01*
X47432Y26903D01*
X47430Y26868D01*
X47427Y26839D01*
X47423Y26815D01*
X47414Y26785D01*
X47403Y26758D01*
X47389Y26733D01*
X47372Y26710D01*
X47346Y26683D01*
X47317Y26660D01*
X47285Y26641D01*
X47249Y26625D01*
X47211Y26613D01*
X47169Y26604D01*
X47126Y26599D01*
X47079Y26597D01*
X47039Y26598D01*
X47002Y26602D01*
X46967Y26608D01*
X46935Y26616D01*
X46904Y26626D01*
X46877Y26638D01*
X46852Y26651D01*
X46830Y26665D01*
X46811Y26680D01*
X46793Y26696D01*
X46778Y26713D01*
X46765Y26730D01*
X46754Y26749D01*
X46745Y26769D01*
X46736Y26791D01*
X46729Y26815D01*
X46724Y26841D01*
X46720Y26869D01*
X46718Y26899D01*
X46717Y26930D01*
X46717Y27189D01*
X46717Y27189D01*
X46802Y26040D02*
X46717Y26040D01*
X46717Y26513D01*
X46733Y26513D01*
X46748Y26511D01*
X46763Y26508D01*
X46778Y26503D01*
X46802Y26493D01*
X46826Y26480D01*
X46850Y26464D01*
X46873Y26445D01*
X46898Y26423D01*
X46924Y26397D01*
X46952Y26366D01*
X46982Y26330D01*
X47027Y26277D01*
X47068Y26232D01*
X47103Y26198D01*
X47133Y26173D01*
X47161Y26155D01*
X47188Y26142D01*
X47214Y26134D01*
X47239Y26132D01*
X47264Y26134D01*
X47287Y26141D01*
X47308Y26153D01*
X47327Y26169D01*
X47343Y26189D01*
X47354Y26212D01*
X47361Y26238D01*
X47363Y26266D01*
X47361Y26296D01*
X47354Y26323D01*
X47342Y26347D01*
X47325Y26368D01*
X47304Y26385D01*
X47280Y26397D01*
X47252Y26404D01*
X47220Y26406D01*
X47229Y26497D01*
X47276Y26489D01*
X47318Y26475D01*
X47353Y26454D01*
X47383Y26427D01*
X47406Y26394D01*
X47423Y26356D01*
X47433Y26313D01*
X47436Y26264D01*
X47432Y26216D01*
X47422Y26172D01*
X47404Y26134D01*
X47379Y26101D01*
X47349Y26075D01*
X47315Y26056D01*
X47278Y26045D01*
X47237Y26041D01*
X47216Y26042D01*
X47195Y26046D01*
X47174Y26051D01*
X47153Y26059D01*
X47132Y26069D01*
X47110Y26082D01*
X47088Y26098D01*
X47065Y26117D01*
X47040Y26141D01*
X47011Y26171D01*
X46977Y26209D01*
X46939Y26253D01*
X46909Y26289D01*
X46884Y26318D01*
X46864Y26339D01*
X46849Y26354D01*
X46837Y26365D01*
X46826Y26375D01*
X46814Y26384D01*
X46802Y26391D01*
X46802Y26040D01*
X46802Y26040D01*
X47070Y25946D02*
X47131Y25944D01*
X47185Y25939D01*
X47233Y25931D01*
X47275Y25920D01*
X47311Y25905D01*
X47343Y25887D01*
X47371Y25866D01*
X47394Y25842D01*
X47412Y25815D01*
X47425Y25784D01*
X47433Y25750D01*
X47436Y25713D01*
X47435Y25685D01*
X47430Y25659D01*
X47423Y25634D01*
X47413Y25612D01*
X47400Y25591D01*
X47384Y25572D01*
X47366Y25555D01*
X47346Y25540D01*
X47323Y25526D01*
X47297Y25514D01*
X47270Y25504D01*
X47239Y25495D01*
X47205Y25488D01*
X47166Y25483D01*
X47121Y25480D01*
X47070Y25479D01*
X47010Y25481D01*
X46956Y25486D01*
X46909Y25494D01*
X46867Y25505D01*
X46830Y25520D01*
X46798Y25537D01*
X46771Y25558D01*
X46747Y25582D01*
X46729Y25610D01*
X46716Y25641D01*
X46708Y25675D01*
X46705Y25713D01*
X46706Y25719D01*
X46777Y25713D01*
X46781Y25684D01*
X46792Y25657D01*
X46810Y25633D01*
X46836Y25611D01*
X46872Y25593D01*
X46924Y25580D01*
X46990Y25572D01*
X47070Y25570D01*
X47151Y25572D01*
X47217Y25580D01*
X47269Y25593D01*
X47305Y25611D01*
X47331Y25633D01*
X47349Y25657D01*
X47360Y25684D01*
X47363Y25714D01*
X47360Y25742D01*
X47350Y25768D01*
X47334Y25791D01*
X47312Y25810D01*
X47272Y25830D01*
X47219Y25844D01*
X47151Y25853D01*
X47070Y25856D01*
X47070Y25856D01*
X46989Y25853D01*
X46923Y25845D01*
X46872Y25832D01*
X46836Y25814D01*
X46810Y25793D01*
X46792Y25768D01*
X46781Y25742D01*
X46777Y25713D01*
X46706Y25719D01*
X46710Y25762D01*
X46724Y25805D01*
X46747Y25843D01*
X46779Y25875D01*
X46831Y25906D01*
X46897Y25928D01*
X46976Y25942D01*
X47070Y25946D01*
X47070Y25946D01*
G37*
%LNtop silkscreen component 733d94552b139b24*%
X3497Y26830D02*
X3497Y23830D01*
X4897Y26830D02*
X4897Y23830D01*
G36*
X3943Y22734D02*
X4489Y22734D01*
X4489Y22662D01*
X4218Y22662D01*
X4489Y22391D01*
X4489Y22293D01*
X4268Y22522D01*
X3943Y22283D01*
X3943Y22378D01*
X4219Y22573D01*
X4132Y22662D01*
X3943Y22662D01*
X3943Y22734D01*
X3943Y22734D01*
X5467Y28416D02*
X6183Y28416D01*
X6183Y28321D01*
X5552Y28321D01*
X5552Y27968D01*
X5467Y27968D01*
X5467Y28416D01*
X5467Y28416D01*
X5467Y27854D02*
X6183Y27854D01*
X6183Y27336D01*
X6099Y27336D01*
X6099Y27759D01*
X5879Y27759D01*
X5879Y27363D01*
X5795Y27363D01*
X5795Y27759D01*
X5552Y27759D01*
X5552Y27320D01*
X5467Y27320D01*
X5467Y27854D01*
X5467Y27854D01*
X5467Y27189D02*
X6183Y27189D01*
X6183Y26944D01*
X6099Y26944D01*
X6099Y27094D01*
X5552Y27094D01*
X5552Y27094D01*
X5552Y26941D01*
X5553Y26908D01*
X5555Y26878D01*
X5559Y26852D01*
X5565Y26830D01*
X5572Y26811D01*
X5581Y26794D01*
X5591Y26779D01*
X5602Y26766D01*
X5620Y26750D01*
X5641Y26736D01*
X5666Y26724D01*
X5693Y26713D01*
X5723Y26705D01*
X5755Y26699D01*
X5791Y26696D01*
X5831Y26695D01*
X5883Y26697D01*
X5930Y26704D01*
X5970Y26715D01*
X6003Y26731D01*
X6031Y26751D01*
X6053Y26772D01*
X6071Y26796D01*
X6084Y26821D01*
X6090Y26843D01*
X6095Y26871D01*
X6098Y26904D01*
X6099Y26944D01*
X6183Y26944D01*
X6183Y26942D01*
X6182Y26903D01*
X6180Y26868D01*
X6177Y26839D01*
X6173Y26815D01*
X6164Y26785D01*
X6153Y26758D01*
X6139Y26733D01*
X6122Y26710D01*
X6096Y26683D01*
X6067Y26660D01*
X6035Y26641D01*
X5999Y26625D01*
X5961Y26613D01*
X5919Y26604D01*
X5876Y26599D01*
X5829Y26597D01*
X5789Y26598D01*
X5752Y26602D01*
X5717Y26608D01*
X5685Y26616D01*
X5654Y26626D01*
X5627Y26638D01*
X5602Y26651D01*
X5580Y26665D01*
X5561Y26680D01*
X5543Y26696D01*
X5528Y26713D01*
X5515Y26730D01*
X5504Y26749D01*
X5495Y26769D01*
X5486Y26791D01*
X5479Y26815D01*
X5474Y26841D01*
X5470Y26869D01*
X5468Y26899D01*
X5467Y26930D01*
X5467Y27189D01*
X5467Y27189D01*
X5467Y26171D02*
X5467Y26259D01*
X6027Y26259D01*
X6012Y26276D01*
X5997Y26296D01*
X5982Y26318D01*
X5967Y26342D01*
X5953Y26367D01*
X5940Y26391D01*
X5930Y26414D01*
X5921Y26435D01*
X6006Y26435D01*
X6025Y26399D01*
X6045Y26366D01*
X6067Y26335D01*
X6090Y26306D01*
X6115Y26280D01*
X6139Y26259D01*
X6163Y26241D01*
X6186Y26228D01*
X6186Y26171D01*
X5467Y26171D01*
X5467Y26171D01*
X5467Y25689D02*
X5467Y25777D01*
X6027Y25777D01*
X6012Y25794D01*
X5997Y25814D01*
X5982Y25836D01*
X5967Y25860D01*
X5953Y25885D01*
X5940Y25909D01*
X5930Y25932D01*
X5921Y25953D01*
X6006Y25953D01*
X6025Y25917D01*
X6045Y25884D01*
X6067Y25853D01*
X6090Y25824D01*
X6115Y25798D01*
X6139Y25777D01*
X6163Y25759D01*
X6186Y25746D01*
X6186Y25689D01*
X5467Y25689D01*
X5467Y25689D01*
G37*
%LNtop silkscreen component 18887290ca97bcee*%
X17247Y34900D02*
X17247Y31900D01*
X18647Y34900D02*
X18647Y31900D01*
G36*
X17693Y30804D02*
X18239Y30804D01*
X18239Y30732D01*
X17968Y30732D01*
X18239Y30461D01*
X18239Y30363D01*
X18018Y30592D01*
X17693Y30353D01*
X17693Y30448D01*
X17969Y30643D01*
X17882Y30732D01*
X17693Y30732D01*
X17693Y30804D01*
X17693Y30804D01*
X19217Y36486D02*
X19933Y36486D01*
X19933Y36391D01*
X19302Y36391D01*
X19302Y36038D01*
X19217Y36038D01*
X19217Y36486D01*
X19217Y36486D01*
X19217Y35924D02*
X19933Y35924D01*
X19933Y35406D01*
X19849Y35406D01*
X19849Y35829D01*
X19629Y35829D01*
X19629Y35433D01*
X19545Y35433D01*
X19545Y35829D01*
X19302Y35829D01*
X19302Y35390D01*
X19217Y35390D01*
X19217Y35924D01*
X19217Y35924D01*
X19217Y35259D02*
X19933Y35259D01*
X19933Y35014D01*
X19849Y35014D01*
X19849Y35164D01*
X19302Y35164D01*
X19302Y35164D01*
X19302Y35011D01*
X19303Y34978D01*
X19305Y34948D01*
X19309Y34922D01*
X19315Y34900D01*
X19322Y34881D01*
X19331Y34864D01*
X19341Y34849D01*
X19352Y34836D01*
X19370Y34820D01*
X19391Y34806D01*
X19416Y34794D01*
X19443Y34783D01*
X19473Y34775D01*
X19505Y34769D01*
X19541Y34766D01*
X19581Y34765D01*
X19633Y34767D01*
X19680Y34774D01*
X19720Y34785D01*
X19753Y34801D01*
X19781Y34821D01*
X19803Y34842D01*
X19821Y34866D01*
X19834Y34891D01*
X19840Y34913D01*
X19845Y34941D01*
X19848Y34974D01*
X19849Y35014D01*
X19933Y35014D01*
X19933Y35012D01*
X19932Y34973D01*
X19930Y34938D01*
X19927Y34909D01*
X19923Y34885D01*
X19914Y34855D01*
X19903Y34828D01*
X19889Y34803D01*
X19872Y34780D01*
X19846Y34753D01*
X19817Y34730D01*
X19785Y34711D01*
X19749Y34695D01*
X19711Y34683D01*
X19669Y34674D01*
X19626Y34669D01*
X19579Y34667D01*
X19539Y34668D01*
X19502Y34672D01*
X19467Y34678D01*
X19435Y34686D01*
X19404Y34696D01*
X19377Y34708D01*
X19352Y34721D01*
X19330Y34735D01*
X19311Y34750D01*
X19293Y34766D01*
X19278Y34783D01*
X19265Y34800D01*
X19254Y34819D01*
X19245Y34839D01*
X19236Y34861D01*
X19229Y34885D01*
X19224Y34911D01*
X19220Y34939D01*
X19218Y34969D01*
X19217Y35000D01*
X19217Y35259D01*
X19217Y35259D01*
X19217Y34290D02*
X19389Y34290D01*
X19389Y34601D01*
X19469Y34601D01*
X19831Y34346D01*
X19792Y34290D01*
X19469Y34515D01*
X19469Y34290D01*
X19469Y34290D01*
X19792Y34290D01*
X19831Y34346D01*
X19933Y34274D01*
X19933Y34203D01*
X19469Y34203D01*
X19469Y34106D01*
X19389Y34106D01*
X19389Y34203D01*
X19217Y34203D01*
X19217Y34290D01*
X19217Y34290D01*
G37*
%LNtop silkscreen component ee666b82db008739*%
X44747Y20225D02*
X44747Y17225D01*
X46147Y20225D02*
X46147Y17225D01*
G36*
X45193Y16129D02*
X45739Y16129D01*
X45739Y16057D01*
X45468Y16057D01*
X45739Y15786D01*
X45739Y15688D01*
X45518Y15917D01*
X45193Y15678D01*
X45193Y15773D01*
X45469Y15968D01*
X45382Y16057D01*
X45193Y16057D01*
X45193Y16129D01*
X45193Y16129D01*
X46717Y21811D02*
X47433Y21811D01*
X47433Y21716D01*
X46802Y21716D01*
X46802Y21363D01*
X46717Y21363D01*
X46717Y21811D01*
X46717Y21811D01*
X46717Y21249D02*
X47433Y21249D01*
X47433Y20731D01*
X47349Y20731D01*
X47349Y21154D01*
X47129Y21154D01*
X47129Y20758D01*
X47045Y20758D01*
X47045Y21154D01*
X46802Y21154D01*
X46802Y20715D01*
X46717Y20715D01*
X46717Y21249D01*
X46717Y21249D01*
X46717Y20584D02*
X47433Y20584D01*
X47433Y20339D01*
X47349Y20339D01*
X47349Y20489D01*
X46802Y20489D01*
X46802Y20489D01*
X46802Y20336D01*
X46803Y20303D01*
X46805Y20273D01*
X46809Y20247D01*
X46815Y20225D01*
X46822Y20206D01*
X46831Y20189D01*
X46841Y20174D01*
X46852Y20161D01*
X46870Y20145D01*
X46891Y20131D01*
X46916Y20119D01*
X46943Y20108D01*
X46973Y20100D01*
X47005Y20094D01*
X47041Y20091D01*
X47081Y20090D01*
X47133Y20092D01*
X47180Y20099D01*
X47220Y20110D01*
X47253Y20126D01*
X47281Y20146D01*
X47303Y20167D01*
X47321Y20191D01*
X47334Y20216D01*
X47340Y20238D01*
X47345Y20266D01*
X47348Y20299D01*
X47349Y20339D01*
X47433Y20339D01*
X47433Y20337D01*
X47432Y20298D01*
X47430Y20263D01*
X47427Y20234D01*
X47423Y20210D01*
X47414Y20180D01*
X47403Y20153D01*
X47389Y20128D01*
X47372Y20105D01*
X47346Y20078D01*
X47317Y20055D01*
X47285Y20036D01*
X47249Y20020D01*
X47211Y20008D01*
X47169Y19999D01*
X47126Y19994D01*
X47079Y19992D01*
X47039Y19993D01*
X47002Y19997D01*
X46967Y20003D01*
X46935Y20011D01*
X46904Y20021D01*
X46877Y20033D01*
X46852Y20046D01*
X46830Y20060D01*
X46811Y20075D01*
X46793Y20091D01*
X46778Y20108D01*
X46765Y20125D01*
X46754Y20144D01*
X46745Y20164D01*
X46736Y20186D01*
X46729Y20210D01*
X46724Y20236D01*
X46720Y20264D01*
X46718Y20294D01*
X46717Y20325D01*
X46717Y20584D01*
X46717Y20584D01*
X46906Y19897D02*
X46918Y19809D01*
X46883Y19800D01*
X46854Y19788D01*
X46829Y19774D01*
X46810Y19757D01*
X46796Y19738D01*
X46786Y19717D01*
X46779Y19694D01*
X46777Y19669D01*
X46780Y19639D01*
X46788Y19611D01*
X46801Y19586D01*
X46820Y19564D01*
X46843Y19545D01*
X46868Y19532D01*
X46896Y19524D01*
X46927Y19521D01*
X46956Y19524D01*
X46982Y19531D01*
X47006Y19543D01*
X47027Y19561D01*
X47044Y19582D01*
X47056Y19606D01*
X47063Y19632D01*
X47066Y19661D01*
X47065Y19675D01*
X47063Y19689D01*
X47060Y19706D01*
X47056Y19723D01*
X47133Y19714D01*
X47133Y19709D01*
X47133Y19706D01*
X47132Y19702D01*
X47132Y19699D01*
X47134Y19672D01*
X47140Y19646D01*
X47149Y19621D01*
X47162Y19598D01*
X47178Y19579D01*
X47199Y19565D01*
X47223Y19556D01*
X47252Y19553D01*
X47275Y19555D01*
X47296Y19562D01*
X47315Y19572D01*
X47332Y19586D01*
X47346Y19604D01*
X47356Y19624D01*
X47362Y19646D01*
X47364Y19671D01*
X47362Y19695D01*
X47356Y19718D01*
X47346Y19738D01*
X47331Y19756D01*
X47313Y19772D01*
X47291Y19784D01*
X47265Y19794D01*
X47235Y19800D01*
X47250Y19888D01*
X47292Y19877D01*
X47329Y19862D01*
X47361Y19841D01*
X47387Y19815D01*
X47409Y19784D01*
X47424Y19751D01*
X47433Y19713D01*
X47436Y19673D01*
X47434Y19644D01*
X47430Y19616D01*
X47422Y19590D01*
X47411Y19565D01*
X47397Y19541D01*
X47381Y19521D01*
X47363Y19504D01*
X47342Y19489D01*
X47320Y19478D01*
X47297Y19470D01*
X47274Y19465D01*
X47250Y19463D01*
X47227Y19465D01*
X47206Y19469D01*
X47185Y19477D01*
X47165Y19488D01*
X47147Y19502D01*
X47131Y19519D01*
X47117Y19539D01*
X47105Y19562D01*
X47096Y19532D01*
X47082Y19505D01*
X47065Y19482D01*
X47044Y19463D01*
X47020Y19448D01*
X46992Y19437D01*
X46962Y19430D01*
X46929Y19428D01*
X46884Y19432D01*
X46842Y19445D01*
X46804Y19466D01*
X46770Y19496D01*
X46741Y19533D01*
X46721Y19574D01*
X46709Y19619D01*
X46705Y19669D01*
X46708Y19714D01*
X46719Y19755D01*
X46736Y19792D01*
X46761Y19826D01*
X46791Y19853D01*
X46825Y19875D01*
X46864Y19889D01*
X46906Y19897D01*
X46906Y19897D01*
X47070Y19341D02*
X47131Y19339D01*
X47185Y19334D01*
X47233Y19326D01*
X47275Y19315D01*
X47311Y19300D01*
X47343Y19282D01*
X47371Y19261D01*
X47394Y19237D01*
X47412Y19210D01*
X47425Y19179D01*
X47433Y19145D01*
X47436Y19108D01*
X47435Y19080D01*
X47430Y19054D01*
X47423Y19029D01*
X47413Y19007D01*
X47400Y18986D01*
X47384Y18967D01*
X47366Y18950D01*
X47346Y18935D01*
X47323Y18921D01*
X47297Y18909D01*
X47270Y18899D01*
X47239Y18890D01*
X47205Y18883D01*
X47166Y18878D01*
X47121Y18875D01*
X47070Y18874D01*
X47010Y18876D01*
X46956Y18881D01*
X46909Y18889D01*
X46867Y18900D01*
X46830Y18915D01*
X46798Y18932D01*
X46771Y18953D01*
X46747Y18977D01*
X46729Y19005D01*
X46716Y19036D01*
X46708Y19070D01*
X46705Y19108D01*
X46706Y19114D01*
X46777Y19108D01*
X46781Y19079D01*
X46792Y19052D01*
X46810Y19028D01*
X46836Y19006D01*
X46872Y18988D01*
X46924Y18975D01*
X46990Y18967D01*
X47070Y18965D01*
X47151Y18967D01*
X47217Y18975D01*
X47269Y18988D01*
X47305Y19006D01*
X47331Y19028D01*
X47349Y19052D01*
X47360Y19079D01*
X47363Y19109D01*
X47360Y19137D01*
X47350Y19163D01*
X47334Y19186D01*
X47312Y19205D01*
X47272Y19225D01*
X47219Y19239D01*
X47151Y19248D01*
X47070Y19251D01*
X47070Y19251D01*
X46989Y19248D01*
X46923Y19240D01*
X46872Y19227D01*
X46836Y19209D01*
X46810Y19188D01*
X46792Y19163D01*
X46781Y19137D01*
X46777Y19108D01*
X46706Y19114D01*
X46710Y19157D01*
X46724Y19200D01*
X46747Y19238D01*
X46779Y19270D01*
X46831Y19301D01*
X46897Y19323D01*
X46976Y19337D01*
X47070Y19341D01*
X47070Y19341D01*
G37*
%LNtop silkscreen component 730cdaa1f653b3c7*%
X44747Y34900D02*
X44747Y31900D01*
X46147Y34900D02*
X46147Y31900D01*
G36*
X45193Y30804D02*
X45739Y30804D01*
X45739Y30732D01*
X45468Y30732D01*
X45739Y30461D01*
X45739Y30363D01*
X45518Y30592D01*
X45193Y30353D01*
X45193Y30448D01*
X45469Y30643D01*
X45382Y30732D01*
X45193Y30732D01*
X45193Y30804D01*
X45193Y30804D01*
X46717Y36486D02*
X47433Y36486D01*
X47433Y36391D01*
X46802Y36391D01*
X46802Y36038D01*
X46717Y36038D01*
X46717Y36486D01*
X46717Y36486D01*
X46717Y35924D02*
X47433Y35924D01*
X47433Y35406D01*
X47349Y35406D01*
X47349Y35829D01*
X47129Y35829D01*
X47129Y35433D01*
X47045Y35433D01*
X47045Y35829D01*
X46802Y35829D01*
X46802Y35390D01*
X46717Y35390D01*
X46717Y35924D01*
X46717Y35924D01*
X46717Y35259D02*
X47433Y35259D01*
X47433Y35014D01*
X47349Y35014D01*
X47349Y35164D01*
X46802Y35164D01*
X46802Y35164D01*
X46802Y35011D01*
X46803Y34978D01*
X46805Y34948D01*
X46809Y34922D01*
X46815Y34900D01*
X46822Y34881D01*
X46831Y34864D01*
X46841Y34849D01*
X46852Y34836D01*
X46870Y34820D01*
X46891Y34806D01*
X46916Y34794D01*
X46943Y34783D01*
X46973Y34775D01*
X47005Y34769D01*
X47041Y34766D01*
X47081Y34765D01*
X47133Y34767D01*
X47180Y34774D01*
X47220Y34785D01*
X47253Y34801D01*
X47281Y34821D01*
X47303Y34842D01*
X47321Y34866D01*
X47334Y34891D01*
X47340Y34913D01*
X47345Y34941D01*
X47348Y34974D01*
X47349Y35014D01*
X47433Y35014D01*
X47433Y35012D01*
X47432Y34973D01*
X47430Y34938D01*
X47427Y34909D01*
X47423Y34885D01*
X47414Y34855D01*
X47403Y34828D01*
X47389Y34803D01*
X47372Y34780D01*
X47346Y34753D01*
X47317Y34730D01*
X47285Y34711D01*
X47249Y34695D01*
X47211Y34683D01*
X47169Y34674D01*
X47126Y34669D01*
X47079Y34667D01*
X47039Y34668D01*
X47002Y34672D01*
X46967Y34678D01*
X46935Y34686D01*
X46904Y34696D01*
X46877Y34708D01*
X46852Y34721D01*
X46830Y34735D01*
X46811Y34750D01*
X46793Y34766D01*
X46778Y34783D01*
X46765Y34800D01*
X46754Y34819D01*
X46745Y34839D01*
X46736Y34861D01*
X46729Y34885D01*
X46724Y34911D01*
X46720Y34939D01*
X46718Y34969D01*
X46717Y35000D01*
X46717Y35259D01*
X46717Y35259D01*
X46717Y34241D02*
X46717Y34329D01*
X47277Y34329D01*
X47262Y34346D01*
X47247Y34366D01*
X47232Y34388D01*
X47217Y34412D01*
X47203Y34437D01*
X47190Y34461D01*
X47180Y34484D01*
X47171Y34505D01*
X47256Y34505D01*
X47275Y34469D01*
X47295Y34436D01*
X47317Y34405D01*
X47340Y34376D01*
X47365Y34350D01*
X47389Y34329D01*
X47413Y34311D01*
X47436Y34298D01*
X47436Y34241D01*
X46717Y34241D01*
X46717Y34241D01*
X47070Y34016D02*
X47131Y34014D01*
X47185Y34009D01*
X47233Y34001D01*
X47275Y33990D01*
X47311Y33975D01*
X47343Y33957D01*
X47371Y33936D01*
X47394Y33912D01*
X47412Y33885D01*
X47425Y33854D01*
X47433Y33820D01*
X47436Y33783D01*
X47435Y33755D01*
X47430Y33729D01*
X47423Y33704D01*
X47413Y33682D01*
X47400Y33661D01*
X47384Y33642D01*
X47366Y33625D01*
X47346Y33610D01*
X47323Y33596D01*
X47297Y33584D01*
X47270Y33574D01*
X47239Y33565D01*
X47205Y33558D01*
X47166Y33553D01*
X47121Y33550D01*
X47070Y33549D01*
X47010Y33551D01*
X46956Y33556D01*
X46909Y33564D01*
X46867Y33575D01*
X46830Y33590D01*
X46798Y33607D01*
X46771Y33628D01*
X46747Y33652D01*
X46729Y33680D01*
X46716Y33711D01*
X46708Y33745D01*
X46705Y33783D01*
X46706Y33789D01*
X46777Y33783D01*
X46781Y33754D01*
X46792Y33727D01*
X46810Y33703D01*
X46836Y33681D01*
X46872Y33663D01*
X46924Y33650D01*
X46990Y33642D01*
X47070Y33640D01*
X47151Y33642D01*
X47217Y33650D01*
X47269Y33663D01*
X47305Y33681D01*
X47331Y33703D01*
X47349Y33727D01*
X47360Y33754D01*
X47363Y33784D01*
X47360Y33812D01*
X47350Y33838D01*
X47334Y33861D01*
X47312Y33880D01*
X47272Y33900D01*
X47219Y33914D01*
X47151Y33923D01*
X47070Y33926D01*
X47070Y33926D01*
X46989Y33923D01*
X46923Y33915D01*
X46872Y33902D01*
X46836Y33884D01*
X46810Y33863D01*
X46792Y33838D01*
X46781Y33812D01*
X46777Y33783D01*
X46706Y33789D01*
X46710Y33832D01*
X46724Y33875D01*
X46747Y33913D01*
X46779Y33945D01*
X46831Y33976D01*
X46897Y33998D01*
X46976Y34012D01*
X47070Y34016D01*
X47070Y34016D01*
G37*
%LNtop silkscreen component 2eac6afefd26ab07*%
X35581Y20225D02*
X35581Y17225D01*
X36981Y20225D02*
X36981Y17225D01*
G36*
X36027Y16129D02*
X36572Y16129D01*
X36572Y16057D01*
X36302Y16057D01*
X36572Y15786D01*
X36572Y15688D01*
X36351Y15917D01*
X36027Y15678D01*
X36027Y15773D01*
X36303Y15968D01*
X36216Y16057D01*
X36027Y16057D01*
X36027Y16129D01*
X36027Y16129D01*
X37551Y21811D02*
X38266Y21811D01*
X38266Y21716D01*
X37635Y21716D01*
X37635Y21363D01*
X37551Y21363D01*
X37551Y21811D01*
X37551Y21811D01*
X37551Y21249D02*
X38266Y21249D01*
X38266Y20731D01*
X38182Y20731D01*
X38182Y21154D01*
X37963Y21154D01*
X37963Y20758D01*
X37879Y20758D01*
X37879Y21154D01*
X37635Y21154D01*
X37635Y20715D01*
X37551Y20715D01*
X37551Y21249D01*
X37551Y21249D01*
X37551Y20584D02*
X38266Y20584D01*
X38266Y20339D01*
X38182Y20339D01*
X38182Y20489D01*
X37635Y20489D01*
X37635Y20489D01*
X37635Y20336D01*
X37636Y20303D01*
X37638Y20273D01*
X37642Y20247D01*
X37648Y20225D01*
X37655Y20206D01*
X37664Y20189D01*
X37674Y20174D01*
X37685Y20161D01*
X37704Y20145D01*
X37725Y20131D01*
X37749Y20119D01*
X37776Y20108D01*
X37806Y20100D01*
X37839Y20094D01*
X37875Y20091D01*
X37914Y20090D01*
X37967Y20092D01*
X38013Y20099D01*
X38053Y20110D01*
X38086Y20126D01*
X38114Y20146D01*
X38137Y20167D01*
X38155Y20191D01*
X38167Y20216D01*
X38174Y20238D01*
X38178Y20266D01*
X38181Y20299D01*
X38182Y20339D01*
X38266Y20339D01*
X38266Y20337D01*
X38266Y20298D01*
X38264Y20263D01*
X38261Y20234D01*
X38256Y20210D01*
X38248Y20180D01*
X38236Y20153D01*
X38222Y20128D01*
X38205Y20105D01*
X38179Y20078D01*
X38150Y20055D01*
X38118Y20036D01*
X38083Y20020D01*
X38044Y20008D01*
X38003Y19999D01*
X37959Y19994D01*
X37912Y19992D01*
X37873Y19993D01*
X37835Y19997D01*
X37800Y20003D01*
X37768Y20011D01*
X37738Y20021D01*
X37710Y20033D01*
X37686Y20046D01*
X37664Y20060D01*
X37644Y20075D01*
X37627Y20091D01*
X37612Y20108D01*
X37599Y20125D01*
X37588Y20144D01*
X37578Y20164D01*
X37570Y20186D01*
X37563Y20210D01*
X37557Y20236D01*
X37554Y20264D01*
X37551Y20294D01*
X37551Y20325D01*
X37551Y20584D01*
X37551Y20584D01*
X37635Y19435D02*
X37551Y19435D01*
X37551Y19908D01*
X37566Y19908D01*
X37582Y19906D01*
X37597Y19903D01*
X37612Y19898D01*
X37636Y19888D01*
X37660Y19875D01*
X37683Y19859D01*
X37707Y19840D01*
X37731Y19818D01*
X37757Y19792D01*
X37785Y19761D01*
X37815Y19725D01*
X37861Y19672D01*
X37901Y19627D01*
X37936Y19593D01*
X37967Y19568D01*
X37994Y19550D01*
X38021Y19537D01*
X38047Y19529D01*
X38073Y19527D01*
X38098Y19529D01*
X38121Y19536D01*
X38142Y19548D01*
X38161Y19564D01*
X38176Y19584D01*
X38188Y19607D01*
X38194Y19633D01*
X38197Y19661D01*
X38194Y19691D01*
X38187Y19718D01*
X38175Y19742D01*
X38158Y19763D01*
X38138Y19780D01*
X38113Y19792D01*
X38085Y19799D01*
X38053Y19801D01*
X38062Y19892D01*
X38110Y19884D01*
X38151Y19870D01*
X38187Y19849D01*
X38216Y19822D01*
X38240Y19789D01*
X38256Y19751D01*
X38266Y19708D01*
X38269Y19659D01*
X38266Y19611D01*
X38255Y19567D01*
X38237Y19529D01*
X38212Y19496D01*
X38182Y19470D01*
X38148Y19451D01*
X38111Y19440D01*
X38071Y19436D01*
X38049Y19437D01*
X38028Y19441D01*
X38007Y19446D01*
X37986Y19454D01*
X37965Y19464D01*
X37944Y19477D01*
X37921Y19493D01*
X37899Y19512D01*
X37874Y19536D01*
X37844Y19566D01*
X37811Y19604D01*
X37773Y19648D01*
X37742Y19684D01*
X37717Y19713D01*
X37697Y19734D01*
X37683Y19749D01*
X37671Y19760D01*
X37659Y19770D01*
X37647Y19779D01*
X37635Y19786D01*
X37635Y19435D01*
X37635Y19435D01*
X37939Y19206D02*
X37884Y19177D01*
X37878Y19189D01*
X37860Y19211D01*
X37838Y19229D01*
X37813Y19241D01*
X37787Y19249D01*
X37757Y19252D01*
X37757Y19252D01*
X37738Y19251D01*
X37720Y19247D01*
X37702Y19242D01*
X37684Y19234D01*
X37668Y19224D01*
X37653Y19212D01*
X37641Y19197D01*
X37630Y19181D01*
X37621Y19163D01*
X37615Y19144D01*
X37612Y19125D01*
X37611Y19105D01*
X37613Y19075D01*
X37621Y19048D01*
X37633Y19023D01*
X37651Y19001D01*
X37673Y18983D01*
X37697Y18970D01*
X37724Y18963D01*
X37754Y18960D01*
X37785Y18963D01*
X37812Y18971D01*
X37837Y18984D01*
X37859Y19002D01*
X37877Y19025D01*
X37890Y19050D01*
X37898Y19078D01*
X37901Y19108D01*
X37898Y19138D01*
X37890Y19165D01*
X37884Y19177D01*
X37939Y19206D01*
X37991Y19173D01*
X37980Y19153D01*
X37974Y19131D01*
X37972Y19106D01*
X37974Y19081D01*
X37980Y19059D01*
X37990Y19040D01*
X38004Y19022D01*
X38021Y19008D01*
X38040Y18998D01*
X38060Y18992D01*
X38083Y18990D01*
X38106Y18992D01*
X38127Y18998D01*
X38147Y19009D01*
X38164Y19023D01*
X38178Y19041D01*
X38189Y19061D01*
X38195Y19083D01*
X38197Y19107D01*
X38195Y19131D01*
X38189Y19153D01*
X38179Y19172D01*
X38165Y19190D01*
X38148Y19205D01*
X38129Y19215D01*
X38109Y19221D01*
X38088Y19223D01*
X38088Y19223D01*
X38063Y19221D01*
X38042Y19215D01*
X38022Y19205D01*
X38005Y19191D01*
X37991Y19173D01*
X37939Y19206D01*
X37950Y19231D01*
X37963Y19253D01*
X37978Y19272D01*
X37996Y19287D01*
X38015Y19298D01*
X38037Y19307D01*
X38060Y19312D01*
X38085Y19313D01*
X38122Y19310D01*
X38157Y19299D01*
X38188Y19282D01*
X38216Y19257D01*
X38239Y19227D01*
X38256Y19192D01*
X38266Y19152D01*
X38269Y19108D01*
X38266Y19063D01*
X38256Y19023D01*
X38239Y18988D01*
X38215Y18957D01*
X38186Y18932D01*
X38154Y18914D01*
X38120Y18903D01*
X38082Y18900D01*
X38058Y18901D01*
X38036Y18906D01*
X38015Y18914D01*
X37996Y18926D01*
X37978Y18940D01*
X37963Y18959D01*
X37950Y18980D01*
X37939Y19005D01*
X37926Y18974D01*
X37911Y18947D01*
X37892Y18924D01*
X37869Y18905D01*
X37844Y18890D01*
X37817Y18879D01*
X37787Y18872D01*
X37755Y18870D01*
X37711Y18874D01*
X37671Y18887D01*
X37634Y18907D01*
X37601Y18935D01*
X37574Y18970D01*
X37554Y19010D01*
X37542Y19056D01*
X37538Y19106D01*
X37542Y19157D01*
X37554Y19202D01*
X37574Y19242D01*
X37601Y19277D01*
X37634Y19305D01*
X37672Y19326D01*
X37713Y19338D01*
X37758Y19342D01*
X37791Y19340D01*
X37822Y19333D01*
X37850Y19322D01*
X37875Y19307D01*
X37896Y19287D01*
X37914Y19264D01*
X37928Y19237D01*
X37939Y19206D01*
X37939Y19206D01*
G37*
M02*