%FSLAX33Y33*%
%MOMM*%
%ADD10C,0.0508*%
%ADD11C,1.0668*%
%ADD12R,1.55X1.55*%
%ADD13C,1.55*%
D10*
%LNpour fill*%
G01*
X48318Y14119D02*
X48318Y14119D01*
X48375Y14496*
X48375Y37121*
X48132Y38595*
X47926Y39675*
X3475Y39675*
X3475Y13875*
X48206Y13477*
X48318Y14119*
X42661Y13501D02*
X48236Y13501D01*
X37095Y13551D02*
X48245Y13551D01*
X31530Y13600D02*
X48253Y13600D01*
X25964Y13650D02*
X48262Y13650D01*
X20398Y13699D02*
X48271Y13699D01*
X14832Y13749D02*
X48279Y13749D01*
X9266Y13798D02*
X48288Y13798D01*
X3700Y13848D02*
X48297Y13848D01*
X3450Y13897D02*
X48305Y13897D01*
X3450Y13947D02*
X48314Y13947D01*
X3450Y13996D02*
X48323Y13996D01*
X3450Y14046D02*
X48331Y14046D01*
X3450Y14095D02*
X48340Y14095D01*
X3450Y14145D02*
X48348Y14145D01*
X3450Y14194D02*
X48355Y14194D01*
X3450Y14244D02*
X48363Y14244D01*
X3450Y14294D02*
X48370Y14294D01*
X3450Y14343D02*
X48378Y14343D01*
X3450Y14393D02*
X48385Y14393D01*
X3450Y14442D02*
X48392Y14442D01*
X3450Y14492D02*
X48400Y14492D01*
X3450Y14541D02*
X48400Y14541D01*
X3450Y14591D02*
X48400Y14591D01*
X3450Y14640D02*
X48400Y14640D01*
X3450Y14690D02*
X48400Y14690D01*
X3450Y14739D02*
X48400Y14739D01*
X3450Y14789D02*
X48400Y14789D01*
X3450Y14838D02*
X48400Y14838D01*
X3450Y14888D02*
X48400Y14888D01*
X3450Y14937D02*
X48400Y14937D01*
X3450Y14987D02*
X48400Y14987D01*
X3450Y15036D02*
X48400Y15036D01*
X3450Y15086D02*
X48400Y15086D01*
X3450Y15136D02*
X48400Y15136D01*
X3450Y15185D02*
X48400Y15185D01*
X3450Y15235D02*
X48400Y15235D01*
X3450Y15284D02*
X48400Y15284D01*
X3450Y15334D02*
X48400Y15334D01*
X3450Y15383D02*
X48400Y15383D01*
X3450Y15433D02*
X48400Y15433D01*
X3450Y15482D02*
X48400Y15482D01*
X3450Y15532D02*
X48400Y15532D01*
X3450Y15581D02*
X48400Y15581D01*
X3450Y15631D02*
X48400Y15631D01*
X3450Y15680D02*
X48400Y15680D01*
X3450Y15730D02*
X48400Y15730D01*
X3450Y15779D02*
X48400Y15779D01*
X3450Y15829D02*
X48400Y15829D01*
X3450Y15879D02*
X48400Y15879D01*
X3450Y15928D02*
X48400Y15928D01*
X3450Y15978D02*
X48400Y15978D01*
X3450Y16027D02*
X48400Y16027D01*
X3450Y16077D02*
X48400Y16077D01*
X3450Y16126D02*
X48400Y16126D01*
X3450Y16176D02*
X48400Y16176D01*
X3450Y16225D02*
X48400Y16225D01*
X3450Y16275D02*
X48400Y16275D01*
X3450Y16324D02*
X48400Y16324D01*
X3450Y16374D02*
X48400Y16374D01*
X3450Y16423D02*
X48400Y16423D01*
X3450Y16473D02*
X48400Y16473D01*
X3450Y16522D02*
X48400Y16522D01*
X3450Y16572D02*
X48400Y16572D01*
X3450Y16621D02*
X48400Y16621D01*
X3450Y16671D02*
X48400Y16671D01*
X3450Y16721D02*
X48400Y16721D01*
X3450Y16770D02*
X48400Y16770D01*
X3450Y16820D02*
X48400Y16820D01*
X3450Y16869D02*
X48400Y16869D01*
X3450Y16919D02*
X48400Y16919D01*
X3450Y16968D02*
X48400Y16968D01*
X3450Y17018D02*
X48400Y17018D01*
X3450Y17067D02*
X48400Y17067D01*
X3450Y17117D02*
X48400Y17117D01*
X3450Y17166D02*
X48400Y17166D01*
X3450Y17216D02*
X48400Y17216D01*
X3450Y17265D02*
X48400Y17265D01*
X3450Y17315D02*
X48400Y17315D01*
X3450Y17364D02*
X48400Y17364D01*
X3450Y17414D02*
X48400Y17414D01*
X3450Y17463D02*
X48400Y17463D01*
X3450Y17513D02*
X48400Y17513D01*
X3450Y17563D02*
X48400Y17563D01*
X3450Y17612D02*
X48400Y17612D01*
X3450Y17662D02*
X48400Y17662D01*
X3450Y17711D02*
X48400Y17711D01*
X3450Y17761D02*
X48400Y17761D01*
X3450Y17810D02*
X48400Y17810D01*
X3450Y17860D02*
X48400Y17860D01*
X3450Y17909D02*
X48400Y17909D01*
X3450Y17959D02*
X48400Y17959D01*
X3450Y18008D02*
X48400Y18008D01*
X3450Y18058D02*
X48400Y18058D01*
X3450Y18107D02*
X48400Y18107D01*
X3450Y18157D02*
X48400Y18157D01*
X3450Y18206D02*
X48400Y18206D01*
X3450Y18256D02*
X48400Y18256D01*
X3450Y18305D02*
X48400Y18305D01*
X3450Y18355D02*
X48400Y18355D01*
X3450Y18405D02*
X48400Y18405D01*
X3450Y18454D02*
X48400Y18454D01*
X3450Y18504D02*
X48400Y18504D01*
X3450Y18553D02*
X48400Y18553D01*
X3450Y18603D02*
X48400Y18603D01*
X3450Y18652D02*
X48400Y18652D01*
X3450Y18702D02*
X48400Y18702D01*
X3450Y18751D02*
X48400Y18751D01*
X3450Y18801D02*
X48400Y18801D01*
X3450Y18850D02*
X48400Y18850D01*
X3450Y18900D02*
X48400Y18900D01*
X3450Y18949D02*
X48400Y18949D01*
X3450Y18999D02*
X48400Y18999D01*
X3450Y19048D02*
X48400Y19048D01*
X3450Y19098D02*
X48400Y19098D01*
X3450Y19147D02*
X48400Y19147D01*
X3450Y19197D02*
X48400Y19197D01*
X3450Y19247D02*
X48400Y19247D01*
X3450Y19296D02*
X48400Y19296D01*
X3450Y19346D02*
X48400Y19346D01*
X3450Y19395D02*
X48400Y19395D01*
X3450Y19445D02*
X48400Y19445D01*
X3450Y19494D02*
X48400Y19494D01*
X3450Y19544D02*
X48400Y19544D01*
X3450Y19593D02*
X48400Y19593D01*
X3450Y19643D02*
X48400Y19643D01*
X3450Y19692D02*
X48400Y19692D01*
X3450Y19742D02*
X48400Y19742D01*
X3450Y19791D02*
X48400Y19791D01*
X3450Y19841D02*
X48400Y19841D01*
X3450Y19890D02*
X48400Y19890D01*
X3450Y19940D02*
X48400Y19940D01*
X3450Y19989D02*
X48400Y19989D01*
X3450Y20039D02*
X48400Y20039D01*
X3450Y20089D02*
X48400Y20089D01*
X3450Y20138D02*
X48400Y20138D01*
X3450Y20188D02*
X48400Y20188D01*
X3450Y20237D02*
X48400Y20237D01*
X3450Y20287D02*
X48400Y20287D01*
X3450Y20336D02*
X48400Y20336D01*
X3450Y20386D02*
X48400Y20386D01*
X3450Y20435D02*
X48400Y20435D01*
X3450Y20485D02*
X48400Y20485D01*
X3450Y20534D02*
X48400Y20534D01*
X3450Y20584D02*
X48400Y20584D01*
X3450Y20633D02*
X48400Y20633D01*
X3450Y20683D02*
X48400Y20683D01*
X3450Y20732D02*
X48400Y20732D01*
X3450Y20782D02*
X48400Y20782D01*
X3450Y20832D02*
X48400Y20832D01*
X3450Y20881D02*
X48400Y20881D01*
X3450Y20931D02*
X48400Y20931D01*
X3450Y20980D02*
X48400Y20980D01*
X3450Y21030D02*
X48400Y21030D01*
X3450Y21079D02*
X48400Y21079D01*
X3450Y21129D02*
X48400Y21129D01*
X3450Y21178D02*
X48400Y21178D01*
X3450Y21228D02*
X48400Y21228D01*
X3450Y21277D02*
X48400Y21277D01*
X3450Y21327D02*
X48400Y21327D01*
X3450Y21376D02*
X48400Y21376D01*
X3450Y21426D02*
X48400Y21426D01*
X3450Y21475D02*
X48400Y21475D01*
X3450Y21525D02*
X48400Y21525D01*
X3450Y21574D02*
X48400Y21574D01*
X3450Y21624D02*
X48400Y21624D01*
X3450Y21674D02*
X48400Y21674D01*
X3450Y21723D02*
X48400Y21723D01*
X3450Y21773D02*
X48400Y21773D01*
X3450Y21822D02*
X48400Y21822D01*
X3450Y21872D02*
X48400Y21872D01*
X3450Y21921D02*
X48400Y21921D01*
X3450Y21971D02*
X48400Y21971D01*
X3450Y22020D02*
X48400Y22020D01*
X3450Y22070D02*
X48400Y22070D01*
X3450Y22119D02*
X48400Y22119D01*
X3450Y22169D02*
X48400Y22169D01*
X3450Y22218D02*
X48400Y22218D01*
X3450Y22268D02*
X48400Y22268D01*
X3450Y22317D02*
X48400Y22317D01*
X3450Y22367D02*
X48400Y22367D01*
X3450Y22416D02*
X48400Y22416D01*
X3450Y22466D02*
X48400Y22466D01*
X3450Y22516D02*
X48400Y22516D01*
X3450Y22565D02*
X48400Y22565D01*
X3450Y22615D02*
X48400Y22615D01*
X3450Y22664D02*
X48400Y22664D01*
X3450Y22714D02*
X48400Y22714D01*
X3450Y22763D02*
X48400Y22763D01*
X3450Y22813D02*
X48400Y22813D01*
X3450Y22862D02*
X48400Y22862D01*
X3450Y22912D02*
X48400Y22912D01*
X3450Y22961D02*
X48400Y22961D01*
X3450Y23011D02*
X48400Y23011D01*
X3450Y23060D02*
X48400Y23060D01*
X3450Y23110D02*
X48400Y23110D01*
X3450Y23159D02*
X48400Y23159D01*
X3450Y23209D02*
X48400Y23209D01*
X3450Y23258D02*
X48400Y23258D01*
X3450Y23308D02*
X48400Y23308D01*
X3450Y23358D02*
X48400Y23358D01*
X3450Y23407D02*
X48400Y23407D01*
X3450Y23457D02*
X48400Y23457D01*
X3450Y23506D02*
X48400Y23506D01*
X3450Y23556D02*
X48400Y23556D01*
X3450Y23605D02*
X48400Y23605D01*
X3450Y23655D02*
X48400Y23655D01*
X3450Y23704D02*
X48400Y23704D01*
X3450Y23754D02*
X48400Y23754D01*
X3450Y23803D02*
X48400Y23803D01*
X3450Y23853D02*
X48400Y23853D01*
X3450Y23902D02*
X48400Y23902D01*
X3450Y23952D02*
X48400Y23952D01*
X3450Y24001D02*
X48400Y24001D01*
X3450Y24051D02*
X48400Y24051D01*
X3450Y24100D02*
X48400Y24100D01*
X3450Y24150D02*
X48400Y24150D01*
X3450Y24200D02*
X48400Y24200D01*
X3450Y24249D02*
X48400Y24249D01*
X3450Y24299D02*
X48400Y24299D01*
X3450Y24348D02*
X48400Y24348D01*
X3450Y24398D02*
X48400Y24398D01*
X3450Y24447D02*
X48400Y24447D01*
X3450Y24497D02*
X48400Y24497D01*
X3450Y24546D02*
X48400Y24546D01*
X3450Y24596D02*
X48400Y24596D01*
X3450Y24645D02*
X48400Y24645D01*
X3450Y24695D02*
X48400Y24695D01*
X3450Y24744D02*
X48400Y24744D01*
X3450Y24794D02*
X48400Y24794D01*
X3450Y24843D02*
X48400Y24843D01*
X3450Y24893D02*
X48400Y24893D01*
X3450Y24942D02*
X48400Y24942D01*
X3450Y24992D02*
X48400Y24992D01*
X3450Y25042D02*
X48400Y25042D01*
X3450Y25091D02*
X48400Y25091D01*
X3450Y25141D02*
X48400Y25141D01*
X3450Y25190D02*
X48400Y25190D01*
X3450Y25240D02*
X48400Y25240D01*
X3450Y25289D02*
X48400Y25289D01*
X3450Y25339D02*
X48400Y25339D01*
X3450Y25388D02*
X48400Y25388D01*
X3450Y25438D02*
X48400Y25438D01*
X3450Y25487D02*
X48400Y25487D01*
X3450Y25537D02*
X48400Y25537D01*
X3450Y25586D02*
X48400Y25586D01*
X3450Y25636D02*
X48400Y25636D01*
X3450Y25685D02*
X48400Y25685D01*
X3450Y25735D02*
X48400Y25735D01*
X3450Y25785D02*
X48400Y25785D01*
X3450Y25834D02*
X48400Y25834D01*
X3450Y25884D02*
X48400Y25884D01*
X3450Y25933D02*
X48400Y25933D01*
X3450Y25983D02*
X48400Y25983D01*
X3450Y26032D02*
X48400Y26032D01*
X3450Y26082D02*
X48400Y26082D01*
X3450Y26131D02*
X48400Y26131D01*
X3450Y26181D02*
X48400Y26181D01*
X3450Y26230D02*
X48400Y26230D01*
X3450Y26280D02*
X48400Y26280D01*
X3450Y26329D02*
X48400Y26329D01*
X3450Y26379D02*
X48400Y26379D01*
X3450Y26428D02*
X48400Y26428D01*
X3450Y26478D02*
X48400Y26478D01*
X3450Y26527D02*
X48400Y26527D01*
X3450Y26577D02*
X48400Y26577D01*
X3450Y26627D02*
X48400Y26627D01*
X3450Y26676D02*
X48400Y26676D01*
X3450Y26726D02*
X48400Y26726D01*
X3450Y26775D02*
X48400Y26775D01*
X3450Y26825D02*
X48400Y26825D01*
X3450Y26874D02*
X48400Y26874D01*
X3450Y26924D02*
X48400Y26924D01*
X3450Y26973D02*
X48400Y26973D01*
X3450Y27023D02*
X48400Y27023D01*
X3450Y27072D02*
X48400Y27072D01*
X3450Y27122D02*
X48400Y27122D01*
X3450Y27171D02*
X48400Y27171D01*
X3450Y27221D02*
X48400Y27221D01*
X3450Y27270D02*
X48400Y27270D01*
X3450Y27320D02*
X48400Y27320D01*
X3450Y27369D02*
X48400Y27369D01*
X3450Y27419D02*
X48400Y27419D01*
X3450Y27469D02*
X48400Y27469D01*
X3450Y27518D02*
X48400Y27518D01*
X3450Y27568D02*
X48400Y27568D01*
X3450Y27617D02*
X48400Y27617D01*
X3450Y27667D02*
X48400Y27667D01*
X3450Y27716D02*
X48400Y27716D01*
X3450Y27766D02*
X48400Y27766D01*
X3450Y27815D02*
X48400Y27815D01*
X3450Y27865D02*
X48400Y27865D01*
X3450Y27914D02*
X48400Y27914D01*
X3450Y27964D02*
X48400Y27964D01*
X3450Y28013D02*
X48400Y28013D01*
X3450Y28063D02*
X48400Y28063D01*
X3450Y28112D02*
X48400Y28112D01*
X3450Y28162D02*
X48400Y28162D01*
X3450Y28211D02*
X48400Y28211D01*
X3450Y28261D02*
X48400Y28261D01*
X3450Y28311D02*
X48400Y28311D01*
X3450Y28360D02*
X48400Y28360D01*
X3450Y28410D02*
X48400Y28410D01*
X3450Y28459D02*
X48400Y28459D01*
X3450Y28509D02*
X48400Y28509D01*
X3450Y28558D02*
X48400Y28558D01*
X3450Y28608D02*
X48400Y28608D01*
X3450Y28657D02*
X48400Y28657D01*
X3450Y28707D02*
X48400Y28707D01*
X3450Y28756D02*
X48400Y28756D01*
X3450Y28806D02*
X48400Y28806D01*
X3450Y28855D02*
X48400Y28855D01*
X3450Y28905D02*
X48400Y28905D01*
X3450Y28954D02*
X48400Y28954D01*
X3450Y29004D02*
X48400Y29004D01*
X3450Y29053D02*
X48400Y29053D01*
X3450Y29103D02*
X48400Y29103D01*
X3450Y29153D02*
X48400Y29153D01*
X3450Y29202D02*
X48400Y29202D01*
X3450Y29252D02*
X48400Y29252D01*
X3450Y29301D02*
X48400Y29301D01*
X3450Y29351D02*
X48400Y29351D01*
X3450Y29400D02*
X48400Y29400D01*
X3450Y29450D02*
X48400Y29450D01*
X3450Y29499D02*
X48400Y29499D01*
X3450Y29549D02*
X48400Y29549D01*
X3450Y29598D02*
X48400Y29598D01*
X3450Y29648D02*
X48400Y29648D01*
X3450Y29697D02*
X48400Y29697D01*
X3450Y29747D02*
X48400Y29747D01*
X3450Y29796D02*
X48400Y29796D01*
X3450Y29846D02*
X48400Y29846D01*
X3450Y29895D02*
X48400Y29895D01*
X3450Y29945D02*
X48400Y29945D01*
X3450Y29995D02*
X48400Y29995D01*
X3450Y30044D02*
X48400Y30044D01*
X3450Y30094D02*
X48400Y30094D01*
X3450Y30143D02*
X48400Y30143D01*
X3450Y30193D02*
X48400Y30193D01*
X3450Y30242D02*
X48400Y30242D01*
X3450Y30292D02*
X48400Y30292D01*
X3450Y30341D02*
X48400Y30341D01*
X3450Y30391D02*
X48400Y30391D01*
X3450Y30440D02*
X48400Y30440D01*
X3450Y30490D02*
X48400Y30490D01*
X3450Y30539D02*
X48400Y30539D01*
X3450Y30589D02*
X48400Y30589D01*
X3450Y30638D02*
X48400Y30638D01*
X3450Y30688D02*
X48400Y30688D01*
X3450Y30738D02*
X48400Y30738D01*
X3450Y30787D02*
X48400Y30787D01*
X3450Y30837D02*
X48400Y30837D01*
X3450Y30886D02*
X48400Y30886D01*
X3450Y30936D02*
X48400Y30936D01*
X3450Y30985D02*
X48400Y30985D01*
X3450Y31035D02*
X48400Y31035D01*
X3450Y31084D02*
X48400Y31084D01*
X3450Y31134D02*
X48400Y31134D01*
X3450Y31183D02*
X48400Y31183D01*
X3450Y31233D02*
X48400Y31233D01*
X3450Y31282D02*
X48400Y31282D01*
X3450Y31332D02*
X48400Y31332D01*
X3450Y31381D02*
X48400Y31381D01*
X3450Y31431D02*
X48400Y31431D01*
X3450Y31480D02*
X48400Y31480D01*
X3450Y31530D02*
X48400Y31530D01*
X3450Y31580D02*
X48400Y31580D01*
X3450Y31629D02*
X48400Y31629D01*
X3450Y31679D02*
X48400Y31679D01*
X3450Y31728D02*
X48400Y31728D01*
X3450Y31778D02*
X48400Y31778D01*
X3450Y31827D02*
X48400Y31827D01*
X3450Y31877D02*
X48400Y31877D01*
X3450Y31926D02*
X48400Y31926D01*
X3450Y31976D02*
X48400Y31976D01*
X3450Y32025D02*
X48400Y32025D01*
X3450Y32075D02*
X48400Y32075D01*
X3450Y32124D02*
X48400Y32124D01*
X3450Y32174D02*
X48400Y32174D01*
X3450Y32223D02*
X48400Y32223D01*
X3450Y32273D02*
X48400Y32273D01*
X3450Y32322D02*
X48400Y32322D01*
X3450Y32372D02*
X48400Y32372D01*
X3450Y32422D02*
X48400Y32422D01*
X3450Y32471D02*
X48400Y32471D01*
X3450Y32521D02*
X48400Y32521D01*
X3450Y32570D02*
X48400Y32570D01*
X3450Y32620D02*
X48400Y32620D01*
X3450Y32669D02*
X48400Y32669D01*
X3450Y32719D02*
X48400Y32719D01*
X3450Y32768D02*
X48400Y32768D01*
X3450Y32818D02*
X48400Y32818D01*
X3450Y32867D02*
X48400Y32867D01*
X3450Y32917D02*
X48400Y32917D01*
X3450Y32966D02*
X48400Y32966D01*
X3450Y33016D02*
X48400Y33016D01*
X3450Y33065D02*
X48400Y33065D01*
X3450Y33115D02*
X48400Y33115D01*
X3450Y33164D02*
X48400Y33164D01*
X3450Y33214D02*
X48400Y33214D01*
X3450Y33264D02*
X48400Y33264D01*
X3450Y33313D02*
X48400Y33313D01*
X3450Y33363D02*
X48400Y33363D01*
X3450Y33412D02*
X48400Y33412D01*
X3450Y33462D02*
X48400Y33462D01*
X3450Y33511D02*
X48400Y33511D01*
X3450Y33561D02*
X48400Y33561D01*
X3450Y33610D02*
X48400Y33610D01*
X3450Y33660D02*
X48400Y33660D01*
X3450Y33709D02*
X48400Y33709D01*
X3450Y33759D02*
X48400Y33759D01*
X3450Y33808D02*
X48400Y33808D01*
X3450Y33858D02*
X48400Y33858D01*
X3450Y33907D02*
X48400Y33907D01*
X3450Y33957D02*
X48400Y33957D01*
X3450Y34006D02*
X48400Y34006D01*
X3450Y34056D02*
X48400Y34056D01*
X3450Y34106D02*
X48400Y34106D01*
X3450Y34155D02*
X48400Y34155D01*
X3450Y34205D02*
X48400Y34205D01*
X3450Y34254D02*
X48400Y34254D01*
X3450Y34304D02*
X48400Y34304D01*
X3450Y34353D02*
X48400Y34353D01*
X3450Y34403D02*
X48400Y34403D01*
X3450Y34452D02*
X48400Y34452D01*
X3450Y34502D02*
X48400Y34502D01*
X3450Y34551D02*
X48400Y34551D01*
X3450Y34601D02*
X48400Y34601D01*
X3450Y34650D02*
X48400Y34650D01*
X3450Y34700D02*
X48400Y34700D01*
X3450Y34749D02*
X48400Y34749D01*
X3450Y34799D02*
X48400Y34799D01*
X3450Y34848D02*
X48400Y34848D01*
X3450Y34898D02*
X48400Y34898D01*
X3450Y34948D02*
X48400Y34948D01*
X3450Y34997D02*
X48400Y34997D01*
X3450Y35047D02*
X48400Y35047D01*
X3450Y35096D02*
X48400Y35096D01*
X3450Y35146D02*
X48400Y35146D01*
X3450Y35195D02*
X48400Y35195D01*
X3450Y35245D02*
X48400Y35245D01*
X3450Y35294D02*
X48400Y35294D01*
X3450Y35344D02*
X48400Y35344D01*
X3450Y35393D02*
X48400Y35393D01*
X3450Y35443D02*
X48400Y35443D01*
X3450Y35492D02*
X48400Y35492D01*
X3450Y35542D02*
X48400Y35542D01*
X3450Y35591D02*
X48400Y35591D01*
X3450Y35641D02*
X48400Y35641D01*
X3450Y35691D02*
X48400Y35691D01*
X3450Y35740D02*
X48400Y35740D01*
X3450Y35790D02*
X48400Y35790D01*
X3450Y35839D02*
X48400Y35839D01*
X3450Y35889D02*
X48400Y35889D01*
X3450Y35938D02*
X48400Y35938D01*
X3450Y35988D02*
X48400Y35988D01*
X3450Y36037D02*
X48400Y36037D01*
X3450Y36087D02*
X48400Y36087D01*
X3450Y36136D02*
X48400Y36136D01*
X3450Y36186D02*
X48400Y36186D01*
X3450Y36235D02*
X48400Y36235D01*
X3450Y36285D02*
X48400Y36285D01*
X3450Y36334D02*
X48400Y36334D01*
X3450Y36384D02*
X48400Y36384D01*
X3450Y36433D02*
X48400Y36433D01*
X3450Y36483D02*
X48400Y36483D01*
X3450Y36533D02*
X48400Y36533D01*
X3450Y36582D02*
X48400Y36582D01*
X3450Y36632D02*
X48400Y36632D01*
X3450Y36681D02*
X48400Y36681D01*
X3450Y36731D02*
X48400Y36731D01*
X3450Y36780D02*
X48400Y36780D01*
X3450Y36830D02*
X48400Y36830D01*
X3450Y36879D02*
X48400Y36879D01*
X3450Y36929D02*
X48400Y36929D01*
X3450Y36978D02*
X48400Y36978D01*
X3450Y37028D02*
X48400Y37028D01*
X3450Y37077D02*
X48400Y37077D01*
X3450Y37127D02*
X48399Y37127D01*
X3450Y37176D02*
X48391Y37176D01*
X3450Y37226D02*
X48383Y37226D01*
X3450Y37275D02*
X48375Y37275D01*
X3450Y37325D02*
X48367Y37325D01*
X3450Y37375D02*
X48359Y37375D01*
X3450Y37424D02*
X48351Y37424D01*
X3450Y37474D02*
X48342Y37474D01*
X3450Y37523D02*
X48334Y37523D01*
X3450Y37573D02*
X48326Y37573D01*
X3450Y37622D02*
X48318Y37622D01*
X3450Y37672D02*
X48310Y37672D01*
X3450Y37721D02*
X48302Y37721D01*
X3450Y37771D02*
X48294Y37771D01*
X3450Y37820D02*
X48285Y37820D01*
X3450Y37870D02*
X48277Y37870D01*
X3450Y37919D02*
X48269Y37919D01*
X3450Y37969D02*
X48261Y37969D01*
X3450Y38018D02*
X48253Y38018D01*
X3450Y38068D02*
X48245Y38068D01*
X3450Y38117D02*
X48237Y38117D01*
X3450Y38167D02*
X48228Y38167D01*
X3450Y38217D02*
X48220Y38217D01*
X3450Y38266D02*
X48212Y38266D01*
X3450Y38316D02*
X48204Y38316D01*
X3450Y38365D02*
X48196Y38365D01*
X3450Y38415D02*
X48188Y38415D01*
X3450Y38464D02*
X48180Y38464D01*
X3450Y38514D02*
X48171Y38514D01*
X3450Y38563D02*
X48163Y38563D01*
X3450Y38613D02*
X48155Y38613D01*
X3450Y38662D02*
X48145Y38662D01*
X3450Y38712D02*
X48136Y38712D01*
X3450Y38761D02*
X48126Y38761D01*
X3450Y38811D02*
X48117Y38811D01*
X3450Y38860D02*
X48107Y38860D01*
X3450Y38910D02*
X48098Y38910D01*
X3450Y38959D02*
X48089Y38959D01*
X3450Y39009D02*
X48079Y39009D01*
X3450Y39059D02*
X48070Y39059D01*
X3450Y39108D02*
X48060Y39108D01*
X3450Y39158D02*
X48051Y39158D01*
X3450Y39207D02*
X48041Y39207D01*
X3450Y39257D02*
X48032Y39257D01*
X3450Y39306D02*
X48022Y39306D01*
X3450Y39356D02*
X48013Y39356D01*
X3450Y39405D02*
X48003Y39405D01*
X3450Y39455D02*
X47994Y39455D01*
X3450Y39504D02*
X47984Y39504D01*
X3450Y39554D02*
X47975Y39554D01*
X3450Y39603D02*
X47965Y39603D01*
X3450Y39653D02*
X47956Y39653D01*
%LNbottom copper_traces*%
D11*
X24900Y37300D03*
X46900Y14900D03*
X29550Y29850D03*
X43400Y36550D03*
X38650Y22050D03*
X38650Y29800D03*
X16350Y36450D03*
X6650Y21700D03*
X43400Y22400D03*
X28700Y37150D03*
X7150Y15450D03*
X46750Y37950D03*
X32600Y37500D03*
X24850Y29850D03*
X20150Y16800D03*
X15650Y29650D03*
X11250Y29600D03*
X29550Y21900D03*
X24900Y21850D03*
X29250Y16750D03*
X15650Y17050D03*
X34100Y30050D03*
X43450Y29350D03*
X11700Y37150D03*
X20250Y29650D03*
X6350Y29400D03*
X6600Y37700D03*
X24800Y16150D03*
X20250Y21750D03*
X15950Y21700D03*
X11500Y21600D03*
X38750Y16700D03*
X34100Y21950D03*
X20600Y37450D03*
X11350Y16600D03*
X42900Y15350D03*
%LNbottom copper component d3f5827382159297*%
D12*
X13420Y12450D03*
D13*
X15960Y12450D03*
X18500Y12450D03*
X21040Y12450D03*
X23580Y12450D03*
X26120Y12450D03*
X28660Y12450D03*
X31200Y12450D03*
X33740Y12450D03*
X36280Y12450D03*
%LNbottom copper component f3a27893b55f737a*%
D12*
X13495Y41025D03*
D13*
X16035Y41025D03*
X18575Y41025D03*
X21115Y41025D03*
X23655Y41025D03*
X26195Y41025D03*
X28735Y41025D03*
X31275Y41025D03*
X33815Y41025D03*
X36355Y41025D03*
M02*