%MOIN*%
%OFA0B0*%
%FSLAX44Y44*%
%IPPOS*%
%LPD*%
%ADD10R,0.000428012570729587X0.000856025141459174*%
D10*
X00017358Y-00000095D02*
X00017431Y-00000095D01*
X00017358Y-00000087D02*
X00017431Y-00000087D01*
X00017358Y-00000078D02*
X00017431Y-00000078D01*
X00017358Y-00000070D02*
X00017431Y-00000070D01*
X00017358Y-00000061D02*
X00017431Y-00000061D01*
X00017358Y-00000052D02*
X00017431Y-00000052D01*
X00017358Y-00000044D02*
X00017431Y-00000044D01*
X00017358Y-00000035D02*
X00017431Y-00000035D01*
X00017358Y-00000027D02*
X00017431Y-00000027D01*
X00017358Y-00000018D02*
X00017431Y-00000018D01*
X00017358Y-00000010D02*
X00017431Y-00000010D01*
X00017358Y-00000001D02*
X00017431Y-00000001D01*
X00017358Y00000007D02*
X00017431Y00000007D01*
X00017358Y00000015D02*
X00017431Y00000015D01*
X00017358Y00000024D02*
X00017431Y00000024D01*
X00017358Y00000032D02*
X00017431Y00000032D01*
X00017358Y00000041D02*
X00017431Y00000041D01*
X00017358Y00000049D02*
X00017431Y00000049D01*
X00017358Y00000058D02*
X00017431Y00000058D01*
X00017358Y00000066D02*
X00017431Y00000066D01*
X00017358Y00000075D02*
X00017431Y00000075D01*
X00017358Y00000084D02*
X00017431Y00000084D01*
X00017358Y00000092D02*
X00017431Y00000092D01*
X00017358Y00000101D02*
X00017431Y00000101D01*
X00017358Y00000109D02*
X00017431Y00000109D01*
X00017358Y00000118D02*
X00017431Y00000118D01*
X00017358Y00000126D02*
X00017431Y00000126D01*
X00017358Y00000135D02*
X00017431Y00000135D01*
X00017358Y00000143D02*
X00017431Y00000143D01*
X00017358Y00000152D02*
X00017431Y00000152D01*
X00017358Y00000161D02*
X00017431Y00000161D01*
X00017358Y00000169D02*
X00017431Y00000169D01*
X00017358Y00000178D02*
X00017431Y00000178D01*
X00017358Y00000186D02*
X00017431Y00000186D01*
X00017358Y00000195D02*
X00017431Y00000195D01*
X00017358Y00000203D02*
X00017431Y00000203D01*
X00017358Y00000212D02*
X00017431Y00000212D01*
X00017358Y00000221D02*
X00017431Y00000221D01*
X00017358Y00000229D02*
X00017431Y00000229D01*
X00017358Y00000238D02*
X00017431Y00000238D01*
X00017358Y00000246D02*
X00017431Y00000246D01*
X00017358Y00000255D02*
X00017431Y00000255D01*
X00017358Y00000263D02*
X00017431Y00000263D01*
X00017358Y00000272D02*
X00017431Y00000272D01*
X00017358Y00000280D02*
X00017431Y00000280D01*
X00017358Y00000289D02*
X00017431Y00000289D01*
X00017358Y00000298D02*
X00017431Y00000298D01*
X00017358Y00000306D02*
X00017431Y00000306D01*
X00017358Y00000315D02*
X00017431Y00000315D01*
X00017358Y00000323D02*
X00017431Y00000323D01*
X00017358Y00000332D02*
X00017431Y00000332D01*
X00017358Y00000340D02*
X00017431Y00000340D01*
X00017358Y00000349D02*
X00017431Y00000349D01*
X00017358Y00000357D02*
X00017431Y00000357D01*
X00017358Y00000366D02*
X00017431Y00000366D01*
X00017358Y00000375D02*
X00017431Y00000375D01*
X00017358Y00000383D02*
X00017431Y00000383D01*
X00017358Y00000392D02*
X00017431Y00000392D01*
X00017358Y00000400D02*
X00017431Y00000400D01*
X00017358Y00000409D02*
X00017431Y00000409D01*
X00017358Y00000417D02*
X00017431Y00000417D01*
X00017358Y00000426D02*
X00017431Y00000426D01*
X00017358Y00000435D02*
X00017431Y00000435D01*
X00017358Y00000443D02*
X00017431Y00000443D01*
X00017358Y00000452D02*
X00017431Y00000452D01*
X00017358Y00000460D02*
X00017431Y00000460D01*
X00017358Y00000469D02*
X00017431Y00000469D01*
X00017358Y00000477D02*
X00017431Y00000477D01*
X00017358Y00000486D02*
X00017431Y00000486D01*
X00017358Y00000494D02*
X00017431Y00000494D01*
X00017358Y00000503D02*
X00017431Y00000503D01*
X00017358Y00000512D02*
X00017431Y00000512D01*
X00017358Y00000520D02*
X00017431Y00000520D01*
X00017358Y00000529D02*
X00017431Y00000529D01*
X00017358Y00000537D02*
X00017431Y00000537D01*
X00017358Y00000546D02*
X00017431Y00000546D01*
X00017358Y00000554D02*
X00017431Y00000554D01*
X00017358Y00000563D02*
X00017431Y00000563D01*
X00017358Y00000571D02*
X00017431Y00000571D01*
X00017358Y00000580D02*
X00017431Y00000580D01*
X00017358Y00000589D02*
X00017431Y00000589D01*
X00017358Y00000597D02*
X00017431Y00000597D01*
X00017358Y00000606D02*
X00017431Y00000606D01*
X00017358Y00000614D02*
X00017431Y00000614D01*
X00017358Y00000623D02*
X00017431Y00000623D01*
X00017358Y00000631D02*
X00017431Y00000631D01*
X00017358Y00000640D02*
X00017431Y00000640D01*
X00017358Y00000649D02*
X00017431Y00000649D01*
X00017358Y00000657D02*
X00017431Y00000657D01*
X00017358Y00000666D02*
X00017431Y00000666D01*
X00017358Y00000674D02*
X00017431Y00000674D01*
X00017358Y00000683D02*
X00017431Y00000683D01*
X00017358Y00000691D02*
X00017431Y00000691D01*
X00017358Y00000700D02*
X00017431Y00000700D01*
X00017358Y00000708D02*
X00017431Y00000708D01*
X00017358Y00000717D02*
X00017431Y00000717D01*
X00017358Y00000726D02*
X00017431Y00000726D01*
X00017358Y00000734D02*
X00017431Y00000734D01*
X00017358Y00000743D02*
X00017431Y00000743D01*
X00017358Y00000751D02*
X00017431Y00000751D01*
X00017358Y00000760D02*
X00017431Y00000760D01*
X00017358Y00000768D02*
X00017431Y00000768D01*
X00017358Y00000777D02*
X00017431Y00000777D01*
X00017358Y00000785D02*
X00017431Y00000785D01*
X00017358Y00000794D02*
X00017431Y00000794D01*
X00017358Y00000803D02*
X00017431Y00000803D01*
X00017358Y00000811D02*
X00017431Y00000811D01*
X00017358Y00000820D02*
X00017431Y00000820D01*
X00017358Y00000828D02*
X00017431Y00000828D01*
X00017358Y00000837D02*
X00017431Y00000837D01*
X00017358Y00000845D02*
X00017431Y00000845D01*
X00017358Y00000854D02*
X00017431Y00000854D01*
X00017358Y00000863D02*
X00017431Y00000863D01*
X00017358Y00000871D02*
X00017431Y00000871D01*
X00017358Y00000880D02*
X00017431Y00000880D01*
X00017358Y00000888D02*
X00017431Y00000888D01*
X00017358Y00000897D02*
X00017431Y00000897D01*
X00017358Y00000905D02*
X00017431Y00000905D01*
X00017358Y00000914D02*
X00017431Y00000914D01*
X00017358Y00000922D02*
X00017431Y00000922D01*
X00017358Y00000931D02*
X00017431Y00000931D01*
X00017358Y00000940D02*
X00017431Y00000940D01*
X00017358Y00000948D02*
X00017431Y00000948D01*
X00017358Y00000957D02*
X00017431Y00000957D01*
X00017358Y00000965D02*
X00017431Y00000965D01*
X00017358Y00000974D02*
X00017431Y00000974D01*
X00017358Y00000982D02*
X00017431Y00000982D01*
X00017358Y00000991D02*
X00017431Y00000991D01*
X00017358Y00000999D02*
X00017431Y00000999D01*
X00017358Y00001008D02*
X00017431Y00001008D01*
X00017358Y00001017D02*
X00017431Y00001017D01*
X00017358Y00001025D02*
X00017431Y00001025D01*
X00017358Y00001034D02*
X00017431Y00001034D01*
X00017358Y00001042D02*
X00017431Y00001042D01*
X00017358Y00001051D02*
X00017431Y00001051D01*
X00017358Y00001059D02*
X00017431Y00001059D01*
X00017358Y00001068D02*
X00017431Y00001068D01*
X00017358Y00001077D02*
X00017431Y00001077D01*
X00017358Y00001085D02*
X00017431Y00001085D01*
X00017358Y00001094D02*
X00017431Y00001094D01*
X00017358Y00001102D02*
X00017431Y00001102D01*
X00017358Y00001111D02*
X00017431Y00001111D01*
X00017358Y00001119D02*
X00017431Y00001119D01*
X00017358Y00001128D02*
X00017431Y00001128D01*
X00017358Y00001136D02*
X00017431Y00001136D01*
X00017358Y00001145D02*
X00017431Y00001145D01*
X00017358Y00001154D02*
X00017431Y00001154D01*
X00017358Y00001162D02*
X00017431Y00001162D01*
X00017358Y00001171D02*
X00017431Y00001171D01*
X00017358Y00001179D02*
X00017431Y00001179D01*
X00017358Y00001188D02*
X00017431Y00001188D01*
X00017358Y00001196D02*
X00017431Y00001196D01*
X00017358Y00001205D02*
X00017431Y00001205D01*
X00017358Y00001213D02*
X00017431Y00001213D01*
X00017358Y00001222D02*
X00017431Y00001222D01*
X00017358Y00001231D02*
X00017431Y00001231D01*
X00017358Y00001239D02*
X00017431Y00001239D01*
X00017358Y00001248D02*
X00017431Y00001248D01*
X00017358Y00001256D02*
X00017431Y00001256D01*
X00017358Y00001265D02*
X00017431Y00001265D01*
X00017358Y00001273D02*
X00017431Y00001273D01*
X00017358Y00001282D02*
X00017431Y00001282D01*
X00017358Y00001291D02*
X00017431Y00001291D01*
X00017358Y00001299D02*
X00017431Y00001299D01*
X00017358Y00001308D02*
X00017431Y00001308D01*
X00017358Y00001316D02*
X00017431Y00001316D01*
X00017358Y00001325D02*
X00017431Y00001325D01*
X00017358Y00001333D02*
X00017431Y00001333D01*
X00017358Y00001342D02*
X00017431Y00001342D01*
X00017358Y00001350D02*
X00017431Y00001350D01*
X00017358Y00001359D02*
X00017431Y00001359D01*
X00017358Y00001368D02*
X00017431Y00001368D01*
X00017358Y00001376D02*
X00017431Y00001376D01*
X00017358Y00001385D02*
X00017431Y00001385D01*
X00017358Y00001393D02*
X00017431Y00001393D01*
X00017358Y00001402D02*
X00017431Y00001402D01*
X00017358Y00001410D02*
X00017431Y00001410D01*
X00017358Y00001419D02*
X00017431Y00001419D01*
X00017358Y00001428D02*
X00017431Y00001428D01*
X00017358Y00001436D02*
X00017431Y00001436D01*
X00017358Y00001445D02*
X00017431Y00001445D01*
X00017358Y00001453D02*
X00017431Y00001453D01*
X00017358Y00001462D02*
X00017431Y00001462D01*
X00017358Y00001470D02*
X00017431Y00001470D01*
X00017358Y00001479D02*
X00017431Y00001479D01*
X00017358Y00001487D02*
X00017431Y00001487D01*
X00017358Y00001496D02*
X00017431Y00001496D01*
X00017358Y00001505D02*
X00017431Y00001505D01*
X00017358Y00001513D02*
X00017431Y00001513D01*
X00017358Y00001522D02*
X00017431Y00001522D01*
X00017358Y00001530D02*
X00017431Y00001530D01*
X00017358Y00001539D02*
X00017431Y00001539D01*
X00017358Y00001547D02*
X00017431Y00001547D01*
X00017358Y00001556D02*
X00017431Y00001556D01*
X00017358Y00001564D02*
X00017431Y00001564D01*
X00017358Y00001573D02*
X00017431Y00001573D01*
X00017358Y00001582D02*
X00017431Y00001582D01*
X00017358Y00001590D02*
X00017431Y00001590D01*
X00017358Y00001599D02*
X00017431Y00001599D01*
X00017358Y00001607D02*
X00017431Y00001607D01*
X00017358Y00001616D02*
X00017431Y00001616D01*
X00017358Y00001624D02*
X00017431Y00001624D01*
X00017358Y00001633D02*
X00017431Y00001633D01*
X00017358Y00001642D02*
X00017431Y00001642D01*
X00017358Y00001650D02*
X00017431Y00001650D01*
X00017358Y00001659D02*
X00017431Y00001659D01*
X00017358Y00001667D02*
X00017431Y00001667D01*
X00017358Y00001676D02*
X00017431Y00001676D01*
X00017358Y00001684D02*
X00017431Y00001684D01*
X00017358Y00001693D02*
X00017431Y00001693D01*
X00017358Y00001701D02*
X00017431Y00001701D01*
X00017358Y00001710D02*
X00017431Y00001710D01*
X00017358Y00001719D02*
X00017431Y00001719D01*
X00017358Y00001727D02*
X00017431Y00001727D01*
X00017358Y00001736D02*
X00017431Y00001736D01*
X00017358Y00001744D02*
X00017431Y00001744D01*
X00017358Y00001753D02*
X00017431Y00001753D01*
X00017358Y00001761D02*
X00017431Y00001761D01*
X00017358Y00001770D02*
X00017431Y00001770D01*
X00017358Y00001778D02*
X00017431Y00001778D01*
X00017358Y00001787D02*
X00017431Y00001787D01*
X00017358Y00001796D02*
X00017431Y00001796D01*
X00017358Y00001804D02*
X00017431Y00001804D01*
X00017358Y00001813D02*
X00017431Y00001813D01*
X00017358Y00001821D02*
X00017431Y00001821D01*
X00017358Y00001830D02*
X00017431Y00001830D01*
X00017358Y00001838D02*
X00017431Y00001838D01*
X00017358Y00001847D02*
X00017431Y00001847D01*
X00017358Y00001856D02*
X00017431Y00001856D01*
X00017358Y00001864D02*
X00017431Y00001864D01*
X00017358Y00001873D02*
X00017431Y00001873D01*
X00017358Y00001881D02*
X00017431Y00001881D01*
X00017358Y00001890D02*
X00017431Y00001890D01*
X00017358Y00001898D02*
X00017431Y00001898D01*
X00017358Y00001907D02*
X00017431Y00001907D01*
X00017358Y00001915D02*
X00017431Y00001915D01*
X00017358Y00001924D02*
X00017431Y00001924D01*
X00017358Y00001933D02*
X00017431Y00001933D01*
X00017358Y00001941D02*
X00017431Y00001941D01*
X00017358Y00001950D02*
X00017431Y00001950D01*
X00017358Y00001958D02*
X00017431Y00001958D01*
X00017358Y00001967D02*
X00017431Y00001967D01*
X00017358Y00001975D02*
X00017431Y00001975D01*
X00017358Y00001984D02*
X00017431Y00001984D01*
X00017358Y00001992D02*
X00017431Y00001992D01*
X00017358Y00002001D02*
X00017431Y00002001D01*
X00017358Y00002010D02*
X00017431Y00002010D01*
X00017358Y00002018D02*
X00017431Y00002018D01*
X00017358Y00002027D02*
X00017431Y00002027D01*
X00017358Y00002035D02*
X00017431Y00002035D01*
X00017358Y00002044D02*
X00017431Y00002044D01*
X00017358Y00002052D02*
X00017431Y00002052D01*
X00017358Y00002061D02*
X00017431Y00002061D01*
X00017358Y00002070D02*
X00017431Y00002070D01*
X00017358Y00002078D02*
X00017431Y00002078D01*
X00017358Y00002087D02*
X00017431Y00002087D01*
X00017358Y00002095D02*
X00017431Y00002095D01*
X00017358Y00002104D02*
X00017431Y00002104D01*
X00017358Y00002112D02*
X00017431Y00002112D01*
X00017358Y00002121D02*
X00017431Y00002121D01*
X00017358Y00002129D02*
X00017431Y00002129D01*
X00017358Y00002138D02*
X00017431Y00002138D01*
X00017358Y00002147D02*
X00017431Y00002147D01*
X00017358Y00002155D02*
X00017431Y00002155D01*
X00017358Y00002164D02*
X00017431Y00002164D01*
X00017358Y00002172D02*
X00017431Y00002172D01*
X00017358Y00002181D02*
X00017431Y00002181D01*
X00017358Y00002189D02*
X00017431Y00002189D01*
X00017358Y00002198D02*
X00017431Y00002198D01*
X00017358Y00002206D02*
X00017431Y00002206D01*
X00017358Y00002215D02*
X00017431Y00002215D01*
X00017358Y00002224D02*
X00017431Y00002224D01*
X00017358Y00002232D02*
X00017431Y00002232D01*
X00017358Y00002241D02*
X00017431Y00002241D01*
X00017358Y00002249D02*
X00017431Y00002249D01*
X00017358Y00002258D02*
X00017431Y00002258D01*
X00017358Y00002266D02*
X00017431Y00002266D01*
X00017358Y00002275D02*
X00017431Y00002275D01*
X00017358Y00002284D02*
X00017431Y00002284D01*
X00017358Y00002292D02*
X00017431Y00002292D01*
X00017358Y00002301D02*
X00017431Y00002301D01*
X00017358Y00002309D02*
X00017431Y00002309D01*
X00017358Y00002318D02*
X00017431Y00002318D01*
X00017358Y00002326D02*
X00017431Y00002326D01*
X00017358Y00002335D02*
X00017431Y00002335D01*
X00017358Y00002343D02*
X00017431Y00002343D01*
X00017358Y00002352D02*
X00017431Y00002352D01*
X00017358Y00002361D02*
X00017431Y00002361D01*
X00017358Y00002369D02*
X00017431Y00002369D01*
X00017358Y00002378D02*
X00017431Y00002378D01*
X00017358Y00002386D02*
X00017431Y00002386D01*
X00017358Y00002395D02*
X00017431Y00002395D01*
X00017358Y00002403D02*
X00017431Y00002403D01*
X00017358Y00002412D02*
X00017431Y00002412D01*
X00017358Y00002420D02*
X00017431Y00002420D01*
X00017358Y00002429D02*
X00017431Y00002429D01*
X00017358Y00002438D02*
X00017431Y00002438D01*
X00017358Y00002446D02*
X00017431Y00002446D01*
X00017358Y00002455D02*
X00017431Y00002455D01*
X00017358Y00002463D02*
X00017431Y00002463D01*
X00017358Y00002472D02*
X00017431Y00002472D01*
X00017358Y00002480D02*
X00017431Y00002480D01*
X00017358Y00002489D02*
X00017431Y00002489D01*
X00017358Y00002498D02*
X00017431Y00002498D01*
X00017358Y00002506D02*
X00017431Y00002506D01*
X00017358Y00002515D02*
X00017431Y00002515D01*
X00017358Y00002523D02*
X00017431Y00002523D01*
X00017358Y00002532D02*
X00017431Y00002532D01*
X00017358Y00002540D02*
X00017431Y00002540D01*
X00017358Y00002549D02*
X00017431Y00002549D01*
X00017358Y00002557D02*
X00017431Y00002557D01*
X00017358Y00002566D02*
X00017431Y00002566D01*
X00017358Y00002575D02*
X00017431Y00002575D01*
X00017358Y00002583D02*
X00017431Y00002583D01*
X00017358Y00002592D02*
X00017431Y00002592D01*
X00017358Y00002600D02*
X00017431Y00002600D01*
X00017358Y00002609D02*
X00017431Y00002609D01*
X00017358Y00002617D02*
X00017431Y00002617D01*
X00017358Y00002626D02*
X00017431Y00002626D01*
X00017358Y00002635D02*
X00017431Y00002635D01*
X00017358Y00002643D02*
X00017431Y00002643D01*
X00017358Y00002652D02*
X00017431Y00002652D01*
X00017358Y00002660D02*
X00017431Y00002660D01*
X00017358Y00002669D02*
X00017431Y00002669D01*
X00017358Y00002677D02*
X00017431Y00002677D01*
X00017358Y00002686D02*
X00017431Y00002686D01*
X00017358Y00002694D02*
X00017431Y00002694D01*
X00017358Y00002703D02*
X00017431Y00002703D01*
X00017358Y00002712D02*
X00017431Y00002712D01*
X00017358Y00002720D02*
X00017431Y00002720D01*
X00017358Y00002729D02*
X00017431Y00002729D01*
X00017358Y00002737D02*
X00017431Y00002737D01*
X00017358Y00002746D02*
X00017431Y00002746D01*
X00017358Y00002754D02*
X00017431Y00002754D01*
X00017358Y00002763D02*
X00017431Y00002763D01*
X00017358Y00002771D02*
X00017431Y00002771D01*
X00017358Y00002780D02*
X00017431Y00002780D01*
X00017358Y00002789D02*
X00017431Y00002789D01*
X00017358Y00002797D02*
X00017431Y00002797D01*
X00017358Y00002806D02*
X00017431Y00002806D01*
X00017358Y00002814D02*
X00017431Y00002814D01*
X00017358Y00002823D02*
X00017431Y00002823D01*
X00017358Y00002831D02*
X00017431Y00002831D01*
X00017358Y00002840D02*
X00017431Y00002840D01*
X00017358Y00002849D02*
X00017431Y00002849D01*
X00017358Y00002857D02*
X00017431Y00002857D01*
X00017358Y00002866D02*
X00017431Y00002866D01*
X00017358Y00002874D02*
X00017431Y00002874D01*
X00017358Y00002883D02*
X00017431Y00002883D01*
X00017358Y00002891D02*
X00017431Y00002891D01*
X00017358Y00002900D02*
X00017431Y00002900D01*
X00017358Y00002908D02*
X00017431Y00002908D01*
X00017358Y00002917D02*
X00017431Y00002917D01*
X00017358Y00002926D02*
X00017431Y00002926D01*
X00017358Y00002934D02*
X00017431Y00002934D01*
X00017358Y00002943D02*
X00017431Y00002943D01*
X00017358Y00002951D02*
X00017431Y00002951D01*
X00017358Y00002960D02*
X00017431Y00002960D01*
X00017358Y00002968D02*
X00017431Y00002968D01*
X00017358Y00002977D02*
X00017431Y00002977D01*
X00017358Y00002985D02*
X00017431Y00002985D01*
X00017358Y00002994D02*
X00017431Y00002994D01*
X00017358Y00003003D02*
X00017431Y00003003D01*
X00017358Y00003011D02*
X00017431Y00003011D01*
X00017358Y00003020D02*
X00017431Y00003020D01*
X00017358Y00003028D02*
X00017431Y00003028D01*
X00017358Y00003037D02*
X00017431Y00003037D01*
X00017358Y00003045D02*
X00017431Y00003045D01*
X00017358Y00003054D02*
X00017431Y00003054D01*
X00017358Y00003063D02*
X00017431Y00003063D01*
X00017358Y00003071D02*
X00017431Y00003071D01*
X00017358Y00003080D02*
X00017431Y00003080D01*
X00017358Y00003088D02*
X00017431Y00003088D01*
X00017358Y00003097D02*
X00017431Y00003097D01*
X00017358Y00003105D02*
X00017431Y00003105D01*
X00017358Y00003114D02*
X00017431Y00003114D01*
X00017358Y00003122D02*
X00017431Y00003122D01*
X00017358Y00003131D02*
X00017431Y00003131D01*
X00017358Y00003140D02*
X00017431Y00003140D01*
X00017358Y00003148D02*
X00017431Y00003148D01*
X00017358Y00003157D02*
X00017431Y00003157D01*
X00017358Y00003165D02*
X00017431Y00003165D01*
X00017358Y00003174D02*
X00017431Y00003174D01*
X00017358Y00003182D02*
X00017431Y00003182D01*
X00017358Y00003191D02*
X00017431Y00003191D01*
X00017358Y00003199D02*
X00017431Y00003199D01*
X00017358Y00003208D02*
X00017431Y00003208D01*
X00017358Y00003217D02*
X00017431Y00003217D01*
X00017358Y00003225D02*
X00017431Y00003225D01*
X00017358Y00003234D02*
X00017431Y00003234D01*
X00017358Y00003242D02*
X00017431Y00003242D01*
X00017358Y00003251D02*
X00017431Y00003251D01*
X00017358Y00003259D02*
X00017431Y00003259D01*
X00017358Y00003268D02*
X00017431Y00003268D01*
X00017358Y00003277D02*
X00017431Y00003277D01*
X00017358Y00003285D02*
X00017431Y00003285D01*
X00017358Y00003294D02*
X00017431Y00003294D01*
X00017358Y00003302D02*
X00017431Y00003302D01*
X00017358Y00003311D02*
X00017431Y00003311D01*
X00017358Y00003319D02*
X00017431Y00003319D01*
X00017358Y00003328D02*
X00017431Y00003328D01*
X00017358Y00003336D02*
X00017431Y00003336D01*
X00017358Y00003345D02*
X00017431Y00003345D01*
X00017358Y00003354D02*
X00017431Y00003354D01*
X00017358Y00003362D02*
X00017431Y00003362D01*
X00017358Y00003371D02*
X00017431Y00003371D01*
X00017358Y00003379D02*
X00017431Y00003379D01*
X00017358Y00003388D02*
X00017431Y00003388D01*
X00017358Y00003396D02*
X00017431Y00003396D01*
X00017358Y00003405D02*
X00017431Y00003405D01*
X00017358Y00003413D02*
X00017431Y00003413D01*
X00017358Y00003422D02*
X00017431Y00003422D01*
X00017358Y00003431D02*
X00017431Y00003431D01*
X00017358Y00003439D02*
X00017431Y00003439D01*
X00017358Y00003448D02*
X00017431Y00003448D01*
X00017358Y00003456D02*
X00017431Y00003456D01*
X00017358Y00003465D02*
X00017431Y00003465D01*
X00017358Y00003473D02*
X00017431Y00003473D01*
X00017358Y00003482D02*
X00017431Y00003482D01*
X00017358Y00003491D02*
X00017431Y00003491D01*
X00017358Y00003499D02*
X00017431Y00003499D01*
X00017358Y00003508D02*
X00017431Y00003508D01*
X00017358Y00003516D02*
X00017431Y00003516D01*
X00017358Y00003525D02*
X00017431Y00003525D01*
X00017358Y00003533D02*
X00017431Y00003533D01*
X00017358Y00003542D02*
X00017431Y00003542D01*
X00017358Y00003550D02*
X00017431Y00003550D01*
X00017358Y00003559D02*
X00017431Y00003559D01*
X00017358Y00003568D02*
X00017431Y00003568D01*
X00017358Y00003576D02*
X00017431Y00003576D01*
X00017358Y00003585D02*
X00017431Y00003585D01*
X00017358Y00003593D02*
X00017431Y00003593D01*
X00017358Y00003602D02*
X00017431Y00003602D01*
X00017358Y00003610D02*
X00017431Y00003610D01*
X00017358Y00003619D02*
X00017431Y00003619D01*
X00017358Y00003627D02*
X00017431Y00003627D01*
X00017358Y00003636D02*
X00017431Y00003636D01*
X00017358Y00003645D02*
X00017431Y00003645D01*
X00017358Y00003653D02*
X00017431Y00003653D01*
X00017358Y00003662D02*
X00017431Y00003662D01*
X00017358Y00003670D02*
X00017431Y00003670D01*
X00017358Y00003679D02*
X00017431Y00003679D01*
X00017358Y00003687D02*
X00017431Y00003687D01*
X00017358Y00003696D02*
X00017431Y00003696D01*
X00017358Y00003705D02*
X00017431Y00003705D01*
X00017358Y00003713D02*
X00017431Y00003713D01*
X00017358Y00003722D02*
X00017431Y00003722D01*
X00017358Y00003730D02*
X00017431Y00003730D01*
X00017358Y00003739D02*
X00017431Y00003739D01*
X00017358Y00003747D02*
X00017431Y00003747D01*
X00017358Y00003756D02*
X00017431Y00003756D01*
X00017358Y00003764D02*
X00017431Y00003764D01*
X00005515Y00003773D02*
X00005643Y00003773D01*
X00017358Y00003773D02*
X00017431Y00003773D01*
X00005489Y00003782D02*
X00005686Y00003782D01*
X00017358Y00003782D02*
X00017431Y00003782D01*
X00005464Y00003790D02*
X00005712Y00003790D01*
X00017358Y00003790D02*
X00017431Y00003790D01*
X00005455Y00003799D02*
X00005738Y00003799D01*
X00017358Y00003799D02*
X00017431Y00003799D01*
X00005438Y00003807D02*
X00005755Y00003807D01*
X00017358Y00003807D02*
X00017431Y00003807D01*
X00005429Y00003816D02*
X00005780Y00003816D01*
X00017358Y00003816D02*
X00017431Y00003816D01*
X00005421Y00003824D02*
X00005798Y00003824D01*
X00017358Y00003824D02*
X00017431Y00003824D01*
X00005412Y00003833D02*
X00005815Y00003833D01*
X00017358Y00003833D02*
X00017431Y00003833D01*
X00005404Y00003841D02*
X00005832Y00003841D01*
X00017358Y00003841D02*
X00017431Y00003841D01*
X00005404Y00003850D02*
X00005849Y00003850D01*
X00017358Y00003850D02*
X00017431Y00003850D01*
X00005395Y00003859D02*
X00005875Y00003859D01*
X00017358Y00003859D02*
X00017431Y00003859D01*
X00005387Y00003867D02*
X00005892Y00003867D01*
X00017358Y00003867D02*
X00017431Y00003867D01*
X00005378Y00003876D02*
X00005917Y00003876D01*
X00017358Y00003876D02*
X00017431Y00003876D01*
X00005370Y00003884D02*
X00005935Y00003884D01*
X00017358Y00003884D02*
X00017431Y00003884D01*
X00005352Y00003893D02*
X00005960Y00003893D01*
X00017358Y00003893D02*
X00017431Y00003893D01*
X00005344Y00003901D02*
X00005986Y00003901D01*
X00017358Y00003901D02*
X00017431Y00003901D01*
X00005335Y00003910D02*
X00006020Y00003910D01*
X00017358Y00003910D02*
X00017431Y00003910D01*
X00005327Y00003919D02*
X00006037Y00003919D01*
X00017358Y00003919D02*
X00017431Y00003919D01*
X00005318Y00003927D02*
X00006080Y00003927D01*
X00017358Y00003927D02*
X00017431Y00003927D01*
X00005318Y00003936D02*
X00006106Y00003936D01*
X00017358Y00003936D02*
X00017431Y00003936D01*
X00005310Y00003944D02*
X00006140Y00003944D01*
X00017358Y00003944D02*
X00017431Y00003944D01*
X00005310Y00003953D02*
X00006174Y00003953D01*
X00017358Y00003953D02*
X00017431Y00003953D01*
X00005301Y00003961D02*
X00006226Y00003961D01*
X00017358Y00003961D02*
X00017431Y00003961D01*
X00005301Y00003970D02*
X00006260Y00003970D01*
X00017358Y00003970D02*
X00017431Y00003970D01*
X00005292Y00003978D02*
X00006311Y00003978D01*
X00017358Y00003978D02*
X00017431Y00003978D01*
X00005275Y00003987D02*
X00006337Y00003987D01*
X00017358Y00003987D02*
X00017431Y00003987D01*
X00005258Y00003996D02*
X00006388Y00003996D01*
X00017358Y00003996D02*
X00017431Y00003996D01*
X00005250Y00004004D02*
X00006422Y00004004D01*
X00017358Y00004004D02*
X00017431Y00004004D01*
X00005250Y00004013D02*
X00006457Y00004013D01*
X00017358Y00004013D02*
X00017431Y00004013D01*
X00005241Y00004021D02*
X00006482Y00004021D01*
X00017358Y00004021D02*
X00017431Y00004021D01*
X00005233Y00004030D02*
X00006508Y00004030D01*
X00017358Y00004030D02*
X00017431Y00004030D01*
X00005224Y00004038D02*
X00006525Y00004038D01*
X00017358Y00004038D02*
X00017431Y00004038D01*
X00005224Y00004047D02*
X00006551Y00004047D01*
X00017358Y00004047D02*
X00017431Y00004047D01*
X00005215Y00004056D02*
X00006568Y00004056D01*
X00017358Y00004056D02*
X00017431Y00004056D01*
X00005215Y00004064D02*
X00006594Y00004064D01*
X00017358Y00004064D02*
X00017431Y00004064D01*
X00005215Y00004073D02*
X00006602Y00004073D01*
X00017358Y00004073D02*
X00017431Y00004073D01*
X00005207Y00004081D02*
X00006619Y00004081D01*
X00017358Y00004081D02*
X00017431Y00004081D01*
X00005207Y00004090D02*
X00006636Y00004090D01*
X00017358Y00004090D02*
X00017431Y00004090D01*
X00005207Y00004098D02*
X00006654Y00004098D01*
X00017358Y00004098D02*
X00017431Y00004098D01*
X00005207Y00004107D02*
X00006671Y00004107D01*
X00017358Y00004107D02*
X00017431Y00004107D01*
X00005198Y00004115D02*
X00006696Y00004115D01*
X00017358Y00004115D02*
X00017431Y00004115D01*
X00005198Y00004124D02*
X00006714Y00004124D01*
X00017358Y00004124D02*
X00017431Y00004124D01*
X00005198Y00004133D02*
X00006731Y00004133D01*
X00017358Y00004133D02*
X00017431Y00004133D01*
X00005198Y00004141D02*
X00006748Y00004141D01*
X00017358Y00004141D02*
X00017431Y00004141D01*
X00005198Y00004150D02*
X00006765Y00004150D01*
X00017358Y00004150D02*
X00017431Y00004150D01*
X00005198Y00004158D02*
X00006782Y00004158D01*
X00017358Y00004158D02*
X00017431Y00004158D01*
X00005198Y00004167D02*
X00006799Y00004167D01*
X00017358Y00004167D02*
X00017431Y00004167D01*
X00005198Y00004175D02*
X00006816Y00004175D01*
X00017358Y00004175D02*
X00017431Y00004175D01*
X00005198Y00004184D02*
X00006825Y00004184D01*
X00017358Y00004184D02*
X00017431Y00004184D01*
X00005198Y00004192D02*
X00006842Y00004192D01*
X00017358Y00004192D02*
X00017431Y00004192D01*
X00005198Y00004201D02*
X00006859Y00004201D01*
X00017358Y00004201D02*
X00017431Y00004201D01*
X00005207Y00004210D02*
X00006868Y00004210D01*
X00017358Y00004210D02*
X00017431Y00004210D01*
X00005207Y00004218D02*
X00006885Y00004218D01*
X00017358Y00004218D02*
X00017431Y00004218D01*
X00005207Y00004227D02*
X00006893Y00004227D01*
X00017358Y00004227D02*
X00017431Y00004227D01*
X00005215Y00004235D02*
X00006910Y00004235D01*
X00017358Y00004235D02*
X00017431Y00004235D01*
X00005215Y00004244D02*
X00006919Y00004244D01*
X00017358Y00004244D02*
X00017431Y00004244D01*
X00005215Y00004252D02*
X00006936Y00004252D01*
X00017358Y00004252D02*
X00017431Y00004252D01*
X00005224Y00004261D02*
X00006945Y00004261D01*
X00017358Y00004261D02*
X00017431Y00004261D01*
X00005233Y00004270D02*
X00006962Y00004270D01*
X00017358Y00004270D02*
X00017431Y00004270D01*
X00005233Y00004278D02*
X00006970Y00004278D01*
X00017358Y00004278D02*
X00017431Y00004278D01*
X00005241Y00004287D02*
X00006987Y00004287D01*
X00017358Y00004287D02*
X00017431Y00004287D01*
X00005250Y00004295D02*
X00006996Y00004295D01*
X00017358Y00004295D02*
X00017431Y00004295D01*
X00005250Y00004304D02*
X00007013Y00004304D01*
X00017358Y00004304D02*
X00017431Y00004304D01*
X00005258Y00004312D02*
X00007022Y00004312D01*
X00017358Y00004312D02*
X00017431Y00004312D01*
X00005267Y00004321D02*
X00007030Y00004321D01*
X00017358Y00004321D02*
X00017431Y00004321D01*
X00005275Y00004329D02*
X00007039Y00004329D01*
X00017358Y00004329D02*
X00017431Y00004329D01*
X00005284Y00004338D02*
X00007056Y00004338D01*
X00017358Y00004338D02*
X00017431Y00004338D01*
X00005292Y00004347D02*
X00007064Y00004347D01*
X00017358Y00004347D02*
X00017431Y00004347D01*
X00005310Y00004355D02*
X00007082Y00004355D01*
X00017358Y00004355D02*
X00017431Y00004355D01*
X00005318Y00004364D02*
X00007090Y00004364D01*
X00017358Y00004364D02*
X00017431Y00004364D01*
X00005335Y00004372D02*
X00007099Y00004372D01*
X00017358Y00004372D02*
X00017431Y00004372D01*
X00005344Y00004381D02*
X00007107Y00004381D01*
X00017358Y00004381D02*
X00017431Y00004381D01*
X00005361Y00004389D02*
X00007124Y00004389D01*
X00017358Y00004389D02*
X00017431Y00004389D01*
X00005378Y00004398D02*
X00007133Y00004398D01*
X00017358Y00004398D02*
X00017431Y00004398D01*
X00005404Y00004406D02*
X00007150Y00004406D01*
X00017358Y00004406D02*
X00017431Y00004406D01*
X00005421Y00004415D02*
X00007150Y00004415D01*
X00017358Y00004415D02*
X00017431Y00004415D01*
X00005438Y00004424D02*
X00007167Y00004424D01*
X00017358Y00004424D02*
X00017431Y00004424D01*
X00005464Y00004432D02*
X00007176Y00004432D01*
X00017358Y00004432D02*
X00017431Y00004432D01*
X00005481Y00004441D02*
X00007193Y00004441D01*
X00017358Y00004441D02*
X00017431Y00004441D01*
X00005506Y00004449D02*
X00007201Y00004449D01*
X00017358Y00004449D02*
X00017431Y00004449D01*
X00005532Y00004458D02*
X00007210Y00004458D01*
X00017358Y00004458D02*
X00017431Y00004458D01*
X00005549Y00004466D02*
X00007219Y00004466D01*
X00017358Y00004466D02*
X00017431Y00004466D01*
X00005575Y00004475D02*
X00007236Y00004475D01*
X00017358Y00004475D02*
X00017431Y00004475D01*
X00005592Y00004484D02*
X00007244Y00004484D01*
X00017358Y00004484D02*
X00017431Y00004484D01*
X00005609Y00004492D02*
X00007253Y00004492D01*
X00017358Y00004492D02*
X00017431Y00004492D01*
X00005626Y00004501D02*
X00007261Y00004501D01*
X00017358Y00004501D02*
X00017431Y00004501D01*
X00005652Y00004509D02*
X00007270Y00004509D01*
X00017358Y00004509D02*
X00017431Y00004509D01*
X00005669Y00004518D02*
X00007287Y00004518D01*
X00017358Y00004518D02*
X00017431Y00004518D01*
X00005686Y00004526D02*
X00007296Y00004526D01*
X00017358Y00004526D02*
X00017431Y00004526D01*
X00005703Y00004535D02*
X00007304Y00004535D01*
X00017358Y00004535D02*
X00017431Y00004535D01*
X00005729Y00004543D02*
X00007313Y00004543D01*
X00017358Y00004543D02*
X00017431Y00004543D01*
X00005738Y00004552D02*
X00007321Y00004552D01*
X00017358Y00004552D02*
X00017431Y00004552D01*
X00005763Y00004561D02*
X00007330Y00004561D01*
X00017358Y00004561D02*
X00017431Y00004561D01*
X00005780Y00004569D02*
X00007347Y00004569D01*
X00017358Y00004569D02*
X00017431Y00004569D01*
X00005798Y00004578D02*
X00007356Y00004578D01*
X00017358Y00004578D02*
X00017431Y00004578D01*
X00005806Y00004586D02*
X00007364Y00004586D01*
X00017358Y00004586D02*
X00017431Y00004586D01*
X00005832Y00004595D02*
X00007373Y00004595D01*
X00017358Y00004595D02*
X00017431Y00004595D01*
X00005849Y00004603D02*
X00007381Y00004603D01*
X00017358Y00004603D02*
X00017431Y00004603D01*
X00005866Y00004612D02*
X00007398Y00004612D01*
X00017358Y00004612D02*
X00017431Y00004612D01*
X00005883Y00004620D02*
X00007407Y00004620D01*
X00017358Y00004620D02*
X00017431Y00004620D01*
X00005900Y00004629D02*
X00007415Y00004629D01*
X00017358Y00004629D02*
X00017431Y00004629D01*
X00005917Y00004638D02*
X00007424Y00004638D01*
X00017358Y00004638D02*
X00017431Y00004638D01*
X00005934Y00004646D02*
X00007441Y00004646D01*
X00017358Y00004646D02*
X00017431Y00004646D01*
X00005943Y00004655D02*
X00007450Y00004655D01*
X00017358Y00004655D02*
X00017431Y00004655D01*
X00005969Y00004663D02*
X00007458Y00004663D01*
X00017358Y00004663D02*
X00017431Y00004663D01*
X00005986Y00004672D02*
X00007467Y00004672D01*
X00017358Y00004672D02*
X00017431Y00004672D01*
X00005994Y00004680D02*
X00007475Y00004680D01*
X00017358Y00004680D02*
X00017431Y00004680D01*
X00006012Y00004689D02*
X00007484Y00004689D01*
X00017358Y00004689D02*
X00017431Y00004689D01*
X00006029Y00004698D02*
X00007493Y00004698D01*
X00017358Y00004698D02*
X00017431Y00004698D01*
X00006046Y00004706D02*
X00007510Y00004706D01*
X00017358Y00004706D02*
X00017431Y00004706D01*
X00006063Y00004715D02*
X00007518Y00004715D01*
X00017358Y00004715D02*
X00017431Y00004715D01*
X00006071Y00004723D02*
X00007527Y00004723D01*
X00017358Y00004723D02*
X00017431Y00004723D01*
X00006097Y00004732D02*
X00007535Y00004732D01*
X00017358Y00004732D02*
X00017431Y00004732D01*
X00006106Y00004740D02*
X00007544Y00004740D01*
X00017358Y00004740D02*
X00017431Y00004740D01*
X00006123Y00004749D02*
X00007552Y00004749D01*
X00017358Y00004749D02*
X00017431Y00004749D01*
X00006140Y00004757D02*
X00007561Y00004757D01*
X00017358Y00004757D02*
X00017431Y00004757D01*
X00006157Y00004766D02*
X00007578Y00004766D01*
X00017358Y00004766D02*
X00017431Y00004766D01*
X00006166Y00004775D02*
X00007587Y00004775D01*
X00017358Y00004775D02*
X00017431Y00004775D01*
X00006183Y00004783D02*
X00007595Y00004783D01*
X00017358Y00004783D02*
X00017431Y00004783D01*
X00006200Y00004792D02*
X00007604Y00004792D01*
X00017358Y00004792D02*
X00017431Y00004792D01*
X00006217Y00004800D02*
X00007621Y00004800D01*
X00017358Y00004800D02*
X00017431Y00004800D01*
X00006226Y00004809D02*
X00007629Y00004809D01*
X00017358Y00004809D02*
X00017431Y00004809D01*
X00006243Y00004817D02*
X00007638Y00004817D01*
X00017358Y00004817D02*
X00017431Y00004817D01*
X00006260Y00004826D02*
X00007647Y00004826D01*
X00017358Y00004826D02*
X00017431Y00004826D01*
X00006277Y00004834D02*
X00007655Y00004834D01*
X00017358Y00004834D02*
X00017431Y00004834D01*
X00006285Y00004843D02*
X00007672Y00004843D01*
X00017358Y00004843D02*
X00017431Y00004843D01*
X00006303Y00004852D02*
X00007681Y00004852D01*
X00017358Y00004852D02*
X00017431Y00004852D01*
X00006320Y00004860D02*
X00007689Y00004860D01*
X00017358Y00004860D02*
X00017431Y00004860D01*
X00006337Y00004869D02*
X00007698Y00004869D01*
X00017358Y00004869D02*
X00017431Y00004869D01*
X00006345Y00004877D02*
X00007715Y00004877D01*
X00017358Y00004877D02*
X00017431Y00004877D01*
X00006362Y00004886D02*
X00007724Y00004886D01*
X00017358Y00004886D02*
X00017431Y00004886D01*
X00006380Y00004894D02*
X00007732Y00004894D01*
X00017358Y00004894D02*
X00017431Y00004894D01*
X00006397Y00004903D02*
X00007741Y00004903D01*
X00017358Y00004903D02*
X00017431Y00004903D01*
X00006414Y00004912D02*
X00007749Y00004912D01*
X00017358Y00004912D02*
X00017431Y00004912D01*
X00006431Y00004920D02*
X00007758Y00004920D01*
X00017358Y00004920D02*
X00017431Y00004920D01*
X00006440Y00004929D02*
X00007766Y00004929D01*
X00017358Y00004929D02*
X00017431Y00004929D01*
X00006457Y00004937D02*
X00007784Y00004937D01*
X00017358Y00004937D02*
X00017431Y00004937D01*
X00006465Y00004946D02*
X00007792Y00004946D01*
X00017358Y00004946D02*
X00017431Y00004946D01*
X00006482Y00004954D02*
X00007801Y00004954D01*
X00017358Y00004954D02*
X00017431Y00004954D01*
X00006491Y00004963D02*
X00007809Y00004963D01*
X00017358Y00004963D02*
X00017431Y00004963D01*
X00005275Y00004971D02*
X00005541Y00004971D01*
X00006508Y00004971D02*
X00007818Y00004971D01*
X00017358Y00004971D02*
X00017431Y00004971D01*
X00005215Y00004980D02*
X00005584Y00004980D01*
X00006517Y00004980D02*
X00007835Y00004980D01*
X00017358Y00004980D02*
X00017431Y00004980D01*
X00005164Y00004989D02*
X00005635Y00004989D01*
X00006534Y00004989D02*
X00007843Y00004989D01*
X00017358Y00004989D02*
X00017431Y00004989D01*
X00005138Y00004997D02*
X00005661Y00004997D01*
X00006542Y00004997D02*
X00007852Y00004997D01*
X00017358Y00004997D02*
X00017431Y00004997D01*
X00005104Y00005006D02*
X00005703Y00005006D01*
X00006559Y00005006D02*
X00007861Y00005006D01*
X00017358Y00005006D02*
X00017431Y00005006D01*
X00005078Y00005014D02*
X00005729Y00005014D01*
X00006568Y00005014D02*
X00007869Y00005014D01*
X00017358Y00005014D02*
X00017431Y00005014D01*
X00005053Y00005023D02*
X00005755Y00005023D01*
X00006576Y00005023D02*
X00007886Y00005023D01*
X00017358Y00005023D02*
X00017431Y00005023D01*
X00005027Y00005031D02*
X00005772Y00005031D01*
X00006585Y00005031D02*
X00007895Y00005031D01*
X00017358Y00005031D02*
X00017431Y00005031D01*
X00005001Y00005040D02*
X00005806Y00005040D01*
X00006594Y00005040D02*
X00007903Y00005040D01*
X00017358Y00005040D02*
X00017431Y00005040D01*
X00004984Y00005048D02*
X00005823Y00005048D01*
X00006602Y00005048D02*
X00007912Y00005048D01*
X00017358Y00005048D02*
X00017431Y00005048D01*
X00004967Y00005057D02*
X00005840Y00005057D01*
X00006611Y00005057D02*
X00007921Y00005057D01*
X00017358Y00005057D02*
X00017431Y00005057D01*
X00004950Y00005066D02*
X00005866Y00005066D01*
X00006619Y00005066D02*
X00007929Y00005066D01*
X00017358Y00005066D02*
X00017431Y00005066D01*
X00004933Y00005074D02*
X00005883Y00005074D01*
X00006636Y00005074D02*
X00007938Y00005074D01*
X00017358Y00005074D02*
X00017431Y00005074D01*
X00004916Y00005083D02*
X00005900Y00005083D01*
X00006645Y00005083D02*
X00007955Y00005083D01*
X00017358Y00005083D02*
X00017431Y00005083D01*
X00004899Y00005091D02*
X00005917Y00005091D01*
X00006654Y00005091D02*
X00007963Y00005091D01*
X00017358Y00005091D02*
X00017431Y00005091D01*
X00004882Y00005100D02*
X00005926Y00005100D01*
X00006662Y00005100D02*
X00007972Y00005100D01*
X00017358Y00005100D02*
X00017431Y00005100D01*
X00004873Y00005108D02*
X00005943Y00005108D01*
X00006679Y00005108D02*
X00007980Y00005108D01*
X00017358Y00005108D02*
X00017431Y00005108D01*
X00004856Y00005117D02*
X00005960Y00005117D01*
X00006688Y00005117D02*
X00007989Y00005117D01*
X00017358Y00005117D02*
X00017431Y00005117D01*
X00004839Y00005126D02*
X00005977Y00005126D01*
X00006696Y00005126D02*
X00008006Y00005126D01*
X00017358Y00005126D02*
X00017431Y00005126D01*
X00004830Y00005134D02*
X00005986Y00005134D01*
X00006705Y00005134D02*
X00008015Y00005134D01*
X00017358Y00005134D02*
X00017431Y00005134D01*
X00004813Y00005143D02*
X00006003Y00005143D01*
X00006713Y00005143D02*
X00008023Y00005143D01*
X00017358Y00005143D02*
X00017431Y00005143D01*
X00004805Y00005151D02*
X00006012Y00005151D01*
X00006722Y00005151D02*
X00008032Y00005151D01*
X00017358Y00005151D02*
X00017431Y00005151D01*
X00004796Y00005160D02*
X00006029Y00005160D01*
X00006739Y00005160D02*
X00008040Y00005160D01*
X00017358Y00005160D02*
X00017431Y00005160D01*
X00004779Y00005168D02*
X00006037Y00005168D01*
X00006748Y00005168D02*
X00008049Y00005168D01*
X00017358Y00005168D02*
X00017431Y00005168D01*
X00004770Y00005177D02*
X00006054Y00005177D01*
X00006756Y00005177D02*
X00008057Y00005177D01*
X00017358Y00005177D02*
X00017431Y00005177D01*
X00004762Y00005185D02*
X00006063Y00005185D01*
X00006765Y00005185D02*
X00008066Y00005185D01*
X00017358Y00005185D02*
X00017431Y00005185D01*
X00004745Y00005194D02*
X00006080Y00005194D01*
X00006773Y00005194D02*
X00008075Y00005194D01*
X00017358Y00005194D02*
X00017431Y00005194D01*
X00004736Y00005203D02*
X00006089Y00005203D01*
X00006782Y00005203D02*
X00008083Y00005203D01*
X00017358Y00005203D02*
X00017431Y00005203D01*
X00004727Y00005211D02*
X00006097Y00005211D01*
X00006791Y00005211D02*
X00008100Y00005211D01*
X00017358Y00005211D02*
X00017431Y00005211D01*
X00004719Y00005220D02*
X00006106Y00005220D01*
X00006808Y00005220D02*
X00008109Y00005220D01*
X00017358Y00005220D02*
X00017431Y00005220D01*
X00004710Y00005228D02*
X00006123Y00005228D01*
X00006816Y00005228D02*
X00008117Y00005228D01*
X00017358Y00005228D02*
X00017431Y00005228D01*
X00004702Y00005237D02*
X00006131Y00005237D01*
X00006825Y00005237D02*
X00008126Y00005237D01*
X00017358Y00005237D02*
X00017431Y00005237D01*
X00004693Y00005245D02*
X00006140Y00005245D01*
X00006833Y00005245D02*
X00008135Y00005245D01*
X00017358Y00005245D02*
X00017431Y00005245D01*
X00004685Y00005254D02*
X00006149Y00005254D01*
X00006842Y00005254D02*
X00008143Y00005254D01*
X00017358Y00005254D02*
X00017431Y00005254D01*
X00004676Y00005262D02*
X00006157Y00005262D01*
X00006850Y00005262D02*
X00008152Y00005262D01*
X00017358Y00005262D02*
X00017431Y00005262D01*
X00004668Y00005271D02*
X00006166Y00005271D01*
X00006859Y00005271D02*
X00008160Y00005271D01*
X00017358Y00005271D02*
X00017431Y00005271D01*
X00004659Y00005280D02*
X00006174Y00005280D01*
X00006876Y00005280D02*
X00008177Y00005280D01*
X00017358Y00005280D02*
X00017431Y00005280D01*
X00004650Y00005288D02*
X00006183Y00005288D01*
X00006885Y00005288D02*
X00008186Y00005288D01*
X00017358Y00005288D02*
X00017431Y00005288D01*
X00004642Y00005297D02*
X00006191Y00005297D01*
X00006893Y00005297D02*
X00008194Y00005297D01*
X00017358Y00005297D02*
X00017431Y00005297D01*
X00004633Y00005305D02*
X00006200Y00005305D01*
X00006902Y00005305D02*
X00008203Y00005305D01*
X00017358Y00005305D02*
X00017431Y00005305D01*
X00004625Y00005314D02*
X00006208Y00005314D01*
X00006910Y00005314D02*
X00008212Y00005314D01*
X00017358Y00005314D02*
X00017431Y00005314D01*
X00004625Y00005322D02*
X00006217Y00005322D01*
X00006919Y00005322D02*
X00008220Y00005322D01*
X00017358Y00005322D02*
X00017431Y00005322D01*
X00004616Y00005331D02*
X00006217Y00005331D01*
X00006927Y00005331D02*
X00008229Y00005331D01*
X00017358Y00005331D02*
X00017431Y00005331D01*
X00004608Y00005340D02*
X00006226Y00005340D01*
X00006936Y00005340D02*
X00008237Y00005340D01*
X00017358Y00005340D02*
X00017431Y00005340D01*
X00004599Y00005348D02*
X00006234Y00005348D01*
X00006953Y00005348D02*
X00008246Y00005348D01*
X00017358Y00005348D02*
X00017431Y00005348D01*
X00004599Y00005357D02*
X00006243Y00005357D01*
X00006962Y00005357D02*
X00008254Y00005357D01*
X00017358Y00005357D02*
X00017431Y00005357D01*
X00004591Y00005365D02*
X00006243Y00005365D01*
X00006970Y00005365D02*
X00008263Y00005365D01*
X00017358Y00005365D02*
X00017431Y00005365D01*
X00004582Y00005374D02*
X00006251Y00005374D01*
X00006979Y00005374D02*
X00008271Y00005374D01*
X00017358Y00005374D02*
X00017431Y00005374D01*
X00004582Y00005382D02*
X00006260Y00005382D01*
X00006987Y00005382D02*
X00008280Y00005382D01*
X00017358Y00005382D02*
X00017431Y00005382D01*
X00004573Y00005391D02*
X00006260Y00005391D01*
X00006996Y00005391D02*
X00008289Y00005391D01*
X00017358Y00005391D02*
X00017431Y00005391D01*
X00004565Y00005399D02*
X00006268Y00005399D01*
X00007005Y00005399D02*
X00008297Y00005399D01*
X00017358Y00005399D02*
X00017431Y00005399D01*
X00004565Y00005408D02*
X00006277Y00005408D01*
X00007013Y00005408D02*
X00008306Y00005408D01*
X00017358Y00005408D02*
X00017431Y00005408D01*
X00004565Y00005417D02*
X00006277Y00005417D01*
X00007022Y00005417D02*
X00008314Y00005417D01*
X00017358Y00005417D02*
X00017431Y00005417D01*
X00004556Y00005425D02*
X00006277Y00005425D01*
X00007030Y00005425D02*
X00008323Y00005425D01*
X00017358Y00005425D02*
X00017431Y00005425D01*
X00004548Y00005434D02*
X00006286Y00005434D01*
X00007039Y00005434D02*
X00008331Y00005434D01*
X00017358Y00005434D02*
X00017431Y00005434D01*
X00004548Y00005442D02*
X00006286Y00005442D01*
X00007047Y00005442D02*
X00008340Y00005442D01*
X00017358Y00005442D02*
X00017431Y00005442D01*
X00004539Y00005451D02*
X00006294Y00005451D01*
X00007056Y00005451D02*
X00008349Y00005451D01*
X00017358Y00005451D02*
X00017431Y00005451D01*
X00004539Y00005459D02*
X00006294Y00005459D01*
X00007064Y00005459D02*
X00008357Y00005459D01*
X00017358Y00005459D02*
X00017431Y00005459D01*
X00004531Y00005468D02*
X00006303Y00005468D01*
X00007073Y00005468D02*
X00008366Y00005468D01*
X00017358Y00005468D02*
X00017431Y00005468D01*
X00004531Y00005477D02*
X00006303Y00005477D01*
X00007082Y00005477D02*
X00008374Y00005477D01*
X00017358Y00005477D02*
X00017431Y00005477D01*
X00004531Y00005485D02*
X00006311Y00005485D01*
X00007090Y00005485D02*
X00008383Y00005485D01*
X00017358Y00005485D02*
X00017431Y00005485D01*
X00004522Y00005494D02*
X00006311Y00005494D01*
X00007099Y00005494D02*
X00008391Y00005494D01*
X00017358Y00005494D02*
X00017431Y00005494D01*
X00004522Y00005502D02*
X00006311Y00005502D01*
X00007107Y00005502D02*
X00008400Y00005502D01*
X00017358Y00005502D02*
X00017431Y00005502D01*
X00004522Y00005511D02*
X00006320Y00005511D01*
X00007116Y00005511D02*
X00008408Y00005511D01*
X00017358Y00005511D02*
X00017431Y00005511D01*
X00004513Y00005519D02*
X00006320Y00005519D01*
X00007124Y00005519D02*
X00008417Y00005519D01*
X00017358Y00005519D02*
X00017431Y00005519D01*
X00004513Y00005528D02*
X00006320Y00005528D01*
X00007133Y00005528D02*
X00008426Y00005528D01*
X00017358Y00005528D02*
X00017431Y00005528D01*
X00004513Y00005536D02*
X00006320Y00005536D01*
X00007133Y00005536D02*
X00008434Y00005536D01*
X00017358Y00005536D02*
X00017431Y00005536D01*
X00004505Y00005545D02*
X00006328Y00005545D01*
X00007141Y00005545D02*
X00008443Y00005545D01*
X00017358Y00005545D02*
X00017431Y00005545D01*
X00004505Y00005554D02*
X00006328Y00005554D01*
X00007150Y00005554D02*
X00008451Y00005554D01*
X00017358Y00005554D02*
X00017431Y00005554D01*
X00004505Y00005562D02*
X00006328Y00005562D01*
X00007159Y00005562D02*
X00008460Y00005562D01*
X00017358Y00005562D02*
X00017431Y00005562D01*
X00004496Y00005571D02*
X00006328Y00005571D01*
X00007167Y00005571D02*
X00008468Y00005571D01*
X00017358Y00005571D02*
X00017431Y00005571D01*
X00004496Y00005579D02*
X00006328Y00005579D01*
X00007176Y00005579D02*
X00008477Y00005579D01*
X00017358Y00005579D02*
X00017431Y00005579D01*
X00004496Y00005588D02*
X00006328Y00005588D01*
X00007184Y00005588D02*
X00008485Y00005588D01*
X00017358Y00005588D02*
X00017431Y00005588D01*
X00004496Y00005596D02*
X00006328Y00005596D01*
X00007193Y00005596D02*
X00008485Y00005596D01*
X00017358Y00005596D02*
X00017431Y00005596D01*
X00004488Y00005605D02*
X00006328Y00005605D01*
X00007201Y00005605D02*
X00008494Y00005605D01*
X00017358Y00005605D02*
X00017431Y00005605D01*
X00004488Y00005613D02*
X00006328Y00005613D01*
X00007210Y00005613D02*
X00008503Y00005613D01*
X00017358Y00005613D02*
X00017431Y00005613D01*
X00004488Y00005622D02*
X00006328Y00005622D01*
X00007219Y00005622D02*
X00008511Y00005622D01*
X00017358Y00005622D02*
X00017431Y00005622D01*
X00004488Y00005631D02*
X00006328Y00005631D01*
X00007227Y00005631D02*
X00008520Y00005631D01*
X00017358Y00005631D02*
X00017431Y00005631D01*
X00004479Y00005639D02*
X00006328Y00005639D01*
X00007227Y00005639D02*
X00008528Y00005639D01*
X00017358Y00005639D02*
X00017431Y00005639D01*
X00004479Y00005648D02*
X00006328Y00005648D01*
X00007236Y00005648D02*
X00008537Y00005648D01*
X00017358Y00005648D02*
X00017431Y00005648D01*
X00004479Y00005656D02*
X00006320Y00005656D01*
X00007244Y00005656D02*
X00008545Y00005656D01*
X00017358Y00005656D02*
X00017431Y00005656D01*
X00004479Y00005665D02*
X00006320Y00005665D01*
X00007253Y00005665D02*
X00008554Y00005665D01*
X00017358Y00005665D02*
X00017431Y00005665D01*
X00004479Y00005673D02*
X00006320Y00005673D01*
X00007261Y00005673D02*
X00008563Y00005673D01*
X00017358Y00005673D02*
X00017431Y00005673D01*
X00004479Y00005682D02*
X00006311Y00005682D01*
X00007270Y00005682D02*
X00008571Y00005682D01*
X00017358Y00005682D02*
X00017431Y00005682D01*
X00004479Y00005691D02*
X00006311Y00005691D01*
X00007278Y00005691D02*
X00008580Y00005691D01*
X00017358Y00005691D02*
X00017431Y00005691D01*
X00004479Y00005699D02*
X00006311Y00005699D01*
X00007278Y00005699D02*
X00008588Y00005699D01*
X00017358Y00005699D02*
X00017431Y00005699D01*
X00004471Y00005708D02*
X00006303Y00005708D01*
X00007287Y00005708D02*
X00008597Y00005708D01*
X00017358Y00005708D02*
X00017431Y00005708D01*
X00004471Y00005716D02*
X00006303Y00005716D01*
X00007296Y00005716D02*
X00008605Y00005716D01*
X00017358Y00005716D02*
X00017431Y00005716D01*
X00004471Y00005725D02*
X00006294Y00005725D01*
X00007304Y00005725D02*
X00008614Y00005725D01*
X00017358Y00005725D02*
X00017431Y00005725D01*
X00004471Y00005733D02*
X00006294Y00005733D01*
X00007313Y00005733D02*
X00008622Y00005733D01*
X00017358Y00005733D02*
X00017431Y00005733D01*
X00004471Y00005742D02*
X00006286Y00005742D01*
X00007321Y00005742D02*
X00008631Y00005742D01*
X00017358Y00005742D02*
X00017431Y00005742D01*
X00004471Y00005750D02*
X00006277Y00005750D01*
X00007321Y00005750D02*
X00008640Y00005750D01*
X00017358Y00005750D02*
X00017431Y00005750D01*
X00004471Y00005759D02*
X00006268Y00005759D01*
X00007330Y00005759D02*
X00008648Y00005759D01*
X00017358Y00005759D02*
X00017431Y00005759D01*
X00004471Y00005768D02*
X00006268Y00005768D01*
X00007338Y00005768D02*
X00008657Y00005768D01*
X00017358Y00005768D02*
X00017431Y00005768D01*
X00004471Y00005776D02*
X00006260Y00005776D01*
X00007347Y00005776D02*
X00008665Y00005776D01*
X00017358Y00005776D02*
X00017431Y00005776D01*
X00004471Y00005785D02*
X00006251Y00005785D01*
X00007355Y00005785D02*
X00008674Y00005785D01*
X00017358Y00005785D02*
X00017431Y00005785D01*
X00004471Y00005793D02*
X00005515Y00005793D01*
X00005661Y00005793D02*
X00006243Y00005793D01*
X00007364Y00005793D02*
X00008682Y00005793D01*
X00017358Y00005793D02*
X00017431Y00005793D01*
X00004471Y00005802D02*
X00005498Y00005802D01*
X00005678Y00005802D02*
X00006234Y00005802D01*
X00007364Y00005802D02*
X00008691Y00005802D01*
X00017358Y00005802D02*
X00017431Y00005802D01*
X00004471Y00005810D02*
X00005481Y00005810D01*
X00005712Y00005810D02*
X00006226Y00005810D01*
X00007373Y00005810D02*
X00008700Y00005810D01*
X00017358Y00005810D02*
X00017431Y00005810D01*
X00004471Y00005819D02*
X00005464Y00005819D01*
X00005729Y00005819D02*
X00006208Y00005819D01*
X00007381Y00005819D02*
X00008708Y00005819D01*
X00017358Y00005819D02*
X00017431Y00005819D01*
X00004471Y00005827D02*
X00005447Y00005827D01*
X00005755Y00005827D02*
X00006200Y00005827D01*
X00007390Y00005827D02*
X00008717Y00005827D01*
X00017358Y00005827D02*
X00017431Y00005827D01*
X00004471Y00005836D02*
X00005429Y00005836D01*
X00005772Y00005836D02*
X00006191Y00005836D01*
X00007398Y00005836D02*
X00008725Y00005836D01*
X00017358Y00005836D02*
X00017431Y00005836D01*
X00004471Y00005845D02*
X00005421Y00005845D01*
X00005798Y00005845D02*
X00006174Y00005845D01*
X00007407Y00005845D02*
X00008742Y00005845D01*
X00017358Y00005845D02*
X00017431Y00005845D01*
X00004471Y00005853D02*
X00005412Y00005853D01*
X00005815Y00005853D02*
X00006166Y00005853D01*
X00007407Y00005853D02*
X00008742Y00005853D01*
X00017358Y00005853D02*
X00017431Y00005853D01*
X00004471Y00005862D02*
X00005412Y00005862D01*
X00005840Y00005862D02*
X00006149Y00005862D01*
X00007415Y00005862D02*
X00008759Y00005862D01*
X00017358Y00005862D02*
X00017431Y00005862D01*
X00004471Y00005870D02*
X00005404Y00005870D01*
X00005857Y00005870D02*
X00006131Y00005870D01*
X00007424Y00005870D02*
X00008768Y00005870D01*
X00017358Y00005870D02*
X00017431Y00005870D01*
X00004471Y00005879D02*
X00005395Y00005879D01*
X00005883Y00005879D02*
X00006114Y00005879D01*
X00007433Y00005879D02*
X00008777Y00005879D01*
X00017358Y00005879D02*
X00017431Y00005879D01*
X00004471Y00005887D02*
X00005395Y00005887D01*
X00005917Y00005887D02*
X00006089Y00005887D01*
X00007441Y00005887D02*
X00008785Y00005887D01*
X00017358Y00005887D02*
X00017431Y00005887D01*
X00004479Y00005896D02*
X00005387Y00005896D01*
X00005969Y00005896D02*
X00006046Y00005896D01*
X00007441Y00005896D02*
X00008794Y00005896D01*
X00017358Y00005896D02*
X00017431Y00005896D01*
X00004479Y00005905D02*
X00005387Y00005905D01*
X00007450Y00005905D02*
X00008802Y00005905D01*
X00017358Y00005905D02*
X00017431Y00005905D01*
X00004479Y00005913D02*
X00005387Y00005913D01*
X00007458Y00005913D02*
X00008811Y00005913D01*
X00017358Y00005913D02*
X00017431Y00005913D01*
X00004479Y00005922D02*
X00005387Y00005922D01*
X00007467Y00005922D02*
X00008819Y00005922D01*
X00017358Y00005922D02*
X00017431Y00005922D01*
X00004479Y00005930D02*
X00005378Y00005930D01*
X00007475Y00005930D02*
X00008828Y00005930D01*
X00017358Y00005930D02*
X00017431Y00005930D01*
X00004479Y00005939D02*
X00005378Y00005939D01*
X00007475Y00005939D02*
X00008836Y00005939D01*
X00017358Y00005939D02*
X00017431Y00005939D01*
X00004479Y00005947D02*
X00005378Y00005947D01*
X00007484Y00005947D02*
X00008845Y00005947D01*
X00017358Y00005947D02*
X00017431Y00005947D01*
X00004479Y00005956D02*
X00005378Y00005956D01*
X00007492Y00005956D02*
X00008854Y00005956D01*
X00017358Y00005956D02*
X00017431Y00005956D01*
X00004479Y00005964D02*
X00005378Y00005964D01*
X00007501Y00005964D02*
X00008862Y00005964D01*
X00017358Y00005964D02*
X00017431Y00005964D01*
X00004479Y00005973D02*
X00005378Y00005973D01*
X00007510Y00005973D02*
X00008871Y00005973D01*
X00017358Y00005973D02*
X00017431Y00005973D01*
X00004488Y00005982D02*
X00005378Y00005982D01*
X00007518Y00005982D02*
X00008879Y00005982D01*
X00017358Y00005982D02*
X00017431Y00005982D01*
X00004488Y00005990D02*
X00005378Y00005990D01*
X00007527Y00005990D02*
X00008888Y00005990D01*
X00017358Y00005990D02*
X00017431Y00005990D01*
X00004488Y00005999D02*
X00005378Y00005999D01*
X00007527Y00005999D02*
X00008888Y00005999D01*
X00017358Y00005999D02*
X00017431Y00005999D01*
X00004488Y00006007D02*
X00005378Y00006007D01*
X00007535Y00006007D02*
X00008896Y00006007D01*
X00017358Y00006007D02*
X00017431Y00006007D01*
X00004488Y00006016D02*
X00005378Y00006016D01*
X00007544Y00006016D02*
X00008905Y00006016D01*
X00017358Y00006016D02*
X00017431Y00006016D01*
X00004496Y00006024D02*
X00005378Y00006024D01*
X00007552Y00006024D02*
X00008905Y00006024D01*
X00017358Y00006024D02*
X00017431Y00006024D01*
X00004496Y00006033D02*
X00005378Y00006033D01*
X00007561Y00006033D02*
X00008914Y00006033D01*
X00017358Y00006033D02*
X00017431Y00006033D01*
X00004496Y00006041D02*
X00005378Y00006041D01*
X00007561Y00006041D02*
X00008914Y00006041D01*
X00017358Y00006041D02*
X00017431Y00006041D01*
X00004496Y00006050D02*
X00005378Y00006050D01*
X00007569Y00006050D02*
X00008922Y00006050D01*
X00017358Y00006050D02*
X00017431Y00006050D01*
X00004496Y00006059D02*
X00005378Y00006059D01*
X00007578Y00006059D02*
X00008922Y00006059D01*
X00017358Y00006059D02*
X00017431Y00006059D01*
X00004496Y00006067D02*
X00005387Y00006067D01*
X00007587Y00006067D02*
X00008922Y00006067D01*
X00017358Y00006067D02*
X00017431Y00006067D01*
X00004505Y00006076D02*
X00005387Y00006076D01*
X00007595Y00006076D02*
X00008922Y00006076D01*
X00017358Y00006076D02*
X00017431Y00006076D01*
X00004505Y00006084D02*
X00005387Y00006084D01*
X00007604Y00006084D02*
X00008922Y00006084D01*
X00017358Y00006084D02*
X00017431Y00006084D01*
X00004505Y00006093D02*
X00005387Y00006093D01*
X00007612Y00006093D02*
X00008922Y00006093D01*
X00017358Y00006093D02*
X00017431Y00006093D01*
X00004513Y00006101D02*
X00005387Y00006101D01*
X00007612Y00006101D02*
X00008931Y00006101D01*
X00017358Y00006101D02*
X00017431Y00006101D01*
X00004513Y00006110D02*
X00005395Y00006110D01*
X00007621Y00006110D02*
X00008931Y00006110D01*
X00017358Y00006110D02*
X00017431Y00006110D01*
X00004513Y00006119D02*
X00005395Y00006119D01*
X00007629Y00006119D02*
X00008931Y00006119D01*
X00017358Y00006119D02*
X00017431Y00006119D01*
X00004513Y00006127D02*
X00005395Y00006127D01*
X00007629Y00006127D02*
X00008931Y00006127D01*
X00017358Y00006127D02*
X00017431Y00006127D01*
X00004522Y00006136D02*
X00005404Y00006136D01*
X00007638Y00006136D02*
X00008931Y00006136D01*
X00017358Y00006136D02*
X00017431Y00006136D01*
X00004522Y00006144D02*
X00005404Y00006144D01*
X00007647Y00006144D02*
X00008931Y00006144D01*
X00017358Y00006144D02*
X00017431Y00006144D01*
X00004522Y00006153D02*
X00005404Y00006153D01*
X00007655Y00006153D02*
X00008931Y00006153D01*
X00017358Y00006153D02*
X00017431Y00006153D01*
X00004531Y00006161D02*
X00005412Y00006161D01*
X00007664Y00006161D02*
X00008931Y00006161D01*
X00017358Y00006161D02*
X00017431Y00006161D01*
X00004531Y00006170D02*
X00005421Y00006170D01*
X00007672Y00006170D02*
X00008931Y00006170D01*
X00017358Y00006170D02*
X00017431Y00006170D01*
X00004531Y00006178D02*
X00005421Y00006178D01*
X00007672Y00006178D02*
X00008931Y00006178D01*
X00017358Y00006178D02*
X00017431Y00006178D01*
X00004531Y00006187D02*
X00005421Y00006187D01*
X00007681Y00006187D02*
X00008931Y00006187D01*
X00017358Y00006187D02*
X00017431Y00006187D01*
X00004539Y00006196D02*
X00005429Y00006196D01*
X00007689Y00006196D02*
X00008931Y00006196D01*
X00017358Y00006196D02*
X00017431Y00006196D01*
X00004539Y00006204D02*
X00005438Y00006204D01*
X00007698Y00006204D02*
X00008931Y00006204D01*
X00017358Y00006204D02*
X00017431Y00006204D01*
X00004548Y00006213D02*
X00005438Y00006213D01*
X00007698Y00006213D02*
X00008931Y00006213D01*
X00017358Y00006213D02*
X00017431Y00006213D01*
X00004548Y00006221D02*
X00005447Y00006221D01*
X00007706Y00006221D02*
X00008931Y00006221D01*
X00017358Y00006221D02*
X00017431Y00006221D01*
X00004548Y00006230D02*
X00005455Y00006230D01*
X00007715Y00006230D02*
X00008939Y00006230D01*
X00017358Y00006230D02*
X00017431Y00006230D01*
X00004556Y00006238D02*
X00005455Y00006238D01*
X00007724Y00006238D02*
X00008939Y00006238D01*
X00017358Y00006238D02*
X00017431Y00006238D01*
X00004556Y00006247D02*
X00005464Y00006247D01*
X00007732Y00006247D02*
X00008939Y00006247D01*
X00017358Y00006247D02*
X00017431Y00006247D01*
X00004556Y00006255D02*
X00005472Y00006255D01*
X00007732Y00006255D02*
X00008939Y00006255D01*
X00017358Y00006255D02*
X00017431Y00006255D01*
X00004565Y00006264D02*
X00005472Y00006264D01*
X00007741Y00006264D02*
X00008939Y00006264D01*
X00017358Y00006264D02*
X00017431Y00006264D01*
X00004565Y00006273D02*
X00005481Y00006273D01*
X00007749Y00006273D02*
X00008939Y00006273D01*
X00017358Y00006273D02*
X00017431Y00006273D01*
X00004565Y00006281D02*
X00005489Y00006281D01*
X00007749Y00006281D02*
X00008939Y00006281D01*
X00017358Y00006281D02*
X00017431Y00006281D01*
X00004573Y00006290D02*
X00005498Y00006290D01*
X00007758Y00006290D02*
X00008948Y00006290D01*
X00017358Y00006290D02*
X00017431Y00006290D01*
X00004573Y00006298D02*
X00005507Y00006298D01*
X00007766Y00006298D02*
X00008948Y00006298D01*
X00017358Y00006298D02*
X00017431Y00006298D01*
X00004582Y00006307D02*
X00005515Y00006307D01*
X00007775Y00006307D02*
X00008948Y00006307D01*
X00017358Y00006307D02*
X00017431Y00006307D01*
X00004582Y00006315D02*
X00005524Y00006315D01*
X00007783Y00006315D02*
X00008948Y00006315D01*
X00017358Y00006315D02*
X00017431Y00006315D01*
X00004591Y00006324D02*
X00005532Y00006324D01*
X00007783Y00006324D02*
X00008948Y00006324D01*
X00017358Y00006324D02*
X00017431Y00006324D01*
X00004591Y00006333D02*
X00005541Y00006333D01*
X00007792Y00006333D02*
X00008948Y00006333D01*
X00017358Y00006333D02*
X00017431Y00006333D01*
X00004591Y00006341D02*
X00005549Y00006341D01*
X00007801Y00006341D02*
X00008948Y00006341D01*
X00017358Y00006341D02*
X00017431Y00006341D01*
X00004599Y00006350D02*
X00005558Y00006350D01*
X00007801Y00006350D02*
X00008956Y00006350D01*
X00017358Y00006350D02*
X00017431Y00006350D01*
X00004599Y00006358D02*
X00005566Y00006358D01*
X00007809Y00006358D02*
X00008956Y00006358D01*
X00017358Y00006358D02*
X00017431Y00006358D01*
X00004599Y00006367D02*
X00005575Y00006367D01*
X00007818Y00006367D02*
X00008956Y00006367D01*
X00017358Y00006367D02*
X00017431Y00006367D01*
X00004608Y00006375D02*
X00005584Y00006375D01*
X00007818Y00006375D02*
X00008965Y00006375D01*
X00017358Y00006375D02*
X00017431Y00006375D01*
X00004616Y00006384D02*
X00005592Y00006384D01*
X00007826Y00006384D02*
X00008965Y00006384D01*
X00017358Y00006384D02*
X00017431Y00006384D01*
X00004616Y00006392D02*
X00005609Y00006392D01*
X00007835Y00006392D02*
X00008973Y00006392D01*
X00017358Y00006392D02*
X00017431Y00006392D01*
X00004625Y00006401D02*
X00005618Y00006401D01*
X00007835Y00006401D02*
X00008973Y00006401D01*
X00017358Y00006401D02*
X00017431Y00006401D01*
X00004625Y00006410D02*
X00005626Y00006410D01*
X00007843Y00006410D02*
X00008973Y00006410D01*
X00017358Y00006410D02*
X00017431Y00006410D01*
X00004633Y00006418D02*
X00005635Y00006418D01*
X00007843Y00006418D02*
X00008982Y00006418D01*
X00017358Y00006418D02*
X00017431Y00006418D01*
X00004633Y00006427D02*
X00005652Y00006427D01*
X00007852Y00006427D02*
X00008982Y00006427D01*
X00017358Y00006427D02*
X00017431Y00006427D01*
X00004633Y00006435D02*
X00005661Y00006435D01*
X00007861Y00006435D02*
X00008991Y00006435D01*
X00017358Y00006435D02*
X00017431Y00006435D01*
X00004642Y00006444D02*
X00005678Y00006444D01*
X00007861Y00006444D02*
X00008991Y00006444D01*
X00017358Y00006444D02*
X00017431Y00006444D01*
X00004650Y00006452D02*
X00005686Y00006452D01*
X00007869Y00006452D02*
X00008991Y00006452D01*
X00017358Y00006452D02*
X00017431Y00006452D01*
X00004650Y00006461D02*
X00005703Y00006461D01*
X00007869Y00006461D02*
X00008999Y00006461D01*
X00017358Y00006461D02*
X00017431Y00006461D01*
X00004659Y00006469D02*
X00005712Y00006469D01*
X00007878Y00006469D02*
X00008999Y00006469D01*
X00017358Y00006469D02*
X00017431Y00006469D01*
X00004659Y00006478D02*
X00005729Y00006478D01*
X00007886Y00006478D02*
X00009008Y00006478D01*
X00017358Y00006478D02*
X00017431Y00006478D01*
X00004668Y00006487D02*
X00005738Y00006487D01*
X00007886Y00006487D02*
X00009008Y00006487D01*
X00017358Y00006487D02*
X00017431Y00006487D01*
X00004668Y00006495D02*
X00005755Y00006495D01*
X00007895Y00006495D02*
X00009016Y00006495D01*
X00017358Y00006495D02*
X00017431Y00006495D01*
X00004668Y00006504D02*
X00005763Y00006504D01*
X00007895Y00006504D02*
X00009016Y00006504D01*
X00017358Y00006504D02*
X00017431Y00006504D01*
X00004676Y00006512D02*
X00005789Y00006512D01*
X00007903Y00006512D02*
X00009025Y00006512D01*
X00017358Y00006512D02*
X00017431Y00006512D01*
X00004685Y00006521D02*
X00005798Y00006521D01*
X00007903Y00006521D02*
X00009025Y00006521D01*
X00017358Y00006521D02*
X00017431Y00006521D01*
X00004685Y00006529D02*
X00005815Y00006529D01*
X00007912Y00006529D02*
X00009033Y00006529D01*
X00017358Y00006529D02*
X00017431Y00006529D01*
X00004693Y00006538D02*
X00005832Y00006538D01*
X00007912Y00006538D02*
X00009033Y00006538D01*
X00017358Y00006538D02*
X00017431Y00006538D01*
X00004702Y00006547D02*
X00005849Y00006547D01*
X00007920Y00006547D02*
X00009042Y00006547D01*
X00017358Y00006547D02*
X00017431Y00006547D01*
X00004702Y00006555D02*
X00005866Y00006555D01*
X00007920Y00006555D02*
X00009042Y00006555D01*
X00017358Y00006555D02*
X00017431Y00006555D01*
X00004710Y00006564D02*
X00005883Y00006564D01*
X00007929Y00006564D02*
X00009050Y00006564D01*
X00017358Y00006564D02*
X00017431Y00006564D01*
X00004710Y00006572D02*
X00005900Y00006572D01*
X00007929Y00006572D02*
X00009050Y00006572D01*
X00017358Y00006572D02*
X00017431Y00006572D01*
X00004719Y00006581D02*
X00005917Y00006581D01*
X00007938Y00006581D02*
X00009059Y00006581D01*
X00017358Y00006581D02*
X00017431Y00006581D01*
X00004719Y00006589D02*
X00005935Y00006589D01*
X00007938Y00006589D02*
X00009068Y00006589D01*
X00017358Y00006589D02*
X00017431Y00006589D01*
X00004727Y00006598D02*
X00005960Y00006598D01*
X00007946Y00006598D02*
X00009068Y00006598D01*
X00017358Y00006598D02*
X00017431Y00006598D01*
X00004736Y00006606D02*
X00005977Y00006606D01*
X00007946Y00006606D02*
X00009076Y00006606D01*
X00017358Y00006606D02*
X00017431Y00006606D01*
X00004736Y00006615D02*
X00005994Y00006615D01*
X00007955Y00006615D02*
X00009085Y00006615D01*
X00017358Y00006615D02*
X00017431Y00006615D01*
X00004745Y00006624D02*
X00006012Y00006624D01*
X00007955Y00006624D02*
X00009085Y00006624D01*
X00017358Y00006624D02*
X00017431Y00006624D01*
X00004753Y00006632D02*
X00006037Y00006632D01*
X00007955Y00006632D02*
X00009093Y00006632D01*
X00017358Y00006632D02*
X00017431Y00006632D01*
X00004753Y00006641D02*
X00006054Y00006641D01*
X00007963Y00006641D02*
X00009102Y00006641D01*
X00017358Y00006641D02*
X00017431Y00006641D01*
X00004762Y00006649D02*
X00006080Y00006649D01*
X00007972Y00006649D02*
X00009102Y00006649D01*
X00017358Y00006649D02*
X00017431Y00006649D01*
X00004770Y00006658D02*
X00006097Y00006658D01*
X00007972Y00006658D02*
X00009110Y00006658D01*
X00017358Y00006658D02*
X00017431Y00006658D01*
X00004770Y00006666D02*
X00006123Y00006666D01*
X00007972Y00006666D02*
X00009119Y00006666D01*
X00017358Y00006666D02*
X00017431Y00006666D01*
X00004779Y00006675D02*
X00006149Y00006675D01*
X00007980Y00006675D02*
X00009128Y00006675D01*
X00017358Y00006675D02*
X00017431Y00006675D01*
X00004787Y00006683D02*
X00006174Y00006683D01*
X00007980Y00006683D02*
X00009136Y00006683D01*
X00017358Y00006683D02*
X00017431Y00006683D01*
X00004787Y00006692D02*
X00006200Y00006692D01*
X00007989Y00006692D02*
X00009145Y00006692D01*
X00017358Y00006692D02*
X00017431Y00006692D01*
X00004796Y00006701D02*
X00006226Y00006701D01*
X00007989Y00006701D02*
X00009153Y00006701D01*
X00017358Y00006701D02*
X00017431Y00006701D01*
X00004805Y00006709D02*
X00006243Y00006709D01*
X00007989Y00006709D02*
X00009162Y00006709D01*
X00017358Y00006709D02*
X00017431Y00006709D01*
X00004805Y00006718D02*
X00006277Y00006718D01*
X00007989Y00006718D02*
X00009170Y00006718D01*
X00009418Y00006718D02*
X00010180Y00006718D01*
X00017358Y00006718D02*
X00017431Y00006718D01*
X00004813Y00006726D02*
X00006303Y00006726D01*
X00007997Y00006726D02*
X00009187Y00006726D01*
X00009213Y00006726D02*
X00010335Y00006726D01*
X00017358Y00006726D02*
X00017431Y00006726D01*
X00004822Y00006735D02*
X00006337Y00006735D01*
X00007997Y00006735D02*
X00010489Y00006735D01*
X00017358Y00006735D02*
X00017431Y00006735D01*
X00004830Y00006743D02*
X00006363Y00006743D01*
X00007997Y00006743D02*
X00010574Y00006743D01*
X00017358Y00006743D02*
X00017431Y00006743D01*
X00004830Y00006752D02*
X00006405Y00006752D01*
X00007997Y00006752D02*
X00010677Y00006752D01*
X00017358Y00006752D02*
X00017431Y00006752D01*
X00004839Y00006761D02*
X00006431Y00006761D01*
X00008006Y00006761D02*
X00010737Y00006761D01*
X00017358Y00006761D02*
X00017431Y00006761D01*
X00004847Y00006769D02*
X00006465Y00006769D01*
X00008006Y00006769D02*
X00010814Y00006769D01*
X00017358Y00006769D02*
X00017431Y00006769D01*
X00004856Y00006778D02*
X00006491Y00006778D01*
X00008006Y00006778D02*
X00010874Y00006778D01*
X00017358Y00006778D02*
X00017431Y00006778D01*
X00004856Y00006786D02*
X00006534Y00006786D01*
X00008006Y00006786D02*
X00010934Y00006786D01*
X00017358Y00006786D02*
X00017431Y00006786D01*
X00004864Y00006795D02*
X00006568Y00006795D01*
X00008006Y00006795D02*
X00010977Y00006795D01*
X00017358Y00006795D02*
X00017431Y00006795D01*
X00004873Y00006803D02*
X00006619Y00006803D01*
X00008015Y00006803D02*
X00011036Y00006803D01*
X00017358Y00006803D02*
X00017431Y00006803D01*
X00004882Y00006812D02*
X00006662Y00006812D01*
X00008015Y00006812D02*
X00011071Y00006812D01*
X00017358Y00006812D02*
X00017431Y00006812D01*
X00004882Y00006820D02*
X00006722Y00006820D01*
X00008015Y00006820D02*
X00011122Y00006820D01*
X00017358Y00006820D02*
X00017431Y00006820D01*
X00004890Y00006829D02*
X00006765Y00006829D01*
X00008015Y00006829D02*
X00011156Y00006829D01*
X00017358Y00006829D02*
X00017431Y00006829D01*
X00004899Y00006838D02*
X00006833Y00006838D01*
X00008023Y00006838D02*
X00011208Y00006838D01*
X00017358Y00006838D02*
X00017431Y00006838D01*
X00004907Y00006846D02*
X00006893Y00006846D01*
X00008023Y00006846D02*
X00011242Y00006846D01*
X00017358Y00006846D02*
X00017431Y00006846D01*
X00004916Y00006855D02*
X00007005Y00006855D01*
X00008015Y00006855D02*
X00011285Y00006855D01*
X00017358Y00006855D02*
X00017431Y00006855D01*
X00004924Y00006863D02*
X00007099Y00006863D01*
X00007920Y00006863D02*
X00011319Y00006863D01*
X00017358Y00006863D02*
X00017431Y00006863D01*
X00004924Y00006872D02*
X00007287Y00006872D01*
X00007741Y00006872D02*
X00011370Y00006872D01*
X00017358Y00006872D02*
X00017431Y00006872D01*
X00004933Y00006880D02*
X00011405Y00006880D01*
X00017358Y00006880D02*
X00017431Y00006880D01*
X00004941Y00006889D02*
X00011447Y00006889D01*
X00017358Y00006889D02*
X00017431Y00006889D01*
X00004950Y00006898D02*
X00011482Y00006898D01*
X00017358Y00006898D02*
X00017431Y00006898D01*
X00004959Y00006906D02*
X00011533Y00006906D01*
X00017358Y00006906D02*
X00017431Y00006906D01*
X00004959Y00006915D02*
X00011567Y00006915D01*
X00017358Y00006915D02*
X00017431Y00006915D01*
X00004967Y00006923D02*
X00011601Y00006923D01*
X00017358Y00006923D02*
X00017431Y00006923D01*
X00004976Y00006932D02*
X00011636Y00006932D01*
X00017358Y00006932D02*
X00017431Y00006932D01*
X00004993Y00006940D02*
X00011687Y00006940D01*
X00017358Y00006940D02*
X00017431Y00006940D01*
X00004993Y00006949D02*
X00011713Y00006949D01*
X00017358Y00006949D02*
X00017431Y00006949D01*
X00005001Y00006957D02*
X00011756Y00006957D01*
X00017358Y00006957D02*
X00017431Y00006957D01*
X00005010Y00006966D02*
X00011790Y00006966D01*
X00017358Y00006966D02*
X00017431Y00006966D01*
X00005019Y00006975D02*
X00011833Y00006975D01*
X00017358Y00006975D02*
X00017431Y00006975D01*
X00005027Y00006983D02*
X00011858Y00006983D01*
X00017358Y00006983D02*
X00017431Y00006983D01*
X00005036Y00006992D02*
X00011901Y00006992D01*
X00017358Y00006992D02*
X00017431Y00006992D01*
X00005044Y00007000D02*
X00011918Y00007000D01*
X00017358Y00007000D02*
X00017431Y00007000D01*
X00005053Y00007009D02*
X00011978Y00007009D01*
X00017358Y00007009D02*
X00017431Y00007009D01*
X00005061Y00007017D02*
X00012021Y00007017D01*
X00017358Y00007017D02*
X00017431Y00007017D01*
X00005070Y00007026D02*
X00012072Y00007026D01*
X00017358Y00007026D02*
X00017431Y00007026D01*
X00005078Y00007034D02*
X00012106Y00007034D01*
X00017358Y00007034D02*
X00017431Y00007034D01*
X00005087Y00007043D02*
X00012141Y00007043D01*
X00017358Y00007043D02*
X00017431Y00007043D01*
X00005096Y00007052D02*
X00012175Y00007052D01*
X00017358Y00007052D02*
X00017431Y00007052D01*
X00005113Y00007060D02*
X00012218Y00007060D01*
X00017358Y00007060D02*
X00017431Y00007060D01*
X00005121Y00007069D02*
X00012243Y00007069D01*
X00017358Y00007069D02*
X00017431Y00007069D01*
X00005130Y00007077D02*
X00012278Y00007077D01*
X00017358Y00007077D02*
X00017431Y00007077D01*
X00005138Y00007086D02*
X00012303Y00007086D01*
X00017358Y00007086D02*
X00017431Y00007086D01*
X00005147Y00007094D02*
X00012346Y00007094D01*
X00017358Y00007094D02*
X00017431Y00007094D01*
X00005155Y00007103D02*
X00012372Y00007103D01*
X00017358Y00007103D02*
X00017431Y00007103D01*
X00005164Y00007112D02*
X00012406Y00007112D01*
X00017358Y00007112D02*
X00017431Y00007112D01*
X00005181Y00007120D02*
X00012432Y00007120D01*
X00017358Y00007120D02*
X00017431Y00007120D01*
X00005190Y00007129D02*
X00012457Y00007129D01*
X00017358Y00007129D02*
X00017431Y00007129D01*
X00005198Y00007137D02*
X00012492Y00007137D01*
X00017358Y00007137D02*
X00017431Y00007137D01*
X00005207Y00007146D02*
X00012517Y00007146D01*
X00017358Y00007146D02*
X00017431Y00007146D01*
X00005215Y00007154D02*
X00012543Y00007154D01*
X00017358Y00007154D02*
X00017431Y00007154D01*
X00005233Y00007163D02*
X00012569Y00007163D01*
X00017358Y00007163D02*
X00017431Y00007163D01*
X00005241Y00007171D02*
X00012594Y00007171D01*
X00017358Y00007171D02*
X00017431Y00007171D01*
X00005250Y00007180D02*
X00012620Y00007180D01*
X00017358Y00007180D02*
X00017431Y00007180D01*
X00005267Y00007189D02*
X00012646Y00007189D01*
X00017358Y00007189D02*
X00017431Y00007189D01*
X00005275Y00007197D02*
X00012671Y00007197D01*
X00017358Y00007197D02*
X00017431Y00007197D01*
X00005284Y00007206D02*
X00012697Y00007206D01*
X00017358Y00007206D02*
X00017431Y00007206D01*
X00005301Y00007214D02*
X00012714Y00007214D01*
X00017358Y00007214D02*
X00017431Y00007214D01*
X00005310Y00007223D02*
X00012731Y00007223D01*
X00017358Y00007223D02*
X00017431Y00007223D01*
X00005327Y00007231D02*
X00012766Y00007231D01*
X00017358Y00007231D02*
X00017431Y00007231D01*
X00005335Y00007240D02*
X00012783Y00007240D01*
X00017358Y00007240D02*
X00017431Y00007240D01*
X00005344Y00007248D02*
X00012808Y00007248D01*
X00017358Y00007248D02*
X00017431Y00007248D01*
X00005361Y00007257D02*
X00012826Y00007257D01*
X00017358Y00007257D02*
X00017431Y00007257D01*
X00005370Y00007266D02*
X00012851Y00007266D01*
X00017358Y00007266D02*
X00017431Y00007266D01*
X00005378Y00007274D02*
X00012868Y00007274D01*
X00017358Y00007274D02*
X00017431Y00007274D01*
X00005395Y00007283D02*
X00012894Y00007283D01*
X00017358Y00007283D02*
X00017431Y00007283D01*
X00005404Y00007291D02*
X00012903Y00007291D01*
X00017358Y00007291D02*
X00017431Y00007291D01*
X00005421Y00007300D02*
X00012928Y00007300D01*
X00017358Y00007300D02*
X00017431Y00007300D01*
X00005429Y00007308D02*
X00012945Y00007308D01*
X00017358Y00007308D02*
X00017431Y00007308D01*
X00005455Y00007317D02*
X00012971Y00007317D01*
X00017358Y00007317D02*
X00017431Y00007317D01*
X00005464Y00007326D02*
X00012988Y00007326D01*
X00017358Y00007326D02*
X00017431Y00007326D01*
X00005481Y00007334D02*
X00013005Y00007334D01*
X00017358Y00007334D02*
X00017431Y00007334D01*
X00005489Y00007343D02*
X00013022Y00007343D01*
X00017358Y00007343D02*
X00017431Y00007343D01*
X00005506Y00007351D02*
X00013048Y00007351D01*
X00017358Y00007351D02*
X00017431Y00007351D01*
X00005524Y00007360D02*
X00013065Y00007360D01*
X00017358Y00007360D02*
X00017431Y00007360D01*
X00005541Y00007368D02*
X00013082Y00007368D01*
X00017358Y00007368D02*
X00017431Y00007368D01*
X00005549Y00007377D02*
X00013099Y00007377D01*
X00017358Y00007377D02*
X00017431Y00007377D01*
X00005566Y00007385D02*
X00013125Y00007385D01*
X00017358Y00007385D02*
X00017431Y00007385D01*
X00005584Y00007394D02*
X00013134Y00007394D01*
X00017358Y00007394D02*
X00017431Y00007394D01*
X00005601Y00007403D02*
X00013159Y00007403D01*
X00017358Y00007403D02*
X00017431Y00007403D01*
X00005618Y00007411D02*
X00013177Y00007411D01*
X00017358Y00007411D02*
X00017431Y00007411D01*
X00005635Y00007420D02*
X00013194Y00007420D01*
X00017358Y00007420D02*
X00017431Y00007420D01*
X00005652Y00007428D02*
X00013211Y00007428D01*
X00017358Y00007428D02*
X00017431Y00007428D01*
X00005678Y00007437D02*
X00013228Y00007437D01*
X00017358Y00007437D02*
X00017431Y00007437D01*
X00005686Y00007445D02*
X00013245Y00007445D01*
X00017358Y00007445D02*
X00017431Y00007445D01*
X00005712Y00007454D02*
X00013262Y00007454D01*
X00017358Y00007454D02*
X00017431Y00007454D01*
X00005729Y00007462D02*
X00013279Y00007462D01*
X00017358Y00007462D02*
X00017431Y00007462D01*
X00005755Y00007471D02*
X00013296Y00007471D01*
X00017358Y00007471D02*
X00017431Y00007471D01*
X00005772Y00007480D02*
X00013305Y00007480D01*
X00017358Y00007480D02*
X00017431Y00007480D01*
X00005772Y00007488D02*
X00013331Y00007488D01*
X00017358Y00007488D02*
X00017431Y00007488D01*
X00005772Y00007497D02*
X00013339Y00007497D01*
X00017358Y00007497D02*
X00017431Y00007497D01*
X00005763Y00007505D02*
X00013356Y00007505D01*
X00017358Y00007505D02*
X00017431Y00007505D01*
X00005763Y00007514D02*
X00013373Y00007514D01*
X00017358Y00007514D02*
X00017431Y00007514D01*
X00005763Y00007522D02*
X00013391Y00007522D01*
X00017358Y00007522D02*
X00017431Y00007522D01*
X00005755Y00007531D02*
X00013399Y00007531D01*
X00017358Y00007531D02*
X00017431Y00007531D01*
X00005755Y00007540D02*
X00013416Y00007540D01*
X00017358Y00007540D02*
X00017431Y00007540D01*
X00005755Y00007548D02*
X00013433Y00007548D01*
X00017358Y00007548D02*
X00017431Y00007548D01*
X00005746Y00007557D02*
X00013450Y00007557D01*
X00017358Y00007557D02*
X00017431Y00007557D01*
X00005746Y00007565D02*
X00013468Y00007565D01*
X00017358Y00007565D02*
X00017431Y00007565D01*
X00005746Y00007574D02*
X00013485Y00007574D01*
X00017358Y00007574D02*
X00017431Y00007574D01*
X00005746Y00007582D02*
X00013493Y00007582D01*
X00017358Y00007582D02*
X00017431Y00007582D01*
X00005738Y00007591D02*
X00013510Y00007591D01*
X00017358Y00007591D02*
X00017431Y00007591D01*
X00005738Y00007599D02*
X00013527Y00007599D01*
X00017358Y00007599D02*
X00017431Y00007599D01*
X00005738Y00007608D02*
X00013536Y00007608D01*
X00017358Y00007608D02*
X00017431Y00007608D01*
X00005738Y00007617D02*
X00013553Y00007617D01*
X00017358Y00007617D02*
X00017431Y00007617D01*
X00005729Y00007625D02*
X00013570Y00007625D01*
X00017358Y00007625D02*
X00017431Y00007625D01*
X00005729Y00007634D02*
X00013579Y00007634D01*
X00017358Y00007634D02*
X00017431Y00007634D01*
X00005729Y00007642D02*
X00013596Y00007642D01*
X00017358Y00007642D02*
X00017431Y00007642D01*
X00005729Y00007651D02*
X00013613Y00007651D01*
X00017358Y00007651D02*
X00017431Y00007651D01*
X00005729Y00007659D02*
X00013622Y00007659D01*
X00017358Y00007659D02*
X00017431Y00007659D01*
X00005729Y00007668D02*
X00013639Y00007668D01*
X00017358Y00007668D02*
X00017431Y00007668D01*
X00005729Y00007676D02*
X00013647Y00007676D01*
X00017358Y00007676D02*
X00017431Y00007676D01*
X00005720Y00007685D02*
X00013664Y00007685D01*
X00017358Y00007685D02*
X00017431Y00007685D01*
X00005720Y00007694D02*
X00013673Y00007694D01*
X00017358Y00007694D02*
X00017431Y00007694D01*
X00005720Y00007702D02*
X00013690Y00007702D01*
X00017358Y00007702D02*
X00017431Y00007702D01*
X00005720Y00007711D02*
X00013707Y00007711D01*
X00017358Y00007711D02*
X00017431Y00007711D01*
X00005720Y00007719D02*
X00013716Y00007719D01*
X00017358Y00007719D02*
X00017431Y00007719D01*
X00005720Y00007728D02*
X00013733Y00007728D01*
X00017358Y00007728D02*
X00017431Y00007728D01*
X00005720Y00007736D02*
X00013741Y00007736D01*
X00017358Y00007736D02*
X00017431Y00007736D01*
X00005720Y00007745D02*
X00013759Y00007745D01*
X00017358Y00007745D02*
X00017431Y00007745D01*
X00005720Y00007754D02*
X00013767Y00007754D01*
X00017358Y00007754D02*
X00017431Y00007754D01*
X00005720Y00007762D02*
X00013784Y00007762D01*
X00017358Y00007762D02*
X00017431Y00007762D01*
X00005720Y00007771D02*
X00013793Y00007771D01*
X00017358Y00007771D02*
X00017431Y00007771D01*
X00005720Y00007779D02*
X00013810Y00007779D01*
X00017358Y00007779D02*
X00017431Y00007779D01*
X00005720Y00007788D02*
X00013819Y00007788D01*
X00017358Y00007788D02*
X00017431Y00007788D01*
X00005720Y00007796D02*
X00013827Y00007796D01*
X00017358Y00007796D02*
X00017431Y00007796D01*
X00005720Y00007805D02*
X00013844Y00007805D01*
X00017358Y00007805D02*
X00017431Y00007805D01*
X00005720Y00007813D02*
X00013853Y00007813D01*
X00017358Y00007813D02*
X00017431Y00007813D01*
X00005720Y00007822D02*
X00013870Y00007822D01*
X00017358Y00007822D02*
X00017431Y00007822D01*
X00005720Y00007831D02*
X00013878Y00007831D01*
X00017358Y00007831D02*
X00017431Y00007831D01*
X00005720Y00007839D02*
X00013887Y00007839D01*
X00017358Y00007839D02*
X00017431Y00007839D01*
X00005720Y00007848D02*
X00013904Y00007848D01*
X00017358Y00007848D02*
X00017431Y00007848D01*
X00005720Y00007856D02*
X00013913Y00007856D01*
X00017358Y00007856D02*
X00017431Y00007856D01*
X00005720Y00007865D02*
X00013921Y00007865D01*
X00017358Y00007865D02*
X00017431Y00007865D01*
X00005720Y00007873D02*
X00013938Y00007873D01*
X00017358Y00007873D02*
X00017431Y00007873D01*
X00005720Y00007882D02*
X00013947Y00007882D01*
X00017358Y00007882D02*
X00017431Y00007882D01*
X00005720Y00007890D02*
X00013955Y00007890D01*
X00017358Y00007890D02*
X00017431Y00007890D01*
X00005720Y00007899D02*
X00013964Y00007899D01*
X00017358Y00007899D02*
X00017431Y00007899D01*
X00005720Y00007908D02*
X00013981Y00007908D01*
X00017358Y00007908D02*
X00017431Y00007908D01*
X00005720Y00007916D02*
X00013990Y00007916D01*
X00017358Y00007916D02*
X00017431Y00007916D01*
X00005729Y00007925D02*
X00013998Y00007925D01*
X00017358Y00007925D02*
X00017431Y00007925D01*
X00005729Y00007933D02*
X00014015Y00007933D01*
X00017358Y00007933D02*
X00017431Y00007933D01*
X00005729Y00007942D02*
X00014024Y00007942D01*
X00017358Y00007942D02*
X00017431Y00007942D01*
X00005729Y00007950D02*
X00014033Y00007950D01*
X00017358Y00007950D02*
X00017431Y00007950D01*
X00005729Y00007959D02*
X00014041Y00007959D01*
X00017358Y00007959D02*
X00017431Y00007959D01*
X00005729Y00007968D02*
X00014050Y00007968D01*
X00017358Y00007968D02*
X00017431Y00007968D01*
X00005729Y00007976D02*
X00014067Y00007976D01*
X00017358Y00007976D02*
X00017431Y00007976D01*
X00005729Y00007985D02*
X00014075Y00007985D01*
X00017358Y00007985D02*
X00017431Y00007985D01*
X00005729Y00007993D02*
X00014084Y00007993D01*
X00017358Y00007993D02*
X00017431Y00007993D01*
X00005738Y00008002D02*
X00014092Y00008002D01*
X00017358Y00008002D02*
X00017431Y00008002D01*
X00005738Y00008010D02*
X00014101Y00008010D01*
X00017358Y00008010D02*
X00017431Y00008010D01*
X00005738Y00008019D02*
X00014118Y00008019D01*
X00017358Y00008019D02*
X00017431Y00008019D01*
X00005738Y00008027D02*
X00014127Y00008027D01*
X00017358Y00008027D02*
X00017431Y00008027D01*
X00005738Y00008036D02*
X00014135Y00008036D01*
X00017358Y00008036D02*
X00017431Y00008036D01*
X00005746Y00008045D02*
X00014144Y00008045D01*
X00017358Y00008045D02*
X00017431Y00008045D01*
X00005746Y00008053D02*
X00014152Y00008053D01*
X00017358Y00008053D02*
X00017431Y00008053D01*
X00005746Y00008062D02*
X00014161Y00008062D01*
X00017358Y00008062D02*
X00017431Y00008062D01*
X00005746Y00008070D02*
X00014170Y00008070D01*
X00017358Y00008070D02*
X00017431Y00008070D01*
X00005746Y00008079D02*
X00014178Y00008079D01*
X00017358Y00008079D02*
X00017431Y00008079D01*
X00005755Y00008087D02*
X00014187Y00008087D01*
X00017358Y00008087D02*
X00017431Y00008087D01*
X00005755Y00008096D02*
X00014195Y00008096D01*
X00017358Y00008096D02*
X00017431Y00008096D01*
X00005755Y00008105D02*
X00014212Y00008105D01*
X00017358Y00008105D02*
X00017431Y00008105D01*
X00005763Y00008113D02*
X00014221Y00008113D01*
X00017358Y00008113D02*
X00017431Y00008113D01*
X00005763Y00008122D02*
X00014229Y00008122D01*
X00017358Y00008122D02*
X00017431Y00008122D01*
X00005763Y00008130D02*
X00014238Y00008130D01*
X00017358Y00008130D02*
X00017431Y00008130D01*
X00005763Y00008139D02*
X00014247Y00008139D01*
X00017358Y00008139D02*
X00017431Y00008139D01*
X00005772Y00008147D02*
X00014255Y00008147D01*
X00017358Y00008147D02*
X00017431Y00008147D01*
X00005772Y00008156D02*
X00014264Y00008156D01*
X00017358Y00008156D02*
X00017431Y00008156D01*
X00005772Y00008164D02*
X00014272Y00008164D01*
X00017358Y00008164D02*
X00017431Y00008164D01*
X00005780Y00008173D02*
X00014281Y00008173D01*
X00017358Y00008173D02*
X00017431Y00008173D01*
X00005780Y00008182D02*
X00014289Y00008182D01*
X00017358Y00008182D02*
X00017431Y00008182D01*
X00005780Y00008190D02*
X00014298Y00008190D01*
X00017358Y00008190D02*
X00017431Y00008190D01*
X00005789Y00008199D02*
X00014306Y00008199D01*
X00017358Y00008199D02*
X00017431Y00008199D01*
X00005789Y00008207D02*
X00014306Y00008207D01*
X00017358Y00008207D02*
X00017431Y00008207D01*
X00005789Y00008216D02*
X00014324Y00008216D01*
X00017358Y00008216D02*
X00017431Y00008216D01*
X00005798Y00008224D02*
X00014324Y00008224D01*
X00017358Y00008224D02*
X00017431Y00008224D01*
X00005798Y00008233D02*
X00014332Y00008233D01*
X00017358Y00008233D02*
X00017431Y00008233D01*
X00005798Y00008241D02*
X00014341Y00008241D01*
X00017358Y00008241D02*
X00017431Y00008241D01*
X00005806Y00008250D02*
X00014349Y00008250D01*
X00017358Y00008250D02*
X00017431Y00008250D01*
X00005806Y00008259D02*
X00014358Y00008259D01*
X00017358Y00008259D02*
X00017431Y00008259D01*
X00005815Y00008267D02*
X00014366Y00008267D01*
X00017358Y00008267D02*
X00017431Y00008267D01*
X00005815Y00008276D02*
X00014375Y00008276D01*
X00017358Y00008276D02*
X00017431Y00008276D01*
X00005815Y00008284D02*
X00014384Y00008284D01*
X00017358Y00008284D02*
X00017431Y00008284D01*
X00005823Y00008293D02*
X00014392Y00008293D01*
X00017358Y00008293D02*
X00017431Y00008293D01*
X00005823Y00008301D02*
X00014401Y00008301D01*
X00017358Y00008301D02*
X00017431Y00008301D01*
X00005832Y00008310D02*
X00014409Y00008310D01*
X00017358Y00008310D02*
X00017431Y00008310D01*
X00005832Y00008319D02*
X00014409Y00008319D01*
X00017358Y00008319D02*
X00017431Y00008319D01*
X00005832Y00008327D02*
X00014418Y00008327D01*
X00017358Y00008327D02*
X00017431Y00008327D01*
X00005840Y00008336D02*
X00014426Y00008336D01*
X00017358Y00008336D02*
X00017431Y00008336D01*
X00005840Y00008344D02*
X00014435Y00008344D01*
X00017358Y00008344D02*
X00017431Y00008344D01*
X00005849Y00008353D02*
X00014443Y00008353D01*
X00017358Y00008353D02*
X00017431Y00008353D01*
X00005849Y00008361D02*
X00014443Y00008361D01*
X00017358Y00008361D02*
X00017431Y00008361D01*
X00005849Y00008370D02*
X00014452Y00008370D01*
X00017358Y00008370D02*
X00017431Y00008370D01*
X00005857Y00008378D02*
X00014461Y00008378D01*
X00017358Y00008378D02*
X00017431Y00008378D01*
X00005866Y00008387D02*
X00014469Y00008387D01*
X00017358Y00008387D02*
X00017431Y00008387D01*
X00005866Y00008396D02*
X00014478Y00008396D01*
X00017358Y00008396D02*
X00017431Y00008396D01*
X00005866Y00008404D02*
X00014486Y00008404D01*
X00017358Y00008404D02*
X00017431Y00008404D01*
X00005875Y00008413D02*
X00014495Y00008413D01*
X00017358Y00008413D02*
X00017431Y00008413D01*
X00005875Y00008421D02*
X00014495Y00008421D01*
X00017358Y00008421D02*
X00017431Y00008421D01*
X00005883Y00008430D02*
X00014503Y00008430D01*
X00017358Y00008430D02*
X00017431Y00008430D01*
X00005883Y00008438D02*
X00014512Y00008438D01*
X00017358Y00008438D02*
X00017431Y00008438D01*
X00005892Y00008447D02*
X00014512Y00008447D01*
X00017358Y00008447D02*
X00017431Y00008447D01*
X00005892Y00008455D02*
X00014520Y00008455D01*
X00017358Y00008455D02*
X00017431Y00008455D01*
X00005900Y00008464D02*
X00014529Y00008464D01*
X00017358Y00008464D02*
X00017431Y00008464D01*
X00005900Y00008473D02*
X00014538Y00008473D01*
X00017358Y00008473D02*
X00017431Y00008473D01*
X00005909Y00008481D02*
X00014538Y00008481D01*
X00017358Y00008481D02*
X00017431Y00008481D01*
X00005909Y00008490D02*
X00014546Y00008490D01*
X00017358Y00008490D02*
X00017431Y00008490D01*
X00005917Y00008498D02*
X00014555Y00008498D01*
X00017358Y00008498D02*
X00017431Y00008498D01*
X00002365Y00008507D02*
X00002451Y00008507D01*
X00005917Y00008507D02*
X00014563Y00008507D01*
X00017358Y00008507D02*
X00017431Y00008507D01*
X00002331Y00008515D02*
X00002493Y00008515D01*
X00005926Y00008515D02*
X00014563Y00008515D01*
X00017358Y00008515D02*
X00017431Y00008515D01*
X00002313Y00008524D02*
X00002510Y00008524D01*
X00002553Y00008524D02*
X00002647Y00008524D01*
X00005926Y00008524D02*
X00014572Y00008524D01*
X00017358Y00008524D02*
X00017431Y00008524D01*
X00002305Y00008533D02*
X00002707Y00008533D01*
X00005934Y00008533D02*
X00014580Y00008533D01*
X00017358Y00008533D02*
X00017431Y00008533D01*
X00002288Y00008541D02*
X00002733Y00008541D01*
X00005934Y00008541D02*
X00014580Y00008541D01*
X00017358Y00008541D02*
X00017431Y00008541D01*
X00002279Y00008550D02*
X00002767Y00008550D01*
X00005943Y00008550D02*
X00014589Y00008550D01*
X00017358Y00008550D02*
X00017431Y00008550D01*
X00002279Y00008558D02*
X00002793Y00008558D01*
X00005943Y00008558D02*
X00014598Y00008558D01*
X00017358Y00008558D02*
X00017431Y00008558D01*
X00002271Y00008567D02*
X00002819Y00008567D01*
X00005952Y00008567D02*
X00014598Y00008567D01*
X00017358Y00008567D02*
X00017431Y00008567D01*
X00002262Y00008575D02*
X00002836Y00008575D01*
X00005952Y00008575D02*
X00014606Y00008575D01*
X00017358Y00008575D02*
X00017431Y00008575D01*
X00002254Y00008584D02*
X00002861Y00008584D01*
X00005960Y00008584D02*
X00014615Y00008584D01*
X00017358Y00008584D02*
X00017431Y00008584D01*
X00002254Y00008592D02*
X00002870Y00008592D01*
X00005969Y00008592D02*
X00014615Y00008592D01*
X00017358Y00008592D02*
X00017431Y00008592D01*
X00002254Y00008601D02*
X00002887Y00008601D01*
X00005969Y00008601D02*
X00014623Y00008601D01*
X00017358Y00008601D02*
X00017431Y00008601D01*
X00002245Y00008610D02*
X00002896Y00008610D01*
X00005977Y00008610D02*
X00014623Y00008610D01*
X00017358Y00008610D02*
X00017431Y00008610D01*
X00002236Y00008618D02*
X00002913Y00008618D01*
X00005986Y00008618D02*
X00014632Y00008618D01*
X00017358Y00008618D02*
X00017431Y00008618D01*
X00002219Y00008627D02*
X00002921Y00008627D01*
X00005986Y00008627D02*
X00014640Y00008627D01*
X00017358Y00008627D02*
X00017431Y00008627D01*
X00002194Y00008635D02*
X00002938Y00008635D01*
X00005994Y00008635D02*
X00014649Y00008635D01*
X00017358Y00008635D02*
X00017431Y00008635D01*
X00002177Y00008644D02*
X00002938Y00008644D01*
X00006012Y00008644D02*
X00014657Y00008644D01*
X00017358Y00008644D02*
X00017431Y00008644D01*
X00002159Y00008652D02*
X00002947Y00008652D01*
X00006020Y00008652D02*
X00014649Y00008652D01*
X00017358Y00008652D02*
X00017431Y00008652D01*
X00002151Y00008661D02*
X00002956Y00008661D01*
X00006020Y00008661D02*
X00014649Y00008661D01*
X00017358Y00008661D02*
X00017431Y00008661D01*
X00002142Y00008669D02*
X00002973Y00008669D01*
X00006029Y00008669D02*
X00014657Y00008669D01*
X00017358Y00008669D02*
X00017431Y00008669D01*
X00002134Y00008678D02*
X00002981Y00008678D01*
X00006037Y00008678D02*
X00014666Y00008678D01*
X00017358Y00008678D02*
X00017431Y00008678D01*
X00002125Y00008687D02*
X00002998Y00008687D01*
X00006037Y00008687D02*
X00014666Y00008687D01*
X00017358Y00008687D02*
X00017431Y00008687D01*
X00002125Y00008695D02*
X00003007Y00008695D01*
X00006046Y00008695D02*
X00014675Y00008695D01*
X00017358Y00008695D02*
X00017431Y00008695D01*
X00002117Y00008704D02*
X00003015Y00008704D01*
X00006054Y00008704D02*
X00014675Y00008704D01*
X00017358Y00008704D02*
X00017431Y00008704D01*
X00002108Y00008712D02*
X00003033Y00008712D01*
X00006054Y00008712D02*
X00014683Y00008712D01*
X00017358Y00008712D02*
X00017431Y00008712D01*
X00002108Y00008721D02*
X00003041Y00008721D01*
X00006063Y00008721D02*
X00014683Y00008721D01*
X00017358Y00008721D02*
X00017431Y00008721D01*
X00002099Y00008729D02*
X00003058Y00008729D01*
X00006071Y00008729D02*
X00014692Y00008729D01*
X00017358Y00008729D02*
X00017431Y00008729D01*
X00002099Y00008738D02*
X00003075Y00008738D01*
X00006080Y00008738D02*
X00014700Y00008738D01*
X00017358Y00008738D02*
X00017431Y00008738D01*
X00002099Y00008747D02*
X00003084Y00008747D01*
X00006080Y00008747D02*
X00014700Y00008747D01*
X00017358Y00008747D02*
X00017431Y00008747D01*
X00002099Y00008755D02*
X00003110Y00008755D01*
X00006089Y00008755D02*
X00014709Y00008755D01*
X00017358Y00008755D02*
X00017431Y00008755D01*
X00002099Y00008764D02*
X00003127Y00008764D01*
X00006097Y00008764D02*
X00014709Y00008764D01*
X00017358Y00008764D02*
X00017431Y00008764D01*
X00002091Y00008772D02*
X00003152Y00008772D01*
X00006106Y00008772D02*
X00014717Y00008772D01*
X00017358Y00008772D02*
X00017431Y00008772D01*
X00002091Y00008781D02*
X00003170Y00008781D01*
X00006114Y00008781D02*
X00014717Y00008781D01*
X00017358Y00008781D02*
X00017431Y00008781D01*
X00002091Y00008789D02*
X00003195Y00008789D01*
X00006114Y00008789D02*
X00014726Y00008789D01*
X00017358Y00008789D02*
X00017431Y00008789D01*
X00002091Y00008798D02*
X00003212Y00008798D01*
X00006123Y00008798D02*
X00014726Y00008798D01*
X00017358Y00008798D02*
X00017431Y00008798D01*
X00002099Y00008806D02*
X00003238Y00008806D01*
X00006131Y00008806D02*
X00014734Y00008806D01*
X00017358Y00008806D02*
X00017431Y00008806D01*
X00002099Y00008815D02*
X00003264Y00008815D01*
X00006140Y00008815D02*
X00014734Y00008815D01*
X00017358Y00008815D02*
X00017431Y00008815D01*
X00002099Y00008824D02*
X00003298Y00008824D01*
X00006148Y00008824D02*
X00014743Y00008824D01*
X00017358Y00008824D02*
X00017431Y00008824D01*
X00002099Y00008832D02*
X00003324Y00008832D01*
X00006148Y00008832D02*
X00014752Y00008832D01*
X00017358Y00008832D02*
X00017431Y00008832D01*
X00002108Y00008841D02*
X00003349Y00008841D01*
X00006157Y00008841D02*
X00014752Y00008841D01*
X00017358Y00008841D02*
X00017431Y00008841D01*
X00002108Y00008849D02*
X00003375Y00008849D01*
X00006166Y00008849D02*
X00014760Y00008849D01*
X00017358Y00008849D02*
X00017431Y00008849D01*
X00002117Y00008858D02*
X00003409Y00008858D01*
X00006174Y00008858D02*
X00014760Y00008858D01*
X00017358Y00008858D02*
X00017431Y00008858D01*
X00002117Y00008866D02*
X00003444Y00008866D01*
X00006183Y00008866D02*
X00014769Y00008866D01*
X00017358Y00008866D02*
X00017431Y00008866D01*
X00002125Y00008875D02*
X00003495Y00008875D01*
X00006166Y00008875D02*
X00014786Y00008875D01*
X00017358Y00008875D02*
X00017431Y00008875D01*
X00002125Y00008883D02*
X00003538Y00008883D01*
X00006191Y00008883D02*
X00014777Y00008883D01*
X00017358Y00008883D02*
X00017431Y00008883D01*
X00002134Y00008892D02*
X00003563Y00008892D01*
X00006200Y00008892D02*
X00014786Y00008892D01*
X00017358Y00008892D02*
X00017431Y00008892D01*
X00002142Y00008901D02*
X00003598Y00008901D01*
X00006208Y00008901D02*
X00014786Y00008901D01*
X00017358Y00008901D02*
X00017431Y00008901D01*
X00002151Y00008909D02*
X00003632Y00008909D01*
X00006208Y00008909D02*
X00014794Y00008909D01*
X00017358Y00008909D02*
X00017431Y00008909D01*
X00002151Y00008918D02*
X00003666Y00008918D01*
X00006217Y00008918D02*
X00014794Y00008918D01*
X00017358Y00008918D02*
X00017431Y00008918D01*
X00002159Y00008926D02*
X00003700Y00008926D01*
X00006226Y00008926D02*
X00014803Y00008926D01*
X00017358Y00008926D02*
X00017431Y00008926D01*
X00002168Y00008935D02*
X00003735Y00008935D01*
X00006234Y00008935D02*
X00014803Y00008935D01*
X00017358Y00008935D02*
X00017431Y00008935D01*
X00002177Y00008943D02*
X00003777Y00008943D01*
X00006243Y00008943D02*
X00014803Y00008943D01*
X00017358Y00008943D02*
X00017431Y00008943D01*
X00002185Y00008952D02*
X00003803Y00008952D01*
X00006251Y00008952D02*
X00014812Y00008952D01*
X00017358Y00008952D02*
X00017431Y00008952D01*
X00002194Y00008961D02*
X00003854Y00008961D01*
X00006260Y00008961D02*
X00014812Y00008961D01*
X00017358Y00008961D02*
X00017431Y00008961D01*
X00002202Y00008969D02*
X00003880Y00008969D01*
X00006277Y00008969D02*
X00014820Y00008969D01*
X00017358Y00008969D02*
X00017431Y00008969D01*
X00002211Y00008978D02*
X00003923Y00008978D01*
X00006277Y00008978D02*
X00014820Y00008978D01*
X00017358Y00008978D02*
X00017431Y00008978D01*
X00002219Y00008986D02*
X00003949Y00008986D01*
X00006285Y00008986D02*
X00014820Y00008986D01*
X00017358Y00008986D02*
X00017431Y00008986D01*
X00002228Y00008995D02*
X00004000Y00008995D01*
X00006294Y00008995D02*
X00014829Y00008995D01*
X00017358Y00008995D02*
X00017431Y00008995D01*
X00002236Y00009003D02*
X00004034Y00009003D01*
X00006251Y00009003D02*
X00014829Y00009003D01*
X00017358Y00009003D02*
X00017431Y00009003D01*
X00002245Y00009012D02*
X00004068Y00009012D01*
X00006157Y00009012D02*
X00014837Y00009012D01*
X00017358Y00009012D02*
X00017431Y00009012D01*
X00002254Y00009020D02*
X00004103Y00009020D01*
X00006080Y00009020D02*
X00014837Y00009020D01*
X00017358Y00009020D02*
X00017431Y00009020D01*
X00002262Y00009029D02*
X00004137Y00009029D01*
X00005994Y00009029D02*
X00014837Y00009029D01*
X00017358Y00009029D02*
X00017431Y00009029D01*
X00002271Y00009038D02*
X00004180Y00009038D01*
X00005866Y00009038D02*
X00005900Y00009038D01*
X00005909Y00009038D02*
X00014846Y00009038D01*
X00017358Y00009038D02*
X00017431Y00009038D01*
X00002271Y00009046D02*
X00004222Y00009046D01*
X00005763Y00009046D02*
X00014846Y00009046D01*
X00017358Y00009046D02*
X00017431Y00009046D01*
X00002279Y00009055D02*
X00004257Y00009055D01*
X00005686Y00009055D02*
X00014854Y00009055D01*
X00017358Y00009055D02*
X00017431Y00009055D01*
X00002279Y00009063D02*
X00004308Y00009063D01*
X00005584Y00009063D02*
X00014854Y00009063D01*
X00017358Y00009063D02*
X00017431Y00009063D01*
X00002288Y00009072D02*
X00004351Y00009072D01*
X00005447Y00009072D02*
X00014854Y00009072D01*
X00017358Y00009072D02*
X00017431Y00009072D01*
X00002288Y00009080D02*
X00004377Y00009080D01*
X00005421Y00009080D02*
X00014854Y00009080D01*
X00017358Y00009080D02*
X00017431Y00009080D01*
X00002288Y00009089D02*
X00004402Y00009089D01*
X00005335Y00009089D02*
X00014854Y00009089D01*
X00017358Y00009089D02*
X00017431Y00009089D01*
X00002296Y00009097D02*
X00004445Y00009097D01*
X00005292Y00009097D02*
X00014854Y00009097D01*
X00017358Y00009097D02*
X00017431Y00009097D01*
X00002305Y00009106D02*
X00004488Y00009106D01*
X00005233Y00009106D02*
X00014863Y00009106D01*
X00017358Y00009106D02*
X00017431Y00009106D01*
X00002313Y00009115D02*
X00004659Y00009115D01*
X00005207Y00009115D02*
X00014863Y00009115D01*
X00017358Y00009115D02*
X00017431Y00009115D01*
X00002313Y00009123D02*
X00004685Y00009123D01*
X00004916Y00009123D02*
X00014871Y00009123D01*
X00017358Y00009123D02*
X00017431Y00009123D01*
X00002322Y00009132D02*
X00004710Y00009132D01*
X00004890Y00009132D02*
X00014871Y00009132D01*
X00017358Y00009132D02*
X00017431Y00009132D01*
X00002331Y00009140D02*
X00004745Y00009140D01*
X00004856Y00009140D02*
X00014871Y00009140D01*
X00017358Y00009140D02*
X00017431Y00009140D01*
X00002339Y00009149D02*
X00014871Y00009149D01*
X00017358Y00009149D02*
X00017431Y00009149D01*
X00002348Y00009157D02*
X00014880Y00009157D01*
X00017358Y00009157D02*
X00017431Y00009157D01*
X00002356Y00009166D02*
X00014880Y00009166D01*
X00017358Y00009166D02*
X00017431Y00009166D01*
X00002373Y00009175D02*
X00014880Y00009175D01*
X00017358Y00009175D02*
X00017431Y00009175D01*
X00002382Y00009183D02*
X00014889Y00009183D01*
X00017358Y00009183D02*
X00017431Y00009183D01*
X00002391Y00009192D02*
X00014889Y00009192D01*
X00017358Y00009192D02*
X00017431Y00009192D01*
X00002399Y00009200D02*
X00014889Y00009200D01*
X00017358Y00009200D02*
X00017431Y00009200D01*
X00002408Y00009209D02*
X00014889Y00009209D01*
X00017358Y00009209D02*
X00017431Y00009209D01*
X00002425Y00009217D02*
X00014897Y00009217D01*
X00017358Y00009217D02*
X00017431Y00009217D01*
X00002442Y00009226D02*
X00014897Y00009226D01*
X00017358Y00009226D02*
X00017431Y00009226D01*
X00002459Y00009234D02*
X00014897Y00009234D01*
X00017358Y00009234D02*
X00017431Y00009234D01*
X00002468Y00009243D02*
X00014897Y00009243D01*
X00017358Y00009243D02*
X00017431Y00009243D01*
X00002476Y00009252D02*
X00014906Y00009252D01*
X00017358Y00009252D02*
X00017431Y00009252D01*
X00002493Y00009260D02*
X00014906Y00009260D01*
X00017358Y00009260D02*
X00017431Y00009260D01*
X00002519Y00009269D02*
X00014906Y00009269D01*
X00017358Y00009269D02*
X00017431Y00009269D01*
X00001885Y00009277D02*
X00002365Y00009277D01*
X00002536Y00009277D02*
X00014906Y00009277D01*
X00017358Y00009277D02*
X00017431Y00009277D01*
X00001885Y00009286D02*
X00002365Y00009286D01*
X00002553Y00009286D02*
X00014914Y00009286D01*
X00017358Y00009286D02*
X00017431Y00009286D01*
X00001885Y00009294D02*
X00002365Y00009294D01*
X00002579Y00009294D02*
X00014914Y00009294D01*
X00017358Y00009294D02*
X00017431Y00009294D01*
X00001885Y00009303D02*
X00002365Y00009303D01*
X00002605Y00009303D02*
X00014914Y00009303D01*
X00017358Y00009303D02*
X00017431Y00009303D01*
X00001885Y00009311D02*
X00002365Y00009311D01*
X00002639Y00009311D02*
X00014914Y00009311D01*
X00017358Y00009311D02*
X00017431Y00009311D01*
X00001885Y00009320D02*
X00002365Y00009320D01*
X00002673Y00009320D02*
X00014914Y00009320D01*
X00017358Y00009320D02*
X00017431Y00009320D01*
X00001885Y00009329D02*
X00002365Y00009329D01*
X00002690Y00009329D02*
X00014923Y00009329D01*
X00017358Y00009329D02*
X00017431Y00009329D01*
X00001885Y00009337D02*
X00002365Y00009337D01*
X00002699Y00009337D02*
X00014923Y00009337D01*
X00017358Y00009337D02*
X00017431Y00009337D01*
X00001885Y00009346D02*
X00002365Y00009346D01*
X00002724Y00009346D02*
X00014923Y00009346D01*
X00017358Y00009346D02*
X00017431Y00009346D01*
X00001885Y00009354D02*
X00002365Y00009354D01*
X00002750Y00009354D02*
X00014923Y00009354D01*
X00017358Y00009354D02*
X00017431Y00009354D01*
X00001885Y00009363D02*
X00002365Y00009363D01*
X00002767Y00009363D02*
X00014923Y00009363D01*
X00017358Y00009363D02*
X00017431Y00009363D01*
X00001885Y00009371D02*
X00002365Y00009371D01*
X00002784Y00009371D02*
X00014923Y00009371D01*
X00017358Y00009371D02*
X00017431Y00009371D01*
X00001885Y00009380D02*
X00002365Y00009380D01*
X00002801Y00009380D02*
X00014931Y00009380D01*
X00017358Y00009380D02*
X00017431Y00009380D01*
X00001885Y00009389D02*
X00002365Y00009389D01*
X00002819Y00009389D02*
X00014931Y00009389D01*
X00017358Y00009389D02*
X00017431Y00009389D01*
X00001885Y00009397D02*
X00002365Y00009397D01*
X00002836Y00009397D02*
X00014931Y00009397D01*
X00017358Y00009397D02*
X00017431Y00009397D01*
X00001885Y00009406D02*
X00002365Y00009406D01*
X00002853Y00009406D02*
X00014931Y00009406D01*
X00017358Y00009406D02*
X00017431Y00009406D01*
X00001885Y00009414D02*
X00002365Y00009414D01*
X00002861Y00009414D02*
X00014931Y00009414D01*
X00017358Y00009414D02*
X00017431Y00009414D01*
X00001885Y00009423D02*
X00002365Y00009423D01*
X00002870Y00009423D02*
X00014931Y00009423D01*
X00017358Y00009423D02*
X00017431Y00009423D01*
X00001885Y00009431D02*
X00002365Y00009431D01*
X00002887Y00009431D02*
X00014931Y00009431D01*
X00017358Y00009431D02*
X00017431Y00009431D01*
X00001885Y00009440D02*
X00002365Y00009440D01*
X00002913Y00009440D02*
X00014940Y00009440D01*
X00017358Y00009440D02*
X00017431Y00009440D01*
X00001885Y00009448D02*
X00002365Y00009448D01*
X00002921Y00009448D02*
X00014940Y00009448D01*
X00017358Y00009448D02*
X00017431Y00009448D01*
X00001885Y00009457D02*
X00002365Y00009457D01*
X00002938Y00009457D02*
X00014940Y00009457D01*
X00017358Y00009457D02*
X00017431Y00009457D01*
X00001885Y00009466D02*
X00002365Y00009466D01*
X00002956Y00009466D02*
X00014940Y00009466D01*
X00017358Y00009466D02*
X00017431Y00009466D01*
X00001885Y00009474D02*
X00002365Y00009474D01*
X00002973Y00009474D02*
X00014940Y00009474D01*
X00017358Y00009474D02*
X00017431Y00009474D01*
X00001885Y00009483D02*
X00002365Y00009483D01*
X00002990Y00009483D02*
X00014940Y00009483D01*
X00017358Y00009483D02*
X00017431Y00009483D01*
X00001885Y00009491D02*
X00002365Y00009491D01*
X00003007Y00009491D02*
X00014940Y00009491D01*
X00017358Y00009491D02*
X00017431Y00009491D01*
X00001885Y00009500D02*
X00002365Y00009500D01*
X00003024Y00009500D02*
X00014940Y00009500D01*
X00017358Y00009500D02*
X00017431Y00009500D01*
X00001885Y00009508D02*
X00002365Y00009508D01*
X00003041Y00009508D02*
X00014940Y00009508D01*
X00017358Y00009508D02*
X00017431Y00009508D01*
X00001885Y00009517D02*
X00002365Y00009517D01*
X00003067Y00009517D02*
X00014940Y00009517D01*
X00017358Y00009517D02*
X00017431Y00009517D01*
X00001885Y00009526D02*
X00002365Y00009526D01*
X00003092Y00009526D02*
X00014940Y00009526D01*
X00017358Y00009526D02*
X00017431Y00009526D01*
X00001885Y00009534D02*
X00002365Y00009534D01*
X00003127Y00009534D02*
X00014940Y00009534D01*
X00017358Y00009534D02*
X00017431Y00009534D01*
X00001885Y00009543D02*
X00002365Y00009543D01*
X00003152Y00009543D02*
X00014948Y00009543D01*
X00017358Y00009543D02*
X00017431Y00009543D01*
X00001885Y00009551D02*
X00002365Y00009551D01*
X00003195Y00009551D02*
X00014948Y00009551D01*
X00017358Y00009551D02*
X00017431Y00009551D01*
X00001885Y00009560D02*
X00002365Y00009560D01*
X00003255Y00009560D02*
X00003469Y00009560D01*
X00003846Y00009560D02*
X00014948Y00009560D01*
X00017358Y00009560D02*
X00017431Y00009560D01*
X00001885Y00009568D02*
X00002365Y00009568D01*
X00003906Y00009568D02*
X00014948Y00009568D01*
X00017358Y00009568D02*
X00017431Y00009568D01*
X00001885Y00009577D02*
X00002365Y00009577D01*
X00003957Y00009577D02*
X00014948Y00009577D01*
X00017358Y00009577D02*
X00017431Y00009577D01*
X00001885Y00009585D02*
X00002365Y00009585D01*
X00003991Y00009585D02*
X00014948Y00009585D01*
X00017358Y00009585D02*
X00017431Y00009585D01*
X00001885Y00009594D02*
X00002365Y00009594D01*
X00004026Y00009594D02*
X00014948Y00009594D01*
X00017358Y00009594D02*
X00017431Y00009594D01*
X00001885Y00009603D02*
X00002365Y00009603D01*
X00004060Y00009603D02*
X00014948Y00009603D01*
X00017358Y00009603D02*
X00017431Y00009603D01*
X00001885Y00009611D02*
X00002365Y00009611D01*
X00004094Y00009611D02*
X00014948Y00009611D01*
X00017358Y00009611D02*
X00017431Y00009611D01*
X00001885Y00009620D02*
X00002365Y00009620D01*
X00004128Y00009620D02*
X00014948Y00009620D01*
X00017358Y00009620D02*
X00017431Y00009620D01*
X00001885Y00009628D02*
X00002365Y00009628D01*
X00004163Y00009628D02*
X00014948Y00009628D01*
X00017358Y00009628D02*
X00017431Y00009628D01*
X00001885Y00009637D02*
X00002365Y00009637D01*
X00004197Y00009637D02*
X00014948Y00009637D01*
X00017358Y00009637D02*
X00017431Y00009637D01*
X00001885Y00009645D02*
X00002365Y00009645D01*
X00004222Y00009645D02*
X00014948Y00009645D01*
X00017358Y00009645D02*
X00017431Y00009645D01*
X00001885Y00009654D02*
X00002365Y00009654D01*
X00004248Y00009654D02*
X00014948Y00009654D01*
X00017358Y00009654D02*
X00017431Y00009654D01*
X00001885Y00009662D02*
X00002365Y00009662D01*
X00004282Y00009662D02*
X00014948Y00009662D01*
X00017358Y00009662D02*
X00017431Y00009662D01*
X00001885Y00009671D02*
X00002365Y00009671D01*
X00004308Y00009671D02*
X00014948Y00009671D01*
X00017358Y00009671D02*
X00017431Y00009671D01*
X00001885Y00009680D02*
X00002365Y00009680D01*
X00004334Y00009680D02*
X00014948Y00009680D01*
X00017358Y00009680D02*
X00017431Y00009680D01*
X00001885Y00009688D02*
X00002365Y00009688D01*
X00004359Y00009688D02*
X00014948Y00009688D01*
X00017358Y00009688D02*
X00017431Y00009688D01*
X00001885Y00009697D02*
X00002365Y00009697D01*
X00004385Y00009697D02*
X00014948Y00009697D01*
X00017358Y00009697D02*
X00017431Y00009697D01*
X00001885Y00009705D02*
X00002365Y00009705D01*
X00004411Y00009705D02*
X00014940Y00009705D01*
X00017358Y00009705D02*
X00017431Y00009705D01*
X00001885Y00009714D02*
X00002365Y00009714D01*
X00004445Y00009714D02*
X00014940Y00009714D01*
X00017358Y00009714D02*
X00017431Y00009714D01*
X00001885Y00009722D02*
X00002365Y00009722D01*
X00004462Y00009722D02*
X00014940Y00009722D01*
X00017358Y00009722D02*
X00017431Y00009722D01*
X00001885Y00009731D02*
X00002365Y00009731D01*
X00004488Y00009731D02*
X00014940Y00009731D01*
X00017358Y00009731D02*
X00017431Y00009731D01*
X00001885Y00009740D02*
X00002365Y00009740D01*
X00004513Y00009740D02*
X00014940Y00009740D01*
X00017358Y00009740D02*
X00017431Y00009740D01*
X00001885Y00009748D02*
X00002365Y00009748D01*
X00004548Y00009748D02*
X00014940Y00009748D01*
X00017358Y00009748D02*
X00017431Y00009748D01*
X00001885Y00009757D02*
X00002365Y00009757D01*
X00004565Y00009757D02*
X00014940Y00009757D01*
X00017358Y00009757D02*
X00017431Y00009757D01*
X00001885Y00009765D02*
X00002365Y00009765D01*
X00004591Y00009765D02*
X00014940Y00009765D01*
X00017358Y00009765D02*
X00017431Y00009765D01*
X00001885Y00009774D02*
X00002365Y00009774D01*
X00004616Y00009774D02*
X00014940Y00009774D01*
X00017358Y00009774D02*
X00017431Y00009774D01*
X00001885Y00009782D02*
X00002365Y00009782D01*
X00004633Y00009782D02*
X00014940Y00009782D01*
X00017358Y00009782D02*
X00017431Y00009782D01*
X00001885Y00009791D02*
X00002365Y00009791D01*
X00004659Y00009791D02*
X00014940Y00009791D01*
X00017358Y00009791D02*
X00017431Y00009791D01*
X00001885Y00009799D02*
X00002365Y00009799D01*
X00004676Y00009799D02*
X00014940Y00009799D01*
X00017358Y00009799D02*
X00017431Y00009799D01*
X00001885Y00009808D02*
X00002365Y00009808D01*
X00004693Y00009808D02*
X00014931Y00009808D01*
X00017358Y00009808D02*
X00017431Y00009808D01*
X00001885Y00009817D02*
X00002365Y00009817D01*
X00004719Y00009817D02*
X00014931Y00009817D01*
X00017358Y00009817D02*
X00017431Y00009817D01*
X00001885Y00009825D02*
X00002365Y00009825D01*
X00004736Y00009825D02*
X00014931Y00009825D01*
X00017358Y00009825D02*
X00017431Y00009825D01*
X00001885Y00009834D02*
X00002365Y00009834D01*
X00004762Y00009834D02*
X00014931Y00009834D01*
X00017358Y00009834D02*
X00017431Y00009834D01*
X00001885Y00009842D02*
X00002365Y00009842D01*
X00004779Y00009842D02*
X00014931Y00009842D01*
X00017358Y00009842D02*
X00017431Y00009842D01*
X00001885Y00009851D02*
X00002365Y00009851D01*
X00004805Y00009851D02*
X00014931Y00009851D01*
X00017358Y00009851D02*
X00017431Y00009851D01*
X00001885Y00009859D02*
X00002365Y00009859D01*
X00004822Y00009859D02*
X00014923Y00009859D01*
X00017358Y00009859D02*
X00017431Y00009859D01*
X00001885Y00009868D02*
X00002365Y00009868D01*
X00004847Y00009868D02*
X00014923Y00009868D01*
X00017358Y00009868D02*
X00017431Y00009868D01*
X00001885Y00009876D02*
X00002365Y00009876D01*
X00004873Y00009876D02*
X00014923Y00009876D01*
X00017358Y00009876D02*
X00017431Y00009876D01*
X00001885Y00009885D02*
X00002365Y00009885D01*
X00004899Y00009885D02*
X00014923Y00009885D01*
X00017358Y00009885D02*
X00017431Y00009885D01*
X00001885Y00009894D02*
X00002365Y00009894D01*
X00004924Y00009894D02*
X00014923Y00009894D01*
X00017358Y00009894D02*
X00017431Y00009894D01*
X00001885Y00009902D02*
X00002365Y00009902D01*
X00004950Y00009902D02*
X00014914Y00009902D01*
X00017358Y00009902D02*
X00017431Y00009902D01*
X00001885Y00009911D02*
X00002365Y00009911D01*
X00004967Y00009911D02*
X00014914Y00009911D01*
X00017358Y00009911D02*
X00017431Y00009911D01*
X00001885Y00009919D02*
X00002365Y00009919D01*
X00004993Y00009919D02*
X00014914Y00009919D01*
X00017358Y00009919D02*
X00017431Y00009919D01*
X00001885Y00009928D02*
X00002365Y00009928D01*
X00005019Y00009928D02*
X00014914Y00009928D01*
X00017358Y00009928D02*
X00017431Y00009928D01*
X00001885Y00009936D02*
X00002365Y00009936D01*
X00005036Y00009936D02*
X00014914Y00009936D01*
X00017358Y00009936D02*
X00017431Y00009936D01*
X00001885Y00009945D02*
X00002365Y00009945D01*
X00005061Y00009945D02*
X00014906Y00009945D01*
X00017358Y00009945D02*
X00017431Y00009945D01*
X00001885Y00009954D02*
X00002365Y00009954D01*
X00005078Y00009954D02*
X00014906Y00009954D01*
X00017358Y00009954D02*
X00017431Y00009954D01*
X00001885Y00009962D02*
X00002365Y00009962D01*
X00005104Y00009962D02*
X00014906Y00009962D01*
X00017358Y00009962D02*
X00017431Y00009962D01*
X00001885Y00009971D02*
X00002365Y00009971D01*
X00005130Y00009971D02*
X00014906Y00009971D01*
X00017358Y00009971D02*
X00017431Y00009971D01*
X00001885Y00009979D02*
X00002365Y00009979D01*
X00005147Y00009979D02*
X00014906Y00009979D01*
X00017358Y00009979D02*
X00017431Y00009979D01*
X00001885Y00009988D02*
X00002365Y00009988D01*
X00005164Y00009988D02*
X00014897Y00009988D01*
X00017358Y00009988D02*
X00017431Y00009988D01*
X00001885Y00009996D02*
X00002365Y00009996D01*
X00005190Y00009996D02*
X00014897Y00009996D01*
X00017358Y00009996D02*
X00017431Y00009996D01*
X00001885Y00010005D02*
X00002365Y00010005D01*
X00005207Y00010005D02*
X00014897Y00010005D01*
X00017358Y00010005D02*
X00017431Y00010005D01*
X00001885Y00010013D02*
X00002365Y00010013D01*
X00005233Y00010013D02*
X00014889Y00010013D01*
X00017358Y00010013D02*
X00017431Y00010013D01*
X00001885Y00010022D02*
X00002365Y00010022D01*
X00005250Y00010022D02*
X00014889Y00010022D01*
X00017358Y00010022D02*
X00017431Y00010022D01*
X00001885Y00010031D02*
X00002365Y00010031D01*
X00005275Y00010031D02*
X00014889Y00010031D01*
X00017358Y00010031D02*
X00017431Y00010031D01*
X00001885Y00010039D02*
X00002365Y00010039D01*
X00005292Y00010039D02*
X00014889Y00010039D01*
X00017358Y00010039D02*
X00017431Y00010039D01*
X00001885Y00010048D02*
X00002365Y00010048D01*
X00005318Y00010048D02*
X00014880Y00010048D01*
X00017358Y00010048D02*
X00017431Y00010048D01*
X00001885Y00010056D02*
X00002365Y00010056D01*
X00005335Y00010056D02*
X00014880Y00010056D01*
X00017358Y00010056D02*
X00017431Y00010056D01*
X00001885Y00010065D02*
X00002365Y00010065D01*
X00005352Y00010065D02*
X00014880Y00010065D01*
X00017358Y00010065D02*
X00017431Y00010065D01*
X00001885Y00010073D02*
X00002365Y00010073D01*
X00005370Y00010073D02*
X00014871Y00010073D01*
X00017358Y00010073D02*
X00017431Y00010073D01*
X00001885Y00010082D02*
X00002365Y00010082D01*
X00005395Y00010082D02*
X00014871Y00010082D01*
X00017358Y00010082D02*
X00017431Y00010082D01*
X00001885Y00010090D02*
X00002365Y00010090D01*
X00005412Y00010090D02*
X00014871Y00010090D01*
X00017358Y00010090D02*
X00017431Y00010090D01*
X00001885Y00010099D02*
X00002365Y00010099D01*
X00005429Y00010099D02*
X00014871Y00010099D01*
X00017358Y00010099D02*
X00017431Y00010099D01*
X00001885Y00010108D02*
X00002365Y00010108D01*
X00005447Y00010108D02*
X00014863Y00010108D01*
X00017358Y00010108D02*
X00017431Y00010108D01*
X00001885Y00010116D02*
X00002365Y00010116D01*
X00005464Y00010116D02*
X00014863Y00010116D01*
X00017358Y00010116D02*
X00017431Y00010116D01*
X00001885Y00010125D02*
X00002365Y00010125D01*
X00005481Y00010125D02*
X00014863Y00010125D01*
X00017358Y00010125D02*
X00017431Y00010125D01*
X00001885Y00010133D02*
X00002365Y00010133D01*
X00005498Y00010133D02*
X00014854Y00010133D01*
X00017358Y00010133D02*
X00017431Y00010133D01*
X00001885Y00010142D02*
X00002365Y00010142D01*
X00005515Y00010142D02*
X00014854Y00010142D01*
X00017358Y00010142D02*
X00017431Y00010142D01*
X00001885Y00010150D02*
X00002365Y00010150D01*
X00005532Y00010150D02*
X00014854Y00010150D01*
X00017358Y00010150D02*
X00017431Y00010150D01*
X00001885Y00010159D02*
X00002365Y00010159D01*
X00005549Y00010159D02*
X00014846Y00010159D01*
X00017358Y00010159D02*
X00017431Y00010159D01*
X00001885Y00010168D02*
X00002365Y00010168D01*
X00005566Y00010168D02*
X00014846Y00010168D01*
X00017358Y00010168D02*
X00017431Y00010168D01*
X00001885Y00010176D02*
X00002365Y00010176D01*
X00005584Y00010176D02*
X00014846Y00010176D01*
X00017358Y00010176D02*
X00017431Y00010176D01*
X00001885Y00010185D02*
X00002365Y00010185D01*
X00005592Y00010185D02*
X00014837Y00010185D01*
X00017358Y00010185D02*
X00017431Y00010185D01*
X00001885Y00010193D02*
X00002365Y00010193D01*
X00005609Y00010193D02*
X00014837Y00010193D01*
X00017358Y00010193D02*
X00017431Y00010193D01*
X00001885Y00010202D02*
X00002365Y00010202D01*
X00005626Y00010202D02*
X00014829Y00010202D01*
X00017358Y00010202D02*
X00017431Y00010202D01*
X00001885Y00010210D02*
X00002365Y00010210D01*
X00005643Y00010210D02*
X00014829Y00010210D01*
X00017358Y00010210D02*
X00017431Y00010210D01*
X00001885Y00010219D02*
X00002365Y00010219D01*
X00005652Y00010219D02*
X00014829Y00010219D01*
X00017358Y00010219D02*
X00017431Y00010219D01*
X00001885Y00010227D02*
X00002365Y00010227D01*
X00005669Y00010227D02*
X00014820Y00010227D01*
X00017358Y00010227D02*
X00017431Y00010227D01*
X00001885Y00010236D02*
X00002365Y00010236D01*
X00005686Y00010236D02*
X00014820Y00010236D01*
X00017358Y00010236D02*
X00017431Y00010236D01*
X00001885Y00010245D02*
X00002365Y00010245D01*
X00005703Y00010245D02*
X00014812Y00010245D01*
X00017358Y00010245D02*
X00017431Y00010245D01*
X00001885Y00010253D02*
X00002365Y00010253D01*
X00005720Y00010253D02*
X00014812Y00010253D01*
X00017358Y00010253D02*
X00017431Y00010253D01*
X00001885Y00010262D02*
X00002365Y00010262D01*
X00005738Y00010262D02*
X00014812Y00010262D01*
X00017358Y00010262D02*
X00017431Y00010262D01*
X00001885Y00010270D02*
X00002365Y00010270D01*
X00005755Y00010270D02*
X00014803Y00010270D01*
X00017358Y00010270D02*
X00017431Y00010270D01*
X00001885Y00010279D02*
X00002365Y00010279D01*
X00005772Y00010279D02*
X00014803Y00010279D01*
X00017358Y00010279D02*
X00017431Y00010279D01*
X00001885Y00010287D02*
X00002365Y00010287D01*
X00005789Y00010287D02*
X00014794Y00010287D01*
X00017358Y00010287D02*
X00017431Y00010287D01*
X00001885Y00010296D02*
X00002365Y00010296D01*
X00005815Y00010296D02*
X00014794Y00010296D01*
X00017358Y00010296D02*
X00017431Y00010296D01*
X00001885Y00010304D02*
X00002365Y00010304D01*
X00005832Y00010304D02*
X00014786Y00010304D01*
X00017358Y00010304D02*
X00017431Y00010304D01*
X00001885Y00010313D02*
X00002365Y00010313D01*
X00005857Y00010313D02*
X00014786Y00010313D01*
X00017358Y00010313D02*
X00017431Y00010313D01*
X00001885Y00010322D02*
X00002365Y00010322D01*
X00005883Y00010322D02*
X00014777Y00010322D01*
X00017358Y00010322D02*
X00017431Y00010322D01*
X00001885Y00010330D02*
X00002365Y00010330D01*
X00005909Y00010330D02*
X00014777Y00010330D01*
X00017358Y00010330D02*
X00017431Y00010330D01*
X00001885Y00010339D02*
X00002365Y00010339D01*
X00005952Y00010339D02*
X00014769Y00010339D01*
X00017358Y00010339D02*
X00017431Y00010339D01*
X00001885Y00010347D02*
X00002365Y00010347D01*
X00005960Y00010347D02*
X00014769Y00010347D01*
X00017358Y00010347D02*
X00017431Y00010347D01*
X00001885Y00010356D02*
X00002365Y00010356D01*
X00005960Y00010356D02*
X00014760Y00010356D01*
X00017358Y00010356D02*
X00017431Y00010356D01*
X00001885Y00010364D02*
X00002365Y00010364D01*
X00005960Y00010364D02*
X00014760Y00010364D01*
X00017358Y00010364D02*
X00017431Y00010364D01*
X00001885Y00010373D02*
X00002365Y00010373D01*
X00005969Y00010373D02*
X00014752Y00010373D01*
X00017358Y00010373D02*
X00017431Y00010373D01*
X00001885Y00010382D02*
X00002365Y00010382D01*
X00005969Y00010382D02*
X00014752Y00010382D01*
X00017358Y00010382D02*
X00017431Y00010382D01*
X00001885Y00010390D02*
X00002365Y00010390D01*
X00005969Y00010390D02*
X00014743Y00010390D01*
X00017358Y00010390D02*
X00017431Y00010390D01*
X00001885Y00010399D02*
X00002365Y00010399D01*
X00005969Y00010399D02*
X00014734Y00010399D01*
X00017358Y00010399D02*
X00017431Y00010399D01*
X00001885Y00010407D02*
X00002365Y00010407D01*
X00005969Y00010407D02*
X00014734Y00010407D01*
X00017358Y00010407D02*
X00017431Y00010407D01*
X00001885Y00010416D02*
X00002365Y00010416D01*
X00005969Y00010416D02*
X00014726Y00010416D01*
X00017358Y00010416D02*
X00017431Y00010416D01*
X00001885Y00010424D02*
X00002365Y00010424D01*
X00005969Y00010424D02*
X00014726Y00010424D01*
X00017358Y00010424D02*
X00017431Y00010424D01*
X00001885Y00010433D02*
X00002365Y00010433D01*
X00005977Y00010433D02*
X00014717Y00010433D01*
X00017358Y00010433D02*
X00017431Y00010433D01*
X00001885Y00010441D02*
X00002365Y00010441D01*
X00005977Y00010441D02*
X00014709Y00010441D01*
X00017358Y00010441D02*
X00017431Y00010441D01*
X00001885Y00010450D02*
X00002365Y00010450D01*
X00005977Y00010450D02*
X00014709Y00010450D01*
X00017358Y00010450D02*
X00017431Y00010450D01*
X00001885Y00010459D02*
X00002365Y00010459D01*
X00005977Y00010459D02*
X00014700Y00010459D01*
X00017358Y00010459D02*
X00017431Y00010459D01*
X00001885Y00010467D02*
X00002365Y00010467D01*
X00005986Y00010467D02*
X00014700Y00010467D01*
X00017358Y00010467D02*
X00017431Y00010467D01*
X00001885Y00010476D02*
X00002365Y00010476D01*
X00005986Y00010476D02*
X00014692Y00010476D01*
X00017358Y00010476D02*
X00017431Y00010476D01*
X00001885Y00010484D02*
X00002365Y00010484D01*
X00005986Y00010484D02*
X00014683Y00010484D01*
X00017358Y00010484D02*
X00017431Y00010484D01*
X00005986Y00010493D02*
X00014683Y00010493D01*
X00017358Y00010493D02*
X00017431Y00010493D01*
X00005994Y00010501D02*
X00014675Y00010501D01*
X00017358Y00010501D02*
X00017431Y00010501D01*
X00005994Y00010510D02*
X00014666Y00010510D01*
X00017358Y00010510D02*
X00017431Y00010510D01*
X00005994Y00010518D02*
X00014666Y00010518D01*
X00017358Y00010518D02*
X00017431Y00010518D01*
X00005994Y00010527D02*
X00014657Y00010527D01*
X00017358Y00010527D02*
X00017431Y00010527D01*
X00006003Y00010536D02*
X00014649Y00010536D01*
X00017358Y00010536D02*
X00017431Y00010536D01*
X00006003Y00010544D02*
X00014649Y00010544D01*
X00017358Y00010544D02*
X00017431Y00010544D01*
X00006003Y00010553D02*
X00014640Y00010553D01*
X00017358Y00010553D02*
X00017431Y00010553D01*
X00006003Y00010561D02*
X00014632Y00010561D01*
X00017358Y00010561D02*
X00017431Y00010561D01*
X00006003Y00010570D02*
X00014623Y00010570D01*
X00017358Y00010570D02*
X00017431Y00010570D01*
X00006012Y00010578D02*
X00014623Y00010578D01*
X00017358Y00010578D02*
X00017431Y00010578D01*
X00006012Y00010587D02*
X00014615Y00010587D01*
X00017358Y00010587D02*
X00017431Y00010587D01*
X00006012Y00010596D02*
X00014606Y00010596D01*
X00017358Y00010596D02*
X00017431Y00010596D01*
X00006020Y00010604D02*
X00014598Y00010604D01*
X00017358Y00010604D02*
X00017431Y00010604D01*
X00006020Y00010613D02*
X00014589Y00010613D01*
X00017358Y00010613D02*
X00017431Y00010613D01*
X00006020Y00010621D02*
X00014589Y00010621D01*
X00017358Y00010621D02*
X00017431Y00010621D01*
X00006020Y00010630D02*
X00014580Y00010630D01*
X00017358Y00010630D02*
X00017431Y00010630D01*
X00006029Y00010638D02*
X00014572Y00010638D01*
X00017358Y00010638D02*
X00017431Y00010638D01*
X00006029Y00010647D02*
X00014563Y00010647D01*
X00017358Y00010647D02*
X00017431Y00010647D01*
X00006029Y00010655D02*
X00014555Y00010655D01*
X00017358Y00010655D02*
X00017431Y00010655D01*
X00006037Y00010664D02*
X00014546Y00010664D01*
X00017358Y00010664D02*
X00017431Y00010664D01*
X00006037Y00010673D02*
X00014538Y00010673D01*
X00017358Y00010673D02*
X00017431Y00010673D01*
X00006037Y00010681D02*
X00014538Y00010681D01*
X00017358Y00010681D02*
X00017431Y00010681D01*
X00006046Y00010690D02*
X00014529Y00010690D01*
X00017358Y00010690D02*
X00017431Y00010690D01*
X00006046Y00010698D02*
X00014520Y00010698D01*
X00017358Y00010698D02*
X00017431Y00010698D01*
X00006046Y00010707D02*
X00014512Y00010707D01*
X00017358Y00010707D02*
X00017431Y00010707D01*
X00006054Y00010715D02*
X00014503Y00010715D01*
X00017358Y00010715D02*
X00017431Y00010715D01*
X00006054Y00010724D02*
X00014495Y00010724D01*
X00017358Y00010724D02*
X00017431Y00010724D01*
X00006054Y00010732D02*
X00014486Y00010732D01*
X00017358Y00010732D02*
X00017431Y00010732D01*
X00006063Y00010741D02*
X00014478Y00010741D01*
X00017358Y00010741D02*
X00017431Y00010741D01*
X00006063Y00010750D02*
X00014469Y00010750D01*
X00017358Y00010750D02*
X00017431Y00010750D01*
X00006071Y00010758D02*
X00014461Y00010758D01*
X00017358Y00010758D02*
X00017431Y00010758D01*
X00006071Y00010767D02*
X00014443Y00010767D01*
X00017358Y00010767D02*
X00017431Y00010767D01*
X00006080Y00010775D02*
X00014435Y00010775D01*
X00017358Y00010775D02*
X00017431Y00010775D01*
X00006080Y00010784D02*
X00014426Y00010784D01*
X00017358Y00010784D02*
X00017431Y00010784D01*
X00006080Y00010792D02*
X00014418Y00010792D01*
X00017358Y00010792D02*
X00017431Y00010792D01*
X00006089Y00010801D02*
X00014409Y00010801D01*
X00017358Y00010801D02*
X00017431Y00010801D01*
X00006089Y00010810D02*
X00014401Y00010810D01*
X00017358Y00010810D02*
X00017431Y00010810D01*
X00006097Y00010818D02*
X00014392Y00010818D01*
X00017358Y00010818D02*
X00017431Y00010818D01*
X00006097Y00010827D02*
X00014375Y00010827D01*
X00017358Y00010827D02*
X00017431Y00010827D01*
X00006106Y00010835D02*
X00014366Y00010835D01*
X00017358Y00010835D02*
X00017431Y00010835D01*
X00006106Y00010844D02*
X00014358Y00010844D01*
X00017358Y00010844D02*
X00017431Y00010844D01*
X00006114Y00010852D02*
X00014349Y00010852D01*
X00017358Y00010852D02*
X00017431Y00010852D01*
X00006114Y00010861D02*
X00014332Y00010861D01*
X00017358Y00010861D02*
X00017431Y00010861D01*
X00006123Y00010869D02*
X00014324Y00010869D01*
X00017358Y00010869D02*
X00017431Y00010869D01*
X00006123Y00010878D02*
X00014315Y00010878D01*
X00017358Y00010878D02*
X00017431Y00010878D01*
X00006123Y00010887D02*
X00014306Y00010887D01*
X00017358Y00010887D02*
X00017431Y00010887D01*
X00006131Y00010895D02*
X00014289Y00010895D01*
X00017358Y00010895D02*
X00017431Y00010895D01*
X00006131Y00010904D02*
X00014281Y00010904D01*
X00017358Y00010904D02*
X00017431Y00010904D01*
X00006140Y00010912D02*
X00014264Y00010912D01*
X00017358Y00010912D02*
X00017431Y00010912D01*
X00006140Y00010921D02*
X00014255Y00010921D01*
X00017358Y00010921D02*
X00017431Y00010921D01*
X00006148Y00010929D02*
X00014238Y00010929D01*
X00017358Y00010929D02*
X00017431Y00010929D01*
X00006148Y00010938D02*
X00014229Y00010938D01*
X00017358Y00010938D02*
X00017431Y00010938D01*
X00006148Y00010947D02*
X00014212Y00010947D01*
X00017358Y00010947D02*
X00017431Y00010947D01*
X00006157Y00010955D02*
X00014204Y00010955D01*
X00017358Y00010955D02*
X00017431Y00010955D01*
X00006157Y00010964D02*
X00014187Y00010964D01*
X00017358Y00010964D02*
X00017431Y00010964D01*
X00006166Y00010972D02*
X00014170Y00010972D01*
X00017358Y00010972D02*
X00017431Y00010972D01*
X00006166Y00010981D02*
X00014161Y00010981D01*
X00017358Y00010981D02*
X00017431Y00010981D01*
X00006174Y00010989D02*
X00014144Y00010989D01*
X00017358Y00010989D02*
X00017431Y00010989D01*
X00006174Y00010998D02*
X00014135Y00010998D01*
X00017358Y00010998D02*
X00017431Y00010998D01*
X00006174Y00011006D02*
X00014118Y00011006D01*
X00017358Y00011006D02*
X00017431Y00011006D01*
X00006183Y00011015D02*
X00014101Y00011015D01*
X00017358Y00011015D02*
X00017431Y00011015D01*
X00006183Y00011024D02*
X00014084Y00011024D01*
X00017358Y00011024D02*
X00017431Y00011024D01*
X00006191Y00011032D02*
X00014075Y00011032D01*
X00017358Y00011032D02*
X00017431Y00011032D01*
X00006191Y00011041D02*
X00014058Y00011041D01*
X00017358Y00011041D02*
X00017431Y00011041D01*
X00006191Y00011049D02*
X00014041Y00011049D01*
X00017358Y00011049D02*
X00017431Y00011049D01*
X00006200Y00011058D02*
X00014024Y00011058D01*
X00017358Y00011058D02*
X00017431Y00011058D01*
X00006200Y00011066D02*
X00014007Y00011066D01*
X00017358Y00011066D02*
X00017431Y00011066D01*
X00006200Y00011075D02*
X00013998Y00011075D01*
X00017358Y00011075D02*
X00017431Y00011075D01*
X00006208Y00011083D02*
X00013973Y00011083D01*
X00017358Y00011083D02*
X00017431Y00011083D01*
X00006208Y00011092D02*
X00013955Y00011092D01*
X00017358Y00011092D02*
X00017431Y00011092D01*
X00006208Y00011101D02*
X00013938Y00011101D01*
X00017358Y00011101D02*
X00017431Y00011101D01*
X00006208Y00011109D02*
X00013921Y00011109D01*
X00017358Y00011109D02*
X00017431Y00011109D01*
X00006217Y00011118D02*
X00013904Y00011118D01*
X00017358Y00011118D02*
X00017431Y00011118D01*
X00006217Y00011126D02*
X00009787Y00011126D01*
X00009906Y00011126D02*
X00013887Y00011126D01*
X00017358Y00011126D02*
X00017431Y00011126D01*
X00006217Y00011135D02*
X00009718Y00011135D01*
X00009924Y00011135D02*
X00013861Y00011135D01*
X00017358Y00011135D02*
X00017431Y00011135D01*
X00006217Y00011143D02*
X00009658Y00011143D01*
X00009949Y00011143D02*
X00013844Y00011143D01*
X00017358Y00011143D02*
X00017431Y00011143D01*
X00006226Y00011152D02*
X00009598Y00011152D01*
X00009966Y00011152D02*
X00013819Y00011152D01*
X00017358Y00011152D02*
X00017431Y00011152D01*
X00006226Y00011161D02*
X00009556Y00011161D01*
X00009983Y00011161D02*
X00013793Y00011161D01*
X00017358Y00011161D02*
X00017431Y00011161D01*
X00006226Y00011169D02*
X00009496Y00011169D01*
X00010009Y00011169D02*
X00013767Y00011169D01*
X00017358Y00011169D02*
X00017431Y00011169D01*
X00006226Y00011178D02*
X00008777Y00011178D01*
X00008785Y00011178D02*
X00009436Y00011178D01*
X00010026Y00011178D02*
X00013750Y00011178D01*
X00017358Y00011178D02*
X00017431Y00011178D01*
X00006234Y00011186D02*
X00008759Y00011186D01*
X00008794Y00011186D02*
X00009376Y00011186D01*
X00010043Y00011186D02*
X00013724Y00011186D01*
X00017358Y00011186D02*
X00017431Y00011186D01*
X00006234Y00011195D02*
X00008742Y00011195D01*
X00008948Y00011195D02*
X00009299Y00011195D01*
X00010069Y00011195D02*
X00013699Y00011195D01*
X00017358Y00011195D02*
X00017431Y00011195D01*
X00006234Y00011203D02*
X00008725Y00011203D01*
X00009102Y00011203D02*
X00009136Y00011203D01*
X00010086Y00011203D02*
X00013673Y00011203D01*
X00017358Y00011203D02*
X00017431Y00011203D01*
X00006226Y00011212D02*
X00008708Y00011212D01*
X00010103Y00011212D02*
X00013647Y00011212D01*
X00017358Y00011212D02*
X00017431Y00011212D01*
X00006217Y00011220D02*
X00008682Y00011220D01*
X00010129Y00011220D02*
X00013622Y00011220D01*
X00017358Y00011220D02*
X00017431Y00011220D01*
X00006200Y00011229D02*
X00008665Y00011229D01*
X00010155Y00011229D02*
X00013596Y00011229D01*
X00017358Y00011229D02*
X00017431Y00011229D01*
X00006191Y00011238D02*
X00008640Y00011238D01*
X00010172Y00011238D02*
X00013562Y00011238D01*
X00017358Y00011238D02*
X00017431Y00011238D01*
X00006183Y00011246D02*
X00008614Y00011246D01*
X00010189Y00011246D02*
X00013527Y00011246D01*
X00017358Y00011246D02*
X00017431Y00011246D01*
X00006174Y00011255D02*
X00008580Y00011255D01*
X00010215Y00011255D02*
X00013485Y00011255D01*
X00017358Y00011255D02*
X00017431Y00011255D01*
X00006166Y00011263D02*
X00008554Y00011263D01*
X00010232Y00011263D02*
X00013433Y00011263D01*
X00017358Y00011263D02*
X00017431Y00011263D01*
X00006157Y00011272D02*
X00008520Y00011272D01*
X00010257Y00011272D02*
X00013382Y00011272D01*
X00017358Y00011272D02*
X00017431Y00011272D01*
X00006140Y00011280D02*
X00008485Y00011280D01*
X00010275Y00011280D02*
X00013339Y00011280D01*
X00017358Y00011280D02*
X00017431Y00011280D01*
X00006131Y00011289D02*
X00008443Y00011289D01*
X00010300Y00011289D02*
X00013296Y00011289D01*
X00017358Y00011289D02*
X00017431Y00011289D01*
X00006123Y00011297D02*
X00008408Y00011297D01*
X00010326Y00011297D02*
X00012843Y00011297D01*
X00013065Y00011297D02*
X00013271Y00011297D01*
X00017358Y00011297D02*
X00017431Y00011297D01*
X00006114Y00011306D02*
X00008366Y00011306D01*
X00010343Y00011306D02*
X00012808Y00011306D01*
X00013142Y00011306D02*
X00013194Y00011306D01*
X00017358Y00011306D02*
X00017431Y00011306D01*
X00006106Y00011315D02*
X00008323Y00011315D01*
X00010369Y00011315D02*
X00012766Y00011315D01*
X00017358Y00011315D02*
X00017431Y00011315D01*
X00006097Y00011323D02*
X00008289Y00011323D01*
X00010386Y00011323D02*
X00012714Y00011323D01*
X00017358Y00011323D02*
X00017431Y00011323D01*
X00006089Y00011332D02*
X00008254Y00011332D01*
X00010411Y00011332D02*
X00012671Y00011332D01*
X00017358Y00011332D02*
X00017431Y00011332D01*
X00006080Y00011340D02*
X00008229Y00011340D01*
X00010437Y00011340D02*
X00012629Y00011340D01*
X00017358Y00011340D02*
X00017431Y00011340D01*
X00006071Y00011349D02*
X00008203Y00011349D01*
X00010454Y00011349D02*
X00012586Y00011349D01*
X00017358Y00011349D02*
X00017431Y00011349D01*
X00006063Y00011357D02*
X00008186Y00011357D01*
X00010480Y00011357D02*
X00012552Y00011357D01*
X00017358Y00011357D02*
X00017431Y00011357D01*
X00006054Y00011366D02*
X00008169Y00011366D01*
X00010506Y00011366D02*
X00012517Y00011366D01*
X00017358Y00011366D02*
X00017431Y00011366D01*
X00006046Y00011375D02*
X00008143Y00011375D01*
X00010531Y00011375D02*
X00012483Y00011375D01*
X00017358Y00011375D02*
X00017431Y00011375D01*
X00006037Y00011383D02*
X00008135Y00011383D01*
X00010557Y00011383D02*
X00012449Y00011383D01*
X00017358Y00011383D02*
X00017431Y00011383D01*
X00006029Y00011392D02*
X00008117Y00011392D01*
X00010583Y00011392D02*
X00012415Y00011392D01*
X00017358Y00011392D02*
X00017431Y00011392D01*
X00006020Y00011400D02*
X00008100Y00011400D01*
X00010608Y00011400D02*
X00012380Y00011400D01*
X00017358Y00011400D02*
X00017431Y00011400D01*
X00006020Y00011409D02*
X00008083Y00011409D01*
X00010634Y00011409D02*
X00012355Y00011409D01*
X00017358Y00011409D02*
X00017431Y00011409D01*
X00006012Y00011417D02*
X00008075Y00011417D01*
X00010660Y00011417D02*
X00012320Y00011417D01*
X00017358Y00011417D02*
X00017431Y00011417D01*
X00006003Y00011426D02*
X00008057Y00011426D01*
X00010694Y00011426D02*
X00012286Y00011426D01*
X00017358Y00011426D02*
X00017431Y00011426D01*
X00005994Y00011434D02*
X00008049Y00011434D01*
X00010720Y00011434D02*
X00012252Y00011434D01*
X00017358Y00011434D02*
X00017431Y00011434D01*
X00005986Y00011443D02*
X00008032Y00011443D01*
X00010754Y00011443D02*
X00012218Y00011443D01*
X00017358Y00011443D02*
X00017431Y00011443D01*
X00005986Y00011452D02*
X00008023Y00011452D01*
X00010788Y00011452D02*
X00012175Y00011452D01*
X00017358Y00011452D02*
X00017431Y00011452D01*
X00005977Y00011460D02*
X00008015Y00011460D01*
X00010822Y00011460D02*
X00012141Y00011460D01*
X00017358Y00011460D02*
X00017431Y00011460D01*
X00005969Y00011469D02*
X00008006Y00011469D01*
X00010857Y00011469D02*
X00012106Y00011469D01*
X00017358Y00011469D02*
X00017431Y00011469D01*
X00005969Y00011477D02*
X00007998Y00011477D01*
X00010899Y00011477D02*
X00012055Y00011477D01*
X00017358Y00011477D02*
X00017431Y00011477D01*
X00005960Y00011486D02*
X00007989Y00011486D01*
X00010934Y00011486D02*
X00012012Y00011486D01*
X00017358Y00011486D02*
X00017431Y00011486D01*
X00005952Y00011494D02*
X00007980Y00011494D01*
X00010985Y00011494D02*
X00011961Y00011494D01*
X00017358Y00011494D02*
X00017431Y00011494D01*
X00005943Y00011503D02*
X00007972Y00011503D01*
X00011036Y00011503D02*
X00011910Y00011503D01*
X00017358Y00011503D02*
X00017431Y00011503D01*
X00005943Y00011511D02*
X00007963Y00011511D01*
X00011096Y00011511D02*
X00011850Y00011511D01*
X00017358Y00011511D02*
X00017431Y00011511D01*
X00005934Y00011520D02*
X00007955Y00011520D01*
X00011173Y00011520D02*
X00011790Y00011520D01*
X00017358Y00011520D02*
X00017431Y00011520D01*
X00005934Y00011529D02*
X00007955Y00011529D01*
X00011285Y00011529D02*
X00011696Y00011529D01*
X00017358Y00011529D02*
X00017431Y00011529D01*
X00005926Y00011537D02*
X00007946Y00011537D01*
X00017358Y00011537D02*
X00017431Y00011537D01*
X00005917Y00011546D02*
X00007938Y00011546D01*
X00017358Y00011546D02*
X00017431Y00011546D01*
X00005917Y00011554D02*
X00007938Y00011554D01*
X00017358Y00011554D02*
X00017431Y00011554D01*
X00005909Y00011563D02*
X00007929Y00011563D01*
X00017358Y00011563D02*
X00017431Y00011563D01*
X00005909Y00011571D02*
X00007929Y00011571D01*
X00017358Y00011571D02*
X00017431Y00011571D01*
X00005900Y00011580D02*
X00007921Y00011580D01*
X00017358Y00011580D02*
X00017431Y00011580D01*
X00005900Y00011589D02*
X00007921Y00011589D01*
X00017358Y00011589D02*
X00017431Y00011589D01*
X00005892Y00011597D02*
X00007912Y00011597D01*
X00017358Y00011597D02*
X00017431Y00011597D01*
X00005892Y00011606D02*
X00007912Y00011606D01*
X00017358Y00011606D02*
X00017431Y00011606D01*
X00005883Y00011614D02*
X00007903Y00011614D01*
X00017358Y00011614D02*
X00017431Y00011614D01*
X00005883Y00011623D02*
X00007903Y00011623D01*
X00017358Y00011623D02*
X00017431Y00011623D01*
X00005875Y00011631D02*
X00007903Y00011631D01*
X00017358Y00011631D02*
X00017431Y00011631D01*
X00005875Y00011640D02*
X00007903Y00011640D01*
X00017358Y00011640D02*
X00017431Y00011640D01*
X00005875Y00011648D02*
X00007903Y00011648D01*
X00017358Y00011648D02*
X00017431Y00011648D01*
X00005866Y00011657D02*
X00007903Y00011657D01*
X00017358Y00011657D02*
X00017431Y00011657D01*
X00005866Y00011666D02*
X00007903Y00011666D01*
X00017358Y00011666D02*
X00017431Y00011666D01*
X00005857Y00011674D02*
X00007903Y00011674D01*
X00017358Y00011674D02*
X00017431Y00011674D01*
X00005857Y00011683D02*
X00007912Y00011683D01*
X00017358Y00011683D02*
X00017431Y00011683D01*
X00005849Y00011691D02*
X00007912Y00011691D01*
X00017358Y00011691D02*
X00017431Y00011691D01*
X00005849Y00011700D02*
X00007912Y00011700D01*
X00017358Y00011700D02*
X00017431Y00011700D01*
X00005849Y00011708D02*
X00007912Y00011708D01*
X00017358Y00011708D02*
X00017431Y00011708D01*
X00005840Y00011717D02*
X00007921Y00011717D01*
X00017358Y00011717D02*
X00017431Y00011717D01*
X00005840Y00011725D02*
X00007921Y00011725D01*
X00017358Y00011725D02*
X00017431Y00011725D01*
X00005840Y00011734D02*
X00007921Y00011734D01*
X00017358Y00011734D02*
X00017431Y00011734D01*
X00005832Y00011743D02*
X00007921Y00011743D01*
X00017358Y00011743D02*
X00017431Y00011743D01*
X00005832Y00011751D02*
X00007921Y00011751D01*
X00017358Y00011751D02*
X00017431Y00011751D01*
X00005832Y00011760D02*
X00007921Y00011760D01*
X00017358Y00011760D02*
X00017431Y00011760D01*
X00005823Y00011768D02*
X00007929Y00011768D01*
X00017358Y00011768D02*
X00017431Y00011768D01*
X00005823Y00011777D02*
X00007929Y00011777D01*
X00017358Y00011777D02*
X00017431Y00011777D01*
X00005823Y00011785D02*
X00007929Y00011785D01*
X00017358Y00011785D02*
X00017431Y00011785D01*
X00005823Y00011794D02*
X00007929Y00011794D01*
X00017358Y00011794D02*
X00017431Y00011794D01*
X00005815Y00011803D02*
X00007929Y00011803D01*
X00017358Y00011803D02*
X00017431Y00011803D01*
X00005815Y00011811D02*
X00007929Y00011811D01*
X00017358Y00011811D02*
X00017431Y00011811D01*
X00005815Y00011820D02*
X00007929Y00011820D01*
X00017358Y00011820D02*
X00017431Y00011820D01*
X00005806Y00011828D02*
X00007929Y00011828D01*
X00017358Y00011828D02*
X00017431Y00011828D01*
X00005806Y00011837D02*
X00007938Y00011837D01*
X00017358Y00011837D02*
X00017431Y00011837D01*
X00005806Y00011845D02*
X00007938Y00011845D01*
X00017358Y00011845D02*
X00017431Y00011845D01*
X00005798Y00011854D02*
X00007938Y00011854D01*
X00017358Y00011854D02*
X00017431Y00011854D01*
X00005798Y00011862D02*
X00007938Y00011862D01*
X00017358Y00011862D02*
X00017431Y00011862D01*
X00005798Y00011871D02*
X00007938Y00011871D01*
X00017358Y00011871D02*
X00017431Y00011871D01*
X00005798Y00011880D02*
X00007938Y00011880D01*
X00017358Y00011880D02*
X00017431Y00011880D01*
X00005789Y00011888D02*
X00007938Y00011888D01*
X00017358Y00011888D02*
X00017431Y00011888D01*
X00005789Y00011897D02*
X00007938Y00011897D01*
X00017358Y00011897D02*
X00017431Y00011897D01*
X00005789Y00011905D02*
X00007938Y00011905D01*
X00017358Y00011905D02*
X00017431Y00011905D01*
X00005780Y00011914D02*
X00007938Y00011914D01*
X00017358Y00011914D02*
X00017431Y00011914D01*
X00005780Y00011922D02*
X00007938Y00011922D01*
X00017358Y00011922D02*
X00017431Y00011922D01*
X00005780Y00011931D02*
X00007938Y00011931D01*
X00017358Y00011931D02*
X00017431Y00011931D01*
X00005780Y00011939D02*
X00007938Y00011939D01*
X00017358Y00011939D02*
X00017431Y00011939D01*
X00005772Y00011948D02*
X00007938Y00011948D01*
X00017358Y00011948D02*
X00017431Y00011948D01*
X00005772Y00011957D02*
X00007938Y00011957D01*
X00017358Y00011957D02*
X00017431Y00011957D01*
X00005772Y00011965D02*
X00007938Y00011965D01*
X00017358Y00011965D02*
X00017431Y00011965D01*
X00005763Y00011974D02*
X00007938Y00011974D01*
X00017358Y00011974D02*
X00017431Y00011974D01*
X00005763Y00011982D02*
X00007938Y00011982D01*
X00017358Y00011982D02*
X00017431Y00011982D01*
X00005763Y00011991D02*
X00007938Y00011991D01*
X00017358Y00011991D02*
X00017431Y00011991D01*
X00005763Y00011999D02*
X00007938Y00011999D01*
X00017358Y00011999D02*
X00017431Y00011999D01*
X00005755Y00012008D02*
X00007938Y00012008D01*
X00017358Y00012008D02*
X00017431Y00012008D01*
X00005755Y00012017D02*
X00007938Y00012017D01*
X00017358Y00012017D02*
X00017431Y00012017D01*
X00005755Y00012025D02*
X00007938Y00012025D01*
X00017358Y00012025D02*
X00017431Y00012025D01*
X00005746Y00012034D02*
X00007929Y00012034D01*
X00017358Y00012034D02*
X00017431Y00012034D01*
X00005746Y00012042D02*
X00007929Y00012042D01*
X00017358Y00012042D02*
X00017431Y00012042D01*
X00005738Y00012051D02*
X00007929Y00012051D01*
X00017358Y00012051D02*
X00017431Y00012051D01*
X00005729Y00012059D02*
X00007929Y00012059D01*
X00017358Y00012059D02*
X00017431Y00012059D01*
X00005712Y00012068D02*
X00007929Y00012068D01*
X00017358Y00012068D02*
X00017431Y00012068D01*
X00005695Y00012076D02*
X00007929Y00012076D01*
X00017358Y00012076D02*
X00017431Y00012076D01*
X00005686Y00012085D02*
X00007929Y00012085D01*
X00017358Y00012085D02*
X00017431Y00012085D01*
X00005669Y00012094D02*
X00007929Y00012094D01*
X00017358Y00012094D02*
X00017431Y00012094D01*
X00005652Y00012102D02*
X00007921Y00012102D01*
X00017358Y00012102D02*
X00017431Y00012102D01*
X00005643Y00012111D02*
X00007921Y00012111D01*
X00017358Y00012111D02*
X00017431Y00012111D01*
X00005635Y00012119D02*
X00007921Y00012119D01*
X00017358Y00012119D02*
X00017431Y00012119D01*
X00005618Y00012128D02*
X00007921Y00012128D01*
X00017358Y00012128D02*
X00017431Y00012128D01*
X00005609Y00012136D02*
X00007921Y00012136D01*
X00017358Y00012136D02*
X00017431Y00012136D01*
X00005601Y00012145D02*
X00007921Y00012145D01*
X00017358Y00012145D02*
X00017431Y00012145D01*
X00005592Y00012153D02*
X00007912Y00012153D01*
X00017358Y00012153D02*
X00017431Y00012153D01*
X00005584Y00012162D02*
X00007912Y00012162D01*
X00017358Y00012162D02*
X00017431Y00012162D01*
X00005575Y00012171D02*
X00007912Y00012171D01*
X00017358Y00012171D02*
X00017431Y00012171D01*
X00005575Y00012179D02*
X00007912Y00012179D01*
X00017358Y00012179D02*
X00017431Y00012179D01*
X00005566Y00012188D02*
X00007903Y00012188D01*
X00017358Y00012188D02*
X00017431Y00012188D01*
X00005558Y00012196D02*
X00007903Y00012196D01*
X00017358Y00012196D02*
X00017431Y00012196D01*
X00005558Y00012205D02*
X00007903Y00012205D01*
X00017358Y00012205D02*
X00017431Y00012205D01*
X00005549Y00012213D02*
X00007903Y00012213D01*
X00017358Y00012213D02*
X00017431Y00012213D01*
X00005541Y00012222D02*
X00007903Y00012222D01*
X00017358Y00012222D02*
X00017431Y00012222D01*
X00005541Y00012231D02*
X00007895Y00012231D01*
X00017358Y00012231D02*
X00017431Y00012231D01*
X00005541Y00012239D02*
X00007895Y00012239D01*
X00017358Y00012239D02*
X00017431Y00012239D01*
X00005532Y00012248D02*
X00007895Y00012248D01*
X00017358Y00012248D02*
X00017431Y00012248D01*
X00005532Y00012256D02*
X00007895Y00012256D01*
X00017358Y00012256D02*
X00017431Y00012256D01*
X00005524Y00012265D02*
X00007895Y00012265D01*
X00017358Y00012265D02*
X00017431Y00012265D01*
X00005524Y00012273D02*
X00007895Y00012273D01*
X00017358Y00012273D02*
X00017431Y00012273D01*
X00005524Y00012282D02*
X00007912Y00012282D01*
X00017358Y00012282D02*
X00017431Y00012282D01*
X00005524Y00012290D02*
X00007921Y00012290D01*
X00017358Y00012290D02*
X00017431Y00012290D01*
X00005524Y00012299D02*
X00007929Y00012299D01*
X00017358Y00012299D02*
X00017431Y00012299D01*
X00005524Y00012308D02*
X00007938Y00012308D01*
X00017358Y00012308D02*
X00017431Y00012308D01*
X00005515Y00012316D02*
X00007938Y00012316D01*
X00017358Y00012316D02*
X00017431Y00012316D01*
X00005515Y00012325D02*
X00007946Y00012325D01*
X00017358Y00012325D02*
X00017431Y00012325D01*
X00005506Y00012333D02*
X00007955Y00012333D01*
X00017358Y00012333D02*
X00017431Y00012333D01*
X00005498Y00012342D02*
X00007963Y00012342D01*
X00017358Y00012342D02*
X00017431Y00012342D01*
X00005489Y00012350D02*
X00007963Y00012350D01*
X00017358Y00012350D02*
X00017431Y00012350D01*
X00005472Y00012359D02*
X00007972Y00012359D01*
X00017358Y00012359D02*
X00017431Y00012359D01*
X00005464Y00012368D02*
X00007972Y00012368D01*
X00017358Y00012368D02*
X00017431Y00012368D01*
X00005455Y00012376D02*
X00007980Y00012376D01*
X00017358Y00012376D02*
X00017431Y00012376D01*
X00005447Y00012385D02*
X00007989Y00012385D01*
X00017358Y00012385D02*
X00017431Y00012385D01*
X00005438Y00012393D02*
X00007989Y00012393D01*
X00017358Y00012393D02*
X00017431Y00012393D01*
X00005429Y00012402D02*
X00007998Y00012402D01*
X00017358Y00012402D02*
X00017431Y00012402D01*
X00005421Y00012410D02*
X00008006Y00012410D01*
X00017358Y00012410D02*
X00017431Y00012410D01*
X00005412Y00012419D02*
X00008006Y00012419D01*
X00017358Y00012419D02*
X00017431Y00012419D01*
X00005404Y00012427D02*
X00008015Y00012427D01*
X00017358Y00012427D02*
X00017431Y00012427D01*
X00005395Y00012436D02*
X00008015Y00012436D01*
X00017358Y00012436D02*
X00017431Y00012436D01*
X00005395Y00012445D02*
X00008015Y00012445D01*
X00017358Y00012445D02*
X00017431Y00012445D01*
X00005387Y00012453D02*
X00008023Y00012453D01*
X00017358Y00012453D02*
X00017431Y00012453D01*
X00005378Y00012462D02*
X00008023Y00012462D01*
X00017358Y00012462D02*
X00017431Y00012462D01*
X00005370Y00012470D02*
X00008023Y00012470D01*
X00017358Y00012470D02*
X00017431Y00012470D01*
X00005370Y00012479D02*
X00008023Y00012479D01*
X00017358Y00012479D02*
X00017431Y00012479D01*
X00005361Y00012487D02*
X00008023Y00012487D01*
X00017358Y00012487D02*
X00017431Y00012487D01*
X00005352Y00012496D02*
X00008023Y00012496D01*
X00017358Y00012496D02*
X00017431Y00012496D01*
X00005344Y00012504D02*
X00008023Y00012504D01*
X00017358Y00012504D02*
X00017431Y00012504D01*
X00005344Y00012513D02*
X00008015Y00012513D01*
X00017358Y00012513D02*
X00017431Y00012513D01*
X00005335Y00012522D02*
X00008015Y00012522D01*
X00017358Y00012522D02*
X00017431Y00012522D01*
X00005327Y00012530D02*
X00008015Y00012530D01*
X00017358Y00012530D02*
X00017431Y00012530D01*
X00005327Y00012539D02*
X00008015Y00012539D01*
X00017358Y00012539D02*
X00017431Y00012539D01*
X00005318Y00012547D02*
X00008006Y00012547D01*
X00017358Y00012547D02*
X00017431Y00012547D01*
X00005310Y00012556D02*
X00008006Y00012556D01*
X00017358Y00012556D02*
X00017431Y00012556D01*
X00005310Y00012564D02*
X00008006Y00012564D01*
X00017358Y00012564D02*
X00017431Y00012564D01*
X00005301Y00012573D02*
X00008006Y00012573D01*
X00017358Y00012573D02*
X00017431Y00012573D01*
X00005301Y00012582D02*
X00008006Y00012582D01*
X00017358Y00012582D02*
X00017431Y00012582D01*
X00005292Y00012590D02*
X00008006Y00012590D01*
X00017358Y00012590D02*
X00017431Y00012590D01*
X00005292Y00012599D02*
X00008006Y00012599D01*
X00017358Y00012599D02*
X00017431Y00012599D01*
X00005284Y00012607D02*
X00008006Y00012607D01*
X00017358Y00012607D02*
X00017431Y00012607D01*
X00005284Y00012616D02*
X00008006Y00012616D01*
X00017358Y00012616D02*
X00017431Y00012616D01*
X00005284Y00012624D02*
X00008006Y00012624D01*
X00017358Y00012624D02*
X00017431Y00012624D01*
X00005275Y00012633D02*
X00008006Y00012633D01*
X00017358Y00012633D02*
X00017431Y00012633D01*
X00005275Y00012641D02*
X00008006Y00012641D01*
X00017358Y00012641D02*
X00017431Y00012641D01*
X00005275Y00012650D02*
X00008006Y00012650D01*
X00017358Y00012650D02*
X00017431Y00012650D01*
X00005267Y00012659D02*
X00008006Y00012659D01*
X00017358Y00012659D02*
X00017431Y00012659D01*
X00005267Y00012667D02*
X00008006Y00012667D01*
X00017358Y00012667D02*
X00017431Y00012667D01*
X00005267Y00012676D02*
X00008006Y00012676D01*
X00017358Y00012676D02*
X00017431Y00012676D01*
X00005258Y00012684D02*
X00008006Y00012684D01*
X00017358Y00012684D02*
X00017431Y00012684D01*
X00005258Y00012693D02*
X00008006Y00012693D01*
X00017358Y00012693D02*
X00017431Y00012693D01*
X00005258Y00012701D02*
X00006243Y00012701D01*
X00006268Y00012701D02*
X00008006Y00012701D01*
X00017358Y00012701D02*
X00017431Y00012701D01*
X00005258Y00012710D02*
X00006234Y00012710D01*
X00006294Y00012710D02*
X00008006Y00012710D01*
X00017358Y00012710D02*
X00017431Y00012710D01*
X00005250Y00012718D02*
X00006226Y00012718D01*
X00006320Y00012718D02*
X00008006Y00012718D01*
X00017358Y00012718D02*
X00017431Y00012718D01*
X00005250Y00012727D02*
X00006226Y00012727D01*
X00006345Y00012727D02*
X00008006Y00012727D01*
X00017358Y00012727D02*
X00017431Y00012727D01*
X00005250Y00012736D02*
X00006217Y00012736D01*
X00006371Y00012736D02*
X00008006Y00012736D01*
X00017358Y00012736D02*
X00017431Y00012736D01*
X00005250Y00012744D02*
X00006208Y00012744D01*
X00006397Y00012744D02*
X00008015Y00012744D01*
X00017358Y00012744D02*
X00017431Y00012744D01*
X00005241Y00012753D02*
X00006200Y00012753D01*
X00006431Y00012753D02*
X00008015Y00012753D01*
X00017358Y00012753D02*
X00017431Y00012753D01*
X00005241Y00012761D02*
X00006191Y00012761D01*
X00006465Y00012761D02*
X00008015Y00012761D01*
X00017358Y00012761D02*
X00017431Y00012761D01*
X00005241Y00012770D02*
X00006183Y00012770D01*
X00006499Y00012770D02*
X00008023Y00012770D01*
X00017358Y00012770D02*
X00017431Y00012770D01*
X00005241Y00012778D02*
X00006174Y00012778D01*
X00006534Y00012778D02*
X00008023Y00012778D01*
X00017358Y00012778D02*
X00017431Y00012778D01*
X00005233Y00012787D02*
X00006166Y00012787D01*
X00006568Y00012787D02*
X00008023Y00012787D01*
X00017358Y00012787D02*
X00017431Y00012787D01*
X00005233Y00012796D02*
X00006157Y00012796D01*
X00006619Y00012796D02*
X00008032Y00012796D01*
X00017358Y00012796D02*
X00017431Y00012796D01*
X00005233Y00012804D02*
X00006157Y00012804D01*
X00006654Y00012804D02*
X00008032Y00012804D01*
X00017358Y00012804D02*
X00017431Y00012804D01*
X00005233Y00012813D02*
X00006149Y00012813D01*
X00006705Y00012813D02*
X00008032Y00012813D01*
X00017358Y00012813D02*
X00017431Y00012813D01*
X00005233Y00012821D02*
X00006140Y00012821D01*
X00006748Y00012821D02*
X00008040Y00012821D01*
X00017358Y00012821D02*
X00017431Y00012821D01*
X00005233Y00012830D02*
X00006123Y00012830D01*
X00006799Y00012830D02*
X00008040Y00012830D01*
X00017358Y00012830D02*
X00017431Y00012830D01*
X00005224Y00012838D02*
X00006114Y00012838D01*
X00006859Y00012838D02*
X00008040Y00012838D01*
X00017358Y00012838D02*
X00017431Y00012838D01*
X00005224Y00012847D02*
X00006106Y00012847D01*
X00006936Y00012847D02*
X00008040Y00012847D01*
X00017358Y00012847D02*
X00017431Y00012847D01*
X00005224Y00012855D02*
X00006097Y00012855D01*
X00007047Y00012855D02*
X00008049Y00012855D01*
X00017358Y00012855D02*
X00017431Y00012855D01*
X00005224Y00012864D02*
X00006089Y00012864D01*
X00007141Y00012864D02*
X00008049Y00012864D01*
X00017358Y00012864D02*
X00017431Y00012864D01*
X00005224Y00012873D02*
X00006080Y00012873D01*
X00007141Y00012873D02*
X00008049Y00012873D01*
X00017358Y00012873D02*
X00017431Y00012873D01*
X00005224Y00012881D02*
X00006072Y00012881D01*
X00007150Y00012881D02*
X00008057Y00012881D01*
X00017358Y00012881D02*
X00017431Y00012881D01*
X00005215Y00012890D02*
X00006063Y00012890D01*
X00007150Y00012890D02*
X00008057Y00012890D01*
X00017358Y00012890D02*
X00017431Y00012890D01*
X00005215Y00012898D02*
X00006054Y00012898D01*
X00007150Y00012898D02*
X00008057Y00012898D01*
X00017358Y00012898D02*
X00017431Y00012898D01*
X00005215Y00012907D02*
X00006037Y00012907D01*
X00007159Y00012907D02*
X00008057Y00012907D01*
X00017358Y00012907D02*
X00017431Y00012907D01*
X00005215Y00012915D02*
X00006029Y00012915D01*
X00007159Y00012915D02*
X00008057Y00012915D01*
X00017358Y00012915D02*
X00017431Y00012915D01*
X00005215Y00012924D02*
X00006020Y00012924D01*
X00007167Y00012924D02*
X00008066Y00012924D01*
X00017358Y00012924D02*
X00017431Y00012924D01*
X00005215Y00012932D02*
X00006003Y00012932D01*
X00007167Y00012932D02*
X00008066Y00012932D01*
X00017358Y00012932D02*
X00017431Y00012932D01*
X00005215Y00012941D02*
X00005994Y00012941D01*
X00007176Y00012941D02*
X00008066Y00012941D01*
X00017358Y00012941D02*
X00017431Y00012941D01*
X00005207Y00012950D02*
X00005986Y00012950D01*
X00007176Y00012950D02*
X00008066Y00012950D01*
X00017358Y00012950D02*
X00017431Y00012950D01*
X00005207Y00012958D02*
X00005969Y00012958D01*
X00007184Y00012958D02*
X00008066Y00012958D01*
X00017358Y00012958D02*
X00017431Y00012958D01*
X00005207Y00012967D02*
X00005960Y00012967D01*
X00007184Y00012967D02*
X00008066Y00012967D01*
X00017358Y00012967D02*
X00017431Y00012967D01*
X00005207Y00012975D02*
X00005952Y00012975D01*
X00007184Y00012975D02*
X00008066Y00012975D01*
X00017358Y00012975D02*
X00017431Y00012975D01*
X00005207Y00012984D02*
X00005935Y00012984D01*
X00007193Y00012984D02*
X00008066Y00012984D01*
X00017358Y00012984D02*
X00017431Y00012984D01*
X00005207Y00012992D02*
X00005926Y00012992D01*
X00007201Y00012992D02*
X00008066Y00012992D01*
X00017358Y00012992D02*
X00017431Y00012992D01*
X00005207Y00013001D02*
X00005909Y00013001D01*
X00007201Y00013001D02*
X00008066Y00013001D01*
X00017358Y00013001D02*
X00017431Y00013001D01*
X00005207Y00013010D02*
X00005892Y00013010D01*
X00007201Y00013010D02*
X00008066Y00013010D01*
X00017358Y00013010D02*
X00017431Y00013010D01*
X00005207Y00013018D02*
X00005883Y00013018D01*
X00007210Y00013018D02*
X00008075Y00013018D01*
X00017358Y00013018D02*
X00017431Y00013018D01*
X00005207Y00013027D02*
X00005866Y00013027D01*
X00007219Y00013027D02*
X00008075Y00013027D01*
X00017358Y00013027D02*
X00017431Y00013027D01*
X00005207Y00013035D02*
X00005858Y00013035D01*
X00007219Y00013035D02*
X00008075Y00013035D01*
X00017358Y00013035D02*
X00017431Y00013035D01*
X00005198Y00013044D02*
X00005840Y00013044D01*
X00007227Y00013044D02*
X00008075Y00013044D01*
X00017358Y00013044D02*
X00017431Y00013044D01*
X00005198Y00013052D02*
X00005823Y00013052D01*
X00007227Y00013052D02*
X00008075Y00013052D01*
X00017358Y00013052D02*
X00017431Y00013052D01*
X00005198Y00013061D02*
X00005806Y00013061D01*
X00007236Y00013061D02*
X00008075Y00013061D01*
X00017358Y00013061D02*
X00017431Y00013061D01*
X00005198Y00013069D02*
X00005789Y00013069D01*
X00007244Y00013069D02*
X00008075Y00013069D01*
X00017358Y00013069D02*
X00017431Y00013069D01*
X00005198Y00013078D02*
X00005780Y00013078D01*
X00007244Y00013078D02*
X00008075Y00013078D01*
X00017358Y00013078D02*
X00017431Y00013078D01*
X00005198Y00013087D02*
X00005763Y00013087D01*
X00007253Y00013087D02*
X00008075Y00013087D01*
X00017358Y00013087D02*
X00017431Y00013087D01*
X00005198Y00013095D02*
X00005746Y00013095D01*
X00007253Y00013095D02*
X00008075Y00013095D01*
X00017358Y00013095D02*
X00017431Y00013095D01*
X00005198Y00013104D02*
X00005729Y00013104D01*
X00007261Y00013104D02*
X00008075Y00013104D01*
X00017358Y00013104D02*
X00017431Y00013104D01*
X00005198Y00013112D02*
X00005712Y00013112D01*
X00007270Y00013112D02*
X00008066Y00013112D01*
X00017358Y00013112D02*
X00017431Y00013112D01*
X00005198Y00013121D02*
X00005695Y00013121D01*
X00007278Y00013121D02*
X00008066Y00013121D01*
X00017358Y00013121D02*
X00017431Y00013121D01*
X00005198Y00013129D02*
X00005678Y00013129D01*
X00007278Y00013129D02*
X00008066Y00013129D01*
X00017358Y00013129D02*
X00017431Y00013129D01*
X00005198Y00013138D02*
X00005661Y00013138D01*
X00007287Y00013138D02*
X00008066Y00013138D01*
X00017358Y00013138D02*
X00017431Y00013138D01*
X00005198Y00013146D02*
X00005643Y00013146D01*
X00007296Y00013146D02*
X00008066Y00013146D01*
X00017358Y00013146D02*
X00017431Y00013146D01*
X00005198Y00013155D02*
X00005626Y00013155D01*
X00007296Y00013155D02*
X00008066Y00013155D01*
X00017358Y00013155D02*
X00017431Y00013155D01*
X00005198Y00013164D02*
X00005609Y00013164D01*
X00007304Y00013164D02*
X00008066Y00013164D01*
X00017358Y00013164D02*
X00017431Y00013164D01*
X00005198Y00013172D02*
X00005584Y00013172D01*
X00007313Y00013172D02*
X00008066Y00013172D01*
X00017358Y00013172D02*
X00017431Y00013172D01*
X00005198Y00013181D02*
X00005566Y00013181D01*
X00007321Y00013181D02*
X00008066Y00013181D01*
X00017358Y00013181D02*
X00017431Y00013181D01*
X00005198Y00013189D02*
X00005549Y00013189D01*
X00007321Y00013189D02*
X00008066Y00013189D01*
X00017358Y00013189D02*
X00017431Y00013189D01*
X00005198Y00013198D02*
X00005532Y00013198D01*
X00007330Y00013198D02*
X00008057Y00013198D01*
X00017358Y00013198D02*
X00017431Y00013198D01*
X00005198Y00013206D02*
X00005507Y00013206D01*
X00007338Y00013206D02*
X00008057Y00013206D01*
X00017358Y00013206D02*
X00017431Y00013206D01*
X00005198Y00013215D02*
X00005481Y00013215D01*
X00007347Y00013215D02*
X00008057Y00013215D01*
X00017358Y00013215D02*
X00017431Y00013215D01*
X00005198Y00013224D02*
X00005464Y00013224D01*
X00007355Y00013224D02*
X00008057Y00013224D01*
X00017358Y00013224D02*
X00017431Y00013224D01*
X00005207Y00013232D02*
X00005438Y00013232D01*
X00007355Y00013232D02*
X00008057Y00013232D01*
X00017358Y00013232D02*
X00017431Y00013232D01*
X00005207Y00013241D02*
X00005412Y00013241D01*
X00007364Y00013241D02*
X00008057Y00013241D01*
X00017358Y00013241D02*
X00017431Y00013241D01*
X00005207Y00013249D02*
X00005387Y00013249D01*
X00007373Y00013249D02*
X00008057Y00013249D01*
X00017358Y00013249D02*
X00017431Y00013249D01*
X00005207Y00013258D02*
X00005361Y00013258D01*
X00007373Y00013258D02*
X00008049Y00013258D01*
X00017358Y00013258D02*
X00017431Y00013258D01*
X00005207Y00013266D02*
X00005335Y00013266D01*
X00007381Y00013266D02*
X00008049Y00013266D01*
X00017358Y00013266D02*
X00017431Y00013266D01*
X00005207Y00013275D02*
X00005301Y00013275D01*
X00007390Y00013275D02*
X00008049Y00013275D01*
X00017358Y00013275D02*
X00017431Y00013275D01*
X00005207Y00013283D02*
X00005267Y00013283D01*
X00007398Y00013283D02*
X00008049Y00013283D01*
X00017358Y00013283D02*
X00017431Y00013283D01*
X00007407Y00013292D02*
X00008040Y00013292D01*
X00017358Y00013292D02*
X00017431Y00013292D01*
X00007407Y00013301D02*
X00008040Y00013301D01*
X00017358Y00013301D02*
X00017431Y00013301D01*
X00007415Y00013309D02*
X00008040Y00013309D01*
X00017358Y00013309D02*
X00017431Y00013309D01*
X00007424Y00013318D02*
X00008040Y00013318D01*
X00017358Y00013318D02*
X00017431Y00013318D01*
X00007433Y00013326D02*
X00008040Y00013326D01*
X00017358Y00013326D02*
X00017431Y00013326D01*
X00007441Y00013335D02*
X00008032Y00013335D01*
X00017358Y00013335D02*
X00017431Y00013335D01*
X00007441Y00013343D02*
X00008032Y00013343D01*
X00017358Y00013343D02*
X00017431Y00013343D01*
X00007450Y00013352D02*
X00008032Y00013352D01*
X00017358Y00013352D02*
X00017431Y00013352D01*
X00007458Y00013360D02*
X00008023Y00013360D01*
X00017358Y00013360D02*
X00017431Y00013360D01*
X00007467Y00013369D02*
X00008023Y00013369D01*
X00017358Y00013369D02*
X00017431Y00013369D01*
X00007475Y00013378D02*
X00008023Y00013378D01*
X00017358Y00013378D02*
X00017431Y00013378D01*
X00007484Y00013386D02*
X00008023Y00013386D01*
X00017358Y00013386D02*
X00017431Y00013386D01*
X00007484Y00013395D02*
X00008015Y00013395D01*
X00017358Y00013395D02*
X00017431Y00013395D01*
X00007492Y00013403D02*
X00008015Y00013403D01*
X00017358Y00013403D02*
X00017431Y00013403D01*
X00007501Y00013412D02*
X00008015Y00013412D01*
X00017358Y00013412D02*
X00017431Y00013412D01*
X00007510Y00013420D02*
X00008006Y00013420D01*
X00017358Y00013420D02*
X00017431Y00013420D01*
X00007510Y00013429D02*
X00008006Y00013429D01*
X00017358Y00013429D02*
X00017431Y00013429D01*
X00007518Y00013438D02*
X00008006Y00013438D01*
X00017358Y00013438D02*
X00017431Y00013438D01*
X00007527Y00013446D02*
X00007998Y00013446D01*
X00017358Y00013446D02*
X00017431Y00013446D01*
X00007535Y00013455D02*
X00007998Y00013455D01*
X00017358Y00013455D02*
X00017431Y00013455D01*
X00007544Y00013463D02*
X00007989Y00013463D01*
X00017358Y00013463D02*
X00017431Y00013463D01*
X00007544Y00013472D02*
X00007989Y00013472D01*
X00017358Y00013472D02*
X00017431Y00013472D01*
X00007552Y00013480D02*
X00007989Y00013480D01*
X00017358Y00013480D02*
X00017431Y00013480D01*
X00007561Y00013489D02*
X00007980Y00013489D01*
X00017358Y00013489D02*
X00017431Y00013489D01*
X00007569Y00013497D02*
X00007980Y00013497D01*
X00017358Y00013497D02*
X00017431Y00013497D01*
X00007578Y00013506D02*
X00007972Y00013506D01*
X00017358Y00013506D02*
X00017431Y00013506D01*
X00007578Y00013515D02*
X00007972Y00013515D01*
X00017358Y00013515D02*
X00017431Y00013515D01*
X00007587Y00013523D02*
X00007972Y00013523D01*
X00017358Y00013523D02*
X00017431Y00013523D01*
X00007595Y00013532D02*
X00007963Y00013532D01*
X00017358Y00013532D02*
X00017431Y00013532D01*
X00007604Y00013540D02*
X00007963Y00013540D01*
X00017358Y00013540D02*
X00017431Y00013540D01*
X00007604Y00013549D02*
X00007955Y00013549D01*
X00017358Y00013549D02*
X00017431Y00013549D01*
X00007612Y00013557D02*
X00007955Y00013557D01*
X00017358Y00013557D02*
X00017431Y00013557D01*
X00007621Y00013566D02*
X00007946Y00013566D01*
X00017358Y00013566D02*
X00017431Y00013566D01*
X00007629Y00013575D02*
X00007946Y00013575D01*
X00017358Y00013575D02*
X00017431Y00013575D01*
X00007629Y00013583D02*
X00007938Y00013583D01*
X00017358Y00013583D02*
X00017431Y00013583D01*
X00007638Y00013592D02*
X00007938Y00013592D01*
X00017358Y00013592D02*
X00017431Y00013592D01*
X00007647Y00013600D02*
X00007929Y00013600D01*
X00017358Y00013600D02*
X00017431Y00013600D01*
X00007647Y00013609D02*
X00007929Y00013609D01*
X00017358Y00013609D02*
X00017431Y00013609D01*
X00007655Y00013617D02*
X00007921Y00013617D01*
X00017358Y00013617D02*
X00017431Y00013617D01*
X00007655Y00013626D02*
X00007912Y00013626D01*
X00017358Y00013626D02*
X00017431Y00013626D01*
X00007664Y00013634D02*
X00007912Y00013634D01*
X00017358Y00013634D02*
X00017431Y00013634D01*
X00007672Y00013643D02*
X00007903Y00013643D01*
X00017358Y00013643D02*
X00017431Y00013643D01*
X00007672Y00013652D02*
X00007895Y00013652D01*
X00017358Y00013652D02*
X00017431Y00013652D01*
X00007681Y00013660D02*
X00007895Y00013660D01*
X00017358Y00013660D02*
X00017431Y00013660D01*
X00007689Y00013669D02*
X00007886Y00013669D01*
X00017358Y00013669D02*
X00017431Y00013669D01*
X00007689Y00013677D02*
X00007878Y00013677D01*
X00017358Y00013677D02*
X00017431Y00013677D01*
X00007698Y00013686D02*
X00007878Y00013686D01*
X00017358Y00013686D02*
X00017431Y00013686D01*
X00007698Y00013694D02*
X00007869Y00013694D01*
X00017358Y00013694D02*
X00017431Y00013694D01*
X00007706Y00013703D02*
X00007861Y00013703D01*
X00017358Y00013703D02*
X00017431Y00013703D01*
X00007706Y00013711D02*
X00007852Y00013711D01*
X00017358Y00013711D02*
X00017431Y00013711D01*
X00007715Y00013720D02*
X00007852Y00013720D01*
X00017358Y00013720D02*
X00017431Y00013720D01*
X00007715Y00013729D02*
X00007843Y00013729D01*
X00017358Y00013729D02*
X00017431Y00013729D01*
X00007724Y00013737D02*
X00007835Y00013737D01*
X00017358Y00013737D02*
X00017431Y00013737D01*
X00007724Y00013746D02*
X00007826Y00013746D01*
X00017358Y00013746D02*
X00017431Y00013746D01*
X00007732Y00013754D02*
X00007818Y00013754D01*
X00017358Y00013754D02*
X00017431Y00013754D01*
X00007732Y00013763D02*
X00007809Y00013763D01*
X00017358Y00013763D02*
X00017431Y00013763D01*
X00007741Y00013771D02*
X00007809Y00013771D01*
X00017358Y00013771D02*
X00017431Y00013771D01*
X00007741Y00013780D02*
X00007801Y00013780D01*
X00017358Y00013780D02*
X00017431Y00013780D01*
X00007741Y00013789D02*
X00007792Y00013789D01*
X00017358Y00013789D02*
X00017431Y00013789D01*
X00007749Y00013797D02*
X00007784Y00013797D01*
X00017358Y00013797D02*
X00017431Y00013797D01*
X00017358Y00013806D02*
X00017431Y00013806D01*
X00017358Y00013814D02*
X00017431Y00013814D01*
X00017358Y00013823D02*
X00017431Y00013823D01*
X00017358Y00013831D02*
X00017431Y00013831D01*
X00017358Y00013840D02*
X00017431Y00013840D01*
X00017358Y00013848D02*
X00017431Y00013848D01*
X00017358Y00013857D02*
X00017431Y00013857D01*
X00017358Y00013866D02*
X00017431Y00013866D01*
X00017358Y00013874D02*
X00017431Y00013874D01*
X00017358Y00013883D02*
X00017431Y00013883D01*
X00017358Y00013891D02*
X00017431Y00013891D01*
X00017358Y00013900D02*
X00017431Y00013900D01*
X00017358Y00013908D02*
X00017431Y00013908D01*
X00017358Y00013917D02*
X00017431Y00013917D01*
X00017358Y00013925D02*
X00017431Y00013925D01*
X00017358Y00013934D02*
X00017431Y00013934D01*
X00017358Y00013943D02*
X00017431Y00013943D01*
X00017358Y00013951D02*
X00017431Y00013951D01*
X00017358Y00013960D02*
X00017431Y00013960D01*
X00017358Y00013968D02*
X00017431Y00013968D01*
X00017358Y00013977D02*
X00017431Y00013977D01*
X00017358Y00013985D02*
X00017431Y00013985D01*
X00017358Y00013994D02*
X00017431Y00013994D01*
X00017358Y00014003D02*
X00017431Y00014003D01*
X00017358Y00014011D02*
X00017431Y00014011D01*
X00017358Y00014020D02*
X00017431Y00014020D01*
X00017358Y00014028D02*
X00017431Y00014028D01*
X00017358Y00014037D02*
X00017431Y00014037D01*
X00017358Y00014045D02*
X00017431Y00014045D01*
X00017358Y00014054D02*
X00017431Y00014054D01*
X00017358Y00014062D02*
X00017431Y00014062D01*
X00017358Y00014071D02*
X00017431Y00014071D01*
X00017358Y00014080D02*
X00017431Y00014080D01*
X00017358Y00014088D02*
X00017431Y00014088D01*
X00017358Y00014097D02*
X00017431Y00014097D01*
X00017358Y00014105D02*
X00017431Y00014105D01*
X00017358Y00014114D02*
X00017431Y00014114D01*
X00017358Y00014122D02*
X00017431Y00014122D01*
X00017358Y00014131D02*
X00017431Y00014131D01*
X00017358Y00014139D02*
X00017431Y00014139D01*
X00017358Y00014148D02*
X00017431Y00014148D01*
X00017358Y00014157D02*
X00017431Y00014157D01*
X00017358Y00014165D02*
X00017431Y00014165D01*
X00017358Y00014174D02*
X00017431Y00014174D01*
X00017358Y00014182D02*
X00017431Y00014182D01*
X00017358Y00014191D02*
X00017431Y00014191D01*
X00017358Y00014199D02*
X00017431Y00014199D01*
X00017358Y00014208D02*
X00017431Y00014208D01*
X00017358Y00014217D02*
X00017431Y00014217D01*
X00017358Y00014225D02*
X00017431Y00014225D01*
X00017358Y00014234D02*
X00017431Y00014234D01*
X00017358Y00014242D02*
X00017431Y00014242D01*
X00017358Y00014251D02*
X00017431Y00014251D01*
X00017358Y00014259D02*
X00017431Y00014259D01*
X00017358Y00014268D02*
X00017431Y00014268D01*
X00017358Y00014276D02*
X00017431Y00014276D01*
X00017358Y00014285D02*
X00017431Y00014285D01*
X00017358Y00014294D02*
X00017431Y00014294D01*
X00017358Y00014302D02*
X00017431Y00014302D01*
X00017358Y00014311D02*
X00017431Y00014311D01*
X00017358Y00014319D02*
X00017431Y00014319D01*
X00017358Y00014328D02*
X00017431Y00014328D01*
X00017358Y00014336D02*
X00017431Y00014336D01*
X00017358Y00014345D02*
X00017431Y00014345D01*
X00017358Y00014353D02*
X00017431Y00014353D01*
X00017358Y00014362D02*
X00017431Y00014362D01*
X00017358Y00014371D02*
X00017431Y00014371D01*
X00017358Y00014379D02*
X00017431Y00014379D01*
X00017358Y00014388D02*
X00017431Y00014388D01*
X00017358Y00014396D02*
X00017431Y00014396D01*
X00017358Y00014405D02*
X00017431Y00014405D01*
X00017358Y00014413D02*
X00017431Y00014413D01*
X00017358Y00014422D02*
X00017431Y00014422D01*
X00017358Y00014431D02*
X00017431Y00014431D01*
X00017358Y00014439D02*
X00017431Y00014439D01*
X00017358Y00014448D02*
X00017431Y00014448D01*
X00017358Y00014456D02*
X00017431Y00014456D01*
X00017358Y00014465D02*
X00017431Y00014465D01*
X00017358Y00014473D02*
X00017431Y00014473D01*
X00017358Y00014482D02*
X00017431Y00014482D01*
X00017358Y00014490D02*
X00017431Y00014490D01*
X00017358Y00014499D02*
X00017431Y00014499D01*
X00017358Y00014508D02*
X00017431Y00014508D01*
X00017358Y00014516D02*
X00017431Y00014516D01*
X00017358Y00014525D02*
X00017431Y00014525D01*
X00017358Y00014533D02*
X00017431Y00014533D01*
X00017358Y00014542D02*
X00017431Y00014542D01*
X00017358Y00014550D02*
X00017431Y00014550D01*
X00017358Y00014559D02*
X00017431Y00014559D01*
X00017358Y00014567D02*
X00017431Y00014567D01*
X00017358Y00014576D02*
X00017431Y00014576D01*
X00017358Y00014585D02*
X00017431Y00014585D01*
X00017358Y00014593D02*
X00017431Y00014593D01*
X00017358Y00014602D02*
X00017431Y00014602D01*
X00017358Y00014610D02*
X00017431Y00014610D01*
X00017358Y00014619D02*
X00017431Y00014619D01*
X00017358Y00014627D02*
X00017431Y00014627D01*
X00017358Y00014636D02*
X00017431Y00014636D01*
X00017358Y00014645D02*
X00017431Y00014645D01*
X00017358Y00014653D02*
X00017431Y00014653D01*
X00017358Y00014662D02*
X00017431Y00014662D01*
X00017358Y00014670D02*
X00017431Y00014670D01*
X00017358Y00014679D02*
X00017431Y00014679D01*
X00017358Y00014687D02*
X00017431Y00014687D01*
X00017358Y00014696D02*
X00017431Y00014696D01*
X00017358Y00014704D02*
X00017431Y00014704D01*
X00017358Y00014713D02*
X00017431Y00014713D01*
X00017358Y00014722D02*
X00017431Y00014722D01*
X00017358Y00014730D02*
X00017431Y00014730D01*
X00017358Y00014739D02*
X00017431Y00014739D01*
X00017358Y00014747D02*
X00017431Y00014747D01*
X00017358Y00014756D02*
X00017431Y00014756D01*
X00017358Y00014764D02*
X00017431Y00014764D01*
X00017358Y00014773D02*
X00017431Y00014773D01*
X00017358Y00014781D02*
X00017431Y00014781D01*
X00017358Y00014790D02*
X00017431Y00014790D01*
X00017358Y00014799D02*
X00017431Y00014799D01*
X00017358Y00014807D02*
X00017431Y00014807D01*
X00017358Y00014816D02*
X00017431Y00014816D01*
X00017358Y00014824D02*
X00017431Y00014824D01*
X00017358Y00014833D02*
X00017431Y00014833D01*
X00017358Y00014841D02*
X00017431Y00014841D01*
X00017358Y00014850D02*
X00017431Y00014850D01*
X00017358Y00014859D02*
X00017431Y00014859D01*
X00017358Y00014867D02*
X00017431Y00014867D01*
X00017358Y00014876D02*
X00017431Y00014876D01*
X00017358Y00014884D02*
X00017431Y00014884D01*
X00017358Y00014893D02*
X00017431Y00014893D01*
X00017358Y00014901D02*
X00017431Y00014901D01*
X00017358Y00014910D02*
X00017431Y00014910D01*
X00017358Y00014918D02*
X00017431Y00014918D01*
X00017358Y00014927D02*
X00017431Y00014927D01*
X00017358Y00014936D02*
X00017431Y00014936D01*
X00017358Y00014944D02*
X00017431Y00014944D01*
X00017358Y00014953D02*
X00017431Y00014953D01*
X00017358Y00014961D02*
X00017431Y00014961D01*
X00017358Y00014970D02*
X00017431Y00014970D01*
X00017358Y00014978D02*
X00017431Y00014978D01*
X00017358Y00014987D02*
X00017431Y00014987D01*
X00017358Y00014996D02*
X00017431Y00014996D01*
X00017358Y00015004D02*
X00017431Y00015004D01*
X00017358Y00015013D02*
X00017431Y00015013D01*
X00017358Y00015021D02*
X00017431Y00015021D01*
X00017358Y00015030D02*
X00017431Y00015030D01*
X00017358Y00015038D02*
X00017431Y00015038D01*
X00017358Y00015047D02*
X00017431Y00015047D01*
X00017358Y00015055D02*
X00017431Y00015055D01*
X00017358Y00015064D02*
X00017431Y00015064D01*
X00017358Y00015073D02*
X00017431Y00015073D01*
X00017358Y00015081D02*
X00017431Y00015081D01*
X00017358Y00015090D02*
X00017431Y00015090D01*
X00017358Y00015098D02*
X00017431Y00015098D01*
X00017358Y00015107D02*
X00017431Y00015107D01*
X00017358Y00015115D02*
X00017431Y00015115D01*
X00017358Y00015124D02*
X00017431Y00015124D01*
X00017358Y00015132D02*
X00017431Y00015132D01*
X00017358Y00015141D02*
X00017431Y00015141D01*
X00017358Y00015150D02*
X00017431Y00015150D01*
X00017358Y00015158D02*
X00017431Y00015158D01*
X00017358Y00015167D02*
X00017431Y00015167D01*
X00017358Y00015175D02*
X00017431Y00015175D01*
X00017358Y00015184D02*
X00017431Y00015184D01*
X00017358Y00015192D02*
X00017431Y00015192D01*
X00017358Y00015201D02*
X00017431Y00015201D01*
X00017358Y00015210D02*
X00017431Y00015210D01*
X00017358Y00015218D02*
X00017431Y00015218D01*
X00017358Y00015227D02*
X00017431Y00015227D01*
X00017358Y00015235D02*
X00017431Y00015235D01*
X00017358Y00015244D02*
X00017431Y00015244D01*
X00017358Y00015252D02*
X00017431Y00015252D01*
X00017358Y00015261D02*
X00017431Y00015261D01*
X00017358Y00015269D02*
X00017431Y00015269D01*
X00017358Y00015278D02*
X00017431Y00015278D01*
X00017358Y00015287D02*
X00017431Y00015287D01*
X00017358Y00015295D02*
X00017431Y00015295D01*
X00017358Y00015304D02*
X00017431Y00015304D01*
X00017358Y00015312D02*
X00017431Y00015312D01*
X00017358Y00015321D02*
X00017431Y00015321D01*
X00017358Y00015329D02*
X00017431Y00015329D01*
X00017358Y00015338D02*
X00017431Y00015338D01*
X00017358Y00015346D02*
X00017431Y00015346D01*
X00017358Y00015355D02*
X00017431Y00015355D01*
X00017358Y00015364D02*
X00017431Y00015364D01*
X00017358Y00015372D02*
X00017431Y00015372D01*
X00017358Y00015381D02*
X00017431Y00015381D01*
X00017358Y00015389D02*
X00017431Y00015389D01*
X00017358Y00015398D02*
X00017431Y00015398D01*
X00017358Y00015406D02*
X00017431Y00015406D01*
X00017358Y00015415D02*
X00017431Y00015415D01*
X00017358Y00015424D02*
X00017431Y00015424D01*
X00017358Y00015432D02*
X00017431Y00015432D01*
X00017358Y00015441D02*
X00017431Y00015441D01*
X00017358Y00015449D02*
X00017431Y00015449D01*
X00017358Y00015458D02*
X00017431Y00015458D01*
X00017358Y00015466D02*
X00017431Y00015466D01*
X00017358Y00015475D02*
X00017431Y00015475D01*
X00017358Y00015483D02*
X00017431Y00015483D01*
X00017358Y00015492D02*
X00017431Y00015492D01*
X00017358Y00015501D02*
X00017431Y00015501D01*
X00017358Y00015509D02*
X00017431Y00015509D01*
X00017358Y00015518D02*
X00017431Y00015518D01*
X00017358Y00015526D02*
X00017431Y00015526D01*
X00017358Y00015535D02*
X00017431Y00015535D01*
X00017358Y00015543D02*
X00017431Y00015543D01*
X00017358Y00015552D02*
X00017431Y00015552D01*
X00017358Y00015560D02*
X00017431Y00015560D01*
X00017358Y00015569D02*
X00017431Y00015569D01*
X00017358Y00015578D02*
X00017431Y00015578D01*
X00017358Y00015586D02*
X00017431Y00015586D01*
X00017358Y00015595D02*
X00017431Y00015595D01*
X00017358Y00015603D02*
X00017431Y00015603D01*
X00017358Y00015612D02*
X00017431Y00015612D01*
X00017358Y00015620D02*
X00017431Y00015620D01*
X00017358Y00015629D02*
X00017431Y00015629D01*
X00017358Y00015638D02*
X00017431Y00015638D01*
X00017358Y00015646D02*
X00017431Y00015646D01*
X00017358Y00015655D02*
X00017431Y00015655D01*
X00017358Y00015663D02*
X00017431Y00015663D01*
X00017358Y00015672D02*
X00017431Y00015672D01*
X00017358Y00015680D02*
X00017431Y00015680D01*
X00017358Y00015689D02*
X00017431Y00015689D01*
X00017358Y00015697D02*
X00017431Y00015697D01*
X00017358Y00015706D02*
X00017431Y00015706D01*
X00017358Y00015715D02*
X00017431Y00015715D01*
X00017358Y00015723D02*
X00017431Y00015723D01*
X00017358Y00015732D02*
X00017431Y00015732D01*
X00017358Y00015740D02*
X00017431Y00015740D01*
X00017358Y00015749D02*
X00017431Y00015749D01*
X00017358Y00015757D02*
X00017431Y00015757D01*
X00017358Y00015766D02*
X00017431Y00015766D01*
X00017358Y00015774D02*
X00017431Y00015774D01*
X00017358Y00015783D02*
X00017431Y00015783D01*
X00017358Y00015792D02*
X00017431Y00015792D01*
X00017358Y00015800D02*
X00017431Y00015800D01*
X00017358Y00015809D02*
X00017431Y00015809D01*
X00017358Y00015817D02*
X00017431Y00015817D01*
X00017358Y00015826D02*
X00017431Y00015826D01*
X00017358Y00015834D02*
X00017431Y00015834D01*
X00017358Y00015843D02*
X00017431Y00015843D01*
X00017358Y00015852D02*
X00017431Y00015852D01*
X00017358Y00015860D02*
X00017431Y00015860D01*
X00017358Y00015869D02*
X00017431Y00015869D01*
X00017358Y00015877D02*
X00017431Y00015877D01*
X00017358Y00015886D02*
X00017431Y00015886D01*
X00017358Y00015894D02*
X00017431Y00015894D01*
X00017358Y00015903D02*
X00017431Y00015903D01*
X00017358Y00015911D02*
X00017431Y00015911D01*
X00017358Y00015920D02*
X00017431Y00015920D01*
X00017358Y00015929D02*
X00017431Y00015929D01*
X00017358Y00015937D02*
X00017431Y00015937D01*
X00017358Y00015946D02*
X00017431Y00015946D01*
X00017358Y00015954D02*
X00017431Y00015954D01*
X00017358Y00015963D02*
X00017431Y00015963D01*
X00017358Y00015971D02*
X00017431Y00015971D01*
X00017358Y00015980D02*
X00017431Y00015980D01*
X00017358Y00015988D02*
X00017431Y00015988D01*
X00017358Y00015997D02*
X00017431Y00015997D01*
X00017358Y00016006D02*
X00017431Y00016006D01*
X00017358Y00016014D02*
X00017431Y00016014D01*
X00017358Y00016023D02*
X00017431Y00016023D01*
X00017358Y00016031D02*
X00017431Y00016031D01*
X00017358Y00016040D02*
X00017431Y00016040D01*
X00017358Y00016048D02*
X00017431Y00016048D01*
X00017358Y00016057D02*
X00017431Y00016057D01*
X00017358Y00016066D02*
X00017431Y00016066D01*
X00017358Y00016074D02*
X00017431Y00016074D01*
X00017358Y00016083D02*
X00017431Y00016083D01*
X00017358Y00016091D02*
X00017431Y00016091D01*
X00017358Y00016100D02*
X00017431Y00016100D01*
X00017358Y00016108D02*
X00017431Y00016108D01*
X00017358Y00016117D02*
X00017431Y00016117D01*
X00017358Y00016125D02*
X00017431Y00016125D01*
X00017358Y00016134D02*
X00017431Y00016134D01*
X00017358Y00016143D02*
X00017431Y00016143D01*
X00017358Y00016151D02*
X00017431Y00016151D01*
X00017358Y00016160D02*
X00017431Y00016160D01*
X00017358Y00016168D02*
X00017431Y00016168D01*
X00017358Y00016177D02*
X00017431Y00016177D01*
X00017358Y00016185D02*
X00017431Y00016185D01*
X00017358Y00016194D02*
X00017431Y00016194D01*
X00017358Y00016202D02*
X00017431Y00016202D01*
X00017358Y00016211D02*
X00017431Y00016211D01*
X00017358Y00016220D02*
X00017431Y00016220D01*
X00017358Y00016228D02*
X00017431Y00016228D01*
X00017358Y00016237D02*
X00017431Y00016237D01*
X00017358Y00016245D02*
X00017431Y00016245D01*
X00017358Y00016254D02*
X00017431Y00016254D01*
X00017358Y00016262D02*
X00017431Y00016262D01*
X00017358Y00016271D02*
X00017431Y00016271D01*
X00017358Y00016280D02*
X00017431Y00016280D01*
X00017358Y00016288D02*
X00017431Y00016288D01*
X00017358Y00016297D02*
X00017431Y00016297D01*
X00017358Y00016305D02*
X00017431Y00016305D01*
X00017358Y00016314D02*
X00017431Y00016314D01*
X00017358Y00016322D02*
X00017431Y00016322D01*
X00017358Y00016331D02*
X00017431Y00016331D01*
X00017358Y00016339D02*
X00017431Y00016339D01*
X00017358Y00016348D02*
X00017431Y00016348D01*
X00017358Y00016357D02*
X00017431Y00016357D01*
X00017358Y00016365D02*
X00017431Y00016365D01*
X00017358Y00016374D02*
X00017431Y00016374D01*
X00017358Y00016382D02*
X00017431Y00016382D01*
X00017358Y00016391D02*
X00017431Y00016391D01*
X00017358Y00016399D02*
X00017431Y00016399D01*
X00017358Y00016408D02*
X00017431Y00016408D01*
X00017358Y00016417D02*
X00017431Y00016417D01*
X00017358Y00016425D02*
X00017431Y00016425D01*
X00017358Y00016434D02*
X00017431Y00016434D01*
X00017358Y00016442D02*
X00017431Y00016442D01*
X00017358Y00016451D02*
X00017431Y00016451D01*
X00017358Y00016459D02*
X00017431Y00016459D01*
X00017358Y00016468D02*
X00017431Y00016468D01*
X00017358Y00016476D02*
X00017431Y00016476D01*
X00017358Y00016485D02*
X00017431Y00016485D01*
X00017358Y00016494D02*
X00017431Y00016494D01*
X00017358Y00016502D02*
X00017431Y00016502D01*
X00017358Y00016511D02*
X00017431Y00016511D01*
X00017358Y00016519D02*
X00017431Y00016519D01*
X00017358Y00016528D02*
X00017431Y00016528D01*
X00017358Y00016536D02*
X00017431Y00016536D01*
X00017358Y00016545D02*
X00017431Y00016545D01*
X00017358Y00016553D02*
X00017431Y00016553D01*
X00017358Y00016562D02*
X00017431Y00016562D01*
X00017358Y00016571D02*
X00017431Y00016571D01*
X00017358Y00016579D02*
X00017431Y00016579D01*
X00017358Y00016588D02*
X00017431Y00016588D01*
X00017358Y00016596D02*
X00017431Y00016596D01*
X00017358Y00016605D02*
X00017431Y00016605D01*
X00017358Y00016613D02*
X00017431Y00016613D01*
X00017358Y00016622D02*
X00017431Y00016622D01*
X00017358Y00016631D02*
X00017431Y00016631D01*
X00017358Y00016639D02*
X00017431Y00016639D01*
X00017358Y00016648D02*
X00017431Y00016648D01*
X00017358Y00016656D02*
X00017431Y00016656D01*
X00017358Y00016665D02*
X00017431Y00016665D01*
X00017358Y00016673D02*
X00017431Y00016673D01*
X00017358Y00016682D02*
X00017431Y00016682D01*
X00017358Y00016690D02*
X00017431Y00016690D01*
X00017358Y00016699D02*
X00017431Y00016699D01*
X00017358Y00016708D02*
X00017431Y00016708D01*
X00017358Y00016716D02*
X00017431Y00016716D01*
X00017358Y00016725D02*
X00017431Y00016725D01*
X00017358Y00016733D02*
X00017431Y00016733D01*
X00017358Y00016742D02*
X00017431Y00016742D01*
X00017358Y00016750D02*
X00017431Y00016750D01*
X00017358Y00016759D02*
X00017431Y00016759D01*
X00017358Y00016767D02*
X00017431Y00016767D01*
X00017358Y00016776D02*
X00017431Y00016776D01*
X00017358Y00016785D02*
X00017431Y00016785D01*
X00017358Y00016793D02*
X00017431Y00016793D01*
X00017358Y00016802D02*
X00017431Y00016802D01*
X00017358Y00016810D02*
X00017431Y00016810D01*
X00017358Y00016819D02*
X00017431Y00016819D01*
X00017358Y00016827D02*
X00017431Y00016827D01*
X00017358Y00016836D02*
X00017431Y00016836D01*
X00017358Y00016845D02*
X00017431Y00016845D01*
X00017358Y00016853D02*
X00017431Y00016853D01*
X00017358Y00016862D02*
X00017431Y00016862D01*
X00017358Y00016870D02*
X00017431Y00016870D01*
X00017358Y00016879D02*
X00017431Y00016879D01*
X00017358Y00016887D02*
X00017431Y00016887D01*
X00017358Y00016896D02*
X00017431Y00016896D01*
X00017358Y00016904D02*
X00017431Y00016904D01*
X00017358Y00016913D02*
X00017431Y00016913D01*
X00017358Y00016922D02*
X00017431Y00016922D01*
X00017358Y00016930D02*
X00017431Y00016930D01*
X00017358Y00016939D02*
X00017431Y00016939D01*
X00017358Y00016947D02*
X00017431Y00016947D01*
X00017358Y00016956D02*
X00017431Y00016956D01*
X00017358Y00016964D02*
X00017431Y00016964D01*
X00017358Y00016973D02*
X00017431Y00016973D01*
X00017358Y00016981D02*
X00017431Y00016981D01*
X00017358Y00016990D02*
X00017431Y00016990D01*
X00017358Y00016999D02*
X00017431Y00016999D01*
X00017358Y00017007D02*
X00017431Y00017007D01*
X00017358Y00017016D02*
X00017431Y00017016D01*
X00017358Y00017024D02*
X00017431Y00017024D01*
X00017358Y00017033D02*
X00017431Y00017033D01*
X00017358Y00017041D02*
X00017431Y00017041D01*
X00017358Y00017050D02*
X00017431Y00017050D01*
X00017358Y00017059D02*
X00017431Y00017059D01*
X00017358Y00017067D02*
X00017431Y00017067D01*
X00017358Y00017076D02*
X00017431Y00017076D01*
X00017358Y00017084D02*
X00017431Y00017084D01*
X00017358Y00017093D02*
X00017431Y00017093D01*
X00017358Y00017101D02*
X00017431Y00017101D01*
X00017358Y00017110D02*
X00017431Y00017110D01*
X00017358Y00017118D02*
X00017431Y00017118D01*
X00017358Y00017127D02*
X00017431Y00017127D01*
X00017358Y00017136D02*
X00017431Y00017136D01*
X00017358Y00017144D02*
X00017431Y00017144D01*
X00017358Y00017153D02*
X00017431Y00017153D01*
X00017358Y00017161D02*
X00017431Y00017161D01*
X00017358Y00017170D02*
X00017431Y00017170D01*
X00017358Y00017178D02*
X00017431Y00017178D01*
X00017358Y00017187D02*
X00017431Y00017187D01*
X00017358Y00017195D02*
X00017431Y00017195D01*
X00017358Y00017204D02*
X00017431Y00017204D01*
X00017358Y00017213D02*
X00017431Y00017213D01*
X00017358Y00017221D02*
X00017431Y00017221D01*
X00017358Y00017230D02*
X00017431Y00017230D01*
X00017358Y00017238D02*
X00017431Y00017238D01*
X00017358Y00017247D02*
X00017431Y00017247D01*
X00017358Y00017255D02*
X00017431Y00017255D01*
X00017358Y00017264D02*
X00017431Y00017264D01*
X00017358Y00017273D02*
X00017431Y00017273D01*
X00017358Y00017281D02*
X00017431Y00017281D01*
X00017358Y00017290D02*
X00017431Y00017290D01*
X00017358Y00017298D02*
X00017431Y00017298D01*
X00017358Y00017307D02*
X00017431Y00017307D01*
X00017358Y00017315D02*
X00017431Y00017315D01*
X00017358Y00017324D02*
X00017431Y00017324D01*
X00017358Y00017332D02*
X00017431Y00017332D01*
X00017358Y00017341D02*
X00017431Y00017341D01*
X00017358Y00017350D02*
X00017431Y00017350D01*
X00017358Y00017358D02*
X00017431Y00017358D01*
X00017358Y00017367D02*
X00017431Y00017367D01*
X00017358Y00017375D02*
X00017431Y00017375D01*
X00017358Y00017384D02*
X00017431Y00017384D01*
X00017358Y00017392D02*
X00017431Y00017392D01*
X00017358Y00017401D02*
X00017431Y00017401D01*
X00017358Y00017409D02*
X00017431Y00017409D01*
X00017358Y00017418D02*
X00017431Y00017418D01*
X00017358Y00017427D02*
X00017431Y00017427D01*
M02*