G04 MADE WITH FRITZING*
G04 WWW.FRITZING.ORG*
G04 DOUBLE SIDED*
G04 HOLES PLATED*
G04 CONTOUR ON CENTER OF CONTOUR VECTOR*
%ASAXBY*%
%FSLAX23Y23*%
%MOIN*%
%OFA0B0*%
%SFA1.0B1.0*%
%ADD10C,0.042189X0.0301888*%
%ADD11C,0.010000*%
%ADD12C,0.005000*%
%ADD13C,0.005556*%
%ADD14R,0.001000X0.001000*%
%LNSILK1*%
G90*
G70*
G54D10*
X273Y474D03*
G54D11*
X401Y1107D02*
X401Y807D01*
D02*
X401Y807D02*
X501Y807D01*
D02*
X501Y807D02*
X501Y1107D01*
D02*
X501Y1107D02*
X401Y1107D01*
G54D12*
D02*
X401Y1072D02*
X436Y1107D01*
G54D11*
D02*
X601Y1107D02*
X601Y807D01*
D02*
X601Y807D02*
X701Y807D01*
D02*
X701Y807D02*
X701Y1107D01*
D02*
X701Y1107D02*
X601Y1107D01*
G54D12*
D02*
X601Y1072D02*
X636Y1107D01*
G54D11*
D02*
X701Y1107D02*
X701Y807D01*
D02*
X701Y807D02*
X801Y807D01*
D02*
X801Y807D02*
X801Y1107D01*
D02*
X801Y1107D02*
X701Y1107D01*
G54D12*
D02*
X701Y1072D02*
X736Y1107D01*
G54D11*
D02*
X501Y1107D02*
X501Y807D01*
D02*
X501Y807D02*
X601Y807D01*
D02*
X601Y807D02*
X601Y1107D01*
D02*
X601Y1107D02*
X501Y1107D01*
G54D12*
D02*
X501Y1072D02*
X536Y1107D01*
G54D11*
D02*
X201Y1107D02*
X201Y807D01*
D02*
X201Y807D02*
X301Y807D01*
D02*
X301Y807D02*
X301Y1107D01*
D02*
X301Y1107D02*
X201Y1107D01*
G54D12*
D02*
X201Y1072D02*
X236Y1107D01*
G54D11*
D02*
X301Y1107D02*
X301Y807D01*
D02*
X301Y807D02*
X401Y807D01*
D02*
X401Y807D02*
X401Y1107D01*
D02*
X401Y1107D02*
X301Y1107D01*
G54D12*
D02*
X301Y1072D02*
X336Y1107D01*
G54D11*
D02*
X101Y1107D02*
X101Y807D01*
D02*
X101Y807D02*
X201Y807D01*
D02*
X201Y807D02*
X201Y1107D01*
D02*
X201Y1107D02*
X101Y1107D01*
D02*
X801Y1107D02*
X801Y807D01*
D02*
X801Y807D02*
X901Y807D01*
D02*
X901Y807D02*
X901Y1107D01*
D02*
X901Y1107D02*
X801Y1107D01*
D02*
X901Y7D02*
X901Y307D01*
D02*
X901Y307D02*
X801Y307D01*
D02*
X801Y307D02*
X801Y7D01*
D02*
X801Y7D02*
X901Y7D01*
G54D12*
D02*
X901Y42D02*
X866Y7D01*
G54D11*
D02*
X801Y7D02*
X801Y307D01*
D02*
X801Y307D02*
X701Y307D01*
D02*
X701Y307D02*
X701Y7D01*
D02*
X701Y7D02*
X801Y7D01*
G54D12*
D02*
X801Y42D02*
X766Y7D01*
G54D11*
D02*
X701Y7D02*
X701Y307D01*
D02*
X701Y307D02*
X601Y307D01*
D02*
X601Y307D02*
X601Y7D01*
D02*
X601Y7D02*
X701Y7D01*
G54D12*
D02*
X701Y42D02*
X666Y7D01*
G54D11*
D02*
X601Y7D02*
X601Y307D01*
D02*
X601Y307D02*
X501Y307D01*
D02*
X501Y307D02*
X501Y7D01*
D02*
X501Y7D02*
X601Y7D01*
G54D12*
D02*
X601Y42D02*
X566Y7D01*
G54D11*
D02*
X501Y7D02*
X501Y307D01*
D02*
X501Y307D02*
X401Y307D01*
D02*
X401Y307D02*
X401Y7D01*
D02*
X401Y7D02*
X501Y7D01*
G54D12*
D02*
X501Y42D02*
X466Y7D01*
G54D11*
D02*
X401Y7D02*
X401Y307D01*
D02*
X401Y307D02*
X301Y307D01*
D02*
X301Y307D02*
X301Y7D01*
D02*
X301Y7D02*
X401Y7D01*
G54D12*
D02*
X401Y42D02*
X366Y7D01*
G54D11*
D02*
X301Y7D02*
X301Y307D01*
D02*
X301Y307D02*
X201Y307D01*
D02*
X201Y307D02*
X201Y7D01*
D02*
X201Y7D02*
X301Y7D01*
G54D12*
D02*
X301Y42D02*
X266Y7D01*
G54D11*
D02*
X201Y7D02*
X201Y307D01*
D02*
X201Y307D02*
X101Y307D01*
D02*
X101Y307D02*
X101Y7D01*
D02*
X101Y7D02*
X201Y7D01*
G54D12*
D02*
X201Y42D02*
X166Y7D01*
G54D13*
X121Y677D02*
X121Y647D01*
X121Y647D02*
X137Y647D01*
X137Y647D02*
X142Y652D01*
X142Y652D02*
X142Y672D01*
X142Y672D02*
X137Y676D01*
X137Y676D02*
X121Y676D01*
X174Y676D02*
X164Y672D01*
X164Y672D02*
X155Y662D01*
X155Y662D02*
X155Y653D01*
X159Y648D02*
X155Y653D01*
X159Y648D02*
X169Y648D01*
X169Y648D02*
X174Y653D01*
X174Y653D02*
X174Y657D01*
X174Y657D02*
X169Y662D01*
X169Y662D02*
X154Y662D01*
D02*
X121Y477D02*
X121Y447D01*
X121Y447D02*
X137Y447D01*
X137Y447D02*
X141Y452D01*
X141Y452D02*
X141Y472D01*
X141Y472D02*
X137Y476D01*
X137Y476D02*
X121Y476D01*
X153Y472D02*
X157Y476D01*
X157Y476D02*
X167Y476D01*
X167Y476D02*
X172Y472D01*
X172Y472D02*
X172Y467D01*
X172Y467D02*
X167Y462D01*
X167Y462D02*
X172Y457D01*
X172Y457D02*
X172Y453D01*
X172Y453D02*
X167Y448D01*
X167Y448D02*
X157Y448D01*
X157Y448D02*
X153Y453D01*
X153Y453D02*
X153Y457D01*
X153Y457D02*
X157Y462D01*
X157Y462D02*
X153Y467D01*
X153Y467D02*
X153Y472D01*
X157Y462D02*
X167Y462D01*
D02*
X121Y373D02*
X126Y377D01*
X126Y377D02*
X136Y377D01*
X136Y377D02*
X140Y373D01*
X140Y373D02*
X140Y368D01*
X140Y368D02*
X136Y363D01*
X136Y363D02*
X131Y363D01*
X136Y363D02*
X140Y358D01*
X140Y358D02*
X140Y354D01*
X140Y354D02*
X136Y349D01*
X136Y349D02*
X126Y349D01*
X126Y349D02*
X121Y354D01*
X153Y379D02*
X153Y359D01*
X153Y359D02*
X162Y350D01*
X162Y350D02*
X172Y359D01*
X172Y359D02*
X172Y379D01*
X182Y375D02*
X187Y379D01*
X187Y379D02*
X196Y379D01*
X196Y379D02*
X201Y375D01*
X201Y375D02*
X201Y370D01*
X201Y370D02*
X196Y365D01*
X196Y365D02*
X192Y365D01*
X196Y365D02*
X201Y360D01*
X201Y360D02*
X201Y356D01*
X201Y356D02*
X196Y351D01*
X196Y351D02*
X187Y351D01*
X182Y356D02*
X187Y351D01*
D02*
X857Y377D02*
X836Y377D01*
X836Y377D02*
X836Y362D01*
X836Y362D02*
X846Y367D01*
X846Y367D02*
X851Y367D01*
X851Y367D02*
X856Y362D01*
X856Y362D02*
X856Y353D01*
X856Y353D02*
X851Y348D01*
X851Y348D02*
X841Y347D01*
X841Y347D02*
X836Y352D01*
X868Y377D02*
X868Y357D01*
X868Y357D02*
X877Y348D01*
X877Y348D02*
X887Y357D01*
X887Y357D02*
X887Y377D01*
D02*
G54D14*
X134Y1109D02*
X134Y1109D01*
X833Y1109D02*
X833Y1109D01*
X133Y1108D02*
X135Y1108D01*
X832Y1108D02*
X834Y1108D01*
X132Y1107D02*
X136Y1107D01*
X831Y1107D02*
X835Y1107D01*
X131Y1106D02*
X137Y1106D01*
X830Y1106D02*
X836Y1106D01*
X130Y1105D02*
X136Y1105D01*
X829Y1105D02*
X835Y1105D01*
X129Y1104D02*
X135Y1104D01*
X828Y1104D02*
X834Y1104D01*
X128Y1103D02*
X134Y1103D01*
X827Y1103D02*
X833Y1103D01*
X127Y1102D02*
X133Y1102D01*
X826Y1102D02*
X832Y1102D01*
X126Y1101D02*
X132Y1101D01*
X825Y1101D02*
X831Y1101D01*
X125Y1100D02*
X131Y1100D01*
X824Y1100D02*
X830Y1100D01*
X124Y1099D02*
X130Y1099D01*
X823Y1099D02*
X829Y1099D01*
X46Y1098D02*
X61Y1098D01*
X123Y1098D02*
X129Y1098D01*
X822Y1098D02*
X828Y1098D01*
X945Y1098D02*
X960Y1098D01*
X42Y1097D02*
X64Y1097D01*
X122Y1097D02*
X128Y1097D01*
X821Y1097D02*
X827Y1097D01*
X942Y1097D02*
X964Y1097D01*
X40Y1096D02*
X47Y1096D01*
X54Y1096D02*
X67Y1096D01*
X121Y1096D02*
X127Y1096D01*
X820Y1096D02*
X826Y1096D01*
X939Y1096D02*
X946Y1096D01*
X954Y1096D02*
X966Y1096D01*
X37Y1095D02*
X42Y1095D01*
X60Y1095D02*
X69Y1095D01*
X120Y1095D02*
X126Y1095D01*
X819Y1095D02*
X825Y1095D01*
X937Y1095D02*
X941Y1095D01*
X959Y1095D02*
X969Y1095D01*
X35Y1094D02*
X38Y1094D01*
X63Y1094D02*
X72Y1094D01*
X119Y1094D02*
X125Y1094D01*
X818Y1094D02*
X824Y1094D01*
X934Y1094D02*
X937Y1094D01*
X963Y1094D02*
X971Y1094D01*
X34Y1093D02*
X36Y1093D01*
X66Y1093D02*
X73Y1093D01*
X118Y1093D02*
X124Y1093D01*
X817Y1093D02*
X823Y1093D01*
X933Y1093D02*
X935Y1093D01*
X965Y1093D02*
X972Y1093D01*
X32Y1092D02*
X33Y1092D01*
X68Y1092D02*
X75Y1092D01*
X117Y1092D02*
X123Y1092D01*
X816Y1092D02*
X822Y1092D01*
X931Y1092D02*
X933Y1092D01*
X967Y1092D02*
X974Y1092D01*
X31Y1091D02*
X31Y1091D01*
X70Y1091D02*
X76Y1091D01*
X116Y1091D02*
X122Y1091D01*
X815Y1091D02*
X821Y1091D01*
X930Y1091D02*
X931Y1091D01*
X969Y1091D02*
X975Y1091D01*
X29Y1090D02*
X30Y1090D01*
X72Y1090D02*
X78Y1090D01*
X115Y1090D02*
X121Y1090D01*
X814Y1090D02*
X820Y1090D01*
X928Y1090D02*
X929Y1090D01*
X971Y1090D02*
X977Y1090D01*
X28Y1089D02*
X28Y1089D01*
X73Y1089D02*
X79Y1089D01*
X114Y1089D02*
X120Y1089D01*
X813Y1089D02*
X819Y1089D01*
X927Y1089D02*
X927Y1089D01*
X973Y1089D02*
X978Y1089D01*
X27Y1088D02*
X27Y1088D01*
X75Y1088D02*
X80Y1088D01*
X113Y1088D02*
X119Y1088D01*
X812Y1088D02*
X818Y1088D01*
X926Y1088D02*
X926Y1088D01*
X974Y1088D02*
X979Y1088D01*
X76Y1087D02*
X81Y1087D01*
X112Y1087D02*
X118Y1087D01*
X811Y1087D02*
X817Y1087D01*
X925Y1087D02*
X925Y1087D01*
X975Y1087D02*
X980Y1087D01*
X77Y1086D02*
X82Y1086D01*
X111Y1086D02*
X117Y1086D01*
X810Y1086D02*
X816Y1086D01*
X924Y1086D02*
X924Y1086D01*
X976Y1086D02*
X981Y1086D01*
X78Y1085D02*
X83Y1085D01*
X110Y1085D02*
X116Y1085D01*
X809Y1085D02*
X815Y1085D01*
X978Y1085D02*
X982Y1085D01*
X79Y1084D02*
X83Y1084D01*
X109Y1084D02*
X115Y1084D01*
X808Y1084D02*
X814Y1084D01*
X978Y1084D02*
X983Y1084D01*
X80Y1083D02*
X84Y1083D01*
X108Y1083D02*
X114Y1083D01*
X807Y1083D02*
X813Y1083D01*
X979Y1083D02*
X983Y1083D01*
X81Y1082D02*
X85Y1082D01*
X107Y1082D02*
X113Y1082D01*
X806Y1082D02*
X812Y1082D01*
X980Y1082D02*
X984Y1082D01*
X82Y1081D02*
X85Y1081D01*
X106Y1081D02*
X112Y1081D01*
X805Y1081D02*
X811Y1081D01*
X981Y1081D02*
X985Y1081D01*
X82Y1080D02*
X86Y1080D01*
X105Y1080D02*
X111Y1080D01*
X195Y1080D02*
X195Y1080D01*
X804Y1080D02*
X810Y1080D01*
X982Y1080D02*
X985Y1080D01*
X83Y1079D02*
X87Y1079D01*
X104Y1079D02*
X110Y1079D01*
X184Y1079D02*
X207Y1079D01*
X803Y1079D02*
X809Y1079D01*
X886Y1079D02*
X889Y1079D01*
X982Y1079D02*
X986Y1079D01*
X84Y1078D02*
X87Y1078D01*
X103Y1078D02*
X109Y1078D01*
X184Y1078D02*
X208Y1078D01*
X802Y1078D02*
X808Y1078D01*
X885Y1078D02*
X889Y1078D01*
X983Y1078D02*
X986Y1078D01*
X84Y1077D02*
X88Y1077D01*
X102Y1077D02*
X108Y1077D01*
X184Y1077D02*
X208Y1077D01*
X801Y1077D02*
X807Y1077D01*
X885Y1077D02*
X890Y1077D01*
X984Y1077D02*
X987Y1077D01*
X85Y1076D02*
X88Y1076D01*
X101Y1076D02*
X107Y1076D01*
X185Y1076D02*
X208Y1076D01*
X800Y1076D02*
X806Y1076D01*
X884Y1076D02*
X889Y1076D01*
X984Y1076D02*
X987Y1076D01*
X85Y1075D02*
X89Y1075D01*
X100Y1075D02*
X106Y1075D01*
X185Y1075D02*
X207Y1075D01*
X799Y1075D02*
X805Y1075D01*
X885Y1075D02*
X889Y1075D01*
X985Y1075D02*
X988Y1075D01*
X86Y1074D02*
X89Y1074D01*
X100Y1074D02*
X105Y1074D01*
X192Y1074D02*
X198Y1074D01*
X799Y1074D02*
X804Y1074D01*
X885Y1074D02*
X888Y1074D01*
X985Y1074D02*
X988Y1074D01*
X86Y1073D02*
X89Y1073D01*
X101Y1073D02*
X104Y1073D01*
X193Y1073D02*
X197Y1073D01*
X800Y1073D02*
X803Y1073D01*
X886Y1073D02*
X888Y1073D01*
X986Y1073D02*
X989Y1073D01*
X87Y1072D02*
X90Y1072D01*
X102Y1072D02*
X103Y1072D01*
X193Y1072D02*
X197Y1072D01*
X801Y1072D02*
X802Y1072D01*
X886Y1072D02*
X887Y1072D01*
X986Y1072D02*
X989Y1072D01*
X87Y1071D02*
X90Y1071D01*
X193Y1071D02*
X197Y1071D01*
X886Y1071D02*
X886Y1071D01*
X986Y1071D02*
X989Y1071D01*
X87Y1070D02*
X90Y1070D01*
X193Y1070D02*
X197Y1070D01*
X987Y1070D02*
X989Y1070D01*
X88Y1069D02*
X91Y1069D01*
X193Y1069D02*
X197Y1069D01*
X987Y1069D02*
X990Y1069D01*
X88Y1068D02*
X91Y1068D01*
X193Y1068D02*
X197Y1068D01*
X987Y1068D02*
X990Y1068D01*
X88Y1067D02*
X91Y1067D01*
X193Y1067D02*
X197Y1067D01*
X988Y1067D02*
X990Y1067D01*
X89Y1066D02*
X91Y1066D01*
X193Y1066D02*
X197Y1066D01*
X988Y1066D02*
X990Y1066D01*
X89Y1065D02*
X91Y1065D01*
X193Y1065D02*
X197Y1065D01*
X988Y1065D02*
X991Y1065D01*
X89Y1064D02*
X92Y1064D01*
X193Y1064D02*
X197Y1064D01*
X988Y1064D02*
X991Y1064D01*
X89Y1063D02*
X92Y1063D01*
X193Y1063D02*
X197Y1063D01*
X988Y1063D02*
X991Y1063D01*
X89Y1062D02*
X92Y1062D01*
X193Y1062D02*
X197Y1062D01*
X989Y1062D02*
X991Y1062D01*
X90Y1061D02*
X92Y1061D01*
X193Y1061D02*
X197Y1061D01*
X989Y1061D02*
X991Y1061D01*
X90Y1060D02*
X92Y1060D01*
X193Y1060D02*
X197Y1060D01*
X989Y1060D02*
X991Y1060D01*
X90Y1059D02*
X92Y1059D01*
X193Y1059D02*
X197Y1059D01*
X989Y1059D02*
X991Y1059D01*
X90Y1058D02*
X92Y1058D01*
X193Y1058D02*
X197Y1058D01*
X989Y1058D02*
X991Y1058D01*
X90Y1057D02*
X92Y1057D01*
X193Y1057D02*
X197Y1057D01*
X989Y1057D02*
X991Y1057D01*
X90Y1056D02*
X91Y1056D01*
X193Y1056D02*
X197Y1056D01*
X989Y1056D02*
X991Y1056D01*
X90Y1055D02*
X91Y1055D01*
X193Y1055D02*
X197Y1055D01*
X989Y1055D02*
X991Y1055D01*
X89Y1054D02*
X91Y1054D01*
X193Y1054D02*
X197Y1054D01*
X989Y1054D02*
X990Y1054D01*
X89Y1053D02*
X91Y1053D01*
X193Y1053D02*
X197Y1053D01*
X989Y1053D02*
X990Y1053D01*
X89Y1052D02*
X91Y1052D01*
X193Y1052D02*
X197Y1052D01*
X988Y1052D02*
X990Y1052D01*
X89Y1051D02*
X90Y1051D01*
X193Y1051D02*
X197Y1051D01*
X988Y1051D02*
X990Y1051D01*
X89Y1050D02*
X90Y1050D01*
X193Y1050D02*
X197Y1050D01*
X888Y1050D02*
X888Y1050D01*
X988Y1050D02*
X989Y1050D01*
X89Y1049D02*
X90Y1049D01*
X193Y1049D02*
X197Y1049D01*
X888Y1049D02*
X889Y1049D01*
X988Y1049D02*
X989Y1049D01*
X88Y1048D02*
X90Y1048D01*
X193Y1048D02*
X197Y1048D01*
X888Y1048D02*
X889Y1048D01*
X987Y1048D02*
X989Y1048D01*
X88Y1047D02*
X89Y1047D01*
X193Y1047D02*
X197Y1047D01*
X887Y1047D02*
X890Y1047D01*
X987Y1047D02*
X988Y1047D01*
X88Y1046D02*
X89Y1046D01*
X193Y1046D02*
X197Y1046D01*
X887Y1046D02*
X890Y1046D01*
X987Y1046D02*
X988Y1046D01*
X87Y1045D02*
X88Y1045D01*
X193Y1045D02*
X197Y1045D01*
X887Y1045D02*
X889Y1045D01*
X986Y1045D02*
X988Y1045D01*
X87Y1044D02*
X88Y1044D01*
X194Y1044D02*
X196Y1044D01*
X887Y1044D02*
X888Y1044D01*
X986Y1044D02*
X987Y1044D01*
X87Y1043D02*
X88Y1043D01*
X986Y1043D02*
X987Y1043D01*
X86Y1042D02*
X87Y1042D01*
X985Y1042D02*
X986Y1042D01*
X86Y1041D02*
X87Y1041D01*
X985Y1041D02*
X986Y1041D01*
X85Y1040D02*
X86Y1040D01*
X984Y1040D02*
X985Y1040D01*
X85Y1039D02*
X85Y1039D01*
X984Y1039D02*
X985Y1039D01*
X84Y1038D02*
X85Y1038D01*
X983Y1038D02*
X984Y1038D01*
X83Y1037D02*
X84Y1037D01*
X983Y1037D02*
X983Y1037D01*
X83Y1036D02*
X83Y1036D01*
X982Y1036D02*
X983Y1036D01*
X82Y1035D02*
X83Y1035D01*
X981Y1035D02*
X982Y1035D01*
X81Y1034D02*
X82Y1034D01*
X981Y1034D02*
X981Y1034D01*
X81Y1033D02*
X81Y1033D01*
X980Y1033D02*
X980Y1033D01*
X80Y1032D02*
X80Y1032D01*
X979Y1032D02*
X979Y1032D01*
X79Y1031D02*
X79Y1031D01*
X978Y1031D02*
X978Y1031D01*
X977Y1030D02*
X977Y1030D01*
X53Y999D02*
X53Y999D01*
X953Y999D02*
X953Y999D01*
X46Y998D02*
X61Y998D01*
X945Y998D02*
X960Y998D01*
X42Y997D02*
X65Y997D01*
X941Y997D02*
X964Y997D01*
X39Y996D02*
X47Y996D01*
X55Y996D02*
X67Y996D01*
X939Y996D02*
X946Y996D01*
X954Y996D02*
X967Y996D01*
X37Y995D02*
X42Y995D01*
X60Y995D02*
X70Y995D01*
X936Y995D02*
X941Y995D01*
X959Y995D02*
X969Y995D01*
X35Y994D02*
X38Y994D01*
X63Y994D02*
X72Y994D01*
X934Y994D02*
X937Y994D01*
X963Y994D02*
X971Y994D01*
X33Y993D02*
X36Y993D01*
X66Y993D02*
X73Y993D01*
X933Y993D02*
X935Y993D01*
X965Y993D02*
X973Y993D01*
X32Y992D02*
X33Y992D01*
X68Y992D02*
X75Y992D01*
X931Y992D02*
X933Y992D01*
X967Y992D02*
X974Y992D01*
X30Y991D02*
X31Y991D01*
X70Y991D02*
X76Y991D01*
X930Y991D02*
X931Y991D01*
X969Y991D02*
X976Y991D01*
X29Y990D02*
X30Y990D01*
X72Y990D02*
X78Y990D01*
X928Y990D02*
X929Y990D01*
X971Y990D02*
X977Y990D01*
X28Y989D02*
X28Y989D01*
X73Y989D02*
X79Y989D01*
X927Y989D02*
X927Y989D01*
X973Y989D02*
X978Y989D01*
X27Y988D02*
X27Y988D01*
X75Y988D02*
X80Y988D01*
X926Y988D02*
X926Y988D01*
X974Y988D02*
X979Y988D01*
X76Y987D02*
X81Y987D01*
X925Y987D02*
X925Y987D01*
X975Y987D02*
X980Y987D01*
X77Y986D02*
X82Y986D01*
X924Y986D02*
X924Y986D01*
X976Y986D02*
X981Y986D01*
X78Y985D02*
X83Y985D01*
X978Y985D02*
X982Y985D01*
X79Y984D02*
X83Y984D01*
X979Y984D02*
X983Y984D01*
X80Y983D02*
X84Y983D01*
X979Y983D02*
X983Y983D01*
X81Y982D02*
X85Y982D01*
X980Y982D02*
X984Y982D01*
X82Y981D02*
X85Y981D01*
X981Y981D02*
X985Y981D01*
X82Y980D02*
X86Y980D01*
X982Y980D02*
X985Y980D01*
X83Y979D02*
X87Y979D01*
X886Y979D02*
X889Y979D01*
X982Y979D02*
X986Y979D01*
X84Y978D02*
X87Y978D01*
X885Y978D02*
X889Y978D01*
X983Y978D02*
X986Y978D01*
X84Y977D02*
X88Y977D01*
X884Y977D02*
X890Y977D01*
X984Y977D02*
X987Y977D01*
X85Y976D02*
X88Y976D01*
X884Y976D02*
X889Y976D01*
X984Y976D02*
X987Y976D01*
X85Y975D02*
X89Y975D01*
X885Y975D02*
X889Y975D01*
X985Y975D02*
X988Y975D01*
X86Y974D02*
X89Y974D01*
X885Y974D02*
X888Y974D01*
X985Y974D02*
X988Y974D01*
X86Y973D02*
X89Y973D01*
X886Y973D02*
X887Y973D01*
X986Y973D02*
X989Y973D01*
X87Y972D02*
X90Y972D01*
X886Y972D02*
X887Y972D01*
X986Y972D02*
X989Y972D01*
X87Y971D02*
X90Y971D01*
X886Y971D02*
X886Y971D01*
X986Y971D02*
X989Y971D01*
X87Y970D02*
X90Y970D01*
X987Y970D02*
X989Y970D01*
X88Y969D02*
X91Y969D01*
X987Y969D02*
X990Y969D01*
X88Y968D02*
X91Y968D01*
X987Y968D02*
X990Y968D01*
X88Y967D02*
X91Y967D01*
X988Y967D02*
X990Y967D01*
X89Y966D02*
X91Y966D01*
X988Y966D02*
X990Y966D01*
X89Y965D02*
X91Y965D01*
X988Y965D02*
X991Y965D01*
X89Y964D02*
X92Y964D01*
X988Y964D02*
X991Y964D01*
X89Y963D02*
X92Y963D01*
X988Y963D02*
X991Y963D01*
X89Y962D02*
X92Y962D01*
X989Y962D02*
X991Y962D01*
X90Y961D02*
X92Y961D01*
X989Y961D02*
X991Y961D01*
X90Y960D02*
X92Y960D01*
X989Y960D02*
X991Y960D01*
X90Y959D02*
X92Y959D01*
X989Y959D02*
X991Y959D01*
X90Y958D02*
X92Y958D01*
X989Y958D02*
X991Y958D01*
X90Y957D02*
X92Y957D01*
X989Y957D02*
X991Y957D01*
X90Y956D02*
X91Y956D01*
X989Y956D02*
X991Y956D01*
X90Y955D02*
X91Y955D01*
X989Y955D02*
X991Y955D01*
X89Y954D02*
X91Y954D01*
X989Y954D02*
X990Y954D01*
X89Y953D02*
X91Y953D01*
X989Y953D02*
X990Y953D01*
X89Y952D02*
X91Y952D01*
X988Y952D02*
X990Y952D01*
X89Y951D02*
X90Y951D01*
X988Y951D02*
X990Y951D01*
X89Y950D02*
X90Y950D01*
X888Y950D02*
X888Y950D01*
X988Y950D02*
X989Y950D01*
X89Y949D02*
X90Y949D01*
X888Y949D02*
X889Y949D01*
X988Y949D02*
X989Y949D01*
X88Y948D02*
X90Y948D01*
X888Y948D02*
X889Y948D01*
X987Y948D02*
X989Y948D01*
X88Y947D02*
X89Y947D01*
X887Y947D02*
X890Y947D01*
X987Y947D02*
X988Y947D01*
X88Y946D02*
X89Y946D01*
X887Y946D02*
X890Y946D01*
X987Y946D02*
X988Y946D01*
X87Y945D02*
X88Y945D01*
X887Y945D02*
X889Y945D01*
X986Y945D02*
X988Y945D01*
X87Y944D02*
X88Y944D01*
X887Y944D02*
X888Y944D01*
X986Y944D02*
X987Y944D01*
X86Y943D02*
X88Y943D01*
X986Y943D02*
X987Y943D01*
X86Y942D02*
X87Y942D01*
X985Y942D02*
X986Y942D01*
X86Y941D02*
X87Y941D01*
X985Y941D02*
X986Y941D01*
X85Y940D02*
X86Y940D01*
X984Y940D02*
X985Y940D01*
X85Y939D02*
X85Y939D01*
X984Y939D02*
X985Y939D01*
X84Y938D02*
X85Y938D01*
X983Y938D02*
X984Y938D01*
X83Y937D02*
X84Y937D01*
X983Y937D02*
X983Y937D01*
X83Y936D02*
X83Y936D01*
X982Y936D02*
X982Y936D01*
X82Y935D02*
X82Y935D01*
X981Y935D02*
X982Y935D01*
X81Y934D02*
X82Y934D01*
X981Y934D02*
X981Y934D01*
X81Y933D02*
X81Y933D01*
X980Y933D02*
X980Y933D01*
X80Y932D02*
X80Y932D01*
X979Y932D02*
X979Y932D01*
X79Y931D02*
X79Y931D01*
X978Y931D02*
X978Y931D01*
X977Y930D02*
X977Y930D01*
X52Y899D02*
X55Y899D01*
X951Y899D02*
X954Y899D01*
X45Y898D02*
X61Y898D01*
X945Y898D02*
X961Y898D01*
X42Y897D02*
X65Y897D01*
X941Y897D02*
X964Y897D01*
X39Y896D02*
X47Y896D01*
X55Y896D02*
X68Y896D01*
X938Y896D02*
X946Y896D01*
X954Y896D02*
X967Y896D01*
X37Y895D02*
X42Y895D01*
X60Y895D02*
X70Y895D01*
X936Y895D02*
X941Y895D01*
X959Y895D02*
X969Y895D01*
X35Y894D02*
X38Y894D01*
X63Y894D02*
X72Y894D01*
X934Y894D02*
X937Y894D01*
X963Y894D02*
X971Y894D01*
X33Y893D02*
X36Y893D01*
X66Y893D02*
X73Y893D01*
X933Y893D02*
X935Y893D01*
X965Y893D02*
X973Y893D01*
X32Y892D02*
X33Y892D01*
X68Y892D02*
X75Y892D01*
X931Y892D02*
X933Y892D01*
X967Y892D02*
X974Y892D01*
X30Y891D02*
X31Y891D01*
X70Y891D02*
X76Y891D01*
X930Y891D02*
X931Y891D01*
X969Y891D02*
X976Y891D01*
X29Y890D02*
X30Y890D01*
X72Y890D02*
X78Y890D01*
X928Y890D02*
X929Y890D01*
X971Y890D02*
X977Y890D01*
X28Y889D02*
X28Y889D01*
X73Y889D02*
X79Y889D01*
X927Y889D02*
X927Y889D01*
X973Y889D02*
X978Y889D01*
X27Y888D02*
X27Y888D01*
X75Y888D02*
X80Y888D01*
X926Y888D02*
X926Y888D01*
X974Y888D02*
X979Y888D01*
X76Y887D02*
X81Y887D01*
X925Y887D02*
X925Y887D01*
X975Y887D02*
X980Y887D01*
X77Y886D02*
X82Y886D01*
X977Y886D02*
X981Y886D01*
X78Y885D02*
X83Y885D01*
X978Y885D02*
X982Y885D01*
X79Y884D02*
X84Y884D01*
X979Y884D02*
X983Y884D01*
X80Y883D02*
X84Y883D01*
X979Y883D02*
X983Y883D01*
X81Y882D02*
X85Y882D01*
X980Y882D02*
X984Y882D01*
X82Y881D02*
X86Y881D01*
X981Y881D02*
X985Y881D01*
X82Y880D02*
X86Y880D01*
X982Y880D02*
X985Y880D01*
X83Y879D02*
X87Y879D01*
X982Y879D02*
X986Y879D01*
X84Y878D02*
X87Y878D01*
X983Y878D02*
X986Y878D01*
X84Y877D02*
X88Y877D01*
X984Y877D02*
X987Y877D01*
X85Y876D02*
X88Y876D01*
X984Y876D02*
X987Y876D01*
X85Y875D02*
X89Y875D01*
X985Y875D02*
X988Y875D01*
X86Y874D02*
X89Y874D01*
X985Y874D02*
X988Y874D01*
X86Y873D02*
X89Y873D01*
X986Y873D02*
X989Y873D01*
X87Y872D02*
X90Y872D01*
X986Y872D02*
X989Y872D01*
X87Y871D02*
X90Y871D01*
X986Y871D02*
X989Y871D01*
X87Y870D02*
X90Y870D01*
X987Y870D02*
X990Y870D01*
X88Y869D02*
X91Y869D01*
X987Y869D02*
X990Y869D01*
X88Y868D02*
X91Y868D01*
X987Y868D02*
X990Y868D01*
X88Y867D02*
X91Y867D01*
X988Y867D02*
X990Y867D01*
X89Y866D02*
X91Y866D01*
X988Y866D02*
X990Y866D01*
X89Y865D02*
X91Y865D01*
X988Y865D02*
X991Y865D01*
X89Y864D02*
X92Y864D01*
X988Y864D02*
X991Y864D01*
X89Y863D02*
X92Y863D01*
X988Y863D02*
X991Y863D01*
X89Y862D02*
X92Y862D01*
X989Y862D02*
X991Y862D01*
X90Y861D02*
X92Y861D01*
X989Y861D02*
X991Y861D01*
X90Y860D02*
X92Y860D01*
X989Y860D02*
X991Y860D01*
X90Y859D02*
X92Y859D01*
X989Y859D02*
X991Y859D01*
X90Y858D02*
X92Y858D01*
X989Y858D02*
X991Y858D01*
X90Y857D02*
X92Y857D01*
X989Y857D02*
X991Y857D01*
X90Y856D02*
X91Y856D01*
X989Y856D02*
X991Y856D01*
X90Y855D02*
X91Y855D01*
X989Y855D02*
X991Y855D01*
X89Y854D02*
X91Y854D01*
X989Y854D02*
X990Y854D01*
X89Y853D02*
X91Y853D01*
X989Y853D02*
X990Y853D01*
X89Y852D02*
X91Y852D01*
X988Y852D02*
X990Y852D01*
X89Y851D02*
X90Y851D01*
X988Y851D02*
X990Y851D01*
X89Y850D02*
X90Y850D01*
X988Y850D02*
X989Y850D01*
X89Y849D02*
X90Y849D01*
X888Y849D02*
X888Y849D01*
X988Y849D02*
X989Y849D01*
X88Y848D02*
X90Y848D01*
X888Y848D02*
X889Y848D01*
X987Y848D02*
X989Y848D01*
X88Y847D02*
X89Y847D01*
X887Y847D02*
X890Y847D01*
X987Y847D02*
X988Y847D01*
X88Y846D02*
X89Y846D01*
X887Y846D02*
X890Y846D01*
X987Y846D02*
X988Y846D01*
X87Y845D02*
X88Y845D01*
X887Y845D02*
X889Y845D01*
X986Y845D02*
X988Y845D01*
X87Y844D02*
X88Y844D01*
X886Y844D02*
X888Y844D01*
X986Y844D02*
X987Y844D01*
X86Y843D02*
X87Y843D01*
X986Y843D02*
X987Y843D01*
X86Y842D02*
X87Y842D01*
X985Y842D02*
X986Y842D01*
X86Y841D02*
X86Y841D01*
X985Y841D02*
X986Y841D01*
X85Y840D02*
X86Y840D01*
X984Y840D02*
X985Y840D01*
X85Y839D02*
X85Y839D01*
X984Y839D02*
X984Y839D01*
X84Y838D02*
X85Y838D01*
X983Y838D02*
X984Y838D01*
X83Y837D02*
X84Y837D01*
X983Y837D02*
X983Y837D01*
X83Y836D02*
X83Y836D01*
X982Y836D02*
X982Y836D01*
X82Y835D02*
X82Y835D01*
X981Y835D02*
X982Y835D01*
X81Y834D02*
X82Y834D01*
X981Y834D02*
X981Y834D01*
X81Y833D02*
X81Y833D01*
X980Y833D02*
X980Y833D01*
X80Y832D02*
X80Y832D01*
X979Y832D02*
X979Y832D01*
X978Y831D02*
X978Y831D01*
X224Y805D02*
X225Y805D01*
X251Y805D02*
X269Y805D01*
X422Y805D02*
X441Y805D01*
X452Y805D02*
X470Y805D01*
X519Y805D02*
X537Y805D01*
X549Y805D02*
X567Y805D01*
X628Y805D02*
X643Y805D01*
X656Y805D02*
X674Y805D01*
X725Y805D02*
X728Y805D01*
X756Y805D02*
X771Y805D01*
X828Y805D02*
X843Y805D01*
X858Y805D02*
X873Y805D01*
X223Y804D02*
X226Y804D01*
X250Y804D02*
X269Y804D01*
X421Y804D02*
X441Y804D01*
X451Y804D02*
X471Y804D01*
X518Y804D02*
X537Y804D01*
X548Y804D02*
X568Y804D01*
X627Y804D02*
X644Y804D01*
X656Y804D02*
X675Y804D01*
X724Y804D02*
X729Y804D01*
X755Y804D02*
X772Y804D01*
X826Y804D02*
X844Y804D01*
X856Y804D02*
X874Y804D01*
X126Y803D02*
X141Y803D01*
X155Y803D02*
X174Y803D01*
X223Y803D02*
X226Y803D01*
X250Y803D02*
X269Y803D01*
X326Y803D02*
X343Y803D01*
X355Y803D02*
X374Y803D01*
X421Y803D02*
X441Y803D01*
X451Y803D02*
X471Y803D01*
X518Y803D02*
X538Y803D01*
X548Y803D02*
X568Y803D01*
X626Y803D02*
X645Y803D01*
X655Y803D02*
X675Y803D01*
X724Y803D02*
X729Y803D01*
X754Y803D02*
X773Y803D01*
X826Y803D02*
X845Y803D01*
X856Y803D02*
X875Y803D01*
X125Y802D02*
X143Y802D01*
X154Y802D02*
X174Y802D01*
X223Y802D02*
X226Y802D01*
X250Y802D02*
X269Y802D01*
X325Y802D02*
X344Y802D01*
X354Y802D02*
X374Y802D01*
X422Y802D02*
X441Y802D01*
X451Y802D02*
X470Y802D01*
X518Y802D02*
X537Y802D01*
X548Y802D02*
X567Y802D01*
X626Y802D02*
X645Y802D01*
X655Y802D02*
X675Y802D01*
X724Y802D02*
X728Y802D01*
X754Y802D02*
X773Y802D01*
X825Y802D02*
X845Y802D01*
X855Y802D02*
X875Y802D01*
X125Y801D02*
X144Y801D01*
X154Y801D02*
X174Y801D01*
X223Y801D02*
X226Y801D01*
X250Y801D02*
X253Y801D01*
X258Y801D02*
X261Y801D01*
X324Y801D02*
X344Y801D01*
X354Y801D02*
X374Y801D01*
X437Y801D02*
X441Y801D01*
X451Y801D02*
X454Y801D01*
X459Y801D02*
X463Y801D01*
X518Y801D02*
X521Y801D01*
X526Y801D02*
X530Y801D01*
X548Y801D02*
X551Y801D01*
X556Y801D02*
X560Y801D01*
X625Y801D02*
X629Y801D01*
X642Y801D02*
X645Y801D01*
X655Y801D02*
X659Y801D01*
X664Y801D02*
X667Y801D01*
X724Y801D02*
X727Y801D01*
X754Y801D02*
X757Y801D01*
X770Y801D02*
X774Y801D01*
X825Y801D02*
X829Y801D01*
X842Y801D02*
X845Y801D01*
X855Y801D02*
X859Y801D01*
X872Y801D02*
X875Y801D01*
X124Y800D02*
X144Y800D01*
X154Y800D02*
X173Y800D01*
X223Y800D02*
X226Y800D01*
X250Y800D02*
X253Y800D01*
X258Y800D02*
X261Y800D01*
X324Y800D02*
X343Y800D01*
X354Y800D02*
X373Y800D01*
X438Y800D02*
X441Y800D01*
X451Y800D02*
X454Y800D01*
X459Y800D02*
X463Y800D01*
X518Y800D02*
X521Y800D01*
X526Y800D02*
X529Y800D01*
X548Y800D02*
X551Y800D01*
X556Y800D02*
X559Y800D01*
X625Y800D02*
X629Y800D01*
X642Y800D02*
X645Y800D01*
X655Y800D02*
X659Y800D01*
X664Y800D02*
X667Y800D01*
X724Y800D02*
X727Y800D01*
X754Y800D02*
X757Y800D01*
X770Y800D02*
X774Y800D01*
X825Y800D02*
X828Y800D01*
X842Y800D02*
X845Y800D01*
X855Y800D02*
X859Y800D01*
X872Y800D02*
X875Y800D01*
X51Y799D02*
X56Y799D01*
X124Y799D02*
X128Y799D01*
X140Y799D02*
X144Y799D01*
X154Y799D02*
X158Y799D01*
X163Y799D02*
X166Y799D01*
X223Y799D02*
X226Y799D01*
X250Y799D02*
X253Y799D01*
X258Y799D02*
X261Y799D01*
X324Y799D02*
X327Y799D01*
X354Y799D02*
X357Y799D01*
X362Y799D02*
X366Y799D01*
X438Y799D02*
X441Y799D01*
X451Y799D02*
X454Y799D01*
X459Y799D02*
X463Y799D01*
X518Y799D02*
X521Y799D01*
X526Y799D02*
X529Y799D01*
X548Y799D02*
X551Y799D01*
X556Y799D02*
X559Y799D01*
X625Y799D02*
X629Y799D01*
X642Y799D02*
X645Y799D01*
X655Y799D02*
X659Y799D01*
X664Y799D02*
X667Y799D01*
X724Y799D02*
X727Y799D01*
X754Y799D02*
X757Y799D01*
X770Y799D02*
X774Y799D01*
X825Y799D02*
X828Y799D01*
X842Y799D02*
X845Y799D01*
X855Y799D02*
X859Y799D01*
X872Y799D02*
X875Y799D01*
X950Y799D02*
X955Y799D01*
X45Y798D02*
X62Y798D01*
X124Y798D02*
X128Y798D01*
X154Y798D02*
X158Y798D01*
X163Y798D02*
X166Y798D01*
X223Y798D02*
X226Y798D01*
X250Y798D02*
X253Y798D01*
X258Y798D02*
X261Y798D01*
X324Y798D02*
X327Y798D01*
X354Y798D02*
X357Y798D01*
X362Y798D02*
X366Y798D01*
X438Y798D02*
X441Y798D01*
X451Y798D02*
X454Y798D01*
X459Y798D02*
X463Y798D01*
X518Y798D02*
X521Y798D01*
X526Y798D02*
X529Y798D01*
X548Y798D02*
X551Y798D01*
X556Y798D02*
X559Y798D01*
X625Y798D02*
X629Y798D01*
X642Y798D02*
X645Y798D01*
X655Y798D02*
X659Y798D01*
X664Y798D02*
X667Y798D01*
X724Y798D02*
X727Y798D01*
X754Y798D02*
X757Y798D01*
X770Y798D02*
X774Y798D01*
X825Y798D02*
X828Y798D01*
X842Y798D02*
X845Y798D01*
X855Y798D02*
X859Y798D01*
X872Y798D02*
X875Y798D01*
X944Y798D02*
X961Y798D01*
X42Y797D02*
X65Y797D01*
X124Y797D02*
X128Y797D01*
X154Y797D02*
X158Y797D01*
X163Y797D02*
X166Y797D01*
X223Y797D02*
X226Y797D01*
X250Y797D02*
X253Y797D01*
X258Y797D02*
X261Y797D01*
X324Y797D02*
X327Y797D01*
X354Y797D02*
X357Y797D01*
X362Y797D02*
X366Y797D01*
X438Y797D02*
X441Y797D01*
X451Y797D02*
X454Y797D01*
X459Y797D02*
X463Y797D01*
X518Y797D02*
X521Y797D01*
X526Y797D02*
X529Y797D01*
X548Y797D02*
X551Y797D01*
X556Y797D02*
X559Y797D01*
X625Y797D02*
X629Y797D01*
X642Y797D02*
X645Y797D01*
X655Y797D02*
X659Y797D01*
X664Y797D02*
X667Y797D01*
X724Y797D02*
X727Y797D01*
X754Y797D02*
X757Y797D01*
X770Y797D02*
X774Y797D01*
X825Y797D02*
X828Y797D01*
X842Y797D02*
X845Y797D01*
X855Y797D02*
X859Y797D01*
X872Y797D02*
X875Y797D01*
X941Y797D02*
X964Y797D01*
X39Y796D02*
X47Y796D01*
X55Y796D02*
X68Y796D01*
X124Y796D02*
X128Y796D01*
X154Y796D02*
X158Y796D01*
X163Y796D02*
X166Y796D01*
X223Y796D02*
X226Y796D01*
X250Y796D02*
X253Y796D01*
X258Y796D02*
X261Y796D01*
X324Y796D02*
X327Y796D01*
X354Y796D02*
X357Y796D01*
X362Y796D02*
X366Y796D01*
X438Y796D02*
X441Y796D01*
X451Y796D02*
X454Y796D01*
X459Y796D02*
X463Y796D01*
X518Y796D02*
X521Y796D01*
X526Y796D02*
X529Y796D01*
X548Y796D02*
X551Y796D01*
X556Y796D02*
X559Y796D01*
X625Y796D02*
X629Y796D01*
X642Y796D02*
X645Y796D01*
X655Y796D02*
X659Y796D01*
X664Y796D02*
X667Y796D01*
X724Y796D02*
X727Y796D01*
X754Y796D02*
X757Y796D01*
X770Y796D02*
X774Y796D01*
X825Y796D02*
X828Y796D01*
X842Y796D02*
X845Y796D01*
X855Y796D02*
X859Y796D01*
X872Y796D02*
X875Y796D01*
X938Y796D02*
X946Y796D01*
X954Y796D02*
X967Y796D01*
X37Y795D02*
X41Y795D01*
X60Y795D02*
X70Y795D01*
X124Y795D02*
X128Y795D01*
X154Y795D02*
X158Y795D01*
X163Y795D02*
X166Y795D01*
X223Y795D02*
X226Y795D01*
X250Y795D02*
X253Y795D01*
X258Y795D02*
X261Y795D01*
X324Y795D02*
X327Y795D01*
X354Y795D02*
X357Y795D01*
X362Y795D02*
X366Y795D01*
X438Y795D02*
X441Y795D01*
X451Y795D02*
X454Y795D01*
X459Y795D02*
X463Y795D01*
X518Y795D02*
X521Y795D01*
X526Y795D02*
X529Y795D01*
X548Y795D02*
X551Y795D01*
X556Y795D02*
X559Y795D01*
X625Y795D02*
X629Y795D01*
X642Y795D02*
X645Y795D01*
X655Y795D02*
X659Y795D01*
X664Y795D02*
X667Y795D01*
X724Y795D02*
X727Y795D01*
X754Y795D02*
X757Y795D01*
X770Y795D02*
X774Y795D01*
X825Y795D02*
X828Y795D01*
X842Y795D02*
X845Y795D01*
X855Y795D02*
X859Y795D01*
X872Y795D02*
X875Y795D01*
X936Y795D02*
X941Y795D01*
X959Y795D02*
X969Y795D01*
X35Y794D02*
X38Y794D01*
X63Y794D02*
X72Y794D01*
X124Y794D02*
X128Y794D01*
X154Y794D02*
X158Y794D01*
X163Y794D02*
X166Y794D01*
X221Y794D02*
X238Y794D01*
X250Y794D02*
X253Y794D01*
X258Y794D02*
X261Y794D01*
X324Y794D02*
X327Y794D01*
X354Y794D02*
X357Y794D01*
X362Y794D02*
X366Y794D01*
X438Y794D02*
X441Y794D01*
X451Y794D02*
X454Y794D01*
X459Y794D02*
X463Y794D01*
X518Y794D02*
X521Y794D01*
X526Y794D02*
X529Y794D01*
X548Y794D02*
X551Y794D01*
X556Y794D02*
X559Y794D01*
X625Y794D02*
X629Y794D01*
X642Y794D02*
X645Y794D01*
X655Y794D02*
X659Y794D01*
X664Y794D02*
X667Y794D01*
X724Y794D02*
X727Y794D01*
X754Y794D02*
X757Y794D01*
X770Y794D02*
X774Y794D01*
X825Y794D02*
X828Y794D01*
X842Y794D02*
X845Y794D01*
X855Y794D02*
X859Y794D01*
X872Y794D02*
X875Y794D01*
X934Y794D02*
X937Y794D01*
X963Y794D02*
X971Y794D01*
X33Y793D02*
X35Y793D01*
X66Y793D02*
X74Y793D01*
X124Y793D02*
X128Y793D01*
X154Y793D02*
X158Y793D01*
X163Y793D02*
X166Y793D01*
X221Y793D02*
X238Y793D01*
X250Y793D02*
X253Y793D01*
X258Y793D02*
X261Y793D01*
X324Y793D02*
X327Y793D01*
X354Y793D02*
X357Y793D01*
X362Y793D02*
X366Y793D01*
X438Y793D02*
X441Y793D01*
X451Y793D02*
X454Y793D01*
X459Y793D02*
X463Y793D01*
X518Y793D02*
X521Y793D01*
X526Y793D02*
X529Y793D01*
X548Y793D02*
X551Y793D01*
X556Y793D02*
X559Y793D01*
X625Y793D02*
X629Y793D01*
X642Y793D02*
X645Y793D01*
X655Y793D02*
X659Y793D01*
X664Y793D02*
X667Y793D01*
X724Y793D02*
X727Y793D01*
X754Y793D02*
X757Y793D01*
X770Y793D02*
X774Y793D01*
X825Y793D02*
X828Y793D01*
X842Y793D02*
X845Y793D01*
X855Y793D02*
X859Y793D01*
X872Y793D02*
X875Y793D01*
X932Y793D02*
X935Y793D01*
X965Y793D02*
X973Y793D01*
X32Y792D02*
X33Y792D01*
X68Y792D02*
X75Y792D01*
X124Y792D02*
X128Y792D01*
X154Y792D02*
X158Y792D01*
X163Y792D02*
X166Y792D01*
X221Y792D02*
X238Y792D01*
X250Y792D02*
X253Y792D01*
X258Y792D02*
X261Y792D01*
X324Y792D02*
X327Y792D01*
X354Y792D02*
X357Y792D01*
X362Y792D02*
X366Y792D01*
X438Y792D02*
X441Y792D01*
X451Y792D02*
X454Y792D01*
X459Y792D02*
X463Y792D01*
X518Y792D02*
X521Y792D01*
X526Y792D02*
X529Y792D01*
X548Y792D02*
X551Y792D01*
X556Y792D02*
X559Y792D01*
X625Y792D02*
X629Y792D01*
X642Y792D02*
X645Y792D01*
X656Y792D02*
X659Y792D01*
X664Y792D02*
X667Y792D01*
X724Y792D02*
X727Y792D01*
X754Y792D02*
X757Y792D01*
X770Y792D02*
X774Y792D01*
X825Y792D02*
X828Y792D01*
X842Y792D02*
X845Y792D01*
X855Y792D02*
X859Y792D01*
X872Y792D02*
X875Y792D01*
X931Y792D02*
X933Y792D01*
X967Y792D02*
X974Y792D01*
X30Y791D02*
X31Y791D01*
X70Y791D02*
X77Y791D01*
X124Y791D02*
X128Y791D01*
X154Y791D02*
X158Y791D01*
X163Y791D02*
X166Y791D01*
X222Y791D02*
X238Y791D01*
X251Y791D02*
X252Y791D01*
X258Y791D02*
X261Y791D01*
X324Y791D02*
X328Y791D01*
X354Y791D02*
X357Y791D01*
X362Y791D02*
X366Y791D01*
X424Y791D02*
X441Y791D01*
X452Y791D02*
X453Y791D01*
X459Y791D02*
X463Y791D01*
X519Y791D02*
X520Y791D01*
X526Y791D02*
X529Y791D01*
X549Y791D02*
X550Y791D01*
X556Y791D02*
X559Y791D01*
X625Y791D02*
X629Y791D01*
X642Y791D02*
X645Y791D01*
X656Y791D02*
X658Y791D01*
X664Y791D02*
X667Y791D01*
X724Y791D02*
X727Y791D01*
X754Y791D02*
X757Y791D01*
X770Y791D02*
X774Y791D01*
X825Y791D02*
X845Y791D01*
X855Y791D02*
X859Y791D01*
X872Y791D02*
X875Y791D01*
X929Y791D02*
X931Y791D01*
X969Y791D02*
X976Y791D01*
X29Y790D02*
X30Y790D01*
X72Y790D02*
X78Y790D01*
X124Y790D02*
X128Y790D01*
X155Y790D02*
X157Y790D01*
X163Y790D02*
X166Y790D01*
X223Y790D02*
X226Y790D01*
X235Y790D02*
X238Y790D01*
X258Y790D02*
X261Y790D01*
X324Y790D02*
X329Y790D01*
X355Y790D02*
X357Y790D01*
X362Y790D02*
X366Y790D01*
X422Y790D02*
X440Y790D01*
X459Y790D02*
X463Y790D01*
X526Y790D02*
X529Y790D01*
X556Y790D02*
X559Y790D01*
X625Y790D02*
X629Y790D01*
X642Y790D02*
X645Y790D01*
X664Y790D02*
X667Y790D01*
X724Y790D02*
X727Y790D01*
X754Y790D02*
X757Y790D01*
X770Y790D02*
X774Y790D01*
X825Y790D02*
X845Y790D01*
X855Y790D02*
X859Y790D01*
X872Y790D02*
X875Y790D01*
X928Y790D02*
X929Y790D01*
X971Y790D02*
X977Y790D01*
X28Y789D02*
X28Y789D01*
X73Y789D02*
X79Y789D01*
X124Y789D02*
X140Y789D01*
X163Y789D02*
X166Y789D01*
X223Y789D02*
X226Y789D01*
X235Y789D02*
X238Y789D01*
X258Y789D02*
X261Y789D01*
X325Y789D02*
X339Y789D01*
X362Y789D02*
X366Y789D01*
X422Y789D02*
X440Y789D01*
X459Y789D02*
X463Y789D01*
X526Y789D02*
X529Y789D01*
X556Y789D02*
X559Y789D01*
X625Y789D02*
X629Y789D01*
X642Y789D02*
X645Y789D01*
X664Y789D02*
X667Y789D01*
X724Y789D02*
X727Y789D01*
X754Y789D02*
X757Y789D01*
X770Y789D02*
X774Y789D01*
X826Y789D02*
X844Y789D01*
X855Y789D02*
X859Y789D01*
X872Y789D02*
X875Y789D01*
X927Y789D02*
X927Y789D01*
X973Y789D02*
X978Y789D01*
X27Y788D02*
X27Y788D01*
X75Y788D02*
X80Y788D01*
X125Y788D02*
X140Y788D01*
X163Y788D02*
X166Y788D01*
X223Y788D02*
X226Y788D01*
X235Y788D02*
X238Y788D01*
X258Y788D02*
X261Y788D01*
X326Y788D02*
X340Y788D01*
X362Y788D02*
X366Y788D01*
X421Y788D02*
X439Y788D01*
X459Y788D02*
X463Y788D01*
X526Y788D02*
X529Y788D01*
X556Y788D02*
X559Y788D01*
X625Y788D02*
X629Y788D01*
X642Y788D02*
X645Y788D01*
X664Y788D02*
X667Y788D01*
X724Y788D02*
X727Y788D01*
X754Y788D02*
X757Y788D01*
X770Y788D02*
X774Y788D01*
X827Y788D02*
X843Y788D01*
X855Y788D02*
X859Y788D01*
X872Y788D02*
X875Y788D01*
X926Y788D02*
X926Y788D01*
X974Y788D02*
X979Y788D01*
X76Y787D02*
X81Y787D01*
X125Y787D02*
X140Y787D01*
X163Y787D02*
X166Y787D01*
X223Y787D02*
X226Y787D01*
X235Y787D02*
X238Y787D01*
X258Y787D02*
X261Y787D01*
X325Y787D02*
X340Y787D01*
X362Y787D02*
X366Y787D01*
X421Y787D02*
X425Y787D01*
X459Y787D02*
X463Y787D01*
X526Y787D02*
X529Y787D01*
X556Y787D02*
X559Y787D01*
X625Y787D02*
X629Y787D01*
X642Y787D02*
X645Y787D01*
X664Y787D02*
X667Y787D01*
X724Y787D02*
X743Y787D01*
X754Y787D02*
X757Y787D01*
X770Y787D02*
X774Y787D01*
X829Y787D02*
X833Y787D01*
X837Y787D02*
X841Y787D01*
X855Y787D02*
X859Y787D01*
X872Y787D02*
X875Y787D01*
X925Y787D02*
X925Y787D01*
X975Y787D02*
X980Y787D01*
X77Y786D02*
X82Y786D01*
X127Y786D02*
X140Y786D01*
X163Y786D02*
X166Y786D01*
X223Y786D02*
X226Y786D01*
X235Y786D02*
X238Y786D01*
X258Y786D02*
X261Y786D01*
X325Y786D02*
X339Y786D01*
X362Y786D02*
X366Y786D01*
X421Y786D02*
X424Y786D01*
X459Y786D02*
X463Y786D01*
X526Y786D02*
X529Y786D01*
X556Y786D02*
X559Y786D01*
X625Y786D02*
X629Y786D01*
X642Y786D02*
X645Y786D01*
X664Y786D02*
X667Y786D01*
X724Y786D02*
X743Y786D01*
X754Y786D02*
X757Y786D01*
X770Y786D02*
X774Y786D01*
X829Y786D02*
X833Y786D01*
X838Y786D02*
X841Y786D01*
X855Y786D02*
X859Y786D01*
X872Y786D02*
X875Y786D01*
X977Y786D02*
X981Y786D01*
X78Y785D02*
X83Y785D01*
X137Y785D02*
X140Y785D01*
X163Y785D02*
X166Y785D01*
X223Y785D02*
X226Y785D01*
X235Y785D02*
X238Y785D01*
X258Y785D02*
X261Y785D01*
X324Y785D02*
X328Y785D01*
X362Y785D02*
X366Y785D01*
X421Y785D02*
X424Y785D01*
X459Y785D02*
X463Y785D01*
X526Y785D02*
X529Y785D01*
X556Y785D02*
X559Y785D01*
X625Y785D02*
X629Y785D01*
X642Y785D02*
X645Y785D01*
X664Y785D02*
X667Y785D01*
X724Y785D02*
X744Y785D01*
X754Y785D02*
X757Y785D01*
X770Y785D02*
X774Y785D01*
X829Y785D02*
X833Y785D01*
X838Y785D02*
X841Y785D01*
X855Y785D02*
X859Y785D01*
X872Y785D02*
X875Y785D01*
X978Y785D02*
X982Y785D01*
X79Y784D02*
X84Y784D01*
X137Y784D02*
X140Y784D01*
X163Y784D02*
X166Y784D01*
X223Y784D02*
X226Y784D01*
X235Y784D02*
X238Y784D01*
X258Y784D02*
X261Y784D01*
X324Y784D02*
X327Y784D01*
X362Y784D02*
X366Y784D01*
X421Y784D02*
X424Y784D01*
X459Y784D02*
X463Y784D01*
X526Y784D02*
X529Y784D01*
X556Y784D02*
X559Y784D01*
X625Y784D02*
X629Y784D01*
X642Y784D02*
X645Y784D01*
X664Y784D02*
X667Y784D01*
X724Y784D02*
X744Y784D01*
X754Y784D02*
X757Y784D01*
X770Y784D02*
X774Y784D01*
X829Y784D02*
X833Y784D01*
X838Y784D02*
X841Y784D01*
X855Y784D02*
X859Y784D01*
X872Y784D02*
X875Y784D01*
X979Y784D02*
X983Y784D01*
X80Y783D02*
X84Y783D01*
X137Y783D02*
X140Y783D01*
X163Y783D02*
X166Y783D01*
X223Y783D02*
X226Y783D01*
X235Y783D02*
X238Y783D01*
X258Y783D02*
X261Y783D01*
X324Y783D02*
X327Y783D01*
X362Y783D02*
X366Y783D01*
X421Y783D02*
X424Y783D01*
X459Y783D02*
X463Y783D01*
X526Y783D02*
X529Y783D01*
X556Y783D02*
X559Y783D01*
X625Y783D02*
X629Y783D01*
X642Y783D02*
X645Y783D01*
X664Y783D02*
X667Y783D01*
X724Y783D02*
X727Y783D01*
X740Y783D02*
X744Y783D01*
X754Y783D02*
X757Y783D01*
X770Y783D02*
X774Y783D01*
X829Y783D02*
X833Y783D01*
X838Y783D02*
X841Y783D01*
X855Y783D02*
X859Y783D01*
X872Y783D02*
X875Y783D01*
X979Y783D02*
X983Y783D01*
X81Y782D02*
X85Y782D01*
X137Y782D02*
X140Y782D01*
X163Y782D02*
X166Y782D01*
X223Y782D02*
X226Y782D01*
X235Y782D02*
X238Y782D01*
X258Y782D02*
X261Y782D01*
X324Y782D02*
X327Y782D01*
X362Y782D02*
X366Y782D01*
X421Y782D02*
X424Y782D01*
X459Y782D02*
X463Y782D01*
X526Y782D02*
X529Y782D01*
X556Y782D02*
X559Y782D01*
X625Y782D02*
X629Y782D01*
X642Y782D02*
X645Y782D01*
X664Y782D02*
X667Y782D01*
X724Y782D02*
X727Y782D01*
X740Y782D02*
X744Y782D01*
X754Y782D02*
X757Y782D01*
X770Y782D02*
X774Y782D01*
X829Y782D02*
X833Y782D01*
X838Y782D02*
X841Y782D01*
X855Y782D02*
X859Y782D01*
X872Y782D02*
X875Y782D01*
X980Y782D02*
X984Y782D01*
X82Y781D02*
X86Y781D01*
X137Y781D02*
X140Y781D01*
X163Y781D02*
X166Y781D01*
X223Y781D02*
X226Y781D01*
X235Y781D02*
X238Y781D01*
X258Y781D02*
X261Y781D01*
X324Y781D02*
X327Y781D01*
X362Y781D02*
X366Y781D01*
X421Y781D02*
X424Y781D01*
X459Y781D02*
X463Y781D01*
X526Y781D02*
X529Y781D01*
X556Y781D02*
X559Y781D01*
X625Y781D02*
X629Y781D01*
X642Y781D02*
X645Y781D01*
X664Y781D02*
X667Y781D01*
X724Y781D02*
X727Y781D01*
X740Y781D02*
X744Y781D01*
X754Y781D02*
X757Y781D01*
X770Y781D02*
X774Y781D01*
X829Y781D02*
X833Y781D01*
X838Y781D02*
X841Y781D01*
X855Y781D02*
X859Y781D01*
X872Y781D02*
X875Y781D01*
X981Y781D02*
X985Y781D01*
X82Y780D02*
X86Y780D01*
X121Y780D02*
X140Y780D01*
X153Y780D02*
X174Y780D01*
X223Y780D02*
X226Y780D01*
X235Y780D02*
X238Y780D01*
X258Y780D02*
X261Y780D01*
X324Y780D02*
X327Y780D01*
X362Y780D02*
X366Y780D01*
X421Y780D02*
X424Y780D01*
X459Y780D02*
X463Y780D01*
X526Y780D02*
X529Y780D01*
X556Y780D02*
X559Y780D01*
X625Y780D02*
X629Y780D01*
X642Y780D02*
X645Y780D01*
X664Y780D02*
X667Y780D01*
X724Y780D02*
X727Y780D01*
X740Y780D02*
X744Y780D01*
X754Y780D02*
X757Y780D01*
X770Y780D02*
X774Y780D01*
X829Y780D02*
X833Y780D01*
X835Y780D02*
X851Y780D01*
X855Y780D02*
X859Y780D01*
X872Y780D02*
X883Y780D01*
X982Y780D02*
X985Y780D01*
X83Y779D02*
X87Y779D01*
X120Y779D02*
X140Y779D01*
X152Y779D02*
X176Y779D01*
X223Y779D02*
X226Y779D01*
X235Y779D02*
X238Y779D01*
X258Y779D02*
X261Y779D01*
X324Y779D02*
X327Y779D01*
X362Y779D02*
X366Y779D01*
X421Y779D02*
X424Y779D01*
X459Y779D02*
X463Y779D01*
X526Y779D02*
X529Y779D01*
X556Y779D02*
X559Y779D01*
X625Y779D02*
X629Y779D01*
X642Y779D02*
X645Y779D01*
X664Y779D02*
X667Y779D01*
X724Y779D02*
X727Y779D01*
X740Y779D02*
X744Y779D01*
X754Y779D02*
X757Y779D01*
X770Y779D02*
X774Y779D01*
X829Y779D02*
X853Y779D01*
X855Y779D02*
X859Y779D01*
X870Y779D02*
X884Y779D01*
X982Y779D02*
X986Y779D01*
X84Y778D02*
X87Y778D01*
X119Y778D02*
X140Y778D01*
X151Y778D02*
X176Y778D01*
X223Y778D02*
X226Y778D01*
X235Y778D02*
X238Y778D01*
X258Y778D02*
X261Y778D01*
X324Y778D02*
X327Y778D01*
X362Y778D02*
X366Y778D01*
X421Y778D02*
X424Y778D01*
X459Y778D02*
X463Y778D01*
X526Y778D02*
X529Y778D01*
X556Y778D02*
X559Y778D01*
X625Y778D02*
X629Y778D01*
X642Y778D02*
X645Y778D01*
X664Y778D02*
X667Y778D01*
X724Y778D02*
X727Y778D01*
X740Y778D02*
X744Y778D01*
X754Y778D02*
X757Y778D01*
X770Y778D02*
X774Y778D01*
X829Y778D02*
X859Y778D01*
X869Y778D02*
X885Y778D01*
X983Y778D02*
X986Y778D01*
X84Y777D02*
X88Y777D01*
X119Y777D02*
X142Y777D01*
X151Y777D02*
X177Y777D01*
X224Y777D02*
X225Y777D01*
X235Y777D02*
X238Y777D01*
X258Y777D02*
X268Y777D01*
X324Y777D02*
X327Y777D01*
X362Y777D02*
X366Y777D01*
X421Y777D02*
X439Y777D01*
X459Y777D02*
X469Y777D01*
X526Y777D02*
X536Y777D01*
X556Y777D02*
X566Y777D01*
X625Y777D02*
X645Y777D01*
X664Y777D02*
X674Y777D01*
X724Y777D02*
X744Y777D01*
X754Y777D02*
X774Y777D01*
X829Y777D02*
X886Y777D01*
X984Y777D02*
X987Y777D01*
X85Y776D02*
X88Y776D01*
X119Y776D02*
X143Y776D01*
X151Y776D02*
X176Y776D01*
X235Y776D02*
X238Y776D01*
X258Y776D02*
X269Y776D01*
X324Y776D02*
X327Y776D01*
X362Y776D02*
X366Y776D01*
X421Y776D02*
X440Y776D01*
X459Y776D02*
X471Y776D01*
X526Y776D02*
X537Y776D01*
X556Y776D02*
X567Y776D01*
X626Y776D02*
X645Y776D01*
X664Y776D02*
X675Y776D01*
X724Y776D02*
X744Y776D01*
X754Y776D02*
X773Y776D01*
X829Y776D02*
X887Y776D01*
X984Y776D02*
X987Y776D01*
X85Y775D02*
X89Y775D01*
X119Y775D02*
X144Y775D01*
X151Y775D02*
X175Y775D01*
X235Y775D02*
X238Y775D01*
X258Y775D02*
X269Y775D01*
X324Y775D02*
X343Y775D01*
X362Y775D02*
X373Y775D01*
X422Y775D02*
X441Y775D01*
X459Y775D02*
X471Y775D01*
X526Y775D02*
X538Y775D01*
X556Y775D02*
X568Y775D01*
X626Y775D02*
X644Y775D01*
X664Y775D02*
X675Y775D01*
X724Y775D02*
X743Y775D01*
X755Y775D02*
X773Y775D01*
X829Y775D02*
X889Y775D01*
X985Y775D02*
X988Y775D01*
X86Y774D02*
X89Y774D01*
X119Y774D02*
X145Y774D01*
X151Y774D02*
X156Y774D01*
X163Y774D02*
X174Y774D01*
X236Y774D02*
X238Y774D01*
X258Y774D02*
X269Y774D01*
X325Y774D02*
X344Y774D01*
X362Y774D02*
X374Y774D01*
X423Y774D02*
X440Y774D01*
X459Y774D02*
X470Y774D01*
X526Y774D02*
X537Y774D01*
X556Y774D02*
X567Y774D01*
X627Y774D02*
X644Y774D01*
X664Y774D02*
X675Y774D01*
X724Y774D02*
X743Y774D01*
X755Y774D02*
X772Y774D01*
X830Y774D02*
X840Y774D01*
X851Y774D02*
X873Y774D01*
X882Y774D02*
X890Y774D01*
X985Y774D02*
X988Y774D01*
X86Y773D02*
X89Y773D01*
X119Y773D02*
X145Y773D01*
X151Y773D02*
X156Y773D01*
X163Y773D02*
X174Y773D01*
X258Y773D02*
X268Y773D01*
X325Y773D02*
X344Y773D01*
X362Y773D02*
X374Y773D01*
X425Y773D02*
X439Y773D01*
X460Y773D02*
X469Y773D01*
X527Y773D02*
X536Y773D01*
X557Y773D02*
X566Y773D01*
X630Y773D02*
X641Y773D01*
X664Y773D02*
X673Y773D01*
X726Y773D02*
X742Y773D01*
X758Y773D02*
X770Y773D01*
X831Y773D02*
X839Y773D01*
X852Y773D02*
X871Y773D01*
X883Y773D02*
X890Y773D01*
X986Y773D02*
X989Y773D01*
X87Y772D02*
X90Y772D01*
X119Y772D02*
X145Y772D01*
X151Y772D02*
X156Y772D01*
X163Y772D02*
X173Y772D01*
X326Y772D02*
X343Y772D01*
X362Y772D02*
X373Y772D01*
X833Y772D02*
X838Y772D01*
X853Y772D02*
X858Y772D01*
X865Y772D02*
X870Y772D01*
X884Y772D02*
X890Y772D01*
X986Y772D02*
X989Y772D01*
X87Y771D02*
X90Y771D01*
X119Y771D02*
X124Y771D01*
X141Y771D02*
X145Y771D01*
X151Y771D02*
X156Y771D01*
X833Y771D02*
X838Y771D01*
X854Y771D02*
X858Y771D01*
X865Y771D02*
X868Y771D01*
X885Y771D02*
X890Y771D01*
X986Y771D02*
X989Y771D01*
X87Y770D02*
X90Y770D01*
X119Y770D02*
X124Y770D01*
X141Y770D02*
X145Y770D01*
X151Y770D02*
X156Y770D01*
X163Y770D02*
X170Y770D01*
X833Y770D02*
X838Y770D01*
X854Y770D02*
X858Y770D01*
X885Y770D02*
X890Y770D01*
X987Y770D02*
X990Y770D01*
X88Y769D02*
X91Y769D01*
X119Y769D02*
X124Y769D01*
X141Y769D02*
X145Y769D01*
X151Y769D02*
X156Y769D01*
X161Y769D02*
X171Y769D01*
X833Y769D02*
X838Y769D01*
X854Y769D02*
X858Y769D01*
X885Y769D02*
X890Y769D01*
X987Y769D02*
X990Y769D01*
X88Y768D02*
X91Y768D01*
X119Y768D02*
X124Y768D01*
X141Y768D02*
X145Y768D01*
X151Y768D02*
X156Y768D01*
X159Y768D02*
X172Y768D01*
X833Y768D02*
X838Y768D01*
X854Y768D02*
X858Y768D01*
X885Y768D02*
X890Y768D01*
X987Y768D02*
X990Y768D01*
X88Y767D02*
X91Y767D01*
X119Y767D02*
X124Y767D01*
X141Y767D02*
X145Y767D01*
X151Y767D02*
X156Y767D01*
X158Y767D02*
X173Y767D01*
X833Y767D02*
X838Y767D01*
X854Y767D02*
X858Y767D01*
X884Y767D02*
X890Y767D01*
X988Y767D02*
X990Y767D01*
X89Y766D02*
X91Y766D01*
X119Y766D02*
X124Y766D01*
X141Y766D02*
X145Y766D01*
X151Y766D02*
X174Y766D01*
X833Y766D02*
X838Y766D01*
X854Y766D02*
X858Y766D01*
X883Y766D02*
X889Y766D01*
X988Y766D02*
X990Y766D01*
X89Y765D02*
X91Y765D01*
X119Y765D02*
X124Y765D01*
X141Y765D02*
X145Y765D01*
X151Y765D02*
X175Y765D01*
X833Y765D02*
X838Y765D01*
X854Y765D02*
X858Y765D01*
X882Y765D02*
X889Y765D01*
X988Y765D02*
X991Y765D01*
X89Y764D02*
X92Y764D01*
X119Y764D02*
X124Y764D01*
X141Y764D02*
X145Y764D01*
X151Y764D02*
X163Y764D01*
X169Y764D02*
X176Y764D01*
X833Y764D02*
X838Y764D01*
X854Y764D02*
X858Y764D01*
X881Y764D02*
X887Y764D01*
X988Y764D02*
X991Y764D01*
X89Y763D02*
X92Y763D01*
X119Y763D02*
X124Y763D01*
X141Y763D02*
X145Y763D01*
X151Y763D02*
X161Y763D01*
X170Y763D02*
X177Y763D01*
X833Y763D02*
X838Y763D01*
X854Y763D02*
X858Y763D01*
X880Y763D02*
X886Y763D01*
X988Y763D02*
X991Y763D01*
X89Y762D02*
X92Y762D01*
X119Y762D02*
X124Y762D01*
X141Y762D02*
X145Y762D01*
X151Y762D02*
X159Y762D01*
X171Y762D02*
X177Y762D01*
X833Y762D02*
X838Y762D01*
X854Y762D02*
X858Y762D01*
X879Y762D02*
X885Y762D01*
X989Y762D02*
X991Y762D01*
X90Y761D02*
X92Y761D01*
X119Y761D02*
X124Y761D01*
X141Y761D02*
X145Y761D01*
X151Y761D02*
X157Y761D01*
X172Y761D02*
X177Y761D01*
X833Y761D02*
X838Y761D01*
X854Y761D02*
X858Y761D01*
X878Y761D02*
X884Y761D01*
X989Y761D02*
X991Y761D01*
X90Y760D02*
X92Y760D01*
X119Y760D02*
X124Y760D01*
X141Y760D02*
X145Y760D01*
X152Y760D02*
X156Y760D01*
X172Y760D02*
X177Y760D01*
X833Y760D02*
X838Y760D01*
X854Y760D02*
X858Y760D01*
X877Y760D02*
X883Y760D01*
X989Y760D02*
X991Y760D01*
X90Y759D02*
X92Y759D01*
X119Y759D02*
X124Y759D01*
X141Y759D02*
X145Y759D01*
X172Y759D02*
X177Y759D01*
X833Y759D02*
X838Y759D01*
X854Y759D02*
X858Y759D01*
X876Y759D02*
X882Y759D01*
X989Y759D02*
X991Y759D01*
X90Y758D02*
X92Y758D01*
X119Y758D02*
X124Y758D01*
X141Y758D02*
X145Y758D01*
X172Y758D02*
X177Y758D01*
X833Y758D02*
X838Y758D01*
X854Y758D02*
X858Y758D01*
X875Y758D02*
X881Y758D01*
X989Y758D02*
X991Y758D01*
X90Y757D02*
X92Y757D01*
X119Y757D02*
X124Y757D01*
X141Y757D02*
X145Y757D01*
X172Y757D02*
X177Y757D01*
X833Y757D02*
X838Y757D01*
X855Y757D02*
X858Y757D01*
X874Y757D02*
X880Y757D01*
X989Y757D02*
X991Y757D01*
X90Y756D02*
X91Y756D01*
X119Y756D02*
X124Y756D01*
X141Y756D02*
X145Y756D01*
X172Y756D02*
X177Y756D01*
X833Y756D02*
X838Y756D01*
X858Y756D02*
X858Y756D01*
X873Y756D02*
X879Y756D01*
X989Y756D02*
X991Y756D01*
X90Y755D02*
X91Y755D01*
X119Y755D02*
X124Y755D01*
X141Y755D02*
X145Y755D01*
X172Y755D02*
X177Y755D01*
X833Y755D02*
X838Y755D01*
X872Y755D02*
X878Y755D01*
X989Y755D02*
X990Y755D01*
X89Y754D02*
X91Y754D01*
X119Y754D02*
X124Y754D01*
X141Y754D02*
X145Y754D01*
X152Y754D02*
X155Y754D01*
X172Y754D02*
X177Y754D01*
X833Y754D02*
X838Y754D01*
X871Y754D02*
X877Y754D01*
X989Y754D02*
X990Y754D01*
X89Y753D02*
X91Y753D01*
X119Y753D02*
X124Y753D01*
X140Y753D02*
X145Y753D01*
X152Y753D02*
X156Y753D01*
X172Y753D02*
X177Y753D01*
X833Y753D02*
X836Y753D01*
X870Y753D02*
X876Y753D01*
X989Y753D02*
X990Y753D01*
X89Y752D02*
X91Y752D01*
X119Y752D02*
X124Y752D01*
X139Y752D02*
X145Y752D01*
X151Y752D02*
X157Y752D01*
X171Y752D02*
X177Y752D01*
X833Y752D02*
X834Y752D01*
X869Y752D02*
X875Y752D01*
X988Y752D02*
X990Y752D01*
X89Y751D02*
X90Y751D01*
X119Y751D02*
X124Y751D01*
X138Y751D02*
X145Y751D01*
X152Y751D02*
X158Y751D01*
X170Y751D02*
X176Y751D01*
X833Y751D02*
X833Y751D01*
X868Y751D02*
X874Y751D01*
X988Y751D02*
X990Y751D01*
X89Y750D02*
X90Y750D01*
X119Y750D02*
X124Y750D01*
X137Y750D02*
X145Y750D01*
X152Y750D02*
X159Y750D01*
X169Y750D02*
X176Y750D01*
X868Y750D02*
X873Y750D01*
X988Y750D02*
X989Y750D01*
X88Y749D02*
X90Y749D01*
X119Y749D02*
X143Y749D01*
X153Y749D02*
X175Y749D01*
X869Y749D02*
X888Y749D01*
X988Y749D02*
X989Y749D01*
X88Y748D02*
X90Y748D01*
X119Y748D02*
X142Y748D01*
X154Y748D02*
X174Y748D01*
X870Y748D02*
X889Y748D01*
X987Y748D02*
X989Y748D01*
X88Y747D02*
X89Y747D01*
X119Y747D02*
X141Y747D01*
X155Y747D02*
X173Y747D01*
X871Y747D02*
X890Y747D01*
X987Y747D02*
X988Y747D01*
X88Y746D02*
X89Y746D01*
X119Y746D02*
X140Y746D01*
X156Y746D02*
X172Y746D01*
X871Y746D02*
X890Y746D01*
X987Y746D02*
X988Y746D01*
X87Y745D02*
X88Y745D01*
X119Y745D02*
X139Y745D01*
X156Y745D02*
X171Y745D01*
X872Y745D02*
X889Y745D01*
X986Y745D02*
X988Y745D01*
X87Y744D02*
X88Y744D01*
X121Y744D02*
X138Y744D01*
X158Y744D02*
X170Y744D01*
X872Y744D02*
X887Y744D01*
X986Y744D02*
X987Y744D01*
X86Y743D02*
X87Y743D01*
X986Y743D02*
X987Y743D01*
X86Y742D02*
X87Y742D01*
X985Y742D02*
X986Y742D01*
X86Y741D02*
X86Y741D01*
X985Y741D02*
X986Y741D01*
X85Y740D02*
X86Y740D01*
X984Y740D02*
X985Y740D01*
X85Y739D02*
X85Y739D01*
X984Y739D02*
X984Y739D01*
X84Y738D02*
X85Y738D01*
X983Y738D02*
X984Y738D01*
X83Y737D02*
X84Y737D01*
X983Y737D02*
X983Y737D01*
X83Y736D02*
X83Y736D01*
X982Y736D02*
X982Y736D01*
X82Y735D02*
X82Y735D01*
X981Y735D02*
X982Y735D01*
X81Y734D02*
X81Y734D01*
X981Y734D02*
X981Y734D01*
X81Y733D02*
X81Y733D01*
X980Y733D02*
X980Y733D01*
X979Y732D02*
X979Y732D01*
X978Y731D02*
X978Y731D01*
X697Y720D02*
X829Y720D01*
X697Y719D02*
X829Y719D01*
X697Y718D02*
X830Y718D01*
X697Y717D02*
X699Y717D01*
X765Y717D02*
X780Y717D01*
X697Y716D02*
X699Y716D01*
X697Y715D02*
X699Y715D01*
X697Y714D02*
X699Y714D01*
X697Y713D02*
X699Y713D01*
X697Y712D02*
X699Y712D01*
X697Y711D02*
X699Y711D01*
X697Y710D02*
X699Y710D01*
X697Y709D02*
X699Y709D01*
X697Y708D02*
X699Y708D01*
X846Y708D02*
X848Y708D01*
X697Y707D02*
X699Y707D01*
X846Y707D02*
X848Y707D01*
X697Y706D02*
X699Y706D01*
X846Y706D02*
X848Y706D01*
X697Y705D02*
X699Y705D01*
X846Y705D02*
X848Y705D01*
X664Y704D02*
X695Y704D01*
X697Y704D02*
X699Y704D01*
X846Y704D02*
X848Y704D01*
X665Y703D02*
X695Y703D01*
X697Y703D02*
X699Y703D01*
X846Y703D02*
X848Y703D01*
X666Y702D02*
X695Y702D01*
X697Y702D02*
X699Y702D01*
X846Y702D02*
X848Y702D01*
X667Y701D02*
X695Y701D01*
X697Y701D02*
X699Y701D01*
X846Y701D02*
X848Y701D01*
X681Y700D02*
X684Y700D01*
X691Y700D02*
X695Y700D01*
X697Y700D02*
X699Y700D01*
X846Y700D02*
X848Y700D01*
X50Y699D02*
X57Y699D01*
X681Y699D02*
X684Y699D01*
X691Y699D02*
X695Y699D01*
X697Y699D02*
X699Y699D01*
X846Y699D02*
X848Y699D01*
X949Y699D02*
X956Y699D01*
X45Y698D02*
X62Y698D01*
X681Y698D02*
X684Y698D01*
X691Y698D02*
X695Y698D01*
X697Y698D02*
X699Y698D01*
X846Y698D02*
X848Y698D01*
X944Y698D02*
X961Y698D01*
X42Y697D02*
X65Y697D01*
X680Y697D02*
X684Y697D01*
X691Y697D02*
X695Y697D01*
X697Y697D02*
X699Y697D01*
X846Y697D02*
X848Y697D01*
X941Y697D02*
X964Y697D01*
X39Y696D02*
X46Y696D01*
X55Y696D02*
X68Y696D01*
X679Y696D02*
X684Y696D01*
X691Y696D02*
X695Y696D01*
X697Y696D02*
X699Y696D01*
X846Y696D02*
X848Y696D01*
X938Y696D02*
X946Y696D01*
X954Y696D02*
X967Y696D01*
X37Y695D02*
X41Y695D01*
X60Y695D02*
X70Y695D01*
X677Y695D02*
X684Y695D01*
X691Y695D02*
X695Y695D01*
X697Y695D02*
X699Y695D01*
X846Y695D02*
X848Y695D01*
X936Y695D02*
X941Y695D01*
X959Y695D02*
X969Y695D01*
X35Y694D02*
X38Y694D01*
X63Y694D02*
X72Y694D01*
X675Y694D02*
X684Y694D01*
X691Y694D02*
X695Y694D01*
X697Y694D02*
X699Y694D01*
X846Y694D02*
X848Y694D01*
X934Y694D02*
X937Y694D01*
X963Y694D02*
X971Y694D01*
X33Y693D02*
X35Y693D01*
X66Y693D02*
X74Y693D01*
X674Y693D02*
X684Y693D01*
X691Y693D02*
X695Y693D01*
X697Y693D02*
X699Y693D01*
X846Y693D02*
X848Y693D01*
X932Y693D02*
X935Y693D01*
X965Y693D02*
X973Y693D01*
X32Y692D02*
X33Y692D01*
X68Y692D02*
X75Y692D01*
X673Y692D02*
X684Y692D01*
X691Y692D02*
X695Y692D01*
X697Y692D02*
X699Y692D01*
X846Y692D02*
X848Y692D01*
X931Y692D02*
X933Y692D01*
X967Y692D02*
X974Y692D01*
X30Y691D02*
X31Y691D01*
X70Y691D02*
X77Y691D01*
X674Y691D02*
X678Y691D01*
X681Y691D02*
X684Y691D01*
X691Y691D02*
X695Y691D01*
X697Y691D02*
X699Y691D01*
X846Y691D02*
X848Y691D01*
X929Y691D02*
X931Y691D01*
X969Y691D02*
X976Y691D01*
X29Y690D02*
X30Y690D01*
X72Y690D02*
X78Y690D01*
X674Y690D02*
X676Y690D01*
X681Y690D02*
X684Y690D01*
X691Y690D02*
X695Y690D01*
X697Y690D02*
X699Y690D01*
X846Y690D02*
X848Y690D01*
X928Y690D02*
X929Y690D01*
X971Y690D02*
X977Y690D01*
X28Y689D02*
X28Y689D01*
X73Y689D02*
X79Y689D01*
X674Y689D02*
X674Y689D01*
X681Y689D02*
X684Y689D01*
X691Y689D02*
X695Y689D01*
X697Y689D02*
X699Y689D01*
X846Y689D02*
X848Y689D01*
X927Y689D02*
X927Y689D01*
X973Y689D02*
X978Y689D01*
X27Y688D02*
X27Y688D01*
X75Y688D02*
X80Y688D01*
X681Y688D02*
X685Y688D01*
X690Y688D02*
X694Y688D01*
X697Y688D02*
X699Y688D01*
X846Y688D02*
X848Y688D01*
X926Y688D02*
X926Y688D01*
X974Y688D02*
X979Y688D01*
X76Y687D02*
X81Y687D01*
X682Y687D02*
X694Y687D01*
X697Y687D02*
X699Y687D01*
X846Y687D02*
X848Y687D01*
X925Y687D02*
X925Y687D01*
X975Y687D02*
X980Y687D01*
X77Y686D02*
X82Y686D01*
X682Y686D02*
X693Y686D01*
X697Y686D02*
X699Y686D01*
X846Y686D02*
X848Y686D01*
X977Y686D02*
X981Y686D01*
X78Y685D02*
X83Y685D01*
X683Y685D02*
X692Y685D01*
X697Y685D02*
X699Y685D01*
X846Y685D02*
X848Y685D01*
X978Y685D02*
X982Y685D01*
X79Y684D02*
X84Y684D01*
X685Y684D02*
X690Y684D01*
X697Y684D02*
X699Y684D01*
X846Y684D02*
X848Y684D01*
X979Y684D02*
X983Y684D01*
X80Y683D02*
X84Y683D01*
X697Y683D02*
X699Y683D01*
X846Y683D02*
X848Y683D01*
X979Y683D02*
X984Y683D01*
X81Y682D02*
X85Y682D01*
X697Y682D02*
X699Y682D01*
X846Y682D02*
X848Y682D01*
X980Y682D02*
X984Y682D01*
X82Y681D02*
X86Y681D01*
X697Y681D02*
X699Y681D01*
X846Y681D02*
X848Y681D01*
X981Y681D02*
X985Y681D01*
X82Y680D02*
X86Y680D01*
X697Y680D02*
X699Y680D01*
X846Y680D02*
X851Y680D01*
X871Y680D02*
X883Y680D01*
X982Y680D02*
X985Y680D01*
X83Y679D02*
X87Y679D01*
X697Y679D02*
X699Y679D01*
X846Y679D02*
X853Y679D01*
X870Y679D02*
X884Y679D01*
X982Y679D02*
X986Y679D01*
X84Y678D02*
X87Y678D01*
X697Y678D02*
X699Y678D01*
X846Y678D02*
X854Y678D01*
X869Y678D02*
X885Y678D01*
X983Y678D02*
X987Y678D01*
X84Y677D02*
X88Y677D01*
X697Y677D02*
X699Y677D01*
X846Y677D02*
X855Y677D01*
X868Y677D02*
X886Y677D01*
X984Y677D02*
X987Y677D01*
X85Y676D02*
X88Y676D01*
X697Y676D02*
X699Y676D01*
X846Y676D02*
X856Y676D01*
X867Y676D02*
X887Y676D01*
X984Y676D02*
X987Y676D01*
X85Y675D02*
X89Y675D01*
X697Y675D02*
X699Y675D01*
X846Y675D02*
X857Y675D01*
X866Y675D02*
X889Y675D01*
X985Y675D02*
X988Y675D01*
X86Y674D02*
X89Y674D01*
X693Y674D02*
X693Y674D01*
X697Y674D02*
X699Y674D01*
X846Y674D02*
X848Y674D01*
X851Y674D02*
X858Y674D01*
X865Y674D02*
X872Y674D01*
X882Y674D02*
X890Y674D01*
X985Y674D02*
X988Y674D01*
X86Y673D02*
X89Y673D01*
X692Y673D02*
X694Y673D01*
X697Y673D02*
X699Y673D01*
X846Y673D02*
X848Y673D01*
X852Y673D02*
X858Y673D01*
X865Y673D02*
X871Y673D01*
X883Y673D02*
X890Y673D01*
X986Y673D02*
X989Y673D01*
X87Y672D02*
X90Y672D01*
X691Y672D02*
X695Y672D01*
X697Y672D02*
X699Y672D01*
X846Y672D02*
X848Y672D01*
X853Y672D02*
X858Y672D01*
X865Y672D02*
X870Y672D01*
X885Y672D02*
X890Y672D01*
X986Y672D02*
X989Y672D01*
X87Y671D02*
X90Y671D01*
X691Y671D02*
X695Y671D01*
X697Y671D02*
X699Y671D01*
X846Y671D02*
X848Y671D01*
X854Y671D02*
X858Y671D01*
X865Y671D02*
X868Y671D01*
X885Y671D02*
X890Y671D01*
X986Y671D02*
X989Y671D01*
X87Y670D02*
X90Y670D01*
X691Y670D02*
X695Y670D01*
X697Y670D02*
X699Y670D01*
X846Y670D02*
X848Y670D01*
X854Y670D02*
X858Y670D01*
X885Y670D02*
X890Y670D01*
X987Y670D02*
X990Y670D01*
X88Y669D02*
X91Y669D01*
X233Y669D02*
X260Y669D01*
X284Y669D02*
X285Y669D01*
X310Y669D02*
X311Y669D01*
X336Y669D02*
X336Y669D01*
X361Y669D02*
X362Y669D01*
X387Y669D02*
X388Y669D01*
X412Y669D02*
X413Y669D01*
X438Y669D02*
X439Y669D01*
X463Y669D02*
X464Y669D01*
X489Y669D02*
X490Y669D01*
X515Y669D02*
X515Y669D01*
X540Y669D02*
X541Y669D01*
X566Y669D02*
X567Y669D01*
X591Y669D02*
X592Y669D01*
X617Y669D02*
X629Y669D01*
X691Y669D02*
X695Y669D01*
X697Y669D02*
X699Y669D01*
X846Y669D02*
X848Y669D01*
X854Y669D02*
X858Y669D01*
X885Y669D02*
X890Y669D01*
X987Y669D02*
X990Y669D01*
X88Y668D02*
X91Y668D01*
X232Y668D02*
X260Y668D01*
X284Y668D02*
X285Y668D01*
X310Y668D02*
X311Y668D01*
X336Y668D02*
X336Y668D01*
X361Y668D02*
X362Y668D01*
X387Y668D02*
X388Y668D01*
X412Y668D02*
X413Y668D01*
X438Y668D02*
X439Y668D01*
X463Y668D02*
X464Y668D01*
X489Y668D02*
X490Y668D01*
X515Y668D02*
X515Y668D01*
X540Y668D02*
X541Y668D01*
X566Y668D02*
X567Y668D01*
X591Y668D02*
X592Y668D01*
X617Y668D02*
X630Y668D01*
X691Y668D02*
X695Y668D01*
X697Y668D02*
X699Y668D01*
X846Y668D02*
X848Y668D01*
X854Y668D02*
X858Y668D01*
X885Y668D02*
X890Y668D01*
X987Y668D02*
X990Y668D01*
X88Y667D02*
X91Y667D01*
X231Y667D02*
X260Y667D01*
X284Y667D02*
X285Y667D01*
X310Y667D02*
X311Y667D01*
X336Y667D02*
X336Y667D01*
X361Y667D02*
X362Y667D01*
X387Y667D02*
X388Y667D01*
X412Y667D02*
X413Y667D01*
X438Y667D02*
X439Y667D01*
X463Y667D02*
X464Y667D01*
X489Y667D02*
X490Y667D01*
X515Y667D02*
X515Y667D01*
X540Y667D02*
X541Y667D01*
X566Y667D02*
X567Y667D01*
X591Y667D02*
X592Y667D01*
X617Y667D02*
X631Y667D01*
X691Y667D02*
X695Y667D01*
X697Y667D02*
X699Y667D01*
X846Y667D02*
X848Y667D01*
X854Y667D02*
X858Y667D01*
X884Y667D02*
X890Y667D01*
X988Y667D02*
X990Y667D01*
X89Y666D02*
X91Y666D01*
X231Y666D02*
X260Y666D01*
X284Y666D02*
X285Y666D01*
X310Y666D02*
X311Y666D01*
X336Y666D02*
X336Y666D01*
X361Y666D02*
X362Y666D01*
X387Y666D02*
X388Y666D01*
X412Y666D02*
X413Y666D01*
X438Y666D02*
X439Y666D01*
X463Y666D02*
X464Y666D01*
X489Y666D02*
X490Y666D01*
X515Y666D02*
X515Y666D01*
X540Y666D02*
X541Y666D01*
X566Y666D02*
X567Y666D01*
X591Y666D02*
X592Y666D01*
X617Y666D02*
X632Y666D01*
X691Y666D02*
X695Y666D01*
X697Y666D02*
X699Y666D01*
X846Y666D02*
X848Y666D01*
X854Y666D02*
X858Y666D01*
X883Y666D02*
X889Y666D01*
X988Y666D02*
X990Y666D01*
X89Y665D02*
X91Y665D01*
X231Y665D02*
X260Y665D01*
X284Y665D02*
X285Y665D01*
X310Y665D02*
X311Y665D01*
X336Y665D02*
X336Y665D01*
X361Y665D02*
X362Y665D01*
X387Y665D02*
X388Y665D01*
X412Y665D02*
X413Y665D01*
X438Y665D02*
X439Y665D01*
X463Y665D02*
X464Y665D01*
X489Y665D02*
X490Y665D01*
X515Y665D02*
X515Y665D01*
X540Y665D02*
X541Y665D01*
X566Y665D02*
X567Y665D01*
X591Y665D02*
X592Y665D01*
X617Y665D02*
X633Y665D01*
X668Y665D02*
X695Y665D01*
X697Y665D02*
X699Y665D01*
X846Y665D02*
X848Y665D01*
X854Y665D02*
X858Y665D01*
X881Y665D02*
X889Y665D01*
X988Y665D02*
X991Y665D01*
X89Y664D02*
X92Y664D01*
X231Y664D02*
X260Y664D01*
X284Y664D02*
X285Y664D01*
X310Y664D02*
X311Y664D01*
X336Y664D02*
X336Y664D01*
X361Y664D02*
X362Y664D01*
X387Y664D02*
X388Y664D01*
X412Y664D02*
X413Y664D01*
X438Y664D02*
X439Y664D01*
X463Y664D02*
X464Y664D01*
X489Y664D02*
X490Y664D01*
X515Y664D02*
X515Y664D01*
X540Y664D02*
X541Y664D01*
X566Y664D02*
X567Y664D01*
X591Y664D02*
X592Y664D01*
X617Y664D02*
X634Y664D01*
X667Y664D02*
X695Y664D01*
X697Y664D02*
X699Y664D01*
X846Y664D02*
X848Y664D01*
X854Y664D02*
X858Y664D01*
X875Y664D02*
X887Y664D01*
X988Y664D02*
X991Y664D01*
X89Y663D02*
X92Y663D01*
X231Y663D02*
X236Y663D01*
X665Y663D02*
X695Y663D01*
X697Y663D02*
X699Y663D01*
X846Y663D02*
X848Y663D01*
X854Y663D02*
X858Y663D01*
X875Y663D02*
X886Y663D01*
X988Y663D02*
X991Y663D01*
X89Y662D02*
X92Y662D01*
X231Y662D02*
X236Y662D01*
X664Y662D02*
X694Y662D01*
X697Y662D02*
X699Y662D01*
X846Y662D02*
X848Y662D01*
X854Y662D02*
X858Y662D01*
X874Y662D02*
X886Y662D01*
X989Y662D02*
X991Y662D01*
X90Y661D02*
X92Y661D01*
X231Y661D02*
X236Y661D01*
X663Y661D02*
X666Y661D01*
X697Y661D02*
X699Y661D01*
X846Y661D02*
X848Y661D01*
X854Y661D02*
X858Y661D01*
X875Y661D02*
X886Y661D01*
X989Y661D02*
X991Y661D01*
X90Y660D02*
X92Y660D01*
X231Y660D02*
X236Y660D01*
X640Y660D02*
X641Y660D01*
X663Y660D02*
X666Y660D01*
X697Y660D02*
X699Y660D01*
X846Y660D02*
X848Y660D01*
X854Y660D02*
X858Y660D01*
X875Y660D02*
X887Y660D01*
X989Y660D02*
X991Y660D01*
X90Y659D02*
X92Y659D01*
X231Y659D02*
X236Y659D01*
X640Y659D02*
X644Y659D01*
X663Y659D02*
X666Y659D01*
X697Y659D02*
X699Y659D01*
X846Y659D02*
X848Y659D01*
X854Y659D02*
X858Y659D01*
X881Y659D02*
X889Y659D01*
X989Y659D02*
X991Y659D01*
X90Y658D02*
X92Y658D01*
X231Y658D02*
X236Y658D01*
X640Y658D02*
X645Y658D01*
X663Y658D02*
X666Y658D01*
X697Y658D02*
X699Y658D01*
X846Y658D02*
X848Y658D01*
X854Y658D02*
X858Y658D01*
X883Y658D02*
X890Y658D01*
X989Y658D02*
X991Y658D01*
X90Y657D02*
X92Y657D01*
X231Y657D02*
X236Y657D01*
X640Y657D02*
X645Y657D01*
X663Y657D02*
X676Y657D01*
X697Y657D02*
X699Y657D01*
X846Y657D02*
X848Y657D01*
X854Y657D02*
X858Y657D01*
X884Y657D02*
X890Y657D01*
X989Y657D02*
X991Y657D01*
X90Y656D02*
X91Y656D01*
X231Y656D02*
X236Y656D01*
X640Y656D02*
X645Y656D01*
X663Y656D02*
X677Y656D01*
X697Y656D02*
X699Y656D01*
X846Y656D02*
X848Y656D01*
X854Y656D02*
X858Y656D01*
X885Y656D02*
X890Y656D01*
X989Y656D02*
X991Y656D01*
X90Y655D02*
X91Y655D01*
X231Y655D02*
X236Y655D01*
X640Y655D02*
X645Y655D01*
X663Y655D02*
X677Y655D01*
X697Y655D02*
X699Y655D01*
X846Y655D02*
X848Y655D01*
X854Y655D02*
X858Y655D01*
X885Y655D02*
X890Y655D01*
X989Y655D02*
X990Y655D01*
X89Y654D02*
X91Y654D01*
X231Y654D02*
X236Y654D01*
X640Y654D02*
X645Y654D01*
X664Y654D02*
X676Y654D01*
X697Y654D02*
X699Y654D01*
X846Y654D02*
X848Y654D01*
X854Y654D02*
X858Y654D01*
X865Y654D02*
X868Y654D01*
X885Y654D02*
X890Y654D01*
X989Y654D02*
X990Y654D01*
X89Y653D02*
X91Y653D01*
X231Y653D02*
X236Y653D01*
X640Y653D02*
X645Y653D01*
X697Y653D02*
X699Y653D01*
X846Y653D02*
X848Y653D01*
X853Y653D02*
X858Y653D01*
X865Y653D02*
X869Y653D01*
X885Y653D02*
X890Y653D01*
X989Y653D02*
X990Y653D01*
X89Y652D02*
X91Y652D01*
X231Y652D02*
X236Y652D01*
X640Y652D02*
X645Y652D01*
X697Y652D02*
X699Y652D01*
X846Y652D02*
X848Y652D01*
X852Y652D02*
X858Y652D01*
X865Y652D02*
X870Y652D01*
X884Y652D02*
X890Y652D01*
X988Y652D02*
X990Y652D01*
X89Y651D02*
X90Y651D01*
X231Y651D02*
X236Y651D01*
X640Y651D02*
X645Y651D01*
X697Y651D02*
X699Y651D01*
X846Y651D02*
X848Y651D01*
X851Y651D02*
X858Y651D01*
X865Y651D02*
X871Y651D01*
X883Y651D02*
X890Y651D01*
X988Y651D02*
X990Y651D01*
X89Y650D02*
X90Y650D01*
X231Y650D02*
X236Y650D01*
X640Y650D02*
X645Y650D01*
X697Y650D02*
X699Y650D01*
X846Y650D02*
X848Y650D01*
X850Y650D02*
X857Y650D01*
X865Y650D02*
X872Y650D01*
X882Y650D02*
X889Y650D01*
X988Y650D02*
X989Y650D01*
X88Y649D02*
X90Y649D01*
X231Y649D02*
X236Y649D01*
X640Y649D02*
X645Y649D01*
X697Y649D02*
X699Y649D01*
X765Y649D02*
X780Y649D01*
X846Y649D02*
X856Y649D01*
X866Y649D02*
X888Y649D01*
X988Y649D02*
X989Y649D01*
X88Y648D02*
X90Y648D01*
X231Y648D02*
X236Y648D01*
X640Y648D02*
X645Y648D01*
X697Y648D02*
X855Y648D01*
X867Y648D02*
X887Y648D01*
X987Y648D02*
X989Y648D01*
X88Y647D02*
X89Y647D01*
X231Y647D02*
X236Y647D01*
X640Y647D02*
X645Y647D01*
X697Y647D02*
X854Y647D01*
X868Y647D02*
X886Y647D01*
X987Y647D02*
X988Y647D01*
X88Y646D02*
X89Y646D01*
X231Y646D02*
X236Y646D01*
X640Y646D02*
X645Y646D01*
X697Y646D02*
X853Y646D01*
X869Y646D02*
X885Y646D01*
X987Y646D02*
X988Y646D01*
X87Y645D02*
X88Y645D01*
X231Y645D02*
X236Y645D01*
X640Y645D02*
X645Y645D01*
X833Y645D02*
X852Y645D01*
X870Y645D02*
X884Y645D01*
X986Y645D02*
X988Y645D01*
X87Y644D02*
X88Y644D01*
X231Y644D02*
X236Y644D01*
X640Y644D02*
X645Y644D01*
X834Y644D02*
X836Y644D01*
X849Y644D02*
X851Y644D01*
X872Y644D02*
X873Y644D01*
X881Y644D02*
X882Y644D01*
X986Y644D02*
X987Y644D01*
X86Y643D02*
X87Y643D01*
X231Y643D02*
X236Y643D01*
X640Y643D02*
X645Y643D01*
X986Y643D02*
X987Y643D01*
X86Y642D02*
X87Y642D01*
X231Y642D02*
X236Y642D01*
X640Y642D02*
X645Y642D01*
X985Y642D02*
X986Y642D01*
X86Y641D02*
X86Y641D01*
X231Y641D02*
X236Y641D01*
X640Y641D02*
X645Y641D01*
X985Y641D02*
X986Y641D01*
X85Y640D02*
X86Y640D01*
X231Y640D02*
X236Y640D01*
X640Y640D02*
X645Y640D01*
X984Y640D02*
X985Y640D01*
X85Y639D02*
X85Y639D01*
X231Y639D02*
X236Y639D01*
X640Y639D02*
X645Y639D01*
X984Y639D02*
X984Y639D01*
X84Y638D02*
X85Y638D01*
X231Y638D02*
X236Y638D01*
X640Y638D02*
X645Y638D01*
X983Y638D02*
X984Y638D01*
X83Y637D02*
X84Y637D01*
X231Y637D02*
X236Y637D01*
X640Y637D02*
X645Y637D01*
X983Y637D02*
X983Y637D01*
X83Y636D02*
X83Y636D01*
X231Y636D02*
X236Y636D01*
X640Y636D02*
X645Y636D01*
X982Y636D02*
X982Y636D01*
X82Y635D02*
X82Y635D01*
X231Y635D02*
X236Y635D01*
X640Y635D02*
X645Y635D01*
X981Y635D02*
X981Y635D01*
X81Y634D02*
X81Y634D01*
X231Y634D02*
X236Y634D01*
X640Y634D02*
X645Y634D01*
X981Y634D02*
X981Y634D01*
X231Y633D02*
X236Y633D01*
X640Y633D02*
X645Y633D01*
X980Y633D02*
X980Y633D01*
X231Y632D02*
X236Y632D01*
X640Y632D02*
X645Y632D01*
X979Y632D02*
X979Y632D01*
X231Y631D02*
X236Y631D01*
X640Y631D02*
X645Y631D01*
X231Y630D02*
X236Y630D01*
X640Y630D02*
X645Y630D01*
X231Y629D02*
X236Y629D01*
X640Y629D02*
X645Y629D01*
X231Y628D02*
X236Y628D01*
X640Y628D02*
X645Y628D01*
X231Y627D02*
X236Y627D01*
X640Y627D02*
X645Y627D01*
X231Y626D02*
X236Y626D01*
X640Y626D02*
X645Y626D01*
X231Y625D02*
X236Y625D01*
X640Y625D02*
X645Y625D01*
X231Y624D02*
X236Y624D01*
X640Y624D02*
X645Y624D01*
X231Y623D02*
X236Y623D01*
X640Y623D02*
X645Y623D01*
X231Y622D02*
X236Y622D01*
X640Y622D02*
X645Y622D01*
X231Y621D02*
X236Y621D01*
X640Y621D02*
X645Y621D01*
X231Y620D02*
X236Y620D01*
X640Y620D02*
X645Y620D01*
X231Y619D02*
X236Y619D01*
X640Y619D02*
X645Y619D01*
X231Y618D02*
X236Y618D01*
X640Y618D02*
X645Y618D01*
X231Y617D02*
X236Y617D01*
X640Y617D02*
X645Y617D01*
X231Y616D02*
X236Y616D01*
X640Y616D02*
X645Y616D01*
X231Y615D02*
X236Y615D01*
X640Y615D02*
X645Y615D01*
X231Y614D02*
X236Y614D01*
X640Y614D02*
X645Y614D01*
X231Y613D02*
X236Y613D01*
X640Y613D02*
X645Y613D01*
X231Y612D02*
X236Y612D01*
X640Y612D02*
X645Y612D01*
X231Y611D02*
X236Y611D01*
X640Y611D02*
X645Y611D01*
X231Y610D02*
X236Y610D01*
X640Y610D02*
X645Y610D01*
X231Y609D02*
X236Y609D01*
X640Y609D02*
X645Y609D01*
X231Y608D02*
X236Y608D01*
X640Y608D02*
X645Y608D01*
X231Y607D02*
X236Y607D01*
X640Y607D02*
X645Y607D01*
X697Y607D02*
X848Y607D01*
X231Y606D02*
X236Y606D01*
X640Y606D02*
X645Y606D01*
X697Y606D02*
X848Y606D01*
X231Y605D02*
X236Y605D01*
X640Y605D02*
X645Y605D01*
X697Y605D02*
X848Y605D01*
X231Y604D02*
X236Y604D01*
X640Y604D02*
X645Y604D01*
X697Y604D02*
X699Y604D01*
X765Y604D02*
X780Y604D01*
X846Y604D02*
X848Y604D01*
X231Y603D02*
X236Y603D01*
X640Y603D02*
X645Y603D01*
X697Y603D02*
X699Y603D01*
X846Y603D02*
X848Y603D01*
X231Y602D02*
X236Y602D01*
X640Y602D02*
X645Y602D01*
X697Y602D02*
X699Y602D01*
X846Y602D02*
X848Y602D01*
X231Y601D02*
X236Y601D01*
X640Y601D02*
X645Y601D01*
X697Y601D02*
X699Y601D01*
X846Y601D02*
X848Y601D01*
X231Y600D02*
X236Y600D01*
X640Y600D02*
X645Y600D01*
X697Y600D02*
X699Y600D01*
X846Y600D02*
X848Y600D01*
X49Y599D02*
X57Y599D01*
X231Y599D02*
X236Y599D01*
X640Y599D02*
X645Y599D01*
X697Y599D02*
X699Y599D01*
X846Y599D02*
X848Y599D01*
X949Y599D02*
X957Y599D01*
X45Y598D02*
X62Y598D01*
X231Y598D02*
X236Y598D01*
X640Y598D02*
X645Y598D01*
X697Y598D02*
X699Y598D01*
X846Y598D02*
X848Y598D01*
X944Y598D02*
X961Y598D01*
X41Y597D02*
X65Y597D01*
X231Y597D02*
X236Y597D01*
X640Y597D02*
X645Y597D01*
X697Y597D02*
X699Y597D01*
X846Y597D02*
X848Y597D01*
X941Y597D02*
X965Y597D01*
X39Y596D02*
X46Y596D01*
X55Y596D02*
X68Y596D01*
X231Y596D02*
X236Y596D01*
X640Y596D02*
X645Y596D01*
X697Y596D02*
X699Y596D01*
X846Y596D02*
X848Y596D01*
X938Y596D02*
X946Y596D01*
X954Y596D02*
X967Y596D01*
X37Y595D02*
X41Y595D01*
X60Y595D02*
X70Y595D01*
X231Y595D02*
X236Y595D01*
X640Y595D02*
X645Y595D01*
X697Y595D02*
X699Y595D01*
X846Y595D02*
X848Y595D01*
X936Y595D02*
X941Y595D01*
X959Y595D02*
X969Y595D01*
X35Y594D02*
X38Y594D01*
X64Y594D02*
X72Y594D01*
X231Y594D02*
X236Y594D01*
X640Y594D02*
X645Y594D01*
X697Y594D02*
X699Y594D01*
X846Y594D02*
X848Y594D01*
X934Y594D02*
X937Y594D01*
X963Y594D02*
X971Y594D01*
X33Y593D02*
X35Y593D01*
X66Y593D02*
X74Y593D01*
X231Y593D02*
X236Y593D01*
X640Y593D02*
X645Y593D01*
X697Y593D02*
X699Y593D01*
X846Y593D02*
X848Y593D01*
X932Y593D02*
X935Y593D01*
X965Y593D02*
X973Y593D01*
X31Y592D02*
X33Y592D01*
X68Y592D02*
X75Y592D01*
X231Y592D02*
X236Y592D01*
X640Y592D02*
X645Y592D01*
X697Y592D02*
X699Y592D01*
X846Y592D02*
X848Y592D01*
X931Y592D02*
X932Y592D01*
X967Y592D02*
X975Y592D01*
X30Y591D02*
X31Y591D01*
X70Y591D02*
X77Y591D01*
X231Y591D02*
X236Y591D01*
X640Y591D02*
X645Y591D01*
X662Y591D02*
X692Y591D01*
X697Y591D02*
X699Y591D01*
X846Y591D02*
X848Y591D01*
X929Y591D02*
X931Y591D01*
X969Y591D02*
X976Y591D01*
X29Y590D02*
X30Y590D01*
X72Y590D02*
X78Y590D01*
X231Y590D02*
X236Y590D01*
X640Y590D02*
X645Y590D01*
X661Y590D02*
X693Y590D01*
X697Y590D02*
X699Y590D01*
X846Y590D02*
X848Y590D01*
X928Y590D02*
X929Y590D01*
X971Y590D02*
X977Y590D01*
X28Y589D02*
X28Y589D01*
X74Y589D02*
X79Y589D01*
X231Y589D02*
X236Y589D01*
X640Y589D02*
X645Y589D01*
X661Y589D02*
X693Y589D01*
X697Y589D02*
X699Y589D01*
X846Y589D02*
X848Y589D01*
X927Y589D02*
X927Y589D01*
X973Y589D02*
X978Y589D01*
X27Y588D02*
X27Y588D01*
X75Y588D02*
X80Y588D01*
X231Y588D02*
X236Y588D01*
X640Y588D02*
X645Y588D01*
X661Y588D02*
X693Y588D01*
X697Y588D02*
X699Y588D01*
X846Y588D02*
X848Y588D01*
X926Y588D02*
X926Y588D01*
X974Y588D02*
X979Y588D01*
X76Y587D02*
X81Y587D01*
X231Y587D02*
X236Y587D01*
X640Y587D02*
X645Y587D01*
X663Y587D02*
X693Y587D01*
X697Y587D02*
X699Y587D01*
X846Y587D02*
X848Y587D01*
X925Y587D02*
X925Y587D01*
X975Y587D02*
X980Y587D01*
X77Y586D02*
X82Y586D01*
X231Y586D02*
X236Y586D01*
X640Y586D02*
X645Y586D01*
X679Y586D02*
X682Y586D01*
X689Y586D02*
X693Y586D01*
X697Y586D02*
X699Y586D01*
X846Y586D02*
X848Y586D01*
X977Y586D02*
X981Y586D01*
X78Y585D02*
X83Y585D01*
X231Y585D02*
X236Y585D01*
X640Y585D02*
X645Y585D01*
X679Y585D02*
X682Y585D01*
X689Y585D02*
X693Y585D01*
X697Y585D02*
X699Y585D01*
X846Y585D02*
X848Y585D01*
X978Y585D02*
X982Y585D01*
X79Y584D02*
X84Y584D01*
X231Y584D02*
X236Y584D01*
X640Y584D02*
X645Y584D01*
X678Y584D02*
X682Y584D01*
X689Y584D02*
X693Y584D01*
X697Y584D02*
X699Y584D01*
X846Y584D02*
X848Y584D01*
X979Y584D02*
X983Y584D01*
X80Y583D02*
X84Y583D01*
X231Y583D02*
X236Y583D01*
X640Y583D02*
X645Y583D01*
X677Y583D02*
X682Y583D01*
X689Y583D02*
X693Y583D01*
X697Y583D02*
X699Y583D01*
X846Y583D02*
X848Y583D01*
X979Y583D02*
X984Y583D01*
X81Y582D02*
X85Y582D01*
X231Y582D02*
X236Y582D01*
X640Y582D02*
X645Y582D01*
X675Y582D02*
X682Y582D01*
X689Y582D02*
X693Y582D01*
X697Y582D02*
X699Y582D01*
X846Y582D02*
X848Y582D01*
X980Y582D02*
X984Y582D01*
X82Y581D02*
X86Y581D01*
X231Y581D02*
X236Y581D01*
X640Y581D02*
X645Y581D01*
X673Y581D02*
X682Y581D01*
X689Y581D02*
X693Y581D01*
X697Y581D02*
X699Y581D01*
X846Y581D02*
X848Y581D01*
X981Y581D02*
X985Y581D01*
X82Y580D02*
X86Y580D01*
X121Y580D02*
X138Y580D01*
X153Y580D02*
X175Y580D01*
X231Y580D02*
X236Y580D01*
X640Y580D02*
X645Y580D01*
X672Y580D02*
X682Y580D01*
X689Y580D02*
X693Y580D01*
X697Y580D02*
X699Y580D01*
X846Y580D02*
X851Y580D01*
X881Y580D02*
X883Y580D01*
X982Y580D02*
X985Y580D01*
X83Y579D02*
X87Y579D01*
X119Y579D02*
X140Y579D01*
X152Y579D02*
X176Y579D01*
X231Y579D02*
X236Y579D01*
X640Y579D02*
X645Y579D01*
X670Y579D02*
X682Y579D01*
X689Y579D02*
X693Y579D01*
X697Y579D02*
X699Y579D01*
X846Y579D02*
X853Y579D01*
X880Y579D02*
X884Y579D01*
X982Y579D02*
X986Y579D01*
X84Y578D02*
X87Y578D01*
X119Y578D02*
X141Y578D01*
X152Y578D02*
X177Y578D01*
X231Y578D02*
X236Y578D01*
X640Y578D02*
X645Y578D01*
X668Y578D02*
X676Y578D01*
X679Y578D02*
X682Y578D01*
X689Y578D02*
X693Y578D01*
X697Y578D02*
X699Y578D01*
X846Y578D02*
X854Y578D01*
X879Y578D02*
X884Y578D01*
X983Y578D02*
X987Y578D01*
X84Y577D02*
X88Y577D01*
X119Y577D02*
X142Y577D01*
X152Y577D02*
X177Y577D01*
X231Y577D02*
X236Y577D01*
X640Y577D02*
X645Y577D01*
X667Y577D02*
X674Y577D01*
X679Y577D02*
X682Y577D01*
X689Y577D02*
X693Y577D01*
X697Y577D02*
X699Y577D01*
X846Y577D02*
X855Y577D01*
X878Y577D02*
X884Y577D01*
X984Y577D02*
X987Y577D01*
X85Y576D02*
X88Y576D01*
X119Y576D02*
X143Y576D01*
X152Y576D02*
X177Y576D01*
X231Y576D02*
X236Y576D01*
X640Y576D02*
X645Y576D01*
X665Y576D02*
X672Y576D01*
X679Y576D02*
X682Y576D01*
X689Y576D02*
X692Y576D01*
X697Y576D02*
X699Y576D01*
X846Y576D02*
X856Y576D01*
X877Y576D02*
X884Y576D01*
X984Y576D02*
X987Y576D01*
X85Y575D02*
X89Y575D01*
X119Y575D02*
X144Y575D01*
X153Y575D02*
X177Y575D01*
X231Y575D02*
X236Y575D01*
X640Y575D02*
X645Y575D01*
X663Y575D02*
X671Y575D01*
X679Y575D02*
X683Y575D01*
X688Y575D02*
X692Y575D01*
X697Y575D02*
X699Y575D01*
X846Y575D02*
X858Y575D01*
X876Y575D02*
X884Y575D01*
X985Y575D02*
X988Y575D01*
X86Y574D02*
X89Y574D01*
X119Y574D02*
X124Y574D01*
X138Y574D02*
X145Y574D01*
X172Y574D02*
X177Y574D01*
X231Y574D02*
X236Y574D01*
X640Y574D02*
X645Y574D01*
X662Y574D02*
X669Y574D01*
X679Y574D02*
X692Y574D01*
X697Y574D02*
X699Y574D01*
X846Y574D02*
X848Y574D01*
X851Y574D02*
X858Y574D01*
X875Y574D02*
X884Y574D01*
X985Y574D02*
X988Y574D01*
X86Y573D02*
X89Y573D01*
X119Y573D02*
X124Y573D01*
X139Y573D02*
X145Y573D01*
X171Y573D02*
X177Y573D01*
X231Y573D02*
X236Y573D01*
X640Y573D02*
X645Y573D01*
X661Y573D02*
X667Y573D01*
X680Y573D02*
X691Y573D01*
X697Y573D02*
X699Y573D01*
X846Y573D02*
X848Y573D01*
X852Y573D02*
X858Y573D01*
X874Y573D02*
X884Y573D01*
X986Y573D02*
X989Y573D01*
X87Y572D02*
X90Y572D01*
X119Y572D02*
X124Y572D01*
X140Y572D02*
X145Y572D01*
X170Y572D02*
X177Y572D01*
X231Y572D02*
X236Y572D01*
X640Y572D02*
X645Y572D01*
X661Y572D02*
X665Y572D01*
X681Y572D02*
X690Y572D01*
X697Y572D02*
X699Y572D01*
X846Y572D02*
X848Y572D01*
X853Y572D02*
X858Y572D01*
X873Y572D02*
X884Y572D01*
X986Y572D02*
X989Y572D01*
X87Y571D02*
X90Y571D01*
X119Y571D02*
X124Y571D01*
X141Y571D02*
X145Y571D01*
X169Y571D02*
X176Y571D01*
X231Y571D02*
X236Y571D01*
X640Y571D02*
X645Y571D01*
X662Y571D02*
X664Y571D01*
X683Y571D02*
X689Y571D01*
X697Y571D02*
X699Y571D01*
X846Y571D02*
X848Y571D01*
X854Y571D02*
X858Y571D01*
X872Y571D02*
X884Y571D01*
X986Y571D02*
X989Y571D01*
X87Y570D02*
X90Y570D01*
X119Y570D02*
X124Y570D01*
X141Y570D02*
X145Y570D01*
X168Y570D02*
X175Y570D01*
X231Y570D02*
X236Y570D01*
X640Y570D02*
X645Y570D01*
X697Y570D02*
X699Y570D01*
X846Y570D02*
X848Y570D01*
X854Y570D02*
X858Y570D01*
X871Y570D02*
X878Y570D01*
X880Y570D02*
X884Y570D01*
X987Y570D02*
X990Y570D01*
X88Y569D02*
X91Y569D01*
X119Y569D02*
X124Y569D01*
X141Y569D02*
X145Y569D01*
X167Y569D02*
X174Y569D01*
X231Y569D02*
X236Y569D01*
X640Y569D02*
X645Y569D01*
X697Y569D02*
X699Y569D01*
X846Y569D02*
X848Y569D01*
X854Y569D02*
X858Y569D01*
X870Y569D02*
X877Y569D01*
X880Y569D02*
X884Y569D01*
X987Y569D02*
X990Y569D01*
X88Y568D02*
X91Y568D01*
X119Y568D02*
X124Y568D01*
X141Y568D02*
X145Y568D01*
X166Y568D02*
X173Y568D01*
X231Y568D02*
X236Y568D01*
X640Y568D02*
X645Y568D01*
X697Y568D02*
X699Y568D01*
X846Y568D02*
X848Y568D01*
X854Y568D02*
X858Y568D01*
X869Y568D02*
X876Y568D01*
X880Y568D02*
X884Y568D01*
X987Y568D02*
X990Y568D01*
X88Y567D02*
X91Y567D01*
X119Y567D02*
X124Y567D01*
X141Y567D02*
X145Y567D01*
X165Y567D02*
X172Y567D01*
X231Y567D02*
X236Y567D01*
X640Y567D02*
X645Y567D01*
X697Y567D02*
X699Y567D01*
X846Y567D02*
X848Y567D01*
X854Y567D02*
X858Y567D01*
X868Y567D02*
X875Y567D01*
X880Y567D02*
X884Y567D01*
X988Y567D02*
X990Y567D01*
X89Y566D02*
X91Y566D01*
X119Y566D02*
X124Y566D01*
X141Y566D02*
X145Y566D01*
X164Y566D02*
X171Y566D01*
X231Y566D02*
X236Y566D01*
X640Y566D02*
X645Y566D01*
X697Y566D02*
X699Y566D01*
X846Y566D02*
X848Y566D01*
X854Y566D02*
X858Y566D01*
X867Y566D02*
X874Y566D01*
X880Y566D02*
X884Y566D01*
X988Y566D02*
X990Y566D01*
X89Y565D02*
X91Y565D01*
X119Y565D02*
X124Y565D01*
X141Y565D02*
X145Y565D01*
X163Y565D02*
X170Y565D01*
X231Y565D02*
X236Y565D01*
X640Y565D02*
X645Y565D01*
X697Y565D02*
X699Y565D01*
X846Y565D02*
X848Y565D01*
X854Y565D02*
X858Y565D01*
X866Y565D02*
X874Y565D01*
X879Y565D02*
X885Y565D01*
X988Y565D02*
X991Y565D01*
X89Y564D02*
X92Y564D01*
X119Y564D02*
X124Y564D01*
X141Y564D02*
X145Y564D01*
X162Y564D02*
X169Y564D01*
X231Y564D02*
X236Y564D01*
X640Y564D02*
X645Y564D01*
X697Y564D02*
X699Y564D01*
X846Y564D02*
X848Y564D01*
X854Y564D02*
X858Y564D01*
X865Y564D02*
X889Y564D01*
X988Y564D02*
X991Y564D01*
X89Y563D02*
X92Y563D01*
X119Y563D02*
X124Y563D01*
X141Y563D02*
X145Y563D01*
X161Y563D02*
X168Y563D01*
X231Y563D02*
X236Y563D01*
X640Y563D02*
X645Y563D01*
X697Y563D02*
X699Y563D01*
X846Y563D02*
X848Y563D01*
X854Y563D02*
X858Y563D01*
X864Y563D02*
X889Y563D01*
X988Y563D02*
X991Y563D01*
X89Y562D02*
X92Y562D01*
X119Y562D02*
X124Y562D01*
X141Y562D02*
X145Y562D01*
X160Y562D02*
X167Y562D01*
X231Y562D02*
X236Y562D01*
X640Y562D02*
X645Y562D01*
X697Y562D02*
X699Y562D01*
X846Y562D02*
X848Y562D01*
X854Y562D02*
X858Y562D01*
X864Y562D02*
X890Y562D01*
X989Y562D02*
X991Y562D01*
X90Y561D02*
X92Y561D01*
X119Y561D02*
X124Y561D01*
X141Y561D02*
X145Y561D01*
X159Y561D02*
X166Y561D01*
X231Y561D02*
X236Y561D01*
X640Y561D02*
X645Y561D01*
X661Y561D02*
X675Y561D01*
X691Y561D02*
X691Y561D01*
X697Y561D02*
X699Y561D01*
X846Y561D02*
X848Y561D01*
X854Y561D02*
X858Y561D01*
X865Y561D02*
X889Y561D01*
X989Y561D02*
X991Y561D01*
X90Y560D02*
X92Y560D01*
X119Y560D02*
X124Y560D01*
X141Y560D02*
X145Y560D01*
X158Y560D02*
X165Y560D01*
X231Y560D02*
X236Y560D01*
X640Y560D02*
X645Y560D01*
X661Y560D02*
X677Y560D01*
X690Y560D02*
X692Y560D01*
X697Y560D02*
X699Y560D01*
X846Y560D02*
X848Y560D01*
X854Y560D02*
X858Y560D01*
X865Y560D02*
X889Y560D01*
X989Y560D02*
X991Y560D01*
X90Y559D02*
X92Y559D01*
X119Y559D02*
X124Y559D01*
X141Y559D02*
X145Y559D01*
X157Y559D02*
X164Y559D01*
X231Y559D02*
X236Y559D01*
X640Y559D02*
X645Y559D01*
X661Y559D02*
X678Y559D01*
X689Y559D02*
X693Y559D01*
X697Y559D02*
X699Y559D01*
X846Y559D02*
X848Y559D01*
X854Y559D02*
X858Y559D01*
X880Y559D02*
X884Y559D01*
X989Y559D02*
X991Y559D01*
X90Y558D02*
X92Y558D01*
X119Y558D02*
X124Y558D01*
X141Y558D02*
X145Y558D01*
X156Y558D02*
X163Y558D01*
X231Y558D02*
X236Y558D01*
X640Y558D02*
X645Y558D01*
X661Y558D02*
X678Y558D01*
X689Y558D02*
X693Y558D01*
X697Y558D02*
X699Y558D01*
X846Y558D02*
X848Y558D01*
X854Y558D02*
X858Y558D01*
X880Y558D02*
X884Y558D01*
X989Y558D02*
X991Y558D01*
X90Y557D02*
X92Y557D01*
X119Y557D02*
X124Y557D01*
X141Y557D02*
X145Y557D01*
X155Y557D02*
X162Y557D01*
X231Y557D02*
X236Y557D01*
X640Y557D02*
X645Y557D01*
X661Y557D02*
X678Y557D01*
X689Y557D02*
X693Y557D01*
X697Y557D02*
X699Y557D01*
X846Y557D02*
X848Y557D01*
X854Y557D02*
X858Y557D01*
X880Y557D02*
X884Y557D01*
X989Y557D02*
X991Y557D01*
X90Y556D02*
X91Y556D01*
X119Y556D02*
X124Y556D01*
X141Y556D02*
X143Y556D01*
X159Y556D02*
X161Y556D01*
X231Y556D02*
X236Y556D01*
X640Y556D02*
X645Y556D01*
X661Y556D02*
X664Y556D01*
X675Y556D02*
X678Y556D01*
X689Y556D02*
X693Y556D01*
X697Y556D02*
X699Y556D01*
X846Y556D02*
X848Y556D01*
X854Y556D02*
X858Y556D01*
X880Y556D02*
X884Y556D01*
X989Y556D02*
X991Y556D01*
X90Y555D02*
X91Y555D01*
X119Y555D02*
X124Y555D01*
X231Y555D02*
X236Y555D01*
X640Y555D02*
X645Y555D01*
X661Y555D02*
X664Y555D01*
X675Y555D02*
X678Y555D01*
X689Y555D02*
X693Y555D01*
X697Y555D02*
X699Y555D01*
X846Y555D02*
X848Y555D01*
X854Y555D02*
X858Y555D01*
X880Y555D02*
X884Y555D01*
X989Y555D02*
X990Y555D01*
X89Y554D02*
X91Y554D01*
X119Y554D02*
X124Y554D01*
X231Y554D02*
X236Y554D01*
X640Y554D02*
X645Y554D01*
X661Y554D02*
X664Y554D01*
X675Y554D02*
X678Y554D01*
X689Y554D02*
X693Y554D01*
X697Y554D02*
X699Y554D01*
X846Y554D02*
X848Y554D01*
X854Y554D02*
X858Y554D01*
X880Y554D02*
X884Y554D01*
X989Y554D02*
X990Y554D01*
X89Y553D02*
X91Y553D01*
X119Y553D02*
X124Y553D01*
X231Y553D02*
X236Y553D01*
X640Y553D02*
X645Y553D01*
X661Y553D02*
X664Y553D01*
X675Y553D02*
X678Y553D01*
X689Y553D02*
X693Y553D01*
X697Y553D02*
X699Y553D01*
X846Y553D02*
X848Y553D01*
X853Y553D02*
X858Y553D01*
X880Y553D02*
X884Y553D01*
X989Y553D02*
X990Y553D01*
X89Y552D02*
X91Y552D01*
X119Y552D02*
X124Y552D01*
X231Y552D02*
X235Y552D01*
X640Y552D02*
X645Y552D01*
X661Y552D02*
X664Y552D01*
X675Y552D02*
X678Y552D01*
X689Y552D02*
X693Y552D01*
X697Y552D02*
X699Y552D01*
X846Y552D02*
X848Y552D01*
X852Y552D02*
X858Y552D01*
X880Y552D02*
X884Y552D01*
X988Y552D02*
X990Y552D01*
X89Y551D02*
X90Y551D01*
X119Y551D02*
X124Y551D01*
X231Y551D02*
X234Y551D01*
X640Y551D02*
X645Y551D01*
X661Y551D02*
X664Y551D01*
X675Y551D02*
X678Y551D01*
X689Y551D02*
X693Y551D01*
X697Y551D02*
X699Y551D01*
X846Y551D02*
X848Y551D01*
X851Y551D02*
X858Y551D01*
X880Y551D02*
X884Y551D01*
X988Y551D02*
X990Y551D01*
X89Y550D02*
X90Y550D01*
X119Y550D02*
X124Y550D01*
X231Y550D02*
X232Y550D01*
X640Y550D02*
X645Y550D01*
X661Y550D02*
X664Y550D01*
X675Y550D02*
X678Y550D01*
X689Y550D02*
X693Y550D01*
X697Y550D02*
X699Y550D01*
X846Y550D02*
X848Y550D01*
X850Y550D02*
X857Y550D01*
X880Y550D02*
X884Y550D01*
X988Y550D02*
X989Y550D01*
X88Y549D02*
X90Y549D01*
X119Y549D02*
X132Y549D01*
X231Y549D02*
X232Y549D01*
X640Y549D02*
X645Y549D01*
X661Y549D02*
X664Y549D01*
X675Y549D02*
X678Y549D01*
X689Y549D02*
X693Y549D01*
X697Y549D02*
X699Y549D01*
X846Y549D02*
X856Y549D01*
X880Y549D02*
X884Y549D01*
X988Y549D02*
X989Y549D01*
X88Y548D02*
X89Y548D01*
X119Y548D02*
X131Y548D01*
X231Y548D02*
X231Y548D01*
X640Y548D02*
X645Y548D01*
X661Y548D02*
X664Y548D01*
X675Y548D02*
X678Y548D01*
X689Y548D02*
X693Y548D01*
X697Y548D02*
X699Y548D01*
X846Y548D02*
X855Y548D01*
X880Y548D02*
X884Y548D01*
X987Y548D02*
X989Y548D01*
X88Y547D02*
X89Y547D01*
X119Y547D02*
X130Y547D01*
X640Y547D02*
X645Y547D01*
X661Y547D02*
X664Y547D01*
X675Y547D02*
X678Y547D01*
X689Y547D02*
X693Y547D01*
X697Y547D02*
X699Y547D01*
X846Y547D02*
X854Y547D01*
X880Y547D02*
X884Y547D01*
X987Y547D02*
X988Y547D01*
X88Y546D02*
X89Y546D01*
X119Y546D02*
X130Y546D01*
X640Y546D02*
X645Y546D01*
X661Y546D02*
X664Y546D01*
X675Y546D02*
X678Y546D01*
X689Y546D02*
X693Y546D01*
X697Y546D02*
X699Y546D01*
X846Y546D02*
X853Y546D01*
X880Y546D02*
X884Y546D01*
X987Y546D02*
X988Y546D01*
X87Y545D02*
X88Y545D01*
X120Y545D02*
X129Y545D01*
X640Y545D02*
X645Y545D01*
X661Y545D02*
X664Y545D01*
X675Y545D02*
X678Y545D01*
X689Y545D02*
X693Y545D01*
X697Y545D02*
X699Y545D01*
X846Y545D02*
X852Y545D01*
X881Y545D02*
X883Y545D01*
X986Y545D02*
X988Y545D01*
X87Y544D02*
X88Y544D01*
X121Y544D02*
X122Y544D01*
X640Y544D02*
X645Y544D01*
X661Y544D02*
X664Y544D01*
X675Y544D02*
X692Y544D01*
X697Y544D02*
X699Y544D01*
X846Y544D02*
X848Y544D01*
X850Y544D02*
X851Y544D01*
X986Y544D02*
X987Y544D01*
X86Y543D02*
X87Y543D01*
X640Y543D02*
X645Y543D01*
X661Y543D02*
X664Y543D01*
X676Y543D02*
X692Y543D01*
X697Y543D02*
X699Y543D01*
X846Y543D02*
X848Y543D01*
X986Y543D02*
X987Y543D01*
X86Y542D02*
X87Y542D01*
X640Y542D02*
X645Y542D01*
X661Y542D02*
X664Y542D01*
X676Y542D02*
X692Y542D01*
X697Y542D02*
X699Y542D01*
X846Y542D02*
X848Y542D01*
X985Y542D02*
X986Y542D01*
X86Y541D02*
X86Y541D01*
X640Y541D02*
X645Y541D01*
X662Y541D02*
X664Y541D01*
X677Y541D02*
X690Y541D01*
X697Y541D02*
X699Y541D01*
X846Y541D02*
X848Y541D01*
X985Y541D02*
X986Y541D01*
X85Y540D02*
X86Y540D01*
X640Y540D02*
X645Y540D01*
X697Y540D02*
X699Y540D01*
X846Y540D02*
X848Y540D01*
X984Y540D02*
X985Y540D01*
X85Y539D02*
X85Y539D01*
X640Y539D02*
X645Y539D01*
X697Y539D02*
X699Y539D01*
X846Y539D02*
X848Y539D01*
X984Y539D02*
X984Y539D01*
X84Y538D02*
X84Y538D01*
X640Y538D02*
X645Y538D01*
X697Y538D02*
X699Y538D01*
X846Y538D02*
X848Y538D01*
X983Y538D02*
X984Y538D01*
X83Y537D02*
X84Y537D01*
X640Y537D02*
X645Y537D01*
X697Y537D02*
X699Y537D01*
X846Y537D02*
X848Y537D01*
X983Y537D02*
X983Y537D01*
X83Y536D02*
X83Y536D01*
X640Y536D02*
X645Y536D01*
X697Y536D02*
X699Y536D01*
X765Y536D02*
X780Y536D01*
X845Y536D02*
X848Y536D01*
X982Y536D02*
X982Y536D01*
X82Y535D02*
X82Y535D01*
X640Y535D02*
X645Y535D01*
X697Y535D02*
X848Y535D01*
X981Y535D02*
X981Y535D01*
X81Y534D02*
X81Y534D01*
X640Y534D02*
X645Y534D01*
X697Y534D02*
X848Y534D01*
X981Y534D02*
X981Y534D01*
X640Y533D02*
X645Y533D01*
X697Y533D02*
X847Y533D01*
X980Y533D02*
X980Y533D01*
X640Y532D02*
X645Y532D01*
X979Y532D02*
X979Y532D01*
X640Y531D02*
X645Y531D01*
X640Y530D02*
X645Y530D01*
X640Y529D02*
X645Y529D01*
X640Y528D02*
X645Y528D01*
X640Y527D02*
X645Y527D01*
X640Y526D02*
X645Y526D01*
X640Y525D02*
X645Y525D01*
X640Y524D02*
X645Y524D01*
X640Y523D02*
X645Y523D01*
X640Y522D02*
X645Y522D01*
X640Y521D02*
X645Y521D01*
X640Y520D02*
X645Y520D01*
X640Y519D02*
X645Y519D01*
X231Y518D02*
X231Y518D01*
X640Y518D02*
X645Y518D01*
X231Y517D02*
X231Y517D01*
X640Y517D02*
X645Y517D01*
X231Y516D02*
X232Y516D01*
X640Y516D02*
X645Y516D01*
X231Y515D02*
X233Y515D01*
X640Y515D02*
X645Y515D01*
X231Y514D02*
X234Y514D01*
X640Y514D02*
X645Y514D01*
X231Y513D02*
X236Y513D01*
X640Y513D02*
X645Y513D01*
X231Y512D02*
X236Y512D01*
X640Y512D02*
X645Y512D01*
X231Y511D02*
X236Y511D01*
X640Y511D02*
X645Y511D01*
X231Y510D02*
X236Y510D01*
X640Y510D02*
X645Y510D01*
X231Y509D02*
X236Y509D01*
X640Y509D02*
X645Y509D01*
X231Y508D02*
X236Y508D01*
X640Y508D02*
X645Y508D01*
X231Y507D02*
X236Y507D01*
X640Y507D02*
X645Y507D01*
X231Y506D02*
X236Y506D01*
X640Y506D02*
X645Y506D01*
X231Y505D02*
X236Y505D01*
X640Y505D02*
X645Y505D01*
X231Y504D02*
X236Y504D01*
X640Y504D02*
X645Y504D01*
X231Y503D02*
X236Y503D01*
X640Y503D02*
X645Y503D01*
X231Y502D02*
X236Y502D01*
X640Y502D02*
X645Y502D01*
X231Y501D02*
X236Y501D01*
X640Y501D02*
X645Y501D01*
X231Y500D02*
X236Y500D01*
X640Y500D02*
X645Y500D01*
X49Y499D02*
X58Y499D01*
X231Y499D02*
X236Y499D01*
X640Y499D02*
X645Y499D01*
X948Y499D02*
X957Y499D01*
X44Y498D02*
X62Y498D01*
X231Y498D02*
X236Y498D01*
X640Y498D02*
X645Y498D01*
X944Y498D02*
X962Y498D01*
X41Y497D02*
X66Y497D01*
X231Y497D02*
X236Y497D01*
X640Y497D02*
X645Y497D01*
X940Y497D02*
X965Y497D01*
X39Y496D02*
X46Y496D01*
X55Y496D02*
X68Y496D01*
X231Y496D02*
X236Y496D01*
X640Y496D02*
X645Y496D01*
X938Y496D02*
X945Y496D01*
X955Y496D02*
X967Y496D01*
X36Y495D02*
X41Y495D01*
X60Y495D02*
X70Y495D01*
X231Y495D02*
X236Y495D01*
X640Y495D02*
X645Y495D01*
X936Y495D02*
X941Y495D01*
X959Y495D02*
X970Y495D01*
X35Y494D02*
X38Y494D01*
X64Y494D02*
X72Y494D01*
X231Y494D02*
X236Y494D01*
X640Y494D02*
X645Y494D01*
X934Y494D02*
X937Y494D01*
X963Y494D02*
X971Y494D01*
X33Y493D02*
X35Y493D01*
X66Y493D02*
X74Y493D01*
X231Y493D02*
X236Y493D01*
X640Y493D02*
X645Y493D01*
X932Y493D02*
X935Y493D01*
X965Y493D02*
X973Y493D01*
X31Y492D02*
X33Y492D01*
X68Y492D02*
X75Y492D01*
X231Y492D02*
X236Y492D01*
X640Y492D02*
X645Y492D01*
X931Y492D02*
X932Y492D01*
X968Y492D02*
X975Y492D01*
X30Y491D02*
X31Y491D01*
X70Y491D02*
X77Y491D01*
X231Y491D02*
X236Y491D01*
X640Y491D02*
X645Y491D01*
X929Y491D02*
X931Y491D01*
X969Y491D02*
X976Y491D01*
X29Y490D02*
X30Y490D01*
X72Y490D02*
X78Y490D01*
X231Y490D02*
X236Y490D01*
X640Y490D02*
X645Y490D01*
X928Y490D02*
X929Y490D01*
X971Y490D02*
X977Y490D01*
X28Y489D02*
X28Y489D01*
X74Y489D02*
X79Y489D01*
X231Y489D02*
X236Y489D01*
X640Y489D02*
X645Y489D01*
X927Y489D02*
X927Y489D01*
X973Y489D02*
X978Y489D01*
X26Y488D02*
X27Y488D01*
X75Y488D02*
X80Y488D01*
X231Y488D02*
X236Y488D01*
X640Y488D02*
X645Y488D01*
X926Y488D02*
X926Y488D01*
X974Y488D02*
X980Y488D01*
X76Y487D02*
X81Y487D01*
X231Y487D02*
X236Y487D01*
X640Y487D02*
X645Y487D01*
X925Y487D02*
X925Y487D01*
X975Y487D02*
X980Y487D01*
X77Y486D02*
X82Y486D01*
X231Y486D02*
X236Y486D01*
X640Y486D02*
X645Y486D01*
X977Y486D02*
X981Y486D01*
X78Y485D02*
X83Y485D01*
X231Y485D02*
X236Y485D01*
X640Y485D02*
X645Y485D01*
X978Y485D02*
X982Y485D01*
X79Y484D02*
X84Y484D01*
X231Y484D02*
X236Y484D01*
X640Y484D02*
X645Y484D01*
X979Y484D02*
X983Y484D01*
X80Y483D02*
X84Y483D01*
X231Y483D02*
X236Y483D01*
X640Y483D02*
X645Y483D01*
X979Y483D02*
X984Y483D01*
X81Y482D02*
X85Y482D01*
X231Y482D02*
X236Y482D01*
X640Y482D02*
X645Y482D01*
X697Y482D02*
X848Y482D01*
X980Y482D02*
X984Y482D01*
X82Y481D02*
X86Y481D01*
X231Y481D02*
X236Y481D01*
X640Y481D02*
X645Y481D01*
X697Y481D02*
X848Y481D01*
X981Y481D02*
X985Y481D01*
X83Y480D02*
X86Y480D01*
X231Y480D02*
X236Y480D01*
X640Y480D02*
X645Y480D01*
X697Y480D02*
X848Y480D01*
X855Y480D02*
X856Y480D01*
X866Y480D02*
X883Y480D01*
X982Y480D02*
X986Y480D01*
X83Y479D02*
X87Y479D01*
X231Y479D02*
X236Y479D01*
X640Y479D02*
X645Y479D01*
X697Y479D02*
X699Y479D01*
X765Y479D02*
X780Y479D01*
X846Y479D02*
X848Y479D01*
X854Y479D02*
X858Y479D01*
X865Y479D02*
X884Y479D01*
X982Y479D02*
X986Y479D01*
X84Y478D02*
X87Y478D01*
X231Y478D02*
X236Y478D01*
X640Y478D02*
X645Y478D01*
X697Y478D02*
X699Y478D01*
X846Y478D02*
X848Y478D01*
X854Y478D02*
X858Y478D01*
X864Y478D02*
X885Y478D01*
X983Y478D02*
X987Y478D01*
X84Y477D02*
X88Y477D01*
X231Y477D02*
X236Y477D01*
X640Y477D02*
X645Y477D01*
X697Y477D02*
X699Y477D01*
X846Y477D02*
X848Y477D01*
X854Y477D02*
X858Y477D01*
X864Y477D02*
X886Y477D01*
X984Y477D02*
X987Y477D01*
X85Y476D02*
X88Y476D01*
X231Y476D02*
X236Y476D01*
X640Y476D02*
X645Y476D01*
X697Y476D02*
X699Y476D01*
X846Y476D02*
X848Y476D01*
X854Y476D02*
X858Y476D01*
X864Y476D02*
X888Y476D01*
X984Y476D02*
X988Y476D01*
X85Y475D02*
X89Y475D01*
X231Y475D02*
X236Y475D01*
X640Y475D02*
X645Y475D01*
X697Y475D02*
X699Y475D01*
X846Y475D02*
X848Y475D01*
X854Y475D02*
X858Y475D01*
X864Y475D02*
X889Y475D01*
X985Y475D02*
X988Y475D01*
X86Y474D02*
X89Y474D01*
X231Y474D02*
X236Y474D01*
X640Y474D02*
X645Y474D01*
X697Y474D02*
X699Y474D01*
X846Y474D02*
X848Y474D01*
X854Y474D02*
X858Y474D01*
X864Y474D02*
X869Y474D01*
X882Y474D02*
X890Y474D01*
X985Y474D02*
X988Y474D01*
X86Y473D02*
X89Y473D01*
X231Y473D02*
X236Y473D01*
X640Y473D02*
X645Y473D01*
X697Y473D02*
X699Y473D01*
X846Y473D02*
X848Y473D01*
X854Y473D02*
X858Y473D01*
X864Y473D02*
X869Y473D01*
X884Y473D02*
X890Y473D01*
X986Y473D02*
X989Y473D01*
X87Y472D02*
X90Y472D01*
X231Y472D02*
X236Y472D01*
X640Y472D02*
X645Y472D01*
X697Y472D02*
X699Y472D01*
X846Y472D02*
X848Y472D01*
X854Y472D02*
X858Y472D01*
X864Y472D02*
X869Y472D01*
X885Y472D02*
X890Y472D01*
X986Y472D02*
X989Y472D01*
X87Y471D02*
X90Y471D01*
X231Y471D02*
X236Y471D01*
X640Y471D02*
X645Y471D01*
X697Y471D02*
X699Y471D01*
X846Y471D02*
X848Y471D01*
X854Y471D02*
X858Y471D01*
X864Y471D02*
X869Y471D01*
X885Y471D02*
X890Y471D01*
X986Y471D02*
X989Y471D01*
X87Y470D02*
X90Y470D01*
X231Y470D02*
X236Y470D01*
X640Y470D02*
X645Y470D01*
X697Y470D02*
X699Y470D01*
X846Y470D02*
X848Y470D01*
X854Y470D02*
X858Y470D01*
X864Y470D02*
X869Y470D01*
X885Y470D02*
X890Y470D01*
X987Y470D02*
X990Y470D01*
X88Y469D02*
X91Y469D01*
X231Y469D02*
X236Y469D01*
X640Y469D02*
X645Y469D01*
X697Y469D02*
X699Y469D01*
X846Y469D02*
X848Y469D01*
X854Y469D02*
X858Y469D01*
X864Y469D02*
X869Y469D01*
X885Y469D02*
X890Y469D01*
X987Y469D02*
X990Y469D01*
X88Y468D02*
X91Y468D01*
X231Y468D02*
X236Y468D01*
X640Y468D02*
X645Y468D01*
X697Y468D02*
X699Y468D01*
X846Y468D02*
X848Y468D01*
X854Y468D02*
X858Y468D01*
X864Y468D02*
X869Y468D01*
X885Y468D02*
X890Y468D01*
X987Y468D02*
X990Y468D01*
X88Y467D02*
X91Y467D01*
X231Y467D02*
X236Y467D01*
X640Y467D02*
X645Y467D01*
X697Y467D02*
X699Y467D01*
X846Y467D02*
X848Y467D01*
X854Y467D02*
X858Y467D01*
X864Y467D02*
X869Y467D01*
X885Y467D02*
X890Y467D01*
X988Y467D02*
X990Y467D01*
X89Y466D02*
X91Y466D01*
X231Y466D02*
X236Y466D01*
X640Y466D02*
X645Y466D01*
X697Y466D02*
X699Y466D01*
X846Y466D02*
X848Y466D01*
X854Y466D02*
X858Y466D01*
X864Y466D02*
X869Y466D01*
X885Y466D02*
X890Y466D01*
X988Y466D02*
X990Y466D01*
X89Y465D02*
X91Y465D01*
X231Y465D02*
X236Y465D01*
X640Y465D02*
X645Y465D01*
X697Y465D02*
X699Y465D01*
X846Y465D02*
X848Y465D01*
X854Y465D02*
X858Y465D01*
X864Y465D02*
X869Y465D01*
X885Y465D02*
X890Y465D01*
X988Y465D02*
X991Y465D01*
X89Y464D02*
X92Y464D01*
X231Y464D02*
X236Y464D01*
X640Y464D02*
X645Y464D01*
X677Y464D02*
X680Y464D01*
X697Y464D02*
X699Y464D01*
X846Y464D02*
X848Y464D01*
X854Y464D02*
X858Y464D01*
X864Y464D02*
X869Y464D01*
X885Y464D02*
X890Y464D01*
X988Y464D02*
X991Y464D01*
X89Y463D02*
X92Y463D01*
X231Y463D02*
X236Y463D01*
X640Y463D02*
X645Y463D01*
X674Y463D02*
X683Y463D01*
X697Y463D02*
X699Y463D01*
X846Y463D02*
X848Y463D01*
X854Y463D02*
X858Y463D01*
X864Y463D02*
X869Y463D01*
X885Y463D02*
X890Y463D01*
X988Y463D02*
X991Y463D01*
X89Y462D02*
X92Y462D01*
X231Y462D02*
X236Y462D01*
X640Y462D02*
X645Y462D01*
X672Y462D02*
X685Y462D01*
X697Y462D02*
X699Y462D01*
X846Y462D02*
X848Y462D01*
X854Y462D02*
X858Y462D01*
X864Y462D02*
X869Y462D01*
X885Y462D02*
X890Y462D01*
X989Y462D02*
X991Y462D01*
X90Y461D02*
X92Y461D01*
X231Y461D02*
X236Y461D01*
X640Y461D02*
X645Y461D01*
X670Y461D02*
X687Y461D01*
X697Y461D02*
X699Y461D01*
X846Y461D02*
X849Y461D01*
X854Y461D02*
X858Y461D01*
X864Y461D02*
X869Y461D01*
X885Y461D02*
X890Y461D01*
X989Y461D02*
X991Y461D01*
X90Y460D02*
X92Y460D01*
X231Y460D02*
X236Y460D01*
X640Y460D02*
X645Y460D01*
X668Y460D02*
X677Y460D01*
X680Y460D02*
X689Y460D01*
X697Y460D02*
X699Y460D01*
X846Y460D02*
X850Y460D01*
X854Y460D02*
X858Y460D01*
X864Y460D02*
X869Y460D01*
X885Y460D02*
X890Y460D01*
X989Y460D02*
X991Y460D01*
X90Y459D02*
X92Y459D01*
X231Y459D02*
X236Y459D01*
X640Y459D02*
X645Y459D01*
X666Y459D02*
X674Y459D01*
X682Y459D02*
X691Y459D01*
X697Y459D02*
X699Y459D01*
X846Y459D02*
X850Y459D01*
X854Y459D02*
X858Y459D01*
X864Y459D02*
X869Y459D01*
X885Y459D02*
X890Y459D01*
X989Y459D02*
X991Y459D01*
X90Y458D02*
X92Y458D01*
X231Y458D02*
X236Y458D01*
X640Y458D02*
X645Y458D01*
X665Y458D02*
X672Y458D01*
X684Y458D02*
X692Y458D01*
X697Y458D02*
X699Y458D01*
X846Y458D02*
X851Y458D01*
X854Y458D02*
X858Y458D01*
X864Y458D02*
X869Y458D01*
X885Y458D02*
X890Y458D01*
X989Y458D02*
X991Y458D01*
X90Y457D02*
X92Y457D01*
X231Y457D02*
X236Y457D01*
X640Y457D02*
X645Y457D01*
X664Y457D02*
X670Y457D01*
X686Y457D02*
X693Y457D01*
X697Y457D02*
X699Y457D01*
X846Y457D02*
X852Y457D01*
X854Y457D02*
X858Y457D01*
X864Y457D02*
X869Y457D01*
X885Y457D02*
X890Y457D01*
X989Y457D02*
X991Y457D01*
X90Y456D02*
X91Y456D01*
X231Y456D02*
X236Y456D01*
X640Y456D02*
X645Y456D01*
X663Y456D02*
X668Y456D01*
X688Y456D02*
X694Y456D01*
X697Y456D02*
X699Y456D01*
X846Y456D02*
X858Y456D01*
X864Y456D02*
X869Y456D01*
X885Y456D02*
X890Y456D01*
X989Y456D02*
X991Y456D01*
X90Y455D02*
X91Y455D01*
X231Y455D02*
X236Y455D01*
X640Y455D02*
X645Y455D01*
X663Y455D02*
X667Y455D01*
X690Y455D02*
X694Y455D01*
X697Y455D02*
X699Y455D01*
X846Y455D02*
X858Y455D01*
X864Y455D02*
X869Y455D01*
X885Y455D02*
X890Y455D01*
X989Y455D02*
X990Y455D01*
X89Y454D02*
X91Y454D01*
X231Y454D02*
X236Y454D01*
X640Y454D02*
X645Y454D01*
X663Y454D02*
X666Y454D01*
X691Y454D02*
X694Y454D01*
X697Y454D02*
X699Y454D01*
X846Y454D02*
X858Y454D01*
X864Y454D02*
X869Y454D01*
X885Y454D02*
X890Y454D01*
X989Y454D02*
X990Y454D01*
X89Y453D02*
X91Y453D01*
X231Y453D02*
X236Y453D01*
X640Y453D02*
X645Y453D01*
X663Y453D02*
X666Y453D01*
X691Y453D02*
X694Y453D01*
X697Y453D02*
X699Y453D01*
X846Y453D02*
X858Y453D01*
X864Y453D02*
X869Y453D01*
X885Y453D02*
X890Y453D01*
X989Y453D02*
X990Y453D01*
X89Y452D02*
X91Y452D01*
X231Y452D02*
X236Y452D01*
X640Y452D02*
X645Y452D01*
X663Y452D02*
X666Y452D01*
X691Y452D02*
X694Y452D01*
X697Y452D02*
X699Y452D01*
X846Y452D02*
X858Y452D01*
X864Y452D02*
X869Y452D01*
X884Y452D02*
X890Y452D01*
X988Y452D02*
X990Y452D01*
X89Y451D02*
X90Y451D01*
X231Y451D02*
X236Y451D01*
X640Y451D02*
X645Y451D01*
X663Y451D02*
X666Y451D01*
X691Y451D02*
X694Y451D01*
X697Y451D02*
X699Y451D01*
X846Y451D02*
X848Y451D01*
X850Y451D02*
X858Y451D01*
X864Y451D02*
X869Y451D01*
X883Y451D02*
X890Y451D01*
X988Y451D02*
X990Y451D01*
X89Y450D02*
X90Y450D01*
X231Y450D02*
X236Y450D01*
X640Y450D02*
X645Y450D01*
X663Y450D02*
X666Y450D01*
X691Y450D02*
X694Y450D01*
X697Y450D02*
X699Y450D01*
X846Y450D02*
X848Y450D01*
X851Y450D02*
X858Y450D01*
X864Y450D02*
X869Y450D01*
X881Y450D02*
X889Y450D01*
X988Y450D02*
X989Y450D01*
X88Y449D02*
X90Y449D01*
X231Y449D02*
X236Y449D01*
X640Y449D02*
X645Y449D01*
X663Y449D02*
X666Y449D01*
X691Y449D02*
X694Y449D01*
X697Y449D02*
X699Y449D01*
X846Y449D02*
X848Y449D01*
X852Y449D02*
X858Y449D01*
X864Y449D02*
X887Y449D01*
X988Y449D02*
X989Y449D01*
X88Y448D02*
X89Y448D01*
X231Y448D02*
X236Y448D01*
X640Y448D02*
X645Y448D01*
X663Y448D02*
X666Y448D01*
X691Y448D02*
X694Y448D01*
X697Y448D02*
X699Y448D01*
X846Y448D02*
X848Y448D01*
X852Y448D02*
X858Y448D01*
X864Y448D02*
X886Y448D01*
X987Y448D02*
X989Y448D01*
X88Y447D02*
X89Y447D01*
X231Y447D02*
X236Y447D01*
X640Y447D02*
X645Y447D01*
X663Y447D02*
X666Y447D01*
X691Y447D02*
X694Y447D01*
X697Y447D02*
X699Y447D01*
X846Y447D02*
X848Y447D01*
X853Y447D02*
X858Y447D01*
X864Y447D02*
X885Y447D01*
X987Y447D02*
X988Y447D01*
X88Y446D02*
X89Y446D01*
X231Y446D02*
X236Y446D01*
X640Y446D02*
X645Y446D01*
X663Y446D02*
X666Y446D01*
X691Y446D02*
X694Y446D01*
X697Y446D02*
X699Y446D01*
X846Y446D02*
X848Y446D01*
X854Y446D02*
X858Y446D01*
X864Y446D02*
X885Y446D01*
X987Y446D02*
X988Y446D01*
X87Y445D02*
X88Y445D01*
X231Y445D02*
X236Y445D01*
X640Y445D02*
X645Y445D01*
X663Y445D02*
X666Y445D01*
X691Y445D02*
X694Y445D01*
X697Y445D02*
X699Y445D01*
X846Y445D02*
X848Y445D01*
X854Y445D02*
X858Y445D01*
X865Y445D02*
X884Y445D01*
X986Y445D02*
X988Y445D01*
X87Y444D02*
X88Y444D01*
X231Y444D02*
X236Y444D01*
X640Y444D02*
X645Y444D01*
X664Y444D02*
X665Y444D01*
X692Y444D02*
X693Y444D01*
X697Y444D02*
X699Y444D01*
X846Y444D02*
X848Y444D01*
X856Y444D02*
X856Y444D01*
X867Y444D02*
X867Y444D01*
X882Y444D02*
X882Y444D01*
X986Y444D02*
X987Y444D01*
X86Y443D02*
X87Y443D01*
X231Y443D02*
X236Y443D01*
X640Y443D02*
X645Y443D01*
X697Y443D02*
X699Y443D01*
X846Y443D02*
X848Y443D01*
X986Y443D02*
X987Y443D01*
X86Y442D02*
X87Y442D01*
X231Y442D02*
X236Y442D01*
X640Y442D02*
X645Y442D01*
X697Y442D02*
X699Y442D01*
X846Y442D02*
X848Y442D01*
X985Y442D02*
X986Y442D01*
X86Y441D02*
X86Y441D01*
X231Y441D02*
X236Y441D01*
X640Y441D02*
X645Y441D01*
X697Y441D02*
X699Y441D01*
X846Y441D02*
X848Y441D01*
X985Y441D02*
X986Y441D01*
X85Y440D02*
X86Y440D01*
X231Y440D02*
X236Y440D01*
X640Y440D02*
X645Y440D01*
X697Y440D02*
X699Y440D01*
X846Y440D02*
X848Y440D01*
X984Y440D02*
X985Y440D01*
X85Y439D02*
X85Y439D01*
X231Y439D02*
X260Y439D01*
X284Y439D02*
X285Y439D01*
X310Y439D02*
X311Y439D01*
X336Y439D02*
X336Y439D01*
X361Y439D02*
X362Y439D01*
X387Y439D02*
X388Y439D01*
X412Y439D02*
X413Y439D01*
X438Y439D02*
X439Y439D01*
X463Y439D02*
X464Y439D01*
X489Y439D02*
X490Y439D01*
X515Y439D02*
X515Y439D01*
X540Y439D02*
X541Y439D01*
X566Y439D02*
X567Y439D01*
X591Y439D02*
X592Y439D01*
X617Y439D02*
X645Y439D01*
X697Y439D02*
X699Y439D01*
X846Y439D02*
X848Y439D01*
X984Y439D02*
X984Y439D01*
X84Y438D02*
X84Y438D01*
X231Y438D02*
X260Y438D01*
X284Y438D02*
X285Y438D01*
X310Y438D02*
X311Y438D01*
X336Y438D02*
X336Y438D01*
X361Y438D02*
X362Y438D01*
X387Y438D02*
X388Y438D01*
X412Y438D02*
X413Y438D01*
X438Y438D02*
X439Y438D01*
X463Y438D02*
X464Y438D01*
X489Y438D02*
X490Y438D01*
X515Y438D02*
X515Y438D01*
X540Y438D02*
X541Y438D01*
X566Y438D02*
X567Y438D01*
X591Y438D02*
X592Y438D01*
X617Y438D02*
X645Y438D01*
X697Y438D02*
X699Y438D01*
X846Y438D02*
X848Y438D01*
X983Y438D02*
X984Y438D01*
X83Y437D02*
X84Y437D01*
X231Y437D02*
X260Y437D01*
X284Y437D02*
X285Y437D01*
X310Y437D02*
X311Y437D01*
X336Y437D02*
X336Y437D01*
X361Y437D02*
X362Y437D01*
X387Y437D02*
X388Y437D01*
X412Y437D02*
X413Y437D01*
X438Y437D02*
X439Y437D01*
X463Y437D02*
X464Y437D01*
X489Y437D02*
X490Y437D01*
X515Y437D02*
X515Y437D01*
X540Y437D02*
X541Y437D01*
X566Y437D02*
X567Y437D01*
X591Y437D02*
X592Y437D01*
X617Y437D02*
X645Y437D01*
X697Y437D02*
X699Y437D01*
X846Y437D02*
X848Y437D01*
X983Y437D02*
X983Y437D01*
X83Y436D02*
X83Y436D01*
X231Y436D02*
X260Y436D01*
X284Y436D02*
X285Y436D01*
X310Y436D02*
X311Y436D01*
X336Y436D02*
X336Y436D01*
X361Y436D02*
X362Y436D01*
X387Y436D02*
X388Y436D01*
X412Y436D02*
X413Y436D01*
X438Y436D02*
X439Y436D01*
X463Y436D02*
X464Y436D01*
X489Y436D02*
X490Y436D01*
X515Y436D02*
X515Y436D01*
X540Y436D02*
X541Y436D01*
X566Y436D02*
X567Y436D01*
X591Y436D02*
X592Y436D01*
X617Y436D02*
X645Y436D01*
X697Y436D02*
X699Y436D01*
X846Y436D02*
X848Y436D01*
X982Y436D02*
X982Y436D01*
X82Y435D02*
X82Y435D01*
X232Y435D02*
X260Y435D01*
X284Y435D02*
X285Y435D01*
X310Y435D02*
X311Y435D01*
X336Y435D02*
X336Y435D01*
X361Y435D02*
X362Y435D01*
X387Y435D02*
X388Y435D01*
X412Y435D02*
X413Y435D01*
X438Y435D02*
X439Y435D01*
X463Y435D02*
X464Y435D01*
X489Y435D02*
X490Y435D01*
X515Y435D02*
X515Y435D01*
X540Y435D02*
X541Y435D01*
X566Y435D02*
X567Y435D01*
X591Y435D02*
X592Y435D01*
X617Y435D02*
X645Y435D01*
X697Y435D02*
X699Y435D01*
X846Y435D02*
X848Y435D01*
X981Y435D02*
X981Y435D01*
X81Y434D02*
X81Y434D01*
X232Y434D02*
X260Y434D01*
X284Y434D02*
X285Y434D01*
X310Y434D02*
X311Y434D01*
X336Y434D02*
X336Y434D01*
X361Y434D02*
X362Y434D01*
X387Y434D02*
X388Y434D01*
X412Y434D02*
X413Y434D01*
X438Y434D02*
X439Y434D01*
X463Y434D02*
X464Y434D01*
X489Y434D02*
X490Y434D01*
X515Y434D02*
X515Y434D01*
X540Y434D02*
X541Y434D01*
X566Y434D02*
X567Y434D01*
X591Y434D02*
X592Y434D01*
X617Y434D02*
X644Y434D01*
X664Y434D02*
X664Y434D01*
X692Y434D02*
X693Y434D01*
X697Y434D02*
X699Y434D01*
X846Y434D02*
X848Y434D01*
X663Y433D02*
X666Y433D01*
X691Y433D02*
X694Y433D01*
X697Y433D02*
X699Y433D01*
X846Y433D02*
X848Y433D01*
X980Y433D02*
X980Y433D01*
X663Y432D02*
X666Y432D01*
X691Y432D02*
X694Y432D01*
X697Y432D02*
X699Y432D01*
X846Y432D02*
X848Y432D01*
X663Y431D02*
X666Y431D01*
X691Y431D02*
X694Y431D01*
X697Y431D02*
X699Y431D01*
X846Y431D02*
X848Y431D01*
X663Y430D02*
X666Y430D01*
X691Y430D02*
X694Y430D01*
X697Y430D02*
X699Y430D01*
X846Y430D02*
X848Y430D01*
X663Y429D02*
X666Y429D01*
X691Y429D02*
X694Y429D01*
X697Y429D02*
X699Y429D01*
X846Y429D02*
X848Y429D01*
X663Y428D02*
X666Y428D01*
X691Y428D02*
X694Y428D01*
X697Y428D02*
X699Y428D01*
X846Y428D02*
X848Y428D01*
X663Y427D02*
X666Y427D01*
X691Y427D02*
X694Y427D01*
X697Y427D02*
X699Y427D01*
X846Y427D02*
X848Y427D01*
X663Y426D02*
X666Y426D01*
X691Y426D02*
X694Y426D01*
X697Y426D02*
X699Y426D01*
X846Y426D02*
X848Y426D01*
X663Y425D02*
X694Y425D01*
X697Y425D02*
X699Y425D01*
X846Y425D02*
X848Y425D01*
X663Y424D02*
X694Y424D01*
X697Y424D02*
X699Y424D01*
X846Y424D02*
X848Y424D01*
X663Y423D02*
X694Y423D01*
X697Y423D02*
X699Y423D01*
X846Y423D02*
X848Y423D01*
X663Y422D02*
X694Y422D01*
X697Y422D02*
X699Y422D01*
X846Y422D02*
X848Y422D01*
X663Y421D02*
X666Y421D01*
X697Y421D02*
X699Y421D01*
X846Y421D02*
X848Y421D01*
X663Y420D02*
X666Y420D01*
X697Y420D02*
X699Y420D01*
X846Y420D02*
X848Y420D01*
X663Y419D02*
X666Y419D01*
X697Y419D02*
X699Y419D01*
X846Y419D02*
X848Y419D01*
X663Y418D02*
X666Y418D01*
X697Y418D02*
X699Y418D01*
X846Y418D02*
X848Y418D01*
X663Y417D02*
X676Y417D01*
X697Y417D02*
X699Y417D01*
X846Y417D02*
X848Y417D01*
X663Y416D02*
X676Y416D01*
X697Y416D02*
X699Y416D01*
X846Y416D02*
X848Y416D01*
X663Y415D02*
X676Y415D01*
X697Y415D02*
X699Y415D01*
X846Y415D02*
X848Y415D01*
X663Y414D02*
X676Y414D01*
X697Y414D02*
X699Y414D01*
X846Y414D02*
X848Y414D01*
X697Y413D02*
X699Y413D01*
X846Y413D02*
X848Y413D01*
X697Y412D02*
X699Y412D01*
X846Y412D02*
X848Y412D01*
X697Y411D02*
X699Y411D01*
X765Y411D02*
X780Y411D01*
X845Y411D02*
X848Y411D01*
X697Y410D02*
X848Y410D01*
X697Y409D02*
X848Y409D01*
X697Y408D02*
X847Y408D01*
X49Y399D02*
X58Y399D01*
X948Y399D02*
X957Y399D01*
X44Y398D02*
X63Y398D01*
X943Y398D02*
X962Y398D01*
X41Y397D02*
X66Y397D01*
X940Y397D02*
X965Y397D01*
X38Y396D02*
X46Y396D01*
X55Y396D02*
X68Y396D01*
X938Y396D02*
X945Y396D01*
X955Y396D02*
X968Y396D01*
X36Y395D02*
X41Y395D01*
X60Y395D02*
X71Y395D01*
X935Y395D02*
X940Y395D01*
X960Y395D02*
X970Y395D01*
X34Y394D02*
X38Y394D01*
X64Y394D02*
X72Y394D01*
X934Y394D02*
X937Y394D01*
X963Y394D02*
X972Y394D01*
X33Y393D02*
X35Y393D01*
X66Y393D02*
X74Y393D01*
X932Y393D02*
X935Y393D01*
X965Y393D02*
X973Y393D01*
X31Y392D02*
X33Y392D01*
X68Y392D02*
X76Y392D01*
X930Y392D02*
X932Y392D01*
X968Y392D02*
X975Y392D01*
X30Y391D02*
X31Y391D01*
X70Y391D02*
X77Y391D01*
X929Y391D02*
X930Y391D01*
X970Y391D02*
X976Y391D01*
X29Y390D02*
X30Y390D01*
X72Y390D02*
X78Y390D01*
X928Y390D02*
X929Y390D01*
X971Y390D02*
X977Y390D01*
X27Y389D02*
X28Y389D01*
X74Y389D02*
X79Y389D01*
X927Y389D02*
X927Y389D01*
X973Y389D02*
X979Y389D01*
X26Y388D02*
X27Y388D01*
X75Y388D02*
X80Y388D01*
X926Y388D02*
X926Y388D01*
X974Y388D02*
X980Y388D01*
X25Y387D02*
X25Y387D01*
X76Y387D02*
X81Y387D01*
X925Y387D02*
X925Y387D01*
X975Y387D02*
X981Y387D01*
X77Y386D02*
X82Y386D01*
X977Y386D02*
X981Y386D01*
X78Y385D02*
X83Y385D01*
X978Y385D02*
X982Y385D01*
X79Y384D02*
X84Y384D01*
X979Y384D02*
X983Y384D01*
X80Y383D02*
X84Y383D01*
X979Y383D02*
X984Y383D01*
X81Y382D02*
X85Y382D01*
X980Y382D02*
X984Y382D01*
X82Y381D02*
X86Y381D01*
X981Y381D02*
X985Y381D01*
X83Y380D02*
X86Y380D01*
X982Y380D02*
X986Y380D01*
X83Y379D02*
X87Y379D01*
X982Y379D02*
X986Y379D01*
X84Y378D02*
X87Y378D01*
X983Y378D02*
X987Y378D01*
X84Y377D02*
X88Y377D01*
X984Y377D02*
X987Y377D01*
X85Y376D02*
X88Y376D01*
X984Y376D02*
X988Y376D01*
X85Y375D02*
X89Y375D01*
X985Y375D02*
X988Y375D01*
X86Y374D02*
X89Y374D01*
X985Y374D02*
X988Y374D01*
X86Y373D02*
X89Y373D01*
X986Y373D02*
X989Y373D01*
X87Y372D02*
X90Y372D01*
X986Y372D02*
X989Y372D01*
X87Y371D02*
X90Y371D01*
X986Y371D02*
X989Y371D01*
X87Y370D02*
X90Y370D01*
X987Y370D02*
X990Y370D01*
X88Y369D02*
X91Y369D01*
X987Y369D02*
X990Y369D01*
X88Y368D02*
X91Y368D01*
X987Y368D02*
X990Y368D01*
X88Y367D02*
X91Y367D01*
X988Y367D02*
X990Y367D01*
X89Y366D02*
X91Y366D01*
X988Y366D02*
X990Y366D01*
X89Y365D02*
X91Y365D01*
X988Y365D02*
X991Y365D01*
X89Y364D02*
X92Y364D01*
X988Y364D02*
X991Y364D01*
X89Y363D02*
X92Y363D01*
X988Y363D02*
X991Y363D01*
X89Y362D02*
X92Y362D01*
X989Y362D02*
X991Y362D01*
X90Y361D02*
X92Y361D01*
X989Y361D02*
X991Y361D01*
X90Y360D02*
X92Y360D01*
X989Y360D02*
X991Y360D01*
X90Y359D02*
X92Y359D01*
X989Y359D02*
X991Y359D01*
X90Y358D02*
X92Y358D01*
X989Y358D02*
X991Y358D01*
X90Y357D02*
X92Y357D01*
X989Y357D02*
X991Y357D01*
X90Y356D02*
X91Y356D01*
X989Y356D02*
X991Y356D01*
X90Y355D02*
X91Y355D01*
X989Y355D02*
X990Y355D01*
X89Y354D02*
X91Y354D01*
X989Y354D02*
X990Y354D01*
X89Y353D02*
X91Y353D01*
X989Y353D02*
X990Y353D01*
X89Y352D02*
X91Y352D01*
X988Y352D02*
X990Y352D01*
X89Y351D02*
X90Y351D01*
X988Y351D02*
X990Y351D01*
X89Y350D02*
X90Y350D01*
X988Y350D02*
X989Y350D01*
X88Y349D02*
X90Y349D01*
X988Y349D02*
X989Y349D01*
X88Y348D02*
X89Y348D01*
X987Y348D02*
X989Y348D01*
X88Y347D02*
X89Y347D01*
X987Y347D02*
X988Y347D01*
X88Y346D02*
X89Y346D01*
X987Y346D02*
X988Y346D01*
X87Y345D02*
X88Y345D01*
X986Y345D02*
X987Y345D01*
X87Y344D02*
X88Y344D01*
X330Y344D02*
X345Y344D01*
X359Y344D02*
X375Y344D01*
X986Y344D02*
X987Y344D01*
X86Y343D02*
X87Y343D01*
X232Y343D02*
X244Y343D01*
X260Y343D02*
X269Y343D01*
X329Y343D02*
X347Y343D01*
X358Y343D02*
X377Y343D01*
X429Y343D02*
X443Y343D01*
X457Y343D02*
X473Y343D01*
X532Y343D02*
X548Y343D01*
X562Y343D02*
X564Y343D01*
X629Y343D02*
X645Y343D01*
X661Y343D02*
X676Y343D01*
X728Y343D02*
X744Y343D01*
X757Y343D02*
X761Y343D01*
X986Y343D02*
X987Y343D01*
X86Y342D02*
X87Y342D01*
X127Y342D02*
X144Y342D01*
X157Y342D02*
X174Y342D01*
X229Y342D02*
X246Y342D01*
X258Y342D02*
X269Y342D01*
X328Y342D02*
X347Y342D01*
X358Y342D02*
X377Y342D01*
X428Y342D02*
X445Y342D01*
X457Y342D02*
X475Y342D01*
X531Y342D02*
X549Y342D01*
X561Y342D02*
X564Y342D01*
X628Y342D02*
X646Y342D01*
X661Y342D02*
X677Y342D01*
X727Y342D02*
X745Y342D01*
X756Y342D02*
X761Y342D01*
X832Y342D02*
X847Y342D01*
X860Y342D02*
X879Y342D01*
X985Y342D02*
X986Y342D01*
X86Y341D02*
X86Y341D01*
X126Y341D02*
X145Y341D01*
X156Y341D02*
X175Y341D01*
X229Y341D02*
X247Y341D01*
X258Y341D02*
X269Y341D01*
X328Y341D02*
X347Y341D01*
X359Y341D02*
X378Y341D01*
X427Y341D02*
X446Y341D01*
X456Y341D02*
X476Y341D01*
X530Y341D02*
X549Y341D01*
X561Y341D02*
X564Y341D01*
X628Y341D02*
X647Y341D01*
X661Y341D02*
X677Y341D01*
X726Y341D02*
X745Y341D01*
X756Y341D02*
X761Y341D01*
X830Y341D02*
X848Y341D01*
X860Y341D02*
X879Y341D01*
X985Y341D02*
X985Y341D01*
X85Y340D02*
X86Y340D01*
X126Y340D02*
X145Y340D01*
X156Y340D02*
X175Y340D01*
X228Y340D02*
X247Y340D01*
X258Y340D02*
X269Y340D01*
X328Y340D02*
X331Y340D01*
X344Y340D02*
X348Y340D01*
X374Y340D02*
X378Y340D01*
X426Y340D02*
X446Y340D01*
X457Y340D02*
X476Y340D01*
X530Y340D02*
X550Y340D01*
X561Y340D02*
X564Y340D01*
X575Y340D02*
X575Y340D01*
X627Y340D02*
X647Y340D01*
X661Y340D02*
X676Y340D01*
X726Y340D02*
X746Y340D01*
X756Y340D02*
X761Y340D01*
X830Y340D02*
X849Y340D01*
X859Y340D02*
X879Y340D01*
X984Y340D02*
X985Y340D01*
X85Y339D02*
X85Y339D01*
X126Y339D02*
X145Y339D01*
X156Y339D02*
X175Y339D01*
X228Y339D02*
X248Y339D01*
X259Y339D02*
X269Y339D01*
X328Y339D02*
X331Y339D01*
X344Y339D02*
X348Y339D01*
X374Y339D02*
X378Y339D01*
X426Y339D02*
X430Y339D01*
X443Y339D02*
X446Y339D01*
X473Y339D02*
X476Y339D01*
X530Y339D02*
X533Y339D01*
X547Y339D02*
X550Y339D01*
X561Y339D02*
X564Y339D01*
X574Y339D02*
X576Y339D01*
X627Y339D02*
X630Y339D01*
X644Y339D02*
X647Y339D01*
X661Y339D02*
X665Y339D01*
X726Y339D02*
X729Y339D01*
X743Y339D02*
X746Y339D01*
X756Y339D02*
X759Y339D01*
X829Y339D02*
X849Y339D01*
X859Y339D02*
X879Y339D01*
X984Y339D02*
X984Y339D01*
X84Y338D02*
X84Y338D01*
X126Y338D02*
X129Y338D01*
X142Y338D02*
X145Y338D01*
X156Y338D02*
X159Y338D01*
X172Y338D02*
X175Y338D01*
X228Y338D02*
X231Y338D01*
X244Y338D02*
X248Y338D01*
X266Y338D02*
X269Y338D01*
X328Y338D02*
X331Y338D01*
X344Y338D02*
X348Y338D01*
X374Y338D02*
X378Y338D01*
X426Y338D02*
X430Y338D01*
X443Y338D02*
X446Y338D01*
X473Y338D02*
X476Y338D01*
X530Y338D02*
X533Y338D01*
X547Y338D02*
X550Y338D01*
X561Y338D02*
X564Y338D01*
X574Y338D02*
X577Y338D01*
X627Y338D02*
X630Y338D01*
X644Y338D02*
X647Y338D01*
X661Y338D02*
X665Y338D01*
X726Y338D02*
X729Y338D01*
X743Y338D02*
X746Y338D01*
X756Y338D02*
X759Y338D01*
X829Y338D02*
X833Y338D01*
X846Y338D02*
X849Y338D01*
X860Y338D02*
X863Y338D01*
X876Y338D02*
X879Y338D01*
X983Y338D02*
X984Y338D01*
X83Y337D02*
X84Y337D01*
X126Y337D02*
X129Y337D01*
X142Y337D02*
X145Y337D01*
X156Y337D02*
X159Y337D01*
X172Y337D02*
X175Y337D01*
X228Y337D02*
X231Y337D01*
X244Y337D02*
X248Y337D01*
X266Y337D02*
X269Y337D01*
X328Y337D02*
X331Y337D01*
X344Y337D02*
X348Y337D01*
X374Y337D02*
X378Y337D01*
X426Y337D02*
X430Y337D01*
X443Y337D02*
X446Y337D01*
X473Y337D02*
X476Y337D01*
X530Y337D02*
X533Y337D01*
X547Y337D02*
X550Y337D01*
X561Y337D02*
X564Y337D01*
X574Y337D02*
X577Y337D01*
X627Y337D02*
X630Y337D01*
X644Y337D02*
X647Y337D01*
X661Y337D02*
X665Y337D01*
X726Y337D02*
X729Y337D01*
X743Y337D02*
X746Y337D01*
X756Y337D02*
X759Y337D01*
X829Y337D02*
X833Y337D01*
X846Y337D02*
X849Y337D01*
X860Y337D02*
X862Y337D01*
X876Y337D02*
X879Y337D01*
X983Y337D02*
X983Y337D01*
X83Y336D02*
X83Y336D01*
X126Y336D02*
X129Y336D01*
X142Y336D02*
X145Y336D01*
X156Y336D02*
X159Y336D01*
X172Y336D02*
X175Y336D01*
X228Y336D02*
X231Y336D01*
X244Y336D02*
X248Y336D01*
X266Y336D02*
X269Y336D01*
X328Y336D02*
X331Y336D01*
X344Y336D02*
X348Y336D01*
X374Y336D02*
X378Y336D01*
X426Y336D02*
X430Y336D01*
X443Y336D02*
X446Y336D01*
X473Y336D02*
X476Y336D01*
X530Y336D02*
X533Y336D01*
X547Y336D02*
X550Y336D01*
X561Y336D02*
X564Y336D01*
X574Y336D02*
X577Y336D01*
X627Y336D02*
X630Y336D01*
X644Y336D02*
X647Y336D01*
X661Y336D02*
X665Y336D01*
X726Y336D02*
X729Y336D01*
X743Y336D02*
X746Y336D01*
X756Y336D02*
X759Y336D01*
X829Y336D02*
X833Y336D01*
X846Y336D02*
X849Y336D01*
X876Y336D02*
X879Y336D01*
X982Y336D02*
X982Y336D01*
X82Y335D02*
X82Y335D01*
X126Y335D02*
X129Y335D01*
X142Y335D02*
X145Y335D01*
X156Y335D02*
X159Y335D01*
X172Y335D02*
X175Y335D01*
X228Y335D02*
X231Y335D01*
X244Y335D02*
X248Y335D01*
X266Y335D02*
X269Y335D01*
X328Y335D02*
X331Y335D01*
X344Y335D02*
X348Y335D01*
X374Y335D02*
X378Y335D01*
X426Y335D02*
X430Y335D01*
X443Y335D02*
X446Y335D01*
X473Y335D02*
X476Y335D01*
X530Y335D02*
X533Y335D01*
X547Y335D02*
X550Y335D01*
X561Y335D02*
X564Y335D01*
X574Y335D02*
X577Y335D01*
X627Y335D02*
X630Y335D01*
X644Y335D02*
X647Y335D01*
X661Y335D02*
X665Y335D01*
X726Y335D02*
X729Y335D01*
X743Y335D02*
X746Y335D01*
X756Y335D02*
X759Y335D01*
X829Y335D02*
X833Y335D01*
X846Y335D02*
X849Y335D01*
X876Y335D02*
X879Y335D01*
X981Y335D02*
X981Y335D01*
X81Y334D02*
X81Y334D01*
X126Y334D02*
X129Y334D01*
X142Y334D02*
X145Y334D01*
X156Y334D02*
X159Y334D01*
X172Y334D02*
X175Y334D01*
X228Y334D02*
X231Y334D01*
X244Y334D02*
X248Y334D01*
X266Y334D02*
X269Y334D01*
X328Y334D02*
X331Y334D01*
X344Y334D02*
X348Y334D01*
X374Y334D02*
X378Y334D01*
X426Y334D02*
X430Y334D01*
X443Y334D02*
X446Y334D01*
X473Y334D02*
X476Y334D01*
X530Y334D02*
X533Y334D01*
X547Y334D02*
X550Y334D01*
X561Y334D02*
X564Y334D01*
X574Y334D02*
X577Y334D01*
X627Y334D02*
X630Y334D01*
X644Y334D02*
X647Y334D01*
X661Y334D02*
X665Y334D01*
X726Y334D02*
X729Y334D01*
X743Y334D02*
X746Y334D01*
X756Y334D02*
X759Y334D01*
X829Y334D02*
X833Y334D01*
X846Y334D02*
X849Y334D01*
X876Y334D02*
X879Y334D01*
X126Y333D02*
X129Y333D01*
X142Y333D02*
X145Y333D01*
X156Y333D02*
X159Y333D01*
X172Y333D02*
X175Y333D01*
X228Y333D02*
X231Y333D01*
X244Y333D02*
X248Y333D01*
X266Y333D02*
X269Y333D01*
X328Y333D02*
X331Y333D01*
X344Y333D02*
X348Y333D01*
X374Y333D02*
X378Y333D01*
X426Y333D02*
X430Y333D01*
X443Y333D02*
X446Y333D01*
X473Y333D02*
X476Y333D01*
X530Y333D02*
X533Y333D01*
X547Y333D02*
X550Y333D01*
X561Y333D02*
X564Y333D01*
X574Y333D02*
X577Y333D01*
X627Y333D02*
X630Y333D01*
X644Y333D02*
X647Y333D01*
X661Y333D02*
X665Y333D01*
X726Y333D02*
X729Y333D01*
X743Y333D02*
X746Y333D01*
X756Y333D02*
X759Y333D01*
X829Y333D02*
X833Y333D01*
X846Y333D02*
X849Y333D01*
X876Y333D02*
X879Y333D01*
X126Y332D02*
X129Y332D01*
X142Y332D02*
X145Y332D01*
X156Y332D02*
X159Y332D01*
X172Y332D02*
X175Y332D01*
X228Y332D02*
X231Y332D01*
X244Y332D02*
X248Y332D01*
X266Y332D02*
X269Y332D01*
X328Y332D02*
X331Y332D01*
X344Y332D02*
X348Y332D01*
X374Y332D02*
X378Y332D01*
X426Y332D02*
X430Y332D01*
X443Y332D02*
X446Y332D01*
X473Y332D02*
X476Y332D01*
X530Y332D02*
X533Y332D01*
X547Y332D02*
X550Y332D01*
X561Y332D02*
X564Y332D01*
X574Y332D02*
X577Y332D01*
X627Y332D02*
X630Y332D01*
X644Y332D02*
X647Y332D01*
X661Y332D02*
X665Y332D01*
X726Y332D02*
X729Y332D01*
X743Y332D02*
X746Y332D01*
X756Y332D02*
X759Y332D01*
X829Y332D02*
X833Y332D01*
X846Y332D02*
X849Y332D01*
X876Y332D02*
X879Y332D01*
X126Y331D02*
X129Y331D01*
X142Y331D02*
X145Y331D01*
X156Y331D02*
X159Y331D01*
X172Y331D02*
X175Y331D01*
X228Y331D02*
X231Y331D01*
X244Y331D02*
X248Y331D01*
X266Y331D02*
X269Y331D01*
X328Y331D02*
X331Y331D01*
X344Y331D02*
X348Y331D01*
X374Y331D02*
X378Y331D01*
X426Y331D02*
X430Y331D01*
X443Y331D02*
X446Y331D01*
X473Y331D02*
X476Y331D01*
X530Y331D02*
X533Y331D01*
X547Y331D02*
X550Y331D01*
X561Y331D02*
X564Y331D01*
X574Y331D02*
X577Y331D01*
X627Y331D02*
X630Y331D01*
X644Y331D02*
X647Y331D01*
X661Y331D02*
X665Y331D01*
X726Y331D02*
X729Y331D01*
X743Y331D02*
X746Y331D01*
X756Y331D02*
X759Y331D01*
X829Y331D02*
X833Y331D01*
X846Y331D02*
X849Y331D01*
X876Y331D02*
X879Y331D01*
X126Y330D02*
X129Y330D01*
X142Y330D02*
X145Y330D01*
X156Y330D02*
X159Y330D01*
X172Y330D02*
X175Y330D01*
X228Y330D02*
X231Y330D01*
X244Y330D02*
X248Y330D01*
X266Y330D02*
X269Y330D01*
X328Y330D02*
X331Y330D01*
X344Y330D02*
X348Y330D01*
X360Y330D02*
X378Y330D01*
X426Y330D02*
X430Y330D01*
X443Y330D02*
X446Y330D01*
X472Y330D02*
X476Y330D01*
X530Y330D02*
X533Y330D01*
X547Y330D02*
X550Y330D01*
X561Y330D02*
X564Y330D01*
X574Y330D02*
X577Y330D01*
X627Y330D02*
X630Y330D01*
X644Y330D02*
X647Y330D01*
X661Y330D02*
X665Y330D01*
X726Y330D02*
X729Y330D01*
X743Y330D02*
X746Y330D01*
X756Y330D02*
X759Y330D01*
X829Y330D02*
X833Y330D01*
X846Y330D02*
X849Y330D01*
X875Y330D02*
X879Y330D01*
X126Y329D02*
X129Y329D01*
X142Y329D02*
X145Y329D01*
X156Y329D02*
X159Y329D01*
X172Y329D02*
X175Y329D01*
X228Y329D02*
X231Y329D01*
X244Y329D02*
X248Y329D01*
X266Y329D02*
X269Y329D01*
X328Y329D02*
X331Y329D01*
X344Y329D02*
X348Y329D01*
X359Y329D02*
X377Y329D01*
X426Y329D02*
X430Y329D01*
X443Y329D02*
X446Y329D01*
X462Y329D02*
X476Y329D01*
X530Y329D02*
X533Y329D01*
X547Y329D02*
X550Y329D01*
X561Y329D02*
X564Y329D01*
X574Y329D02*
X577Y329D01*
X627Y329D02*
X630Y329D01*
X644Y329D02*
X647Y329D01*
X661Y329D02*
X675Y329D01*
X726Y329D02*
X729Y329D01*
X743Y329D02*
X746Y329D01*
X756Y329D02*
X759Y329D01*
X829Y329D02*
X833Y329D01*
X846Y329D02*
X849Y329D01*
X874Y329D02*
X879Y329D01*
X126Y328D02*
X129Y328D01*
X142Y328D02*
X145Y328D01*
X156Y328D02*
X159Y328D01*
X172Y328D02*
X175Y328D01*
X228Y328D02*
X231Y328D01*
X244Y328D02*
X248Y328D01*
X266Y328D02*
X269Y328D01*
X328Y328D02*
X331Y328D01*
X344Y328D02*
X348Y328D01*
X358Y328D02*
X377Y328D01*
X426Y328D02*
X430Y328D01*
X443Y328D02*
X446Y328D01*
X461Y328D02*
X475Y328D01*
X530Y328D02*
X533Y328D01*
X547Y328D02*
X550Y328D01*
X561Y328D02*
X564Y328D01*
X574Y328D02*
X577Y328D01*
X627Y328D02*
X630Y328D01*
X644Y328D02*
X647Y328D01*
X661Y328D02*
X676Y328D01*
X726Y328D02*
X729Y328D01*
X743Y328D02*
X746Y328D01*
X756Y328D02*
X759Y328D01*
X829Y328D02*
X833Y328D01*
X846Y328D02*
X849Y328D01*
X873Y328D02*
X878Y328D01*
X126Y327D02*
X129Y327D01*
X142Y327D02*
X145Y327D01*
X156Y327D02*
X159Y327D01*
X172Y327D02*
X175Y327D01*
X228Y327D02*
X231Y327D01*
X244Y327D02*
X248Y327D01*
X266Y327D02*
X269Y327D01*
X328Y327D02*
X331Y327D01*
X344Y327D02*
X348Y327D01*
X358Y327D02*
X376Y327D01*
X426Y327D02*
X430Y327D01*
X443Y327D02*
X446Y327D01*
X461Y327D02*
X475Y327D01*
X530Y327D02*
X533Y327D01*
X547Y327D02*
X550Y327D01*
X561Y327D02*
X564Y327D01*
X574Y327D02*
X577Y327D01*
X627Y327D02*
X630Y327D01*
X644Y327D02*
X647Y327D01*
X661Y327D02*
X677Y327D01*
X726Y327D02*
X729Y327D01*
X743Y327D02*
X746Y327D01*
X756Y327D02*
X759Y327D01*
X829Y327D02*
X833Y327D01*
X846Y327D02*
X849Y327D01*
X871Y327D02*
X877Y327D01*
X126Y326D02*
X129Y326D01*
X142Y326D02*
X145Y326D01*
X156Y326D02*
X159Y326D01*
X172Y326D02*
X175Y326D01*
X228Y326D02*
X231Y326D01*
X244Y326D02*
X248Y326D01*
X266Y326D02*
X269Y326D01*
X328Y326D02*
X331Y326D01*
X344Y326D02*
X348Y326D01*
X358Y326D02*
X361Y326D01*
X426Y326D02*
X430Y326D01*
X443Y326D02*
X446Y326D01*
X461Y326D02*
X475Y326D01*
X530Y326D02*
X533Y326D01*
X547Y326D02*
X550Y326D01*
X561Y326D02*
X577Y326D01*
X627Y326D02*
X630Y326D01*
X644Y326D02*
X647Y326D01*
X661Y326D02*
X677Y326D01*
X726Y326D02*
X729Y326D01*
X743Y326D02*
X746Y326D01*
X756Y326D02*
X774Y326D01*
X829Y326D02*
X833Y326D01*
X846Y326D02*
X849Y326D01*
X870Y326D02*
X876Y326D01*
X126Y325D02*
X129Y325D01*
X142Y325D02*
X145Y325D01*
X156Y325D02*
X159Y325D01*
X172Y325D02*
X175Y325D01*
X228Y325D02*
X231Y325D01*
X244Y325D02*
X248Y325D01*
X266Y325D02*
X269Y325D01*
X275Y325D02*
X277Y325D01*
X328Y325D02*
X331Y325D01*
X344Y325D02*
X348Y325D01*
X358Y325D02*
X361Y325D01*
X426Y325D02*
X430Y325D01*
X443Y325D02*
X446Y325D01*
X471Y325D02*
X476Y325D01*
X530Y325D02*
X533Y325D01*
X547Y325D02*
X550Y325D01*
X561Y325D02*
X578Y325D01*
X627Y325D02*
X630Y325D01*
X644Y325D02*
X647Y325D01*
X674Y325D02*
X677Y325D01*
X726Y325D02*
X729Y325D01*
X743Y325D02*
X746Y325D01*
X756Y325D02*
X776Y325D01*
X829Y325D02*
X833Y325D01*
X846Y325D02*
X849Y325D01*
X869Y325D02*
X875Y325D01*
X126Y324D02*
X129Y324D01*
X142Y324D02*
X145Y324D01*
X156Y324D02*
X159Y324D01*
X172Y324D02*
X175Y324D01*
X228Y324D02*
X231Y324D01*
X244Y324D02*
X248Y324D01*
X266Y324D02*
X269Y324D01*
X275Y324D02*
X278Y324D01*
X328Y324D02*
X331Y324D01*
X344Y324D02*
X348Y324D01*
X358Y324D02*
X361Y324D01*
X426Y324D02*
X430Y324D01*
X443Y324D02*
X446Y324D01*
X473Y324D02*
X476Y324D01*
X530Y324D02*
X533Y324D01*
X547Y324D02*
X550Y324D01*
X561Y324D02*
X579Y324D01*
X627Y324D02*
X630Y324D01*
X644Y324D02*
X647Y324D01*
X674Y324D02*
X677Y324D01*
X726Y324D02*
X729Y324D01*
X743Y324D02*
X746Y324D01*
X756Y324D02*
X776Y324D01*
X829Y324D02*
X833Y324D01*
X846Y324D02*
X849Y324D01*
X868Y324D02*
X873Y324D01*
X126Y323D02*
X129Y323D01*
X142Y323D02*
X145Y323D01*
X156Y323D02*
X159Y323D01*
X172Y323D02*
X175Y323D01*
X228Y323D02*
X231Y323D01*
X244Y323D02*
X248Y323D01*
X266Y323D02*
X269Y323D01*
X274Y323D02*
X278Y323D01*
X328Y323D02*
X331Y323D01*
X344Y323D02*
X348Y323D01*
X358Y323D02*
X361Y323D01*
X426Y323D02*
X430Y323D01*
X443Y323D02*
X446Y323D01*
X473Y323D02*
X476Y323D01*
X530Y323D02*
X533Y323D01*
X547Y323D02*
X550Y323D01*
X561Y323D02*
X579Y323D01*
X627Y323D02*
X630Y323D01*
X644Y323D02*
X647Y323D01*
X674Y323D02*
X677Y323D01*
X726Y323D02*
X729Y323D01*
X743Y323D02*
X746Y323D01*
X756Y323D02*
X776Y323D01*
X829Y323D02*
X833Y323D01*
X846Y323D02*
X849Y323D01*
X868Y323D02*
X872Y323D01*
X126Y322D02*
X129Y322D01*
X142Y322D02*
X145Y322D01*
X156Y322D02*
X159Y322D01*
X172Y322D02*
X175Y322D01*
X228Y322D02*
X231Y322D01*
X244Y322D02*
X248Y322D01*
X266Y322D02*
X269Y322D01*
X274Y322D02*
X278Y322D01*
X328Y322D02*
X331Y322D01*
X344Y322D02*
X348Y322D01*
X358Y322D02*
X361Y322D01*
X426Y322D02*
X430Y322D01*
X443Y322D02*
X446Y322D01*
X473Y322D02*
X476Y322D01*
X530Y322D02*
X533Y322D01*
X547Y322D02*
X550Y322D01*
X561Y322D02*
X577Y322D01*
X627Y322D02*
X630Y322D01*
X644Y322D02*
X647Y322D01*
X674Y322D02*
X677Y322D01*
X726Y322D02*
X729Y322D01*
X743Y322D02*
X746Y322D01*
X756Y322D02*
X776Y322D01*
X829Y322D02*
X833Y322D01*
X846Y322D02*
X849Y322D01*
X868Y322D02*
X871Y322D01*
X126Y321D02*
X129Y321D01*
X142Y321D02*
X145Y321D01*
X156Y321D02*
X159Y321D01*
X172Y321D02*
X175Y321D01*
X228Y321D02*
X231Y321D01*
X244Y321D02*
X248Y321D01*
X266Y321D02*
X269Y321D01*
X274Y321D02*
X278Y321D01*
X328Y321D02*
X331Y321D01*
X344Y321D02*
X348Y321D01*
X358Y321D02*
X361Y321D01*
X426Y321D02*
X430Y321D01*
X443Y321D02*
X446Y321D01*
X473Y321D02*
X476Y321D01*
X530Y321D02*
X533Y321D01*
X547Y321D02*
X550Y321D01*
X574Y321D02*
X577Y321D01*
X627Y321D02*
X630Y321D01*
X644Y321D02*
X647Y321D01*
X674Y321D02*
X677Y321D01*
X726Y321D02*
X729Y321D01*
X743Y321D02*
X746Y321D01*
X756Y321D02*
X759Y321D01*
X773Y321D02*
X776Y321D01*
X829Y321D02*
X833Y321D01*
X846Y321D02*
X849Y321D01*
X868Y321D02*
X871Y321D01*
X126Y320D02*
X129Y320D01*
X142Y320D02*
X145Y320D01*
X156Y320D02*
X159Y320D01*
X172Y320D02*
X175Y320D01*
X228Y320D02*
X231Y320D01*
X244Y320D02*
X248Y320D01*
X266Y320D02*
X269Y320D01*
X274Y320D02*
X278Y320D01*
X328Y320D02*
X331Y320D01*
X344Y320D02*
X348Y320D01*
X358Y320D02*
X361Y320D01*
X426Y320D02*
X430Y320D01*
X443Y320D02*
X446Y320D01*
X473Y320D02*
X476Y320D01*
X530Y320D02*
X533Y320D01*
X547Y320D02*
X550Y320D01*
X574Y320D02*
X577Y320D01*
X627Y320D02*
X630Y320D01*
X644Y320D02*
X647Y320D01*
X674Y320D02*
X677Y320D01*
X726Y320D02*
X729Y320D01*
X743Y320D02*
X746Y320D01*
X756Y320D02*
X759Y320D01*
X773Y320D02*
X776Y320D01*
X829Y320D02*
X833Y320D01*
X846Y320D02*
X849Y320D01*
X868Y320D02*
X871Y320D01*
X126Y319D02*
X129Y319D01*
X142Y319D02*
X145Y319D01*
X156Y319D02*
X159Y319D01*
X172Y319D02*
X175Y319D01*
X228Y319D02*
X231Y319D01*
X244Y319D02*
X248Y319D01*
X266Y319D02*
X269Y319D01*
X274Y319D02*
X278Y319D01*
X328Y319D02*
X331Y319D01*
X344Y319D02*
X348Y319D01*
X358Y319D02*
X361Y319D01*
X426Y319D02*
X430Y319D01*
X443Y319D02*
X446Y319D01*
X473Y319D02*
X476Y319D01*
X530Y319D02*
X533Y319D01*
X547Y319D02*
X550Y319D01*
X574Y319D02*
X577Y319D01*
X627Y319D02*
X630Y319D01*
X644Y319D02*
X647Y319D01*
X674Y319D02*
X677Y319D01*
X726Y319D02*
X729Y319D01*
X743Y319D02*
X746Y319D01*
X756Y319D02*
X759Y319D01*
X773Y319D02*
X776Y319D01*
X829Y319D02*
X833Y319D01*
X846Y319D02*
X849Y319D01*
X868Y319D02*
X871Y319D01*
X126Y318D02*
X129Y318D01*
X142Y318D02*
X145Y318D01*
X156Y318D02*
X159Y318D01*
X172Y318D02*
X175Y318D01*
X228Y318D02*
X231Y318D01*
X244Y318D02*
X248Y318D01*
X266Y318D02*
X269Y318D01*
X274Y318D02*
X278Y318D01*
X328Y318D02*
X331Y318D01*
X344Y318D02*
X348Y318D01*
X358Y318D02*
X361Y318D01*
X426Y318D02*
X430Y318D01*
X443Y318D02*
X446Y318D01*
X473Y318D02*
X476Y318D01*
X530Y318D02*
X533Y318D01*
X547Y318D02*
X550Y318D01*
X574Y318D02*
X577Y318D01*
X627Y318D02*
X630Y318D01*
X644Y318D02*
X647Y318D01*
X674Y318D02*
X677Y318D01*
X726Y318D02*
X729Y318D01*
X743Y318D02*
X746Y318D01*
X756Y318D02*
X759Y318D01*
X773Y318D02*
X776Y318D01*
X829Y318D02*
X833Y318D01*
X846Y318D02*
X849Y318D01*
X868Y318D02*
X871Y318D01*
X126Y317D02*
X129Y317D01*
X142Y317D02*
X145Y317D01*
X156Y317D02*
X159Y317D01*
X172Y317D02*
X175Y317D01*
X228Y317D02*
X231Y317D01*
X244Y317D02*
X248Y317D01*
X266Y317D02*
X269Y317D01*
X274Y317D02*
X278Y317D01*
X328Y317D02*
X331Y317D01*
X344Y317D02*
X348Y317D01*
X358Y317D02*
X361Y317D01*
X426Y317D02*
X430Y317D01*
X443Y317D02*
X446Y317D01*
X473Y317D02*
X476Y317D01*
X530Y317D02*
X533Y317D01*
X547Y317D02*
X550Y317D01*
X574Y317D02*
X577Y317D01*
X627Y317D02*
X630Y317D01*
X644Y317D02*
X647Y317D01*
X659Y317D02*
X659Y317D01*
X674Y317D02*
X677Y317D01*
X726Y317D02*
X729Y317D01*
X743Y317D02*
X746Y317D01*
X756Y317D02*
X759Y317D01*
X773Y317D02*
X776Y317D01*
X829Y317D02*
X833Y317D01*
X846Y317D02*
X849Y317D01*
X868Y317D02*
X871Y317D01*
X126Y316D02*
X129Y316D01*
X142Y316D02*
X145Y316D01*
X156Y316D02*
X159Y316D01*
X172Y316D02*
X175Y316D01*
X228Y316D02*
X231Y316D01*
X244Y316D02*
X248Y316D01*
X266Y316D02*
X269Y316D01*
X274Y316D02*
X278Y316D01*
X328Y316D02*
X348Y316D01*
X358Y316D02*
X377Y316D01*
X426Y316D02*
X430Y316D01*
X443Y316D02*
X446Y316D01*
X473Y316D02*
X476Y316D01*
X530Y316D02*
X533Y316D01*
X547Y316D02*
X550Y316D01*
X574Y316D02*
X577Y316D01*
X627Y316D02*
X630Y316D01*
X644Y316D02*
X647Y316D01*
X658Y316D02*
X662Y316D01*
X674Y316D02*
X677Y316D01*
X726Y316D02*
X729Y316D01*
X743Y316D02*
X746Y316D01*
X756Y316D02*
X759Y316D01*
X773Y316D02*
X776Y316D01*
X829Y316D02*
X833Y316D01*
X846Y316D02*
X849Y316D01*
X868Y316D02*
X871Y316D01*
X126Y315D02*
X129Y315D01*
X142Y315D02*
X145Y315D01*
X156Y315D02*
X159Y315D01*
X172Y315D02*
X175Y315D01*
X228Y315D02*
X231Y315D01*
X244Y315D02*
X248Y315D01*
X266Y315D02*
X270Y315D01*
X274Y315D02*
X278Y315D01*
X328Y315D02*
X347Y315D01*
X358Y315D02*
X377Y315D01*
X426Y315D02*
X446Y315D01*
X458Y315D02*
X476Y315D01*
X530Y315D02*
X550Y315D01*
X574Y315D02*
X577Y315D01*
X627Y315D02*
X647Y315D01*
X657Y315D02*
X677Y315D01*
X726Y315D02*
X746Y315D01*
X756Y315D02*
X776Y315D01*
X829Y315D02*
X833Y315D01*
X846Y315D02*
X849Y315D01*
X868Y315D02*
X871Y315D01*
X126Y314D02*
X145Y314D01*
X156Y314D02*
X175Y314D01*
X228Y314D02*
X247Y314D01*
X258Y314D02*
X278Y314D01*
X329Y314D02*
X347Y314D01*
X358Y314D02*
X378Y314D01*
X427Y314D02*
X446Y314D01*
X457Y314D02*
X476Y314D01*
X530Y314D02*
X549Y314D01*
X574Y314D02*
X577Y314D01*
X628Y314D02*
X647Y314D01*
X658Y314D02*
X677Y314D01*
X726Y314D02*
X745Y314D01*
X756Y314D02*
X776Y314D01*
X829Y314D02*
X849Y314D01*
X868Y314D02*
X871Y314D01*
X126Y313D02*
X145Y313D01*
X156Y313D02*
X175Y313D01*
X228Y313D02*
X247Y313D01*
X258Y313D02*
X278Y313D01*
X330Y313D02*
X346Y313D01*
X358Y313D02*
X377Y313D01*
X427Y313D02*
X445Y313D01*
X456Y313D02*
X475Y313D01*
X531Y313D02*
X549Y313D01*
X574Y313D02*
X577Y313D01*
X628Y313D02*
X646Y313D01*
X659Y313D02*
X676Y313D01*
X727Y313D02*
X745Y313D01*
X756Y313D02*
X776Y313D01*
X830Y313D02*
X849Y313D01*
X868Y313D02*
X871Y313D01*
X127Y312D02*
X144Y312D01*
X157Y312D02*
X174Y312D01*
X229Y312D02*
X246Y312D01*
X258Y312D02*
X278Y312D01*
X428Y312D02*
X445Y312D01*
X457Y312D02*
X475Y312D01*
X532Y312D02*
X548Y312D01*
X574Y312D02*
X576Y312D01*
X629Y312D02*
X645Y312D01*
X661Y312D02*
X675Y312D01*
X728Y312D02*
X744Y312D01*
X757Y312D02*
X775Y312D01*
X830Y312D02*
X848Y312D01*
X868Y312D02*
X871Y312D01*
X918Y312D02*
X937Y312D01*
X948Y312D02*
X967Y312D01*
X978Y312D02*
X997Y312D01*
X128Y311D02*
X143Y311D01*
X158Y311D02*
X173Y311D01*
X230Y311D02*
X245Y311D01*
X259Y311D02*
X277Y311D01*
X430Y311D02*
X443Y311D01*
X458Y311D02*
X473Y311D01*
X831Y311D02*
X847Y311D01*
X868Y311D02*
X870Y311D01*
X918Y311D02*
X938Y311D01*
X948Y311D02*
X968Y311D01*
X978Y311D02*
X998Y311D01*
X918Y310D02*
X938Y310D01*
X948Y310D02*
X968Y310D01*
X978Y310D02*
X998Y310D01*
X918Y309D02*
X938Y309D01*
X948Y309D02*
X968Y309D01*
X978Y309D02*
X998Y309D01*
X918Y308D02*
X937Y308D01*
X948Y308D02*
X967Y308D01*
X978Y308D02*
X997Y308D01*
X920Y307D02*
X936Y307D01*
X950Y307D02*
X966Y307D01*
X980Y307D02*
X996Y307D01*
X953Y214D02*
X956Y214D01*
X950Y213D02*
X956Y213D01*
X950Y212D02*
X956Y212D01*
X938Y211D02*
X968Y211D01*
X937Y210D02*
X969Y210D01*
X937Y209D02*
X970Y209D01*
X936Y208D02*
X970Y208D01*
X937Y207D02*
X970Y207D01*
X937Y206D02*
X969Y206D01*
X938Y205D02*
X968Y205D01*
X950Y204D02*
X956Y204D01*
X950Y203D02*
X956Y203D01*
X950Y202D02*
X956Y202D01*
X950Y113D02*
X959Y113D01*
X950Y112D02*
X959Y112D01*
X950Y111D02*
X959Y111D01*
X950Y110D02*
X959Y110D01*
X950Y109D02*
X959Y109D01*
X950Y108D02*
X959Y108D01*
X950Y107D02*
X959Y107D01*
X950Y106D02*
X959Y106D01*
X950Y105D02*
X959Y105D01*
X950Y104D02*
X959Y104D01*
X950Y103D02*
X959Y103D01*
X950Y102D02*
X959Y102D01*
X950Y101D02*
X959Y101D01*
X950Y100D02*
X959Y100D01*
X950Y99D02*
X959Y99D01*
X950Y98D02*
X959Y98D01*
X950Y97D02*
X959Y97D01*
X950Y96D02*
X959Y96D01*
X950Y95D02*
X959Y95D01*
X950Y94D02*
X959Y94D01*
X950Y93D02*
X959Y93D01*
X951Y92D02*
X959Y92D01*
X952Y91D02*
X958Y91D01*
D02*
G04 End of Silk1*
M02*