G04 MADE WITH FRITZING*
G04 WWW.FRITZING.ORG*
G04 DOUBLE SIDED*
G04 HOLES PLATED*
G04 CONTOUR ON CENTER OF CONTOUR VECTOR*
%ASAXBY*%
%FSLAX23Y23*%
%MOIN*%
%OFA0B0*%
%SFA1.0B1.0*%
%ADD10C,0.075000*%
%ADD11C,0.039370*%
%ADD12C,0.066929*%
%ADD13C,0.078000*%
%ADD14R,0.050000X0.025000*%
%ADD15R,0.078000X0.078000*%
%ADD16C,0.012000*%
%ADD17C,0.024000*%
%ADD18C,0.016000*%
%LNCOPPER0*%
G90*
G70*
G54D10*
X225Y655D03*
G54D11*
X151Y620D03*
G54D12*
X451Y1057D03*
X451Y957D03*
X451Y857D03*
X651Y1057D03*
X651Y957D03*
X651Y857D03*
X751Y1057D03*
X751Y957D03*
X751Y857D03*
X551Y1057D03*
X551Y957D03*
X551Y857D03*
X251Y1057D03*
X251Y957D03*
X251Y857D03*
X351Y1057D03*
X351Y957D03*
X351Y857D03*
X151Y1057D03*
X151Y957D03*
X151Y857D03*
X851Y1057D03*
X851Y957D03*
X851Y857D03*
X851Y57D03*
X851Y157D03*
X851Y257D03*
X751Y57D03*
X751Y157D03*
X751Y257D03*
X651Y57D03*
X651Y157D03*
X651Y257D03*
X551Y57D03*
X551Y157D03*
X551Y257D03*
X451Y57D03*
X451Y157D03*
X451Y257D03*
X351Y57D03*
X351Y157D03*
X351Y257D03*
X251Y57D03*
X251Y157D03*
X251Y257D03*
X151Y57D03*
X151Y157D03*
X151Y257D03*
G54D11*
X151Y532D03*
X251Y532D03*
X351Y532D03*
X451Y532D03*
X551Y532D03*
X651Y682D03*
X201Y745D03*
X851Y732D03*
X851Y507D03*
G54D13*
X951Y157D03*
X951Y257D03*
G54D12*
X51Y1057D03*
X51Y957D03*
X51Y857D03*
X51Y757D03*
X51Y657D03*
X51Y557D03*
X51Y457D03*
X51Y357D03*
X951Y1057D03*
X951Y957D03*
X951Y857D03*
X951Y757D03*
X951Y657D03*
X951Y557D03*
X951Y457D03*
X951Y357D03*
G54D14*
X701Y567D03*
X701Y532D03*
X701Y497D03*
X601Y567D03*
X601Y532D03*
X601Y497D03*
X501Y567D03*
X501Y532D03*
X501Y497D03*
X401Y567D03*
X401Y532D03*
X401Y497D03*
X301Y567D03*
X301Y532D03*
X301Y497D03*
X201Y567D03*
X201Y532D03*
X201Y497D03*
G54D15*
X951Y157D03*
G54D16*
X152Y595D02*
X176Y570D01*
D02*
X176Y570D02*
X182Y569D01*
D02*
X152Y606D02*
X152Y595D01*
D02*
X752Y557D02*
X727Y532D01*
D02*
X727Y532D02*
X721Y532D01*
D02*
X727Y682D02*
X751Y658D01*
D02*
X751Y658D02*
X752Y557D01*
D02*
X665Y682D02*
X727Y682D01*
G54D17*
D02*
X222Y57D02*
X180Y57D01*
D02*
X280Y57D02*
X322Y57D01*
D02*
X380Y57D02*
X422Y57D01*
D02*
X480Y57D02*
X522Y57D01*
D02*
X580Y57D02*
X622Y57D01*
D02*
X680Y57D02*
X722Y57D01*
D02*
X780Y57D02*
X822Y57D01*
D02*
X872Y78D02*
X930Y136D01*
G54D18*
D02*
X902Y457D02*
X928Y457D01*
D02*
X901Y208D02*
X902Y457D01*
D02*
X934Y175D02*
X901Y208D01*
G54D17*
D02*
X222Y1057D02*
X180Y1057D01*
D02*
X280Y1057D02*
X322Y1057D01*
D02*
X380Y1057D02*
X422Y1057D01*
D02*
X480Y1057D02*
X522Y1057D01*
D02*
X580Y1057D02*
X622Y1057D01*
D02*
X680Y1057D02*
X722Y1057D01*
D02*
X780Y1057D02*
X822Y1057D01*
G54D18*
D02*
X902Y1008D02*
X868Y1041D01*
D02*
X902Y457D02*
X902Y1008D01*
D02*
X928Y457D02*
X902Y457D01*
G54D16*
D02*
X165Y532D02*
X182Y532D01*
D02*
X265Y532D02*
X282Y532D01*
D02*
X365Y532D02*
X382Y532D01*
D02*
X465Y532D02*
X482Y532D01*
D02*
X565Y532D02*
X582Y532D01*
D02*
X682Y567D02*
X621Y567D01*
D02*
X582Y567D02*
X521Y567D01*
D02*
X482Y567D02*
X421Y567D01*
D02*
X382Y567D02*
X321Y567D01*
D02*
X282Y567D02*
X221Y567D01*
D02*
X621Y497D02*
X682Y497D01*
D02*
X582Y497D02*
X521Y497D01*
D02*
X482Y497D02*
X421Y497D01*
D02*
X382Y497D02*
X321Y497D01*
D02*
X282Y497D02*
X221Y497D01*
D02*
X751Y457D02*
X710Y490D01*
D02*
X902Y457D02*
X751Y457D01*
D02*
X901Y457D02*
X902Y457D01*
D02*
X928Y457D02*
X901Y457D01*
D02*
X614Y732D02*
X838Y732D01*
D02*
X588Y708D02*
X614Y732D01*
D02*
X588Y570D02*
X588Y708D01*
D02*
X682Y568D02*
X588Y570D01*
G54D18*
D02*
X101Y208D02*
X135Y174D01*
D02*
X101Y907D02*
X101Y208D01*
D02*
X135Y941D02*
X101Y907D01*
G54D16*
D02*
X851Y719D02*
X851Y521D01*
D02*
X902Y782D02*
X902Y1007D01*
D02*
X215Y758D02*
X239Y782D01*
D02*
X239Y782D02*
X902Y782D01*
D02*
X902Y1007D02*
X872Y1037D01*
G36*
X92Y1042D02*
X92Y1040D01*
X90Y1040D01*
X90Y1036D01*
X88Y1036D01*
X88Y1032D01*
X86Y1032D01*
X86Y1030D01*
X84Y1030D01*
X84Y1028D01*
X82Y1028D01*
X82Y1026D01*
X80Y1026D01*
X80Y1024D01*
X78Y1024D01*
X78Y1022D01*
X76Y1022D01*
X76Y1020D01*
X72Y1020D01*
X72Y1018D01*
X68Y1018D01*
X68Y996D01*
X72Y996D01*
X72Y994D01*
X76Y994D01*
X76Y992D01*
X78Y992D01*
X78Y990D01*
X80Y990D01*
X80Y988D01*
X82Y988D01*
X82Y986D01*
X84Y986D01*
X84Y984D01*
X86Y984D01*
X86Y982D01*
X88Y982D01*
X88Y978D01*
X90Y978D01*
X90Y974D01*
X112Y974D01*
X112Y978D01*
X114Y978D01*
X114Y980D01*
X116Y980D01*
X116Y984D01*
X118Y984D01*
X118Y986D01*
X120Y986D01*
X120Y988D01*
X122Y988D01*
X122Y990D01*
X124Y990D01*
X124Y992D01*
X126Y992D01*
X126Y994D01*
X130Y994D01*
X130Y996D01*
X134Y996D01*
X134Y998D01*
X136Y998D01*
X136Y1018D01*
X132Y1018D01*
X132Y1020D01*
X128Y1020D01*
X128Y1022D01*
X124Y1022D01*
X124Y1024D01*
X122Y1024D01*
X122Y1026D01*
X120Y1026D01*
X120Y1028D01*
X118Y1028D01*
X118Y1030D01*
X116Y1030D01*
X116Y1034D01*
X114Y1034D01*
X114Y1038D01*
X112Y1038D01*
X112Y1042D01*
X92Y1042D01*
G37*
D02*
G36*
X192Y1042D02*
X192Y1040D01*
X190Y1040D01*
X190Y1036D01*
X188Y1036D01*
X188Y1032D01*
X186Y1032D01*
X186Y1030D01*
X184Y1030D01*
X184Y1028D01*
X182Y1028D01*
X182Y1026D01*
X180Y1026D01*
X180Y1024D01*
X178Y1024D01*
X178Y1022D01*
X176Y1022D01*
X176Y1020D01*
X172Y1020D01*
X172Y1018D01*
X168Y1018D01*
X168Y996D01*
X172Y996D01*
X172Y994D01*
X176Y994D01*
X176Y992D01*
X178Y992D01*
X178Y990D01*
X180Y990D01*
X180Y988D01*
X182Y988D01*
X182Y986D01*
X184Y986D01*
X184Y984D01*
X186Y984D01*
X186Y982D01*
X188Y982D01*
X188Y978D01*
X190Y978D01*
X190Y974D01*
X212Y974D01*
X212Y978D01*
X214Y978D01*
X214Y980D01*
X216Y980D01*
X216Y984D01*
X218Y984D01*
X218Y986D01*
X220Y986D01*
X220Y988D01*
X222Y988D01*
X222Y990D01*
X224Y990D01*
X224Y992D01*
X226Y992D01*
X226Y994D01*
X230Y994D01*
X230Y996D01*
X234Y996D01*
X234Y998D01*
X236Y998D01*
X236Y1018D01*
X232Y1018D01*
X232Y1020D01*
X228Y1020D01*
X228Y1022D01*
X224Y1022D01*
X224Y1024D01*
X222Y1024D01*
X222Y1026D01*
X220Y1026D01*
X220Y1028D01*
X218Y1028D01*
X218Y1030D01*
X216Y1030D01*
X216Y1034D01*
X214Y1034D01*
X214Y1038D01*
X212Y1038D01*
X212Y1042D01*
X192Y1042D01*
G37*
D02*
G36*
X292Y1042D02*
X292Y1040D01*
X290Y1040D01*
X290Y1036D01*
X288Y1036D01*
X288Y1032D01*
X286Y1032D01*
X286Y1030D01*
X284Y1030D01*
X284Y1028D01*
X282Y1028D01*
X282Y1026D01*
X280Y1026D01*
X280Y1024D01*
X278Y1024D01*
X278Y1022D01*
X276Y1022D01*
X276Y1020D01*
X272Y1020D01*
X272Y1018D01*
X268Y1018D01*
X268Y996D01*
X272Y996D01*
X272Y994D01*
X276Y994D01*
X276Y992D01*
X278Y992D01*
X278Y990D01*
X280Y990D01*
X280Y988D01*
X282Y988D01*
X282Y986D01*
X284Y986D01*
X284Y984D01*
X286Y984D01*
X286Y982D01*
X288Y982D01*
X288Y978D01*
X290Y978D01*
X290Y974D01*
X312Y974D01*
X312Y978D01*
X314Y978D01*
X314Y980D01*
X316Y980D01*
X316Y984D01*
X318Y984D01*
X318Y986D01*
X320Y986D01*
X320Y988D01*
X322Y988D01*
X322Y990D01*
X324Y990D01*
X324Y992D01*
X326Y992D01*
X326Y994D01*
X330Y994D01*
X330Y996D01*
X334Y996D01*
X334Y998D01*
X336Y998D01*
X336Y1018D01*
X332Y1018D01*
X332Y1020D01*
X328Y1020D01*
X328Y1022D01*
X324Y1022D01*
X324Y1024D01*
X322Y1024D01*
X322Y1026D01*
X320Y1026D01*
X320Y1028D01*
X318Y1028D01*
X318Y1030D01*
X316Y1030D01*
X316Y1034D01*
X314Y1034D01*
X314Y1038D01*
X312Y1038D01*
X312Y1042D01*
X292Y1042D01*
G37*
D02*
G36*
X392Y1042D02*
X392Y1040D01*
X390Y1040D01*
X390Y1036D01*
X388Y1036D01*
X388Y1032D01*
X386Y1032D01*
X386Y1030D01*
X384Y1030D01*
X384Y1028D01*
X382Y1028D01*
X382Y1026D01*
X380Y1026D01*
X380Y1024D01*
X378Y1024D01*
X378Y1022D01*
X376Y1022D01*
X376Y1020D01*
X372Y1020D01*
X372Y1018D01*
X368Y1018D01*
X368Y996D01*
X372Y996D01*
X372Y994D01*
X376Y994D01*
X376Y992D01*
X378Y992D01*
X378Y990D01*
X380Y990D01*
X380Y988D01*
X382Y988D01*
X382Y986D01*
X384Y986D01*
X384Y984D01*
X386Y984D01*
X386Y982D01*
X388Y982D01*
X388Y978D01*
X390Y978D01*
X390Y974D01*
X412Y974D01*
X412Y978D01*
X414Y978D01*
X414Y980D01*
X416Y980D01*
X416Y984D01*
X418Y984D01*
X418Y986D01*
X420Y986D01*
X420Y988D01*
X422Y988D01*
X422Y990D01*
X424Y990D01*
X424Y992D01*
X426Y992D01*
X426Y994D01*
X430Y994D01*
X430Y996D01*
X434Y996D01*
X434Y998D01*
X436Y998D01*
X436Y1018D01*
X432Y1018D01*
X432Y1020D01*
X428Y1020D01*
X428Y1022D01*
X424Y1022D01*
X424Y1024D01*
X422Y1024D01*
X422Y1026D01*
X420Y1026D01*
X420Y1028D01*
X418Y1028D01*
X418Y1030D01*
X416Y1030D01*
X416Y1034D01*
X414Y1034D01*
X414Y1038D01*
X412Y1038D01*
X412Y1042D01*
X392Y1042D01*
G37*
D02*
G36*
X492Y1042D02*
X492Y1040D01*
X490Y1040D01*
X490Y1036D01*
X488Y1036D01*
X488Y1032D01*
X486Y1032D01*
X486Y1030D01*
X484Y1030D01*
X484Y1028D01*
X482Y1028D01*
X482Y1026D01*
X480Y1026D01*
X480Y1024D01*
X478Y1024D01*
X478Y1022D01*
X476Y1022D01*
X476Y1020D01*
X472Y1020D01*
X472Y1018D01*
X468Y1018D01*
X468Y996D01*
X472Y996D01*
X472Y994D01*
X476Y994D01*
X476Y992D01*
X478Y992D01*
X478Y990D01*
X480Y990D01*
X480Y988D01*
X482Y988D01*
X482Y986D01*
X484Y986D01*
X484Y984D01*
X486Y984D01*
X486Y982D01*
X488Y982D01*
X488Y978D01*
X490Y978D01*
X490Y974D01*
X512Y974D01*
X512Y978D01*
X514Y978D01*
X514Y980D01*
X516Y980D01*
X516Y984D01*
X518Y984D01*
X518Y986D01*
X520Y986D01*
X520Y988D01*
X522Y988D01*
X522Y990D01*
X524Y990D01*
X524Y992D01*
X526Y992D01*
X526Y994D01*
X530Y994D01*
X530Y996D01*
X534Y996D01*
X534Y998D01*
X536Y998D01*
X536Y1018D01*
X532Y1018D01*
X532Y1020D01*
X528Y1020D01*
X528Y1022D01*
X524Y1022D01*
X524Y1024D01*
X522Y1024D01*
X522Y1026D01*
X520Y1026D01*
X520Y1028D01*
X518Y1028D01*
X518Y1030D01*
X516Y1030D01*
X516Y1034D01*
X514Y1034D01*
X514Y1038D01*
X512Y1038D01*
X512Y1042D01*
X492Y1042D01*
G37*
D02*
G36*
X592Y1042D02*
X592Y1040D01*
X590Y1040D01*
X590Y1036D01*
X588Y1036D01*
X588Y1032D01*
X586Y1032D01*
X586Y1030D01*
X584Y1030D01*
X584Y1028D01*
X582Y1028D01*
X582Y1026D01*
X580Y1026D01*
X580Y1024D01*
X578Y1024D01*
X578Y1022D01*
X576Y1022D01*
X576Y1020D01*
X572Y1020D01*
X572Y1018D01*
X568Y1018D01*
X568Y996D01*
X572Y996D01*
X572Y994D01*
X576Y994D01*
X576Y992D01*
X578Y992D01*
X578Y990D01*
X580Y990D01*
X580Y988D01*
X582Y988D01*
X582Y986D01*
X584Y986D01*
X584Y984D01*
X586Y984D01*
X586Y982D01*
X588Y982D01*
X588Y978D01*
X590Y978D01*
X590Y974D01*
X612Y974D01*
X612Y978D01*
X614Y978D01*
X614Y980D01*
X616Y980D01*
X616Y984D01*
X618Y984D01*
X618Y986D01*
X620Y986D01*
X620Y988D01*
X622Y988D01*
X622Y990D01*
X624Y990D01*
X624Y992D01*
X626Y992D01*
X626Y994D01*
X630Y994D01*
X630Y996D01*
X634Y996D01*
X634Y998D01*
X636Y998D01*
X636Y1018D01*
X632Y1018D01*
X632Y1020D01*
X628Y1020D01*
X628Y1022D01*
X624Y1022D01*
X624Y1024D01*
X622Y1024D01*
X622Y1026D01*
X620Y1026D01*
X620Y1028D01*
X618Y1028D01*
X618Y1030D01*
X616Y1030D01*
X616Y1034D01*
X614Y1034D01*
X614Y1038D01*
X612Y1038D01*
X612Y1042D01*
X592Y1042D01*
G37*
D02*
G36*
X692Y1042D02*
X692Y1040D01*
X690Y1040D01*
X690Y1036D01*
X688Y1036D01*
X688Y1032D01*
X686Y1032D01*
X686Y1030D01*
X684Y1030D01*
X684Y1028D01*
X682Y1028D01*
X682Y1026D01*
X680Y1026D01*
X680Y1024D01*
X678Y1024D01*
X678Y1022D01*
X676Y1022D01*
X676Y1020D01*
X672Y1020D01*
X672Y1018D01*
X668Y1018D01*
X668Y996D01*
X672Y996D01*
X672Y994D01*
X676Y994D01*
X676Y992D01*
X678Y992D01*
X678Y990D01*
X680Y990D01*
X680Y988D01*
X682Y988D01*
X682Y986D01*
X684Y986D01*
X684Y984D01*
X686Y984D01*
X686Y982D01*
X688Y982D01*
X688Y978D01*
X690Y978D01*
X690Y974D01*
X712Y974D01*
X712Y978D01*
X714Y978D01*
X714Y980D01*
X716Y980D01*
X716Y984D01*
X718Y984D01*
X718Y986D01*
X720Y986D01*
X720Y988D01*
X722Y988D01*
X722Y990D01*
X724Y990D01*
X724Y992D01*
X726Y992D01*
X726Y994D01*
X730Y994D01*
X730Y996D01*
X734Y996D01*
X734Y998D01*
X736Y998D01*
X736Y1018D01*
X732Y1018D01*
X732Y1020D01*
X728Y1020D01*
X728Y1022D01*
X724Y1022D01*
X724Y1024D01*
X722Y1024D01*
X722Y1026D01*
X720Y1026D01*
X720Y1028D01*
X718Y1028D01*
X718Y1030D01*
X716Y1030D01*
X716Y1034D01*
X714Y1034D01*
X714Y1038D01*
X712Y1038D01*
X712Y1042D01*
X692Y1042D01*
G37*
D02*
G36*
X792Y1042D02*
X792Y1040D01*
X790Y1040D01*
X790Y1036D01*
X788Y1036D01*
X788Y1032D01*
X786Y1032D01*
X786Y1030D01*
X784Y1030D01*
X784Y1028D01*
X782Y1028D01*
X782Y1026D01*
X780Y1026D01*
X780Y1024D01*
X778Y1024D01*
X778Y1022D01*
X776Y1022D01*
X776Y1020D01*
X772Y1020D01*
X772Y1018D01*
X768Y1018D01*
X768Y996D01*
X772Y996D01*
X772Y994D01*
X776Y994D01*
X776Y992D01*
X778Y992D01*
X778Y990D01*
X780Y990D01*
X780Y988D01*
X782Y988D01*
X782Y986D01*
X784Y986D01*
X784Y984D01*
X786Y984D01*
X786Y982D01*
X788Y982D01*
X788Y978D01*
X790Y978D01*
X790Y974D01*
X812Y974D01*
X812Y978D01*
X814Y978D01*
X814Y980D01*
X816Y980D01*
X816Y984D01*
X818Y984D01*
X818Y986D01*
X820Y986D01*
X820Y988D01*
X822Y988D01*
X822Y990D01*
X824Y990D01*
X824Y992D01*
X826Y992D01*
X826Y994D01*
X830Y994D01*
X830Y996D01*
X834Y996D01*
X834Y998D01*
X836Y998D01*
X836Y1018D01*
X832Y1018D01*
X832Y1020D01*
X828Y1020D01*
X828Y1022D01*
X824Y1022D01*
X824Y1024D01*
X822Y1024D01*
X822Y1026D01*
X820Y1026D01*
X820Y1028D01*
X818Y1028D01*
X818Y1030D01*
X816Y1030D01*
X816Y1034D01*
X814Y1034D01*
X814Y1038D01*
X812Y1038D01*
X812Y1042D01*
X792Y1042D01*
G37*
D02*
G36*
X892Y1042D02*
X892Y1040D01*
X890Y1040D01*
X890Y1036D01*
X888Y1036D01*
X888Y1032D01*
X886Y1032D01*
X886Y1030D01*
X884Y1030D01*
X884Y1028D01*
X882Y1028D01*
X882Y1026D01*
X880Y1026D01*
X880Y1024D01*
X878Y1024D01*
X878Y1022D01*
X876Y1022D01*
X876Y1020D01*
X872Y1020D01*
X872Y1018D01*
X868Y1018D01*
X868Y996D01*
X872Y996D01*
X872Y994D01*
X876Y994D01*
X876Y992D01*
X878Y992D01*
X878Y990D01*
X880Y990D01*
X880Y988D01*
X882Y988D01*
X882Y986D01*
X884Y986D01*
X884Y984D01*
X886Y984D01*
X886Y982D01*
X888Y982D01*
X888Y978D01*
X890Y978D01*
X890Y974D01*
X912Y974D01*
X912Y978D01*
X914Y978D01*
X914Y980D01*
X916Y980D01*
X916Y984D01*
X918Y984D01*
X918Y986D01*
X920Y986D01*
X920Y988D01*
X922Y988D01*
X922Y990D01*
X924Y990D01*
X924Y992D01*
X926Y992D01*
X926Y994D01*
X930Y994D01*
X930Y996D01*
X934Y996D01*
X934Y998D01*
X936Y998D01*
X936Y1018D01*
X932Y1018D01*
X932Y1020D01*
X928Y1020D01*
X928Y1022D01*
X924Y1022D01*
X924Y1024D01*
X922Y1024D01*
X922Y1026D01*
X920Y1026D01*
X920Y1028D01*
X918Y1028D01*
X918Y1030D01*
X916Y1030D01*
X916Y1034D01*
X914Y1034D01*
X914Y1038D01*
X912Y1038D01*
X912Y1042D01*
X892Y1042D01*
G37*
D02*
G36*
X192Y942D02*
X192Y940D01*
X190Y940D01*
X190Y936D01*
X188Y936D01*
X188Y932D01*
X186Y932D01*
X186Y930D01*
X184Y930D01*
X184Y928D01*
X182Y928D01*
X182Y926D01*
X180Y926D01*
X180Y924D01*
X178Y924D01*
X178Y922D01*
X176Y922D01*
X176Y920D01*
X172Y920D01*
X172Y918D01*
X168Y918D01*
X168Y896D01*
X172Y896D01*
X172Y894D01*
X176Y894D01*
X176Y892D01*
X178Y892D01*
X178Y890D01*
X180Y890D01*
X180Y888D01*
X182Y888D01*
X182Y886D01*
X184Y886D01*
X184Y884D01*
X186Y884D01*
X186Y882D01*
X188Y882D01*
X188Y878D01*
X190Y878D01*
X190Y874D01*
X212Y874D01*
X212Y878D01*
X214Y878D01*
X214Y880D01*
X216Y880D01*
X216Y884D01*
X218Y884D01*
X218Y886D01*
X220Y886D01*
X220Y888D01*
X222Y888D01*
X222Y890D01*
X224Y890D01*
X224Y892D01*
X226Y892D01*
X226Y894D01*
X230Y894D01*
X230Y896D01*
X234Y896D01*
X234Y898D01*
X236Y898D01*
X236Y918D01*
X232Y918D01*
X232Y920D01*
X228Y920D01*
X228Y922D01*
X224Y922D01*
X224Y924D01*
X222Y924D01*
X222Y926D01*
X220Y926D01*
X220Y928D01*
X218Y928D01*
X218Y930D01*
X216Y930D01*
X216Y934D01*
X214Y934D01*
X214Y938D01*
X212Y938D01*
X212Y942D01*
X192Y942D01*
G37*
D02*
G36*
X292Y942D02*
X292Y940D01*
X290Y940D01*
X290Y936D01*
X288Y936D01*
X288Y932D01*
X286Y932D01*
X286Y930D01*
X284Y930D01*
X284Y928D01*
X282Y928D01*
X282Y926D01*
X280Y926D01*
X280Y924D01*
X278Y924D01*
X278Y922D01*
X276Y922D01*
X276Y920D01*
X272Y920D01*
X272Y918D01*
X268Y918D01*
X268Y896D01*
X272Y896D01*
X272Y894D01*
X276Y894D01*
X276Y892D01*
X278Y892D01*
X278Y890D01*
X280Y890D01*
X280Y888D01*
X282Y888D01*
X282Y886D01*
X284Y886D01*
X284Y884D01*
X286Y884D01*
X286Y882D01*
X288Y882D01*
X288Y878D01*
X290Y878D01*
X290Y874D01*
X312Y874D01*
X312Y878D01*
X314Y878D01*
X314Y880D01*
X316Y880D01*
X316Y884D01*
X318Y884D01*
X318Y886D01*
X320Y886D01*
X320Y888D01*
X322Y888D01*
X322Y890D01*
X324Y890D01*
X324Y892D01*
X326Y892D01*
X326Y894D01*
X330Y894D01*
X330Y896D01*
X334Y896D01*
X334Y898D01*
X336Y898D01*
X336Y918D01*
X332Y918D01*
X332Y920D01*
X328Y920D01*
X328Y922D01*
X324Y922D01*
X324Y924D01*
X322Y924D01*
X322Y926D01*
X320Y926D01*
X320Y928D01*
X318Y928D01*
X318Y930D01*
X316Y930D01*
X316Y934D01*
X314Y934D01*
X314Y938D01*
X312Y938D01*
X312Y942D01*
X292Y942D01*
G37*
D02*
G36*
X392Y942D02*
X392Y940D01*
X390Y940D01*
X390Y936D01*
X388Y936D01*
X388Y932D01*
X386Y932D01*
X386Y930D01*
X384Y930D01*
X384Y928D01*
X382Y928D01*
X382Y926D01*
X380Y926D01*
X380Y924D01*
X378Y924D01*
X378Y922D01*
X376Y922D01*
X376Y920D01*
X372Y920D01*
X372Y918D01*
X368Y918D01*
X368Y896D01*
X372Y896D01*
X372Y894D01*
X376Y894D01*
X376Y892D01*
X378Y892D01*
X378Y890D01*
X380Y890D01*
X380Y888D01*
X382Y888D01*
X382Y886D01*
X384Y886D01*
X384Y884D01*
X386Y884D01*
X386Y882D01*
X388Y882D01*
X388Y878D01*
X390Y878D01*
X390Y874D01*
X412Y874D01*
X412Y878D01*
X414Y878D01*
X414Y880D01*
X416Y880D01*
X416Y884D01*
X418Y884D01*
X418Y886D01*
X420Y886D01*
X420Y888D01*
X422Y888D01*
X422Y890D01*
X424Y890D01*
X424Y892D01*
X426Y892D01*
X426Y894D01*
X430Y894D01*
X430Y896D01*
X434Y896D01*
X434Y898D01*
X436Y898D01*
X436Y918D01*
X432Y918D01*
X432Y920D01*
X428Y920D01*
X428Y922D01*
X424Y922D01*
X424Y924D01*
X422Y924D01*
X422Y926D01*
X420Y926D01*
X420Y928D01*
X418Y928D01*
X418Y930D01*
X416Y930D01*
X416Y934D01*
X414Y934D01*
X414Y938D01*
X412Y938D01*
X412Y942D01*
X392Y942D01*
G37*
D02*
G36*
X492Y942D02*
X492Y940D01*
X490Y940D01*
X490Y936D01*
X488Y936D01*
X488Y932D01*
X486Y932D01*
X486Y930D01*
X484Y930D01*
X484Y928D01*
X482Y928D01*
X482Y926D01*
X480Y926D01*
X480Y924D01*
X478Y924D01*
X478Y922D01*
X476Y922D01*
X476Y920D01*
X472Y920D01*
X472Y918D01*
X468Y918D01*
X468Y896D01*
X472Y896D01*
X472Y894D01*
X476Y894D01*
X476Y892D01*
X478Y892D01*
X478Y890D01*
X480Y890D01*
X480Y888D01*
X482Y888D01*
X482Y886D01*
X484Y886D01*
X484Y884D01*
X486Y884D01*
X486Y882D01*
X488Y882D01*
X488Y878D01*
X490Y878D01*
X490Y874D01*
X512Y874D01*
X512Y878D01*
X514Y878D01*
X514Y880D01*
X516Y880D01*
X516Y884D01*
X518Y884D01*
X518Y886D01*
X520Y886D01*
X520Y888D01*
X522Y888D01*
X522Y890D01*
X524Y890D01*
X524Y892D01*
X526Y892D01*
X526Y894D01*
X530Y894D01*
X530Y896D01*
X534Y896D01*
X534Y898D01*
X536Y898D01*
X536Y918D01*
X532Y918D01*
X532Y920D01*
X528Y920D01*
X528Y922D01*
X524Y922D01*
X524Y924D01*
X522Y924D01*
X522Y926D01*
X520Y926D01*
X520Y928D01*
X518Y928D01*
X518Y930D01*
X516Y930D01*
X516Y934D01*
X514Y934D01*
X514Y938D01*
X512Y938D01*
X512Y942D01*
X492Y942D01*
G37*
D02*
G36*
X592Y942D02*
X592Y940D01*
X590Y940D01*
X590Y936D01*
X588Y936D01*
X588Y932D01*
X586Y932D01*
X586Y930D01*
X584Y930D01*
X584Y928D01*
X582Y928D01*
X582Y926D01*
X580Y926D01*
X580Y924D01*
X578Y924D01*
X578Y922D01*
X576Y922D01*
X576Y920D01*
X572Y920D01*
X572Y918D01*
X568Y918D01*
X568Y896D01*
X572Y896D01*
X572Y894D01*
X576Y894D01*
X576Y892D01*
X578Y892D01*
X578Y890D01*
X580Y890D01*
X580Y888D01*
X582Y888D01*
X582Y886D01*
X584Y886D01*
X584Y884D01*
X586Y884D01*
X586Y882D01*
X588Y882D01*
X588Y878D01*
X590Y878D01*
X590Y874D01*
X612Y874D01*
X612Y878D01*
X614Y878D01*
X614Y880D01*
X616Y880D01*
X616Y884D01*
X618Y884D01*
X618Y886D01*
X620Y886D01*
X620Y888D01*
X622Y888D01*
X622Y890D01*
X624Y890D01*
X624Y892D01*
X626Y892D01*
X626Y894D01*
X630Y894D01*
X630Y896D01*
X634Y896D01*
X634Y898D01*
X636Y898D01*
X636Y918D01*
X632Y918D01*
X632Y920D01*
X628Y920D01*
X628Y922D01*
X624Y922D01*
X624Y924D01*
X622Y924D01*
X622Y926D01*
X620Y926D01*
X620Y928D01*
X618Y928D01*
X618Y930D01*
X616Y930D01*
X616Y934D01*
X614Y934D01*
X614Y938D01*
X612Y938D01*
X612Y942D01*
X592Y942D01*
G37*
D02*
G36*
X692Y942D02*
X692Y940D01*
X690Y940D01*
X690Y936D01*
X688Y936D01*
X688Y932D01*
X686Y932D01*
X686Y930D01*
X684Y930D01*
X684Y928D01*
X682Y928D01*
X682Y926D01*
X680Y926D01*
X680Y924D01*
X678Y924D01*
X678Y922D01*
X676Y922D01*
X676Y920D01*
X672Y920D01*
X672Y918D01*
X668Y918D01*
X668Y896D01*
X672Y896D01*
X672Y894D01*
X676Y894D01*
X676Y892D01*
X678Y892D01*
X678Y890D01*
X680Y890D01*
X680Y888D01*
X682Y888D01*
X682Y886D01*
X684Y886D01*
X684Y884D01*
X686Y884D01*
X686Y882D01*
X688Y882D01*
X688Y878D01*
X690Y878D01*
X690Y874D01*
X712Y874D01*
X712Y878D01*
X714Y878D01*
X714Y880D01*
X716Y880D01*
X716Y884D01*
X718Y884D01*
X718Y886D01*
X720Y886D01*
X720Y888D01*
X722Y888D01*
X722Y890D01*
X724Y890D01*
X724Y892D01*
X726Y892D01*
X726Y894D01*
X730Y894D01*
X730Y896D01*
X734Y896D01*
X734Y898D01*
X736Y898D01*
X736Y918D01*
X732Y918D01*
X732Y920D01*
X728Y920D01*
X728Y922D01*
X724Y922D01*
X724Y924D01*
X722Y924D01*
X722Y926D01*
X720Y926D01*
X720Y928D01*
X718Y928D01*
X718Y930D01*
X716Y930D01*
X716Y934D01*
X714Y934D01*
X714Y938D01*
X712Y938D01*
X712Y942D01*
X692Y942D01*
G37*
D02*
G36*
X792Y942D02*
X792Y940D01*
X790Y940D01*
X790Y936D01*
X788Y936D01*
X788Y932D01*
X786Y932D01*
X786Y930D01*
X784Y930D01*
X784Y928D01*
X782Y928D01*
X782Y926D01*
X780Y926D01*
X780Y924D01*
X778Y924D01*
X778Y922D01*
X776Y922D01*
X776Y920D01*
X772Y920D01*
X772Y918D01*
X768Y918D01*
X768Y896D01*
X772Y896D01*
X772Y894D01*
X776Y894D01*
X776Y892D01*
X778Y892D01*
X778Y890D01*
X780Y890D01*
X780Y888D01*
X782Y888D01*
X782Y886D01*
X784Y886D01*
X784Y884D01*
X786Y884D01*
X786Y882D01*
X788Y882D01*
X788Y878D01*
X790Y878D01*
X790Y874D01*
X812Y874D01*
X812Y878D01*
X814Y878D01*
X814Y880D01*
X816Y880D01*
X816Y884D01*
X818Y884D01*
X818Y886D01*
X820Y886D01*
X820Y888D01*
X822Y888D01*
X822Y890D01*
X824Y890D01*
X824Y892D01*
X826Y892D01*
X826Y894D01*
X830Y894D01*
X830Y896D01*
X834Y896D01*
X834Y898D01*
X836Y898D01*
X836Y918D01*
X832Y918D01*
X832Y920D01*
X828Y920D01*
X828Y922D01*
X824Y922D01*
X824Y924D01*
X822Y924D01*
X822Y926D01*
X820Y926D01*
X820Y928D01*
X818Y928D01*
X818Y930D01*
X816Y930D01*
X816Y934D01*
X814Y934D01*
X814Y938D01*
X812Y938D01*
X812Y942D01*
X792Y942D01*
G37*
D02*
G36*
X892Y942D02*
X892Y940D01*
X890Y940D01*
X890Y936D01*
X888Y936D01*
X888Y932D01*
X886Y932D01*
X886Y930D01*
X884Y930D01*
X884Y928D01*
X882Y928D01*
X882Y926D01*
X880Y926D01*
X880Y924D01*
X878Y924D01*
X878Y922D01*
X876Y922D01*
X876Y920D01*
X872Y920D01*
X872Y918D01*
X868Y918D01*
X868Y896D01*
X872Y896D01*
X872Y894D01*
X876Y894D01*
X876Y892D01*
X878Y892D01*
X878Y890D01*
X880Y890D01*
X880Y888D01*
X882Y888D01*
X882Y886D01*
X884Y886D01*
X884Y884D01*
X886Y884D01*
X886Y882D01*
X888Y882D01*
X888Y878D01*
X890Y878D01*
X890Y874D01*
X912Y874D01*
X912Y878D01*
X914Y878D01*
X914Y880D01*
X916Y880D01*
X916Y884D01*
X918Y884D01*
X918Y886D01*
X920Y886D01*
X920Y888D01*
X922Y888D01*
X922Y890D01*
X924Y890D01*
X924Y892D01*
X926Y892D01*
X926Y894D01*
X930Y894D01*
X930Y896D01*
X934Y896D01*
X934Y898D01*
X936Y898D01*
X936Y918D01*
X932Y918D01*
X932Y920D01*
X928Y920D01*
X928Y922D01*
X924Y922D01*
X924Y924D01*
X922Y924D01*
X922Y926D01*
X920Y926D01*
X920Y928D01*
X918Y928D01*
X918Y930D01*
X916Y930D01*
X916Y934D01*
X914Y934D01*
X914Y938D01*
X912Y938D01*
X912Y942D01*
X892Y942D01*
G37*
D02*
G36*
X604Y674D02*
X604Y652D01*
X648Y652D01*
X648Y654D01*
X640Y654D01*
X640Y656D01*
X636Y656D01*
X636Y658D01*
X634Y658D01*
X634Y660D01*
X630Y660D01*
X630Y662D01*
X628Y662D01*
X628Y666D01*
X626Y666D01*
X626Y668D01*
X624Y668D01*
X624Y674D01*
X604Y674D01*
G37*
D02*
G36*
X676Y666D02*
X676Y664D01*
X674Y664D01*
X674Y662D01*
X672Y662D01*
X672Y660D01*
X670Y660D01*
X670Y658D01*
X666Y658D01*
X666Y656D01*
X664Y656D01*
X664Y654D01*
X656Y654D01*
X656Y652D01*
X734Y652D01*
X734Y654D01*
X732Y654D01*
X732Y656D01*
X730Y656D01*
X730Y658D01*
X728Y658D01*
X728Y660D01*
X726Y660D01*
X726Y662D01*
X724Y662D01*
X724Y664D01*
X722Y664D01*
X722Y666D01*
X676Y666D01*
G37*
D02*
G36*
X604Y652D02*
X604Y650D01*
X736Y650D01*
X736Y652D01*
X604Y652D01*
G37*
D02*
G36*
X604Y652D02*
X604Y650D01*
X736Y650D01*
X736Y652D01*
X604Y652D01*
G37*
D02*
G36*
X604Y650D02*
X604Y590D01*
X636Y590D01*
X636Y584D01*
X666Y584D01*
X666Y590D01*
X736Y590D01*
X736Y650D01*
X604Y650D01*
G37*
D02*
G36*
X192Y842D02*
X192Y840D01*
X190Y840D01*
X190Y836D01*
X188Y836D01*
X188Y832D01*
X186Y832D01*
X186Y830D01*
X184Y830D01*
X184Y828D01*
X182Y828D01*
X182Y826D01*
X180Y826D01*
X180Y824D01*
X178Y824D01*
X178Y822D01*
X176Y822D01*
X176Y820D01*
X172Y820D01*
X172Y818D01*
X168Y818D01*
X168Y816D01*
X162Y816D01*
X162Y814D01*
X242Y814D01*
X242Y816D01*
X236Y816D01*
X236Y818D01*
X232Y818D01*
X232Y820D01*
X228Y820D01*
X228Y822D01*
X224Y822D01*
X224Y824D01*
X222Y824D01*
X222Y826D01*
X220Y826D01*
X220Y828D01*
X218Y828D01*
X218Y830D01*
X216Y830D01*
X216Y834D01*
X214Y834D01*
X214Y838D01*
X212Y838D01*
X212Y842D01*
X192Y842D01*
G37*
D02*
G36*
X292Y842D02*
X292Y840D01*
X290Y840D01*
X290Y836D01*
X288Y836D01*
X288Y832D01*
X286Y832D01*
X286Y830D01*
X284Y830D01*
X284Y828D01*
X282Y828D01*
X282Y826D01*
X280Y826D01*
X280Y824D01*
X278Y824D01*
X278Y822D01*
X276Y822D01*
X276Y820D01*
X272Y820D01*
X272Y818D01*
X268Y818D01*
X268Y816D01*
X262Y816D01*
X262Y814D01*
X342Y814D01*
X342Y816D01*
X336Y816D01*
X336Y818D01*
X332Y818D01*
X332Y820D01*
X328Y820D01*
X328Y822D01*
X324Y822D01*
X324Y824D01*
X322Y824D01*
X322Y826D01*
X320Y826D01*
X320Y828D01*
X318Y828D01*
X318Y830D01*
X316Y830D01*
X316Y834D01*
X314Y834D01*
X314Y838D01*
X312Y838D01*
X312Y842D01*
X292Y842D01*
G37*
D02*
G36*
X392Y842D02*
X392Y840D01*
X390Y840D01*
X390Y836D01*
X388Y836D01*
X388Y832D01*
X386Y832D01*
X386Y830D01*
X384Y830D01*
X384Y828D01*
X382Y828D01*
X382Y826D01*
X380Y826D01*
X380Y824D01*
X378Y824D01*
X378Y822D01*
X376Y822D01*
X376Y820D01*
X372Y820D01*
X372Y818D01*
X368Y818D01*
X368Y816D01*
X362Y816D01*
X362Y814D01*
X442Y814D01*
X442Y816D01*
X436Y816D01*
X436Y818D01*
X432Y818D01*
X432Y820D01*
X428Y820D01*
X428Y822D01*
X424Y822D01*
X424Y824D01*
X422Y824D01*
X422Y826D01*
X420Y826D01*
X420Y828D01*
X418Y828D01*
X418Y830D01*
X416Y830D01*
X416Y834D01*
X414Y834D01*
X414Y838D01*
X412Y838D01*
X412Y842D01*
X392Y842D01*
G37*
D02*
G36*
X492Y842D02*
X492Y840D01*
X490Y840D01*
X490Y836D01*
X488Y836D01*
X488Y832D01*
X486Y832D01*
X486Y830D01*
X484Y830D01*
X484Y828D01*
X482Y828D01*
X482Y826D01*
X480Y826D01*
X480Y824D01*
X478Y824D01*
X478Y822D01*
X476Y822D01*
X476Y820D01*
X472Y820D01*
X472Y818D01*
X468Y818D01*
X468Y816D01*
X462Y816D01*
X462Y814D01*
X542Y814D01*
X542Y816D01*
X536Y816D01*
X536Y818D01*
X532Y818D01*
X532Y820D01*
X528Y820D01*
X528Y822D01*
X524Y822D01*
X524Y824D01*
X522Y824D01*
X522Y826D01*
X520Y826D01*
X520Y828D01*
X518Y828D01*
X518Y830D01*
X516Y830D01*
X516Y834D01*
X514Y834D01*
X514Y838D01*
X512Y838D01*
X512Y842D01*
X492Y842D01*
G37*
D02*
G36*
X592Y842D02*
X592Y840D01*
X590Y840D01*
X590Y836D01*
X588Y836D01*
X588Y832D01*
X586Y832D01*
X586Y830D01*
X584Y830D01*
X584Y828D01*
X582Y828D01*
X582Y826D01*
X580Y826D01*
X580Y824D01*
X578Y824D01*
X578Y822D01*
X576Y822D01*
X576Y820D01*
X572Y820D01*
X572Y818D01*
X568Y818D01*
X568Y816D01*
X562Y816D01*
X562Y814D01*
X642Y814D01*
X642Y816D01*
X636Y816D01*
X636Y818D01*
X632Y818D01*
X632Y820D01*
X628Y820D01*
X628Y822D01*
X624Y822D01*
X624Y824D01*
X622Y824D01*
X622Y826D01*
X620Y826D01*
X620Y828D01*
X618Y828D01*
X618Y830D01*
X616Y830D01*
X616Y834D01*
X614Y834D01*
X614Y838D01*
X612Y838D01*
X612Y842D01*
X592Y842D01*
G37*
D02*
G36*
X692Y842D02*
X692Y840D01*
X690Y840D01*
X690Y836D01*
X688Y836D01*
X688Y832D01*
X686Y832D01*
X686Y830D01*
X684Y830D01*
X684Y828D01*
X682Y828D01*
X682Y826D01*
X680Y826D01*
X680Y824D01*
X678Y824D01*
X678Y822D01*
X676Y822D01*
X676Y820D01*
X672Y820D01*
X672Y818D01*
X668Y818D01*
X668Y816D01*
X662Y816D01*
X662Y814D01*
X742Y814D01*
X742Y816D01*
X736Y816D01*
X736Y818D01*
X732Y818D01*
X732Y820D01*
X728Y820D01*
X728Y822D01*
X724Y822D01*
X724Y824D01*
X722Y824D01*
X722Y826D01*
X720Y826D01*
X720Y828D01*
X718Y828D01*
X718Y830D01*
X716Y830D01*
X716Y834D01*
X714Y834D01*
X714Y838D01*
X712Y838D01*
X712Y842D01*
X692Y842D01*
G37*
D02*
G36*
X792Y842D02*
X792Y840D01*
X790Y840D01*
X790Y836D01*
X788Y836D01*
X788Y832D01*
X786Y832D01*
X786Y830D01*
X784Y830D01*
X784Y828D01*
X782Y828D01*
X782Y826D01*
X780Y826D01*
X780Y824D01*
X778Y824D01*
X778Y822D01*
X776Y822D01*
X776Y820D01*
X772Y820D01*
X772Y818D01*
X768Y818D01*
X768Y816D01*
X762Y816D01*
X762Y814D01*
X842Y814D01*
X842Y816D01*
X836Y816D01*
X836Y818D01*
X832Y818D01*
X832Y820D01*
X828Y820D01*
X828Y822D01*
X824Y822D01*
X824Y824D01*
X822Y824D01*
X822Y826D01*
X820Y826D01*
X820Y828D01*
X818Y828D01*
X818Y830D01*
X816Y830D01*
X816Y834D01*
X814Y834D01*
X814Y838D01*
X812Y838D01*
X812Y842D01*
X792Y842D01*
G37*
D02*
G36*
X892Y842D02*
X892Y840D01*
X890Y840D01*
X890Y836D01*
X888Y836D01*
X888Y832D01*
X886Y832D01*
X886Y830D01*
X884Y830D01*
X884Y828D01*
X882Y828D01*
X882Y826D01*
X880Y826D01*
X880Y824D01*
X878Y824D01*
X878Y822D01*
X876Y822D01*
X876Y820D01*
X872Y820D01*
X872Y818D01*
X868Y818D01*
X868Y816D01*
X862Y816D01*
X862Y814D01*
X936Y814D01*
X936Y818D01*
X932Y818D01*
X932Y820D01*
X928Y820D01*
X928Y822D01*
X924Y822D01*
X924Y824D01*
X922Y824D01*
X922Y826D01*
X920Y826D01*
X920Y828D01*
X918Y828D01*
X918Y830D01*
X916Y830D01*
X916Y834D01*
X914Y834D01*
X914Y838D01*
X912Y838D01*
X912Y842D01*
X892Y842D01*
G37*
D02*
G36*
X120Y816D02*
X120Y814D01*
X142Y814D01*
X142Y816D01*
X120Y816D01*
G37*
D02*
G36*
X120Y814D02*
X120Y812D01*
X936Y812D01*
X936Y814D01*
X120Y814D01*
G37*
D02*
G36*
X120Y814D02*
X120Y812D01*
X936Y812D01*
X936Y814D01*
X120Y814D01*
G37*
D02*
G36*
X120Y814D02*
X120Y812D01*
X936Y812D01*
X936Y814D01*
X120Y814D01*
G37*
D02*
G36*
X120Y814D02*
X120Y812D01*
X936Y812D01*
X936Y814D01*
X120Y814D01*
G37*
D02*
G36*
X120Y814D02*
X120Y812D01*
X936Y812D01*
X936Y814D01*
X120Y814D01*
G37*
D02*
G36*
X120Y814D02*
X120Y812D01*
X936Y812D01*
X936Y814D01*
X120Y814D01*
G37*
D02*
G36*
X120Y814D02*
X120Y812D01*
X936Y812D01*
X936Y814D01*
X120Y814D01*
G37*
D02*
G36*
X120Y814D02*
X120Y812D01*
X936Y812D01*
X936Y814D01*
X120Y814D01*
G37*
D02*
G36*
X120Y814D02*
X120Y812D01*
X936Y812D01*
X936Y814D01*
X120Y814D01*
G37*
D02*
G36*
X120Y812D02*
X120Y778D01*
X118Y778D01*
X118Y774D01*
X210Y774D01*
X210Y772D01*
X214Y772D01*
X214Y770D01*
X218Y770D01*
X218Y768D01*
X220Y768D01*
X220Y766D01*
X222Y766D01*
X222Y764D01*
X224Y764D01*
X224Y762D01*
X858Y762D01*
X858Y760D01*
X864Y760D01*
X864Y758D01*
X868Y758D01*
X868Y756D01*
X870Y756D01*
X870Y754D01*
X872Y754D01*
X872Y752D01*
X874Y752D01*
X874Y750D01*
X876Y750D01*
X876Y746D01*
X878Y746D01*
X878Y742D01*
X880Y742D01*
X880Y722D01*
X878Y722D01*
X878Y718D01*
X876Y718D01*
X876Y714D01*
X874Y714D01*
X874Y712D01*
X872Y712D01*
X872Y710D01*
X870Y710D01*
X870Y708D01*
X868Y708D01*
X868Y530D01*
X872Y530D01*
X872Y528D01*
X874Y528D01*
X874Y524D01*
X876Y524D01*
X876Y522D01*
X878Y522D01*
X878Y518D01*
X880Y518D01*
X880Y496D01*
X878Y496D01*
X878Y492D01*
X876Y492D01*
X876Y490D01*
X874Y490D01*
X874Y488D01*
X872Y488D01*
X872Y486D01*
X870Y486D01*
X870Y484D01*
X868Y484D01*
X868Y482D01*
X864Y482D01*
X864Y480D01*
X860Y480D01*
X860Y478D01*
X914Y478D01*
X914Y480D01*
X916Y480D01*
X916Y484D01*
X918Y484D01*
X918Y486D01*
X920Y486D01*
X920Y488D01*
X922Y488D01*
X922Y490D01*
X924Y490D01*
X924Y492D01*
X926Y492D01*
X926Y494D01*
X930Y494D01*
X930Y496D01*
X934Y496D01*
X934Y498D01*
X936Y498D01*
X936Y518D01*
X932Y518D01*
X932Y520D01*
X928Y520D01*
X928Y522D01*
X924Y522D01*
X924Y524D01*
X922Y524D01*
X922Y526D01*
X920Y526D01*
X920Y528D01*
X918Y528D01*
X918Y530D01*
X916Y530D01*
X916Y534D01*
X914Y534D01*
X914Y538D01*
X912Y538D01*
X912Y542D01*
X910Y542D01*
X910Y548D01*
X908Y548D01*
X908Y566D01*
X910Y566D01*
X910Y574D01*
X912Y574D01*
X912Y578D01*
X914Y578D01*
X914Y580D01*
X916Y580D01*
X916Y584D01*
X918Y584D01*
X918Y586D01*
X920Y586D01*
X920Y588D01*
X922Y588D01*
X922Y590D01*
X924Y590D01*
X924Y592D01*
X926Y592D01*
X926Y594D01*
X930Y594D01*
X930Y596D01*
X934Y596D01*
X934Y598D01*
X936Y598D01*
X936Y618D01*
X932Y618D01*
X932Y620D01*
X928Y620D01*
X928Y622D01*
X924Y622D01*
X924Y624D01*
X922Y624D01*
X922Y626D01*
X920Y626D01*
X920Y628D01*
X918Y628D01*
X918Y630D01*
X916Y630D01*
X916Y634D01*
X914Y634D01*
X914Y638D01*
X912Y638D01*
X912Y642D01*
X910Y642D01*
X910Y648D01*
X908Y648D01*
X908Y666D01*
X910Y666D01*
X910Y674D01*
X912Y674D01*
X912Y678D01*
X914Y678D01*
X914Y680D01*
X916Y680D01*
X916Y684D01*
X918Y684D01*
X918Y686D01*
X920Y686D01*
X920Y688D01*
X922Y688D01*
X922Y690D01*
X924Y690D01*
X924Y692D01*
X926Y692D01*
X926Y694D01*
X930Y694D01*
X930Y696D01*
X934Y696D01*
X934Y698D01*
X936Y698D01*
X936Y718D01*
X932Y718D01*
X932Y720D01*
X928Y720D01*
X928Y722D01*
X924Y722D01*
X924Y724D01*
X922Y724D01*
X922Y726D01*
X920Y726D01*
X920Y728D01*
X918Y728D01*
X918Y730D01*
X916Y730D01*
X916Y734D01*
X914Y734D01*
X914Y738D01*
X912Y738D01*
X912Y742D01*
X910Y742D01*
X910Y748D01*
X908Y748D01*
X908Y766D01*
X910Y766D01*
X910Y774D01*
X912Y774D01*
X912Y778D01*
X914Y778D01*
X914Y780D01*
X916Y780D01*
X916Y784D01*
X918Y784D01*
X918Y786D01*
X920Y786D01*
X920Y788D01*
X922Y788D01*
X922Y790D01*
X924Y790D01*
X924Y792D01*
X926Y792D01*
X926Y794D01*
X930Y794D01*
X930Y796D01*
X934Y796D01*
X934Y798D01*
X936Y798D01*
X936Y812D01*
X120Y812D01*
G37*
D02*
G36*
X118Y774D02*
X118Y716D01*
X192Y716D01*
X192Y718D01*
X186Y718D01*
X186Y720D01*
X184Y720D01*
X184Y722D01*
X182Y722D01*
X182Y724D01*
X180Y724D01*
X180Y726D01*
X178Y726D01*
X178Y728D01*
X176Y728D01*
X176Y732D01*
X174Y732D01*
X174Y736D01*
X172Y736D01*
X172Y754D01*
X174Y754D01*
X174Y758D01*
X176Y758D01*
X176Y762D01*
X178Y762D01*
X178Y764D01*
X180Y764D01*
X180Y766D01*
X182Y766D01*
X182Y768D01*
X184Y768D01*
X184Y770D01*
X188Y770D01*
X188Y772D01*
X192Y772D01*
X192Y774D01*
X118Y774D01*
G37*
D02*
G36*
X226Y762D02*
X226Y760D01*
X228Y760D01*
X228Y756D01*
X230Y756D01*
X230Y734D01*
X228Y734D01*
X228Y730D01*
X226Y730D01*
X226Y728D01*
X224Y728D01*
X224Y724D01*
X222Y724D01*
X222Y722D01*
X218Y722D01*
X218Y720D01*
X216Y720D01*
X216Y718D01*
X212Y718D01*
X212Y716D01*
X576Y716D01*
X576Y718D01*
X578Y718D01*
X578Y720D01*
X580Y720D01*
X580Y722D01*
X582Y722D01*
X582Y724D01*
X584Y724D01*
X584Y726D01*
X586Y726D01*
X586Y728D01*
X588Y728D01*
X588Y730D01*
X590Y730D01*
X590Y732D01*
X592Y732D01*
X592Y734D01*
X594Y734D01*
X594Y736D01*
X596Y736D01*
X596Y738D01*
X598Y738D01*
X598Y740D01*
X600Y740D01*
X600Y742D01*
X602Y742D01*
X602Y744D01*
X604Y744D01*
X604Y746D01*
X608Y746D01*
X608Y748D01*
X826Y748D01*
X826Y750D01*
X828Y750D01*
X828Y752D01*
X830Y752D01*
X830Y754D01*
X832Y754D01*
X832Y756D01*
X836Y756D01*
X836Y758D01*
X838Y758D01*
X838Y760D01*
X844Y760D01*
X844Y762D01*
X226Y762D01*
G37*
D02*
G36*
X118Y716D02*
X118Y714D01*
X574Y714D01*
X574Y716D01*
X118Y716D01*
G37*
D02*
G36*
X118Y716D02*
X118Y714D01*
X574Y714D01*
X574Y716D01*
X118Y716D01*
G37*
D02*
G36*
X732Y716D02*
X732Y696D01*
X736Y696D01*
X736Y694D01*
X738Y694D01*
X738Y692D01*
X740Y692D01*
X740Y690D01*
X742Y690D01*
X742Y688D01*
X744Y688D01*
X744Y686D01*
X746Y686D01*
X746Y684D01*
X748Y684D01*
X748Y682D01*
X750Y682D01*
X750Y680D01*
X752Y680D01*
X752Y678D01*
X754Y678D01*
X754Y676D01*
X756Y676D01*
X756Y674D01*
X758Y674D01*
X758Y672D01*
X760Y672D01*
X760Y670D01*
X762Y670D01*
X762Y668D01*
X764Y668D01*
X764Y666D01*
X766Y666D01*
X766Y660D01*
X768Y660D01*
X768Y554D01*
X766Y554D01*
X766Y548D01*
X764Y548D01*
X764Y546D01*
X762Y546D01*
X762Y544D01*
X760Y544D01*
X760Y542D01*
X758Y542D01*
X758Y540D01*
X756Y540D01*
X756Y538D01*
X754Y538D01*
X754Y536D01*
X752Y536D01*
X752Y534D01*
X750Y534D01*
X750Y532D01*
X748Y532D01*
X748Y530D01*
X746Y530D01*
X746Y528D01*
X744Y528D01*
X744Y526D01*
X742Y526D01*
X742Y524D01*
X740Y524D01*
X740Y522D01*
X738Y522D01*
X738Y520D01*
X736Y520D01*
X736Y478D01*
X842Y478D01*
X842Y480D01*
X838Y480D01*
X838Y482D01*
X834Y482D01*
X834Y484D01*
X832Y484D01*
X832Y486D01*
X830Y486D01*
X830Y488D01*
X828Y488D01*
X828Y490D01*
X826Y490D01*
X826Y494D01*
X824Y494D01*
X824Y498D01*
X822Y498D01*
X822Y516D01*
X824Y516D01*
X824Y520D01*
X826Y520D01*
X826Y524D01*
X828Y524D01*
X828Y526D01*
X830Y526D01*
X830Y528D01*
X832Y528D01*
X832Y530D01*
X834Y530D01*
X834Y532D01*
X836Y532D01*
X836Y708D01*
X834Y708D01*
X834Y710D01*
X830Y710D01*
X830Y712D01*
X828Y712D01*
X828Y716D01*
X732Y716D01*
G37*
D02*
G36*
X118Y714D02*
X118Y650D01*
X154Y650D01*
X154Y648D01*
X162Y648D01*
X162Y646D01*
X166Y646D01*
X166Y644D01*
X170Y644D01*
X170Y642D01*
X172Y642D01*
X172Y640D01*
X174Y640D01*
X174Y638D01*
X176Y638D01*
X176Y634D01*
X178Y634D01*
X178Y630D01*
X180Y630D01*
X180Y610D01*
X178Y610D01*
X178Y590D01*
X536Y590D01*
X536Y584D01*
X566Y584D01*
X566Y590D01*
X572Y590D01*
X572Y712D01*
X574Y712D01*
X574Y714D01*
X118Y714D01*
G37*
D02*
G36*
X118Y650D02*
X118Y646D01*
X140Y646D01*
X140Y648D01*
X148Y648D01*
X148Y650D01*
X118Y650D01*
G37*
D02*
G36*
X236Y590D02*
X236Y584D01*
X266Y584D01*
X266Y590D01*
X236Y590D01*
G37*
D02*
G36*
X336Y590D02*
X336Y584D01*
X366Y584D01*
X366Y590D01*
X336Y590D01*
G37*
D02*
G36*
X436Y590D02*
X436Y584D01*
X466Y584D01*
X466Y590D01*
X436Y590D01*
G37*
D02*
G36*
X636Y552D02*
X636Y474D01*
X666Y474D01*
X666Y552D01*
X636Y552D01*
G37*
D02*
G36*
X118Y506D02*
X118Y474D01*
X166Y474D01*
X166Y502D01*
X148Y502D01*
X148Y504D01*
X140Y504D01*
X140Y506D01*
X118Y506D01*
G37*
D02*
G36*
X236Y502D02*
X236Y474D01*
X266Y474D01*
X266Y502D01*
X236Y502D01*
G37*
D02*
G36*
X336Y502D02*
X336Y474D01*
X366Y474D01*
X366Y502D01*
X336Y502D01*
G37*
D02*
G36*
X436Y502D02*
X436Y474D01*
X466Y474D01*
X466Y502D01*
X436Y502D01*
G37*
D02*
G36*
X536Y502D02*
X536Y474D01*
X566Y474D01*
X566Y502D01*
X536Y502D01*
G37*
D02*
G36*
X736Y478D02*
X736Y476D01*
X912Y476D01*
X912Y478D01*
X736Y478D01*
G37*
D02*
G36*
X736Y478D02*
X736Y476D01*
X912Y476D01*
X912Y478D01*
X736Y478D01*
G37*
D02*
G36*
X736Y476D02*
X736Y474D01*
X912Y474D01*
X912Y476D01*
X736Y476D01*
G37*
D02*
G36*
X118Y474D02*
X118Y472D01*
X910Y472D01*
X910Y474D01*
X118Y474D01*
G37*
D02*
G36*
X118Y474D02*
X118Y472D01*
X910Y472D01*
X910Y474D01*
X118Y474D01*
G37*
D02*
G36*
X118Y474D02*
X118Y472D01*
X910Y472D01*
X910Y474D01*
X118Y474D01*
G37*
D02*
G36*
X118Y474D02*
X118Y472D01*
X910Y472D01*
X910Y474D01*
X118Y474D01*
G37*
D02*
G36*
X118Y474D02*
X118Y472D01*
X910Y472D01*
X910Y474D01*
X118Y474D01*
G37*
D02*
G36*
X118Y474D02*
X118Y472D01*
X910Y472D01*
X910Y474D01*
X118Y474D01*
G37*
D02*
G36*
X118Y474D02*
X118Y472D01*
X910Y472D01*
X910Y474D01*
X118Y474D01*
G37*
D02*
G36*
X118Y472D02*
X118Y300D01*
X862Y300D01*
X862Y298D01*
X868Y298D01*
X868Y296D01*
X872Y296D01*
X872Y294D01*
X876Y294D01*
X876Y292D01*
X878Y292D01*
X878Y290D01*
X880Y290D01*
X880Y288D01*
X882Y288D01*
X882Y286D01*
X884Y286D01*
X884Y284D01*
X886Y284D01*
X886Y282D01*
X888Y282D01*
X888Y278D01*
X908Y278D01*
X908Y282D01*
X910Y282D01*
X910Y284D01*
X912Y284D01*
X912Y288D01*
X914Y288D01*
X914Y290D01*
X916Y290D01*
X916Y292D01*
X918Y292D01*
X918Y294D01*
X920Y294D01*
X920Y296D01*
X924Y296D01*
X924Y298D01*
X926Y298D01*
X926Y300D01*
X930Y300D01*
X930Y320D01*
X928Y320D01*
X928Y322D01*
X924Y322D01*
X924Y324D01*
X922Y324D01*
X922Y326D01*
X920Y326D01*
X920Y328D01*
X918Y328D01*
X918Y330D01*
X916Y330D01*
X916Y334D01*
X914Y334D01*
X914Y338D01*
X912Y338D01*
X912Y342D01*
X910Y342D01*
X910Y348D01*
X908Y348D01*
X908Y366D01*
X910Y366D01*
X910Y374D01*
X912Y374D01*
X912Y378D01*
X914Y378D01*
X914Y380D01*
X916Y380D01*
X916Y384D01*
X918Y384D01*
X918Y386D01*
X920Y386D01*
X920Y388D01*
X922Y388D01*
X922Y390D01*
X924Y390D01*
X924Y392D01*
X926Y392D01*
X926Y394D01*
X930Y394D01*
X930Y396D01*
X934Y396D01*
X934Y398D01*
X936Y398D01*
X936Y418D01*
X932Y418D01*
X932Y420D01*
X928Y420D01*
X928Y422D01*
X924Y422D01*
X924Y424D01*
X922Y424D01*
X922Y426D01*
X920Y426D01*
X920Y428D01*
X918Y428D01*
X918Y430D01*
X916Y430D01*
X916Y434D01*
X914Y434D01*
X914Y438D01*
X912Y438D01*
X912Y442D01*
X910Y442D01*
X910Y448D01*
X908Y448D01*
X908Y466D01*
X910Y466D01*
X910Y472D01*
X118Y472D01*
G37*
D02*
G36*
X118Y300D02*
X118Y298D01*
X140Y298D01*
X140Y300D01*
X118Y300D01*
G37*
D02*
G36*
X162Y300D02*
X162Y298D01*
X168Y298D01*
X168Y296D01*
X172Y296D01*
X172Y294D01*
X176Y294D01*
X176Y292D01*
X178Y292D01*
X178Y290D01*
X180Y290D01*
X180Y288D01*
X182Y288D01*
X182Y286D01*
X184Y286D01*
X184Y284D01*
X186Y284D01*
X186Y282D01*
X188Y282D01*
X188Y278D01*
X190Y278D01*
X190Y274D01*
X212Y274D01*
X212Y278D01*
X214Y278D01*
X214Y280D01*
X216Y280D01*
X216Y284D01*
X218Y284D01*
X218Y286D01*
X220Y286D01*
X220Y288D01*
X222Y288D01*
X222Y290D01*
X224Y290D01*
X224Y292D01*
X226Y292D01*
X226Y294D01*
X230Y294D01*
X230Y296D01*
X234Y296D01*
X234Y298D01*
X240Y298D01*
X240Y300D01*
X162Y300D01*
G37*
D02*
G36*
X262Y300D02*
X262Y298D01*
X268Y298D01*
X268Y296D01*
X272Y296D01*
X272Y294D01*
X276Y294D01*
X276Y292D01*
X278Y292D01*
X278Y290D01*
X280Y290D01*
X280Y288D01*
X282Y288D01*
X282Y286D01*
X284Y286D01*
X284Y284D01*
X286Y284D01*
X286Y282D01*
X288Y282D01*
X288Y278D01*
X290Y278D01*
X290Y274D01*
X312Y274D01*
X312Y278D01*
X314Y278D01*
X314Y280D01*
X316Y280D01*
X316Y284D01*
X318Y284D01*
X318Y286D01*
X320Y286D01*
X320Y288D01*
X322Y288D01*
X322Y290D01*
X324Y290D01*
X324Y292D01*
X326Y292D01*
X326Y294D01*
X330Y294D01*
X330Y296D01*
X334Y296D01*
X334Y298D01*
X340Y298D01*
X340Y300D01*
X262Y300D01*
G37*
D02*
G36*
X362Y300D02*
X362Y298D01*
X368Y298D01*
X368Y296D01*
X372Y296D01*
X372Y294D01*
X376Y294D01*
X376Y292D01*
X378Y292D01*
X378Y290D01*
X380Y290D01*
X380Y288D01*
X382Y288D01*
X382Y286D01*
X384Y286D01*
X384Y284D01*
X386Y284D01*
X386Y282D01*
X388Y282D01*
X388Y278D01*
X390Y278D01*
X390Y274D01*
X412Y274D01*
X412Y278D01*
X414Y278D01*
X414Y280D01*
X416Y280D01*
X416Y284D01*
X418Y284D01*
X418Y286D01*
X420Y286D01*
X420Y288D01*
X422Y288D01*
X422Y290D01*
X424Y290D01*
X424Y292D01*
X426Y292D01*
X426Y294D01*
X430Y294D01*
X430Y296D01*
X434Y296D01*
X434Y298D01*
X440Y298D01*
X440Y300D01*
X362Y300D01*
G37*
D02*
G36*
X462Y300D02*
X462Y298D01*
X468Y298D01*
X468Y296D01*
X472Y296D01*
X472Y294D01*
X476Y294D01*
X476Y292D01*
X478Y292D01*
X478Y290D01*
X480Y290D01*
X480Y288D01*
X482Y288D01*
X482Y286D01*
X484Y286D01*
X484Y284D01*
X486Y284D01*
X486Y282D01*
X488Y282D01*
X488Y278D01*
X490Y278D01*
X490Y274D01*
X512Y274D01*
X512Y278D01*
X514Y278D01*
X514Y280D01*
X516Y280D01*
X516Y284D01*
X518Y284D01*
X518Y286D01*
X520Y286D01*
X520Y288D01*
X522Y288D01*
X522Y290D01*
X524Y290D01*
X524Y292D01*
X526Y292D01*
X526Y294D01*
X530Y294D01*
X530Y296D01*
X534Y296D01*
X534Y298D01*
X540Y298D01*
X540Y300D01*
X462Y300D01*
G37*
D02*
G36*
X562Y300D02*
X562Y298D01*
X568Y298D01*
X568Y296D01*
X572Y296D01*
X572Y294D01*
X576Y294D01*
X576Y292D01*
X578Y292D01*
X578Y290D01*
X580Y290D01*
X580Y288D01*
X582Y288D01*
X582Y286D01*
X584Y286D01*
X584Y284D01*
X586Y284D01*
X586Y282D01*
X588Y282D01*
X588Y278D01*
X590Y278D01*
X590Y274D01*
X612Y274D01*
X612Y278D01*
X614Y278D01*
X614Y280D01*
X616Y280D01*
X616Y284D01*
X618Y284D01*
X618Y286D01*
X620Y286D01*
X620Y288D01*
X622Y288D01*
X622Y290D01*
X624Y290D01*
X624Y292D01*
X626Y292D01*
X626Y294D01*
X630Y294D01*
X630Y296D01*
X634Y296D01*
X634Y298D01*
X640Y298D01*
X640Y300D01*
X562Y300D01*
G37*
D02*
G36*
X662Y300D02*
X662Y298D01*
X668Y298D01*
X668Y296D01*
X672Y296D01*
X672Y294D01*
X676Y294D01*
X676Y292D01*
X678Y292D01*
X678Y290D01*
X680Y290D01*
X680Y288D01*
X682Y288D01*
X682Y286D01*
X684Y286D01*
X684Y284D01*
X686Y284D01*
X686Y282D01*
X688Y282D01*
X688Y278D01*
X690Y278D01*
X690Y274D01*
X712Y274D01*
X712Y278D01*
X714Y278D01*
X714Y280D01*
X716Y280D01*
X716Y284D01*
X718Y284D01*
X718Y286D01*
X720Y286D01*
X720Y288D01*
X722Y288D01*
X722Y290D01*
X724Y290D01*
X724Y292D01*
X726Y292D01*
X726Y294D01*
X730Y294D01*
X730Y296D01*
X734Y296D01*
X734Y298D01*
X740Y298D01*
X740Y300D01*
X662Y300D01*
G37*
D02*
G36*
X762Y300D02*
X762Y298D01*
X768Y298D01*
X768Y296D01*
X772Y296D01*
X772Y294D01*
X776Y294D01*
X776Y292D01*
X778Y292D01*
X778Y290D01*
X780Y290D01*
X780Y288D01*
X782Y288D01*
X782Y286D01*
X784Y286D01*
X784Y284D01*
X786Y284D01*
X786Y282D01*
X788Y282D01*
X788Y278D01*
X790Y278D01*
X790Y274D01*
X812Y274D01*
X812Y278D01*
X814Y278D01*
X814Y280D01*
X816Y280D01*
X816Y284D01*
X818Y284D01*
X818Y286D01*
X820Y286D01*
X820Y288D01*
X822Y288D01*
X822Y290D01*
X824Y290D01*
X824Y292D01*
X826Y292D01*
X826Y294D01*
X830Y294D01*
X830Y296D01*
X834Y296D01*
X834Y298D01*
X840Y298D01*
X840Y300D01*
X762Y300D01*
G37*
D02*
G36*
X192Y242D02*
X192Y240D01*
X190Y240D01*
X190Y236D01*
X188Y236D01*
X188Y232D01*
X186Y232D01*
X186Y230D01*
X184Y230D01*
X184Y228D01*
X182Y228D01*
X182Y226D01*
X180Y226D01*
X180Y224D01*
X178Y224D01*
X178Y222D01*
X176Y222D01*
X176Y220D01*
X172Y220D01*
X172Y218D01*
X168Y218D01*
X168Y196D01*
X172Y196D01*
X172Y194D01*
X176Y194D01*
X176Y192D01*
X178Y192D01*
X178Y190D01*
X180Y190D01*
X180Y188D01*
X182Y188D01*
X182Y186D01*
X184Y186D01*
X184Y184D01*
X186Y184D01*
X186Y182D01*
X188Y182D01*
X188Y178D01*
X190Y178D01*
X190Y174D01*
X212Y174D01*
X212Y178D01*
X214Y178D01*
X214Y180D01*
X216Y180D01*
X216Y184D01*
X218Y184D01*
X218Y186D01*
X220Y186D01*
X220Y188D01*
X222Y188D01*
X222Y190D01*
X224Y190D01*
X224Y192D01*
X226Y192D01*
X226Y194D01*
X230Y194D01*
X230Y196D01*
X234Y196D01*
X234Y198D01*
X236Y198D01*
X236Y218D01*
X232Y218D01*
X232Y220D01*
X228Y220D01*
X228Y222D01*
X224Y222D01*
X224Y224D01*
X222Y224D01*
X222Y226D01*
X220Y226D01*
X220Y228D01*
X218Y228D01*
X218Y230D01*
X216Y230D01*
X216Y234D01*
X214Y234D01*
X214Y238D01*
X212Y238D01*
X212Y242D01*
X192Y242D01*
G37*
D02*
G36*
X292Y242D02*
X292Y240D01*
X290Y240D01*
X290Y236D01*
X288Y236D01*
X288Y232D01*
X286Y232D01*
X286Y230D01*
X284Y230D01*
X284Y228D01*
X282Y228D01*
X282Y226D01*
X280Y226D01*
X280Y224D01*
X278Y224D01*
X278Y222D01*
X276Y222D01*
X276Y220D01*
X272Y220D01*
X272Y218D01*
X268Y218D01*
X268Y196D01*
X272Y196D01*
X272Y194D01*
X276Y194D01*
X276Y192D01*
X278Y192D01*
X278Y190D01*
X280Y190D01*
X280Y188D01*
X282Y188D01*
X282Y186D01*
X284Y186D01*
X284Y184D01*
X286Y184D01*
X286Y182D01*
X288Y182D01*
X288Y178D01*
X290Y178D01*
X290Y174D01*
X312Y174D01*
X312Y178D01*
X314Y178D01*
X314Y180D01*
X316Y180D01*
X316Y184D01*
X318Y184D01*
X318Y186D01*
X320Y186D01*
X320Y188D01*
X322Y188D01*
X322Y190D01*
X324Y190D01*
X324Y192D01*
X326Y192D01*
X326Y194D01*
X330Y194D01*
X330Y196D01*
X334Y196D01*
X334Y198D01*
X336Y198D01*
X336Y218D01*
X332Y218D01*
X332Y220D01*
X328Y220D01*
X328Y222D01*
X324Y222D01*
X324Y224D01*
X322Y224D01*
X322Y226D01*
X320Y226D01*
X320Y228D01*
X318Y228D01*
X318Y230D01*
X316Y230D01*
X316Y234D01*
X314Y234D01*
X314Y238D01*
X312Y238D01*
X312Y242D01*
X292Y242D01*
G37*
D02*
G36*
X392Y242D02*
X392Y240D01*
X390Y240D01*
X390Y236D01*
X388Y236D01*
X388Y232D01*
X386Y232D01*
X386Y230D01*
X384Y230D01*
X384Y228D01*
X382Y228D01*
X382Y226D01*
X380Y226D01*
X380Y224D01*
X378Y224D01*
X378Y222D01*
X376Y222D01*
X376Y220D01*
X372Y220D01*
X372Y218D01*
X368Y218D01*
X368Y196D01*
X372Y196D01*
X372Y194D01*
X376Y194D01*
X376Y192D01*
X378Y192D01*
X378Y190D01*
X380Y190D01*
X380Y188D01*
X382Y188D01*
X382Y186D01*
X384Y186D01*
X384Y184D01*
X386Y184D01*
X386Y182D01*
X388Y182D01*
X388Y178D01*
X390Y178D01*
X390Y174D01*
X412Y174D01*
X412Y178D01*
X414Y178D01*
X414Y180D01*
X416Y180D01*
X416Y184D01*
X418Y184D01*
X418Y186D01*
X420Y186D01*
X420Y188D01*
X422Y188D01*
X422Y190D01*
X424Y190D01*
X424Y192D01*
X426Y192D01*
X426Y194D01*
X430Y194D01*
X430Y196D01*
X434Y196D01*
X434Y198D01*
X436Y198D01*
X436Y218D01*
X432Y218D01*
X432Y220D01*
X428Y220D01*
X428Y222D01*
X424Y222D01*
X424Y224D01*
X422Y224D01*
X422Y226D01*
X420Y226D01*
X420Y228D01*
X418Y228D01*
X418Y230D01*
X416Y230D01*
X416Y234D01*
X414Y234D01*
X414Y238D01*
X412Y238D01*
X412Y242D01*
X392Y242D01*
G37*
D02*
G36*
X492Y242D02*
X492Y240D01*
X490Y240D01*
X490Y236D01*
X488Y236D01*
X488Y232D01*
X486Y232D01*
X486Y230D01*
X484Y230D01*
X484Y228D01*
X482Y228D01*
X482Y226D01*
X480Y226D01*
X480Y224D01*
X478Y224D01*
X478Y222D01*
X476Y222D01*
X476Y220D01*
X472Y220D01*
X472Y218D01*
X468Y218D01*
X468Y196D01*
X472Y196D01*
X472Y194D01*
X476Y194D01*
X476Y192D01*
X478Y192D01*
X478Y190D01*
X480Y190D01*
X480Y188D01*
X482Y188D01*
X482Y186D01*
X484Y186D01*
X484Y184D01*
X486Y184D01*
X486Y182D01*
X488Y182D01*
X488Y178D01*
X490Y178D01*
X490Y174D01*
X512Y174D01*
X512Y178D01*
X514Y178D01*
X514Y180D01*
X516Y180D01*
X516Y184D01*
X518Y184D01*
X518Y186D01*
X520Y186D01*
X520Y188D01*
X522Y188D01*
X522Y190D01*
X524Y190D01*
X524Y192D01*
X526Y192D01*
X526Y194D01*
X530Y194D01*
X530Y196D01*
X534Y196D01*
X534Y198D01*
X536Y198D01*
X536Y218D01*
X532Y218D01*
X532Y220D01*
X528Y220D01*
X528Y222D01*
X524Y222D01*
X524Y224D01*
X522Y224D01*
X522Y226D01*
X520Y226D01*
X520Y228D01*
X518Y228D01*
X518Y230D01*
X516Y230D01*
X516Y234D01*
X514Y234D01*
X514Y238D01*
X512Y238D01*
X512Y242D01*
X492Y242D01*
G37*
D02*
G36*
X592Y242D02*
X592Y240D01*
X590Y240D01*
X590Y236D01*
X588Y236D01*
X588Y232D01*
X586Y232D01*
X586Y230D01*
X584Y230D01*
X584Y228D01*
X582Y228D01*
X582Y226D01*
X580Y226D01*
X580Y224D01*
X578Y224D01*
X578Y222D01*
X576Y222D01*
X576Y220D01*
X572Y220D01*
X572Y218D01*
X568Y218D01*
X568Y196D01*
X572Y196D01*
X572Y194D01*
X576Y194D01*
X576Y192D01*
X578Y192D01*
X578Y190D01*
X580Y190D01*
X580Y188D01*
X582Y188D01*
X582Y186D01*
X584Y186D01*
X584Y184D01*
X586Y184D01*
X586Y182D01*
X588Y182D01*
X588Y178D01*
X590Y178D01*
X590Y174D01*
X612Y174D01*
X612Y178D01*
X614Y178D01*
X614Y180D01*
X616Y180D01*
X616Y184D01*
X618Y184D01*
X618Y186D01*
X620Y186D01*
X620Y188D01*
X622Y188D01*
X622Y190D01*
X624Y190D01*
X624Y192D01*
X626Y192D01*
X626Y194D01*
X630Y194D01*
X630Y196D01*
X634Y196D01*
X634Y198D01*
X636Y198D01*
X636Y218D01*
X632Y218D01*
X632Y220D01*
X628Y220D01*
X628Y222D01*
X624Y222D01*
X624Y224D01*
X622Y224D01*
X622Y226D01*
X620Y226D01*
X620Y228D01*
X618Y228D01*
X618Y230D01*
X616Y230D01*
X616Y234D01*
X614Y234D01*
X614Y238D01*
X612Y238D01*
X612Y242D01*
X592Y242D01*
G37*
D02*
G36*
X692Y242D02*
X692Y240D01*
X690Y240D01*
X690Y236D01*
X688Y236D01*
X688Y232D01*
X686Y232D01*
X686Y230D01*
X684Y230D01*
X684Y228D01*
X682Y228D01*
X682Y226D01*
X680Y226D01*
X680Y224D01*
X678Y224D01*
X678Y222D01*
X676Y222D01*
X676Y220D01*
X672Y220D01*
X672Y218D01*
X668Y218D01*
X668Y196D01*
X672Y196D01*
X672Y194D01*
X676Y194D01*
X676Y192D01*
X678Y192D01*
X678Y190D01*
X680Y190D01*
X680Y188D01*
X682Y188D01*
X682Y186D01*
X684Y186D01*
X684Y184D01*
X686Y184D01*
X686Y182D01*
X688Y182D01*
X688Y178D01*
X690Y178D01*
X690Y174D01*
X712Y174D01*
X712Y178D01*
X714Y178D01*
X714Y180D01*
X716Y180D01*
X716Y184D01*
X718Y184D01*
X718Y186D01*
X720Y186D01*
X720Y188D01*
X722Y188D01*
X722Y190D01*
X724Y190D01*
X724Y192D01*
X726Y192D01*
X726Y194D01*
X730Y194D01*
X730Y196D01*
X734Y196D01*
X734Y198D01*
X736Y198D01*
X736Y218D01*
X732Y218D01*
X732Y220D01*
X728Y220D01*
X728Y222D01*
X724Y222D01*
X724Y224D01*
X722Y224D01*
X722Y226D01*
X720Y226D01*
X720Y228D01*
X718Y228D01*
X718Y230D01*
X716Y230D01*
X716Y234D01*
X714Y234D01*
X714Y238D01*
X712Y238D01*
X712Y242D01*
X692Y242D01*
G37*
D02*
G36*
X792Y242D02*
X792Y240D01*
X790Y240D01*
X790Y236D01*
X788Y236D01*
X788Y232D01*
X786Y232D01*
X786Y230D01*
X784Y230D01*
X784Y228D01*
X782Y228D01*
X782Y226D01*
X780Y226D01*
X780Y224D01*
X778Y224D01*
X778Y222D01*
X776Y222D01*
X776Y220D01*
X772Y220D01*
X772Y218D01*
X768Y218D01*
X768Y196D01*
X772Y196D01*
X772Y194D01*
X776Y194D01*
X776Y192D01*
X778Y192D01*
X778Y190D01*
X780Y190D01*
X780Y188D01*
X782Y188D01*
X782Y186D01*
X784Y186D01*
X784Y184D01*
X786Y184D01*
X786Y182D01*
X788Y182D01*
X788Y178D01*
X790Y178D01*
X790Y174D01*
X812Y174D01*
X812Y178D01*
X814Y178D01*
X814Y180D01*
X816Y180D01*
X816Y184D01*
X818Y184D01*
X818Y186D01*
X820Y186D01*
X820Y188D01*
X822Y188D01*
X822Y190D01*
X824Y190D01*
X824Y192D01*
X826Y192D01*
X826Y194D01*
X830Y194D01*
X830Y196D01*
X834Y196D01*
X834Y198D01*
X836Y198D01*
X836Y218D01*
X832Y218D01*
X832Y220D01*
X828Y220D01*
X828Y222D01*
X824Y222D01*
X824Y224D01*
X822Y224D01*
X822Y226D01*
X820Y226D01*
X820Y228D01*
X818Y228D01*
X818Y230D01*
X816Y230D01*
X816Y234D01*
X814Y234D01*
X814Y238D01*
X812Y238D01*
X812Y242D01*
X792Y242D01*
G37*
D02*
G36*
X888Y236D02*
X888Y232D01*
X886Y232D01*
X886Y230D01*
X884Y230D01*
X884Y228D01*
X882Y228D01*
X882Y226D01*
X880Y226D01*
X880Y224D01*
X878Y224D01*
X878Y222D01*
X876Y222D01*
X876Y220D01*
X872Y220D01*
X872Y218D01*
X868Y218D01*
X868Y196D01*
X872Y196D01*
X872Y194D01*
X876Y194D01*
X876Y192D01*
X878Y192D01*
X878Y190D01*
X880Y190D01*
X880Y188D01*
X882Y188D01*
X882Y186D01*
X902Y186D01*
X902Y206D01*
X914Y206D01*
X914Y228D01*
X912Y228D01*
X912Y230D01*
X910Y230D01*
X910Y234D01*
X908Y234D01*
X908Y236D01*
X888Y236D01*
G37*
D02*
G36*
X192Y142D02*
X192Y140D01*
X190Y140D01*
X190Y136D01*
X188Y136D01*
X188Y132D01*
X186Y132D01*
X186Y130D01*
X184Y130D01*
X184Y128D01*
X182Y128D01*
X182Y126D01*
X180Y126D01*
X180Y124D01*
X178Y124D01*
X178Y122D01*
X176Y122D01*
X176Y120D01*
X172Y120D01*
X172Y118D01*
X168Y118D01*
X168Y96D01*
X172Y96D01*
X172Y94D01*
X176Y94D01*
X176Y92D01*
X178Y92D01*
X178Y90D01*
X180Y90D01*
X180Y88D01*
X182Y88D01*
X182Y86D01*
X184Y86D01*
X184Y84D01*
X186Y84D01*
X186Y82D01*
X188Y82D01*
X188Y78D01*
X190Y78D01*
X190Y74D01*
X212Y74D01*
X212Y78D01*
X214Y78D01*
X214Y80D01*
X216Y80D01*
X216Y84D01*
X218Y84D01*
X218Y86D01*
X220Y86D01*
X220Y88D01*
X222Y88D01*
X222Y90D01*
X224Y90D01*
X224Y92D01*
X226Y92D01*
X226Y94D01*
X230Y94D01*
X230Y96D01*
X234Y96D01*
X234Y98D01*
X236Y98D01*
X236Y118D01*
X232Y118D01*
X232Y120D01*
X228Y120D01*
X228Y122D01*
X224Y122D01*
X224Y124D01*
X222Y124D01*
X222Y126D01*
X220Y126D01*
X220Y128D01*
X218Y128D01*
X218Y130D01*
X216Y130D01*
X216Y134D01*
X214Y134D01*
X214Y138D01*
X212Y138D01*
X212Y142D01*
X192Y142D01*
G37*
D02*
G36*
X292Y142D02*
X292Y140D01*
X290Y140D01*
X290Y136D01*
X288Y136D01*
X288Y132D01*
X286Y132D01*
X286Y130D01*
X284Y130D01*
X284Y128D01*
X282Y128D01*
X282Y126D01*
X280Y126D01*
X280Y124D01*
X278Y124D01*
X278Y122D01*
X276Y122D01*
X276Y120D01*
X272Y120D01*
X272Y118D01*
X268Y118D01*
X268Y96D01*
X272Y96D01*
X272Y94D01*
X276Y94D01*
X276Y92D01*
X278Y92D01*
X278Y90D01*
X280Y90D01*
X280Y88D01*
X282Y88D01*
X282Y86D01*
X284Y86D01*
X284Y84D01*
X286Y84D01*
X286Y82D01*
X288Y82D01*
X288Y78D01*
X290Y78D01*
X290Y74D01*
X312Y74D01*
X312Y78D01*
X314Y78D01*
X314Y80D01*
X316Y80D01*
X316Y84D01*
X318Y84D01*
X318Y86D01*
X320Y86D01*
X320Y88D01*
X322Y88D01*
X322Y90D01*
X324Y90D01*
X324Y92D01*
X326Y92D01*
X326Y94D01*
X330Y94D01*
X330Y96D01*
X334Y96D01*
X334Y98D01*
X336Y98D01*
X336Y118D01*
X332Y118D01*
X332Y120D01*
X328Y120D01*
X328Y122D01*
X324Y122D01*
X324Y124D01*
X322Y124D01*
X322Y126D01*
X320Y126D01*
X320Y128D01*
X318Y128D01*
X318Y130D01*
X316Y130D01*
X316Y134D01*
X314Y134D01*
X314Y138D01*
X312Y138D01*
X312Y142D01*
X292Y142D01*
G37*
D02*
G36*
X392Y142D02*
X392Y140D01*
X390Y140D01*
X390Y136D01*
X388Y136D01*
X388Y132D01*
X386Y132D01*
X386Y130D01*
X384Y130D01*
X384Y128D01*
X382Y128D01*
X382Y126D01*
X380Y126D01*
X380Y124D01*
X378Y124D01*
X378Y122D01*
X376Y122D01*
X376Y120D01*
X372Y120D01*
X372Y118D01*
X368Y118D01*
X368Y96D01*
X372Y96D01*
X372Y94D01*
X376Y94D01*
X376Y92D01*
X378Y92D01*
X378Y90D01*
X380Y90D01*
X380Y88D01*
X382Y88D01*
X382Y86D01*
X384Y86D01*
X384Y84D01*
X386Y84D01*
X386Y82D01*
X388Y82D01*
X388Y78D01*
X390Y78D01*
X390Y74D01*
X412Y74D01*
X412Y78D01*
X414Y78D01*
X414Y80D01*
X416Y80D01*
X416Y84D01*
X418Y84D01*
X418Y86D01*
X420Y86D01*
X420Y88D01*
X422Y88D01*
X422Y90D01*
X424Y90D01*
X424Y92D01*
X426Y92D01*
X426Y94D01*
X430Y94D01*
X430Y96D01*
X434Y96D01*
X434Y98D01*
X436Y98D01*
X436Y118D01*
X432Y118D01*
X432Y120D01*
X428Y120D01*
X428Y122D01*
X424Y122D01*
X424Y124D01*
X422Y124D01*
X422Y126D01*
X420Y126D01*
X420Y128D01*
X418Y128D01*
X418Y130D01*
X416Y130D01*
X416Y134D01*
X414Y134D01*
X414Y138D01*
X412Y138D01*
X412Y142D01*
X392Y142D01*
G37*
D02*
G36*
X492Y142D02*
X492Y140D01*
X490Y140D01*
X490Y136D01*
X488Y136D01*
X488Y132D01*
X486Y132D01*
X486Y130D01*
X484Y130D01*
X484Y128D01*
X482Y128D01*
X482Y126D01*
X480Y126D01*
X480Y124D01*
X478Y124D01*
X478Y122D01*
X476Y122D01*
X476Y120D01*
X472Y120D01*
X472Y118D01*
X468Y118D01*
X468Y96D01*
X472Y96D01*
X472Y94D01*
X476Y94D01*
X476Y92D01*
X478Y92D01*
X478Y90D01*
X480Y90D01*
X480Y88D01*
X482Y88D01*
X482Y86D01*
X484Y86D01*
X484Y84D01*
X486Y84D01*
X486Y82D01*
X488Y82D01*
X488Y78D01*
X490Y78D01*
X490Y74D01*
X512Y74D01*
X512Y78D01*
X514Y78D01*
X514Y80D01*
X516Y80D01*
X516Y84D01*
X518Y84D01*
X518Y86D01*
X520Y86D01*
X520Y88D01*
X522Y88D01*
X522Y90D01*
X524Y90D01*
X524Y92D01*
X526Y92D01*
X526Y94D01*
X530Y94D01*
X530Y96D01*
X534Y96D01*
X534Y98D01*
X536Y98D01*
X536Y118D01*
X532Y118D01*
X532Y120D01*
X528Y120D01*
X528Y122D01*
X524Y122D01*
X524Y124D01*
X522Y124D01*
X522Y126D01*
X520Y126D01*
X520Y128D01*
X518Y128D01*
X518Y130D01*
X516Y130D01*
X516Y134D01*
X514Y134D01*
X514Y138D01*
X512Y138D01*
X512Y142D01*
X492Y142D01*
G37*
D02*
G36*
X592Y142D02*
X592Y140D01*
X590Y140D01*
X590Y136D01*
X588Y136D01*
X588Y132D01*
X586Y132D01*
X586Y130D01*
X584Y130D01*
X584Y128D01*
X582Y128D01*
X582Y126D01*
X580Y126D01*
X580Y124D01*
X578Y124D01*
X578Y122D01*
X576Y122D01*
X576Y120D01*
X572Y120D01*
X572Y118D01*
X568Y118D01*
X568Y96D01*
X572Y96D01*
X572Y94D01*
X576Y94D01*
X576Y92D01*
X578Y92D01*
X578Y90D01*
X580Y90D01*
X580Y88D01*
X582Y88D01*
X582Y86D01*
X584Y86D01*
X584Y84D01*
X586Y84D01*
X586Y82D01*
X588Y82D01*
X588Y78D01*
X590Y78D01*
X590Y74D01*
X612Y74D01*
X612Y78D01*
X614Y78D01*
X614Y80D01*
X616Y80D01*
X616Y84D01*
X618Y84D01*
X618Y86D01*
X620Y86D01*
X620Y88D01*
X622Y88D01*
X622Y90D01*
X624Y90D01*
X624Y92D01*
X626Y92D01*
X626Y94D01*
X630Y94D01*
X630Y96D01*
X634Y96D01*
X634Y98D01*
X636Y98D01*
X636Y118D01*
X632Y118D01*
X632Y120D01*
X628Y120D01*
X628Y122D01*
X624Y122D01*
X624Y124D01*
X622Y124D01*
X622Y126D01*
X620Y126D01*
X620Y128D01*
X618Y128D01*
X618Y130D01*
X616Y130D01*
X616Y134D01*
X614Y134D01*
X614Y138D01*
X612Y138D01*
X612Y142D01*
X592Y142D01*
G37*
D02*
G36*
X692Y142D02*
X692Y140D01*
X690Y140D01*
X690Y136D01*
X688Y136D01*
X688Y132D01*
X686Y132D01*
X686Y130D01*
X684Y130D01*
X684Y128D01*
X682Y128D01*
X682Y126D01*
X680Y126D01*
X680Y124D01*
X678Y124D01*
X678Y122D01*
X676Y122D01*
X676Y120D01*
X672Y120D01*
X672Y118D01*
X668Y118D01*
X668Y96D01*
X672Y96D01*
X672Y94D01*
X676Y94D01*
X676Y92D01*
X678Y92D01*
X678Y90D01*
X680Y90D01*
X680Y88D01*
X682Y88D01*
X682Y86D01*
X684Y86D01*
X684Y84D01*
X686Y84D01*
X686Y82D01*
X688Y82D01*
X688Y78D01*
X690Y78D01*
X690Y74D01*
X712Y74D01*
X712Y78D01*
X714Y78D01*
X714Y80D01*
X716Y80D01*
X716Y84D01*
X718Y84D01*
X718Y86D01*
X720Y86D01*
X720Y88D01*
X722Y88D01*
X722Y90D01*
X724Y90D01*
X724Y92D01*
X726Y92D01*
X726Y94D01*
X730Y94D01*
X730Y96D01*
X734Y96D01*
X734Y98D01*
X736Y98D01*
X736Y118D01*
X732Y118D01*
X732Y120D01*
X728Y120D01*
X728Y122D01*
X724Y122D01*
X724Y124D01*
X722Y124D01*
X722Y126D01*
X720Y126D01*
X720Y128D01*
X718Y128D01*
X718Y130D01*
X716Y130D01*
X716Y134D01*
X714Y134D01*
X714Y138D01*
X712Y138D01*
X712Y142D01*
X692Y142D01*
G37*
D02*
G36*
X792Y142D02*
X792Y140D01*
X790Y140D01*
X790Y136D01*
X788Y136D01*
X788Y132D01*
X786Y132D01*
X786Y130D01*
X784Y130D01*
X784Y128D01*
X782Y128D01*
X782Y126D01*
X780Y126D01*
X780Y124D01*
X778Y124D01*
X778Y122D01*
X776Y122D01*
X776Y120D01*
X772Y120D01*
X772Y118D01*
X768Y118D01*
X768Y96D01*
X772Y96D01*
X772Y94D01*
X776Y94D01*
X776Y92D01*
X778Y92D01*
X778Y90D01*
X780Y90D01*
X780Y88D01*
X782Y88D01*
X782Y86D01*
X784Y86D01*
X784Y84D01*
X786Y84D01*
X786Y82D01*
X788Y82D01*
X788Y78D01*
X790Y78D01*
X790Y74D01*
X812Y74D01*
X812Y78D01*
X814Y78D01*
X814Y80D01*
X816Y80D01*
X816Y84D01*
X818Y84D01*
X818Y86D01*
X820Y86D01*
X820Y88D01*
X822Y88D01*
X822Y90D01*
X824Y90D01*
X824Y92D01*
X826Y92D01*
X826Y94D01*
X830Y94D01*
X830Y96D01*
X834Y96D01*
X834Y98D01*
X836Y98D01*
X836Y118D01*
X832Y118D01*
X832Y120D01*
X828Y120D01*
X828Y122D01*
X824Y122D01*
X824Y124D01*
X822Y124D01*
X822Y126D01*
X820Y126D01*
X820Y128D01*
X818Y128D01*
X818Y130D01*
X816Y130D01*
X816Y134D01*
X814Y134D01*
X814Y138D01*
X812Y138D01*
X812Y142D01*
X792Y142D01*
G37*
D02*
G36*
X882Y128D02*
X882Y126D01*
X880Y126D01*
X880Y124D01*
X878Y124D01*
X878Y122D01*
X876Y122D01*
X876Y120D01*
X872Y120D01*
X872Y118D01*
X868Y118D01*
X868Y96D01*
X872Y96D01*
X872Y94D01*
X876Y94D01*
X876Y92D01*
X878Y92D01*
X878Y90D01*
X880Y90D01*
X880Y88D01*
X882Y88D01*
X882Y86D01*
X884Y86D01*
X884Y84D01*
X886Y84D01*
X886Y82D01*
X888Y82D01*
X888Y78D01*
X890Y78D01*
X890Y74D01*
X892Y74D01*
X892Y68D01*
X894Y68D01*
X894Y40D01*
X918Y40D01*
X918Y66D01*
X920Y66D01*
X920Y72D01*
X922Y72D01*
X922Y74D01*
X924Y74D01*
X924Y78D01*
X926Y78D01*
X926Y80D01*
X928Y80D01*
X928Y82D01*
X930Y82D01*
X930Y84D01*
X932Y84D01*
X932Y86D01*
X936Y86D01*
X936Y88D01*
X942Y88D01*
X942Y108D01*
X902Y108D01*
X902Y128D01*
X882Y128D01*
G37*
D02*
G36*
X964Y478D02*
X988Y478D01*
X988Y439D01*
X964Y439D01*
X964Y478D01*
G37*
D02*
G36*
X966Y181D02*
X994Y181D01*
X994Y136D01*
X966Y136D01*
X966Y181D01*
G37*
D02*
G36*
X828Y1100D02*
X867Y1100D01*
X867Y1076D01*
X828Y1076D01*
X828Y1100D01*
G37*
D02*
G36*
X828Y42D02*
X867Y42D01*
X867Y20D01*
X828Y20D01*
X828Y42D01*
G37*
D02*
G36*
X728Y1100D02*
X767Y1100D01*
X767Y1076D01*
X728Y1076D01*
X728Y1100D01*
G37*
D02*
G36*
X584Y498D02*
X615Y498D01*
X615Y474D01*
X584Y474D01*
X584Y498D01*
G37*
D02*
G36*
X728Y42D02*
X767Y42D01*
X767Y20D01*
X728Y20D01*
X728Y42D01*
G37*
D02*
G36*
X630Y1100D02*
X669Y1100D01*
X669Y1076D01*
X630Y1076D01*
X630Y1100D01*
G37*
D02*
G36*
X484Y498D02*
X515Y498D01*
X515Y474D01*
X484Y474D01*
X484Y498D01*
G37*
D02*
G36*
X630Y42D02*
X669Y42D01*
X669Y20D01*
X630Y20D01*
X630Y42D01*
G37*
D02*
G36*
X530Y1100D02*
X569Y1100D01*
X569Y1076D01*
X530Y1076D01*
X530Y1100D01*
G37*
D02*
G36*
X187Y740D02*
X212Y740D01*
X212Y716D01*
X187Y716D01*
X187Y740D01*
G37*
D02*
G36*
X168Y759D02*
X192Y759D01*
X192Y734D01*
X168Y734D01*
X168Y759D01*
G37*
D02*
G36*
X384Y498D02*
X415Y498D01*
X415Y474D01*
X384Y474D01*
X384Y498D01*
G37*
D02*
G36*
X530Y42D02*
X569Y42D01*
X569Y20D01*
X530Y20D01*
X530Y42D01*
G37*
D02*
G36*
X430Y1100D02*
X469Y1100D01*
X469Y1076D01*
X430Y1076D01*
X430Y1100D01*
G37*
D02*
G36*
X284Y498D02*
X315Y498D01*
X315Y474D01*
X284Y474D01*
X284Y498D01*
G37*
D02*
G36*
X430Y42D02*
X469Y42D01*
X469Y20D01*
X430Y20D01*
X430Y42D01*
G37*
D02*
G36*
X330Y1100D02*
X369Y1100D01*
X369Y1076D01*
X330Y1076D01*
X330Y1100D01*
G37*
D02*
G36*
X184Y498D02*
X215Y498D01*
X215Y474D01*
X184Y474D01*
X184Y498D01*
G37*
D02*
G36*
X330Y42D02*
X369Y42D01*
X369Y20D01*
X330Y20D01*
X330Y42D01*
G37*
D02*
G36*
X230Y1100D02*
X269Y1100D01*
X269Y1076D01*
X230Y1076D01*
X230Y1100D01*
G37*
D02*
G36*
X230Y42D02*
X269Y42D01*
X269Y20D01*
X230Y20D01*
X230Y42D01*
G37*
D02*
G36*
X130Y1100D02*
X169Y1100D01*
X169Y1076D01*
X130Y1076D01*
X130Y1100D01*
G37*
D02*
G36*
X130Y42D02*
X169Y42D01*
X169Y20D01*
X130Y20D01*
X130Y42D01*
G37*
D02*
G36*
X110Y78D02*
X132Y78D01*
X132Y39D01*
X110Y39D01*
X110Y78D01*
G37*
D02*
G04 End of Copper0*
M02*