; NON-PLATED HOLES START AT T1
; THROUGH (PLATED) HOLES START AT T100
M48
INCH
T1C0.047244
T100C0.015748
T101C0.035433
T102C0.038000
%
T1
X009513Y000573
T100
X006513Y006823
X008513Y005073
X001513Y005323
X001513Y006198
X008513Y007323
X003513Y005323
X002013Y007448
X005513Y005323
X002513Y005323
X004513Y005323
T101
X005513Y002573
X000513Y008573
X005513Y001573
X008513Y002573
X002513Y001573
X001513Y008573
X004513Y009573
X009513Y006573
X001513Y000573
X000513Y010573
X007513Y001573
X003513Y009573
X007513Y002573
X008513Y009573
X002513Y008573
X008513Y008573
X000513Y006573
X006513Y000573
X004513Y000573
X009513Y007573
X004513Y002573
X009513Y009573
X002513Y002573
X008513Y000573
X005513Y009573
X009513Y003573
X001513Y010573
X003513Y002573
X006513Y001573
X006513Y008573
X009513Y008573
X005513Y000573
X003513Y010573
X006513Y009573
X004513Y010573
X009513Y004573
X003513Y001573
X008513Y010573
X004513Y008573
X002513Y000573
X009513Y010573
X001513Y002573
X000513Y009573
X002513Y009573
X001513Y001573
X008513Y001573
X000513Y007573
X000513Y005573
X003513Y000573
X002513Y010573
X005513Y010573
X003513Y008573
X007513Y009573
X000513Y003573
X001513Y009573
X007513Y000573
X009513Y005573
X006513Y010573
X000513Y004573
X007513Y010573
X004513Y001573
X006513Y002573
X005513Y008573
X007513Y008573
T102
X009513Y002573
X009513Y001573
T00
M30
