G04 MADE WITH FRITZING*
G04 WWW.FRITZING.ORG*
G04 DOUBLE SIDED*
G04 HOLES PLATED*
G04 CONTOUR ON CENTER OF CONTOUR VECTOR*
%ASAXBY*%
%FSLAX23Y23*%
%MOIN*%
%OFA0B0*%
%SFA1.0B1.0*%
%ADD10C,0.075000*%
%ADD11C,0.039370*%
%ADD12C,0.066929*%
%ADD13C,0.078000*%
%ADD14R,0.013701X0.055000*%
%ADD15R,0.055118X0.059055*%
%ADD16R,0.078000X0.078000*%
%ADD17C,0.016000*%
%ADD18C,0.012000*%
%ADD19C,0.024000*%
%LNCOPPER1*%
G90*
G70*
G54D10*
X164Y382D03*
G54D11*
X151Y620D03*
G54D12*
X451Y1057D03*
X451Y957D03*
X451Y857D03*
X651Y1057D03*
X651Y957D03*
X651Y857D03*
X751Y1057D03*
X751Y957D03*
X751Y857D03*
X551Y1057D03*
X551Y957D03*
X551Y857D03*
X251Y1057D03*
X251Y957D03*
X251Y857D03*
X351Y1057D03*
X351Y957D03*
X351Y857D03*
X151Y1057D03*
X151Y957D03*
X151Y857D03*
X851Y1057D03*
X851Y957D03*
X851Y857D03*
X851Y57D03*
X851Y157D03*
X851Y257D03*
X751Y57D03*
X751Y157D03*
X751Y257D03*
X651Y57D03*
X651Y157D03*
X651Y257D03*
X551Y57D03*
X551Y157D03*
X551Y257D03*
X451Y57D03*
X451Y157D03*
X451Y257D03*
X351Y57D03*
X351Y157D03*
X351Y257D03*
X251Y57D03*
X251Y157D03*
X251Y257D03*
X151Y57D03*
X151Y157D03*
X151Y257D03*
G54D11*
X151Y532D03*
X251Y532D03*
X351Y532D03*
X451Y532D03*
X551Y532D03*
X651Y682D03*
X201Y745D03*
X851Y732D03*
X851Y507D03*
G54D13*
X951Y157D03*
X951Y257D03*
G54D12*
X51Y1057D03*
X51Y957D03*
X51Y857D03*
X51Y757D03*
X51Y657D03*
X51Y557D03*
X51Y457D03*
X51Y357D03*
X951Y1057D03*
X951Y957D03*
X951Y857D03*
X951Y757D03*
X951Y657D03*
X951Y557D03*
X951Y457D03*
X951Y357D03*
G54D14*
X273Y407D03*
X298Y407D03*
X324Y407D03*
X350Y407D03*
X375Y407D03*
X401Y407D03*
X426Y407D03*
X452Y407D03*
X478Y407D03*
X503Y407D03*
X529Y407D03*
X554Y407D03*
X580Y407D03*
X605Y407D03*
X605Y695D03*
X580Y695D03*
X554Y695D03*
X529Y695D03*
X503Y695D03*
X478Y695D03*
X452Y695D03*
X426Y695D03*
X401Y695D03*
X375Y695D03*
X350Y695D03*
X324Y695D03*
X298Y695D03*
X273Y695D03*
G54D15*
X733Y570D03*
X814Y570D03*
X733Y682D03*
X814Y682D03*
X733Y445D03*
X814Y445D03*
G54D16*
X951Y157D03*
G54D17*
X814Y507D02*
X814Y546D01*
D02*
X838Y507D02*
X814Y507D01*
D02*
X814Y507D02*
X838Y507D01*
D02*
X814Y469D02*
X814Y507D01*
D02*
X114Y620D02*
X114Y658D01*
D02*
X114Y658D02*
X152Y694D01*
D02*
X152Y694D02*
X271Y695D01*
D02*
X138Y620D02*
X114Y620D01*
D02*
X843Y722D02*
X832Y706D01*
G54D18*
D02*
X326Y507D02*
X324Y429D01*
D02*
X351Y470D02*
X350Y429D01*
D02*
X414Y533D02*
X351Y470D01*
D02*
X438Y532D02*
X414Y533D01*
D02*
X342Y523D02*
X326Y507D01*
D02*
X301Y507D02*
X299Y429D01*
D02*
X265Y532D02*
X276Y532D01*
D02*
X276Y532D02*
X301Y507D01*
D02*
X251Y408D02*
X271Y407D01*
D02*
X152Y507D02*
X251Y408D01*
D02*
X152Y519D02*
X152Y507D01*
D02*
X576Y332D02*
X553Y358D01*
D02*
X676Y332D02*
X576Y332D01*
D02*
X614Y646D02*
X389Y645D01*
D02*
X239Y333D02*
X364Y333D01*
D02*
X364Y333D02*
X401Y370D01*
D02*
X401Y370D02*
X401Y385D01*
D02*
X376Y307D02*
X427Y358D01*
D02*
X301Y307D02*
X376Y307D01*
D02*
X427Y358D02*
X427Y385D01*
D02*
X451Y345D02*
X452Y385D01*
D02*
X553Y358D02*
X554Y385D01*
D02*
X527Y345D02*
X528Y385D01*
D02*
X735Y274D02*
X676Y332D01*
D02*
X563Y307D02*
X527Y345D01*
D02*
X635Y274D02*
X601Y307D01*
D02*
X601Y307D02*
X563Y307D01*
D02*
X502Y332D02*
X503Y385D01*
D02*
X551Y282D02*
X502Y332D01*
D02*
X551Y281D02*
X551Y282D01*
D02*
X477Y332D02*
X477Y385D01*
D02*
X452Y307D02*
X477Y332D01*
D02*
X452Y281D02*
X452Y307D01*
D02*
X376Y258D02*
X451Y345D01*
D02*
X375Y258D02*
X376Y258D01*
D02*
X268Y274D02*
X301Y307D01*
D02*
X169Y272D02*
X239Y333D01*
D02*
X377Y657D02*
X376Y673D01*
D02*
X389Y645D02*
X377Y657D01*
D02*
X639Y670D02*
X614Y646D01*
D02*
X642Y673D02*
X639Y670D01*
D02*
X514Y494D02*
X413Y494D01*
D02*
X413Y494D02*
X376Y457D01*
D02*
X376Y457D02*
X375Y429D01*
D02*
X542Y523D02*
X514Y494D01*
D02*
X527Y758D02*
X528Y717D01*
D02*
X551Y782D02*
X527Y758D01*
D02*
X551Y834D02*
X551Y782D01*
D02*
X651Y845D02*
X554Y747D01*
D02*
X554Y747D02*
X554Y717D01*
D02*
X650Y834D02*
X651Y845D01*
D02*
X626Y782D02*
X676Y783D01*
D02*
X676Y783D02*
X735Y841D01*
D02*
X581Y735D02*
X626Y782D01*
D02*
X580Y717D02*
X581Y735D01*
D02*
X605Y725D02*
X605Y717D01*
D02*
X801Y807D02*
X738Y808D01*
D02*
X738Y808D02*
X689Y758D01*
D02*
X689Y758D02*
X639Y758D01*
D02*
X639Y758D02*
X605Y725D01*
D02*
X835Y841D02*
X801Y807D01*
D02*
X351Y595D02*
X301Y646D01*
D02*
X301Y646D02*
X300Y673D01*
D02*
X713Y595D02*
X351Y595D01*
D02*
X714Y594D02*
X713Y595D01*
D02*
X364Y620D02*
X326Y657D01*
D02*
X326Y657D02*
X325Y674D01*
D02*
X713Y670D02*
X664Y620D01*
D02*
X664Y620D02*
X364Y620D01*
D02*
X733Y682D02*
X713Y670D01*
D02*
X598Y357D02*
X579Y377D01*
D02*
X579Y377D02*
X579Y385D01*
D02*
X752Y357D02*
X598Y357D01*
D02*
X614Y395D02*
X607Y405D01*
D02*
X713Y433D02*
X713Y395D01*
D02*
X713Y395D02*
X614Y395D01*
D02*
X733Y445D02*
X713Y433D01*
D02*
X835Y274D02*
X752Y357D01*
G54D17*
D02*
X951Y282D02*
X951Y334D01*
G54D18*
D02*
X401Y720D02*
X401Y717D01*
D02*
X377Y745D02*
X401Y720D01*
D02*
X215Y745D02*
X377Y745D01*
D02*
X351Y745D02*
X350Y717D01*
D02*
X215Y745D02*
X351Y745D01*
D02*
X389Y770D02*
X426Y732D01*
D02*
X426Y732D02*
X426Y717D01*
D02*
X239Y770D02*
X389Y770D01*
D02*
X168Y841D02*
X239Y770D01*
G54D17*
D02*
X152Y694D02*
X114Y658D01*
D02*
X114Y658D02*
X114Y433D01*
D02*
X114Y433D02*
X66Y375D01*
D02*
X271Y695D02*
X152Y694D01*
G54D18*
D02*
X314Y795D02*
X401Y795D01*
D02*
X401Y795D02*
X452Y745D01*
D02*
X452Y745D02*
X452Y717D01*
D02*
X268Y841D02*
X314Y795D01*
D02*
X377Y858D02*
X476Y758D01*
D02*
X476Y758D02*
X477Y717D01*
D02*
X375Y858D02*
X377Y858D01*
D02*
X502Y769D02*
X503Y717D01*
D02*
X452Y834D02*
X452Y820D01*
D02*
X452Y820D02*
X502Y769D01*
G54D19*
D02*
X380Y957D02*
X422Y957D01*
D02*
X280Y957D02*
X322Y957D01*
D02*
X222Y957D02*
X180Y957D01*
D02*
X680Y157D02*
X722Y157D01*
D02*
X580Y157D02*
X622Y157D01*
D02*
X480Y157D02*
X522Y157D01*
D02*
X380Y157D02*
X422Y157D01*
D02*
X280Y157D02*
X322Y157D01*
D02*
X222Y157D02*
X180Y157D01*
D02*
X780Y957D02*
X822Y957D01*
D02*
X680Y957D02*
X722Y957D01*
D02*
X580Y957D02*
X622Y957D01*
D02*
X480Y957D02*
X522Y957D01*
D02*
X852Y170D02*
X852Y186D01*
D02*
X926Y258D02*
X852Y170D01*
D02*
X921Y258D02*
X926Y258D01*
D02*
X780Y157D02*
X822Y157D01*
G54D18*
D02*
X926Y457D02*
X876Y395D01*
D02*
X713Y420D02*
X713Y421D01*
D02*
X876Y395D02*
X713Y395D01*
D02*
X713Y395D02*
X713Y420D01*
D02*
X928Y457D02*
X926Y457D01*
G54D17*
D02*
X664Y507D02*
X614Y570D01*
D02*
X614Y570D02*
X114Y570D01*
D02*
X838Y507D02*
X664Y507D01*
D02*
X114Y570D02*
X114Y433D01*
D02*
X114Y433D02*
X66Y375D01*
G54D18*
D02*
X789Y770D02*
X864Y770D01*
D02*
X751Y732D02*
X789Y770D01*
D02*
X751Y708D02*
X751Y732D01*
D02*
X864Y770D02*
X935Y841D01*
D02*
X750Y706D02*
X751Y708D01*
D02*
X764Y632D02*
X752Y620D01*
D02*
X752Y620D02*
X752Y595D01*
D02*
X864Y632D02*
X764Y632D01*
D02*
X888Y658D02*
X864Y632D01*
D02*
X752Y595D02*
X751Y594D01*
D02*
X890Y694D02*
X888Y658D01*
D02*
X935Y741D02*
X890Y694D01*
G36*
X92Y1042D02*
X92Y1040D01*
X90Y1040D01*
X90Y1036D01*
X88Y1036D01*
X88Y1032D01*
X86Y1032D01*
X86Y1030D01*
X84Y1030D01*
X84Y1028D01*
X82Y1028D01*
X82Y1026D01*
X80Y1026D01*
X80Y1024D01*
X78Y1024D01*
X78Y1022D01*
X76Y1022D01*
X76Y1020D01*
X72Y1020D01*
X72Y1018D01*
X68Y1018D01*
X68Y996D01*
X72Y996D01*
X72Y994D01*
X76Y994D01*
X76Y992D01*
X78Y992D01*
X78Y990D01*
X80Y990D01*
X80Y988D01*
X82Y988D01*
X82Y986D01*
X84Y986D01*
X84Y984D01*
X86Y984D01*
X86Y982D01*
X88Y982D01*
X88Y978D01*
X90Y978D01*
X90Y974D01*
X112Y974D01*
X112Y978D01*
X114Y978D01*
X114Y980D01*
X116Y980D01*
X116Y984D01*
X118Y984D01*
X118Y986D01*
X120Y986D01*
X120Y988D01*
X122Y988D01*
X122Y990D01*
X124Y990D01*
X124Y992D01*
X126Y992D01*
X126Y994D01*
X130Y994D01*
X130Y996D01*
X134Y996D01*
X134Y998D01*
X136Y998D01*
X136Y1018D01*
X132Y1018D01*
X132Y1020D01*
X128Y1020D01*
X128Y1022D01*
X124Y1022D01*
X124Y1024D01*
X122Y1024D01*
X122Y1026D01*
X120Y1026D01*
X120Y1028D01*
X118Y1028D01*
X118Y1030D01*
X116Y1030D01*
X116Y1034D01*
X114Y1034D01*
X114Y1038D01*
X112Y1038D01*
X112Y1042D01*
X92Y1042D01*
G37*
D02*
G36*
X192Y1042D02*
X192Y1040D01*
X190Y1040D01*
X190Y1036D01*
X188Y1036D01*
X188Y1032D01*
X186Y1032D01*
X186Y1030D01*
X184Y1030D01*
X184Y1028D01*
X182Y1028D01*
X182Y1026D01*
X180Y1026D01*
X180Y1024D01*
X178Y1024D01*
X178Y1022D01*
X176Y1022D01*
X176Y1020D01*
X172Y1020D01*
X172Y1018D01*
X168Y1018D01*
X168Y996D01*
X172Y996D01*
X172Y994D01*
X176Y994D01*
X176Y992D01*
X178Y992D01*
X178Y990D01*
X180Y990D01*
X180Y988D01*
X182Y988D01*
X182Y986D01*
X184Y986D01*
X184Y984D01*
X186Y984D01*
X186Y982D01*
X188Y982D01*
X188Y980D01*
X216Y980D01*
X216Y984D01*
X218Y984D01*
X218Y986D01*
X220Y986D01*
X220Y988D01*
X222Y988D01*
X222Y990D01*
X224Y990D01*
X224Y992D01*
X226Y992D01*
X226Y994D01*
X230Y994D01*
X230Y996D01*
X234Y996D01*
X234Y998D01*
X236Y998D01*
X236Y1018D01*
X232Y1018D01*
X232Y1020D01*
X228Y1020D01*
X228Y1022D01*
X224Y1022D01*
X224Y1024D01*
X222Y1024D01*
X222Y1026D01*
X220Y1026D01*
X220Y1028D01*
X218Y1028D01*
X218Y1030D01*
X216Y1030D01*
X216Y1034D01*
X214Y1034D01*
X214Y1038D01*
X212Y1038D01*
X212Y1042D01*
X192Y1042D01*
G37*
D02*
G36*
X292Y1042D02*
X292Y1040D01*
X290Y1040D01*
X290Y1036D01*
X288Y1036D01*
X288Y1032D01*
X286Y1032D01*
X286Y1030D01*
X284Y1030D01*
X284Y1028D01*
X282Y1028D01*
X282Y1026D01*
X280Y1026D01*
X280Y1024D01*
X278Y1024D01*
X278Y1022D01*
X276Y1022D01*
X276Y1020D01*
X272Y1020D01*
X272Y1018D01*
X268Y1018D01*
X268Y996D01*
X272Y996D01*
X272Y994D01*
X276Y994D01*
X276Y992D01*
X278Y992D01*
X278Y990D01*
X280Y990D01*
X280Y988D01*
X282Y988D01*
X282Y986D01*
X284Y986D01*
X284Y984D01*
X286Y984D01*
X286Y982D01*
X288Y982D01*
X288Y980D01*
X316Y980D01*
X316Y984D01*
X318Y984D01*
X318Y986D01*
X320Y986D01*
X320Y988D01*
X322Y988D01*
X322Y990D01*
X324Y990D01*
X324Y992D01*
X326Y992D01*
X326Y994D01*
X330Y994D01*
X330Y996D01*
X334Y996D01*
X334Y998D01*
X336Y998D01*
X336Y1018D01*
X332Y1018D01*
X332Y1020D01*
X328Y1020D01*
X328Y1022D01*
X324Y1022D01*
X324Y1024D01*
X322Y1024D01*
X322Y1026D01*
X320Y1026D01*
X320Y1028D01*
X318Y1028D01*
X318Y1030D01*
X316Y1030D01*
X316Y1034D01*
X314Y1034D01*
X314Y1038D01*
X312Y1038D01*
X312Y1042D01*
X292Y1042D01*
G37*
D02*
G36*
X392Y1042D02*
X392Y1040D01*
X390Y1040D01*
X390Y1036D01*
X388Y1036D01*
X388Y1032D01*
X386Y1032D01*
X386Y1030D01*
X384Y1030D01*
X384Y1028D01*
X382Y1028D01*
X382Y1026D01*
X380Y1026D01*
X380Y1024D01*
X378Y1024D01*
X378Y1022D01*
X376Y1022D01*
X376Y1020D01*
X372Y1020D01*
X372Y1018D01*
X368Y1018D01*
X368Y996D01*
X372Y996D01*
X372Y994D01*
X376Y994D01*
X376Y992D01*
X378Y992D01*
X378Y990D01*
X380Y990D01*
X380Y988D01*
X382Y988D01*
X382Y986D01*
X384Y986D01*
X384Y984D01*
X386Y984D01*
X386Y982D01*
X388Y982D01*
X388Y980D01*
X416Y980D01*
X416Y984D01*
X418Y984D01*
X418Y986D01*
X420Y986D01*
X420Y988D01*
X422Y988D01*
X422Y990D01*
X424Y990D01*
X424Y992D01*
X426Y992D01*
X426Y994D01*
X430Y994D01*
X430Y996D01*
X434Y996D01*
X434Y998D01*
X436Y998D01*
X436Y1018D01*
X432Y1018D01*
X432Y1020D01*
X428Y1020D01*
X428Y1022D01*
X424Y1022D01*
X424Y1024D01*
X422Y1024D01*
X422Y1026D01*
X420Y1026D01*
X420Y1028D01*
X418Y1028D01*
X418Y1030D01*
X416Y1030D01*
X416Y1034D01*
X414Y1034D01*
X414Y1038D01*
X412Y1038D01*
X412Y1042D01*
X392Y1042D01*
G37*
D02*
G36*
X492Y1042D02*
X492Y1040D01*
X490Y1040D01*
X490Y1036D01*
X488Y1036D01*
X488Y1032D01*
X486Y1032D01*
X486Y1030D01*
X484Y1030D01*
X484Y1028D01*
X482Y1028D01*
X482Y1026D01*
X480Y1026D01*
X480Y1024D01*
X478Y1024D01*
X478Y1022D01*
X476Y1022D01*
X476Y1020D01*
X472Y1020D01*
X472Y1018D01*
X468Y1018D01*
X468Y996D01*
X472Y996D01*
X472Y994D01*
X476Y994D01*
X476Y992D01*
X478Y992D01*
X478Y990D01*
X480Y990D01*
X480Y988D01*
X482Y988D01*
X482Y986D01*
X484Y986D01*
X484Y984D01*
X486Y984D01*
X486Y982D01*
X488Y982D01*
X488Y980D01*
X516Y980D01*
X516Y984D01*
X518Y984D01*
X518Y986D01*
X520Y986D01*
X520Y988D01*
X522Y988D01*
X522Y990D01*
X524Y990D01*
X524Y992D01*
X526Y992D01*
X526Y994D01*
X530Y994D01*
X530Y996D01*
X534Y996D01*
X534Y998D01*
X536Y998D01*
X536Y1018D01*
X532Y1018D01*
X532Y1020D01*
X528Y1020D01*
X528Y1022D01*
X524Y1022D01*
X524Y1024D01*
X522Y1024D01*
X522Y1026D01*
X520Y1026D01*
X520Y1028D01*
X518Y1028D01*
X518Y1030D01*
X516Y1030D01*
X516Y1034D01*
X514Y1034D01*
X514Y1038D01*
X512Y1038D01*
X512Y1042D01*
X492Y1042D01*
G37*
D02*
G36*
X592Y1042D02*
X592Y1040D01*
X590Y1040D01*
X590Y1036D01*
X588Y1036D01*
X588Y1032D01*
X586Y1032D01*
X586Y1030D01*
X584Y1030D01*
X584Y1028D01*
X582Y1028D01*
X582Y1026D01*
X580Y1026D01*
X580Y1024D01*
X578Y1024D01*
X578Y1022D01*
X576Y1022D01*
X576Y1020D01*
X572Y1020D01*
X572Y1018D01*
X568Y1018D01*
X568Y996D01*
X572Y996D01*
X572Y994D01*
X576Y994D01*
X576Y992D01*
X578Y992D01*
X578Y990D01*
X580Y990D01*
X580Y988D01*
X582Y988D01*
X582Y986D01*
X584Y986D01*
X584Y984D01*
X586Y984D01*
X586Y982D01*
X588Y982D01*
X588Y980D01*
X616Y980D01*
X616Y984D01*
X618Y984D01*
X618Y986D01*
X620Y986D01*
X620Y988D01*
X622Y988D01*
X622Y990D01*
X624Y990D01*
X624Y992D01*
X626Y992D01*
X626Y994D01*
X630Y994D01*
X630Y996D01*
X634Y996D01*
X634Y998D01*
X636Y998D01*
X636Y1018D01*
X632Y1018D01*
X632Y1020D01*
X628Y1020D01*
X628Y1022D01*
X624Y1022D01*
X624Y1024D01*
X622Y1024D01*
X622Y1026D01*
X620Y1026D01*
X620Y1028D01*
X618Y1028D01*
X618Y1030D01*
X616Y1030D01*
X616Y1034D01*
X614Y1034D01*
X614Y1038D01*
X612Y1038D01*
X612Y1042D01*
X592Y1042D01*
G37*
D02*
G36*
X692Y1042D02*
X692Y1040D01*
X690Y1040D01*
X690Y1036D01*
X688Y1036D01*
X688Y1032D01*
X686Y1032D01*
X686Y1030D01*
X684Y1030D01*
X684Y1028D01*
X682Y1028D01*
X682Y1026D01*
X680Y1026D01*
X680Y1024D01*
X678Y1024D01*
X678Y1022D01*
X676Y1022D01*
X676Y1020D01*
X672Y1020D01*
X672Y1018D01*
X668Y1018D01*
X668Y996D01*
X672Y996D01*
X672Y994D01*
X676Y994D01*
X676Y992D01*
X678Y992D01*
X678Y990D01*
X680Y990D01*
X680Y988D01*
X682Y988D01*
X682Y986D01*
X684Y986D01*
X684Y984D01*
X686Y984D01*
X686Y982D01*
X688Y982D01*
X688Y980D01*
X716Y980D01*
X716Y984D01*
X718Y984D01*
X718Y986D01*
X720Y986D01*
X720Y988D01*
X722Y988D01*
X722Y990D01*
X724Y990D01*
X724Y992D01*
X726Y992D01*
X726Y994D01*
X730Y994D01*
X730Y996D01*
X734Y996D01*
X734Y998D01*
X736Y998D01*
X736Y1018D01*
X732Y1018D01*
X732Y1020D01*
X728Y1020D01*
X728Y1022D01*
X724Y1022D01*
X724Y1024D01*
X722Y1024D01*
X722Y1026D01*
X720Y1026D01*
X720Y1028D01*
X718Y1028D01*
X718Y1030D01*
X716Y1030D01*
X716Y1034D01*
X714Y1034D01*
X714Y1038D01*
X712Y1038D01*
X712Y1042D01*
X692Y1042D01*
G37*
D02*
G36*
X792Y1042D02*
X792Y1040D01*
X790Y1040D01*
X790Y1036D01*
X788Y1036D01*
X788Y1032D01*
X786Y1032D01*
X786Y1030D01*
X784Y1030D01*
X784Y1028D01*
X782Y1028D01*
X782Y1026D01*
X780Y1026D01*
X780Y1024D01*
X778Y1024D01*
X778Y1022D01*
X776Y1022D01*
X776Y1020D01*
X772Y1020D01*
X772Y1018D01*
X768Y1018D01*
X768Y996D01*
X772Y996D01*
X772Y994D01*
X776Y994D01*
X776Y992D01*
X778Y992D01*
X778Y990D01*
X780Y990D01*
X780Y988D01*
X782Y988D01*
X782Y986D01*
X784Y986D01*
X784Y984D01*
X786Y984D01*
X786Y982D01*
X788Y982D01*
X788Y980D01*
X816Y980D01*
X816Y984D01*
X818Y984D01*
X818Y986D01*
X820Y986D01*
X820Y988D01*
X822Y988D01*
X822Y990D01*
X824Y990D01*
X824Y992D01*
X826Y992D01*
X826Y994D01*
X830Y994D01*
X830Y996D01*
X834Y996D01*
X834Y998D01*
X836Y998D01*
X836Y1018D01*
X832Y1018D01*
X832Y1020D01*
X828Y1020D01*
X828Y1022D01*
X824Y1022D01*
X824Y1024D01*
X822Y1024D01*
X822Y1026D01*
X820Y1026D01*
X820Y1028D01*
X818Y1028D01*
X818Y1030D01*
X816Y1030D01*
X816Y1034D01*
X814Y1034D01*
X814Y1038D01*
X812Y1038D01*
X812Y1042D01*
X792Y1042D01*
G37*
D02*
G36*
X892Y1042D02*
X892Y1040D01*
X890Y1040D01*
X890Y1036D01*
X888Y1036D01*
X888Y1032D01*
X886Y1032D01*
X886Y1030D01*
X884Y1030D01*
X884Y1028D01*
X882Y1028D01*
X882Y1026D01*
X880Y1026D01*
X880Y1024D01*
X878Y1024D01*
X878Y1022D01*
X876Y1022D01*
X876Y1020D01*
X872Y1020D01*
X872Y1018D01*
X868Y1018D01*
X868Y996D01*
X872Y996D01*
X872Y994D01*
X876Y994D01*
X876Y992D01*
X878Y992D01*
X878Y990D01*
X880Y990D01*
X880Y988D01*
X882Y988D01*
X882Y986D01*
X884Y986D01*
X884Y984D01*
X886Y984D01*
X886Y982D01*
X888Y982D01*
X888Y978D01*
X890Y978D01*
X890Y974D01*
X912Y974D01*
X912Y978D01*
X914Y978D01*
X914Y980D01*
X916Y980D01*
X916Y984D01*
X918Y984D01*
X918Y986D01*
X920Y986D01*
X920Y988D01*
X922Y988D01*
X922Y990D01*
X924Y990D01*
X924Y992D01*
X926Y992D01*
X926Y994D01*
X930Y994D01*
X930Y996D01*
X934Y996D01*
X934Y998D01*
X936Y998D01*
X936Y1018D01*
X932Y1018D01*
X932Y1020D01*
X928Y1020D01*
X928Y1022D01*
X924Y1022D01*
X924Y1024D01*
X922Y1024D01*
X922Y1026D01*
X920Y1026D01*
X920Y1028D01*
X918Y1028D01*
X918Y1030D01*
X916Y1030D01*
X916Y1034D01*
X914Y1034D01*
X914Y1038D01*
X912Y1038D01*
X912Y1042D01*
X892Y1042D01*
G37*
D02*
G36*
X92Y942D02*
X92Y940D01*
X90Y940D01*
X90Y936D01*
X88Y936D01*
X88Y932D01*
X86Y932D01*
X86Y930D01*
X84Y930D01*
X84Y928D01*
X82Y928D01*
X82Y926D01*
X80Y926D01*
X80Y924D01*
X78Y924D01*
X78Y922D01*
X76Y922D01*
X76Y920D01*
X72Y920D01*
X72Y918D01*
X68Y918D01*
X68Y896D01*
X72Y896D01*
X72Y894D01*
X76Y894D01*
X76Y892D01*
X78Y892D01*
X78Y890D01*
X80Y890D01*
X80Y888D01*
X82Y888D01*
X82Y886D01*
X84Y886D01*
X84Y884D01*
X86Y884D01*
X86Y882D01*
X88Y882D01*
X88Y878D01*
X90Y878D01*
X90Y874D01*
X112Y874D01*
X112Y878D01*
X114Y878D01*
X114Y880D01*
X116Y880D01*
X116Y884D01*
X118Y884D01*
X118Y886D01*
X120Y886D01*
X120Y888D01*
X122Y888D01*
X122Y890D01*
X124Y890D01*
X124Y892D01*
X126Y892D01*
X126Y894D01*
X130Y894D01*
X130Y896D01*
X134Y896D01*
X134Y898D01*
X136Y898D01*
X136Y918D01*
X132Y918D01*
X132Y920D01*
X128Y920D01*
X128Y922D01*
X124Y922D01*
X124Y924D01*
X122Y924D01*
X122Y926D01*
X120Y926D01*
X120Y928D01*
X118Y928D01*
X118Y930D01*
X116Y930D01*
X116Y934D01*
X114Y934D01*
X114Y938D01*
X112Y938D01*
X112Y942D01*
X92Y942D01*
G37*
D02*
G36*
X892Y942D02*
X892Y940D01*
X890Y940D01*
X890Y936D01*
X888Y936D01*
X888Y932D01*
X886Y932D01*
X886Y930D01*
X884Y930D01*
X884Y928D01*
X882Y928D01*
X882Y926D01*
X880Y926D01*
X880Y924D01*
X878Y924D01*
X878Y922D01*
X876Y922D01*
X876Y920D01*
X872Y920D01*
X872Y918D01*
X868Y918D01*
X868Y896D01*
X872Y896D01*
X872Y894D01*
X876Y894D01*
X876Y892D01*
X878Y892D01*
X878Y890D01*
X880Y890D01*
X880Y888D01*
X882Y888D01*
X882Y886D01*
X884Y886D01*
X884Y884D01*
X886Y884D01*
X886Y882D01*
X888Y882D01*
X888Y878D01*
X890Y878D01*
X890Y874D01*
X912Y874D01*
X912Y878D01*
X914Y878D01*
X914Y880D01*
X916Y880D01*
X916Y884D01*
X918Y884D01*
X918Y886D01*
X920Y886D01*
X920Y888D01*
X922Y888D01*
X922Y890D01*
X924Y890D01*
X924Y892D01*
X926Y892D01*
X926Y894D01*
X930Y894D01*
X930Y896D01*
X934Y896D01*
X934Y898D01*
X936Y898D01*
X936Y918D01*
X932Y918D01*
X932Y920D01*
X928Y920D01*
X928Y922D01*
X924Y922D01*
X924Y924D01*
X922Y924D01*
X922Y926D01*
X920Y926D01*
X920Y928D01*
X918Y928D01*
X918Y930D01*
X916Y930D01*
X916Y934D01*
X914Y934D01*
X914Y938D01*
X912Y938D01*
X912Y942D01*
X892Y942D01*
G37*
D02*
G36*
X188Y936D02*
X188Y932D01*
X186Y932D01*
X186Y930D01*
X184Y930D01*
X184Y928D01*
X182Y928D01*
X182Y926D01*
X180Y926D01*
X180Y924D01*
X178Y924D01*
X178Y922D01*
X176Y922D01*
X176Y920D01*
X172Y920D01*
X172Y918D01*
X168Y918D01*
X168Y896D01*
X172Y896D01*
X172Y894D01*
X176Y894D01*
X176Y892D01*
X178Y892D01*
X178Y890D01*
X180Y890D01*
X180Y888D01*
X182Y888D01*
X182Y886D01*
X184Y886D01*
X184Y884D01*
X186Y884D01*
X186Y882D01*
X188Y882D01*
X188Y878D01*
X190Y878D01*
X190Y874D01*
X212Y874D01*
X212Y878D01*
X214Y878D01*
X214Y880D01*
X216Y880D01*
X216Y884D01*
X218Y884D01*
X218Y886D01*
X220Y886D01*
X220Y888D01*
X222Y888D01*
X222Y890D01*
X224Y890D01*
X224Y892D01*
X226Y892D01*
X226Y894D01*
X230Y894D01*
X230Y896D01*
X234Y896D01*
X234Y898D01*
X236Y898D01*
X236Y918D01*
X232Y918D01*
X232Y920D01*
X228Y920D01*
X228Y922D01*
X224Y922D01*
X224Y924D01*
X222Y924D01*
X222Y926D01*
X220Y926D01*
X220Y928D01*
X218Y928D01*
X218Y930D01*
X216Y930D01*
X216Y934D01*
X214Y934D01*
X214Y936D01*
X188Y936D01*
G37*
D02*
G36*
X288Y936D02*
X288Y932D01*
X286Y932D01*
X286Y930D01*
X284Y930D01*
X284Y928D01*
X282Y928D01*
X282Y926D01*
X280Y926D01*
X280Y924D01*
X278Y924D01*
X278Y922D01*
X276Y922D01*
X276Y920D01*
X272Y920D01*
X272Y918D01*
X268Y918D01*
X268Y896D01*
X272Y896D01*
X272Y894D01*
X276Y894D01*
X276Y892D01*
X278Y892D01*
X278Y890D01*
X280Y890D01*
X280Y888D01*
X282Y888D01*
X282Y886D01*
X284Y886D01*
X284Y884D01*
X286Y884D01*
X286Y882D01*
X288Y882D01*
X288Y878D01*
X290Y878D01*
X290Y874D01*
X312Y874D01*
X312Y878D01*
X314Y878D01*
X314Y880D01*
X316Y880D01*
X316Y884D01*
X318Y884D01*
X318Y886D01*
X320Y886D01*
X320Y888D01*
X322Y888D01*
X322Y890D01*
X324Y890D01*
X324Y892D01*
X326Y892D01*
X326Y894D01*
X330Y894D01*
X330Y896D01*
X334Y896D01*
X334Y898D01*
X336Y898D01*
X336Y918D01*
X332Y918D01*
X332Y920D01*
X328Y920D01*
X328Y922D01*
X324Y922D01*
X324Y924D01*
X322Y924D01*
X322Y926D01*
X320Y926D01*
X320Y928D01*
X318Y928D01*
X318Y930D01*
X316Y930D01*
X316Y934D01*
X314Y934D01*
X314Y936D01*
X288Y936D01*
G37*
D02*
G36*
X388Y936D02*
X388Y932D01*
X386Y932D01*
X386Y930D01*
X384Y930D01*
X384Y928D01*
X382Y928D01*
X382Y926D01*
X380Y926D01*
X380Y924D01*
X378Y924D01*
X378Y922D01*
X376Y922D01*
X376Y920D01*
X372Y920D01*
X372Y918D01*
X368Y918D01*
X368Y896D01*
X372Y896D01*
X372Y894D01*
X376Y894D01*
X376Y892D01*
X378Y892D01*
X378Y890D01*
X380Y890D01*
X380Y888D01*
X382Y888D01*
X382Y886D01*
X384Y886D01*
X384Y884D01*
X386Y884D01*
X386Y882D01*
X388Y882D01*
X388Y878D01*
X390Y878D01*
X390Y874D01*
X412Y874D01*
X412Y878D01*
X414Y878D01*
X414Y880D01*
X416Y880D01*
X416Y884D01*
X418Y884D01*
X418Y886D01*
X420Y886D01*
X420Y888D01*
X422Y888D01*
X422Y890D01*
X424Y890D01*
X424Y892D01*
X426Y892D01*
X426Y894D01*
X430Y894D01*
X430Y896D01*
X434Y896D01*
X434Y898D01*
X436Y898D01*
X436Y918D01*
X432Y918D01*
X432Y920D01*
X428Y920D01*
X428Y922D01*
X424Y922D01*
X424Y924D01*
X422Y924D01*
X422Y926D01*
X420Y926D01*
X420Y928D01*
X418Y928D01*
X418Y930D01*
X416Y930D01*
X416Y934D01*
X414Y934D01*
X414Y936D01*
X388Y936D01*
G37*
D02*
G36*
X488Y936D02*
X488Y932D01*
X486Y932D01*
X486Y930D01*
X484Y930D01*
X484Y928D01*
X482Y928D01*
X482Y926D01*
X480Y926D01*
X480Y924D01*
X478Y924D01*
X478Y922D01*
X476Y922D01*
X476Y920D01*
X472Y920D01*
X472Y918D01*
X468Y918D01*
X468Y896D01*
X472Y896D01*
X472Y894D01*
X476Y894D01*
X476Y892D01*
X478Y892D01*
X478Y890D01*
X480Y890D01*
X480Y888D01*
X482Y888D01*
X482Y886D01*
X484Y886D01*
X484Y884D01*
X486Y884D01*
X486Y882D01*
X488Y882D01*
X488Y878D01*
X490Y878D01*
X490Y874D01*
X512Y874D01*
X512Y878D01*
X514Y878D01*
X514Y880D01*
X516Y880D01*
X516Y884D01*
X518Y884D01*
X518Y886D01*
X520Y886D01*
X520Y888D01*
X522Y888D01*
X522Y890D01*
X524Y890D01*
X524Y892D01*
X526Y892D01*
X526Y894D01*
X530Y894D01*
X530Y896D01*
X534Y896D01*
X534Y898D01*
X536Y898D01*
X536Y918D01*
X532Y918D01*
X532Y920D01*
X528Y920D01*
X528Y922D01*
X524Y922D01*
X524Y924D01*
X522Y924D01*
X522Y926D01*
X520Y926D01*
X520Y928D01*
X518Y928D01*
X518Y930D01*
X516Y930D01*
X516Y934D01*
X514Y934D01*
X514Y936D01*
X488Y936D01*
G37*
D02*
G36*
X588Y936D02*
X588Y932D01*
X586Y932D01*
X586Y930D01*
X584Y930D01*
X584Y928D01*
X582Y928D01*
X582Y926D01*
X580Y926D01*
X580Y924D01*
X578Y924D01*
X578Y922D01*
X576Y922D01*
X576Y920D01*
X572Y920D01*
X572Y918D01*
X568Y918D01*
X568Y896D01*
X572Y896D01*
X572Y894D01*
X576Y894D01*
X576Y892D01*
X578Y892D01*
X578Y890D01*
X580Y890D01*
X580Y888D01*
X582Y888D01*
X582Y886D01*
X584Y886D01*
X584Y884D01*
X586Y884D01*
X586Y882D01*
X588Y882D01*
X588Y878D01*
X590Y878D01*
X590Y874D01*
X612Y874D01*
X612Y878D01*
X614Y878D01*
X614Y880D01*
X616Y880D01*
X616Y884D01*
X618Y884D01*
X618Y886D01*
X620Y886D01*
X620Y888D01*
X622Y888D01*
X622Y890D01*
X624Y890D01*
X624Y892D01*
X626Y892D01*
X626Y894D01*
X630Y894D01*
X630Y896D01*
X634Y896D01*
X634Y898D01*
X636Y898D01*
X636Y918D01*
X632Y918D01*
X632Y920D01*
X628Y920D01*
X628Y922D01*
X624Y922D01*
X624Y924D01*
X622Y924D01*
X622Y926D01*
X620Y926D01*
X620Y928D01*
X618Y928D01*
X618Y930D01*
X616Y930D01*
X616Y934D01*
X614Y934D01*
X614Y936D01*
X588Y936D01*
G37*
D02*
G36*
X688Y936D02*
X688Y932D01*
X686Y932D01*
X686Y930D01*
X684Y930D01*
X684Y928D01*
X682Y928D01*
X682Y926D01*
X680Y926D01*
X680Y924D01*
X678Y924D01*
X678Y922D01*
X676Y922D01*
X676Y920D01*
X672Y920D01*
X672Y918D01*
X668Y918D01*
X668Y896D01*
X672Y896D01*
X672Y894D01*
X676Y894D01*
X676Y892D01*
X678Y892D01*
X678Y890D01*
X680Y890D01*
X680Y888D01*
X682Y888D01*
X682Y886D01*
X684Y886D01*
X684Y884D01*
X686Y884D01*
X686Y882D01*
X688Y882D01*
X688Y878D01*
X690Y878D01*
X690Y874D01*
X712Y874D01*
X712Y878D01*
X714Y878D01*
X714Y880D01*
X716Y880D01*
X716Y884D01*
X718Y884D01*
X718Y886D01*
X720Y886D01*
X720Y888D01*
X722Y888D01*
X722Y890D01*
X724Y890D01*
X724Y892D01*
X726Y892D01*
X726Y894D01*
X730Y894D01*
X730Y896D01*
X734Y896D01*
X734Y898D01*
X736Y898D01*
X736Y918D01*
X732Y918D01*
X732Y920D01*
X728Y920D01*
X728Y922D01*
X724Y922D01*
X724Y924D01*
X722Y924D01*
X722Y926D01*
X720Y926D01*
X720Y928D01*
X718Y928D01*
X718Y930D01*
X716Y930D01*
X716Y934D01*
X714Y934D01*
X714Y936D01*
X688Y936D01*
G37*
D02*
G36*
X788Y936D02*
X788Y932D01*
X786Y932D01*
X786Y930D01*
X784Y930D01*
X784Y928D01*
X782Y928D01*
X782Y926D01*
X780Y926D01*
X780Y924D01*
X778Y924D01*
X778Y922D01*
X776Y922D01*
X776Y920D01*
X772Y920D01*
X772Y918D01*
X768Y918D01*
X768Y896D01*
X772Y896D01*
X772Y894D01*
X776Y894D01*
X776Y892D01*
X778Y892D01*
X778Y890D01*
X780Y890D01*
X780Y888D01*
X782Y888D01*
X782Y886D01*
X784Y886D01*
X784Y884D01*
X786Y884D01*
X786Y882D01*
X788Y882D01*
X788Y878D01*
X790Y878D01*
X790Y874D01*
X812Y874D01*
X812Y878D01*
X814Y878D01*
X814Y880D01*
X816Y880D01*
X816Y884D01*
X818Y884D01*
X818Y886D01*
X820Y886D01*
X820Y888D01*
X822Y888D01*
X822Y890D01*
X824Y890D01*
X824Y892D01*
X826Y892D01*
X826Y894D01*
X830Y894D01*
X830Y896D01*
X834Y896D01*
X834Y898D01*
X836Y898D01*
X836Y918D01*
X832Y918D01*
X832Y920D01*
X828Y920D01*
X828Y922D01*
X824Y922D01*
X824Y924D01*
X822Y924D01*
X822Y926D01*
X820Y926D01*
X820Y928D01*
X818Y928D01*
X818Y930D01*
X816Y930D01*
X816Y934D01*
X814Y934D01*
X814Y936D01*
X788Y936D01*
G37*
D02*
G36*
X92Y842D02*
X92Y840D01*
X90Y840D01*
X90Y836D01*
X88Y836D01*
X88Y832D01*
X86Y832D01*
X86Y830D01*
X84Y830D01*
X84Y828D01*
X82Y828D01*
X82Y826D01*
X80Y826D01*
X80Y824D01*
X78Y824D01*
X78Y822D01*
X76Y822D01*
X76Y820D01*
X72Y820D01*
X72Y818D01*
X68Y818D01*
X68Y796D01*
X72Y796D01*
X72Y794D01*
X76Y794D01*
X76Y792D01*
X78Y792D01*
X78Y790D01*
X80Y790D01*
X80Y788D01*
X82Y788D01*
X82Y786D01*
X84Y786D01*
X84Y784D01*
X86Y784D01*
X86Y782D01*
X88Y782D01*
X88Y778D01*
X90Y778D01*
X90Y774D01*
X92Y774D01*
X92Y768D01*
X94Y768D01*
X94Y746D01*
X92Y746D01*
X92Y740D01*
X90Y740D01*
X90Y736D01*
X88Y736D01*
X88Y732D01*
X86Y732D01*
X86Y730D01*
X84Y730D01*
X84Y728D01*
X82Y728D01*
X82Y726D01*
X80Y726D01*
X80Y724D01*
X78Y724D01*
X78Y722D01*
X76Y722D01*
X76Y720D01*
X72Y720D01*
X72Y718D01*
X68Y718D01*
X68Y696D01*
X72Y696D01*
X72Y694D01*
X76Y694D01*
X76Y692D01*
X78Y692D01*
X78Y690D01*
X80Y690D01*
X80Y688D01*
X82Y688D01*
X82Y686D01*
X84Y686D01*
X84Y684D01*
X86Y684D01*
X86Y682D01*
X88Y682D01*
X88Y678D01*
X110Y678D01*
X110Y680D01*
X112Y680D01*
X112Y682D01*
X114Y682D01*
X114Y684D01*
X116Y684D01*
X116Y686D01*
X118Y686D01*
X118Y688D01*
X120Y688D01*
X120Y690D01*
X122Y690D01*
X122Y692D01*
X124Y692D01*
X124Y694D01*
X126Y694D01*
X126Y696D01*
X128Y696D01*
X128Y698D01*
X132Y698D01*
X132Y700D01*
X134Y700D01*
X134Y702D01*
X136Y702D01*
X136Y704D01*
X138Y704D01*
X138Y706D01*
X140Y706D01*
X140Y708D01*
X142Y708D01*
X142Y710D01*
X146Y710D01*
X146Y712D01*
X176Y712D01*
X176Y732D01*
X174Y732D01*
X174Y736D01*
X172Y736D01*
X172Y754D01*
X174Y754D01*
X174Y758D01*
X176Y758D01*
X176Y762D01*
X178Y762D01*
X178Y764D01*
X180Y764D01*
X180Y766D01*
X182Y766D01*
X182Y768D01*
X184Y768D01*
X184Y770D01*
X188Y770D01*
X188Y772D01*
X192Y772D01*
X192Y774D01*
X194Y774D01*
X194Y794D01*
X192Y794D01*
X192Y796D01*
X190Y796D01*
X190Y798D01*
X188Y798D01*
X188Y800D01*
X186Y800D01*
X186Y802D01*
X184Y802D01*
X184Y804D01*
X182Y804D01*
X182Y806D01*
X180Y806D01*
X180Y808D01*
X178Y808D01*
X178Y810D01*
X176Y810D01*
X176Y812D01*
X174Y812D01*
X174Y814D01*
X142Y814D01*
X142Y816D01*
X136Y816D01*
X136Y818D01*
X132Y818D01*
X132Y820D01*
X128Y820D01*
X128Y822D01*
X124Y822D01*
X124Y824D01*
X122Y824D01*
X122Y826D01*
X120Y826D01*
X120Y828D01*
X118Y828D01*
X118Y830D01*
X116Y830D01*
X116Y834D01*
X114Y834D01*
X114Y838D01*
X112Y838D01*
X112Y842D01*
X92Y842D01*
G37*
D02*
G36*
X492Y842D02*
X492Y840D01*
X490Y840D01*
X490Y836D01*
X488Y836D01*
X488Y832D01*
X486Y832D01*
X486Y830D01*
X484Y830D01*
X484Y810D01*
X486Y810D01*
X486Y808D01*
X488Y808D01*
X488Y806D01*
X490Y806D01*
X490Y804D01*
X492Y804D01*
X492Y800D01*
X494Y800D01*
X494Y798D01*
X496Y798D01*
X496Y796D01*
X498Y796D01*
X498Y794D01*
X500Y794D01*
X500Y792D01*
X502Y792D01*
X502Y790D01*
X504Y790D01*
X504Y788D01*
X506Y788D01*
X506Y786D01*
X508Y786D01*
X508Y784D01*
X510Y784D01*
X510Y782D01*
X530Y782D01*
X530Y784D01*
X532Y784D01*
X532Y786D01*
X534Y786D01*
X534Y788D01*
X536Y788D01*
X536Y818D01*
X532Y818D01*
X532Y820D01*
X528Y820D01*
X528Y822D01*
X524Y822D01*
X524Y824D01*
X522Y824D01*
X522Y826D01*
X520Y826D01*
X520Y828D01*
X518Y828D01*
X518Y830D01*
X516Y830D01*
X516Y834D01*
X514Y834D01*
X514Y838D01*
X512Y838D01*
X512Y842D01*
X492Y842D01*
G37*
D02*
G36*
X230Y814D02*
X230Y800D01*
X232Y800D01*
X232Y798D01*
X234Y798D01*
X234Y796D01*
X236Y796D01*
X236Y794D01*
X238Y794D01*
X238Y792D01*
X240Y792D01*
X240Y790D01*
X242Y790D01*
X242Y788D01*
X244Y788D01*
X244Y786D01*
X280Y786D01*
X280Y806D01*
X278Y806D01*
X278Y808D01*
X276Y808D01*
X276Y810D01*
X274Y810D01*
X274Y812D01*
X272Y812D01*
X272Y814D01*
X230Y814D01*
G37*
D02*
G36*
X744Y792D02*
X744Y790D01*
X742Y790D01*
X742Y788D01*
X740Y788D01*
X740Y786D01*
X738Y786D01*
X738Y784D01*
X736Y784D01*
X736Y782D01*
X734Y782D01*
X734Y780D01*
X732Y780D01*
X732Y778D01*
X730Y778D01*
X730Y776D01*
X728Y776D01*
X728Y774D01*
X726Y774D01*
X726Y772D01*
X724Y772D01*
X724Y770D01*
X722Y770D01*
X722Y768D01*
X720Y768D01*
X720Y766D01*
X718Y766D01*
X718Y764D01*
X716Y764D01*
X716Y762D01*
X714Y762D01*
X714Y760D01*
X712Y760D01*
X712Y758D01*
X710Y758D01*
X710Y756D01*
X708Y756D01*
X708Y754D01*
X706Y754D01*
X706Y752D01*
X704Y752D01*
X704Y750D01*
X702Y750D01*
X702Y748D01*
X700Y748D01*
X700Y746D01*
X698Y746D01*
X698Y744D01*
X694Y744D01*
X694Y742D01*
X644Y742D01*
X644Y740D01*
X642Y740D01*
X642Y738D01*
X640Y738D01*
X640Y736D01*
X638Y736D01*
X638Y734D01*
X636Y734D01*
X636Y732D01*
X634Y732D01*
X634Y730D01*
X632Y730D01*
X632Y728D01*
X630Y728D01*
X630Y726D01*
X628Y726D01*
X628Y724D01*
X626Y724D01*
X626Y722D01*
X624Y722D01*
X624Y720D01*
X622Y720D01*
X622Y712D01*
X658Y712D01*
X658Y710D01*
X664Y710D01*
X664Y708D01*
X668Y708D01*
X668Y706D01*
X670Y706D01*
X670Y704D01*
X672Y704D01*
X672Y702D01*
X674Y702D01*
X674Y700D01*
X676Y700D01*
X676Y696D01*
X696Y696D01*
X696Y722D01*
X736Y722D01*
X736Y740D01*
X738Y740D01*
X738Y742D01*
X740Y742D01*
X740Y744D01*
X742Y744D01*
X742Y746D01*
X744Y746D01*
X744Y748D01*
X746Y748D01*
X746Y750D01*
X748Y750D01*
X748Y752D01*
X750Y752D01*
X750Y754D01*
X752Y754D01*
X752Y756D01*
X754Y756D01*
X754Y758D01*
X756Y758D01*
X756Y760D01*
X758Y760D01*
X758Y762D01*
X760Y762D01*
X760Y764D01*
X762Y764D01*
X762Y766D01*
X764Y766D01*
X764Y768D01*
X766Y768D01*
X766Y770D01*
X768Y770D01*
X768Y772D01*
X770Y772D01*
X770Y792D01*
X744Y792D01*
G37*
D02*
G36*
X622Y712D02*
X622Y710D01*
X644Y710D01*
X644Y712D01*
X622Y712D01*
G37*
D02*
G36*
X892Y776D02*
X892Y774D01*
X890Y774D01*
X890Y772D01*
X888Y772D01*
X888Y770D01*
X886Y770D01*
X886Y768D01*
X884Y768D01*
X884Y766D01*
X882Y766D01*
X882Y764D01*
X880Y764D01*
X880Y762D01*
X878Y762D01*
X878Y742D01*
X880Y742D01*
X880Y726D01*
X900Y726D01*
X900Y728D01*
X902Y728D01*
X902Y730D01*
X904Y730D01*
X904Y732D01*
X906Y732D01*
X906Y734D01*
X908Y734D01*
X908Y766D01*
X910Y766D01*
X910Y774D01*
X912Y774D01*
X912Y776D01*
X892Y776D01*
G37*
D02*
G36*
X158Y676D02*
X158Y674D01*
X156Y674D01*
X156Y672D01*
X154Y672D01*
X154Y670D01*
X152Y670D01*
X152Y650D01*
X154Y650D01*
X154Y648D01*
X162Y648D01*
X162Y646D01*
X166Y646D01*
X166Y644D01*
X170Y644D01*
X170Y642D01*
X172Y642D01*
X172Y640D01*
X174Y640D01*
X174Y638D01*
X176Y638D01*
X176Y634D01*
X178Y634D01*
X178Y630D01*
X180Y630D01*
X180Y610D01*
X178Y610D01*
X178Y588D01*
X316Y588D01*
X316Y608D01*
X314Y608D01*
X314Y610D01*
X312Y610D01*
X312Y612D01*
X310Y612D01*
X310Y614D01*
X308Y614D01*
X308Y616D01*
X306Y616D01*
X306Y618D01*
X304Y618D01*
X304Y620D01*
X302Y620D01*
X302Y622D01*
X300Y622D01*
X300Y624D01*
X298Y624D01*
X298Y626D01*
X296Y626D01*
X296Y628D01*
X294Y628D01*
X294Y630D01*
X292Y630D01*
X292Y632D01*
X290Y632D01*
X290Y634D01*
X288Y634D01*
X288Y638D01*
X286Y638D01*
X286Y644D01*
X284Y644D01*
X284Y658D01*
X256Y658D01*
X256Y676D01*
X158Y676D01*
G37*
D02*
G36*
X892Y640D02*
X892Y638D01*
X890Y638D01*
X890Y636D01*
X888Y636D01*
X888Y632D01*
X886Y632D01*
X886Y630D01*
X884Y630D01*
X884Y628D01*
X882Y628D01*
X882Y626D01*
X880Y626D01*
X880Y624D01*
X878Y624D01*
X878Y622D01*
X876Y622D01*
X876Y620D01*
X874Y620D01*
X874Y618D01*
X870Y618D01*
X870Y616D01*
X852Y616D01*
X852Y536D01*
X862Y536D01*
X862Y534D01*
X866Y534D01*
X866Y532D01*
X868Y532D01*
X868Y530D01*
X872Y530D01*
X872Y528D01*
X874Y528D01*
X874Y524D01*
X876Y524D01*
X876Y522D01*
X878Y522D01*
X878Y518D01*
X880Y518D01*
X880Y496D01*
X878Y496D01*
X878Y492D01*
X876Y492D01*
X876Y490D01*
X874Y490D01*
X874Y488D01*
X872Y488D01*
X872Y486D01*
X870Y486D01*
X870Y484D01*
X868Y484D01*
X868Y482D01*
X864Y482D01*
X864Y480D01*
X860Y480D01*
X860Y478D01*
X852Y478D01*
X852Y414D01*
X872Y414D01*
X872Y416D01*
X874Y416D01*
X874Y420D01*
X876Y420D01*
X876Y422D01*
X878Y422D01*
X878Y424D01*
X880Y424D01*
X880Y426D01*
X882Y426D01*
X882Y430D01*
X884Y430D01*
X884Y432D01*
X886Y432D01*
X886Y434D01*
X888Y434D01*
X888Y436D01*
X890Y436D01*
X890Y440D01*
X892Y440D01*
X892Y442D01*
X894Y442D01*
X894Y444D01*
X896Y444D01*
X896Y446D01*
X898Y446D01*
X898Y450D01*
X900Y450D01*
X900Y452D01*
X902Y452D01*
X902Y454D01*
X904Y454D01*
X904Y456D01*
X906Y456D01*
X906Y460D01*
X908Y460D01*
X908Y466D01*
X910Y466D01*
X910Y474D01*
X912Y474D01*
X912Y478D01*
X914Y478D01*
X914Y480D01*
X916Y480D01*
X916Y484D01*
X918Y484D01*
X918Y486D01*
X920Y486D01*
X920Y488D01*
X922Y488D01*
X922Y490D01*
X924Y490D01*
X924Y492D01*
X926Y492D01*
X926Y494D01*
X930Y494D01*
X930Y496D01*
X934Y496D01*
X934Y498D01*
X936Y498D01*
X936Y518D01*
X932Y518D01*
X932Y520D01*
X928Y520D01*
X928Y522D01*
X924Y522D01*
X924Y524D01*
X922Y524D01*
X922Y526D01*
X920Y526D01*
X920Y528D01*
X918Y528D01*
X918Y530D01*
X916Y530D01*
X916Y534D01*
X914Y534D01*
X914Y538D01*
X912Y538D01*
X912Y542D01*
X910Y542D01*
X910Y548D01*
X908Y548D01*
X908Y566D01*
X910Y566D01*
X910Y574D01*
X912Y574D01*
X912Y578D01*
X914Y578D01*
X914Y580D01*
X916Y580D01*
X916Y584D01*
X918Y584D01*
X918Y586D01*
X920Y586D01*
X920Y588D01*
X922Y588D01*
X922Y590D01*
X924Y590D01*
X924Y592D01*
X926Y592D01*
X926Y594D01*
X930Y594D01*
X930Y596D01*
X934Y596D01*
X934Y598D01*
X936Y598D01*
X936Y618D01*
X932Y618D01*
X932Y620D01*
X928Y620D01*
X928Y622D01*
X924Y622D01*
X924Y624D01*
X922Y624D01*
X922Y626D01*
X920Y626D01*
X920Y628D01*
X918Y628D01*
X918Y630D01*
X916Y630D01*
X916Y634D01*
X914Y634D01*
X914Y638D01*
X912Y638D01*
X912Y640D01*
X892Y640D01*
G37*
D02*
G36*
X644Y580D02*
X644Y560D01*
X646Y560D01*
X646Y558D01*
X648Y558D01*
X648Y554D01*
X650Y554D01*
X650Y552D01*
X652Y552D01*
X652Y550D01*
X654Y550D01*
X654Y548D01*
X656Y548D01*
X656Y544D01*
X658Y544D01*
X658Y542D01*
X660Y542D01*
X660Y540D01*
X662Y540D01*
X662Y538D01*
X664Y538D01*
X664Y536D01*
X666Y536D01*
X666Y532D01*
X668Y532D01*
X668Y530D01*
X670Y530D01*
X670Y528D01*
X672Y528D01*
X672Y526D01*
X696Y526D01*
X696Y580D01*
X644Y580D01*
G37*
D02*
G36*
X180Y552D02*
X180Y522D01*
X178Y522D01*
X178Y502D01*
X248Y502D01*
X248Y504D01*
X240Y504D01*
X240Y506D01*
X236Y506D01*
X236Y508D01*
X234Y508D01*
X234Y510D01*
X230Y510D01*
X230Y512D01*
X228Y512D01*
X228Y516D01*
X226Y516D01*
X226Y518D01*
X224Y518D01*
X224Y524D01*
X222Y524D01*
X222Y552D01*
X180Y552D01*
G37*
D02*
G36*
X256Y504D02*
X256Y502D01*
X282Y502D01*
X282Y504D01*
X256Y504D01*
G37*
D02*
G36*
X180Y502D02*
X180Y500D01*
X284Y500D01*
X284Y502D01*
X180Y502D01*
G37*
D02*
G36*
X180Y502D02*
X180Y500D01*
X284Y500D01*
X284Y502D01*
X180Y502D01*
G37*
D02*
G36*
X182Y500D02*
X182Y498D01*
X184Y498D01*
X184Y496D01*
X186Y496D01*
X186Y494D01*
X188Y494D01*
X188Y492D01*
X190Y492D01*
X190Y490D01*
X192Y490D01*
X192Y488D01*
X194Y488D01*
X194Y486D01*
X196Y486D01*
X196Y484D01*
X198Y484D01*
X198Y482D01*
X200Y482D01*
X200Y480D01*
X202Y480D01*
X202Y478D01*
X204Y478D01*
X204Y476D01*
X206Y476D01*
X206Y474D01*
X208Y474D01*
X208Y472D01*
X210Y472D01*
X210Y470D01*
X212Y470D01*
X212Y468D01*
X214Y468D01*
X214Y466D01*
X216Y466D01*
X216Y464D01*
X218Y464D01*
X218Y462D01*
X220Y462D01*
X220Y460D01*
X222Y460D01*
X222Y458D01*
X224Y458D01*
X224Y456D01*
X226Y456D01*
X226Y454D01*
X228Y454D01*
X228Y452D01*
X230Y452D01*
X230Y450D01*
X232Y450D01*
X232Y448D01*
X234Y448D01*
X234Y446D01*
X236Y446D01*
X236Y444D01*
X284Y444D01*
X284Y500D01*
X182Y500D01*
G37*
D02*
G36*
X580Y552D02*
X580Y522D01*
X578Y522D01*
X578Y518D01*
X576Y518D01*
X576Y514D01*
X574Y514D01*
X574Y512D01*
X572Y512D01*
X572Y510D01*
X570Y510D01*
X570Y508D01*
X566Y508D01*
X566Y506D01*
X564Y506D01*
X564Y504D01*
X556Y504D01*
X556Y502D01*
X542Y502D01*
X542Y500D01*
X540Y500D01*
X540Y498D01*
X538Y498D01*
X538Y496D01*
X536Y496D01*
X536Y494D01*
X534Y494D01*
X534Y492D01*
X532Y492D01*
X532Y490D01*
X530Y490D01*
X530Y488D01*
X528Y488D01*
X528Y486D01*
X526Y486D01*
X526Y484D01*
X524Y484D01*
X524Y482D01*
X522Y482D01*
X522Y480D01*
X518Y480D01*
X518Y478D01*
X418Y478D01*
X418Y476D01*
X416Y476D01*
X416Y474D01*
X414Y474D01*
X414Y472D01*
X412Y472D01*
X412Y470D01*
X410Y470D01*
X410Y468D01*
X408Y468D01*
X408Y466D01*
X406Y466D01*
X406Y464D01*
X404Y464D01*
X404Y444D01*
X622Y444D01*
X622Y410D01*
X696Y410D01*
X696Y490D01*
X656Y490D01*
X656Y492D01*
X654Y492D01*
X654Y494D01*
X652Y494D01*
X652Y496D01*
X650Y496D01*
X650Y498D01*
X648Y498D01*
X648Y500D01*
X646Y500D01*
X646Y502D01*
X644Y502D01*
X644Y504D01*
X642Y504D01*
X642Y508D01*
X640Y508D01*
X640Y510D01*
X638Y510D01*
X638Y512D01*
X636Y512D01*
X636Y514D01*
X634Y514D01*
X634Y518D01*
X632Y518D01*
X632Y520D01*
X630Y520D01*
X630Y522D01*
X628Y522D01*
X628Y524D01*
X626Y524D01*
X626Y528D01*
X624Y528D01*
X624Y530D01*
X622Y530D01*
X622Y532D01*
X620Y532D01*
X620Y534D01*
X618Y534D01*
X618Y538D01*
X616Y538D01*
X616Y540D01*
X614Y540D01*
X614Y542D01*
X612Y542D01*
X612Y544D01*
X610Y544D01*
X610Y548D01*
X608Y548D01*
X608Y550D01*
X606Y550D01*
X606Y552D01*
X580Y552D01*
G37*
D02*
G36*
X132Y486D02*
X132Y428D01*
X130Y428D01*
X130Y422D01*
X128Y422D01*
X128Y420D01*
X126Y420D01*
X126Y418D01*
X124Y418D01*
X124Y416D01*
X122Y416D01*
X122Y412D01*
X120Y412D01*
X120Y410D01*
X118Y410D01*
X118Y408D01*
X116Y408D01*
X116Y406D01*
X114Y406D01*
X114Y404D01*
X112Y404D01*
X112Y400D01*
X110Y400D01*
X110Y398D01*
X108Y398D01*
X108Y396D01*
X106Y396D01*
X106Y394D01*
X104Y394D01*
X104Y392D01*
X102Y392D01*
X102Y388D01*
X100Y388D01*
X100Y386D01*
X98Y386D01*
X98Y384D01*
X96Y384D01*
X96Y382D01*
X94Y382D01*
X94Y346D01*
X92Y346D01*
X92Y324D01*
X94Y324D01*
X94Y322D01*
X98Y322D01*
X98Y320D01*
X102Y320D01*
X102Y318D01*
X108Y318D01*
X108Y316D01*
X112Y316D01*
X112Y314D01*
X116Y314D01*
X116Y312D01*
X118Y312D01*
X118Y298D01*
X140Y298D01*
X140Y300D01*
X178Y300D01*
X178Y302D01*
X180Y302D01*
X180Y304D01*
X182Y304D01*
X182Y306D01*
X184Y306D01*
X184Y308D01*
X188Y308D01*
X188Y310D01*
X190Y310D01*
X190Y312D01*
X192Y312D01*
X192Y314D01*
X194Y314D01*
X194Y316D01*
X196Y316D01*
X196Y318D01*
X200Y318D01*
X200Y320D01*
X202Y320D01*
X202Y322D01*
X204Y322D01*
X204Y324D01*
X206Y324D01*
X206Y326D01*
X208Y326D01*
X208Y328D01*
X210Y328D01*
X210Y330D01*
X214Y330D01*
X214Y332D01*
X216Y332D01*
X216Y334D01*
X218Y334D01*
X218Y336D01*
X220Y336D01*
X220Y338D01*
X222Y338D01*
X222Y340D01*
X224Y340D01*
X224Y342D01*
X228Y342D01*
X228Y344D01*
X230Y344D01*
X230Y346D01*
X232Y346D01*
X232Y348D01*
X358Y348D01*
X358Y350D01*
X360Y350D01*
X360Y370D01*
X256Y370D01*
X256Y392D01*
X244Y392D01*
X244Y394D01*
X240Y394D01*
X240Y396D01*
X238Y396D01*
X238Y398D01*
X236Y398D01*
X236Y400D01*
X234Y400D01*
X234Y402D01*
X232Y402D01*
X232Y404D01*
X230Y404D01*
X230Y406D01*
X228Y406D01*
X228Y408D01*
X226Y408D01*
X226Y410D01*
X224Y410D01*
X224Y412D01*
X222Y412D01*
X222Y414D01*
X220Y414D01*
X220Y416D01*
X218Y416D01*
X218Y418D01*
X216Y418D01*
X216Y420D01*
X214Y420D01*
X214Y422D01*
X212Y422D01*
X212Y424D01*
X210Y424D01*
X210Y426D01*
X208Y426D01*
X208Y428D01*
X206Y428D01*
X206Y430D01*
X204Y430D01*
X204Y432D01*
X202Y432D01*
X202Y434D01*
X200Y434D01*
X200Y436D01*
X198Y436D01*
X198Y438D01*
X196Y438D01*
X196Y440D01*
X194Y440D01*
X194Y442D01*
X192Y442D01*
X192Y446D01*
X190Y446D01*
X190Y448D01*
X188Y448D01*
X188Y450D01*
X186Y450D01*
X186Y452D01*
X184Y452D01*
X184Y454D01*
X182Y454D01*
X182Y456D01*
X180Y456D01*
X180Y458D01*
X178Y458D01*
X178Y460D01*
X176Y460D01*
X176Y462D01*
X174Y462D01*
X174Y464D01*
X172Y464D01*
X172Y466D01*
X170Y466D01*
X170Y468D01*
X168Y468D01*
X168Y470D01*
X166Y470D01*
X166Y472D01*
X164Y472D01*
X164Y474D01*
X162Y474D01*
X162Y476D01*
X160Y476D01*
X160Y478D01*
X158Y478D01*
X158Y480D01*
X156Y480D01*
X156Y482D01*
X154Y482D01*
X154Y484D01*
X152Y484D01*
X152Y486D01*
X132Y486D01*
G37*
D02*
G36*
X914Y418D02*
X914Y416D01*
X912Y416D01*
X912Y414D01*
X910Y414D01*
X910Y410D01*
X908Y410D01*
X908Y408D01*
X906Y408D01*
X906Y406D01*
X904Y406D01*
X904Y404D01*
X902Y404D01*
X902Y400D01*
X900Y400D01*
X900Y398D01*
X898Y398D01*
X898Y396D01*
X896Y396D01*
X896Y394D01*
X894Y394D01*
X894Y390D01*
X892Y390D01*
X892Y388D01*
X890Y388D01*
X890Y386D01*
X888Y386D01*
X888Y384D01*
X886Y384D01*
X886Y382D01*
X884Y382D01*
X884Y380D01*
X816Y380D01*
X816Y378D01*
X772Y378D01*
X772Y358D01*
X774Y358D01*
X774Y356D01*
X776Y356D01*
X776Y354D01*
X778Y354D01*
X778Y352D01*
X780Y352D01*
X780Y350D01*
X782Y350D01*
X782Y348D01*
X784Y348D01*
X784Y346D01*
X786Y346D01*
X786Y344D01*
X788Y344D01*
X788Y342D01*
X790Y342D01*
X790Y340D01*
X792Y340D01*
X792Y338D01*
X794Y338D01*
X794Y336D01*
X796Y336D01*
X796Y334D01*
X798Y334D01*
X798Y332D01*
X800Y332D01*
X800Y330D01*
X802Y330D01*
X802Y328D01*
X804Y328D01*
X804Y326D01*
X806Y326D01*
X806Y324D01*
X808Y324D01*
X808Y322D01*
X810Y322D01*
X810Y320D01*
X812Y320D01*
X812Y318D01*
X814Y318D01*
X814Y316D01*
X816Y316D01*
X816Y314D01*
X818Y314D01*
X818Y312D01*
X820Y312D01*
X820Y310D01*
X822Y310D01*
X822Y308D01*
X824Y308D01*
X824Y306D01*
X826Y306D01*
X826Y304D01*
X828Y304D01*
X828Y302D01*
X830Y302D01*
X830Y300D01*
X862Y300D01*
X862Y298D01*
X868Y298D01*
X868Y296D01*
X872Y296D01*
X872Y294D01*
X876Y294D01*
X876Y292D01*
X878Y292D01*
X878Y290D01*
X880Y290D01*
X880Y288D01*
X882Y288D01*
X882Y286D01*
X884Y286D01*
X884Y284D01*
X886Y284D01*
X886Y282D01*
X888Y282D01*
X888Y278D01*
X908Y278D01*
X908Y282D01*
X910Y282D01*
X910Y284D01*
X912Y284D01*
X912Y288D01*
X914Y288D01*
X914Y290D01*
X916Y290D01*
X916Y292D01*
X918Y292D01*
X918Y294D01*
X920Y294D01*
X920Y296D01*
X924Y296D01*
X924Y298D01*
X926Y298D01*
X926Y300D01*
X930Y300D01*
X930Y320D01*
X928Y320D01*
X928Y322D01*
X924Y322D01*
X924Y324D01*
X922Y324D01*
X922Y326D01*
X920Y326D01*
X920Y328D01*
X918Y328D01*
X918Y330D01*
X916Y330D01*
X916Y334D01*
X914Y334D01*
X914Y338D01*
X912Y338D01*
X912Y342D01*
X910Y342D01*
X910Y348D01*
X908Y348D01*
X908Y366D01*
X910Y366D01*
X910Y374D01*
X912Y374D01*
X912Y378D01*
X914Y378D01*
X914Y380D01*
X916Y380D01*
X916Y384D01*
X918Y384D01*
X918Y386D01*
X920Y386D01*
X920Y388D01*
X922Y388D01*
X922Y390D01*
X924Y390D01*
X924Y392D01*
X926Y392D01*
X926Y394D01*
X930Y394D01*
X930Y396D01*
X934Y396D01*
X934Y398D01*
X936Y398D01*
X936Y418D01*
X914Y418D01*
G37*
D02*
G36*
X710Y340D02*
X710Y320D01*
X712Y320D01*
X712Y318D01*
X714Y318D01*
X714Y316D01*
X716Y316D01*
X716Y314D01*
X718Y314D01*
X718Y312D01*
X720Y312D01*
X720Y310D01*
X722Y310D01*
X722Y308D01*
X724Y308D01*
X724Y306D01*
X726Y306D01*
X726Y304D01*
X728Y304D01*
X728Y302D01*
X730Y302D01*
X730Y300D01*
X770Y300D01*
X770Y316D01*
X768Y316D01*
X768Y318D01*
X766Y318D01*
X766Y320D01*
X764Y320D01*
X764Y322D01*
X762Y322D01*
X762Y324D01*
X760Y324D01*
X760Y326D01*
X758Y326D01*
X758Y328D01*
X756Y328D01*
X756Y330D01*
X754Y330D01*
X754Y332D01*
X752Y332D01*
X752Y334D01*
X750Y334D01*
X750Y336D01*
X748Y336D01*
X748Y338D01*
X746Y338D01*
X746Y340D01*
X710Y340D01*
G37*
D02*
G36*
X192Y242D02*
X192Y240D01*
X190Y240D01*
X190Y236D01*
X188Y236D01*
X188Y232D01*
X186Y232D01*
X186Y230D01*
X184Y230D01*
X184Y228D01*
X182Y228D01*
X182Y226D01*
X180Y226D01*
X180Y224D01*
X178Y224D01*
X178Y222D01*
X176Y222D01*
X176Y220D01*
X172Y220D01*
X172Y218D01*
X168Y218D01*
X168Y196D01*
X172Y196D01*
X172Y194D01*
X176Y194D01*
X176Y192D01*
X178Y192D01*
X178Y190D01*
X180Y190D01*
X180Y188D01*
X182Y188D01*
X182Y186D01*
X184Y186D01*
X184Y184D01*
X186Y184D01*
X186Y182D01*
X188Y182D01*
X188Y180D01*
X216Y180D01*
X216Y184D01*
X218Y184D01*
X218Y186D01*
X220Y186D01*
X220Y188D01*
X222Y188D01*
X222Y190D01*
X224Y190D01*
X224Y192D01*
X226Y192D01*
X226Y194D01*
X230Y194D01*
X230Y196D01*
X234Y196D01*
X234Y198D01*
X236Y198D01*
X236Y218D01*
X232Y218D01*
X232Y220D01*
X228Y220D01*
X228Y222D01*
X224Y222D01*
X224Y224D01*
X222Y224D01*
X222Y226D01*
X220Y226D01*
X220Y228D01*
X218Y228D01*
X218Y230D01*
X216Y230D01*
X216Y234D01*
X214Y234D01*
X214Y238D01*
X212Y238D01*
X212Y242D01*
X192Y242D01*
G37*
D02*
G36*
X292Y242D02*
X292Y240D01*
X290Y240D01*
X290Y236D01*
X288Y236D01*
X288Y232D01*
X286Y232D01*
X286Y230D01*
X284Y230D01*
X284Y228D01*
X282Y228D01*
X282Y226D01*
X280Y226D01*
X280Y224D01*
X278Y224D01*
X278Y222D01*
X276Y222D01*
X276Y220D01*
X272Y220D01*
X272Y218D01*
X268Y218D01*
X268Y196D01*
X272Y196D01*
X272Y194D01*
X276Y194D01*
X276Y192D01*
X278Y192D01*
X278Y190D01*
X280Y190D01*
X280Y188D01*
X282Y188D01*
X282Y186D01*
X284Y186D01*
X284Y184D01*
X286Y184D01*
X286Y182D01*
X288Y182D01*
X288Y180D01*
X316Y180D01*
X316Y184D01*
X318Y184D01*
X318Y186D01*
X320Y186D01*
X320Y188D01*
X322Y188D01*
X322Y190D01*
X324Y190D01*
X324Y192D01*
X326Y192D01*
X326Y194D01*
X330Y194D01*
X330Y196D01*
X334Y196D01*
X334Y198D01*
X336Y198D01*
X336Y218D01*
X332Y218D01*
X332Y220D01*
X328Y220D01*
X328Y222D01*
X324Y222D01*
X324Y224D01*
X322Y224D01*
X322Y226D01*
X320Y226D01*
X320Y228D01*
X318Y228D01*
X318Y230D01*
X316Y230D01*
X316Y234D01*
X314Y234D01*
X314Y238D01*
X312Y238D01*
X312Y242D01*
X292Y242D01*
G37*
D02*
G36*
X392Y242D02*
X392Y240D01*
X390Y240D01*
X390Y236D01*
X388Y236D01*
X388Y232D01*
X386Y232D01*
X386Y230D01*
X384Y230D01*
X384Y228D01*
X382Y228D01*
X382Y226D01*
X380Y226D01*
X380Y224D01*
X378Y224D01*
X378Y222D01*
X376Y222D01*
X376Y220D01*
X372Y220D01*
X372Y218D01*
X368Y218D01*
X368Y196D01*
X372Y196D01*
X372Y194D01*
X376Y194D01*
X376Y192D01*
X378Y192D01*
X378Y190D01*
X380Y190D01*
X380Y188D01*
X382Y188D01*
X382Y186D01*
X384Y186D01*
X384Y184D01*
X386Y184D01*
X386Y182D01*
X388Y182D01*
X388Y180D01*
X416Y180D01*
X416Y184D01*
X418Y184D01*
X418Y186D01*
X420Y186D01*
X420Y188D01*
X422Y188D01*
X422Y190D01*
X424Y190D01*
X424Y192D01*
X426Y192D01*
X426Y194D01*
X430Y194D01*
X430Y196D01*
X434Y196D01*
X434Y198D01*
X436Y198D01*
X436Y218D01*
X432Y218D01*
X432Y220D01*
X428Y220D01*
X428Y222D01*
X424Y222D01*
X424Y224D01*
X422Y224D01*
X422Y226D01*
X420Y226D01*
X420Y228D01*
X418Y228D01*
X418Y230D01*
X416Y230D01*
X416Y234D01*
X414Y234D01*
X414Y238D01*
X412Y238D01*
X412Y242D01*
X392Y242D01*
G37*
D02*
G36*
X492Y242D02*
X492Y240D01*
X490Y240D01*
X490Y236D01*
X488Y236D01*
X488Y232D01*
X486Y232D01*
X486Y230D01*
X484Y230D01*
X484Y228D01*
X482Y228D01*
X482Y226D01*
X480Y226D01*
X480Y224D01*
X478Y224D01*
X478Y222D01*
X476Y222D01*
X476Y220D01*
X472Y220D01*
X472Y218D01*
X468Y218D01*
X468Y196D01*
X472Y196D01*
X472Y194D01*
X476Y194D01*
X476Y192D01*
X478Y192D01*
X478Y190D01*
X480Y190D01*
X480Y188D01*
X482Y188D01*
X482Y186D01*
X484Y186D01*
X484Y184D01*
X486Y184D01*
X486Y182D01*
X488Y182D01*
X488Y180D01*
X516Y180D01*
X516Y184D01*
X518Y184D01*
X518Y186D01*
X520Y186D01*
X520Y188D01*
X522Y188D01*
X522Y190D01*
X524Y190D01*
X524Y192D01*
X526Y192D01*
X526Y194D01*
X530Y194D01*
X530Y196D01*
X534Y196D01*
X534Y198D01*
X536Y198D01*
X536Y218D01*
X532Y218D01*
X532Y220D01*
X528Y220D01*
X528Y222D01*
X524Y222D01*
X524Y224D01*
X522Y224D01*
X522Y226D01*
X520Y226D01*
X520Y228D01*
X518Y228D01*
X518Y230D01*
X516Y230D01*
X516Y234D01*
X514Y234D01*
X514Y238D01*
X512Y238D01*
X512Y242D01*
X492Y242D01*
G37*
D02*
G36*
X592Y242D02*
X592Y240D01*
X590Y240D01*
X590Y236D01*
X588Y236D01*
X588Y232D01*
X586Y232D01*
X586Y230D01*
X584Y230D01*
X584Y228D01*
X582Y228D01*
X582Y226D01*
X580Y226D01*
X580Y224D01*
X578Y224D01*
X578Y222D01*
X576Y222D01*
X576Y220D01*
X572Y220D01*
X572Y218D01*
X568Y218D01*
X568Y196D01*
X572Y196D01*
X572Y194D01*
X576Y194D01*
X576Y192D01*
X578Y192D01*
X578Y190D01*
X580Y190D01*
X580Y188D01*
X582Y188D01*
X582Y186D01*
X584Y186D01*
X584Y184D01*
X586Y184D01*
X586Y182D01*
X588Y182D01*
X588Y180D01*
X616Y180D01*
X616Y184D01*
X618Y184D01*
X618Y186D01*
X620Y186D01*
X620Y188D01*
X622Y188D01*
X622Y190D01*
X624Y190D01*
X624Y192D01*
X626Y192D01*
X626Y194D01*
X630Y194D01*
X630Y196D01*
X634Y196D01*
X634Y198D01*
X636Y198D01*
X636Y218D01*
X632Y218D01*
X632Y220D01*
X628Y220D01*
X628Y222D01*
X624Y222D01*
X624Y224D01*
X622Y224D01*
X622Y226D01*
X620Y226D01*
X620Y228D01*
X618Y228D01*
X618Y230D01*
X616Y230D01*
X616Y234D01*
X614Y234D01*
X614Y238D01*
X612Y238D01*
X612Y242D01*
X592Y242D01*
G37*
D02*
G36*
X692Y242D02*
X692Y240D01*
X690Y240D01*
X690Y236D01*
X688Y236D01*
X688Y232D01*
X686Y232D01*
X686Y230D01*
X684Y230D01*
X684Y228D01*
X682Y228D01*
X682Y226D01*
X680Y226D01*
X680Y224D01*
X678Y224D01*
X678Y222D01*
X676Y222D01*
X676Y220D01*
X672Y220D01*
X672Y218D01*
X668Y218D01*
X668Y196D01*
X672Y196D01*
X672Y194D01*
X676Y194D01*
X676Y192D01*
X678Y192D01*
X678Y190D01*
X680Y190D01*
X680Y188D01*
X682Y188D01*
X682Y186D01*
X684Y186D01*
X684Y184D01*
X686Y184D01*
X686Y182D01*
X688Y182D01*
X688Y180D01*
X716Y180D01*
X716Y184D01*
X718Y184D01*
X718Y186D01*
X720Y186D01*
X720Y188D01*
X722Y188D01*
X722Y190D01*
X724Y190D01*
X724Y192D01*
X726Y192D01*
X726Y194D01*
X730Y194D01*
X730Y196D01*
X734Y196D01*
X734Y198D01*
X736Y198D01*
X736Y218D01*
X732Y218D01*
X732Y220D01*
X728Y220D01*
X728Y222D01*
X724Y222D01*
X724Y224D01*
X722Y224D01*
X722Y226D01*
X720Y226D01*
X720Y228D01*
X718Y228D01*
X718Y230D01*
X716Y230D01*
X716Y234D01*
X714Y234D01*
X714Y238D01*
X712Y238D01*
X712Y242D01*
X692Y242D01*
G37*
D02*
G36*
X792Y242D02*
X792Y240D01*
X790Y240D01*
X790Y236D01*
X788Y236D01*
X788Y232D01*
X786Y232D01*
X786Y230D01*
X784Y230D01*
X784Y228D01*
X782Y228D01*
X782Y226D01*
X780Y226D01*
X780Y224D01*
X778Y224D01*
X778Y222D01*
X776Y222D01*
X776Y220D01*
X772Y220D01*
X772Y218D01*
X768Y218D01*
X768Y196D01*
X772Y196D01*
X772Y194D01*
X776Y194D01*
X776Y192D01*
X778Y192D01*
X778Y190D01*
X780Y190D01*
X780Y188D01*
X782Y188D01*
X782Y186D01*
X784Y186D01*
X784Y184D01*
X786Y184D01*
X786Y182D01*
X788Y182D01*
X788Y180D01*
X816Y180D01*
X816Y184D01*
X818Y184D01*
X818Y186D01*
X820Y186D01*
X820Y188D01*
X822Y188D01*
X822Y190D01*
X824Y190D01*
X824Y192D01*
X826Y192D01*
X826Y194D01*
X830Y194D01*
X830Y196D01*
X832Y196D01*
X832Y198D01*
X834Y198D01*
X834Y218D01*
X832Y218D01*
X832Y220D01*
X828Y220D01*
X828Y222D01*
X824Y222D01*
X824Y224D01*
X822Y224D01*
X822Y226D01*
X820Y226D01*
X820Y228D01*
X818Y228D01*
X818Y230D01*
X816Y230D01*
X816Y234D01*
X814Y234D01*
X814Y238D01*
X812Y238D01*
X812Y242D01*
X792Y242D01*
G37*
D02*
G36*
X188Y136D02*
X188Y132D01*
X186Y132D01*
X186Y130D01*
X184Y130D01*
X184Y128D01*
X182Y128D01*
X182Y126D01*
X180Y126D01*
X180Y124D01*
X178Y124D01*
X178Y122D01*
X176Y122D01*
X176Y120D01*
X172Y120D01*
X172Y118D01*
X168Y118D01*
X168Y96D01*
X172Y96D01*
X172Y94D01*
X176Y94D01*
X176Y92D01*
X178Y92D01*
X178Y90D01*
X180Y90D01*
X180Y88D01*
X182Y88D01*
X182Y86D01*
X184Y86D01*
X184Y84D01*
X186Y84D01*
X186Y82D01*
X188Y82D01*
X188Y78D01*
X190Y78D01*
X190Y74D01*
X212Y74D01*
X212Y78D01*
X214Y78D01*
X214Y80D01*
X216Y80D01*
X216Y84D01*
X218Y84D01*
X218Y86D01*
X220Y86D01*
X220Y88D01*
X222Y88D01*
X222Y90D01*
X224Y90D01*
X224Y92D01*
X226Y92D01*
X226Y94D01*
X230Y94D01*
X230Y96D01*
X234Y96D01*
X234Y98D01*
X236Y98D01*
X236Y118D01*
X232Y118D01*
X232Y120D01*
X228Y120D01*
X228Y122D01*
X224Y122D01*
X224Y124D01*
X222Y124D01*
X222Y126D01*
X220Y126D01*
X220Y128D01*
X218Y128D01*
X218Y130D01*
X216Y130D01*
X216Y134D01*
X214Y134D01*
X214Y136D01*
X188Y136D01*
G37*
D02*
G36*
X288Y136D02*
X288Y132D01*
X286Y132D01*
X286Y130D01*
X284Y130D01*
X284Y128D01*
X282Y128D01*
X282Y126D01*
X280Y126D01*
X280Y124D01*
X278Y124D01*
X278Y122D01*
X276Y122D01*
X276Y120D01*
X272Y120D01*
X272Y118D01*
X268Y118D01*
X268Y96D01*
X272Y96D01*
X272Y94D01*
X276Y94D01*
X276Y92D01*
X278Y92D01*
X278Y90D01*
X280Y90D01*
X280Y88D01*
X282Y88D01*
X282Y86D01*
X284Y86D01*
X284Y84D01*
X286Y84D01*
X286Y82D01*
X288Y82D01*
X288Y78D01*
X290Y78D01*
X290Y74D01*
X312Y74D01*
X312Y78D01*
X314Y78D01*
X314Y80D01*
X316Y80D01*
X316Y84D01*
X318Y84D01*
X318Y86D01*
X320Y86D01*
X320Y88D01*
X322Y88D01*
X322Y90D01*
X324Y90D01*
X324Y92D01*
X326Y92D01*
X326Y94D01*
X330Y94D01*
X330Y96D01*
X334Y96D01*
X334Y98D01*
X336Y98D01*
X336Y118D01*
X332Y118D01*
X332Y120D01*
X328Y120D01*
X328Y122D01*
X324Y122D01*
X324Y124D01*
X322Y124D01*
X322Y126D01*
X320Y126D01*
X320Y128D01*
X318Y128D01*
X318Y130D01*
X316Y130D01*
X316Y134D01*
X314Y134D01*
X314Y136D01*
X288Y136D01*
G37*
D02*
G36*
X388Y136D02*
X388Y132D01*
X386Y132D01*
X386Y130D01*
X384Y130D01*
X384Y128D01*
X382Y128D01*
X382Y126D01*
X380Y126D01*
X380Y124D01*
X378Y124D01*
X378Y122D01*
X376Y122D01*
X376Y120D01*
X372Y120D01*
X372Y118D01*
X368Y118D01*
X368Y96D01*
X372Y96D01*
X372Y94D01*
X376Y94D01*
X376Y92D01*
X378Y92D01*
X378Y90D01*
X380Y90D01*
X380Y88D01*
X382Y88D01*
X382Y86D01*
X384Y86D01*
X384Y84D01*
X386Y84D01*
X386Y82D01*
X388Y82D01*
X388Y78D01*
X390Y78D01*
X390Y74D01*
X412Y74D01*
X412Y78D01*
X414Y78D01*
X414Y80D01*
X416Y80D01*
X416Y84D01*
X418Y84D01*
X418Y86D01*
X420Y86D01*
X420Y88D01*
X422Y88D01*
X422Y90D01*
X424Y90D01*
X424Y92D01*
X426Y92D01*
X426Y94D01*
X430Y94D01*
X430Y96D01*
X434Y96D01*
X434Y98D01*
X436Y98D01*
X436Y118D01*
X432Y118D01*
X432Y120D01*
X428Y120D01*
X428Y122D01*
X424Y122D01*
X424Y124D01*
X422Y124D01*
X422Y126D01*
X420Y126D01*
X420Y128D01*
X418Y128D01*
X418Y130D01*
X416Y130D01*
X416Y134D01*
X414Y134D01*
X414Y136D01*
X388Y136D01*
G37*
D02*
G36*
X488Y136D02*
X488Y132D01*
X486Y132D01*
X486Y130D01*
X484Y130D01*
X484Y128D01*
X482Y128D01*
X482Y126D01*
X480Y126D01*
X480Y124D01*
X478Y124D01*
X478Y122D01*
X476Y122D01*
X476Y120D01*
X472Y120D01*
X472Y118D01*
X468Y118D01*
X468Y96D01*
X472Y96D01*
X472Y94D01*
X476Y94D01*
X476Y92D01*
X478Y92D01*
X478Y90D01*
X480Y90D01*
X480Y88D01*
X482Y88D01*
X482Y86D01*
X484Y86D01*
X484Y84D01*
X486Y84D01*
X486Y82D01*
X488Y82D01*
X488Y78D01*
X490Y78D01*
X490Y74D01*
X512Y74D01*
X512Y78D01*
X514Y78D01*
X514Y80D01*
X516Y80D01*
X516Y84D01*
X518Y84D01*
X518Y86D01*
X520Y86D01*
X520Y88D01*
X522Y88D01*
X522Y90D01*
X524Y90D01*
X524Y92D01*
X526Y92D01*
X526Y94D01*
X530Y94D01*
X530Y96D01*
X534Y96D01*
X534Y98D01*
X536Y98D01*
X536Y118D01*
X532Y118D01*
X532Y120D01*
X528Y120D01*
X528Y122D01*
X524Y122D01*
X524Y124D01*
X522Y124D01*
X522Y126D01*
X520Y126D01*
X520Y128D01*
X518Y128D01*
X518Y130D01*
X516Y130D01*
X516Y134D01*
X514Y134D01*
X514Y136D01*
X488Y136D01*
G37*
D02*
G36*
X588Y136D02*
X588Y132D01*
X586Y132D01*
X586Y130D01*
X584Y130D01*
X584Y128D01*
X582Y128D01*
X582Y126D01*
X580Y126D01*
X580Y124D01*
X578Y124D01*
X578Y122D01*
X576Y122D01*
X576Y120D01*
X572Y120D01*
X572Y118D01*
X568Y118D01*
X568Y96D01*
X572Y96D01*
X572Y94D01*
X576Y94D01*
X576Y92D01*
X578Y92D01*
X578Y90D01*
X580Y90D01*
X580Y88D01*
X582Y88D01*
X582Y86D01*
X584Y86D01*
X584Y84D01*
X586Y84D01*
X586Y82D01*
X588Y82D01*
X588Y78D01*
X590Y78D01*
X590Y74D01*
X612Y74D01*
X612Y78D01*
X614Y78D01*
X614Y80D01*
X616Y80D01*
X616Y84D01*
X618Y84D01*
X618Y86D01*
X620Y86D01*
X620Y88D01*
X622Y88D01*
X622Y90D01*
X624Y90D01*
X624Y92D01*
X626Y92D01*
X626Y94D01*
X630Y94D01*
X630Y96D01*
X634Y96D01*
X634Y98D01*
X636Y98D01*
X636Y118D01*
X632Y118D01*
X632Y120D01*
X628Y120D01*
X628Y122D01*
X624Y122D01*
X624Y124D01*
X622Y124D01*
X622Y126D01*
X620Y126D01*
X620Y128D01*
X618Y128D01*
X618Y130D01*
X616Y130D01*
X616Y134D01*
X614Y134D01*
X614Y136D01*
X588Y136D01*
G37*
D02*
G36*
X688Y136D02*
X688Y132D01*
X686Y132D01*
X686Y130D01*
X684Y130D01*
X684Y128D01*
X682Y128D01*
X682Y126D01*
X680Y126D01*
X680Y124D01*
X678Y124D01*
X678Y122D01*
X676Y122D01*
X676Y120D01*
X672Y120D01*
X672Y118D01*
X668Y118D01*
X668Y96D01*
X672Y96D01*
X672Y94D01*
X676Y94D01*
X676Y92D01*
X678Y92D01*
X678Y90D01*
X680Y90D01*
X680Y88D01*
X682Y88D01*
X682Y86D01*
X684Y86D01*
X684Y84D01*
X686Y84D01*
X686Y82D01*
X688Y82D01*
X688Y78D01*
X690Y78D01*
X690Y74D01*
X712Y74D01*
X712Y78D01*
X714Y78D01*
X714Y80D01*
X716Y80D01*
X716Y84D01*
X718Y84D01*
X718Y86D01*
X720Y86D01*
X720Y88D01*
X722Y88D01*
X722Y90D01*
X724Y90D01*
X724Y92D01*
X726Y92D01*
X726Y94D01*
X730Y94D01*
X730Y96D01*
X734Y96D01*
X734Y98D01*
X736Y98D01*
X736Y118D01*
X732Y118D01*
X732Y120D01*
X728Y120D01*
X728Y122D01*
X724Y122D01*
X724Y124D01*
X722Y124D01*
X722Y126D01*
X720Y126D01*
X720Y128D01*
X718Y128D01*
X718Y130D01*
X716Y130D01*
X716Y134D01*
X714Y134D01*
X714Y136D01*
X688Y136D01*
G37*
D02*
G36*
X788Y136D02*
X788Y132D01*
X786Y132D01*
X786Y130D01*
X784Y130D01*
X784Y128D01*
X782Y128D01*
X782Y126D01*
X780Y126D01*
X780Y124D01*
X778Y124D01*
X778Y122D01*
X776Y122D01*
X776Y120D01*
X772Y120D01*
X772Y118D01*
X768Y118D01*
X768Y96D01*
X772Y96D01*
X772Y94D01*
X776Y94D01*
X776Y92D01*
X778Y92D01*
X778Y90D01*
X780Y90D01*
X780Y88D01*
X782Y88D01*
X782Y86D01*
X784Y86D01*
X784Y84D01*
X786Y84D01*
X786Y82D01*
X788Y82D01*
X788Y78D01*
X790Y78D01*
X790Y74D01*
X812Y74D01*
X812Y78D01*
X814Y78D01*
X814Y80D01*
X816Y80D01*
X816Y84D01*
X818Y84D01*
X818Y86D01*
X820Y86D01*
X820Y88D01*
X822Y88D01*
X822Y90D01*
X824Y90D01*
X824Y92D01*
X826Y92D01*
X826Y94D01*
X830Y94D01*
X830Y96D01*
X834Y96D01*
X834Y98D01*
X836Y98D01*
X836Y118D01*
X832Y118D01*
X832Y120D01*
X828Y120D01*
X828Y122D01*
X824Y122D01*
X824Y124D01*
X822Y124D01*
X822Y126D01*
X820Y126D01*
X820Y128D01*
X818Y128D01*
X818Y130D01*
X816Y130D01*
X816Y134D01*
X814Y134D01*
X814Y136D01*
X788Y136D01*
G37*
D02*
G36*
X882Y128D02*
X882Y126D01*
X880Y126D01*
X880Y124D01*
X878Y124D01*
X878Y122D01*
X876Y122D01*
X876Y120D01*
X872Y120D01*
X872Y118D01*
X868Y118D01*
X868Y96D01*
X872Y96D01*
X872Y94D01*
X876Y94D01*
X876Y92D01*
X878Y92D01*
X878Y90D01*
X880Y90D01*
X880Y88D01*
X882Y88D01*
X882Y86D01*
X884Y86D01*
X884Y84D01*
X886Y84D01*
X886Y82D01*
X888Y82D01*
X888Y78D01*
X890Y78D01*
X890Y74D01*
X892Y74D01*
X892Y68D01*
X894Y68D01*
X894Y40D01*
X918Y40D01*
X918Y66D01*
X920Y66D01*
X920Y72D01*
X922Y72D01*
X922Y74D01*
X924Y74D01*
X924Y78D01*
X926Y78D01*
X926Y80D01*
X928Y80D01*
X928Y82D01*
X930Y82D01*
X930Y84D01*
X932Y84D01*
X932Y86D01*
X936Y86D01*
X936Y88D01*
X942Y88D01*
X942Y108D01*
X902Y108D01*
X902Y128D01*
X882Y128D01*
G37*
D02*
G04 End of Copper1*
M02*