%FSLAX33Y33*%
%MOMM*%
%ADD10C,0.15*%
%ADD11C,0.2*%
%ADD12C,0.500001X0.000003*%
%ADD13C,1.199997X0.000001*%
%ADD14C,0.5*%
%ADD15C,0.5*%
%ADD16C,0.5*%
D10*
%LNtop silkscreen_traces*%
%LNtop silkscreen component 70b09bb2818ad89b*%
G01*
X9196Y10550D02*
X9625Y10550D01*
X9196Y11350D02*
X9625Y11350D01*
G36*
X8814Y11575D02*
X8814Y12291D01*
X9131Y12291D01*
X9176Y12290D01*
X9216Y12286D01*
X9249Y12280D01*
X9277Y12272D01*
X9301Y12260D01*
X9322Y12245D01*
X9340Y12226D01*
X9356Y12203D01*
X9369Y12178D01*
X9379Y12152D01*
X9384Y12124D01*
X9386Y12096D01*
X9383Y12059D01*
X9374Y12025D01*
X9358Y11995D01*
X9337Y11967D01*
X9309Y11943D01*
X9274Y11924D01*
X9233Y11910D01*
X9209Y11905D01*
X9194Y11982D01*
X9214Y11988D01*
X9231Y11996D01*
X9246Y12006D01*
X9259Y12018D01*
X9270Y12031D01*
X9278Y12046D01*
X9284Y12062D01*
X9287Y12078D01*
X9289Y12096D01*
X9286Y12120D01*
X9279Y12142D01*
X9268Y12162D01*
X9252Y12179D01*
X9231Y12193D01*
X9204Y12204D01*
X9172Y12210D01*
X9135Y12212D01*
X8909Y12212D01*
X8909Y11975D01*
X8909Y11975D01*
X9112Y11975D01*
X9143Y11976D01*
X9170Y11978D01*
X9194Y11982D01*
X9209Y11905D01*
X9185Y11901D01*
X9202Y11892D01*
X9218Y11883D01*
X9231Y11874D01*
X9242Y11865D01*
X9262Y11845D01*
X9282Y11822D01*
X9301Y11797D01*
X9320Y11770D01*
X9445Y11575D01*
X9326Y11575D01*
X9231Y11724D01*
X9211Y11754D01*
X9193Y11781D01*
X9177Y11804D01*
X9163Y11823D01*
X9150Y11838D01*
X9137Y11852D01*
X9125Y11862D01*
X9115Y11870D01*
X9104Y11877D01*
X9093Y11882D01*
X9082Y11886D01*
X9071Y11889D01*
X9062Y11891D01*
X9050Y11892D01*
X9036Y11893D01*
X9019Y11893D01*
X8909Y11893D01*
X8909Y11575D01*
X8814Y11575D01*
X8814Y11575D01*
X9961Y11659D02*
X9961Y11575D01*
X9488Y11575D01*
X9488Y11591D01*
X9490Y11606D01*
X9493Y11621D01*
X9498Y11636D01*
X9508Y11660D01*
X9522Y11684D01*
X9537Y11708D01*
X9556Y11731D01*
X9578Y11756D01*
X9605Y11782D01*
X9636Y11810D01*
X9671Y11840D01*
X9725Y11885D01*
X9769Y11925D01*
X9803Y11961D01*
X9829Y11991D01*
X9847Y12019D01*
X9859Y12046D01*
X9867Y12072D01*
X9870Y12097D01*
X9867Y12122D01*
X9860Y12145D01*
X9849Y12166D01*
X9832Y12185D01*
X9812Y12201D01*
X9789Y12212D01*
X9763Y12219D01*
X9735Y12221D01*
X9705Y12219D01*
X9678Y12211D01*
X9654Y12200D01*
X9633Y12183D01*
X9617Y12162D01*
X9605Y12137D01*
X9597Y12109D01*
X9595Y12077D01*
X9504Y12087D01*
X9512Y12134D01*
X9527Y12176D01*
X9547Y12211D01*
X9574Y12241D01*
X9607Y12264D01*
X9645Y12281D01*
X9688Y12290D01*
X9737Y12294D01*
X9786Y12290D01*
X9829Y12279D01*
X9867Y12262D01*
X9900Y12237D01*
X9926Y12206D01*
X9945Y12173D01*
X9956Y12136D01*
X9960Y12095D01*
X9959Y12074D01*
X9956Y12052D01*
X9950Y12031D01*
X9942Y12011D01*
X9932Y11990D01*
X9919Y11968D01*
X9903Y11946D01*
X9884Y11923D01*
X9860Y11898D01*
X9830Y11869D01*
X9793Y11835D01*
X9749Y11797D01*
X9713Y11767D01*
X9684Y11741D01*
X9662Y11722D01*
X9647Y11707D01*
X9636Y11695D01*
X9626Y11683D01*
X9618Y11671D01*
X9610Y11659D01*
X9961Y11659D01*
X9961Y11659D01*
G37*
%LNtop silkscreen component 758c28ff392b9352*%
G36*
X12634Y-13100D02*
X12634Y-12469D01*
X12398Y-12469D01*
X12398Y-12384D01*
X12966Y-12384D01*
X12966Y-12469D01*
X12729Y-12469D01*
X12729Y-13100D01*
X12634Y-13100D01*
X12634Y-13100D01*
X13063Y-13100D02*
X13063Y-12384D01*
X13333Y-12384D01*
X13367Y-12385D01*
X13396Y-12386D01*
X13421Y-12388D01*
X13442Y-12391D01*
X13467Y-12396D01*
X13490Y-12404D01*
X13511Y-12413D01*
X13530Y-12424D01*
X13547Y-12438D01*
X13562Y-12454D01*
X13576Y-12473D01*
X13588Y-12494D01*
X13597Y-12516D01*
X13604Y-12540D01*
X13608Y-12565D01*
X13609Y-12591D01*
X13606Y-12635D01*
X13595Y-12676D01*
X13577Y-12712D01*
X13551Y-12746D01*
X13516Y-12773D01*
X13470Y-12793D01*
X13411Y-12805D01*
X13390Y-12806D01*
X13385Y-12722D01*
X13421Y-12716D01*
X13451Y-12705D01*
X13473Y-12690D01*
X13490Y-12672D01*
X13502Y-12649D01*
X13509Y-12623D01*
X13512Y-12594D01*
X13510Y-12572D01*
X13506Y-12552D01*
X13499Y-12534D01*
X13489Y-12517D01*
X13477Y-12503D01*
X13463Y-12491D01*
X13447Y-12481D01*
X13429Y-12475D01*
X13415Y-12472D01*
X13395Y-12470D01*
X13370Y-12469D01*
X13341Y-12469D01*
X13158Y-12469D01*
X13158Y-12725D01*
X13158Y-12725D01*
X13343Y-12725D01*
X13385Y-12722D01*
X13390Y-12806D01*
X13341Y-12809D01*
X13158Y-12809D01*
X13158Y-13100D01*
X13063Y-13100D01*
X13063Y-13100D01*
X14025Y-13100D02*
X13937Y-13100D01*
X13937Y-12540D01*
X13920Y-12555D01*
X13901Y-12570D01*
X13879Y-12585D01*
X13854Y-12600D01*
X13829Y-12615D01*
X13805Y-12627D01*
X13783Y-12637D01*
X13762Y-12646D01*
X13762Y-12561D01*
X13797Y-12543D01*
X13831Y-12523D01*
X13862Y-12501D01*
X13891Y-12477D01*
X13916Y-12452D01*
X13938Y-12428D01*
X13955Y-12405D01*
X13969Y-12381D01*
X14025Y-12381D01*
X14025Y-13100D01*
X14025Y-13100D01*
G37*
%LNtop silkscreen component 34026410a5ddb421*%
G36*
X14909Y-13150D02*
X14909Y-12519D01*
X14673Y-12519D01*
X14673Y-12434D01*
X15241Y-12434D01*
X15241Y-12519D01*
X15004Y-12519D01*
X15004Y-13150D01*
X14909Y-13150D01*
X14909Y-13150D01*
X15338Y-13150D02*
X15338Y-12434D01*
X15608Y-12434D01*
X15642Y-12435D01*
X15671Y-12436D01*
X15696Y-12438D01*
X15717Y-12441D01*
X15742Y-12446D01*
X15765Y-12454D01*
X15786Y-12463D01*
X15805Y-12474D01*
X15822Y-12488D01*
X15837Y-12504D01*
X15851Y-12523D01*
X15863Y-12544D01*
X15872Y-12566D01*
X15879Y-12590D01*
X15883Y-12615D01*
X15884Y-12641D01*
X15881Y-12685D01*
X15870Y-12726D01*
X15852Y-12762D01*
X15826Y-12796D01*
X15791Y-12823D01*
X15745Y-12843D01*
X15686Y-12855D01*
X15665Y-12856D01*
X15660Y-12772D01*
X15696Y-12766D01*
X15726Y-12755D01*
X15748Y-12740D01*
X15765Y-12722D01*
X15777Y-12699D01*
X15784Y-12673D01*
X15787Y-12644D01*
X15785Y-12622D01*
X15781Y-12602D01*
X15774Y-12584D01*
X15764Y-12567D01*
X15752Y-12553D01*
X15738Y-12541D01*
X15722Y-12531D01*
X15704Y-12525D01*
X15690Y-12522D01*
X15670Y-12520D01*
X15645Y-12519D01*
X15616Y-12519D01*
X15433Y-12519D01*
X15433Y-12775D01*
X15433Y-12775D01*
X15618Y-12775D01*
X15660Y-12772D01*
X15665Y-12856D01*
X15616Y-12859D01*
X15433Y-12859D01*
X15433Y-13150D01*
X15338Y-13150D01*
X15338Y-13150D01*
X16431Y-13066D02*
X16431Y-13150D01*
X15958Y-13150D01*
X15958Y-13134D01*
X15960Y-13119D01*
X15963Y-13104D01*
X15968Y-13089D01*
X15979Y-13065D01*
X15992Y-13041D01*
X16008Y-13017D01*
X16026Y-12994D01*
X16048Y-12969D01*
X16075Y-12943D01*
X16106Y-12915D01*
X16141Y-12885D01*
X16195Y-12840D01*
X16239Y-12800D01*
X16274Y-12764D01*
X16299Y-12734D01*
X16317Y-12706D01*
X16330Y-12679D01*
X16337Y-12653D01*
X16340Y-12628D01*
X16338Y-12603D01*
X16331Y-12580D01*
X16319Y-12559D01*
X16303Y-12540D01*
X16282Y-12524D01*
X16260Y-12513D01*
X16234Y-12506D01*
X16205Y-12504D01*
X16175Y-12506D01*
X16148Y-12514D01*
X16124Y-12525D01*
X16104Y-12542D01*
X16087Y-12563D01*
X16075Y-12588D01*
X16068Y-12616D01*
X16065Y-12648D01*
X15975Y-12638D01*
X15983Y-12591D01*
X15997Y-12549D01*
X16017Y-12514D01*
X16045Y-12484D01*
X16077Y-12461D01*
X16115Y-12444D01*
X16159Y-12435D01*
X16207Y-12431D01*
X16256Y-12435D01*
X16299Y-12446D01*
X16337Y-12463D01*
X16370Y-12488D01*
X16396Y-12519D01*
X16415Y-12552D01*
X16427Y-12589D01*
X16430Y-12630D01*
X16429Y-12651D01*
X16426Y-12673D01*
X16420Y-12694D01*
X16413Y-12714D01*
X16402Y-12735D01*
X16389Y-12757D01*
X16373Y-12779D01*
X16354Y-12802D01*
X16331Y-12827D01*
X16300Y-12856D01*
X16263Y-12890D01*
X16219Y-12928D01*
X16183Y-12958D01*
X16154Y-12984D01*
X16132Y-13003D01*
X16117Y-13018D01*
X16107Y-13030D01*
X16097Y-13042D01*
X16088Y-13054D01*
X16080Y-13066D01*
X16431Y-13066D01*
X16431Y-13066D01*
G37*
%LNtop silkscreen component acdc2106e7d7a5b5*%
X14675Y3175D02*
X14675Y4005D01*
X13425Y3175D02*
X13425Y4005D01*
G36*
X12448Y3551D02*
X12543Y3527D01*
X12525Y3472D01*
X12501Y3424D01*
X12472Y3383D01*
X12436Y3349D01*
X12395Y3322D01*
X12350Y3303D01*
X12300Y3292D01*
X12247Y3288D01*
X12191Y3291D01*
X12142Y3300D01*
X12097Y3314D01*
X12058Y3335D01*
X12024Y3361D01*
X11995Y3393D01*
X11969Y3429D01*
X11948Y3471D01*
X11931Y3517D01*
X11920Y3564D01*
X11913Y3613D01*
X11910Y3663D01*
X11913Y3717D01*
X11921Y3768D01*
X11934Y3815D01*
X11953Y3858D01*
X11977Y3897D01*
X12005Y3932D01*
X12037Y3961D01*
X12074Y3985D01*
X12115Y4004D01*
X12157Y4017D01*
X12202Y4025D01*
X12248Y4028D01*
X12300Y4025D01*
X12347Y4014D01*
X12390Y3997D01*
X12429Y3973D01*
X12463Y3943D01*
X12491Y3908D01*
X12514Y3866D01*
X12531Y3820D01*
X12438Y3798D01*
X12424Y3834D01*
X12407Y3865D01*
X12388Y3891D01*
X12365Y3911D01*
X12340Y3927D01*
X12312Y3938D01*
X12280Y3945D01*
X12246Y3947D01*
X12207Y3945D01*
X12170Y3937D01*
X12138Y3925D01*
X12108Y3907D01*
X12083Y3886D01*
X12061Y3861D01*
X12044Y3833D01*
X12030Y3801D01*
X12020Y3768D01*
X12013Y3734D01*
X12009Y3699D01*
X12008Y3664D01*
X12009Y3620D01*
X12014Y3578D01*
X12023Y3540D01*
X12034Y3504D01*
X12050Y3472D01*
X12068Y3445D01*
X12091Y3422D01*
X12117Y3403D01*
X12146Y3388D01*
X12176Y3377D01*
X12207Y3371D01*
X12239Y3369D01*
X12277Y3372D01*
X12312Y3380D01*
X12344Y3395D01*
X12374Y3415D01*
X12399Y3440D01*
X12420Y3472D01*
X12436Y3509D01*
X12448Y3551D01*
X12448Y3551D01*
X13086Y3384D02*
X13086Y3300D01*
X12613Y3300D01*
X12613Y3316D01*
X12615Y3331D01*
X12618Y3346D01*
X12623Y3361D01*
X12633Y3385D01*
X12647Y3409D01*
X12662Y3433D01*
X12681Y3456D01*
X12703Y3481D01*
X12730Y3507D01*
X12761Y3535D01*
X12796Y3565D01*
X12850Y3610D01*
X12894Y3650D01*
X12928Y3686D01*
X12954Y3716D01*
X12972Y3744D01*
X12984Y3771D01*
X12992Y3797D01*
X12995Y3822D01*
X12992Y3847D01*
X12985Y3870D01*
X12974Y3891D01*
X12957Y3910D01*
X12937Y3926D01*
X12914Y3937D01*
X12888Y3944D01*
X12860Y3946D01*
X12830Y3944D01*
X12803Y3936D01*
X12779Y3925D01*
X12758Y3908D01*
X12742Y3887D01*
X12730Y3862D01*
X12722Y3834D01*
X12720Y3802D01*
X12629Y3812D01*
X12637Y3859D01*
X12652Y3901D01*
X12672Y3936D01*
X12699Y3966D01*
X12732Y3989D01*
X12770Y4006D01*
X12813Y4015D01*
X12862Y4019D01*
X12911Y4015D01*
X12954Y4004D01*
X12992Y3987D01*
X13025Y3962D01*
X13051Y3931D01*
X13070Y3898D01*
X13081Y3861D01*
X13085Y3820D01*
X13084Y3799D01*
X13081Y3777D01*
X13075Y3756D01*
X13067Y3736D01*
X13057Y3715D01*
X13044Y3693D01*
X13028Y3671D01*
X13009Y3648D01*
X12985Y3623D01*
X12955Y3594D01*
X12918Y3560D01*
X12874Y3522D01*
X12838Y3492D01*
X12809Y3466D01*
X12787Y3447D01*
X12772Y3432D01*
X12761Y3420D01*
X12751Y3408D01*
X12743Y3396D01*
X12735Y3384D01*
X13086Y3384D01*
X13086Y3384D01*
G37*
%LNtop silkscreen component bbcc82406b5c7a3e*%
D11*
X-0125Y-4225D02*
X-0125Y4475D01*
X8575Y-4225D02*
X8575Y4475D01*
X-0125Y4475D02*
X8575Y4475D01*
X-0125Y-4225D02*
X8575Y-4225D01*
D12*
X-1425Y4950D03*
D13*
X0875Y3475D03*
%LNtop silkscreen component 15549c4d6476ebc2*%
D10*
X-8890Y-19230D02*
X8890Y-19230D01*
X8890Y-21770D02*
X8890Y-19230D01*
X-8890Y-21770D02*
X8890Y-21770D01*
X-8890Y-21770D02*
X-8890Y-19230D01*
X-6350Y-19230D02*
X-6350Y-21770D01*
D14*
X-7620Y-22400D03*
G36*
X-9373Y-21886D02*
X-9385Y-21801D01*
X-9347Y-21798D01*
X-9316Y-21791D01*
X-9291Y-21782D01*
X-9273Y-21770D01*
X-9259Y-21755D01*
X-9250Y-21737D01*
X-9244Y-21717D01*
X-9242Y-21694D01*
X-9243Y-21677D01*
X-9246Y-21661D01*
X-9251Y-21646D01*
X-9259Y-21633D01*
X-9268Y-21621D01*
X-9278Y-21611D01*
X-9290Y-21603D01*
X-9303Y-21597D01*
X-9319Y-21593D01*
X-9339Y-21590D01*
X-9364Y-21588D01*
X-9393Y-21587D01*
X-9886Y-21587D01*
X-9886Y-21493D01*
X-9398Y-21493D01*
X-9356Y-21494D01*
X-9318Y-21498D01*
X-9286Y-21505D01*
X-9259Y-21514D01*
X-9236Y-21527D01*
X-9215Y-21542D01*
X-9198Y-21561D01*
X-9184Y-21583D01*
X-9172Y-21608D01*
X-9164Y-21634D01*
X-9159Y-21663D01*
X-9158Y-21694D01*
X-9161Y-21738D01*
X-9171Y-21777D01*
X-9188Y-21810D01*
X-9212Y-21838D01*
X-9242Y-21860D01*
X-9279Y-21875D01*
X-9323Y-21884D01*
X-9373Y-21886D01*
X-9373Y-21886D01*
X-9711Y-20917D02*
X-9704Y-21005D01*
X-9728Y-21011D01*
X-9748Y-21019D01*
X-9765Y-21028D01*
X-9779Y-21038D01*
X-9795Y-21057D01*
X-9807Y-21078D01*
X-9814Y-21101D01*
X-9816Y-21126D01*
X-9815Y-21146D01*
X-9811Y-21165D01*
X-9803Y-21183D01*
X-9793Y-21200D01*
X-9776Y-21219D01*
X-9756Y-21237D01*
X-9732Y-21252D01*
X-9705Y-21265D01*
X-9673Y-21276D01*
X-9634Y-21283D01*
X-9590Y-21288D01*
X-9539Y-21290D01*
X-9503Y-21244D01*
X-9491Y-21253D01*
X-9465Y-21266D01*
X-9435Y-21274D01*
X-9402Y-21276D01*
X-9402Y-21276D01*
X-9379Y-21275D01*
X-9357Y-21271D01*
X-9336Y-21265D01*
X-9315Y-21257D01*
X-9296Y-21246D01*
X-9278Y-21234D01*
X-9264Y-21219D01*
X-9252Y-21203D01*
X-9242Y-21186D01*
X-9235Y-21168D01*
X-9231Y-21149D01*
X-9230Y-21130D01*
X-9233Y-21103D01*
X-9241Y-21079D01*
X-9255Y-21056D01*
X-9275Y-21035D01*
X-9299Y-21017D01*
X-9328Y-21005D01*
X-9360Y-20997D01*
X-9397Y-20995D01*
X-9432Y-20997D01*
X-9463Y-21004D01*
X-9491Y-21017D01*
X-9514Y-21034D01*
X-9533Y-21055D01*
X-9546Y-21079D01*
X-9554Y-21105D01*
X-9557Y-21134D01*
X-9554Y-21162D01*
X-9546Y-21189D01*
X-9533Y-21213D01*
X-9514Y-21235D01*
X-9503Y-21244D01*
X-9539Y-21290D01*
X-9562Y-21273D01*
X-9581Y-21255D01*
X-9598Y-21234D01*
X-9611Y-21212D01*
X-9621Y-21189D01*
X-9628Y-21165D01*
X-9633Y-21141D01*
X-9634Y-21116D01*
X-9630Y-21074D01*
X-9618Y-21035D01*
X-9598Y-20999D01*
X-9570Y-20966D01*
X-9535Y-20939D01*
X-9495Y-20920D01*
X-9451Y-20909D01*
X-9402Y-20905D01*
X-9369Y-20907D01*
X-9337Y-20912D01*
X-9307Y-20921D01*
X-9277Y-20934D01*
X-9250Y-20950D01*
X-9226Y-20968D01*
X-9206Y-20990D01*
X-9189Y-21014D01*
X-9175Y-21040D01*
X-9165Y-21068D01*
X-9160Y-21097D01*
X-9158Y-21129D01*
X-9163Y-21181D01*
X-9178Y-21229D01*
X-9203Y-21271D01*
X-9239Y-21308D01*
X-9286Y-21338D01*
X-9346Y-21360D01*
X-9419Y-21373D01*
X-9505Y-21377D01*
X-9602Y-21373D01*
X-9684Y-21358D01*
X-9753Y-21334D01*
X-9807Y-21301D01*
X-9843Y-21264D01*
X-9868Y-21222D01*
X-9884Y-21174D01*
X-9889Y-21121D01*
X-9886Y-21080D01*
X-9877Y-21044D01*
X-9862Y-21011D01*
X-9841Y-20982D01*
X-9815Y-20958D01*
X-9785Y-20939D01*
X-9750Y-20925D01*
X-9711Y-20917D01*
X-9711Y-20917D01*
G37*
%LNtop silkscreen component bba7707cb7d91c3d*%
G36*
X19859Y-13125D02*
X19859Y-12494D01*
X19623Y-12494D01*
X19623Y-12409D01*
X20191Y-12409D01*
X20191Y-12494D01*
X19954Y-12494D01*
X19954Y-13125D01*
X19859Y-13125D01*
X19859Y-13125D01*
X20288Y-13125D02*
X20288Y-12409D01*
X20558Y-12409D01*
X20592Y-12410D01*
X20621Y-12411D01*
X20646Y-12413D01*
X20667Y-12416D01*
X20692Y-12421D01*
X20715Y-12429D01*
X20736Y-12438D01*
X20755Y-12449D01*
X20772Y-12463D01*
X20787Y-12479D01*
X20801Y-12498D01*
X20813Y-12519D01*
X20822Y-12541D01*
X20829Y-12565D01*
X20833Y-12590D01*
X20834Y-12616D01*
X20831Y-12660D01*
X20820Y-12701D01*
X20802Y-12737D01*
X20776Y-12771D01*
X20741Y-12798D01*
X20695Y-12818D01*
X20636Y-12830D01*
X20615Y-12831D01*
X20610Y-12747D01*
X20646Y-12741D01*
X20676Y-12730D01*
X20698Y-12715D01*
X20715Y-12697D01*
X20727Y-12674D01*
X20734Y-12648D01*
X20737Y-12619D01*
X20735Y-12597D01*
X20731Y-12577D01*
X20724Y-12559D01*
X20714Y-12542D01*
X20702Y-12528D01*
X20688Y-12516D01*
X20672Y-12506D01*
X20654Y-12500D01*
X20640Y-12497D01*
X20620Y-12495D01*
X20595Y-12494D01*
X20566Y-12494D01*
X20383Y-12494D01*
X20383Y-12750D01*
X20383Y-12750D01*
X20568Y-12750D01*
X20610Y-12747D01*
X20615Y-12831D01*
X20566Y-12834D01*
X20383Y-12834D01*
X20383Y-13125D01*
X20288Y-13125D01*
X20288Y-13125D01*
X21201Y-13125D02*
X21201Y-12954D01*
X20891Y-12954D01*
X20891Y-12873D01*
X21145Y-12511D01*
X21201Y-12550D01*
X20977Y-12873D01*
X21201Y-12873D01*
X21201Y-12873D01*
X21201Y-12550D01*
X21145Y-12511D01*
X21217Y-12409D01*
X21289Y-12409D01*
X21289Y-12873D01*
X21386Y-12873D01*
X21386Y-12954D01*
X21289Y-12954D01*
X21289Y-13125D01*
X21201Y-13125D01*
X21201Y-13125D01*
G37*
%LNtop silkscreen component fb79a13baf4f1f43*%
D10*
X-15185Y2940D02*
X-15615Y2940D01*
X-15185Y2140D02*
X-15615Y2140D01*
G36*
X-15961Y3250D02*
X-15961Y3966D01*
X-15644Y3966D01*
X-15599Y3965D01*
X-15559Y3961D01*
X-15526Y3955D01*
X-15498Y3947D01*
X-15474Y3935D01*
X-15453Y3920D01*
X-15435Y3901D01*
X-15419Y3878D01*
X-15406Y3853D01*
X-15396Y3827D01*
X-15391Y3799D01*
X-15389Y3771D01*
X-15392Y3734D01*
X-15401Y3700D01*
X-15417Y3670D01*
X-15438Y3642D01*
X-15466Y3618D01*
X-15501Y3599D01*
X-15542Y3585D01*
X-15566Y3580D01*
X-15581Y3657D01*
X-15561Y3663D01*
X-15544Y3671D01*
X-15529Y3681D01*
X-15516Y3693D01*
X-15505Y3706D01*
X-15497Y3721D01*
X-15491Y3737D01*
X-15488Y3753D01*
X-15486Y3771D01*
X-15489Y3795D01*
X-15496Y3817D01*
X-15507Y3837D01*
X-15523Y3854D01*
X-15544Y3868D01*
X-15571Y3879D01*
X-15603Y3885D01*
X-15640Y3887D01*
X-15866Y3887D01*
X-15866Y3650D01*
X-15866Y3650D01*
X-15663Y3650D01*
X-15632Y3651D01*
X-15605Y3653D01*
X-15581Y3657D01*
X-15566Y3580D01*
X-15590Y3576D01*
X-15573Y3567D01*
X-15557Y3558D01*
X-15544Y3549D01*
X-15533Y3540D01*
X-15513Y3520D01*
X-15493Y3497D01*
X-15474Y3472D01*
X-15455Y3445D01*
X-15330Y3250D01*
X-15449Y3250D01*
X-15544Y3399D01*
X-15564Y3429D01*
X-15582Y3456D01*
X-15598Y3479D01*
X-15612Y3498D01*
X-15625Y3513D01*
X-15638Y3527D01*
X-15650Y3537D01*
X-15660Y3545D01*
X-15671Y3552D01*
X-15682Y3557D01*
X-15693Y3561D01*
X-15704Y3564D01*
X-15713Y3566D01*
X-15725Y3567D01*
X-15739Y3568D01*
X-15756Y3568D01*
X-15866Y3568D01*
X-15866Y3250D01*
X-15961Y3250D01*
X-15961Y3250D01*
X-14994Y3250D02*
X-14994Y3421D01*
X-15305Y3421D01*
X-15305Y3502D01*
X-15050Y3864D01*
X-14994Y3825D01*
X-15218Y3502D01*
X-14994Y3502D01*
X-14994Y3502D01*
X-14994Y3825D01*
X-15050Y3864D01*
X-14978Y3966D01*
X-14906Y3966D01*
X-14906Y3502D01*
X-14810Y3502D01*
X-14810Y3421D01*
X-14906Y3421D01*
X-14906Y3250D01*
X-14994Y3250D01*
X-14994Y3250D01*
G37*
%LNtop silkscreen component 4de30cd1dcff1dec*%
X-10900Y16065D02*
X-5900Y16065D01*
X-5900Y5905*
X-10900Y5905*
X-10900Y16065*
D15*
X-11570Y15190D03*
G36*
X-11026Y16628D02*
X-10941Y16640D01*
X-10938Y16602D01*
X-10931Y16571D01*
X-10922Y16546D01*
X-10910Y16528D01*
X-10895Y16514D01*
X-10877Y16505D01*
X-10857Y16499D01*
X-10834Y16497D01*
X-10817Y16498D01*
X-10801Y16501D01*
X-10786Y16506D01*
X-10773Y16514D01*
X-10761Y16523D01*
X-10751Y16533D01*
X-10743Y16545D01*
X-10737Y16558D01*
X-10733Y16574D01*
X-10730Y16594D01*
X-10728Y16619D01*
X-10727Y16648D01*
X-10727Y17141D01*
X-10633Y17141D01*
X-10633Y16653D01*
X-10634Y16611D01*
X-10638Y16573D01*
X-10645Y16541D01*
X-10654Y16514D01*
X-10667Y16491D01*
X-10682Y16470D01*
X-10701Y16453D01*
X-10723Y16439D01*
X-10748Y16427D01*
X-10774Y16419D01*
X-10803Y16414D01*
X-10834Y16413D01*
X-10878Y16416D01*
X-10917Y16426D01*
X-10950Y16443D01*
X-10978Y16467D01*
X-11000Y16497D01*
X-11015Y16534D01*
X-11024Y16578D01*
X-11026Y16628D01*
X-11026Y16628D01*
X-10052Y16509D02*
X-10052Y16425D01*
X-10525Y16425D01*
X-10524Y16441D01*
X-10523Y16456D01*
X-10519Y16471D01*
X-10514Y16486D01*
X-10504Y16510D01*
X-10491Y16534D01*
X-10475Y16558D01*
X-10457Y16581D01*
X-10434Y16606D01*
X-10408Y16632D01*
X-10377Y16660D01*
X-10342Y16690D01*
X-10288Y16735D01*
X-10244Y16775D01*
X-10209Y16811D01*
X-10184Y16841D01*
X-10166Y16869D01*
X-10153Y16896D01*
X-10145Y16922D01*
X-10143Y16947D01*
X-10145Y16972D01*
X-10152Y16995D01*
X-10164Y17016D01*
X-10180Y17035D01*
X-10200Y17051D01*
X-10223Y17062D01*
X-10249Y17069D01*
X-10278Y17071D01*
X-10308Y17069D01*
X-10335Y17061D01*
X-10359Y17050D01*
X-10379Y17033D01*
X-10396Y17012D01*
X-10408Y16987D01*
X-10415Y16959D01*
X-10418Y16927D01*
X-10508Y16937D01*
X-10500Y16984D01*
X-10486Y17026D01*
X-10465Y17061D01*
X-10438Y17091D01*
X-10405Y17114D01*
X-10367Y17131D01*
X-10324Y17140D01*
X-10276Y17144D01*
X-10227Y17140D01*
X-10183Y17129D01*
X-10145Y17112D01*
X-10113Y17087D01*
X-10086Y17056D01*
X-10068Y17023D01*
X-10056Y16986D01*
X-10053Y16945D01*
X-10054Y16924D01*
X-10057Y16902D01*
X-10062Y16881D01*
X-10070Y16861D01*
X-10080Y16840D01*
X-10093Y16818D01*
X-10110Y16796D01*
X-10128Y16773D01*
X-10152Y16748D01*
X-10183Y16719D01*
X-10220Y16685D01*
X-10264Y16647D01*
X-10300Y16617D01*
X-10329Y16591D01*
X-10351Y16572D01*
X-10366Y16557D01*
X-10376Y16545D01*
X-10386Y16533D01*
X-10395Y16521D01*
X-10403Y16509D01*
X-10052Y16509D01*
X-10052Y16509D01*
G37*
%LNtop silkscreen component 582b67b412e03a97*%
D10*
X1915Y13990D02*
X1915Y13161D01*
X3165Y13990D02*
X3165Y13161D01*
G36*
X3948Y13376D02*
X4043Y13352D01*
X4025Y13297D01*
X4001Y13249D01*
X3972Y13208D01*
X3936Y13174D01*
X3895Y13147D01*
X3850Y13128D01*
X3800Y13117D01*
X3747Y13113D01*
X3691Y13116D01*
X3642Y13125D01*
X3597Y13139D01*
X3558Y13160D01*
X3524Y13186D01*
X3495Y13218D01*
X3469Y13254D01*
X3448Y13296D01*
X3431Y13342D01*
X3420Y13389D01*
X3413Y13438D01*
X3410Y13488D01*
X3413Y13542D01*
X3421Y13593D01*
X3434Y13640D01*
X3453Y13683D01*
X3477Y13722D01*
X3505Y13757D01*
X3537Y13786D01*
X3574Y13810D01*
X3615Y13829D01*
X3657Y13842D01*
X3702Y13850D01*
X3748Y13853D01*
X3800Y13850D01*
X3847Y13839D01*
X3890Y13822D01*
X3929Y13798D01*
X3963Y13768D01*
X3991Y13733D01*
X4014Y13691D01*
X4031Y13645D01*
X3938Y13623D01*
X3924Y13659D01*
X3907Y13690D01*
X3888Y13716D01*
X3865Y13736D01*
X3840Y13752D01*
X3812Y13763D01*
X3780Y13770D01*
X3746Y13772D01*
X3707Y13770D01*
X3670Y13762D01*
X3638Y13750D01*
X3608Y13732D01*
X3583Y13711D01*
X3561Y13686D01*
X3544Y13658D01*
X3530Y13626D01*
X3520Y13593D01*
X3513Y13559D01*
X3509Y13524D01*
X3508Y13489D01*
X3509Y13445D01*
X3514Y13403D01*
X3523Y13365D01*
X3534Y13329D01*
X3550Y13297D01*
X3568Y13270D01*
X3591Y13247D01*
X3617Y13228D01*
X3646Y13213D01*
X3676Y13202D01*
X3707Y13196D01*
X3739Y13194D01*
X3777Y13197D01*
X3812Y13205D01*
X3844Y13220D01*
X3874Y13240D01*
X3899Y13265D01*
X3920Y13297D01*
X3936Y13334D01*
X3948Y13376D01*
X3948Y13376D01*
X4406Y13125D02*
X4406Y13296D01*
X4095Y13296D01*
X4095Y13377D01*
X4350Y13739D01*
X4406Y13700D01*
X4182Y13377D01*
X4406Y13377D01*
X4406Y13377D01*
X4406Y13700D01*
X4350Y13739D01*
X4422Y13841D01*
X4494Y13841D01*
X4494Y13377D01*
X4590Y13377D01*
X4590Y13296D01*
X4494Y13296D01*
X4494Y13125D01*
X4406Y13125D01*
X4406Y13125D01*
G37*
%LNtop silkscreen component 899d837000a321f6*%
X-15185Y0400D02*
X-15615Y0400D01*
X-15185Y-0400D02*
X-15615Y-0400D01*
G36*
X-15986Y0725D02*
X-15986Y1441D01*
X-15669Y1441D01*
X-15624Y1440D01*
X-15584Y1436D01*
X-15551Y1430D01*
X-15523Y1422D01*
X-15499Y1410D01*
X-15478Y1395D01*
X-15460Y1376D01*
X-15444Y1353D01*
X-15431Y1328D01*
X-15421Y1302D01*
X-15416Y1274D01*
X-15414Y1246D01*
X-15417Y1209D01*
X-15426Y1175D01*
X-15442Y1145D01*
X-15463Y1117D01*
X-15491Y1093D01*
X-15526Y1074D01*
X-15567Y1060D01*
X-15591Y1055D01*
X-15606Y1132D01*
X-15586Y1138D01*
X-15569Y1146D01*
X-15554Y1156D01*
X-15541Y1168D01*
X-15530Y1181D01*
X-15522Y1196D01*
X-15516Y1212D01*
X-15513Y1228D01*
X-15511Y1246D01*
X-15514Y1270D01*
X-15521Y1292D01*
X-15532Y1312D01*
X-15548Y1329D01*
X-15569Y1343D01*
X-15596Y1354D01*
X-15628Y1360D01*
X-15665Y1362D01*
X-15891Y1362D01*
X-15891Y1125D01*
X-15891Y1125D01*
X-15688Y1125D01*
X-15657Y1126D01*
X-15630Y1128D01*
X-15606Y1132D01*
X-15591Y1055D01*
X-15615Y1051D01*
X-15598Y1042D01*
X-15582Y1033D01*
X-15569Y1024D01*
X-15558Y1015D01*
X-15538Y0995D01*
X-15518Y0972D01*
X-15499Y0947D01*
X-15480Y0920D01*
X-15355Y0725D01*
X-15474Y0725D01*
X-15569Y0874D01*
X-15589Y0904D01*
X-15607Y0931D01*
X-15623Y0954D01*
X-15637Y0973D01*
X-15650Y0988D01*
X-15663Y1002D01*
X-15675Y1012D01*
X-15685Y1020D01*
X-15696Y1027D01*
X-15707Y1032D01*
X-15718Y1036D01*
X-15729Y1039D01*
X-15738Y1041D01*
X-15750Y1042D01*
X-15764Y1043D01*
X-15781Y1043D01*
X-15891Y1043D01*
X-15891Y0725D01*
X-15986Y0725D01*
X-15986Y0725D01*
X-14845Y1266D02*
X-14932Y1259D01*
X-14939Y1283D01*
X-14946Y1303D01*
X-14955Y1320D01*
X-14966Y1334D01*
X-14984Y1350D01*
X-15005Y1362D01*
X-15028Y1369D01*
X-15053Y1371D01*
X-15074Y1370D01*
X-15093Y1366D01*
X-15111Y1358D01*
X-15127Y1348D01*
X-15147Y1331D01*
X-15164Y1311D01*
X-15180Y1287D01*
X-15193Y1260D01*
X-15203Y1228D01*
X-15211Y1189D01*
X-15216Y1145D01*
X-15217Y1094D01*
X-15171Y1058D01*
X-15180Y1046D01*
X-15193Y1020D01*
X-15201Y0990D01*
X-15204Y0957D01*
X-15204Y0957D01*
X-15203Y0934D01*
X-15199Y0912D01*
X-15193Y0891D01*
X-15185Y0870D01*
X-15174Y0851D01*
X-15161Y0833D01*
X-15147Y0819D01*
X-15131Y0807D01*
X-15113Y0797D01*
X-15095Y0790D01*
X-15077Y0786D01*
X-15058Y0785D01*
X-15031Y0788D01*
X-15006Y0796D01*
X-14983Y0810D01*
X-14962Y0830D01*
X-14945Y0854D01*
X-14932Y0883D01*
X-14925Y0915D01*
X-14922Y0952D01*
X-14925Y0987D01*
X-14932Y1018D01*
X-14944Y1046D01*
X-14962Y1069D01*
X-14983Y1088D01*
X-15006Y1101D01*
X-15032Y1109D01*
X-15061Y1112D01*
X-15090Y1109D01*
X-15116Y1101D01*
X-15140Y1088D01*
X-15162Y1069D01*
X-15171Y1058D01*
X-15217Y1094D01*
X-15201Y1117D01*
X-15182Y1136D01*
X-15162Y1153D01*
X-15140Y1166D01*
X-15117Y1176D01*
X-15093Y1183D01*
X-15069Y1188D01*
X-15044Y1189D01*
X-15001Y1185D01*
X-14962Y1173D01*
X-14927Y1153D01*
X-14894Y1125D01*
X-14867Y1090D01*
X-14848Y1050D01*
X-14836Y1006D01*
X-14832Y0957D01*
X-14834Y0924D01*
X-14839Y0892D01*
X-14849Y0862D01*
X-14861Y0832D01*
X-14877Y0805D01*
X-14896Y0781D01*
X-14917Y0761D01*
X-14941Y0744D01*
X-14967Y0730D01*
X-14995Y0720D01*
X-15025Y0715D01*
X-15056Y0713D01*
X-15109Y0718D01*
X-15156Y0733D01*
X-15198Y0758D01*
X-15236Y0794D01*
X-15266Y0841D01*
X-15288Y0901D01*
X-15301Y0974D01*
X-15305Y1060D01*
X-15300Y1157D01*
X-15286Y1239D01*
X-15262Y1308D01*
X-15228Y1362D01*
X-15192Y1398D01*
X-15150Y1423D01*
X-15102Y1439D01*
X-15048Y1444D01*
X-15008Y1441D01*
X-14971Y1432D01*
X-14938Y1417D01*
X-14910Y1396D01*
X-14885Y1370D01*
X-14866Y1340D01*
X-14853Y1305D01*
X-14845Y1266D01*
X-14845Y1266D01*
G37*
%LNtop silkscreen component 4a537383a56f4947*%
X16260Y-2940D02*
X16690Y-2940D01*
X16260Y-2140D02*
X16690Y-2140D01*
G36*
X15614Y-1875D02*
X15614Y-1159D01*
X15931Y-1159D01*
X15976Y-1160D01*
X16016Y-1164D01*
X16049Y-1170D01*
X16077Y-1178D01*
X16101Y-1190D01*
X16122Y-1205D01*
X16140Y-1224D01*
X16156Y-1247D01*
X16169Y-1272D01*
X16179Y-1298D01*
X16184Y-1326D01*
X16186Y-1354D01*
X16183Y-1391D01*
X16174Y-1425D01*
X16158Y-1455D01*
X16137Y-1483D01*
X16109Y-1507D01*
X16074Y-1526D01*
X16033Y-1540D01*
X16009Y-1545D01*
X15994Y-1468D01*
X16014Y-1462D01*
X16031Y-1454D01*
X16046Y-1444D01*
X16059Y-1432D01*
X16070Y-1419D01*
X16078Y-1404D01*
X16084Y-1388D01*
X16087Y-1372D01*
X16089Y-1354D01*
X16086Y-1330D01*
X16079Y-1308D01*
X16068Y-1288D01*
X16052Y-1271D01*
X16031Y-1257D01*
X16004Y-1246D01*
X15972Y-1240D01*
X15935Y-1238D01*
X15709Y-1238D01*
X15709Y-1475D01*
X15709Y-1475D01*
X15912Y-1475D01*
X15943Y-1474D01*
X15970Y-1472D01*
X15994Y-1468D01*
X16009Y-1545D01*
X15985Y-1549D01*
X16002Y-1558D01*
X16018Y-1567D01*
X16031Y-1576D01*
X16042Y-1585D01*
X16062Y-1605D01*
X16082Y-1628D01*
X16101Y-1653D01*
X16120Y-1680D01*
X16245Y-1875D01*
X16126Y-1875D01*
X16031Y-1726D01*
X16011Y-1696D01*
X15993Y-1669D01*
X15977Y-1646D01*
X15963Y-1627D01*
X15950Y-1612D01*
X15937Y-1598D01*
X15925Y-1588D01*
X15915Y-1580D01*
X15904Y-1573D01*
X15893Y-1568D01*
X15882Y-1564D01*
X15871Y-1561D01*
X15862Y-1559D01*
X15850Y-1558D01*
X15836Y-1557D01*
X15819Y-1557D01*
X15709Y-1557D01*
X15709Y-1875D01*
X15614Y-1875D01*
X15614Y-1875D01*
X16630Y-1875D02*
X16542Y-1875D01*
X16542Y-1315D01*
X16525Y-1330D01*
X16506Y-1345D01*
X16483Y-1360D01*
X16459Y-1375D01*
X16434Y-1390D01*
X16410Y-1402D01*
X16388Y-1412D01*
X16366Y-1421D01*
X16366Y-1336D01*
X16402Y-1318D01*
X16436Y-1298D01*
X16467Y-1276D01*
X16495Y-1252D01*
X16521Y-1227D01*
X16542Y-1203D01*
X16560Y-1180D01*
X16573Y-1156D01*
X16630Y-1156D01*
X16630Y-1875D01*
X16630Y-1875D01*
X17137Y-1875D02*
X17137Y-1704D01*
X16826Y-1704D01*
X16826Y-1623D01*
X17081Y-1261D01*
X17137Y-1300D01*
X16913Y-1623D01*
X17137Y-1623D01*
X17137Y-1623D01*
X17137Y-1300D01*
X17081Y-1261D01*
X17153Y-1159D01*
X17225Y-1159D01*
X17225Y-1623D01*
X17322Y-1623D01*
X17322Y-1704D01*
X17225Y-1704D01*
X17225Y-1875D01*
X17137Y-1875D01*
X17137Y-1875D01*
G37*
%LNtop silkscreen component 78e04b5164b9cf10*%
X-15185Y-2140D02*
X-15615Y-2140D01*
X-15185Y-2940D02*
X-15615Y-2940D01*
G36*
X-16261Y-1925D02*
X-16261Y-1209D01*
X-15944Y-1209D01*
X-15899Y-1210D01*
X-15859Y-1214D01*
X-15826Y-1220D01*
X-15798Y-1228D01*
X-15774Y-1240D01*
X-15753Y-1255D01*
X-15735Y-1274D01*
X-15719Y-1297D01*
X-15706Y-1322D01*
X-15696Y-1348D01*
X-15691Y-1376D01*
X-15689Y-1404D01*
X-15692Y-1441D01*
X-15701Y-1475D01*
X-15717Y-1505D01*
X-15738Y-1533D01*
X-15766Y-1557D01*
X-15801Y-1576D01*
X-15842Y-1590D01*
X-15866Y-1595D01*
X-15881Y-1518D01*
X-15861Y-1512D01*
X-15844Y-1504D01*
X-15829Y-1494D01*
X-15816Y-1482D01*
X-15805Y-1469D01*
X-15797Y-1454D01*
X-15791Y-1438D01*
X-15788Y-1422D01*
X-15786Y-1404D01*
X-15789Y-1380D01*
X-15796Y-1358D01*
X-15807Y-1338D01*
X-15823Y-1321D01*
X-15844Y-1307D01*
X-15871Y-1296D01*
X-15903Y-1290D01*
X-15940Y-1288D01*
X-16166Y-1288D01*
X-16166Y-1525D01*
X-16166Y-1525D01*
X-15963Y-1525D01*
X-15932Y-1524D01*
X-15905Y-1522D01*
X-15881Y-1518D01*
X-15866Y-1595D01*
X-15890Y-1599D01*
X-15873Y-1608D01*
X-15857Y-1617D01*
X-15844Y-1626D01*
X-15833Y-1635D01*
X-15813Y-1655D01*
X-15793Y-1678D01*
X-15774Y-1703D01*
X-15755Y-1730D01*
X-15630Y-1925D01*
X-15749Y-1925D01*
X-15844Y-1776D01*
X-15864Y-1746D01*
X-15882Y-1719D01*
X-15898Y-1696D01*
X-15912Y-1677D01*
X-15925Y-1662D01*
X-15938Y-1648D01*
X-15950Y-1638D01*
X-15960Y-1630D01*
X-15971Y-1623D01*
X-15982Y-1618D01*
X-15993Y-1614D01*
X-16004Y-1611D01*
X-16013Y-1609D01*
X-16025Y-1608D01*
X-16039Y-1607D01*
X-16056Y-1607D01*
X-16166Y-1607D01*
X-16166Y-1925D01*
X-16261Y-1925D01*
X-16261Y-1925D01*
X-15245Y-1925D02*
X-15333Y-1925D01*
X-15333Y-1365D01*
X-15350Y-1380D01*
X-15369Y-1395D01*
X-15392Y-1410D01*
X-15416Y-1425D01*
X-15441Y-1440D01*
X-15465Y-1452D01*
X-15487Y-1462D01*
X-15509Y-1471D01*
X-15509Y-1386D01*
X-15473Y-1368D01*
X-15439Y-1348D01*
X-15408Y-1326D01*
X-15380Y-1302D01*
X-15354Y-1277D01*
X-15333Y-1253D01*
X-15315Y-1230D01*
X-15302Y-1206D01*
X-15245Y-1206D01*
X-15245Y-1925D01*
X-15245Y-1925D01*
X-15020Y-1572D02*
X-15018Y-1512D01*
X-15013Y-1457D01*
X-15005Y-1409D01*
X-14994Y-1368D01*
X-14979Y-1331D01*
X-14961Y-1299D01*
X-14940Y-1271D01*
X-14916Y-1248D01*
X-14889Y-1230D01*
X-14858Y-1217D01*
X-14824Y-1209D01*
X-14786Y-1206D01*
X-14758Y-1208D01*
X-14732Y-1212D01*
X-14708Y-1219D01*
X-14685Y-1229D01*
X-14665Y-1242D01*
X-14646Y-1258D01*
X-14629Y-1276D01*
X-14614Y-1296D01*
X-14600Y-1319D01*
X-14588Y-1345D01*
X-14578Y-1373D01*
X-14569Y-1403D01*
X-14562Y-1437D01*
X-14557Y-1476D01*
X-14554Y-1521D01*
X-14553Y-1572D01*
X-14555Y-1632D01*
X-14559Y-1686D01*
X-14568Y-1734D01*
X-14579Y-1775D01*
X-14593Y-1812D01*
X-14611Y-1844D01*
X-14632Y-1872D01*
X-14656Y-1895D01*
X-14684Y-1913D01*
X-14715Y-1927D01*
X-14749Y-1935D01*
X-14786Y-1937D01*
X-14793Y-1937D01*
X-14786Y-1865D01*
X-14757Y-1861D01*
X-14731Y-1850D01*
X-14706Y-1832D01*
X-14685Y-1806D01*
X-14667Y-1770D01*
X-14654Y-1718D01*
X-14646Y-1653D01*
X-14643Y-1572D01*
X-14646Y-1491D01*
X-14654Y-1425D01*
X-14667Y-1374D01*
X-14685Y-1337D01*
X-14706Y-1312D01*
X-14731Y-1294D01*
X-14758Y-1283D01*
X-14787Y-1279D01*
X-14816Y-1282D01*
X-14842Y-1292D01*
X-14864Y-1308D01*
X-14884Y-1330D01*
X-14904Y-1370D01*
X-14918Y-1423D01*
X-14927Y-1491D01*
X-14929Y-1572D01*
X-14929Y-1572D01*
X-14927Y-1653D01*
X-14919Y-1719D01*
X-14906Y-1770D01*
X-14888Y-1807D01*
X-14866Y-1832D01*
X-14842Y-1850D01*
X-14815Y-1861D01*
X-14786Y-1865D01*
X-14793Y-1937D01*
X-14835Y-1933D01*
X-14879Y-1919D01*
X-14917Y-1895D01*
X-14949Y-1863D01*
X-14980Y-1811D01*
X-15002Y-1746D01*
X-15015Y-1666D01*
X-15020Y-1572D01*
X-15020Y-1572D01*
G37*
%LNtop silkscreen component 5d7ae0faac189a2e*%
X-19230Y8890D02*
X-19230Y-8890D01*
X-21770Y-8890D02*
X-19230Y-8890D01*
X-21770Y8890D02*
X-21770Y-8890D01*
X-21770Y8890D02*
X-19230Y8890D01*
X-19230Y6350D02*
X-21770Y6350D01*
D15*
X-22400Y7620D03*
G36*
X-21811Y9323D02*
X-21726Y9335D01*
X-21723Y9297D01*
X-21716Y9266D01*
X-21707Y9241D01*
X-21695Y9223D01*
X-21680Y9209D01*
X-21662Y9200D01*
X-21642Y9194D01*
X-21619Y9192D01*
X-21602Y9193D01*
X-21586Y9196D01*
X-21571Y9201D01*
X-21558Y9209D01*
X-21546Y9218D01*
X-21536Y9228D01*
X-21528Y9240D01*
X-21522Y9253D01*
X-21518Y9269D01*
X-21515Y9289D01*
X-21513Y9314D01*
X-21512Y9343D01*
X-21512Y9836D01*
X-21418Y9836D01*
X-21418Y9348D01*
X-21419Y9306D01*
X-21423Y9268D01*
X-21430Y9236D01*
X-21439Y9209D01*
X-21452Y9186D01*
X-21467Y9165D01*
X-21486Y9148D01*
X-21508Y9134D01*
X-21533Y9122D01*
X-21559Y9114D01*
X-21588Y9109D01*
X-21619Y9108D01*
X-21663Y9111D01*
X-21702Y9121D01*
X-21735Y9138D01*
X-21763Y9162D01*
X-21785Y9192D01*
X-21800Y9229D01*
X-21809Y9273D01*
X-21811Y9323D01*
X-21811Y9323D01*
X-21298Y9309D02*
X-21210Y9321D01*
X-21201Y9286D01*
X-21190Y9256D01*
X-21175Y9232D01*
X-21159Y9213D01*
X-21139Y9199D01*
X-21118Y9188D01*
X-21095Y9182D01*
X-21070Y9180D01*
X-21040Y9183D01*
X-21013Y9191D01*
X-20988Y9204D01*
X-20965Y9223D01*
X-20947Y9246D01*
X-20933Y9271D01*
X-20925Y9299D01*
X-20922Y9329D01*
X-20925Y9358D01*
X-20932Y9385D01*
X-20945Y9408D01*
X-20962Y9429D01*
X-20983Y9447D01*
X-21007Y9459D01*
X-21033Y9466D01*
X-21063Y9469D01*
X-21076Y9468D01*
X-21091Y9466D01*
X-21107Y9463D01*
X-21125Y9459D01*
X-21115Y9536D01*
X-21111Y9536D01*
X-21107Y9535D01*
X-21104Y9535D01*
X-21101Y9535D01*
X-21073Y9537D01*
X-21047Y9542D01*
X-21023Y9552D01*
X-21000Y9564D01*
X-20980Y9581D01*
X-20966Y9602D01*
X-20958Y9626D01*
X-20955Y9655D01*
X-20957Y9678D01*
X-20963Y9699D01*
X-20973Y9718D01*
X-20987Y9735D01*
X-21005Y9749D01*
X-21025Y9759D01*
X-21047Y9764D01*
X-21072Y9766D01*
X-21096Y9764D01*
X-21119Y9758D01*
X-21139Y9748D01*
X-21157Y9734D01*
X-21173Y9716D01*
X-21185Y9694D01*
X-21195Y9668D01*
X-21201Y9638D01*
X-21289Y9653D01*
X-21279Y9695D01*
X-21263Y9732D01*
X-21242Y9763D01*
X-21216Y9790D01*
X-21186Y9811D01*
X-21152Y9827D01*
X-21115Y9836D01*
X-21074Y9839D01*
X-21045Y9837D01*
X-21018Y9832D01*
X-20991Y9825D01*
X-20966Y9814D01*
X-20943Y9800D01*
X-20922Y9784D01*
X-20905Y9766D01*
X-20891Y9745D01*
X-20879Y9723D01*
X-20871Y9700D01*
X-20866Y9677D01*
X-20864Y9653D01*
X-20866Y9630D01*
X-20871Y9608D01*
X-20878Y9588D01*
X-20889Y9568D01*
X-20903Y9550D01*
X-20920Y9534D01*
X-20940Y9520D01*
X-20963Y9508D01*
X-20933Y9498D01*
X-20907Y9485D01*
X-20884Y9468D01*
X-20864Y9447D01*
X-20849Y9422D01*
X-20838Y9395D01*
X-20831Y9365D01*
X-20829Y9331D01*
X-20833Y9286D01*
X-20846Y9245D01*
X-20868Y9207D01*
X-20898Y9172D01*
X-20934Y9144D01*
X-20975Y9124D01*
X-21020Y9111D01*
X-21070Y9107D01*
X-21116Y9111D01*
X-21157Y9121D01*
X-21194Y9139D01*
X-21227Y9163D01*
X-21255Y9194D01*
X-21276Y9228D01*
X-21290Y9266D01*
X-21298Y9309D01*
X-21298Y9309D01*
G37*
%LNtop silkscreen component 5e86fa16ded1a20c*%
D10*
X16260Y2140D02*
X16690Y2140D01*
X16260Y2940D02*
X16690Y2940D01*
G36*
X15764Y3250D02*
X15764Y3966D01*
X16081Y3966D01*
X16126Y3965D01*
X16166Y3961D01*
X16199Y3955D01*
X16227Y3947D01*
X16251Y3935D01*
X16272Y3920D01*
X16290Y3901D01*
X16306Y3878D01*
X16319Y3853D01*
X16329Y3827D01*
X16334Y3799D01*
X16336Y3771D01*
X16333Y3734D01*
X16324Y3700D01*
X16308Y3670D01*
X16287Y3642D01*
X16259Y3618D01*
X16224Y3599D01*
X16183Y3585D01*
X16159Y3580D01*
X16144Y3657D01*
X16164Y3663D01*
X16181Y3671D01*
X16196Y3681D01*
X16209Y3693D01*
X16220Y3706D01*
X16228Y3721D01*
X16234Y3737D01*
X16237Y3753D01*
X16239Y3771D01*
X16236Y3795D01*
X16229Y3817D01*
X16218Y3837D01*
X16202Y3854D01*
X16181Y3868D01*
X16154Y3879D01*
X16122Y3885D01*
X16085Y3887D01*
X15859Y3887D01*
X15859Y3650D01*
X15859Y3650D01*
X16062Y3650D01*
X16093Y3651D01*
X16120Y3653D01*
X16144Y3657D01*
X16159Y3580D01*
X16135Y3576D01*
X16152Y3567D01*
X16168Y3558D01*
X16181Y3549D01*
X16192Y3540D01*
X16212Y3520D01*
X16232Y3497D01*
X16251Y3472D01*
X16270Y3445D01*
X16395Y3250D01*
X16276Y3250D01*
X16181Y3399D01*
X16161Y3429D01*
X16143Y3456D01*
X16127Y3479D01*
X16113Y3498D01*
X16100Y3513D01*
X16087Y3527D01*
X16075Y3537D01*
X16065Y3545D01*
X16054Y3552D01*
X16043Y3557D01*
X16032Y3561D01*
X16021Y3564D01*
X16012Y3566D01*
X16000Y3567D01*
X15986Y3568D01*
X15969Y3568D01*
X15859Y3568D01*
X15859Y3250D01*
X15764Y3250D01*
X15764Y3250D01*
X16584Y3638D02*
X16613Y3583D01*
X16601Y3577D01*
X16579Y3559D01*
X16561Y3537D01*
X16549Y3513D01*
X16541Y3486D01*
X16538Y3457D01*
X16538Y3457D01*
X16540Y3438D01*
X16543Y3420D01*
X16548Y3402D01*
X16556Y3384D01*
X16566Y3367D01*
X16578Y3353D01*
X16593Y3340D01*
X16609Y3329D01*
X16627Y3321D01*
X16646Y3315D01*
X16665Y3311D01*
X16685Y3310D01*
X16715Y3313D01*
X16742Y3320D01*
X16767Y3333D01*
X16789Y3351D01*
X16807Y3372D01*
X16820Y3397D01*
X16827Y3424D01*
X16830Y3454D01*
X16827Y3484D01*
X16819Y3512D01*
X16806Y3536D01*
X16788Y3559D01*
X16765Y3577D01*
X16740Y3590D01*
X16712Y3598D01*
X16682Y3600D01*
X16652Y3598D01*
X16625Y3590D01*
X16613Y3583D01*
X16584Y3638D01*
X16617Y3690D01*
X16637Y3680D01*
X16659Y3674D01*
X16684Y3672D01*
X16709Y3674D01*
X16731Y3680D01*
X16750Y3690D01*
X16768Y3704D01*
X16782Y3721D01*
X16792Y3739D01*
X16798Y3760D01*
X16800Y3782D01*
X16798Y3805D01*
X16792Y3827D01*
X16781Y3846D01*
X16767Y3864D01*
X16749Y3878D01*
X16729Y3888D01*
X16707Y3894D01*
X16683Y3896D01*
X16659Y3894D01*
X16637Y3888D01*
X16618Y3878D01*
X16600Y3864D01*
X16585Y3847D01*
X16575Y3829D01*
X16569Y3809D01*
X16567Y3787D01*
X16567Y3787D01*
X16569Y3763D01*
X16575Y3741D01*
X16585Y3721D01*
X16599Y3704D01*
X16617Y3690D01*
X16584Y3638D01*
X16559Y3649D01*
X16537Y3662D01*
X16518Y3678D01*
X16503Y3695D01*
X16492Y3715D01*
X16483Y3736D01*
X16479Y3759D01*
X16477Y3784D01*
X16480Y3822D01*
X16491Y3856D01*
X16508Y3887D01*
X16533Y3916D01*
X16563Y3939D01*
X16598Y3955D01*
X16638Y3965D01*
X16682Y3969D01*
X16727Y3965D01*
X16767Y3955D01*
X16802Y3938D01*
X16833Y3914D01*
X16858Y3886D01*
X16876Y3854D01*
X16887Y3819D01*
X16890Y3782D01*
X16889Y3758D01*
X16884Y3735D01*
X16876Y3714D01*
X16864Y3695D01*
X16850Y3678D01*
X16831Y3662D01*
X16810Y3649D01*
X16785Y3638D01*
X16816Y3626D01*
X16843Y3610D01*
X16866Y3591D01*
X16885Y3569D01*
X16900Y3544D01*
X16911Y3516D01*
X16918Y3487D01*
X16920Y3455D01*
X16916Y3411D01*
X16904Y3370D01*
X16883Y3333D01*
X16855Y3300D01*
X16820Y3273D01*
X16780Y3253D01*
X16734Y3242D01*
X16684Y3238D01*
X16633Y3242D01*
X16588Y3253D01*
X16548Y3273D01*
X16513Y3301D01*
X16485Y3334D01*
X16464Y3371D01*
X16452Y3412D01*
X16448Y3457D01*
X16450Y3491D01*
X16457Y3521D01*
X16468Y3549D01*
X16483Y3574D01*
X16503Y3596D01*
X16526Y3614D01*
X16553Y3628D01*
X16584Y3638D01*
X16584Y3638D01*
G37*
%LNtop silkscreen component 777d56a3b3942ac7*%
X5415Y-14100D02*
X5845Y-14100D01*
X5415Y-13300D02*
X5845Y-13300D01*
G36*
X5114Y-15025D02*
X5114Y-14309D01*
X5431Y-14309D01*
X5476Y-14310D01*
X5516Y-14314D01*
X5549Y-14320D01*
X5577Y-14328D01*
X5601Y-14340D01*
X5622Y-14355D01*
X5640Y-14374D01*
X5656Y-14397D01*
X5669Y-14422D01*
X5679Y-14448D01*
X5684Y-14476D01*
X5686Y-14504D01*
X5683Y-14541D01*
X5674Y-14575D01*
X5658Y-14605D01*
X5637Y-14633D01*
X5609Y-14657D01*
X5574Y-14676D01*
X5533Y-14690D01*
X5509Y-14695D01*
X5494Y-14618D01*
X5514Y-14612D01*
X5531Y-14604D01*
X5546Y-14594D01*
X5559Y-14582D01*
X5570Y-14569D01*
X5578Y-14554D01*
X5584Y-14538D01*
X5587Y-14522D01*
X5589Y-14504D01*
X5586Y-14480D01*
X5579Y-14458D01*
X5568Y-14438D01*
X5552Y-14421D01*
X5531Y-14407D01*
X5504Y-14396D01*
X5472Y-14390D01*
X5435Y-14388D01*
X5209Y-14388D01*
X5209Y-14625D01*
X5209Y-14625D01*
X5412Y-14625D01*
X5443Y-14624D01*
X5470Y-14622D01*
X5494Y-14618D01*
X5509Y-14695D01*
X5485Y-14699D01*
X5502Y-14708D01*
X5518Y-14717D01*
X5531Y-14726D01*
X5542Y-14735D01*
X5562Y-14755D01*
X5582Y-14778D01*
X5601Y-14803D01*
X5620Y-14830D01*
X5745Y-15025D01*
X5626Y-15025D01*
X5531Y-14876D01*
X5511Y-14846D01*
X5493Y-14819D01*
X5477Y-14796D01*
X5463Y-14777D01*
X5450Y-14762D01*
X5437Y-14748D01*
X5425Y-14738D01*
X5415Y-14730D01*
X5404Y-14723D01*
X5393Y-14718D01*
X5382Y-14714D01*
X5371Y-14711D01*
X5362Y-14709D01*
X5350Y-14708D01*
X5336Y-14707D01*
X5319Y-14707D01*
X5209Y-14707D01*
X5209Y-15025D01*
X5114Y-15025D01*
X5114Y-15025D01*
X6130Y-15025D02*
X6042Y-15025D01*
X6042Y-14465D01*
X6025Y-14480D01*
X6006Y-14495D01*
X5983Y-14510D01*
X5959Y-14525D01*
X5934Y-14540D01*
X5910Y-14552D01*
X5888Y-14562D01*
X5866Y-14571D01*
X5866Y-14486D01*
X5902Y-14468D01*
X5936Y-14448D01*
X5967Y-14426D01*
X5995Y-14402D01*
X6021Y-14377D01*
X6042Y-14353D01*
X6060Y-14330D01*
X6073Y-14306D01*
X6130Y-14306D01*
X6130Y-15025D01*
X6130Y-15025D01*
G37*
%LNtop silkscreen component 05bb4b2115a262c6*%
X11000Y-14340D02*
X11000Y-13510D01*
X9750Y-14340D02*
X9750Y-13510D01*
G36*
X10323Y-15999D02*
X10418Y-16023D01*
X10400Y-16078D01*
X10376Y-16126D01*
X10347Y-16167D01*
X10311Y-16201D01*
X10270Y-16228D01*
X10225Y-16247D01*
X10175Y-16258D01*
X10122Y-16262D01*
X10066Y-16259D01*
X10017Y-16250D01*
X9972Y-16236D01*
X9933Y-16215D01*
X9899Y-16189D01*
X9870Y-16157D01*
X9844Y-16121D01*
X9823Y-16079D01*
X9806Y-16033D01*
X9795Y-15986D01*
X9788Y-15937D01*
X9785Y-15887D01*
X9788Y-15833D01*
X9796Y-15782D01*
X9809Y-15735D01*
X9828Y-15692D01*
X9852Y-15653D01*
X9880Y-15618D01*
X9912Y-15589D01*
X9949Y-15565D01*
X9990Y-15546D01*
X10032Y-15533D01*
X10077Y-15525D01*
X10123Y-15522D01*
X10175Y-15525D01*
X10222Y-15536D01*
X10265Y-15553D01*
X10304Y-15577D01*
X10338Y-15607D01*
X10366Y-15642D01*
X10389Y-15684D01*
X10406Y-15730D01*
X10313Y-15752D01*
X10299Y-15716D01*
X10282Y-15685D01*
X10263Y-15659D01*
X10240Y-15639D01*
X10215Y-15623D01*
X10187Y-15612D01*
X10155Y-15605D01*
X10121Y-15603D01*
X10082Y-15605D01*
X10045Y-15613D01*
X10013Y-15625D01*
X9983Y-15643D01*
X9958Y-15664D01*
X9936Y-15689D01*
X9919Y-15717D01*
X9905Y-15749D01*
X9895Y-15782D01*
X9888Y-15816D01*
X9884Y-15851D01*
X9883Y-15886D01*
X9884Y-15930D01*
X9889Y-15972D01*
X9898Y-16010D01*
X9909Y-16046D01*
X9925Y-16078D01*
X9943Y-16105D01*
X9966Y-16128D01*
X9992Y-16147D01*
X10021Y-16162D01*
X10051Y-16173D01*
X10082Y-16179D01*
X10114Y-16181D01*
X10152Y-16178D01*
X10187Y-16170D01*
X10219Y-16155D01*
X10249Y-16135D01*
X10274Y-16110D01*
X10295Y-16078D01*
X10311Y-16041D01*
X10323Y-15999D01*
X10323Y-15999D01*
X10500Y-16061D02*
X10587Y-16049D01*
X10596Y-16084D01*
X10608Y-16114D01*
X10622Y-16138D01*
X10639Y-16157D01*
X10658Y-16171D01*
X10679Y-16182D01*
X10702Y-16188D01*
X10728Y-16190D01*
X10757Y-16187D01*
X10785Y-16179D01*
X10810Y-16166D01*
X10832Y-16147D01*
X10851Y-16124D01*
X10864Y-16099D01*
X10872Y-16071D01*
X10875Y-16041D01*
X10873Y-16012D01*
X10865Y-15985D01*
X10853Y-15962D01*
X10835Y-15941D01*
X10814Y-15923D01*
X10791Y-15911D01*
X10764Y-15904D01*
X10735Y-15901D01*
X10722Y-15902D01*
X10707Y-15904D01*
X10691Y-15907D01*
X10673Y-15911D01*
X10683Y-15834D01*
X10687Y-15834D01*
X10691Y-15835D01*
X10694Y-15835D01*
X10697Y-15835D01*
X10724Y-15833D01*
X10750Y-15828D01*
X10775Y-15818D01*
X10798Y-15806D01*
X10818Y-15789D01*
X10832Y-15768D01*
X10840Y-15744D01*
X10843Y-15715D01*
X10841Y-15692D01*
X10835Y-15671D01*
X10824Y-15652D01*
X10810Y-15635D01*
X10793Y-15621D01*
X10773Y-15611D01*
X10750Y-15605D01*
X10726Y-15604D01*
X10701Y-15606D01*
X10679Y-15612D01*
X10658Y-15622D01*
X10640Y-15636D01*
X10625Y-15654D01*
X10612Y-15676D01*
X10603Y-15702D01*
X10596Y-15732D01*
X10508Y-15717D01*
X10519Y-15675D01*
X10535Y-15638D01*
X10556Y-15607D01*
X10582Y-15580D01*
X10612Y-15559D01*
X10646Y-15543D01*
X10683Y-15534D01*
X10724Y-15531D01*
X10752Y-15533D01*
X10780Y-15538D01*
X10806Y-15545D01*
X10832Y-15556D01*
X10855Y-15570D01*
X10875Y-15586D01*
X10892Y-15604D01*
X10907Y-15625D01*
X10918Y-15647D01*
X10927Y-15670D01*
X10931Y-15693D01*
X10933Y-15717D01*
X10932Y-15740D01*
X10927Y-15762D01*
X10919Y-15782D01*
X10908Y-15802D01*
X10894Y-15820D01*
X10877Y-15836D01*
X10857Y-15850D01*
X10834Y-15862D01*
X10864Y-15872D01*
X10891Y-15885D01*
X10914Y-15902D01*
X10933Y-15923D01*
X10948Y-15948D01*
X10959Y-15975D01*
X10966Y-16005D01*
X10968Y-16039D01*
X10964Y-16084D01*
X10951Y-16125D01*
X10930Y-16163D01*
X10900Y-16198D01*
X10863Y-16226D01*
X10823Y-16246D01*
X10777Y-16259D01*
X10727Y-16263D01*
X10682Y-16259D01*
X10641Y-16249D01*
X10604Y-16231D01*
X10571Y-16207D01*
X10543Y-16176D01*
X10522Y-16142D01*
X10507Y-16104D01*
X10500Y-16061D01*
X10500Y-16061D01*
G37*
%LNtop silkscreen component bc2a92881df52052*%
X13165Y11350D02*
X12735Y11350D01*
X13165Y10550D02*
X12735Y10550D01*
D16*
X14760Y10950D03*
G36*
X12538Y11525D02*
X12538Y12241D01*
X12783Y12241D01*
X12783Y12156D01*
X12632Y12156D01*
X12632Y11609D01*
X12632Y11609D01*
X12785Y11609D01*
X12819Y11610D01*
X12848Y11613D01*
X12874Y11617D01*
X12896Y11623D01*
X12915Y11630D01*
X12932Y11639D01*
X12947Y11648D01*
X12960Y11660D01*
X12976Y11678D01*
X12990Y11699D01*
X13003Y11723D01*
X13013Y11750D01*
X13021Y11780D01*
X13027Y11813D01*
X13030Y11849D01*
X13032Y11888D01*
X13029Y11941D01*
X13022Y11988D01*
X13011Y12027D01*
X12995Y12061D01*
X12975Y12089D01*
X12954Y12111D01*
X12931Y12129D01*
X12905Y12142D01*
X12883Y12148D01*
X12855Y12153D01*
X12822Y12155D01*
X12783Y12156D01*
X12783Y12241D01*
X12784Y12241D01*
X12823Y12240D01*
X12858Y12238D01*
X12887Y12235D01*
X12912Y12231D01*
X12941Y12222D01*
X12969Y12211D01*
X12994Y12196D01*
X13017Y12179D01*
X13043Y12154D01*
X13066Y12125D01*
X13085Y12093D01*
X13101Y12057D01*
X13114Y12018D01*
X13122Y11977D01*
X13128Y11933D01*
X13129Y11887D01*
X13128Y11847D01*
X13125Y11810D01*
X13119Y11775D01*
X13110Y11742D01*
X13100Y11712D01*
X13089Y11685D01*
X13076Y11660D01*
X13061Y11638D01*
X13046Y11619D01*
X13030Y11601D01*
X13014Y11586D01*
X12996Y11573D01*
X12978Y11562D01*
X12957Y11552D01*
X12935Y11544D01*
X12911Y11537D01*
X12885Y11532D01*
X12857Y11528D01*
X12827Y11526D01*
X12796Y11525D01*
X12538Y11525D01*
X12538Y11525D01*
X13555Y11525D02*
X13467Y11525D01*
X13467Y12085D01*
X13450Y12070D01*
X13431Y12055D01*
X13408Y12040D01*
X13384Y12025D01*
X13359Y12010D01*
X13335Y11998D01*
X13313Y11988D01*
X13291Y11979D01*
X13291Y12064D01*
X13327Y12082D01*
X13361Y12102D01*
X13392Y12124D01*
X13420Y12148D01*
X13446Y12173D01*
X13467Y12197D01*
X13485Y12220D01*
X13498Y12244D01*
X13555Y12244D01*
X13555Y11525D01*
X13555Y11525D01*
G37*
%LNtop silkscreen component 0a1210c7d4f9c7f0*%
D10*
X7700Y-10170D02*
X7700Y-12530D01*
X-4900Y-12530*
X-4900Y-10170*
X7700Y-10170*
X5175Y-10170D02*
X5175Y-12530D01*
D16*
X8475Y-11350D03*
G36*
X7004Y-9617D02*
X7089Y-9605D01*
X7092Y-9643D01*
X7099Y-9674D01*
X7108Y-9699D01*
X7120Y-9717D01*
X7135Y-9731D01*
X7153Y-9740D01*
X7173Y-9746D01*
X7196Y-9748D01*
X7213Y-9747D01*
X7229Y-9744D01*
X7244Y-9739D01*
X7257Y-9731D01*
X7269Y-9722D01*
X7279Y-9712D01*
X7287Y-9700D01*
X7293Y-9687D01*
X7297Y-9671D01*
X7300Y-9651D01*
X7302Y-9626D01*
X7303Y-9597D01*
X7303Y-9104D01*
X7397Y-9104D01*
X7397Y-9592D01*
X7396Y-9634D01*
X7392Y-9672D01*
X7385Y-9704D01*
X7376Y-9731D01*
X7363Y-9754D01*
X7348Y-9775D01*
X7329Y-9792D01*
X7307Y-9806D01*
X7282Y-9818D01*
X7256Y-9826D01*
X7227Y-9831D01*
X7196Y-9832D01*
X7152Y-9829D01*
X7113Y-9819D01*
X7080Y-9802D01*
X7052Y-9778D01*
X7030Y-9748D01*
X7015Y-9711D01*
X7006Y-9667D01*
X7004Y-9617D01*
X7004Y-9617D01*
X7848Y-9820D02*
X7760Y-9820D01*
X7760Y-9260D01*
X7743Y-9275D01*
X7723Y-9290D01*
X7701Y-9305D01*
X7676Y-9320D01*
X7651Y-9335D01*
X7628Y-9347D01*
X7605Y-9357D01*
X7584Y-9366D01*
X7584Y-9281D01*
X7620Y-9263D01*
X7653Y-9243D01*
X7684Y-9221D01*
X7713Y-9197D01*
X7738Y-9172D01*
X7760Y-9148D01*
X7777Y-9125D01*
X7791Y-9101D01*
X7848Y-9101D01*
X7848Y-9820D01*
X7848Y-9820D01*
G37*
%LNtop silkscreen component 919d1acac43f7cf5*%
D10*
X-13340Y1665D02*
X-13340Y0835D01*
X-12090Y1665D02*
X-12090Y0835D01*
G36*
X-12677Y3251D02*
X-12582Y3227D01*
X-12600Y3172D01*
X-12624Y3124D01*
X-12653Y3083D01*
X-12689Y3049D01*
X-12730Y3022D01*
X-12775Y3003D01*
X-12825Y2992D01*
X-12878Y2988D01*
X-12934Y2991D01*
X-12983Y3000D01*
X-13028Y3014D01*
X-13067Y3035D01*
X-13101Y3061D01*
X-13130Y3093D01*
X-13156Y3129D01*
X-13177Y3171D01*
X-13194Y3217D01*
X-13205Y3264D01*
X-13212Y3313D01*
X-13215Y3363D01*
X-13212Y3417D01*
X-13204Y3468D01*
X-13191Y3515D01*
X-13172Y3558D01*
X-13148Y3597D01*
X-13120Y3632D01*
X-13088Y3661D01*
X-13051Y3685D01*
X-13010Y3704D01*
X-12968Y3717D01*
X-12923Y3725D01*
X-12877Y3728D01*
X-12825Y3725D01*
X-12778Y3714D01*
X-12735Y3697D01*
X-12696Y3673D01*
X-12662Y3643D01*
X-12634Y3608D01*
X-12611Y3566D01*
X-12594Y3520D01*
X-12687Y3498D01*
X-12701Y3534D01*
X-12718Y3565D01*
X-12737Y3591D01*
X-12760Y3611D01*
X-12785Y3627D01*
X-12813Y3638D01*
X-12845Y3645D01*
X-12879Y3647D01*
X-12918Y3645D01*
X-12955Y3637D01*
X-12987Y3625D01*
X-13017Y3607D01*
X-13042Y3586D01*
X-13064Y3561D01*
X-13081Y3533D01*
X-13095Y3501D01*
X-13105Y3468D01*
X-13112Y3434D01*
X-13116Y3399D01*
X-13117Y3364D01*
X-13116Y3320D01*
X-13111Y3278D01*
X-13102Y3240D01*
X-13091Y3204D01*
X-13075Y3172D01*
X-13057Y3145D01*
X-13034Y3122D01*
X-13008Y3103D01*
X-12979Y3088D01*
X-12949Y3077D01*
X-12918Y3071D01*
X-12886Y3069D01*
X-12848Y3072D01*
X-12813Y3080D01*
X-12781Y3095D01*
X-12751Y3115D01*
X-12726Y3140D01*
X-12705Y3172D01*
X-12689Y3209D01*
X-12677Y3251D01*
X-12677Y3251D01*
X-12170Y3000D02*
X-12258Y3000D01*
X-12258Y3560D01*
X-12275Y3545D01*
X-12294Y3530D01*
X-12317Y3515D01*
X-12341Y3500D01*
X-12366Y3485D01*
X-12390Y3473D01*
X-12412Y3463D01*
X-12434Y3454D01*
X-12434Y3539D01*
X-12398Y3557D01*
X-12364Y3577D01*
X-12333Y3599D01*
X-12305Y3623D01*
X-12279Y3648D01*
X-12258Y3672D01*
X-12240Y3695D01*
X-12227Y3719D01*
X-12170Y3719D01*
X-12170Y3000D01*
X-12170Y3000D01*
G37*
%LNtop silkscreen component c1e2ca1b4103e897*%
X0400Y17110D02*
X0400Y17540D01*
X-0400Y17110D02*
X-0400Y17540D01*
G36*
X-0750Y16739D02*
X-1466Y16739D01*
X-1466Y17056D01*
X-1465Y17101D01*
X-1461Y17141D01*
X-1455Y17174D01*
X-1447Y17202D01*
X-1435Y17226D01*
X-1420Y17247D01*
X-1401Y17265D01*
X-1378Y17281D01*
X-1353Y17294D01*
X-1327Y17304D01*
X-1299Y17309D01*
X-1271Y17311D01*
X-1234Y17308D01*
X-1200Y17299D01*
X-1170Y17283D01*
X-1142Y17262D01*
X-1118Y17234D01*
X-1099Y17199D01*
X-1085Y17158D01*
X-1080Y17134D01*
X-1157Y17119D01*
X-1163Y17139D01*
X-1171Y17156D01*
X-1181Y17171D01*
X-1193Y17184D01*
X-1206Y17195D01*
X-1221Y17203D01*
X-1237Y17209D01*
X-1253Y17212D01*
X-1271Y17214D01*
X-1295Y17211D01*
X-1317Y17204D01*
X-1337Y17193D01*
X-1354Y17177D01*
X-1368Y17156D01*
X-1379Y17129D01*
X-1385Y17097D01*
X-1387Y17060D01*
X-1387Y16834D01*
X-1150Y16834D01*
X-1150Y16834D01*
X-1150Y17037D01*
X-1151Y17068D01*
X-1153Y17095D01*
X-1157Y17119D01*
X-1080Y17134D01*
X-1076Y17110D01*
X-1067Y17127D01*
X-1058Y17143D01*
X-1049Y17156D01*
X-1040Y17167D01*
X-1020Y17187D01*
X-0997Y17207D01*
X-0972Y17226D01*
X-0945Y17245D01*
X-0750Y17370D01*
X-0750Y17251D01*
X-0899Y17156D01*
X-0929Y17136D01*
X-0956Y17118D01*
X-0979Y17102D01*
X-0998Y17088D01*
X-1013Y17075D01*
X-1027Y17062D01*
X-1037Y17050D01*
X-1045Y17040D01*
X-1052Y17029D01*
X-1057Y17018D01*
X-1061Y17007D01*
X-1064Y16996D01*
X-1066Y16987D01*
X-1067Y16975D01*
X-1068Y16961D01*
X-1068Y16944D01*
X-1068Y16834D01*
X-0750Y16834D01*
X-0750Y16739D01*
X-0750Y16739D01*
X-1372Y17430D02*
X-1457Y17430D01*
X-1457Y17893D01*
X-1388Y17893D01*
X-1349Y17859D01*
X-1303Y17825D01*
X-1252Y17791D01*
X-1195Y17758D01*
X-1134Y17726D01*
X-1073Y17698D01*
X-1010Y17674D01*
X-0947Y17654D01*
X-0901Y17642D01*
X-0853Y17632D01*
X-0802Y17625D01*
X-0750Y17620D01*
X-0750Y17530D01*
X-0794Y17533D01*
X-0843Y17539D01*
X-0896Y17549D01*
X-0954Y17563D01*
X-1013Y17581D01*
X-1072Y17602D01*
X-1129Y17626D01*
X-1185Y17654D01*
X-1238Y17684D01*
X-1287Y17715D01*
X-1332Y17748D01*
X-1372Y17780D01*
X-1372Y17430D01*
X-1372Y17430D01*
G37*
%LNtop silkscreen component 557e759dcb5dd2a6*%
X2940Y17110D02*
X2940Y17540D01*
X2140Y17110D02*
X2140Y17540D01*
G36*
X1850Y16714D02*
X1134Y16714D01*
X1134Y17031D01*
X1135Y17076D01*
X1139Y17116D01*
X1145Y17149D01*
X1153Y17177D01*
X1165Y17201D01*
X1180Y17222D01*
X1199Y17240D01*
X1222Y17256D01*
X1247Y17269D01*
X1273Y17279D01*
X1301Y17284D01*
X1329Y17286D01*
X1366Y17283D01*
X1400Y17274D01*
X1430Y17258D01*
X1458Y17237D01*
X1482Y17209D01*
X1501Y17174D01*
X1515Y17133D01*
X1520Y17109D01*
X1443Y17094D01*
X1437Y17114D01*
X1429Y17131D01*
X1419Y17146D01*
X1407Y17159D01*
X1394Y17170D01*
X1379Y17178D01*
X1363Y17184D01*
X1347Y17187D01*
X1329Y17189D01*
X1305Y17186D01*
X1283Y17179D01*
X1263Y17168D01*
X1246Y17152D01*
X1232Y17131D01*
X1221Y17104D01*
X1215Y17072D01*
X1213Y17035D01*
X1213Y16809D01*
X1450Y16809D01*
X1450Y16809D01*
X1450Y17012D01*
X1449Y17043D01*
X1447Y17070D01*
X1443Y17094D01*
X1520Y17109D01*
X1524Y17085D01*
X1533Y17102D01*
X1542Y17118D01*
X1551Y17131D01*
X1560Y17142D01*
X1580Y17162D01*
X1603Y17182D01*
X1628Y17201D01*
X1655Y17220D01*
X1850Y17345D01*
X1850Y17226D01*
X1701Y17131D01*
X1671Y17111D01*
X1644Y17093D01*
X1621Y17077D01*
X1602Y17063D01*
X1587Y17050D01*
X1573Y17037D01*
X1563Y17025D01*
X1555Y17015D01*
X1548Y17004D01*
X1543Y16993D01*
X1539Y16982D01*
X1536Y16971D01*
X1534Y16962D01*
X1533Y16950D01*
X1532Y16936D01*
X1532Y16919D01*
X1532Y16809D01*
X1850Y16809D01*
X1850Y16714D01*
X1850Y16714D01*
X1663Y17399D02*
X1655Y17491D01*
X1686Y17498D01*
X1714Y17508D01*
X1737Y17522D01*
X1756Y17539D01*
X1771Y17559D01*
X1781Y17580D01*
X1788Y17604D01*
X1790Y17629D01*
X1787Y17660D01*
X1778Y17688D01*
X1763Y17713D01*
X1742Y17736D01*
X1716Y17756D01*
X1686Y17769D01*
X1653Y17778D01*
X1615Y17780D01*
X1580Y17778D01*
X1548Y17770D01*
X1520Y17757D01*
X1496Y17738D01*
X1477Y17715D01*
X1464Y17689D01*
X1456Y17660D01*
X1453Y17628D01*
X1454Y17607D01*
X1458Y17587D01*
X1464Y17568D01*
X1472Y17551D01*
X1483Y17535D01*
X1494Y17520D01*
X1508Y17508D01*
X1522Y17497D01*
X1512Y17415D01*
X1144Y17484D01*
X1144Y17840D01*
X1228Y17840D01*
X1228Y17554D01*
X1420Y17516D01*
X1401Y17548D01*
X1387Y17582D01*
X1378Y17616D01*
X1375Y17651D01*
X1379Y17696D01*
X1392Y17737D01*
X1412Y17775D01*
X1440Y17809D01*
X1475Y17837D01*
X1515Y17858D01*
X1559Y17870D01*
X1607Y17874D01*
X1654Y17870D01*
X1698Y17859D01*
X1738Y17842D01*
X1775Y17817D01*
X1813Y17779D01*
X1840Y17736D01*
X1857Y17685D01*
X1862Y17629D01*
X1859Y17582D01*
X1849Y17540D01*
X1831Y17503D01*
X1808Y17470D01*
X1778Y17442D01*
X1744Y17421D01*
X1705Y17407D01*
X1663Y17399D01*
X1663Y17399D01*
G37*
%LNtop silkscreen component 55f65207dfb3c681*%
X-2940Y-16910D02*
X-2940Y-17340D01*
X-2140Y-16910D02*
X-2140Y-17340D01*
G36*
X-3200Y-17736D02*
X-3916Y-17736D01*
X-3916Y-17419D01*
X-3915Y-17374D01*
X-3911Y-17334D01*
X-3905Y-17301D01*
X-3897Y-17273D01*
X-3885Y-17249D01*
X-3870Y-17228D01*
X-3851Y-17210D01*
X-3828Y-17194D01*
X-3803Y-17181D01*
X-3777Y-17171D01*
X-3749Y-17166D01*
X-3721Y-17164D01*
X-3684Y-17167D01*
X-3650Y-17176D01*
X-3620Y-17192D01*
X-3592Y-17213D01*
X-3568Y-17241D01*
X-3549Y-17276D01*
X-3535Y-17317D01*
X-3530Y-17341D01*
X-3607Y-17356D01*
X-3613Y-17336D01*
X-3621Y-17319D01*
X-3631Y-17304D01*
X-3643Y-17291D01*
X-3656Y-17280D01*
X-3671Y-17272D01*
X-3687Y-17266D01*
X-3703Y-17263D01*
X-3721Y-17261D01*
X-3745Y-17264D01*
X-3767Y-17271D01*
X-3787Y-17282D01*
X-3804Y-17298D01*
X-3818Y-17319D01*
X-3829Y-17346D01*
X-3835Y-17378D01*
X-3837Y-17415D01*
X-3837Y-17641D01*
X-3600Y-17641D01*
X-3600Y-17641D01*
X-3600Y-17438D01*
X-3601Y-17407D01*
X-3603Y-17380D01*
X-3607Y-17356D01*
X-3530Y-17341D01*
X-3526Y-17365D01*
X-3517Y-17348D01*
X-3508Y-17332D01*
X-3499Y-17319D01*
X-3490Y-17308D01*
X-3470Y-17288D01*
X-3447Y-17268D01*
X-3422Y-17249D01*
X-3395Y-17230D01*
X-3200Y-17105D01*
X-3200Y-17224D01*
X-3349Y-17319D01*
X-3379Y-17339D01*
X-3406Y-17357D01*
X-3429Y-17373D01*
X-3448Y-17387D01*
X-3463Y-17400D01*
X-3477Y-17413D01*
X-3487Y-17425D01*
X-3495Y-17435D01*
X-3502Y-17446D01*
X-3507Y-17457D01*
X-3511Y-17468D01*
X-3514Y-17479D01*
X-3516Y-17488D01*
X-3517Y-17500D01*
X-3518Y-17514D01*
X-3518Y-17531D01*
X-3518Y-17641D01*
X-3200Y-17641D01*
X-3200Y-17736D01*
X-3200Y-17736D01*
X-3366Y-17038D02*
X-3373Y-16953D01*
X-3346Y-16947D01*
X-3322Y-16938D01*
X-3302Y-16926D01*
X-3287Y-16912D01*
X-3275Y-16896D01*
X-3267Y-16878D01*
X-3262Y-16857D01*
X-3260Y-16835D01*
X-3261Y-16815D01*
X-3265Y-16797D01*
X-3270Y-16779D01*
X-3279Y-16764D01*
X-3289Y-16749D01*
X-3300Y-16736D01*
X-3313Y-16724D01*
X-3328Y-16714D01*
X-3345Y-16704D01*
X-3365Y-16696D01*
X-3387Y-16688D01*
X-3412Y-16681D01*
X-3438Y-16675D01*
X-3465Y-16671D01*
X-3492Y-16668D01*
X-3519Y-16668D01*
X-3523Y-16668D01*
X-3527Y-16668D01*
X-3531Y-16668D01*
X-3537Y-16668D01*
X-3569Y-16712D01*
X-3586Y-16700D01*
X-3614Y-16688D01*
X-3646Y-16680D01*
X-3681Y-16678D01*
X-3681Y-16678D01*
X-3717Y-16680D01*
X-3749Y-16688D01*
X-3777Y-16701D01*
X-3802Y-16718D01*
X-3821Y-16739D01*
X-3835Y-16763D01*
X-3843Y-16788D01*
X-3846Y-16815D01*
X-3843Y-16843D01*
X-3834Y-16870D01*
X-3819Y-16895D01*
X-3798Y-16917D01*
X-3772Y-16936D01*
X-3743Y-16950D01*
X-3710Y-16958D01*
X-3674Y-16961D01*
X-3642Y-16958D01*
X-3612Y-16950D01*
X-3586Y-16937D01*
X-3563Y-16919D01*
X-3544Y-16898D01*
X-3531Y-16873D01*
X-3523Y-16847D01*
X-3520Y-16818D01*
X-3523Y-16788D01*
X-3531Y-16762D01*
X-3544Y-16738D01*
X-3563Y-16717D01*
X-3569Y-16712D01*
X-3537Y-16668D01*
X-3517Y-16683D01*
X-3499Y-16699D01*
X-3483Y-16719D01*
X-3469Y-16740D01*
X-3457Y-16763D01*
X-3449Y-16788D01*
X-3444Y-16813D01*
X-3443Y-16839D01*
X-3447Y-16882D01*
X-3459Y-16921D01*
X-3479Y-16957D01*
X-3507Y-16989D01*
X-3542Y-17016D01*
X-3582Y-17036D01*
X-3627Y-17047D01*
X-3677Y-17051D01*
X-3729Y-17047D01*
X-3775Y-17035D01*
X-3816Y-17015D01*
X-3852Y-16987D01*
X-3881Y-16953D01*
X-3902Y-16914D01*
X-3915Y-16872D01*
X-3919Y-16826D01*
X-3916Y-16792D01*
X-3909Y-16759D01*
X-3898Y-16728D01*
X-3881Y-16698D01*
X-3860Y-16671D01*
X-3836Y-16647D01*
X-3807Y-16627D01*
X-3774Y-16610D01*
X-3735Y-16597D01*
X-3689Y-16588D01*
X-3635Y-16582D01*
X-3573Y-16580D01*
X-3507Y-16582D01*
X-3449Y-16588D01*
X-3398Y-16597D01*
X-3354Y-16610D01*
X-3316Y-16627D01*
X-3282Y-16647D01*
X-3254Y-16671D01*
X-3230Y-16699D01*
X-3212Y-16729D01*
X-3198Y-16763D01*
X-3190Y-16798D01*
X-3188Y-16837D01*
X-3191Y-16877D01*
X-3199Y-16913D01*
X-3214Y-16945D01*
X-3234Y-16974D01*
X-3260Y-16998D01*
X-3291Y-17016D01*
X-3326Y-17030D01*
X-3366Y-17038D01*
X-3366Y-17038D01*
G37*
%LNtop silkscreen component a355959bcd360295*%
X21770Y8890D02*
X21770Y-8890D01*
X19230Y-8890D02*
X21770Y-8890D01*
X19230Y8890D02*
X19230Y-8890D01*
X19230Y8890D02*
X21770Y8890D01*
X21770Y6350D02*
X19230Y6350D01*
D15*
X18600Y7620D03*
G36*
X18889Y9373D02*
X18974Y9385D01*
X18977Y9347D01*
X18984Y9316D01*
X18993Y9291D01*
X19005Y9273D01*
X19020Y9259D01*
X19038Y9250D01*
X19058Y9244D01*
X19081Y9242D01*
X19098Y9243D01*
X19114Y9246D01*
X19129Y9251D01*
X19142Y9259D01*
X19154Y9268D01*
X19164Y9278D01*
X19172Y9290D01*
X19178Y9303D01*
X19182Y9319D01*
X19185Y9339D01*
X19187Y9364D01*
X19188Y9393D01*
X19188Y9886D01*
X19282Y9886D01*
X19282Y9398D01*
X19281Y9356D01*
X19277Y9318D01*
X19270Y9286D01*
X19261Y9259D01*
X19248Y9236D01*
X19233Y9215D01*
X19214Y9198D01*
X19192Y9184D01*
X19167Y9172D01*
X19141Y9164D01*
X19112Y9159D01*
X19081Y9158D01*
X19037Y9161D01*
X18998Y9171D01*
X18965Y9188D01*
X18937Y9212D01*
X18915Y9242D01*
X18900Y9279D01*
X18891Y9323D01*
X18889Y9373D01*
X18889Y9373D01*
X19402Y9357D02*
X19494Y9365D01*
X19501Y9334D01*
X19511Y9306D01*
X19524Y9283D01*
X19541Y9264D01*
X19561Y9249D01*
X19583Y9239D01*
X19606Y9232D01*
X19632Y9230D01*
X19662Y9233D01*
X19690Y9242D01*
X19716Y9257D01*
X19739Y9278D01*
X19758Y9304D01*
X19772Y9334D01*
X19780Y9367D01*
X19783Y9405D01*
X19780Y9440D01*
X19772Y9472D01*
X19759Y9500D01*
X19741Y9524D01*
X19718Y9543D01*
X19692Y9556D01*
X19663Y9564D01*
X19630Y9567D01*
X19609Y9566D01*
X19590Y9562D01*
X19571Y9556D01*
X19553Y9548D01*
X19537Y9537D01*
X19523Y9526D01*
X19510Y9512D01*
X19500Y9498D01*
X19417Y9508D01*
X19486Y9876D01*
X19842Y9876D01*
X19842Y9792D01*
X19557Y9792D01*
X19518Y9600D01*
X19551Y9619D01*
X19584Y9633D01*
X19618Y9642D01*
X19653Y9645D01*
X19699Y9641D01*
X19740Y9628D01*
X19778Y9608D01*
X19812Y9580D01*
X19840Y9545D01*
X19860Y9505D01*
X19872Y9461D01*
X19876Y9413D01*
X19873Y9366D01*
X19862Y9322D01*
X19844Y9282D01*
X19820Y9245D01*
X19782Y9207D01*
X19738Y9180D01*
X19688Y9163D01*
X19632Y9158D01*
X19585Y9161D01*
X19543Y9171D01*
X19505Y9189D01*
X19472Y9212D01*
X19445Y9242D01*
X19424Y9276D01*
X19409Y9315D01*
X19402Y9357D01*
X19402Y9357D01*
G37*
%LNtop silkscreen component 3a3a2cfcd27fe13b*%
D10*
X16260Y-0400D02*
X16690Y-0400D01*
X16260Y0400D02*
X16690Y0400D01*
G36*
X15614Y0600D02*
X15614Y1316D01*
X15931Y1316D01*
X15976Y1315D01*
X16016Y1311D01*
X16049Y1305D01*
X16077Y1297D01*
X16101Y1285D01*
X16122Y1270D01*
X16140Y1251D01*
X16156Y1228D01*
X16169Y1203D01*
X16179Y1177D01*
X16184Y1149D01*
X16186Y1121D01*
X16183Y1084D01*
X16174Y1050D01*
X16158Y1020D01*
X16137Y0992D01*
X16109Y0968D01*
X16074Y0949D01*
X16033Y0935D01*
X16009Y0930D01*
X15994Y1007D01*
X16014Y1013D01*
X16031Y1021D01*
X16046Y1031D01*
X16059Y1043D01*
X16070Y1056D01*
X16078Y1071D01*
X16084Y1087D01*
X16087Y1103D01*
X16089Y1121D01*
X16086Y1145D01*
X16079Y1167D01*
X16068Y1187D01*
X16052Y1204D01*
X16031Y1218D01*
X16004Y1229D01*
X15972Y1235D01*
X15935Y1237D01*
X15709Y1237D01*
X15709Y1000D01*
X15709Y1000D01*
X15912Y1000D01*
X15943Y1001D01*
X15970Y1003D01*
X15994Y1007D01*
X16009Y0930D01*
X15985Y0926D01*
X16002Y0917D01*
X16018Y0908D01*
X16031Y0899D01*
X16042Y0890D01*
X16062Y0870D01*
X16082Y0847D01*
X16101Y0822D01*
X16120Y0795D01*
X16245Y0600D01*
X16126Y0600D01*
X16031Y0749D01*
X16011Y0779D01*
X15993Y0806D01*
X15977Y0829D01*
X15963Y0848D01*
X15950Y0863D01*
X15937Y0877D01*
X15925Y0887D01*
X15915Y0895D01*
X15904Y0902D01*
X15893Y0907D01*
X15882Y0911D01*
X15871Y0914D01*
X15862Y0916D01*
X15850Y0917D01*
X15836Y0918D01*
X15819Y0918D01*
X15709Y0918D01*
X15709Y0600D01*
X15614Y0600D01*
X15614Y0600D01*
X16630Y0600D02*
X16542Y0600D01*
X16542Y1160D01*
X16525Y1145D01*
X16506Y1130D01*
X16483Y1115D01*
X16459Y1100D01*
X16434Y1085D01*
X16410Y1073D01*
X16388Y1063D01*
X16366Y1054D01*
X16366Y1139D01*
X16402Y1157D01*
X16436Y1177D01*
X16467Y1199D01*
X16495Y1223D01*
X16521Y1248D01*
X16542Y1272D01*
X16560Y1295D01*
X16573Y1319D01*
X16630Y1319D01*
X16630Y0600D01*
X16630Y0600D01*
X17317Y0684D02*
X17317Y0600D01*
X16844Y0600D01*
X16844Y0616D01*
X16846Y0631D01*
X16849Y0646D01*
X16854Y0661D01*
X16865Y0685D01*
X16878Y0709D01*
X16894Y0733D01*
X16912Y0756D01*
X16934Y0781D01*
X16961Y0807D01*
X16992Y0835D01*
X17027Y0865D01*
X17081Y0910D01*
X17125Y0950D01*
X17160Y0986D01*
X17185Y1016D01*
X17203Y1044D01*
X17216Y1071D01*
X17223Y1097D01*
X17226Y1122D01*
X17223Y1147D01*
X17216Y1170D01*
X17205Y1191D01*
X17188Y1210D01*
X17168Y1226D01*
X17145Y1237D01*
X17120Y1244D01*
X17091Y1246D01*
X17061Y1244D01*
X17034Y1236D01*
X17010Y1225D01*
X16989Y1208D01*
X16973Y1187D01*
X16961Y1162D01*
X16953Y1134D01*
X16951Y1102D01*
X16861Y1112D01*
X16868Y1159D01*
X16883Y1201D01*
X16903Y1236D01*
X16930Y1266D01*
X16963Y1289D01*
X17001Y1306D01*
X17045Y1315D01*
X17093Y1319D01*
X17142Y1315D01*
X17185Y1304D01*
X17223Y1287D01*
X17256Y1262D01*
X17282Y1231D01*
X17301Y1198D01*
X17312Y1161D01*
X17316Y1120D01*
X17315Y1099D01*
X17312Y1077D01*
X17306Y1056D01*
X17299Y1036D01*
X17288Y1015D01*
X17275Y0993D01*
X17259Y0971D01*
X17240Y0948D01*
X17216Y0923D01*
X17186Y0894D01*
X17149Y0860D01*
X17105Y0822D01*
X17069Y0792D01*
X17040Y0766D01*
X17018Y0747D01*
X17003Y0732D01*
X16992Y0720D01*
X16983Y0708D01*
X16974Y0696D01*
X16966Y0684D01*
X17317Y0684D01*
X17317Y0684D01*
G37*
%LNtop silkscreen component dccc935fa88e421f*%
X-2140Y17110D02*
X-2140Y17540D01*
X-2940Y17110D02*
X-2940Y17540D01*
G36*
X-3250Y16589D02*
X-3966Y16589D01*
X-3966Y16906D01*
X-3965Y16951D01*
X-3961Y16991D01*
X-3955Y17024D01*
X-3947Y17052D01*
X-3935Y17076D01*
X-3920Y17097D01*
X-3901Y17115D01*
X-3878Y17131D01*
X-3853Y17144D01*
X-3827Y17154D01*
X-3799Y17159D01*
X-3771Y17161D01*
X-3734Y17158D01*
X-3700Y17149D01*
X-3670Y17133D01*
X-3642Y17112D01*
X-3618Y17084D01*
X-3599Y17049D01*
X-3585Y17008D01*
X-3580Y16984D01*
X-3657Y16969D01*
X-3663Y16989D01*
X-3671Y17006D01*
X-3681Y17021D01*
X-3693Y17034D01*
X-3706Y17045D01*
X-3721Y17053D01*
X-3737Y17059D01*
X-3753Y17062D01*
X-3771Y17064D01*
X-3795Y17061D01*
X-3817Y17054D01*
X-3837Y17043D01*
X-3854Y17027D01*
X-3868Y17006D01*
X-3879Y16979D01*
X-3885Y16947D01*
X-3887Y16910D01*
X-3887Y16684D01*
X-3650Y16684D01*
X-3650Y16684D01*
X-3650Y16887D01*
X-3651Y16918D01*
X-3653Y16945D01*
X-3657Y16969D01*
X-3580Y16984D01*
X-3576Y16960D01*
X-3567Y16977D01*
X-3558Y16993D01*
X-3549Y17006D01*
X-3540Y17017D01*
X-3520Y17037D01*
X-3497Y17057D01*
X-3472Y17076D01*
X-3445Y17095D01*
X-3250Y17220D01*
X-3250Y17101D01*
X-3399Y17006D01*
X-3429Y16986D01*
X-3456Y16968D01*
X-3479Y16952D01*
X-3498Y16938D01*
X-3513Y16925D01*
X-3527Y16912D01*
X-3537Y16900D01*
X-3545Y16890D01*
X-3552Y16879D01*
X-3557Y16868D01*
X-3561Y16857D01*
X-3564Y16846D01*
X-3566Y16837D01*
X-3567Y16825D01*
X-3568Y16811D01*
X-3568Y16794D01*
X-3568Y16684D01*
X-3250Y16684D01*
X-3250Y16589D01*
X-3250Y16589D01*
X-3250Y17605D02*
X-3250Y17517D01*
X-3810Y17517D01*
X-3795Y17500D01*
X-3780Y17481D01*
X-3765Y17458D01*
X-3750Y17434D01*
X-3735Y17409D01*
X-3723Y17385D01*
X-3713Y17363D01*
X-3704Y17341D01*
X-3789Y17341D01*
X-3807Y17377D01*
X-3827Y17411D01*
X-3849Y17442D01*
X-3873Y17470D01*
X-3898Y17496D01*
X-3922Y17517D01*
X-3945Y17535D01*
X-3969Y17548D01*
X-3969Y17605D01*
X-3250Y17605D01*
X-3250Y17605D01*
X-3250Y18087D02*
X-3250Y17999D01*
X-3810Y17999D01*
X-3795Y17982D01*
X-3780Y17962D01*
X-3765Y17940D01*
X-3750Y17916D01*
X-3735Y17891D01*
X-3723Y17867D01*
X-3713Y17845D01*
X-3704Y17823D01*
X-3789Y17823D01*
X-3807Y17859D01*
X-3827Y17892D01*
X-3849Y17923D01*
X-3873Y17952D01*
X-3898Y17978D01*
X-3922Y17999D01*
X-3945Y18017D01*
X-3969Y18030D01*
X-3969Y18087D01*
X-3250Y18087D01*
X-3250Y18087D01*
G37*
%LNtop silkscreen component c6258b4cfab3766d*%
X-8890Y21770D02*
X8890Y21770D01*
X8890Y19230D02*
X8890Y21770D01*
X-8890Y19230D02*
X8890Y19230D01*
X-8890Y19230D02*
X-8890Y21770D01*
X-6350Y21770D02*
X-6350Y19230D01*
D14*
X-7620Y18600D03*
G36*
X9648Y21686D02*
X9660Y21601D01*
X9622Y21598D01*
X9591Y21591D01*
X9566Y21582D01*
X9548Y21570D01*
X9534Y21555D01*
X9525Y21537D01*
X9519Y21517D01*
X9517Y21494D01*
X9518Y21477D01*
X9521Y21461D01*
X9526Y21446D01*
X9534Y21433D01*
X9543Y21421D01*
X9553Y21411D01*
X9565Y21403D01*
X9578Y21397D01*
X9594Y21393D01*
X9614Y21390D01*
X9639Y21388D01*
X9668Y21387D01*
X10161Y21387D01*
X10161Y21293D01*
X9673Y21293D01*
X9631Y21294D01*
X9593Y21298D01*
X9561Y21305D01*
X9534Y21314D01*
X9511Y21327D01*
X9490Y21342D01*
X9473Y21361D01*
X9459Y21383D01*
X9447Y21408D01*
X9439Y21434D01*
X9434Y21463D01*
X9433Y21494D01*
X9436Y21538D01*
X9446Y21577D01*
X9463Y21610D01*
X9487Y21638D01*
X9517Y21660D01*
X9554Y21675D01*
X9598Y21684D01*
X9648Y21686D01*
X9648Y21686D01*
X9445Y20892D02*
X9616Y20892D01*
X9616Y21202D01*
X9697Y21202D01*
X10059Y20947D01*
X10020Y20892D01*
X9697Y21116D01*
X9697Y20892D01*
X9697Y20892D01*
X10020Y20892D01*
X10059Y20947D01*
X10161Y20876D01*
X10161Y20804D01*
X9697Y20804D01*
X9697Y20707D01*
X9616Y20707D01*
X9616Y20804D01*
X9445Y20804D01*
X9445Y20892D01*
X9445Y20892D01*
G37*
%LNtop silkscreen component 6f96558951de62c9*%
D10*
X9196Y9000D02*
X9625Y9000D01*
X9196Y9800D02*
X9625Y9800D01*
G36*
X8914Y8075D02*
X8914Y8791D01*
X9231Y8791D01*
X9276Y8790D01*
X9316Y8786D01*
X9349Y8780D01*
X9377Y8772D01*
X9401Y8760D01*
X9422Y8745D01*
X9440Y8726D01*
X9456Y8703D01*
X9469Y8678D01*
X9479Y8652D01*
X9484Y8624D01*
X9486Y8596D01*
X9483Y8559D01*
X9474Y8525D01*
X9458Y8495D01*
X9437Y8467D01*
X9409Y8443D01*
X9374Y8424D01*
X9333Y8410D01*
X9309Y8405D01*
X9294Y8482D01*
X9314Y8488D01*
X9331Y8496D01*
X9346Y8506D01*
X9359Y8518D01*
X9370Y8531D01*
X9378Y8546D01*
X9384Y8562D01*
X9387Y8578D01*
X9389Y8596D01*
X9386Y8620D01*
X9379Y8642D01*
X9368Y8662D01*
X9352Y8679D01*
X9331Y8693D01*
X9304Y8704D01*
X9272Y8710D01*
X9235Y8712D01*
X9009Y8712D01*
X9009Y8475D01*
X9009Y8475D01*
X9212Y8475D01*
X9243Y8476D01*
X9270Y8478D01*
X9294Y8482D01*
X9309Y8405D01*
X9285Y8401D01*
X9302Y8392D01*
X9318Y8383D01*
X9331Y8374D01*
X9342Y8365D01*
X9362Y8345D01*
X9382Y8322D01*
X9401Y8297D01*
X9420Y8270D01*
X9545Y8075D01*
X9426Y8075D01*
X9331Y8224D01*
X9311Y8254D01*
X9293Y8281D01*
X9277Y8304D01*
X9263Y8323D01*
X9250Y8338D01*
X9237Y8352D01*
X9225Y8362D01*
X9215Y8370D01*
X9204Y8377D01*
X9193Y8382D01*
X9182Y8386D01*
X9171Y8389D01*
X9162Y8391D01*
X9150Y8392D01*
X9136Y8393D01*
X9119Y8393D01*
X9009Y8393D01*
X9009Y8075D01*
X8914Y8075D01*
X8914Y8075D01*
X9600Y8264D02*
X9687Y8276D01*
X9696Y8241D01*
X9708Y8211D01*
X9722Y8187D01*
X9739Y8168D01*
X9758Y8154D01*
X9779Y8143D01*
X9802Y8137D01*
X9828Y8135D01*
X9857Y8138D01*
X9885Y8146D01*
X9910Y8159D01*
X9932Y8178D01*
X9951Y8201D01*
X9964Y8226D01*
X9972Y8254D01*
X9975Y8284D01*
X9973Y8313D01*
X9965Y8340D01*
X9953Y8363D01*
X9935Y8384D01*
X9914Y8402D01*
X9891Y8414D01*
X9864Y8421D01*
X9835Y8424D01*
X9822Y8423D01*
X9807Y8421D01*
X9791Y8418D01*
X9773Y8414D01*
X9783Y8491D01*
X9787Y8491D01*
X9791Y8490D01*
X9794Y8490D01*
X9797Y8490D01*
X9824Y8492D01*
X9850Y8497D01*
X9875Y8507D01*
X9898Y8519D01*
X9918Y8536D01*
X9932Y8557D01*
X9940Y8581D01*
X9943Y8610D01*
X9941Y8633D01*
X9935Y8654D01*
X9924Y8673D01*
X9910Y8690D01*
X9893Y8704D01*
X9873Y8714D01*
X9850Y8720D01*
X9826Y8721D01*
X9801Y8719D01*
X9779Y8713D01*
X9758Y8703D01*
X9740Y8689D01*
X9725Y8671D01*
X9712Y8649D01*
X9703Y8623D01*
X9696Y8593D01*
X9608Y8608D01*
X9619Y8650D01*
X9635Y8687D01*
X9656Y8718D01*
X9682Y8745D01*
X9712Y8766D01*
X9746Y8782D01*
X9783Y8791D01*
X9824Y8794D01*
X9852Y8792D01*
X9880Y8787D01*
X9906Y8780D01*
X9932Y8769D01*
X9955Y8755D01*
X9975Y8739D01*
X9992Y8721D01*
X10007Y8700D01*
X10018Y8678D01*
X10027Y8655D01*
X10031Y8632D01*
X10033Y8608D01*
X10032Y8585D01*
X10027Y8563D01*
X10019Y8543D01*
X10008Y8523D01*
X9994Y8505D01*
X9977Y8489D01*
X9957Y8475D01*
X9934Y8463D01*
X9964Y8453D01*
X9991Y8440D01*
X10014Y8423D01*
X10033Y8402D01*
X10048Y8377D01*
X10059Y8350D01*
X10066Y8320D01*
X10068Y8286D01*
X10064Y8241D01*
X10051Y8200D01*
X10030Y8162D01*
X10000Y8127D01*
X9963Y8099D01*
X9923Y8079D01*
X9877Y8066D01*
X9827Y8062D01*
X9782Y8066D01*
X9741Y8076D01*
X9704Y8094D01*
X9671Y8118D01*
X9643Y8149D01*
X9622Y8183D01*
X9607Y8221D01*
X9600Y8264D01*
X9600Y8264D01*
G37*
%LNtop silkscreen component fbd389026ec22525*%
X-0400Y-16910D02*
X-0400Y-17340D01*
X0400Y-16910D02*
X0400Y-17340D01*
G36*
X-0650Y-17911D02*
X-1366Y-17911D01*
X-1366Y-17594D01*
X-1365Y-17549D01*
X-1361Y-17509D01*
X-1355Y-17476D01*
X-1347Y-17448D01*
X-1335Y-17424D01*
X-1320Y-17403D01*
X-1301Y-17385D01*
X-1278Y-17369D01*
X-1253Y-17356D01*
X-1227Y-17346D01*
X-1199Y-17341D01*
X-1171Y-17339D01*
X-1134Y-17342D01*
X-1100Y-17351D01*
X-1070Y-17367D01*
X-1042Y-17388D01*
X-1018Y-17416D01*
X-0999Y-17451D01*
X-0985Y-17492D01*
X-0980Y-17516D01*
X-1057Y-17531D01*
X-1063Y-17511D01*
X-1071Y-17494D01*
X-1081Y-17479D01*
X-1093Y-17466D01*
X-1106Y-17455D01*
X-1121Y-17447D01*
X-1137Y-17441D01*
X-1153Y-17438D01*
X-1171Y-17436D01*
X-1195Y-17439D01*
X-1217Y-17446D01*
X-1237Y-17457D01*
X-1254Y-17473D01*
X-1268Y-17494D01*
X-1279Y-17521D01*
X-1285Y-17553D01*
X-1287Y-17590D01*
X-1287Y-17816D01*
X-1050Y-17816D01*
X-1050Y-17816D01*
X-1050Y-17613D01*
X-1051Y-17582D01*
X-1053Y-17555D01*
X-1057Y-17531D01*
X-0980Y-17516D01*
X-0976Y-17540D01*
X-0967Y-17523D01*
X-0958Y-17507D01*
X-0949Y-17494D01*
X-0940Y-17483D01*
X-0920Y-17463D01*
X-0897Y-17443D01*
X-0872Y-17424D01*
X-0845Y-17405D01*
X-0650Y-17280D01*
X-0650Y-17399D01*
X-0799Y-17494D01*
X-0829Y-17514D01*
X-0856Y-17532D01*
X-0879Y-17548D01*
X-0898Y-17562D01*
X-0913Y-17575D01*
X-0927Y-17588D01*
X-0937Y-17600D01*
X-0945Y-17610D01*
X-0952Y-17621D01*
X-0957Y-17632D01*
X-0961Y-17643D01*
X-0964Y-17654D01*
X-0966Y-17663D01*
X-0967Y-17675D01*
X-0968Y-17689D01*
X-0968Y-17706D01*
X-0968Y-17816D01*
X-0650Y-17816D01*
X-0650Y-17911D01*
X-0650Y-17911D01*
X-0650Y-16895D02*
X-0650Y-16983D01*
X-1210Y-16983D01*
X-1195Y-17000D01*
X-1180Y-17019D01*
X-1165Y-17042D01*
X-1150Y-17066D01*
X-1135Y-17091D01*
X-1123Y-17115D01*
X-1113Y-17137D01*
X-1104Y-17159D01*
X-1189Y-17159D01*
X-1207Y-17123D01*
X-1227Y-17089D01*
X-1249Y-17058D01*
X-1273Y-17030D01*
X-1298Y-17004D01*
X-1322Y-16983D01*
X-1345Y-16965D01*
X-1369Y-16952D01*
X-1369Y-16895D01*
X-0650Y-16895D01*
X-0650Y-16895D01*
X-0839Y-16669D02*
X-0851Y-16581D01*
X-0816Y-16573D01*
X-0786Y-16561D01*
X-0762Y-16547D01*
X-0743Y-16530D01*
X-0729Y-16511D01*
X-0718Y-16490D01*
X-0712Y-16466D01*
X-0710Y-16441D01*
X-0713Y-16411D01*
X-0721Y-16384D01*
X-0734Y-16359D01*
X-0753Y-16337D01*
X-0776Y-16318D01*
X-0801Y-16305D01*
X-0829Y-16297D01*
X-0859Y-16294D01*
X-0888Y-16296D01*
X-0915Y-16304D01*
X-0938Y-16316D01*
X-0959Y-16333D01*
X-0977Y-16354D01*
X-0989Y-16378D01*
X-0996Y-16405D01*
X-0999Y-16434D01*
X-0998Y-16447D01*
X-0996Y-16462D01*
X-0993Y-16478D01*
X-0989Y-16496D01*
X-1066Y-16486D01*
X-1066Y-16482D01*
X-1065Y-16478D01*
X-1065Y-16475D01*
X-1065Y-16472D01*
X-1067Y-16445D01*
X-1072Y-16419D01*
X-1082Y-16394D01*
X-1094Y-16371D01*
X-1111Y-16351D01*
X-1132Y-16337D01*
X-1156Y-16329D01*
X-1185Y-16326D01*
X-1208Y-16328D01*
X-1229Y-16334D01*
X-1248Y-16344D01*
X-1265Y-16359D01*
X-1279Y-16376D01*
X-1289Y-16396D01*
X-1294Y-16419D01*
X-1296Y-16443D01*
X-1294Y-16468D01*
X-1288Y-16490D01*
X-1278Y-16511D01*
X-1264Y-16529D01*
X-1246Y-16544D01*
X-1224Y-16557D01*
X-1198Y-16566D01*
X-1168Y-16573D01*
X-1183Y-16661D01*
X-1225Y-16650D01*
X-1262Y-16634D01*
X-1293Y-16613D01*
X-1320Y-16587D01*
X-1341Y-16557D01*
X-1357Y-16523D01*
X-1366Y-16486D01*
X-1369Y-16445D01*
X-1367Y-16416D01*
X-1362Y-16389D01*
X-1355Y-16363D01*
X-1344Y-16337D01*
X-1330Y-16314D01*
X-1314Y-16294D01*
X-1296Y-16276D01*
X-1275Y-16262D01*
X-1253Y-16250D01*
X-1230Y-16242D01*
X-1207Y-16237D01*
X-1183Y-16236D01*
X-1160Y-16237D01*
X-1138Y-16242D01*
X-1118Y-16250D01*
X-1098Y-16261D01*
X-1080Y-16275D01*
X-1064Y-16292D01*
X-1050Y-16311D01*
X-1038Y-16334D01*
X-1028Y-16304D01*
X-1015Y-16278D01*
X-0998Y-16255D01*
X-0977Y-16236D01*
X-0952Y-16220D01*
X-0925Y-16209D01*
X-0895Y-16203D01*
X-0861Y-16201D01*
X-0816Y-16205D01*
X-0775Y-16218D01*
X-0737Y-16239D01*
X-0702Y-16269D01*
X-0674Y-16305D01*
X-0654Y-16346D01*
X-0641Y-16392D01*
X-0637Y-16442D01*
X-0641Y-16487D01*
X-0651Y-16528D01*
X-0669Y-16565D01*
X-0693Y-16598D01*
X-0724Y-16626D01*
X-0758Y-16647D01*
X-0796Y-16662D01*
X-0839Y-16669D01*
X-0839Y-16669D01*
G37*
%LNtop silkscreen component 88a4d5fcc0e14ff3*%
X13165Y9800D02*
X12735Y9800D01*
X13165Y9000D02*
X12735Y9000D01*
D16*
X14760Y9400D03*
G36*
X12488Y8100D02*
X12488Y8816D01*
X12733Y8816D01*
X12733Y8731D01*
X12582Y8731D01*
X12582Y8184D01*
X12582Y8184D01*
X12735Y8184D01*
X12769Y8185D01*
X12798Y8188D01*
X12824Y8192D01*
X12846Y8198D01*
X12865Y8205D01*
X12882Y8214D01*
X12897Y8223D01*
X12910Y8235D01*
X12926Y8253D01*
X12940Y8274D01*
X12953Y8298D01*
X12963Y8325D01*
X12971Y8355D01*
X12977Y8388D01*
X12980Y8424D01*
X12982Y8463D01*
X12979Y8516D01*
X12972Y8563D01*
X12961Y8602D01*
X12945Y8636D01*
X12925Y8664D01*
X12904Y8686D01*
X12881Y8704D01*
X12855Y8717D01*
X12833Y8723D01*
X12805Y8728D01*
X12772Y8730D01*
X12733Y8731D01*
X12733Y8816D01*
X12734Y8816D01*
X12773Y8815D01*
X12808Y8813D01*
X12837Y8810D01*
X12862Y8806D01*
X12891Y8797D01*
X12919Y8786D01*
X12944Y8771D01*
X12967Y8754D01*
X12993Y8729D01*
X13016Y8700D01*
X13035Y8668D01*
X13051Y8632D01*
X13064Y8593D01*
X13072Y8552D01*
X13078Y8508D01*
X13079Y8462D01*
X13078Y8422D01*
X13075Y8385D01*
X13069Y8350D01*
X13060Y8317D01*
X13050Y8287D01*
X13039Y8260D01*
X13026Y8235D01*
X13011Y8213D01*
X12996Y8194D01*
X12980Y8176D01*
X12964Y8161D01*
X12946Y8148D01*
X12928Y8137D01*
X12907Y8127D01*
X12885Y8119D01*
X12861Y8112D01*
X12835Y8107D01*
X12807Y8103D01*
X12777Y8101D01*
X12746Y8100D01*
X12488Y8100D01*
X12488Y8100D01*
X13636Y8184D02*
X13636Y8100D01*
X13163Y8100D01*
X13163Y8116D01*
X13165Y8131D01*
X13168Y8146D01*
X13173Y8161D01*
X13183Y8185D01*
X13197Y8209D01*
X13212Y8233D01*
X13231Y8256D01*
X13253Y8281D01*
X13280Y8307D01*
X13311Y8335D01*
X13346Y8365D01*
X13400Y8410D01*
X13444Y8450D01*
X13478Y8486D01*
X13504Y8516D01*
X13522Y8544D01*
X13534Y8571D01*
X13542Y8597D01*
X13545Y8622D01*
X13542Y8647D01*
X13535Y8670D01*
X13524Y8691D01*
X13507Y8710D01*
X13487Y8726D01*
X13464Y8737D01*
X13438Y8744D01*
X13410Y8746D01*
X13380Y8744D01*
X13353Y8736D01*
X13329Y8725D01*
X13308Y8708D01*
X13292Y8687D01*
X13280Y8662D01*
X13272Y8634D01*
X13270Y8602D01*
X13179Y8612D01*
X13187Y8659D01*
X13201Y8701D01*
X13222Y8736D01*
X13249Y8766D01*
X13282Y8789D01*
X13320Y8806D01*
X13363Y8815D01*
X13412Y8819D01*
X13461Y8815D01*
X13504Y8804D01*
X13542Y8787D01*
X13575Y8762D01*
X13601Y8731D01*
X13620Y8698D01*
X13631Y8661D01*
X13635Y8620D01*
X13634Y8599D01*
X13631Y8577D01*
X13625Y8556D01*
X13617Y8536D01*
X13607Y8515D01*
X13594Y8493D01*
X13578Y8471D01*
X13559Y8448D01*
X13535Y8423D01*
X13505Y8394D01*
X13468Y8360D01*
X13424Y8322D01*
X13388Y8292D01*
X13359Y8266D01*
X13337Y8247D01*
X13322Y8232D01*
X13311Y8220D01*
X13301Y8208D01*
X13293Y8196D01*
X13285Y8184D01*
X13636Y8184D01*
X13636Y8184D01*
G37*
%LNtop silkscreen component 474d5e9ebbd1a6df*%
D10*
X2140Y-16910D02*
X2140Y-17340D01*
X2940Y-16910D02*
X2940Y-17340D01*
G36*
X1850Y-17936D02*
X1134Y-17936D01*
X1134Y-17619D01*
X1135Y-17574D01*
X1139Y-17534D01*
X1145Y-17501D01*
X1153Y-17473D01*
X1165Y-17449D01*
X1180Y-17428D01*
X1199Y-17410D01*
X1222Y-17394D01*
X1247Y-17381D01*
X1273Y-17371D01*
X1301Y-17366D01*
X1329Y-17364D01*
X1366Y-17367D01*
X1400Y-17376D01*
X1430Y-17392D01*
X1458Y-17413D01*
X1482Y-17441D01*
X1501Y-17476D01*
X1515Y-17517D01*
X1520Y-17541D01*
X1443Y-17556D01*
X1437Y-17536D01*
X1429Y-17519D01*
X1419Y-17504D01*
X1407Y-17491D01*
X1394Y-17480D01*
X1379Y-17472D01*
X1363Y-17466D01*
X1347Y-17463D01*
X1329Y-17461D01*
X1305Y-17464D01*
X1283Y-17471D01*
X1263Y-17482D01*
X1246Y-17498D01*
X1232Y-17519D01*
X1221Y-17546D01*
X1215Y-17578D01*
X1213Y-17615D01*
X1213Y-17841D01*
X1450Y-17841D01*
X1450Y-17841D01*
X1450Y-17638D01*
X1449Y-17607D01*
X1447Y-17580D01*
X1443Y-17556D01*
X1520Y-17541D01*
X1524Y-17565D01*
X1533Y-17548D01*
X1542Y-17532D01*
X1551Y-17519D01*
X1560Y-17508D01*
X1580Y-17488D01*
X1603Y-17468D01*
X1628Y-17449D01*
X1655Y-17430D01*
X1850Y-17305D01*
X1850Y-17424D01*
X1701Y-17519D01*
X1671Y-17539D01*
X1644Y-17557D01*
X1621Y-17573D01*
X1602Y-17587D01*
X1587Y-17600D01*
X1573Y-17613D01*
X1563Y-17625D01*
X1555Y-17635D01*
X1548Y-17646D01*
X1543Y-17657D01*
X1539Y-17668D01*
X1536Y-17679D01*
X1534Y-17688D01*
X1533Y-17700D01*
X1532Y-17714D01*
X1532Y-17731D01*
X1532Y-17841D01*
X1850Y-17841D01*
X1850Y-17936D01*
X1850Y-17936D01*
X1850Y-16920D02*
X1850Y-17008D01*
X1290Y-17008D01*
X1305Y-17025D01*
X1320Y-17044D01*
X1335Y-17067D01*
X1350Y-17091D01*
X1365Y-17116D01*
X1377Y-17140D01*
X1387Y-17162D01*
X1396Y-17184D01*
X1311Y-17184D01*
X1293Y-17148D01*
X1273Y-17114D01*
X1251Y-17083D01*
X1227Y-17055D01*
X1202Y-17029D01*
X1178Y-17008D01*
X1155Y-16990D01*
X1131Y-16977D01*
X1131Y-16920D01*
X1850Y-16920D01*
X1850Y-16920D01*
X1663Y-16695D02*
X1655Y-16603D01*
X1686Y-16596D01*
X1714Y-16585D01*
X1737Y-16572D01*
X1756Y-16555D01*
X1771Y-16535D01*
X1781Y-16514D01*
X1788Y-16490D01*
X1790Y-16465D01*
X1787Y-16434D01*
X1778Y-16406D01*
X1763Y-16381D01*
X1742Y-16357D01*
X1716Y-16338D01*
X1686Y-16324D01*
X1653Y-16316D01*
X1615Y-16313D01*
X1580Y-16316D01*
X1548Y-16324D01*
X1520Y-16337D01*
X1496Y-16356D01*
X1477Y-16378D01*
X1464Y-16404D01*
X1456Y-16434D01*
X1453Y-16466D01*
X1454Y-16487D01*
X1458Y-16507D01*
X1464Y-16525D01*
X1472Y-16543D01*
X1483Y-16559D01*
X1494Y-16573D01*
X1508Y-16586D01*
X1522Y-16597D01*
X1512Y-16679D01*
X1144Y-16610D01*
X1144Y-16254D01*
X1228Y-16254D01*
X1228Y-16540D01*
X1420Y-16578D01*
X1401Y-16545D01*
X1387Y-16512D01*
X1378Y-16478D01*
X1375Y-16443D01*
X1379Y-16398D01*
X1392Y-16356D01*
X1412Y-16319D01*
X1440Y-16285D01*
X1475Y-16256D01*
X1515Y-16236D01*
X1559Y-16224D01*
X1607Y-16220D01*
X1654Y-16224D01*
X1698Y-16234D01*
X1738Y-16252D01*
X1775Y-16277D01*
X1813Y-16314D01*
X1840Y-16358D01*
X1857Y-16408D01*
X1862Y-16465D01*
X1859Y-16511D01*
X1849Y-16554D01*
X1831Y-16591D01*
X1808Y-16624D01*
X1778Y-16652D01*
X1744Y-16673D01*
X1705Y-16687D01*
X1663Y-16695D01*
X1663Y-16695D01*
G37*
%LNtop silkscreen component be1e30dcb6a4a1c2*%
G36*
X17384Y-13100D02*
X17384Y-12469D01*
X17148Y-12469D01*
X17148Y-12384D01*
X17716Y-12384D01*
X17716Y-12469D01*
X17479Y-12469D01*
X17479Y-13100D01*
X17384Y-13100D01*
X17384Y-13100D01*
X17813Y-13100D02*
X17813Y-12384D01*
X18083Y-12384D01*
X18117Y-12385D01*
X18146Y-12386D01*
X18171Y-12388D01*
X18192Y-12391D01*
X18217Y-12396D01*
X18240Y-12404D01*
X18261Y-12413D01*
X18280Y-12424D01*
X18297Y-12438D01*
X18312Y-12454D01*
X18326Y-12473D01*
X18338Y-12494D01*
X18347Y-12516D01*
X18354Y-12540D01*
X18358Y-12565D01*
X18359Y-12591D01*
X18356Y-12635D01*
X18345Y-12676D01*
X18327Y-12712D01*
X18301Y-12746D01*
X18266Y-12773D01*
X18220Y-12793D01*
X18161Y-12805D01*
X18140Y-12806D01*
X18135Y-12722D01*
X18171Y-12716D01*
X18201Y-12705D01*
X18223Y-12690D01*
X18240Y-12672D01*
X18252Y-12649D01*
X18259Y-12623D01*
X18262Y-12594D01*
X18260Y-12572D01*
X18256Y-12552D01*
X18249Y-12534D01*
X18239Y-12517D01*
X18227Y-12503D01*
X18213Y-12491D01*
X18197Y-12481D01*
X18179Y-12475D01*
X18165Y-12472D01*
X18145Y-12470D01*
X18120Y-12469D01*
X18091Y-12469D01*
X17908Y-12469D01*
X17908Y-12725D01*
X17908Y-12725D01*
X18093Y-12725D01*
X18135Y-12722D01*
X18140Y-12806D01*
X18091Y-12809D01*
X17908Y-12809D01*
X17908Y-13100D01*
X17813Y-13100D01*
X17813Y-13100D01*
X18445Y-12911D02*
X18533Y-12899D01*
X18542Y-12934D01*
X18553Y-12964D01*
X18567Y-12988D01*
X18584Y-13007D01*
X18603Y-13021D01*
X18625Y-13032D01*
X18648Y-13038D01*
X18673Y-13040D01*
X18703Y-13037D01*
X18730Y-13029D01*
X18755Y-13016D01*
X18778Y-12997D01*
X18796Y-12974D01*
X18810Y-12949D01*
X18818Y-12921D01*
X18820Y-12891D01*
X18818Y-12862D01*
X18810Y-12835D01*
X18798Y-12812D01*
X18781Y-12791D01*
X18760Y-12773D01*
X18736Y-12761D01*
X18709Y-12754D01*
X18680Y-12751D01*
X18667Y-12752D01*
X18652Y-12754D01*
X18636Y-12757D01*
X18618Y-12761D01*
X18628Y-12684D01*
X18632Y-12684D01*
X18636Y-12685D01*
X18639Y-12685D01*
X18642Y-12685D01*
X18669Y-12683D01*
X18695Y-12678D01*
X18720Y-12668D01*
X18743Y-12656D01*
X18763Y-12639D01*
X18777Y-12618D01*
X18785Y-12594D01*
X18788Y-12565D01*
X18786Y-12542D01*
X18780Y-12521D01*
X18770Y-12502D01*
X18755Y-12485D01*
X18738Y-12471D01*
X18718Y-12461D01*
X18696Y-12456D01*
X18671Y-12454D01*
X18646Y-12456D01*
X18624Y-12462D01*
X18604Y-12472D01*
X18585Y-12486D01*
X18570Y-12504D01*
X18557Y-12526D01*
X18548Y-12552D01*
X18541Y-12582D01*
X18454Y-12567D01*
X18464Y-12525D01*
X18480Y-12488D01*
X18501Y-12457D01*
X18527Y-12430D01*
X18557Y-12409D01*
X18591Y-12393D01*
X18628Y-12384D01*
X18669Y-12381D01*
X18698Y-12383D01*
X18725Y-12388D01*
X18752Y-12395D01*
X18777Y-12406D01*
X18800Y-12420D01*
X18820Y-12436D01*
X18838Y-12454D01*
X18852Y-12475D01*
X18864Y-12497D01*
X18872Y-12520D01*
X18877Y-12543D01*
X18878Y-12567D01*
X18877Y-12590D01*
X18872Y-12612D01*
X18864Y-12632D01*
X18854Y-12652D01*
X18840Y-12670D01*
X18823Y-12686D01*
X18803Y-12700D01*
X18780Y-12712D01*
X18810Y-12722D01*
X18836Y-12735D01*
X18859Y-12752D01*
X18878Y-12773D01*
X18894Y-12798D01*
X18905Y-12825D01*
X18911Y-12855D01*
X18914Y-12889D01*
X18909Y-12934D01*
X18896Y-12975D01*
X18875Y-13013D01*
X18845Y-13048D01*
X18809Y-13076D01*
X18768Y-13096D01*
X18722Y-13109D01*
X18672Y-13113D01*
X18627Y-13109D01*
X18586Y-13099D01*
X18549Y-13081D01*
X18516Y-13057D01*
X18488Y-13026D01*
X18467Y-12992D01*
X18453Y-12954D01*
X18445Y-12911D01*
X18445Y-12911D01*
G37*
M02*