%FSLAX33Y33*%
%MOMM*%
%AMRect-W670710-H1320710-RO1.500*
21,1,0.67071,1.32071,0.,0.,90*%
%AMRR-H1953199-W753199-R274999-RO1.500*
21,1,0.203201,1.953199,0.,0.,90*
21,1,0.753199,1.403201,0.,0.,90*
1,1,0.549998,-0.7016005,-0.1016005*
1,1,0.549998,-0.7016005,0.1016005*
1,1,0.549998,0.7016005,0.1016005*
1,1,0.549998,0.7016005,-0.1016005*%
%AMRR-H1953199-W753199-R274999-RO0.000*
21,1,0.203201,1.953199,0.,0.,360*
21,1,0.753199,1.403201,0.,0.,360*
1,1,0.549998,-0.1016005,0.7016005*
1,1,0.549998,0.1016005,0.7016005*
1,1,0.549998,0.1016005,-0.7016005*
1,1,0.549998,-0.1016005,-0.7016005*%
%AMRect-W670710-H870710-RO1.000*
21,1,0.67071,0.87071,0.,0.,180*%
%AMRect-W1550000-H1550000-RO0.500*
21,1,1.55,1.55,0.,0.,270*%
%AMRect-W670710-H1320710-RO0.500*
21,1,0.67071,1.32071,0.,0.,270*%
%AMRect-W1570000-H1570000-RO1.000*
21,1,1.57,1.57,0.,0.,180*%
%AMRect-W670710-H870710-RO1.500*
21,1,0.67071,0.87071,0.,0.,90*%
%AMRect-W670710-H870710-RO0.500*
21,1,0.67071,0.87071,0.,0.,270*%
%ADD10C,1.0668*%
%ADD11R,0.67071X0.87071*%
%ADD12C,2.*%
%ADD13Rect-W670710-H1320710-RO1.500*%
%ADD14RR-H1953199-W753199-R274999-RO1.500*%
%ADD15RR-H1953199-W753199-R274999-RO0.000*%
%ADD16R,1.55X1.55*%
%ADD17C,1.55*%
%ADD18C,3.*%
%ADD19Rect-W670710-H870710-RO1.000*%
%ADD20C,1.55*%
%ADD21Rect-W1550000-H1550000-RO0.500*%
%ADD22Rect-W670710-H1320710-RO0.500*%
%ADD23C,1.57*%
%ADD24Rect-W1570000-H1570000-RO1.000*%
%ADD25Rect-W670710-H870710-RO1.500*%
%ADD26Rect-W670710-H870710-RO0.500*%
D10*
%LNtop solder mask_traces*%
G01*
X0Y15425D03*
X2540Y11075D03*
X11635Y-13715D03*
X14700Y0D03*
X11635Y0125D03*
X10375Y-11625D03*
X-9825Y0D03*
X14050Y5550D03*
X-2925Y-14525D03*
X2900Y-14975D03*
X15950Y10300D03*
X0Y-13700D03*
X0125Y11875D03*
X13325Y0D03*
X0Y14150D03*
X6900Y0925D03*
X0Y-15000D03*
X-8250Y0D03*
X1200Y0125D03*
X-11100Y0D03*
%LNtop solder mask component 70b09bb2818ad89b*%
D11*
X8560Y10950D03*
X10260Y10950D03*
%LNtop solder mask component 758c28ff392b9352*%
D12*
X13450Y-11200D03*
%LNtop solder mask component 34026410a5ddb421*%
X15875Y-11200D03*
%LNtop solder mask component acdc2106e7d7a5b5*%
D13*
X14050Y2540D03*
X14050Y4640D03*
%LNtop solder mask component bbcc82406b5c7a3e*%
D14*
X-1323Y4227D03*
X-1323Y3427D03*
X-1323Y2627D03*
X-1323Y1827D03*
X-1323Y1027D03*
X-1323Y0227D03*
X-1323Y-0573D03*
X-1323Y-1373D03*
X-1323Y-2173D03*
X-1323Y-2973D03*
X-1323Y-3773D03*
D15*
X0327Y-5627D03*
X1127Y-5627D03*
X1927Y-5627D03*
X2727Y-5627D03*
X3527Y-5627D03*
X4327Y-5627D03*
X5127Y-5627D03*
X5927Y-5627D03*
X6727Y-5627D03*
X7527Y-5627D03*
X8327Y-5627D03*
D14*
X9977Y-3773D03*
X9977Y-2973D03*
X9977Y-2173D03*
X9977Y-1373D03*
X9977Y-0573D03*
X9977Y0227D03*
X9977Y1027D03*
X9977Y1827D03*
X9977Y2627D03*
X9977Y3427D03*
X9977Y4227D03*
D15*
X8327Y5673D03*
X7527Y5673D03*
X6727Y5673D03*
X5927Y5673D03*
X5127Y5673D03*
X4327Y5673D03*
X3527Y5673D03*
X2727Y5673D03*
X1927Y5673D03*
X1127Y5673D03*
X0327Y5673D03*
%LNtop solder mask component 15549c4d6476ebc2*%
D16*
X-7620Y-20500D03*
D17*
X-5080Y-20500D03*
X-2540Y-20500D03*
X0Y-20500D03*
X2540Y-20500D03*
X5080Y-20500D03*
X7620Y-20500D03*
%LNtop solder mask component 9a7af9ef625a31f3*%
D18*
X-17000Y17000D03*
%LNtop solder mask component bba7707cb7d91c3d*%
D12*
X20725Y-11200D03*
%LNtop solder mask component fb79a13baf4f1f43*%
D19*
X-14550Y2540D03*
X-16250Y2540D03*
%LNtop solder mask component 4de30cd1dcff1dec*%
D20*
X-7130Y14795D03*
X-9670Y12255D03*
X-7130Y12255D03*
X-9670Y9715D03*
X-7130Y9715D03*
X-9670Y7175D03*
X-7130Y7175D03*
D21*
X-9670Y14795D03*
%LNtop solder mask component 582b67b412e03a97*%
D22*
X2540Y14625D03*
X2540Y12525D03*
%LNtop solder mask component 899d837000a321f6*%
D19*
X-14550Y0D03*
X-16250Y0D03*
%LNtop solder mask component 4a537383a56f4947*%
D11*
X15625Y-2540D03*
X17325Y-2540D03*
%LNtop solder mask component 78e04b5164b9cf10*%
D19*
X-14550Y-2540D03*
X-16250Y-2540D03*
%LNtop solder mask component 5d7ae0faac189a2e*%
D20*
X-20500Y5080D03*
X-20500Y2540D03*
X-20500Y0D03*
X-20500Y-2540D03*
X-20500Y-5080D03*
X-20500Y-7620D03*
D21*
X-20500Y7620D03*
%LNtop solder mask component 4730e282d6bc8203*%
D18*
X17000Y-17000D03*
%LNtop solder mask component 5e86fa16ded1a20c*%
D11*
X15625Y2540D03*
X17325Y2540D03*
%LNtop solder mask component 777d56a3b3942ac7*%
X4780Y-13700D03*
X6480Y-13700D03*
%LNtop solder mask component 05bb4b2115a262c6*%
D13*
X10375Y-14975D03*
X10375Y-12875D03*
%LNtop solder mask component bc2a92881df52052*%
D19*
X13800Y10950D03*
X12100Y10950D03*
%LNtop solder mask component 0a1210c7d4f9c7f0*%
D23*
X3940Y-11350D03*
X1400Y-11350D03*
X-1140Y-11350D03*
X-3680Y-11350D03*
D24*
X6480Y-11350D03*
%LNtop solder mask component fe63241f9b3ec648*%
D18*
X-17000Y-17000D03*
%LNtop solder mask component 4c6406aa2c717d39*%
X17000Y17000D03*
%LNtop solder mask component 919d1acac43f7cf5*%
D22*
X-12715Y2300D03*
X-12715Y0200D03*
%LNtop solder mask component c1e2ca1b4103e897*%
D25*
X0Y16475D03*
X0Y18175D03*
%LNtop solder mask component 557e759dcb5dd2a6*%
X2540Y16475D03*
X2540Y18175D03*
%LNtop solder mask component 55f65207dfb3c681*%
D26*
X-2540Y-16275D03*
X-2540Y-17975D03*
%LNtop solder mask component a355959bcd360295*%
D20*
X20500Y5080D03*
X20500Y2540D03*
X20500Y0D03*
X20500Y-2540D03*
X20500Y-5080D03*
X20500Y-7620D03*
D21*
X20500Y7620D03*
%LNtop solder mask component 3a3a2cfcd27fe13b*%
D11*
X15625Y0D03*
X17325Y0D03*
%LNtop solder mask component dccc935fa88e421f*%
D25*
X-2540Y16475D03*
X-2540Y18175D03*
%LNtop solder mask component c6258b4cfab3766d*%
D16*
X-7620Y20500D03*
D17*
X-5080Y20500D03*
X-2540Y20500D03*
X0Y20500D03*
X2540Y20500D03*
X5080Y20500D03*
X7620Y20500D03*
%LNtop solder mask component 6f96558951de62c9*%
D11*
X8560Y9400D03*
X10260Y9400D03*
%LNtop solder mask component fbd389026ec22525*%
D26*
X0Y-16275D03*
X0Y-17975D03*
%LNtop solder mask component 88a4d5fcc0e14ff3*%
D19*
X13800Y9400D03*
X12100Y9400D03*
%LNtop solder mask component 474d5e9ebbd1a6df*%
D26*
X2540Y-16275D03*
X2540Y-17975D03*
%LNtop solder mask component be1e30dcb6a4a1c2*%
D12*
X18300Y-11200D03*
M02*