%FSLAX33Y33*%
%MOMM*%
%LNbottom silkscreen_traces*%
%LNtext*%
G36*
G01*
X-9212Y-6417D02*
X-9320Y-6402D01*
X-9324Y-6450D01*
X-9332Y-6490D01*
X-9344Y-6521D01*
X-9359Y-6545D01*
X-9378Y-6562D01*
X-9401Y-6574D01*
X-9426Y-6581D01*
X-9455Y-6583D01*
X-9477Y-6582D01*
X-9497Y-6578D01*
X-9516Y-6572D01*
X-9533Y-6562D01*
X-9549Y-6551D01*
X-9561Y-6538D01*
X-9571Y-6523D01*
X-9579Y-6506D01*
X-9584Y-6486D01*
X-9588Y-6460D01*
X-9590Y-6429D01*
X-9591Y-6392D01*
X-9591Y-5766D01*
X-9711Y-5766D01*
X-9711Y-6385D01*
X-9710Y-6439D01*
X-9705Y-6487D01*
X-9696Y-6528D01*
X-9684Y-6562D01*
X-9668Y-6592D01*
X-9648Y-6617D01*
X-9624Y-6639D01*
X-9596Y-6658D01*
X-9565Y-6672D01*
X-9531Y-6682D01*
X-9495Y-6688D01*
X-9456Y-6691D01*
X-9400Y-6686D01*
X-9350Y-6673D01*
X-9308Y-6652D01*
X-9273Y-6622D01*
X-9245Y-6583D01*
X-9226Y-6536D01*
X-9214Y-6481D01*
X-9212Y-6417D01*
X-9212Y-6417D01*
X-10323Y-6594D02*
X-10293Y-6618D01*
X-10288Y-6621D01*
X-10246Y-6559D01*
X-10266Y-6541D01*
X-10283Y-6520D01*
X-10296Y-6497D01*
X-10304Y-6476D01*
X-10310Y-6450D01*
X-10313Y-6420D01*
X-10314Y-6385D01*
X-10314Y-6344D01*
X-10314Y-6344D01*
X-10280Y-6356D01*
X-10238Y-6367D01*
X-10189Y-6377D01*
X-10132Y-6387D01*
X-10100Y-6392D01*
X-10073Y-6397D01*
X-10051Y-6403D01*
X-10035Y-6409D01*
X-10021Y-6416D01*
X-10009Y-6424D01*
X-9999Y-6434D01*
X-9990Y-6445D01*
X-9984Y-6458D01*
X-9979Y-6470D01*
X-9976Y-6484D01*
X-9975Y-6498D01*
X-9977Y-6520D01*
X-9983Y-6539D01*
X-9994Y-6557D01*
X-10009Y-6573D01*
X-10028Y-6586D01*
X-10050Y-6595D01*
X-10077Y-6601D01*
X-10108Y-6602D01*
X-10139Y-6601D01*
X-10169Y-6595D01*
X-10196Y-6587D01*
X-10222Y-6574D01*
X-10246Y-6559D01*
X-10288Y-6621D01*
X-10263Y-6639D01*
X-10233Y-6655D01*
X-10204Y-6668D01*
X-10175Y-6678D01*
X-10145Y-6684D01*
X-10113Y-6689D01*
X-10081Y-6690D01*
X-10030Y-6687D01*
X-9985Y-6677D01*
X-9947Y-6660D01*
X-9914Y-6637D01*
X-9889Y-6609D01*
X-9871Y-6576D01*
X-9860Y-6541D01*
X-9856Y-6501D01*
X-9857Y-6478D01*
X-9861Y-6455D01*
X-9868Y-6434D01*
X-9878Y-6413D01*
X-9890Y-6394D01*
X-9903Y-6377D01*
X-9919Y-6362D01*
X-9936Y-6349D01*
X-9954Y-6337D01*
X-9974Y-6328D01*
X-9994Y-6319D01*
X-10016Y-6312D01*
X-10034Y-6308D01*
X-10057Y-6304D01*
X-10084Y-6300D01*
X-10115Y-6295D01*
X-10178Y-6287D01*
X-10232Y-6278D01*
X-10278Y-6268D01*
X-10314Y-6257D01*
X-10314Y-6247D01*
X-10315Y-6238D01*
X-10315Y-6232D01*
X-10315Y-6228D01*
X-10313Y-6196D01*
X-10307Y-6170D01*
X-10297Y-6148D01*
X-10283Y-6132D01*
X-10259Y-6115D01*
X-10230Y-6103D01*
X-10196Y-6096D01*
X-10156Y-6094D01*
X-10119Y-6096D01*
X-10088Y-6101D01*
X-10061Y-6109D01*
X-10040Y-6122D01*
X-10022Y-6138D01*
X-10007Y-6160D01*
X-9995Y-6187D01*
X-9984Y-6219D01*
X-9875Y-6204D01*
X-9884Y-6171D01*
X-9895Y-6141D01*
X-9908Y-6114D01*
X-9924Y-6091D01*
X-9943Y-6071D01*
X-9966Y-6053D01*
X-9992Y-6038D01*
X-10023Y-6025D01*
X-10056Y-6015D01*
X-10092Y-6007D01*
X-10131Y-6003D01*
X-10172Y-6002D01*
X-10212Y-6003D01*
X-10249Y-6007D01*
X-10281Y-6013D01*
X-10309Y-6021D01*
X-10334Y-6032D01*
X-10355Y-6044D01*
X-10373Y-6057D01*
X-10387Y-6071D01*
X-10398Y-6087D01*
X-10408Y-6105D01*
X-10416Y-6125D01*
X-10421Y-6147D01*
X-10424Y-6164D01*
X-10426Y-6187D01*
X-10427Y-6216D01*
X-10427Y-6250D01*
X-10427Y-6399D01*
X-10428Y-6470D01*
X-10429Y-6526D01*
X-10431Y-6568D01*
X-10434Y-6596D01*
X-10439Y-6616D01*
X-10445Y-6636D01*
X-10453Y-6656D01*
X-10462Y-6675D01*
X-10346Y-6675D01*
X-10338Y-6657D01*
X-10332Y-6637D01*
X-10327Y-6616D01*
X-10323Y-6594D01*
X-10323Y-6594D01*
X-10599Y-6675D02*
X-10599Y-6016D01*
X-10699Y-6016D01*
X-10699Y-6116D01*
X-10718Y-6084D01*
X-10736Y-6058D01*
X-10754Y-6038D01*
X-10770Y-6024D01*
X-10787Y-6014D01*
X-10804Y-6007D01*
X-10823Y-6003D01*
X-10842Y-6002D01*
X-10870Y-6004D01*
X-10899Y-6011D01*
X-10928Y-6022D01*
X-10957Y-6038D01*
X-10918Y-6141D01*
X-10898Y-6130D01*
X-10877Y-6123D01*
X-10857Y-6118D01*
X-10836Y-6117D01*
X-10819Y-6118D01*
X-10802Y-6122D01*
X-10786Y-6129D01*
X-10771Y-6139D01*
X-10757Y-6151D01*
X-10746Y-6165D01*
X-10736Y-6182D01*
X-10729Y-6200D01*
X-10721Y-6230D01*
X-10715Y-6262D01*
X-10712Y-6296D01*
X-10710Y-6330D01*
X-10710Y-6675D01*
X-10599Y-6675D01*
X-10599Y-6675D01*
X-11022Y-6675D02*
X-11022Y-6016D01*
X-11122Y-6016D01*
X-11122Y-6116D01*
X-11141Y-6084D01*
X-11159Y-6058D01*
X-11177Y-6038D01*
X-11193Y-6024D01*
X-11210Y-6014D01*
X-11227Y-6007D01*
X-11246Y-6003D01*
X-11265Y-6002D01*
X-11293Y-6004D01*
X-11322Y-6011D01*
X-11351Y-6022D01*
X-11380Y-6038D01*
X-11341Y-6141D01*
X-11321Y-6130D01*
X-11300Y-6123D01*
X-11280Y-6118D01*
X-11259Y-6117D01*
X-11241Y-6118D01*
X-11225Y-6122D01*
X-11209Y-6129D01*
X-11194Y-6139D01*
X-11180Y-6151D01*
X-11169Y-6165D01*
X-11159Y-6182D01*
X-11152Y-6200D01*
X-11144Y-6230D01*
X-11138Y-6262D01*
X-11135Y-6296D01*
X-11133Y-6330D01*
X-11133Y-6675D01*
X-11022Y-6675D01*
X-11022Y-6675D01*
X-11897Y-6463D02*
X-12012Y-6477D01*
X-11995Y-6525D01*
X-11973Y-6567D01*
X-11945Y-6603D01*
X-11911Y-6634D01*
X-11872Y-6658D01*
X-11827Y-6676D01*
X-11777Y-6686D01*
X-11722Y-6690D01*
X-11654Y-6684D01*
X-11593Y-6668D01*
X-11539Y-6640D01*
X-11493Y-6601D01*
X-11456Y-6552D01*
X-11430Y-6494D01*
X-11414Y-6427D01*
X-11409Y-6351D01*
X-11414Y-6273D01*
X-11430Y-6204D01*
X-11457Y-6144D01*
X-11494Y-6093D01*
X-11540Y-6053D01*
X-11593Y-6024D01*
X-11651Y-6007D01*
X-11716Y-6002D01*
X-11726Y-6002D01*
X-11717Y-6093D01*
X-11681Y-6097D01*
X-11647Y-6106D01*
X-11616Y-6122D01*
X-11588Y-6145D01*
X-11565Y-6173D01*
X-11547Y-6205D01*
X-11536Y-6242D01*
X-11530Y-6282D01*
X-11530Y-6282D01*
X-11898Y-6282D01*
X-11893Y-6244D01*
X-11884Y-6210D01*
X-11871Y-6181D01*
X-11856Y-6158D01*
X-11827Y-6130D01*
X-11795Y-6109D01*
X-11758Y-6097D01*
X-11717Y-6093D01*
X-11726Y-6002D01*
X-11779Y-6007D01*
X-11836Y-6024D01*
X-11887Y-6052D01*
X-11932Y-6091D01*
X-11969Y-6141D01*
X-11995Y-6200D01*
X-12011Y-6268D01*
X-12016Y-6344D01*
X-12016Y-6350D01*
X-12016Y-6357D01*
X-12015Y-6365D01*
X-12015Y-6374D01*
X-11524Y-6374D01*
X-11530Y-6425D01*
X-11542Y-6470D01*
X-11561Y-6508D01*
X-11585Y-6540D01*
X-11615Y-6566D01*
X-11647Y-6584D01*
X-11684Y-6595D01*
X-11723Y-6598D01*
X-11753Y-6596D01*
X-11780Y-6590D01*
X-11805Y-6580D01*
X-11828Y-6566D01*
X-11848Y-6547D01*
X-11867Y-6524D01*
X-11883Y-6496D01*
X-11897Y-6463D01*
X-11897Y-6463D01*
X-12396Y-6575D02*
X-12412Y-6674D01*
X-12389Y-6678D01*
X-12367Y-6681D01*
X-12347Y-6683D01*
X-12328Y-6684D01*
X-12299Y-6682D01*
X-12274Y-6679D01*
X-12252Y-6673D01*
X-12233Y-6664D01*
X-12218Y-6654D01*
X-12205Y-6642D01*
X-12194Y-6629D01*
X-12186Y-6614D01*
X-12180Y-6594D01*
X-12176Y-6565D01*
X-12174Y-6528D01*
X-12173Y-6482D01*
X-12173Y-6103D01*
X-12091Y-6103D01*
X-12091Y-6016D01*
X-12173Y-6016D01*
X-12173Y-5853D01*
X-12284Y-5786D01*
X-12284Y-6016D01*
X-12396Y-6016D01*
X-12396Y-6103D01*
X-12284Y-6103D01*
X-12284Y-6488D01*
X-12284Y-6510D01*
X-12285Y-6528D01*
X-12287Y-6541D01*
X-12290Y-6550D01*
X-12293Y-6556D01*
X-12297Y-6562D01*
X-12303Y-6567D01*
X-12309Y-6571D01*
X-12316Y-6575D01*
X-12325Y-6577D01*
X-12335Y-6579D01*
X-12347Y-6580D01*
X-12357Y-6579D01*
X-12368Y-6578D01*
X-12381Y-6577D01*
X-12396Y-6575D01*
X-12396Y-6575D01*
X-12749Y-6575D02*
X-12765Y-6674D01*
X-12742Y-6678D01*
X-12720Y-6681D01*
X-12700Y-6683D01*
X-12681Y-6684D01*
X-12652Y-6682D01*
X-12627Y-6679D01*
X-12605Y-6673D01*
X-12586Y-6664D01*
X-12571Y-6654D01*
X-12558Y-6642D01*
X-12547Y-6629D01*
X-12539Y-6614D01*
X-12533Y-6594D01*
X-12529Y-6565D01*
X-12526Y-6528D01*
X-12525Y-6482D01*
X-12525Y-6103D01*
X-12444Y-6103D01*
X-12444Y-6016D01*
X-12525Y-6016D01*
X-12525Y-5853D01*
X-12637Y-5786D01*
X-12637Y-6016D01*
X-12749Y-6016D01*
X-12749Y-6103D01*
X-12637Y-6103D01*
X-12637Y-6488D01*
X-12637Y-6510D01*
X-12638Y-6528D01*
X-12640Y-6541D01*
X-12642Y-6550D01*
X-12646Y-6556D01*
X-12650Y-6562D01*
X-12655Y-6567D01*
X-12662Y-6571D01*
X-12669Y-6575D01*
X-12678Y-6577D01*
X-12688Y-6579D01*
X-12700Y-6580D01*
X-12710Y-6579D01*
X-12721Y-6578D01*
X-12734Y-6577D01*
X-12749Y-6575D01*
X-12749Y-6575D01*
X-13227Y-6675D02*
X-13227Y-5766D01*
X-13630Y-5766D01*
X-13687Y-5767D01*
X-13737Y-5772D01*
X-13779Y-5780D01*
X-13815Y-5790D01*
X-13845Y-5805D01*
X-13872Y-5824D01*
X-13895Y-5848D01*
X-13916Y-5877D01*
X-13932Y-5909D01*
X-13944Y-5942D01*
X-13951Y-5977D01*
X-13954Y-6014D01*
X-13950Y-6060D01*
X-13938Y-6103D01*
X-13918Y-6142D01*
X-13891Y-6177D01*
X-13855Y-6207D01*
X-13811Y-6231D01*
X-13759Y-6249D01*
X-13728Y-6255D01*
X-13709Y-6158D01*
X-13735Y-6150D01*
X-13757Y-6140D01*
X-13776Y-6128D01*
X-13792Y-6113D01*
X-13805Y-6096D01*
X-13816Y-6076D01*
X-13824Y-6056D01*
X-13828Y-6036D01*
X-13830Y-6014D01*
X-13827Y-5983D01*
X-13818Y-5955D01*
X-13803Y-5930D01*
X-13783Y-5908D01*
X-13756Y-5890D01*
X-13722Y-5877D01*
X-13682Y-5869D01*
X-13635Y-5866D01*
X-13347Y-5866D01*
X-13347Y-6167D01*
X-13347Y-6167D01*
X-13606Y-6167D01*
X-13645Y-6166D01*
X-13679Y-6163D01*
X-13709Y-6158D01*
X-13728Y-6255D01*
X-13698Y-6261D01*
X-13720Y-6273D01*
X-13740Y-6284D01*
X-13756Y-6295D01*
X-13770Y-6307D01*
X-13796Y-6332D01*
X-13821Y-6361D01*
X-13846Y-6393D01*
X-13870Y-6428D01*
X-14028Y-6675D01*
X-13877Y-6675D01*
X-13756Y-6486D01*
X-13731Y-6447D01*
X-13708Y-6414D01*
X-13688Y-6385D01*
X-13670Y-6361D01*
X-13653Y-6341D01*
X-13637Y-6324D01*
X-13622Y-6310D01*
X-13609Y-6300D01*
X-13595Y-6292D01*
X-13581Y-6285D01*
X-13568Y-6280D01*
X-13554Y-6276D01*
X-13542Y-6274D01*
X-13527Y-6272D01*
X-13508Y-6272D01*
X-13487Y-6271D01*
X-13347Y-6271D01*
X-13347Y-6675D01*
X-13227Y-6675D01*
X-13227Y-6675D01*
X-14558Y-6594D02*
X-14527Y-6618D01*
X-14522Y-6621D01*
X-14480Y-6559D01*
X-14500Y-6541D01*
X-14517Y-6520D01*
X-14530Y-6497D01*
X-14538Y-6476D01*
X-14544Y-6450D01*
X-14547Y-6420D01*
X-14548Y-6385D01*
X-14548Y-6344D01*
X-14548Y-6344D01*
X-14514Y-6356D01*
X-14472Y-6367D01*
X-14423Y-6377D01*
X-14366Y-6387D01*
X-14334Y-6392D01*
X-14307Y-6397D01*
X-14285Y-6403D01*
X-14269Y-6409D01*
X-14255Y-6416D01*
X-14243Y-6424D01*
X-14233Y-6434D01*
X-14225Y-6445D01*
X-14218Y-6458D01*
X-14213Y-6470D01*
X-14210Y-6484D01*
X-14209Y-6498D01*
X-14211Y-6520D01*
X-14218Y-6539D01*
X-14228Y-6557D01*
X-14243Y-6573D01*
X-14262Y-6586D01*
X-14285Y-6595D01*
X-14311Y-6601D01*
X-14342Y-6602D01*
X-14373Y-6601D01*
X-14403Y-6595D01*
X-14431Y-6587D01*
X-14457Y-6574D01*
X-14480Y-6559D01*
X-14522Y-6621D01*
X-14497Y-6639D01*
X-14467Y-6655D01*
X-14438Y-6668D01*
X-14409Y-6678D01*
X-14379Y-6684D01*
X-14347Y-6689D01*
X-14315Y-6690D01*
X-14264Y-6687D01*
X-14219Y-6677D01*
X-14181Y-6660D01*
X-14148Y-6637D01*
X-14123Y-6609D01*
X-14105Y-6576D01*
X-14094Y-6541D01*
X-14090Y-6501D01*
X-14091Y-6478D01*
X-14096Y-6455D01*
X-14102Y-6434D01*
X-14112Y-6413D01*
X-14124Y-6394D01*
X-14137Y-6377D01*
X-14153Y-6362D01*
X-14170Y-6349D01*
X-14188Y-6337D01*
X-14208Y-6328D01*
X-14228Y-6319D01*
X-14250Y-6312D01*
X-14269Y-6308D01*
X-14291Y-6304D01*
X-14318Y-6300D01*
X-14349Y-6295D01*
X-14412Y-6287D01*
X-14467Y-6278D01*
X-14512Y-6268D01*
X-14548Y-6257D01*
X-14549Y-6247D01*
X-14549Y-6238D01*
X-14549Y-6232D01*
X-14549Y-6228D01*
X-14547Y-6196D01*
X-14541Y-6170D01*
X-14531Y-6148D01*
X-14517Y-6132D01*
X-14493Y-6115D01*
X-14464Y-6103D01*
X-14430Y-6096D01*
X-14390Y-6094D01*
X-14353Y-6096D01*
X-14322Y-6101D01*
X-14295Y-6109D01*
X-14274Y-6122D01*
X-14256Y-6138D01*
X-14241Y-6160D01*
X-14229Y-6187D01*
X-14218Y-6219D01*
X-14109Y-6204D01*
X-14118Y-6171D01*
X-14129Y-6141D01*
X-14142Y-6114D01*
X-14158Y-6091D01*
X-14177Y-6071D01*
X-14200Y-6053D01*
X-14227Y-6038D01*
X-14257Y-6025D01*
X-14290Y-6015D01*
X-14326Y-6007D01*
X-14365Y-6003D01*
X-14406Y-6002D01*
X-14446Y-6003D01*
X-14483Y-6007D01*
X-14515Y-6013D01*
X-14543Y-6021D01*
X-14568Y-6032D01*
X-14589Y-6044D01*
X-14607Y-6057D01*
X-14621Y-6071D01*
X-14632Y-6087D01*
X-14642Y-6105D01*
X-14650Y-6125D01*
X-14656Y-6147D01*
X-14658Y-6164D01*
X-14660Y-6187D01*
X-14661Y-6216D01*
X-14661Y-6250D01*
X-14661Y-6399D01*
X-14662Y-6470D01*
X-14663Y-6526D01*
X-14665Y-6568D01*
X-14668Y-6596D01*
X-14673Y-6616D01*
X-14679Y-6636D01*
X-14687Y-6656D01*
X-14697Y-6675D01*
X-14580Y-6675D01*
X-14572Y-6657D01*
X-14566Y-6637D01*
X-14561Y-6616D01*
X-14558Y-6594D01*
X-14558Y-6594D01*
X-14835Y-6675D02*
X-14835Y-6016D01*
X-14946Y-6016D01*
X-14946Y-6675D01*
X-14835Y-6675D01*
X-14835Y-6675D01*
X-14835Y-5894D02*
X-14835Y-5766D01*
X-14946Y-5766D01*
X-14946Y-5894D01*
X-14835Y-5894D01*
X-14835Y-5894D01*
X-15116Y-6675D02*
X-15116Y-6016D01*
X-15217Y-6016D01*
X-15217Y-6110D01*
X-15257Y-6063D01*
X-15305Y-6029D01*
X-15362Y-6008D01*
X-15426Y-6002D01*
X-15456Y-6003D01*
X-15484Y-6007D01*
X-15510Y-6014D01*
X-15536Y-6023D01*
X-15559Y-6034D01*
X-15579Y-6048D01*
X-15597Y-6063D01*
X-15611Y-6079D01*
X-15622Y-6097D01*
X-15632Y-6117D01*
X-15639Y-6138D01*
X-15645Y-6162D01*
X-15648Y-6180D01*
X-15650Y-6204D01*
X-15651Y-6234D01*
X-15651Y-6270D01*
X-15651Y-6675D01*
X-15540Y-6675D01*
X-15540Y-6274D01*
X-15539Y-6242D01*
X-15537Y-6215D01*
X-15533Y-6191D01*
X-15527Y-6172D01*
X-15519Y-6156D01*
X-15509Y-6142D01*
X-15496Y-6129D01*
X-15481Y-6118D01*
X-15463Y-6110D01*
X-15445Y-6103D01*
X-15424Y-6100D01*
X-15403Y-6098D01*
X-15368Y-6101D01*
X-15336Y-6110D01*
X-15307Y-6124D01*
X-15280Y-6144D01*
X-15257Y-6171D01*
X-15241Y-6209D01*
X-15231Y-6257D01*
X-15228Y-6315D01*
X-15228Y-6675D01*
X-15116Y-6675D01*
X-15116Y-6675D01*
X-15823Y-6675D02*
X-15823Y-6016D01*
X-15935Y-6016D01*
X-15935Y-6675D01*
X-15823Y-6675D01*
X-15823Y-6675D01*
X-15823Y-5894D02*
X-15823Y-5766D01*
X-15935Y-5766D01*
X-15935Y-5894D01*
X-15823Y-5894D01*
X-15823Y-5894D01*
X-16556Y-6463D02*
X-16671Y-6477D01*
X-16654Y-6525D01*
X-16632Y-6567D01*
X-16604Y-6603D01*
X-16570Y-6634D01*
X-16530Y-6658D01*
X-16486Y-6676D01*
X-16436Y-6686D01*
X-16381Y-6690D01*
X-16313Y-6684D01*
X-16252Y-6668D01*
X-16198Y-6640D01*
X-16152Y-6601D01*
X-16115Y-6552D01*
X-16089Y-6494D01*
X-16073Y-6427D01*
X-16068Y-6351D01*
X-16073Y-6273D01*
X-16089Y-6204D01*
X-16116Y-6144D01*
X-16153Y-6093D01*
X-16199Y-6053D01*
X-16251Y-6024D01*
X-16310Y-6007D01*
X-16375Y-6002D01*
X-16384Y-6002D01*
X-16376Y-6093D01*
X-16339Y-6097D01*
X-16306Y-6106D01*
X-16275Y-6122D01*
X-16247Y-6145D01*
X-16224Y-6173D01*
X-16206Y-6205D01*
X-16195Y-6242D01*
X-16189Y-6282D01*
X-16189Y-6282D01*
X-16557Y-6282D01*
X-16551Y-6244D01*
X-16543Y-6210D01*
X-16530Y-6181D01*
X-16515Y-6158D01*
X-16486Y-6130D01*
X-16453Y-6109D01*
X-16417Y-6097D01*
X-16376Y-6093D01*
X-16384Y-6002D01*
X-16438Y-6007D01*
X-16495Y-6024D01*
X-16546Y-6052D01*
X-16591Y-6091D01*
X-16628Y-6141D01*
X-16654Y-6200D01*
X-16669Y-6268D01*
X-16675Y-6344D01*
X-16675Y-6350D01*
X-16674Y-6357D01*
X-16674Y-6365D01*
X-16674Y-6374D01*
X-16183Y-6374D01*
X-16189Y-6425D01*
X-16201Y-6470D01*
X-16220Y-6508D01*
X-16244Y-6540D01*
X-16274Y-6566D01*
X-16306Y-6584D01*
X-16342Y-6595D01*
X-16382Y-6598D01*
X-16412Y-6596D01*
X-16439Y-6590D01*
X-16464Y-6580D01*
X-16487Y-6566D01*
X-16507Y-6547D01*
X-16526Y-6524D01*
X-16542Y-6496D01*
X-16556Y-6463D01*
X-16556Y-6463D01*
X-16810Y-6675D02*
X-16810Y-6016D01*
X-16910Y-6016D01*
X-16910Y-6116D01*
X-16929Y-6084D01*
X-16947Y-6058D01*
X-16965Y-6038D01*
X-16981Y-6024D01*
X-16998Y-6014D01*
X-17015Y-6007D01*
X-17034Y-6003D01*
X-17053Y-6002D01*
X-17081Y-6004D01*
X-17110Y-6011D01*
X-17139Y-6022D01*
X-17168Y-6038D01*
X-17129Y-6141D01*
X-17109Y-6130D01*
X-17088Y-6123D01*
X-17068Y-6118D01*
X-17047Y-6117D01*
X-17030Y-6118D01*
X-17013Y-6122D01*
X-16997Y-6129D01*
X-16982Y-6139D01*
X-16968Y-6151D01*
X-16957Y-6165D01*
X-16947Y-6182D01*
X-16940Y-6200D01*
X-16932Y-6230D01*
X-16926Y-6262D01*
X-16923Y-6296D01*
X-16921Y-6330D01*
X-16921Y-6675D01*
X-16810Y-6675D01*
X-16810Y-6675D01*
X-9210Y-9223D02*
X-9210Y-8314D01*
X-9613Y-8314D01*
X-9670Y-8316D01*
X-9720Y-8320D01*
X-9762Y-8328D01*
X-9798Y-8339D01*
X-9828Y-8353D01*
X-9855Y-8373D01*
X-9878Y-8397D01*
X-9899Y-8425D01*
X-9915Y-8457D01*
X-9927Y-8491D01*
X-9934Y-8526D01*
X-9937Y-8562D01*
X-9933Y-8609D01*
X-9921Y-8651D01*
X-9901Y-8690D01*
X-9874Y-8725D01*
X-9838Y-8756D01*
X-9794Y-8780D01*
X-9742Y-8798D01*
X-9711Y-8804D01*
X-9692Y-8706D01*
X-9718Y-8698D01*
X-9740Y-8689D01*
X-9759Y-8676D01*
X-9775Y-8661D01*
X-9788Y-8644D01*
X-9799Y-8625D01*
X-9807Y-8605D01*
X-9811Y-8584D01*
X-9813Y-8562D01*
X-9810Y-8531D01*
X-9801Y-8504D01*
X-9786Y-8478D01*
X-9766Y-8456D01*
X-9739Y-8438D01*
X-9705Y-8425D01*
X-9665Y-8417D01*
X-9618Y-8415D01*
X-9330Y-8415D01*
X-9330Y-8715D01*
X-9330Y-8715D01*
X-9589Y-8715D01*
X-9628Y-8714D01*
X-9662Y-8711D01*
X-9692Y-8706D01*
X-9711Y-8804D01*
X-9681Y-8810D01*
X-9703Y-8821D01*
X-9723Y-8833D01*
X-9739Y-8844D01*
X-9753Y-8855D01*
X-9779Y-8881D01*
X-9804Y-8909D01*
X-9829Y-8941D01*
X-9853Y-8976D01*
X-10011Y-9223D01*
X-9860Y-9223D01*
X-9739Y-9034D01*
X-9714Y-8996D01*
X-9691Y-8962D01*
X-9671Y-8933D01*
X-9653Y-8909D01*
X-9636Y-8889D01*
X-9620Y-8872D01*
X-9605Y-8858D01*
X-9592Y-8848D01*
X-9578Y-8840D01*
X-9564Y-8833D01*
X-9551Y-8828D01*
X-9537Y-8824D01*
X-9525Y-8822D01*
X-9510Y-8821D01*
X-9491Y-8820D01*
X-9470Y-8820D01*
X-9330Y-8820D01*
X-9330Y-9223D01*
X-9210Y-9223D01*
X-9210Y-9223D01*
X-10562Y-9011D02*
X-10677Y-9026D01*
X-10660Y-9073D01*
X-10638Y-9115D01*
X-10610Y-9152D01*
X-10576Y-9182D01*
X-10537Y-9207D01*
X-10492Y-9224D01*
X-10442Y-9235D01*
X-10387Y-9238D01*
X-10319Y-9233D01*
X-10258Y-9216D01*
X-10204Y-9188D01*
X-10158Y-9149D01*
X-10121Y-9100D01*
X-10095Y-9042D01*
X-10079Y-8975D01*
X-10074Y-8900D01*
X-10079Y-8821D01*
X-10095Y-8752D01*
X-10122Y-8692D01*
X-10159Y-8642D01*
X-10205Y-8602D01*
X-10258Y-8573D01*
X-10316Y-8556D01*
X-10381Y-8550D01*
X-10391Y-8551D01*
X-10382Y-8642D01*
X-10346Y-8645D01*
X-10312Y-8655D01*
X-10281Y-8671D01*
X-10253Y-8693D01*
X-10230Y-8721D01*
X-10213Y-8753D01*
X-10201Y-8790D01*
X-10195Y-8831D01*
X-10195Y-8831D01*
X-10563Y-8831D01*
X-10558Y-8792D01*
X-10549Y-8758D01*
X-10536Y-8730D01*
X-10521Y-8706D01*
X-10492Y-8678D01*
X-10460Y-8658D01*
X-10423Y-8646D01*
X-10382Y-8642D01*
X-10391Y-8551D01*
X-10444Y-8556D01*
X-10501Y-8572D01*
X-10552Y-8600D01*
X-10597Y-8640D01*
X-10634Y-8689D01*
X-10660Y-8748D01*
X-10676Y-8816D01*
X-10681Y-8893D01*
X-10681Y-8898D01*
X-10681Y-8905D01*
X-10680Y-8913D01*
X-10680Y-8923D01*
X-10189Y-8923D01*
X-10195Y-8974D01*
X-10207Y-9018D01*
X-10226Y-9057D01*
X-10250Y-9089D01*
X-10280Y-9114D01*
X-10312Y-9132D01*
X-10349Y-9143D01*
X-10388Y-9146D01*
X-10418Y-9144D01*
X-10445Y-9138D01*
X-10470Y-9128D01*
X-10493Y-9114D01*
X-10513Y-9096D01*
X-10532Y-9072D01*
X-10548Y-9044D01*
X-10562Y-9011D01*
X-10562Y-9011D01*
X-11247Y-9142D02*
X-11216Y-9167D01*
X-11212Y-9170D01*
X-11169Y-9107D01*
X-11189Y-9089D01*
X-11206Y-9069D01*
X-11220Y-9045D01*
X-11228Y-9024D01*
X-11233Y-8999D01*
X-11237Y-8968D01*
X-11238Y-8934D01*
X-11238Y-8893D01*
X-11238Y-8893D01*
X-11203Y-8905D01*
X-11162Y-8916D01*
X-11112Y-8926D01*
X-11055Y-8935D01*
X-11023Y-8940D01*
X-10997Y-8946D01*
X-10975Y-8951D01*
X-10958Y-8957D01*
X-10945Y-8964D01*
X-10933Y-8973D01*
X-10923Y-8982D01*
X-10914Y-8994D01*
X-10907Y-9006D01*
X-10902Y-9019D01*
X-10899Y-9032D01*
X-10898Y-9047D01*
X-10901Y-9068D01*
X-10907Y-9088D01*
X-10917Y-9105D01*
X-10932Y-9121D01*
X-10951Y-9134D01*
X-10974Y-9143D01*
X-11001Y-9149D01*
X-11031Y-9151D01*
X-11062Y-9149D01*
X-11092Y-9144D01*
X-11120Y-9135D01*
X-11146Y-9123D01*
X-11169Y-9107D01*
X-11212Y-9170D01*
X-11186Y-9187D01*
X-11157Y-9204D01*
X-11128Y-9217D01*
X-11098Y-9226D01*
X-11068Y-9233D01*
X-11037Y-9237D01*
X-11004Y-9238D01*
X-10953Y-9235D01*
X-10909Y-9225D01*
X-10870Y-9208D01*
X-10838Y-9185D01*
X-10812Y-9157D01*
X-10794Y-9125D01*
X-10783Y-9089D01*
X-10779Y-9050D01*
X-10781Y-9026D01*
X-10785Y-9003D01*
X-10792Y-8982D01*
X-10801Y-8961D01*
X-10813Y-8942D01*
X-10827Y-8925D01*
X-10842Y-8910D01*
X-10859Y-8897D01*
X-10877Y-8886D01*
X-10897Y-8876D01*
X-10918Y-8868D01*
X-10939Y-8861D01*
X-10958Y-8856D01*
X-10981Y-8852D01*
X-11007Y-8848D01*
X-11039Y-8844D01*
X-11102Y-8835D01*
X-11156Y-8826D01*
X-11201Y-8816D01*
X-11238Y-8805D01*
X-11238Y-8795D01*
X-11238Y-8787D01*
X-11238Y-8780D01*
X-11238Y-8776D01*
X-11236Y-8745D01*
X-11230Y-8718D01*
X-11220Y-8697D01*
X-11207Y-8680D01*
X-11183Y-8664D01*
X-11153Y-8652D01*
X-11119Y-8645D01*
X-11080Y-8642D01*
X-11043Y-8644D01*
X-11011Y-8649D01*
X-10985Y-8658D01*
X-10963Y-8670D01*
X-10946Y-8686D01*
X-10931Y-8708D01*
X-10918Y-8735D01*
X-10908Y-8768D01*
X-10799Y-8753D01*
X-10807Y-8719D01*
X-10818Y-8689D01*
X-10832Y-8663D01*
X-10848Y-8639D01*
X-10867Y-8619D01*
X-10889Y-8601D01*
X-10916Y-8586D01*
X-10946Y-8573D01*
X-10980Y-8563D01*
X-11016Y-8556D01*
X-11054Y-8551D01*
X-11096Y-8550D01*
X-11136Y-8551D01*
X-11172Y-8555D01*
X-11204Y-8561D01*
X-11233Y-8570D01*
X-11257Y-8580D01*
X-11278Y-8592D01*
X-11296Y-8605D01*
X-11310Y-8620D01*
X-11322Y-8636D01*
X-11331Y-8654D01*
X-11339Y-8674D01*
X-11345Y-8696D01*
X-11347Y-8713D01*
X-11349Y-8736D01*
X-11350Y-8764D01*
X-11351Y-8799D01*
X-11351Y-8947D01*
X-11351Y-9018D01*
X-11352Y-9074D01*
X-11355Y-9116D01*
X-11358Y-9144D01*
X-11362Y-9165D01*
X-11368Y-9185D01*
X-11376Y-9204D01*
X-11386Y-9223D01*
X-11269Y-9223D01*
X-11261Y-9205D01*
X-11255Y-9186D01*
X-11250Y-9165D01*
X-11247Y-9142D01*
X-11247Y-9142D01*
X-11953Y-8982D02*
X-12063Y-8996D01*
X-12051Y-9050D01*
X-12031Y-9098D01*
X-12004Y-9139D01*
X-11971Y-9174D01*
X-11932Y-9202D01*
X-11888Y-9222D01*
X-11841Y-9234D01*
X-11789Y-9238D01*
X-11725Y-9233D01*
X-11667Y-9216D01*
X-11616Y-9189D01*
X-11572Y-9150D01*
X-11536Y-9101D01*
X-11510Y-9042D01*
X-11495Y-8974D01*
X-11489Y-8897D01*
X-11492Y-8845D01*
X-11498Y-8797D01*
X-11509Y-8752D01*
X-11525Y-8710D01*
X-11545Y-8672D01*
X-11569Y-8640D01*
X-11599Y-8612D01*
X-11632Y-8590D01*
X-11669Y-8572D01*
X-11708Y-8560D01*
X-11748Y-8552D01*
X-11790Y-8550D01*
X-11841Y-8553D01*
X-11887Y-8563D01*
X-11928Y-8580D01*
X-11965Y-8604D01*
X-11996Y-8634D01*
X-12021Y-8670D01*
X-12040Y-8711D01*
X-12052Y-8758D01*
X-11944Y-8775D01*
X-11935Y-8744D01*
X-11922Y-8717D01*
X-11907Y-8694D01*
X-11889Y-8675D01*
X-11868Y-8661D01*
X-11846Y-8650D01*
X-11821Y-8644D01*
X-11794Y-8642D01*
X-11754Y-8645D01*
X-11717Y-8657D01*
X-11685Y-8676D01*
X-11657Y-8702D01*
X-11634Y-8737D01*
X-11617Y-8780D01*
X-11607Y-8832D01*
X-11604Y-8893D01*
X-11607Y-8955D01*
X-11617Y-9008D01*
X-11633Y-9052D01*
X-11655Y-9086D01*
X-11682Y-9113D01*
X-11714Y-9131D01*
X-11749Y-9143D01*
X-11788Y-9146D01*
X-11819Y-9144D01*
X-11848Y-9136D01*
X-11874Y-9124D01*
X-11897Y-9106D01*
X-11917Y-9083D01*
X-11933Y-9055D01*
X-11945Y-9021D01*
X-11953Y-8982D01*
X-11953Y-8982D01*
X-12404Y-9223D02*
X-12404Y-8422D01*
X-12105Y-8422D01*
X-12105Y-8314D01*
X-12825Y-8314D01*
X-12825Y-8422D01*
X-12524Y-8422D01*
X-12524Y-9223D01*
X-12404Y-9223D01*
X-12404Y-9223D01*
X-12888Y-9223D02*
X-12888Y-8565D01*
X-12999Y-8565D01*
X-12999Y-9223D01*
X-12888Y-9223D01*
X-12888Y-9223D01*
X-12888Y-8443D02*
X-12888Y-8314D01*
X-12999Y-8314D01*
X-12999Y-8443D01*
X-12888Y-8443D01*
X-12888Y-8443D01*
X-13599Y-8982D02*
X-13709Y-8996D01*
X-13696Y-9050D01*
X-13677Y-9098D01*
X-13650Y-9139D01*
X-13617Y-9174D01*
X-13578Y-9202D01*
X-13534Y-9222D01*
X-13487Y-9234D01*
X-13435Y-9238D01*
X-13370Y-9233D01*
X-13313Y-9216D01*
X-13262Y-9189D01*
X-13217Y-9150D01*
X-13181Y-9101D01*
X-13156Y-9042D01*
X-13140Y-8974D01*
X-13135Y-8897D01*
X-13137Y-8845D01*
X-13144Y-8797D01*
X-13155Y-8752D01*
X-13171Y-8710D01*
X-13191Y-8672D01*
X-13215Y-8640D01*
X-13244Y-8612D01*
X-13278Y-8590D01*
X-13315Y-8572D01*
X-13354Y-8560D01*
X-13394Y-8552D01*
X-13435Y-8550D01*
X-13487Y-8553D01*
X-13533Y-8563D01*
X-13574Y-8580D01*
X-13611Y-8604D01*
X-13642Y-8634D01*
X-13667Y-8670D01*
X-13686Y-8711D01*
X-13698Y-8758D01*
X-13590Y-8775D01*
X-13580Y-8744D01*
X-13568Y-8717D01*
X-13553Y-8694D01*
X-13535Y-8675D01*
X-13514Y-8661D01*
X-13491Y-8650D01*
X-13467Y-8644D01*
X-13440Y-8642D01*
X-13399Y-8645D01*
X-13363Y-8657D01*
X-13331Y-8676D01*
X-13303Y-8702D01*
X-13280Y-8737D01*
X-13263Y-8780D01*
X-13253Y-8832D01*
X-13250Y-8893D01*
X-13253Y-8955D01*
X-13263Y-9008D01*
X-13278Y-9052D01*
X-13301Y-9086D01*
X-13328Y-9113D01*
X-13359Y-9131D01*
X-13394Y-9143D01*
X-13433Y-9146D01*
X-13465Y-9144D01*
X-13494Y-9136D01*
X-13520Y-9124D01*
X-13543Y-9106D01*
X-13563Y-9083D01*
X-13579Y-9055D01*
X-13591Y-9021D01*
X-13599Y-8982D01*
X-13599Y-8982D01*
X-13805Y-9223D02*
X-13805Y-8314D01*
X-13917Y-8314D01*
X-13917Y-8833D01*
X-14181Y-8565D01*
X-14325Y-8565D01*
X-14073Y-8809D01*
X-14351Y-9223D01*
X-14213Y-9223D01*
X-13995Y-8887D01*
X-13917Y-8962D01*
X-13917Y-9223D01*
X-13805Y-9223D01*
X-13805Y-9223D01*
X-14805Y-9223D02*
X-14805Y-8314D01*
X-14929Y-8314D01*
X-15406Y-9028D01*
X-15406Y-8314D01*
X-15521Y-8314D01*
X-15521Y-9223D01*
X-15398Y-9223D01*
X-14921Y-8509D01*
X-14921Y-9223D01*
X-14805Y-9223D01*
X-14805Y-9223D01*
X-15668Y-8894D02*
X-15674Y-8809D01*
X-15693Y-8735D01*
X-15725Y-8673D01*
X-15770Y-8623D01*
X-15814Y-8591D01*
X-15864Y-8568D01*
X-15918Y-8554D01*
X-15977Y-8550D01*
X-16041Y-8555D01*
X-16100Y-8572D01*
X-16152Y-8600D01*
X-16199Y-8639D01*
X-16236Y-8688D01*
X-16263Y-8745D01*
X-16279Y-8811D01*
X-16285Y-8885D01*
X-16282Y-8945D01*
X-16275Y-8998D01*
X-16263Y-9045D01*
X-16247Y-9085D01*
X-16225Y-9119D01*
X-16200Y-9149D01*
X-16170Y-9176D01*
X-16136Y-9198D01*
X-16098Y-9216D01*
X-16059Y-9228D01*
X-16019Y-9236D01*
X-15977Y-9238D01*
X-15969Y-9238D01*
X-15977Y-9146D01*
X-16016Y-9142D01*
X-16053Y-9131D01*
X-16086Y-9111D01*
X-16115Y-9083D01*
X-16139Y-9047D01*
X-16156Y-9003D01*
X-16167Y-8951D01*
X-16170Y-8890D01*
X-16167Y-8833D01*
X-16156Y-8783D01*
X-16139Y-8740D01*
X-16115Y-8705D01*
X-16085Y-8678D01*
X-16052Y-8658D01*
X-16016Y-8646D01*
X-15977Y-8642D01*
X-15937Y-8646D01*
X-15900Y-8658D01*
X-15867Y-8678D01*
X-15838Y-8705D01*
X-15814Y-8740D01*
X-15796Y-8784D01*
X-15786Y-8835D01*
X-15783Y-8894D01*
X-15783Y-8894D01*
X-15786Y-8953D01*
X-15796Y-9005D01*
X-15814Y-9048D01*
X-15838Y-9083D01*
X-15867Y-9111D01*
X-15900Y-9131D01*
X-15937Y-9143D01*
X-15977Y-9146D01*
X-15969Y-9238D01*
X-15911Y-9233D01*
X-15852Y-9216D01*
X-15799Y-9188D01*
X-15753Y-9150D01*
X-15716Y-9100D01*
X-15689Y-9041D01*
X-15673Y-8973D01*
X-15668Y-8894D01*
X-15668Y-8894D01*
X-16843Y-9223D02*
X-16843Y-9140D01*
X-16792Y-9088D01*
X-16794Y-9087D01*
X-16816Y-9053D01*
X-16832Y-9011D01*
X-16842Y-8961D01*
X-16845Y-8904D01*
X-16842Y-8841D01*
X-16832Y-8787D01*
X-16816Y-8742D01*
X-16793Y-8706D01*
X-16765Y-8678D01*
X-16735Y-8658D01*
X-16701Y-8646D01*
X-16664Y-8642D01*
X-16629Y-8646D01*
X-16596Y-8657D01*
X-16567Y-8676D01*
X-16540Y-8703D01*
X-16518Y-8738D01*
X-16503Y-8781D01*
X-16493Y-8834D01*
X-16490Y-8895D01*
X-16490Y-8895D01*
X-16493Y-8954D01*
X-16503Y-9005D01*
X-16520Y-9048D01*
X-16543Y-9084D01*
X-16571Y-9111D01*
X-16602Y-9131D01*
X-16634Y-9143D01*
X-16669Y-9146D01*
X-16705Y-9143D01*
X-16737Y-9131D01*
X-16767Y-9113D01*
X-16792Y-9088D01*
X-16843Y-9140D01*
X-16808Y-9183D01*
X-16766Y-9214D01*
X-16716Y-9232D01*
X-16659Y-9238D01*
X-16620Y-9236D01*
X-16583Y-9227D01*
X-16548Y-9214D01*
X-16514Y-9195D01*
X-16483Y-9171D01*
X-16455Y-9143D01*
X-16432Y-9110D01*
X-16412Y-9074D01*
X-16396Y-9033D01*
X-16384Y-8990D01*
X-16378Y-8944D01*
X-16375Y-8895D01*
X-16377Y-8847D01*
X-16384Y-8801D01*
X-16394Y-8757D01*
X-16408Y-8716D01*
X-16427Y-8678D01*
X-16449Y-8645D01*
X-16476Y-8616D01*
X-16507Y-8593D01*
X-16541Y-8574D01*
X-16576Y-8561D01*
X-16614Y-8553D01*
X-16654Y-8550D01*
X-16683Y-8551D01*
X-16710Y-8556D01*
X-16736Y-8564D01*
X-16760Y-8575D01*
X-16782Y-8589D01*
X-16802Y-8604D01*
X-16820Y-8621D01*
X-16836Y-8640D01*
X-16836Y-8314D01*
X-16947Y-8314D01*
X-16947Y-9223D01*
X-16843Y-9223D01*
X-16843Y-9223D01*
X-17573Y-9011D02*
X-17688Y-9026D01*
X-17672Y-9073D01*
X-17649Y-9115D01*
X-17621Y-9152D01*
X-17587Y-9182D01*
X-17548Y-9207D01*
X-17503Y-9224D01*
X-17453Y-9235D01*
X-17399Y-9238D01*
X-17330Y-9233D01*
X-17269Y-9216D01*
X-17216Y-9188D01*
X-17169Y-9149D01*
X-17132Y-9100D01*
X-17106Y-9042D01*
X-17090Y-8975D01*
X-17085Y-8900D01*
X-17090Y-8821D01*
X-17106Y-8752D01*
X-17133Y-8692D01*
X-17170Y-8642D01*
X-17216Y-8602D01*
X-17269Y-8573D01*
X-17327Y-8556D01*
X-17392Y-8550D01*
X-17402Y-8551D01*
X-17394Y-8642D01*
X-17357Y-8645D01*
X-17323Y-8655D01*
X-17292Y-8671D01*
X-17264Y-8693D01*
X-17241Y-8721D01*
X-17224Y-8753D01*
X-17212Y-8790D01*
X-17206Y-8831D01*
X-17206Y-8831D01*
X-17574Y-8831D01*
X-17569Y-8792D01*
X-17560Y-8758D01*
X-17548Y-8730D01*
X-17532Y-8706D01*
X-17503Y-8678D01*
X-17471Y-8658D01*
X-17434Y-8646D01*
X-17394Y-8642D01*
X-17402Y-8551D01*
X-17455Y-8556D01*
X-17512Y-8572D01*
X-17563Y-8600D01*
X-17608Y-8640D01*
X-17645Y-8689D01*
X-17671Y-8748D01*
X-17687Y-8816D01*
X-17692Y-8893D01*
X-17692Y-8898D01*
X-17692Y-8905D01*
X-17692Y-8913D01*
X-17691Y-8923D01*
X-17200Y-8923D01*
X-17206Y-8974D01*
X-17219Y-9018D01*
X-17237Y-9057D01*
X-17262Y-9089D01*
X-17291Y-9114D01*
X-17324Y-9132D01*
X-17360Y-9143D01*
X-17399Y-9146D01*
X-17429Y-9144D01*
X-17456Y-9138D01*
X-17481Y-9128D01*
X-17504Y-9114D01*
X-17525Y-9096D01*
X-17543Y-9072D01*
X-17559Y-9044D01*
X-17573Y-9011D01*
X-17573Y-9011D01*
X-9010Y-10664D02*
X-9031Y-10569D01*
X-9047Y-10573D01*
X-9061Y-10575D01*
X-9073Y-10577D01*
X-9084Y-10578D01*
X-9100Y-10576D01*
X-9114Y-10572D01*
X-9125Y-10565D01*
X-9135Y-10555D01*
X-9142Y-10539D01*
X-9147Y-10515D01*
X-9150Y-10483D01*
X-9151Y-10442D01*
X-9151Y-9750D01*
X-9263Y-9750D01*
X-9263Y-10444D01*
X-9261Y-10500D01*
X-9255Y-10547D01*
X-9245Y-10585D01*
X-9231Y-10614D01*
X-9208Y-10641D01*
X-9178Y-10660D01*
X-9141Y-10672D01*
X-9097Y-10676D01*
X-9075Y-10675D01*
X-9053Y-10673D01*
X-9031Y-10669D01*
X-9010Y-10664D01*
X-9010Y-10664D01*
X-9151Y-9629D02*
X-9151Y-9499D01*
X-9263Y-9499D01*
X-9263Y-9629D01*
X-9151Y-9629D01*
X-9151Y-9629D01*
X-9433Y-10408D02*
X-9433Y-9750D01*
X-9533Y-9750D01*
X-9533Y-9850D01*
X-9552Y-9818D01*
X-9570Y-9791D01*
X-9588Y-9771D01*
X-9604Y-9757D01*
X-9621Y-9747D01*
X-9639Y-9740D01*
X-9657Y-9736D01*
X-9676Y-9735D01*
X-9704Y-9737D01*
X-9733Y-9744D01*
X-9762Y-9755D01*
X-9791Y-9771D01*
X-9752Y-9874D01*
X-9732Y-9864D01*
X-9711Y-9856D01*
X-9691Y-9852D01*
X-9670Y-9850D01*
X-9653Y-9852D01*
X-9636Y-9856D01*
X-9620Y-9863D01*
X-9605Y-9872D01*
X-9591Y-9884D01*
X-9580Y-9899D01*
X-9570Y-9915D01*
X-9563Y-9933D01*
X-9555Y-9964D01*
X-9549Y-9996D01*
X-9546Y-10029D01*
X-9545Y-10064D01*
X-9545Y-10408D01*
X-9433Y-10408D01*
X-9433Y-10408D01*
X-10287Y-10327D02*
X-10256Y-10352D01*
X-10252Y-10355D01*
X-10209Y-10292D01*
X-10229Y-10274D01*
X-10246Y-10254D01*
X-10260Y-10230D01*
X-10267Y-10209D01*
X-10273Y-10184D01*
X-10276Y-10153D01*
X-10278Y-10119D01*
X-10278Y-10078D01*
X-10278Y-10078D01*
X-10243Y-10090D01*
X-10202Y-10101D01*
X-10152Y-10111D01*
X-10095Y-10120D01*
X-10063Y-10125D01*
X-10036Y-10131D01*
X-10015Y-10136D01*
X-9998Y-10142D01*
X-9984Y-10149D01*
X-9973Y-10158D01*
X-9962Y-10167D01*
X-9954Y-10179D01*
X-9947Y-10191D01*
X-9942Y-10204D01*
X-9939Y-10217D01*
X-9938Y-10232D01*
X-9940Y-10253D01*
X-9947Y-10273D01*
X-9957Y-10290D01*
X-9972Y-10306D01*
X-9991Y-10319D01*
X-10014Y-10328D01*
X-10040Y-10334D01*
X-10071Y-10336D01*
X-10102Y-10334D01*
X-10132Y-10329D01*
X-10160Y-10320D01*
X-10186Y-10308D01*
X-10209Y-10292D01*
X-10252Y-10355D01*
X-10226Y-10372D01*
X-10196Y-10389D01*
X-10167Y-10402D01*
X-10138Y-10411D01*
X-10108Y-10418D01*
X-10077Y-10422D01*
X-10044Y-10423D01*
X-9993Y-10420D01*
X-9948Y-10410D01*
X-9910Y-10393D01*
X-9878Y-10370D01*
X-9852Y-10342D01*
X-9834Y-10310D01*
X-9823Y-10274D01*
X-9819Y-10235D01*
X-9821Y-10211D01*
X-9825Y-10188D01*
X-9832Y-10167D01*
X-9841Y-10146D01*
X-9853Y-10127D01*
X-9867Y-10110D01*
X-9882Y-10095D01*
X-9899Y-10082D01*
X-9917Y-10071D01*
X-9937Y-10061D01*
X-9957Y-10053D01*
X-9979Y-10046D01*
X-9998Y-10041D01*
X-10020Y-10037D01*
X-10047Y-10033D01*
X-10078Y-10029D01*
X-10142Y-10020D01*
X-10196Y-10011D01*
X-10241Y-10001D01*
X-10278Y-9990D01*
X-10278Y-9980D01*
X-10278Y-9972D01*
X-10278Y-9965D01*
X-10278Y-9961D01*
X-10276Y-9930D01*
X-10270Y-9903D01*
X-10260Y-9882D01*
X-10247Y-9865D01*
X-10223Y-9849D01*
X-10193Y-9837D01*
X-10159Y-9830D01*
X-10119Y-9827D01*
X-10083Y-9829D01*
X-10051Y-9834D01*
X-10024Y-9843D01*
X-10003Y-9855D01*
X-9986Y-9871D01*
X-9970Y-9893D01*
X-9958Y-9920D01*
X-9948Y-9953D01*
X-9838Y-9938D01*
X-9847Y-9904D01*
X-9858Y-9874D01*
X-9872Y-9848D01*
X-9887Y-9824D01*
X-9906Y-9804D01*
X-9929Y-9786D01*
X-9956Y-9771D01*
X-9986Y-9758D01*
X-10020Y-9748D01*
X-10056Y-9741D01*
X-10094Y-9736D01*
X-10136Y-9735D01*
X-10176Y-9736D01*
X-10212Y-9740D01*
X-10244Y-9746D01*
X-10273Y-9755D01*
X-10297Y-9765D01*
X-10318Y-9777D01*
X-10336Y-9790D01*
X-10350Y-9805D01*
X-10362Y-9821D01*
X-10371Y-9839D01*
X-10379Y-9859D01*
X-10385Y-9881D01*
X-10387Y-9898D01*
X-10389Y-9921D01*
X-10390Y-9949D01*
X-10390Y-9984D01*
X-10390Y-10132D01*
X-10391Y-10203D01*
X-10392Y-10259D01*
X-10394Y-10301D01*
X-10398Y-10329D01*
X-10402Y-10350D01*
X-10408Y-10370D01*
X-10416Y-10389D01*
X-10426Y-10408D01*
X-10309Y-10408D01*
X-10301Y-10390D01*
X-10295Y-10371D01*
X-10290Y-10350D01*
X-10287Y-10327D01*
X-10287Y-10327D01*
X-10564Y-10408D02*
X-10564Y-9750D01*
X-10676Y-9750D01*
X-10676Y-10408D01*
X-10564Y-10408D01*
X-10564Y-10408D01*
X-10564Y-9628D02*
X-10564Y-9499D01*
X-10676Y-9499D01*
X-10676Y-9628D01*
X-10564Y-9628D01*
X-10564Y-9628D01*
X-10846Y-10408D02*
X-10846Y-9750D01*
X-10946Y-9750D01*
X-10946Y-9843D01*
X-10986Y-9796D01*
X-11035Y-9762D01*
X-11091Y-9742D01*
X-11156Y-9735D01*
X-11185Y-9736D01*
X-11213Y-9740D01*
X-11239Y-9747D01*
X-11265Y-9756D01*
X-11288Y-9768D01*
X-11309Y-9781D01*
X-11326Y-9796D01*
X-11340Y-9812D01*
X-11351Y-9831D01*
X-11361Y-9850D01*
X-11369Y-9872D01*
X-11374Y-9895D01*
X-11377Y-9913D01*
X-11379Y-9938D01*
X-11380Y-9968D01*
X-11381Y-10003D01*
X-11381Y-10408D01*
X-11269Y-10408D01*
X-11269Y-10008D01*
X-11268Y-9976D01*
X-11266Y-9948D01*
X-11262Y-9925D01*
X-11256Y-9906D01*
X-11248Y-9890D01*
X-11238Y-9875D01*
X-11225Y-9863D01*
X-11210Y-9852D01*
X-11193Y-9843D01*
X-11174Y-9837D01*
X-11154Y-9833D01*
X-11132Y-9832D01*
X-11098Y-9834D01*
X-11066Y-9843D01*
X-11036Y-9857D01*
X-11009Y-9877D01*
X-10986Y-9905D01*
X-10970Y-9942D01*
X-10960Y-9990D01*
X-10957Y-10049D01*
X-10957Y-10408D01*
X-10846Y-10408D01*
X-10846Y-10408D01*
X-11552Y-10408D02*
X-11552Y-9750D01*
X-11664Y-9750D01*
X-11664Y-10408D01*
X-11552Y-10408D01*
X-11552Y-10408D01*
X-11552Y-9628D02*
X-11552Y-9499D01*
X-11664Y-9499D01*
X-11664Y-9628D01*
X-11552Y-9628D01*
X-11552Y-9628D01*
X-11834Y-10408D02*
X-11834Y-9750D01*
X-11934Y-9750D01*
X-11934Y-9842D01*
X-11951Y-9819D01*
X-11970Y-9799D01*
X-11992Y-9780D01*
X-12016Y-9764D01*
X-12043Y-9751D01*
X-12071Y-9742D01*
X-12102Y-9737D01*
X-12133Y-9735D01*
X-12168Y-9737D01*
X-12200Y-9742D01*
X-12228Y-9752D01*
X-12253Y-9765D01*
X-12275Y-9782D01*
X-12293Y-9802D01*
X-12308Y-9824D01*
X-12320Y-9850D01*
X-12362Y-9800D01*
X-12409Y-9764D01*
X-12463Y-9742D01*
X-12523Y-9735D01*
X-12569Y-9738D01*
X-12610Y-9748D01*
X-12644Y-9765D01*
X-12674Y-9789D01*
X-12697Y-9820D01*
X-12713Y-9858D01*
X-12723Y-9903D01*
X-12726Y-9956D01*
X-12726Y-10408D01*
X-12615Y-10408D01*
X-12615Y-9993D01*
X-12615Y-9962D01*
X-12613Y-9936D01*
X-12609Y-9914D01*
X-12604Y-9897D01*
X-12598Y-9883D01*
X-12589Y-9870D01*
X-12578Y-9859D01*
X-12565Y-9850D01*
X-12550Y-9842D01*
X-12534Y-9836D01*
X-12517Y-9833D01*
X-12498Y-9832D01*
X-12465Y-9835D01*
X-12435Y-9843D01*
X-12407Y-9858D01*
X-12383Y-9878D01*
X-12363Y-9904D01*
X-12348Y-9938D01*
X-12340Y-9978D01*
X-12337Y-10026D01*
X-12337Y-10408D01*
X-12225Y-10408D01*
X-12225Y-9980D01*
X-12224Y-9946D01*
X-12218Y-9915D01*
X-12210Y-9890D01*
X-12198Y-9869D01*
X-12182Y-9853D01*
X-12162Y-9841D01*
X-12138Y-9834D01*
X-12109Y-9832D01*
X-12086Y-9833D01*
X-12063Y-9838D01*
X-12042Y-9846D01*
X-12022Y-9856D01*
X-12003Y-9870D01*
X-11987Y-9887D01*
X-11974Y-9907D01*
X-11964Y-9929D01*
X-11956Y-9955D01*
X-11950Y-9987D01*
X-11947Y-10024D01*
X-11946Y-10067D01*
X-11946Y-10408D01*
X-11834Y-10408D01*
X-11834Y-10408D01*
X-12850Y-10079D02*
X-12857Y-9994D01*
X-12876Y-9920D01*
X-12908Y-9858D01*
X-12952Y-9808D01*
X-12997Y-9776D01*
X-13046Y-9753D01*
X-13100Y-9739D01*
X-13159Y-9735D01*
X-13224Y-9740D01*
X-13283Y-9757D01*
X-13335Y-9785D01*
X-13381Y-9824D01*
X-13419Y-9873D01*
X-13446Y-9930D01*
X-13462Y-9996D01*
X-13467Y-10070D01*
X-13465Y-10130D01*
X-13458Y-10183D01*
X-13446Y-10230D01*
X-13429Y-10270D01*
X-13408Y-10304D01*
X-13382Y-10334D01*
X-13352Y-10361D01*
X-13318Y-10383D01*
X-13281Y-10401D01*
X-13242Y-10413D01*
X-13201Y-10421D01*
X-13159Y-10423D01*
X-13151Y-10423D01*
X-13159Y-10331D01*
X-13199Y-10327D01*
X-13235Y-10316D01*
X-13268Y-10296D01*
X-13297Y-10268D01*
X-13322Y-10232D01*
X-13339Y-10188D01*
X-13349Y-10136D01*
X-13353Y-10075D01*
X-13349Y-10018D01*
X-13339Y-9968D01*
X-13321Y-9925D01*
X-13297Y-9890D01*
X-13268Y-9863D01*
X-13235Y-9843D01*
X-13199Y-9831D01*
X-13159Y-9827D01*
X-13119Y-9831D01*
X-13083Y-9843D01*
X-13050Y-9863D01*
X-13020Y-9890D01*
X-12996Y-9925D01*
X-12979Y-9969D01*
X-12969Y-10020D01*
X-12965Y-10079D01*
X-12965Y-10079D01*
X-12969Y-10138D01*
X-12979Y-10190D01*
X-12996Y-10233D01*
X-13020Y-10268D01*
X-13050Y-10296D01*
X-13083Y-10316D01*
X-13119Y-10328D01*
X-13159Y-10331D01*
X-13151Y-10423D01*
X-13093Y-10418D01*
X-13034Y-10401D01*
X-12982Y-10373D01*
X-12936Y-10335D01*
X-12898Y-10285D01*
X-12872Y-10226D01*
X-12856Y-10158D01*
X-12850Y-10079D01*
X-12850Y-10079D01*
X-13630Y-10408D02*
X-13630Y-10281D01*
X-13757Y-10281D01*
X-13757Y-10408D01*
X-13630Y-10408D01*
X-13630Y-10408D01*
X-14381Y-10167D02*
X-14491Y-10181D01*
X-14478Y-10235D01*
X-14459Y-10283D01*
X-14432Y-10324D01*
X-14398Y-10359D01*
X-14359Y-10387D01*
X-14316Y-10407D01*
X-14268Y-10419D01*
X-14216Y-10423D01*
X-14152Y-10418D01*
X-14095Y-10401D01*
X-14044Y-10374D01*
X-13999Y-10335D01*
X-13963Y-10286D01*
X-13937Y-10227D01*
X-13922Y-10159D01*
X-13917Y-10082D01*
X-13919Y-10030D01*
X-13926Y-9982D01*
X-13937Y-9937D01*
X-13952Y-9895D01*
X-13972Y-9857D01*
X-13997Y-9825D01*
X-14026Y-9797D01*
X-14060Y-9775D01*
X-14097Y-9757D01*
X-14135Y-9745D01*
X-14175Y-9737D01*
X-14217Y-9735D01*
X-14268Y-9738D01*
X-14315Y-9748D01*
X-14356Y-9765D01*
X-14393Y-9789D01*
X-14424Y-9819D01*
X-14449Y-9855D01*
X-14467Y-9896D01*
X-14480Y-9943D01*
X-14371Y-9960D01*
X-14362Y-9929D01*
X-14350Y-9902D01*
X-14335Y-9879D01*
X-14317Y-9860D01*
X-14296Y-9845D01*
X-14273Y-9835D01*
X-14248Y-9829D01*
X-14221Y-9827D01*
X-14181Y-9830D01*
X-14145Y-9842D01*
X-14113Y-9861D01*
X-14084Y-9887D01*
X-14061Y-9922D01*
X-14045Y-9965D01*
X-14035Y-10017D01*
X-14032Y-10078D01*
X-14035Y-10140D01*
X-14044Y-10193D01*
X-14060Y-10237D01*
X-14083Y-10271D01*
X-14110Y-10298D01*
X-14141Y-10316D01*
X-14176Y-10328D01*
X-14215Y-10331D01*
X-14247Y-10329D01*
X-14276Y-10321D01*
X-14302Y-10309D01*
X-14325Y-10291D01*
X-14345Y-10268D01*
X-14361Y-10240D01*
X-14373Y-10206D01*
X-14381Y-10167D01*
X-14381Y-10167D01*
X-14545Y-10079D02*
X-14551Y-9994D01*
X-14570Y-9920D01*
X-14602Y-9858D01*
X-14646Y-9808D01*
X-14691Y-9776D01*
X-14741Y-9753D01*
X-14795Y-9739D01*
X-14853Y-9735D01*
X-14918Y-9740D01*
X-14977Y-9757D01*
X-15029Y-9785D01*
X-15075Y-9824D01*
X-15113Y-9873D01*
X-15140Y-9930D01*
X-15156Y-9996D01*
X-15162Y-10070D01*
X-15159Y-10130D01*
X-15152Y-10183D01*
X-15140Y-10230D01*
X-15123Y-10270D01*
X-15102Y-10304D01*
X-15077Y-10334D01*
X-15047Y-10361D01*
X-15012Y-10383D01*
X-14975Y-10401D01*
X-14936Y-10413D01*
X-14896Y-10421D01*
X-14853Y-10423D01*
X-14846Y-10423D01*
X-14853Y-10331D01*
X-14893Y-10327D01*
X-14929Y-10316D01*
X-14962Y-10296D01*
X-14992Y-10268D01*
X-15016Y-10232D01*
X-15033Y-10188D01*
X-15043Y-10136D01*
X-15047Y-10075D01*
X-15043Y-10018D01*
X-15033Y-9968D01*
X-15016Y-9925D01*
X-14991Y-9890D01*
X-14962Y-9863D01*
X-14929Y-9843D01*
X-14893Y-9831D01*
X-14853Y-9827D01*
X-14813Y-9831D01*
X-14777Y-9843D01*
X-14744Y-9863D01*
X-14714Y-9890D01*
X-14690Y-9925D01*
X-14673Y-9969D01*
X-14663Y-10020D01*
X-14659Y-10079D01*
X-14659Y-10079D01*
X-14663Y-10138D01*
X-14673Y-10190D01*
X-14690Y-10233D01*
X-14714Y-10268D01*
X-14744Y-10296D01*
X-14777Y-10316D01*
X-14813Y-10328D01*
X-14853Y-10331D01*
X-14846Y-10423D01*
X-14788Y-10418D01*
X-14728Y-10401D01*
X-14676Y-10373D01*
X-14630Y-10335D01*
X-14593Y-10285D01*
X-14566Y-10226D01*
X-14550Y-10158D01*
X-14545Y-10079D01*
X-14545Y-10079D01*
X-15292Y-10408D02*
X-15292Y-9750D01*
X-15392Y-9750D01*
X-15392Y-9842D01*
X-15409Y-9819D01*
X-15428Y-9799D01*
X-15450Y-9780D01*
X-15475Y-9764D01*
X-15501Y-9751D01*
X-15530Y-9742D01*
X-15560Y-9737D01*
X-15592Y-9735D01*
X-15627Y-9737D01*
X-15659Y-9742D01*
X-15687Y-9752D01*
X-15712Y-9765D01*
X-15734Y-9782D01*
X-15752Y-9802D01*
X-15767Y-9824D01*
X-15778Y-9850D01*
X-15820Y-9800D01*
X-15868Y-9764D01*
X-15922Y-9742D01*
X-15981Y-9735D01*
X-16028Y-9738D01*
X-16068Y-9748D01*
X-16103Y-9765D01*
X-16132Y-9789D01*
X-16155Y-9820D01*
X-16172Y-9858D01*
X-16181Y-9903D01*
X-16185Y-9956D01*
X-16185Y-10408D01*
X-16074Y-10408D01*
X-16074Y-9993D01*
X-16073Y-9962D01*
X-16071Y-9936D01*
X-16068Y-9914D01*
X-16063Y-9897D01*
X-16056Y-9883D01*
X-16048Y-9870D01*
X-16037Y-9859D01*
X-16024Y-9850D01*
X-16009Y-9842D01*
X-15993Y-9836D01*
X-15975Y-9833D01*
X-15957Y-9832D01*
X-15923Y-9835D01*
X-15893Y-9843D01*
X-15866Y-9858D01*
X-15841Y-9878D01*
X-15821Y-9904D01*
X-15807Y-9938D01*
X-15798Y-9978D01*
X-15795Y-10026D01*
X-15795Y-10408D01*
X-15684Y-10408D01*
X-15684Y-9980D01*
X-15682Y-9946D01*
X-15677Y-9915D01*
X-15668Y-9890D01*
X-15656Y-9869D01*
X-15641Y-9853D01*
X-15620Y-9841D01*
X-15596Y-9834D01*
X-15567Y-9832D01*
X-15544Y-9833D01*
X-15522Y-9838D01*
X-15500Y-9846D01*
X-15480Y-9856D01*
X-15461Y-9870D01*
X-15446Y-9887D01*
X-15432Y-9907D01*
X-15422Y-9929D01*
X-15414Y-9955D01*
X-15409Y-9987D01*
X-15405Y-10024D01*
X-15404Y-10067D01*
X-15404Y-10408D01*
X-15292Y-10408D01*
X-15292Y-10408D01*
X-9275Y-7955D02*
X-9275Y-7046D01*
X-9678Y-7046D01*
X-9735Y-7047D01*
X-9785Y-7052D01*
X-9827Y-7060D01*
X-9863Y-7070D01*
X-9893Y-7085D01*
X-9920Y-7104D01*
X-9943Y-7128D01*
X-9964Y-7157D01*
X-9980Y-7189D01*
X-9992Y-7222D01*
X-9999Y-7257D01*
X-10002Y-7294D01*
X-9998Y-7340D01*
X-9986Y-7383D01*
X-9966Y-7422D01*
X-9939Y-7457D01*
X-9903Y-7487D01*
X-9859Y-7511D01*
X-9807Y-7529D01*
X-9776Y-7535D01*
X-9757Y-7438D01*
X-9783Y-7430D01*
X-9805Y-7420D01*
X-9824Y-7408D01*
X-9840Y-7393D01*
X-9853Y-7376D01*
X-9864Y-7356D01*
X-9872Y-7336D01*
X-9876Y-7316D01*
X-9878Y-7294D01*
X-9875Y-7263D01*
X-9866Y-7235D01*
X-9851Y-7210D01*
X-9831Y-7188D01*
X-9804Y-7170D01*
X-9770Y-7157D01*
X-9730Y-7149D01*
X-9683Y-7146D01*
X-9395Y-7146D01*
X-9395Y-7447D01*
X-9395Y-7447D01*
X-9654Y-7447D01*
X-9693Y-7446D01*
X-9727Y-7443D01*
X-9757Y-7438D01*
X-9776Y-7535D01*
X-9746Y-7541D01*
X-9768Y-7553D01*
X-9788Y-7564D01*
X-9804Y-7575D01*
X-9818Y-7587D01*
X-9844Y-7612D01*
X-9869Y-7641D01*
X-9894Y-7673D01*
X-9918Y-7708D01*
X-10076Y-7955D01*
X-9925Y-7955D01*
X-9804Y-7766D01*
X-9779Y-7727D01*
X-9756Y-7694D01*
X-9736Y-7665D01*
X-9718Y-7641D01*
X-9701Y-7621D01*
X-9685Y-7604D01*
X-9670Y-7590D01*
X-9657Y-7580D01*
X-9643Y-7572D01*
X-9629Y-7565D01*
X-9616Y-7560D01*
X-9602Y-7556D01*
X-9590Y-7554D01*
X-9575Y-7552D01*
X-9556Y-7552D01*
X-9535Y-7551D01*
X-9395Y-7551D01*
X-9395Y-7955D01*
X-9275Y-7955D01*
X-9275Y-7955D01*
X-10145Y-7715D02*
X-10257Y-7700D01*
X-10268Y-7744D01*
X-10283Y-7782D01*
X-10301Y-7813D01*
X-10323Y-7837D01*
X-10347Y-7855D01*
X-10374Y-7868D01*
X-10403Y-7876D01*
X-10435Y-7879D01*
X-10473Y-7875D01*
X-10508Y-7865D01*
X-10539Y-7848D01*
X-10568Y-7824D01*
X-10592Y-7795D01*
X-10609Y-7763D01*
X-10619Y-7728D01*
X-10622Y-7689D01*
X-10619Y-7652D01*
X-10610Y-7619D01*
X-10594Y-7589D01*
X-10572Y-7562D01*
X-10545Y-7540D01*
X-10515Y-7525D01*
X-10481Y-7515D01*
X-10444Y-7512D01*
X-10428Y-7513D01*
X-10409Y-7515D01*
X-10388Y-7519D01*
X-10366Y-7525D01*
X-10378Y-7427D01*
X-10383Y-7427D01*
X-10388Y-7428D01*
X-10392Y-7428D01*
X-10396Y-7428D01*
X-10431Y-7426D01*
X-10464Y-7419D01*
X-10495Y-7407D01*
X-10524Y-7391D01*
X-10549Y-7370D01*
X-10567Y-7343D01*
X-10578Y-7312D01*
X-10581Y-7276D01*
X-10579Y-7247D01*
X-10571Y-7220D01*
X-10558Y-7196D01*
X-10540Y-7174D01*
X-10518Y-7157D01*
X-10492Y-7144D01*
X-10464Y-7136D01*
X-10433Y-7134D01*
X-10401Y-7137D01*
X-10373Y-7144D01*
X-10347Y-7157D01*
X-10324Y-7175D01*
X-10304Y-7198D01*
X-10288Y-7226D01*
X-10276Y-7259D01*
X-10268Y-7298D01*
X-10157Y-7278D01*
X-10170Y-7225D01*
X-10190Y-7178D01*
X-10217Y-7138D01*
X-10250Y-7104D01*
X-10288Y-7077D01*
X-10331Y-7058D01*
X-10378Y-7046D01*
X-10430Y-7042D01*
X-10467Y-7044D01*
X-10502Y-7050D01*
X-10535Y-7060D01*
X-10567Y-7074D01*
X-10597Y-7092D01*
X-10622Y-7112D01*
X-10645Y-7135D01*
X-10663Y-7161D01*
X-10677Y-7189D01*
X-10688Y-7218D01*
X-10694Y-7248D01*
X-10696Y-7278D01*
X-10694Y-7307D01*
X-10688Y-7335D01*
X-10678Y-7361D01*
X-10665Y-7386D01*
X-10647Y-7409D01*
X-10625Y-7429D01*
X-10600Y-7447D01*
X-10571Y-7463D01*
X-10609Y-7474D01*
X-10643Y-7491D01*
X-10672Y-7513D01*
X-10696Y-7540D01*
X-10716Y-7571D01*
X-10730Y-7606D01*
X-10738Y-7644D01*
X-10741Y-7686D01*
X-10735Y-7744D01*
X-10719Y-7796D01*
X-10692Y-7845D01*
X-10654Y-7888D01*
X-10608Y-7925D01*
X-10556Y-7950D01*
X-10498Y-7966D01*
X-10434Y-7971D01*
X-10377Y-7967D01*
X-10325Y-7953D01*
X-10278Y-7931D01*
X-10236Y-7900D01*
X-10200Y-7862D01*
X-10174Y-7818D01*
X-10155Y-7769D01*
X-10145Y-7715D01*
X-10145Y-7715D01*
X-10911Y-7955D02*
X-10911Y-7828D01*
X-11038Y-7828D01*
X-11038Y-7955D01*
X-11037Y-7988D01*
X-11032Y-8018D01*
X-11025Y-8045D01*
X-11014Y-8068D01*
X-10999Y-8088D01*
X-10982Y-8106D01*
X-10960Y-8122D01*
X-10935Y-8135D01*
X-10904Y-8087D01*
X-10920Y-8078D01*
X-10935Y-8068D01*
X-10946Y-8056D01*
X-10956Y-8042D01*
X-10963Y-8025D01*
X-10969Y-8005D01*
X-10973Y-7982D01*
X-10975Y-7955D01*
X-10911Y-7955D01*
X-10911Y-7955D01*
X-11541Y-7697D02*
X-11649Y-7682D01*
X-11653Y-7730D01*
X-11661Y-7770D01*
X-11673Y-7801D01*
X-11688Y-7825D01*
X-11707Y-7842D01*
X-11730Y-7854D01*
X-11755Y-7861D01*
X-11784Y-7863D01*
X-11806Y-7862D01*
X-11827Y-7858D01*
X-11845Y-7852D01*
X-11863Y-7842D01*
X-11878Y-7831D01*
X-11890Y-7818D01*
X-11900Y-7803D01*
X-11908Y-7786D01*
X-11913Y-7766D01*
X-11917Y-7740D01*
X-11919Y-7709D01*
X-11920Y-7672D01*
X-11920Y-7046D01*
X-12041Y-7046D01*
X-12041Y-7665D01*
X-12039Y-7719D01*
X-12034Y-7767D01*
X-12025Y-7808D01*
X-12013Y-7842D01*
X-11997Y-7872D01*
X-11977Y-7897D01*
X-11953Y-7919D01*
X-11926Y-7938D01*
X-11894Y-7952D01*
X-11860Y-7962D01*
X-11824Y-7968D01*
X-11785Y-7971D01*
X-11729Y-7966D01*
X-11679Y-7953D01*
X-11637Y-7932D01*
X-11602Y-7902D01*
X-11574Y-7863D01*
X-11555Y-7816D01*
X-11544Y-7761D01*
X-11541Y-7697D01*
X-11541Y-7697D01*
X-12655Y-7955D02*
X-12655Y-7858D01*
X-12613Y-7907D01*
X-12564Y-7942D01*
X-12508Y-7963D01*
X-12446Y-7970D01*
X-12417Y-7968D01*
X-12389Y-7964D01*
X-12362Y-7957D01*
X-12337Y-7948D01*
X-12313Y-7936D01*
X-12293Y-7922D01*
X-12276Y-7908D01*
X-12262Y-7891D01*
X-12250Y-7874D01*
X-12241Y-7854D01*
X-12233Y-7832D01*
X-12227Y-7809D01*
X-12224Y-7790D01*
X-12222Y-7766D01*
X-12221Y-7738D01*
X-12220Y-7704D01*
X-12220Y-7296D01*
X-12332Y-7296D01*
X-12332Y-7662D01*
X-12332Y-7702D01*
X-12334Y-7735D01*
X-12336Y-7761D01*
X-12339Y-7780D01*
X-12346Y-7800D01*
X-12355Y-7819D01*
X-12368Y-7835D01*
X-12384Y-7849D01*
X-12402Y-7860D01*
X-12422Y-7867D01*
X-12444Y-7872D01*
X-12468Y-7874D01*
X-12493Y-7872D01*
X-12517Y-7867D01*
X-12540Y-7859D01*
X-12562Y-7848D01*
X-12583Y-7834D01*
X-12600Y-7818D01*
X-12614Y-7799D01*
X-12624Y-7778D01*
X-12632Y-7753D01*
X-12638Y-7724D01*
X-12642Y-7689D01*
X-12643Y-7649D01*
X-12643Y-7296D01*
X-12754Y-7296D01*
X-12754Y-7955D01*
X-12655Y-7955D01*
X-12655Y-7955D01*
X-12927Y-7955D02*
X-12927Y-7046D01*
X-13038Y-7046D01*
X-13038Y-7955D01*
X-12927Y-7955D01*
X-12927Y-7955D01*
X-13206Y-8209D02*
X-13194Y-8104D01*
X-13212Y-8108D01*
X-13228Y-8111D01*
X-13244Y-8113D01*
X-13258Y-8114D01*
X-13276Y-8113D01*
X-13291Y-8111D01*
X-13305Y-8107D01*
X-13317Y-8101D01*
X-13328Y-8095D01*
X-13338Y-8086D01*
X-13346Y-8077D01*
X-13354Y-8067D01*
X-13360Y-8055D01*
X-13368Y-8037D01*
X-13377Y-8014D01*
X-13388Y-7984D01*
X-13390Y-7978D01*
X-13392Y-7972D01*
X-13395Y-7965D01*
X-13398Y-7956D01*
X-13148Y-7296D01*
X-13268Y-7296D01*
X-13405Y-7678D01*
X-13418Y-7715D01*
X-13431Y-7752D01*
X-13442Y-7791D01*
X-13453Y-7830D01*
X-13463Y-7792D01*
X-13474Y-7754D01*
X-13486Y-7717D01*
X-13499Y-7680D01*
X-13640Y-7296D01*
X-13751Y-7296D01*
X-13501Y-7966D01*
X-13482Y-8016D01*
X-13465Y-8058D01*
X-13451Y-8091D01*
X-13438Y-8116D01*
X-13423Y-8141D01*
X-13406Y-8163D01*
X-13389Y-8182D01*
X-13370Y-8197D01*
X-13350Y-8208D01*
X-13328Y-8216D01*
X-13304Y-8221D01*
X-13278Y-8222D01*
X-13262Y-8221D01*
X-13244Y-8219D01*
X-13226Y-8215D01*
X-13206Y-8209D01*
X-13206Y-8209D01*
X-14200Y-7368D02*
X-14171Y-7198D01*
X-14171Y-7046D01*
X-14298Y-7046D01*
X-14298Y-7198D01*
X-14269Y-7368D01*
X-14200Y-7368D01*
X-14200Y-7368D01*
X-14831Y-7955D02*
X-14720Y-7955D01*
X-14720Y-7244D01*
X-14698Y-7263D01*
X-14673Y-7282D01*
X-14645Y-7301D01*
X-14614Y-7321D01*
X-14582Y-7339D01*
X-14552Y-7354D01*
X-14523Y-7367D01*
X-14496Y-7378D01*
X-14496Y-7270D01*
X-14542Y-7247D01*
X-14584Y-7222D01*
X-14623Y-7194D01*
X-14660Y-7164D01*
X-14692Y-7133D01*
X-14720Y-7102D01*
X-14742Y-7072D01*
X-14759Y-7042D01*
X-14831Y-7042D01*
X-14831Y-7955D01*
X-14831Y-7955D01*
X-15289Y-7462D02*
X-15325Y-7532D01*
X-15310Y-7540D01*
X-15282Y-7562D01*
X-15260Y-7590D01*
X-15243Y-7621D01*
X-15234Y-7655D01*
X-15230Y-7693D01*
X-15230Y-7693D01*
X-15232Y-7716D01*
X-15236Y-7740D01*
X-15243Y-7763D01*
X-15253Y-7785D01*
X-15266Y-7806D01*
X-15281Y-7825D01*
X-15299Y-7841D01*
X-15320Y-7854D01*
X-15343Y-7865D01*
X-15367Y-7873D01*
X-15391Y-7877D01*
X-15417Y-7879D01*
X-15455Y-7876D01*
X-15490Y-7866D01*
X-15521Y-7850D01*
X-15549Y-7827D01*
X-15571Y-7800D01*
X-15588Y-7769D01*
X-15597Y-7734D01*
X-15601Y-7696D01*
X-15597Y-7658D01*
X-15587Y-7623D01*
X-15571Y-7591D01*
X-15547Y-7563D01*
X-15519Y-7540D01*
X-15487Y-7524D01*
X-15451Y-7514D01*
X-15413Y-7510D01*
X-15375Y-7514D01*
X-15341Y-7523D01*
X-15325Y-7532D01*
X-15289Y-7462D01*
X-15330Y-7396D01*
X-15356Y-7409D01*
X-15384Y-7417D01*
X-15416Y-7419D01*
X-15447Y-7417D01*
X-15475Y-7409D01*
X-15500Y-7396D01*
X-15522Y-7379D01*
X-15540Y-7357D01*
X-15553Y-7333D01*
X-15560Y-7307D01*
X-15563Y-7279D01*
X-15560Y-7250D01*
X-15552Y-7223D01*
X-15539Y-7198D01*
X-15520Y-7176D01*
X-15498Y-7158D01*
X-15473Y-7144D01*
X-15445Y-7137D01*
X-15415Y-7134D01*
X-15384Y-7137D01*
X-15356Y-7144D01*
X-15331Y-7157D01*
X-15309Y-7175D01*
X-15290Y-7196D01*
X-15277Y-7220D01*
X-15269Y-7245D01*
X-15266Y-7273D01*
X-15266Y-7273D01*
X-15269Y-7304D01*
X-15277Y-7331D01*
X-15290Y-7356D01*
X-15308Y-7378D01*
X-15330Y-7396D01*
X-15289Y-7462D01*
X-15256Y-7448D01*
X-15228Y-7431D01*
X-15205Y-7412D01*
X-15186Y-7389D01*
X-15171Y-7365D01*
X-15161Y-7338D01*
X-15154Y-7308D01*
X-15152Y-7277D01*
X-15157Y-7229D01*
X-15170Y-7185D01*
X-15192Y-7146D01*
X-15224Y-7110D01*
X-15262Y-7080D01*
X-15307Y-7059D01*
X-15357Y-7046D01*
X-15413Y-7042D01*
X-15470Y-7047D01*
X-15521Y-7059D01*
X-15566Y-7081D01*
X-15605Y-7111D01*
X-15637Y-7148D01*
X-15659Y-7188D01*
X-15673Y-7232D01*
X-15678Y-7280D01*
X-15676Y-7310D01*
X-15669Y-7339D01*
X-15659Y-7365D01*
X-15644Y-7390D01*
X-15626Y-7412D01*
X-15603Y-7431D01*
X-15575Y-7448D01*
X-15544Y-7462D01*
X-15583Y-7478D01*
X-15617Y-7498D01*
X-15647Y-7522D01*
X-15671Y-7550D01*
X-15690Y-7582D01*
X-15704Y-7617D01*
X-15712Y-7654D01*
X-15715Y-7695D01*
X-15710Y-7751D01*
X-15694Y-7802D01*
X-15668Y-7849D01*
X-15632Y-7891D01*
X-15588Y-7926D01*
X-15537Y-7951D01*
X-15479Y-7966D01*
X-15415Y-7971D01*
X-15351Y-7966D01*
X-15294Y-7951D01*
X-15243Y-7926D01*
X-15198Y-7891D01*
X-15162Y-7849D01*
X-15136Y-7801D01*
X-15121Y-7749D01*
X-15116Y-7692D01*
X-15119Y-7650D01*
X-15127Y-7611D01*
X-15141Y-7575D01*
X-15161Y-7544D01*
X-15186Y-7516D01*
X-15215Y-7493D01*
X-15250Y-7475D01*
X-15289Y-7462D01*
X-15289Y-7462D01*
G37*
M02*