%FSLAX33Y33*%
%MOMM*%
%AMRect-W670710-H1320710-RO1.500*
21,1,0.67071,1.32071,0.,0.,90*%
%AMRR-H1749999-W549999-R274999-RO1.500*
21,1,0.000001,1.749999,0.,0.,90*
21,1,0.549999,1.200001,0.,0.,90*
1,1,0.549998,-0.6000005,-0.0000005*
1,1,0.549998,-0.6000005,0.0000005*
1,1,0.549998,0.6000005,0.0000005*
1,1,0.549998,0.6000005,-0.0000005*%
%AMRR-H1749999-W549999-R274999-RO0.000*
21,1,0.000001,1.749999,0.,0.,360*
21,1,0.549999,1.200001,0.,0.,360*
1,1,0.549998,-0.0000005,0.6000005*
1,1,0.549998,0.0000005,0.6000005*
1,1,0.549998,0.0000005,-0.6000005*
1,1,0.549998,-0.0000005,-0.6000005*%
%AMRect-W670710-H870710-RO1.000*
21,1,0.67071,0.87071,0.,0.,180*%
%AMRect-W670710-H1320710-RO0.500*
21,1,0.67071,1.32071,0.,0.,270*%
%AMRect-W670710-H870710-RO1.500*
21,1,0.67071,0.87071,0.,0.,90*%
%AMRect-W670710-H870710-RO0.500*
21,1,0.67071,0.87071,0.,0.,270*%
%ADD10R,0.67071X0.87071*%
%ADD11Rect-W670710-H1320710-RO1.500*%
%ADD12RR-H1749999-W549999-R274999-RO1.500*%
%ADD13RR-H1749999-W549999-R274999-RO0.000*%
%ADD14Rect-W670710-H870710-RO1.000*%
%ADD15Rect-W670710-H1320710-RO0.500*%
%ADD16Rect-W670710-H870710-RO1.500*%
%ADD17Rect-W670710-H870710-RO0.500*%
D10*
%LNtop paste_traces*%
%LNtop paste component 70b09bb2818ad89b*%
G01*
X8560Y10950D03*
X10260Y10950D03*
%LNtop paste component acdc2106e7d7a5b5*%
D11*
X14050Y2540D03*
X14050Y4640D03*
%LNtop paste component bbcc82406b5c7a3e*%
D12*
X-1425Y4125D03*
X-1425Y3325D03*
X-1425Y2525D03*
X-1425Y1725D03*
X-1425Y0925D03*
X-1425Y0125D03*
X-1425Y-0675D03*
X-1425Y-1475D03*
X-1425Y-2275D03*
X-1425Y-3075D03*
X-1425Y-3875D03*
D13*
X0225Y-5525D03*
X1025Y-5525D03*
X1825Y-5525D03*
X2625Y-5525D03*
X3425Y-5525D03*
X4225Y-5525D03*
X5025Y-5525D03*
X5825Y-5525D03*
X6625Y-5525D03*
X7425Y-5525D03*
X8225Y-5525D03*
D12*
X9875Y-3875D03*
X9875Y-3075D03*
X9875Y-2275D03*
X9875Y-1475D03*
X9875Y-0675D03*
X9875Y0125D03*
X9875Y0925D03*
X9875Y1725D03*
X9875Y2525D03*
X9875Y3325D03*
X9875Y4125D03*
D13*
X8225Y5775D03*
X7425Y5775D03*
X6625Y5775D03*
X5825Y5775D03*
X5025Y5775D03*
X4225Y5775D03*
X3425Y5775D03*
X2625Y5775D03*
X1825Y5775D03*
X1025Y5775D03*
X0225Y5775D03*
%LNtop paste component fb79a13baf4f1f43*%
D14*
X-14550Y2540D03*
X-16250Y2540D03*
%LNtop paste component 582b67b412e03a97*%
D15*
X2540Y14625D03*
X2540Y12525D03*
%LNtop paste component 899d837000a321f6*%
D14*
X-14550Y0D03*
X-16250Y0D03*
%LNtop paste component 4a537383a56f4947*%
D10*
X15625Y-2540D03*
X17325Y-2540D03*
%LNtop paste component 78e04b5164b9cf10*%
D14*
X-14550Y-2540D03*
X-16250Y-2540D03*
%LNtop paste component 5e86fa16ded1a20c*%
D10*
X15625Y2540D03*
X17325Y2540D03*
%LNtop paste component 777d56a3b3942ac7*%
X4780Y-13700D03*
X6480Y-13700D03*
%LNtop paste component 05bb4b2115a262c6*%
D11*
X10375Y-14975D03*
X10375Y-12875D03*
%LNtop paste component bc2a92881df52052*%
D14*
X13800Y10950D03*
X12100Y10950D03*
%LNtop paste component 919d1acac43f7cf5*%
D15*
X-12715Y2300D03*
X-12715Y0200D03*
%LNtop paste component c1e2ca1b4103e897*%
D16*
X0Y16475D03*
X0Y18175D03*
%LNtop paste component 557e759dcb5dd2a6*%
X2540Y16475D03*
X2540Y18175D03*
%LNtop paste component 55f65207dfb3c681*%
D17*
X-2540Y-16275D03*
X-2540Y-17975D03*
%LNtop paste component 3a3a2cfcd27fe13b*%
D10*
X15625Y0D03*
X17325Y0D03*
%LNtop paste component dccc935fa88e421f*%
D16*
X-2540Y16475D03*
X-2540Y18175D03*
%LNtop paste component 6f96558951de62c9*%
D10*
X8560Y9400D03*
X10260Y9400D03*
%LNtop paste component fbd389026ec22525*%
D17*
X0Y-16275D03*
X0Y-17975D03*
%LNtop paste component 88a4d5fcc0e14ff3*%
D14*
X13800Y9400D03*
X12100Y9400D03*
%LNtop paste component 474d5e9ebbd1a6df*%
D17*
X2540Y-16275D03*
X2540Y-17975D03*
M02*