%FSLAX33Y33*%
%MOMM*%
%AMRect-W1550000-H1550000-RO0.500*
21,1,1.55,1.55,0.,0.,270*%
%AMRect-W1570000-H1570000-RO1.000*
21,1,1.57,1.57,0.,0.,180*%
%ADD10C,0.0508*%
%ADD11C,0.508*%
%ADD12C,1.0668*%
%ADD13R,1.55X1.55*%
%ADD14C,1.55*%
%ADD15C,3.*%
%ADD16C,1.55*%
%ADD17Rect-W1550000-H1550000-RO0.500*%
%ADD18C,1.57*%
%ADD19Rect-W1570000-H1570000-RO1.000*%
D10*
%LNpour fill*%
G01*
X19225Y-11989D02*
X19225Y-11989D01*
X19225Y11989*
X11989Y19225*
X-11989Y19225*
X-19225Y11989*
X-19225Y-11989*
X-11989Y-19225*
X11989Y-19225*
X19225Y-11989*
X0902Y-17359D02*
X0902Y-17359D01*
X0993Y-17350*
X0996Y-17349*
X1084Y-17322*
X1086Y-17321*
X1168Y-17278*
X1170Y-17276*
X1241Y-17218*
X1242Y-17217*
X2742Y-15716*
X2807Y-15732*
X2810Y-15733*
X2990Y-15733*
X2993Y-15732*
X3169Y-15689*
X3172Y-15688*
X3332Y-15604*
X3335Y-15602*
X3468Y-15484*
X10351Y-15484*
X10352Y-15484*
X10443Y-15475*
X10446Y-15474*
X10534Y-15447*
X10536Y-15446*
X10618Y-15403*
X10620Y-15401*
X10691Y-15343*
X10692Y-15342*
X11562Y-14472*
X11726Y-14472*
X11729Y-14472*
X11905Y-14429*
X11907Y-14427*
X12068Y-14343*
X12070Y-14342*
X12205Y-14222*
X12208Y-14219*
X12310Y-14071*
X12312Y-14068*
X12376Y-13899*
X12377Y-13896*
X12398Y-13716*
X12398Y-13713*
X12377Y-13533*
X12376Y-13531*
X12312Y-13361*
X12310Y-13359*
X12208Y-13210*
X12205Y-13207*
X12119Y-13131*
X12119Y-0459*
X12205Y-0382*
X12208Y-0380*
X12310Y-0231*
X12312Y-0228*
X12376Y-0059*
X12377Y-0056*
X12398Y0123*
X12398Y0127*
X12377Y0306*
X12376Y0309*
X12312Y0478*
X12310Y0481*
X12208Y0630*
X12205Y0632*
X12070Y0752*
X12068Y0754*
X11907Y0838*
X11905Y0839*
X11729Y0882*
X11726Y0883*
X11545Y0883*
X11542Y0882*
X11366Y0839*
X11363Y0838*
X11203Y0754*
X11201Y0752*
X11065Y0632*
X11063Y0630*
X10961Y0481*
X10959Y0478*
X10895Y0309*
X10894Y0306*
X10872Y0127*
X10872Y0123*
X10894Y-0056*
X10895Y-0059*
X10959Y-0228*
X10961Y-0231*
X11063Y-0380*
X11065Y-0382*
X11152Y-0459*
X11152Y-13131*
X11065Y-13207*
X11063Y-13210*
X10961Y-13359*
X10959Y-13361*
X10895Y-13531*
X10894Y-13533*
X10872Y-13713*
X10872Y-13716*
X10881Y-13785*
X10150Y-14516*
X3504Y-14516*
X3472Y-14470*
X3470Y-14468*
X3335Y-14348*
X3332Y-14346*
X3284Y-14321*
X3284Y-12700*
X3664Y-12320*
X3816Y-12357*
X3819Y-12357*
X4061Y-12357*
X4064Y-12357*
X4298Y-12299*
X4301Y-12298*
X4515Y-12186*
X4518Y-12184*
X4698Y-12024*
X4700Y-12022*
X4838Y-11823*
X4839Y-11820*
X4925Y-11594*
X4925Y-11591*
X4955Y-11352*
X4955Y-11348*
X4925Y-11109*
X4925Y-11106*
X4839Y-10880*
X4838Y-10877*
X4700Y-10678*
X4698Y-10676*
X4518Y-10516*
X4515Y-10514*
X4301Y-10402*
X4298Y-10401*
X4064Y-10343*
X4061Y-10343*
X3819Y-10343*
X3816Y-10343*
X3582Y-10401*
X3579Y-10402*
X3365Y-10514*
X3362Y-10516*
X3182Y-10676*
X3180Y-10678*
X3042Y-10877*
X3041Y-10880*
X2955Y-11106*
X2955Y-11109*
X2925Y-11348*
X2925Y-11352*
X2955Y-11591*
X2955Y-11594*
X2974Y-11643*
X2458Y-12158*
X2457Y-12159*
X2399Y-12230*
X2397Y-12232*
X2354Y-12314*
X2353Y-12316*
X2326Y-12404*
X2325Y-12407*
X2316Y-12498*
X2316Y-12499*
X2316Y-14487*
X2225Y-14619*
X2224Y-14622*
X2160Y-14791*
X2159Y-14794*
X2140Y-14951*
X0700Y-16391*
X-0375Y-16391*
X-2170Y-14596*
X-2162Y-14527*
X-2162Y-14523*
X-2184Y-14344*
X-2185Y-14341*
X-2249Y-14172*
X-2250Y-14169*
X-2353Y-14020*
X-2355Y-14018*
X-2490Y-13898*
X-2493Y-13896*
X-2653Y-13812*
X-2656Y-13811*
X-2832Y-13768*
X-2835Y-13767*
X-3015Y-13767*
X-3018Y-13768*
X-3194Y-13811*
X-3197Y-13812*
X-3357Y-13896*
X-3360Y-13898*
X-3495Y-14018*
X-3497Y-14020*
X-3512Y-14041*
X-5125Y-14041*
X-7766Y-11400*
X-7766Y-0584*
X-7680Y-0507*
X-7678Y-0505*
X-7575Y-0356*
X-7574Y-0353*
X-7510Y-0184*
X-7509Y-0181*
X-7487Y-0002*
X-7487Y0002*
X-7509Y0181*
X-7510Y0184*
X-7574Y0353*
X-7575Y0356*
X-7678Y0505*
X-7680Y0507*
X-7815Y0627*
X-7818Y0629*
X-7978Y0713*
X-7981Y0714*
X-8157Y0757*
X-8160Y0758*
X-8340Y0758*
X-8343Y0757*
X-8519Y0714*
X-8522Y0713*
X-8682Y0629*
X-8685Y0627*
X-8820Y0507*
X-8822Y0505*
X-8925Y0356*
X-8926Y0353*
X-8990Y0184*
X-8991Y0181*
X-9013Y0002*
X-9013Y-0002*
X-9005Y-0071*
X-10325Y-1391*
X-11575Y-1391*
X-12891Y-0075*
X-12891Y8350*
X-9945Y11296*
X-9793Y11258*
X-9790Y11258*
X-9550Y11258*
X-9547Y11258*
X-9315Y11315*
X-9312Y11316*
X-9101Y11427*
X-9098Y11429*
X-8919Y11588*
X-8917Y11590*
X-8781Y11787*
X-8780Y11790*
X-8695Y12013*
X-8694Y12016*
X-8665Y12253*
X-8665Y12257*
X-8694Y12494*
X-8695Y12497*
X-8780Y12720*
X-8781Y12723*
X-8917Y12920*
X-8919Y12922*
X-9098Y13081*
X-9101Y13083*
X-9312Y13194*
X-9315Y13195*
X-9547Y13252*
X-9550Y13252*
X-9790Y13252*
X-9793Y13252*
X-9945Y13214*
X-10474Y13743*
X-10455Y13790*
X-9761Y13790*
X-9746Y13805*
X-9746Y14045*
X-9594Y14045*
X-9594Y13805*
X-9579Y13790*
X-8894Y13790*
X-8893Y13790*
X-8860Y13793*
X-8858Y13793*
X-8825Y13801*
X-8823Y13802*
X-8792Y13815*
X-8790Y13816*
X-8761Y13834*
X-8759Y13835*
X-8733Y13857*
X-8732Y13858*
X-8710Y13884*
X-8709Y13886*
X-8691Y13915*
X-8690Y13917*
X-8677Y13948*
X-8676Y13950*
X-8668Y13983*
X-8668Y13985*
X-8665Y14018*
X-8665Y14019*
X-8665Y14704*
X-8680Y14719*
X-8920Y14719*
X-8920Y14871*
X-8680Y14871*
X-8665Y14886*
X-8665Y15571*
X-8665Y15572*
X-8668Y15605*
X-8668Y15607*
X-8676Y15640*
X-8677Y15642*
X-8690Y15673*
X-8691Y15675*
X-8709Y15704*
X-8710Y15706*
X-8732Y15732*
X-8733Y15733*
X-8759Y15755*
X-8761Y15756*
X-8790Y15774*
X-8792Y15775*
X-8823Y15788*
X-8825Y15789*
X-8858Y15797*
X-8860Y15797*
X-8894Y15800*
X-8895Y15800*
X-9579Y15800*
X-9594Y15785*
X-9594Y15545*
X-9746Y15545*
X-9746Y15785*
X-9761Y15800*
X-10445Y15800*
X-10446Y15800*
X-10480Y15797*
X-10482Y15797*
X-10515Y15789*
X-10517Y15788*
X-10548Y15775*
X-10550Y15774*
X-10579Y15756*
X-10581Y15755*
X-10607Y15733*
X-10608Y15732*
X-10630Y15706*
X-10631Y15704*
X-10649Y15675*
X-10650Y15673*
X-10663Y15642*
X-10664Y15640*
X-10672Y15607*
X-10672Y15605*
X-10675Y15571*
X-10675Y15570*
X-10675Y14886*
X-10660Y14871*
X-10420Y14871*
X-10420Y14719*
X-10660Y14719*
X-10675Y14704*
X-10675Y14010*
X-10722Y13991*
X-11766Y15035*
X-11766Y16750*
X-10775Y17741*
X-6425Y17741*
X-0630Y11946*
X-0638Y11877*
X-0638Y11873*
X-0616Y11694*
X-0615Y11691*
X-0551Y11522*
X-0550Y11519*
X-0447Y11370*
X-0445Y11368*
X-0310Y11248*
X-0307Y11246*
X-0147Y11162*
X-0144Y11161*
X0032Y11118*
X0035Y11117*
X0215Y11117*
X0218Y11118*
X0394Y11161*
X0397Y11162*
X0557Y11246*
X0560Y11248*
X0695Y11368*
X0697Y11370*
X0800Y11519*
X0801Y11522*
X0865Y11691*
X0866Y11694*
X0888Y11873*
X0888Y11877*
X0866Y12056*
X0865Y12059*
X0801Y12228*
X0800Y12231*
X0697Y12380*
X0695Y12382*
X0560Y12502*
X0557Y12504*
X0397Y12588*
X0394Y12589*
X0218Y12632*
X0215Y12633*
X0051Y12633*
X-5883Y18567*
X-5884Y18568*
X-5955Y18626*
X-5957Y18628*
X-6039Y18671*
X-6041Y18672*
X-6129Y18699*
X-6132Y18700*
X-6223Y18709*
X-6224Y18709*
X-10976Y18709*
X-10977Y18709*
X-11068Y18700*
X-11071Y18699*
X-11159Y18672*
X-11161Y18671*
X-11243Y18628*
X-11245Y18626*
X-11316Y18568*
X-11317Y18567*
X-12592Y17292*
X-12593Y17291*
X-12651Y17220*
X-12653Y17218*
X-12696Y17136*
X-12697Y17134*
X-12724Y17046*
X-12725Y17043*
X-12734Y16952*
X-12734Y16951*
X-12734Y14834*
X-12734Y14833*
X-12725Y14742*
X-12724Y14739*
X-12697Y14651*
X-12696Y14649*
X-12653Y14567*
X-12651Y14565*
X-12593Y14494*
X-12592Y14493*
X-10632Y12533*
X-10645Y12497*
X-10646Y12494*
X-10675Y12257*
X-10675Y12253*
X-10646Y12016*
X-10645Y12013*
X-10632Y11977*
X-13717Y8892*
X-13718Y8891*
X-13776Y8820*
X-13778Y8818*
X-13821Y8736*
X-13822Y8734*
X-13849Y8646*
X-13850Y8643*
X-13859Y8552*
X-13859Y8551*
X-13859Y-0276*
X-13859Y-0277*
X-13850Y-0368*
X-13849Y-0371*
X-13822Y-0459*
X-13821Y-0461*
X-13778Y-0543*
X-13776Y-0545*
X-13718Y-0616*
X-13717Y-0617*
X-12117Y-2217*
X-12116Y-2218*
X-12045Y-2276*
X-12043Y-2278*
X-11961Y-2321*
X-11959Y-2322*
X-11871Y-2349*
X-11868Y-2350*
X-11777Y-2359*
X-11776Y-2359*
X-10124Y-2359*
X-10123Y-2359*
X-10032Y-2350*
X-10029Y-2349*
X-9941Y-2322*
X-9939Y-2321*
X-9857Y-2278*
X-9855Y-2276*
X-9784Y-2218*
X-9783Y-2217*
X-8781Y-1215*
X-8734Y-1234*
X-8734Y-11601*
X-8734Y-11602*
X-8725Y-11693*
X-8724Y-11696*
X-8697Y-11784*
X-8696Y-11786*
X-8653Y-11868*
X-8651Y-11870*
X-8593Y-11941*
X-8592Y-11942*
X-5667Y-14867*
X-5666Y-14868*
X-5595Y-14926*
X-5593Y-14928*
X-5511Y-14971*
X-5509Y-14972*
X-5421Y-14999*
X-5418Y-15000*
X-5327Y-15009*
X-5326Y-15009*
X-3512Y-15009*
X-3497Y-15030*
X-3495Y-15032*
X-3360Y-15152*
X-3357Y-15154*
X-3197Y-15238*
X-3194Y-15239*
X-3018Y-15282*
X-3015Y-15283*
X-2851Y-15283*
X-0917Y-17217*
X-0916Y-17218*
X-0845Y-17276*
X-0843Y-17278*
X-0761Y-17321*
X-0759Y-17322*
X-0671Y-17349*
X-0668Y-17350*
X-0577Y-17359*
X-0576Y-17359*
X0901Y-17359*
X0902Y-17359*
X-7206Y13812D02*
X-7206Y13812D01*
X-7206Y14051*
X-7054Y14051*
X-7054Y13812*
X-7039Y13798*
X-7010Y13798*
X-7007Y13798*
X-6775Y13855*
X-6772Y13856*
X-6561Y13967*
X-6558Y13969*
X-6379Y14128*
X-6377Y14130*
X-6241Y14327*
X-6240Y14330*
X-6155Y14553*
X-6154Y14556*
X-6137Y14702*
X-6152Y14719*
X-6380Y14719*
X-6380Y14871*
X-6152Y14871*
X-6137Y14888*
X-6154Y15034*
X-6155Y15037*
X-6240Y15260*
X-6241Y15263*
X-6377Y15460*
X-6379Y15462*
X-6558Y15621*
X-6561Y15623*
X-6772Y15734*
X-6775Y15735*
X-7007Y15792*
X-7010Y15792*
X-7039Y15792*
X-7054Y15778*
X-7054Y15539*
X-7206Y15539*
X-7206Y15778*
X-7221Y15792*
X-7250Y15792*
X-7253Y15792*
X-7485Y15735*
X-7488Y15734*
X-7699Y15623*
X-7702Y15621*
X-7881Y15462*
X-7883Y15460*
X-8019Y15263*
X-8020Y15260*
X-8105Y15037*
X-8106Y15034*
X-8123Y14888*
X-8108Y14871*
X-7880Y14871*
X-7880Y14719*
X-8108Y14719*
X-8123Y14702*
X-8106Y14556*
X-8105Y14553*
X-8020Y14330*
X-8019Y14327*
X-7883Y14130*
X-7881Y14128*
X-7702Y13969*
X-7699Y13967*
X-7488Y13856*
X-7485Y13855*
X-7253Y13798*
X-7250Y13798*
X-7221Y13798*
X-7206Y13812*
X-7007Y11258D02*
X-7007Y11258D01*
X-6775Y11315*
X-6772Y11316*
X-6561Y11427*
X-6558Y11429*
X-6379Y11588*
X-6377Y11590*
X-6241Y11787*
X-6240Y11790*
X-6155Y12013*
X-6154Y12016*
X-6125Y12253*
X-6125Y12257*
X-6154Y12494*
X-6155Y12497*
X-6240Y12720*
X-6241Y12723*
X-6377Y12920*
X-6379Y12922*
X-6558Y13081*
X-6561Y13083*
X-6772Y13194*
X-6775Y13195*
X-7007Y13252*
X-7010Y13252*
X-7250Y13252*
X-7253Y13252*
X-7485Y13195*
X-7488Y13194*
X-7699Y13083*
X-7702Y13081*
X-7881Y12922*
X-7883Y12920*
X-8019Y12723*
X-8020Y12720*
X-8105Y12497*
X-8106Y12494*
X-8135Y12257*
X-8135Y12253*
X-8106Y12016*
X-8105Y12013*
X-8020Y11790*
X-8019Y11787*
X-7883Y11590*
X-7881Y11588*
X-7702Y11429*
X-7699Y11427*
X-7488Y11316*
X-7485Y11315*
X-7253Y11258*
X-7250Y11258*
X-7010Y11258*
X-7007Y11258*
X-9547Y8718D02*
X-9547Y8718D01*
X-9315Y8775*
X-9312Y8776*
X-9101Y8887*
X-9098Y8889*
X-8919Y9048*
X-8917Y9050*
X-8781Y9247*
X-8780Y9250*
X-8695Y9473*
X-8694Y9476*
X-8665Y9713*
X-8665Y9717*
X-8694Y9954*
X-8695Y9957*
X-8780Y10180*
X-8781Y10183*
X-8917Y10380*
X-8919Y10382*
X-9098Y10541*
X-9101Y10543*
X-9312Y10654*
X-9315Y10655*
X-9547Y10712*
X-9550Y10712*
X-9790Y10712*
X-9793Y10712*
X-10025Y10655*
X-10028Y10654*
X-10239Y10543*
X-10242Y10541*
X-10421Y10382*
X-10423Y10380*
X-10559Y10183*
X-10560Y10180*
X-10645Y9957*
X-10646Y9954*
X-10675Y9717*
X-10675Y9713*
X-10646Y9476*
X-10645Y9473*
X-10560Y9250*
X-10559Y9247*
X-10423Y9050*
X-10421Y9048*
X-10242Y8889*
X-10239Y8887*
X-10028Y8776*
X-10025Y8775*
X-9793Y8718*
X-9790Y8718*
X-9550Y8718*
X-9547Y8718*
X-7007Y8718D02*
X-7007Y8718D01*
X-6775Y8775*
X-6772Y8776*
X-6561Y8887*
X-6558Y8889*
X-6379Y9048*
X-6377Y9050*
X-6241Y9247*
X-6240Y9250*
X-6155Y9473*
X-6154Y9476*
X-6125Y9713*
X-6125Y9717*
X-6154Y9954*
X-6155Y9957*
X-6240Y10180*
X-6241Y10183*
X-6377Y10380*
X-6379Y10382*
X-6558Y10541*
X-6561Y10543*
X-6772Y10654*
X-6775Y10655*
X-7007Y10712*
X-7010Y10712*
X-7250Y10712*
X-7253Y10712*
X-7485Y10655*
X-7488Y10654*
X-7699Y10543*
X-7702Y10541*
X-7881Y10382*
X-7883Y10380*
X-8019Y10183*
X-8020Y10180*
X-8105Y9957*
X-8106Y9954*
X-8135Y9717*
X-8135Y9713*
X-8106Y9476*
X-8105Y9473*
X-8020Y9250*
X-8019Y9247*
X-7883Y9050*
X-7881Y9048*
X-7702Y8889*
X-7699Y8887*
X-7488Y8776*
X-7485Y8775*
X-7253Y8718*
X-7250Y8718*
X-7010Y8718*
X-7007Y8718*
X-9547Y6178D02*
X-9547Y6178D01*
X-9315Y6235*
X-9312Y6236*
X-9101Y6347*
X-9098Y6349*
X-8919Y6508*
X-8917Y6510*
X-8781Y6707*
X-8780Y6710*
X-8695Y6933*
X-8694Y6936*
X-8665Y7173*
X-8665Y7177*
X-8694Y7414*
X-8695Y7417*
X-8780Y7640*
X-8781Y7643*
X-8917Y7840*
X-8919Y7842*
X-9098Y8001*
X-9101Y8003*
X-9312Y8114*
X-9315Y8115*
X-9547Y8172*
X-9550Y8172*
X-9790Y8172*
X-9793Y8172*
X-10025Y8115*
X-10028Y8114*
X-10239Y8003*
X-10242Y8001*
X-10421Y7842*
X-10423Y7840*
X-10559Y7643*
X-10560Y7640*
X-10645Y7417*
X-10646Y7414*
X-10675Y7177*
X-10675Y7173*
X-10646Y6936*
X-10645Y6933*
X-10560Y6710*
X-10559Y6707*
X-10423Y6510*
X-10421Y6508*
X-10242Y6349*
X-10239Y6347*
X-10028Y6236*
X-10025Y6235*
X-9793Y6178*
X-9790Y6178*
X-9550Y6178*
X-9547Y6178*
X-7007Y6178D02*
X-7007Y6178D01*
X-6775Y6235*
X-6772Y6236*
X-6561Y6347*
X-6558Y6349*
X-6379Y6508*
X-6377Y6510*
X-6241Y6707*
X-6240Y6710*
X-6155Y6933*
X-6154Y6936*
X-6125Y7173*
X-6125Y7177*
X-6154Y7414*
X-6155Y7417*
X-6240Y7640*
X-6241Y7643*
X-6377Y7840*
X-6379Y7842*
X-6558Y8001*
X-6561Y8003*
X-6772Y8114*
X-6775Y8115*
X-7007Y8172*
X-7010Y8172*
X-7250Y8172*
X-7253Y8172*
X-7485Y8115*
X-7488Y8114*
X-7699Y8003*
X-7702Y8001*
X-7881Y7842*
X-7883Y7840*
X-8019Y7643*
X-8020Y7640*
X-8105Y7417*
X-8106Y7414*
X-8135Y7177*
X-8135Y7173*
X-8106Y6936*
X-8105Y6933*
X-8020Y6710*
X-8019Y6707*
X-7883Y6510*
X-7881Y6508*
X-7702Y6349*
X-7699Y6347*
X-7488Y6236*
X-7485Y6235*
X-7253Y6178*
X-7250Y6178*
X-7010Y6178*
X-7007Y6178*
X7266Y-12365D02*
X7266Y-12365D01*
X7300Y-12362*
X7302Y-12362*
X7335Y-12354*
X7337Y-12353*
X7368Y-12340*
X7370Y-12339*
X7399Y-12321*
X7401Y-12320*
X7427Y-12298*
X7428Y-12297*
X7450Y-12271*
X7451Y-12269*
X7469Y-12240*
X7470Y-12238*
X7483Y-12207*
X7484Y-12205*
X7492Y-12172*
X7492Y-12170*
X7495Y-12136*
X7495Y-12135*
X7495Y-10565*
X7495Y-10564*
X7492Y-10530*
X7492Y-10528*
X7484Y-10495*
X7483Y-10493*
X7470Y-10462*
X7469Y-10460*
X7451Y-10431*
X7450Y-10429*
X7428Y-10403*
X7427Y-10402*
X7401Y-10380*
X7399Y-10379*
X7370Y-10361*
X7368Y-10360*
X7337Y-10347*
X7335Y-10346*
X7302Y-10338*
X7300Y-10338*
X7267Y-10335*
X7266Y-10335*
X5694Y-10335*
X5693Y-10335*
X5660Y-10338*
X5658Y-10338*
X5625Y-10346*
X5623Y-10347*
X5592Y-10360*
X5590Y-10361*
X5561Y-10379*
X5559Y-10380*
X5533Y-10402*
X5532Y-10403*
X5510Y-10429*
X5509Y-10431*
X5491Y-10460*
X5490Y-10462*
X5477Y-10493*
X5476Y-10495*
X5468Y-10528*
X5468Y-10530*
X5465Y-10563*
X5465Y-10564*
X5465Y-12136*
X5465Y-12137*
X5468Y-12170*
X5468Y-12172*
X5476Y-12205*
X5477Y-12207*
X5490Y-12238*
X5491Y-12240*
X5509Y-12269*
X5510Y-12271*
X5532Y-12297*
X5533Y-12298*
X5559Y-12320*
X5561Y-12321*
X5590Y-12339*
X5592Y-12340*
X5623Y-12353*
X5625Y-12354*
X5658Y-12362*
X5660Y-12362*
X5694Y-12365*
X5695Y-12365*
X7265Y-12365*
X7266Y-12365*
X-3556Y-12357D02*
X-3556Y-12357D01*
X-3322Y-12299*
X-3319Y-12298*
X-3105Y-12186*
X-3102Y-12184*
X-2922Y-12024*
X-2920Y-12022*
X-2782Y-11823*
X-2781Y-11820*
X-2695Y-11594*
X-2695Y-11591*
X-2665Y-11352*
X-2665Y-11348*
X-2695Y-11109*
X-2695Y-11106*
X-2781Y-10880*
X-2782Y-10877*
X-2920Y-10678*
X-2922Y-10676*
X-3102Y-10516*
X-3105Y-10514*
X-3319Y-10402*
X-3322Y-10401*
X-3556Y-10343*
X-3559Y-10343*
X-3801Y-10343*
X-3804Y-10343*
X-4038Y-10401*
X-4041Y-10402*
X-4255Y-10514*
X-4258Y-10516*
X-4438Y-10676*
X-4440Y-10678*
X-4578Y-10877*
X-4579Y-10880*
X-4665Y-11106*
X-4665Y-11109*
X-4695Y-11348*
X-4695Y-11352*
X-4665Y-11591*
X-4665Y-11594*
X-4579Y-11820*
X-4578Y-11823*
X-4440Y-12022*
X-4438Y-12024*
X-4258Y-12184*
X-4255Y-12186*
X-4041Y-12298*
X-4038Y-12299*
X-3804Y-12357*
X-3801Y-12357*
X-3559Y-12357*
X-3556Y-12357*
X-1016Y-12357D02*
X-1016Y-12357D01*
X-0782Y-12299*
X-0779Y-12298*
X-0565Y-12186*
X-0562Y-12184*
X-0382Y-12024*
X-0380Y-12022*
X-0242Y-11823*
X-0241Y-11820*
X-0155Y-11594*
X-0155Y-11591*
X-0125Y-11352*
X-0125Y-11348*
X-0155Y-11109*
X-0155Y-11106*
X-0241Y-10880*
X-0242Y-10877*
X-0380Y-10678*
X-0382Y-10676*
X-0562Y-10516*
X-0565Y-10514*
X-0779Y-10402*
X-0782Y-10401*
X-1016Y-10343*
X-1019Y-10343*
X-1261Y-10343*
X-1264Y-10343*
X-1498Y-10401*
X-1501Y-10402*
X-1715Y-10514*
X-1718Y-10516*
X-1898Y-10676*
X-1900Y-10678*
X-2038Y-10877*
X-2039Y-10880*
X-2125Y-11106*
X-2125Y-11109*
X-2155Y-11348*
X-2155Y-11352*
X-2125Y-11591*
X-2125Y-11594*
X-2039Y-11820*
X-2038Y-11823*
X-1900Y-12022*
X-1898Y-12024*
X-1718Y-12184*
X-1715Y-12186*
X-1501Y-12298*
X-1498Y-12299*
X-1264Y-12357*
X-1261Y-12357*
X-1019Y-12357*
X-1016Y-12357*
X1324Y-12343D02*
X1324Y-12343D01*
X1324Y-12104*
X1476Y-12104*
X1476Y-12343*
X1491Y-12357*
X1521Y-12357*
X1524Y-12357*
X1758Y-12299*
X1761Y-12298*
X1975Y-12186*
X1978Y-12184*
X2158Y-12024*
X2160Y-12022*
X2298Y-11823*
X2299Y-11820*
X2385Y-11594*
X2385Y-11591*
X2415Y-11352*
X2415Y-11348*
X2385Y-11109*
X2385Y-11106*
X2299Y-10880*
X2298Y-10877*
X2160Y-10678*
X2158Y-10676*
X1978Y-10516*
X1975Y-10514*
X1761Y-10402*
X1758Y-10401*
X1524Y-10343*
X1521Y-10343*
X1491Y-10343*
X1476Y-10357*
X1476Y-10596*
X1324Y-10596*
X1324Y-10357*
X1309Y-10343*
X1279Y-10343*
X1276Y-10343*
X1042Y-10401*
X1039Y-10402*
X0825Y-10514*
X0822Y-10516*
X0642Y-10676*
X0640Y-10678*
X0502Y-10877*
X0501Y-10880*
X0415Y-11106*
X0415Y-11109*
X0397Y-11257*
X0412Y-11274*
X0640Y-11274*
X0640Y-11426*
X0412Y-11426*
X0397Y-11443*
X0415Y-11591*
X0415Y-11594*
X0501Y-11820*
X0502Y-11823*
X0640Y-12022*
X0642Y-12024*
X0822Y-12184*
X0825Y-12186*
X1039Y-12298*
X1042Y-12299*
X1276Y-12357*
X1279Y-12357*
X1309Y-12357*
X1324Y-12343*
X-12014Y-19200D02*
X12014Y-19200D01*
X-12063Y-19151D02*
X12063Y-19151D01*
X-12113Y-19101D02*
X12113Y-19101D01*
X-12162Y-19052D02*
X12162Y-19052D01*
X-12212Y-19002D02*
X12212Y-19002D01*
X-12261Y-18953D02*
X12261Y-18953D01*
X-12311Y-18903D02*
X12311Y-18903D01*
X-12360Y-18854D02*
X12360Y-18854D01*
X-12410Y-18804D02*
X12410Y-18804D01*
X-12459Y-18755D02*
X12459Y-18755D01*
X-12509Y-18705D02*
X12509Y-18705D01*
X-12558Y-18656D02*
X12558Y-18656D01*
X-12608Y-18606D02*
X12608Y-18606D01*
X-12657Y-18557D02*
X12657Y-18557D01*
X-12707Y-18507D02*
X12707Y-18507D01*
X-12757Y-18458D02*
X12757Y-18458D01*
X-12806Y-18408D02*
X12806Y-18408D01*
X-12856Y-18358D02*
X12856Y-18358D01*
X-12905Y-18309D02*
X12905Y-18309D01*
X-12955Y-18259D02*
X12955Y-18259D01*
X-13004Y-18210D02*
X13004Y-18210D01*
X-13054Y-18160D02*
X13054Y-18160D01*
X-13103Y-18111D02*
X13103Y-18111D01*
X-13153Y-18061D02*
X13153Y-18061D01*
X-13202Y-18012D02*
X13202Y-18012D01*
X-13252Y-17962D02*
X13252Y-17962D01*
X-13301Y-17913D02*
X13301Y-17913D01*
X-13351Y-17863D02*
X13351Y-17863D01*
X-13400Y-17814D02*
X13400Y-17814D01*
X-13450Y-17764D02*
X13450Y-17764D01*
X-13500Y-17715D02*
X13500Y-17715D01*
X-13549Y-17665D02*
X13549Y-17665D01*
X-13599Y-17616D02*
X13599Y-17616D01*
X-13648Y-17566D02*
X13648Y-17566D01*
X-13698Y-17516D02*
X13698Y-17516D01*
X-13747Y-17467D02*
X13747Y-17467D01*
X-13797Y-17417D02*
X13797Y-17417D01*
X-13846Y-17368D02*
X13846Y-17368D01*
X-13896Y-17318D02*
X-0767Y-17318D01*
X1092Y-17318D02*
X13896Y-17318D01*
X-13945Y-17269D02*
X-0854Y-17269D01*
X1179Y-17269D02*
X13945Y-17269D01*
X-13995Y-17219D02*
X-0914Y-17219D01*
X1239Y-17219D02*
X13995Y-17219D01*
X-14044Y-17170D02*
X-0964Y-17170D01*
X1289Y-17170D02*
X14044Y-17170D01*
X-14094Y-17120D02*
X-1014Y-17120D01*
X1339Y-17120D02*
X14094Y-17120D01*
X-14143Y-17071D02*
X-1063Y-17071D01*
X1388Y-17071D02*
X14143Y-17071D01*
X-14193Y-17021D02*
X-1113Y-17021D01*
X1438Y-17021D02*
X14193Y-17021D01*
X-14242Y-16972D02*
X-1162Y-16972D01*
X1487Y-16972D02*
X14242Y-16972D01*
X-14292Y-16922D02*
X-1212Y-16922D01*
X1537Y-16922D02*
X14292Y-16922D01*
X-14342Y-16873D02*
X-1261Y-16873D01*
X1586Y-16873D02*
X14342Y-16873D01*
X-14391Y-16823D02*
X-1311Y-16823D01*
X1636Y-16823D02*
X14391Y-16823D01*
X-14441Y-16774D02*
X-1360Y-16774D01*
X1685Y-16774D02*
X14441Y-16774D01*
X-14490Y-16724D02*
X-1410Y-16724D01*
X1735Y-16724D02*
X14490Y-16724D01*
X-14540Y-16674D02*
X-1459Y-16674D01*
X1784Y-16674D02*
X14540Y-16674D01*
X-14589Y-16625D02*
X-1509Y-16625D01*
X1834Y-16625D02*
X14589Y-16625D01*
X-14639Y-16575D02*
X-1559Y-16575D01*
X1884Y-16575D02*
X14639Y-16575D01*
X-14688Y-16526D02*
X-1608Y-16526D01*
X1933Y-16526D02*
X14688Y-16526D01*
X-14738Y-16476D02*
X-1658Y-16476D01*
X1983Y-16476D02*
X14738Y-16476D01*
X-14787Y-16427D02*
X-1707Y-16427D01*
X2032Y-16427D02*
X14787Y-16427D01*
X-14837Y-16377D02*
X-1757Y-16377D01*
X-0389Y-16377D02*
X0714Y-16377D01*
X2082Y-16377D02*
X14837Y-16377D01*
X-14886Y-16328D02*
X-1806Y-16328D01*
X-0438Y-16328D02*
X0763Y-16328D01*
X2131Y-16328D02*
X14886Y-16328D01*
X-14936Y-16278D02*
X-1856Y-16278D01*
X-0488Y-16278D02*
X0813Y-16278D01*
X2181Y-16278D02*
X14936Y-16278D01*
X-14985Y-16229D02*
X-1905Y-16229D01*
X-0537Y-16229D02*
X0862Y-16229D01*
X2230Y-16229D02*
X14985Y-16229D01*
X-15035Y-16179D02*
X-1955Y-16179D01*
X-0587Y-16179D02*
X0912Y-16179D01*
X2280Y-16179D02*
X15035Y-16179D01*
X-15084Y-16130D02*
X-2004Y-16130D01*
X-0636Y-16130D02*
X0961Y-16130D01*
X2329Y-16130D02*
X15084Y-16130D01*
X-15134Y-16080D02*
X-2054Y-16080D01*
X-0686Y-16080D02*
X1011Y-16080D01*
X2379Y-16080D02*
X15134Y-16080D01*
X-15184Y-16031D02*
X-2103Y-16031D01*
X-0736Y-16031D02*
X1061Y-16031D01*
X2428Y-16031D02*
X15184Y-16031D01*
X-15233Y-15981D02*
X-2153Y-15981D01*
X-0785Y-15981D02*
X1110Y-15981D01*
X2478Y-15981D02*
X15233Y-15981D01*
X-15283Y-15931D02*
X-2202Y-15931D01*
X-0835Y-15931D02*
X1160Y-15931D01*
X2527Y-15931D02*
X15283Y-15931D01*
X-15332Y-15882D02*
X-2252Y-15882D01*
X-0884Y-15882D02*
X1209Y-15882D01*
X2577Y-15882D02*
X15332Y-15882D01*
X-15382Y-15832D02*
X-2301Y-15832D01*
X-0934Y-15832D02*
X1259Y-15832D01*
X2626Y-15832D02*
X15382Y-15832D01*
X-15431Y-15783D02*
X-2351Y-15783D01*
X-0983Y-15783D02*
X1308Y-15783D01*
X2676Y-15783D02*
X15431Y-15783D01*
X-15481Y-15733D02*
X-2401Y-15733D01*
X-1033Y-15733D02*
X1358Y-15733D01*
X2726Y-15733D02*
X15481Y-15733D01*
X-15530Y-15684D02*
X-2450Y-15684D01*
X-1082Y-15684D02*
X1407Y-15684D01*
X3180Y-15684D02*
X15530Y-15684D01*
X-15580Y-15634D02*
X-2500Y-15634D01*
X-1132Y-15634D02*
X1457Y-15634D01*
X3274Y-15634D02*
X15580Y-15634D01*
X-15629Y-15585D02*
X-2549Y-15585D01*
X-1181Y-15585D02*
X1506Y-15585D01*
X3354Y-15585D02*
X15629Y-15585D01*
X-15679Y-15535D02*
X-2599Y-15535D01*
X-1231Y-15535D02*
X1556Y-15535D01*
X3410Y-15535D02*
X15679Y-15535D01*
X-15728Y-15486D02*
X-2648Y-15486D01*
X-1280Y-15486D02*
X1605Y-15486D01*
X3466Y-15486D02*
X15728Y-15486D01*
X-15778Y-15436D02*
X-2698Y-15436D01*
X-1330Y-15436D02*
X1655Y-15436D01*
X10555Y-15436D02*
X15778Y-15436D01*
X-15827Y-15387D02*
X-2747Y-15387D01*
X-1379Y-15387D02*
X1704Y-15387D01*
X10638Y-15387D02*
X15827Y-15387D01*
X-15877Y-15337D02*
X-2797Y-15337D01*
X-1429Y-15337D02*
X1754Y-15337D01*
X10697Y-15337D02*
X15877Y-15337D01*
X-15926Y-15288D02*
X-2846Y-15288D01*
X-1478Y-15288D02*
X1803Y-15288D01*
X10746Y-15288D02*
X15926Y-15288D01*
X-15976Y-15238D02*
X-3196Y-15238D01*
X-1528Y-15238D02*
X1853Y-15238D01*
X10796Y-15238D02*
X15976Y-15238D01*
X-16026Y-15189D02*
X-3291Y-15189D01*
X-1578Y-15189D02*
X1903Y-15189D01*
X10845Y-15189D02*
X16026Y-15189D01*
X-16075Y-15139D02*
X-3374Y-15139D01*
X-1627Y-15139D02*
X1952Y-15139D01*
X10895Y-15139D02*
X16075Y-15139D01*
X-16125Y-15089D02*
X-3430Y-15089D01*
X-1677Y-15089D02*
X2002Y-15089D01*
X10944Y-15089D02*
X16125Y-15089D01*
X-16174Y-15040D02*
X-3486Y-15040D01*
X-1726Y-15040D02*
X2051Y-15040D01*
X10994Y-15040D02*
X16174Y-15040D01*
X-16224Y-14990D02*
X-5449Y-14990D01*
X-1776Y-14990D02*
X2101Y-14990D01*
X11043Y-14990D02*
X16224Y-14990D01*
X-16273Y-14941D02*
X-5568Y-14941D01*
X-1825Y-14941D02*
X2141Y-14941D01*
X11093Y-14941D02*
X16273Y-14941D01*
X-16323Y-14891D02*
X-5637Y-14891D01*
X-1875Y-14891D02*
X2147Y-14891D01*
X11143Y-14891D02*
X16323Y-14891D01*
X-16372Y-14842D02*
X-5692Y-14842D01*
X-1924Y-14842D02*
X2153Y-14842D01*
X11192Y-14842D02*
X16372Y-14842D01*
X-16422Y-14792D02*
X-5742Y-14792D01*
X-1974Y-14792D02*
X2159Y-14792D01*
X11242Y-14792D02*
X16422Y-14792D01*
X-16471Y-14743D02*
X-5791Y-14743D01*
X-2023Y-14743D02*
X2178Y-14743D01*
X11291Y-14743D02*
X16471Y-14743D01*
X-16521Y-14693D02*
X-5841Y-14693D01*
X-2073Y-14693D02*
X2197Y-14693D01*
X11341Y-14693D02*
X16521Y-14693D01*
X-16570Y-14644D02*
X-5890Y-14644D01*
X-2122Y-14644D02*
X2215Y-14644D01*
X11390Y-14644D02*
X16570Y-14644D01*
X-16620Y-14594D02*
X-5940Y-14594D01*
X-2170Y-14594D02*
X2242Y-14594D01*
X11440Y-14594D02*
X16620Y-14594D01*
X-16669Y-14545D02*
X-5989Y-14545D01*
X-2164Y-14545D02*
X2276Y-14545D01*
X11489Y-14545D02*
X16669Y-14545D01*
X-16719Y-14495D02*
X-6039Y-14495D01*
X-2165Y-14495D02*
X2311Y-14495D01*
X3489Y-14495D02*
X10171Y-14495D01*
X11539Y-14495D02*
X16719Y-14495D01*
X-16768Y-14446D02*
X-6088Y-14446D01*
X-2171Y-14446D02*
X2316Y-14446D01*
X3445Y-14446D02*
X10220Y-14446D01*
X11835Y-14446D02*
X16768Y-14446D01*
X-16818Y-14396D02*
X-6138Y-14396D01*
X-2177Y-14396D02*
X2316Y-14396D01*
X3389Y-14396D02*
X10270Y-14396D01*
X11967Y-14396D02*
X16818Y-14396D01*
X-16868Y-14347D02*
X-6187Y-14347D01*
X-2183Y-14347D02*
X2316Y-14347D01*
X3333Y-14347D02*
X10320Y-14347D01*
X12062Y-14347D02*
X16868Y-14347D01*
X-16917Y-14297D02*
X-6237Y-14297D01*
X-2201Y-14297D02*
X2316Y-14297D01*
X3284Y-14297D02*
X10369Y-14297D01*
X12121Y-14297D02*
X16917Y-14297D01*
X-16967Y-14247D02*
X-6286Y-14247D01*
X-2220Y-14247D02*
X2316Y-14247D01*
X3284Y-14247D02*
X10419Y-14247D01*
X12176Y-14247D02*
X16967Y-14247D01*
X-17016Y-14198D02*
X-6336Y-14198D01*
X-2239Y-14198D02*
X2316Y-14198D01*
X3284Y-14198D02*
X10468Y-14198D01*
X12222Y-14198D02*
X17016Y-14198D01*
X-17066Y-14148D02*
X-6386Y-14148D01*
X-2264Y-14148D02*
X2316Y-14148D01*
X3284Y-14148D02*
X10518Y-14148D01*
X12257Y-14148D02*
X17066Y-14148D01*
X-17115Y-14099D02*
X-6435Y-14099D01*
X-2299Y-14099D02*
X2316Y-14099D01*
X3284Y-14099D02*
X10567Y-14099D01*
X12291Y-14099D02*
X17115Y-14099D01*
X-17165Y-14049D02*
X-6485Y-14049D01*
X-2333Y-14049D02*
X2316Y-14049D01*
X3284Y-14049D02*
X10617Y-14049D01*
X12319Y-14049D02*
X17165Y-14049D01*
X-17214Y-14000D02*
X-6534Y-14000D01*
X-5166Y-14000D02*
X-3475Y-14000D01*
X-2375Y-14000D02*
X2316Y-14000D01*
X3284Y-14000D02*
X10666Y-14000D01*
X12338Y-14000D02*
X17214Y-14000D01*
X-17264Y-13950D02*
X-6584Y-13950D01*
X-5216Y-13950D02*
X-3419Y-13950D01*
X-2431Y-13950D02*
X2316Y-13950D01*
X3284Y-13950D02*
X10716Y-13950D01*
X12356Y-13950D02*
X17264Y-13950D01*
X-17313Y-13901D02*
X-6633Y-13901D01*
X-5265Y-13901D02*
X-3363Y-13901D01*
X-2487Y-13901D02*
X2316Y-13901D01*
X3284Y-13901D02*
X10765Y-13901D01*
X12375Y-13901D02*
X17313Y-13901D01*
X-17363Y-13851D02*
X-6683Y-13851D01*
X-5315Y-13851D02*
X-3272Y-13851D01*
X-2578Y-13851D02*
X2316Y-13851D01*
X3284Y-13851D02*
X10815Y-13851D01*
X12382Y-13851D02*
X17363Y-13851D01*
X-17412Y-13802D02*
X-6732Y-13802D01*
X-5364Y-13802D02*
X-3156Y-13802D01*
X-2694Y-13802D02*
X2316Y-13802D01*
X3284Y-13802D02*
X10864Y-13802D01*
X12388Y-13802D02*
X17412Y-13802D01*
X-17462Y-13752D02*
X-6782Y-13752D01*
X-5414Y-13752D02*
X2316Y-13752D01*
X3284Y-13752D02*
X10877Y-13752D01*
X12394Y-13752D02*
X17462Y-13752D01*
X-17511Y-13703D02*
X-6831Y-13703D01*
X-5463Y-13703D02*
X2316Y-13703D01*
X3284Y-13703D02*
X10874Y-13703D01*
X12397Y-13703D02*
X17511Y-13703D01*
X-17561Y-13653D02*
X-6881Y-13653D01*
X-5513Y-13653D02*
X2316Y-13653D01*
X3284Y-13653D02*
X10880Y-13653D01*
X12391Y-13653D02*
X17561Y-13653D01*
X-17610Y-13604D02*
X-6930Y-13604D01*
X-5563Y-13604D02*
X2316Y-13604D01*
X3284Y-13604D02*
X10886Y-13604D01*
X12385Y-13604D02*
X17610Y-13604D01*
X-17660Y-13554D02*
X-6980Y-13554D01*
X-5612Y-13554D02*
X2316Y-13554D01*
X3284Y-13554D02*
X10892Y-13554D01*
X12379Y-13554D02*
X17660Y-13554D01*
X-17710Y-13505D02*
X-7029Y-13505D01*
X-5662Y-13505D02*
X2316Y-13505D01*
X3284Y-13505D02*
X10905Y-13505D01*
X12366Y-13505D02*
X17710Y-13505D01*
X-17759Y-13455D02*
X-7079Y-13455D01*
X-5711Y-13455D02*
X2316Y-13455D01*
X3284Y-13455D02*
X10924Y-13455D01*
X12347Y-13455D02*
X17759Y-13455D01*
X-17809Y-13405D02*
X-7128Y-13405D01*
X-5761Y-13405D02*
X2316Y-13405D01*
X3284Y-13405D02*
X10942Y-13405D01*
X12328Y-13405D02*
X17809Y-13405D01*
X-17858Y-13356D02*
X-7178Y-13356D01*
X-5810Y-13356D02*
X2316Y-13356D01*
X3284Y-13356D02*
X10962Y-13356D01*
X12308Y-13356D02*
X17858Y-13356D01*
X-17908Y-13306D02*
X-7228Y-13306D01*
X-5860Y-13306D02*
X2316Y-13306D01*
X3284Y-13306D02*
X10997Y-13306D01*
X12274Y-13306D02*
X17908Y-13306D01*
X-17957Y-13257D02*
X-7277Y-13257D01*
X-5909Y-13257D02*
X2316Y-13257D01*
X3284Y-13257D02*
X11031Y-13257D01*
X12240Y-13257D02*
X17957Y-13257D01*
X-18007Y-13207D02*
X-7327Y-13207D01*
X-5959Y-13207D02*
X2316Y-13207D01*
X3284Y-13207D02*
X11065Y-13207D01*
X12205Y-13207D02*
X18007Y-13207D01*
X-18056Y-13158D02*
X-7376Y-13158D01*
X-6008Y-13158D02*
X2316Y-13158D01*
X3284Y-13158D02*
X11121Y-13158D01*
X12149Y-13158D02*
X18056Y-13158D01*
X-18106Y-13108D02*
X-7426Y-13108D01*
X-6058Y-13108D02*
X2316Y-13108D01*
X3284Y-13108D02*
X11152Y-13108D01*
X12119Y-13108D02*
X18106Y-13108D01*
X-18155Y-13059D02*
X-7475Y-13059D01*
X-6107Y-13059D02*
X2316Y-13059D01*
X3284Y-13059D02*
X11152Y-13059D01*
X12119Y-13059D02*
X18155Y-13059D01*
X-18205Y-13009D02*
X-7525Y-13009D01*
X-6157Y-13009D02*
X2316Y-13009D01*
X3284Y-13009D02*
X11152Y-13009D01*
X12119Y-13009D02*
X18205Y-13009D01*
X-18254Y-12960D02*
X-7574Y-12960D01*
X-6206Y-12960D02*
X2316Y-12960D01*
X3284Y-12960D02*
X11152Y-12960D01*
X12119Y-12960D02*
X18254Y-12960D01*
X-18304Y-12910D02*
X-7624Y-12910D01*
X-6256Y-12910D02*
X2316Y-12910D01*
X3284Y-12910D02*
X11152Y-12910D01*
X12119Y-12910D02*
X18304Y-12910D01*
X-18353Y-12861D02*
X-7673Y-12861D01*
X-6305Y-12861D02*
X2316Y-12861D01*
X3284Y-12861D02*
X11152Y-12861D01*
X12119Y-12861D02*
X18353Y-12861D01*
X-18403Y-12811D02*
X-7723Y-12811D01*
X-6355Y-12811D02*
X2316Y-12811D01*
X3284Y-12811D02*
X11152Y-12811D01*
X12119Y-12811D02*
X18403Y-12811D01*
X-18453Y-12762D02*
X-7772Y-12762D01*
X-6405Y-12762D02*
X2316Y-12762D01*
X3284Y-12762D02*
X11152Y-12762D01*
X12119Y-12762D02*
X18453Y-12762D01*
X-18502Y-12712D02*
X-7822Y-12712D01*
X-6454Y-12712D02*
X2316Y-12712D01*
X3284Y-12712D02*
X11152Y-12712D01*
X12119Y-12712D02*
X18502Y-12712D01*
X-18552Y-12663D02*
X-7871Y-12663D01*
X-6504Y-12663D02*
X2316Y-12663D01*
X3321Y-12663D02*
X11152Y-12663D01*
X12119Y-12663D02*
X18552Y-12663D01*
X-18601Y-12613D02*
X-7921Y-12613D01*
X-6553Y-12613D02*
X2316Y-12613D01*
X3371Y-12613D02*
X11152Y-12613D01*
X12119Y-12613D02*
X18601Y-12613D01*
X-18651Y-12563D02*
X-7970Y-12563D01*
X-6603Y-12563D02*
X2316Y-12563D01*
X3420Y-12563D02*
X11152Y-12563D01*
X12119Y-12563D02*
X18651Y-12563D01*
X-18700Y-12514D02*
X-8020Y-12514D01*
X-6652Y-12514D02*
X2316Y-12514D01*
X3470Y-12514D02*
X11152Y-12514D01*
X12119Y-12514D02*
X18700Y-12514D01*
X-18750Y-12464D02*
X-8070Y-12464D01*
X-6702Y-12464D02*
X2320Y-12464D01*
X3520Y-12464D02*
X11152Y-12464D01*
X12119Y-12464D02*
X18750Y-12464D01*
X-18799Y-12415D02*
X-8119Y-12415D01*
X-6751Y-12415D02*
X2325Y-12415D01*
X3569Y-12415D02*
X11152Y-12415D01*
X12119Y-12415D02*
X18799Y-12415D01*
X-18849Y-12365D02*
X-8169Y-12365D01*
X-6801Y-12365D02*
X2338Y-12365D01*
X3619Y-12365D02*
X11152Y-12365D01*
X12119Y-12365D02*
X18849Y-12365D01*
X-18898Y-12316D02*
X-8218Y-12316D01*
X-6850Y-12316D02*
X-3971Y-12316D01*
X-3389Y-12316D02*
X-1431Y-12316D01*
X-0849Y-12316D02*
X1109Y-12316D01*
X1324Y-12316D02*
X1476Y-12316D01*
X1691Y-12316D02*
X2353Y-12316D01*
X4231Y-12316D02*
X5554Y-12316D01*
X7406Y-12316D02*
X11152Y-12316D01*
X12119Y-12316D02*
X18898Y-12316D01*
X-18948Y-12266D02*
X-8268Y-12266D01*
X-6900Y-12266D02*
X-4102Y-12266D01*
X-3258Y-12266D02*
X-1562Y-12266D01*
X-0718Y-12266D02*
X0978Y-12266D01*
X1324Y-12266D02*
X1476Y-12266D01*
X1822Y-12266D02*
X2379Y-12266D01*
X4362Y-12266D02*
X5507Y-12266D01*
X7453Y-12266D02*
X11152Y-12266D01*
X12119Y-12266D02*
X18948Y-12266D01*
X-18997Y-12217D02*
X-8317Y-12217D01*
X-6949Y-12217D02*
X-4196Y-12217D01*
X-3164Y-12217D02*
X-1656Y-12217D01*
X-0624Y-12217D02*
X0884Y-12217D01*
X1324Y-12217D02*
X1476Y-12217D01*
X1916Y-12217D02*
X2410Y-12217D01*
X4456Y-12217D02*
X5481Y-12217D01*
X7479Y-12217D02*
X11152Y-12217D01*
X12119Y-12217D02*
X18997Y-12217D01*
X-19047Y-12167D02*
X-8367Y-12167D01*
X-6999Y-12167D02*
X-4277Y-12167D01*
X-3083Y-12167D02*
X-1737Y-12167D01*
X-0543Y-12167D02*
X0803Y-12167D01*
X1324Y-12167D02*
X1476Y-12167D01*
X1997Y-12167D02*
X2450Y-12167D01*
X4537Y-12167D02*
X5468Y-12167D01*
X7492Y-12167D02*
X11152Y-12167D01*
X12119Y-12167D02*
X19047Y-12167D01*
X-19096Y-12118D02*
X-8416Y-12118D01*
X-7048Y-12118D02*
X-4333Y-12118D01*
X-3027Y-12118D02*
X-1793Y-12118D01*
X-0487Y-12118D02*
X0747Y-12118D01*
X1324Y-12118D02*
X1476Y-12118D01*
X2053Y-12118D02*
X2498Y-12118D01*
X4593Y-12118D02*
X5465Y-12118D01*
X7495Y-12118D02*
X11152Y-12118D01*
X12119Y-12118D02*
X19096Y-12118D01*
X-19146Y-12068D02*
X-8466Y-12068D01*
X-7098Y-12068D02*
X-4389Y-12068D01*
X-2971Y-12068D02*
X-1849Y-12068D01*
X-0431Y-12068D02*
X0691Y-12068D01*
X2109Y-12068D02*
X2548Y-12068D01*
X4649Y-12068D02*
X5465Y-12068D01*
X7495Y-12068D02*
X11152Y-12068D01*
X12119Y-12068D02*
X19146Y-12068D01*
X-19195Y-12019D02*
X-8515Y-12019D01*
X-7147Y-12019D02*
X-4443Y-12019D01*
X-2917Y-12019D02*
X-1903Y-12019D01*
X-0377Y-12019D02*
X0637Y-12019D01*
X2163Y-12019D02*
X2597Y-12019D01*
X4703Y-12019D02*
X5465Y-12019D01*
X7495Y-12019D02*
X11152Y-12019D01*
X12119Y-12019D02*
X19195Y-12019D01*
X-19225Y-11969D02*
X-8565Y-11969D01*
X-7197Y-11969D02*
X-4477Y-11969D01*
X-2883Y-11969D02*
X-1937Y-11969D01*
X-0343Y-11969D02*
X0603Y-11969D01*
X2197Y-11969D02*
X2647Y-11969D01*
X4737Y-11969D02*
X5465Y-11969D01*
X7495Y-11969D02*
X11152Y-11969D01*
X12119Y-11969D02*
X19225Y-11969D01*
X-19225Y-11920D02*
X-8610Y-11920D01*
X-7247Y-11920D02*
X-4511Y-11920D01*
X-2849Y-11920D02*
X-1971Y-11920D01*
X-0309Y-11920D02*
X0569Y-11920D01*
X2231Y-11920D02*
X2697Y-11920D01*
X4771Y-11920D02*
X5465Y-11920D01*
X7495Y-11920D02*
X11152Y-11920D01*
X12119Y-11920D02*
X19225Y-11920D01*
X-19225Y-11870D02*
X-8651Y-11870D01*
X-7296Y-11870D02*
X-4545Y-11870D01*
X-2815Y-11870D02*
X-2005Y-11870D01*
X-0275Y-11870D02*
X0535Y-11870D01*
X2265Y-11870D02*
X2746Y-11870D01*
X4805Y-11870D02*
X5465Y-11870D01*
X7495Y-11870D02*
X11152Y-11870D01*
X12119Y-11870D02*
X19225Y-11870D01*
X-19225Y-11821D02*
X-8678Y-11821D01*
X-7346Y-11821D02*
X-4579Y-11821D01*
X-2781Y-11821D02*
X-2039Y-11821D01*
X-0241Y-11821D02*
X0501Y-11821D01*
X2299Y-11821D02*
X2796Y-11821D01*
X4839Y-11821D02*
X5465Y-11821D01*
X7495Y-11821D02*
X11152Y-11821D01*
X12119Y-11821D02*
X19225Y-11821D01*
X-19225Y-11771D02*
X-8701Y-11771D01*
X-7395Y-11771D02*
X-4598Y-11771D01*
X-2762Y-11771D02*
X-2058Y-11771D01*
X-0222Y-11771D02*
X0482Y-11771D01*
X2318Y-11771D02*
X2845Y-11771D01*
X4858Y-11771D02*
X5465Y-11771D01*
X7495Y-11771D02*
X11152Y-11771D01*
X12119Y-11771D02*
X19225Y-11771D01*
X-19225Y-11721D02*
X-8716Y-11721D01*
X-7445Y-11721D02*
X-4617Y-11721D01*
X-2743Y-11721D02*
X-2077Y-11721D01*
X-0203Y-11721D02*
X0463Y-11721D01*
X2337Y-11721D02*
X2895Y-11721D01*
X4877Y-11721D02*
X5465Y-11721D01*
X7495Y-11721D02*
X11152Y-11721D01*
X12119Y-11721D02*
X19225Y-11721D01*
X-19225Y-11672D02*
X-8727Y-11672D01*
X-7494Y-11672D02*
X-4635Y-11672D01*
X-2725Y-11672D02*
X-2095Y-11672D01*
X-0185Y-11672D02*
X0445Y-11672D01*
X2355Y-11672D02*
X2944Y-11672D01*
X4895Y-11672D02*
X5465Y-11672D01*
X7495Y-11672D02*
X11152Y-11672D01*
X12119Y-11672D02*
X19225Y-11672D01*
X-19225Y-11622D02*
X-8732Y-11622D01*
X-7544Y-11622D02*
X-4654Y-11622D01*
X-2706Y-11622D02*
X-2114Y-11622D01*
X-0166Y-11622D02*
X0426Y-11622D01*
X2374Y-11622D02*
X2966Y-11622D01*
X4914Y-11622D02*
X5465Y-11622D01*
X7495Y-11622D02*
X11152Y-11622D01*
X12119Y-11622D02*
X19225Y-11622D01*
X-19225Y-11573D02*
X-8734Y-11573D01*
X-7593Y-11573D02*
X-4668Y-11573D01*
X-2692Y-11573D02*
X-2128Y-11573D01*
X-0152Y-11573D02*
X0412Y-11573D01*
X2388Y-11573D02*
X2952Y-11573D01*
X4928Y-11573D02*
X5465Y-11573D01*
X7495Y-11573D02*
X11152Y-11573D01*
X12119Y-11573D02*
X19225Y-11573D01*
X-19225Y-11523D02*
X-8734Y-11523D01*
X-7643Y-11523D02*
X-4674Y-11523D01*
X-2686Y-11523D02*
X-2134Y-11523D01*
X-0146Y-11523D02*
X0406Y-11523D01*
X2394Y-11523D02*
X2946Y-11523D01*
X4934Y-11523D02*
X5465Y-11523D01*
X7495Y-11523D02*
X11152Y-11523D01*
X12119Y-11523D02*
X19225Y-11523D01*
X-19225Y-11474D02*
X-8734Y-11474D01*
X-7692Y-11474D02*
X-4680Y-11474D01*
X-2680Y-11474D02*
X-2140Y-11474D01*
X-0140Y-11474D02*
X0400Y-11474D01*
X2400Y-11474D02*
X2940Y-11474D01*
X4940Y-11474D02*
X5465Y-11474D01*
X7495Y-11474D02*
X11152Y-11474D01*
X12119Y-11474D02*
X19225Y-11474D01*
X-19225Y-11424D02*
X-8734Y-11424D01*
X-7742Y-11424D02*
X-4686Y-11424D01*
X-2674Y-11424D02*
X-2146Y-11424D01*
X-0134Y-11424D02*
X0640Y-11424D01*
X2406Y-11424D02*
X2934Y-11424D01*
X4946Y-11424D02*
X5465Y-11424D01*
X7495Y-11424D02*
X11152Y-11424D01*
X12119Y-11424D02*
X19225Y-11424D01*
X-19225Y-11375D02*
X-8734Y-11375D01*
X-7766Y-11375D02*
X-4692Y-11375D01*
X-2668Y-11375D02*
X-2152Y-11375D01*
X-0128Y-11375D02*
X0640Y-11375D01*
X2412Y-11375D02*
X2928Y-11375D01*
X4952Y-11375D02*
X5465Y-11375D01*
X7495Y-11375D02*
X11152Y-11375D01*
X12119Y-11375D02*
X19225Y-11375D01*
X-19225Y-11325D02*
X-8734Y-11325D01*
X-7766Y-11325D02*
X-4692Y-11325D01*
X-2668Y-11325D02*
X-2152Y-11325D01*
X-0128Y-11325D02*
X0640Y-11325D01*
X2412Y-11325D02*
X2928Y-11325D01*
X4952Y-11325D02*
X5465Y-11325D01*
X7495Y-11325D02*
X11152Y-11325D01*
X12119Y-11325D02*
X19225Y-11325D01*
X-19225Y-11276D02*
X-8734Y-11276D01*
X-7766Y-11276D02*
X-4686Y-11276D01*
X-2674Y-11276D02*
X-2146Y-11276D01*
X-0134Y-11276D02*
X0640Y-11276D01*
X2406Y-11276D02*
X2934Y-11276D01*
X4946Y-11276D02*
X5465Y-11276D01*
X7495Y-11276D02*
X11152Y-11276D01*
X12119Y-11276D02*
X19225Y-11276D01*
X-19225Y-11226D02*
X-8734Y-11226D01*
X-7766Y-11226D02*
X-4680Y-11226D01*
X-2680Y-11226D02*
X-2140Y-11226D01*
X-0140Y-11226D02*
X0400Y-11226D01*
X2400Y-11226D02*
X2940Y-11226D01*
X4940Y-11226D02*
X5465Y-11226D01*
X7495Y-11226D02*
X11152Y-11226D01*
X12119Y-11226D02*
X19225Y-11226D01*
X-19225Y-11177D02*
X-8734Y-11177D01*
X-7766Y-11177D02*
X-4674Y-11177D01*
X-2686Y-11177D02*
X-2134Y-11177D01*
X-0146Y-11177D02*
X0406Y-11177D01*
X2394Y-11177D02*
X2946Y-11177D01*
X4934Y-11177D02*
X5465Y-11177D01*
X7495Y-11177D02*
X11152Y-11177D01*
X12119Y-11177D02*
X19225Y-11177D01*
X-19225Y-11127D02*
X-8734Y-11127D01*
X-7766Y-11127D02*
X-4668Y-11127D01*
X-2692Y-11127D02*
X-2128Y-11127D01*
X-0152Y-11127D02*
X0412Y-11127D01*
X2388Y-11127D02*
X2952Y-11127D01*
X4928Y-11127D02*
X5465Y-11127D01*
X7495Y-11127D02*
X11152Y-11127D01*
X12119Y-11127D02*
X19225Y-11127D01*
X-19225Y-11078D02*
X-8734Y-11078D01*
X-7766Y-11078D02*
X-4654Y-11078D01*
X-2706Y-11078D02*
X-2114Y-11078D01*
X-0166Y-11078D02*
X0426Y-11078D01*
X2374Y-11078D02*
X2966Y-11078D01*
X4914Y-11078D02*
X5465Y-11078D01*
X7495Y-11078D02*
X11152Y-11078D01*
X12119Y-11078D02*
X19225Y-11078D01*
X-19225Y-11028D02*
X-8734Y-11028D01*
X-7766Y-11028D02*
X-4635Y-11028D01*
X-2725Y-11028D02*
X-2095Y-11028D01*
X-0185Y-11028D02*
X0445Y-11028D01*
X2355Y-11028D02*
X2985Y-11028D01*
X4895Y-11028D02*
X5465Y-11028D01*
X7495Y-11028D02*
X11152Y-11028D01*
X12119Y-11028D02*
X19225Y-11028D01*
X-19225Y-10978D02*
X-8734Y-10978D01*
X-7766Y-10978D02*
X-4617Y-10978D01*
X-2743Y-10978D02*
X-2077Y-10978D01*
X-0203Y-10978D02*
X0463Y-10978D01*
X2337Y-10978D02*
X3003Y-10978D01*
X4877Y-10978D02*
X5465Y-10978D01*
X7495Y-10978D02*
X11152Y-10978D01*
X12119Y-10978D02*
X19225Y-10978D01*
X-19225Y-10929D02*
X-8734Y-10929D01*
X-7766Y-10929D02*
X-4598Y-10929D01*
X-2762Y-10929D02*
X-2058Y-10929D01*
X-0222Y-10929D02*
X0482Y-10929D01*
X2318Y-10929D02*
X3022Y-10929D01*
X4858Y-10929D02*
X5465Y-10929D01*
X7495Y-10929D02*
X11152Y-10929D01*
X12119Y-10929D02*
X19225Y-10929D01*
X-19225Y-10879D02*
X-8734Y-10879D01*
X-7766Y-10879D02*
X-4579Y-10879D01*
X-2781Y-10879D02*
X-2039Y-10879D01*
X-0241Y-10879D02*
X0501Y-10879D01*
X2299Y-10879D02*
X3041Y-10879D01*
X4839Y-10879D02*
X5465Y-10879D01*
X7495Y-10879D02*
X11152Y-10879D01*
X12119Y-10879D02*
X19225Y-10879D01*
X-19225Y-10830D02*
X-8734Y-10830D01*
X-7766Y-10830D02*
X-4545Y-10830D01*
X-2815Y-10830D02*
X-2005Y-10830D01*
X-0275Y-10830D02*
X0535Y-10830D01*
X2265Y-10830D02*
X3075Y-10830D01*
X4805Y-10830D02*
X5465Y-10830D01*
X7495Y-10830D02*
X11152Y-10830D01*
X12119Y-10830D02*
X19225Y-10830D01*
X-19225Y-10780D02*
X-8734Y-10780D01*
X-7766Y-10780D02*
X-4511Y-10780D01*
X-2849Y-10780D02*
X-1971Y-10780D01*
X-0309Y-10780D02*
X0569Y-10780D01*
X2231Y-10780D02*
X3109Y-10780D01*
X4771Y-10780D02*
X5465Y-10780D01*
X7495Y-10780D02*
X11152Y-10780D01*
X12119Y-10780D02*
X19225Y-10780D01*
X-19225Y-10731D02*
X-8734Y-10731D01*
X-7766Y-10731D02*
X-4477Y-10731D01*
X-2883Y-10731D02*
X-1937Y-10731D01*
X-0343Y-10731D02*
X0603Y-10731D01*
X2197Y-10731D02*
X3143Y-10731D01*
X4737Y-10731D02*
X5465Y-10731D01*
X7495Y-10731D02*
X11152Y-10731D01*
X12119Y-10731D02*
X19225Y-10731D01*
X-19225Y-10681D02*
X-8734Y-10681D01*
X-7766Y-10681D02*
X-4443Y-10681D01*
X-2917Y-10681D02*
X-1903Y-10681D01*
X-0377Y-10681D02*
X0637Y-10681D01*
X2163Y-10681D02*
X3177Y-10681D01*
X4703Y-10681D02*
X5465Y-10681D01*
X7495Y-10681D02*
X11152Y-10681D01*
X12119Y-10681D02*
X19225Y-10681D01*
X-19225Y-10632D02*
X-8734Y-10632D01*
X-7766Y-10632D02*
X-4388Y-10632D01*
X-2972Y-10632D02*
X-1848Y-10632D01*
X-0432Y-10632D02*
X0692Y-10632D01*
X2108Y-10632D02*
X3232Y-10632D01*
X4648Y-10632D02*
X5465Y-10632D01*
X7495Y-10632D02*
X11152Y-10632D01*
X12119Y-10632D02*
X19225Y-10632D01*
X-19225Y-10582D02*
X-8734Y-10582D01*
X-7766Y-10582D02*
X-4333Y-10582D01*
X-3027Y-10582D02*
X-1793Y-10582D01*
X-0487Y-10582D02*
X0747Y-10582D01*
X1324Y-10582D02*
X1476Y-10582D01*
X2053Y-10582D02*
X3287Y-10582D01*
X4593Y-10582D02*
X5465Y-10582D01*
X7495Y-10582D02*
X11152Y-10582D01*
X12119Y-10582D02*
X19225Y-10582D01*
X-19225Y-10533D02*
X-8734Y-10533D01*
X-7766Y-10533D02*
X-4277Y-10533D01*
X-3083Y-10533D02*
X-1737Y-10533D01*
X-0543Y-10533D02*
X0803Y-10533D01*
X1324Y-10533D02*
X1476Y-10533D01*
X1997Y-10533D02*
X3343Y-10533D01*
X4537Y-10533D02*
X5468Y-10533D01*
X7492Y-10533D02*
X11152Y-10533D01*
X12119Y-10533D02*
X19225Y-10533D01*
X-19225Y-10483D02*
X-8734Y-10483D01*
X-7766Y-10483D02*
X-4196Y-10483D01*
X-3164Y-10483D02*
X-1656Y-10483D01*
X-0624Y-10483D02*
X0884Y-10483D01*
X1324Y-10483D02*
X1476Y-10483D01*
X1916Y-10483D02*
X3424Y-10483D01*
X4456Y-10483D02*
X5481Y-10483D01*
X7479Y-10483D02*
X11152Y-10483D01*
X12119Y-10483D02*
X19225Y-10483D01*
X-19225Y-10434D02*
X-8734Y-10434D01*
X-7766Y-10434D02*
X-4102Y-10434D01*
X-3258Y-10434D02*
X-1562Y-10434D01*
X-0718Y-10434D02*
X0978Y-10434D01*
X1324Y-10434D02*
X1476Y-10434D01*
X1822Y-10434D02*
X3518Y-10434D01*
X4362Y-10434D02*
X5507Y-10434D01*
X7453Y-10434D02*
X11152Y-10434D01*
X12119Y-10434D02*
X19225Y-10434D01*
X-19225Y-10384D02*
X-8734Y-10384D01*
X-7766Y-10384D02*
X-3971Y-10384D01*
X-3389Y-10384D02*
X-1431Y-10384D01*
X-0849Y-10384D02*
X1109Y-10384D01*
X1324Y-10384D02*
X1476Y-10384D01*
X1691Y-10384D02*
X3649Y-10384D01*
X4231Y-10384D02*
X5554Y-10384D01*
X7406Y-10384D02*
X11152Y-10384D01*
X12119Y-10384D02*
X19225Y-10384D01*
X-19225Y-10335D02*
X-8734Y-10335D01*
X-7766Y-10335D02*
X11152Y-10335D01*
X12119Y-10335D02*
X19225Y-10335D01*
X-19225Y-10285D02*
X-8734Y-10285D01*
X-7766Y-10285D02*
X11152Y-10285D01*
X12119Y-10285D02*
X19225Y-10285D01*
X-19225Y-10236D02*
X-8734Y-10236D01*
X-7766Y-10236D02*
X11152Y-10236D01*
X12119Y-10236D02*
X19225Y-10236D01*
X-19225Y-10186D02*
X-8734Y-10186D01*
X-7766Y-10186D02*
X11152Y-10186D01*
X12119Y-10186D02*
X19225Y-10186D01*
X-19225Y-10136D02*
X-8734Y-10136D01*
X-7766Y-10136D02*
X11152Y-10136D01*
X12119Y-10136D02*
X19225Y-10136D01*
X-19225Y-10087D02*
X-8734Y-10087D01*
X-7766Y-10087D02*
X11152Y-10087D01*
X12119Y-10087D02*
X19225Y-10087D01*
X-19225Y-10037D02*
X-8734Y-10037D01*
X-7766Y-10037D02*
X11152Y-10037D01*
X12119Y-10037D02*
X19225Y-10037D01*
X-19225Y-9988D02*
X-8734Y-9988D01*
X-7766Y-9988D02*
X11152Y-9988D01*
X12119Y-9988D02*
X19225Y-9988D01*
X-19225Y-9938D02*
X-8734Y-9938D01*
X-7766Y-9938D02*
X11152Y-9938D01*
X12119Y-9938D02*
X19225Y-9938D01*
X-19225Y-9889D02*
X-8734Y-9889D01*
X-7766Y-9889D02*
X11152Y-9889D01*
X12119Y-9889D02*
X19225Y-9889D01*
X-19225Y-9839D02*
X-8734Y-9839D01*
X-7766Y-9839D02*
X11152Y-9839D01*
X12119Y-9839D02*
X19225Y-9839D01*
X-19225Y-9790D02*
X-8734Y-9790D01*
X-7766Y-9790D02*
X11152Y-9790D01*
X12119Y-9790D02*
X19225Y-9790D01*
X-19225Y-9740D02*
X-8734Y-9740D01*
X-7766Y-9740D02*
X11152Y-9740D01*
X12119Y-9740D02*
X19225Y-9740D01*
X-19225Y-9691D02*
X-8734Y-9691D01*
X-7766Y-9691D02*
X11152Y-9691D01*
X12119Y-9691D02*
X19225Y-9691D01*
X-19225Y-9641D02*
X-8734Y-9641D01*
X-7766Y-9641D02*
X11152Y-9641D01*
X12119Y-9641D02*
X19225Y-9641D01*
X-19225Y-9592D02*
X-8734Y-9592D01*
X-7766Y-9592D02*
X11152Y-9592D01*
X12119Y-9592D02*
X19225Y-9592D01*
X-19225Y-9542D02*
X-8734Y-9542D01*
X-7766Y-9542D02*
X11152Y-9542D01*
X12119Y-9542D02*
X19225Y-9542D01*
X-19225Y-9493D02*
X-8734Y-9493D01*
X-7766Y-9493D02*
X11152Y-9493D01*
X12119Y-9493D02*
X19225Y-9493D01*
X-19225Y-9443D02*
X-8734Y-9443D01*
X-7766Y-9443D02*
X11152Y-9443D01*
X12119Y-9443D02*
X19225Y-9443D01*
X-19225Y-9394D02*
X-8734Y-9394D01*
X-7766Y-9394D02*
X11152Y-9394D01*
X12119Y-9394D02*
X19225Y-9394D01*
X-19225Y-9344D02*
X-8734Y-9344D01*
X-7766Y-9344D02*
X11152Y-9344D01*
X12119Y-9344D02*
X19225Y-9344D01*
X-19225Y-9294D02*
X-8734Y-9294D01*
X-7766Y-9294D02*
X11152Y-9294D01*
X12119Y-9294D02*
X19225Y-9294D01*
X-19225Y-9245D02*
X-8734Y-9245D01*
X-7766Y-9245D02*
X11152Y-9245D01*
X12119Y-9245D02*
X19225Y-9245D01*
X-19225Y-9195D02*
X-8734Y-9195D01*
X-7766Y-9195D02*
X11152Y-9195D01*
X12119Y-9195D02*
X19225Y-9195D01*
X-19225Y-9146D02*
X-8734Y-9146D01*
X-7766Y-9146D02*
X11152Y-9146D01*
X12119Y-9146D02*
X19225Y-9146D01*
X-19225Y-9096D02*
X-8734Y-9096D01*
X-7766Y-9096D02*
X11152Y-9096D01*
X12119Y-9096D02*
X19225Y-9096D01*
X-19225Y-9047D02*
X-8734Y-9047D01*
X-7766Y-9047D02*
X11152Y-9047D01*
X12119Y-9047D02*
X19225Y-9047D01*
X-19225Y-8997D02*
X-8734Y-8997D01*
X-7766Y-8997D02*
X11152Y-8997D01*
X12119Y-8997D02*
X19225Y-8997D01*
X-19225Y-8948D02*
X-8734Y-8948D01*
X-7766Y-8948D02*
X11152Y-8948D01*
X12119Y-8948D02*
X19225Y-8948D01*
X-19225Y-8898D02*
X-8734Y-8898D01*
X-7766Y-8898D02*
X11152Y-8898D01*
X12119Y-8898D02*
X19225Y-8898D01*
X-19225Y-8849D02*
X-8734Y-8849D01*
X-7766Y-8849D02*
X11152Y-8849D01*
X12119Y-8849D02*
X19225Y-8849D01*
X-19225Y-8799D02*
X-8734Y-8799D01*
X-7766Y-8799D02*
X11152Y-8799D01*
X12119Y-8799D02*
X19225Y-8799D01*
X-19225Y-8750D02*
X-8734Y-8750D01*
X-7766Y-8750D02*
X11152Y-8750D01*
X12119Y-8750D02*
X19225Y-8750D01*
X-19225Y-8700D02*
X-8734Y-8700D01*
X-7766Y-8700D02*
X11152Y-8700D01*
X12119Y-8700D02*
X19225Y-8700D01*
X-19225Y-8651D02*
X-8734Y-8651D01*
X-7766Y-8651D02*
X11152Y-8651D01*
X12119Y-8651D02*
X19225Y-8651D01*
X-19225Y-8601D02*
X-8734Y-8601D01*
X-7766Y-8601D02*
X11152Y-8601D01*
X12119Y-8601D02*
X19225Y-8601D01*
X-19225Y-8552D02*
X-8734Y-8552D01*
X-7766Y-8552D02*
X11152Y-8552D01*
X12119Y-8552D02*
X19225Y-8552D01*
X-19225Y-8502D02*
X-8734Y-8502D01*
X-7766Y-8502D02*
X11152Y-8502D01*
X12119Y-8502D02*
X19225Y-8502D01*
X-19225Y-8452D02*
X-8734Y-8452D01*
X-7766Y-8452D02*
X11152Y-8452D01*
X12119Y-8452D02*
X19225Y-8452D01*
X-19225Y-8403D02*
X-8734Y-8403D01*
X-7766Y-8403D02*
X11152Y-8403D01*
X12119Y-8403D02*
X19225Y-8403D01*
X-19225Y-8353D02*
X-8734Y-8353D01*
X-7766Y-8353D02*
X11152Y-8353D01*
X12119Y-8353D02*
X19225Y-8353D01*
X-19225Y-8304D02*
X-8734Y-8304D01*
X-7766Y-8304D02*
X11152Y-8304D01*
X12119Y-8304D02*
X19225Y-8304D01*
X-19225Y-8254D02*
X-8734Y-8254D01*
X-7766Y-8254D02*
X11152Y-8254D01*
X12119Y-8254D02*
X19225Y-8254D01*
X-19225Y-8205D02*
X-8734Y-8205D01*
X-7766Y-8205D02*
X11152Y-8205D01*
X12119Y-8205D02*
X19225Y-8205D01*
X-19225Y-8155D02*
X-8734Y-8155D01*
X-7766Y-8155D02*
X11152Y-8155D01*
X12119Y-8155D02*
X19225Y-8155D01*
X-19225Y-8106D02*
X-8734Y-8106D01*
X-7766Y-8106D02*
X11152Y-8106D01*
X12119Y-8106D02*
X19225Y-8106D01*
X-19225Y-8056D02*
X-8734Y-8056D01*
X-7766Y-8056D02*
X11152Y-8056D01*
X12119Y-8056D02*
X19225Y-8056D01*
X-19225Y-8007D02*
X-8734Y-8007D01*
X-7766Y-8007D02*
X11152Y-8007D01*
X12119Y-8007D02*
X19225Y-8007D01*
X-19225Y-7957D02*
X-8734Y-7957D01*
X-7766Y-7957D02*
X11152Y-7957D01*
X12119Y-7957D02*
X19225Y-7957D01*
X-19225Y-7908D02*
X-8734Y-7908D01*
X-7766Y-7908D02*
X11152Y-7908D01*
X12119Y-7908D02*
X19225Y-7908D01*
X-19225Y-7858D02*
X-8734Y-7858D01*
X-7766Y-7858D02*
X11152Y-7858D01*
X12119Y-7858D02*
X19225Y-7858D01*
X-19225Y-7809D02*
X-8734Y-7809D01*
X-7766Y-7809D02*
X11152Y-7809D01*
X12119Y-7809D02*
X19225Y-7809D01*
X-19225Y-7759D02*
X-8734Y-7759D01*
X-7766Y-7759D02*
X11152Y-7759D01*
X12119Y-7759D02*
X19225Y-7759D01*
X-19225Y-7710D02*
X-8734Y-7710D01*
X-7766Y-7710D02*
X11152Y-7710D01*
X12119Y-7710D02*
X19225Y-7710D01*
X-19225Y-7660D02*
X-8734Y-7660D01*
X-7766Y-7660D02*
X11152Y-7660D01*
X12119Y-7660D02*
X19225Y-7660D01*
X-19225Y-7610D02*
X-8734Y-7610D01*
X-7766Y-7610D02*
X11152Y-7610D01*
X12119Y-7610D02*
X19225Y-7610D01*
X-19225Y-7561D02*
X-8734Y-7561D01*
X-7766Y-7561D02*
X11152Y-7561D01*
X12119Y-7561D02*
X19225Y-7561D01*
X-19225Y-7511D02*
X-8734Y-7511D01*
X-7766Y-7511D02*
X11152Y-7511D01*
X12119Y-7511D02*
X19225Y-7511D01*
X-19225Y-7462D02*
X-8734Y-7462D01*
X-7766Y-7462D02*
X11152Y-7462D01*
X12119Y-7462D02*
X19225Y-7462D01*
X-19225Y-7412D02*
X-8734Y-7412D01*
X-7766Y-7412D02*
X11152Y-7412D01*
X12119Y-7412D02*
X19225Y-7412D01*
X-19225Y-7363D02*
X-8734Y-7363D01*
X-7766Y-7363D02*
X11152Y-7363D01*
X12119Y-7363D02*
X19225Y-7363D01*
X-19225Y-7313D02*
X-8734Y-7313D01*
X-7766Y-7313D02*
X11152Y-7313D01*
X12119Y-7313D02*
X19225Y-7313D01*
X-19225Y-7264D02*
X-8734Y-7264D01*
X-7766Y-7264D02*
X11152Y-7264D01*
X12119Y-7264D02*
X19225Y-7264D01*
X-19225Y-7214D02*
X-8734Y-7214D01*
X-7766Y-7214D02*
X11152Y-7214D01*
X12119Y-7214D02*
X19225Y-7214D01*
X-19225Y-7165D02*
X-8734Y-7165D01*
X-7766Y-7165D02*
X11152Y-7165D01*
X12119Y-7165D02*
X19225Y-7165D01*
X-19225Y-7115D02*
X-8734Y-7115D01*
X-7766Y-7115D02*
X11152Y-7115D01*
X12119Y-7115D02*
X19225Y-7115D01*
X-19225Y-7066D02*
X-8734Y-7066D01*
X-7766Y-7066D02*
X11152Y-7066D01*
X12119Y-7066D02*
X19225Y-7066D01*
X-19225Y-7016D02*
X-8734Y-7016D01*
X-7766Y-7016D02*
X11152Y-7016D01*
X12119Y-7016D02*
X19225Y-7016D01*
X-19225Y-6967D02*
X-8734Y-6967D01*
X-7766Y-6967D02*
X11152Y-6967D01*
X12119Y-6967D02*
X19225Y-6967D01*
X-19225Y-6917D02*
X-8734Y-6917D01*
X-7766Y-6917D02*
X11152Y-6917D01*
X12119Y-6917D02*
X19225Y-6917D01*
X-19225Y-6868D02*
X-8734Y-6868D01*
X-7766Y-6868D02*
X11152Y-6868D01*
X12119Y-6868D02*
X19225Y-6868D01*
X-19225Y-6818D02*
X-8734Y-6818D01*
X-7766Y-6818D02*
X11152Y-6818D01*
X12119Y-6818D02*
X19225Y-6818D01*
X-19225Y-6768D02*
X-8734Y-6768D01*
X-7766Y-6768D02*
X11152Y-6768D01*
X12119Y-6768D02*
X19225Y-6768D01*
X-19225Y-6719D02*
X-8734Y-6719D01*
X-7766Y-6719D02*
X11152Y-6719D01*
X12119Y-6719D02*
X19225Y-6719D01*
X-19225Y-6669D02*
X-8734Y-6669D01*
X-7766Y-6669D02*
X11152Y-6669D01*
X12119Y-6669D02*
X19225Y-6669D01*
X-19225Y-6620D02*
X-8734Y-6620D01*
X-7766Y-6620D02*
X11152Y-6620D01*
X12119Y-6620D02*
X19225Y-6620D01*
X-19225Y-6570D02*
X-8734Y-6570D01*
X-7766Y-6570D02*
X11152Y-6570D01*
X12119Y-6570D02*
X19225Y-6570D01*
X-19225Y-6521D02*
X-8734Y-6521D01*
X-7766Y-6521D02*
X11152Y-6521D01*
X12119Y-6521D02*
X19225Y-6521D01*
X-19225Y-6471D02*
X-8734Y-6471D01*
X-7766Y-6471D02*
X11152Y-6471D01*
X12119Y-6471D02*
X19225Y-6471D01*
X-19225Y-6422D02*
X-8734Y-6422D01*
X-7766Y-6422D02*
X11152Y-6422D01*
X12119Y-6422D02*
X19225Y-6422D01*
X-19225Y-6372D02*
X-8734Y-6372D01*
X-7766Y-6372D02*
X11152Y-6372D01*
X12119Y-6372D02*
X19225Y-6372D01*
X-19225Y-6323D02*
X-8734Y-6323D01*
X-7766Y-6323D02*
X11152Y-6323D01*
X12119Y-6323D02*
X19225Y-6323D01*
X-19225Y-6273D02*
X-8734Y-6273D01*
X-7766Y-6273D02*
X11152Y-6273D01*
X12119Y-6273D02*
X19225Y-6273D01*
X-19225Y-6224D02*
X-8734Y-6224D01*
X-7766Y-6224D02*
X11152Y-6224D01*
X12119Y-6224D02*
X19225Y-6224D01*
X-19225Y-6174D02*
X-8734Y-6174D01*
X-7766Y-6174D02*
X11152Y-6174D01*
X12119Y-6174D02*
X19225Y-6174D01*
X-19225Y-6125D02*
X-8734Y-6125D01*
X-7766Y-6125D02*
X11152Y-6125D01*
X12119Y-6125D02*
X19225Y-6125D01*
X-19225Y-6075D02*
X-8734Y-6075D01*
X-7766Y-6075D02*
X11152Y-6075D01*
X12119Y-6075D02*
X19225Y-6075D01*
X-19225Y-6025D02*
X-8734Y-6025D01*
X-7766Y-6025D02*
X11152Y-6025D01*
X12119Y-6025D02*
X19225Y-6025D01*
X-19225Y-5976D02*
X-8734Y-5976D01*
X-7766Y-5976D02*
X11152Y-5976D01*
X12119Y-5976D02*
X19225Y-5976D01*
X-19225Y-5926D02*
X-8734Y-5926D01*
X-7766Y-5926D02*
X11152Y-5926D01*
X12119Y-5926D02*
X19225Y-5926D01*
X-19225Y-5877D02*
X-8734Y-5877D01*
X-7766Y-5877D02*
X11152Y-5877D01*
X12119Y-5877D02*
X19225Y-5877D01*
X-19225Y-5827D02*
X-8734Y-5827D01*
X-7766Y-5827D02*
X11152Y-5827D01*
X12119Y-5827D02*
X19225Y-5827D01*
X-19225Y-5778D02*
X-8734Y-5778D01*
X-7766Y-5778D02*
X11152Y-5778D01*
X12119Y-5778D02*
X19225Y-5778D01*
X-19225Y-5728D02*
X-8734Y-5728D01*
X-7766Y-5728D02*
X11152Y-5728D01*
X12119Y-5728D02*
X19225Y-5728D01*
X-19225Y-5679D02*
X-8734Y-5679D01*
X-7766Y-5679D02*
X11152Y-5679D01*
X12119Y-5679D02*
X19225Y-5679D01*
X-19225Y-5629D02*
X-8734Y-5629D01*
X-7766Y-5629D02*
X11152Y-5629D01*
X12119Y-5629D02*
X19225Y-5629D01*
X-19225Y-5580D02*
X-8734Y-5580D01*
X-7766Y-5580D02*
X11152Y-5580D01*
X12119Y-5580D02*
X19225Y-5580D01*
X-19225Y-5530D02*
X-8734Y-5530D01*
X-7766Y-5530D02*
X11152Y-5530D01*
X12119Y-5530D02*
X19225Y-5530D01*
X-19225Y-5481D02*
X-8734Y-5481D01*
X-7766Y-5481D02*
X11152Y-5481D01*
X12119Y-5481D02*
X19225Y-5481D01*
X-19225Y-5431D02*
X-8734Y-5431D01*
X-7766Y-5431D02*
X11152Y-5431D01*
X12119Y-5431D02*
X19225Y-5431D01*
X-19225Y-5382D02*
X-8734Y-5382D01*
X-7766Y-5382D02*
X11152Y-5382D01*
X12119Y-5382D02*
X19225Y-5382D01*
X-19225Y-5332D02*
X-8734Y-5332D01*
X-7766Y-5332D02*
X11152Y-5332D01*
X12119Y-5332D02*
X19225Y-5332D01*
X-19225Y-5283D02*
X-8734Y-5283D01*
X-7766Y-5283D02*
X11152Y-5283D01*
X12119Y-5283D02*
X19225Y-5283D01*
X-19225Y-5233D02*
X-8734Y-5233D01*
X-7766Y-5233D02*
X11152Y-5233D01*
X12119Y-5233D02*
X19225Y-5233D01*
X-19225Y-5183D02*
X-8734Y-5183D01*
X-7766Y-5183D02*
X11152Y-5183D01*
X12119Y-5183D02*
X19225Y-5183D01*
X-19225Y-5134D02*
X-8734Y-5134D01*
X-7766Y-5134D02*
X11152Y-5134D01*
X12119Y-5134D02*
X19225Y-5134D01*
X-19225Y-5084D02*
X-8734Y-5084D01*
X-7766Y-5084D02*
X11152Y-5084D01*
X12119Y-5084D02*
X19225Y-5084D01*
X-19225Y-5035D02*
X-8734Y-5035D01*
X-7766Y-5035D02*
X11152Y-5035D01*
X12119Y-5035D02*
X19225Y-5035D01*
X-19225Y-4985D02*
X-8734Y-4985D01*
X-7766Y-4985D02*
X11152Y-4985D01*
X12119Y-4985D02*
X19225Y-4985D01*
X-19225Y-4936D02*
X-8734Y-4936D01*
X-7766Y-4936D02*
X11152Y-4936D01*
X12119Y-4936D02*
X19225Y-4936D01*
X-19225Y-4886D02*
X-8734Y-4886D01*
X-7766Y-4886D02*
X11152Y-4886D01*
X12119Y-4886D02*
X19225Y-4886D01*
X-19225Y-4837D02*
X-8734Y-4837D01*
X-7766Y-4837D02*
X11152Y-4837D01*
X12119Y-4837D02*
X19225Y-4837D01*
X-19225Y-4787D02*
X-8734Y-4787D01*
X-7766Y-4787D02*
X11152Y-4787D01*
X12119Y-4787D02*
X19225Y-4787D01*
X-19225Y-4738D02*
X-8734Y-4738D01*
X-7766Y-4738D02*
X11152Y-4738D01*
X12119Y-4738D02*
X19225Y-4738D01*
X-19225Y-4688D02*
X-8734Y-4688D01*
X-7766Y-4688D02*
X11152Y-4688D01*
X12119Y-4688D02*
X19225Y-4688D01*
X-19225Y-4639D02*
X-8734Y-4639D01*
X-7766Y-4639D02*
X11152Y-4639D01*
X12119Y-4639D02*
X19225Y-4639D01*
X-19225Y-4589D02*
X-8734Y-4589D01*
X-7766Y-4589D02*
X11152Y-4589D01*
X12119Y-4589D02*
X19225Y-4589D01*
X-19225Y-4540D02*
X-8734Y-4540D01*
X-7766Y-4540D02*
X11152Y-4540D01*
X12119Y-4540D02*
X19225Y-4540D01*
X-19225Y-4490D02*
X-8734Y-4490D01*
X-7766Y-4490D02*
X11152Y-4490D01*
X12119Y-4490D02*
X19225Y-4490D01*
X-19225Y-4441D02*
X-8734Y-4441D01*
X-7766Y-4441D02*
X11152Y-4441D01*
X12119Y-4441D02*
X19225Y-4441D01*
X-19225Y-4391D02*
X-8734Y-4391D01*
X-7766Y-4391D02*
X11152Y-4391D01*
X12119Y-4391D02*
X19225Y-4391D01*
X-19225Y-4341D02*
X-8734Y-4341D01*
X-7766Y-4341D02*
X11152Y-4341D01*
X12119Y-4341D02*
X19225Y-4341D01*
X-19225Y-4292D02*
X-8734Y-4292D01*
X-7766Y-4292D02*
X11152Y-4292D01*
X12119Y-4292D02*
X19225Y-4292D01*
X-19225Y-4242D02*
X-8734Y-4242D01*
X-7766Y-4242D02*
X11152Y-4242D01*
X12119Y-4242D02*
X19225Y-4242D01*
X-19225Y-4193D02*
X-8734Y-4193D01*
X-7766Y-4193D02*
X11152Y-4193D01*
X12119Y-4193D02*
X19225Y-4193D01*
X-19225Y-4143D02*
X-8734Y-4143D01*
X-7766Y-4143D02*
X11152Y-4143D01*
X12119Y-4143D02*
X19225Y-4143D01*
X-19225Y-4094D02*
X-8734Y-4094D01*
X-7766Y-4094D02*
X11152Y-4094D01*
X12119Y-4094D02*
X19225Y-4094D01*
X-19225Y-4044D02*
X-8734Y-4044D01*
X-7766Y-4044D02*
X11152Y-4044D01*
X12119Y-4044D02*
X19225Y-4044D01*
X-19225Y-3995D02*
X-8734Y-3995D01*
X-7766Y-3995D02*
X11152Y-3995D01*
X12119Y-3995D02*
X19225Y-3995D01*
X-19225Y-3945D02*
X-8734Y-3945D01*
X-7766Y-3945D02*
X11152Y-3945D01*
X12119Y-3945D02*
X19225Y-3945D01*
X-19225Y-3896D02*
X-8734Y-3896D01*
X-7766Y-3896D02*
X11152Y-3896D01*
X12119Y-3896D02*
X19225Y-3896D01*
X-19225Y-3846D02*
X-8734Y-3846D01*
X-7766Y-3846D02*
X11152Y-3846D01*
X12119Y-3846D02*
X19225Y-3846D01*
X-19225Y-3797D02*
X-8734Y-3797D01*
X-7766Y-3797D02*
X11152Y-3797D01*
X12119Y-3797D02*
X19225Y-3797D01*
X-19225Y-3747D02*
X-8734Y-3747D01*
X-7766Y-3747D02*
X11152Y-3747D01*
X12119Y-3747D02*
X19225Y-3747D01*
X-19225Y-3698D02*
X-8734Y-3698D01*
X-7766Y-3698D02*
X11152Y-3698D01*
X12119Y-3698D02*
X19225Y-3698D01*
X-19225Y-3648D02*
X-8734Y-3648D01*
X-7766Y-3648D02*
X11152Y-3648D01*
X12119Y-3648D02*
X19225Y-3648D01*
X-19225Y-3599D02*
X-8734Y-3599D01*
X-7766Y-3599D02*
X11152Y-3599D01*
X12119Y-3599D02*
X19225Y-3599D01*
X-19225Y-3549D02*
X-8734Y-3549D01*
X-7766Y-3549D02*
X11152Y-3549D01*
X12119Y-3549D02*
X19225Y-3549D01*
X-19225Y-3499D02*
X-8734Y-3499D01*
X-7766Y-3499D02*
X11152Y-3499D01*
X12119Y-3499D02*
X19225Y-3499D01*
X-19225Y-3450D02*
X-8734Y-3450D01*
X-7766Y-3450D02*
X11152Y-3450D01*
X12119Y-3450D02*
X19225Y-3450D01*
X-19225Y-3400D02*
X-8734Y-3400D01*
X-7766Y-3400D02*
X11152Y-3400D01*
X12119Y-3400D02*
X19225Y-3400D01*
X-19225Y-3351D02*
X-8734Y-3351D01*
X-7766Y-3351D02*
X11152Y-3351D01*
X12119Y-3351D02*
X19225Y-3351D01*
X-19225Y-3301D02*
X-8734Y-3301D01*
X-7766Y-3301D02*
X11152Y-3301D01*
X12119Y-3301D02*
X19225Y-3301D01*
X-19225Y-3252D02*
X-8734Y-3252D01*
X-7766Y-3252D02*
X11152Y-3252D01*
X12119Y-3252D02*
X19225Y-3252D01*
X-19225Y-3202D02*
X-8734Y-3202D01*
X-7766Y-3202D02*
X11152Y-3202D01*
X12119Y-3202D02*
X19225Y-3202D01*
X-19225Y-3153D02*
X-8734Y-3153D01*
X-7766Y-3153D02*
X11152Y-3153D01*
X12119Y-3153D02*
X19225Y-3153D01*
X-19225Y-3103D02*
X-8734Y-3103D01*
X-7766Y-3103D02*
X11152Y-3103D01*
X12119Y-3103D02*
X19225Y-3103D01*
X-19225Y-3054D02*
X-8734Y-3054D01*
X-7766Y-3054D02*
X11152Y-3054D01*
X12119Y-3054D02*
X19225Y-3054D01*
X-19225Y-3004D02*
X-8734Y-3004D01*
X-7766Y-3004D02*
X11152Y-3004D01*
X12119Y-3004D02*
X19225Y-3004D01*
X-19225Y-2955D02*
X-8734Y-2955D01*
X-7766Y-2955D02*
X11152Y-2955D01*
X12119Y-2955D02*
X19225Y-2955D01*
X-19225Y-2905D02*
X-8734Y-2905D01*
X-7766Y-2905D02*
X11152Y-2905D01*
X12119Y-2905D02*
X19225Y-2905D01*
X-19225Y-2856D02*
X-8734Y-2856D01*
X-7766Y-2856D02*
X11152Y-2856D01*
X12119Y-2856D02*
X19225Y-2856D01*
X-19225Y-2806D02*
X-8734Y-2806D01*
X-7766Y-2806D02*
X11152Y-2806D01*
X12119Y-2806D02*
X19225Y-2806D01*
X-19225Y-2757D02*
X-8734Y-2757D01*
X-7766Y-2757D02*
X11152Y-2757D01*
X12119Y-2757D02*
X19225Y-2757D01*
X-19225Y-2707D02*
X-8734Y-2707D01*
X-7766Y-2707D02*
X11152Y-2707D01*
X12119Y-2707D02*
X19225Y-2707D01*
X-19225Y-2657D02*
X-8734Y-2657D01*
X-7766Y-2657D02*
X11152Y-2657D01*
X12119Y-2657D02*
X19225Y-2657D01*
X-19225Y-2608D02*
X-8734Y-2608D01*
X-7766Y-2608D02*
X11152Y-2608D01*
X12119Y-2608D02*
X19225Y-2608D01*
X-19225Y-2558D02*
X-8734Y-2558D01*
X-7766Y-2558D02*
X11152Y-2558D01*
X12119Y-2558D02*
X19225Y-2558D01*
X-19225Y-2509D02*
X-8734Y-2509D01*
X-7766Y-2509D02*
X11152Y-2509D01*
X12119Y-2509D02*
X19225Y-2509D01*
X-19225Y-2459D02*
X-8734Y-2459D01*
X-7766Y-2459D02*
X11152Y-2459D01*
X12119Y-2459D02*
X19225Y-2459D01*
X-19225Y-2410D02*
X-8734Y-2410D01*
X-7766Y-2410D02*
X11152Y-2410D01*
X12119Y-2410D02*
X19225Y-2410D01*
X-19225Y-2360D02*
X-8734Y-2360D01*
X-7766Y-2360D02*
X11152Y-2360D01*
X12119Y-2360D02*
X19225Y-2360D01*
X-19225Y-2311D02*
X-11981Y-2311D01*
X-9919Y-2311D02*
X-8734Y-2311D01*
X-7766Y-2311D02*
X11152Y-2311D01*
X12119Y-2311D02*
X19225Y-2311D01*
X-19225Y-2261D02*
X-12063Y-2261D01*
X-9837Y-2261D02*
X-8734Y-2261D01*
X-7766Y-2261D02*
X11152Y-2261D01*
X12119Y-2261D02*
X19225Y-2261D01*
X-19225Y-2212D02*
X-12122Y-2212D01*
X-9778Y-2212D02*
X-8734Y-2212D01*
X-7766Y-2212D02*
X11152Y-2212D01*
X12119Y-2212D02*
X19225Y-2212D01*
X-19225Y-2162D02*
X-12172Y-2162D01*
X-9728Y-2162D02*
X-8734Y-2162D01*
X-7766Y-2162D02*
X11152Y-2162D01*
X12119Y-2162D02*
X19225Y-2162D01*
X-19225Y-2113D02*
X-12221Y-2113D01*
X-9679Y-2113D02*
X-8734Y-2113D01*
X-7766Y-2113D02*
X11152Y-2113D01*
X12119Y-2113D02*
X19225Y-2113D01*
X-19225Y-2063D02*
X-12271Y-2063D01*
X-9629Y-2063D02*
X-8734Y-2063D01*
X-7766Y-2063D02*
X11152Y-2063D01*
X12119Y-2063D02*
X19225Y-2063D01*
X-19225Y-2014D02*
X-12320Y-2014D01*
X-9580Y-2014D02*
X-8734Y-2014D01*
X-7766Y-2014D02*
X11152Y-2014D01*
X12119Y-2014D02*
X19225Y-2014D01*
X-19225Y-1964D02*
X-12370Y-1964D01*
X-9530Y-1964D02*
X-8734Y-1964D01*
X-7766Y-1964D02*
X11152Y-1964D01*
X12119Y-1964D02*
X19225Y-1964D01*
X-19225Y-1915D02*
X-12419Y-1915D01*
X-9481Y-1915D02*
X-8734Y-1915D01*
X-7766Y-1915D02*
X11152Y-1915D01*
X12119Y-1915D02*
X19225Y-1915D01*
X-19225Y-1865D02*
X-12469Y-1865D01*
X-9431Y-1865D02*
X-8734Y-1865D01*
X-7766Y-1865D02*
X11152Y-1865D01*
X12119Y-1865D02*
X19225Y-1865D01*
X-19225Y-1815D02*
X-12518Y-1815D01*
X-9382Y-1815D02*
X-8734Y-1815D01*
X-7766Y-1815D02*
X11152Y-1815D01*
X12119Y-1815D02*
X19225Y-1815D01*
X-19225Y-1766D02*
X-12568Y-1766D01*
X-9332Y-1766D02*
X-8734Y-1766D01*
X-7766Y-1766D02*
X11152Y-1766D01*
X12119Y-1766D02*
X19225Y-1766D01*
X-19225Y-1716D02*
X-12618Y-1716D01*
X-9282Y-1716D02*
X-8734Y-1716D01*
X-7766Y-1716D02*
X11152Y-1716D01*
X12119Y-1716D02*
X19225Y-1716D01*
X-19225Y-1667D02*
X-12667Y-1667D01*
X-9233Y-1667D02*
X-8734Y-1667D01*
X-7766Y-1667D02*
X11152Y-1667D01*
X12119Y-1667D02*
X19225Y-1667D01*
X-19225Y-1617D02*
X-12717Y-1617D01*
X-9183Y-1617D02*
X-8734Y-1617D01*
X-7766Y-1617D02*
X11152Y-1617D01*
X12119Y-1617D02*
X19225Y-1617D01*
X-19225Y-1568D02*
X-12766Y-1568D01*
X-9134Y-1568D02*
X-8734Y-1568D01*
X-7766Y-1568D02*
X11152Y-1568D01*
X12119Y-1568D02*
X19225Y-1568D01*
X-19225Y-1518D02*
X-12816Y-1518D01*
X-9084Y-1518D02*
X-8734Y-1518D01*
X-7766Y-1518D02*
X11152Y-1518D01*
X12119Y-1518D02*
X19225Y-1518D01*
X-19225Y-1469D02*
X-12865Y-1469D01*
X-9035Y-1469D02*
X-8734Y-1469D01*
X-7766Y-1469D02*
X11152Y-1469D01*
X12119Y-1469D02*
X19225Y-1469D01*
X-19225Y-1419D02*
X-12915Y-1419D01*
X-8985Y-1419D02*
X-8734Y-1419D01*
X-7766Y-1419D02*
X11152Y-1419D01*
X12119Y-1419D02*
X19225Y-1419D01*
X-19225Y-1370D02*
X-12964Y-1370D01*
X-11596Y-1370D02*
X-10304Y-1370D01*
X-8936Y-1370D02*
X-8734Y-1370D01*
X-7766Y-1370D02*
X11152Y-1370D01*
X12119Y-1370D02*
X19225Y-1370D01*
X-19225Y-1320D02*
X-13014Y-1320D01*
X-11646Y-1320D02*
X-10254Y-1320D01*
X-8886Y-1320D02*
X-8734Y-1320D01*
X-7766Y-1320D02*
X11152Y-1320D01*
X12119Y-1320D02*
X19225Y-1320D01*
X-19225Y-1271D02*
X-13063Y-1271D01*
X-11695Y-1271D02*
X-10205Y-1271D01*
X-8837Y-1271D02*
X-8734Y-1271D01*
X-7766Y-1271D02*
X11152Y-1271D01*
X12119Y-1271D02*
X19225Y-1271D01*
X-19225Y-1221D02*
X-13113Y-1221D01*
X-11745Y-1221D02*
X-10155Y-1221D01*
X-8787Y-1221D02*
X-8765Y-1221D01*
X-7766Y-1221D02*
X11152Y-1221D01*
X12119Y-1221D02*
X19225Y-1221D01*
X-19225Y-1172D02*
X-13162Y-1172D01*
X-11795Y-1172D02*
X-10105Y-1172D01*
X-7766Y-1172D02*
X11152Y-1172D01*
X12119Y-1172D02*
X19225Y-1172D01*
X-19225Y-1122D02*
X-13212Y-1122D01*
X-11844Y-1122D02*
X-10056Y-1122D01*
X-7766Y-1122D02*
X11152Y-1122D01*
X12119Y-1122D02*
X19225Y-1122D01*
X-19225Y-1072D02*
X-13261Y-1072D01*
X-11894Y-1072D02*
X-10006Y-1072D01*
X-7766Y-1072D02*
X11152Y-1072D01*
X12119Y-1072D02*
X19225Y-1072D01*
X-19225Y-1023D02*
X-13311Y-1023D01*
X-11943Y-1023D02*
X-9957Y-1023D01*
X-7766Y-1023D02*
X11152Y-1023D01*
X12119Y-1023D02*
X19225Y-1023D01*
X-19225Y-0973D02*
X-13360Y-0973D01*
X-11993Y-0973D02*
X-9907Y-0973D01*
X-7766Y-0973D02*
X11152Y-0973D01*
X12119Y-0973D02*
X19225Y-0973D01*
X-19225Y-0924D02*
X-13410Y-0924D01*
X-12042Y-0924D02*
X-9858Y-0924D01*
X-7766Y-0924D02*
X11152Y-0924D01*
X12119Y-0924D02*
X19225Y-0924D01*
X-19225Y-0874D02*
X-13460Y-0874D01*
X-12092Y-0874D02*
X-9808Y-0874D01*
X-7766Y-0874D02*
X11152Y-0874D01*
X12119Y-0874D02*
X19225Y-0874D01*
X-19225Y-0825D02*
X-13509Y-0825D01*
X-12141Y-0825D02*
X-9759Y-0825D01*
X-7766Y-0825D02*
X11152Y-0825D01*
X12119Y-0825D02*
X19225Y-0825D01*
X-19225Y-0775D02*
X-13559Y-0775D01*
X-12191Y-0775D02*
X-9709Y-0775D01*
X-7766Y-0775D02*
X11152Y-0775D01*
X12119Y-0775D02*
X19225Y-0775D01*
X-19225Y-0726D02*
X-13608Y-0726D01*
X-12240Y-0726D02*
X-9660Y-0726D01*
X-7766Y-0726D02*
X11152Y-0726D01*
X12119Y-0726D02*
X19225Y-0726D01*
X-19225Y-0676D02*
X-13658Y-0676D01*
X-12290Y-0676D02*
X-9610Y-0676D01*
X-7766Y-0676D02*
X11152Y-0676D01*
X12119Y-0676D02*
X19225Y-0676D01*
X-19225Y-0627D02*
X-13707Y-0627D01*
X-12339Y-0627D02*
X-9561Y-0627D01*
X-7766Y-0627D02*
X11152Y-0627D01*
X12119Y-0627D02*
X19225Y-0627D01*
X-19225Y-0577D02*
X-13750Y-0577D01*
X-12389Y-0577D02*
X-9511Y-0577D01*
X-7759Y-0577D02*
X11152Y-0577D01*
X12119Y-0577D02*
X19225Y-0577D01*
X-19225Y-0528D02*
X-13786Y-0528D01*
X-12438Y-0528D02*
X-9462Y-0528D01*
X-7703Y-0528D02*
X11152Y-0528D01*
X12119Y-0528D02*
X19225Y-0528D01*
X-19225Y-0478D02*
X-13812Y-0478D01*
X-12488Y-0478D02*
X-9412Y-0478D01*
X-7659Y-0478D02*
X11152Y-0478D01*
X12119Y-0478D02*
X19225Y-0478D01*
X-19225Y-0429D02*
X-13831Y-0429D01*
X-12537Y-0429D02*
X-9363Y-0429D01*
X-7625Y-0429D02*
X11118Y-0429D01*
X12153Y-0429D02*
X19225Y-0429D01*
X-19225Y-0379D02*
X-13846Y-0379D01*
X-12587Y-0379D02*
X-9313Y-0379D01*
X-7591Y-0379D02*
X11063Y-0379D01*
X12208Y-0379D02*
X19225Y-0379D01*
X-19225Y-0330D02*
X-13853Y-0330D01*
X-12637Y-0330D02*
X-9263Y-0330D01*
X-7565Y-0330D02*
X11029Y-0330D01*
X12242Y-0330D02*
X19225Y-0330D01*
X-19225Y-0280D02*
X-13858Y-0280D01*
X-12686Y-0280D02*
X-9214Y-0280D01*
X-7546Y-0280D02*
X10994Y-0280D01*
X12276Y-0280D02*
X19225Y-0280D01*
X-19225Y-0230D02*
X-13859Y-0230D01*
X-12736Y-0230D02*
X-9164Y-0230D01*
X-7527Y-0230D02*
X10960Y-0230D01*
X12311Y-0230D02*
X19225Y-0230D01*
X-19225Y-0181D02*
X-13859Y-0181D01*
X-12785Y-0181D02*
X-9115Y-0181D01*
X-7509Y-0181D02*
X10941Y-0181D01*
X12330Y-0181D02*
X19225Y-0181D01*
X-19225Y-0131D02*
X-13859Y-0131D01*
X-12835Y-0131D02*
X-9065Y-0131D01*
X-7503Y-0131D02*
X10922Y-0131D01*
X12348Y-0131D02*
X19225Y-0131D01*
X-19225Y-0082D02*
X-13859Y-0082D01*
X-12884Y-0082D02*
X-9016Y-0082D01*
X-7497Y-0082D02*
X10904Y-0082D01*
X12367Y-0082D02*
X19225Y-0082D01*
X-19225Y-0032D02*
X-13859Y-0032D01*
X-12891Y-0032D02*
X-9009Y-0032D01*
X-7491Y-0032D02*
X10891Y-0032D01*
X12379Y-0032D02*
X19225Y-0032D01*
X-19225Y0017D02*
X-13859Y0017D01*
X-12891Y0017D02*
X-9011Y0017D01*
X-7489Y0017D02*
X10885Y0017D01*
X12385Y0017D02*
X19225Y0017D01*
X-19225Y0067D02*
X-13859Y0067D01*
X-12891Y0067D02*
X-9005Y0067D01*
X-7495Y0067D02*
X10879Y0067D01*
X12392Y0067D02*
X19225Y0067D01*
X-19225Y0116D02*
X-13859Y0116D01*
X-12891Y0116D02*
X-8999Y0116D01*
X-7501Y0116D02*
X10873Y0116D01*
X12398Y0116D02*
X19225Y0116D01*
X-19225Y0166D02*
X-13859Y0166D01*
X-12891Y0166D02*
X-8993Y0166D01*
X-7507Y0166D02*
X10877Y0166D01*
X12394Y0166D02*
X19225Y0166D01*
X-19225Y0215D02*
X-13859Y0215D01*
X-12891Y0215D02*
X-8979Y0215D01*
X-7521Y0215D02*
X10883Y0215D01*
X12388Y0215D02*
X19225Y0215D01*
X-19225Y0265D02*
X-13859Y0265D01*
X-12891Y0265D02*
X-8960Y0265D01*
X-7540Y0265D02*
X10889Y0265D01*
X12382Y0265D02*
X19225Y0265D01*
X-19225Y0314D02*
X-13859Y0314D01*
X-12891Y0314D02*
X-8941Y0314D01*
X-7559Y0314D02*
X10897Y0314D01*
X12374Y0314D02*
X19225Y0314D01*
X-19225Y0364D02*
X-13859Y0364D01*
X-12891Y0364D02*
X-8919Y0364D01*
X-7581Y0364D02*
X10916Y0364D01*
X12355Y0364D02*
X19225Y0364D01*
X-19225Y0413D02*
X-13859Y0413D01*
X-12891Y0413D02*
X-8885Y0413D01*
X-7615Y0413D02*
X10935Y0413D01*
X12336Y0413D02*
X19225Y0413D01*
X-19225Y0463D02*
X-13859Y0463D01*
X-12891Y0463D02*
X-8851Y0463D01*
X-7649Y0463D02*
X10953Y0463D01*
X12318Y0463D02*
X19225Y0463D01*
X-19225Y0512D02*
X-13859Y0512D01*
X-12891Y0512D02*
X-8814Y0512D01*
X-7686Y0512D02*
X10982Y0512D01*
X12289Y0512D02*
X19225Y0512D01*
X-19225Y0562D02*
X-13859Y0562D01*
X-12891Y0562D02*
X-8758Y0562D01*
X-7742Y0562D02*
X11016Y0562D01*
X12254Y0562D02*
X19225Y0562D01*
X-19225Y0612D02*
X-13859Y0612D01*
X-12891Y0612D02*
X-8702Y0612D01*
X-7798Y0612D02*
X11051Y0612D01*
X12220Y0612D02*
X19225Y0612D01*
X-19225Y0661D02*
X-13859Y0661D01*
X-12891Y0661D02*
X-8621Y0661D01*
X-7879Y0661D02*
X11098Y0661D01*
X12173Y0661D02*
X19225Y0661D01*
X-19225Y0711D02*
X-13859Y0711D01*
X-12891Y0711D02*
X-8526Y0711D01*
X-7974Y0711D02*
X11154Y0711D01*
X12117Y0711D02*
X19225Y0711D01*
X-19225Y0760D02*
X-13859Y0760D01*
X-12891Y0760D02*
X11215Y0760D01*
X12056Y0760D02*
X19225Y0760D01*
X-19225Y0810D02*
X-13859Y0810D01*
X-12891Y0810D02*
X11310Y0810D01*
X11961Y0810D02*
X19225Y0810D01*
X-19225Y0859D02*
X-13859Y0859D01*
X-12891Y0859D02*
X11448Y0859D01*
X11823Y0859D02*
X19225Y0859D01*
X-19225Y0909D02*
X-13859Y0909D01*
X-12891Y0909D02*
X19225Y0909D01*
X-19225Y0958D02*
X-13859Y0958D01*
X-12891Y0958D02*
X19225Y0958D01*
X-19225Y1008D02*
X-13859Y1008D01*
X-12891Y1008D02*
X19225Y1008D01*
X-19225Y1057D02*
X-13859Y1057D01*
X-12891Y1057D02*
X19225Y1057D01*
X-19225Y1107D02*
X-13859Y1107D01*
X-12891Y1107D02*
X19225Y1107D01*
X-19225Y1156D02*
X-13859Y1156D01*
X-12891Y1156D02*
X19225Y1156D01*
X-19225Y1206D02*
X-13859Y1206D01*
X-12891Y1206D02*
X19225Y1206D01*
X-19225Y1255D02*
X-13859Y1255D01*
X-12891Y1255D02*
X19225Y1255D01*
X-19225Y1305D02*
X-13859Y1305D01*
X-12891Y1305D02*
X19225Y1305D01*
X-19225Y1354D02*
X-13859Y1354D01*
X-12891Y1354D02*
X19225Y1354D01*
X-19225Y1404D02*
X-13859Y1404D01*
X-12891Y1404D02*
X19225Y1404D01*
X-19225Y1454D02*
X-13859Y1454D01*
X-12891Y1454D02*
X19225Y1454D01*
X-19225Y1503D02*
X-13859Y1503D01*
X-12891Y1503D02*
X19225Y1503D01*
X-19225Y1553D02*
X-13859Y1553D01*
X-12891Y1553D02*
X19225Y1553D01*
X-19225Y1602D02*
X-13859Y1602D01*
X-12891Y1602D02*
X19225Y1602D01*
X-19225Y1652D02*
X-13859Y1652D01*
X-12891Y1652D02*
X19225Y1652D01*
X-19225Y1701D02*
X-13859Y1701D01*
X-12891Y1701D02*
X19225Y1701D01*
X-19225Y1751D02*
X-13859Y1751D01*
X-12891Y1751D02*
X19225Y1751D01*
X-19225Y1800D02*
X-13859Y1800D01*
X-12891Y1800D02*
X19225Y1800D01*
X-19225Y1850D02*
X-13859Y1850D01*
X-12891Y1850D02*
X19225Y1850D01*
X-19225Y1899D02*
X-13859Y1899D01*
X-12891Y1899D02*
X19225Y1899D01*
X-19225Y1949D02*
X-13859Y1949D01*
X-12891Y1949D02*
X19225Y1949D01*
X-19225Y1998D02*
X-13859Y1998D01*
X-12891Y1998D02*
X19225Y1998D01*
X-19225Y2048D02*
X-13859Y2048D01*
X-12891Y2048D02*
X19225Y2048D01*
X-19225Y2097D02*
X-13859Y2097D01*
X-12891Y2097D02*
X19225Y2097D01*
X-19225Y2147D02*
X-13859Y2147D01*
X-12891Y2147D02*
X19225Y2147D01*
X-19225Y2196D02*
X-13859Y2196D01*
X-12891Y2196D02*
X19225Y2196D01*
X-19225Y2246D02*
X-13859Y2246D01*
X-12891Y2246D02*
X19225Y2246D01*
X-19225Y2296D02*
X-13859Y2296D01*
X-12891Y2296D02*
X19225Y2296D01*
X-19225Y2345D02*
X-13859Y2345D01*
X-12891Y2345D02*
X19225Y2345D01*
X-19225Y2395D02*
X-13859Y2395D01*
X-12891Y2395D02*
X19225Y2395D01*
X-19225Y2444D02*
X-13859Y2444D01*
X-12891Y2444D02*
X19225Y2444D01*
X-19225Y2494D02*
X-13859Y2494D01*
X-12891Y2494D02*
X19225Y2494D01*
X-19225Y2543D02*
X-13859Y2543D01*
X-12891Y2543D02*
X19225Y2543D01*
X-19225Y2593D02*
X-13859Y2593D01*
X-12891Y2593D02*
X19225Y2593D01*
X-19225Y2642D02*
X-13859Y2642D01*
X-12891Y2642D02*
X19225Y2642D01*
X-19225Y2692D02*
X-13859Y2692D01*
X-12891Y2692D02*
X19225Y2692D01*
X-19225Y2741D02*
X-13859Y2741D01*
X-12891Y2741D02*
X19225Y2741D01*
X-19225Y2791D02*
X-13859Y2791D01*
X-12891Y2791D02*
X19225Y2791D01*
X-19225Y2840D02*
X-13859Y2840D01*
X-12891Y2840D02*
X19225Y2840D01*
X-19225Y2890D02*
X-13859Y2890D01*
X-12891Y2890D02*
X19225Y2890D01*
X-19225Y2939D02*
X-13859Y2939D01*
X-12891Y2939D02*
X19225Y2939D01*
X-19225Y2989D02*
X-13859Y2989D01*
X-12891Y2989D02*
X19225Y2989D01*
X-19225Y3038D02*
X-13859Y3038D01*
X-12891Y3038D02*
X19225Y3038D01*
X-19225Y3088D02*
X-13859Y3088D01*
X-12891Y3088D02*
X19225Y3088D01*
X-19225Y3138D02*
X-13859Y3138D01*
X-12891Y3138D02*
X19225Y3138D01*
X-19225Y3187D02*
X-13859Y3187D01*
X-12891Y3187D02*
X19225Y3187D01*
X-19225Y3237D02*
X-13859Y3237D01*
X-12891Y3237D02*
X19225Y3237D01*
X-19225Y3286D02*
X-13859Y3286D01*
X-12891Y3286D02*
X19225Y3286D01*
X-19225Y3336D02*
X-13859Y3336D01*
X-12891Y3336D02*
X19225Y3336D01*
X-19225Y3385D02*
X-13859Y3385D01*
X-12891Y3385D02*
X19225Y3385D01*
X-19225Y3435D02*
X-13859Y3435D01*
X-12891Y3435D02*
X19225Y3435D01*
X-19225Y3484D02*
X-13859Y3484D01*
X-12891Y3484D02*
X19225Y3484D01*
X-19225Y3534D02*
X-13859Y3534D01*
X-12891Y3534D02*
X19225Y3534D01*
X-19225Y3583D02*
X-13859Y3583D01*
X-12891Y3583D02*
X19225Y3583D01*
X-19225Y3633D02*
X-13859Y3633D01*
X-12891Y3633D02*
X19225Y3633D01*
X-19225Y3682D02*
X-13859Y3682D01*
X-12891Y3682D02*
X19225Y3682D01*
X-19225Y3732D02*
X-13859Y3732D01*
X-12891Y3732D02*
X19225Y3732D01*
X-19225Y3781D02*
X-13859Y3781D01*
X-12891Y3781D02*
X19225Y3781D01*
X-19225Y3831D02*
X-13859Y3831D01*
X-12891Y3831D02*
X19225Y3831D01*
X-19225Y3881D02*
X-13859Y3881D01*
X-12891Y3881D02*
X19225Y3881D01*
X-19225Y3930D02*
X-13859Y3930D01*
X-12891Y3930D02*
X19225Y3930D01*
X-19225Y3980D02*
X-13859Y3980D01*
X-12891Y3980D02*
X19225Y3980D01*
X-19225Y4029D02*
X-13859Y4029D01*
X-12891Y4029D02*
X19225Y4029D01*
X-19225Y4079D02*
X-13859Y4079D01*
X-12891Y4079D02*
X19225Y4079D01*
X-19225Y4128D02*
X-13859Y4128D01*
X-12891Y4128D02*
X19225Y4128D01*
X-19225Y4178D02*
X-13859Y4178D01*
X-12891Y4178D02*
X19225Y4178D01*
X-19225Y4227D02*
X-13859Y4227D01*
X-12891Y4227D02*
X19225Y4227D01*
X-19225Y4277D02*
X-13859Y4277D01*
X-12891Y4277D02*
X19225Y4277D01*
X-19225Y4326D02*
X-13859Y4326D01*
X-12891Y4326D02*
X19225Y4326D01*
X-19225Y4376D02*
X-13859Y4376D01*
X-12891Y4376D02*
X19225Y4376D01*
X-19225Y4425D02*
X-13859Y4425D01*
X-12891Y4425D02*
X19225Y4425D01*
X-19225Y4475D02*
X-13859Y4475D01*
X-12891Y4475D02*
X19225Y4475D01*
X-19225Y4524D02*
X-13859Y4524D01*
X-12891Y4524D02*
X19225Y4524D01*
X-19225Y4574D02*
X-13859Y4574D01*
X-12891Y4574D02*
X19225Y4574D01*
X-19225Y4623D02*
X-13859Y4623D01*
X-12891Y4623D02*
X19225Y4623D01*
X-19225Y4673D02*
X-13859Y4673D01*
X-12891Y4673D02*
X19225Y4673D01*
X-19225Y4723D02*
X-13859Y4723D01*
X-12891Y4723D02*
X19225Y4723D01*
X-19225Y4772D02*
X-13859Y4772D01*
X-12891Y4772D02*
X19225Y4772D01*
X-19225Y4822D02*
X-13859Y4822D01*
X-12891Y4822D02*
X19225Y4822D01*
X-19225Y4871D02*
X-13859Y4871D01*
X-12891Y4871D02*
X19225Y4871D01*
X-19225Y4921D02*
X-13859Y4921D01*
X-12891Y4921D02*
X19225Y4921D01*
X-19225Y4970D02*
X-13859Y4970D01*
X-12891Y4970D02*
X19225Y4970D01*
X-19225Y5020D02*
X-13859Y5020D01*
X-12891Y5020D02*
X19225Y5020D01*
X-19225Y5069D02*
X-13859Y5069D01*
X-12891Y5069D02*
X19225Y5069D01*
X-19225Y5119D02*
X-13859Y5119D01*
X-12891Y5119D02*
X19225Y5119D01*
X-19225Y5168D02*
X-13859Y5168D01*
X-12891Y5168D02*
X19225Y5168D01*
X-19225Y5218D02*
X-13859Y5218D01*
X-12891Y5218D02*
X19225Y5218D01*
X-19225Y5267D02*
X-13859Y5267D01*
X-12891Y5267D02*
X19225Y5267D01*
X-19225Y5317D02*
X-13859Y5317D01*
X-12891Y5317D02*
X19225Y5317D01*
X-19225Y5366D02*
X-13859Y5366D01*
X-12891Y5366D02*
X19225Y5366D01*
X-19225Y5416D02*
X-13859Y5416D01*
X-12891Y5416D02*
X19225Y5416D01*
X-19225Y5465D02*
X-13859Y5465D01*
X-12891Y5465D02*
X19225Y5465D01*
X-19225Y5515D02*
X-13859Y5515D01*
X-12891Y5515D02*
X19225Y5515D01*
X-19225Y5565D02*
X-13859Y5565D01*
X-12891Y5565D02*
X19225Y5565D01*
X-19225Y5614D02*
X-13859Y5614D01*
X-12891Y5614D02*
X19225Y5614D01*
X-19225Y5664D02*
X-13859Y5664D01*
X-12891Y5664D02*
X19225Y5664D01*
X-19225Y5713D02*
X-13859Y5713D01*
X-12891Y5713D02*
X19225Y5713D01*
X-19225Y5763D02*
X-13859Y5763D01*
X-12891Y5763D02*
X19225Y5763D01*
X-19225Y5812D02*
X-13859Y5812D01*
X-12891Y5812D02*
X19225Y5812D01*
X-19225Y5862D02*
X-13859Y5862D01*
X-12891Y5862D02*
X19225Y5862D01*
X-19225Y5911D02*
X-13859Y5911D01*
X-12891Y5911D02*
X19225Y5911D01*
X-19225Y5961D02*
X-13859Y5961D01*
X-12891Y5961D02*
X19225Y5961D01*
X-19225Y6010D02*
X-13859Y6010D01*
X-12891Y6010D02*
X19225Y6010D01*
X-19225Y6060D02*
X-13859Y6060D01*
X-12891Y6060D02*
X19225Y6060D01*
X-19225Y6109D02*
X-13859Y6109D01*
X-12891Y6109D02*
X19225Y6109D01*
X-19225Y6159D02*
X-13859Y6159D01*
X-12891Y6159D02*
X19225Y6159D01*
X-19225Y6208D02*
X-13859Y6208D01*
X-12891Y6208D02*
X-9916Y6208D01*
X-9424Y6208D02*
X-7376Y6208D01*
X-6884Y6208D02*
X19225Y6208D01*
X-19225Y6258D02*
X-13859Y6258D01*
X-12891Y6258D02*
X-10069Y6258D01*
X-9271Y6258D02*
X-7529Y6258D01*
X-6731Y6258D02*
X19225Y6258D01*
X-19225Y6307D02*
X-13859Y6307D01*
X-12891Y6307D02*
X-10163Y6307D01*
X-9177Y6307D02*
X-7623Y6307D01*
X-6637Y6307D02*
X19225Y6307D01*
X-19225Y6357D02*
X-13859Y6357D01*
X-12891Y6357D02*
X-10251Y6357D01*
X-9089Y6357D02*
X-7711Y6357D01*
X-6549Y6357D02*
X19225Y6357D01*
X-19225Y6407D02*
X-13859Y6407D01*
X-12891Y6407D02*
X-10307Y6407D01*
X-9033Y6407D02*
X-7767Y6407D01*
X-6493Y6407D02*
X19225Y6407D01*
X-19225Y6456D02*
X-13859Y6456D01*
X-12891Y6456D02*
X-10363Y6456D01*
X-8977Y6456D02*
X-7823Y6456D01*
X-6437Y6456D02*
X19225Y6456D01*
X-19225Y6506D02*
X-13859Y6506D01*
X-12891Y6506D02*
X-10419Y6506D01*
X-8921Y6506D02*
X-7879Y6506D01*
X-6381Y6506D02*
X19225Y6506D01*
X-19225Y6555D02*
X-13859Y6555D01*
X-12891Y6555D02*
X-10454Y6555D01*
X-8886Y6555D02*
X-7914Y6555D01*
X-6346Y6555D02*
X19225Y6555D01*
X-19225Y6605D02*
X-13859Y6605D01*
X-12891Y6605D02*
X-10488Y6605D01*
X-8852Y6605D02*
X-7948Y6605D01*
X-6312Y6605D02*
X19225Y6605D01*
X-19225Y6654D02*
X-13859Y6654D01*
X-12891Y6654D02*
X-10523Y6654D01*
X-8817Y6654D02*
X-7983Y6654D01*
X-6277Y6654D02*
X19225Y6654D01*
X-19225Y6704D02*
X-13859Y6704D01*
X-12891Y6704D02*
X-10557Y6704D01*
X-8783Y6704D02*
X-8017Y6704D01*
X-6243Y6704D02*
X19225Y6704D01*
X-19225Y6753D02*
X-13859Y6753D01*
X-12891Y6753D02*
X-10577Y6753D01*
X-8763Y6753D02*
X-8037Y6753D01*
X-6223Y6753D02*
X19225Y6753D01*
X-19225Y6803D02*
X-13859Y6803D01*
X-12891Y6803D02*
X-10596Y6803D01*
X-8744Y6803D02*
X-8056Y6803D01*
X-6204Y6803D02*
X19225Y6803D01*
X-19225Y6852D02*
X-13859Y6852D01*
X-12891Y6852D02*
X-10614Y6852D01*
X-8726Y6852D02*
X-8074Y6852D01*
X-6186Y6852D02*
X19225Y6852D01*
X-19225Y6902D02*
X-13859Y6902D01*
X-12891Y6902D02*
X-10633Y6902D01*
X-8707Y6902D02*
X-8093Y6902D01*
X-6167Y6902D02*
X19225Y6902D01*
X-19225Y6951D02*
X-13859Y6951D01*
X-12891Y6951D02*
X-10648Y6951D01*
X-8692Y6951D02*
X-8108Y6951D01*
X-6152Y6951D02*
X19225Y6951D01*
X-19225Y7001D02*
X-13859Y7001D01*
X-12891Y7001D02*
X-10654Y7001D01*
X-8686Y7001D02*
X-8114Y7001D01*
X-6146Y7001D02*
X19225Y7001D01*
X-19225Y7050D02*
X-13859Y7050D01*
X-12891Y7050D02*
X-10660Y7050D01*
X-8680Y7050D02*
X-8120Y7050D01*
X-6140Y7050D02*
X19225Y7050D01*
X-19225Y7100D02*
X-13859Y7100D01*
X-12891Y7100D02*
X-10666Y7100D01*
X-8674Y7100D02*
X-8126Y7100D01*
X-6134Y7100D02*
X19225Y7100D01*
X-19225Y7149D02*
X-13859Y7149D01*
X-12891Y7149D02*
X-10672Y7149D01*
X-8668Y7149D02*
X-8132Y7149D01*
X-6128Y7149D02*
X19225Y7149D01*
X-19225Y7199D02*
X-13859Y7199D01*
X-12891Y7199D02*
X-10672Y7199D01*
X-8668Y7199D02*
X-8132Y7199D01*
X-6128Y7199D02*
X19225Y7199D01*
X-19225Y7249D02*
X-13859Y7249D01*
X-12891Y7249D02*
X-10666Y7249D01*
X-8674Y7249D02*
X-8126Y7249D01*
X-6134Y7249D02*
X19225Y7249D01*
X-19225Y7298D02*
X-13859Y7298D01*
X-12891Y7298D02*
X-10660Y7298D01*
X-8680Y7298D02*
X-8120Y7298D01*
X-6140Y7298D02*
X19225Y7298D01*
X-19225Y7348D02*
X-13859Y7348D01*
X-12891Y7348D02*
X-10654Y7348D01*
X-8686Y7348D02*
X-8114Y7348D01*
X-6146Y7348D02*
X19225Y7348D01*
X-19225Y7397D02*
X-13859Y7397D01*
X-12891Y7397D02*
X-10648Y7397D01*
X-8692Y7397D02*
X-8108Y7397D01*
X-6152Y7397D02*
X19225Y7397D01*
X-19225Y7447D02*
X-13859Y7447D01*
X-12891Y7447D02*
X-10634Y7447D01*
X-8706Y7447D02*
X-8094Y7447D01*
X-6166Y7447D02*
X19225Y7447D01*
X-19225Y7496D02*
X-13859Y7496D01*
X-12891Y7496D02*
X-10615Y7496D01*
X-8725Y7496D02*
X-8075Y7496D01*
X-6185Y7496D02*
X19225Y7496D01*
X-19225Y7546D02*
X-13859Y7546D01*
X-12891Y7546D02*
X-10596Y7546D01*
X-8744Y7546D02*
X-8056Y7546D01*
X-6204Y7546D02*
X19225Y7546D01*
X-19225Y7595D02*
X-13859Y7595D01*
X-12891Y7595D02*
X-10577Y7595D01*
X-8763Y7595D02*
X-8037Y7595D01*
X-6223Y7595D02*
X19225Y7595D01*
X-19225Y7645D02*
X-13859Y7645D01*
X-12891Y7645D02*
X-10558Y7645D01*
X-8782Y7645D02*
X-8018Y7645D01*
X-6242Y7645D02*
X19225Y7645D01*
X-19225Y7694D02*
X-13859Y7694D01*
X-12891Y7694D02*
X-10524Y7694D01*
X-8816Y7694D02*
X-7984Y7694D01*
X-6276Y7694D02*
X19225Y7694D01*
X-19225Y7744D02*
X-13859Y7744D01*
X-12891Y7744D02*
X-10489Y7744D01*
X-8851Y7744D02*
X-7949Y7744D01*
X-6311Y7744D02*
X19225Y7744D01*
X-19225Y7793D02*
X-13859Y7793D01*
X-12891Y7793D02*
X-10455Y7793D01*
X-8885Y7793D02*
X-7915Y7793D01*
X-6345Y7793D02*
X19225Y7793D01*
X-19225Y7843D02*
X-13859Y7843D01*
X-12891Y7843D02*
X-10420Y7843D01*
X-8920Y7843D02*
X-7880Y7843D01*
X-6380Y7843D02*
X19225Y7843D01*
X-19225Y7892D02*
X-13859Y7892D01*
X-12891Y7892D02*
X-10364Y7892D01*
X-8976Y7892D02*
X-7824Y7892D01*
X-6436Y7892D02*
X19225Y7892D01*
X-19225Y7942D02*
X-13859Y7942D01*
X-12891Y7942D02*
X-10308Y7942D01*
X-9032Y7942D02*
X-7768Y7942D01*
X-6492Y7942D02*
X19225Y7942D01*
X-19225Y7991D02*
X-13859Y7991D01*
X-12891Y7991D02*
X-10253Y7991D01*
X-9087Y7991D02*
X-7713Y7991D01*
X-6547Y7991D02*
X19225Y7991D01*
X-19225Y8041D02*
X-13859Y8041D01*
X-12891Y8041D02*
X-10166Y8041D01*
X-9174Y8041D02*
X-7626Y8041D01*
X-6634Y8041D02*
X19225Y8041D01*
X-19225Y8091D02*
X-13859Y8091D01*
X-12891Y8091D02*
X-10072Y8091D01*
X-9268Y8091D02*
X-7532Y8091D01*
X-6728Y8091D02*
X19225Y8091D01*
X-19225Y8140D02*
X-13859Y8140D01*
X-12891Y8140D02*
X-9922Y8140D01*
X-9418Y8140D02*
X-7382Y8140D01*
X-6878Y8140D02*
X19225Y8140D01*
X-19225Y8190D02*
X-13859Y8190D01*
X-12891Y8190D02*
X19225Y8190D01*
X-19225Y8239D02*
X-13859Y8239D01*
X-12891Y8239D02*
X19225Y8239D01*
X-19225Y8289D02*
X-13859Y8289D01*
X-12891Y8289D02*
X19225Y8289D01*
X-19225Y8338D02*
X-13859Y8338D01*
X-12891Y8338D02*
X19225Y8338D01*
X-19225Y8388D02*
X-13859Y8388D01*
X-12853Y8388D02*
X19225Y8388D01*
X-19225Y8437D02*
X-13859Y8437D01*
X-12804Y8437D02*
X19225Y8437D01*
X-19225Y8487D02*
X-13859Y8487D01*
X-12754Y8487D02*
X19225Y8487D01*
X-19225Y8536D02*
X-13859Y8536D01*
X-12705Y8536D02*
X19225Y8536D01*
X-19225Y8586D02*
X-13855Y8586D01*
X-12655Y8586D02*
X19225Y8586D01*
X-19225Y8635D02*
X-13850Y8635D01*
X-12606Y8635D02*
X19225Y8635D01*
X-19225Y8685D02*
X-13837Y8685D01*
X-12556Y8685D02*
X19225Y8685D01*
X-19225Y8734D02*
X-13822Y8734D01*
X-12507Y8734D02*
X-9860Y8734D01*
X-9480Y8734D02*
X-7320Y8734D01*
X-6940Y8734D02*
X19225Y8734D01*
X-19225Y8784D02*
X-13796Y8784D01*
X-12457Y8784D02*
X-10042Y8784D01*
X-9298Y8784D02*
X-7502Y8784D01*
X-6758Y8784D02*
X19225Y8784D01*
X-19225Y8834D02*
X-13765Y8834D01*
X-12408Y8834D02*
X-10137Y8834D01*
X-9203Y8834D02*
X-7597Y8834D01*
X-6663Y8834D02*
X19225Y8834D01*
X-19225Y8883D02*
X-13724Y8883D01*
X-12358Y8883D02*
X-10231Y8883D01*
X-9109Y8883D02*
X-7691Y8883D01*
X-6569Y8883D02*
X19225Y8883D01*
X-19225Y8933D02*
X-13676Y8933D01*
X-12309Y8933D02*
X-10291Y8933D01*
X-9049Y8933D02*
X-7751Y8933D01*
X-6509Y8933D02*
X19225Y8933D01*
X-19225Y8982D02*
X-13627Y8982D01*
X-12259Y8982D02*
X-10347Y8982D01*
X-8993Y8982D02*
X-7807Y8982D01*
X-6453Y8982D02*
X19225Y8982D01*
X-19225Y9032D02*
X-13577Y9032D01*
X-12209Y9032D02*
X-10403Y9032D01*
X-8937Y9032D02*
X-7863Y9032D01*
X-6397Y9032D02*
X19225Y9032D01*
X-19225Y9081D02*
X-13528Y9081D01*
X-12160Y9081D02*
X-10444Y9081D01*
X-8896Y9081D02*
X-7904Y9081D01*
X-6356Y9081D02*
X19225Y9081D01*
X-19225Y9131D02*
X-13478Y9131D01*
X-12110Y9131D02*
X-10479Y9131D01*
X-8861Y9131D02*
X-7939Y9131D01*
X-6321Y9131D02*
X19225Y9131D01*
X-19225Y9180D02*
X-13429Y9180D01*
X-12061Y9180D02*
X-10513Y9180D01*
X-8827Y9180D02*
X-7973Y9180D01*
X-6287Y9180D02*
X19225Y9180D01*
X-19225Y9230D02*
X-13379Y9230D01*
X-12011Y9230D02*
X-10547Y9230D01*
X-8793Y9230D02*
X-8007Y9230D01*
X-6253Y9230D02*
X19225Y9230D01*
X-19225Y9279D02*
X-13330Y9279D01*
X-11962Y9279D02*
X-10572Y9279D01*
X-8768Y9279D02*
X-8032Y9279D01*
X-6228Y9279D02*
X19225Y9279D01*
X-19225Y9329D02*
X-13280Y9329D01*
X-11912Y9329D02*
X-10590Y9329D01*
X-8750Y9329D02*
X-8050Y9329D01*
X-6210Y9329D02*
X19225Y9329D01*
X-19225Y9378D02*
X-13231Y9378D01*
X-11863Y9378D02*
X-10609Y9378D01*
X-8731Y9378D02*
X-8069Y9378D01*
X-6191Y9378D02*
X19225Y9378D01*
X-19225Y9428D02*
X-13181Y9428D01*
X-11813Y9428D02*
X-10628Y9428D01*
X-8712Y9428D02*
X-8088Y9428D01*
X-6172Y9428D02*
X19225Y9428D01*
X-19225Y9477D02*
X-13132Y9477D01*
X-11764Y9477D02*
X-10646Y9477D01*
X-8694Y9477D02*
X-8106Y9477D01*
X-6154Y9477D02*
X19225Y9477D01*
X-19225Y9527D02*
X-13082Y9527D01*
X-11714Y9527D02*
X-10652Y9527D01*
X-8688Y9527D02*
X-8112Y9527D01*
X-6148Y9527D02*
X19225Y9527D01*
X-19225Y9576D02*
X-13032Y9576D01*
X-11665Y9576D02*
X-10658Y9576D01*
X-8682Y9576D02*
X-8118Y9576D01*
X-6142Y9576D02*
X19225Y9576D01*
X-19225Y9626D02*
X-12983Y9626D01*
X-11615Y9626D02*
X-10664Y9626D01*
X-8676Y9626D02*
X-8124Y9626D01*
X-6136Y9626D02*
X19225Y9626D01*
X-19225Y9676D02*
X-12933Y9676D01*
X-11566Y9676D02*
X-10670Y9676D01*
X-8670Y9676D02*
X-8130Y9676D01*
X-6130Y9676D02*
X19225Y9676D01*
X-19225Y9725D02*
X-12884Y9725D01*
X-11516Y9725D02*
X-10674Y9725D01*
X-8666Y9725D02*
X-8134Y9725D01*
X-6126Y9725D02*
X19225Y9725D01*
X-19225Y9775D02*
X-12834Y9775D01*
X-11467Y9775D02*
X-10668Y9775D01*
X-8672Y9775D02*
X-8128Y9775D01*
X-6132Y9775D02*
X19225Y9775D01*
X-19225Y9824D02*
X-12785Y9824D01*
X-11417Y9824D02*
X-10662Y9824D01*
X-8678Y9824D02*
X-8122Y9824D01*
X-6138Y9824D02*
X19225Y9824D01*
X-19225Y9874D02*
X-12735Y9874D01*
X-11367Y9874D02*
X-10656Y9874D01*
X-8684Y9874D02*
X-8116Y9874D01*
X-6144Y9874D02*
X19225Y9874D01*
X-19225Y9923D02*
X-12686Y9923D01*
X-11318Y9923D02*
X-10650Y9923D01*
X-8690Y9923D02*
X-8110Y9923D01*
X-6150Y9923D02*
X19225Y9923D01*
X-19225Y9973D02*
X-12636Y9973D01*
X-11268Y9973D02*
X-10639Y9973D01*
X-8701Y9973D02*
X-8099Y9973D01*
X-6161Y9973D02*
X19225Y9973D01*
X-19225Y10022D02*
X-12587Y10022D01*
X-11219Y10022D02*
X-10620Y10022D01*
X-8720Y10022D02*
X-8080Y10022D01*
X-6180Y10022D02*
X19225Y10022D01*
X-19225Y10072D02*
X-12537Y10072D01*
X-11169Y10072D02*
X-10601Y10072D01*
X-8739Y10072D02*
X-8061Y10072D01*
X-6199Y10072D02*
X19225Y10072D01*
X-19225Y10121D02*
X-12488Y10121D01*
X-11120Y10121D02*
X-10583Y10121D01*
X-8757Y10121D02*
X-8043Y10121D01*
X-6217Y10121D02*
X19225Y10121D01*
X-19225Y10171D02*
X-12438Y10171D01*
X-11070Y10171D02*
X-10564Y10171D01*
X-8776Y10171D02*
X-8024Y10171D01*
X-6236Y10171D02*
X19225Y10171D01*
X-19225Y10220D02*
X-12389Y10220D01*
X-11021Y10220D02*
X-10533Y10220D01*
X-8807Y10220D02*
X-7993Y10220D01*
X-6267Y10220D02*
X19225Y10220D01*
X-19225Y10270D02*
X-12339Y10270D01*
X-10971Y10270D02*
X-10499Y10270D01*
X-8841Y10270D02*
X-7959Y10270D01*
X-6301Y10270D02*
X19225Y10270D01*
X-19225Y10319D02*
X-12290Y10319D01*
X-10922Y10319D02*
X-10465Y10319D01*
X-8875Y10319D02*
X-7925Y10319D01*
X-6335Y10319D02*
X19225Y10319D01*
X-19225Y10369D02*
X-12240Y10369D01*
X-10872Y10369D02*
X-10431Y10369D01*
X-8909Y10369D02*
X-7891Y10369D01*
X-6369Y10369D02*
X19225Y10369D01*
X-19225Y10418D02*
X-12190Y10418D01*
X-10823Y10418D02*
X-10380Y10418D01*
X-8960Y10418D02*
X-7840Y10418D01*
X-6420Y10418D02*
X19225Y10418D01*
X-19225Y10468D02*
X-12141Y10468D01*
X-10773Y10468D02*
X-10324Y10468D01*
X-9016Y10468D02*
X-7784Y10468D01*
X-6476Y10468D02*
X19225Y10468D01*
X-19225Y10518D02*
X-12091Y10518D01*
X-10724Y10518D02*
X-10268Y10518D01*
X-9072Y10518D02*
X-7728Y10518D01*
X-6532Y10518D02*
X19225Y10518D01*
X-19225Y10567D02*
X-12042Y10567D01*
X-10674Y10567D02*
X-10193Y10567D01*
X-9147Y10567D02*
X-7653Y10567D01*
X-6607Y10567D02*
X19225Y10567D01*
X-19225Y10617D02*
X-11992Y10617D01*
X-10624Y10617D02*
X-10099Y10617D01*
X-9241Y10617D02*
X-7559Y10617D01*
X-6701Y10617D02*
X19225Y10617D01*
X-19225Y10666D02*
X-11943Y10666D01*
X-10575Y10666D02*
X-9979Y10666D01*
X-9361Y10666D02*
X-7439Y10666D01*
X-6821Y10666D02*
X19225Y10666D01*
X-19225Y10716D02*
X-11893Y10716D01*
X-10525Y10716D02*
X19225Y10716D01*
X-19225Y10765D02*
X-11844Y10765D01*
X-10476Y10765D02*
X19225Y10765D01*
X-19225Y10815D02*
X-11794Y10815D01*
X-10426Y10815D02*
X19225Y10815D01*
X-19225Y10864D02*
X-11745Y10864D01*
X-10377Y10864D02*
X19225Y10864D01*
X-19225Y10914D02*
X-11695Y10914D01*
X-10327Y10914D02*
X19225Y10914D01*
X-19225Y10963D02*
X-11646Y10963D01*
X-10278Y10963D02*
X19225Y10963D01*
X-19225Y11013D02*
X-11596Y11013D01*
X-10228Y11013D02*
X19225Y11013D01*
X-19225Y11062D02*
X-11547Y11062D01*
X-10179Y11062D02*
X19225Y11062D01*
X-19225Y11112D02*
X-11497Y11112D01*
X-10129Y11112D02*
X19225Y11112D01*
X-19225Y11161D02*
X-11447Y11161D01*
X-10080Y11161D02*
X-0145Y11161D01*
X0395Y11161D02*
X19225Y11161D01*
X-19225Y11211D02*
X-11398Y11211D01*
X-10030Y11211D02*
X-0240Y11211D01*
X0490Y11211D02*
X19225Y11211D01*
X-19225Y11260D02*
X-11348Y11260D01*
X-9981Y11260D02*
X-9803Y11260D01*
X-9537Y11260D02*
X-7263Y11260D01*
X-6997Y11260D02*
X-0324Y11260D01*
X0574Y11260D02*
X19225Y11260D01*
X-19225Y11310D02*
X-11299Y11310D01*
X-9336Y11310D02*
X-7464Y11310D01*
X-6796Y11310D02*
X-0380Y11310D01*
X0630Y11310D02*
X19225Y11310D01*
X-19225Y11360D02*
X-11249Y11360D01*
X-9230Y11360D02*
X-7570Y11360D01*
X-6690Y11360D02*
X-0436Y11360D01*
X0686Y11360D02*
X19225Y11360D01*
X-19225Y11409D02*
X-11200Y11409D01*
X-9135Y11409D02*
X-7665Y11409D01*
X-6595Y11409D02*
X-0474Y11409D01*
X0724Y11409D02*
X19225Y11409D01*
X-19225Y11459D02*
X-11150Y11459D01*
X-9065Y11459D02*
X-7735Y11459D01*
X-6525Y11459D02*
X-0508Y11459D01*
X0758Y11459D02*
X19225Y11459D01*
X-19225Y11508D02*
X-11101Y11508D01*
X-9009Y11508D02*
X-7791Y11508D01*
X-6469Y11508D02*
X-0542Y11508D01*
X0792Y11508D02*
X19225Y11508D01*
X-19225Y11558D02*
X-11051Y11558D01*
X-8953Y11558D02*
X-7847Y11558D01*
X-6413Y11558D02*
X-0565Y11558D01*
X0815Y11558D02*
X19225Y11558D01*
X-19225Y11607D02*
X-11002Y11607D01*
X-8905Y11607D02*
X-7895Y11607D01*
X-6365Y11607D02*
X-0584Y11607D01*
X0834Y11607D02*
X19225Y11607D01*
X-19225Y11657D02*
X-10952Y11657D01*
X-8871Y11657D02*
X-7929Y11657D01*
X-6331Y11657D02*
X-0602Y11657D01*
X0852Y11657D02*
X19225Y11657D01*
X-19225Y11706D02*
X-10903Y11706D01*
X-8837Y11706D02*
X-7963Y11706D01*
X-6297Y11706D02*
X-0618Y11706D01*
X0868Y11706D02*
X19225Y11706D01*
X-19225Y11756D02*
X-10853Y11756D01*
X-8803Y11756D02*
X-7997Y11756D01*
X-6263Y11756D02*
X-0624Y11756D01*
X0874Y11756D02*
X19225Y11756D01*
X-19225Y11805D02*
X-10804Y11805D01*
X-8774Y11805D02*
X-8026Y11805D01*
X-6234Y11805D02*
X-0630Y11805D01*
X0880Y11805D02*
X19225Y11805D01*
X-19225Y11855D02*
X-10754Y11855D01*
X-8755Y11855D02*
X-8045Y11855D01*
X-6215Y11855D02*
X-0636Y11855D01*
X0886Y11855D02*
X19225Y11855D01*
X-19225Y11904D02*
X-10705Y11904D01*
X-8736Y11904D02*
X-8064Y11904D01*
X-6196Y11904D02*
X-0635Y11904D01*
X0885Y11904D02*
X19225Y11904D01*
X-19225Y11954D02*
X-10655Y11954D01*
X-8717Y11954D02*
X-8083Y11954D01*
X-6177Y11954D02*
X-0638Y11954D01*
X0879Y11954D02*
X19225Y11954D01*
X-19211Y12003D02*
X-10641Y12003D01*
X-8699Y12003D02*
X-8101Y12003D01*
X-6159Y12003D02*
X-0687Y12003D01*
X0873Y12003D02*
X19211Y12003D01*
X-19161Y12053D02*
X-10650Y12053D01*
X-8690Y12053D02*
X-8110Y12053D01*
X-6150Y12053D02*
X-0737Y12053D01*
X0867Y12053D02*
X19161Y12053D01*
X-19112Y12102D02*
X-10656Y12102D01*
X-8684Y12102D02*
X-8116Y12102D01*
X-6144Y12102D02*
X-0786Y12102D01*
X0849Y12102D02*
X19112Y12102D01*
X-19062Y12152D02*
X-10662Y12152D01*
X-8678Y12152D02*
X-8122Y12152D01*
X-6138Y12152D02*
X-0836Y12152D01*
X0830Y12152D02*
X19062Y12152D01*
X-19013Y12202D02*
X-10668Y12202D01*
X-8672Y12202D02*
X-8128Y12202D01*
X-6132Y12202D02*
X-0885Y12202D01*
X0811Y12202D02*
X19013Y12202D01*
X-18963Y12251D02*
X-10674Y12251D01*
X-8666Y12251D02*
X-8134Y12251D01*
X-6126Y12251D02*
X-0935Y12251D01*
X0786Y12251D02*
X18963Y12251D01*
X-18913Y12301D02*
X-10669Y12301D01*
X-8671Y12301D02*
X-8129Y12301D01*
X-6131Y12301D02*
X-0985Y12301D01*
X0752Y12301D02*
X18913Y12301D01*
X-18864Y12350D02*
X-10663Y12350D01*
X-8677Y12350D02*
X-8123Y12350D01*
X-6137Y12350D02*
X-1034Y12350D01*
X0718Y12350D02*
X18864Y12350D01*
X-18814Y12400D02*
X-10657Y12400D01*
X-8683Y12400D02*
X-8117Y12400D01*
X-6143Y12400D02*
X-1084Y12400D01*
X0675Y12400D02*
X18814Y12400D01*
X-18765Y12449D02*
X-10651Y12449D01*
X-8689Y12449D02*
X-8111Y12449D01*
X-6149Y12449D02*
X-1133Y12449D01*
X0619Y12449D02*
X18765Y12449D01*
X-18715Y12499D02*
X-10644Y12499D01*
X-8696Y12499D02*
X-8104Y12499D01*
X-6156Y12499D02*
X-1183Y12499D01*
X0563Y12499D02*
X18715Y12499D01*
X-18666Y12548D02*
X-10647Y12548D01*
X-8714Y12548D02*
X-8086Y12548D01*
X-6174Y12548D02*
X-1232Y12548D01*
X0472Y12548D02*
X18666Y12548D01*
X-18616Y12598D02*
X-10697Y12598D01*
X-8733Y12598D02*
X-8067Y12598D01*
X-6193Y12598D02*
X-1282Y12598D01*
X0358Y12598D02*
X18616Y12598D01*
X-18567Y12647D02*
X-10746Y12647D01*
X-8752Y12647D02*
X-8048Y12647D01*
X-6212Y12647D02*
X-1331Y12647D01*
X0037Y12647D02*
X18567Y12647D01*
X-18517Y12697D02*
X-10796Y12697D01*
X-8771Y12697D02*
X-8029Y12697D01*
X-6231Y12697D02*
X-1381Y12697D01*
X-0013Y12697D02*
X18517Y12697D01*
X-18468Y12746D02*
X-10845Y12746D01*
X-8797Y12746D02*
X-8003Y12746D01*
X-6257Y12746D02*
X-1430Y12746D01*
X-0062Y12746D02*
X18468Y12746D01*
X-18418Y12796D02*
X-10895Y12796D01*
X-8831Y12796D02*
X-7969Y12796D01*
X-6291Y12796D02*
X-1480Y12796D01*
X-0112Y12796D02*
X18418Y12796D01*
X-18369Y12845D02*
X-10944Y12845D01*
X-8866Y12845D02*
X-7934Y12845D01*
X-6326Y12845D02*
X-1529Y12845D01*
X-0162Y12845D02*
X18369Y12845D01*
X-18319Y12895D02*
X-10994Y12895D01*
X-8900Y12895D02*
X-7900Y12895D01*
X-6360Y12895D02*
X-1579Y12895D01*
X-0211Y12895D02*
X18319Y12895D01*
X-18270Y12944D02*
X-11043Y12944D01*
X-8944Y12944D02*
X-7856Y12944D01*
X-6404Y12944D02*
X-1628Y12944D01*
X-0261Y12944D02*
X18270Y12944D01*
X-18220Y12994D02*
X-11093Y12994D01*
X-9000Y12994D02*
X-7800Y12994D01*
X-6460Y12994D02*
X-1678Y12994D01*
X-0310Y12994D02*
X18220Y12994D01*
X-18171Y13044D02*
X-11142Y13044D01*
X-9056Y13044D02*
X-7744Y13044D01*
X-6516Y13044D02*
X-1727Y13044D01*
X-0360Y13044D02*
X18171Y13044D01*
X-18121Y13093D02*
X-11192Y13093D01*
X-9120Y13093D02*
X-7680Y13093D01*
X-6580Y13093D02*
X-1777Y13093D01*
X-0409Y13093D02*
X18121Y13093D01*
X-18071Y13143D02*
X-11242Y13143D01*
X-9215Y13143D02*
X-7585Y13143D01*
X-6675Y13143D02*
X-1827Y13143D01*
X-0459Y13143D02*
X18071Y13143D01*
X-18022Y13192D02*
X-11291Y13192D01*
X-9309Y13192D02*
X-7491Y13192D01*
X-6769Y13192D02*
X-1876Y13192D01*
X-0508Y13192D02*
X18022Y13192D01*
X-17972Y13242D02*
X-11341Y13242D01*
X-9973Y13242D02*
X-9835Y13242D01*
X-9505Y13242D02*
X-7295Y13242D01*
X-6965Y13242D02*
X-1926Y13242D01*
X-0558Y13242D02*
X17972Y13242D01*
X-17923Y13291D02*
X-11390Y13291D01*
X-10022Y13291D02*
X-1975Y13291D01*
X-0607Y13291D02*
X17923Y13291D01*
X-17873Y13341D02*
X-11440Y13341D01*
X-10072Y13341D02*
X-2025Y13341D01*
X-0657Y13341D02*
X17873Y13341D01*
X-17824Y13390D02*
X-11489Y13390D01*
X-10121Y13390D02*
X-2074Y13390D01*
X-0706Y13390D02*
X17824Y13390D01*
X-17774Y13440D02*
X-11539Y13440D01*
X-10171Y13440D02*
X-2124Y13440D01*
X-0756Y13440D02*
X17774Y13440D01*
X-17725Y13489D02*
X-11588Y13489D01*
X-10220Y13489D02*
X-2173Y13489D01*
X-0805Y13489D02*
X17725Y13489D01*
X-17675Y13539D02*
X-11638Y13539D01*
X-10270Y13539D02*
X-2223Y13539D01*
X-0855Y13539D02*
X17675Y13539D01*
X-17626Y13588D02*
X-11687Y13588D01*
X-10319Y13588D02*
X-2272Y13588D01*
X-0904Y13588D02*
X17626Y13588D01*
X-17576Y13638D02*
X-11737Y13638D01*
X-10369Y13638D02*
X-2322Y13638D01*
X-0954Y13638D02*
X17576Y13638D01*
X-17527Y13687D02*
X-11786Y13687D01*
X-10419Y13687D02*
X-2371Y13687D01*
X-1004Y13687D02*
X17527Y13687D01*
X-17477Y13737D02*
X-11836Y13737D01*
X-10468Y13737D02*
X-2421Y13737D01*
X-1053Y13737D02*
X17477Y13737D01*
X-17428Y13787D02*
X-11885Y13787D01*
X-10457Y13787D02*
X-2470Y13787D01*
X-1103Y13787D02*
X17428Y13787D01*
X-17378Y13836D02*
X-11935Y13836D01*
X-9746Y13836D02*
X-9594Y13836D01*
X-8758Y13836D02*
X-7407Y13836D01*
X-7206Y13836D02*
X-7054Y13836D01*
X-6853Y13836D02*
X-2520Y13836D01*
X-1152Y13836D02*
X17378Y13836D01*
X-17329Y13886D02*
X-11984Y13886D01*
X-9746Y13886D02*
X-9594Y13886D01*
X-8709Y13886D02*
X-7544Y13886D01*
X-7206Y13886D02*
X-7054Y13886D01*
X-6716Y13886D02*
X-2569Y13886D01*
X-1202Y13886D02*
X17329Y13886D01*
X-17279Y13935D02*
X-12034Y13935D01*
X-9746Y13935D02*
X-9594Y13935D01*
X-8682Y13935D02*
X-7638Y13935D01*
X-7206Y13935D02*
X-7054Y13935D01*
X-6622Y13935D02*
X-2619Y13935D01*
X-1251Y13935D02*
X17279Y13935D01*
X-17229Y13985D02*
X-12084Y13985D01*
X-9746Y13985D02*
X-9594Y13985D01*
X-8668Y13985D02*
X-7719Y13985D01*
X-7206Y13985D02*
X-7054Y13985D01*
X-6541Y13985D02*
X-2669Y13985D01*
X-1301Y13985D02*
X17229Y13985D01*
X-17180Y14034D02*
X-12133Y14034D01*
X-10765Y14034D02*
X-10675Y14034D01*
X-9746Y14034D02*
X-9594Y14034D01*
X-8665Y14034D02*
X-7775Y14034D01*
X-7206Y14034D02*
X-7054Y14034D01*
X-6485Y14034D02*
X-2718Y14034D01*
X-1350Y14034D02*
X17180Y14034D01*
X-17130Y14084D02*
X-12183Y14084D01*
X-10815Y14084D02*
X-10675Y14084D01*
X-8665Y14084D02*
X-7831Y14084D01*
X-6429Y14084D02*
X-2768Y14084D01*
X-1400Y14084D02*
X17130Y14084D01*
X-17081Y14133D02*
X-12232Y14133D01*
X-10864Y14133D02*
X-10675Y14133D01*
X-8665Y14133D02*
X-7885Y14133D01*
X-6375Y14133D02*
X-2817Y14133D01*
X-1449Y14133D02*
X17081Y14133D01*
X-17031Y14183D02*
X-12282Y14183D01*
X-10914Y14183D02*
X-10675Y14183D01*
X-8665Y14183D02*
X-7919Y14183D01*
X-6341Y14183D02*
X-2867Y14183D01*
X-1499Y14183D02*
X17031Y14183D01*
X-16982Y14232D02*
X-12331Y14232D01*
X-10963Y14232D02*
X-10675Y14232D01*
X-8665Y14232D02*
X-7954Y14232D01*
X-6306Y14232D02*
X-2916Y14232D01*
X-1548Y14232D02*
X16982Y14232D01*
X-16932Y14282D02*
X-12381Y14282D01*
X-11013Y14282D02*
X-10675Y14282D01*
X-8665Y14282D02*
X-7988Y14282D01*
X-6272Y14282D02*
X-2966Y14282D01*
X-1598Y14282D02*
X16932Y14282D01*
X-16883Y14331D02*
X-12430Y14331D01*
X-11062Y14331D02*
X-10675Y14331D01*
X-8665Y14331D02*
X-8021Y14331D01*
X-6239Y14331D02*
X-3015Y14331D01*
X-1647Y14331D02*
X16883Y14331D01*
X-16833Y14381D02*
X-12480Y14381D01*
X-11112Y14381D02*
X-10675Y14381D01*
X-8665Y14381D02*
X-8040Y14381D01*
X-6220Y14381D02*
X-3065Y14381D01*
X-1697Y14381D02*
X16833Y14381D01*
X-16784Y14430D02*
X-12529Y14430D01*
X-11161Y14430D02*
X-10675Y14430D01*
X-8665Y14430D02*
X-8059Y14430D01*
X-6201Y14430D02*
X-3114Y14430D01*
X-1746Y14430D02*
X16784Y14430D01*
X-16734Y14480D02*
X-12579Y14480D01*
X-11211Y14480D02*
X-10675Y14480D01*
X-8665Y14480D02*
X-8077Y14480D01*
X-6183Y14480D02*
X-3164Y14480D01*
X-1796Y14480D02*
X16734Y14480D01*
X-16685Y14529D02*
X-12622Y14529D01*
X-11261Y14529D02*
X-10675Y14529D01*
X-8665Y14529D02*
X-8096Y14529D01*
X-6164Y14529D02*
X-3213Y14529D01*
X-1846Y14529D02*
X16685Y14529D01*
X-16635Y14579D02*
X-12659Y14579D01*
X-11310Y14579D02*
X-10675Y14579D01*
X-8665Y14579D02*
X-8109Y14579D01*
X-6151Y14579D02*
X-3263Y14579D01*
X-1895Y14579D02*
X16635Y14579D01*
X-16586Y14629D02*
X-12685Y14629D01*
X-11360Y14629D02*
X-10675Y14629D01*
X-8665Y14629D02*
X-8115Y14629D01*
X-6145Y14629D02*
X-3312Y14629D01*
X-1945Y14629D02*
X16586Y14629D01*
X-16536Y14678D02*
X-12705Y14678D01*
X-11409Y14678D02*
X-10675Y14678D01*
X-8665Y14678D02*
X-8121Y14678D01*
X-6139Y14678D02*
X-3362Y14678D01*
X-1994Y14678D02*
X16536Y14678D01*
X-16487Y14728D02*
X-12720Y14728D01*
X-11459Y14728D02*
X-10420Y14728D01*
X-8920Y14728D02*
X-7880Y14728D01*
X-6380Y14728D02*
X-3411Y14728D01*
X-2044Y14728D02*
X16487Y14728D01*
X-16437Y14777D02*
X-12728Y14777D01*
X-11508Y14777D02*
X-10420Y14777D01*
X-8920Y14777D02*
X-7880Y14777D01*
X-6380Y14777D02*
X-3461Y14777D01*
X-2093Y14777D02*
X16437Y14777D01*
X-16387Y14827D02*
X-12733Y14827D01*
X-11558Y14827D02*
X-10420Y14827D01*
X-8920Y14827D02*
X-7880Y14827D01*
X-6380Y14827D02*
X-3511Y14827D01*
X-2143Y14827D02*
X16387Y14827D01*
X-16338Y14876D02*
X-12734Y14876D01*
X-11607Y14876D02*
X-10665Y14876D01*
X-8675Y14876D02*
X-8113Y14876D01*
X-6147Y14876D02*
X-3560Y14876D01*
X-2192Y14876D02*
X16338Y14876D01*
X-16288Y14926D02*
X-12734Y14926D01*
X-11657Y14926D02*
X-10675Y14926D01*
X-8665Y14926D02*
X-8119Y14926D01*
X-6141Y14926D02*
X-3610Y14926D01*
X-2242Y14926D02*
X16288Y14926D01*
X-16239Y14975D02*
X-12734Y14975D01*
X-11706Y14975D02*
X-10675Y14975D01*
X-8665Y14975D02*
X-8113Y14975D01*
X-6147Y14975D02*
X-3659Y14975D01*
X-2291Y14975D02*
X16239Y14975D01*
X-16189Y15025D02*
X-12734Y15025D01*
X-11756Y15025D02*
X-10675Y15025D01*
X-8665Y15025D02*
X-8107Y15025D01*
X-6153Y15025D02*
X-3709Y15025D01*
X-2341Y15025D02*
X16189Y15025D01*
X-16140Y15074D02*
X-12734Y15074D01*
X-11766Y15074D02*
X-10675Y15074D01*
X-8665Y15074D02*
X-8091Y15074D01*
X-6169Y15074D02*
X-3758Y15074D01*
X-2390Y15074D02*
X16140Y15074D01*
X-16090Y15124D02*
X-12734Y15124D01*
X-11766Y15124D02*
X-10675Y15124D01*
X-8665Y15124D02*
X-8072Y15124D01*
X-6188Y15124D02*
X-3808Y15124D01*
X-2440Y15124D02*
X16090Y15124D01*
X-16041Y15173D02*
X-12734Y15173D01*
X-11766Y15173D02*
X-10675Y15173D01*
X-8665Y15173D02*
X-8053Y15173D01*
X-6207Y15173D02*
X-3857Y15173D01*
X-2489Y15173D02*
X16041Y15173D01*
X-15991Y15223D02*
X-12734Y15223D01*
X-11766Y15223D02*
X-10675Y15223D01*
X-8665Y15223D02*
X-8035Y15223D01*
X-6225Y15223D02*
X-3907Y15223D01*
X-2539Y15223D02*
X15991Y15223D01*
X-15942Y15272D02*
X-12734Y15272D01*
X-11766Y15272D02*
X-10675Y15272D01*
X-8665Y15272D02*
X-8012Y15272D01*
X-6248Y15272D02*
X-3956Y15272D01*
X-2588Y15272D02*
X15942Y15272D01*
X-15892Y15322D02*
X-12734Y15322D01*
X-11766Y15322D02*
X-10675Y15322D01*
X-8665Y15322D02*
X-7978Y15322D01*
X-6282Y15322D02*
X-4006Y15322D01*
X-2638Y15322D02*
X15892Y15322D01*
X-15843Y15371D02*
X-12734Y15371D01*
X-11766Y15371D02*
X-10675Y15371D01*
X-8665Y15371D02*
X-7944Y15371D01*
X-6316Y15371D02*
X-4055Y15371D01*
X-2688Y15371D02*
X15843Y15371D01*
X-15793Y15421D02*
X-12734Y15421D01*
X-11766Y15421D02*
X-10675Y15421D01*
X-8665Y15421D02*
X-7910Y15421D01*
X-6350Y15421D02*
X-4105Y15421D01*
X-2737Y15421D02*
X15793Y15421D01*
X-15744Y15471D02*
X-12734Y15471D01*
X-11766Y15471D02*
X-10675Y15471D01*
X-8665Y15471D02*
X-7872Y15471D01*
X-6388Y15471D02*
X-4154Y15471D01*
X-2787Y15471D02*
X15744Y15471D01*
X-15694Y15520D02*
X-12734Y15520D01*
X-11766Y15520D02*
X-10675Y15520D01*
X-8665Y15520D02*
X-7816Y15520D01*
X-6444Y15520D02*
X-4204Y15520D01*
X-2836Y15520D02*
X15694Y15520D01*
X-15644Y15570D02*
X-12734Y15570D01*
X-11766Y15570D02*
X-10675Y15570D01*
X-9746Y15570D02*
X-9594Y15570D01*
X-8665Y15570D02*
X-7760Y15570D01*
X-7206Y15570D02*
X-7054Y15570D01*
X-6500Y15570D02*
X-4254Y15570D01*
X-2886Y15570D02*
X15644Y15570D01*
X-15595Y15619D02*
X-12734Y15619D01*
X-11766Y15619D02*
X-10669Y15619D01*
X-9746Y15619D02*
X-9594Y15619D01*
X-8671Y15619D02*
X-7704Y15619D01*
X-7206Y15619D02*
X-7054Y15619D01*
X-6556Y15619D02*
X-4303Y15619D01*
X-2935Y15619D02*
X15595Y15619D01*
X-15545Y15669D02*
X-12734Y15669D01*
X-11766Y15669D02*
X-10652Y15669D01*
X-9746Y15669D02*
X-9594Y15669D01*
X-8688Y15669D02*
X-7612Y15669D01*
X-7206Y15669D02*
X-7054Y15669D01*
X-6648Y15669D02*
X-4353Y15669D01*
X-2985Y15669D02*
X15545Y15669D01*
X-15496Y15718D02*
X-12734Y15718D01*
X-11766Y15718D02*
X-10620Y15718D01*
X-9746Y15718D02*
X-9594Y15718D01*
X-8720Y15718D02*
X-7517Y15718D01*
X-7206Y15718D02*
X-7054Y15718D01*
X-6743Y15718D02*
X-4402Y15718D01*
X-3034Y15718D02*
X15496Y15718D01*
X-15446Y15768D02*
X-12734Y15768D01*
X-11766Y15768D02*
X-10561Y15768D01*
X-9746Y15768D02*
X-9594Y15768D01*
X-8779Y15768D02*
X-7352Y15768D01*
X-7206Y15768D02*
X-7054Y15768D01*
X-6908Y15768D02*
X-4452Y15768D01*
X-3084Y15768D02*
X15446Y15768D01*
X-15397Y15817D02*
X-12734Y15817D01*
X-11766Y15817D02*
X-4501Y15817D01*
X-3133Y15817D02*
X15397Y15817D01*
X-15347Y15867D02*
X-12734Y15867D01*
X-11766Y15867D02*
X-4551Y15867D01*
X-3183Y15867D02*
X15347Y15867D01*
X-15298Y15916D02*
X-12734Y15916D01*
X-11766Y15916D02*
X-4600Y15916D01*
X-3232Y15916D02*
X15298Y15916D01*
X-15248Y15966D02*
X-12734Y15966D01*
X-11766Y15966D02*
X-4650Y15966D01*
X-3282Y15966D02*
X15248Y15966D01*
X-15199Y16015D02*
X-12734Y16015D01*
X-11766Y16015D02*
X-4699Y16015D01*
X-3331Y16015D02*
X15199Y16015D01*
X-15149Y16065D02*
X-12734Y16065D01*
X-11766Y16065D02*
X-4749Y16065D01*
X-3381Y16065D02*
X15149Y16065D01*
X-15100Y16114D02*
X-12734Y16114D01*
X-11766Y16114D02*
X-4798Y16114D01*
X-3431Y16114D02*
X15100Y16114D01*
X-15050Y16164D02*
X-12734Y16164D01*
X-11766Y16164D02*
X-4848Y16164D01*
X-3480Y16164D02*
X15050Y16164D01*
X-15001Y16213D02*
X-12734Y16213D01*
X-11766Y16213D02*
X-4897Y16213D01*
X-3530Y16213D02*
X15001Y16213D01*
X-14951Y16263D02*
X-12734Y16263D01*
X-11766Y16263D02*
X-4947Y16263D01*
X-3579Y16263D02*
X14951Y16263D01*
X-14902Y16313D02*
X-12734Y16313D01*
X-11766Y16313D02*
X-4996Y16313D01*
X-3629Y16313D02*
X14902Y16313D01*
X-14852Y16362D02*
X-12734Y16362D01*
X-11766Y16362D02*
X-5046Y16362D01*
X-3678Y16362D02*
X14852Y16362D01*
X-14802Y16412D02*
X-12734Y16412D01*
X-11766Y16412D02*
X-5096Y16412D01*
X-3728Y16412D02*
X14802Y16412D01*
X-14753Y16461D02*
X-12734Y16461D01*
X-11766Y16461D02*
X-5145Y16461D01*
X-3777Y16461D02*
X14753Y16461D01*
X-14703Y16511D02*
X-12734Y16511D01*
X-11766Y16511D02*
X-5195Y16511D01*
X-3827Y16511D02*
X14703Y16511D01*
X-14654Y16560D02*
X-12734Y16560D01*
X-11766Y16560D02*
X-5244Y16560D01*
X-3876Y16560D02*
X14654Y16560D01*
X-14604Y16610D02*
X-12734Y16610D01*
X-11766Y16610D02*
X-5294Y16610D01*
X-3926Y16610D02*
X14604Y16610D01*
X-14555Y16659D02*
X-12734Y16659D01*
X-11766Y16659D02*
X-5343Y16659D01*
X-3975Y16659D02*
X14555Y16659D01*
X-14505Y16709D02*
X-12734Y16709D01*
X-11766Y16709D02*
X-5393Y16709D01*
X-4025Y16709D02*
X14505Y16709D01*
X-14456Y16758D02*
X-12734Y16758D01*
X-11758Y16758D02*
X-5442Y16758D01*
X-4074Y16758D02*
X14456Y16758D01*
X-14406Y16808D02*
X-12734Y16808D01*
X-11708Y16808D02*
X-5492Y16808D01*
X-4124Y16808D02*
X14406Y16808D01*
X-14357Y16857D02*
X-12734Y16857D01*
X-11659Y16857D02*
X-5541Y16857D01*
X-4173Y16857D02*
X14357Y16857D01*
X-14307Y16907D02*
X-12734Y16907D01*
X-11609Y16907D02*
X-5591Y16907D01*
X-4223Y16907D02*
X14307Y16907D01*
X-14258Y16956D02*
X-12733Y16956D01*
X-11560Y16956D02*
X-5640Y16956D01*
X-4273Y16956D02*
X14258Y16956D01*
X-14208Y17006D02*
X-12728Y17006D01*
X-11510Y17006D02*
X-5690Y17006D01*
X-4322Y17006D02*
X14208Y17006D01*
X-14159Y17055D02*
X-12721Y17055D01*
X-11461Y17055D02*
X-5739Y17055D01*
X-4372Y17055D02*
X14159Y17055D01*
X-14109Y17105D02*
X-12706Y17105D01*
X-11411Y17105D02*
X-5789Y17105D01*
X-4421Y17105D02*
X14109Y17105D01*
X-14060Y17155D02*
X-12687Y17155D01*
X-11362Y17155D02*
X-5838Y17155D01*
X-4471Y17155D02*
X14060Y17155D01*
X-14010Y17204D02*
X-12660Y17204D01*
X-11312Y17204D02*
X-5888Y17204D01*
X-4520Y17204D02*
X14010Y17204D01*
X-13960Y17254D02*
X-12624Y17254D01*
X-11262Y17254D02*
X-5938Y17254D01*
X-4570Y17254D02*
X13960Y17254D01*
X-13911Y17303D02*
X-12581Y17303D01*
X-11213Y17303D02*
X-5987Y17303D01*
X-4619Y17303D02*
X13911Y17303D01*
X-13861Y17353D02*
X-12531Y17353D01*
X-11163Y17353D02*
X-6037Y17353D01*
X-4669Y17353D02*
X13861Y17353D01*
X-13812Y17402D02*
X-12482Y17402D01*
X-11114Y17402D02*
X-6086Y17402D01*
X-4718Y17402D02*
X13812Y17402D01*
X-13762Y17452D02*
X-12432Y17452D01*
X-11064Y17452D02*
X-6136Y17452D01*
X-4768Y17452D02*
X13762Y17452D01*
X-13713Y17501D02*
X-12383Y17501D01*
X-11015Y17501D02*
X-6185Y17501D01*
X-4817Y17501D02*
X13713Y17501D01*
X-13663Y17551D02*
X-12333Y17551D01*
X-10965Y17551D02*
X-6235Y17551D01*
X-4867Y17551D02*
X13663Y17551D01*
X-13614Y17600D02*
X-12284Y17600D01*
X-10916Y17600D02*
X-6284Y17600D01*
X-4916Y17600D02*
X13614Y17600D01*
X-13564Y17650D02*
X-12234Y17650D01*
X-10866Y17650D02*
X-6334Y17650D01*
X-4966Y17650D02*
X13564Y17650D01*
X-13515Y17699D02*
X-12185Y17699D01*
X-10817Y17699D02*
X-6383Y17699D01*
X-5015Y17699D02*
X13515Y17699D01*
X-13465Y17749D02*
X-12135Y17749D01*
X-5065Y17749D02*
X13465Y17749D01*
X-13416Y17798D02*
X-12085Y17798D01*
X-5115Y17798D02*
X13416Y17798D01*
X-13366Y17848D02*
X-12036Y17848D01*
X-5164Y17848D02*
X13366Y17848D01*
X-13317Y17897D02*
X-11986Y17897D01*
X-5214Y17897D02*
X13317Y17897D01*
X-13267Y17947D02*
X-11937Y17947D01*
X-5263Y17947D02*
X13267Y17947D01*
X-13218Y17997D02*
X-11887Y17997D01*
X-5313Y17997D02*
X13218Y17997D01*
X-13168Y18046D02*
X-11838Y18046D01*
X-5362Y18046D02*
X13168Y18046D01*
X-13118Y18096D02*
X-11788Y18096D01*
X-5412Y18096D02*
X13118Y18096D01*
X-13069Y18145D02*
X-11739Y18145D01*
X-5461Y18145D02*
X13069Y18145D01*
X-13019Y18195D02*
X-11689Y18195D01*
X-5511Y18195D02*
X13019Y18195D01*
X-12970Y18244D02*
X-11640Y18244D01*
X-5560Y18244D02*
X12970Y18244D01*
X-12920Y18294D02*
X-11590Y18294D01*
X-5610Y18294D02*
X12920Y18294D01*
X-12871Y18343D02*
X-11541Y18343D01*
X-5659Y18343D02*
X12871Y18343D01*
X-12821Y18393D02*
X-11491Y18393D01*
X-5709Y18393D02*
X12821Y18393D01*
X-12772Y18442D02*
X-11442Y18442D01*
X-5758Y18442D02*
X12772Y18442D01*
X-12722Y18492D02*
X-11392Y18492D01*
X-5808Y18492D02*
X12722Y18492D01*
X-12673Y18541D02*
X-11343Y18541D01*
X-5857Y18541D02*
X12673Y18541D01*
X-12623Y18591D02*
X-11288Y18591D01*
X-5912Y18591D02*
X12623Y18591D01*
X-12574Y18640D02*
X-11219Y18640D01*
X-5981Y18640D02*
X12574Y18640D01*
X-12524Y18690D02*
X-11101Y18690D01*
X-6099Y18690D02*
X12524Y18690D01*
X-12475Y18740D02*
X12475Y18740D01*
X-12425Y18789D02*
X12425Y18789D01*
X-12376Y18839D02*
X12376Y18839D01*
X-12326Y18888D02*
X12326Y18888D01*
X-12276Y18938D02*
X12276Y18938D01*
X-12227Y18987D02*
X12227Y18987D01*
X-12177Y19037D02*
X12177Y19037D01*
X-12128Y19086D02*
X12128Y19086D01*
X-12078Y19136D02*
X12078Y19136D01*
X-12029Y19185D02*
X12029Y19185D01*
%LNbottom copper_traces*%
D11*
X0Y14150D02*
X0Y14150D01*
X-8250Y-11600D02*
X-5325Y-14525D01*
X-9670Y12255D02*
X-13375Y8550D01*
X2800Y-14975D02*
X2800Y-12500D01*
X-11775Y-1875D02*
X-13375Y-0275D01*
X-10975Y18225D02*
X-12250Y16950D01*
X0125Y11875D02*
X-6225Y18225D01*
X-8250Y0D02*
X-8250Y-11600D01*
X-8250Y0D02*
X-10125Y-1875D01*
X0Y15425D02*
X0075Y15350D01*
X2540Y11075D02*
X2540Y11075D01*
X14050Y5550D02*
X13950Y5650D01*
X11635Y-13715D02*
X11635Y0125D01*
X-9670Y12255D02*
X-12250Y14835D01*
X-10475Y0D02*
X-10475Y0D01*
X-2925Y-14525D02*
X-0575Y-16875D01*
X2900Y-15000D02*
X10350Y-15000D01*
X-5325Y-14525D02*
X-2925Y-14525D01*
X0900Y-16875D02*
X2800Y-14975D01*
X-2925Y-14525D02*
X-2925Y-14525D01*
X2800Y-12500D02*
X3950Y-11350D01*
X-13375Y-0275D02*
X-13375Y8550D01*
X10350Y-15000D02*
X11635Y-13715D01*
X-0575Y-16875D02*
X0900Y-16875D01*
X2900Y-14975D02*
X2900Y-14975D01*
X-10125Y-1875D02*
X-11775Y-1875D01*
X0125Y11875D02*
X0125Y11875D01*
X-10975Y18225D02*
X-6225Y18225D01*
X-12250Y14835D02*
X-12250Y16950D01*
D12*
X0Y15425D03*
X2540Y11075D03*
X11635Y-13715D03*
X14700Y0D03*
X11635Y0125D03*
X10375Y-11625D03*
X-9825Y0D03*
X14050Y5550D03*
X-2925Y-14525D03*
X2900Y-14975D03*
X15950Y10300D03*
X0Y-13700D03*
X0125Y11875D03*
X13325Y0D03*
X0Y14150D03*
X6900Y0925D03*
X0Y-15000D03*
X-8250Y0D03*
X1200Y0125D03*
X-11100Y0D03*
%LNbottom copper component 15549c4d6476ebc2*%
D13*
X-7620Y-20500D03*
D14*
X-5080Y-20500D03*
X-2540Y-20500D03*
X0Y-20500D03*
X2540Y-20500D03*
X5080Y-20500D03*
X7620Y-20500D03*
%LNbottom copper component 9a7af9ef625a31f3*%
D15*
X-17000Y17000D03*
%LNbottom copper component 4de30cd1dcff1dec*%
D16*
X-7130Y14795D03*
X-9670Y12255D03*
X-7130Y12255D03*
X-9670Y9715D03*
X-7130Y9715D03*
X-9670Y7175D03*
X-7130Y7175D03*
D17*
X-9670Y14795D03*
%LNbottom copper component 5d7ae0faac189a2e*%
D16*
X-20500Y5080D03*
X-20500Y2540D03*
X-20500Y0D03*
X-20500Y-2540D03*
X-20500Y-5080D03*
X-20500Y-7620D03*
D17*
X-20500Y7620D03*
%LNbottom copper component 4730e282d6bc8203*%
D15*
X17000Y-17000D03*
%LNbottom copper component 0a1210c7d4f9c7f0*%
D18*
X3940Y-11350D03*
X1400Y-11350D03*
X-1140Y-11350D03*
X-3680Y-11350D03*
D19*
X6480Y-11350D03*
%LNbottom copper component fe63241f9b3ec648*%
D15*
X-17000Y-17000D03*
%LNbottom copper component 4c6406aa2c717d39*%
X17000Y17000D03*
%LNbottom copper component a355959bcd360295*%
D16*
X20500Y5080D03*
X20500Y2540D03*
X20500Y0D03*
X20500Y-2540D03*
X20500Y-5080D03*
X20500Y-7620D03*
D17*
X20500Y7620D03*
%LNbottom copper component c6258b4cfab3766d*%
D13*
X-7620Y20500D03*
D14*
X-5080Y20500D03*
X-2540Y20500D03*
X0Y20500D03*
X2540Y20500D03*
X5080Y20500D03*
X7620Y20500D03*
M02*