%MOIN*%
%OFA0B0*%
%FSLAX44Y44*%
%IPPOS*%
%LPD*%
%ADD10R,0.0015506123092315811X0.0030974960246757484*%
D10*
X-00000115Y-00000084D02*
X00035564Y-00000084D01*
X-00000115Y-00000053D02*
X00035564Y-00000053D01*
X-00000115Y-00000022D02*
X00035564Y-00000022D01*
X-00000115Y00000008D02*
X00035564Y00000008D01*
X-00000115Y00000039D02*
X00035564Y00000039D01*
X-00000115Y00000070D02*
X00035564Y00000070D01*
X-00000115Y00000101D02*
X00035564Y00000101D01*
X-00000115Y00000132D02*
X00035564Y00000132D01*
X-00000115Y00000163D02*
X00035564Y00000163D01*
X-00000115Y00000194D02*
X00035564Y00000194D01*
X-00000115Y00000225D02*
X00035564Y00000225D01*
X-00000115Y00000256D02*
X00035564Y00000256D01*
X-00000115Y00000287D02*
X00035564Y00000287D01*
X-00000115Y00000318D02*
X00035564Y00000318D01*
X-00000115Y00000349D02*
X00035564Y00000349D01*
X-00000115Y00000380D02*
X00035564Y00000380D01*
X-00000115Y00000411D02*
X00035564Y00000411D01*
X-00000115Y00000442D02*
X00035564Y00000442D01*
X-00000115Y00000473D02*
X00035564Y00000473D01*
X-00000115Y00000504D02*
X00035564Y00000504D01*
X-00000115Y00000534D02*
X00035564Y00000534D01*
X-00000115Y00000565D02*
X00035564Y00000565D01*
X-00000115Y00000596D02*
X00035564Y00000596D01*
X-00000115Y00000627D02*
X00035564Y00000627D01*
X-00000115Y00000658D02*
X00035564Y00000658D01*
X-00000115Y00000689D02*
X00035564Y00000689D01*
X-00000115Y00000720D02*
X00035564Y00000720D01*
X-00000115Y00000751D02*
X00035564Y00000751D01*
X-00000115Y00000782D02*
X00035564Y00000782D01*
X-00000115Y00000813D02*
X00035564Y00000813D01*
X-00000115Y00000844D02*
X00035564Y00000844D01*
X-00000115Y00000875D02*
X00035564Y00000875D01*
X-00000115Y00000906D02*
X00035564Y00000906D01*
X-00000115Y00000937D02*
X00035564Y00000937D01*
X-00000115Y00000968D02*
X00035564Y00000968D01*
X-00000115Y00000999D02*
X00035564Y00000999D01*
X-00000115Y00001030D02*
X00035564Y00001030D01*
X-00000115Y00001061D02*
X00035564Y00001061D01*
X-00000115Y00001092D02*
X00035564Y00001092D01*
X-00000115Y00001123D02*
X00035564Y00001123D01*
X-00000115Y00001154D02*
X00035564Y00001154D01*
X-00000115Y00001185D02*
X00035564Y00001185D01*
X-00000115Y00001216D02*
X00035564Y00001216D01*
X-00000115Y00001247D02*
X00035564Y00001247D01*
X-00000115Y00001278D02*
X00035564Y00001278D01*
X-00000115Y00001309D02*
X00035564Y00001309D01*
X-00000115Y00001340D02*
X00035564Y00001340D01*
X-00000115Y00001371D02*
X00035564Y00001371D01*
X-00000115Y00001402D02*
X00035564Y00001402D01*
X-00000115Y00001433D02*
X00035564Y00001433D01*
X-00000115Y00001464D02*
X00035564Y00001464D01*
X-00000115Y00001495D02*
X00035564Y00001495D01*
X-00000115Y00001526D02*
X00035564Y00001526D01*
X-00000115Y00001557D02*
X00035564Y00001557D01*
X-00000115Y00001588D02*
X00035564Y00001588D01*
X-00000115Y00001619D02*
X00035564Y00001619D01*
X-00000115Y00001650D02*
X00035564Y00001650D01*
X-00000115Y00001681D02*
X00035564Y00001681D01*
X-00000115Y00001712D02*
X00035564Y00001712D01*
X-00000115Y00001743D02*
X00035564Y00001743D01*
X-00000115Y00001773D02*
X00035564Y00001773D01*
X-00000115Y00001804D02*
X00035564Y00001804D01*
X-00000115Y00001835D02*
X00035564Y00001835D01*
X-00000115Y00001866D02*
X00035564Y00001866D01*
X-00000115Y00001897D02*
X00035564Y00001897D01*
X-00000115Y00001928D02*
X00035564Y00001928D01*
X-00000115Y00001959D02*
X00035564Y00001959D01*
X-00000115Y00001990D02*
X00035564Y00001990D01*
X-00000115Y00002021D02*
X00035564Y00002021D01*
X-00000115Y00002052D02*
X00035564Y00002052D01*
X-00000115Y00002083D02*
X00035564Y00002083D01*
X-00000115Y00002114D02*
X00035564Y00002114D01*
X-00000115Y00002145D02*
X00035564Y00002145D01*
X-00000115Y00002176D02*
X00035564Y00002176D01*
X-00000115Y00002207D02*
X00035564Y00002207D01*
X-00000115Y00002238D02*
X00035564Y00002238D01*
X-00000115Y00002269D02*
X00035564Y00002269D01*
X-00000115Y00002300D02*
X00035564Y00002300D01*
X-00000115Y00002331D02*
X00035564Y00002331D01*
X-00000115Y00002362D02*
X00035564Y00002362D01*
X-00000115Y00002393D02*
X00035564Y00002393D01*
X-00000115Y00002424D02*
X00035564Y00002424D01*
X-00000115Y00002455D02*
X00035564Y00002455D01*
X-00000115Y00002486D02*
X00035564Y00002486D01*
X-00000115Y00002517D02*
X00035564Y00002517D01*
X-00000115Y00002548D02*
X00035564Y00002548D01*
X-00000115Y00002579D02*
X00035564Y00002579D01*
X-00000115Y00002610D02*
X00035564Y00002610D01*
X-00000115Y00002641D02*
X00035564Y00002641D01*
X-00000115Y00002672D02*
X00035564Y00002672D01*
X-00000115Y00002703D02*
X00035564Y00002703D01*
X-00000115Y00002734D02*
X00035564Y00002734D01*
X-00000115Y00002765D02*
X00035564Y00002765D01*
X-00000115Y00002796D02*
X00035564Y00002796D01*
X-00000115Y00002827D02*
X00035564Y00002827D01*
X-00000115Y00002858D02*
X00035564Y00002858D01*
X-00000115Y00002889D02*
X00035564Y00002889D01*
X-00000115Y00002920D02*
X00035564Y00002920D01*
X-00000115Y00002951D02*
X00035564Y00002951D01*
X-00000115Y00002982D02*
X00035564Y00002982D01*
X-00000115Y00003012D02*
X00035564Y00003012D01*
X-00000115Y00003043D02*
X00035564Y00003043D01*
X-00000115Y00003074D02*
X00035564Y00003074D01*
X-00000115Y00003105D02*
X00035564Y00003105D01*
X-00000115Y00003136D02*
X00035564Y00003136D01*
X-00000115Y00003167D02*
X00035564Y00003167D01*
X-00000115Y00003198D02*
X00035564Y00003198D01*
X-00000115Y00003229D02*
X00035564Y00003229D01*
X-00000115Y00003260D02*
X00035564Y00003260D01*
X-00000115Y00003291D02*
X00035564Y00003291D01*
X-00000115Y00003322D02*
X00035564Y00003322D01*
X-00000115Y00003353D02*
X00035564Y00003353D01*
X-00000115Y00003384D02*
X00035564Y00003384D01*
X-00000115Y00003415D02*
X00035564Y00003415D01*
X-00000115Y00003446D02*
X00035564Y00003446D01*
X-00000115Y00003477D02*
X00035564Y00003477D01*
X-00000115Y00003508D02*
X00035564Y00003508D01*
X-00000115Y00003539D02*
X00035564Y00003539D01*
X-00000115Y00003570D02*
X00035564Y00003570D01*
X-00000115Y00003601D02*
X00035564Y00003601D01*
X-00000115Y00003632D02*
X00035564Y00003632D01*
X-00000115Y00003663D02*
X00035564Y00003663D01*
X-00000115Y00003694D02*
X00035564Y00003694D01*
X-00000115Y00003725D02*
X00035564Y00003725D01*
X-00000115Y00003756D02*
X00035564Y00003756D01*
X-00000115Y00003787D02*
X00035564Y00003787D01*
X-00000115Y00003818D02*
X00035564Y00003818D01*
X-00000115Y00003849D02*
X00035564Y00003849D01*
X-00000115Y00003880D02*
X00035564Y00003880D01*
X-00000115Y00003911D02*
X00035564Y00003911D01*
X-00000115Y00003942D02*
X00035564Y00003942D01*
X-00000115Y00003973D02*
X00035564Y00003973D01*
X-00000115Y00004004D02*
X00035564Y00004004D01*
X-00000115Y00004035D02*
X00035564Y00004035D01*
X-00000115Y00004066D02*
X00035564Y00004066D01*
X-00000115Y00004097D02*
X00035564Y00004097D01*
X-00000115Y00004128D02*
X00035564Y00004128D01*
X-00000115Y00004159D02*
X00035564Y00004159D01*
X-00000115Y00004190D02*
X00035564Y00004190D01*
X-00000115Y00004221D02*
X00035564Y00004221D01*
X-00000115Y00004251D02*
X00035564Y00004251D01*
X-00000115Y00004282D02*
X00035564Y00004282D01*
X-00000115Y00004313D02*
X00035564Y00004313D01*
X-00000115Y00004344D02*
X00035564Y00004344D01*
X-00000115Y00004375D02*
X00035564Y00004375D01*
X-00000115Y00004406D02*
X00035564Y00004406D01*
X-00000115Y00004437D02*
X00035564Y00004437D01*
X-00000115Y00004468D02*
X00035564Y00004468D01*
X-00000115Y00004499D02*
X00035564Y00004499D01*
X-00000115Y00004530D02*
X00035564Y00004530D01*
X-00000115Y00004561D02*
X00035564Y00004561D01*
X-00000115Y00004592D02*
X00035564Y00004592D01*
X-00000115Y00004623D02*
X00035564Y00004623D01*
X-00000115Y00004654D02*
X00035564Y00004654D01*
X-00000115Y00004685D02*
X00035564Y00004685D01*
X-00000115Y00004716D02*
X00035564Y00004716D01*
X-00000115Y00004747D02*
X00035564Y00004747D01*
X-00000115Y00004778D02*
X00035564Y00004778D01*
X-00000115Y00004809D02*
X00035564Y00004809D01*
X-00000115Y00004840D02*
X00035564Y00004840D01*
X-00000115Y00004871D02*
X00035564Y00004871D01*
X-00000115Y00004902D02*
X00035564Y00004902D01*
X-00000115Y00004933D02*
X00035564Y00004933D01*
X-00000115Y00004964D02*
X00035564Y00004964D01*
X-00000115Y00004995D02*
X00035564Y00004995D01*
X-00000115Y00005026D02*
X00035564Y00005026D01*
X-00000115Y00005057D02*
X00035564Y00005057D01*
X-00000115Y00005088D02*
X00035564Y00005088D01*
X-00000115Y00005119D02*
X00035564Y00005119D01*
X-00000115Y00005150D02*
X00035564Y00005150D01*
X-00000115Y00005181D02*
X00035564Y00005181D01*
X-00000115Y00005212D02*
X00035564Y00005212D01*
X-00000115Y00005243D02*
X00035564Y00005243D01*
X-00000115Y00005274D02*
X00035564Y00005274D01*
X-00000115Y00005305D02*
X00035564Y00005305D01*
X-00000115Y00005336D02*
X00035564Y00005336D01*
X-00000115Y00005367D02*
X00035564Y00005367D01*
X-00000115Y00005398D02*
X00035564Y00005398D01*
X-00000115Y00005429D02*
X00035564Y00005429D01*
X-00000115Y00005460D02*
X00035564Y00005460D01*
X-00000115Y00005490D02*
X00035564Y00005490D01*
X-00000115Y00005521D02*
X00035564Y00005521D01*
X-00000115Y00005552D02*
X00035564Y00005552D01*
X-00000115Y00005583D02*
X00035564Y00005583D01*
X-00000115Y00005614D02*
X00035564Y00005614D01*
X-00000115Y00005645D02*
X00035564Y00005645D01*
X-00000115Y00005676D02*
X00035564Y00005676D01*
X-00000115Y00005707D02*
X00035564Y00005707D01*
X-00000115Y00005738D02*
X00035564Y00005738D01*
X-00000115Y00005769D02*
X00035564Y00005769D01*
X-00000115Y00005800D02*
X00035564Y00005800D01*
X-00000115Y00005831D02*
X00035564Y00005831D01*
X-00000115Y00005862D02*
X00035564Y00005862D01*
X-00000115Y00005893D02*
X00035564Y00005893D01*
X-00000115Y00005924D02*
X00035564Y00005924D01*
X-00000115Y00005955D02*
X00035564Y00005955D01*
X-00000115Y00005986D02*
X00035564Y00005986D01*
X-00000115Y00006017D02*
X00035564Y00006017D01*
X-00000115Y00006048D02*
X00035564Y00006048D01*
X-00000115Y00006079D02*
X00035564Y00006079D01*
X-00000115Y00006110D02*
X00035564Y00006110D01*
X-00000115Y00006141D02*
X00035564Y00006141D01*
X-00000115Y00006172D02*
X00035564Y00006172D01*
X-00000115Y00006203D02*
X00035564Y00006203D01*
X-00000115Y00006234D02*
X00035564Y00006234D01*
X-00000115Y00006265D02*
X00035564Y00006265D01*
X-00000115Y00006296D02*
X00035564Y00006296D01*
X-00000115Y00006327D02*
X00035564Y00006327D01*
X-00000115Y00006358D02*
X00035564Y00006358D01*
X-00000115Y00006389D02*
X00035564Y00006389D01*
X-00000115Y00006420D02*
X00035564Y00006420D01*
X-00000115Y00006451D02*
X00035564Y00006451D01*
X-00000115Y00006482D02*
X00035564Y00006482D01*
X-00000115Y00006513D02*
X00035564Y00006513D01*
X-00000115Y00006544D02*
X00035564Y00006544D01*
X-00000115Y00006575D02*
X00035564Y00006575D01*
X-00000115Y00006606D02*
X00035564Y00006606D01*
X-00000115Y00006637D02*
X00035564Y00006637D01*
X-00000115Y00006668D02*
X00035564Y00006668D01*
X-00000115Y00006699D02*
X00035564Y00006699D01*
X-00000115Y00006729D02*
X00035564Y00006729D01*
X-00000115Y00006760D02*
X00035564Y00006760D01*
X-00000115Y00006791D02*
X00035564Y00006791D01*
X-00000115Y00006822D02*
X00035564Y00006822D01*
X-00000115Y00006853D02*
X00035564Y00006853D01*
X-00000115Y00006884D02*
X00035564Y00006884D01*
X-00000115Y00006915D02*
X00035564Y00006915D01*
X-00000115Y00006946D02*
X00035564Y00006946D01*
X-00000115Y00006977D02*
X00035564Y00006977D01*
X-00000115Y00007008D02*
X00035564Y00007008D01*
X-00000115Y00007039D02*
X00035564Y00007039D01*
X-00000115Y00007070D02*
X00035564Y00007070D01*
X-00000115Y00007101D02*
X00035564Y00007101D01*
X-00000115Y00007132D02*
X00035564Y00007132D01*
X-00000115Y00007163D02*
X00035564Y00007163D01*
X-00000115Y00007194D02*
X00035564Y00007194D01*
X-00000115Y00007225D02*
X00035564Y00007225D01*
X-00000115Y00007256D02*
X00035564Y00007256D01*
X-00000115Y00007287D02*
X00035564Y00007287D01*
X-00000115Y00007318D02*
X00035564Y00007318D01*
X-00000115Y00007349D02*
X00035564Y00007349D01*
X-00000115Y00007380D02*
X00035564Y00007380D01*
X-00000115Y00007411D02*
X00035564Y00007411D01*
X-00000115Y00007442D02*
X00035564Y00007442D01*
X-00000115Y00007473D02*
X00035564Y00007473D01*
X-00000115Y00007504D02*
X00035564Y00007504D01*
X-00000115Y00007535D02*
X00035564Y00007535D01*
X-00000115Y00007566D02*
X00035564Y00007566D01*
X-00000115Y00007597D02*
X00035564Y00007597D01*
X-00000115Y00007628D02*
X00035564Y00007628D01*
X-00000115Y00007659D02*
X00035564Y00007659D01*
X-00000115Y00007690D02*
X00035564Y00007690D01*
X-00000115Y00007721D02*
X00035564Y00007721D01*
X-00000115Y00007752D02*
X00035564Y00007752D01*
X-00000115Y00007783D02*
X00035564Y00007783D01*
X-00000115Y00007814D02*
X00035564Y00007814D01*
X-00000115Y00007845D02*
X00035564Y00007845D01*
X-00000115Y00007876D02*
X00035564Y00007876D01*
X-00000115Y00007907D02*
X00035564Y00007907D01*
X-00000115Y00007938D02*
X00035564Y00007938D01*
X-00000115Y00007968D02*
X00035564Y00007968D01*
X-00000115Y00007999D02*
X00035564Y00007999D01*
X-00000115Y00008030D02*
X00035564Y00008030D01*
X-00000115Y00008061D02*
X00035564Y00008061D01*
X-00000115Y00008092D02*
X00035564Y00008092D01*
X-00000115Y00008123D02*
X00035564Y00008123D01*
X-00000115Y00008154D02*
X00035564Y00008154D01*
X-00000115Y00008185D02*
X00035564Y00008185D01*
X-00000115Y00008216D02*
X00035564Y00008216D01*
X-00000115Y00008247D02*
X00035564Y00008247D01*
X-00000115Y00008278D02*
X00035564Y00008278D01*
X-00000115Y00008309D02*
X00035564Y00008309D01*
X-00000115Y00008340D02*
X00035564Y00008340D01*
X-00000115Y00008371D02*
X00035564Y00008371D01*
X-00000115Y00008402D02*
X00035564Y00008402D01*
X-00000115Y00008433D02*
X00035564Y00008433D01*
X-00000115Y00008464D02*
X00035564Y00008464D01*
X-00000115Y00008495D02*
X00035564Y00008495D01*
X-00000115Y00008526D02*
X00035564Y00008526D01*
X-00000115Y00008557D02*
X00035564Y00008557D01*
X-00000115Y00008588D02*
X00035564Y00008588D01*
X-00000115Y00008619D02*
X00035564Y00008619D01*
X-00000115Y00008650D02*
X00035564Y00008650D01*
X-00000115Y00008681D02*
X00035564Y00008681D01*
X-00000115Y00008712D02*
X00035564Y00008712D01*
X-00000115Y00008743D02*
X00035564Y00008743D01*
X-00000115Y00008774D02*
X00035564Y00008774D01*
X-00000115Y00008805D02*
X00035564Y00008805D01*
X-00000115Y00008836D02*
X00035564Y00008836D01*
X-00000115Y00008867D02*
X00035564Y00008867D01*
X-00000115Y00008898D02*
X00035564Y00008898D01*
X-00000115Y00008929D02*
X00035564Y00008929D01*
X-00000115Y00008960D02*
X00035564Y00008960D01*
X-00000115Y00008991D02*
X00035564Y00008991D01*
X-00000115Y00009022D02*
X00035564Y00009022D01*
X-00000115Y00009053D02*
X00035564Y00009053D01*
X-00000115Y00009084D02*
X00035564Y00009084D01*
X-00000115Y00009115D02*
X00035564Y00009115D01*
X-00000115Y00009146D02*
X00035564Y00009146D01*
X-00000115Y00009177D02*
X00035564Y00009177D01*
X-00000115Y00009207D02*
X00035564Y00009207D01*
X-00000115Y00009238D02*
X00035564Y00009238D01*
X-00000115Y00009269D02*
X00035564Y00009269D01*
X-00000115Y00009300D02*
X00035564Y00009300D01*
X-00000115Y00009331D02*
X00035564Y00009331D01*
X-00000115Y00009362D02*
X00035564Y00009362D01*
X-00000115Y00009393D02*
X00035564Y00009393D01*
X-00000115Y00009424D02*
X00035564Y00009424D01*
X-00000115Y00009455D02*
X00035564Y00009455D01*
X-00000115Y00009486D02*
X00035564Y00009486D01*
X-00000115Y00009517D02*
X00035564Y00009517D01*
X-00000115Y00009548D02*
X00035564Y00009548D01*
X-00000115Y00009579D02*
X00035564Y00009579D01*
X-00000115Y00009610D02*
X00035564Y00009610D01*
X-00000115Y00009641D02*
X00035564Y00009641D01*
X-00000115Y00009672D02*
X00035564Y00009672D01*
X-00000115Y00009703D02*
X00035564Y00009703D01*
X-00000115Y00009734D02*
X00035564Y00009734D01*
X-00000115Y00009765D02*
X00035564Y00009765D01*
X-00000115Y00009796D02*
X00035564Y00009796D01*
X-00000115Y00009827D02*
X00035564Y00009827D01*
X-00000115Y00009858D02*
X00035564Y00009858D01*
X-00000115Y00009889D02*
X00035564Y00009889D01*
X-00000115Y00009920D02*
X00035564Y00009920D01*
X-00000115Y00009951D02*
X00035564Y00009951D01*
X-00000115Y00009982D02*
X00035564Y00009982D01*
X-00000115Y00010013D02*
X00035564Y00010013D01*
X-00000115Y00010044D02*
X00035564Y00010044D01*
X-00000115Y00010075D02*
X00035564Y00010075D01*
X-00000115Y00010106D02*
X00035564Y00010106D01*
X-00000115Y00010137D02*
X00035564Y00010137D01*
X-00000115Y00010168D02*
X00035564Y00010168D01*
X-00000115Y00010199D02*
X00035564Y00010199D01*
X-00000115Y00010230D02*
X00035564Y00010230D01*
X-00000115Y00010261D02*
X00035564Y00010261D01*
X-00000115Y00010292D02*
X00035564Y00010292D01*
X-00000115Y00010323D02*
X00035564Y00010323D01*
X-00000115Y00010354D02*
X00035564Y00010354D01*
X-00000115Y00010385D02*
X00035564Y00010385D01*
X-00000115Y00010415D02*
X00035564Y00010415D01*
X-00000115Y00010446D02*
X00035564Y00010446D01*
X-00000115Y00010477D02*
X00035564Y00010477D01*
X-00000115Y00010508D02*
X00035564Y00010508D01*
X-00000115Y00010539D02*
X00035564Y00010539D01*
X-00000115Y00010570D02*
X00035564Y00010570D01*
X-00000115Y00010601D02*
X00035564Y00010601D01*
X-00000115Y00010632D02*
X00035564Y00010632D01*
X-00000115Y00010663D02*
X00035564Y00010663D01*
X-00000115Y00010694D02*
X00035564Y00010694D01*
X-00000115Y00010725D02*
X00035564Y00010725D01*
X-00000115Y00010756D02*
X00035564Y00010756D01*
X-00000115Y00010787D02*
X00035564Y00010787D01*
X-00000115Y00010818D02*
X00035564Y00010818D01*
X-00000115Y00010849D02*
X00035564Y00010849D01*
X-00000115Y00010880D02*
X00035564Y00010880D01*
X-00000115Y00010911D02*
X00035564Y00010911D01*
X-00000115Y00010942D02*
X00035564Y00010942D01*
X-00000115Y00010973D02*
X00035564Y00010973D01*
X-00000115Y00011004D02*
X00035564Y00011004D01*
X-00000115Y00011035D02*
X00035564Y00011035D01*
X-00000115Y00011066D02*
X00035564Y00011066D01*
X-00000115Y00011097D02*
X00035564Y00011097D01*
X-00000115Y00011128D02*
X00035564Y00011128D01*
X-00000115Y00011159D02*
X00035564Y00011159D01*
X-00000115Y00011190D02*
X00035564Y00011190D01*
X-00000115Y00011221D02*
X00035564Y00011221D01*
X-00000115Y00011252D02*
X00035564Y00011252D01*
X-00000115Y00011283D02*
X00035564Y00011283D01*
X-00000115Y00011314D02*
X00035564Y00011314D01*
X-00000115Y00011345D02*
X00035564Y00011345D01*
X-00000115Y00011376D02*
X00035564Y00011376D01*
X-00000115Y00011407D02*
X00035564Y00011407D01*
X-00000115Y00011438D02*
X00035564Y00011438D01*
X-00000115Y00011469D02*
X00035564Y00011469D01*
X-00000115Y00011500D02*
X00035564Y00011500D01*
X-00000115Y00011531D02*
X00035564Y00011531D01*
X-00000115Y00011562D02*
X00035564Y00011562D01*
X-00000115Y00011593D02*
X00035564Y00011593D01*
X-00000115Y00011624D02*
X00035564Y00011624D01*
X-00000115Y00011654D02*
X00035564Y00011654D01*
X-00000115Y00011685D02*
X00035564Y00011685D01*
X-00000115Y00011716D02*
X00035564Y00011716D01*
X-00000115Y00011747D02*
X00035564Y00011747D01*
X-00000115Y00011778D02*
X00035564Y00011778D01*
X-00000115Y00011809D02*
X00035564Y00011809D01*
X-00000115Y00011840D02*
X00035564Y00011840D01*
X-00000115Y00011871D02*
X00035564Y00011871D01*
X-00000115Y00011902D02*
X00035564Y00011902D01*
X-00000115Y00011933D02*
X00035564Y00011933D01*
X-00000115Y00011964D02*
X00035564Y00011964D01*
X-00000115Y00011995D02*
X00035564Y00011995D01*
X-00000115Y00012026D02*
X00035564Y00012026D01*
X-00000115Y00012057D02*
X00035564Y00012057D01*
X-00000115Y00012088D02*
X00035564Y00012088D01*
X-00000115Y00012119D02*
X00035564Y00012119D01*
X-00000115Y00012150D02*
X00035564Y00012150D01*
X-00000115Y00012181D02*
X00035564Y00012181D01*
X-00000115Y00012212D02*
X00035564Y00012212D01*
X-00000115Y00012243D02*
X00035564Y00012243D01*
X-00000115Y00012274D02*
X00035564Y00012274D01*
X-00000115Y00012305D02*
X00035564Y00012305D01*
X-00000115Y00012336D02*
X00035564Y00012336D01*
X-00000115Y00012367D02*
X00035564Y00012367D01*
X-00000115Y00012398D02*
X00035564Y00012398D01*
X-00000115Y00012429D02*
X00035564Y00012429D01*
X-00000115Y00012460D02*
X00035564Y00012460D01*
X-00000115Y00012491D02*
X00035564Y00012491D01*
X-00000115Y00012522D02*
X00035564Y00012522D01*
X-00000115Y00012553D02*
X00035564Y00012553D01*
X-00000115Y00012584D02*
X00035564Y00012584D01*
X-00000115Y00012615D02*
X00035564Y00012615D01*
X-00000115Y00012646D02*
X00035564Y00012646D01*
X-00000115Y00012677D02*
X00035564Y00012677D01*
X-00000115Y00012708D02*
X00035564Y00012708D01*
X-00000115Y00012739D02*
X00035564Y00012739D01*
X-00000115Y00012770D02*
X00035564Y00012770D01*
X-00000115Y00012801D02*
X00035564Y00012801D01*
X-00000115Y00012832D02*
X00035564Y00012832D01*
X-00000115Y00012863D02*
X00035564Y00012863D01*
X-00000115Y00012893D02*
X00035564Y00012893D01*
X-00000115Y00012924D02*
X00035564Y00012924D01*
X-00000115Y00012955D02*
X00035564Y00012955D01*
X-00000115Y00012986D02*
X00035564Y00012986D01*
X-00000115Y00013017D02*
X00035564Y00013017D01*
X-00000115Y00013048D02*
X00035564Y00013048D01*
X-00000115Y00013079D02*
X00035564Y00013079D01*
X-00000115Y00013110D02*
X00035564Y00013110D01*
X-00000115Y00013141D02*
X00035564Y00013141D01*
X-00000115Y00013172D02*
X00035564Y00013172D01*
X-00000115Y00013203D02*
X00035564Y00013203D01*
X-00000115Y00013234D02*
X00035564Y00013234D01*
X-00000115Y00013265D02*
X00035564Y00013265D01*
X-00000115Y00013296D02*
X00035564Y00013296D01*
X-00000115Y00013327D02*
X00035564Y00013327D01*
X-00000115Y00013358D02*
X00035564Y00013358D01*
X-00000115Y00013389D02*
X00035564Y00013389D01*
X-00000115Y00013420D02*
X00035564Y00013420D01*
X-00000115Y00013451D02*
X00035564Y00013451D01*
X-00000115Y00013482D02*
X00035564Y00013482D01*
X-00000115Y00013513D02*
X00035564Y00013513D01*
X-00000115Y00013544D02*
X00035564Y00013544D01*
X-00000115Y00013575D02*
X00035564Y00013575D01*
X-00000115Y00013606D02*
X00035564Y00013606D01*
X-00000115Y00013637D02*
X00035564Y00013637D01*
X-00000115Y00013668D02*
X00035564Y00013668D01*
X-00000115Y00013699D02*
X00035564Y00013699D01*
X-00000115Y00013730D02*
X00035564Y00013730D01*
X-00000115Y00013761D02*
X00035564Y00013761D01*
X-00000115Y00013792D02*
X00035564Y00013792D01*
X-00000115Y00013823D02*
X00035564Y00013823D01*
X-00000115Y00013854D02*
X00035564Y00013854D01*
X-00000115Y00013885D02*
X00035564Y00013885D01*
X-00000115Y00013916D02*
X00035564Y00013916D01*
X-00000115Y00013947D02*
X00035564Y00013947D01*
X-00000115Y00013978D02*
X00035564Y00013978D01*
X-00000115Y00014009D02*
X00035564Y00014009D01*
X-00000115Y00014040D02*
X00035564Y00014040D01*
X-00000115Y00014071D02*
X00035564Y00014071D01*
X-00000115Y00014102D02*
X00035564Y00014102D01*
X-00000115Y00014132D02*
X00035564Y00014132D01*
X-00000115Y00014163D02*
X00035564Y00014163D01*
X-00000115Y00014194D02*
X00035564Y00014194D01*
X-00000115Y00014225D02*
X00035564Y00014225D01*
X-00000115Y00014256D02*
X00035564Y00014256D01*
X-00000115Y00014287D02*
X00035564Y00014287D01*
X-00000115Y00014318D02*
X00035564Y00014318D01*
X-00000115Y00014349D02*
X00035564Y00014349D01*
X-00000115Y00014380D02*
X00035564Y00014380D01*
X-00000115Y00014411D02*
X00035564Y00014411D01*
X-00000115Y00014442D02*
X00035564Y00014442D01*
X-00000115Y00014473D02*
X00035564Y00014473D01*
X-00000115Y00014504D02*
X00035564Y00014504D01*
X-00000115Y00014535D02*
X00035564Y00014535D01*
X-00000115Y00014566D02*
X00035564Y00014566D01*
X-00000115Y00014597D02*
X00035564Y00014597D01*
X-00000115Y00014628D02*
X00035564Y00014628D01*
X-00000115Y00014659D02*
X00035564Y00014659D01*
X-00000115Y00014690D02*
X00035564Y00014690D01*
X-00000115Y00014721D02*
X00035564Y00014721D01*
X-00000115Y00014752D02*
X00035564Y00014752D01*
X-00000115Y00014783D02*
X00035564Y00014783D01*
X-00000115Y00014814D02*
X00035564Y00014814D01*
X-00000115Y00014845D02*
X00035564Y00014845D01*
X-00000115Y00014876D02*
X00035564Y00014876D01*
X-00000115Y00014907D02*
X00035564Y00014907D01*
X-00000115Y00014938D02*
X00035564Y00014938D01*
X-00000115Y00014969D02*
X00035564Y00014969D01*
X-00000115Y00015000D02*
X00035564Y00015000D01*
X-00000115Y00015031D02*
X00035564Y00015031D01*
X-00000115Y00015062D02*
X00035564Y00015062D01*
X-00000115Y00015093D02*
X00035564Y00015093D01*
X-00000115Y00015124D02*
X00035564Y00015124D01*
X-00000115Y00015155D02*
X00035564Y00015155D01*
X-00000115Y00015186D02*
X00035564Y00015186D01*
X-00000115Y00015217D02*
X00035564Y00015217D01*
X-00000115Y00015248D02*
X00035564Y00015248D01*
X-00000115Y00015279D02*
X00035564Y00015279D01*
X-00000115Y00015310D02*
X00035564Y00015310D01*
X-00000115Y00015341D02*
X00035564Y00015341D01*
X-00000115Y00015371D02*
X00035564Y00015371D01*
X-00000115Y00015402D02*
X00035564Y00015402D01*
X-00000115Y00015433D02*
X00035564Y00015433D01*
X-00000115Y00015464D02*
X00035564Y00015464D01*
X-00000115Y00015495D02*
X00035564Y00015495D01*
X-00000115Y00015526D02*
X00035564Y00015526D01*
X-00000115Y00015557D02*
X00035564Y00015557D01*
X-00000115Y00015588D02*
X00035564Y00015588D01*
X-00000115Y00015619D02*
X00035564Y00015619D01*
X-00000115Y00015650D02*
X00035564Y00015650D01*
X-00000115Y00015681D02*
X00035564Y00015681D01*
X-00000115Y00015712D02*
X00035564Y00015712D01*
X-00000115Y00015743D02*
X00035564Y00015743D01*
X-00000115Y00015774D02*
X00035564Y00015774D01*
X-00000115Y00015805D02*
X00035564Y00015805D01*
X-00000115Y00015836D02*
X00035564Y00015836D01*
X-00000115Y00015867D02*
X00035564Y00015867D01*
X-00000115Y00015898D02*
X00035564Y00015898D01*
X-00000115Y00015929D02*
X00035564Y00015929D01*
X-00000115Y00015960D02*
X00035564Y00015960D01*
X-00000115Y00015991D02*
X00035564Y00015991D01*
X-00000115Y00016022D02*
X00035564Y00016022D01*
X-00000115Y00016053D02*
X00035564Y00016053D01*
X-00000115Y00016084D02*
X00035564Y00016084D01*
X-00000115Y00016115D02*
X00035564Y00016115D01*
X-00000115Y00016146D02*
X00035564Y00016146D01*
X-00000115Y00016177D02*
X00035564Y00016177D01*
X-00000115Y00016208D02*
X00035564Y00016208D01*
X-00000115Y00016239D02*
X00035564Y00016239D01*
X-00000115Y00016270D02*
X00035564Y00016270D01*
X-00000115Y00016301D02*
X00035564Y00016301D01*
X-00000115Y00016332D02*
X00035564Y00016332D01*
X-00000115Y00016363D02*
X00035564Y00016363D01*
X-00000115Y00016394D02*
X00035564Y00016394D01*
X-00000115Y00016425D02*
X00035564Y00016425D01*
X-00000115Y00016456D02*
X00035564Y00016456D01*
X-00000115Y00016487D02*
X00035564Y00016487D01*
X-00000115Y00016518D02*
X00035564Y00016518D01*
X-00000115Y00016549D02*
X00035564Y00016549D01*
X-00000115Y00016580D02*
X00035564Y00016580D01*
X-00000115Y00016610D02*
X00035564Y00016610D01*
X-00000115Y00016641D02*
X00035564Y00016641D01*
X-00000115Y00016672D02*
X00035564Y00016672D01*
X-00000115Y00016703D02*
X00035564Y00016703D01*
X-00000115Y00016734D02*
X00035564Y00016734D01*
X-00000115Y00016765D02*
X00035564Y00016765D01*
X-00000115Y00016796D02*
X00035564Y00016796D01*
X-00000115Y00016827D02*
X00035564Y00016827D01*
X-00000115Y00016858D02*
X00035564Y00016858D01*
X-00000115Y00016889D02*
X00035564Y00016889D01*
X-00000115Y00016920D02*
X00035564Y00016920D01*
X-00000115Y00016951D02*
X00035564Y00016951D01*
X-00000115Y00016982D02*
X00035564Y00016982D01*
X-00000115Y00017013D02*
X00035564Y00017013D01*
X-00000115Y00017044D02*
X00035564Y00017044D01*
X-00000115Y00017075D02*
X00035564Y00017075D01*
X-00000115Y00017106D02*
X00035564Y00017106D01*
X-00000115Y00017137D02*
X00035564Y00017137D01*
X-00000115Y00017168D02*
X00035564Y00017168D01*
X-00000115Y00017199D02*
X00035564Y00017199D01*
X-00000115Y00017230D02*
X00035564Y00017230D01*
X-00000115Y00017261D02*
X00035564Y00017261D01*
X-00000115Y00017292D02*
X00035564Y00017292D01*
X-00000115Y00017323D02*
X00035564Y00017323D01*
X-00000115Y00017354D02*
X00035564Y00017354D01*
X-00000115Y00017385D02*
X00035564Y00017385D01*
X-00000115Y00017416D02*
X00035564Y00017416D01*
X-00000115Y00017447D02*
X00035564Y00017447D01*
X-00000115Y00017478D02*
X00035564Y00017478D01*
X-00000115Y00017509D02*
X00035564Y00017509D01*
X-00000115Y00017540D02*
X00035564Y00017540D01*
X-00000115Y00017571D02*
X00035564Y00017571D01*
X-00000115Y00017602D02*
X00035564Y00017602D01*
X-00000115Y00017633D02*
X00035564Y00017633D01*
X-00000115Y00017664D02*
X00035564Y00017664D01*
X-00000115Y00017695D02*
X00035564Y00017695D01*
X-00000115Y00017726D02*
X00035564Y00017726D01*
X-00000115Y00017757D02*
X00035564Y00017757D01*
X-00000115Y00017788D02*
X00035564Y00017788D01*
X-00000115Y00017819D02*
X00035564Y00017819D01*
X-00000115Y00017849D02*
X00035564Y00017849D01*
X-00000115Y00017880D02*
X00035564Y00017880D01*
X-00000115Y00017911D02*
X00035564Y00017911D01*
X-00000115Y00017942D02*
X00035564Y00017942D01*
X-00000115Y00017973D02*
X00035564Y00017973D01*
X-00000115Y00018004D02*
X00035564Y00018004D01*
X-00000115Y00018035D02*
X00035564Y00018035D01*
X-00000115Y00018066D02*
X00035564Y00018066D01*
X-00000115Y00018097D02*
X00035564Y00018097D01*
X-00000115Y00018128D02*
X00035564Y00018128D01*
X-00000115Y00018159D02*
X00035564Y00018159D01*
X-00000115Y00018190D02*
X00035564Y00018190D01*
X-00000115Y00018221D02*
X00035564Y00018221D01*
X-00000115Y00018252D02*
X00035564Y00018252D01*
X-00000115Y00018283D02*
X00035564Y00018283D01*
X-00000115Y00018314D02*
X00035564Y00018314D01*
X-00000115Y00018345D02*
X00035564Y00018345D01*
X-00000115Y00018376D02*
X00035564Y00018376D01*
X-00000115Y00018407D02*
X00035564Y00018407D01*
X-00000115Y00018438D02*
X00035564Y00018438D01*
X-00000115Y00018469D02*
X00035564Y00018469D01*
X-00000115Y00018500D02*
X00035564Y00018500D01*
X-00000115Y00018531D02*
X00035564Y00018531D01*
X-00000115Y00018562D02*
X00035564Y00018562D01*
X-00000115Y00018593D02*
X00035564Y00018593D01*
X-00000115Y00018624D02*
X00035564Y00018624D01*
X-00000115Y00018655D02*
X00035564Y00018655D01*
X-00000115Y00018686D02*
X00035564Y00018686D01*
X-00000115Y00018717D02*
X00035564Y00018717D01*
X-00000115Y00018748D02*
X00035564Y00018748D01*
X-00000115Y00018779D02*
X00035564Y00018779D01*
X-00000115Y00018810D02*
X00035564Y00018810D01*
X-00000115Y00018841D02*
X00035564Y00018841D01*
X-00000115Y00018872D02*
X00035564Y00018872D01*
X-00000115Y00018903D02*
X00035564Y00018903D01*
X-00000115Y00018934D02*
X00035564Y00018934D01*
X-00000115Y00018965D02*
X00035564Y00018965D01*
X-00000115Y00018996D02*
X00035564Y00018996D01*
X-00000115Y00019027D02*
X00035564Y00019027D01*
X-00000115Y00019058D02*
X00035564Y00019058D01*
X-00000115Y00019088D02*
X00035564Y00019088D01*
X-00000115Y00019119D02*
X00035564Y00019119D01*
X-00000115Y00019150D02*
X00035564Y00019150D01*
X-00000115Y00019181D02*
X00035564Y00019181D01*
X-00000115Y00019212D02*
X00035564Y00019212D01*
X-00000115Y00019243D02*
X00035564Y00019243D01*
X-00000115Y00019274D02*
X00035564Y00019274D01*
X-00000115Y00019305D02*
X00035564Y00019305D01*
X-00000115Y00019336D02*
X00035564Y00019336D01*
X-00000115Y00019367D02*
X00035564Y00019367D01*
X-00000115Y00019398D02*
X00035564Y00019398D01*
X-00000115Y00019429D02*
X00035564Y00019429D01*
X-00000115Y00019460D02*
X00035564Y00019460D01*
X-00000115Y00019491D02*
X00035564Y00019491D01*
X-00000115Y00019522D02*
X00035564Y00019522D01*
X-00000115Y00019553D02*
X00035564Y00019553D01*
X-00000115Y00019584D02*
X00035564Y00019584D01*
X-00000115Y00019615D02*
X00035564Y00019615D01*
X-00000115Y00019646D02*
X00035564Y00019646D01*
X-00000115Y00019677D02*
X00035564Y00019677D01*
X-00000115Y00019708D02*
X00035564Y00019708D01*
X-00000115Y00019739D02*
X00035564Y00019739D01*
X-00000115Y00019770D02*
X00035564Y00019770D01*
X-00000115Y00019801D02*
X00035564Y00019801D01*
X-00000115Y00019832D02*
X00035564Y00019832D01*
X-00000115Y00019863D02*
X00035564Y00019863D01*
X-00000115Y00019894D02*
X00035564Y00019894D01*
X-00000115Y00019925D02*
X00035564Y00019925D01*
X-00000115Y00019956D02*
X00035564Y00019956D01*
X-00000115Y00019987D02*
X00035564Y00019987D01*
X-00000115Y00020018D02*
X00035564Y00020018D01*
X-00000115Y00020049D02*
X00035564Y00020049D01*
X-00000115Y00020080D02*
X00035564Y00020080D01*
X-00000115Y00020111D02*
X00035564Y00020111D01*
X-00000115Y00020142D02*
X00035564Y00020142D01*
X-00000115Y00020173D02*
X00035564Y00020173D01*
X-00000115Y00020204D02*
X00035564Y00020204D01*
X-00000115Y00020235D02*
X00035564Y00020235D01*
X-00000115Y00020266D02*
X00035564Y00020266D01*
X-00000115Y00020297D02*
X00035564Y00020297D01*
X-00000115Y00020327D02*
X00035564Y00020327D01*
X-00000115Y00020358D02*
X00035564Y00020358D01*
X-00000115Y00020389D02*
X00035564Y00020389D01*
X-00000115Y00020420D02*
X00035564Y00020420D01*
X-00000115Y00020451D02*
X00035564Y00020451D01*
X-00000115Y00020482D02*
X00035564Y00020482D01*
X-00000115Y00020513D02*
X00035564Y00020513D01*
X-00000115Y00020544D02*
X00035564Y00020544D01*
X-00000115Y00020575D02*
X00035564Y00020575D01*
X-00000115Y00020606D02*
X00035564Y00020606D01*
X-00000115Y00020637D02*
X00035564Y00020637D01*
X-00000115Y00020668D02*
X00035564Y00020668D01*
X-00000115Y00020699D02*
X00035564Y00020699D01*
X-00000115Y00020730D02*
X00035564Y00020730D01*
X-00000115Y00020761D02*
X00035564Y00020761D01*
X-00000115Y00020792D02*
X00035564Y00020792D01*
X-00000115Y00020823D02*
X00035564Y00020823D01*
X-00000115Y00020854D02*
X00035564Y00020854D01*
X-00000115Y00020885D02*
X00035564Y00020885D01*
X-00000115Y00020916D02*
X00035564Y00020916D01*
X-00000115Y00020947D02*
X00035564Y00020947D01*
X-00000115Y00020978D02*
X00035564Y00020978D01*
X-00000115Y00021009D02*
X00035564Y00021009D01*
X-00000115Y00021040D02*
X00035564Y00021040D01*
X-00000115Y00021071D02*
X00035564Y00021071D01*
X-00000115Y00021102D02*
X00035564Y00021102D01*
X-00000115Y00021133D02*
X00035564Y00021133D01*
X-00000115Y00021164D02*
X00035564Y00021164D01*
X-00000115Y00021195D02*
X00035564Y00021195D01*
X-00000115Y00021226D02*
X00035564Y00021226D01*
X-00000115Y00021257D02*
X00035564Y00021257D01*
X-00000115Y00021288D02*
X00035564Y00021288D01*
X-00000115Y00021319D02*
X00035564Y00021319D01*
X-00000115Y00021350D02*
X00035564Y00021350D01*
X-00000115Y00021381D02*
X00035564Y00021381D01*
X-00000115Y00021412D02*
X00035564Y00021412D01*
X-00000115Y00021443D02*
X00035564Y00021443D01*
X-00000115Y00021474D02*
X00035564Y00021474D01*
X-00000115Y00021505D02*
X00035564Y00021505D01*
X-00000115Y00021536D02*
X00035564Y00021536D01*
X-00000115Y00021566D02*
X00035564Y00021566D01*
X-00000115Y00021597D02*
X00035564Y00021597D01*
X-00000115Y00021628D02*
X00035564Y00021628D01*
X-00000115Y00021659D02*
X00035564Y00021659D01*
X-00000115Y00021690D02*
X00035564Y00021690D01*
X-00000115Y00021721D02*
X00035564Y00021721D01*
X-00000115Y00021752D02*
X00035564Y00021752D01*
X-00000115Y00021783D02*
X00035564Y00021783D01*
X-00000115Y00021814D02*
X00035564Y00021814D01*
X-00000115Y00021845D02*
X00035564Y00021845D01*
X-00000115Y00021876D02*
X00035564Y00021876D01*
X-00000115Y00021907D02*
X00035564Y00021907D01*
X-00000115Y00021938D02*
X00035564Y00021938D01*
X-00000115Y00021969D02*
X00035564Y00021969D01*
X-00000115Y00022000D02*
X00035564Y00022000D01*
X-00000115Y00022031D02*
X00035564Y00022031D01*
X-00000115Y00022062D02*
X00035564Y00022062D01*
X-00000115Y00022093D02*
X00035564Y00022093D01*
X-00000115Y00022124D02*
X00035564Y00022124D01*
X-00000115Y00022155D02*
X00035564Y00022155D01*
X-00000115Y00022186D02*
X00035564Y00022186D01*
X-00000115Y00022217D02*
X00035564Y00022217D01*
X-00000115Y00022248D02*
X00035564Y00022248D01*
X-00000115Y00022279D02*
X00035564Y00022279D01*
X-00000115Y00022310D02*
X00035564Y00022310D01*
X-00000115Y00022341D02*
X00035564Y00022341D01*
X-00000115Y00022372D02*
X00035564Y00022372D01*
X-00000115Y00022403D02*
X00035564Y00022403D01*
X-00000115Y00022434D02*
X00035564Y00022434D01*
X-00000115Y00022465D02*
X00035564Y00022465D01*
X-00000115Y00022496D02*
X00035564Y00022496D01*
X-00000115Y00022527D02*
X00035564Y00022527D01*
X-00000115Y00022558D02*
X00035564Y00022558D01*
X-00000115Y00022589D02*
X00035564Y00022589D01*
X-00000115Y00022620D02*
X00035564Y00022620D01*
X-00000115Y00022651D02*
X00035564Y00022651D01*
X-00000115Y00022682D02*
X00035564Y00022682D01*
X-00000115Y00022713D02*
X00035564Y00022713D01*
X-00000115Y00022744D02*
X00035564Y00022744D01*
X-00000115Y00022775D02*
X00035564Y00022775D01*
X-00000115Y00022805D02*
X00035564Y00022805D01*
X-00000115Y00022836D02*
X00035564Y00022836D01*
X-00000115Y00022867D02*
X00035564Y00022867D01*
X-00000115Y00022898D02*
X00035564Y00022898D01*
X-00000115Y00022929D02*
X00035564Y00022929D01*
X-00000115Y00022960D02*
X00035564Y00022960D01*
X-00000115Y00022991D02*
X00035564Y00022991D01*
X-00000115Y00023022D02*
X00035564Y00023022D01*
X-00000115Y00023053D02*
X00035564Y00023053D01*
X-00000115Y00023084D02*
X00035564Y00023084D01*
X-00000115Y00023115D02*
X00035564Y00023115D01*
X-00000115Y00023146D02*
X00035564Y00023146D01*
X-00000115Y00023177D02*
X00035564Y00023177D01*
X-00000115Y00023208D02*
X00035564Y00023208D01*
X-00000115Y00023239D02*
X00035564Y00023239D01*
X-00000115Y00023270D02*
X00035564Y00023270D01*
X-00000115Y00023301D02*
X00035564Y00023301D01*
X-00000115Y00023332D02*
X00035564Y00023332D01*
X-00000115Y00023363D02*
X00035564Y00023363D01*
X-00000115Y00023394D02*
X00035564Y00023394D01*
X-00000115Y00023425D02*
X00035564Y00023425D01*
X-00000115Y00023456D02*
X00035564Y00023456D01*
X-00000115Y00023487D02*
X00035564Y00023487D01*
X-00000115Y00023518D02*
X00035564Y00023518D01*
X-00000115Y00023549D02*
X00035564Y00023549D01*
X-00000115Y00023580D02*
X00035564Y00023580D01*
X-00000115Y00023611D02*
X00035564Y00023611D01*
X-00000115Y00023642D02*
X00035564Y00023642D01*
X-00000115Y00023673D02*
X00035564Y00023673D01*
X-00000115Y00023704D02*
X00035564Y00023704D01*
X-00000115Y00023735D02*
X00035564Y00023735D01*
X-00000115Y00023766D02*
X00035564Y00023766D01*
X-00000115Y00023797D02*
X00035564Y00023797D01*
X-00000115Y00023828D02*
X00035564Y00023828D01*
X-00000115Y00023859D02*
X00035564Y00023859D01*
X-00000115Y00023890D02*
X00035564Y00023890D01*
X-00000115Y00023921D02*
X00035564Y00023921D01*
X-00000115Y00023952D02*
X00035564Y00023952D01*
X-00000115Y00023983D02*
X00035564Y00023983D01*
X-00000115Y00024014D02*
X00035564Y00024014D01*
X-00000115Y00024044D02*
X00035564Y00024044D01*
X-00000115Y00024075D02*
X00035564Y00024075D01*
X-00000115Y00024106D02*
X00035564Y00024106D01*
X-00000115Y00024137D02*
X00035564Y00024137D01*
X-00000115Y00024168D02*
X00035564Y00024168D01*
X-00000115Y00024199D02*
X00035564Y00024199D01*
X-00000115Y00024230D02*
X00035564Y00024230D01*
X-00000115Y00024261D02*
X00035564Y00024261D01*
X-00000115Y00024292D02*
X00035564Y00024292D01*
X-00000115Y00024323D02*
X00035564Y00024323D01*
X-00000115Y00024354D02*
X00035564Y00024354D01*
X-00000115Y00024385D02*
X00035564Y00024385D01*
X-00000115Y00024416D02*
X00035564Y00024416D01*
X-00000115Y00024447D02*
X00035564Y00024447D01*
X-00000115Y00024478D02*
X00035564Y00024478D01*
X-00000115Y00024509D02*
X00035564Y00024509D01*
X-00000115Y00024540D02*
X00035564Y00024540D01*
X-00000115Y00024571D02*
X00035564Y00024571D01*
X-00000115Y00024602D02*
X00035564Y00024602D01*
X-00000115Y00024633D02*
X00035564Y00024633D01*
X-00000115Y00024664D02*
X00035564Y00024664D01*
X-00000115Y00024695D02*
X00035564Y00024695D01*
X-00000115Y00024726D02*
X00035564Y00024726D01*
X-00000115Y00024757D02*
X00035564Y00024757D01*
X-00000115Y00024788D02*
X00035564Y00024788D01*
X-00000115Y00024819D02*
X00035564Y00024819D01*
X-00000115Y00024850D02*
X00035564Y00024850D01*
X-00000115Y00024881D02*
X00035564Y00024881D01*
X-00000115Y00024912D02*
X00035564Y00024912D01*
X-00000115Y00024943D02*
X00035564Y00024943D01*
X-00000115Y00024974D02*
X00035564Y00024974D01*
X-00000115Y00025005D02*
X00035564Y00025005D01*
X-00000115Y00025036D02*
X00035564Y00025036D01*
X-00000115Y00025067D02*
X00035564Y00025067D01*
X-00000115Y00025098D02*
X00035564Y00025098D01*
X-00000115Y00025129D02*
X00035564Y00025129D01*
X-00000115Y00025160D02*
X00035564Y00025160D01*
X-00000115Y00025191D02*
X00035564Y00025191D01*
X-00000115Y00025222D02*
X00035564Y00025222D01*
X-00000115Y00025253D02*
X00035564Y00025253D01*
X-00000115Y00025283D02*
X00035564Y00025283D01*
X-00000115Y00025314D02*
X00035564Y00025314D01*
X-00000115Y00025345D02*
X00035564Y00025345D01*
X-00000115Y00025376D02*
X00035564Y00025376D01*
X-00000115Y00025407D02*
X00035564Y00025407D01*
X-00000115Y00025438D02*
X00035564Y00025438D01*
X-00000115Y00025469D02*
X00035564Y00025469D01*
X-00000115Y00025500D02*
X00035564Y00025500D01*
X-00000115Y00025531D02*
X00035564Y00025531D01*
X-00000115Y00025562D02*
X00035564Y00025562D01*
X-00000115Y00025593D02*
X00035564Y00025593D01*
X-00000115Y00025624D02*
X00035564Y00025624D01*
X-00000115Y00025655D02*
X00035564Y00025655D01*
X-00000115Y00025686D02*
X00035564Y00025686D01*
X-00000115Y00025717D02*
X00035564Y00025717D01*
X-00000115Y00025748D02*
X00035564Y00025748D01*
X-00000115Y00025779D02*
X00035564Y00025779D01*
X-00000115Y00025810D02*
X00035564Y00025810D01*
X-00000115Y00025841D02*
X00035564Y00025841D01*
X-00000115Y00025872D02*
X00035564Y00025872D01*
X-00000115Y00025903D02*
X00035564Y00025903D01*
X-00000115Y00025934D02*
X00035564Y00025934D01*
X-00000115Y00025965D02*
X00035564Y00025965D01*
X-00000115Y00025996D02*
X00035564Y00025996D01*
X-00000115Y00026027D02*
X00035564Y00026027D01*
X-00000115Y00026058D02*
X00035564Y00026058D01*
X-00000115Y00026089D02*
X00035564Y00026089D01*
X-00000115Y00026120D02*
X00035564Y00026120D01*
X-00000115Y00026151D02*
X00035564Y00026151D01*
X-00000115Y00026182D02*
X00035564Y00026182D01*
X-00000115Y00026213D02*
X00035564Y00026213D01*
X-00000115Y00026244D02*
X00035564Y00026244D01*
X-00000115Y00026275D02*
X00035564Y00026275D01*
X-00000115Y00026306D02*
X00035564Y00026306D01*
X-00000115Y00026337D02*
X00035564Y00026337D01*
X-00000115Y00026368D02*
X00035564Y00026368D01*
X-00000115Y00026399D02*
X00035564Y00026399D01*
X-00000115Y00026430D02*
X00035564Y00026430D01*
X-00000115Y00026461D02*
X00035564Y00026461D01*
X-00000115Y00026492D02*
X00035564Y00026492D01*
X-00000115Y00026522D02*
X00035564Y00026522D01*
X-00000115Y00026553D02*
X00035564Y00026553D01*
X-00000115Y00026584D02*
X00035564Y00026584D01*
X-00000115Y00026615D02*
X00035564Y00026615D01*
X-00000115Y00026646D02*
X00035564Y00026646D01*
X-00000115Y00026677D02*
X00035564Y00026677D01*
X-00000115Y00026708D02*
X00035564Y00026708D01*
X-00000115Y00026739D02*
X00035564Y00026739D01*
X-00000115Y00026770D02*
X00035564Y00026770D01*
X-00000115Y00026801D02*
X00035564Y00026801D01*
X-00000115Y00026832D02*
X00035564Y00026832D01*
X-00000115Y00026863D02*
X00035564Y00026863D01*
X-00000115Y00026894D02*
X00035564Y00026894D01*
X-00000115Y00026925D02*
X00035564Y00026925D01*
X-00000115Y00026956D02*
X00035564Y00026956D01*
X-00000115Y00026987D02*
X00035564Y00026987D01*
X-00000115Y00027018D02*
X00035564Y00027018D01*
X-00000115Y00027049D02*
X00035564Y00027049D01*
X-00000115Y00027080D02*
X00035564Y00027080D01*
X-00000115Y00027111D02*
X00035564Y00027111D01*
X-00000115Y00027142D02*
X00035564Y00027142D01*
X-00000115Y00027173D02*
X00035564Y00027173D01*
X-00000115Y00027204D02*
X00035564Y00027204D01*
X-00000115Y00027235D02*
X00035564Y00027235D01*
X-00000115Y00027266D02*
X00035564Y00027266D01*
X-00000115Y00027297D02*
X00035564Y00027297D01*
X-00000115Y00027328D02*
X00035564Y00027328D01*
X-00000115Y00027359D02*
X00035564Y00027359D01*
X-00000115Y00027390D02*
X00035564Y00027390D01*
X-00000115Y00027421D02*
X00035564Y00027421D01*
X-00000115Y00027452D02*
X00035564Y00027452D01*
X-00000115Y00027483D02*
X00035564Y00027483D01*
X-00000115Y00027514D02*
X00035564Y00027514D01*
X-00000115Y00027545D02*
X00035564Y00027545D01*
X-00000115Y00027576D02*
X00035564Y00027576D01*
X-00000115Y00027607D02*
X00035564Y00027607D01*
X-00000115Y00027638D02*
X00035564Y00027638D01*
X-00000115Y00027669D02*
X00035564Y00027669D01*
X-00000115Y00027700D02*
X00035564Y00027700D01*
X-00000115Y00027731D02*
X00035564Y00027731D01*
X-00000115Y00027761D02*
X00035564Y00027761D01*
X-00000115Y00027792D02*
X00035564Y00027792D01*
X-00000115Y00027823D02*
X00035564Y00027823D01*
X-00000115Y00027854D02*
X00035564Y00027854D01*
X-00000115Y00027885D02*
X00035564Y00027885D01*
X-00000115Y00027916D02*
X00035564Y00027916D01*
X-00000115Y00027947D02*
X00035564Y00027947D01*
X-00000115Y00027978D02*
X00035564Y00027978D01*
X-00000115Y00028009D02*
X00035564Y00028009D01*
X-00000115Y00028040D02*
X00035564Y00028040D01*
X-00000115Y00028071D02*
X00035564Y00028071D01*
X-00000115Y00028102D02*
X00035564Y00028102D01*
X-00000115Y00028133D02*
X00035564Y00028133D01*
X-00000115Y00028164D02*
X00035564Y00028164D01*
X-00000115Y00028195D02*
X00035564Y00028195D01*
X-00000115Y00028226D02*
X00035564Y00028226D01*
X-00000115Y00028257D02*
X00035564Y00028257D01*
X-00000115Y00028288D02*
X00035564Y00028288D01*
X-00000115Y00028319D02*
X00035564Y00028319D01*
X-00000115Y00028350D02*
X00035564Y00028350D01*
X-00000115Y00028381D02*
X00035564Y00028381D01*
X-00000115Y00028412D02*
X00035564Y00028412D01*
X-00000115Y00028443D02*
X00035564Y00028443D01*
X-00000115Y00028474D02*
X00035564Y00028474D01*
X-00000115Y00028505D02*
X00035564Y00028505D01*
X-00000115Y00028536D02*
X00035564Y00028536D01*
X-00000115Y00028567D02*
X00035564Y00028567D01*
X-00000115Y00028598D02*
X00035564Y00028598D01*
X-00000115Y00028629D02*
X00035564Y00028629D01*
X-00000115Y00028660D02*
X00035564Y00028660D01*
X-00000115Y00028691D02*
X00035564Y00028691D01*
X-00000115Y00028722D02*
X00035564Y00028722D01*
X-00000115Y00028753D02*
X00035564Y00028753D01*
X-00000115Y00028784D02*
X00035564Y00028784D01*
X-00000115Y00028815D02*
X00035564Y00028815D01*
X-00000115Y00028846D02*
X00035564Y00028846D01*
X-00000115Y00028877D02*
X00035564Y00028877D01*
X-00000115Y00028908D02*
X00035564Y00028908D01*
X-00000115Y00028939D02*
X00035564Y00028939D01*
X-00000115Y00028970D02*
X00035564Y00028970D01*
X-00000115Y00029000D02*
X00035564Y00029000D01*
X-00000115Y00029031D02*
X00035564Y00029031D01*
X-00000115Y00029062D02*
X00035564Y00029062D01*
X-00000115Y00029093D02*
X00035564Y00029093D01*
X-00000115Y00029124D02*
X00035564Y00029124D01*
X-00000115Y00029155D02*
X00035564Y00029155D01*
X-00000115Y00029186D02*
X00035564Y00029186D01*
X-00000115Y00029217D02*
X00035564Y00029217D01*
X-00000115Y00029248D02*
X00035564Y00029248D01*
X-00000115Y00029279D02*
X00035564Y00029279D01*
X-00000115Y00029310D02*
X00035564Y00029310D01*
X-00000115Y00029341D02*
X00035564Y00029341D01*
X-00000115Y00029372D02*
X00035564Y00029372D01*
X-00000115Y00029403D02*
X00035564Y00029403D01*
X-00000115Y00029434D02*
X00035564Y00029434D01*
X-00000115Y00029465D02*
X00035564Y00029465D01*
X-00000115Y00029496D02*
X00035564Y00029496D01*
X-00000115Y00029527D02*
X00035564Y00029527D01*
X-00000115Y00029558D02*
X00035564Y00029558D01*
X-00000115Y00029589D02*
X00035564Y00029589D01*
X-00000115Y00029620D02*
X00035564Y00029620D01*
X-00000115Y00029651D02*
X00035564Y00029651D01*
X-00000115Y00029682D02*
X00035564Y00029682D01*
X-00000115Y00029713D02*
X00035564Y00029713D01*
X-00000115Y00029744D02*
X00035564Y00029744D01*
X-00000115Y00029775D02*
X00035564Y00029775D01*
X-00000115Y00029806D02*
X00035564Y00029806D01*
X-00000115Y00029837D02*
X00035564Y00029837D01*
X-00000115Y00029868D02*
X00035564Y00029868D01*
X-00000115Y00029899D02*
X00035564Y00029899D01*
X-00000115Y00029930D02*
X00035564Y00029930D01*
X-00000115Y00029961D02*
X00035564Y00029961D01*
X-00000115Y00029992D02*
X00035564Y00029992D01*
X-00000115Y00030023D02*
X00035564Y00030023D01*
X-00000115Y00030054D02*
X00035564Y00030054D01*
X-00000115Y00030085D02*
X00035564Y00030085D01*
X-00000115Y00030116D02*
X00035564Y00030116D01*
X-00000115Y00030147D02*
X00035564Y00030147D01*
X-00000115Y00030178D02*
X00035564Y00030178D01*
X-00000115Y00030208D02*
X00035564Y00030208D01*
X-00000115Y00030239D02*
X00035564Y00030239D01*
X-00000115Y00030270D02*
X00035564Y00030270D01*
X-00000115Y00030301D02*
X00035564Y00030301D01*
X-00000115Y00030332D02*
X00035564Y00030332D01*
X-00000115Y00030363D02*
X00035564Y00030363D01*
X-00000115Y00030394D02*
X00035564Y00030394D01*
X-00000115Y00030425D02*
X00035564Y00030425D01*
X-00000115Y00030456D02*
X00035564Y00030456D01*
X-00000115Y00030487D02*
X00035564Y00030487D01*
X-00000115Y00030518D02*
X00035564Y00030518D01*
X-00000115Y00030549D02*
X00035564Y00030549D01*
X-00000115Y00030580D02*
X00035564Y00030580D01*
X-00000115Y00030611D02*
X00035564Y00030611D01*
X-00000115Y00030642D02*
X00035564Y00030642D01*
X-00000115Y00030673D02*
X00035564Y00030673D01*
X-00000115Y00030704D02*
X00035564Y00030704D01*
X-00000115Y00030735D02*
X00035564Y00030735D01*
X-00000115Y00030766D02*
X00035564Y00030766D01*
X-00000115Y00030797D02*
X00035564Y00030797D01*
X-00000115Y00030828D02*
X00035564Y00030828D01*
X-00000115Y00030859D02*
X00035564Y00030859D01*
X-00000115Y00030890D02*
X00035564Y00030890D01*
X-00000115Y00030921D02*
X00035564Y00030921D01*
X-00000115Y00030952D02*
X00035564Y00030952D01*
X-00000115Y00030983D02*
X00035564Y00030983D01*
X-00000115Y00031014D02*
X00035564Y00031014D01*
X-00000115Y00031045D02*
X00035564Y00031045D01*
X-00000115Y00031076D02*
X00035564Y00031076D01*
X-00000115Y00031107D02*
X00035564Y00031107D01*
X-00000115Y00031138D02*
X00035564Y00031138D01*
X-00000115Y00031169D02*
X00035564Y00031169D01*
X-00000115Y00031200D02*
X00035564Y00031200D01*
X-00000115Y00031231D02*
X00035564Y00031231D01*
X-00000115Y00031262D02*
X00035564Y00031262D01*
X-00000115Y00031293D02*
X00035564Y00031293D01*
X-00000115Y00031324D02*
X00035564Y00031324D01*
X-00000115Y00031355D02*
X00035564Y00031355D01*
X-00000115Y00031386D02*
X00035564Y00031386D01*
X-00000115Y00031417D02*
X00035564Y00031417D01*
X-00000115Y00031447D02*
X00035564Y00031447D01*
X-00000115Y00031478D02*
X00035564Y00031478D01*
X-00000115Y00031509D02*
X00035564Y00031509D01*
X-00000115Y00031540D02*
X00035564Y00031540D01*
X-00000115Y00031571D02*
X00035564Y00031571D01*
X-00000115Y00031602D02*
X00035564Y00031602D01*
X-00000115Y00031633D02*
X00035564Y00031633D01*
X-00000115Y00031664D02*
X00035564Y00031664D01*
X-00000115Y00031695D02*
X00035564Y00031695D01*
X-00000115Y00031726D02*
X00035564Y00031726D01*
X-00000115Y00031757D02*
X00035564Y00031757D01*
X-00000115Y00031788D02*
X00035564Y00031788D01*
X-00000115Y00031819D02*
X00035564Y00031819D01*
X-00000115Y00031850D02*
X00035564Y00031850D01*
X-00000115Y00031881D02*
X00035564Y00031881D01*
X-00000115Y00031912D02*
X00035564Y00031912D01*
X-00000115Y00031943D02*
X00035564Y00031943D01*
X-00000115Y00031974D02*
X00035564Y00031974D01*
X-00000115Y00032005D02*
X00035564Y00032005D01*
X-00000115Y00032036D02*
X00035564Y00032036D01*
X-00000115Y00032067D02*
X00035564Y00032067D01*
X-00000115Y00032098D02*
X00035564Y00032098D01*
X-00000115Y00032129D02*
X00035564Y00032129D01*
X-00000115Y00032160D02*
X00035564Y00032160D01*
X-00000115Y00032191D02*
X00035564Y00032191D01*
X-00000115Y00032222D02*
X00035564Y00032222D01*
X-00000115Y00032253D02*
X00035564Y00032253D01*
X-00000115Y00032284D02*
X00035564Y00032284D01*
X-00000115Y00032315D02*
X00035564Y00032315D01*
X-00000115Y00032346D02*
X00035564Y00032346D01*
X-00000115Y00032377D02*
X00035564Y00032377D01*
X-00000115Y00032408D02*
X00035564Y00032408D01*
X-00000115Y00032439D02*
X00035564Y00032439D01*
X-00000115Y00032470D02*
X00035564Y00032470D01*
X-00000115Y00032501D02*
X00035564Y00032501D01*
X-00000115Y00032532D02*
X00035564Y00032532D01*
X-00000115Y00032563D02*
X00035564Y00032563D01*
X-00000115Y00032594D02*
X00035564Y00032594D01*
X-00000115Y00032625D02*
X00035564Y00032625D01*
X-00000115Y00032656D02*
X00035564Y00032656D01*
X-00000115Y00032686D02*
X00035564Y00032686D01*
X-00000115Y00032717D02*
X00035564Y00032717D01*
X-00000115Y00032748D02*
X00035564Y00032748D01*
X-00000115Y00032779D02*
X00035564Y00032779D01*
X-00000115Y00032810D02*
X00035564Y00032810D01*
X-00000115Y00032841D02*
X00035564Y00032841D01*
X-00000115Y00032872D02*
X00035564Y00032872D01*
X-00000115Y00032903D02*
X00035564Y00032903D01*
X-00000115Y00032934D02*
X00035564Y00032934D01*
X-00000115Y00032965D02*
X00035564Y00032965D01*
X-00000115Y00032996D02*
X00035564Y00032996D01*
X-00000115Y00033027D02*
X00035564Y00033027D01*
X-00000115Y00033058D02*
X00035564Y00033058D01*
X-00000115Y00033089D02*
X00035564Y00033089D01*
X-00000115Y00033120D02*
X00035564Y00033120D01*
X-00000115Y00033151D02*
X00035564Y00033151D01*
X-00000115Y00033182D02*
X00035564Y00033182D01*
X-00000115Y00033213D02*
X00035564Y00033213D01*
X-00000115Y00033244D02*
X00035564Y00033244D01*
X-00000115Y00033275D02*
X00035564Y00033275D01*
X-00000115Y00033306D02*
X00035564Y00033306D01*
X-00000115Y00033337D02*
X00035564Y00033337D01*
X-00000115Y00033368D02*
X00035564Y00033368D01*
X-00000115Y00033399D02*
X00035564Y00033399D01*
X-00000115Y00033430D02*
X00035564Y00033430D01*
X-00000115Y00033461D02*
X00035564Y00033461D01*
X-00000115Y00033492D02*
X00035564Y00033492D01*
X-00000115Y00033523D02*
X00035564Y00033523D01*
X-00000115Y00033554D02*
X00035564Y00033554D01*
X-00000115Y00033585D02*
X00035564Y00033585D01*
X-00000115Y00033616D02*
X00035564Y00033616D01*
X-00000115Y00033647D02*
X00035564Y00033647D01*
X-00000115Y00033678D02*
X00035564Y00033678D01*
X-00000115Y00033709D02*
X00035564Y00033709D01*
X-00000115Y00033740D02*
X00035564Y00033740D01*
X-00000115Y00033771D02*
X00035564Y00033771D01*
X-00000115Y00033802D02*
X00035564Y00033802D01*
X-00000115Y00033833D02*
X00035564Y00033833D01*
X-00000115Y00033864D02*
X00035564Y00033864D01*
X-00000115Y00033895D02*
X00035564Y00033895D01*
X-00000115Y00033925D02*
X00035564Y00033925D01*
X-00000115Y00033956D02*
X00035564Y00033956D01*
X-00000115Y00033987D02*
X00035564Y00033987D01*
X-00000115Y00034018D02*
X00035564Y00034018D01*
X-00000115Y00034049D02*
X00035564Y00034049D01*
X-00000115Y00034080D02*
X00035564Y00034080D01*
X-00000115Y00034111D02*
X00035564Y00034111D01*
X-00000115Y00034142D02*
X00035564Y00034142D01*
X-00000115Y00034173D02*
X00035564Y00034173D01*
X-00000115Y00034204D02*
X00035564Y00034204D01*
X-00000115Y00034235D02*
X00035564Y00034235D01*
X-00000115Y00034266D02*
X00035564Y00034266D01*
X-00000115Y00034297D02*
X00035564Y00034297D01*
X-00000115Y00034328D02*
X00035564Y00034328D01*
X-00000115Y00034359D02*
X00035564Y00034359D01*
X-00000115Y00034390D02*
X00035564Y00034390D01*
X-00000115Y00034421D02*
X00035564Y00034421D01*
X-00000115Y00034452D02*
X00035564Y00034452D01*
X-00000115Y00034483D02*
X00035564Y00034483D01*
X-00000115Y00034514D02*
X00035564Y00034514D01*
X-00000115Y00034545D02*
X00035564Y00034545D01*
X-00000115Y00034576D02*
X00035564Y00034576D01*
X-00000115Y00034607D02*
X00035564Y00034607D01*
X-00000115Y00034638D02*
X00035564Y00034638D01*
X-00000115Y00034669D02*
X00035564Y00034669D01*
X-00000115Y00034700D02*
X00035564Y00034700D01*
X-00000115Y00034731D02*
X00035564Y00034731D01*
X-00000115Y00034762D02*
X00035564Y00034762D01*
X-00000115Y00034793D02*
X00035564Y00034793D01*
X-00000115Y00034824D02*
X00035564Y00034824D01*
X-00000115Y00034855D02*
X00035564Y00034855D01*
X-00000115Y00034886D02*
X00035564Y00034886D01*
X-00000115Y00034917D02*
X00035564Y00034917D01*
X-00000115Y00034948D02*
X00035564Y00034948D01*
X-00000115Y00034979D02*
X00035564Y00034979D01*
X-00000115Y00035010D02*
X00035564Y00035010D01*
X-00000115Y00035041D02*
X00035564Y00035041D01*
X-00000115Y00035072D02*
X00035564Y00035072D01*
X-00000115Y00035103D02*
X00035564Y00035103D01*
X-00000115Y00035134D02*
X00035564Y00035134D01*
X-00000115Y00035164D02*
X00035564Y00035164D01*
X-00000115Y00035195D02*
X00035564Y00035195D01*
X-00000115Y00035226D02*
X00035564Y00035226D01*
X-00000115Y00035257D02*
X00035564Y00035257D01*
X-00000115Y00035288D02*
X00035564Y00035288D01*
X-00000115Y00035319D02*
X00035564Y00035319D01*
X-00000115Y00035350D02*
X00035564Y00035350D01*
X-00000115Y00035381D02*
X00035564Y00035381D01*
X-00000115Y00035412D02*
X00035564Y00035412D01*
X-00000115Y00035443D02*
X00035564Y00035443D01*
X-00000115Y00035474D02*
X00035564Y00035474D01*
X-00000115Y00035505D02*
X00035564Y00035505D01*
X-00000115Y00035536D02*
X00035564Y00035536D01*
X-00000115Y00035567D02*
X00035564Y00035567D01*
X-00000115Y00035598D02*
X00035564Y00035598D01*
X-00000115Y00035629D02*
X00035564Y00035629D01*
X-00000115Y00035660D02*
X00035564Y00035660D01*
X-00000115Y00035691D02*
X00035564Y00035691D01*
X-00000115Y00035722D02*
X00035564Y00035722D01*
X-00000115Y00035753D02*
X00035564Y00035753D01*
X-00000115Y00035784D02*
X00035564Y00035784D01*
X-00000115Y00035815D02*
X00035564Y00035815D01*
X-00000115Y00035846D02*
X00035564Y00035846D01*
X-00000115Y00035877D02*
X00035564Y00035877D01*
X-00000115Y00035908D02*
X00035564Y00035908D01*
X-00000115Y00035939D02*
X00035564Y00035939D01*
X-00000115Y00035970D02*
X00035564Y00035970D01*
X-00000115Y00036001D02*
X00035564Y00036001D01*
X-00000115Y00036032D02*
X00035564Y00036032D01*
X-00000115Y00036063D02*
X00035564Y00036063D01*
X-00000115Y00036094D02*
X00035564Y00036094D01*
X-00000115Y00036125D02*
X00035564Y00036125D01*
X-00000115Y00036156D02*
X00035564Y00036156D01*
X-00000115Y00036187D02*
X00035564Y00036187D01*
X-00000115Y00036218D02*
X00035564Y00036218D01*
X-00000115Y00036249D02*
X00035564Y00036249D01*
X-00000115Y00036280D02*
X00035564Y00036280D01*
X-00000115Y00036311D02*
X00035564Y00036311D01*
X-00000115Y00036342D02*
X00035564Y00036342D01*
X-00000115Y00036373D02*
X00035564Y00036373D01*
X-00000115Y00036403D02*
X00035564Y00036403D01*
X-00000115Y00036434D02*
X00035564Y00036434D01*
X-00000115Y00036465D02*
X00035564Y00036465D01*
X-00000115Y00036496D02*
X00035564Y00036496D01*
X-00000115Y00036527D02*
X00035564Y00036527D01*
X-00000115Y00036558D02*
X00035564Y00036558D01*
X-00000115Y00036589D02*
X00035564Y00036589D01*
X-00000115Y00036620D02*
X00035564Y00036620D01*
X-00000115Y00036651D02*
X00035564Y00036651D01*
X-00000115Y00036682D02*
X00035564Y00036682D01*
X-00000115Y00036713D02*
X00035564Y00036713D01*
X-00000115Y00036744D02*
X00035564Y00036744D01*
X-00000115Y00036775D02*
X00035564Y00036775D01*
X-00000115Y00036806D02*
X00035564Y00036806D01*
X-00000115Y00036837D02*
X00035564Y00036837D01*
X-00000115Y00036868D02*
X00035564Y00036868D01*
X-00000115Y00036899D02*
X00035564Y00036899D01*
X-00000115Y00036930D02*
X00035564Y00036930D01*
X-00000115Y00036961D02*
X00035564Y00036961D01*
X-00000115Y00036992D02*
X00035564Y00036992D01*
X-00000115Y00037023D02*
X00035564Y00037023D01*
X-00000115Y00037054D02*
X00035564Y00037054D01*
X-00000115Y00037085D02*
X00035564Y00037085D01*
X-00000115Y00037116D02*
X00035564Y00037116D01*
X-00000115Y00037147D02*
X00035564Y00037147D01*
X-00000115Y00037178D02*
X00035564Y00037178D01*
X-00000115Y00037209D02*
X00035564Y00037209D01*
X-00000115Y00037240D02*
X00035564Y00037240D01*
X-00000115Y00037271D02*
X00035564Y00037271D01*
X-00000115Y00037302D02*
X00035564Y00037302D01*
X-00000115Y00037333D02*
X00035564Y00037333D01*
X-00000115Y00037364D02*
X00035564Y00037364D01*
X-00000115Y00037395D02*
X00035564Y00037395D01*
X-00000115Y00037426D02*
X00035564Y00037426D01*
X-00000115Y00037457D02*
X00035564Y00037457D01*
X-00000115Y00037488D02*
X00035564Y00037488D01*
X-00000115Y00037519D02*
X00035564Y00037519D01*
X-00000115Y00037550D02*
X00035564Y00037550D01*
X-00000115Y00037581D02*
X00035564Y00037581D01*
X-00000115Y00037612D02*
X00035564Y00037612D01*
X-00000115Y00037642D02*
X00035564Y00037642D01*
X-00000115Y00037673D02*
X00035564Y00037673D01*
X-00000115Y00037704D02*
X00035564Y00037704D01*
X-00000115Y00037735D02*
X00035564Y00037735D01*
X-00000115Y00037766D02*
X00035564Y00037766D01*
X-00000115Y00037797D02*
X00035564Y00037797D01*
X-00000115Y00037828D02*
X00035564Y00037828D01*
X-00000115Y00037859D02*
X00035564Y00037859D01*
X-00000115Y00037890D02*
X00035564Y00037890D01*
X-00000115Y00037921D02*
X00035564Y00037921D01*
X-00000115Y00037952D02*
X00035564Y00037952D01*
X-00000115Y00037983D02*
X00035564Y00037983D01*
X-00000115Y00038014D02*
X00035564Y00038014D01*
X-00000115Y00038045D02*
X00035564Y00038045D01*
X-00000115Y00038076D02*
X00035564Y00038076D01*
X-00000115Y00038107D02*
X00035564Y00038107D01*
M02*