<?xml version="1.0" encoding="UTF-8" standalone="no"?>
<!-- Created with Inkscape (http://www.inkscape.org/) -->

<svg
   xmlns:dc="http://purl.org/dc/elements/1.1/"
   xmlns:cc="http://creativecommons.org/ns#"
   xmlns:rdf="http://www.w3.org/1999/02/22-rdf-syntax-ns#"
   xmlns:svg="http://www.w3.org/2000/svg"
   xmlns="http://www.w3.org/2000/svg"
   xmlns:sodipodi="http://sodipodi.sourceforge.net/DTD/sodipodi-0.dtd"
   xmlns:inkscape="http://www.inkscape.org/namespaces/inkscape"
   id="svg2"
   version="1.1"
   inkscape:version="0.91 r13725"
   width="179"
   height="285"
   viewBox="0 0 179 285"
   sodipodi:docname="Sam-I-Am-Outline.svg">
  <metadata
     id="metadata8">
    <rdf:RDF>
      <cc:Work
         rdf:about="">
        <dc:format>image/svg+xml</dc:format>
        <dc:type
           rdf:resource="http://purl.org/dc/dcmitype/StillImage" />
        <dc:title></dc:title>
      </cc:Work>
    </rdf:RDF>
  </metadata>
  <defs
     id="defs6" />
  <sodipodi:namedview
     pagecolor="#ffffff"
     bordercolor="#666666"
     borderopacity="1"
     objecttolerance="10"
     gridtolerance="10"
     guidetolerance="10"
     inkscape:pageopacity="0"
     inkscape:pageshadow="2"
     inkscape:window-width="796"
     inkscape:window-height="480"
     id="namedview4"
     showgrid="false"
     inkscape:zoom="0.91547848"
     inkscape:cx="56.043973"
     inkscape:cy="147.00532"
     inkscape:window-x="2515"
     inkscape:window-y="300"
     inkscape:window-maximized="0"
     inkscape:current-layer="g4138"
     showguides="false" />
  <g
     id="g4138"
     transform="translate(2.415252,6.0381356)">
    <path
       style="fill:#16170f"
       d="m 1.252328,-29.944386 c -19.68457,0 -35.64258,15.956062 -35.64258,35.6406254 0,19.6845636 35.64258,33.7256736 35.64258,135.7792906 -1e-5,102.05363 -35.64258,116.09473 -35.64258,135.7793 0,19.68456 15.95801,35.64258 35.64258,35.64258 19.68456,0 32.54893,-35.64258 96.74219,-35.64258 64.193252,0 77.059572,35.64258 96.744132,35.64258 19.68456,0 35.64062,-15.95802 35.64062,-35.64258 0,-19.68457 -35.64062,-33.72567 -35.64062,-135.7793 0,-102.05362 35.64062,-116.09473 35.64062,-135.7792906 0,-19.6845614 -15.95606,-35.6406224 -35.64062,-35.6406254 -19.68456,-3e-6 -32.55089,35.6406244 -96.744132,35.6406254 -64.19326,1e-6 -77.05763,-35.6406254 -96.74219,-35.6406254 z m 62.24609,35.5683594 c 0.39779,-0.00254 0.76069,0.087016 1.07813,0.283203 1.78422,1.102709 1.08514,3.445972 -1.99024,6.6640626 -1.65,1.726567 -3,3.733975 -3,4.460937 0,0.726961 -1.34469,2.31609 -2.98828,3.53125 -3.07372,2.272501 -3.79229,4.407342 -4.39844,13.078126 -0.27593,3.947172 -0.0134,4.828322 1.58594,5.335937 1.95842,0.621578 3.83184,4.233364 3.76172,7.251953 -0.0215,0.926695 -0.65319,0.276162 -1.40235,-1.445312 -2.28538,-5.251513 -3.95981,-5.391896 -3.26562,-0.273438 l 0.5957,4.402344 -1.44726,-3.25 c -1.59565,-3.582022 -2.5874,-3.984948 -4.40821,-1.791016 -1.01522,1.223267 -0.66006,7.541016 0.42383,7.541016 0.16413,0 1.91417,-0.675 3.88867,-1.5 10.34035,-4.320474 16.73224,0.172337 19.65821,13.814453 0.56779,2.647313 1.74796,5.904683 2.62304,7.240234 1.59501,2.434283 2.30187,2.498894 8.62305,0.785157 0.9625,-0.260943 1.75,-0.03286 1.75,0.505859 0,0.53872 -1.8,1.282609 -4,1.654297 -3.11251,0.525856 -4,1.120932 -4,2.68164 0,1.224515 0.85436,2.229412 2.19531,2.580079 2.09648,0.54824 2.10786,0.608896 0.25,1.335937 -1.82163,0.712868 -1.80439,0.766252 0.2461,0.832031 1.20504,0.03866 2.50923,0.587053 2.89843,1.216797 0.48758,0.788912 -0.10802,0.987452 -1.9121,0.642578 -1.4401,-0.275292 -2.37871,-0.11508 -2.0879,0.355469 0.29082,0.470549 2.63871,0.909537 5.21875,0.974609 6.21185,0.156673 10.99839,1.229737 9.55274,2.142579 -0.62653,0.395617 -3.22332,0.331152 -5.76953,-0.144532 -2.54621,-0.475684 -4.83342,-0.53433 -5.08399,-0.128906 -0.25056,0.405424 2.11927,1.004752 5.26758,1.332031 3.31957,0.345083 5.86529,0.194126 6.0586,-0.361328 0.18333,-0.526797 1.19583,-0.958984 2.25,-0.958984 1.05416,0 1.91601,-0.476135 1.91601,-1.058594 0,-0.582459 -0.409,-0.806574 -0.9082,-0.498047 -0.49921,0.308526 -1.96171,0.09843 -3.25,-0.466797 -1.87882,-0.82431 -1.39239,-0.925696 2.45898,-0.513672 2.78935,0.298408 4.565362,0.130042 4.236332,-0.402343 -0.311522,-0.504043 0.22661,-1.103038 1.19727,-1.330078 0.97066,-0.227039 -0.0344,-0.317897 -2.234382,-0.203125 -2.2,0.114773 -3.20698,0.01091 -2.23633,-0.230469 0.97066,-0.241377 1.50703,-0.85651 1.19141,-1.367188 -0.72243,-1.168909 0.21729,-1.169139 4.287112,-0.002 1.98202,0.568436 3.45142,0.568436 3.80274,0 0.31488,-0.509459 -0.80387,-0.927734 -2.48633,-0.927734 -1.68246,0 -3.0586,-0.436012 -3.0586,-0.96875 0,-0.532739 0.675,-0.709161 1.5,-0.392578 0.825,0.316582 1.5,0.07759 1.5,-0.53125 0,-0.608844 0.70114,-1.107422 1.5586,-1.107422 0.85746,0 1.31016,-0.402163 1.00586,-0.894531 -0.3043,-0.492369 0.0685,-1.134301 0.82812,-1.425782 0.96658,-0.370913 1.2293,0.04909 0.87695,1.396485 -0.27689,1.05885 -1.23836,1.938353 -2.13671,1.955078 -1.37359,0.02557 -1.33544,0.202055 0.23632,1.115234 1.56843,0.911248 2.53007,0.42501 5.98438,-3.029297 l 4.11719,-4.117187 -2.98633,-0.136719 c -1.64191,-0.07539 -3.76285,-0.13553 -4.71289,-0.132812 -0.95004,0.0027 -1.48447,-0.384004 -1.18946,-0.861329 0.82579,-1.336157 6.81754,-1.027957 8.84571,0.455079 2.88277,2.107931 1.22199,6.992116 -3.70508,10.90039 -8.18607,6.493403 -21.563222,13.226119 -37.312502,18.779292 l -6.0918,2.14844 2.0918,5.32812 c 2.29294,5.84443 3.87927,5.90602 5.19531,0.20117 0.72294,-3.13386 0.74303,-3.14467 1.42383,-0.68164 0.38006,1.375 0.50932,3.625 0.28711,5 -0.34819,2.15448 0.4229,2.98372 5.57812,6 6.27817,3.67331 6.19408,4.73547 -0.39453,4.96289 -1.65,0.057 -4.06265,0.99037 -5.36133,2.07227 -1.95198,1.62615 -2.25043,2.56043 -1.71875,5.39453 0.6693,3.56764 4.48646,9.19163 4.54688,6.69922 0.0495,-2.04006 2.77425,0.44832 4.70703,4.29883 3.95132,7.87187 24.970542,32.27338 27.308602,31.70312 0.83499,-0.20367 3.2906,-0.47963 5.45703,-0.61328 4.12581,-0.25452 5.34863,-1.66638 5.49023,-6.33398 0.0632,-2.08267 -3.96502,-8.64371 -6.35937,-10.35743 -0.55978,-0.40066 -0.40308,-1.32179 0.38671,-2.27343 1.47951,-1.78269 0.81851,-3.1494 -0.98437,-2.03516 -0.63838,0.39455 -0.96873,1.72869 -0.73242,2.96484 0.2363,1.23614 -0.22605,3.09594 -1.0293,4.13282 -1.39578,1.80177 -1.43752,1.78514 -0.92969,-0.36524 0.75227,-3.18548 -0.71048,-2.78975 -3.69726,1 -1.87614,2.38053 -2.56415,2.78182 -2.57227,1.5 -0.006,-0.9625 0.46442,-1.75 1.04688,-1.75 0.58246,0 0.78602,-0.43988 0.45312,-0.97851 -0.33289,-0.53864 -0.0953,-1.9323 0.52735,-3.09571 1.0329,-1.92998 0.92806,-2.05355 -1.20313,-1.41601 -1.28471,0.38431 -3.33263,1.32796 -4.55078,2.0957 -3.26028,2.05477 -3.48529,1.71396 -0.78906,-1.19531 1.32054,-1.42489 2.82099,-2.33072 3.33398,-2.01367 0.513,0.31705 2.57923,-0.54244 4.5918,-1.90821 l 3.6582,-2.48242 -2.53906,4.33594 c -3.56492,6.08309 -3.16229,6.74435 1.08594,1.78125 2.1636,-2.52767 4.19457,-4.02223 5.03125,-3.70117 0.84665,0.32489 1.85116,-0.44448 2.5332,-1.94141 0.62156,-1.36416 1.56274,-2.48047 2.0918,-2.48047 0.52906,0 0.40296,0.67403 -0.2793,1.4961 -1.19614,1.44126 -1.09928,2.72171 0.5293,7.0039 0.62547,1.64459 0.52184,1.77787 -0.58594,0.75 -2.74799,-2.54976 -2.90924,-1.10785 -0.42383,3.79688 1.40663,2.77584 3.23416,5.30789 4.06055,5.625 1.30185,0.49957 1.2731,0.83024 -0.2168,2.47656 -1.36928,1.51305 -1.46692,2.14843 -0.47656,3.125 0.98425,0.97054 1.56233,0.80935 2.77148,-0.77344 1.42103,-1.86015 1.48508,-1.68533 0.9043,2.5 l -0.625,4.5 1.98633,-3.5 c 2.49662,-4.3969 2.5201,-3.35968 0.13086,5.83985 -2.46731,9.50014 -4.22632,11.89158 -2.14063,2.91015 1.07123,-4.61299 0.0214,-4.84478 -2.26562,-0.5 l -1.71094,3.25 0.50586,-3 c 0.27787,-1.65 0.81986,-4.125 1.20508,-5.5 0.68214,-2.4348 0.63043,-2.42176 -1.98047,0.5 -1.47445,1.65 -2.43928,2.29677 -2.14258,1.4375 0.71483,-2.07019 -3.59342,-4.36953 -6.47461,-3.45508 -1.20115,0.38123 -2.55984,1.66634 -3.01758,2.85547 -0.82595,2.14565 -0.83851,2.14313 -1.83594,-0.33789 -0.55277,-1.375 -3.57425,-5.425 -6.71484,-9 -7.984032,-9.08837 -15.676922,-18.82422 -18.373052,-23.25586 -1.25687,-2.06593 -2.6467,-3.53168 -3.08984,-3.25781 -1.16211,0.71822 -8.02088,-7.16365 -8.03906,-9.23828 -0.0131,-1.49368 -0.15562,-1.53046 -0.98438,-0.24805 -0.79864,1.23581 -0.97176,1.13896 -0.98437,-0.55469 -0.0212,-2.85055 4.46857,-8.70504 7.75586,-10.11328 2.33596,-1.0007 2.47536,-1.26836 0.96679,-1.86132 -0.96925,-0.38099 -3.08306,-0.5006 -4.69726,-0.26368 -1.61421,0.23691 -2.7081,0.0638 -2.42969,-0.38672 0.27841,-0.45048 1.71722,-0.84949 3.19726,-0.88671 2.66336,-0.067 2.667,-0.0805 0.43165,-1.15821 -1.64285,-0.7921 -2.93773,-0.77881 -4.75,0.0469 -2.46072,1.12118 -2.4919,1.07647 -2.54883,-3.59375 l -0.0566,-4.72852 -1.97266,7 c -1.08464,3.85 -2.24255,9.14767 -2.57227,11.77149 -0.57304,4.56018 -0.43566,4.913 3.10743,8 12.03329,10.48428 14.55984,13.12774 14.05859,14.70703 -0.31443,0.99067 0.52245,2.63464 2.08008,4.08984 1.43237,1.33817 3.21714,3.61024 3.9668,5.05078 0.74965,1.44055 3.3823,4.98448 5.8496,7.875 2.4673,2.89051 5.613202,8.01192 6.992192,11.38086 2.70706,6.61352 3.59036,4.67185 1.09375,-2.40429 -1.76168,-4.99315 -1.33315,-6.18782 0.96289,-2.6836 3.82641,5.83983 2.70624,21.19431 -1.99609,27.35938 -2.0123,2.63826 -2.220842,3.35351 -0.98047,3.35351 1.42817,0 1.42567,0.29404 -0.0332,3.11524 -0.88577,1.7129 -3.430902,5.0879 -5.654302,7.5 -2.26946,2.46208 -3.43731,4.3918 -2.66406,4.40039 1.08782,0.0121 1.06163,0.21877 -0.12305,0.98437 -0.825,0.53316 -3.65304,0.97596 -6.2832,0.98438 -6.19455,0.0198 -10.95185,2.06182 -13.8086,5.92578 -1.25815,1.70175 -2.53946,2.7184 -2.84765,2.25781 -0.52774,-0.78861 -9.06055,-3.29395 -9.06055,-2.66016 0,0.16251 1.42436,1.19805 3.16602,2.30079 l 3.16601,2.00585 -7.91601,1.33204 c -6.55271,1.10236 -7.39916,1.44231 -4.91602,1.97461 1.65,0.3537 5.56137,0.69663 8.69141,0.76171 3.13004,0.0651 5.9357,0.51554 6.23633,1.00196 0.56627,0.91626 -6.75474,3.11523 -10.3711,3.11523 -4.45867,0 -1.70347,1.65598 4.53516,2.72461 3.62607,0.62112 6.85883,1.39399 7.18359,1.71875 1.17885,1.17885 -1.37861,2.36754 -6.04297,2.80859 -2.62244,0.24798 -5.02457,0.70621 -5.33593,1.01758 -0.90365,0.90365 10.36851,2.031 14.1582,1.41602 1.89509,-0.30753 3.44531,-0.13847 3.44531,0.37695 0,0.51542 -1.15629,0.9375 -2.56836,0.9375 -2.2033,0 -2.46817,0.31908 -1.86719,2.25 0.69482,2.23241 0.68481,2.23545 -1.4375,0.33985 -1.17646,-1.05079 -2.31567,-1.72579 -2.53125,-1.5 -1.23362,1.29211 -6.5957,13.5581 -6.5957,15.08789 0,1.00254 -0.68899,1.82226 -1.53125,1.82226 -0.84226,0 -1.79084,0.675 -2.10742,1.5 -1.85664,4.83833 -5.36133,-1.43058 -5.36133,-9.58984 0,-2.63546 -0.40979,-5.04427 -0.91016,-5.35352 -1.44272,-0.89165 -3.96051,0.45933 -4.59765,2.4668 -1.11411,3.51026 -7.99096,9.04534 -13.99219,11.26172 -5.59449,2.06616 -5.78533,2.23627 -2.82226,2.52344 6.70798,0.65009 16.3032,-3.83154 16.33789,-7.63086 0.0132,-1.44848 0.1473,-1.47301 0.98437,-0.17774 0.75203,1.16368 1.00164,0.82737 1.11524,-1.5 0.0805,-1.65 0.48347,-0.36634 0.89453,2.85156 1.34196,10.50531 7.96603,13.22024 14.91211,6.11133 3.31882,-3.39662 3.39659,-3.61124 1.07812,-2.95508 -1.70503,0.48255 -0.93093,-0.42686 2.43555,-2.85742 5.27867,-3.81116 8.29003,-7.52642 5.11133,-6.30664 -7.47507,2.86845 -8.23943,1.3827 -1.48243,-2.88281 4.7689,-3.01047 6.32067,-3.14955 2.93555,-0.26172 -1.74604,1.48954 -1.94732,1.93195 -0.66797,1.4668 1.00749,-0.36631 2.17881,-0.66602 2.60352,-0.66602 0.4247,0 1.9851,-1.125 3.46875,-2.5 1.48365,-1.375 3.23732,-2.49279 3.89648,-2.48437 0.77824,0.01 0.70485,0.32847 -0.21094,0.9082 -1.38176,0.87471 -5.3851,10.11489 -4.68554,10.81445 0.19539,0.19538 1.82962,-1.50844 3.63281,-3.78515 2.39039,-3.01811 2.94107,-4.34636 2.03516,-4.90625 -0.85641,-0.52929 -0.51536,-0.96797 1.09375,-1.40821 1.93814,-0.53026 2.07929,-0.80553 0.83398,-1.62304 -1.28415,-0.84302 -1.24818,-0.98689 0.25,-1 0.9625,-0.008 1.75,0.71508 1.75,1.60742 0,1.3288 0.27149,1.39652 1.5,0.37695 0.825,-0.68469 1.5,-1.86344 1.5,-2.62109 0,-0.75766 0.52435,-1.37891 1.16602,-1.37891 0.64166,0 0.92006,-0.24791 0.61718,-0.55078 -0.30287,-0.30288 -3.55649,0.42111 -7.22851,1.60742 -3.67203,1.1863 -6.94782,1.88421 -7.28125,1.55078 -0.33343,-0.33343 -0.0254,-0.60742 0.68555,-0.60742 1.68119,0 19.15509,-6.93897 20.814452,-8.26562 2.67514,-2.13877 0.26475,-1.66807 -6.117192,1.19531 -3.6468,1.63621 -8.32273,3.21635 -10.39258,3.51172 -3.55313,0.50702 -3.51228,0.46158 0.73633,-0.8086 5.53352,-1.65433 18.302092,-7.66275 17.656252,-8.30859 -0.25911,-0.25911 -1.9306,0.28437 -3.714842,1.20703 -4.36251,2.25594 -13.5302,5.18576 -18.44141,5.89453 -4.88458,0.70492 -4.1114,0.35843 5.5,-2.4707 7.48237,-2.20243 18.447792,-6.84128 17.771492,-7.51758 -0.19622,-0.19622 -3.1914,0.52575 -6.654302,1.60352 -10.40122,3.23723 -9.32882,2.11707 1.88281,-1.9668 5.775012,-2.10356 13.144062,-5.00558 16.375002,-6.44922 7.02929,-3.1408 8.69067,-3.36371 3.125,-0.41992 -2.32727,1.23094 -3.44029,2.30501 -2.66211,2.56836 0.73563,0.24895 1.83735,-0.0483 2.44922,-0.66016 0.61188,-0.61188 1.58461,-1.09756 2.16211,-1.08007 0.5775,0.0175 0.177,0.69249 -0.89062,1.5 -1.06762,0.80751 -1.44738,1.46679 -0.84375,1.46679 0.63221,0 0.86713,0.95391 0.55468,2.25 -0.39906,1.65529 -0.24032,1.96999 0.60157,1.19141 2.28554,-2.1137 5.42069,-13.12244 5.89843,-20.71289 0.26901,-4.27413 0.9455,-8.05333 1.50391,-8.39844 0.63155,-0.39032 0.82472,0.37391 0.50977,2.02148 -0.89458,4.67968 0.91208,2.83408 3.74023,-3.82031 1.5121,-3.55782 3.70099,-7.25756 4.86328,-8.22265 1.16229,-0.96509 1.55078,-1.11494 0.86328,-0.33204 -2.14335,2.4408 -1.37707,3.13964 1.69922,1.54883 3.95915,-2.04736 5.08708,-1.89301 2.23047,0.30469 l -2.32031,1.78516 3.39648,-0.39649 c 2.78301,-0.3249 3.70299,0.0691 5.08594,2.17969 1.37902,2.10466 8.22149,6.60156 10.04492,6.60156 0.25658,0 0.67231,-0.7875 0.92383,-1.75 0.35783,-1.36928 0.4815,-1.27884 0.57227,0.41211 0.13213,2.46169 -5.05819,7.33789 -7.81055,7.33789 -3.67683,0 -7.64665,2.14033 -9.76758,5.26563 -4.3075,6.34735 -3.65886,7.2997 1.55078,2.27343 2.8289,-2.72932 5.14453,-4.64729 5.14453,-4.26171 0,0.38557 -2.3625,2.95057 -5.25,5.70117 -6.08179,5.79344 -5.32489,6.6549 1.25,1.42187 l 4.5,-3.58203 0.54297,2.8418 c 0.54041,2.8249 0.5606,2.81099 3.50781,-2.16016 1.63037,-2.75 3.63637,-5.13836 4.45704,-5.30859 0.82067,-0.17024 3.00306,-1.80202 4.84961,-3.625 4.30987,-4.25487 3.63975,-6.75807 -2.68165,-10.02149 -5.61751,-2.90004 -11.5542,-8.40401 -15.80078,-14.65039 -3.71053,-5.4579 -6.37881,-6.4655 -9.86328,-3.72461 -1.38154,1.08672 -2.51172,1.5398 -2.51172,1.00782 0,-2.59387 4.19425,-14.09293 5.55078,-15.21875 1.14931,-0.95384 1.23782,-1.47209 0.34571,-2.02344 -0.77018,-0.476 0.30126,-1.50601 3,-2.88281 2.31,-1.17847 4.45271,-2.79751 4.75976,-3.59766 0.30705,-0.80015 1.18501,-1.45508 1.95118,-1.45508 0.76615,0 1.39257,-0.42903 1.39257,-0.95312 0,-0.55104 -2.0342,-0.71106 -4.82226,-0.38086 -5.56614,0.65923 -10.18424,-1.21872 -12.79492,-5.20313 -1.28174,-1.95618 -1.93358,-2.25057 -3.00977,-1.35742 -0.8224,0.68253 -1.37305,0.73938 -1.37305,0.14063 0,-0.55 0.64747,-1.53803 1.43946,-2.19532 0.79198,-0.65728 1.63016,-2.17548 1.86328,-3.37304 0.27261,-1.4004 0.48375,-0.9288 0.59179,1.32226 0.20192,4.20706 1.55261,6.15054 5.80469,8.34766 4.11424,2.12591 7.13855,2.09436 9.64453,-0.0977 1.10035,-0.9625 1.67153,-1.1875 1.26953,-0.5 -0.50801,0.86879 0.0731,1.25 1.90625,1.25 1.7564,0 3.97798,-1.35345 6.65235,-4.05469 4.79106,-4.83918 4.71891,-8.39023 -0.20703,-10.10742 -1.63064,-0.56847 -2.96485,-1.45515 -2.96485,-1.9707 0,-0.56742 0.69066,-0.58343 1.75,-0.041 0.9625,0.49284 3.55,1.16385 5.75,1.49024 3.66444,0.54365 3.83689,0.471 2.0586,-0.86133 -1.06762,-0.79988 -2.30512,-1.45508 -2.75,-1.45508 -2.00857,0 -0.52922,-2.03267 1.9414,-2.66797 l 2.75,-0.70703 -2.5,-0.71289 c -1.96885,-0.56091 -1.54393,-0.73042 2,-0.79687 6.91436,-0.12963 8.28735,1.52009 1.98633,2.38671 l -5.27148,0.72461 3.14258,2.45899 c 1.72818,1.3525 3.14257,3.10158 3.14257,3.88672 0,1.7955 -0.96845,1.76692 -3.4414,-0.10352 -2.69328,-2.0371 -3.82459,-1.83305 -2.59375,0.4668 1.28649,2.40383 1.36756,7.38818 0.10742,6.60937 -0.51041,-0.31545 -1.21807,0.33911 -1.57227,1.45508 -0.3542,1.11597 -1.06579,1.76902 -1.58007,1.45117 -0.51429,-0.31785 -1.20251,0.12377 -1.53126,0.98047 -0.32874,0.85671 -1.00178,1.30821 -1.49414,1.00391 -0.49237,-0.3043 -0.89453,-0.0995 -0.89453,0.45508 0,0.55467 -2.8125,3.01645 -6.25,5.4707 -6.99393,4.99343 -10.20166,8.83141 -12.26367,14.67578 l -1.39844,3.96289 2.82227,0 c 3.6107,0 7.39713,2.99665 10.28711,8.13867 2.26611,4.032 6.05668,6.79708 9.50195,6.93164 1.58433,0.0619 1.56148,0.16561 -0.19922,0.85743 -1.82731,0.71799 -1.69779,0.97044 1.5,2.92578 1.925,1.17707 3.9915,2.14053 4.59375,2.14258 1.90298,0.006 4.40625,3.55982 4.40625,6.25585 0,3.00474 -3.59212,7.65693 -7.54687,9.77344 -1.50752,0.80681 -4.74515,4.39354 -7.19336,7.97071 -4.37981,6.39953 -4.44086,6.44369 -3.81055,2.7539 0.78461,-4.59303 0.1407,-4.66422 -6.79492,-0.75 -2.92363,1.65 -5.62466,3 -6.00195,3 -0.3773,0 0.44324,-2.22986 1.82422,-4.95508 l 2.51171,-4.95507 -2.49414,-2.68946 c -1.3717,-1.4801 -2.49414,-3.52524 -2.49414,-4.54492 0,-2.22528 1.55385,-2.45972 2.36133,-0.35547 0.6391,1.66547 6.62321,2.09231 8.1875,0.58399 0.5225,-0.50381 2.56471,-1.16487 4.53711,-1.46875 7.74373,-1.19305 8.85449,-2.77742 3.51172,-5.00977 -1.87115,-0.78182 -4.38795,-2.75579 -5.59375,-4.38672 -1.91632,-2.59196 -2.59137,-2.87094 -5.34961,-2.2207 -7.12806,1.6804 -8.31276,2.85099 -11.52344,11.36914 -1.68629,4.47386 -3.56667,10.15781 -4.17773,12.63281 -0.61106,2.475 -2.71351,7.425 -4.67188,11 -3.47059,6.33555 -6.62081,15.64437 -5.76367,17.03125 0.23487,0.38003 2.57763,-0.36829 5.20508,-1.66211 3.18374,-1.56776 7.94607,-2.68343 14.27734,-3.34375 14.11725,-1.47236 16.69464,-1.16654 8.19922,0.97266 -11.51562,2.89972 -16.09302,5.63956 -20.83203,12.46289 -4.56423,6.57168 -6.92389,8.11911 -10.86914,7.12891 -3.63076,-0.91126 -6.03153,-6.6224 -4.55859,-10.84766 0.58268,-1.6715 1.04408,-4.21021 1.02343,-5.64063 -0.0367,-2.54231 -0.11623,-2.51163 -3.5332,1.39844 -1.92256,2.2 -4.252362,5.2375 -5.177732,6.75 -2.61451,4.27334 -3.54125,3.23739 -1.20313,-1.3457 3.440722,-6.74435 1.39284,-5.61253 -3.41406,1.88672 -4.06068,6.33508 -6.63477,9.33338 -6.63477,7.72851 0,-0.32973 0.9515,-1.8869 2.11524,-3.46093 4.27588,-5.78344 1.17218,-5.0281 -3.55469,0.86523 -2.68584,3.34862 -5.06613,5.90458 -5.29102,5.67969 -0.22489,-0.2249 0.5321,-2.25257 1.68164,-4.50586 2.45149,-4.80533 1.40668,-5.21623 -3.16601,-1.24414 -1.80664,1.56934 -4.31398,3.39459 -5.57032,4.05469 -1.9206,1.00909 -1.72161,0.46138 1.25,-3.43165 1.94384,-2.54656 3.53516,-5.0577 3.53516,-5.58203 0,-1.58105 -5.74166,3.16923 -10.1543,8.40235 -3.96456,4.70174 -9.22255,8.72238 -11.3457,8.67383 -0.55,-0.0126 -2.22294,-0.7806 -3.7168,-1.70704 -1.49385,-0.92644 -3.2583,-3.05318 -3.92187,-4.72461 -0.66357,-1.67142 -1.28638,-3.1572 -1.38281,-3.30273 -0.0964,-0.14553 -2.27688,0.90996 -4.84571,2.3457 -6.23449,3.48452 -12.96854,3.46778 -20.16015,-0.0508 -4.68387,-2.2916 -7.33029,-5.00565 -6.08985,-6.24609 0.23638,-0.23638 2.15937,0.0497 4.27344,0.63672 2.11407,0.58702 6.75937,1.0692 10.32227,1.07226 l 6.47656,0.006 5.62305,-6 c 3.09181,-3.3 6.30799,-6 7.14843,-6 2.7497,0 4.03873,2.72757 3.42188,7.24219 -0.34528,2.52704 -0.0672,5.45244 0.68359,7.19531 l 1.26367,2.9375 2.02344,-2.9375 c 1.89843,-2.75738 5.38086,-11.04135 5.38086,-12.80078 0,-0.43781 -1.35,-0.49912 -3,-0.13672 -3.46642,0.76135 -4.08879,-0.84597 -0.97266,-2.51367 2.54782,-1.36355 1.65046,-2.98633 -1.65234,-2.98633 -1.3787,0 -3.43802,-0.4983 -4.57617,-1.10742 -1.65978,-0.88829 -1.79455,-1.28079 -0.68359,-1.98437 0.91578,-0.57999 -0.13998,-0.88796 -3.11524,-0.90821 -3.27775,-0.0223 -4.09258,-0.29392 -3,-1 0.825,-0.53316 2.9625,-0.97595 4.75,-0.98437 1.7875,-0.008 3.25,-0.40938 3.25,-0.89063 0,-1.01144 -4.86845,-2.125 -9.29101,-2.125 -5.29859,0 -1.87469,-1.40399 3.94335,-1.61719 5.91403,-0.21672 10.23557,-2.37228 4.79688,-2.39257 -4.48131,-0.0167 -10.44922,-1.15814 -10.44922,-1.99805 0,-0.4108 3.7125,-1.31145 8.25,-2.00195 4.5375,-0.69049 8.52367,-1.40822 8.85742,-1.59375 0.33375,-0.18554 -1.38784,-2.4182 -3.82422,-4.96094 -2.43638,-2.54275 -4.22428,-4.82845 -3.97265,-5.08008 0.25162,-0.25162 2.62334,0.91559 5.26953,2.59375 5.95502,3.77656 11.0533,4.03346 15.09375,0.76172 3.81787,-3.09151 7.77054,-4.70394 11.62305,-4.74219 3.10477,-0.0308 3.14182,-0.0811 1.20312,-1.63476 -2.06007,-1.65086 -1.77531,-1.61995 3.25,0.35351 1.54238,0.6057 1.58472,0.48492 0.35742,-1.02344 -0.76587,-0.94126 -1.10337,-2.00014 -0.75,-2.35351 0.35338,-0.35338 0.64258,-0.11822 0.64258,0.52344 0,2.29126 2.80603,1.1082 5.38086,-2.26758 1.44028,-1.8883 2.61914,-3.67666 2.61914,-3.97461 0,-0.29795 -1.4625,-0.27016 -3.25,0.0606 l -3.25,0.60156 3.74609,-2.87696 c 5.775762,-4.43547 8.753912,-9.48654 8.753912,-14.84374 0,-6.29101 -3.903932,-15.34678 -10.294922,-23.88282 -2.9444,-3.93266 -5.99496,-8.0963 -6.7793,-9.2539 -5.73631,-8.46613 -13.48339,-17.63214 -16.0039,-18.93555 -3.54744,-1.83445 -6.91494,-6.93039 -6.91407,-10.46094 3.4e-4,-1.375 1.06422,-5.54028 2.36524,-9.25586 1.94998,-5.56898 2.21409,-7.5747 1.49609,-11.41797 -0.47904,-2.56421 -1.07143,-4.86244 -1.3164,-5.10742 -0.24498,-0.24498 -7.88624,0.33565 -16.97852,1.28906 -19.27238,2.02088 -34.0345,1.73138 -37.80664,-0.74023 -1.3873,-0.90899 -2.827,-2.86464 -3.19922,-4.347653 -0.8667,-3.45318 2.51588,-7.180156 9.47461,-10.439449 4.38136,-2.052117 4.95703,-2.682319 4.95703,-5.427735 0,-4.67647 3.82327,-9.609093 9,-11.611328 1.60109,-0.619261 3.16442,-2.581207 4.34961,-5.457031 1.01783,-2.469736 3.78703,-6.644595 6.15234,-9.275391 4.05613,-4.511385 4.26988,-5.048704 3.77344,-9.453125 -0.4522,-4.011927 -0.15572,-5.108754 2.09961,-7.789062 1.95477,-2.323113 2.625,-4.233328 2.625,-7.478516 0,-2.396996 0.50047,-5.623571 1.11328,-7.171875 0.61282,-1.548305 1.07615,-4.295072 1.0293,-6.103516 -0.13708,-5.290574 6.92421,-13.9773686 10.76953,-14.0019526 z m -1.48242,0.789063 c -0.21072,0 -2.19346,2.290455 -4.40625,5.0898436 -4.13795,5.234893 -5.20406,8.301792 -2.5293,7.27539 0.82184,-0.31537 1.24571,-0.976381 0.94141,-1.46875 -0.3043,-0.492368 -0.0857,-0.896484 0.48633,-0.896484 0.57198,0 1.31332,-1.092531 1.64843,-2.427734 0.33512,-1.335204 1.18182,-2.645815 1.88086,-2.914063 1.13409,-0.435191 2.92775,-4.6582026 1.97852,-4.6582026 z m 34.90234,32.3203116 c 1.25077,-0.0182 2.41129,0.461937 3.683602,1.492188 2.07906,1.683519 2.39538,2.716013 2.20117,7.179687 -0.27942,6.421708 -0.62531,7.007813 -4.136722,7.007813 -1.84568,0 -4.11019,-1.234585 -6.64063,-3.621094 -2.11218,-1.992043 -5.12572,-4.070024 -6.69531,-4.617187 -2.11478,-0.737217 -2.77429,-1.546119 -2.54883,-3.126953 0.24849,-1.742241 1.22118,-2.257284 5.30469,-2.804688 2.75,-0.368643 6.14382,-0.964867 7.54297,-1.326172 0.44428,-0.114727 0.87214,-0.177527 1.28906,-0.183594 z m -1.71679,1.998047 c -1.91374,0.09812 -3.61524,0.911885 -3.61524,2.128907 0,4.43188 8.19812,6.172987 8.810552,1.871093 0.20223,-1.420473 -0.441832,-2.585656 -1.843752,-3.335937 -0.97959,-0.524249 -2.20332,-0.722937 -3.35156,-0.664063 z m -7.49805,0.800781 c -0.23207,0.0076 -0.48455,0.02975 -0.76172,0.0625 -4.0073,0.473487 -3.95572,2.466309 0.0996,3.804688 1.9577,0.6461 4.01852,2.03054 4.57812,3.076172 0.55961,1.045633 2.24352,2.565606 3.74219,3.378906 3.2432,1.760016 3.33792,1.773319 5.101572,0.65625 1.7721,-1.122433 0.56856,-3.097656 -1.888682,-3.097656 -3.47003,0 -6.87677,-2.242671 -7.91015,-5.207031 -0.73407,-2.10573 -1.33648,-2.726937 -2.96094,-2.673829 z m -27.52344,8.871094 c -1.39492,-0.05577 -2.74231,0.517208 -3.90039,1.796875 -7.15098,7.901738 -5.60692,22.802913 2.9668,28.628907 4.46721,3.035548 10.71029,3.464943 13.51172,0.929687 2.69629,-2.440112 2.25635,-5.07682 -1.83789,-11.021484 -2.01652,-2.927898 -3.3437,-5.648496 -2.94727,-6.044922 0.39643,-0.396425 1.14067,-0.05908 1.65234,0.75 1.61535,2.554228 1.07646,-0.641754 -1.07812,-6.400391 -2.00264,-5.352541 -5.29836,-8.515977 -8.36719,-8.638672 z m -5.38867,0.169922 c -0.39373,-0.01107 -1.26738,0.366298 -2.6582,1 -1.53538,0.699564 -2.55327,1.990448 -2.5625,3.25 -0.0112,1.532143 -0.24101,1.733716 -0.86329,0.751953 -2.23808,-3.530999 -13.12109,11.635095 -13.12109,18.285157 0,2.292794 -0.2105,2.439122 -1.93945,1.359374 -2.78249,-1.737691 -6.43491,0.477588 -8.56055,5.191407 -1.84738,4.096762 -1.1222,6.95819 2.26172,8.929687 2.02358,1.178954 12.82527,1.289091 15.71484,0.160156 1.92103,-0.750532 1.91387,-0.806779 -0.25,-1.964843 -3.73717,-2.000076 -2.47747,-3.258044 1.52344,-1.521485 3.55404,1.542599 13.97203,2.103527 18.75,1.009766 1.1,-0.251809 2.675,-0.52236 3.5,-0.601562 0.825,-0.0792 -0.65097,-0.722815 -3.2793,-1.429688 -2.62832,-0.706873 -5.86663,-2.308528 -7.19726,-3.558594 -6.81367,-6.40111 -8.32634,-19.187811 -3.1875,-26.953125 1.84697,-2.790963 2.52536,-3.889751 1.86914,-3.908203 z m 3.64258,7.429688 c 0.75475,-0.03048 1.56653,0.226685 2.02929,0.689453 1.83772,1.837717 1.27501,2.83197 -0.85156,1.503906 -2.44491,-1.52687 -3.56331,-0.490322 -4.54687,4.216797 l -0.73047,3.5 2.0332,-2.496094 2.03516,-2.496094 -0.53125,2.78125 c -0.35425,1.853135 0.0611,3.436711 1.24609,4.746094 0.97805,1.080728 1.28374,1.964844 0.67969,1.964844 -0.60406,0 -1.79811,-1.000278 -2.6543,-2.222656 -2.09889,-2.996588 -1.98384,-1.307841 0.1582,2.318359 2.15686,3.651269 6.2487,4.072497 6.35547,0.654297 0.0667,-2.135461 0.11186,-2.148188 0.87696,-0.25 1.77743,4.409786 -3.38185,6.067188 -7.00391,2.25 -5.42614,-5.718452 -5.3254,-15.131049 0.18359,-17.03125 0.22387,-0.07722 0.46912,-0.118748 0.72071,-0.128906 z m 1.61718,5.685546 c 0.11255,-0.02714 0.45394,0.389058 1.04883,1.166016 0.81745,1.067621 1.48633,2.530121 1.48633,3.25 0,2.229952 -0.75672,1.45208 -1.88867,-1.941406 -0.55789,-1.672519 -0.79119,-2.439708 -0.64649,-2.47461 z m -13.24609,1.22461 0.86719,4.414062 c 1.06343,5.418581 4.99832,11.560209 8.94922,13.962891 1.62601,0.988838 2.65961,2.096245 2.29492,2.460937 -1.31431,1.314313 -8.91595,0.578734 -12.94727,-1.251953 -3.86897,-1.756965 -7.38281,-5.323908 -7.38281,-7.496093 0,-0.53133 0.91335,0.0131 2.0293,1.210937 1.11595,1.197833 3.47845,2.915553 5.25,3.816406 l 3.2207,1.638672 -2.27344,-2.46875 c -2.79447,-3.031932 -4.19995,-7.616089 -3.15234,-10.287109 0.71526,-1.823657 0.79138,-1.836244 0.85547,-0.150391 0.0969,2.548373 3.08785,8.650391 4.24023,8.650391 0.51852,0 0.24291,-1.000278 -0.61328,-2.222656 -0.95713,-1.366493 -1.51463,-4.158879 -1.44726,-7.25 l 0.10937,-5.027344 z m 50.75781,1.734375 7.023442,0.04492 0,2.90625 c 0,2.242788 -0.72674,3.297126 -3.17968,4.611328 -1.748762,0.93692 -5.061082,3.390625 -7.361332,5.453125 -4.28623,3.843197 -8.33939,4.834652 -10.22071,2.5 -1.10006,-1.365138 -0.0701,-5.118476 1.70703,-6.216797 0.59752,-0.369284 0.8348,-1.081401 0.52539,-1.582031 -0.3094,-0.500629 -0.0953,-1.783083 0.47657,-2.851563 2.26083,-4.224413 3.8137,-4.910405 11.02929,-4.865234 z m 5.158212,0.890625 c -0.51351,0.07089 -1.33176,0.379599 -2.63477,0.875 -1.787312,0.679536 -3.263462,0.662489 -4.603512,-0.05469 -2.61172,-1.397749 -5.3592,-0.429531 -6.59375,2.324219 -2.22734,4.968206 2.00638,6.513141 6.24218,2.277344 1.35,-1.349999 2.45508,-2.064317 2.45508,-1.585938 0,2.1717 -6.17547,6.539063 -9.24609,6.539063 -2.25862,0 -3.31162,0.518559 -3.55469,1.75 -0.51715,2.619992 4.04338,2.252994 7.47461,-0.601563 1.5547,-1.293407 4.73867,-3.548225 7.07617,-5.011718 2.681842,-1.679073 4.250002,-3.394317 4.250002,-4.648438 0,-1.438208 -0.009,-1.981436 -0.86523,-1.863281 z m 12.46875,7.441406 c -0.46111,0.02036 -1.35701,0.701392 -2.85352,2.117188 -4.35764,4.122625 -14.469292,10.862768 -19.869142,13.246093 -17.07369,7.535801 -63.29486,13.642297 -79.38086,10.486327 l -3,-0.58985 2.5,1.83789 c 2.35569,1.73081 13.4012,3.34951 18.5,2.71094 1.1,-0.13776 4.925,-0.4995 8.5,-0.80273 16.48836,-1.39855 20.05895,-1.85569 28.2832,-3.61719 19.81502,-4.244046 47.716802,-18.703291 47.716802,-24.728512 0,-0.447085 -0.11982,-0.672371 -0.39648,-0.660156 z m -37.103522,1.464844 c 0.55,0 1.675,0.435594 2.5,0.96875 0.825,0.533156 1.05,0.970703 0.5,0.970703 -0.55,0 -1.675,-0.437547 -2.5,-0.970703 -0.825,-0.533156 -1.05,-0.96875 -0.5,-0.96875 z m -47.41992,3.46875 1.49219,2.75 c 0.82054,1.5125 1.7513,2.75 2.06836,2.75 0.31705,0 0.27326,-1.2375 -0.0957,-2.75 -0.66185,-2.713111 -0.6297,-2.703051 2.35157,0.75 4.4129,5.111243 4.41709,5.10447 -2.69532,5.511719 -2.7095,0.155143 -4.83586,-0.288991 -5.75,-1.203125 -1.65932,-1.659318 -1.93978,-5.888581 -0.45117,-6.808594 0.56716,-0.350523 1,0.490039 1,1.941406 0,1.407459 0.45,2.558594 1,2.558594 0.55,0 1.01704,-1.2375 1.03906,-2.75 l 0.041,-2.75 z m 53.11133,8.61914 -3.69141,0.117188 3,0.763672 c 4.40682,1.121345 5.69303,1.121345 5,0 -0.33992,-0.55 -2.27855,-0.945932 -4.30859,-0.88086 z m -13.69141,0.935547 5.5,1.361329 c 7.04766,1.743087 7.75407,1.790924 8.5,0.583984 0.34698,-0.561418 -0.44246,-1 -1.80078,-1 -1.3307,0 -4.62128,-0.212767 -7.31055,-0.472656 l -4.88867,-0.472657 z m -4.92773,2.207032 c -2.6016,-0.0076 -1.21536,0.800865 4.08007,1.689453 6.79529,1.140266 7.16614,1.152026 7.74415,0.216797 0.28326,-0.458334 -0.0281,-0.843521 -0.69141,-0.855469 -0.66331,-0.01195 -3.9026,-0.346967 -7.19922,-0.744141 -1.75621,-0.211586 -3.06639,-0.304114 -3.93359,-0.30664 z m -6.07227,1.980468 -4,0.04297 4,0.714842 c 2.2,0.39391 5.125,0.73654 6.5,0.75977 l 2.5,0.04101 -2.5,-0.80078 c -1.375,-0.44035 -4.3,-0.781035 -6.5,-0.757811 z m -28,1.957031 c -1.58367,0 -1.47958,0.16681 0.5,0.80078 1.375,0.44035 3.4,0.80078 4.5,0.80078 1.58367,0 1.47958,-0.16681 -0.5,-0.80078 -1.375,-0.44035 -3.4,-0.80078 -4.5,-0.80078 z m 21.5,0.93164 c -0.45312,0 -0.90625,0.06833 -1.25,0.20703 -0.6875,0.27742 -0.125,0.50391 1.25,0.50391 1.375,0 1.9375,-0.22649 1.25,-0.50391 -0.34375,-0.1387 -0.79687,-0.20703 -1.25,-0.20703 z m -32.94531,0.18164 c -0.43634,-0.01375 -0.70397,0.0048 -0.75781,0.0586 -0.36105,0.36104 9.92521,3.324406 12.20312,3.515616 0.55,0.0462 1.56981,-0.27902 2.26563,-0.720696 0.76284,-0.48423 -1.78084,-1.27505 -6.40625,-1.99414 -3.16423,-0.49193 -5.99566,-0.81812 -7.30469,-0.85938 z m 102.947272,0.30274 c 6.38467,0.1115 9.33101,2.11257 13.05273,8.490226 2.47859,4.24741 2.74945,4.40504 7.99414,4.70508 7.03838,0.40265 9.1396,2.23887 8.7461,7.63672 -0.27393,3.75749 -0.11218,4.04527 2.20507,3.95508 1.375,-0.0535 3.4,-0.4185 4.5,-0.8125 1.1,-0.39399 0.71716,0.0256 -0.84961,0.93164 -1.92643,1.11399 -3.70703,1.40524 -5.5,0.90039 -1.45823,-0.41059 -3.32539,-0.6555 -4.15039,-0.54297 -1.32145,0.18024 -1.32457,0.0856 -0.0176,-0.79102 2.29492,-1.53927 -5.27722,-4.39691 -9.33594,-3.52344 -4.21226,0.90653 -7.99095,2.90747 -9.67188,5.1211 -1.18002,1.55397 -1.17608,1.63412 0.0234,0.56445 0.77097,-0.6875 2.54867,-1.20976 3.95117,-1.16015 2.28318,0.0807 2.20595,0.18988 -0.74609,1.04101 -1.81337,0.52282 -3.56496,1.64545 -3.89063,2.49414 -0.47913,1.24859 -0.75308,1.28829 -1.4375,0.20899 -0.64154,-1.01169 -1.67161,-0.4405 -4.26367,2.36523 -1.87961,2.03455 -3.12252,3.87313 -2.76367,4.08594 0.35885,0.2128 0.16042,0.2785 -0.43945,0.14453 -1.78026,-0.39759 -3.05766,0.89562 -3.77344,3.82031 -0.78749,3.21772 -0.90427,3.17836 3.71094,1.25 5.34897,-2.23494 5.79399,-1.73559 0.70507,0.79102 -5.06805,2.51625 -6.39888,4.69871 -2.88476,4.73047 1.28333,0.0116 -0.81602,1.13522 -4.66602,2.49609 -9.2424,3.26694 -9.66227,3.51954 -5.25,3.17578 2.0625,-0.16069 3.75,-0.20872 3.75,-0.10742 0,0.1013 -1.125,0.92133 -2.5,1.82227 -1.56801,1.02741 -2.5,1.21537 -2.5,0.5039 0,-0.75479 -1.1711,-0.91346 -3.5,-0.47656 -1.925,0.36113 -3.500002,0.38758 -3.500002,0.0606 0,-0.32703 3.375002,-2.1973 7.500002,-4.15625 4.125,-1.95896 7.5,-3.78386 7.5,-4.05664 0,-0.27279 -0.7875,-0.19651 -1.75,0.16992 -1.40315,0.53418 -1.50225,0.41591 -0.5,-0.59375 2.19136,-2.20757 1.37129,-2.85938 -3.5957,-2.85938 -5.53075,0 -8.52973,-2.31552 -7.98437,-6.16601 0.28758,-2.03039 0.80418,-2.29306 3.99609,-2.01563 4.06411,0.35324 9.25368,-1.86362 10.21289,-4.36328 2.23444,-5.82286 -1.18389,-10.84376 -7.06445,-10.37695 -8.993722,0.71393 -13.314462,-1.53941 -13.314462,-6.94336 0,-3.45402 3.29082,-7.90358 6.880862,-9.30469 4.1977,-1.638266 13.12216,-3.087076 19.79688,-3.212886 0.45745,-0.0086 0.89857,-0.0094 1.32422,-0.002 z m -2.14844,1.05859 c -3.71564,-0.15146 -6.95827,1.30032 -10.63867,4.484376 -1.80663,1.56298 -4.28163,2.80709 -5.5,2.76367 -2.01745,-0.0719 -1.97696,-0.16608 0.44922,-1.05469 3.44048,-1.26012 4.86345,-4.290726 1.58007,-3.36524 -6.792342,1.91457 -9.744142,4.55499 -9.744142,8.7168 0,5.08253 10.066892,6.40092 18.250002,2.39063 5.22102,-2.55867 6.5296,-1.7726 1.75,1.05078 -3.86357,2.28227 -3.83028,3.51439 0.0762,2.82617 1.97091,-0.34722 2.84835,-0.17211 2.44141,0.48633 -0.34932,0.56522 -1.33934,1.02734 -2.19922,1.02734 -1.10767,0 -1.27757,0.36439 -0.58203,1.25 1.64251,2.09134 2.17915,7.15586 0.93555,8.82617 -1.68002,2.2565 -5.8334,4.79743 -8.70508,5.32422 -1.35649,0.24884 -2.60543,0.48452 -2.77539,0.52539 -0.16996,0.0409 -0.0313,0.52422 0.30859,1.07422 0.91292,1.47713 4.23896,1.21855 8.14453,-0.63476 1.89608,-0.89975 6.82114,-4.69914 10.94336,-8.44336 10.79817,-9.808 21.43025,-13.50817 24.92383,-8.67188 l 1.625,2.25 -0.31836,-2.49023 c -0.20522,-1.6042 -1.38293,-2.99962 -3.30859,-3.91992 -5.49086,-2.62416 -18.06803,2.08516 -26.21875,9.8164 -3.71668,3.5254 -3.90357,2.32471 -0.23828,-1.53125 2.57185,-2.70563 2.87642,-3.33099 1.19726,-2.46484 -4.26437,2.19969 -2.23257,-0.41539 2.50391,-3.22266 3.90354,-2.31359 4.25797,-2.73757 1.99609,-2.38867 -3.33487,0.51442 -3.5316,-0.60673 -0.5,-2.84961 l 2.25,-1.66406 -2.75,0.62695 c -3.08081,0.7024 -3.70599,-0.75593 -1,-2.33203 1.40443,-0.81801 0.97148,-1.02443 -2.1914,-1.04883 -3.69082,-0.0285 -3.81784,-0.12548 -2,-1.51367 1.80476,-1.3782 1.69551,-1.44101 -1.5586,-0.91211 -1.925,0.31289 -4.0625,0.74102 -4.75,0.95117 -2.76634,0.84557 -1.02853,-0.73734 1.94922,-1.77539 2.81911,-0.98275 2.96751,-1.20493 1.25,-1.87695 -1.40243,-0.548746 -0.78074,-0.783406 2.21875,-0.833986 4.61636,-0.07784 7.33203,0.676886 7.33203,2.037106 0,0.49115 -0.74934,0.89258 -1.66601,0.89258 -2.33087,0 -1.20721,0.87624 1.72656,1.34571 1.58614,0.25382 2.33712,0.95485 2.14844,2.00585 -0.197,1.09734 0.20435,1.42665 1.25,1.02539 2.08268,-0.79919 1.95287,0.59135 -0.20899,2.23243 -1.55697,1.18192 -1.34405,1.33107 1.92969,1.35937 l 3.67969,0.0312 -2.43164,-4.34765 c -1.63442,-2.9243 -3.65842,-4.89084 -6.17969,-6.00196 -2.76572,-1.218846 -5.16515,-1.885676 -7.39453,-1.976556 z M 75.644898,113.41303 c -0.58245,0 -1.05859,0.45 -1.05859,1 0,0.55 0.19887,1 0.44141,1 0.24254,0 0.71867,-0.45 1.05859,-1 0.33992,-0.55 0.14105,-1 -0.44141,-1 z m 74.279302,10.41406 c 0.28809,-0.0764 0.98978,0.18874 2.29297,0.74415 3.61156,1.53919 5.64868,3.30227 2.8418,2.45898 -1.83547,-0.55145 -1.98939,-0.23625 -1.64649,3.35937 l 0.37891,3.96875 2.84766,-1.47265 c 1.56635,-0.80999 3.43167,-1.43549 4.14648,-1.39063 0.71481,0.0449 -0.18344,0.72951 -1.99609,1.52149 -1.81264,0.79197 -3.08718,1.77586 -2.83399,2.18554 0.2532,0.40968 -0.57795,1.23376 -1.8457,1.83204 -2.23894,1.05661 -2.31825,0.92795 -2.77539,-4.51563 -0.25884,-3.08229 -0.81123,-6.40797 -1.22852,-7.38867 -0.34454,-0.80975 -0.46972,-1.2263 -0.18164,-1.30274 z m -6.31836,0.63477 c 0.99999,0.0273 2.00089,0.5648 2.39649,1.5957 0.34679,0.90372 0.39536,1.87808 0.10742,2.16602 -0.28795,0.28795 -0.52344,-0.0506 -0.52344,-0.75195 0,-0.85707 -0.81208,-1.07157 -2.47461,-0.6543 -1.93951,0.48678 -2.34766,0.2953 -1.89257,-0.89063 0.38738,-1.00949 1.38673,-1.49218 2.38671,-1.46484 z m -10.04492,0.95117 c 1.11361,0 2.02539,0.45 2.02539,1 0,0.55 -0.66132,1 -1.46875,1 -0.80744,0 -2.13843,1.2375 -2.95898,2.75 -0.82054,1.5125 -1.51118,2.2181 -1.5332,1.56641 -0.0984,-2.91266 2.02212,-6.31641 3.93554,-6.31641 z m 11.04883,5.5 c 1.97589,0 2.54176,0.57392 2.80078,2.83594 0.50033,4.36927 -0.41616,5.95238 -2.72851,4.71484 -1.41358,-0.75652 -2.05915,-0.70069 -2.39844,0.20703 -0.30329,0.81138 -0.73049,0.59469 -1.23242,-0.625 -1.28196,-3.11519 0.72207,-7.13281 3.55859,-7.13281 z m -10.51562,0.56641 c 1.36167,-0.14397 2.72785,0.50666 3.45703,1.86914 1.62419,3.03483 1.22687,5.75337 -1.21485,8.3125 -1.2375,1.297 -2.13986,2.14903 -2.00586,1.89453 0.134,-0.25449 -0.6535,-1.09136 -1.75,-1.85937 -2.25833,-1.5818 -2.74468,-7.13228 -0.79492,-9.08204 0.6757,-0.67569 1.49159,-1.04838 2.3086,-1.13476 z m 10.59375,0.0684 c -0.49492,-0.0172 -1.00321,0.40331 -1.66993,1.30664 -0.78797,1.06762 -1.42443,2.41762 -1.41601,3 0.008,0.58238 0.45121,0.38359 0.98437,-0.44141 0.86167,-1.33333 0.97278,-1.33333 1,0 0.0272,1.33333 0.13833,1.33333 1,0 0.77608,-1.2009 1.00255,-1.0015 1.13477,1 0.15141,2.29209 0.20103,2.2619 0.59375,-0.37109 0.23559,-1.5795 -0.0887,-3.3795 -0.71875,-4 -0.31984,-0.31501 -0.61126,-0.48381 -0.9082,-0.49414 z m -10.14258,0.86523 c -2.16233,0 -3.3846,3.17224 -2.53125,6.57227 0.73632,2.93375 3.10574,3.16754 4.56054,0.44922 1.47128,-2.74912 0.23693,-7.02149 -2.02929,-7.02149 z m -31.41406,0.19727 c -0.0637,0.0139 -0.11831,0.0441 -0.16407,0.0898 -1.20827,1.20826 2.77025,4.73791 6.36914,5.65039 0.1375,0.0349 0.25,-0.3875 0.25,-0.9375 0,-0.55 -0.64954,-1 -1.44336,-1 -0.79381,0 -2.13302,-0.98513 -2.97656,-2.18945 -0.73809,-1.05377 -1.58899,-1.71075 -2.03515,-1.61328 z m 17.57812,2.25976 c 0.47191,-0.0703 0.6319,0.12955 0.36914,0.55469 -0.58726,0.95021 -2.49219,1.40561 -2.49219,0.5957 0,-0.21616 0.69721,-0.66073 1.55078,-0.98828 0.22248,-0.0854 0.41497,-0.13866 0.57227,-0.16211 z m 13.37695,0.87696 c 0.825,0 1.5,0.82564 1.5,1.83398 0,1.00833 -0.675,1.83203 -1.5,1.83203 -0.825,0 -1.5,-0.8237 -1.5,-1.83203 0,-1.00834 0.675,-1.83398 1.5,-1.83398 z m -22.4414,0.66601 c -0.58246,0 -1.0586,0.45 -1.0586,1 0,0.55 0.19887,1 0.44141,1 0.24254,0 0.71867,-0.45 1.05859,-1 0.33992,-0.55 0.14106,-1 -0.4414,-1 z m 9.27343,3.47461 c 0.37318,0.0412 0.2065,0.37656 -0.39843,1.10547 -1.32028,1.59084 -2.9336,1.88593 -2.9336,0.53711 0,-0.48585 0.92521,-1.12601 2.05664,-1.42188 0.63299,-0.16553 1.05149,-0.24541 1.27539,-0.2207 z m 23.23047,0.52539 c 2.00243,0 2.75697,1.91035 1.40039,3.54492 -1.46369,1.76364 -2.20138,1.81815 -3.74023,0.2793 -1.36262,-1.36262 0.14348,-3.82422 2.33984,-3.82422 z m -0.95117,1.34375 c -0.35859,-0.0603 -0.61133,0.16081 -0.61133,0.59766 0,0.58246 0.45,1.05859 1,1.05859 0.55,0 1,-0.19691 1,-0.43945 0,-0.24254 -0.45,-0.72063 -1,-1.06055 -0.1375,-0.085 -0.26914,-0.13615 -0.38867,-0.15625 z m -19.5293,54.14844 c 0.5379,-0.0588 0.91797,0.13951 0.91797,0.53906 0,0.53274 -0.675,0.96875 -1.5,0.96875 -0.825,0 -1.5,-0.17643 -1.5,-0.39258 0,-0.21616 0.675,-0.65216 1.5,-0.96875 0.20625,-0.0791 0.40274,-0.12687 0.58203,-0.14648 z m -0.87109,3.58203 c 0.12954,0.004 0.23748,0.0422 0.31445,0.11914 0.30789,0.30789 -0.2462,0.86666 -1.23242,1.24219 -1.4252,0.54268 -1.54081,0.42902 -0.56054,-0.5586 0.50875,-0.51256 1.08988,-0.81417 1.47851,-0.80273 z m 0.5918,2.53711 c 0.12695,0.0199 0.19726,0.0865 0.19726,0.20508 0,0.4744 -1.125,1.37545 -2.5,2.00195 -1.375,0.62649 -2.5,0.97534 -2.5,0.77539 0,-0.19995 1.125,-1.10102 2.5,-2.00195 1.03125,-0.67571 1.92188,-1.04022 2.30274,-0.98047 z m -0.91211,3.52539 c 0.26898,-0.0114 0.31892,0.11034 0.0976,0.37695 -0.77172,0.92986 -0.74211,1.40302 0.10547,1.68555 0.64806,0.21602 -0.11942,1.22934 -1.70703,2.25195 l -2.88672,1.85938 1.9043,-2.1543 c 2.09237,-2.36676 1.55357,-2.73875 -1.55664,-1.07422 -1.11095,0.59456 -2.22385,0.87577 -2.47461,0.625 -0.25077,-0.25077 1.37526,-1.36245 3.61523,-2.4707 1.39999,-0.69266 2.45404,-1.08055 2.90235,-1.09961 z m -1.91992,6.86523 c 0.0748,0.0266 -0.25295,0.46096 -0.92188,1.32227 -1.91736,2.46882 -8.44463,5.70006 -11.25976,5.57422 -1.85938,-0.0831 -1.72511,-0.23828 0.71093,-0.82617 3.51559,-0.84842 7.20346,-2.67854 9.98243,-4.95117 0.93674,-0.76607 1.41351,-1.14573 1.48828,-1.11915 z m 2.52148,0.49805 -2.49609,2.84571 c -2.38629,2.71956 -7.00278,5.70007 -8.69727,5.61523 -0.43981,-0.022 0.55117,-0.75081 2.20117,-1.61914 1.65,-0.86832 4.34809,-2.76378 5.9961,-4.21094 l 2.99609,-2.63086 z m 15.42578,2.99219 c -0.53789,-0.0588 -0.91797,0.13951 -0.91797,0.53906 0,0.53274 0.675,0.96875 1.5,0.96875 0.825,0 1.5,-0.17643 1.5,-0.39258 0,-0.21616 -0.675,-0.65216 -1.5,-0.96875 -0.20625,-0.0791 -0.40273,-0.12687 -0.58203,-0.14648 z m -17.24023,2.59766 c 0.21114,0.0227 0.18423,0.32305 -0.10742,0.79492 -1.70042,2.75134 -15.24426,8.14503 -20.07032,7.99218 -2.641862,-0.0837 -2.522482,-0.19176 1,-0.90234 3.31123,-0.66796 7.56889,-2.42861 18.88867,-7.81055 0.12227,-0.0581 0.21869,-0.0818 0.28907,-0.0742 z m 0.22851,3.71875 c 0.0614,0.0158 0.0937,0.0505 0.0937,0.10351 0,2.13237 -19.27974,10.13354 -24.218752,10.05078 -1.25485,-0.021 1.61724,-1.31147 6.382822,-2.86718 4.76557,-1.55573 10.72807,-3.9811 13.25,-5.39063 2.20668,-1.23334 4.06276,-2.00681 4.49218,-1.89648 z m -6.82031,9.49023 c -0.29586,0.0172 -0.62091,0.0698 -0.97656,0.15625 -1.43544,0.34888 -3.84928,0.7674 -5.36524,0.92969 -1.51595,0.16229 -3.09095,0.64854 -3.5,1.08008 -0.40904,0.43154 0.37736,0.43832 1.74805,0.0156 2.31987,-0.71535 2.39222,-0.63829 1.05859,1.125 -0.78797,1.04184 -4.72197,5.15392 -8.742182,9.13672 -4.02022,3.98283 -7.3086,7.69529 -7.3086,8.25 0,1.85748 3.56796,1.03455 8.05469,-1.85742 5.727232,-3.69154 9.512452,-7.89187 10.365242,-11.50196 1.11908,-4.73743 1.43616,-2.51024 0.4082,2.86719 -0.52569,2.75 -1.10293,6.40826 -1.2832,8.12891 -0.18028,1.72065 -0.64326,4.99826 -1.0293,7.2832 -0.5184,3.06837 -0.27986,4.79895 0.91406,6.6211 1.81559,2.77093 4.57031,3.30202 4.57031,0.88085 0,-2.50754 10.4807,-12.09139 14.69727,-13.43945 3.93323,-1.25748 6.59241,-2.97461 4.60742,-2.97461 -2.84587,0 -14.2131,4.22634 -17.60937,6.54688 -3.01903,2.06278 -3.6111,2.22198 -2.86915,0.77539 1.19675,-2.33329 4.44061,-15.04869 4.67383,-18.32227 0.29845,-4.18905 -0.34303,-5.82158 -2.41406,-5.70117 z m -37.085942,9.83203 c 0.45313,0 0.90625,0.0683 1.25,0.20703 0.6875,0.27741 0.125,0.50391 -1.25,0.50391 -1.375,0 -1.9375,-0.2265 -1.25,-0.50391 0.34375,-0.1387 0.79688,-0.20703 1.25,-0.20703 z m -16.12109,1.99805 c -0.54375,-0.007 -1.12289,0.051 -1.60938,0.17773 -0.97297,0.25354 -0.41953,0.47767 1.23047,0.49805 1.65,0.0204 2.44656,-0.18701 1.76953,-0.46094 -0.33851,-0.13696 -0.84687,-0.20812 -1.39062,-0.21484 z m 15.03711,7.99414 c 0.34739,0.0143 0.64635,0.10731 0.8125,0.27344 0.33229,0.33229 -0.25834,0.56881 -1.3125,0.52539 -1.16495,-0.048 -1.40125,-0.2843 -0.60352,-0.60352 0.36094,-0.14443 0.75612,-0.20961 1.10352,-0.19531 z m -47.64258,16.05859 c -1.18604,-0.11368 -4.12301,1.25485 -3.7168,1.91211 0.29431,0.47621 1.39387,0.32924 2.44336,-0.32617 1.04949,-0.65542 1.79666,-1.30295 1.66016,-1.43945 -0.0831,-0.0831 -0.21729,-0.13025 -0.38672,-0.14649 z"
       id="path4140"
       inkscape:connector-curvature="0" />
    <path
       style="fill:none;fill-opacity:1;stroke:#000000;stroke-width:1.09869361;stroke-linejoin:bevel;stroke-miterlimit:4;stroke-dasharray:none;stroke-opacity:1"
       d="m 230.38027,277.25564 c 0,19.68456 -15.95749,35.64205 -35.64205,35.64205 -19.68457,0 -32.54947,-35.64205 -96.742725,-35.64205 -64.193256,0 -77.058164,35.64205 -96.7427253,35.64205 -19.6845617,0 -35.6420527,-15.95749 -35.6420557,-35.64205 C -34.389289,257.57107 1.2527686,243.53 1.2527697,141.47637 1.2527708,39.422747 -34.389286,25.381673 -34.389286,5.6971086 c 0,-19.6845636 15.957492,-35.6420556 35.6420557,-35.6420556 19.6845633,0 32.5494713,35.6420566 96.7427253,35.6420556 64.193245,-1e-6 77.058155,-35.6420586 96.742725,-35.6420556 19.68456,3e-6 35.64205,15.957494 35.64205,35.6420556 0,19.6845614 -35.64205,33.7256354 -35.64205,135.7792614 0,102.05363 35.64205,116.0947 35.64205,135.77927 z"
       id="path4733-1"
       inkscape:connector-curvature="0"
       sodipodi:nodetypes="sssssssssssss" />
  </g>
</svg>
