%FSLAX33Y33*%
%MOMM*%
%LNbottom silkscreen_traces*%
%LNtext*%
G36*
G01*
X29307Y15750D02*
X29307Y16659D01*
X29187Y16659D01*
X29187Y15857D01*
X28739Y15857D01*
X28739Y15750D01*
X29307Y15750D01*
X29307Y15750D01*
X28609Y15750D02*
X28609Y16409D01*
X28498Y16409D01*
X28498Y15750D01*
X28609Y15750D01*
X28609Y15750D01*
X28609Y16531D02*
X28609Y16659D01*
X28498Y16659D01*
X28498Y16531D01*
X28609Y16531D01*
X28609Y16531D01*
X28348Y15695D02*
X28240Y15679D01*
X28235Y15656D01*
X28227Y15636D01*
X28216Y15619D01*
X28202Y15606D01*
X28179Y15593D01*
X28153Y15583D01*
X28123Y15577D01*
X28088Y15575D01*
X28052Y15577D01*
X28020Y15583D01*
X27992Y15593D01*
X27969Y15606D01*
X27949Y15623D01*
X27933Y15643D01*
X27921Y15667D01*
X27912Y15693D01*
X27908Y15715D01*
X27905Y15746D01*
X27904Y15786D01*
X27904Y15836D01*
X27956Y15892D01*
X27946Y15902D01*
X27924Y15935D01*
X27907Y15978D01*
X27898Y16028D01*
X27894Y16087D01*
X27898Y16144D01*
X27908Y16193D01*
X27925Y16235D01*
X27948Y16270D01*
X27976Y16297D01*
X28007Y16316D01*
X28041Y16327D01*
X28077Y16331D01*
X28113Y16327D01*
X28146Y16316D01*
X28176Y16297D01*
X28204Y16271D01*
X28227Y16237D01*
X28243Y16195D01*
X28253Y16147D01*
X28256Y16091D01*
X28256Y16091D01*
X28253Y16031D01*
X28243Y15979D01*
X28227Y15936D01*
X28204Y15902D01*
X28177Y15876D01*
X28146Y15857D01*
X28113Y15846D01*
X28075Y15842D01*
X28039Y15846D01*
X28005Y15857D01*
X27974Y15876D01*
X27956Y15892D01*
X27904Y15836D01*
X27943Y15798D01*
X27986Y15772D01*
X28034Y15755D01*
X28086Y15750D01*
X28150Y15756D01*
X28206Y15774D01*
X28255Y15805D01*
X28296Y15848D01*
X28329Y15899D01*
X28352Y15956D01*
X28366Y16017D01*
X28371Y16083D01*
X28368Y16129D01*
X28362Y16174D01*
X28351Y16216D01*
X28337Y16257D01*
X28318Y16295D01*
X28295Y16328D01*
X28268Y16356D01*
X28238Y16380D01*
X28204Y16399D01*
X28167Y16413D01*
X28128Y16421D01*
X28085Y16423D01*
X28030Y16418D01*
X27979Y16400D01*
X27934Y16370D01*
X27893Y16329D01*
X27893Y16409D01*
X27790Y16409D01*
X27790Y15839D01*
X27792Y15768D01*
X27798Y15708D01*
X27808Y15659D01*
X27822Y15621D01*
X27839Y15591D01*
X27862Y15564D01*
X27889Y15540D01*
X27921Y15520D01*
X27957Y15504D01*
X27996Y15492D01*
X28040Y15485D01*
X28088Y15483D01*
X28144Y15486D01*
X28194Y15496D01*
X28239Y15513D01*
X28278Y15536D01*
X28310Y15566D01*
X28332Y15602D01*
X28345Y15645D01*
X28348Y15695D01*
X28348Y15695D01*
X27622Y15750D02*
X27622Y16659D01*
X27510Y16659D01*
X27510Y16333D01*
X27468Y16373D01*
X27422Y16401D01*
X27370Y16418D01*
X27313Y16423D01*
X27277Y16422D01*
X27244Y16416D01*
X27214Y16407D01*
X27186Y16395D01*
X27161Y16379D01*
X27139Y16360D01*
X27122Y16339D01*
X27108Y16315D01*
X27098Y16287D01*
X27091Y16253D01*
X27087Y16213D01*
X27085Y16167D01*
X27085Y15750D01*
X27197Y15750D01*
X27197Y16167D01*
X27199Y16206D01*
X27206Y16240D01*
X27217Y16267D01*
X27233Y16289D01*
X27253Y16306D01*
X27277Y16318D01*
X27304Y16325D01*
X27336Y16327D01*
X27360Y16326D01*
X27384Y16321D01*
X27407Y16313D01*
X27429Y16302D01*
X27449Y16288D01*
X27466Y16271D01*
X27480Y16253D01*
X27491Y16232D01*
X27499Y16208D01*
X27505Y16179D01*
X27509Y16147D01*
X27510Y16110D01*
X27510Y15750D01*
X27622Y15750D01*
X27622Y15750D01*
X26671Y15850D02*
X26655Y15751D01*
X26678Y15747D01*
X26700Y15744D01*
X26720Y15742D01*
X26740Y15741D01*
X26768Y15743D01*
X26794Y15746D01*
X26816Y15752D01*
X26834Y15761D01*
X26849Y15771D01*
X26862Y15783D01*
X26873Y15796D01*
X26881Y15811D01*
X26887Y15831D01*
X26891Y15860D01*
X26894Y15897D01*
X26895Y15943D01*
X26895Y16322D01*
X26977Y16322D01*
X26977Y16409D01*
X26895Y16409D01*
X26895Y16572D01*
X26784Y16639D01*
X26784Y16409D01*
X26671Y16409D01*
X26671Y16322D01*
X26784Y16322D01*
X26784Y15937D01*
X26783Y15915D01*
X26782Y15897D01*
X26780Y15884D01*
X26778Y15875D01*
X26774Y15869D01*
X26770Y15863D01*
X26765Y15858D01*
X26759Y15854D01*
X26751Y15850D01*
X26742Y15848D01*
X26732Y15846D01*
X26720Y15845D01*
X26710Y15846D01*
X26699Y15847D01*
X26686Y15848D01*
X26671Y15850D01*
X26671Y15850D01*
X26236Y16042D02*
X26123Y16052D01*
X26117Y16019D01*
X26109Y15990D01*
X26099Y15963D01*
X26085Y15940D01*
X26068Y15919D01*
X26048Y15901D01*
X26023Y15884D01*
X25994Y15869D01*
X25962Y15858D01*
X25928Y15849D01*
X25892Y15844D01*
X25854Y15842D01*
X25821Y15844D01*
X25789Y15848D01*
X25760Y15854D01*
X25733Y15863D01*
X25708Y15874D01*
X25687Y15887D01*
X25669Y15902D01*
X25654Y15919D01*
X25643Y15937D01*
X25635Y15956D01*
X25630Y15976D01*
X25628Y15997D01*
X25630Y16018D01*
X25635Y16037D01*
X25642Y16055D01*
X25653Y16072D01*
X25668Y16087D01*
X25686Y16101D01*
X25709Y16114D01*
X25735Y16125D01*
X25759Y16133D01*
X25794Y16143D01*
X25840Y16155D01*
X25897Y16170D01*
X25955Y16184D01*
X26003Y16199D01*
X26043Y16213D01*
X26072Y16226D01*
X26103Y16244D01*
X26129Y16264D01*
X26151Y16287D01*
X26170Y16311D01*
X26183Y16337D01*
X26193Y16364D01*
X26199Y16394D01*
X26201Y16424D01*
X26199Y16458D01*
X26192Y16491D01*
X26179Y16522D01*
X26162Y16553D01*
X26141Y16581D01*
X26114Y16605D01*
X26084Y16626D01*
X26048Y16644D01*
X26010Y16657D01*
X25969Y16667D01*
X25926Y16673D01*
X25881Y16675D01*
X25832Y16673D01*
X25786Y16666D01*
X25743Y16656D01*
X25703Y16642D01*
X25667Y16624D01*
X25635Y16602D01*
X25607Y16576D01*
X25584Y16546D01*
X25566Y16514D01*
X25553Y16479D01*
X25544Y16442D01*
X25540Y16403D01*
X25655Y16394D01*
X25663Y16435D01*
X25676Y16470D01*
X25694Y16500D01*
X25718Y16525D01*
X25748Y16544D01*
X25785Y16558D01*
X25827Y16566D01*
X25877Y16569D01*
X25927Y16566D01*
X25971Y16559D01*
X26007Y16546D01*
X26036Y16529D01*
X26057Y16508D01*
X26073Y16484D01*
X26082Y16459D01*
X26085Y16432D01*
X26083Y16409D01*
X26077Y16387D01*
X26066Y16368D01*
X26050Y16352D01*
X26026Y16336D01*
X25987Y16319D01*
X25935Y16303D01*
X25869Y16287D01*
X25801Y16271D01*
X25745Y16256D01*
X25701Y16242D01*
X25668Y16229D01*
X25630Y16209D01*
X25599Y16187D01*
X25572Y16163D01*
X25550Y16136D01*
X25534Y16107D01*
X25522Y16076D01*
X25515Y16042D01*
X25513Y16007D01*
X25515Y15971D01*
X25523Y15936D01*
X25536Y15903D01*
X25554Y15870D01*
X25577Y15840D01*
X25605Y15813D01*
X25637Y15790D01*
X25673Y15770D01*
X25714Y15755D01*
X25756Y15743D01*
X25801Y15737D01*
X25849Y15734D01*
X25908Y15737D01*
X25962Y15743D01*
X26011Y15755D01*
X26055Y15770D01*
X26095Y15791D01*
X26130Y15816D01*
X26160Y15845D01*
X26186Y15879D01*
X26207Y15916D01*
X26222Y15956D01*
X26232Y15998D01*
X26236Y16042D01*
X26236Y16042D01*
X25119Y15850D02*
X25103Y15751D01*
X25126Y15747D01*
X25147Y15744D01*
X25168Y15742D01*
X25187Y15741D01*
X25216Y15743D01*
X25241Y15746D01*
X25263Y15752D01*
X25281Y15761D01*
X25297Y15771D01*
X25310Y15783D01*
X25320Y15796D01*
X25328Y15811D01*
X25334Y15831D01*
X25339Y15860D01*
X25341Y15897D01*
X25342Y15943D01*
X25342Y16322D01*
X25424Y16322D01*
X25424Y16409D01*
X25342Y16409D01*
X25342Y16572D01*
X25231Y16639D01*
X25231Y16409D01*
X25119Y16409D01*
X25119Y16322D01*
X25231Y16322D01*
X25231Y15937D01*
X25231Y15915D01*
X25229Y15897D01*
X25228Y15884D01*
X25225Y15875D01*
X25222Y15869D01*
X25217Y15863D01*
X25212Y15858D01*
X25206Y15854D01*
X25198Y15850D01*
X25190Y15848D01*
X25179Y15846D01*
X25168Y15845D01*
X25158Y15846D01*
X25146Y15847D01*
X25133Y15848D01*
X25119Y15850D01*
X25119Y15850D01*
X24559Y15962D02*
X24443Y15948D01*
X24460Y15900D01*
X24482Y15858D01*
X24511Y15822D01*
X24544Y15791D01*
X24584Y15767D01*
X24629Y15749D01*
X24678Y15739D01*
X24733Y15735D01*
X24802Y15741D01*
X24863Y15757D01*
X24916Y15785D01*
X24962Y15824D01*
X24999Y15873D01*
X25026Y15931D01*
X25042Y15998D01*
X25047Y16074D01*
X25041Y16152D01*
X25025Y16221D01*
X24999Y16281D01*
X24961Y16332D01*
X24915Y16372D01*
X24863Y16401D01*
X24804Y16418D01*
X24739Y16423D01*
X24730Y16423D01*
X24738Y16332D01*
X24775Y16328D01*
X24809Y16319D01*
X24840Y16303D01*
X24867Y16280D01*
X24891Y16252D01*
X24908Y16220D01*
X24920Y16183D01*
X24925Y16143D01*
X24925Y16143D01*
X24558Y16143D01*
X24563Y16181D01*
X24572Y16215D01*
X24584Y16244D01*
X24600Y16267D01*
X24628Y16295D01*
X24661Y16316D01*
X24697Y16328D01*
X24738Y16332D01*
X24730Y16423D01*
X24676Y16418D01*
X24619Y16401D01*
X24568Y16373D01*
X24523Y16334D01*
X24487Y16284D01*
X24461Y16225D01*
X24445Y16157D01*
X24440Y16081D01*
X24440Y16075D01*
X24440Y16068D01*
X24440Y16060D01*
X24440Y16051D01*
X24931Y16051D01*
X24925Y16000D01*
X24913Y15955D01*
X24895Y15917D01*
X24870Y15885D01*
X24841Y15859D01*
X24808Y15841D01*
X24772Y15830D01*
X24732Y15827D01*
X24703Y15829D01*
X24675Y15835D01*
X24650Y15845D01*
X24628Y15859D01*
X24607Y15878D01*
X24589Y15901D01*
X24573Y15929D01*
X24559Y15962D01*
X24559Y15962D01*
X24303Y15750D02*
X24303Y16409D01*
X24203Y16409D01*
X24203Y16316D01*
X24187Y16339D01*
X24167Y16360D01*
X24145Y16378D01*
X24121Y16394D01*
X24094Y16407D01*
X24066Y16416D01*
X24036Y16422D01*
X24004Y16423D01*
X23969Y16422D01*
X23937Y16416D01*
X23909Y16406D01*
X23884Y16393D01*
X23862Y16376D01*
X23844Y16357D01*
X23829Y16334D01*
X23818Y16308D01*
X23776Y16359D01*
X23728Y16395D01*
X23674Y16416D01*
X23614Y16423D01*
X23568Y16420D01*
X23528Y16410D01*
X23493Y16393D01*
X23464Y16369D01*
X23441Y16338D01*
X23424Y16300D01*
X23414Y16255D01*
X23411Y16202D01*
X23411Y15750D01*
X23522Y15750D01*
X23522Y16165D01*
X23523Y16196D01*
X23525Y16222D01*
X23528Y16244D01*
X23533Y16261D01*
X23539Y16275D01*
X23548Y16288D01*
X23559Y16299D01*
X23572Y16309D01*
X23587Y16317D01*
X23603Y16322D01*
X23621Y16326D01*
X23639Y16327D01*
X23672Y16324D01*
X23703Y16315D01*
X23730Y16301D01*
X23754Y16281D01*
X23775Y16254D01*
X23789Y16220D01*
X23797Y16180D01*
X23800Y16133D01*
X23800Y15750D01*
X23912Y15750D01*
X23912Y16178D01*
X23914Y16213D01*
X23919Y16243D01*
X23927Y16269D01*
X23939Y16290D01*
X23955Y16306D01*
X23975Y16317D01*
X24000Y16324D01*
X24029Y16327D01*
X24052Y16325D01*
X24074Y16321D01*
X24095Y16313D01*
X24116Y16302D01*
X24134Y16288D01*
X24150Y16271D01*
X24163Y16252D01*
X24174Y16229D01*
X24182Y16203D01*
X24187Y16171D01*
X24191Y16134D01*
X24192Y16092D01*
X24192Y15750D01*
X24303Y15750D01*
X24303Y15750D01*
X30250Y14050D02*
X30250Y14959D01*
X29847Y14959D01*
X29790Y14958D01*
X29740Y14953D01*
X29698Y14945D01*
X29662Y14935D01*
X29632Y14920D01*
X29605Y14901D01*
X29582Y14877D01*
X29561Y14848D01*
X29545Y14816D01*
X29533Y14783D01*
X29526Y14748D01*
X29523Y14711D01*
X29527Y14665D01*
X29539Y14622D01*
X29559Y14583D01*
X29586Y14548D01*
X29622Y14518D01*
X29666Y14494D01*
X29718Y14476D01*
X29749Y14470D01*
X29768Y14567D01*
X29742Y14575D01*
X29720Y14585D01*
X29701Y14597D01*
X29685Y14612D01*
X29672Y14629D01*
X29661Y14649D01*
X29653Y14669D01*
X29649Y14689D01*
X29647Y14711D01*
X29650Y14742D01*
X29659Y14770D01*
X29674Y14795D01*
X29694Y14817D01*
X29721Y14835D01*
X29755Y14848D01*
X29795Y14856D01*
X29842Y14859D01*
X30130Y14859D01*
X30130Y14558D01*
X30130Y14558D01*
X29871Y14558D01*
X29832Y14559D01*
X29798Y14562D01*
X29768Y14567D01*
X29749Y14470D01*
X29779Y14464D01*
X29757Y14452D01*
X29737Y14441D01*
X29721Y14430D01*
X29707Y14418D01*
X29681Y14393D01*
X29656Y14364D01*
X29631Y14332D01*
X29607Y14297D01*
X29449Y14050D01*
X29600Y14050D01*
X29721Y14239D01*
X29746Y14278D01*
X29769Y14311D01*
X29789Y14340D01*
X29807Y14364D01*
X29824Y14384D01*
X29840Y14401D01*
X29855Y14415D01*
X29868Y14425D01*
X29882Y14433D01*
X29896Y14440D01*
X29909Y14445D01*
X29923Y14449D01*
X29935Y14451D01*
X29950Y14453D01*
X29969Y14453D01*
X29990Y14454D01*
X30130Y14454D01*
X30130Y14050D01*
X30250Y14050D01*
X30250Y14050D01*
X28960Y14050D02*
X29071Y14050D01*
X29071Y14761D01*
X29093Y14742D01*
X29118Y14723D01*
X29146Y14704D01*
X29177Y14684D01*
X29209Y14666D01*
X29239Y14651D01*
X29268Y14638D01*
X29295Y14627D01*
X29295Y14735D01*
X29249Y14758D01*
X29207Y14783D01*
X29167Y14811D01*
X29131Y14841D01*
X29098Y14872D01*
X29071Y14903D01*
X29049Y14933D01*
X29032Y14963D01*
X28960Y14963D01*
X28960Y14050D01*
X28960Y14050D01*
X28337Y14308D02*
X28229Y14323D01*
X28225Y14275D01*
X28217Y14235D01*
X28205Y14204D01*
X28190Y14180D01*
X28170Y14163D01*
X28148Y14151D01*
X28122Y14144D01*
X28093Y14142D01*
X28072Y14143D01*
X28051Y14147D01*
X28032Y14153D01*
X28015Y14163D01*
X28000Y14174D01*
X27988Y14187D01*
X27977Y14202D01*
X27970Y14219D01*
X27965Y14239D01*
X27961Y14265D01*
X27958Y14296D01*
X27958Y14333D01*
X27958Y14959D01*
X27837Y14959D01*
X27837Y14340D01*
X27839Y14286D01*
X27844Y14238D01*
X27853Y14197D01*
X27865Y14163D01*
X27881Y14133D01*
X27901Y14108D01*
X27924Y14086D01*
X27952Y14067D01*
X27984Y14053D01*
X28017Y14043D01*
X28054Y14037D01*
X28093Y14034D01*
X28149Y14039D01*
X28198Y14052D01*
X28241Y14073D01*
X28276Y14103D01*
X28304Y14142D01*
X28323Y14189D01*
X28334Y14244D01*
X28337Y14308D01*
X28337Y14308D01*
X27223Y14050D02*
X27223Y14147D01*
X27265Y14098D01*
X27314Y14063D01*
X27370Y14042D01*
X27432Y14035D01*
X27461Y14037D01*
X27489Y14041D01*
X27515Y14048D01*
X27541Y14057D01*
X27565Y14069D01*
X27585Y14083D01*
X27602Y14097D01*
X27616Y14114D01*
X27628Y14131D01*
X27637Y14151D01*
X27645Y14173D01*
X27651Y14196D01*
X27654Y14215D01*
X27656Y14239D01*
X27657Y14267D01*
X27657Y14301D01*
X27657Y14709D01*
X27546Y14709D01*
X27546Y14343D01*
X27545Y14303D01*
X27544Y14270D01*
X27542Y14244D01*
X27539Y14225D01*
X27532Y14205D01*
X27523Y14186D01*
X27510Y14170D01*
X27494Y14156D01*
X27476Y14145D01*
X27456Y14138D01*
X27434Y14133D01*
X27410Y14131D01*
X27385Y14133D01*
X27361Y14138D01*
X27338Y14146D01*
X27316Y14157D01*
X27295Y14171D01*
X27278Y14187D01*
X27264Y14206D01*
X27253Y14227D01*
X27245Y14252D01*
X27240Y14281D01*
X27236Y14316D01*
X27235Y14356D01*
X27235Y14709D01*
X27123Y14709D01*
X27123Y14050D01*
X27223Y14050D01*
X27223Y14050D01*
X26951Y14050D02*
X26951Y14959D01*
X26839Y14959D01*
X26839Y14050D01*
X26951Y14050D01*
X26951Y14050D01*
X26671Y13796D02*
X26684Y13901D01*
X26666Y13897D01*
X26650Y13894D01*
X26634Y13892D01*
X26620Y13891D01*
X26602Y13892D01*
X26586Y13894D01*
X26573Y13898D01*
X26560Y13904D01*
X26550Y13910D01*
X26540Y13919D01*
X26531Y13928D01*
X26524Y13938D01*
X26518Y13950D01*
X26510Y13968D01*
X26501Y13991D01*
X26490Y14021D01*
X26488Y14027D01*
X26486Y14033D01*
X26483Y14040D01*
X26480Y14049D01*
X26730Y14709D01*
X26609Y14709D01*
X26472Y14327D01*
X26459Y14290D01*
X26447Y14253D01*
X26436Y14214D01*
X26425Y14175D01*
X26415Y14213D01*
X26404Y14251D01*
X26392Y14288D01*
X26379Y14325D01*
X26238Y14709D01*
X26126Y14709D01*
X26377Y14039D01*
X26396Y13989D01*
X26413Y13947D01*
X26427Y13914D01*
X26440Y13889D01*
X26455Y13864D01*
X26471Y13842D01*
X26489Y13823D01*
X26508Y13808D01*
X26528Y13797D01*
X26550Y13789D01*
X26574Y13784D01*
X26600Y13783D01*
X26616Y13784D01*
X26634Y13786D01*
X26652Y13790D01*
X26671Y13796D01*
X26671Y13796D01*
X25123Y14157D02*
X25123Y14050D01*
X25724Y14050D01*
X25724Y14070D01*
X25721Y14090D01*
X25717Y14109D01*
X25711Y14128D01*
X25698Y14158D01*
X25681Y14188D01*
X25661Y14219D01*
X25637Y14248D01*
X25609Y14279D01*
X25576Y14313D01*
X25536Y14348D01*
X25491Y14386D01*
X25423Y14444D01*
X25367Y14495D01*
X25323Y14540D01*
X25291Y14579D01*
X25268Y14614D01*
X25252Y14648D01*
X25242Y14681D01*
X25239Y14713D01*
X25242Y14745D01*
X25251Y14774D01*
X25266Y14801D01*
X25286Y14825D01*
X25312Y14845D01*
X25341Y14859D01*
X25374Y14868D01*
X25410Y14870D01*
X25448Y14867D01*
X25483Y14858D01*
X25513Y14843D01*
X25539Y14822D01*
X25560Y14796D01*
X25576Y14764D01*
X25585Y14729D01*
X25588Y14688D01*
X25703Y14700D01*
X25693Y14760D01*
X25675Y14813D01*
X25648Y14858D01*
X25614Y14896D01*
X25572Y14925D01*
X25524Y14946D01*
X25469Y14959D01*
X25408Y14963D01*
X25346Y14958D01*
X25290Y14945D01*
X25242Y14922D01*
X25200Y14890D01*
X25167Y14852D01*
X25143Y14809D01*
X25129Y14762D01*
X25124Y14710D01*
X25126Y14683D01*
X25130Y14656D01*
X25137Y14630D01*
X25147Y14603D01*
X25160Y14576D01*
X25176Y14549D01*
X25197Y14521D01*
X25221Y14492D01*
X25251Y14460D01*
X25290Y14423D01*
X25337Y14380D01*
X25393Y14332D01*
X25438Y14293D01*
X25475Y14261D01*
X25503Y14236D01*
X25522Y14218D01*
X25535Y14203D01*
X25548Y14188D01*
X25559Y14172D01*
X25569Y14157D01*
X25123Y14157D01*
X25123Y14157D01*
X25003Y14498D02*
X25001Y14575D01*
X24995Y14644D01*
X24985Y14705D01*
X24970Y14758D01*
X24952Y14804D01*
X24929Y14845D01*
X24902Y14880D01*
X24872Y14909D01*
X24837Y14933D01*
X24798Y14949D01*
X24754Y14959D01*
X24707Y14963D01*
X24671Y14961D01*
X24638Y14955D01*
X24607Y14946D01*
X24579Y14933D01*
X24552Y14917D01*
X24528Y14897D01*
X24507Y14875D01*
X24487Y14848D01*
X24470Y14819D01*
X24455Y14787D01*
X24442Y14752D01*
X24431Y14713D01*
X24422Y14670D01*
X24416Y14620D01*
X24412Y14562D01*
X24410Y14498D01*
X24413Y14422D01*
X24419Y14354D01*
X24429Y14293D01*
X24443Y14240D01*
X24462Y14194D01*
X24484Y14153D01*
X24511Y14118D01*
X24542Y14088D01*
X24576Y14065D01*
X24616Y14048D01*
X24659Y14038D01*
X24707Y14034D01*
X24715Y14035D01*
X24707Y14126D01*
X24670Y14131D01*
X24636Y14145D01*
X24605Y14168D01*
X24578Y14201D01*
X24555Y14247D01*
X24538Y14312D01*
X24528Y14396D01*
X24525Y14498D01*
X24528Y14601D01*
X24538Y14685D01*
X24555Y14750D01*
X24578Y14797D01*
X24605Y14829D01*
X24636Y14852D01*
X24671Y14866D01*
X24708Y14870D01*
X24745Y14866D01*
X24777Y14854D01*
X24806Y14834D01*
X24831Y14805D01*
X24856Y14755D01*
X24874Y14687D01*
X24885Y14601D01*
X24889Y14498D01*
X24889Y14498D01*
X24885Y14396D01*
X24875Y14312D01*
X24859Y14247D01*
X24836Y14200D01*
X24808Y14168D01*
X24778Y14145D01*
X24744Y14131D01*
X24707Y14126D01*
X24715Y14035D01*
X24769Y14040D01*
X24824Y14058D01*
X24872Y14088D01*
X24913Y14129D01*
X24953Y14194D01*
X24981Y14278D01*
X24998Y14379D01*
X25003Y14498D01*
X25003Y14498D01*
X23877Y14050D02*
X23988Y14050D01*
X23988Y14761D01*
X24010Y14742D01*
X24035Y14723D01*
X24063Y14704D01*
X24094Y14684D01*
X24126Y14666D01*
X24156Y14651D01*
X24185Y14638D01*
X24211Y14627D01*
X24211Y14735D01*
X24166Y14758D01*
X24124Y14783D01*
X24084Y14811D01*
X24048Y14841D01*
X24015Y14872D01*
X23988Y14903D01*
X23966Y14933D01*
X23948Y14963D01*
X23877Y14963D01*
X23877Y14050D01*
X23877Y14050D01*
X23419Y14543D02*
X23382Y14473D01*
X23398Y14465D01*
X23425Y14443D01*
X23448Y14415D01*
X23464Y14384D01*
X23474Y14350D01*
X23477Y14312D01*
X23477Y14312D01*
X23476Y14289D01*
X23471Y14265D01*
X23464Y14242D01*
X23455Y14220D01*
X23442Y14199D01*
X23426Y14180D01*
X23408Y14164D01*
X23387Y14151D01*
X23364Y14140D01*
X23341Y14132D01*
X23316Y14128D01*
X23291Y14126D01*
X23253Y14129D01*
X23218Y14139D01*
X23187Y14155D01*
X23159Y14178D01*
X23136Y14205D01*
X23120Y14236D01*
X23110Y14271D01*
X23107Y14309D01*
X23110Y14347D01*
X23120Y14382D01*
X23137Y14414D01*
X23161Y14442D01*
X23189Y14465D01*
X23221Y14481D01*
X23256Y14491D01*
X23295Y14495D01*
X23333Y14491D01*
X23367Y14482D01*
X23382Y14473D01*
X23419Y14543D01*
X23377Y14609D01*
X23352Y14596D01*
X23323Y14588D01*
X23292Y14586D01*
X23261Y14588D01*
X23233Y14596D01*
X23208Y14609D01*
X23186Y14626D01*
X23168Y14648D01*
X23155Y14672D01*
X23147Y14698D01*
X23145Y14726D01*
X23147Y14755D01*
X23155Y14782D01*
X23169Y14807D01*
X23187Y14829D01*
X23210Y14847D01*
X23235Y14861D01*
X23263Y14868D01*
X23293Y14871D01*
X23324Y14868D01*
X23351Y14861D01*
X23377Y14848D01*
X23399Y14830D01*
X23417Y14809D01*
X23431Y14785D01*
X23439Y14760D01*
X23441Y14732D01*
X23441Y14732D01*
X23439Y14701D01*
X23431Y14674D01*
X23418Y14649D01*
X23400Y14627D01*
X23377Y14609D01*
X23419Y14543D01*
X23451Y14557D01*
X23479Y14574D01*
X23503Y14593D01*
X23522Y14616D01*
X23536Y14640D01*
X23547Y14667D01*
X23553Y14697D01*
X23555Y14728D01*
X23551Y14776D01*
X23537Y14820D01*
X23515Y14859D01*
X23484Y14895D01*
X23445Y14925D01*
X23401Y14946D01*
X23350Y14959D01*
X23294Y14963D01*
X23238Y14958D01*
X23187Y14946D01*
X23142Y14924D01*
X23103Y14894D01*
X23071Y14857D01*
X23048Y14817D01*
X23035Y14773D01*
X23030Y14725D01*
X23032Y14695D01*
X23038Y14666D01*
X23049Y14640D01*
X23063Y14615D01*
X23082Y14593D01*
X23105Y14574D01*
X23132Y14557D01*
X23164Y14543D01*
X23125Y14527D01*
X23090Y14507D01*
X23061Y14483D01*
X23037Y14455D01*
X23017Y14423D01*
X23004Y14388D01*
X22996Y14351D01*
X22993Y14310D01*
X22998Y14254D01*
X23013Y14203D01*
X23039Y14156D01*
X23075Y14114D01*
X23120Y14079D01*
X23171Y14054D01*
X23228Y14039D01*
X23292Y14034D01*
X23356Y14039D01*
X23414Y14054D01*
X23465Y14079D01*
X23509Y14114D01*
X23545Y14156D01*
X23571Y14204D01*
X23587Y14256D01*
X23592Y14313D01*
X23589Y14355D01*
X23581Y14394D01*
X23567Y14430D01*
X23547Y14461D01*
X23522Y14489D01*
X23492Y14512D01*
X23458Y14530D01*
X23419Y14543D01*
X23419Y14543D01*
X29413Y17358D02*
X29305Y17373D01*
X29301Y17325D01*
X29293Y17285D01*
X29281Y17254D01*
X29266Y17230D01*
X29247Y17213D01*
X29224Y17201D01*
X29199Y17194D01*
X29170Y17192D01*
X29148Y17193D01*
X29128Y17197D01*
X29109Y17203D01*
X29092Y17213D01*
X29076Y17224D01*
X29064Y17237D01*
X29054Y17252D01*
X29046Y17269D01*
X29041Y17289D01*
X29037Y17315D01*
X29035Y17346D01*
X29034Y17383D01*
X29034Y18009D01*
X28914Y18009D01*
X28914Y17390D01*
X28915Y17336D01*
X28920Y17288D01*
X28929Y17247D01*
X28941Y17213D01*
X28957Y17183D01*
X28977Y17158D01*
X29001Y17136D01*
X29029Y17117D01*
X29060Y17103D01*
X29094Y17093D01*
X29130Y17087D01*
X29169Y17084D01*
X29225Y17089D01*
X29275Y17102D01*
X29317Y17123D01*
X29352Y17153D01*
X29380Y17192D01*
X29399Y17239D01*
X29411Y17294D01*
X29413Y17358D01*
X29413Y17358D01*
X28302Y17181D02*
X28332Y17157D01*
X28337Y17154D01*
X28379Y17216D01*
X28359Y17234D01*
X28342Y17255D01*
X28329Y17278D01*
X28321Y17299D01*
X28315Y17325D01*
X28312Y17355D01*
X28311Y17390D01*
X28311Y17431D01*
X28311Y17431D01*
X28345Y17419D01*
X28387Y17408D01*
X28436Y17398D01*
X28493Y17388D01*
X28525Y17383D01*
X28552Y17378D01*
X28574Y17372D01*
X28590Y17366D01*
X28604Y17359D01*
X28616Y17351D01*
X28626Y17341D01*
X28635Y17330D01*
X28641Y17317D01*
X28646Y17305D01*
X28649Y17291D01*
X28650Y17277D01*
X28648Y17255D01*
X28642Y17236D01*
X28631Y17218D01*
X28616Y17202D01*
X28597Y17189D01*
X28575Y17180D01*
X28548Y17174D01*
X28517Y17173D01*
X28486Y17174D01*
X28456Y17180D01*
X28429Y17188D01*
X28403Y17201D01*
X28379Y17216D01*
X28337Y17154D01*
X28362Y17136D01*
X28392Y17120D01*
X28421Y17107D01*
X28450Y17097D01*
X28480Y17091D01*
X28512Y17086D01*
X28544Y17085D01*
X28595Y17088D01*
X28640Y17098D01*
X28678Y17115D01*
X28711Y17138D01*
X28736Y17166D01*
X28754Y17199D01*
X28765Y17234D01*
X28769Y17274D01*
X28768Y17297D01*
X28764Y17320D01*
X28757Y17341D01*
X28747Y17362D01*
X28735Y17381D01*
X28722Y17398D01*
X28706Y17413D01*
X28689Y17426D01*
X28671Y17438D01*
X28651Y17447D01*
X28631Y17456D01*
X28609Y17463D01*
X28591Y17467D01*
X28568Y17471D01*
X28541Y17475D01*
X28510Y17480D01*
X28447Y17488D01*
X28393Y17497D01*
X28347Y17507D01*
X28311Y17518D01*
X28311Y17528D01*
X28310Y17537D01*
X28310Y17543D01*
X28310Y17547D01*
X28312Y17579D01*
X28318Y17605D01*
X28328Y17627D01*
X28342Y17643D01*
X28366Y17660D01*
X28395Y17672D01*
X28429Y17679D01*
X28469Y17681D01*
X28506Y17679D01*
X28537Y17674D01*
X28564Y17666D01*
X28585Y17653D01*
X28603Y17637D01*
X28618Y17615D01*
X28630Y17588D01*
X28641Y17556D01*
X28750Y17571D01*
X28741Y17604D01*
X28730Y17634D01*
X28717Y17661D01*
X28701Y17684D01*
X28682Y17704D01*
X28659Y17722D01*
X28633Y17737D01*
X28602Y17750D01*
X28569Y17760D01*
X28533Y17768D01*
X28494Y17772D01*
X28453Y17773D01*
X28413Y17772D01*
X28376Y17768D01*
X28344Y17762D01*
X28316Y17754D01*
X28291Y17743D01*
X28270Y17731D01*
X28252Y17718D01*
X28238Y17704D01*
X28227Y17688D01*
X28217Y17670D01*
X28209Y17650D01*
X28204Y17628D01*
X28201Y17611D01*
X28199Y17588D01*
X28198Y17559D01*
X28198Y17525D01*
X28198Y17376D01*
X28197Y17305D01*
X28196Y17249D01*
X28194Y17207D01*
X28191Y17179D01*
X28186Y17159D01*
X28180Y17139D01*
X28172Y17119D01*
X28163Y17100D01*
X28279Y17100D01*
X28287Y17118D01*
X28293Y17138D01*
X28298Y17159D01*
X28302Y17181D01*
X28302Y17181D01*
X28026Y17100D02*
X28026Y17759D01*
X27926Y17759D01*
X27926Y17659D01*
X27907Y17691D01*
X27889Y17717D01*
X27871Y17737D01*
X27855Y17751D01*
X27838Y17761D01*
X27821Y17768D01*
X27802Y17772D01*
X27783Y17773D01*
X27755Y17771D01*
X27726Y17764D01*
X27697Y17753D01*
X27668Y17737D01*
X27707Y17634D01*
X27727Y17645D01*
X27748Y17652D01*
X27768Y17657D01*
X27789Y17658D01*
X27806Y17657D01*
X27823Y17653D01*
X27839Y17646D01*
X27854Y17636D01*
X27868Y17624D01*
X27879Y17610D01*
X27889Y17593D01*
X27896Y17575D01*
X27904Y17545D01*
X27910Y17513D01*
X27913Y17479D01*
X27915Y17445D01*
X27915Y17100D01*
X28026Y17100D01*
X28026Y17100D01*
X27603Y17100D02*
X27603Y17759D01*
X27503Y17759D01*
X27503Y17659D01*
X27484Y17691D01*
X27466Y17717D01*
X27448Y17737D01*
X27432Y17751D01*
X27415Y17761D01*
X27398Y17768D01*
X27379Y17772D01*
X27360Y17773D01*
X27332Y17771D01*
X27303Y17764D01*
X27274Y17753D01*
X27245Y17737D01*
X27284Y17634D01*
X27304Y17645D01*
X27325Y17652D01*
X27345Y17657D01*
X27366Y17658D01*
X27384Y17657D01*
X27400Y17653D01*
X27416Y17646D01*
X27431Y17636D01*
X27445Y17624D01*
X27456Y17610D01*
X27466Y17593D01*
X27473Y17575D01*
X27481Y17545D01*
X27487Y17513D01*
X27490Y17479D01*
X27492Y17445D01*
X27492Y17100D01*
X27603Y17100D01*
X27603Y17100D01*
X26728Y17312D02*
X26613Y17298D01*
X26630Y17250D01*
X26652Y17208D01*
X26680Y17172D01*
X26714Y17141D01*
X26753Y17117D01*
X26798Y17099D01*
X26848Y17089D01*
X26903Y17085D01*
X26971Y17091D01*
X27032Y17107D01*
X27086Y17135D01*
X27132Y17174D01*
X27169Y17223D01*
X27195Y17281D01*
X27211Y17348D01*
X27216Y17424D01*
X27211Y17502D01*
X27195Y17571D01*
X27168Y17631D01*
X27131Y17682D01*
X27085Y17722D01*
X27032Y17751D01*
X26974Y17768D01*
X26909Y17773D01*
X26899Y17773D01*
X26908Y17682D01*
X26944Y17678D01*
X26978Y17669D01*
X27009Y17653D01*
X27037Y17630D01*
X27060Y17602D01*
X27078Y17570D01*
X27089Y17533D01*
X27095Y17493D01*
X27095Y17493D01*
X26727Y17493D01*
X26732Y17531D01*
X26741Y17565D01*
X26754Y17594D01*
X26769Y17617D01*
X26798Y17645D01*
X26830Y17666D01*
X26867Y17678D01*
X26908Y17682D01*
X26899Y17773D01*
X26846Y17768D01*
X26789Y17751D01*
X26738Y17723D01*
X26693Y17684D01*
X26656Y17634D01*
X26630Y17575D01*
X26614Y17507D01*
X26609Y17431D01*
X26609Y17425D01*
X26609Y17418D01*
X26610Y17410D01*
X26610Y17401D01*
X27101Y17401D01*
X27095Y17350D01*
X27083Y17305D01*
X27064Y17267D01*
X27040Y17235D01*
X27010Y17209D01*
X26978Y17191D01*
X26941Y17180D01*
X26902Y17177D01*
X26872Y17179D01*
X26845Y17185D01*
X26820Y17195D01*
X26797Y17209D01*
X26777Y17228D01*
X26758Y17251D01*
X26742Y17279D01*
X26728Y17312D01*
X26728Y17312D01*
X26229Y17200D02*
X26213Y17101D01*
X26236Y17097D01*
X26258Y17094D01*
X26278Y17092D01*
X26297Y17091D01*
X26326Y17093D01*
X26351Y17096D01*
X26373Y17102D01*
X26392Y17111D01*
X26407Y17121D01*
X26420Y17133D01*
X26431Y17146D01*
X26439Y17161D01*
X26445Y17181D01*
X26449Y17210D01*
X26451Y17247D01*
X26452Y17293D01*
X26452Y17672D01*
X26534Y17672D01*
X26534Y17759D01*
X26452Y17759D01*
X26452Y17922D01*
X26341Y17989D01*
X26341Y17759D01*
X26229Y17759D01*
X26229Y17672D01*
X26341Y17672D01*
X26341Y17287D01*
X26341Y17265D01*
X26340Y17247D01*
X26338Y17234D01*
X26335Y17225D01*
X26332Y17219D01*
X26328Y17213D01*
X26322Y17208D01*
X26316Y17204D01*
X26309Y17200D01*
X26300Y17198D01*
X26290Y17196D01*
X26278Y17195D01*
X26268Y17196D01*
X26257Y17197D01*
X26244Y17198D01*
X26229Y17200D01*
X26229Y17200D01*
X25876Y17200D02*
X25860Y17101D01*
X25883Y17097D01*
X25905Y17094D01*
X25925Y17092D01*
X25944Y17091D01*
X25973Y17093D01*
X25998Y17096D01*
X26020Y17102D01*
X26039Y17111D01*
X26054Y17121D01*
X26067Y17133D01*
X26078Y17146D01*
X26086Y17161D01*
X26092Y17181D01*
X26096Y17210D01*
X26099Y17247D01*
X26100Y17293D01*
X26100Y17672D01*
X26181Y17672D01*
X26181Y17759D01*
X26100Y17759D01*
X26100Y17922D01*
X25988Y17989D01*
X25988Y17759D01*
X25876Y17759D01*
X25876Y17672D01*
X25988Y17672D01*
X25988Y17287D01*
X25988Y17265D01*
X25987Y17247D01*
X25985Y17234D01*
X25983Y17225D01*
X25979Y17219D01*
X25975Y17213D01*
X25970Y17208D01*
X25963Y17204D01*
X25956Y17200D01*
X25947Y17198D01*
X25937Y17196D01*
X25925Y17195D01*
X25915Y17196D01*
X25904Y17197D01*
X25891Y17198D01*
X25876Y17200D01*
X25876Y17200D01*
X25398Y17100D02*
X25398Y18009D01*
X24995Y18009D01*
X24938Y18008D01*
X24888Y18003D01*
X24846Y17995D01*
X24810Y17985D01*
X24780Y17970D01*
X24753Y17951D01*
X24730Y17927D01*
X24709Y17898D01*
X24693Y17866D01*
X24681Y17833D01*
X24674Y17798D01*
X24671Y17761D01*
X24675Y17715D01*
X24687Y17672D01*
X24707Y17633D01*
X24734Y17598D01*
X24770Y17568D01*
X24814Y17544D01*
X24866Y17526D01*
X24897Y17520D01*
X24916Y17617D01*
X24890Y17625D01*
X24868Y17635D01*
X24849Y17647D01*
X24833Y17662D01*
X24820Y17679D01*
X24809Y17699D01*
X24801Y17719D01*
X24797Y17739D01*
X24795Y17761D01*
X24798Y17792D01*
X24807Y17820D01*
X24822Y17845D01*
X24842Y17867D01*
X24869Y17885D01*
X24903Y17898D01*
X24943Y17906D01*
X24990Y17909D01*
X25278Y17909D01*
X25278Y17608D01*
X25278Y17608D01*
X25019Y17608D01*
X24980Y17609D01*
X24946Y17612D01*
X24916Y17617D01*
X24897Y17520D01*
X24927Y17514D01*
X24905Y17502D01*
X24885Y17491D01*
X24869Y17480D01*
X24855Y17468D01*
X24829Y17443D01*
X24804Y17414D01*
X24779Y17382D01*
X24755Y17347D01*
X24597Y17100D01*
X24748Y17100D01*
X24869Y17289D01*
X24894Y17328D01*
X24917Y17361D01*
X24937Y17390D01*
X24955Y17414D01*
X24972Y17434D01*
X24988Y17451D01*
X25003Y17465D01*
X25016Y17475D01*
X25030Y17483D01*
X25044Y17490D01*
X25057Y17495D01*
X25071Y17499D01*
X25083Y17501D01*
X25098Y17503D01*
X25117Y17503D01*
X25138Y17504D01*
X25278Y17504D01*
X25278Y17100D01*
X25398Y17100D01*
X25398Y17100D01*
X24067Y17181D02*
X24098Y17157D01*
X24103Y17154D01*
X24145Y17216D01*
X24125Y17234D01*
X24108Y17255D01*
X24095Y17278D01*
X24087Y17299D01*
X24081Y17325D01*
X24078Y17355D01*
X24077Y17390D01*
X24077Y17431D01*
X24077Y17431D01*
X24111Y17419D01*
X24153Y17408D01*
X24202Y17398D01*
X24259Y17388D01*
X24291Y17383D01*
X24318Y17378D01*
X24340Y17372D01*
X24356Y17366D01*
X24370Y17359D01*
X24382Y17351D01*
X24392Y17341D01*
X24400Y17330D01*
X24407Y17317D01*
X24412Y17305D01*
X24415Y17291D01*
X24416Y17277D01*
X24414Y17255D01*
X24407Y17236D01*
X24397Y17218D01*
X24382Y17202D01*
X24363Y17189D01*
X24340Y17180D01*
X24314Y17174D01*
X24283Y17173D01*
X24252Y17174D01*
X24222Y17180D01*
X24194Y17188D01*
X24168Y17201D01*
X24145Y17216D01*
X24103Y17154D01*
X24128Y17136D01*
X24158Y17120D01*
X24187Y17107D01*
X24216Y17097D01*
X24246Y17091D01*
X24278Y17086D01*
X24310Y17085D01*
X24361Y17088D01*
X24406Y17098D01*
X24444Y17115D01*
X24477Y17138D01*
X24502Y17166D01*
X24520Y17199D01*
X24531Y17234D01*
X24535Y17274D01*
X24534Y17297D01*
X24529Y17320D01*
X24523Y17341D01*
X24513Y17362D01*
X24501Y17381D01*
X24488Y17398D01*
X24472Y17413D01*
X24455Y17426D01*
X24437Y17438D01*
X24417Y17447D01*
X24397Y17456D01*
X24375Y17463D01*
X24356Y17467D01*
X24334Y17471D01*
X24307Y17475D01*
X24276Y17480D01*
X24213Y17488D01*
X24158Y17497D01*
X24113Y17507D01*
X24077Y17518D01*
X24076Y17528D01*
X24076Y17537D01*
X24076Y17543D01*
X24076Y17547D01*
X24078Y17579D01*
X24084Y17605D01*
X24094Y17627D01*
X24108Y17643D01*
X24132Y17660D01*
X24161Y17672D01*
X24195Y17679D01*
X24235Y17681D01*
X24272Y17679D01*
X24303Y17674D01*
X24330Y17666D01*
X24351Y17653D01*
X24369Y17637D01*
X24384Y17615D01*
X24396Y17588D01*
X24407Y17556D01*
X24516Y17571D01*
X24507Y17604D01*
X24496Y17634D01*
X24483Y17661D01*
X24467Y17684D01*
X24448Y17704D01*
X24425Y17722D01*
X24398Y17737D01*
X24368Y17750D01*
X24335Y17760D01*
X24299Y17768D01*
X24260Y17772D01*
X24219Y17773D01*
X24179Y17772D01*
X24142Y17768D01*
X24110Y17762D01*
X24082Y17754D01*
X24057Y17743D01*
X24036Y17731D01*
X24018Y17718D01*
X24004Y17704D01*
X23993Y17688D01*
X23983Y17670D01*
X23975Y17650D01*
X23969Y17628D01*
X23967Y17611D01*
X23965Y17588D01*
X23964Y17559D01*
X23964Y17525D01*
X23964Y17376D01*
X23963Y17305D01*
X23962Y17249D01*
X23960Y17207D01*
X23957Y17179D01*
X23952Y17159D01*
X23946Y17139D01*
X23938Y17119D01*
X23928Y17100D01*
X24045Y17100D01*
X24053Y17118D01*
X24059Y17138D01*
X24064Y17159D01*
X24067Y17181D01*
X24067Y17181D01*
X23790Y17100D02*
X23790Y17759D01*
X23679Y17759D01*
X23679Y17100D01*
X23790Y17100D01*
X23790Y17100D01*
X23790Y17881D02*
X23790Y18009D01*
X23679Y18009D01*
X23679Y17881D01*
X23790Y17881D01*
X23790Y17881D01*
X23509Y17100D02*
X23509Y17759D01*
X23408Y17759D01*
X23408Y17665D01*
X23368Y17712D01*
X23320Y17746D01*
X23263Y17767D01*
X23199Y17773D01*
X23169Y17772D01*
X23141Y17768D01*
X23115Y17761D01*
X23089Y17752D01*
X23066Y17741D01*
X23046Y17727D01*
X23028Y17712D01*
X23014Y17696D01*
X23003Y17678D01*
X22993Y17658D01*
X22986Y17637D01*
X22980Y17613D01*
X22977Y17595D01*
X22975Y17571D01*
X22974Y17541D01*
X22974Y17505D01*
X22974Y17100D01*
X23085Y17100D01*
X23085Y17501D01*
X23086Y17533D01*
X23088Y17560D01*
X23092Y17584D01*
X23098Y17603D01*
X23106Y17619D01*
X23116Y17633D01*
X23129Y17646D01*
X23144Y17657D01*
X23162Y17665D01*
X23180Y17672D01*
X23201Y17675D01*
X23222Y17677D01*
X23257Y17674D01*
X23289Y17665D01*
X23318Y17651D01*
X23345Y17631D01*
X23368Y17604D01*
X23384Y17566D01*
X23394Y17518D01*
X23397Y17460D01*
X23397Y17100D01*
X23509Y17100D01*
X23509Y17100D01*
X22802Y17100D02*
X22802Y17759D01*
X22690Y17759D01*
X22690Y17100D01*
X22802Y17100D01*
X22802Y17100D01*
X22802Y17881D02*
X22802Y18009D01*
X22690Y18009D01*
X22690Y17881D01*
X22802Y17881D01*
X22802Y17881D01*
X22069Y17312D02*
X21954Y17298D01*
X21971Y17250D01*
X21993Y17208D01*
X22021Y17172D01*
X22055Y17141D01*
X22095Y17117D01*
X22139Y17099D01*
X22189Y17089D01*
X22244Y17085D01*
X22312Y17091D01*
X22373Y17107D01*
X22427Y17135D01*
X22473Y17174D01*
X22510Y17223D01*
X22536Y17281D01*
X22552Y17348D01*
X22557Y17424D01*
X22552Y17502D01*
X22536Y17571D01*
X22509Y17631D01*
X22472Y17682D01*
X22426Y17722D01*
X22374Y17751D01*
X22315Y17768D01*
X22250Y17773D01*
X22241Y17773D01*
X22249Y17682D01*
X22286Y17678D01*
X22319Y17669D01*
X22350Y17653D01*
X22378Y17630D01*
X22401Y17602D01*
X22419Y17570D01*
X22430Y17533D01*
X22436Y17493D01*
X22436Y17493D01*
X22068Y17493D01*
X22074Y17531D01*
X22082Y17565D01*
X22095Y17594D01*
X22110Y17617D01*
X22139Y17645D01*
X22172Y17666D01*
X22208Y17678D01*
X22249Y17682D01*
X22241Y17773D01*
X22187Y17768D01*
X22130Y17751D01*
X22079Y17723D01*
X22034Y17684D01*
X21997Y17634D01*
X21971Y17575D01*
X21956Y17507D01*
X21950Y17431D01*
X21950Y17425D01*
X21951Y17418D01*
X21951Y17410D01*
X21951Y17401D01*
X22442Y17401D01*
X22436Y17350D01*
X22424Y17305D01*
X22405Y17267D01*
X22381Y17235D01*
X22351Y17209D01*
X22319Y17191D01*
X22283Y17180D01*
X22243Y17177D01*
X22213Y17179D01*
X22186Y17185D01*
X22161Y17195D01*
X22138Y17209D01*
X22118Y17228D01*
X22099Y17251D01*
X22083Y17279D01*
X22069Y17312D01*
X22069Y17312D01*
X21815Y17100D02*
X21815Y17759D01*
X21715Y17759D01*
X21715Y17659D01*
X21696Y17691D01*
X21678Y17717D01*
X21660Y17737D01*
X21644Y17751D01*
X21627Y17761D01*
X21610Y17768D01*
X21591Y17772D01*
X21572Y17773D01*
X21544Y17771D01*
X21515Y17764D01*
X21486Y17753D01*
X21457Y17737D01*
X21496Y17634D01*
X21516Y17645D01*
X21537Y17652D01*
X21557Y17657D01*
X21578Y17658D01*
X21595Y17657D01*
X21612Y17653D01*
X21628Y17646D01*
X21643Y17636D01*
X21657Y17624D01*
X21668Y17610D01*
X21678Y17593D01*
X21685Y17575D01*
X21693Y17545D01*
X21699Y17513D01*
X21702Y17479D01*
X21704Y17445D01*
X21704Y17100D01*
X21815Y17100D01*
X21815Y17100D01*
X31108Y12095D02*
X31087Y12189D01*
X31071Y12186D01*
X31057Y12183D01*
X31045Y12181D01*
X31034Y12181D01*
X31019Y12182D01*
X31005Y12186D01*
X30993Y12193D01*
X30984Y12203D01*
X30976Y12219D01*
X30971Y12243D01*
X30968Y12275D01*
X30967Y12317D01*
X30967Y13009D01*
X30855Y13009D01*
X30855Y12314D01*
X30857Y12258D01*
X30863Y12211D01*
X30873Y12173D01*
X30887Y12145D01*
X30910Y12118D01*
X30941Y12098D01*
X30977Y12087D01*
X31021Y12083D01*
X31043Y12083D01*
X31065Y12086D01*
X31087Y12089D01*
X31108Y12095D01*
X31108Y12095D01*
X30967Y13129D02*
X30967Y13259D01*
X30855Y13259D01*
X30855Y13129D01*
X30967Y13129D01*
X30967Y13129D01*
X30685Y12350D02*
X30685Y13009D01*
X30585Y13009D01*
X30585Y12909D01*
X30566Y12941D01*
X30548Y12967D01*
X30531Y12987D01*
X30514Y13001D01*
X30497Y13011D01*
X30480Y13018D01*
X30461Y13022D01*
X30442Y13023D01*
X30414Y13021D01*
X30385Y13014D01*
X30357Y13003D01*
X30328Y12987D01*
X30366Y12884D01*
X30387Y12895D01*
X30407Y12902D01*
X30427Y12907D01*
X30448Y12908D01*
X30466Y12907D01*
X30483Y12903D01*
X30499Y12896D01*
X30514Y12886D01*
X30527Y12874D01*
X30539Y12860D01*
X30548Y12843D01*
X30555Y12825D01*
X30563Y12795D01*
X30569Y12763D01*
X30573Y12729D01*
X30574Y12695D01*
X30574Y12350D01*
X30685Y12350D01*
X30685Y12350D01*
X29832Y12431D02*
X29862Y12407D01*
X29867Y12404D01*
X29909Y12466D01*
X29889Y12484D01*
X29872Y12505D01*
X29859Y12528D01*
X29851Y12549D01*
X29845Y12575D01*
X29842Y12605D01*
X29841Y12640D01*
X29841Y12681D01*
X29841Y12681D01*
X29875Y12669D01*
X29917Y12658D01*
X29966Y12648D01*
X30023Y12638D01*
X30055Y12633D01*
X30082Y12628D01*
X30104Y12622D01*
X30120Y12616D01*
X30134Y12609D01*
X30146Y12601D01*
X30156Y12591D01*
X30165Y12580D01*
X30171Y12567D01*
X30176Y12555D01*
X30179Y12541D01*
X30180Y12527D01*
X30178Y12505D01*
X30172Y12486D01*
X30161Y12468D01*
X30146Y12452D01*
X30127Y12439D01*
X30105Y12430D01*
X30078Y12424D01*
X30047Y12423D01*
X30016Y12424D01*
X29986Y12430D01*
X29959Y12438D01*
X29933Y12451D01*
X29909Y12466D01*
X29867Y12404D01*
X29892Y12386D01*
X29922Y12370D01*
X29951Y12357D01*
X29980Y12347D01*
X30010Y12341D01*
X30042Y12336D01*
X30074Y12335D01*
X30125Y12338D01*
X30170Y12348D01*
X30209Y12365D01*
X30241Y12388D01*
X30266Y12416D01*
X30285Y12449D01*
X30295Y12484D01*
X30299Y12524D01*
X30298Y12547D01*
X30294Y12570D01*
X30287Y12591D01*
X30277Y12612D01*
X30265Y12631D01*
X30252Y12648D01*
X30236Y12663D01*
X30219Y12676D01*
X30201Y12688D01*
X30182Y12697D01*
X30161Y12706D01*
X30139Y12713D01*
X30121Y12717D01*
X30098Y12721D01*
X30071Y12725D01*
X30040Y12730D01*
X29977Y12738D01*
X29923Y12747D01*
X29877Y12757D01*
X29841Y12768D01*
X29841Y12778D01*
X29840Y12787D01*
X29840Y12793D01*
X29840Y12797D01*
X29842Y12829D01*
X29848Y12855D01*
X29858Y12877D01*
X29872Y12893D01*
X29896Y12910D01*
X29925Y12922D01*
X29959Y12929D01*
X29999Y12931D01*
X30036Y12929D01*
X30067Y12924D01*
X30094Y12916D01*
X30115Y12903D01*
X30133Y12887D01*
X30148Y12865D01*
X30161Y12838D01*
X30171Y12806D01*
X30280Y12821D01*
X30271Y12854D01*
X30260Y12884D01*
X30247Y12911D01*
X30231Y12934D01*
X30212Y12954D01*
X30189Y12972D01*
X30163Y12987D01*
X30132Y13000D01*
X30099Y13010D01*
X30063Y13018D01*
X30024Y13022D01*
X29983Y13023D01*
X29943Y13022D01*
X29906Y13018D01*
X29874Y13012D01*
X29846Y13004D01*
X29821Y12993D01*
X29800Y12981D01*
X29782Y12968D01*
X29768Y12954D01*
X29757Y12938D01*
X29747Y12920D01*
X29739Y12900D01*
X29734Y12878D01*
X29731Y12861D01*
X29729Y12838D01*
X29728Y12809D01*
X29728Y12775D01*
X29728Y12626D01*
X29728Y12555D01*
X29726Y12499D01*
X29724Y12457D01*
X29721Y12429D01*
X29716Y12409D01*
X29710Y12389D01*
X29702Y12369D01*
X29693Y12350D01*
X29809Y12350D01*
X29817Y12368D01*
X29823Y12388D01*
X29828Y12409D01*
X29832Y12431D01*
X29832Y12431D01*
X29554Y12350D02*
X29554Y13009D01*
X29443Y13009D01*
X29443Y12350D01*
X29554Y12350D01*
X29554Y12350D01*
X29554Y13131D02*
X29554Y13259D01*
X29443Y13259D01*
X29443Y13131D01*
X29554Y13131D01*
X29554Y13131D01*
X29273Y12350D02*
X29273Y13009D01*
X29172Y13009D01*
X29172Y12915D01*
X29132Y12962D01*
X29084Y12996D01*
X29027Y13017D01*
X28963Y13023D01*
X28934Y13022D01*
X28906Y13018D01*
X28879Y13011D01*
X28853Y13002D01*
X28830Y12991D01*
X28810Y12977D01*
X28793Y12962D01*
X28779Y12946D01*
X28767Y12928D01*
X28758Y12908D01*
X28750Y12887D01*
X28744Y12863D01*
X28741Y12845D01*
X28739Y12821D01*
X28738Y12791D01*
X28738Y12755D01*
X28738Y12350D01*
X28849Y12350D01*
X28849Y12751D01*
X28850Y12783D01*
X28853Y12810D01*
X28857Y12834D01*
X28862Y12853D01*
X28870Y12869D01*
X28880Y12883D01*
X28893Y12896D01*
X28908Y12907D01*
X28926Y12915D01*
X28945Y12922D01*
X28965Y12925D01*
X28986Y12927D01*
X29021Y12924D01*
X29053Y12915D01*
X29082Y12901D01*
X29109Y12881D01*
X29132Y12854D01*
X29148Y12816D01*
X29158Y12768D01*
X29161Y12710D01*
X29161Y12350D01*
X29273Y12350D01*
X29273Y12350D01*
X28566Y12350D02*
X28566Y13009D01*
X28454Y13009D01*
X28454Y12350D01*
X28566Y12350D01*
X28566Y12350D01*
X28566Y13131D02*
X28566Y13259D01*
X28454Y13259D01*
X28454Y13131D01*
X28566Y13131D01*
X28566Y13131D01*
X28284Y12350D02*
X28284Y13009D01*
X28185Y13009D01*
X28185Y12916D01*
X28168Y12939D01*
X28148Y12960D01*
X28127Y12978D01*
X28102Y12994D01*
X28075Y13007D01*
X28047Y13016D01*
X28017Y13022D01*
X27985Y13023D01*
X27950Y13022D01*
X27918Y13016D01*
X27890Y13006D01*
X27865Y12993D01*
X27843Y12976D01*
X27825Y12957D01*
X27810Y12934D01*
X27799Y12908D01*
X27757Y12959D01*
X27709Y12995D01*
X27655Y13016D01*
X27595Y13023D01*
X27549Y13020D01*
X27509Y13010D01*
X27474Y12993D01*
X27445Y12969D01*
X27422Y12938D01*
X27405Y12900D01*
X27395Y12855D01*
X27392Y12802D01*
X27392Y12350D01*
X27503Y12350D01*
X27503Y12765D01*
X27504Y12796D01*
X27506Y12822D01*
X27509Y12844D01*
X27514Y12861D01*
X27520Y12875D01*
X27529Y12888D01*
X27540Y12899D01*
X27553Y12909D01*
X27568Y12917D01*
X27584Y12922D01*
X27602Y12926D01*
X27620Y12927D01*
X27653Y12924D01*
X27684Y12915D01*
X27711Y12901D01*
X27736Y12881D01*
X27756Y12854D01*
X27770Y12820D01*
X27779Y12780D01*
X27781Y12733D01*
X27781Y12350D01*
X27893Y12350D01*
X27893Y12778D01*
X27895Y12813D01*
X27900Y12843D01*
X27908Y12869D01*
X27920Y12890D01*
X27936Y12906D01*
X27956Y12917D01*
X27981Y12924D01*
X28010Y12927D01*
X28033Y12925D01*
X28055Y12921D01*
X28076Y12913D01*
X28097Y12902D01*
X28115Y12888D01*
X28131Y12871D01*
X28144Y12852D01*
X28155Y12829D01*
X28163Y12803D01*
X28168Y12771D01*
X28172Y12734D01*
X28173Y12692D01*
X28173Y12350D01*
X28284Y12350D01*
X28284Y12350D01*
X27268Y12679D02*
X27262Y12765D01*
X27243Y12838D01*
X27211Y12900D01*
X27166Y12950D01*
X27121Y12982D01*
X27072Y13005D01*
X27018Y13019D01*
X26959Y13023D01*
X26894Y13018D01*
X26836Y13001D01*
X26783Y12973D01*
X26737Y12934D01*
X26699Y12886D01*
X26673Y12828D01*
X26656Y12763D01*
X26651Y12689D01*
X26653Y12628D01*
X26660Y12575D01*
X26672Y12528D01*
X26689Y12489D01*
X26710Y12454D01*
X26736Y12424D01*
X26766Y12398D01*
X26800Y12375D01*
X26837Y12358D01*
X26876Y12345D01*
X26917Y12338D01*
X26959Y12335D01*
X26967Y12336D01*
X26959Y12427D01*
X26919Y12431D01*
X26883Y12443D01*
X26850Y12462D01*
X26821Y12490D01*
X26797Y12526D01*
X26779Y12570D01*
X26769Y12622D01*
X26766Y12683D01*
X26769Y12740D01*
X26780Y12790D01*
X26797Y12833D01*
X26821Y12868D01*
X26851Y12896D01*
X26883Y12915D01*
X26920Y12927D01*
X26959Y12931D01*
X26999Y12927D01*
X27036Y12915D01*
X27069Y12896D01*
X27098Y12868D01*
X27122Y12833D01*
X27139Y12790D01*
X27150Y12739D01*
X27153Y12679D01*
X27153Y12679D01*
X27150Y12620D01*
X27139Y12569D01*
X27122Y12525D01*
X27098Y12490D01*
X27069Y12462D01*
X27036Y12443D01*
X26999Y12431D01*
X26959Y12427D01*
X26967Y12336D01*
X27025Y12341D01*
X27084Y12357D01*
X27137Y12385D01*
X27183Y12424D01*
X27220Y12473D01*
X27247Y12532D01*
X27263Y12601D01*
X27268Y12679D01*
X27268Y12679D01*
X26488Y12350D02*
X26488Y12477D01*
X26361Y12477D01*
X26361Y12350D01*
X26488Y12350D01*
X26488Y12350D01*
X25738Y12591D02*
X25628Y12577D01*
X25640Y12523D01*
X25660Y12476D01*
X25686Y12434D01*
X25720Y12399D01*
X25759Y12371D01*
X25802Y12351D01*
X25850Y12339D01*
X25902Y12335D01*
X25966Y12341D01*
X26024Y12357D01*
X26075Y12385D01*
X26119Y12423D01*
X26155Y12472D01*
X26181Y12531D01*
X26196Y12599D01*
X26201Y12677D01*
X26199Y12728D01*
X26193Y12777D01*
X26181Y12822D01*
X26166Y12863D01*
X26146Y12901D01*
X26121Y12933D01*
X26092Y12961D01*
X26058Y12983D01*
X26022Y13001D01*
X25983Y13013D01*
X25943Y13021D01*
X25901Y13023D01*
X25850Y13020D01*
X25804Y13010D01*
X25762Y12993D01*
X25726Y12969D01*
X25695Y12939D01*
X25670Y12904D01*
X25651Y12862D01*
X25638Y12815D01*
X25747Y12798D01*
X25756Y12829D01*
X25768Y12856D01*
X25784Y12879D01*
X25802Y12898D01*
X25822Y12913D01*
X25845Y12923D01*
X25870Y12930D01*
X25897Y12932D01*
X25937Y12928D01*
X25973Y12917D01*
X26006Y12898D01*
X26034Y12871D01*
X26057Y12837D01*
X26073Y12793D01*
X26083Y12741D01*
X26087Y12680D01*
X26083Y12618D01*
X26074Y12565D01*
X26058Y12522D01*
X26036Y12487D01*
X26008Y12461D01*
X25977Y12442D01*
X25942Y12431D01*
X25903Y12427D01*
X25872Y12429D01*
X25843Y12437D01*
X25817Y12450D01*
X25793Y12467D01*
X25773Y12490D01*
X25757Y12518D01*
X25745Y12552D01*
X25738Y12591D01*
X25738Y12591D01*
X25574Y12679D02*
X25567Y12765D01*
X25548Y12838D01*
X25517Y12900D01*
X25472Y12950D01*
X25427Y12982D01*
X25378Y13005D01*
X25324Y13019D01*
X25265Y13023D01*
X25200Y13018D01*
X25142Y13001D01*
X25089Y12973D01*
X25043Y12934D01*
X25005Y12886D01*
X24978Y12828D01*
X24962Y12763D01*
X24957Y12689D01*
X24959Y12628D01*
X24966Y12575D01*
X24978Y12528D01*
X24995Y12489D01*
X25016Y12454D01*
X25042Y12424D01*
X25072Y12398D01*
X25106Y12375D01*
X25143Y12358D01*
X25182Y12345D01*
X25223Y12338D01*
X25265Y12335D01*
X25273Y12336D01*
X25265Y12427D01*
X25225Y12431D01*
X25189Y12443D01*
X25156Y12462D01*
X25127Y12490D01*
X25103Y12526D01*
X25085Y12570D01*
X25075Y12622D01*
X25071Y12683D01*
X25075Y12740D01*
X25085Y12790D01*
X25103Y12833D01*
X25127Y12868D01*
X25156Y12896D01*
X25189Y12915D01*
X25225Y12927D01*
X25265Y12931D01*
X25305Y12927D01*
X25342Y12915D01*
X25374Y12896D01*
X25404Y12868D01*
X25428Y12833D01*
X25445Y12790D01*
X25456Y12739D01*
X25459Y12679D01*
X25459Y12679D01*
X25456Y12620D01*
X25445Y12569D01*
X25428Y12525D01*
X25404Y12490D01*
X25374Y12462D01*
X25342Y12443D01*
X25305Y12431D01*
X25265Y12427D01*
X25273Y12336D01*
X25331Y12341D01*
X25390Y12357D01*
X25443Y12385D01*
X25489Y12424D01*
X25526Y12473D01*
X25552Y12532D01*
X25568Y12601D01*
X25574Y12679D01*
X25574Y12679D01*
X24826Y12350D02*
X24826Y13009D01*
X24726Y13009D01*
X24726Y12916D01*
X24709Y12939D01*
X24690Y12960D01*
X24668Y12978D01*
X24644Y12994D01*
X24617Y13007D01*
X24589Y13016D01*
X24558Y13022D01*
X24526Y13023D01*
X24491Y13022D01*
X24460Y13016D01*
X24431Y13006D01*
X24406Y12993D01*
X24385Y12976D01*
X24366Y12957D01*
X24352Y12934D01*
X24340Y12908D01*
X24298Y12959D01*
X24250Y12995D01*
X24197Y13016D01*
X24137Y13023D01*
X24091Y13020D01*
X24050Y13010D01*
X24015Y12993D01*
X23986Y12969D01*
X23963Y12938D01*
X23947Y12900D01*
X23937Y12855D01*
X23934Y12802D01*
X23934Y12350D01*
X24045Y12350D01*
X24045Y12765D01*
X24045Y12796D01*
X24047Y12822D01*
X24051Y12844D01*
X24055Y12861D01*
X24062Y12875D01*
X24071Y12888D01*
X24082Y12899D01*
X24095Y12909D01*
X24110Y12917D01*
X24126Y12922D01*
X24143Y12926D01*
X24162Y12927D01*
X24195Y12924D01*
X24225Y12915D01*
X24253Y12901D01*
X24277Y12881D01*
X24297Y12854D01*
X24312Y12820D01*
X24320Y12780D01*
X24323Y12733D01*
X24323Y12350D01*
X24435Y12350D01*
X24435Y12778D01*
X24436Y12813D01*
X24441Y12843D01*
X24450Y12869D01*
X24462Y12890D01*
X24478Y12906D01*
X24498Y12917D01*
X24522Y12924D01*
X24551Y12927D01*
X24574Y12925D01*
X24597Y12921D01*
X24618Y12913D01*
X24638Y12902D01*
X24657Y12888D01*
X24673Y12871D01*
X24686Y12852D01*
X24696Y12829D01*
X24704Y12803D01*
X24710Y12771D01*
X24713Y12734D01*
X24714Y12692D01*
X24714Y12350D01*
X24826Y12350D01*
X24826Y12350D01*
G37*
M02*