%FSLAX33Y33*%
%MOMM*%
%AMRect-W1550000-H1550000-RO1.750*
21,1,1.55,1.55,0.,0.,45*%
%ADD10C,0.0508*%
%ADD11C,0.508*%
%ADD12C,1.0668*%
%ADD13C,1.55*%
%ADD14Rect-W1550000-H1550000-RO1.750*%
D10*
%LNpour fill*%
G01*
X38650Y6516D02*
X38650Y6516D01*
X35800Y6516*
X35800Y5450*
X38650Y5450*
X38650Y6516*
X35800Y5475D02*
X38650Y5475D01*
X35800Y5524D02*
X38650Y5524D01*
X35800Y5574D02*
X38650Y5574D01*
X35800Y5623D02*
X38650Y5623D01*
X35800Y5673D02*
X38650Y5673D01*
X35800Y5722D02*
X38650Y5722D01*
X35800Y5772D02*
X38650Y5772D01*
X35800Y5821D02*
X38650Y5821D01*
X35800Y5871D02*
X38650Y5871D01*
X35800Y5920D02*
X38650Y5920D01*
X35800Y5970D02*
X38650Y5970D01*
X35800Y6019D02*
X38650Y6019D01*
X35800Y6069D02*
X38650Y6069D01*
X35800Y6118D02*
X38650Y6118D01*
X35800Y6168D02*
X38650Y6168D01*
X35800Y6217D02*
X38650Y6217D01*
X35800Y6267D02*
X38650Y6267D01*
X35800Y6317D02*
X38650Y6317D01*
X35800Y6366D02*
X38650Y6366D01*
X35800Y6416D02*
X38650Y6416D01*
X35800Y6465D02*
X38650Y6465D01*
X35800Y6515D02*
X38650Y6515D01*
%LNpour fill*%
X46050Y10650D02*
X46050Y10650D01*
X43600Y10650*
X43600Y9084*
X46050Y9084*
X46050Y10650*
X43600Y9108D02*
X46050Y9108D01*
X43600Y9157D02*
X46050Y9157D01*
X43600Y9207D02*
X46050Y9207D01*
X43600Y9256D02*
X46050Y9256D01*
X43600Y9306D02*
X46050Y9306D01*
X43600Y9355D02*
X46050Y9355D01*
X43600Y9405D02*
X46050Y9405D01*
X43600Y9454D02*
X46050Y9454D01*
X43600Y9504D02*
X46050Y9504D01*
X43600Y9554D02*
X46050Y9554D01*
X43600Y9603D02*
X46050Y9603D01*
X43600Y9653D02*
X46050Y9653D01*
X43600Y9702D02*
X46050Y9702D01*
X43600Y9752D02*
X46050Y9752D01*
X43600Y9801D02*
X46050Y9801D01*
X43600Y9851D02*
X46050Y9851D01*
X43600Y9900D02*
X46050Y9900D01*
X43600Y9950D02*
X46050Y9950D01*
X43600Y9999D02*
X46050Y9999D01*
X43600Y10049D02*
X46050Y10049D01*
X43600Y10098D02*
X46050Y10098D01*
X43600Y10148D02*
X46050Y10148D01*
X43600Y10197D02*
X46050Y10197D01*
X43600Y10247D02*
X46050Y10247D01*
X43600Y10296D02*
X46050Y10296D01*
X43600Y10346D02*
X46050Y10346D01*
X43600Y10396D02*
X46050Y10396D01*
X43600Y10445D02*
X46050Y10445D01*
X43600Y10495D02*
X46050Y10495D01*
X43600Y10544D02*
X46050Y10544D01*
X43600Y10594D02*
X46050Y10594D01*
X43600Y10643D02*
X46050Y10643D01*
%LNpour fill*%
X42525Y10575D02*
X42525Y10575D01*
X39825Y10575*
X39825Y9084*
X42525Y9084*
X42525Y10575*
X39825Y9108D02*
X42525Y9108D01*
X39825Y9157D02*
X42525Y9157D01*
X39825Y9207D02*
X42525Y9207D01*
X39825Y9256D02*
X42525Y9256D01*
X39825Y9306D02*
X42525Y9306D01*
X39825Y9355D02*
X42525Y9355D01*
X39825Y9405D02*
X42525Y9405D01*
X39825Y9454D02*
X42525Y9454D01*
X39825Y9504D02*
X42525Y9504D01*
X39825Y9554D02*
X42525Y9554D01*
X39825Y9603D02*
X42525Y9603D01*
X39825Y9653D02*
X42525Y9653D01*
X39825Y9702D02*
X42525Y9702D01*
X39825Y9752D02*
X42525Y9752D01*
X39825Y9801D02*
X42525Y9801D01*
X39825Y9851D02*
X42525Y9851D01*
X39825Y9900D02*
X42525Y9900D01*
X39825Y9950D02*
X42525Y9950D01*
X39825Y9999D02*
X42525Y9999D01*
X39825Y10049D02*
X42525Y10049D01*
X39825Y10098D02*
X42525Y10098D01*
X39825Y10148D02*
X42525Y10148D01*
X39825Y10197D02*
X42525Y10197D01*
X39825Y10247D02*
X42525Y10247D01*
X39825Y10296D02*
X42525Y10296D01*
X39825Y10346D02*
X42525Y10346D01*
X39825Y10396D02*
X42525Y10396D01*
X39825Y10445D02*
X42525Y10445D01*
X39825Y10495D02*
X42525Y10495D01*
X39825Y10544D02*
X42525Y10544D01*
%LNpour fill*%
X29166Y8601D02*
X29166Y8601D01*
X29166Y8602*
X29175Y8693*
X29176Y8696*
X29203Y8784*
X29204Y8786*
X29247Y8868*
X29249Y8870*
X29307Y8941*
X29309Y8943*
X29380Y9001*
X29382Y9003*
X29464Y9046*
X29466Y9047*
X29554Y9074*
X29557Y9075*
X29648Y9084*
X29649Y9084*
X31225Y9084*
X31225Y9631*
X30515Y9836*
X30514Y9836*
X30429Y9870*
X30427Y9871*
X30349Y9921*
X30347Y9923*
X30281Y9987*
X30280Y9989*
X30227Y10065*
X30226Y10067*
X30209Y10107*
X29691Y10625*
X28525Y10625*
X28525Y8425*
X29166Y8425*
X29166Y8601*
X28525Y8450D02*
X29166Y8450D01*
X28525Y8499D02*
X29166Y8499D01*
X28525Y8549D02*
X29166Y8549D01*
X28525Y8598D02*
X29166Y8598D01*
X28525Y8648D02*
X29171Y8648D01*
X28525Y8697D02*
X29176Y8697D01*
X28525Y8747D02*
X29191Y8747D01*
X28525Y8796D02*
X29209Y8796D01*
X28525Y8846D02*
X29236Y8846D01*
X28525Y8895D02*
X29270Y8895D01*
X28525Y8945D02*
X29311Y8945D01*
X28525Y8994D02*
X29372Y8994D01*
X28525Y9044D02*
X29459Y9044D01*
X28525Y9093D02*
X31225Y9093D01*
X28525Y9143D02*
X31225Y9143D01*
X28525Y9192D02*
X31225Y9192D01*
X28525Y9242D02*
X31225Y9242D01*
X28525Y9292D02*
X31225Y9292D01*
X28525Y9341D02*
X31225Y9341D01*
X28525Y9391D02*
X31225Y9391D01*
X28525Y9440D02*
X31225Y9440D01*
X28525Y9490D02*
X31225Y9490D01*
X28525Y9539D02*
X31225Y9539D01*
X28525Y9589D02*
X31225Y9589D01*
X28525Y9638D02*
X31199Y9638D01*
X28525Y9688D02*
X31028Y9688D01*
X28525Y9737D02*
X30856Y9737D01*
X28525Y9787D02*
X30684Y9787D01*
X28525Y9836D02*
X30513Y9836D01*
X28525Y9886D02*
X30404Y9886D01*
X28525Y9935D02*
X30334Y9935D01*
X28525Y9985D02*
X30283Y9985D01*
X28525Y10034D02*
X30248Y10034D01*
X28525Y10084D02*
X30219Y10084D01*
X28525Y10134D02*
X30183Y10134D01*
X28525Y10183D02*
X30133Y10183D01*
X28525Y10233D02*
X30083Y10233D01*
X28525Y10282D02*
X30034Y10282D01*
X28525Y10332D02*
X29984Y10332D01*
X28525Y10381D02*
X29935Y10381D01*
X28525Y10431D02*
X29885Y10431D01*
X28525Y10480D02*
X29836Y10480D01*
X28525Y10530D02*
X29786Y10530D01*
X28525Y10579D02*
X29737Y10579D01*
%LNpour fill*%
X38575Y10716D02*
X38575Y10716D01*
X35875Y10716*
X35875Y9084*
X38575Y9084*
X38575Y10716*
X35875Y9108D02*
X38575Y9108D01*
X35875Y9157D02*
X38575Y9157D01*
X35875Y9207D02*
X38575Y9207D01*
X35875Y9256D02*
X38575Y9256D01*
X35875Y9306D02*
X38575Y9306D01*
X35875Y9355D02*
X38575Y9355D01*
X35875Y9405D02*
X38575Y9405D01*
X35875Y9454D02*
X38575Y9454D01*
X35875Y9504D02*
X38575Y9504D01*
X35875Y9554D02*
X38575Y9554D01*
X35875Y9603D02*
X38575Y9603D01*
X35875Y9653D02*
X38575Y9653D01*
X35875Y9702D02*
X38575Y9702D01*
X35875Y9752D02*
X38575Y9752D01*
X35875Y9801D02*
X38575Y9801D01*
X35875Y9851D02*
X38575Y9851D01*
X35875Y9900D02*
X38575Y9900D01*
X35875Y9950D02*
X38575Y9950D01*
X35875Y9999D02*
X38575Y9999D01*
X35875Y10049D02*
X38575Y10049D01*
X35875Y10098D02*
X38575Y10098D01*
X35875Y10148D02*
X38575Y10148D01*
X35875Y10197D02*
X38575Y10197D01*
X35875Y10247D02*
X38575Y10247D01*
X35875Y10296D02*
X38575Y10296D01*
X35875Y10346D02*
X38575Y10346D01*
X35875Y10396D02*
X38575Y10396D01*
X35875Y10445D02*
X38575Y10445D01*
X35875Y10495D02*
X38575Y10495D01*
X35875Y10544D02*
X38575Y10544D01*
X35875Y10594D02*
X38575Y10594D01*
X35875Y10643D02*
X38575Y10643D01*
X35875Y10693D02*
X38575Y10693D01*
%LNpour fill*%
X42275Y6516D02*
X42275Y6516D01*
X39902Y6516*
X39828Y5725*
X42275Y5725*
X42275Y6516*
X39830Y5750D02*
X42275Y5750D01*
X39835Y5799D02*
X42275Y5799D01*
X39839Y5849D02*
X42275Y5849D01*
X39844Y5898D02*
X42275Y5898D01*
X39849Y5948D02*
X42275Y5948D01*
X39853Y5997D02*
X42275Y5997D01*
X39858Y6047D02*
X42275Y6047D01*
X39863Y6096D02*
X42275Y6096D01*
X39867Y6146D02*
X42275Y6146D01*
X39872Y6195D02*
X42275Y6195D01*
X39877Y6245D02*
X42275Y6245D01*
X39881Y6294D02*
X42275Y6294D01*
X39886Y6344D02*
X42275Y6344D01*
X39891Y6393D02*
X42275Y6393D01*
X39895Y6443D02*
X42275Y6443D01*
X39900Y6492D02*
X42275Y6492D01*
%LNpour fill*%
X30700Y6516D02*
X30700Y6516D01*
X29649Y6516*
X29648Y6516*
X29557Y6525*
X29554Y6526*
X29466Y6553*
X29464Y6554*
X29382Y6597*
X29380Y6599*
X29309Y6657*
X29307Y6659*
X29249Y6730*
X29247Y6732*
X29204Y6814*
X29203Y6816*
X29176Y6904*
X29175Y6907*
X29166Y6998*
X29166Y6999*
X29166Y7450*
X28250Y7450*
X28250Y5500*
X30700Y5500*
X30700Y6516*
X28250Y5525D02*
X30700Y5525D01*
X28250Y5574D02*
X30700Y5574D01*
X28250Y5624D02*
X30700Y5624D01*
X28250Y5673D02*
X30700Y5673D01*
X28250Y5723D02*
X30700Y5723D01*
X28250Y5772D02*
X30700Y5772D01*
X28250Y5822D02*
X30700Y5822D01*
X28250Y5871D02*
X30700Y5871D01*
X28250Y5921D02*
X30700Y5921D01*
X28250Y5970D02*
X30700Y5970D01*
X28250Y6020D02*
X30700Y6020D01*
X28250Y6069D02*
X30700Y6069D01*
X28250Y6119D02*
X30700Y6119D01*
X28250Y6168D02*
X30700Y6168D01*
X28250Y6218D02*
X30700Y6218D01*
X28250Y6267D02*
X30700Y6267D01*
X28250Y6317D02*
X30700Y6317D01*
X28250Y6367D02*
X30700Y6367D01*
X28250Y6416D02*
X30700Y6416D01*
X28250Y6466D02*
X30700Y6466D01*
X28250Y6515D02*
X30700Y6515D01*
X28250Y6565D02*
X29443Y6565D01*
X28250Y6614D02*
X29361Y6614D01*
X28250Y6664D02*
X29303Y6664D01*
X28250Y6713D02*
X29263Y6713D01*
X28250Y6763D02*
X29231Y6763D01*
X28250Y6812D02*
X29204Y6812D01*
X28250Y6862D02*
X29189Y6862D01*
X28250Y6911D02*
X29175Y6911D01*
X28250Y6961D02*
X29170Y6961D01*
X28250Y7010D02*
X29166Y7010D01*
X28250Y7060D02*
X29166Y7060D01*
X28250Y7109D02*
X29166Y7109D01*
X28250Y7159D02*
X29166Y7159D01*
X28250Y7209D02*
X29166Y7209D01*
X28250Y7258D02*
X29166Y7258D01*
X28250Y7308D02*
X29166Y7308D01*
X28250Y7357D02*
X29166Y7357D01*
X28250Y7407D02*
X29166Y7407D01*
%LNpour fill*%
X35050Y6516D02*
X35050Y6516D01*
X32300Y6516*
X32300Y5300*
X35050Y5300*
X35050Y6516*
X32300Y5325D02*
X35050Y5325D01*
X32300Y5374D02*
X35050Y5374D01*
X32300Y5424D02*
X35050Y5424D01*
X32300Y5473D02*
X35050Y5473D01*
X32300Y5523D02*
X35050Y5523D01*
X32300Y5572D02*
X35050Y5572D01*
X32300Y5622D02*
X35050Y5622D01*
X32300Y5671D02*
X35050Y5671D01*
X32300Y5721D02*
X35050Y5721D01*
X32300Y5770D02*
X35050Y5770D01*
X32300Y5820D02*
X35050Y5820D01*
X32300Y5869D02*
X35050Y5869D01*
X32300Y5919D02*
X35050Y5919D01*
X32300Y5968D02*
X35050Y5968D01*
X32300Y6018D02*
X35050Y6018D01*
X32300Y6067D02*
X35050Y6067D01*
X32300Y6117D02*
X35050Y6117D01*
X32300Y6167D02*
X35050Y6167D01*
X32300Y6216D02*
X35050Y6216D01*
X32300Y6266D02*
X35050Y6266D01*
X32300Y6315D02*
X35050Y6315D01*
X32300Y6365D02*
X35050Y6365D01*
X32300Y6414D02*
X35050Y6414D01*
X32300Y6464D02*
X35050Y6464D01*
X32300Y6513D02*
X35050Y6513D01*
%LNpour fill*%
X35000Y9788D02*
X35000Y9788D01*
X33116Y9918*
X33115Y9918*
X33110Y9919*
X33075Y9917*
X33072Y9917*
X32981Y9931*
X32979Y9932*
X32892Y9963*
X32890Y9964*
X32811Y10012*
X32810Y10013*
X32093Y10551*
X32050Y10530*
X32050Y9084*
X35000Y9084*
X35000Y9788*
X32050Y9108D02*
X35000Y9108D01*
X32050Y9157D02*
X35000Y9157D01*
X32050Y9207D02*
X35000Y9207D01*
X32050Y9256D02*
X35000Y9256D01*
X32050Y9306D02*
X35000Y9306D01*
X32050Y9355D02*
X35000Y9355D01*
X32050Y9405D02*
X35000Y9405D01*
X32050Y9454D02*
X35000Y9454D01*
X32050Y9504D02*
X35000Y9504D01*
X32050Y9554D02*
X35000Y9554D01*
X32050Y9603D02*
X35000Y9603D01*
X32050Y9653D02*
X35000Y9653D01*
X32050Y9702D02*
X35000Y9702D01*
X32050Y9752D02*
X35000Y9752D01*
X32050Y9801D02*
X34804Y9801D01*
X32050Y9851D02*
X34086Y9851D01*
X32050Y9900D02*
X33368Y9900D01*
X32050Y9950D02*
X32930Y9950D01*
X32050Y9999D02*
X32832Y9999D01*
X32050Y10049D02*
X32762Y10049D01*
X32050Y10098D02*
X32696Y10098D01*
X32050Y10148D02*
X32630Y10148D01*
X32050Y10197D02*
X32564Y10197D01*
X32050Y10247D02*
X32498Y10247D01*
X32050Y10296D02*
X32432Y10296D01*
X32050Y10346D02*
X32366Y10346D01*
X32050Y10396D02*
X32300Y10396D01*
X32050Y10445D02*
X32234Y10445D01*
X32050Y10495D02*
X32168Y10495D01*
X32079Y10544D02*
X32102Y10544D01*
%LNpour fill*%
X46125Y6516D02*
X46125Y6516D01*
X43475Y6516*
X43475Y5724*
X46125Y5626*
X46125Y6516*
X45499Y5650D02*
X46125Y5650D01*
X44162Y5699D02*
X46125Y5699D01*
X43475Y5749D02*
X46125Y5749D01*
X43475Y5798D02*
X46125Y5798D01*
X43475Y5848D02*
X46125Y5848D01*
X43475Y5897D02*
X46125Y5897D01*
X43475Y5947D02*
X46125Y5947D01*
X43475Y5996D02*
X46125Y5996D01*
X43475Y6046D02*
X46125Y6046D01*
X43475Y6095D02*
X46125Y6095D01*
X43475Y6145D02*
X46125Y6145D01*
X43475Y6194D02*
X46125Y6194D01*
X43475Y6244D02*
X46125Y6244D01*
X43475Y6293D02*
X46125Y6293D01*
X43475Y6343D02*
X46125Y6343D01*
X43475Y6392D02*
X46125Y6392D01*
X43475Y6442D02*
X46125Y6442D01*
X43475Y6492D02*
X46125Y6492D01*
%LNtop copper_traces*%
D11*
X30350Y36600D02*
X32250Y38100D01*
X27600Y15500D02*
X24050Y23900D01*
X41800Y3300D02*
X43900Y5400D01*
X27150Y31050D02*
X30350Y36600D01*
X33500Y41200D02*
X35950Y41650D01*
X34200Y13800D02*
X36350Y12450D01*
X22900Y24850D02*
X24100Y30650D01*
X26350Y11250D02*
X23700Y19500D01*
X36450Y4800D02*
X36450Y5600D01*
X24900Y27100D02*
X24950Y24650D01*
X21850Y24850D02*
X23600Y32550D01*
X27350Y40050D02*
X35500Y46350D01*
X23600Y32600D02*
X27350Y40150D01*
X26950Y10400D02*
X28450Y10400D01*
X24250Y27650D02*
X25300Y30950D01*
X28600Y36650D02*
X33350Y41050D01*
X35300Y3700D02*
X34900Y3300D01*
X24200Y21100D02*
X22900Y24850D01*
X33150Y10400D02*
X36050Y10200D01*
X34200Y13800D02*
X29250Y17150D01*
X32250Y38100D02*
X33950Y39800D01*
X27450Y7350D02*
X28750Y7350D01*
X26300Y15800D02*
X24200Y21100D01*
X31500Y4600D02*
X31050Y4150D01*
X29250Y17150D02*
X25800Y25850D01*
X39150Y4500D02*
X39850Y5250D01*
X43900Y5400D02*
X43900Y5950D01*
X36150Y45450D02*
X39650Y45250D01*
X24050Y23900D02*
X24250Y27650D01*
X39100Y4500D02*
X38500Y3900D01*
X35550Y46450D02*
X40400Y47100D01*
X31900Y11300D02*
X33100Y10400D01*
X31900Y11250D02*
X27600Y15500D01*
X23700Y19500D02*
X21850Y24850D01*
X30650Y10300D02*
X33250Y9550D01*
X40250Y47150D02*
X41250Y47150D01*
X27450Y7400D02*
X26850Y7400D01*
X28450Y16100D02*
X24950Y24650D01*
X44400Y11550D02*
X44400Y10600D01*
X28450Y10400D02*
X28900Y9950D01*
X35200Y43400D02*
X37700Y43550D01*
X43450Y12500D02*
X44450Y11500D01*
X34600Y12000D02*
X38900Y11200D01*
X24900Y27100D02*
X28600Y36650D01*
X27650Y39000D02*
X36150Y45450D01*
X35400Y3750D02*
X36450Y4800D01*
X28200Y38100D02*
X30950Y40600D01*
X25300Y30950D02*
X28200Y38100D01*
X28750Y12200D02*
X26300Y15800D01*
X38900Y11200D02*
X40350Y10350D01*
X44400Y10600D02*
X45050Y9950D01*
X30900Y40550D02*
X35250Y43200D01*
X36345Y12475D02*
X43375Y12475D01*
X25800Y25850D02*
X27150Y31050D01*
X34700Y11950D02*
X28450Y16100D01*
X39850Y5250D02*
X40350Y5750D01*
X31600Y4600D02*
X32600Y5600D01*
X28750Y12250D02*
X30700Y10300D01*
X24100Y30650D02*
X27650Y39000D01*
X26200Y11150D02*
X26950Y10400D01*
D12*
X41800Y3300D03*
X38500Y3900D03*
X30900Y4900D03*
X34850Y4300D03*
X26850Y7400D03*
%LNtop copper component f3a27893b55f737a*%
D13*
X36064Y41564D03*
X37860Y43360D03*
X39656Y45156D03*
X41452Y46952D03*
X43248Y48748D03*
X45044Y50544D03*
X46840Y52340D03*
X48636Y54136D03*
X50432Y55932D03*
D14*
X34268Y39768D03*
M02*