%FSLAX33Y33*%
%MOMM*%
%ADD10C,0.0508*%
D10*
%LNpour fill*%
G01*
X39775Y32825D02*
X39775Y32825D01*
X17251Y32825*
X17350Y22800*
X39775Y22800*
X39775Y32825*
X17350Y22825D02*
X39775Y22825D01*
X17349Y22874D02*
X39775Y22874D01*
X17349Y22924D02*
X39775Y22924D01*
X17348Y22973D02*
X39775Y22973D01*
X17348Y23023D02*
X39775Y23023D01*
X17347Y23072D02*
X39775Y23072D01*
X17347Y23122D02*
X39775Y23122D01*
X17346Y23171D02*
X39775Y23171D01*
X17346Y23221D02*
X39775Y23221D01*
X17345Y23270D02*
X39775Y23270D01*
X17345Y23320D02*
X39775Y23320D01*
X17345Y23369D02*
X39775Y23369D01*
X17344Y23419D02*
X39775Y23419D01*
X17344Y23468D02*
X39775Y23468D01*
X17343Y23518D02*
X39775Y23518D01*
X17343Y23567D02*
X39775Y23567D01*
X17342Y23617D02*
X39775Y23617D01*
X17342Y23667D02*
X39775Y23667D01*
X17341Y23716D02*
X39775Y23716D01*
X17341Y23766D02*
X39775Y23766D01*
X17340Y23815D02*
X39775Y23815D01*
X17340Y23865D02*
X39775Y23865D01*
X17339Y23914D02*
X39775Y23914D01*
X17339Y23964D02*
X39775Y23964D01*
X17338Y24013D02*
X39775Y24013D01*
X17338Y24063D02*
X39775Y24063D01*
X17337Y24112D02*
X39775Y24112D01*
X17337Y24162D02*
X39775Y24162D01*
X17336Y24211D02*
X39775Y24211D01*
X17336Y24261D02*
X39775Y24261D01*
X17335Y24310D02*
X39775Y24310D01*
X17335Y24360D02*
X39775Y24360D01*
X17334Y24409D02*
X39775Y24409D01*
X17334Y24459D02*
X39775Y24459D01*
X17333Y24509D02*
X39775Y24509D01*
X17333Y24558D02*
X39775Y24558D01*
X17332Y24608D02*
X39775Y24608D01*
X17332Y24657D02*
X39775Y24657D01*
X17331Y24707D02*
X39775Y24707D01*
X17331Y24756D02*
X39775Y24756D01*
X17330Y24806D02*
X39775Y24806D01*
X17330Y24855D02*
X39775Y24855D01*
X17329Y24905D02*
X39775Y24905D01*
X17329Y24954D02*
X39775Y24954D01*
X17328Y25004D02*
X39775Y25004D01*
X17328Y25053D02*
X39775Y25053D01*
X17327Y25103D02*
X39775Y25103D01*
X17327Y25152D02*
X39775Y25152D01*
X17326Y25202D02*
X39775Y25202D01*
X17326Y25252D02*
X39775Y25252D01*
X17325Y25301D02*
X39775Y25301D01*
X17325Y25351D02*
X39775Y25351D01*
X17324Y25400D02*
X39775Y25400D01*
X17324Y25450D02*
X39775Y25450D01*
X17323Y25499D02*
X39775Y25499D01*
X17323Y25549D02*
X39775Y25549D01*
X17322Y25598D02*
X39775Y25598D01*
X17322Y25648D02*
X39775Y25648D01*
X17321Y25697D02*
X39775Y25697D01*
X17321Y25747D02*
X39775Y25747D01*
X17320Y25796D02*
X39775Y25796D01*
X17320Y25846D02*
X39775Y25846D01*
X17319Y25895D02*
X39775Y25895D01*
X17319Y25945D02*
X39775Y25945D01*
X17318Y25994D02*
X39775Y25994D01*
X17318Y26044D02*
X39775Y26044D01*
X17317Y26094D02*
X39775Y26094D01*
X17317Y26143D02*
X39775Y26143D01*
X17316Y26193D02*
X39775Y26193D01*
X17316Y26242D02*
X39775Y26242D01*
X17315Y26292D02*
X39775Y26292D01*
X17315Y26341D02*
X39775Y26341D01*
X17315Y26391D02*
X39775Y26391D01*
X17314Y26440D02*
X39775Y26440D01*
X17314Y26490D02*
X39775Y26490D01*
X17313Y26539D02*
X39775Y26539D01*
X17313Y26589D02*
X39775Y26589D01*
X17312Y26638D02*
X39775Y26638D01*
X17312Y26688D02*
X39775Y26688D01*
X17311Y26737D02*
X39775Y26737D01*
X17311Y26787D02*
X39775Y26787D01*
X17310Y26836D02*
X39775Y26836D01*
X17310Y26886D02*
X39775Y26886D01*
X17309Y26936D02*
X39775Y26936D01*
X17309Y26985D02*
X39775Y26985D01*
X17308Y27035D02*
X39775Y27035D01*
X17308Y27084D02*
X39775Y27084D01*
X17307Y27134D02*
X39775Y27134D01*
X17307Y27183D02*
X39775Y27183D01*
X17306Y27233D02*
X39775Y27233D01*
X17306Y27282D02*
X39775Y27282D01*
X17305Y27332D02*
X39775Y27332D01*
X17305Y27381D02*
X39775Y27381D01*
X17304Y27431D02*
X39775Y27431D01*
X17304Y27480D02*
X39775Y27480D01*
X17303Y27530D02*
X39775Y27530D01*
X17303Y27579D02*
X39775Y27579D01*
X17302Y27629D02*
X39775Y27629D01*
X17302Y27678D02*
X39775Y27678D01*
X17301Y27728D02*
X39775Y27728D01*
X17301Y27778D02*
X39775Y27778D01*
X17300Y27827D02*
X39775Y27827D01*
X17300Y27877D02*
X39775Y27877D01*
X17299Y27926D02*
X39775Y27926D01*
X17299Y27976D02*
X39775Y27976D01*
X17298Y28025D02*
X39775Y28025D01*
X17298Y28075D02*
X39775Y28075D01*
X17297Y28124D02*
X39775Y28124D01*
X17297Y28174D02*
X39775Y28174D01*
X17296Y28223D02*
X39775Y28223D01*
X17296Y28273D02*
X39775Y28273D01*
X17295Y28322D02*
X39775Y28322D01*
X17295Y28372D02*
X39775Y28372D01*
X17294Y28421D02*
X39775Y28421D01*
X17294Y28471D02*
X39775Y28471D01*
X17293Y28520D02*
X39775Y28520D01*
X17293Y28570D02*
X39775Y28570D01*
X17292Y28620D02*
X39775Y28620D01*
X17292Y28669D02*
X39775Y28669D01*
X17291Y28719D02*
X39775Y28719D01*
X17291Y28768D02*
X39775Y28768D01*
X17290Y28818D02*
X39775Y28818D01*
X17290Y28867D02*
X39775Y28867D01*
X17289Y28917D02*
X39775Y28917D01*
X17289Y28966D02*
X39775Y28966D01*
X17288Y29016D02*
X39775Y29016D01*
X17288Y29065D02*
X39775Y29065D01*
X17287Y29115D02*
X39775Y29115D01*
X17287Y29164D02*
X39775Y29164D01*
X17286Y29214D02*
X39775Y29214D01*
X17286Y29263D02*
X39775Y29263D01*
X17286Y29313D02*
X39775Y29313D01*
X17285Y29362D02*
X39775Y29362D01*
X17285Y29412D02*
X39775Y29412D01*
X17284Y29462D02*
X39775Y29462D01*
X17284Y29511D02*
X39775Y29511D01*
X17283Y29561D02*
X39775Y29561D01*
X17283Y29610D02*
X39775Y29610D01*
X17282Y29660D02*
X39775Y29660D01*
X17282Y29709D02*
X39775Y29709D01*
X17281Y29759D02*
X39775Y29759D01*
X17281Y29808D02*
X39775Y29808D01*
X17280Y29858D02*
X39775Y29858D01*
X17280Y29907D02*
X39775Y29907D01*
X17279Y29957D02*
X39775Y29957D01*
X17279Y30006D02*
X39775Y30006D01*
X17278Y30056D02*
X39775Y30056D01*
X17278Y30105D02*
X39775Y30105D01*
X17277Y30155D02*
X39775Y30155D01*
X17277Y30204D02*
X39775Y30204D01*
X17276Y30254D02*
X39775Y30254D01*
X17276Y30304D02*
X39775Y30304D01*
X17275Y30353D02*
X39775Y30353D01*
X17275Y30403D02*
X39775Y30403D01*
X17274Y30452D02*
X39775Y30452D01*
X17274Y30502D02*
X39775Y30502D01*
X17273Y30551D02*
X39775Y30551D01*
X17273Y30601D02*
X39775Y30601D01*
X17272Y30650D02*
X39775Y30650D01*
X17272Y30700D02*
X39775Y30700D01*
X17271Y30749D02*
X39775Y30749D01*
X17271Y30799D02*
X39775Y30799D01*
X17270Y30848D02*
X39775Y30848D01*
X17270Y30898D02*
X39775Y30898D01*
X17269Y30947D02*
X39775Y30947D01*
X17269Y30997D02*
X39775Y30997D01*
X17268Y31047D02*
X39775Y31047D01*
X17268Y31096D02*
X39775Y31096D01*
X17267Y31146D02*
X39775Y31146D01*
X17267Y31195D02*
X39775Y31195D01*
X17266Y31245D02*
X39775Y31245D01*
X17266Y31294D02*
X39775Y31294D01*
X17265Y31344D02*
X39775Y31344D01*
X17265Y31393D02*
X39775Y31393D01*
X17264Y31443D02*
X39775Y31443D01*
X17264Y31492D02*
X39775Y31492D01*
X17263Y31542D02*
X39775Y31542D01*
X17263Y31591D02*
X39775Y31591D01*
X17262Y31641D02*
X39775Y31641D01*
X17262Y31690D02*
X39775Y31690D01*
X17261Y31740D02*
X39775Y31740D01*
X17261Y31789D02*
X39775Y31789D01*
X17260Y31839D02*
X39775Y31839D01*
X17260Y31889D02*
X39775Y31889D01*
X17259Y31938D02*
X39775Y31938D01*
X17259Y31988D02*
X39775Y31988D01*
X17258Y32037D02*
X39775Y32037D01*
X17258Y32087D02*
X39775Y32087D01*
X17257Y32136D02*
X39775Y32136D01*
X17257Y32186D02*
X39775Y32186D01*
X17257Y32235D02*
X39775Y32235D01*
X17256Y32285D02*
X39775Y32285D01*
X17256Y32334D02*
X39775Y32334D01*
X17255Y32384D02*
X39775Y32384D01*
X17255Y32433D02*
X39775Y32433D01*
X17254Y32483D02*
X39775Y32483D01*
X17254Y32532D02*
X39775Y32532D01*
X17253Y32582D02*
X39775Y32582D01*
X17253Y32631D02*
X39775Y32631D01*
X17252Y32681D02*
X39775Y32681D01*
X17252Y32731D02*
X39775Y32731D01*
X17251Y32780D02*
X39775Y32780D01*
%LNtop solder mask_traces*%
M02*