%FSLAX33Y33*%
%MOMM*%
%ADD10C,0.0508*%
D10*
%LNtop silkscreen_traces*%
G01*
X41040Y34161D02*
X41040Y34161D01*
X16305Y34161*
X16305Y21845*
X41040Y21845*
X41040Y34161*
X40712Y22186D02*
X40712Y22186D01*
X40712Y33820*
X40697Y33835*
X16648Y33835*
X16633Y33820*
X16633Y22186*
X16648Y22171*
X40697Y22171*
X40712Y22186*
X16305Y21870D02*
X41040Y21870D01*
X16305Y21919D02*
X41040Y21919D01*
X16305Y21969D02*
X41040Y21969D01*
X16305Y22018D02*
X41040Y22018D01*
X16305Y22068D02*
X41040Y22068D01*
X16305Y22117D02*
X41040Y22117D01*
X16305Y22167D02*
X41040Y22167D01*
X16305Y22216D02*
X16633Y22216D01*
X40712Y22216D02*
X41040Y22216D01*
X16305Y22266D02*
X16633Y22266D01*
X40712Y22266D02*
X41040Y22266D01*
X16305Y22315D02*
X16633Y22315D01*
X40712Y22315D02*
X41040Y22315D01*
X16305Y22365D02*
X16633Y22365D01*
X40712Y22365D02*
X41040Y22365D01*
X16305Y22414D02*
X16633Y22414D01*
X40712Y22414D02*
X41040Y22414D01*
X16305Y22464D02*
X16633Y22464D01*
X40712Y22464D02*
X41040Y22464D01*
X16305Y22514D02*
X16633Y22514D01*
X40712Y22514D02*
X41040Y22514D01*
X16305Y22563D02*
X16633Y22563D01*
X40712Y22563D02*
X41040Y22563D01*
X16305Y22613D02*
X16633Y22613D01*
X40712Y22613D02*
X41040Y22613D01*
X16305Y22662D02*
X16633Y22662D01*
X40712Y22662D02*
X41040Y22662D01*
X16305Y22712D02*
X16633Y22712D01*
X40712Y22712D02*
X41040Y22712D01*
X16305Y22761D02*
X16633Y22761D01*
X40712Y22761D02*
X41040Y22761D01*
X16305Y22811D02*
X16633Y22811D01*
X40712Y22811D02*
X41040Y22811D01*
X16305Y22860D02*
X16633Y22860D01*
X40712Y22860D02*
X41040Y22860D01*
X16305Y22910D02*
X16633Y22910D01*
X40712Y22910D02*
X41040Y22910D01*
X16305Y22959D02*
X16633Y22959D01*
X40712Y22959D02*
X41040Y22959D01*
X16305Y23009D02*
X16633Y23009D01*
X40712Y23009D02*
X41040Y23009D01*
X16305Y23058D02*
X16633Y23058D01*
X40712Y23058D02*
X41040Y23058D01*
X16305Y23108D02*
X16633Y23108D01*
X40712Y23108D02*
X41040Y23108D01*
X16305Y23157D02*
X16633Y23157D01*
X40712Y23157D02*
X41040Y23157D01*
X16305Y23207D02*
X16633Y23207D01*
X40712Y23207D02*
X41040Y23207D01*
X16305Y23256D02*
X16633Y23256D01*
X40712Y23256D02*
X41040Y23256D01*
X16305Y23306D02*
X16633Y23306D01*
X40712Y23306D02*
X41040Y23306D01*
X16305Y23356D02*
X16633Y23356D01*
X40712Y23356D02*
X41040Y23356D01*
X16305Y23405D02*
X16633Y23405D01*
X40712Y23405D02*
X41040Y23405D01*
X16305Y23455D02*
X16633Y23455D01*
X40712Y23455D02*
X41040Y23455D01*
X16305Y23504D02*
X16633Y23504D01*
X40712Y23504D02*
X41040Y23504D01*
X16305Y23554D02*
X16633Y23554D01*
X40712Y23554D02*
X41040Y23554D01*
X16305Y23603D02*
X16633Y23603D01*
X40712Y23603D02*
X41040Y23603D01*
X16305Y23653D02*
X16633Y23653D01*
X40712Y23653D02*
X41040Y23653D01*
X16305Y23702D02*
X16633Y23702D01*
X40712Y23702D02*
X41040Y23702D01*
X16305Y23752D02*
X16633Y23752D01*
X40712Y23752D02*
X41040Y23752D01*
X16305Y23801D02*
X16633Y23801D01*
X40712Y23801D02*
X41040Y23801D01*
X16305Y23851D02*
X16633Y23851D01*
X40712Y23851D02*
X41040Y23851D01*
X16305Y23900D02*
X16633Y23900D01*
X40712Y23900D02*
X41040Y23900D01*
X16305Y23950D02*
X16633Y23950D01*
X40712Y23950D02*
X41040Y23950D01*
X16305Y23999D02*
X16633Y23999D01*
X40712Y23999D02*
X41040Y23999D01*
X16305Y24049D02*
X16633Y24049D01*
X40712Y24049D02*
X41040Y24049D01*
X16305Y24098D02*
X16633Y24098D01*
X40712Y24098D02*
X41040Y24098D01*
X16305Y24148D02*
X16633Y24148D01*
X40712Y24148D02*
X41040Y24148D01*
X16305Y24198D02*
X16633Y24198D01*
X40712Y24198D02*
X41040Y24198D01*
X16305Y24247D02*
X16633Y24247D01*
X40712Y24247D02*
X41040Y24247D01*
X16305Y24297D02*
X16633Y24297D01*
X40712Y24297D02*
X41040Y24297D01*
X16305Y24346D02*
X16633Y24346D01*
X40712Y24346D02*
X41040Y24346D01*
X16305Y24396D02*
X16633Y24396D01*
X40712Y24396D02*
X41040Y24396D01*
X16305Y24445D02*
X16633Y24445D01*
X40712Y24445D02*
X41040Y24445D01*
X16305Y24495D02*
X16633Y24495D01*
X40712Y24495D02*
X41040Y24495D01*
X16305Y24544D02*
X16633Y24544D01*
X40712Y24544D02*
X41040Y24544D01*
X16305Y24594D02*
X16633Y24594D01*
X40712Y24594D02*
X41040Y24594D01*
X16305Y24643D02*
X16633Y24643D01*
X40712Y24643D02*
X41040Y24643D01*
X16305Y24693D02*
X16633Y24693D01*
X40712Y24693D02*
X41040Y24693D01*
X16305Y24742D02*
X16633Y24742D01*
X40712Y24742D02*
X41040Y24742D01*
X16305Y24792D02*
X16633Y24792D01*
X40712Y24792D02*
X41040Y24792D01*
X16305Y24841D02*
X16633Y24841D01*
X40712Y24841D02*
X41040Y24841D01*
X16305Y24891D02*
X16633Y24891D01*
X40712Y24891D02*
X41040Y24891D01*
X16305Y24940D02*
X16633Y24940D01*
X40712Y24940D02*
X41040Y24940D01*
X16305Y24990D02*
X16633Y24990D01*
X40712Y24990D02*
X41040Y24990D01*
X16305Y25040D02*
X16633Y25040D01*
X40712Y25040D02*
X41040Y25040D01*
X16305Y25089D02*
X16633Y25089D01*
X40712Y25089D02*
X41040Y25089D01*
X16305Y25139D02*
X16633Y25139D01*
X40712Y25139D02*
X41040Y25139D01*
X16305Y25188D02*
X16633Y25188D01*
X40712Y25188D02*
X41040Y25188D01*
X16305Y25238D02*
X16633Y25238D01*
X40712Y25238D02*
X41040Y25238D01*
X16305Y25287D02*
X16633Y25287D01*
X40712Y25287D02*
X41040Y25287D01*
X16305Y25337D02*
X16633Y25337D01*
X40712Y25337D02*
X41040Y25337D01*
X16305Y25386D02*
X16633Y25386D01*
X40712Y25386D02*
X41040Y25386D01*
X16305Y25436D02*
X16633Y25436D01*
X40712Y25436D02*
X41040Y25436D01*
X16305Y25485D02*
X16633Y25485D01*
X40712Y25485D02*
X41040Y25485D01*
X16305Y25535D02*
X16633Y25535D01*
X40712Y25535D02*
X41040Y25535D01*
X16305Y25584D02*
X16633Y25584D01*
X40712Y25584D02*
X41040Y25584D01*
X16305Y25634D02*
X16633Y25634D01*
X40712Y25634D02*
X41040Y25634D01*
X16305Y25683D02*
X16633Y25683D01*
X40712Y25683D02*
X41040Y25683D01*
X16305Y25733D02*
X16633Y25733D01*
X40712Y25733D02*
X41040Y25733D01*
X16305Y25782D02*
X16633Y25782D01*
X40712Y25782D02*
X41040Y25782D01*
X16305Y25832D02*
X16633Y25832D01*
X40712Y25832D02*
X41040Y25832D01*
X16305Y25882D02*
X16633Y25882D01*
X40712Y25882D02*
X41040Y25882D01*
X16305Y25931D02*
X16633Y25931D01*
X40712Y25931D02*
X41040Y25931D01*
X16305Y25981D02*
X16633Y25981D01*
X40712Y25981D02*
X41040Y25981D01*
X16305Y26030D02*
X16633Y26030D01*
X40712Y26030D02*
X41040Y26030D01*
X16305Y26080D02*
X16633Y26080D01*
X40712Y26080D02*
X41040Y26080D01*
X16305Y26129D02*
X16633Y26129D01*
X40712Y26129D02*
X41040Y26129D01*
X16305Y26179D02*
X16633Y26179D01*
X40712Y26179D02*
X41040Y26179D01*
X16305Y26228D02*
X16633Y26228D01*
X40712Y26228D02*
X41040Y26228D01*
X16305Y26278D02*
X16633Y26278D01*
X40712Y26278D02*
X41040Y26278D01*
X16305Y26327D02*
X16633Y26327D01*
X40712Y26327D02*
X41040Y26327D01*
X16305Y26377D02*
X16633Y26377D01*
X40712Y26377D02*
X41040Y26377D01*
X16305Y26426D02*
X16633Y26426D01*
X40712Y26426D02*
X41040Y26426D01*
X16305Y26476D02*
X16633Y26476D01*
X40712Y26476D02*
X41040Y26476D01*
X16305Y26525D02*
X16633Y26525D01*
X40712Y26525D02*
X41040Y26525D01*
X16305Y26575D02*
X16633Y26575D01*
X40712Y26575D02*
X41040Y26575D01*
X16305Y26624D02*
X16633Y26624D01*
X40712Y26624D02*
X41040Y26624D01*
X16305Y26674D02*
X16633Y26674D01*
X40712Y26674D02*
X41040Y26674D01*
X16305Y26724D02*
X16633Y26724D01*
X40712Y26724D02*
X41040Y26724D01*
X16305Y26773D02*
X16633Y26773D01*
X40712Y26773D02*
X41040Y26773D01*
X16305Y26823D02*
X16633Y26823D01*
X40712Y26823D02*
X41040Y26823D01*
X16305Y26872D02*
X16633Y26872D01*
X40712Y26872D02*
X41040Y26872D01*
X16305Y26922D02*
X16633Y26922D01*
X40712Y26922D02*
X41040Y26922D01*
X16305Y26971D02*
X16633Y26971D01*
X40712Y26971D02*
X41040Y26971D01*
X16305Y27021D02*
X16633Y27021D01*
X40712Y27021D02*
X41040Y27021D01*
X16305Y27070D02*
X16633Y27070D01*
X40712Y27070D02*
X41040Y27070D01*
X16305Y27120D02*
X16633Y27120D01*
X40712Y27120D02*
X41040Y27120D01*
X16305Y27169D02*
X16633Y27169D01*
X40712Y27169D02*
X41040Y27169D01*
X16305Y27219D02*
X16633Y27219D01*
X40712Y27219D02*
X41040Y27219D01*
X16305Y27268D02*
X16633Y27268D01*
X40712Y27268D02*
X41040Y27268D01*
X16305Y27318D02*
X16633Y27318D01*
X40712Y27318D02*
X41040Y27318D01*
X16305Y27367D02*
X16633Y27367D01*
X40712Y27367D02*
X41040Y27367D01*
X16305Y27417D02*
X16633Y27417D01*
X40712Y27417D02*
X41040Y27417D01*
X16305Y27467D02*
X16633Y27467D01*
X40712Y27467D02*
X41040Y27467D01*
X16305Y27516D02*
X16633Y27516D01*
X40712Y27516D02*
X41040Y27516D01*
X16305Y27566D02*
X16633Y27566D01*
X40712Y27566D02*
X41040Y27566D01*
X16305Y27615D02*
X16633Y27615D01*
X40712Y27615D02*
X41040Y27615D01*
X16305Y27665D02*
X16633Y27665D01*
X40712Y27665D02*
X41040Y27665D01*
X16305Y27714D02*
X16633Y27714D01*
X40712Y27714D02*
X41040Y27714D01*
X16305Y27764D02*
X16633Y27764D01*
X40712Y27764D02*
X41040Y27764D01*
X16305Y27813D02*
X16633Y27813D01*
X40712Y27813D02*
X41040Y27813D01*
X16305Y27863D02*
X16633Y27863D01*
X40712Y27863D02*
X41040Y27863D01*
X16305Y27912D02*
X16633Y27912D01*
X40712Y27912D02*
X41040Y27912D01*
X16305Y27962D02*
X16633Y27962D01*
X40712Y27962D02*
X41040Y27962D01*
X16305Y28011D02*
X16633Y28011D01*
X40712Y28011D02*
X41040Y28011D01*
X16305Y28061D02*
X16633Y28061D01*
X40712Y28061D02*
X41040Y28061D01*
X16305Y28110D02*
X16633Y28110D01*
X40712Y28110D02*
X41040Y28110D01*
X16305Y28160D02*
X16633Y28160D01*
X40712Y28160D02*
X41040Y28160D01*
X16305Y28209D02*
X16633Y28209D01*
X40712Y28209D02*
X41040Y28209D01*
X16305Y28259D02*
X16633Y28259D01*
X40712Y28259D02*
X41040Y28259D01*
X16305Y28309D02*
X16633Y28309D01*
X40712Y28309D02*
X41040Y28309D01*
X16305Y28358D02*
X16633Y28358D01*
X40712Y28358D02*
X41040Y28358D01*
X16305Y28408D02*
X16633Y28408D01*
X40712Y28408D02*
X41040Y28408D01*
X16305Y28457D02*
X16633Y28457D01*
X40712Y28457D02*
X41040Y28457D01*
X16305Y28507D02*
X16633Y28507D01*
X40712Y28507D02*
X41040Y28507D01*
X16305Y28556D02*
X16633Y28556D01*
X40712Y28556D02*
X41040Y28556D01*
X16305Y28606D02*
X16633Y28606D01*
X40712Y28606D02*
X41040Y28606D01*
X16305Y28655D02*
X16633Y28655D01*
X40712Y28655D02*
X41040Y28655D01*
X16305Y28705D02*
X16633Y28705D01*
X40712Y28705D02*
X41040Y28705D01*
X16305Y28754D02*
X16633Y28754D01*
X40712Y28754D02*
X41040Y28754D01*
X16305Y28804D02*
X16633Y28804D01*
X40712Y28804D02*
X41040Y28804D01*
X16305Y28853D02*
X16633Y28853D01*
X40712Y28853D02*
X41040Y28853D01*
X16305Y28903D02*
X16633Y28903D01*
X40712Y28903D02*
X41040Y28903D01*
X16305Y28952D02*
X16633Y28952D01*
X40712Y28952D02*
X41040Y28952D01*
X16305Y29002D02*
X16633Y29002D01*
X40712Y29002D02*
X41040Y29002D01*
X16305Y29051D02*
X16633Y29051D01*
X40712Y29051D02*
X41040Y29051D01*
X16305Y29101D02*
X16633Y29101D01*
X40712Y29101D02*
X41040Y29101D01*
X16305Y29151D02*
X16633Y29151D01*
X40712Y29151D02*
X41040Y29151D01*
X16305Y29200D02*
X16633Y29200D01*
X40712Y29200D02*
X41040Y29200D01*
X16305Y29250D02*
X16633Y29250D01*
X40712Y29250D02*
X41040Y29250D01*
X16305Y29299D02*
X16633Y29299D01*
X40712Y29299D02*
X41040Y29299D01*
X16305Y29349D02*
X16633Y29349D01*
X40712Y29349D02*
X41040Y29349D01*
X16305Y29398D02*
X16633Y29398D01*
X40712Y29398D02*
X41040Y29398D01*
X16305Y29448D02*
X16633Y29448D01*
X40712Y29448D02*
X41040Y29448D01*
X16305Y29497D02*
X16633Y29497D01*
X40712Y29497D02*
X41040Y29497D01*
X16305Y29547D02*
X16633Y29547D01*
X40712Y29547D02*
X41040Y29547D01*
X16305Y29596D02*
X16633Y29596D01*
X40712Y29596D02*
X41040Y29596D01*
X16305Y29646D02*
X16633Y29646D01*
X40712Y29646D02*
X41040Y29646D01*
X16305Y29695D02*
X16633Y29695D01*
X40712Y29695D02*
X41040Y29695D01*
X16305Y29745D02*
X16633Y29745D01*
X40712Y29745D02*
X41040Y29745D01*
X16305Y29794D02*
X16633Y29794D01*
X40712Y29794D02*
X41040Y29794D01*
X16305Y29844D02*
X16633Y29844D01*
X40712Y29844D02*
X41040Y29844D01*
X16305Y29893D02*
X16633Y29893D01*
X40712Y29893D02*
X41040Y29893D01*
X16305Y29943D02*
X16633Y29943D01*
X40712Y29943D02*
X41040Y29943D01*
X16305Y29993D02*
X16633Y29993D01*
X40712Y29993D02*
X41040Y29993D01*
X16305Y30042D02*
X16633Y30042D01*
X40712Y30042D02*
X41040Y30042D01*
X16305Y30092D02*
X16633Y30092D01*
X40712Y30092D02*
X41040Y30092D01*
X16305Y30141D02*
X16633Y30141D01*
X40712Y30141D02*
X41040Y30141D01*
X16305Y30191D02*
X16633Y30191D01*
X40712Y30191D02*
X41040Y30191D01*
X16305Y30240D02*
X16633Y30240D01*
X40712Y30240D02*
X41040Y30240D01*
X16305Y30290D02*
X16633Y30290D01*
X40712Y30290D02*
X41040Y30290D01*
X16305Y30339D02*
X16633Y30339D01*
X40712Y30339D02*
X41040Y30339D01*
X16305Y30389D02*
X16633Y30389D01*
X40712Y30389D02*
X41040Y30389D01*
X16305Y30438D02*
X16633Y30438D01*
X40712Y30438D02*
X41040Y30438D01*
X16305Y30488D02*
X16633Y30488D01*
X40712Y30488D02*
X41040Y30488D01*
X16305Y30537D02*
X16633Y30537D01*
X40712Y30537D02*
X41040Y30537D01*
X16305Y30587D02*
X16633Y30587D01*
X40712Y30587D02*
X41040Y30587D01*
X16305Y30636D02*
X16633Y30636D01*
X40712Y30636D02*
X41040Y30636D01*
X16305Y30686D02*
X16633Y30686D01*
X40712Y30686D02*
X41040Y30686D01*
X16305Y30735D02*
X16633Y30735D01*
X40712Y30735D02*
X41040Y30735D01*
X16305Y30785D02*
X16633Y30785D01*
X40712Y30785D02*
X41040Y30785D01*
X16305Y30835D02*
X16633Y30835D01*
X40712Y30835D02*
X41040Y30835D01*
X16305Y30884D02*
X16633Y30884D01*
X40712Y30884D02*
X41040Y30884D01*
X16305Y30934D02*
X16633Y30934D01*
X40712Y30934D02*
X41040Y30934D01*
X16305Y30983D02*
X16633Y30983D01*
X40712Y30983D02*
X41040Y30983D01*
X16305Y31033D02*
X16633Y31033D01*
X40712Y31033D02*
X41040Y31033D01*
X16305Y31082D02*
X16633Y31082D01*
X40712Y31082D02*
X41040Y31082D01*
X16305Y31132D02*
X16633Y31132D01*
X40712Y31132D02*
X41040Y31132D01*
X16305Y31181D02*
X16633Y31181D01*
X40712Y31181D02*
X41040Y31181D01*
X16305Y31231D02*
X16633Y31231D01*
X40712Y31231D02*
X41040Y31231D01*
X16305Y31280D02*
X16633Y31280D01*
X40712Y31280D02*
X41040Y31280D01*
X16305Y31330D02*
X16633Y31330D01*
X40712Y31330D02*
X41040Y31330D01*
X16305Y31379D02*
X16633Y31379D01*
X40712Y31379D02*
X41040Y31379D01*
X16305Y31429D02*
X16633Y31429D01*
X40712Y31429D02*
X41040Y31429D01*
X16305Y31478D02*
X16633Y31478D01*
X40712Y31478D02*
X41040Y31478D01*
X16305Y31528D02*
X16633Y31528D01*
X40712Y31528D02*
X41040Y31528D01*
X16305Y31577D02*
X16633Y31577D01*
X40712Y31577D02*
X41040Y31577D01*
X16305Y31627D02*
X16633Y31627D01*
X40712Y31627D02*
X41040Y31627D01*
X16305Y31677D02*
X16633Y31677D01*
X40712Y31677D02*
X41040Y31677D01*
X16305Y31726D02*
X16633Y31726D01*
X40712Y31726D02*
X41040Y31726D01*
X16305Y31776D02*
X16633Y31776D01*
X40712Y31776D02*
X41040Y31776D01*
X16305Y31825D02*
X16633Y31825D01*
X40712Y31825D02*
X41040Y31825D01*
X16305Y31875D02*
X16633Y31875D01*
X40712Y31875D02*
X41040Y31875D01*
X16305Y31924D02*
X16633Y31924D01*
X40712Y31924D02*
X41040Y31924D01*
X16305Y31974D02*
X16633Y31974D01*
X40712Y31974D02*
X41040Y31974D01*
X16305Y32023D02*
X16633Y32023D01*
X40712Y32023D02*
X41040Y32023D01*
X16305Y32073D02*
X16633Y32073D01*
X40712Y32073D02*
X41040Y32073D01*
X16305Y32122D02*
X16633Y32122D01*
X40712Y32122D02*
X41040Y32122D01*
X16305Y32172D02*
X16633Y32172D01*
X40712Y32172D02*
X41040Y32172D01*
X16305Y32221D02*
X16633Y32221D01*
X40712Y32221D02*
X41040Y32221D01*
X16305Y32271D02*
X16633Y32271D01*
X40712Y32271D02*
X41040Y32271D01*
X16305Y32320D02*
X16633Y32320D01*
X40712Y32320D02*
X41040Y32320D01*
X16305Y32370D02*
X16633Y32370D01*
X40712Y32370D02*
X41040Y32370D01*
X16305Y32420D02*
X16633Y32420D01*
X40712Y32420D02*
X41040Y32420D01*
X16305Y32469D02*
X16633Y32469D01*
X40712Y32469D02*
X41040Y32469D01*
X16305Y32519D02*
X16633Y32519D01*
X40712Y32519D02*
X41040Y32519D01*
X16305Y32568D02*
X16633Y32568D01*
X40712Y32568D02*
X41040Y32568D01*
X16305Y32618D02*
X16633Y32618D01*
X40712Y32618D02*
X41040Y32618D01*
X16305Y32667D02*
X16633Y32667D01*
X40712Y32667D02*
X41040Y32667D01*
X16305Y32717D02*
X16633Y32717D01*
X40712Y32717D02*
X41040Y32717D01*
X16305Y32766D02*
X16633Y32766D01*
X40712Y32766D02*
X41040Y32766D01*
X16305Y32816D02*
X16633Y32816D01*
X40712Y32816D02*
X41040Y32816D01*
X16305Y32865D02*
X16633Y32865D01*
X40712Y32865D02*
X41040Y32865D01*
X16305Y32915D02*
X16633Y32915D01*
X40712Y32915D02*
X41040Y32915D01*
X16305Y32964D02*
X16633Y32964D01*
X40712Y32964D02*
X41040Y32964D01*
X16305Y33014D02*
X16633Y33014D01*
X40712Y33014D02*
X41040Y33014D01*
X16305Y33063D02*
X16633Y33063D01*
X40712Y33063D02*
X41040Y33063D01*
X16305Y33113D02*
X16633Y33113D01*
X40712Y33113D02*
X41040Y33113D01*
X16305Y33162D02*
X16633Y33162D01*
X40712Y33162D02*
X41040Y33162D01*
X16305Y33212D02*
X16633Y33212D01*
X40712Y33212D02*
X41040Y33212D01*
X16305Y33262D02*
X16633Y33262D01*
X40712Y33262D02*
X41040Y33262D01*
X16305Y33311D02*
X16633Y33311D01*
X40712Y33311D02*
X41040Y33311D01*
X16305Y33361D02*
X16633Y33361D01*
X40712Y33361D02*
X41040Y33361D01*
X16305Y33410D02*
X16633Y33410D01*
X40712Y33410D02*
X41040Y33410D01*
X16305Y33460D02*
X16633Y33460D01*
X40712Y33460D02*
X41040Y33460D01*
X16305Y33509D02*
X16633Y33509D01*
X40712Y33509D02*
X41040Y33509D01*
X16305Y33559D02*
X16633Y33559D01*
X40712Y33559D02*
X41040Y33559D01*
X16305Y33608D02*
X16633Y33608D01*
X40712Y33608D02*
X41040Y33608D01*
X16305Y33658D02*
X16633Y33658D01*
X40712Y33658D02*
X41040Y33658D01*
X16305Y33707D02*
X16633Y33707D01*
X40712Y33707D02*
X41040Y33707D01*
X16305Y33757D02*
X16633Y33757D01*
X40712Y33757D02*
X41040Y33757D01*
X16305Y33806D02*
X16633Y33806D01*
X40712Y33806D02*
X41040Y33806D01*
X16305Y33856D02*
X41040Y33856D01*
X16305Y33905D02*
X41040Y33905D01*
X16305Y33955D02*
X41040Y33955D01*
X16305Y34004D02*
X41040Y34004D01*
X16305Y34054D02*
X41040Y34054D01*
X16305Y34104D02*
X41040Y34104D01*
X16305Y34153D02*
X41040Y34153D01*
X36317Y23144D02*
X36317Y23144D01*
X36381Y23145*
X36439Y23145*
X36489Y23146*
X36532Y23147*
X36566Y23148*
X36566Y23148*
X36592Y23148*
X36592Y23148*
X36608Y23148*
X36732Y23151*
X36857Y23161*
X36984Y23176*
X37112Y23197*
X37240Y23224*
X37368Y23258*
X37496Y23297*
X37623Y23342*
X37750Y23393*
X37875Y23450*
X37998Y23512*
X38120Y23580*
X38239Y23653*
X38355Y23733*
X38468Y23817*
X38577Y23907*
X38683Y24003*
X38785Y24104*
X38881Y24210*
X38973Y24322*
X39060Y24438*
X39141Y24560*
X39216Y24687*
X39284Y24819*
X39346Y24956*
X39401Y25098*
X39448Y25245*
X39488Y25397*
X39519Y25554*
X39542Y25715*
X39556Y25882*
X39561Y26053*
X39557Y26212*
X39544Y26364*
X39524Y26511*
X39496Y26653*
X39461Y26789*
X39419Y26919*
X39370Y27044*
X39314Y27164*
X39253Y27279*
X39185Y27389*
X39113Y27494*
X39034Y27595*
X38951Y27690*
X38863Y27782*
X38771Y27868*
X38675Y27951*
X38574Y28029*
X38471Y28103*
X38364Y28172*
X38254Y28238*
X38141Y28300*
X38026Y28358*
X37909Y28413*
X37790Y28464*
X37670Y28511*
X37548Y28555*
X37426Y28596*
X37303Y28633*
X37180Y28667*
X37057Y28698*
X36934Y28726*
X36811Y28752*
X36674Y28780*
X36674Y28780*
X36542Y28808*
X36542Y28808*
X36414Y28838*
X36413Y28838*
X36290Y28868*
X36290Y28868*
X36171Y28900*
X36171Y28900*
X36056Y28932*
X36056Y28932*
X35946Y28966*
X35945Y28966*
X35840Y29001*
X35840Y29001*
X35739Y29037*
X35738Y29037*
X35641Y29075*
X35641Y29075*
X35549Y29114*
X35548Y29114*
X35461Y29155*
X35460Y29155*
X35377Y29197*
X35376Y29197*
X35297Y29241*
X35297Y29241*
X35222Y29287*
X35221Y29287*
X35151Y29335*
X35150Y29335*
X35084Y29384*
X35084Y29385*
X35022Y29436*
X35021Y29436*
X34964Y29490*
X34963Y29490*
X34910Y29546*
X34910Y29547*
X34861Y29604*
X34860Y29605*
X34816Y29665*
X34815Y29666*
X34775Y29728*
X34775Y29729*
X34739Y29794*
X34738Y29794*
X34707Y29862*
X34706Y29862*
X34679Y29932*
X34679Y29933*
X34655Y30005*
X34655Y30006*
X34636Y30081*
X34636Y30082*
X34622Y30160*
X34621Y30160*
X34611Y30241*
X34611Y30242*
X34605Y30325*
X34605Y30326*
X34603Y30412*
X34603Y30413*
X34606Y30502*
X34606Y30503*
X34615Y30590*
X34615Y30591*
X34630Y30676*
X34630Y30677*
X34650Y30760*
X34650Y30761*
X34676Y30843*
X34676Y30843*
X34706Y30923*
X34707Y30923*
X34742Y31000*
X34742Y31001*
X34782Y31076*
X34782Y31077*
X34826Y31149*
X34826Y31150*
X34874Y31220*
X34875Y31221*
X34926Y31288*
X34926Y31289*
X34981Y31354*
X34982Y31355*
X35040Y31417*
X35041Y31418*
X35102Y31478*
X35102Y31478*
X35166Y31536*
X35167Y31536*
X35233Y31591*
X35233Y31591*
X35302Y31643*
X35303Y31643*
X35373Y31692*
X35374Y31693*
X35446Y31739*
X35447Y31739*
X35521Y31782*
X35521Y31782*
X35596Y31822*
X35597Y31823*
X35673Y31860*
X35674Y31860*
X35751Y31893*
X35751Y31894*
X35829Y31924*
X35829Y31924*
X35907Y31951*
X35908Y31952*
X35986Y31975*
X35986Y31975*
X36064Y31996*
X36065Y31996*
X36142Y32012*
X36143Y32013*
X36220Y32026*
X36220Y32026*
X36296Y32035*
X36297Y32035*
X36371Y32041*
X36372Y32041*
X36445Y32043*
X36445Y32043*
X36482Y32044*
X36521Y32045*
X36607Y32050*
X36607Y32050*
X36703Y32055*
X36704Y32055*
X36808Y32057*
X36808Y32057*
X39327Y32057*
X39645Y32840*
X36809Y32840*
X36723Y32838*
X36637Y32833*
X36551Y32828*
X36550Y32828*
X36464Y32826*
X36464Y32826*
X36337Y32824*
X36202Y32819*
X36061Y32810*
X35915Y32797*
X35764Y32779*
X35609Y32758*
X35450Y32731*
X35289Y32699*
X35126Y32663*
X34961Y32621*
X34796Y32573*
X34632Y32520*
X34468Y32461*
X34306Y32395*
X34147Y32323*
X33991Y32244*
X33839Y32159*
X33691Y32066*
X33549Y31966*
X33412Y31858*
X33347Y31802*
X33283Y31743*
X33221Y31682*
X33161Y31620*
X33104Y31555*
X33048Y31489*
X32994Y31420*
X32943Y31349*
X32895Y31276*
X32848Y31200*
X32805Y31123*
X32764Y31043*
X32725Y30961*
X32690Y30877*
X32658Y30790*
X32628Y30701*
X32602Y30609*
X32579Y30516*
X32559Y30419*
X32543Y30320*
X32530Y30219*
X32520Y30115*
X32515Y30008*
X32513Y29899*
X32514Y29803*
X32519Y29708*
X32527Y29616*
X32538Y29526*
X32552Y29438*
X32568Y29352*
X32588Y29268*
X32609Y29186*
X32634Y29107*
X32661Y29029*
X32690Y28953*
X32722Y28879*
X32755Y28807*
X32791Y28736*
X32869Y28601*
X32953Y28473*
X33045Y28352*
X33142Y28238*
X33244Y28130*
X33351Y28029*
X33462Y27934*
X33575Y27845*
X33691Y27762*
X33809Y27684*
X33927Y27612*
X34045Y27546*
X34163Y27484*
X34279Y27428*
X34393Y27376*
X34505Y27329*
X34613Y27286*
X34717Y27248*
X34815Y27213*
X34908Y27183*
X34995Y27156*
X35074Y27133*
X35145Y27113*
X35208Y27096*
X35262Y27082*
X35342Y27062*
X35426Y27041*
X35513Y27021*
X35603Y26999*
X35603Y26999*
X35791Y26954*
X35791Y26954*
X35985Y26904*
X35985Y26904*
X36183Y26848*
X36183Y26848*
X36380Y26784*
X36381Y26784*
X36479Y26749*
X36479Y26749*
X36575Y26711*
X36576Y26710*
X36671Y26670*
X36671Y26670*
X36764Y26626*
X36764Y26626*
X36855Y26579*
X36855Y26578*
X36943Y26528*
X36944Y26528*
X37028Y26474*
X37028Y26474*
X37109Y26416*
X37110Y26416*
X37187Y26354*
X37187Y26354*
X37259Y26288*
X37260Y26287*
X37327Y26217*
X37328Y26216*
X37390Y26141*
X37391Y26141*
X37447Y26061*
X37448Y26060*
X37498Y25976*
X37498Y25975*
X37542Y25885*
X37542Y25884*
X37579Y25789*
X37579Y25788*
X37608Y25688*
X37609Y25686*
X37630Y25580*
X37630Y25579*
X37643Y25467*
X37643Y25466*
X37647Y25408*
X37647Y25408*
X37648Y25348*
X37648Y25347*
X37647Y25277*
X37647Y25276*
X37643Y25208*
X37643Y25207*
X37638Y25141*
X37638Y25141*
X37630Y25077*
X37630Y25077*
X37620Y25015*
X37620Y25015*
X37609Y24955*
X37609Y24955*
X37595Y24898*
X37595Y24897*
X37580Y24842*
X37580Y24841*
X37544Y24738*
X37544Y24737*
X37502Y24641*
X37501Y24640*
X37454Y24553*
X37453Y24552*
X37400Y24471*
X37400Y24471*
X37342Y24398*
X37342Y24397*
X37280Y24331*
X37280Y24330*
X37215Y24270*
X37214Y24270*
X37146Y24216*
X37145Y24216*
X37075Y24168*
X37075Y24167*
X37003Y24125*
X37002Y24125*
X36929Y24088*
X36929Y24088*
X36855Y24056*
X36855Y24056*
X36782Y24028*
X36781Y24028*
X36708Y24005*
X36708Y24005*
X36636Y23985*
X36636Y23985*
X36566Y23969*
X36565Y23969*
X36498Y23956*
X36497Y23956*
X36433Y23946*
X36432Y23946*
X36371Y23939*
X36371Y23939*
X36314Y23934*
X36313Y23934*
X36261Y23930*
X36261Y23930*
X36213Y23929*
X36213Y23929*
X36171Y23928*
X36171Y23928*
X36135Y23928*
X36135Y23928*
X36107Y23929*
X36106Y23929*
X36085Y23930*
X36085Y23930*
X36072Y23931*
X36072Y23931*
X36068Y23931*
X35714Y23927*
X35714Y23927*
X32927Y23927*
X33213Y23144*
X36245Y23144*
X36317Y23144*
X33204Y23168D02*
X36922Y23168D01*
X33186Y23218D02*
X37209Y23218D01*
X33168Y23267D02*
X37399Y23267D01*
X33150Y23317D02*
X37552Y23317D01*
X33131Y23366D02*
X37684Y23366D01*
X33113Y23416D02*
X37801Y23416D01*
X33095Y23466D02*
X37907Y23466D01*
X33077Y23515D02*
X38004Y23515D01*
X33059Y23565D02*
X38093Y23565D01*
X33041Y23614D02*
X38175Y23614D01*
X33023Y23664D02*
X38254Y23664D01*
X33005Y23713D02*
X38326Y23713D01*
X32987Y23763D02*
X38395Y23763D01*
X32969Y23812D02*
X38461Y23812D01*
X32951Y23862D02*
X38522Y23862D01*
X32932Y23911D02*
X38582Y23911D01*
X36522Y23961D02*
X38637Y23961D01*
X36726Y24010D02*
X38691Y24010D01*
X36865Y24060D02*
X38740Y24060D01*
X36971Y24109D02*
X38790Y24109D01*
X37060Y24159D02*
X38835Y24159D01*
X37135Y24208D02*
X38880Y24208D01*
X37199Y24258D02*
X38921Y24258D01*
X37255Y24308D02*
X38962Y24308D01*
X37305Y24357D02*
X39000Y24357D01*
X37350Y24407D02*
X39037Y24407D01*
X37388Y24456D02*
X39072Y24456D01*
X37423Y24506D02*
X39105Y24506D01*
X37455Y24555D02*
X39138Y24555D01*
X37482Y24605D02*
X39167Y24605D01*
X37508Y24654D02*
X39197Y24654D01*
X37529Y24704D02*
X39225Y24704D01*
X37549Y24753D02*
X39250Y24753D01*
X37566Y24803D02*
X39276Y24803D01*
X37583Y24852D02*
X39300Y24852D01*
X37596Y24902D02*
X39322Y24902D01*
X37608Y24951D02*
X39344Y24951D01*
X37618Y25001D02*
X39364Y25001D01*
X37626Y25050D02*
X39383Y25050D01*
X37633Y25100D02*
X39402Y25100D01*
X37638Y25150D02*
X39418Y25150D01*
X37642Y25199D02*
X39434Y25199D01*
X37645Y25249D02*
X39449Y25249D01*
X37647Y25298D02*
X39462Y25298D01*
X37648Y25348D02*
X39475Y25348D01*
X37647Y25397D02*
X39488Y25397D01*
X37644Y25447D02*
X39498Y25447D01*
X37640Y25496D02*
X39508Y25496D01*
X37634Y25546D02*
X39518Y25546D01*
X37627Y25595D02*
X39525Y25595D01*
X37617Y25645D02*
X39532Y25645D01*
X37606Y25694D02*
X39539Y25694D01*
X37592Y25744D02*
X39545Y25744D01*
X37577Y25793D02*
X39549Y25793D01*
X37558Y25843D02*
X39553Y25843D01*
X37538Y25893D02*
X39557Y25893D01*
X37514Y25942D02*
X39558Y25942D01*
X37488Y25992D02*
X39559Y25992D01*
X37459Y26041D02*
X39561Y26041D01*
X37426Y26091D02*
X39560Y26091D01*
X37391Y26140D02*
X39559Y26140D01*
X37350Y26190D02*
X39557Y26190D01*
X37306Y26239D02*
X39555Y26239D01*
X37258Y26289D02*
X39551Y26289D01*
X37204Y26338D02*
X39546Y26338D01*
X37144Y26388D02*
X39541Y26388D01*
X37079Y26437D02*
X39534Y26437D01*
X37008Y26487D02*
X39527Y26487D01*
X36929Y26536D02*
X39519Y26536D01*
X36841Y26586D02*
X39509Y26586D01*
X36743Y26635D02*
X39500Y26635D01*
X36635Y26685D02*
X39488Y26685D01*
X36515Y26735D02*
X39475Y26735D01*
X36381Y26784D02*
X39462Y26784D01*
X36228Y26834D02*
X39446Y26834D01*
X36060Y26883D02*
X39430Y26883D01*
X35875Y26933D02*
X39413Y26933D01*
X35675Y26982D02*
X39394Y26982D01*
X35467Y27032D02*
X39375Y27032D01*
X35264Y27081D02*
X39353Y27081D01*
X35081Y27131D02*
X39330Y27131D01*
X34916Y27180D02*
X39306Y27180D01*
X34768Y27230D02*
X39279Y27230D01*
X34631Y27279D02*
X39253Y27279D01*
X34505Y27329D02*
X39222Y27329D01*
X34388Y27378D02*
X39192Y27378D01*
X34279Y27428D02*
X39159Y27428D01*
X34177Y27477D02*
X39124Y27477D01*
X34081Y27527D02*
X39087Y27527D01*
X33990Y27577D02*
X39049Y27577D01*
X33904Y27626D02*
X39007Y27626D01*
X33823Y27676D02*
X38964Y27676D01*
X33747Y27725D02*
X38918Y27725D01*
X33673Y27775D02*
X38870Y27775D01*
X33604Y27824D02*
X38818Y27824D01*
X33538Y27874D02*
X38765Y27874D01*
X33475Y27923D02*
X38707Y27923D01*
X33416Y27973D02*
X38646Y27973D01*
X33359Y28022D02*
X38583Y28022D01*
X33306Y28072D02*
X38514Y28072D01*
X33254Y28121D02*
X38442Y28121D01*
X33206Y28171D02*
X38366Y28171D01*
X33159Y28220D02*
X38284Y28220D01*
X33115Y28270D02*
X38196Y28270D01*
X33072Y28319D02*
X38103Y28319D01*
X33032Y28369D02*
X38003Y28369D01*
X32995Y28419D02*
X37896Y28419D01*
X32957Y28468D02*
X37779Y28468D01*
X32924Y28518D02*
X37652Y28518D01*
X32891Y28567D02*
X37512Y28567D01*
X32860Y28617D02*
X37357Y28617D01*
X32831Y28666D02*
X37183Y28666D01*
X32803Y28716D02*
X36981Y28716D01*
X32776Y28765D02*
X36746Y28765D01*
X32751Y28815D02*
X36514Y28815D01*
X32728Y28864D02*
X36306Y28864D01*
X32707Y28914D02*
X36121Y28914D01*
X32686Y28963D02*
X35954Y28963D01*
X32667Y29013D02*
X35806Y29013D01*
X32649Y29062D02*
X35673Y29062D01*
X32632Y29112D02*
X35554Y29112D01*
X32617Y29161D02*
X35447Y29161D01*
X32603Y29211D02*
X35351Y29211D01*
X32590Y29261D02*
X35265Y29261D01*
X32578Y29310D02*
X35187Y29310D01*
X32567Y29360D02*
X35117Y29360D01*
X32557Y29409D02*
X35054Y29409D01*
X32548Y29459D02*
X34998Y29459D01*
X32541Y29508D02*
X34946Y29508D01*
X32534Y29558D02*
X34900Y29558D01*
X32528Y29607D02*
X34859Y29607D01*
X32524Y29657D02*
X34822Y29657D01*
X32519Y29706D02*
X34789Y29706D01*
X32517Y29756D02*
X34760Y29756D01*
X32514Y29805D02*
X34733Y29805D01*
X32514Y29855D02*
X34710Y29855D01*
X32513Y29904D02*
X34690Y29904D01*
X32514Y29954D02*
X34672Y29954D01*
X32515Y30003D02*
X34656Y30003D01*
X32517Y30053D02*
X34643Y30053D01*
X32520Y30103D02*
X34632Y30103D01*
X32524Y30152D02*
X34623Y30152D01*
X32528Y30202D02*
X34616Y30202D01*
X32534Y30251D02*
X34610Y30251D01*
X32540Y30301D02*
X34606Y30301D01*
X32548Y30350D02*
X34604Y30350D01*
X32556Y30400D02*
X34603Y30400D01*
X32565Y30449D02*
X34604Y30449D01*
X32575Y30499D02*
X34606Y30499D01*
X32587Y30548D02*
X34610Y30548D01*
X32599Y30598D02*
X34616Y30598D01*
X32613Y30647D02*
X34625Y30647D01*
X32627Y30697D02*
X34635Y30697D01*
X32643Y30746D02*
X34647Y30746D01*
X32660Y30796D02*
X34661Y30796D01*
X32678Y30846D02*
X34677Y30846D01*
X32698Y30895D02*
X34696Y30895D01*
X32719Y30945D02*
X34716Y30945D01*
X32741Y30994D02*
X34739Y30994D01*
X32764Y31044D02*
X34765Y31044D01*
X32789Y31093D02*
X34792Y31093D01*
X32816Y31143D02*
X34822Y31143D01*
X32844Y31192D02*
X34855Y31192D01*
X32874Y31242D02*
X34891Y31242D01*
X32905Y31291D02*
X34928Y31291D01*
X32938Y31341D02*
X34970Y31341D01*
X32973Y31390D02*
X35015Y31390D01*
X33010Y31440D02*
X35063Y31440D01*
X33049Y31489D02*
X35114Y31489D01*
X33090Y31539D02*
X35170Y31539D01*
X33133Y31588D02*
X35230Y31588D01*
X33179Y31638D02*
X35295Y31638D01*
X33227Y31688D02*
X35366Y31688D01*
X33277Y31737D02*
X35443Y31737D01*
X33331Y31787D02*
X35529Y31787D01*
X33387Y31836D02*
X35625Y31836D01*
X33447Y31886D02*
X35733Y31886D01*
X33510Y31935D02*
X35861Y31935D01*
X33575Y31985D02*
X36022Y31985D01*
X33646Y32034D02*
X36288Y32034D01*
X33719Y32084D02*
X39338Y32084D01*
X33798Y32133D02*
X39358Y32133D01*
X33882Y32183D02*
X39378Y32183D01*
X33970Y32232D02*
X39398Y32232D01*
X34065Y32282D02*
X39418Y32282D01*
X34166Y32331D02*
X39438Y32331D01*
X34275Y32381D02*
X39458Y32381D01*
X34394Y32430D02*
X39479Y32430D01*
X34522Y32480D02*
X39499Y32480D01*
X34661Y32530D02*
X39519Y32530D01*
X34816Y32579D02*
X39539Y32579D01*
X34991Y32629D02*
X39559Y32629D01*
X35194Y32678D02*
X39579Y32678D01*
X35433Y32728D02*
X39599Y32728D01*
X35749Y32777D02*
X39619Y32777D01*
X36493Y32827D02*
X39639Y32827D01*
X22341Y23148D02*
X22341Y23148D01*
X22341Y23148*
X22330Y23178*
X22330Y23178*
X22317Y23215*
X22317Y23215*
X22303Y23260*
X22303Y23260*
X22287Y23311*
X22287Y23312*
X22271Y23370*
X22271Y23370*
X22256Y23435*
X22255Y23435*
X22240Y23506*
X22240Y23507*
X22226Y23584*
X22226Y23584*
X22213Y23666*
X22213Y23667*
X22202Y23755*
X22202Y23755*
X22194Y23848*
X22194Y23848*
X22188Y23946*
X22188Y23946*
X22186Y24049*
X22186Y24049*
X22187Y24114*
X22187Y24114*
X22189Y24175*
X22189Y24175*
X22193Y24232*
X22193Y24232*
X22197Y24285*
X22197Y24286*
X22203Y24335*
X22203Y24335*
X22209Y24380*
X22209Y24380*
X22215Y24422*
X22215Y24422*
X22222Y24459*
X22222Y24460*
X22229Y24493*
X22229Y24493*
X22235Y24522*
X22235Y24522*
X22242Y24547*
X22242Y24548*
X22247Y24568*
X22247Y24569*
X22252Y24585*
X22252Y24585*
X22256Y24598*
X22256Y24598*
X22259Y24606*
X22259Y24609*
X22260Y24610*
X22260Y24610*
X22261Y24614*
X22263Y24622*
X22263Y24622*
X22265Y24632*
X22268Y24646*
X22268Y24646*
X22309Y24814*
X22571Y25905*
X22762Y26701*
X22762Y26701*
X22889Y27231*
X22889Y27231*
X22978Y27600*
X22978Y27600*
X23254Y28751*
X23937Y31595*
X24141Y32443*
X24141Y32443*
X24225Y32794*
X24225Y32794*
X24230Y32816*
X24230Y32816*
X24235Y32835*
X24239Y32850*
X24239Y32850*
X24240Y32856*
X22912Y32856*
X22913Y32849*
X22913Y32849*
X22918Y32829*
X22918Y32829*
X22924Y32804*
X22924Y32804*
X22930Y32776*
X22930Y32776*
X22937Y32744*
X22937Y32744*
X22944Y32708*
X22944Y32708*
X22952Y32670*
X22952Y32670*
X22959Y32628*
X22959Y32628*
X22967Y32584*
X22967Y32584*
X22983Y32487*
X22983Y32487*
X22998Y32382*
X22998Y32382*
X23011Y32270*
X23011Y32270*
X23022Y32152*
X23022Y32152*
X23029Y32030*
X23029Y32030*
X23031Y31906*
X23031Y31905*
X23029Y31781*
X23029Y31780*
X23020Y31657*
X23020Y31656*
X23004Y31535*
X23004Y31534*
X22980Y31417*
X22980Y31417*
X22972Y31385*
X22963Y31348*
X22953Y31305*
X22941Y31257*
X22928Y31204*
X22914Y31145*
X22899Y31082*
X22865Y30943*
X22865Y30943*
X22828Y30786*
X22828Y30786*
X22786Y30614*
X22786Y30614*
X22742Y30429*
X22695Y30232*
X22695Y30232*
X22670Y30130*
X22670Y30130*
X22619Y29918*
X22619Y29918*
X22566Y29698*
X22457Y29241*
X22401Y29007*
X22401Y29007*
X22288Y28537*
X22288Y28537*
X22232Y28304*
X22232Y28304*
X22123Y27849*
X21996Y27319*
X21906Y26941*
X21885Y26855*
X21885Y26855*
X21768Y26366*
X21727Y26193*
X21727Y26193*
X21720Y26164*
X21720Y26164*
X21715Y26141*
X21708Y26115*
X21703Y26092*
X21663Y26092*
X19929Y32856*
X17645Y32856*
X20129Y23144*
X22342Y23144*
X22341Y23148*
X20123Y23168D02*
X22333Y23168D01*
X20110Y23218D02*
X22316Y23218D01*
X20098Y23267D02*
X22300Y23267D01*
X20085Y23317D02*
X22286Y23317D01*
X20072Y23366D02*
X22272Y23366D01*
X20060Y23416D02*
X22260Y23416D01*
X20047Y23466D02*
X22249Y23466D01*
X20034Y23515D02*
X22239Y23515D01*
X20022Y23565D02*
X22229Y23565D01*
X20009Y23614D02*
X22221Y23614D01*
X19996Y23664D02*
X22213Y23664D01*
X19983Y23713D02*
X22207Y23713D01*
X19971Y23763D02*
X22201Y23763D01*
X19958Y23812D02*
X22197Y23812D01*
X19945Y23862D02*
X22193Y23862D01*
X19933Y23911D02*
X22190Y23911D01*
X19920Y23961D02*
X22188Y23961D01*
X19907Y24010D02*
X22187Y24010D01*
X19895Y24060D02*
X22186Y24060D01*
X19882Y24109D02*
X22187Y24109D01*
X19869Y24159D02*
X22189Y24159D01*
X19857Y24208D02*
X22191Y24208D01*
X19844Y24258D02*
X22195Y24258D01*
X19831Y24308D02*
X22200Y24308D01*
X19819Y24357D02*
X22206Y24357D01*
X19806Y24407D02*
X22213Y24407D01*
X19793Y24456D02*
X22222Y24456D01*
X19781Y24506D02*
X22232Y24506D01*
X19768Y24555D02*
X22244Y24555D01*
X19755Y24605D02*
X22258Y24605D01*
X19743Y24654D02*
X22270Y24654D01*
X19730Y24704D02*
X22282Y24704D01*
X19717Y24753D02*
X22294Y24753D01*
X19705Y24803D02*
X22306Y24803D01*
X19692Y24852D02*
X22318Y24852D01*
X19679Y24902D02*
X22330Y24902D01*
X19667Y24951D02*
X22342Y24951D01*
X19654Y25001D02*
X22354Y25001D01*
X19641Y25050D02*
X22366Y25050D01*
X19629Y25100D02*
X22377Y25100D01*
X19616Y25150D02*
X22389Y25150D01*
X19603Y25199D02*
X22401Y25199D01*
X19591Y25249D02*
X22413Y25249D01*
X19578Y25298D02*
X22425Y25298D01*
X19565Y25348D02*
X22437Y25348D01*
X19553Y25397D02*
X22449Y25397D01*
X19540Y25447D02*
X22461Y25447D01*
X19527Y25496D02*
X22473Y25496D01*
X19515Y25546D02*
X22484Y25546D01*
X19502Y25595D02*
X22496Y25595D01*
X19489Y25645D02*
X22508Y25645D01*
X19477Y25694D02*
X22520Y25694D01*
X19464Y25744D02*
X22532Y25744D01*
X19451Y25793D02*
X22544Y25793D01*
X19439Y25843D02*
X22556Y25843D01*
X19426Y25893D02*
X22568Y25893D01*
X19413Y25942D02*
X22580Y25942D01*
X19401Y25992D02*
X22592Y25992D01*
X19388Y26041D02*
X22603Y26041D01*
X19375Y26091D02*
X22615Y26091D01*
X19363Y26140D02*
X21651Y26140D01*
X21714Y26140D02*
X22627Y26140D01*
X19350Y26190D02*
X21638Y26190D01*
X21726Y26190D02*
X22639Y26190D01*
X19337Y26239D02*
X21625Y26239D01*
X21738Y26239D02*
X22651Y26239D01*
X19325Y26289D02*
X21612Y26289D01*
X21750Y26289D02*
X22663Y26289D01*
X19312Y26338D02*
X21600Y26338D01*
X21762Y26338D02*
X22675Y26338D01*
X19299Y26388D02*
X21587Y26388D01*
X21773Y26388D02*
X22687Y26388D01*
X19287Y26437D02*
X21574Y26437D01*
X21785Y26437D02*
X22699Y26437D01*
X19274Y26487D02*
X21562Y26487D01*
X21797Y26487D02*
X22710Y26487D01*
X19261Y26536D02*
X21549Y26536D01*
X21809Y26536D02*
X22722Y26536D01*
X19249Y26586D02*
X21536Y26586D01*
X21821Y26586D02*
X22734Y26586D01*
X19236Y26635D02*
X21524Y26635D01*
X21833Y26635D02*
X22746Y26635D01*
X19223Y26685D02*
X21511Y26685D01*
X21845Y26685D02*
X22758Y26685D01*
X19211Y26735D02*
X21498Y26735D01*
X21856Y26735D02*
X22770Y26735D01*
X19198Y26784D02*
X21485Y26784D01*
X21868Y26784D02*
X22782Y26784D01*
X19185Y26834D02*
X21473Y26834D01*
X21880Y26834D02*
X22794Y26834D01*
X19173Y26883D02*
X21460Y26883D01*
X21892Y26883D02*
X22806Y26883D01*
X19160Y26933D02*
X21447Y26933D01*
X21904Y26933D02*
X22817Y26933D01*
X19147Y26982D02*
X21435Y26982D01*
X21916Y26982D02*
X22829Y26982D01*
X19135Y27032D02*
X21422Y27032D01*
X21928Y27032D02*
X22841Y27032D01*
X19122Y27081D02*
X21409Y27081D01*
X21939Y27081D02*
X22853Y27081D01*
X19109Y27131D02*
X21397Y27131D01*
X21951Y27131D02*
X22865Y27131D01*
X19097Y27180D02*
X21384Y27180D01*
X21963Y27180D02*
X22877Y27180D01*
X19084Y27230D02*
X21371Y27230D01*
X21975Y27230D02*
X22889Y27230D01*
X19071Y27279D02*
X21359Y27279D01*
X21987Y27279D02*
X22901Y27279D01*
X19059Y27329D02*
X21346Y27329D01*
X21999Y27329D02*
X22913Y27329D01*
X19046Y27378D02*
X21333Y27378D01*
X22011Y27378D02*
X22925Y27378D01*
X19033Y27428D02*
X21320Y27428D01*
X22022Y27428D02*
X22936Y27428D01*
X19021Y27477D02*
X21308Y27477D01*
X22034Y27477D02*
X22948Y27477D01*
X19008Y27527D02*
X21295Y27527D01*
X22046Y27527D02*
X22960Y27527D01*
X18995Y27577D02*
X21282Y27577D01*
X22058Y27577D02*
X22972Y27577D01*
X18983Y27626D02*
X21270Y27626D01*
X22070Y27626D02*
X22984Y27626D01*
X18970Y27676D02*
X21257Y27676D01*
X22082Y27676D02*
X22996Y27676D01*
X18957Y27725D02*
X21244Y27725D01*
X22094Y27725D02*
X23008Y27725D01*
X18945Y27775D02*
X21232Y27775D01*
X22105Y27775D02*
X23020Y27775D01*
X18932Y27824D02*
X21219Y27824D01*
X22117Y27824D02*
X23032Y27824D01*
X18919Y27874D02*
X21206Y27874D01*
X22129Y27874D02*
X23043Y27874D01*
X18907Y27923D02*
X21194Y27923D01*
X22141Y27923D02*
X23055Y27923D01*
X18894Y27973D02*
X21181Y27973D01*
X22153Y27973D02*
X23067Y27973D01*
X18881Y28022D02*
X21168Y28022D01*
X22165Y28022D02*
X23079Y28022D01*
X18869Y28072D02*
X21155Y28072D01*
X22177Y28072D02*
X23091Y28072D01*
X18856Y28121D02*
X21143Y28121D01*
X22189Y28121D02*
X23103Y28121D01*
X18843Y28171D02*
X21130Y28171D01*
X22200Y28171D02*
X23115Y28171D01*
X18831Y28220D02*
X21117Y28220D01*
X22212Y28220D02*
X23127Y28220D01*
X18818Y28270D02*
X21105Y28270D01*
X22224Y28270D02*
X23139Y28270D01*
X18805Y28319D02*
X21092Y28319D01*
X22236Y28319D02*
X23151Y28319D01*
X18793Y28369D02*
X21079Y28369D01*
X22248Y28369D02*
X23162Y28369D01*
X18780Y28419D02*
X21067Y28419D01*
X22260Y28419D02*
X23174Y28419D01*
X18767Y28468D02*
X21054Y28468D01*
X22272Y28468D02*
X23186Y28468D01*
X18755Y28518D02*
X21041Y28518D01*
X22283Y28518D02*
X23198Y28518D01*
X18742Y28567D02*
X21028Y28567D01*
X22295Y28567D02*
X23210Y28567D01*
X18729Y28617D02*
X21016Y28617D01*
X22307Y28617D02*
X23222Y28617D01*
X18717Y28666D02*
X21003Y28666D01*
X22319Y28666D02*
X23234Y28666D01*
X18704Y28716D02*
X20990Y28716D01*
X22331Y28716D02*
X23246Y28716D01*
X18691Y28765D02*
X20978Y28765D01*
X22343Y28765D02*
X23258Y28765D01*
X18679Y28815D02*
X20965Y28815D01*
X22355Y28815D02*
X23269Y28815D01*
X18666Y28864D02*
X20952Y28864D01*
X22367Y28864D02*
X23281Y28864D01*
X18653Y28914D02*
X20940Y28914D01*
X22378Y28914D02*
X23293Y28914D01*
X18641Y28963D02*
X20927Y28963D01*
X22390Y28963D02*
X23305Y28963D01*
X18628Y29013D02*
X20914Y29013D01*
X22402Y29013D02*
X23317Y29013D01*
X18615Y29062D02*
X20902Y29062D01*
X22414Y29062D02*
X23329Y29062D01*
X18602Y29112D02*
X20889Y29112D01*
X22426Y29112D02*
X23341Y29112D01*
X18590Y29161D02*
X20876Y29161D01*
X22438Y29161D02*
X23353Y29161D01*
X18577Y29211D02*
X20863Y29211D01*
X22450Y29211D02*
X23365Y29211D01*
X18564Y29261D02*
X20851Y29261D01*
X22461Y29261D02*
X23376Y29261D01*
X18552Y29310D02*
X20838Y29310D01*
X22473Y29310D02*
X23388Y29310D01*
X18539Y29360D02*
X20825Y29360D01*
X22485Y29360D02*
X23400Y29360D01*
X18526Y29409D02*
X20813Y29409D01*
X22497Y29409D02*
X23412Y29409D01*
X18514Y29459D02*
X20800Y29459D01*
X22509Y29459D02*
X23424Y29459D01*
X18501Y29508D02*
X20787Y29508D01*
X22521Y29508D02*
X23436Y29508D01*
X18488Y29558D02*
X20775Y29558D01*
X22533Y29558D02*
X23448Y29558D01*
X18476Y29607D02*
X20762Y29607D01*
X22545Y29607D02*
X23460Y29607D01*
X18463Y29657D02*
X20749Y29657D01*
X22556Y29657D02*
X23472Y29657D01*
X18450Y29706D02*
X20737Y29706D01*
X22568Y29706D02*
X23484Y29706D01*
X18438Y29756D02*
X20724Y29756D01*
X22580Y29756D02*
X23495Y29756D01*
X18425Y29805D02*
X20711Y29805D01*
X22592Y29805D02*
X23507Y29805D01*
X18412Y29855D02*
X20698Y29855D01*
X22604Y29855D02*
X23519Y29855D01*
X18400Y29904D02*
X20686Y29904D01*
X22616Y29904D02*
X23531Y29904D01*
X18387Y29954D02*
X20673Y29954D01*
X22628Y29954D02*
X23543Y29954D01*
X18374Y30003D02*
X20660Y30003D01*
X22640Y30003D02*
X23555Y30003D01*
X18362Y30053D02*
X20648Y30053D01*
X22652Y30053D02*
X23567Y30053D01*
X18349Y30103D02*
X20635Y30103D01*
X22663Y30103D02*
X23579Y30103D01*
X18336Y30152D02*
X20622Y30152D01*
X22675Y30152D02*
X23591Y30152D01*
X18324Y30202D02*
X20610Y30202D01*
X22687Y30202D02*
X23602Y30202D01*
X18311Y30251D02*
X20597Y30251D01*
X22699Y30251D02*
X23614Y30251D01*
X18298Y30301D02*
X20584Y30301D01*
X22711Y30301D02*
X23626Y30301D01*
X18286Y30350D02*
X20571Y30350D01*
X22723Y30350D02*
X23638Y30350D01*
X18273Y30400D02*
X20559Y30400D01*
X22735Y30400D02*
X23650Y30400D01*
X18260Y30449D02*
X20546Y30449D01*
X22747Y30449D02*
X23662Y30449D01*
X18248Y30499D02*
X20533Y30499D01*
X22759Y30499D02*
X23674Y30499D01*
X18235Y30548D02*
X20521Y30548D01*
X22771Y30548D02*
X23686Y30548D01*
X18222Y30598D02*
X20508Y30598D01*
X22782Y30598D02*
X23698Y30598D01*
X18210Y30647D02*
X20495Y30647D01*
X22794Y30647D02*
X23710Y30647D01*
X18197Y30697D02*
X20483Y30697D01*
X22806Y30697D02*
X23721Y30697D01*
X18184Y30746D02*
X20470Y30746D01*
X22818Y30746D02*
X23733Y30746D01*
X18172Y30796D02*
X20457Y30796D01*
X22830Y30796D02*
X23745Y30796D01*
X18159Y30846D02*
X20445Y30846D01*
X22842Y30846D02*
X23757Y30846D01*
X18146Y30895D02*
X20432Y30895D01*
X22854Y30895D02*
X23769Y30895D01*
X18134Y30945D02*
X20419Y30945D01*
X22866Y30945D02*
X23781Y30945D01*
X18121Y30994D02*
X20406Y30994D01*
X22878Y30994D02*
X23793Y30994D01*
X18108Y31044D02*
X20394Y31044D01*
X22890Y31044D02*
X23805Y31044D01*
X18096Y31093D02*
X20381Y31093D01*
X22902Y31093D02*
X23817Y31093D01*
X18083Y31143D02*
X20368Y31143D01*
X22914Y31143D02*
X23828Y31143D01*
X18070Y31192D02*
X20356Y31192D01*
X22926Y31192D02*
X23840Y31192D01*
X18058Y31242D02*
X20343Y31242D01*
X22938Y31242D02*
X23852Y31242D01*
X18045Y31291D02*
X20330Y31291D01*
X22950Y31291D02*
X23864Y31291D01*
X18032Y31341D02*
X20318Y31341D01*
X22962Y31341D02*
X23876Y31341D01*
X18020Y31390D02*
X20305Y31390D01*
X22974Y31390D02*
X23888Y31390D01*
X18007Y31440D02*
X20292Y31440D01*
X22985Y31440D02*
X23900Y31440D01*
X17994Y31489D02*
X20280Y31489D01*
X22995Y31489D02*
X23912Y31489D01*
X17982Y31539D02*
X20267Y31539D01*
X23005Y31539D02*
X23924Y31539D01*
X17969Y31588D02*
X20254Y31588D01*
X23011Y31588D02*
X23935Y31588D01*
X17956Y31638D02*
X20241Y31638D01*
X23018Y31638D02*
X23947Y31638D01*
X17944Y31688D02*
X20229Y31688D01*
X23022Y31688D02*
X23959Y31688D01*
X17931Y31737D02*
X20216Y31737D01*
X23026Y31737D02*
X23971Y31737D01*
X17918Y31787D02*
X20203Y31787D01*
X23029Y31787D02*
X23983Y31787D01*
X17906Y31836D02*
X20191Y31836D01*
X23030Y31836D02*
X23995Y31836D01*
X17893Y31886D02*
X20178Y31886D01*
X23031Y31886D02*
X24007Y31886D01*
X17880Y31935D02*
X20165Y31935D01*
X23031Y31935D02*
X24019Y31935D01*
X17868Y31985D02*
X20153Y31985D01*
X23030Y31985D02*
X24031Y31985D01*
X17855Y32034D02*
X20140Y32034D01*
X23028Y32034D02*
X24043Y32034D01*
X17842Y32084D02*
X20127Y32084D01*
X23026Y32084D02*
X24054Y32084D01*
X17830Y32133D02*
X20114Y32133D01*
X23023Y32133D02*
X24066Y32133D01*
X17817Y32183D02*
X20102Y32183D01*
X23019Y32183D02*
X24078Y32183D01*
X17804Y32232D02*
X20089Y32232D01*
X23015Y32232D02*
X24090Y32232D01*
X17792Y32282D02*
X20076Y32282D01*
X23010Y32282D02*
X24102Y32282D01*
X17779Y32331D02*
X20064Y32331D01*
X23004Y32331D02*
X24114Y32331D01*
X17766Y32381D02*
X20051Y32381D01*
X22998Y32381D02*
X24126Y32381D01*
X17754Y32430D02*
X20038Y32430D01*
X22991Y32430D02*
X24138Y32430D01*
X17741Y32480D02*
X20026Y32480D01*
X22984Y32480D02*
X24150Y32480D01*
X17728Y32530D02*
X20013Y32530D01*
X22976Y32530D02*
X24161Y32530D01*
X17716Y32579D02*
X20000Y32579D01*
X22968Y32579D02*
X24173Y32579D01*
X17703Y32629D02*
X19988Y32629D01*
X22959Y32629D02*
X24185Y32629D01*
X17690Y32678D02*
X19975Y32678D01*
X22950Y32678D02*
X24197Y32678D01*
X17678Y32728D02*
X19962Y32728D01*
X22940Y32728D02*
X24209Y32728D01*
X17665Y32777D02*
X19949Y32777D01*
X22930Y32777D02*
X24221Y32777D01*
X17652Y32827D02*
X19937Y32827D01*
X22919Y32827D02*
X24233Y32827D01*
X31706Y32856D02*
X31706Y32856D01*
X29569Y32856*
X29569Y26682*
X29554Y26667*
X27246Y26667*
X27231Y26682*
X27231Y32856*
X25093Y32856*
X25093Y26448*
X25091Y26441*
X24649Y25806*
X25078Y25806*
X25093Y25791*
X25093Y23144*
X27231Y23144*
X27231Y25791*
X27246Y25806*
X27900Y25806*
X27994Y25807*
X28085Y25811*
X28174Y25818*
X28261Y25827*
X28345Y25838*
X28427Y25851*
X28506Y25866*
X28582Y25883*
X28656Y25900*
X28727Y25920*
X28795Y25940*
X28861Y25961*
X28924Y25983*
X28984Y26005*
X29041Y26028*
X29095Y26051*
X29146Y26074*
X29194Y26097*
X29239Y26119*
X29281Y26141*
X29320Y26162*
X29355Y26183*
X29388Y26202*
X29417Y26220*
X29443Y26236*
X29465Y26251*
X29484Y26264*
X29500Y26275*
X29512Y26284*
X29521Y26290*
X29526Y26294*
X29540Y26305*
X29569Y26291*
X29569Y23144*
X31706Y23144*
X31706Y32856*
X25093Y23168D02*
X27231Y23168D01*
X29569Y23168D02*
X31706Y23168D01*
X25093Y23218D02*
X27231Y23218D01*
X29569Y23218D02*
X31706Y23218D01*
X25093Y23267D02*
X27231Y23267D01*
X29569Y23267D02*
X31706Y23267D01*
X25093Y23317D02*
X27231Y23317D01*
X29569Y23317D02*
X31706Y23317D01*
X25093Y23366D02*
X27231Y23366D01*
X29569Y23366D02*
X31706Y23366D01*
X25093Y23416D02*
X27231Y23416D01*
X29569Y23416D02*
X31706Y23416D01*
X25093Y23466D02*
X27231Y23466D01*
X29569Y23466D02*
X31706Y23466D01*
X25093Y23515D02*
X27231Y23515D01*
X29569Y23515D02*
X31706Y23515D01*
X25093Y23565D02*
X27231Y23565D01*
X29569Y23565D02*
X31706Y23565D01*
X25093Y23614D02*
X27231Y23614D01*
X29569Y23614D02*
X31706Y23614D01*
X25093Y23664D02*
X27231Y23664D01*
X29569Y23664D02*
X31706Y23664D01*
X25093Y23713D02*
X27231Y23713D01*
X29569Y23713D02*
X31706Y23713D01*
X25093Y23763D02*
X27231Y23763D01*
X29569Y23763D02*
X31706Y23763D01*
X25093Y23812D02*
X27231Y23812D01*
X29569Y23812D02*
X31706Y23812D01*
X25093Y23862D02*
X27231Y23862D01*
X29569Y23862D02*
X31706Y23862D01*
X25093Y23911D02*
X27231Y23911D01*
X29569Y23911D02*
X31706Y23911D01*
X25093Y23961D02*
X27231Y23961D01*
X29569Y23961D02*
X31706Y23961D01*
X25093Y24010D02*
X27231Y24010D01*
X29569Y24010D02*
X31706Y24010D01*
X25093Y24060D02*
X27231Y24060D01*
X29569Y24060D02*
X31706Y24060D01*
X25093Y24109D02*
X27231Y24109D01*
X29569Y24109D02*
X31706Y24109D01*
X25093Y24159D02*
X27231Y24159D01*
X29569Y24159D02*
X31706Y24159D01*
X25093Y24208D02*
X27231Y24208D01*
X29569Y24208D02*
X31706Y24208D01*
X25093Y24258D02*
X27231Y24258D01*
X29569Y24258D02*
X31706Y24258D01*
X25093Y24308D02*
X27231Y24308D01*
X29569Y24308D02*
X31706Y24308D01*
X25093Y24357D02*
X27231Y24357D01*
X29569Y24357D02*
X31706Y24357D01*
X25093Y24407D02*
X27231Y24407D01*
X29569Y24407D02*
X31706Y24407D01*
X25093Y24456D02*
X27231Y24456D01*
X29569Y24456D02*
X31706Y24456D01*
X25093Y24506D02*
X27231Y24506D01*
X29569Y24506D02*
X31706Y24506D01*
X25093Y24555D02*
X27231Y24555D01*
X29569Y24555D02*
X31706Y24555D01*
X25093Y24605D02*
X27231Y24605D01*
X29569Y24605D02*
X31706Y24605D01*
X25093Y24654D02*
X27231Y24654D01*
X29569Y24654D02*
X31706Y24654D01*
X25093Y24704D02*
X27231Y24704D01*
X29569Y24704D02*
X31706Y24704D01*
X25093Y24753D02*
X27231Y24753D01*
X29569Y24753D02*
X31706Y24753D01*
X25093Y24803D02*
X27231Y24803D01*
X29569Y24803D02*
X31706Y24803D01*
X25093Y24852D02*
X27231Y24852D01*
X29569Y24852D02*
X31706Y24852D01*
X25093Y24902D02*
X27231Y24902D01*
X29569Y24902D02*
X31706Y24902D01*
X25093Y24951D02*
X27231Y24951D01*
X29569Y24951D02*
X31706Y24951D01*
X25093Y25001D02*
X27231Y25001D01*
X29569Y25001D02*
X31706Y25001D01*
X25093Y25050D02*
X27231Y25050D01*
X29569Y25050D02*
X31706Y25050D01*
X25093Y25100D02*
X27231Y25100D01*
X29569Y25100D02*
X31706Y25100D01*
X25093Y25150D02*
X27231Y25150D01*
X29569Y25150D02*
X31706Y25150D01*
X25093Y25199D02*
X27231Y25199D01*
X29569Y25199D02*
X31706Y25199D01*
X25093Y25249D02*
X27231Y25249D01*
X29569Y25249D02*
X31706Y25249D01*
X25093Y25298D02*
X27231Y25298D01*
X29569Y25298D02*
X31706Y25298D01*
X25093Y25348D02*
X27231Y25348D01*
X29569Y25348D02*
X31706Y25348D01*
X25093Y25397D02*
X27231Y25397D01*
X29569Y25397D02*
X31706Y25397D01*
X25093Y25447D02*
X27231Y25447D01*
X29569Y25447D02*
X31706Y25447D01*
X25093Y25496D02*
X27231Y25496D01*
X29569Y25496D02*
X31706Y25496D01*
X25093Y25546D02*
X27231Y25546D01*
X29569Y25546D02*
X31706Y25546D01*
X25093Y25595D02*
X27231Y25595D01*
X29569Y25595D02*
X31706Y25595D01*
X25093Y25645D02*
X27231Y25645D01*
X29569Y25645D02*
X31706Y25645D01*
X25093Y25694D02*
X27231Y25694D01*
X29569Y25694D02*
X31706Y25694D01*
X25093Y25744D02*
X27231Y25744D01*
X29569Y25744D02*
X31706Y25744D01*
X25091Y25793D02*
X27233Y25793D01*
X29569Y25793D02*
X31706Y25793D01*
X24675Y25843D02*
X28376Y25843D01*
X29569Y25843D02*
X31706Y25843D01*
X24710Y25893D02*
X28623Y25893D01*
X29569Y25893D02*
X31706Y25893D01*
X24744Y25942D02*
X28802Y25942D01*
X29569Y25942D02*
X31706Y25942D01*
X24779Y25992D02*
X28946Y25992D01*
X29569Y25992D02*
X31706Y25992D01*
X24813Y26041D02*
X29071Y26041D01*
X29569Y26041D02*
X31706Y26041D01*
X24847Y26091D02*
X29180Y26091D01*
X29569Y26091D02*
X31706Y26091D01*
X24882Y26140D02*
X29279Y26140D01*
X29569Y26140D02*
X31706Y26140D01*
X24916Y26190D02*
X29367Y26190D01*
X29569Y26190D02*
X31706Y26190D01*
X24951Y26239D02*
X29447Y26239D01*
X29569Y26239D02*
X31706Y26239D01*
X24985Y26289D02*
X29519Y26289D01*
X29569Y26289D02*
X31706Y26289D01*
X25020Y26338D02*
X31706Y26338D01*
X25054Y26388D02*
X31706Y26388D01*
X25089Y26437D02*
X31706Y26437D01*
X25093Y26487D02*
X31706Y26487D01*
X25093Y26536D02*
X31706Y26536D01*
X25093Y26586D02*
X31706Y26586D01*
X25093Y26635D02*
X31706Y26635D01*
X25093Y26685D02*
X27231Y26685D01*
X29569Y26685D02*
X31706Y26685D01*
X25093Y26735D02*
X27231Y26735D01*
X29569Y26735D02*
X31706Y26735D01*
X25093Y26784D02*
X27231Y26784D01*
X29569Y26784D02*
X31706Y26784D01*
X25093Y26834D02*
X27231Y26834D01*
X29569Y26834D02*
X31706Y26834D01*
X25093Y26883D02*
X27231Y26883D01*
X29569Y26883D02*
X31706Y26883D01*
X25093Y26933D02*
X27231Y26933D01*
X29569Y26933D02*
X31706Y26933D01*
X25093Y26982D02*
X27231Y26982D01*
X29569Y26982D02*
X31706Y26982D01*
X25093Y27032D02*
X27231Y27032D01*
X29569Y27032D02*
X31706Y27032D01*
X25093Y27081D02*
X27231Y27081D01*
X29569Y27081D02*
X31706Y27081D01*
X25093Y27131D02*
X27231Y27131D01*
X29569Y27131D02*
X31706Y27131D01*
X25093Y27180D02*
X27231Y27180D01*
X29569Y27180D02*
X31706Y27180D01*
X25093Y27230D02*
X27231Y27230D01*
X29569Y27230D02*
X31706Y27230D01*
X25093Y27279D02*
X27231Y27279D01*
X29569Y27279D02*
X31706Y27279D01*
X25093Y27329D02*
X27231Y27329D01*
X29569Y27329D02*
X31706Y27329D01*
X25093Y27378D02*
X27231Y27378D01*
X29569Y27378D02*
X31706Y27378D01*
X25093Y27428D02*
X27231Y27428D01*
X29569Y27428D02*
X31706Y27428D01*
X25093Y27477D02*
X27231Y27477D01*
X29569Y27477D02*
X31706Y27477D01*
X25093Y27527D02*
X27231Y27527D01*
X29569Y27527D02*
X31706Y27527D01*
X25093Y27577D02*
X27231Y27577D01*
X29569Y27577D02*
X31706Y27577D01*
X25093Y27626D02*
X27231Y27626D01*
X29569Y27626D02*
X31706Y27626D01*
X25093Y27676D02*
X27231Y27676D01*
X29569Y27676D02*
X31706Y27676D01*
X25093Y27725D02*
X27231Y27725D01*
X29569Y27725D02*
X31706Y27725D01*
X25093Y27775D02*
X27231Y27775D01*
X29569Y27775D02*
X31706Y27775D01*
X25093Y27824D02*
X27231Y27824D01*
X29569Y27824D02*
X31706Y27824D01*
X25093Y27874D02*
X27231Y27874D01*
X29569Y27874D02*
X31706Y27874D01*
X25093Y27923D02*
X27231Y27923D01*
X29569Y27923D02*
X31706Y27923D01*
X25093Y27973D02*
X27231Y27973D01*
X29569Y27973D02*
X31706Y27973D01*
X25093Y28022D02*
X27231Y28022D01*
X29569Y28022D02*
X31706Y28022D01*
X25093Y28072D02*
X27231Y28072D01*
X29569Y28072D02*
X31706Y28072D01*
X25093Y28121D02*
X27231Y28121D01*
X29569Y28121D02*
X31706Y28121D01*
X25093Y28171D02*
X27231Y28171D01*
X29569Y28171D02*
X31706Y28171D01*
X25093Y28220D02*
X27231Y28220D01*
X29569Y28220D02*
X31706Y28220D01*
X25093Y28270D02*
X27231Y28270D01*
X29569Y28270D02*
X31706Y28270D01*
X25093Y28319D02*
X27231Y28319D01*
X29569Y28319D02*
X31706Y28319D01*
X25093Y28369D02*
X27231Y28369D01*
X29569Y28369D02*
X31706Y28369D01*
X25093Y28419D02*
X27231Y28419D01*
X29569Y28419D02*
X31706Y28419D01*
X25093Y28468D02*
X27231Y28468D01*
X29569Y28468D02*
X31706Y28468D01*
X25093Y28518D02*
X27231Y28518D01*
X29569Y28518D02*
X31706Y28518D01*
X25093Y28567D02*
X27231Y28567D01*
X29569Y28567D02*
X31706Y28567D01*
X25093Y28617D02*
X27231Y28617D01*
X29569Y28617D02*
X31706Y28617D01*
X25093Y28666D02*
X27231Y28666D01*
X29569Y28666D02*
X31706Y28666D01*
X25093Y28716D02*
X27231Y28716D01*
X29569Y28716D02*
X31706Y28716D01*
X25093Y28765D02*
X27231Y28765D01*
X29569Y28765D02*
X31706Y28765D01*
X25093Y28815D02*
X27231Y28815D01*
X29569Y28815D02*
X31706Y28815D01*
X25093Y28864D02*
X27231Y28864D01*
X29569Y28864D02*
X31706Y28864D01*
X25093Y28914D02*
X27231Y28914D01*
X29569Y28914D02*
X31706Y28914D01*
X25093Y28963D02*
X27231Y28963D01*
X29569Y28963D02*
X31706Y28963D01*
X25093Y29013D02*
X27231Y29013D01*
X29569Y29013D02*
X31706Y29013D01*
X25093Y29062D02*
X27231Y29062D01*
X29569Y29062D02*
X31706Y29062D01*
X25093Y29112D02*
X27231Y29112D01*
X29569Y29112D02*
X31706Y29112D01*
X25093Y29161D02*
X27231Y29161D01*
X29569Y29161D02*
X31706Y29161D01*
X25093Y29211D02*
X27231Y29211D01*
X29569Y29211D02*
X31706Y29211D01*
X25093Y29261D02*
X27231Y29261D01*
X29569Y29261D02*
X31706Y29261D01*
X25093Y29310D02*
X27231Y29310D01*
X29569Y29310D02*
X31706Y29310D01*
X25093Y29360D02*
X27231Y29360D01*
X29569Y29360D02*
X31706Y29360D01*
X25093Y29409D02*
X27231Y29409D01*
X29569Y29409D02*
X31706Y29409D01*
X25093Y29459D02*
X27231Y29459D01*
X29569Y29459D02*
X31706Y29459D01*
X25093Y29508D02*
X27231Y29508D01*
X29569Y29508D02*
X31706Y29508D01*
X25093Y29558D02*
X27231Y29558D01*
X29569Y29558D02*
X31706Y29558D01*
X25093Y29607D02*
X27231Y29607D01*
X29569Y29607D02*
X31706Y29607D01*
X25093Y29657D02*
X27231Y29657D01*
X29569Y29657D02*
X31706Y29657D01*
X25093Y29706D02*
X27231Y29706D01*
X29569Y29706D02*
X31706Y29706D01*
X25093Y29756D02*
X27231Y29756D01*
X29569Y29756D02*
X31706Y29756D01*
X25093Y29805D02*
X27231Y29805D01*
X29569Y29805D02*
X31706Y29805D01*
X25093Y29855D02*
X27231Y29855D01*
X29569Y29855D02*
X31706Y29855D01*
X25093Y29904D02*
X27231Y29904D01*
X29569Y29904D02*
X31706Y29904D01*
X25093Y29954D02*
X27231Y29954D01*
X29569Y29954D02*
X31706Y29954D01*
X25093Y30003D02*
X27231Y30003D01*
X29569Y30003D02*
X31706Y30003D01*
X25093Y30053D02*
X27231Y30053D01*
X29569Y30053D02*
X31706Y30053D01*
X25093Y30103D02*
X27231Y30103D01*
X29569Y30103D02*
X31706Y30103D01*
X25093Y30152D02*
X27231Y30152D01*
X29569Y30152D02*
X31706Y30152D01*
X25093Y30202D02*
X27231Y30202D01*
X29569Y30202D02*
X31706Y30202D01*
X25093Y30251D02*
X27231Y30251D01*
X29569Y30251D02*
X31706Y30251D01*
X25093Y30301D02*
X27231Y30301D01*
X29569Y30301D02*
X31706Y30301D01*
X25093Y30350D02*
X27231Y30350D01*
X29569Y30350D02*
X31706Y30350D01*
X25093Y30400D02*
X27231Y30400D01*
X29569Y30400D02*
X31706Y30400D01*
X25093Y30449D02*
X27231Y30449D01*
X29569Y30449D02*
X31706Y30449D01*
X25093Y30499D02*
X27231Y30499D01*
X29569Y30499D02*
X31706Y30499D01*
X25093Y30548D02*
X27231Y30548D01*
X29569Y30548D02*
X31706Y30548D01*
X25093Y30598D02*
X27231Y30598D01*
X29569Y30598D02*
X31706Y30598D01*
X25093Y30647D02*
X27231Y30647D01*
X29569Y30647D02*
X31706Y30647D01*
X25093Y30697D02*
X27231Y30697D01*
X29569Y30697D02*
X31706Y30697D01*
X25093Y30746D02*
X27231Y30746D01*
X29569Y30746D02*
X31706Y30746D01*
X25093Y30796D02*
X27231Y30796D01*
X29569Y30796D02*
X31706Y30796D01*
X25093Y30846D02*
X27231Y30846D01*
X29569Y30846D02*
X31706Y30846D01*
X25093Y30895D02*
X27231Y30895D01*
X29569Y30895D02*
X31706Y30895D01*
X25093Y30945D02*
X27231Y30945D01*
X29569Y30945D02*
X31706Y30945D01*
X25093Y30994D02*
X27231Y30994D01*
X29569Y30994D02*
X31706Y30994D01*
X25093Y31044D02*
X27231Y31044D01*
X29569Y31044D02*
X31706Y31044D01*
X25093Y31093D02*
X27231Y31093D01*
X29569Y31093D02*
X31706Y31093D01*
X25093Y31143D02*
X27231Y31143D01*
X29569Y31143D02*
X31706Y31143D01*
X25093Y31192D02*
X27231Y31192D01*
X29569Y31192D02*
X31706Y31192D01*
X25093Y31242D02*
X27231Y31242D01*
X29569Y31242D02*
X31706Y31242D01*
X25093Y31291D02*
X27231Y31291D01*
X29569Y31291D02*
X31706Y31291D01*
X25093Y31341D02*
X27231Y31341D01*
X29569Y31341D02*
X31706Y31341D01*
X25093Y31390D02*
X27231Y31390D01*
X29569Y31390D02*
X31706Y31390D01*
X25093Y31440D02*
X27231Y31440D01*
X29569Y31440D02*
X31706Y31440D01*
X25093Y31489D02*
X27231Y31489D01*
X29569Y31489D02*
X31706Y31489D01*
X25093Y31539D02*
X27231Y31539D01*
X29569Y31539D02*
X31706Y31539D01*
X25093Y31588D02*
X27231Y31588D01*
X29569Y31588D02*
X31706Y31588D01*
X25093Y31638D02*
X27231Y31638D01*
X29569Y31638D02*
X31706Y31638D01*
X25093Y31688D02*
X27231Y31688D01*
X29569Y31688D02*
X31706Y31688D01*
X25093Y31737D02*
X27231Y31737D01*
X29569Y31737D02*
X31706Y31737D01*
X25093Y31787D02*
X27231Y31787D01*
X29569Y31787D02*
X31706Y31787D01*
X25093Y31836D02*
X27231Y31836D01*
X29569Y31836D02*
X31706Y31836D01*
X25093Y31886D02*
X27231Y31886D01*
X29569Y31886D02*
X31706Y31886D01*
X25093Y31935D02*
X27231Y31935D01*
X29569Y31935D02*
X31706Y31935D01*
X25093Y31985D02*
X27231Y31985D01*
X29569Y31985D02*
X31706Y31985D01*
X25093Y32034D02*
X27231Y32034D01*
X29569Y32034D02*
X31706Y32034D01*
X25093Y32084D02*
X27231Y32084D01*
X29569Y32084D02*
X31706Y32084D01*
X25093Y32133D02*
X27231Y32133D01*
X29569Y32133D02*
X31706Y32133D01*
X25093Y32183D02*
X27231Y32183D01*
X29569Y32183D02*
X31706Y32183D01*
X25093Y32232D02*
X27231Y32232D01*
X29569Y32232D02*
X31706Y32232D01*
X25093Y32282D02*
X27231Y32282D01*
X29569Y32282D02*
X31706Y32282D01*
X25093Y32331D02*
X27231Y32331D01*
X29569Y32331D02*
X31706Y32331D01*
X25093Y32381D02*
X27231Y32381D01*
X29569Y32381D02*
X31706Y32381D01*
X25093Y32430D02*
X27231Y32430D01*
X29569Y32430D02*
X31706Y32430D01*
X25093Y32480D02*
X27231Y32480D01*
X29569Y32480D02*
X31706Y32480D01*
X25093Y32530D02*
X27231Y32530D01*
X29569Y32530D02*
X31706Y32530D01*
X25093Y32579D02*
X27231Y32579D01*
X29569Y32579D02*
X31706Y32579D01*
X25093Y32629D02*
X27231Y32629D01*
X29569Y32629D02*
X31706Y32629D01*
X25093Y32678D02*
X27231Y32678D01*
X29569Y32678D02*
X31706Y32678D01*
X25093Y32728D02*
X27231Y32728D01*
X29569Y32728D02*
X31706Y32728D01*
X25093Y32777D02*
X27231Y32777D01*
X29569Y32777D02*
X31706Y32777D01*
X25093Y32827D02*
X27231Y32827D01*
X29569Y32827D02*
X31706Y32827D01*
%LNtext*%
G36*
X17125Y18550D02*
X16138Y21143D01*
X16602Y21143D01*
X17159Y19590D01*
X17203Y19463D01*
X17246Y19334D01*
X17286Y19202D01*
X17325Y19068D01*
X17357Y19175D01*
X17395Y19293D01*
X17439Y19422D01*
X17489Y19561D01*
X18065Y21143D01*
X18516Y21143D01*
X17535Y18550D01*
X17125Y18550D01*
X17125Y18550D01*
X20597Y18870D02*
X20476Y18774D01*
X20458Y18762D01*
X20291Y19007D01*
X20370Y19078D01*
X20436Y19159D01*
X20489Y19251D01*
X20520Y19334D01*
X20542Y19435D01*
X20556Y19554D01*
X20560Y19690D01*
X20560Y19851D01*
X20560Y19851D01*
X20425Y19804D01*
X20261Y19761D01*
X20067Y19721D01*
X19842Y19685D01*
X19717Y19665D01*
X19611Y19644D01*
X19525Y19621D01*
X19459Y19597D01*
X19406Y19570D01*
X19359Y19537D01*
X19319Y19499D01*
X19286Y19455D01*
X19259Y19406D01*
X19240Y19355D01*
X19228Y19302D01*
X19225Y19246D01*
X19233Y19162D01*
X19258Y19085D01*
X19299Y19015D01*
X19358Y18953D01*
X19432Y18902D01*
X19522Y18865D01*
X19627Y18843D01*
X19747Y18836D01*
X19870Y18843D01*
X19987Y18863D01*
X20096Y18898D01*
X20199Y18947D01*
X20291Y19007D01*
X20458Y18762D01*
X20357Y18693D01*
X20241Y18627D01*
X20127Y18577D01*
X20012Y18539D01*
X19893Y18513D01*
X19769Y18497D01*
X19642Y18491D01*
X19441Y18504D01*
X19264Y18544D01*
X19112Y18609D01*
X18985Y18700D01*
X18885Y18812D01*
X18813Y18938D01*
X18770Y19078D01*
X18756Y19234D01*
X18761Y19327D01*
X18777Y19416D01*
X18805Y19501D01*
X18842Y19581D01*
X18889Y19656D01*
X18943Y19723D01*
X19003Y19783D01*
X19070Y19834D01*
X19142Y19879D01*
X19219Y19918D01*
X19300Y19951D01*
X19386Y19978D01*
X19459Y19995D01*
X19548Y20012D01*
X19654Y20028D01*
X19776Y20044D01*
X20025Y20077D01*
X20238Y20114D01*
X20417Y20153D01*
X20560Y20196D01*
X20561Y20237D01*
X20562Y20269D01*
X20562Y20294D01*
X20562Y20310D01*
X20555Y20435D01*
X20531Y20539D01*
X20492Y20624D01*
X20438Y20689D01*
X20344Y20754D01*
X20229Y20800D01*
X20093Y20828D01*
X19937Y20838D01*
X19793Y20831D01*
X19668Y20810D01*
X19564Y20776D01*
X19480Y20729D01*
X19411Y20664D01*
X19351Y20579D01*
X19301Y20472D01*
X19261Y20344D01*
X18832Y20403D01*
X18866Y20534D01*
X18909Y20652D01*
X18962Y20757D01*
X19024Y20849D01*
X19099Y20929D01*
X19189Y20999D01*
X19293Y21059D01*
X19413Y21110D01*
X19545Y21150D01*
X19687Y21178D01*
X19839Y21196D01*
X20001Y21201D01*
X20159Y21196D01*
X20302Y21182D01*
X20429Y21157D01*
X20540Y21123D01*
X20637Y21082D01*
X20721Y21035D01*
X20790Y20983D01*
X20846Y20927D01*
X20891Y20864D01*
X20929Y20793D01*
X20959Y20714D01*
X20982Y20628D01*
X20992Y20560D01*
X20999Y20470D01*
X21003Y20358D01*
X21004Y20222D01*
X21004Y19636D01*
X21006Y19358D01*
X21011Y19136D01*
X21020Y18971D01*
X21032Y18861D01*
X21050Y18781D01*
X21074Y18702D01*
X21105Y18625D01*
X21144Y18550D01*
X20685Y18550D01*
X20653Y18621D01*
X20628Y18698D01*
X20609Y18781D01*
X20597Y18870D01*
X20597Y18870D01*
X21686Y18550D02*
X21686Y21143D01*
X22081Y21143D01*
X22081Y20774D01*
X22240Y20961D01*
X22430Y21095D01*
X22652Y21175D01*
X22906Y21201D01*
X23021Y21196D01*
X23131Y21180D01*
X23237Y21154D01*
X23337Y21117D01*
X23429Y21072D01*
X23509Y21020D01*
X23576Y20961D01*
X23631Y20896D01*
X23677Y20825D01*
X23714Y20747D01*
X23745Y20662D01*
X23768Y20571D01*
X23779Y20499D01*
X23786Y20404D01*
X23791Y20285D01*
X23792Y20144D01*
X23792Y18550D01*
X23353Y18550D01*
X23353Y20127D01*
X23350Y20253D01*
X23340Y20362D01*
X23324Y20454D01*
X23302Y20529D01*
X23271Y20592D01*
X23231Y20648D01*
X23180Y20698D01*
X23120Y20741D01*
X23052Y20776D01*
X22978Y20801D01*
X22899Y20816D01*
X22813Y20821D01*
X22678Y20809D01*
X22552Y20776D01*
X22436Y20720D01*
X22329Y20642D01*
X22240Y20533D01*
X22176Y20384D01*
X22138Y20195D01*
X22125Y19966D01*
X22125Y18550D01*
X21686Y18550D01*
X21686Y18550D01*
X24466Y18550D02*
X24466Y22129D01*
X24906Y22129D01*
X24906Y20845D01*
X25070Y21001D01*
X25254Y21112D01*
X25458Y21179D01*
X25682Y21201D01*
X25821Y21194D01*
X25951Y21173D01*
X26072Y21138D01*
X26183Y21088D01*
X26281Y21026D01*
X26365Y20953D01*
X26433Y20869D01*
X26487Y20774D01*
X26527Y20663D01*
X26555Y20529D01*
X26572Y20372D01*
X26578Y20193D01*
X26578Y18550D01*
X26139Y18550D01*
X26139Y20193D01*
X26130Y20347D01*
X26103Y20478D01*
X26058Y20587D01*
X25996Y20673D01*
X25917Y20738D01*
X25823Y20785D01*
X25715Y20814D01*
X25592Y20823D01*
X25496Y20817D01*
X25402Y20798D01*
X25312Y20766D01*
X25224Y20722D01*
X25145Y20666D01*
X25077Y20602D01*
X25022Y20529D01*
X24979Y20447D01*
X24947Y20352D01*
X24924Y20241D01*
X24910Y20113D01*
X24906Y19968D01*
X24906Y18550D01*
X24466Y18550D01*
X24466Y18550D01*
X28939Y18870D02*
X28818Y18774D01*
X28801Y18762D01*
X28633Y19007D01*
X28713Y19078D01*
X28779Y19159D01*
X28832Y19251D01*
X28863Y19334D01*
X28885Y19435D01*
X28898Y19554D01*
X28902Y19690D01*
X28902Y19851D01*
X28902Y19851D01*
X28768Y19804D01*
X28603Y19761D01*
X28409Y19721D01*
X28185Y19685D01*
X28059Y19665D01*
X27953Y19644D01*
X27867Y19621D01*
X27801Y19597D01*
X27748Y19570D01*
X27702Y19537D01*
X27662Y19499D01*
X27628Y19455D01*
X27601Y19406D01*
X27582Y19355D01*
X27571Y19302D01*
X27567Y19246D01*
X27575Y19162D01*
X27600Y19085D01*
X27642Y19015D01*
X27700Y18953D01*
X27774Y18902D01*
X27864Y18865D01*
X27969Y18843D01*
X28089Y18836D01*
X28213Y18843D01*
X28329Y18863D01*
X28439Y18898D01*
X28541Y18947D01*
X28633Y19007D01*
X28801Y18762D01*
X28699Y18693D01*
X28583Y18627D01*
X28469Y18577D01*
X28354Y18539D01*
X28235Y18513D01*
X28112Y18497D01*
X27984Y18491D01*
X27783Y18504D01*
X27607Y18544D01*
X27455Y18609D01*
X27328Y18700D01*
X27227Y18812D01*
X27156Y18938D01*
X27113Y19078D01*
X27098Y19234D01*
X27104Y19327D01*
X27120Y19416D01*
X27147Y19501D01*
X27185Y19581D01*
X27232Y19656D01*
X27285Y19723D01*
X27345Y19783D01*
X27412Y19834D01*
X27484Y19879D01*
X27561Y19918D01*
X27642Y19951D01*
X27728Y19978D01*
X27801Y19995D01*
X27890Y20012D01*
X27996Y20028D01*
X28119Y20044D01*
X28367Y20077D01*
X28581Y20114D01*
X28759Y20153D01*
X28902Y20196D01*
X28903Y20237D01*
X28904Y20269D01*
X28905Y20294D01*
X28905Y20310D01*
X28897Y20435D01*
X28874Y20539D01*
X28835Y20624D01*
X28780Y20689D01*
X28686Y20754D01*
X28571Y20800D01*
X28436Y20828D01*
X28280Y20838D01*
X28135Y20831D01*
X28010Y20810D01*
X27906Y20776D01*
X27822Y20729D01*
X27753Y20664D01*
X27694Y20579D01*
X27644Y20472D01*
X27604Y20344D01*
X27174Y20403D01*
X27208Y20534D01*
X27251Y20652D01*
X27304Y20757D01*
X27367Y20849D01*
X27441Y20929D01*
X27531Y20999D01*
X27635Y21059D01*
X27755Y21110D01*
X27887Y21150D01*
X28029Y21178D01*
X28181Y21196D01*
X28343Y21201D01*
X28502Y21196D01*
X28644Y21182D01*
X28771Y21157D01*
X28883Y21123D01*
X28980Y21082D01*
X29063Y21035D01*
X29132Y20983D01*
X29188Y20927D01*
X29233Y20864D01*
X29271Y20793D01*
X29302Y20714D01*
X29325Y20628D01*
X29334Y20560D01*
X29341Y20470D01*
X29345Y20358D01*
X29347Y20222D01*
X29347Y19636D01*
X29349Y19358D01*
X29354Y19136D01*
X29363Y18971D01*
X29375Y18861D01*
X29392Y18781D01*
X29417Y18702D01*
X29448Y18625D01*
X29486Y18550D01*
X29027Y18550D01*
X28996Y18621D01*
X28971Y18698D01*
X28952Y18781D01*
X28939Y18870D01*
X28939Y18870D01*
X31720Y19500D02*
X32152Y19444D01*
X32103Y19232D01*
X32026Y19045D01*
X31921Y18883D01*
X31789Y18744D01*
X31635Y18634D01*
X31464Y18555D01*
X31277Y18507D01*
X31073Y18491D01*
X30820Y18513D01*
X30593Y18578D01*
X30392Y18687D01*
X30217Y18839D01*
X30076Y19032D01*
X29975Y19263D01*
X29914Y19531D01*
X29894Y19837D01*
X29902Y20040D01*
X29928Y20230D01*
X29972Y20407D01*
X30033Y20571D01*
X30111Y20719D01*
X30208Y20847D01*
X30323Y20955D01*
X30456Y21044D01*
X30602Y21113D01*
X30753Y21162D01*
X30911Y21192D01*
X31075Y21201D01*
X31277Y21188D01*
X31459Y21148D01*
X31622Y21081D01*
X31766Y20988D01*
X31888Y20870D01*
X31987Y20729D01*
X32061Y20566D01*
X32110Y20381D01*
X31683Y20315D01*
X31647Y20438D01*
X31599Y20544D01*
X31539Y20634D01*
X31467Y20708D01*
X31386Y20766D01*
X31296Y20807D01*
X31198Y20832D01*
X31092Y20840D01*
X30934Y20825D01*
X30791Y20781D01*
X30664Y20706D01*
X30553Y20602D01*
X30462Y20466D01*
X30397Y20295D01*
X30358Y20089D01*
X30345Y19849D01*
X30358Y19605D01*
X30395Y19398D01*
X30458Y19226D01*
X30546Y19090D01*
X30653Y18986D01*
X30776Y18912D01*
X30914Y18868D01*
X31068Y18853D01*
X31192Y18863D01*
X31305Y18892D01*
X31408Y18942D01*
X31500Y19011D01*
X31579Y19101D01*
X31642Y19213D01*
X31689Y19346D01*
X31720Y19500D01*
X31720Y19500D01*
X32531Y18550D02*
X32531Y22129D01*
X32970Y22129D01*
X32970Y20088D01*
X34010Y21143D01*
X34579Y21143D01*
X33588Y20181D01*
X34679Y18550D01*
X34137Y18550D01*
X33280Y19876D01*
X32970Y19578D01*
X32970Y18550D01*
X32531Y18550D01*
X32531Y18550D01*
X35153Y18550D02*
X35153Y19050D01*
X35653Y19050D01*
X35653Y18550D01*
X35153Y18550D01*
X35153Y18550D01*
X38109Y19500D02*
X38541Y19444D01*
X38492Y19232D01*
X38415Y19045D01*
X38311Y18883D01*
X38179Y18744D01*
X38025Y18634D01*
X37854Y18555D01*
X37666Y18507D01*
X37462Y18491D01*
X37209Y18513D01*
X36982Y18578D01*
X36781Y18687D01*
X36607Y18839D01*
X36465Y19032D01*
X36364Y19263D01*
X36303Y19531D01*
X36283Y19837D01*
X36292Y20040D01*
X36318Y20230D01*
X36361Y20407D01*
X36422Y20571D01*
X36501Y20719D01*
X36598Y20847D01*
X36713Y20955D01*
X36846Y21044D01*
X36991Y21113D01*
X37143Y21162D01*
X37301Y21192D01*
X37465Y21201D01*
X37666Y21188D01*
X37849Y21148D01*
X38012Y21081D01*
X38156Y20988D01*
X38278Y20870D01*
X38376Y20729D01*
X38450Y20566D01*
X38500Y20381D01*
X38073Y20315D01*
X38036Y20438D01*
X37988Y20544D01*
X37928Y20634D01*
X37857Y20708D01*
X37775Y20766D01*
X37685Y20807D01*
X37588Y20832D01*
X37482Y20840D01*
X37324Y20825D01*
X37181Y20781D01*
X37054Y20706D01*
X36942Y20602D01*
X36852Y20466D01*
X36787Y20295D01*
X36748Y20089D01*
X36735Y19849D01*
X36747Y19605D01*
X36785Y19398D01*
X36847Y19226D01*
X36935Y19090D01*
X37043Y18986D01*
X37166Y18912D01*
X37304Y18868D01*
X37457Y18853D01*
X37581Y18863D01*
X37695Y18892D01*
X37798Y18942D01*
X37890Y19011D01*
X37968Y19101D01*
X38031Y19213D01*
X38078Y19346D01*
X38109Y19500D01*
X38109Y19500D01*
X40609Y18870D02*
X40489Y18774D01*
X40471Y18762D01*
X40304Y19007D01*
X40383Y19078D01*
X40449Y19159D01*
X40502Y19251D01*
X40533Y19334D01*
X40555Y19435D01*
X40568Y19554D01*
X40573Y19690D01*
X40573Y19851D01*
X40573Y19851D01*
X40438Y19804D01*
X40274Y19761D01*
X40079Y19721D01*
X39855Y19685D01*
X39729Y19665D01*
X39624Y19644D01*
X39538Y19621D01*
X39472Y19597D01*
X39419Y19570D01*
X39372Y19537D01*
X39332Y19499D01*
X39298Y19455D01*
X39272Y19406D01*
X39253Y19355D01*
X39241Y19302D01*
X39237Y19246D01*
X39246Y19162D01*
X39271Y19085D01*
X39312Y19015D01*
X39370Y18953D01*
X39445Y18902D01*
X39534Y18865D01*
X39639Y18843D01*
X39760Y18836D01*
X39883Y18843D01*
X40000Y18863D01*
X40109Y18898D01*
X40211Y18947D01*
X40304Y19007D01*
X40471Y18762D01*
X40370Y18693D01*
X40254Y18627D01*
X40139Y18577D01*
X40025Y18539D01*
X39905Y18513D01*
X39782Y18497D01*
X39655Y18491D01*
X39454Y18504D01*
X39277Y18544D01*
X39125Y18609D01*
X38998Y18700D01*
X38898Y18812D01*
X38826Y18938D01*
X38783Y19078D01*
X38769Y19234D01*
X38774Y19327D01*
X38790Y19416D01*
X38817Y19501D01*
X38855Y19581D01*
X38902Y19656D01*
X38955Y19723D01*
X39016Y19783D01*
X39082Y19834D01*
X39155Y19879D01*
X39232Y19918D01*
X39313Y19951D01*
X39399Y19978D01*
X39471Y19995D01*
X39561Y20012D01*
X39667Y20028D01*
X39789Y20044D01*
X40038Y20077D01*
X40251Y20114D01*
X40430Y20153D01*
X40573Y20196D01*
X40574Y20237D01*
X40575Y20269D01*
X40575Y20294D01*
X40575Y20310D01*
X40567Y20435D01*
X40544Y20539D01*
X40505Y20624D01*
X40451Y20689D01*
X40356Y20754D01*
X40241Y20800D01*
X40106Y20828D01*
X39950Y20838D01*
X39805Y20831D01*
X39681Y20810D01*
X39576Y20776D01*
X39492Y20729D01*
X39423Y20664D01*
X39364Y20579D01*
X39314Y20472D01*
X39274Y20344D01*
X38844Y20403D01*
X38878Y20534D01*
X38922Y20652D01*
X38975Y20757D01*
X39037Y20849D01*
X39112Y20929D01*
X39201Y20999D01*
X39306Y21059D01*
X39425Y21110D01*
X39557Y21150D01*
X39699Y21178D01*
X39852Y21196D01*
X40014Y21201D01*
X40172Y21196D01*
X40315Y21182D01*
X40442Y21157D01*
X40553Y21123D01*
X40650Y21082D01*
X40733Y21035D01*
X40803Y20983D01*
X40858Y20927D01*
X40904Y20864D01*
X40941Y20793D01*
X40972Y20714D01*
X40995Y20628D01*
X41005Y20560D01*
X41012Y20470D01*
X41016Y20358D01*
X41017Y20222D01*
X41017Y19636D01*
X41019Y19358D01*
X41024Y19136D01*
X41033Y18971D01*
X41045Y18861D01*
X41063Y18781D01*
X41087Y18702D01*
X41118Y18625D01*
X41156Y18550D01*
X40697Y18550D01*
X40666Y18621D01*
X40641Y18698D01*
X40622Y18781D01*
X40609Y18870D01*
X40609Y18870D01*
G37*
M02*