%FSLAX24Y24*%
%MOIN*%
G70*
G01*
G75*
G04 Layer_Physical_Order=2*
G04 Layer_Color=16711680*
%ADD10C,0.0100*%
%ADD11R,0.0197X0.0433*%
%ADD12R,0.0433X0.0197*%
G04:AMPARAMS|DCode=13|XSize=30mil|YSize=22mil|CornerRadius=5.5mil|HoleSize=0mil|Usage=FLASHONLY|Rotation=180.000|XOffset=0mil|YOffset=0mil|HoleType=Round|Shape=RoundedRectangle|*
%AMROUNDEDRECTD13*
21,1,0.0300,0.0110,0,0,180.0*
21,1,0.0190,0.0220,0,0,180.0*
1,1,0.0110,-0.0095,0.0055*
1,1,0.0110,0.0095,0.0055*
1,1,0.0110,0.0095,-0.0055*
1,1,0.0110,-0.0095,-0.0055*
%
%ADD13ROUNDEDRECTD13*%
G04:AMPARAMS|DCode=14|XSize=55.1mil|YSize=39.4mil|CornerRadius=4.9mil|HoleSize=0mil|Usage=FLASHONLY|Rotation=180.000|XOffset=0mil|YOffset=0mil|HoleType=Round|Shape=RoundedRectangle|*
%AMROUNDEDRECTD14*
21,1,0.0551,0.0295,0,0,180.0*
21,1,0.0453,0.0394,0,0,180.0*
1,1,0.0098,-0.0226,0.0148*
1,1,0.0098,0.0226,0.0148*
1,1,0.0098,0.0226,-0.0148*
1,1,0.0098,-0.0226,-0.0148*
%
%ADD14ROUNDEDRECTD14*%
G04:AMPARAMS|DCode=15|XSize=50mil|YSize=24mil|CornerRadius=6mil|HoleSize=0mil|Usage=FLASHONLY|Rotation=180.000|XOffset=0mil|YOffset=0mil|HoleType=Round|Shape=RoundedRectangle|*
%AMROUNDEDRECTD15*
21,1,0.0500,0.0120,0,0,180.0*
21,1,0.0380,0.0240,0,0,180.0*
1,1,0.0120,-0.0190,0.0060*
1,1,0.0120,0.0190,0.0060*
1,1,0.0120,0.0190,-0.0060*
1,1,0.0120,-0.0190,-0.0060*
%
%ADD15ROUNDEDRECTD15*%
G04:AMPARAMS|DCode=16|XSize=30mil|YSize=22mil|CornerRadius=5.5mil|HoleSize=0mil|Usage=FLASHONLY|Rotation=135.000|XOffset=0mil|YOffset=0mil|HoleType=Round|Shape=RoundedRectangle|*
%AMROUNDEDRECTD16*
21,1,0.0300,0.0110,0,0,135.0*
21,1,0.0190,0.0220,0,0,135.0*
1,1,0.0110,-0.0028,0.0106*
1,1,0.0110,0.0106,-0.0028*
1,1,0.0110,0.0028,-0.0106*
1,1,0.0110,-0.0106,0.0028*
%
%ADD16ROUNDEDRECTD16*%
%ADD17R,0.1102X0.1102*%
%ADD18O,0.0098X0.0354*%
%ADD19O,0.0354X0.0098*%
G04:AMPARAMS|DCode=20|XSize=40mil|YSize=40mil|CornerRadius=10mil|HoleSize=0mil|Usage=FLASHONLY|Rotation=135.000|XOffset=0mil|YOffset=0mil|HoleType=Round|Shape=RoundedRectangle|*
%AMROUNDEDRECTD20*
21,1,0.0400,0.0200,0,0,135.0*
21,1,0.0200,0.0400,0,0,135.0*
1,1,0.0200,0.0000,0.0141*
1,1,0.0200,0.0141,0.0000*
1,1,0.0200,0.0000,-0.0141*
1,1,0.0200,-0.0141,0.0000*
%
%ADD20ROUNDEDRECTD20*%
%ADD21P,0.1893X4X180.0*%
G04:AMPARAMS|DCode=22|XSize=9.8mil|YSize=29.5mil|CornerRadius=0mil|HoleSize=0mil|Usage=FLASHONLY|Rotation=135.000|XOffset=0mil|YOffset=0mil|HoleType=Round|Shape=Round|*
%AMOVALD22*
21,1,0.0197,0.0098,0.0000,0.0000,225.0*
1,1,0.0098,0.0070,0.0070*
1,1,0.0098,-0.0070,-0.0070*
%
%ADD22OVALD22*%

G04:AMPARAMS|DCode=23|XSize=9.8mil|YSize=29.5mil|CornerRadius=0mil|HoleSize=0mil|Usage=FLASHONLY|Rotation=225.000|XOffset=0mil|YOffset=0mil|HoleType=Round|Shape=Round|*
%AMOVALD23*
21,1,0.0197,0.0098,0.0000,0.0000,315.0*
1,1,0.0098,-0.0070,0.0070*
1,1,0.0098,0.0070,-0.0070*
%
%ADD23OVALD23*%

G04:AMPARAMS|DCode=24|XSize=35.4mil|YSize=19.7mil|CornerRadius=2.5mil|HoleSize=0mil|Usage=FLASHONLY|Rotation=170.000|XOffset=0mil|YOffset=0mil|HoleType=Round|Shape=RoundedRectangle|*
%AMROUNDEDRECTD24*
21,1,0.0354,0.0148,0,0,170.0*
21,1,0.0305,0.0197,0,0,170.0*
1,1,0.0049,-0.0137,0.0099*
1,1,0.0049,0.0163,0.0046*
1,1,0.0049,0.0137,-0.0099*
1,1,0.0049,-0.0163,-0.0046*
%
%ADD24ROUNDEDRECTD24*%
G04:AMPARAMS|DCode=25|XSize=15.7mil|YSize=19.7mil|CornerRadius=2mil|HoleSize=0mil|Usage=FLASHONLY|Rotation=170.000|XOffset=0mil|YOffset=0mil|HoleType=Round|Shape=RoundedRectangle|*
%AMROUNDEDRECTD25*
21,1,0.0157,0.0157,0,0,170.0*
21,1,0.0118,0.0197,0,0,170.0*
1,1,0.0039,-0.0044,0.0088*
1,1,0.0039,0.0072,0.0067*
1,1,0.0039,0.0044,-0.0088*
1,1,0.0039,-0.0072,-0.0067*
%
%ADD25ROUNDEDRECTD25*%
G04:AMPARAMS|DCode=26|XSize=35.4mil|YSize=19.7mil|CornerRadius=2.5mil|HoleSize=0mil|Usage=FLASHONLY|Rotation=162.000|XOffset=0mil|YOffset=0mil|HoleType=Round|Shape=RoundedRectangle|*
%AMROUNDEDRECTD26*
21,1,0.0354,0.0148,0,0,162.0*
21,1,0.0305,0.0197,0,0,162.0*
1,1,0.0049,-0.0122,0.0117*
1,1,0.0049,0.0168,0.0023*
1,1,0.0049,0.0122,-0.0117*
1,1,0.0049,-0.0168,-0.0023*
%
%ADD26ROUNDEDRECTD26*%
G04:AMPARAMS|DCode=27|XSize=15.7mil|YSize=19.7mil|CornerRadius=2mil|HoleSize=0mil|Usage=FLASHONLY|Rotation=162.000|XOffset=0mil|YOffset=0mil|HoleType=Round|Shape=RoundedRectangle|*
%AMROUNDEDRECTD27*
21,1,0.0157,0.0157,0,0,162.0*
21,1,0.0118,0.0197,0,0,162.0*
1,1,0.0039,-0.0032,0.0093*
1,1,0.0039,0.0081,0.0057*
1,1,0.0039,0.0032,-0.0093*
1,1,0.0039,-0.0081,-0.0057*
%
%ADD27ROUNDEDRECTD27*%
G04:AMPARAMS|DCode=28|XSize=35.4mil|YSize=19.7mil|CornerRadius=2.5mil|HoleSize=0mil|Usage=FLASHONLY|Rotation=154.000|XOffset=0mil|YOffset=0mil|HoleType=Round|Shape=RoundedRectangle|*
%AMROUNDEDRECTD28*
21,1,0.0354,0.0148,0,0,154.0*
21,1,0.0305,0.0197,0,0,154.0*
1,1,0.0049,-0.0105,0.0133*
1,1,0.0049,0.0169,-0.0001*
1,1,0.0049,0.0105,-0.0133*
1,1,0.0049,-0.0169,0.0001*
%
%ADD28ROUNDEDRECTD28*%
G04:AMPARAMS|DCode=29|XSize=15.7mil|YSize=19.7mil|CornerRadius=2mil|HoleSize=0mil|Usage=FLASHONLY|Rotation=154.000|XOffset=0mil|YOffset=0mil|HoleType=Round|Shape=RoundedRectangle|*
%AMROUNDEDRECTD29*
21,1,0.0157,0.0157,0,0,154.0*
21,1,0.0118,0.0197,0,0,154.0*
1,1,0.0039,-0.0019,0.0097*
1,1,0.0039,0.0088,0.0045*
1,1,0.0039,0.0019,-0.0097*
1,1,0.0039,-0.0088,-0.0045*
%
%ADD29ROUNDEDRECTD29*%
G04:AMPARAMS|DCode=30|XSize=35.4mil|YSize=19.7mil|CornerRadius=2.5mil|HoleSize=0mil|Usage=FLASHONLY|Rotation=146.000|XOffset=0mil|YOffset=0mil|HoleType=Round|Shape=RoundedRectangle|*
%AMROUNDEDRECTD30*
21,1,0.0354,0.0148,0,0,146.0*
21,1,0.0305,0.0197,0,0,146.0*
1,1,0.0049,-0.0085,0.0147*
1,1,0.0049,0.0168,-0.0024*
1,1,0.0049,0.0085,-0.0147*
1,1,0.0049,-0.0168,0.0024*
%
%ADD30ROUNDEDRECTD30*%
G04:AMPARAMS|DCode=31|XSize=15.7mil|YSize=19.7mil|CornerRadius=2mil|HoleSize=0mil|Usage=FLASHONLY|Rotation=146.000|XOffset=0mil|YOffset=0mil|HoleType=Round|Shape=RoundedRectangle|*
%AMROUNDEDRECTD31*
21,1,0.0157,0.0157,0,0,146.0*
21,1,0.0118,0.0197,0,0,146.0*
1,1,0.0039,-0.0005,0.0098*
1,1,0.0039,0.0093,0.0032*
1,1,0.0039,0.0005,-0.0098*
1,1,0.0039,-0.0093,-0.0032*
%
%ADD31ROUNDEDRECTD31*%
G04:AMPARAMS|DCode=32|XSize=35.4mil|YSize=19.7mil|CornerRadius=2.5mil|HoleSize=0mil|Usage=FLASHONLY|Rotation=138.000|XOffset=0mil|YOffset=0mil|HoleType=Round|Shape=RoundedRectangle|*
%AMROUNDEDRECTD32*
21,1,0.0354,0.0148,0,0,138.0*
21,1,0.0305,0.0197,0,0,138.0*
1,1,0.0049,-0.0064,0.0157*
1,1,0.0049,0.0163,-0.0047*
1,1,0.0049,0.0064,-0.0157*
1,1,0.0049,-0.0163,0.0047*
%
%ADD32ROUNDEDRECTD32*%
G04:AMPARAMS|DCode=33|XSize=15.7mil|YSize=19.7mil|CornerRadius=2mil|HoleSize=0mil|Usage=FLASHONLY|Rotation=138.000|XOffset=0mil|YOffset=0mil|HoleType=Round|Shape=RoundedRectangle|*
%AMROUNDEDRECTD33*
21,1,0.0157,0.0157,0,0,138.0*
21,1,0.0118,0.0197,0,0,138.0*
1,1,0.0039,0.0009,0.0098*
1,1,0.0039,0.0097,0.0019*
1,1,0.0039,-0.0009,-0.0098*
1,1,0.0039,-0.0097,-0.0019*
%
%ADD33ROUNDEDRECTD33*%
G04:AMPARAMS|DCode=34|XSize=35.4mil|YSize=19.7mil|CornerRadius=2.5mil|HoleSize=0mil|Usage=FLASHONLY|Rotation=130.000|XOffset=0mil|YOffset=0mil|HoleType=Round|Shape=RoundedRectangle|*
%AMROUNDEDRECTD34*
21,1,0.0354,0.0148,0,0,130.0*
21,1,0.0305,0.0197,0,0,130.0*
1,1,0.0049,-0.0042,0.0164*
1,1,0.0049,0.0155,-0.0069*
1,1,0.0049,0.0042,-0.0164*
1,1,0.0049,-0.0155,0.0069*
%
%ADD34ROUNDEDRECTD34*%
G04:AMPARAMS|DCode=35|XSize=15.7mil|YSize=19.7mil|CornerRadius=2mil|HoleSize=0mil|Usage=FLASHONLY|Rotation=130.000|XOffset=0mil|YOffset=0mil|HoleType=Round|Shape=RoundedRectangle|*
%AMROUNDEDRECTD35*
21,1,0.0157,0.0157,0,0,130.0*
21,1,0.0118,0.0197,0,0,130.0*
1,1,0.0039,0.0022,0.0096*
1,1,0.0039,0.0098,0.0005*
1,1,0.0039,-0.0022,-0.0096*
1,1,0.0039,-0.0098,-0.0005*
%
%ADD35ROUNDEDRECTD35*%
G04:AMPARAMS|DCode=36|XSize=35.4mil|YSize=19.7mil|CornerRadius=2.5mil|HoleSize=0mil|Usage=FLASHONLY|Rotation=122.000|XOffset=0mil|YOffset=0mil|HoleType=Round|Shape=RoundedRectangle|*
%AMROUNDEDRECTD36*
21,1,0.0354,0.0148,0,0,122.0*
21,1,0.0305,0.0197,0,0,122.0*
1,1,0.0049,-0.0018,0.0169*
1,1,0.0049,0.0143,-0.0090*
1,1,0.0049,0.0018,-0.0169*
1,1,0.0049,-0.0143,0.0090*
%
%ADD36ROUNDEDRECTD36*%
G04:AMPARAMS|DCode=37|XSize=15.7mil|YSize=19.7mil|CornerRadius=2mil|HoleSize=0mil|Usage=FLASHONLY|Rotation=122.000|XOffset=0mil|YOffset=0mil|HoleType=Round|Shape=RoundedRectangle|*
%AMROUNDEDRECTD37*
21,1,0.0157,0.0157,0,0,122.0*
21,1,0.0118,0.0197,0,0,122.0*
1,1,0.0039,0.0035,0.0092*
1,1,0.0039,0.0098,-0.0008*
1,1,0.0039,-0.0035,-0.0092*
1,1,0.0039,-0.0098,0.0008*
%
%ADD37ROUNDEDRECTD37*%
G04:AMPARAMS|DCode=38|XSize=35.4mil|YSize=19.7mil|CornerRadius=2.5mil|HoleSize=0mil|Usage=FLASHONLY|Rotation=114.000|XOffset=0mil|YOffset=0mil|HoleType=Round|Shape=RoundedRectangle|*
%AMROUNDEDRECTD38*
21,1,0.0354,0.0148,0,0,114.0*
21,1,0.0305,0.0197,0,0,114.0*
1,1,0.0049,0.0005,0.0169*
1,1,0.0049,0.0129,-0.0109*
1,1,0.0049,-0.0005,-0.0169*
1,1,0.0049,-0.0129,0.0109*
%
%ADD38ROUNDEDRECTD38*%
G04:AMPARAMS|DCode=39|XSize=15.7mil|YSize=19.7mil|CornerRadius=2mil|HoleSize=0mil|Usage=FLASHONLY|Rotation=114.000|XOffset=0mil|YOffset=0mil|HoleType=Round|Shape=RoundedRectangle|*
%AMROUNDEDRECTD39*
21,1,0.0157,0.0157,0,0,114.0*
21,1,0.0118,0.0197,0,0,114.0*
1,1,0.0039,0.0048,0.0086*
1,1,0.0039,0.0096,-0.0022*
1,1,0.0039,-0.0048,-0.0086*
1,1,0.0039,-0.0096,0.0022*
%
%ADD39ROUNDEDRECTD39*%
G04:AMPARAMS|DCode=40|XSize=35.4mil|YSize=19.7mil|CornerRadius=2.5mil|HoleSize=0mil|Usage=FLASHONLY|Rotation=106.000|XOffset=0mil|YOffset=0mil|HoleType=Round|Shape=RoundedRectangle|*
%AMROUNDEDRECTD40*
21,1,0.0354,0.0148,0,0,106.0*
21,1,0.0305,0.0197,0,0,106.0*
1,1,0.0049,0.0029,0.0167*
1,1,0.0049,0.0113,-0.0126*
1,1,0.0049,-0.0029,-0.0167*
1,1,0.0049,-0.0113,0.0126*
%
%ADD40ROUNDEDRECTD40*%
G04:AMPARAMS|DCode=41|XSize=15.7mil|YSize=19.7mil|CornerRadius=2mil|HoleSize=0mil|Usage=FLASHONLY|Rotation=106.000|XOffset=0mil|YOffset=0mil|HoleType=Round|Shape=RoundedRectangle|*
%AMROUNDEDRECTD41*
21,1,0.0157,0.0157,0,0,106.0*
21,1,0.0118,0.0197,0,0,106.0*
1,1,0.0039,0.0059,0.0078*
1,1,0.0039,0.0092,-0.0035*
1,1,0.0039,-0.0059,-0.0078*
1,1,0.0039,-0.0092,0.0035*
%
%ADD41ROUNDEDRECTD41*%
G04:AMPARAMS|DCode=42|XSize=35.4mil|YSize=19.7mil|CornerRadius=2.5mil|HoleSize=0mil|Usage=FLASHONLY|Rotation=98.000|XOffset=0mil|YOffset=0mil|HoleType=Round|Shape=RoundedRectangle|*
%AMROUNDEDRECTD42*
21,1,0.0354,0.0148,0,0,98.0*
21,1,0.0305,0.0197,0,0,98.0*
1,1,0.0049,0.0052,0.0161*
1,1,0.0049,0.0094,-0.0141*
1,1,0.0049,-0.0052,-0.0161*
1,1,0.0049,-0.0094,0.0141*
%
%ADD42ROUNDEDRECTD42*%
G04:AMPARAMS|DCode=43|XSize=15.7mil|YSize=19.7mil|CornerRadius=2mil|HoleSize=0mil|Usage=FLASHONLY|Rotation=98.000|XOffset=0mil|YOffset=0mil|HoleType=Round|Shape=RoundedRectangle|*
%AMROUNDEDRECTD43*
21,1,0.0157,0.0157,0,0,98.0*
21,1,0.0118,0.0197,0,0,98.0*
1,1,0.0039,0.0070,0.0069*
1,1,0.0039,0.0086,-0.0048*
1,1,0.0039,-0.0070,-0.0069*
1,1,0.0039,-0.0086,0.0048*
%
%ADD43ROUNDEDRECTD43*%
G04:AMPARAMS|DCode=44|XSize=35.4mil|YSize=19.7mil|CornerRadius=2.5mil|HoleSize=0mil|Usage=FLASHONLY|Rotation=10.000|XOffset=0mil|YOffset=0mil|HoleType=Round|Shape=RoundedRectangle|*
%AMROUNDEDRECTD44*
21,1,0.0354,0.0148,0,0,10.0*
21,1,0.0305,0.0197,0,0,10.0*
1,1,0.0049,0.0163,-0.0046*
1,1,0.0049,-0.0137,-0.0099*
1,1,0.0049,-0.0163,0.0046*
1,1,0.0049,0.0137,0.0099*
%
%ADD44ROUNDEDRECTD44*%
G04:AMPARAMS|DCode=45|XSize=15.7mil|YSize=19.7mil|CornerRadius=2mil|HoleSize=0mil|Usage=FLASHONLY|Rotation=10.000|XOffset=0mil|YOffset=0mil|HoleType=Round|Shape=RoundedRectangle|*
%AMROUNDEDRECTD45*
21,1,0.0157,0.0157,0,0,10.0*
21,1,0.0118,0.0197,0,0,10.0*
1,1,0.0039,0.0072,-0.0067*
1,1,0.0039,-0.0044,-0.0088*
1,1,0.0039,-0.0072,0.0067*
1,1,0.0039,0.0044,0.0088*
%
%ADD45ROUNDEDRECTD45*%
G04:AMPARAMS|DCode=46|XSize=35.4mil|YSize=19.7mil|CornerRadius=2.5mil|HoleSize=0mil|Usage=FLASHONLY|Rotation=18.000|XOffset=0mil|YOffset=0mil|HoleType=Round|Shape=RoundedRectangle|*
%AMROUNDEDRECTD46*
21,1,0.0354,0.0148,0,0,18.0*
21,1,0.0305,0.0197,0,0,18.0*
1,1,0.0049,0.0168,-0.0023*
1,1,0.0049,-0.0122,-0.0117*
1,1,0.0049,-0.0168,0.0023*
1,1,0.0049,0.0122,0.0117*
%
%ADD46ROUNDEDRECTD46*%
G04:AMPARAMS|DCode=47|XSize=15.7mil|YSize=19.7mil|CornerRadius=2mil|HoleSize=0mil|Usage=FLASHONLY|Rotation=18.000|XOffset=0mil|YOffset=0mil|HoleType=Round|Shape=RoundedRectangle|*
%AMROUNDEDRECTD47*
21,1,0.0157,0.0157,0,0,18.0*
21,1,0.0118,0.0197,0,0,18.0*
1,1,0.0039,0.0081,-0.0057*
1,1,0.0039,-0.0032,-0.0093*
1,1,0.0039,-0.0081,0.0057*
1,1,0.0039,0.0032,0.0093*
%
%ADD47ROUNDEDRECTD47*%
G04:AMPARAMS|DCode=48|XSize=35.4mil|YSize=19.7mil|CornerRadius=2.5mil|HoleSize=0mil|Usage=FLASHONLY|Rotation=26.000|XOffset=0mil|YOffset=0mil|HoleType=Round|Shape=RoundedRectangle|*
%AMROUNDEDRECTD48*
21,1,0.0354,0.0148,0,0,26.0*
21,1,0.0305,0.0197,0,0,26.0*
1,1,0.0049,0.0169,0.0001*
1,1,0.0049,-0.0105,-0.0133*
1,1,0.0049,-0.0169,-0.0001*
1,1,0.0049,0.0105,0.0133*
%
%ADD48ROUNDEDRECTD48*%
G04:AMPARAMS|DCode=49|XSize=15.7mil|YSize=19.7mil|CornerRadius=2mil|HoleSize=0mil|Usage=FLASHONLY|Rotation=26.000|XOffset=0mil|YOffset=0mil|HoleType=Round|Shape=RoundedRectangle|*
%AMROUNDEDRECTD49*
21,1,0.0157,0.0157,0,0,26.0*
21,1,0.0118,0.0197,0,0,26.0*
1,1,0.0039,0.0088,-0.0045*
1,1,0.0039,-0.0019,-0.0097*
1,1,0.0039,-0.0088,0.0045*
1,1,0.0039,0.0019,0.0097*
%
%ADD49ROUNDEDRECTD49*%
G04:AMPARAMS|DCode=50|XSize=35.4mil|YSize=19.7mil|CornerRadius=2.5mil|HoleSize=0mil|Usage=FLASHONLY|Rotation=34.000|XOffset=0mil|YOffset=0mil|HoleType=Round|Shape=RoundedRectangle|*
%AMROUNDEDRECTD50*
21,1,0.0354,0.0148,0,0,34.0*
21,1,0.0305,0.0197,0,0,34.0*
1,1,0.0049,0.0168,0.0024*
1,1,0.0049,-0.0085,-0.0147*
1,1,0.0049,-0.0168,-0.0024*
1,1,0.0049,0.0085,0.0147*
%
%ADD50ROUNDEDRECTD50*%
G04:AMPARAMS|DCode=51|XSize=15.7mil|YSize=19.7mil|CornerRadius=2mil|HoleSize=0mil|Usage=FLASHONLY|Rotation=34.000|XOffset=0mil|YOffset=0mil|HoleType=Round|Shape=RoundedRectangle|*
%AMROUNDEDRECTD51*
21,1,0.0157,0.0157,0,0,34.0*
21,1,0.0118,0.0197,0,0,34.0*
1,1,0.0039,0.0093,-0.0032*
1,1,0.0039,-0.0005,-0.0098*
1,1,0.0039,-0.0093,0.0032*
1,1,0.0039,0.0005,0.0098*
%
%ADD51ROUNDEDRECTD51*%
G04:AMPARAMS|DCode=52|XSize=35.4mil|YSize=19.7mil|CornerRadius=2.5mil|HoleSize=0mil|Usage=FLASHONLY|Rotation=42.000|XOffset=0mil|YOffset=0mil|HoleType=Round|Shape=RoundedRectangle|*
%AMROUNDEDRECTD52*
21,1,0.0354,0.0148,0,0,42.0*
21,1,0.0305,0.0197,0,0,42.0*
1,1,0.0049,0.0163,0.0047*
1,1,0.0049,-0.0064,-0.0157*
1,1,0.0049,-0.0163,-0.0047*
1,1,0.0049,0.0064,0.0157*
%
%ADD52ROUNDEDRECTD52*%
G04:AMPARAMS|DCode=53|XSize=15.7mil|YSize=19.7mil|CornerRadius=2mil|HoleSize=0mil|Usage=FLASHONLY|Rotation=42.000|XOffset=0mil|YOffset=0mil|HoleType=Round|Shape=RoundedRectangle|*
%AMROUNDEDRECTD53*
21,1,0.0157,0.0157,0,0,42.0*
21,1,0.0118,0.0197,0,0,42.0*
1,1,0.0039,0.0097,-0.0019*
1,1,0.0039,0.0009,-0.0098*
1,1,0.0039,-0.0097,0.0019*
1,1,0.0039,-0.0009,0.0098*
%
%ADD53ROUNDEDRECTD53*%
G04:AMPARAMS|DCode=54|XSize=35.4mil|YSize=19.7mil|CornerRadius=2.5mil|HoleSize=0mil|Usage=FLASHONLY|Rotation=50.000|XOffset=0mil|YOffset=0mil|HoleType=Round|Shape=RoundedRectangle|*
%AMROUNDEDRECTD54*
21,1,0.0354,0.0148,0,0,50.0*
21,1,0.0305,0.0197,0,0,50.0*
1,1,0.0049,0.0155,0.0069*
1,1,0.0049,-0.0042,-0.0164*
1,1,0.0049,-0.0155,-0.0069*
1,1,0.0049,0.0042,0.0164*
%
%ADD54ROUNDEDRECTD54*%
G04:AMPARAMS|DCode=55|XSize=15.7mil|YSize=19.7mil|CornerRadius=2mil|HoleSize=0mil|Usage=FLASHONLY|Rotation=50.000|XOffset=0mil|YOffset=0mil|HoleType=Round|Shape=RoundedRectangle|*
%AMROUNDEDRECTD55*
21,1,0.0157,0.0157,0,0,50.0*
21,1,0.0118,0.0197,0,0,50.0*
1,1,0.0039,0.0098,-0.0005*
1,1,0.0039,0.0022,-0.0096*
1,1,0.0039,-0.0098,0.0005*
1,1,0.0039,-0.0022,0.0096*
%
%ADD55ROUNDEDRECTD55*%
G04:AMPARAMS|DCode=56|XSize=35.4mil|YSize=19.7mil|CornerRadius=2.5mil|HoleSize=0mil|Usage=FLASHONLY|Rotation=58.000|XOffset=0mil|YOffset=0mil|HoleType=Round|Shape=RoundedRectangle|*
%AMROUNDEDRECTD56*
21,1,0.0354,0.0148,0,0,58.0*
21,1,0.0305,0.0197,0,0,58.0*
1,1,0.0049,0.0143,0.0090*
1,1,0.0049,-0.0018,-0.0169*
1,1,0.0049,-0.0143,-0.0090*
1,1,0.0049,0.0018,0.0169*
%
%ADD56ROUNDEDRECTD56*%
G04:AMPARAMS|DCode=57|XSize=15.7mil|YSize=19.7mil|CornerRadius=2mil|HoleSize=0mil|Usage=FLASHONLY|Rotation=58.000|XOffset=0mil|YOffset=0mil|HoleType=Round|Shape=RoundedRectangle|*
%AMROUNDEDRECTD57*
21,1,0.0157,0.0157,0,0,58.0*
21,1,0.0118,0.0197,0,0,58.0*
1,1,0.0039,0.0098,0.0008*
1,1,0.0039,0.0035,-0.0092*
1,1,0.0039,-0.0098,-0.0008*
1,1,0.0039,-0.0035,0.0092*
%
%ADD57ROUNDEDRECTD57*%
G04:AMPARAMS|DCode=58|XSize=35.4mil|YSize=19.7mil|CornerRadius=2.5mil|HoleSize=0mil|Usage=FLASHONLY|Rotation=66.000|XOffset=0mil|YOffset=0mil|HoleType=Round|Shape=RoundedRectangle|*
%AMROUNDEDRECTD58*
21,1,0.0354,0.0148,0,0,66.0*
21,1,0.0305,0.0197,0,0,66.0*
1,1,0.0049,0.0129,0.0109*
1,1,0.0049,0.0005,-0.0169*
1,1,0.0049,-0.0129,-0.0109*
1,1,0.0049,-0.0005,0.0169*
%
%ADD58ROUNDEDRECTD58*%
G04:AMPARAMS|DCode=59|XSize=15.7mil|YSize=19.7mil|CornerRadius=2mil|HoleSize=0mil|Usage=FLASHONLY|Rotation=66.000|XOffset=0mil|YOffset=0mil|HoleType=Round|Shape=RoundedRectangle|*
%AMROUNDEDRECTD59*
21,1,0.0157,0.0157,0,0,66.0*
21,1,0.0118,0.0197,0,0,66.0*
1,1,0.0039,0.0096,0.0022*
1,1,0.0039,0.0048,-0.0086*
1,1,0.0039,-0.0096,-0.0022*
1,1,0.0039,-0.0048,0.0086*
%
%ADD59ROUNDEDRECTD59*%
G04:AMPARAMS|DCode=60|XSize=35.4mil|YSize=19.7mil|CornerRadius=2.5mil|HoleSize=0mil|Usage=FLASHONLY|Rotation=74.000|XOffset=0mil|YOffset=0mil|HoleType=Round|Shape=RoundedRectangle|*
%AMROUNDEDRECTD60*
21,1,0.0354,0.0148,0,0,74.0*
21,1,0.0305,0.0197,0,0,74.0*
1,1,0.0049,0.0113,0.0126*
1,1,0.0049,0.0029,-0.0167*
1,1,0.0049,-0.0113,-0.0126*
1,1,0.0049,-0.0029,0.0167*
%
%ADD60ROUNDEDRECTD60*%
G04:AMPARAMS|DCode=61|XSize=15.7mil|YSize=19.7mil|CornerRadius=2mil|HoleSize=0mil|Usage=FLASHONLY|Rotation=74.000|XOffset=0mil|YOffset=0mil|HoleType=Round|Shape=RoundedRectangle|*
%AMROUNDEDRECTD61*
21,1,0.0157,0.0157,0,0,74.0*
21,1,0.0118,0.0197,0,0,74.0*
1,1,0.0039,0.0092,0.0035*
1,1,0.0039,0.0059,-0.0078*
1,1,0.0039,-0.0092,-0.0035*
1,1,0.0039,-0.0059,0.0078*
%
%ADD61ROUNDEDRECTD61*%
G04:AMPARAMS|DCode=62|XSize=35.4mil|YSize=19.7mil|CornerRadius=2.5mil|HoleSize=0mil|Usage=FLASHONLY|Rotation=82.000|XOffset=0mil|YOffset=0mil|HoleType=Round|Shape=RoundedRectangle|*
%AMROUNDEDRECTD62*
21,1,0.0354,0.0148,0,0,82.0*
21,1,0.0305,0.0197,0,0,82.0*
1,1,0.0049,0.0094,0.0141*
1,1,0.0049,0.0052,-0.0161*
1,1,0.0049,-0.0094,-0.0141*
1,1,0.0049,-0.0052,0.0161*
%
%ADD62ROUNDEDRECTD62*%
G04:AMPARAMS|DCode=63|XSize=15.7mil|YSize=19.7mil|CornerRadius=2mil|HoleSize=0mil|Usage=FLASHONLY|Rotation=82.000|XOffset=0mil|YOffset=0mil|HoleType=Round|Shape=RoundedRectangle|*
%AMROUNDEDRECTD63*
21,1,0.0157,0.0157,0,0,82.0*
21,1,0.0118,0.0197,0,0,82.0*
1,1,0.0039,0.0086,0.0048*
1,1,0.0039,0.0070,-0.0069*
1,1,0.0039,-0.0086,-0.0048*
1,1,0.0039,-0.0070,0.0069*
%
%ADD63ROUNDEDRECTD63*%
G04:AMPARAMS|DCode=64|XSize=35.4mil|YSize=19.7mil|CornerRadius=2.5mil|HoleSize=0mil|Usage=FLASHONLY|Rotation=90.000|XOffset=0mil|YOffset=0mil|HoleType=Round|Shape=RoundedRectangle|*
%AMROUNDEDRECTD64*
21,1,0.0354,0.0148,0,0,90.0*
21,1,0.0305,0.0197,0,0,90.0*
1,1,0.0049,0.0074,0.0153*
1,1,0.0049,0.0074,-0.0153*
1,1,0.0049,-0.0074,-0.0153*
1,1,0.0049,-0.0074,0.0153*
%
%ADD64ROUNDEDRECTD64*%
G04:AMPARAMS|DCode=65|XSize=15.7mil|YSize=19.7mil|CornerRadius=2mil|HoleSize=0mil|Usage=FLASHONLY|Rotation=90.000|XOffset=0mil|YOffset=0mil|HoleType=Round|Shape=RoundedRectangle|*
%AMROUNDEDRECTD65*
21,1,0.0157,0.0157,0,0,90.0*
21,1,0.0118,0.0197,0,0,90.0*
1,1,0.0039,0.0079,0.0059*
1,1,0.0039,0.0079,-0.0059*
1,1,0.0039,-0.0079,-0.0059*
1,1,0.0039,-0.0079,0.0059*
%
%ADD65ROUNDEDRECTD65*%
%ADD66R,0.0886X0.0472*%
%ADD67R,0.0433X0.1063*%
%ADD68R,0.0138X0.0236*%
%ADD69R,0.0453X0.0236*%
G04:AMPARAMS|DCode=70|XSize=30mil|YSize=22mil|CornerRadius=5.5mil|HoleSize=0mil|Usage=FLASHONLY|Rotation=225.000|XOffset=0mil|YOffset=0mil|HoleType=Round|Shape=RoundedRectangle|*
%AMROUNDEDRECTD70*
21,1,0.0300,0.0110,0,0,225.0*
21,1,0.0190,0.0220,0,0,225.0*
1,1,0.0110,-0.0106,-0.0028*
1,1,0.0110,0.0028,0.0106*
1,1,0.0110,0.0106,0.0028*
1,1,0.0110,-0.0028,-0.0106*
%
%ADD70ROUNDEDRECTD70*%
%ADD71R,0.0256X0.0118*%
%ADD72R,0.0689X0.0984*%
%ADD73R,0.0118X0.0256*%
G04:AMPARAMS|DCode=74|XSize=30mil|YSize=22mil|CornerRadius=5.5mil|HoleSize=0mil|Usage=FLASHONLY|Rotation=270.000|XOffset=0mil|YOffset=0mil|HoleType=Round|Shape=RoundedRectangle|*
%AMROUNDEDRECTD74*
21,1,0.0300,0.0110,0,0,270.0*
21,1,0.0190,0.0220,0,0,270.0*
1,1,0.0110,-0.0055,-0.0095*
1,1,0.0110,-0.0055,0.0095*
1,1,0.0110,0.0055,0.0095*
1,1,0.0110,0.0055,-0.0095*
%
%ADD74ROUNDEDRECTD74*%
%ADD75C,0.0200*%
%ADD76C,0.0080*%
%ADD77R,0.4350X0.1000*%
%ADD78R,0.4400X0.1650*%
%ADD79C,0.0276*%
%ADD80R,0.0591X0.0591*%
%ADD81R,0.0591X0.0591*%
%ADD82C,0.0591*%
%ADD83C,0.0250*%
%ADD84C,0.0260*%
%ADD85C,0.0157*%
%ADD86C,0.0300*%
%ADD87C,0.0500*%
%ADD88C,0.0197*%
%ADD89P,0.0341X8X157.5*%
G04:AMPARAMS|DCode=90|XSize=133.9mil|YSize=141.7mil|CornerRadius=0.7mil|HoleSize=0mil|Usage=FLASHONLY|Rotation=135.000|XOffset=0mil|YOffset=0mil|HoleType=Round|Shape=RoundedRectangle|*
%AMROUNDEDRECTD90*
21,1,0.1339,0.1404,0,0,135.0*
21,1,0.1325,0.1417,0,0,135.0*
1,1,0.0013,0.0028,0.0965*
1,1,0.0013,0.0965,0.0028*
1,1,0.0013,-0.0028,-0.0965*
1,1,0.0013,-0.0965,-0.0028*
%
%ADD90ROUNDEDRECTD90*%
G04:AMPARAMS|DCode=91|XSize=133.9mil|YSize=141.7mil|CornerRadius=0.7mil|HoleSize=0mil|Usage=FLASHONLY|Rotation=225.000|XOffset=0mil|YOffset=0mil|HoleType=Round|Shape=RoundedRectangle|*
%AMROUNDEDRECTD91*
21,1,0.1339,0.1404,0,0,225.0*
21,1,0.1325,0.1417,0,0,225.0*
1,1,0.0013,-0.0965,0.0028*
1,1,0.0013,-0.0028,0.0965*
1,1,0.0013,0.0965,-0.0028*
1,1,0.0013,0.0028,-0.0965*
%
%ADD91ROUNDEDRECTD91*%
G04:AMPARAMS|DCode=92|XSize=24mil|YSize=30mil|CornerRadius=6mil|HoleSize=0mil|Usage=FLASHONLY|Rotation=270.000|XOffset=0mil|YOffset=0mil|HoleType=Round|Shape=RoundedRectangle|*
%AMROUNDEDRECTD92*
21,1,0.0240,0.0180,0,0,270.0*
21,1,0.0120,0.0300,0,0,270.0*
1,1,0.0120,-0.0090,-0.0060*
1,1,0.0120,-0.0090,0.0060*
1,1,0.0120,0.0090,0.0060*
1,1,0.0120,0.0090,-0.0060*
%
%ADD92ROUNDEDRECTD92*%
%ADD93R,0.4350X0.0950*%
G36*
X45650Y48250D02*
X47200Y46700D01*
Y45700D01*
X49050Y43850D01*
X51050Y41850D01*
Y40900D01*
Y39250D01*
X50400Y38600D01*
Y38345D01*
X50343Y38288D01*
X48957D01*
X48510Y38735D01*
X48465Y38765D01*
X48412Y38775D01*
X47488D01*
X47435Y38765D01*
X47390Y38735D01*
X47261Y38605D01*
X47238Y38601D01*
X47185Y38565D01*
X47149Y38512D01*
X47137Y38450D01*
X47149Y38388D01*
X47185Y38335D01*
X47238Y38299D01*
X47300Y38287D01*
X47362Y38299D01*
X47415Y38335D01*
X47451Y38388D01*
X47455Y38411D01*
X47521Y38477D01*
X47571Y38469D01*
X47578Y38456D01*
X47549Y38412D01*
X47547Y38400D01*
X47853D01*
X47851Y38412D01*
X47815Y38465D01*
X47826Y38500D01*
X48355D01*
X48803Y38053D01*
X48847Y38023D01*
X48900Y38012D01*
X50262D01*
Y37307D01*
X44900Y31945D01*
X44547Y32297D01*
X44503Y32327D01*
X44450Y32338D01*
X44101D01*
X44099Y32344D01*
X44053Y32403D01*
X43994Y32449D01*
X43924Y32478D01*
X43850Y32487D01*
X43776Y32478D01*
X43706Y32449D01*
X43647Y32403D01*
X43601Y32344D01*
X43572Y32274D01*
X43563Y32200D01*
X43572Y32126D01*
X43601Y32056D01*
X43647Y31997D01*
X43706Y31951D01*
X43776Y31922D01*
X43850Y31913D01*
X43924Y31922D01*
X43994Y31951D01*
X44053Y31997D01*
X44099Y32056D01*
X44101Y32062D01*
X44347D01*
X44366Y32016D01*
X43915Y31565D01*
X43862Y31601D01*
X43800Y31613D01*
X43766Y31606D01*
X43011Y32361D01*
X42983Y32380D01*
X42950Y32387D01*
X42863D01*
X42800Y32450D01*
X39800D01*
Y32400D01*
X39800Y32400D01*
X39800Y32400D01*
X39794Y32387D01*
X38050D01*
X38022Y32381D01*
X38017Y32380D01*
X37989Y32361D01*
X37058Y31430D01*
X37005Y31459D01*
X37003Y31450D01*
X36900D01*
Y31347D01*
X36891Y31345D01*
X36920Y31292D01*
X35714Y30087D01*
X34436D01*
X33037Y31486D01*
Y32015D01*
X33065Y32035D01*
X33101Y32088D01*
X33113Y32150D01*
X33101Y32212D01*
X33065Y32265D01*
X33012Y32301D01*
X32950Y32313D01*
X32888Y32301D01*
X32835Y32265D01*
X32700Y32400D01*
X32392D01*
Y34053D01*
X32398Y34055D01*
X32458Y34101D01*
X32503Y34161D01*
X32506Y34167D01*
X32600D01*
X32601Y34165D01*
X32647Y34105D01*
X32706Y34060D01*
X32776Y34031D01*
X32850Y34021D01*
X32924Y34031D01*
X32994Y34060D01*
X33053Y34105D01*
X33099Y34165D01*
X33128Y34234D01*
X33137Y34309D01*
X33128Y34383D01*
X33099Y34452D01*
X33053Y34512D01*
X32994Y34558D01*
X32924Y34586D01*
X32850Y34596D01*
X32776Y34586D01*
X32706Y34558D01*
X32647Y34512D01*
X32601Y34452D01*
X32597Y34442D01*
X32506D01*
X32503Y34448D01*
X32458Y34508D01*
X32398Y34553D01*
X32329Y34582D01*
X32254Y34592D01*
X32180Y34582D01*
X32174Y34579D01*
X29649Y37104D01*
X31243Y38698D01*
X31273Y38743D01*
X31283Y38796D01*
X31273Y38848D01*
X31243Y38893D01*
X31232Y38900D01*
Y39804D01*
X31227Y39832D01*
X31226Y39838D01*
X31207Y39866D01*
X30931Y40141D01*
X30938Y40175D01*
X30926Y40237D01*
X30890Y40290D01*
X30837Y40326D01*
X30775Y40338D01*
X30713Y40326D01*
X30660Y40290D01*
X30624Y40237D01*
X30612Y40175D01*
X30624Y40113D01*
X30660Y40060D01*
X30713Y40024D01*
X30775Y40012D01*
X30809Y40019D01*
X31059Y39768D01*
Y38900D01*
X31048Y38893D01*
X29484Y37329D01*
X29424D01*
X28560Y38194D01*
X28515Y38224D01*
X28462Y38234D01*
X27053D01*
Y38285D01*
X27053Y38285D01*
X27043Y38337D01*
X27013Y38382D01*
X26797Y38597D01*
X26753Y38627D01*
X26700Y38638D01*
X26301D01*
X26299Y38644D01*
X26253Y38703D01*
X26194Y38749D01*
X26124Y38778D01*
X26100Y38781D01*
Y39600D01*
X25900Y39800D01*
X26072Y39972D01*
X26074Y39972D01*
X26144Y40001D01*
X26203Y40047D01*
X26249Y40106D01*
X26251Y40112D01*
X26773D01*
X26813Y40085D01*
Y39907D01*
X26758D01*
X26721Y39900D01*
X26689Y39879D01*
X26668Y39847D01*
X26661Y39810D01*
Y39690D01*
X26668Y39653D01*
X26689Y39622D01*
X26721Y39601D01*
X26758Y39593D01*
X26938D01*
X26975Y39601D01*
X27006Y39622D01*
X27027Y39653D01*
X27035Y39690D01*
Y39810D01*
X27027Y39847D01*
X27006Y39879D01*
X26987Y39892D01*
Y40085D01*
X27033Y40117D01*
X27074Y40178D01*
X27089Y40250D01*
X27078Y40305D01*
X27206Y40433D01*
X27240Y40430D01*
X27270Y40410D01*
X27305Y40403D01*
X27495D01*
X27530Y40410D01*
X27560Y40430D01*
X27580Y40460D01*
X27580Y40463D01*
X27720D01*
X27720Y40460D01*
X27740Y40430D01*
X27770Y40410D01*
X27805Y40403D01*
X27995D01*
X28030Y40410D01*
X28060Y40430D01*
X28080Y40460D01*
X28087Y40495D01*
Y40605D01*
X28080Y40640D01*
X28060Y40670D01*
X28030Y40690D01*
X27995Y40697D01*
X27805D01*
X27770Y40690D01*
X27740Y40670D01*
X27720Y40640D01*
X27720Y40637D01*
X27580D01*
X27580Y40640D01*
X27560Y40670D01*
X27530Y40690D01*
X27495Y40697D01*
X27305D01*
X27270Y40690D01*
X27240Y40670D01*
X27220Y40640D01*
X27220Y40637D01*
X27200D01*
X27167Y40630D01*
X27139Y40611D01*
X27050Y40523D01*
X26996Y40548D01*
X27014Y40762D01*
X27039Y40939D01*
X30300Y44200D01*
X30500D01*
Y45000D01*
X31650Y46150D01*
X32500Y47000D01*
X40050D01*
X40150Y46900D01*
X40400Y47150D01*
X40650D01*
Y48250D01*
X40800Y48400D01*
X41600Y49200D01*
X44700D01*
X45650Y48250D01*
D02*
G37*
%LPC*%
G36*
X34546Y36635D02*
X34315D01*
Y36404D01*
X34339Y36407D01*
X34409Y36436D01*
X34468Y36482D01*
X34514Y36541D01*
X34543Y36611D01*
X34546Y36635D01*
D02*
G37*
G36*
X34215D02*
X33984D01*
X33987Y36611D01*
X34016Y36541D01*
X34062Y36482D01*
X34121Y36436D01*
X34191Y36407D01*
X34215Y36404D01*
Y36635D01*
D02*
G37*
G36*
X43900Y36527D02*
Y36250D01*
X44177D01*
X44172Y36286D01*
X44138Y36367D01*
X44086Y36436D01*
X44017Y36488D01*
X43936Y36522D01*
X43900Y36527D01*
D02*
G37*
G36*
X34215Y36966D02*
X34191Y36963D01*
X34121Y36934D01*
X34062Y36888D01*
X34016Y36829D01*
X33987Y36759D01*
X33984Y36735D01*
X34215D01*
Y36966D01*
D02*
G37*
G36*
Y37285D02*
X33984D01*
X33987Y37261D01*
X34016Y37191D01*
X34062Y37132D01*
X34121Y37086D01*
X34191Y37057D01*
X34215Y37054D01*
Y37285D01*
D02*
G37*
G36*
X43850Y37533D02*
X43764Y37522D01*
X43683Y37488D01*
X43614Y37436D01*
X43562Y37367D01*
X43528Y37286D01*
X43517Y37200D01*
X43528Y37114D01*
X43562Y37033D01*
X43614Y36964D01*
X43683Y36912D01*
X43764Y36878D01*
X43850Y36867D01*
X43936Y36878D01*
X44017Y36912D01*
X44086Y36964D01*
X44138Y37033D01*
X44172Y37114D01*
X44183Y37200D01*
X44172Y37286D01*
X44138Y37367D01*
X44086Y37436D01*
X44017Y37488D01*
X43936Y37522D01*
X43850Y37533D01*
D02*
G37*
G36*
X34315Y36966D02*
Y36735D01*
X34546D01*
X34543Y36759D01*
X34514Y36829D01*
X34468Y36888D01*
X34409Y36934D01*
X34339Y36963D01*
X34315Y36966D01*
D02*
G37*
G36*
X40850Y34103D02*
X40838Y34101D01*
X40785Y34065D01*
X40749Y34012D01*
X40747Y34000D01*
X40850D01*
Y34103D01*
D02*
G37*
G36*
X44180Y34530D02*
X43520D01*
Y33870D01*
X44180D01*
Y34530D01*
D02*
G37*
G36*
X41053Y33900D02*
X40950D01*
Y33797D01*
X40962Y33799D01*
X41015Y33835D01*
X41051Y33888D01*
X41053Y33900D01*
D02*
G37*
G36*
X40950Y34103D02*
Y34000D01*
X41053D01*
X41051Y34012D01*
X41015Y34065D01*
X40962Y34101D01*
X40950Y34103D01*
D02*
G37*
G36*
X43800Y36527D02*
X43764Y36522D01*
X43683Y36488D01*
X43614Y36436D01*
X43562Y36367D01*
X43528Y36286D01*
X43523Y36250D01*
X43800D01*
Y36527D01*
D02*
G37*
G36*
X44177Y36150D02*
X43900D01*
Y35873D01*
X43936Y35878D01*
X44017Y35912D01*
X44086Y35964D01*
X44138Y36033D01*
X44172Y36114D01*
X44177Y36150D01*
D02*
G37*
G36*
X43800D02*
X43523D01*
X43528Y36114D01*
X43562Y36033D01*
X43614Y35964D01*
X43683Y35912D01*
X43764Y35878D01*
X43800Y35873D01*
Y36150D01*
D02*
G37*
G36*
X45650Y37903D02*
X45638Y37901D01*
X45585Y37865D01*
X45549Y37812D01*
X45547Y37800D01*
X45650D01*
Y37903D01*
D02*
G37*
G36*
X45853Y37700D02*
X45750D01*
Y37597D01*
X45762Y37599D01*
X45815Y37635D01*
X45851Y37688D01*
X45853Y37700D01*
D02*
G37*
G36*
X45650D02*
X45547D01*
X45549Y37688D01*
X45585Y37635D01*
X45638Y37599D01*
X45650Y37597D01*
Y37700D01*
D02*
G37*
G36*
X45750Y37903D02*
Y37800D01*
X45853D01*
X45851Y37812D01*
X45815Y37865D01*
X45762Y37901D01*
X45750Y37903D01*
D02*
G37*
G36*
X47853Y38300D02*
X47750D01*
Y38197D01*
X47762Y38199D01*
X47815Y38235D01*
X47851Y38288D01*
X47853Y38300D01*
D02*
G37*
G36*
X47650D02*
X47547D01*
X47549Y38288D01*
X47585Y38235D01*
X47638Y38199D01*
X47650Y38197D01*
Y38300D01*
D02*
G37*
G36*
X43850Y38533D02*
X43764Y38522D01*
X43683Y38488D01*
X43614Y38436D01*
X43562Y38367D01*
X43528Y38286D01*
X43517Y38200D01*
X43528Y38114D01*
X43562Y38033D01*
X43614Y37964D01*
X43683Y37912D01*
X43764Y37878D01*
X43850Y37867D01*
X43936Y37878D01*
X44017Y37912D01*
X44086Y37964D01*
X44138Y38033D01*
X44172Y38114D01*
X44183Y38200D01*
X44172Y38286D01*
X44138Y38367D01*
X44086Y38436D01*
X44017Y38488D01*
X43936Y38522D01*
X43850Y38533D01*
D02*
G37*
G36*
X46253Y37350D02*
X46150D01*
Y37247D01*
X46162Y37249D01*
X46215Y37285D01*
X46251Y37338D01*
X46253Y37350D01*
D02*
G37*
G36*
X46050D02*
X45947D01*
X45949Y37338D01*
X45985Y37285D01*
X46038Y37249D01*
X46050Y37247D01*
Y37350D01*
D02*
G37*
G36*
X34546Y37285D02*
X34315D01*
Y37054D01*
X34339Y37057D01*
X34409Y37086D01*
X34468Y37132D01*
X34514Y37191D01*
X34543Y37261D01*
X34546Y37285D01*
D02*
G37*
G36*
X34215Y37616D02*
X34191Y37613D01*
X34121Y37584D01*
X34062Y37538D01*
X34016Y37479D01*
X33987Y37409D01*
X33984Y37385D01*
X34215D01*
Y37616D01*
D02*
G37*
G36*
X46150Y37553D02*
Y37450D01*
X46253D01*
X46251Y37462D01*
X46215Y37515D01*
X46162Y37551D01*
X46150Y37553D01*
D02*
G37*
G36*
X46050D02*
X46038Y37551D01*
X45985Y37515D01*
X45949Y37462D01*
X45947Y37450D01*
X46050D01*
Y37553D01*
D02*
G37*
G36*
X34315Y37616D02*
Y37385D01*
X34546D01*
X34543Y37409D01*
X34514Y37479D01*
X34468Y37538D01*
X34409Y37584D01*
X34339Y37613D01*
X34315Y37616D01*
D02*
G37*
G36*
X35053Y32550D02*
X34950D01*
Y32447D01*
X34962Y32449D01*
X35015Y32485D01*
X35051Y32538D01*
X35053Y32550D01*
D02*
G37*
G36*
X34850D02*
X34747D01*
X34749Y32538D01*
X34785Y32485D01*
X34838Y32449D01*
X34850Y32447D01*
Y32550D01*
D02*
G37*
G36*
X35950Y32362D02*
X35898Y32352D01*
X35854Y32322D01*
X35824Y32278D01*
X35814Y32226D01*
X35824Y32174D01*
X35854Y32130D01*
X35898Y32100D01*
X35950Y32090D01*
X36002Y32100D01*
X36046Y32130D01*
X36076Y32174D01*
X36086Y32226D01*
X36076Y32278D01*
X36046Y32322D01*
X36002Y32352D01*
X35950Y32362D01*
D02*
G37*
G36*
X35753Y32736D02*
X35701Y32726D01*
X35657Y32696D01*
X35627Y32652D01*
X35617Y32600D01*
X35627Y32548D01*
X35657Y32504D01*
X35701Y32474D01*
X35753Y32464D01*
X35805Y32474D01*
X35849Y32504D01*
X35879Y32548D01*
X35889Y32600D01*
X35879Y32652D01*
X35849Y32696D01*
X35805Y32726D01*
X35753Y32736D01*
D02*
G37*
G36*
X37803Y32700D02*
X37700D01*
Y32597D01*
X37712Y32599D01*
X37765Y32635D01*
X37801Y32688D01*
X37803Y32700D01*
D02*
G37*
G36*
X37600D02*
X37497D01*
X37499Y32688D01*
X37535Y32635D01*
X37588Y32599D01*
X37600Y32597D01*
Y32700D01*
D02*
G37*
G36*
X36147Y32736D02*
X36095Y32726D01*
X36051Y32696D01*
X36021Y32652D01*
X36011Y32600D01*
X36021Y32548D01*
X36051Y32504D01*
X36095Y32474D01*
X36147Y32464D01*
X36199Y32474D01*
X36243Y32504D01*
X36273Y32548D01*
X36283Y32600D01*
X36273Y32652D01*
X36243Y32696D01*
X36199Y32726D01*
X36147Y32736D01*
D02*
G37*
G36*
X35304Y31177D02*
X35280Y31173D01*
X35211Y31145D01*
X35151Y31099D01*
X35105Y31039D01*
X35077Y30970D01*
X35073Y30946D01*
X35304D01*
Y31177D01*
D02*
G37*
G36*
X35635Y30846D02*
X35404D01*
Y30615D01*
X35429Y30618D01*
X35498Y30647D01*
X35558Y30692D01*
X35603Y30752D01*
X35632Y30821D01*
X35635Y30846D01*
D02*
G37*
G36*
X35304D02*
X35073D01*
X35077Y30821D01*
X35105Y30752D01*
X35151Y30692D01*
X35211Y30647D01*
X35280Y30618D01*
X35304Y30615D01*
Y30846D01*
D02*
G37*
G36*
X35404Y31177D02*
Y30946D01*
X35635D01*
X35632Y30970D01*
X35603Y31039D01*
X35558Y31099D01*
X35498Y31145D01*
X35429Y31173D01*
X35404Y31177D01*
D02*
G37*
G36*
X36900Y31653D02*
Y31550D01*
X37003D01*
X37001Y31562D01*
X36965Y31615D01*
X36912Y31651D01*
X36900Y31653D01*
D02*
G37*
G36*
X36800D02*
X36788Y31651D01*
X36735Y31615D01*
X36699Y31562D01*
X36697Y31550D01*
X36800D01*
Y31653D01*
D02*
G37*
G36*
Y31450D02*
X36697D01*
X36699Y31438D01*
X36735Y31385D01*
X36788Y31349D01*
X36800Y31347D01*
Y31450D01*
D02*
G37*
G36*
X37050Y32953D02*
X37038Y32951D01*
X36985Y32915D01*
X36949Y32862D01*
X36947Y32850D01*
X37050D01*
Y32953D01*
D02*
G37*
G36*
X35950Y33110D02*
X35898Y33100D01*
X35854Y33070D01*
X35824Y33026D01*
X35814Y32974D01*
X35824Y32922D01*
X35854Y32878D01*
X35898Y32848D01*
X35950Y32838D01*
X36002Y32848D01*
X36046Y32878D01*
X36076Y32922D01*
X36086Y32974D01*
X36076Y33026D01*
X36046Y33070D01*
X36002Y33100D01*
X35950Y33110D01*
D02*
G37*
G36*
X37700Y32903D02*
Y32800D01*
X37803D01*
X37801Y32812D01*
X37765Y32865D01*
X37712Y32901D01*
X37700Y32903D01*
D02*
G37*
G36*
X37150Y32953D02*
Y32850D01*
X37253D01*
X37251Y32862D01*
X37215Y32915D01*
X37162Y32951D01*
X37150Y32953D01*
D02*
G37*
G36*
X40850Y33900D02*
X40747D01*
X40749Y33888D01*
X40785Y33835D01*
X40838Y33799D01*
X40850Y33797D01*
Y33900D01*
D02*
G37*
G36*
X33700Y33231D02*
Y33000D01*
X33931D01*
X33928Y33024D01*
X33899Y33094D01*
X33853Y33153D01*
X33794Y33199D01*
X33724Y33228D01*
X33700Y33231D01*
D02*
G37*
G36*
X33600D02*
X33576Y33228D01*
X33506Y33199D01*
X33447Y33153D01*
X33401Y33094D01*
X33372Y33024D01*
X33369Y33000D01*
X33600D01*
Y33231D01*
D02*
G37*
G36*
X34850Y32753D02*
X34838Y32751D01*
X34785Y32715D01*
X34749Y32662D01*
X34747Y32650D01*
X34850D01*
Y32753D01*
D02*
G37*
G36*
X37253Y32750D02*
X37150D01*
Y32647D01*
X37162Y32649D01*
X37215Y32685D01*
X37251Y32738D01*
X37253Y32750D01*
D02*
G37*
G36*
X37050D02*
X36947D01*
X36949Y32738D01*
X36985Y32685D01*
X37038Y32649D01*
X37050Y32647D01*
Y32750D01*
D02*
G37*
G36*
X34950Y32753D02*
Y32650D01*
X35053D01*
X35051Y32662D01*
X35015Y32715D01*
X34962Y32751D01*
X34950Y32753D01*
D02*
G37*
G36*
X37600Y32903D02*
X37588Y32901D01*
X37535Y32865D01*
X37499Y32812D01*
X37497Y32800D01*
X37600D01*
Y32903D01*
D02*
G37*
G36*
X33931Y32900D02*
X33700D01*
Y32669D01*
X33724Y32672D01*
X33794Y32701D01*
X33853Y32747D01*
X33899Y32806D01*
X33928Y32876D01*
X33931Y32900D01*
D02*
G37*
G36*
X33600D02*
X33369D01*
X33372Y32876D01*
X33401Y32806D01*
X33447Y32747D01*
X33506Y32701D01*
X33576Y32672D01*
X33600Y32669D01*
Y32900D01*
D02*
G37*
G36*
X29618Y40334D02*
X29482D01*
X29471Y40322D01*
X29462Y40319D01*
X28525Y39382D01*
X28512Y39350D01*
X28525Y39318D01*
X29518Y38325D01*
X29550Y38312D01*
X29582Y38325D01*
X30575Y39318D01*
X30588Y39350D01*
X30575Y39382D01*
X29638Y40319D01*
X29629Y40322D01*
X29618Y40334D01*
D02*
G37*
G36*
X42950Y44231D02*
Y44000D01*
X43181D01*
X43178Y44024D01*
X43149Y44094D01*
X43103Y44153D01*
X43044Y44199D01*
X42974Y44228D01*
X42950Y44231D01*
D02*
G37*
G36*
X44850Y47687D02*
X41350D01*
X41317Y47680D01*
X41289Y47661D01*
X40046Y46419D01*
X39984Y46356D01*
X39950Y46363D01*
X39888Y46351D01*
X39835Y46315D01*
X39799Y46262D01*
X39787Y46200D01*
X39799Y46138D01*
X39835Y46085D01*
X39888Y46049D01*
X39902Y46046D01*
X39896Y45987D01*
X38835D01*
X38815Y46015D01*
X38762Y46051D01*
X38700Y46063D01*
X38638Y46051D01*
X38585Y46015D01*
X38549Y45962D01*
X38537Y45900D01*
X38549Y45838D01*
X38585Y45785D01*
X38638Y45749D01*
X38652Y45746D01*
X38646Y45687D01*
X38586D01*
X38056Y46216D01*
X38063Y46250D01*
X38051Y46312D01*
X38015Y46365D01*
X37962Y46401D01*
X37900Y46413D01*
X37838Y46401D01*
X37785Y46365D01*
X37749Y46312D01*
X37747Y46300D01*
X37689Y46283D01*
X37406Y46566D01*
X37413Y46600D01*
X37401Y46662D01*
X37365Y46715D01*
X37312Y46751D01*
X37250Y46763D01*
X37188Y46751D01*
X37135Y46715D01*
X37099Y46662D01*
X37087Y46600D01*
X37099Y46538D01*
X37135Y46485D01*
X37188Y46449D01*
X37250Y46437D01*
X37284Y46444D01*
X38439Y45289D01*
X38439Y45289D01*
X38439D01*
X38439Y45289D01*
X38439D01*
X38439Y45289D01*
Y45289D01*
Y45289D01*
D01*
D01*
X38439D01*
Y45289D01*
X38467Y45270D01*
X38500Y45263D01*
X41050D01*
X41083Y45270D01*
X41111Y45289D01*
X41111Y45289D01*
X41111Y45289D01*
X41861Y46039D01*
X41880Y46067D01*
X41881Y46072D01*
X41887Y46100D01*
Y46915D01*
X41915Y46935D01*
X41951Y46988D01*
X41963Y47050D01*
X41951Y47112D01*
X41915Y47165D01*
X41862Y47201D01*
X41800Y47213D01*
X41738Y47201D01*
X41685Y47165D01*
X41649Y47112D01*
X41637Y47050D01*
X41649Y46988D01*
X41685Y46935D01*
X41713Y46915D01*
Y46136D01*
X41625Y46048D01*
X41581Y46071D01*
X41587Y46100D01*
Y46265D01*
X41615Y46285D01*
X41651Y46338D01*
X41663Y46400D01*
X41651Y46462D01*
X41615Y46515D01*
X41562Y46551D01*
X41500Y46563D01*
X41438Y46551D01*
X41385Y46515D01*
X41349Y46462D01*
X41337Y46400D01*
X41349Y46338D01*
X41385Y46285D01*
X41413Y46265D01*
Y46136D01*
X41346Y46068D01*
X41302Y46092D01*
X41313Y46150D01*
X41301Y46212D01*
X41265Y46265D01*
X41212Y46301D01*
X41150Y46313D01*
X41088Y46301D01*
X41035Y46265D01*
X40999Y46212D01*
X40987Y46150D01*
X40994Y46116D01*
X40864Y45987D01*
X40000D01*
Y46047D01*
X40012Y46049D01*
X40065Y46085D01*
X40101Y46138D01*
X40113Y46200D01*
X40106Y46234D01*
X41386Y47513D01*
X41631D01*
X41645Y47465D01*
X41639Y47461D01*
X40534Y46356D01*
X40500Y46363D01*
X40438Y46351D01*
X40385Y46315D01*
X40349Y46262D01*
X40337Y46200D01*
X40349Y46138D01*
X40385Y46085D01*
X40438Y46049D01*
X40500Y46037D01*
X40562Y46049D01*
X40615Y46085D01*
X40651Y46138D01*
X40663Y46200D01*
X40656Y46234D01*
X41736Y47313D01*
X44764D01*
X44911Y47167D01*
X44900Y47113D01*
X44838Y47101D01*
X44785Y47065D01*
X44749Y47012D01*
X44737Y46950D01*
X44749Y46888D01*
X44785Y46835D01*
X44838Y46799D01*
X44900Y46787D01*
X44934Y46794D01*
X46213Y45514D01*
Y44400D01*
X46220Y44367D01*
X46239Y44339D01*
X46639Y43939D01*
X46667Y43920D01*
X46672Y43919D01*
X46700Y43913D01*
X47500D01*
X47533Y43920D01*
X47561Y43939D01*
X47561Y43939D01*
X47561Y43939D01*
X47711Y44089D01*
X47730Y44117D01*
X47737Y44150D01*
Y44265D01*
X47765Y44285D01*
X47801Y44338D01*
X47813Y44400D01*
X47801Y44462D01*
X47765Y44515D01*
X47712Y44551D01*
X47650Y44563D01*
X47588Y44551D01*
X47535Y44515D01*
X47499Y44462D01*
X47487Y44400D01*
X47499Y44338D01*
X47535Y44285D01*
X47563Y44265D01*
Y44186D01*
X47464Y44087D01*
X47030D01*
X47015Y44135D01*
X47015Y44135D01*
X47051Y44188D01*
X47063Y44250D01*
X47051Y44312D01*
X47015Y44365D01*
X46987Y44385D01*
Y45550D01*
X46980Y45583D01*
X46961Y45611D01*
X44911Y47661D01*
X44883Y47680D01*
X44850Y47687D01*
D02*
G37*
G36*
X43181Y43900D02*
X42950D01*
Y43669D01*
X42974Y43672D01*
X43044Y43701D01*
X43103Y43747D01*
X43149Y43806D01*
X43178Y43876D01*
X43181Y43900D01*
D02*
G37*
G36*
X34000Y45200D02*
X33600Y44800D01*
Y44650D01*
Y42150D01*
X34650Y41100D01*
X34700D01*
Y39400D01*
X34500Y39200D01*
X35200Y38500D01*
Y38050D01*
Y35850D01*
X35400Y35650D01*
X36400Y34650D01*
X37300D01*
X37350Y34700D01*
X37450Y34600D01*
X37762D01*
Y34300D01*
X37773Y34273D01*
X37800Y34262D01*
X42150D01*
X42177Y34273D01*
X42188Y34300D01*
Y34588D01*
X43250Y35650D01*
X43553Y35347D01*
X43528Y35286D01*
X43517Y35200D01*
X43528Y35114D01*
X43562Y35033D01*
X43614Y34964D01*
X43683Y34912D01*
X43764Y34878D01*
X43850Y34867D01*
X43936Y34878D01*
X44017Y34912D01*
X44086Y34964D01*
X44138Y35033D01*
X44172Y35114D01*
X44183Y35200D01*
X44172Y35286D01*
X44138Y35367D01*
X44086Y35436D01*
X44017Y35488D01*
X43936Y35522D01*
X43850Y35533D01*
X43764Y35522D01*
X43684Y35489D01*
X43087Y36086D01*
Y43100D01*
X43080Y43133D01*
X43061Y43161D01*
X42587Y43636D01*
Y43834D01*
X42636Y43843D01*
X42651Y43806D01*
X42697Y43747D01*
X42756Y43701D01*
X42826Y43672D01*
X42850Y43669D01*
Y43950D01*
Y44231D01*
X42826Y44228D01*
X42756Y44199D01*
X42697Y44153D01*
X42651Y44094D01*
X42636Y44057D01*
X42587Y44066D01*
Y44514D01*
X42986Y44913D01*
X43765D01*
X43785Y44885D01*
X43838Y44849D01*
X43900Y44837D01*
X43962Y44849D01*
X44015Y44885D01*
X44051Y44938D01*
X44063Y45000D01*
X44051Y45062D01*
X44015Y45115D01*
X43962Y45151D01*
X43900Y45163D01*
X43838Y45151D01*
X43785Y45115D01*
X43765Y45087D01*
X42950D01*
X42917Y45080D01*
X42889Y45061D01*
X42439Y44611D01*
X42420Y44583D01*
X42413Y44550D01*
Y43752D01*
X42367Y43733D01*
X41050Y45050D01*
X34150D01*
X34000Y45200D01*
D02*
G37*
G36*
X44136Y45914D02*
X44028D01*
X44031Y45899D01*
X44067Y45845D01*
X44122Y45808D01*
X44136Y45806D01*
Y45914D01*
D02*
G37*
G36*
X43872D02*
X43764D01*
Y45806D01*
X43778Y45808D01*
X43833Y45845D01*
X43869Y45899D01*
X43872Y45914D01*
D02*
G37*
G36*
X43664D02*
X43556D01*
X43558Y45899D01*
X43595Y45845D01*
X43649Y45808D01*
X43664Y45806D01*
Y45914D01*
D02*
G37*
G36*
X30400Y43337D02*
X30326Y43328D01*
X30256Y43299D01*
X30197Y43253D01*
X30151Y43194D01*
X30122Y43124D01*
X30113Y43050D01*
X30122Y42976D01*
X30151Y42906D01*
X30197Y42847D01*
X30256Y42801D01*
X30313Y42777D01*
Y42586D01*
X27839Y40111D01*
X27829Y40097D01*
X27805D01*
X27770Y40090D01*
X27740Y40070D01*
X27720Y40040D01*
X27713Y40005D01*
Y39895D01*
X27720Y39860D01*
X27740Y39830D01*
X27742Y39814D01*
X27042Y39115D01*
X27006Y39119D01*
X26975Y39140D01*
X26938Y39147D01*
X26758D01*
X26721Y39140D01*
X26689Y39119D01*
X26668Y39087D01*
X26661Y39050D01*
Y38930D01*
X26668Y38893D01*
X26689Y38862D01*
X26721Y38841D01*
X26758Y38833D01*
X26938D01*
X26975Y38841D01*
X27006Y38862D01*
X27027Y38893D01*
X27030Y38903D01*
X27040D01*
X27073Y38910D01*
X27101Y38929D01*
X27961Y39789D01*
X27971Y39803D01*
X27995D01*
X28030Y39810D01*
X28060Y39830D01*
X28080Y39860D01*
X28087Y39895D01*
Y40005D01*
X28080Y40040D01*
X28060Y40070D01*
X28058Y40086D01*
X30461Y42489D01*
X30480Y42517D01*
X30480Y42517D01*
X30480Y42517D01*
X30487Y42550D01*
Y42777D01*
X30544Y42801D01*
X30603Y42847D01*
X30649Y42906D01*
X30678Y42976D01*
X30687Y43050D01*
X30678Y43124D01*
X30649Y43194D01*
X30603Y43253D01*
X30544Y43299D01*
X30474Y43328D01*
X30400Y43337D01*
D02*
G37*
G36*
X47700Y41953D02*
Y41850D01*
X47803D01*
X47801Y41862D01*
X47765Y41915D01*
X47712Y41951D01*
X47700Y41953D01*
D02*
G37*
G36*
X47600D02*
X47588Y41951D01*
X47535Y41915D01*
X47499Y41862D01*
X47497Y41850D01*
X47600D01*
Y41953D01*
D02*
G37*
G36*
X44500Y42850D02*
X44269D01*
X44272Y42826D01*
X44301Y42756D01*
X44347Y42697D01*
X44406Y42651D01*
X44476Y42622D01*
X44500Y42619D01*
Y42850D01*
D02*
G37*
G36*
X44600Y43181D02*
Y42950D01*
X44831D01*
X44828Y42974D01*
X44799Y43044D01*
X44753Y43103D01*
X44694Y43149D01*
X44624Y43178D01*
X44600Y43181D01*
D02*
G37*
G36*
X44500D02*
X44476Y43178D01*
X44406Y43149D01*
X44347Y43103D01*
X44301Y43044D01*
X44272Y42974D01*
X44269Y42950D01*
X44500D01*
Y43181D01*
D02*
G37*
G36*
X44831Y42850D02*
X44600D01*
Y42619D01*
X44624Y42622D01*
X44694Y42651D01*
X44753Y42697D01*
X44799Y42756D01*
X44828Y42826D01*
X44831Y42850D01*
D02*
G37*
G36*
X43664Y46594D02*
X43649Y46592D01*
X43595Y46555D01*
X43558Y46501D01*
X43556Y46486D01*
X43664D01*
Y46594D01*
D02*
G37*
G36*
X44344Y46386D02*
X44236D01*
Y46278D01*
X44251Y46281D01*
X44305Y46317D01*
X44342Y46372D01*
X44344Y46386D01*
D02*
G37*
G36*
X44136D02*
X44028D01*
X44031Y46372D01*
X44067Y46317D01*
X44122Y46281D01*
X44136Y46278D01*
Y46386D01*
D02*
G37*
G36*
X43764Y46594D02*
Y46486D01*
X43872D01*
X43869Y46501D01*
X43833Y46555D01*
X43778Y46592D01*
X43764Y46594D01*
D02*
G37*
G36*
X42470Y48430D02*
X42439Y48430D01*
X42430D01*
Y48430D01*
X42430D01*
X42430D01*
X41770D01*
D01*
D01*
X41770Y48430D01*
X41730D01*
Y48430D01*
X41070D01*
Y47770D01*
X41730D01*
Y47770D01*
X41730D01*
X41730Y47770D01*
X41770D01*
Y47770D01*
X42430D01*
Y47770D01*
X42430D01*
X42430Y47770D01*
X42470D01*
Y47770D01*
X43130D01*
Y48430D01*
X42470D01*
Y48430D01*
D02*
G37*
G36*
X44236Y46594D02*
Y46486D01*
X44344D01*
X44342Y46501D01*
X44305Y46555D01*
X44251Y46592D01*
X44236Y46594D01*
D02*
G37*
G36*
X44136D02*
X44122Y46592D01*
X44067Y46555D01*
X44031Y46501D01*
X44028Y46486D01*
X44136D01*
Y46594D01*
D02*
G37*
G36*
X43764Y46122D02*
Y46014D01*
X43872D01*
X43869Y46028D01*
X43833Y46083D01*
X43778Y46119D01*
X43764Y46122D01*
D02*
G37*
G36*
X43664D02*
X43649Y46119D01*
X43595Y46083D01*
X43558Y46028D01*
X43556Y46014D01*
X43664D01*
Y46122D01*
D02*
G37*
G36*
X44344Y45914D02*
X44236D01*
Y45806D01*
X44251Y45808D01*
X44305Y45845D01*
X44342Y45899D01*
X44344Y45914D01*
D02*
G37*
G36*
X44136Y46122D02*
X44122Y46119D01*
X44067Y46083D01*
X44031Y46028D01*
X44028Y46014D01*
X44136D01*
Y46122D01*
D02*
G37*
G36*
X43872Y46386D02*
X43764D01*
Y46278D01*
X43778Y46281D01*
X43833Y46317D01*
X43869Y46372D01*
X43872Y46386D01*
D02*
G37*
G36*
X43664D02*
X43556D01*
X43558Y46372D01*
X43595Y46317D01*
X43649Y46281D01*
X43664Y46278D01*
Y46386D01*
D02*
G37*
G36*
X44236Y46122D02*
Y46014D01*
X44344D01*
X44342Y46028D01*
X44305Y46083D01*
X44251Y46119D01*
X44236Y46122D01*
D02*
G37*
G36*
X30400Y40339D02*
X30297D01*
X30299Y40327D01*
X30335Y40274D01*
X30388Y40238D01*
X30400Y40236D01*
Y40339D01*
D02*
G37*
G36*
X27495Y40097D02*
X27450D01*
Y40000D01*
X27587D01*
Y40005D01*
X27580Y40040D01*
X27560Y40070D01*
X27530Y40090D01*
X27495Y40097D01*
D02*
G37*
G36*
X27350D02*
X27305D01*
X27270Y40090D01*
X27240Y40070D01*
X27220Y40040D01*
X27213Y40005D01*
Y40000D01*
X27350D01*
Y40097D01*
D02*
G37*
G36*
X30603Y40339D02*
X30500D01*
Y40236D01*
X30512Y40238D01*
X30565Y40274D01*
X30601Y40327D01*
X30603Y40339D01*
D02*
G37*
G36*
X34546Y40515D02*
X34315D01*
Y40284D01*
X34339Y40287D01*
X34409Y40316D01*
X34468Y40362D01*
X34514Y40421D01*
X34543Y40491D01*
X34546Y40515D01*
D02*
G37*
G36*
X34215D02*
X33984D01*
X33987Y40491D01*
X34016Y40421D01*
X34062Y40362D01*
X34121Y40316D01*
X34191Y40287D01*
X34215Y40284D01*
Y40515D01*
D02*
G37*
G36*
X34284Y40280D02*
X34265Y40277D01*
X34246Y40280D01*
Y40220D01*
X34265Y40223D01*
X34284Y40220D01*
Y40280D01*
D02*
G37*
G36*
X34546Y39885D02*
X34315D01*
Y39654D01*
X34339Y39657D01*
X34409Y39686D01*
X34468Y39732D01*
X34514Y39791D01*
X34543Y39861D01*
X34546Y39885D01*
D02*
G37*
G36*
X34215D02*
X33984D01*
X33987Y39861D01*
X34016Y39791D01*
X34062Y39732D01*
X34121Y39686D01*
X34191Y39657D01*
X34215Y39654D01*
Y39885D01*
D02*
G37*
G36*
X49250Y40388D02*
X49218Y40375D01*
X48225Y39382D01*
X48212Y39350D01*
X48225Y39318D01*
X49162Y38381D01*
X49171Y38378D01*
X49182Y38366D01*
X49318D01*
X49329Y38378D01*
X49338Y38381D01*
X50275Y39318D01*
X50288Y39350D01*
X50275Y39382D01*
X49282Y40375D01*
X49250Y40388D01*
D02*
G37*
G36*
X27350Y39900D02*
X27213D01*
Y39895D01*
X27220Y39860D01*
X27240Y39830D01*
X27270Y39810D01*
X27305Y39803D01*
X27350D01*
Y39900D01*
D02*
G37*
G36*
X34315Y40216D02*
Y39985D01*
X34546D01*
X34543Y40009D01*
X34514Y40079D01*
X34468Y40138D01*
X34409Y40184D01*
X34339Y40213D01*
X34315Y40216D01*
D02*
G37*
G36*
X34215D02*
X34191Y40213D01*
X34121Y40184D01*
X34062Y40138D01*
X34016Y40079D01*
X33987Y40009D01*
X33984Y39985D01*
X34215D01*
Y40216D01*
D02*
G37*
G36*
X27587Y39900D02*
X27450D01*
Y39803D01*
X27495D01*
X27530Y39810D01*
X27560Y39830D01*
X27580Y39860D01*
X27587Y39895D01*
Y39900D01*
D02*
G37*
G36*
X31903Y41100D02*
X31800D01*
Y40997D01*
X31812Y40999D01*
X31865Y41035D01*
X31901Y41088D01*
X31903Y41100D01*
D02*
G37*
G36*
X31700D02*
X31597D01*
X31599Y41088D01*
X31635Y41035D01*
X31688Y40999D01*
X31700Y40997D01*
Y41100D01*
D02*
G37*
G36*
X32200Y40903D02*
Y40800D01*
X32303D01*
X32301Y40812D01*
X32265Y40865D01*
X32212Y40901D01*
X32200Y40903D01*
D02*
G37*
G36*
X31700Y41303D02*
X31688Y41301D01*
X31635Y41265D01*
X31599Y41212D01*
X31597Y41200D01*
X31700D01*
Y41303D01*
D02*
G37*
G36*
X47803Y41750D02*
X47700D01*
Y41647D01*
X47712Y41649D01*
X47765Y41685D01*
X47801Y41738D01*
X47803Y41750D01*
D02*
G37*
G36*
X47600D02*
X47497D01*
X47499Y41738D01*
X47535Y41685D01*
X47588Y41649D01*
X47600Y41647D01*
Y41750D01*
D02*
G37*
G36*
X31800Y41303D02*
Y41200D01*
X31903D01*
X31901Y41212D01*
X31865Y41265D01*
X31812Y41301D01*
X31800Y41303D01*
D02*
G37*
G36*
X32100Y40700D02*
X31997D01*
X31999Y40688D01*
X32035Y40635D01*
X32088Y40599D01*
X32100Y40597D01*
Y40700D01*
D02*
G37*
G36*
X30500Y40542D02*
Y40439D01*
X30603D01*
X30601Y40452D01*
X30565Y40505D01*
X30512Y40540D01*
X30500Y40542D01*
D02*
G37*
G36*
X30400D02*
X30388Y40540D01*
X30335Y40505D01*
X30299Y40452D01*
X30297Y40439D01*
X30400D01*
Y40542D01*
D02*
G37*
G36*
X32303Y40700D02*
X32200D01*
Y40597D01*
X32212Y40599D01*
X32265Y40635D01*
X32301Y40688D01*
X32303Y40700D01*
D02*
G37*
G36*
X32100Y40903D02*
X32088Y40901D01*
X32035Y40865D01*
X31999Y40812D01*
X31997Y40800D01*
X32100D01*
Y40903D01*
D02*
G37*
G36*
X34315Y40846D02*
Y40615D01*
X34546D01*
X34543Y40639D01*
X34514Y40709D01*
X34468Y40768D01*
X34409Y40814D01*
X34339Y40843D01*
X34315Y40846D01*
D02*
G37*
G36*
X34215D02*
X34191Y40843D01*
X34121Y40814D01*
X34062Y40768D01*
X34016Y40709D01*
X33987Y40639D01*
X33984Y40615D01*
X34215D01*
Y40846D01*
D02*
G37*
%LPD*%
D10*
X51829Y40603D02*
G03*
X42404Y51517I-12459J-1233D01*
G01*
X41503Y27033D02*
G03*
X51709Y37249I-2133J12337D01*
G01*
X37249Y51709D02*
G03*
X26881Y40251I2122J-12339D01*
G01*
X26915Y38096D02*
G03*
X36402Y27207I12455J1274D01*
G01*
X47500Y44000D02*
X47650Y44150D01*
X46700Y44000D02*
X47500D01*
X46300Y44400D02*
X46700Y44000D01*
X47650Y44150D02*
Y44400D01*
X34400Y30000D02*
X35750D01*
X32950Y31450D02*
X34400Y30000D01*
X32950Y31450D02*
Y32150D01*
X26848Y39750D02*
X26900Y39802D01*
Y40250D01*
X26848Y38990D02*
X27040D01*
X27900Y39850D01*
X25908Y39370D02*
X26970D01*
X27400Y39800D01*
Y40550D02*
X27900D01*
X27200D02*
X27400D01*
X26900Y40250D02*
X27200Y40550D01*
X27900Y40050D02*
X30400Y42550D01*
X27900Y39950D02*
Y40050D01*
Y39850D02*
Y39950D01*
X27400Y39800D02*
Y39950D01*
Y40000D01*
X35750Y30000D02*
X38050Y32300D01*
X42950D01*
X46550Y44550D02*
Y45650D01*
X46900Y44250D02*
Y45550D01*
X38700Y45900D02*
X40900D01*
X37900Y46250D02*
X38550Y45600D01*
X37250Y46600D02*
X38500Y45350D01*
X40900Y45900D02*
X41150Y46150D01*
X41800Y46100D02*
Y47050D01*
X38550Y45600D02*
X41000D01*
X41500Y46100D01*
Y46400D01*
X38500Y45350D02*
X41050D01*
X41800Y46100D01*
X42500Y44550D02*
X42950Y45000D01*
X42500Y43600D02*
Y44550D01*
X42950Y45000D02*
X43900D01*
X42500Y43600D02*
X43000Y43100D01*
Y36050D02*
Y43100D01*
X44900Y46950D02*
X46300Y45550D01*
Y44400D02*
Y45550D01*
X40500Y46200D02*
X41700Y47400D01*
X44800D01*
X46550Y45650D01*
X39950Y46200D02*
X41350Y47600D01*
X44850D01*
X46900Y45550D01*
X42950Y32300D02*
X43800Y31450D01*
X43000Y36050D02*
X43850Y35200D01*
X30775Y40175D02*
X31146Y39804D01*
Y38796D02*
Y39804D01*
X30400Y42550D02*
Y43050D01*
D13*
X27400Y39950D02*
D03*
Y40550D02*
D03*
X27900D02*
D03*
Y39950D02*
D03*
D75*
X47300Y38450D02*
X47488Y38637D01*
X48412D02*
X48900Y38150D01*
X47488Y38637D02*
X48412D01*
X34265Y36685D02*
Y37335D01*
X34265Y39935D02*
Y40565D01*
Y37335D02*
Y39935D01*
X32254Y31146D02*
Y34304D01*
Y31146D02*
X34050Y29350D01*
X35550D01*
X38200Y32000D01*
X50400Y37250D02*
X51700D01*
X50400D02*
Y38150D01*
X51850Y39600D02*
Y40600D01*
X26700Y38500D02*
X26915Y38285D01*
X26050Y38500D02*
X26700D01*
X26000Y40250D02*
X26900D01*
X38200Y32000D02*
X41600D01*
X48900Y38150D02*
X50400D01*
X44900Y31750D02*
X50400Y37250D01*
X44450Y32200D02*
X44900Y31750D01*
X43850Y30700D02*
X44900Y31750D01*
X42900Y30700D02*
X43850D01*
X41600Y32000D02*
X42900Y30700D01*
X43850Y32200D02*
X44450D01*
X29454Y37104D02*
X32254Y34304D01*
X28462Y38096D02*
X29454Y37104D01*
X31146Y38796D01*
X32254Y34304D02*
X32846D01*
X32850Y34309D01*
X32950Y34409D01*
X26915Y38096D02*
X28462D01*
X26915Y38096D02*
Y38285D01*
X50400Y38150D02*
X51850Y39600D01*
D78*
X39450Y43525D02*
D03*
D79*
X34050Y42529D02*
D03*
Y43671D02*
D03*
D80*
X37650Y44050D02*
D03*
X41600Y34700D02*
D03*
X41400Y48100D02*
D03*
X42100D02*
D03*
X42800D02*
D03*
D81*
X43850Y34200D02*
D03*
D82*
Y35200D02*
D03*
Y36200D02*
D03*
Y37200D02*
D03*
Y38200D02*
D03*
D83*
X47650Y41800D02*
D03*
Y44400D02*
D03*
X47300Y38450D02*
D03*
X47700Y38350D02*
D03*
X32950Y32150D02*
D03*
X40500Y46200D02*
D03*
X46550Y44550D02*
D03*
X46900Y44250D02*
D03*
X39950Y46200D02*
D03*
X38700Y45900D02*
D03*
X41500Y46400D02*
D03*
X37900Y46250D02*
D03*
X37250Y46600D02*
D03*
X41150Y46150D02*
D03*
X41800Y47050D02*
D03*
X43900Y45000D02*
D03*
X44900Y46950D02*
D03*
X40900Y33950D02*
D03*
X43800Y31450D02*
D03*
X30450Y40389D02*
D03*
X30775Y40175D02*
D03*
X31750Y41150D02*
D03*
X32150Y40750D02*
D03*
X34900Y32600D02*
D03*
X37100Y32800D02*
D03*
X37650Y32750D02*
D03*
X36850Y31500D02*
D03*
X46250Y37550D02*
D03*
X45850Y37900D02*
D03*
D84*
X43714Y46436D02*
D03*
X44186D02*
D03*
X43714Y45964D02*
D03*
X44186D02*
D03*
D85*
X49250Y39350D02*
D03*
X49584Y39684D02*
D03*
X48916D02*
D03*
Y39016D02*
D03*
X49584D02*
D03*
X49918Y39350D02*
D03*
X49250Y40018D02*
D03*
X48582Y39350D02*
D03*
X49250Y38682D02*
D03*
X29550Y40018D02*
D03*
X30218Y39350D02*
D03*
X29550Y38682D02*
D03*
X28882Y39350D02*
D03*
X29216Y39684D02*
D03*
X29884D02*
D03*
Y39016D02*
D03*
X29216D02*
D03*
X29550Y39350D02*
D03*
D86*
X30500Y30550D02*
D03*
X31750Y29450D02*
D03*
X33200Y28500D02*
D03*
X34750Y27750D02*
D03*
X36400Y27200D02*
D03*
X31200Y48800D02*
D03*
X27200Y36450D02*
D03*
X28450Y33250D02*
D03*
X29400Y31800D02*
D03*
X27700Y34850D02*
D03*
X26915Y38096D02*
D03*
X37250Y51700D02*
D03*
X35550Y51300D02*
D03*
X34050Y50650D02*
D03*
X32500Y49800D02*
D03*
X30000Y47650D02*
D03*
X28900Y46250D02*
D03*
X28100Y44750D02*
D03*
X27450Y43150D02*
D03*
X26900Y40250D02*
D03*
X27050Y41500D02*
D03*
X44000Y51000D02*
D03*
X45550Y50250D02*
D03*
X46950Y49350D02*
D03*
X48200Y48200D02*
D03*
X49350Y46900D02*
D03*
X50250Y45500D02*
D03*
X51050Y43900D02*
D03*
X51550Y42300D02*
D03*
X51850Y40600D02*
D03*
X51700Y37250D02*
D03*
X51300Y35600D02*
D03*
X50700Y34000D02*
D03*
X49850Y32550D02*
D03*
X48800Y31150D02*
D03*
X47600Y29950D02*
D03*
X46250Y28950D02*
D03*
X44750Y28050D02*
D03*
X43200Y27450D02*
D03*
X41500Y27050D02*
D03*
X42400Y51500D02*
D03*
X51850Y39550D02*
D03*
X41600Y32000D02*
D03*
D87*
X34265Y36685D02*
D03*
Y37335D02*
D03*
X34265Y39935D02*
D03*
Y40565D02*
D03*
X32254Y34304D02*
D03*
X44550Y42900D02*
D03*
X42900Y43950D02*
D03*
X26050Y38500D02*
D03*
X26000Y40250D02*
D03*
X35354Y30896D02*
D03*
X43850Y32200D02*
D03*
X30400Y43050D02*
D03*
X32850Y34309D02*
D03*
X33650Y32950D02*
D03*
D88*
X35753Y32600D02*
D03*
X36147D02*
D03*
X35950Y32974D02*
D03*
Y32226D02*
D03*
D89*
X49250Y38571D02*
D03*
X29550Y40129D02*
D03*
D90*
X49222Y39378D02*
D03*
X29578Y39322D02*
D03*
D91*
X49278Y39378D02*
D03*
X29522Y39322D02*
D03*
D92*
X26848Y39750D02*
D03*
Y38990D02*
D03*
X25908Y39370D02*
D03*
D93*
X39975Y34775D02*
D03*
M02*
