M48
;Layer_Color=9474304
;FILE_FORMAT=2:4
INCH,LZ
;TYPE=PLATED
T1F00S00C0.0079
T2F00S00C0.0118
T3F00S00C0.0130
T4F00S00C0.0140
T5F00S00C0.0280
T6F00S00C0.0354
;TYPE=NON_PLATED
T7F00S00C0.0276
%
T01
X03595Y032226
X036147Y0326
X035753
X03595Y032974
T02
X029216Y039016
X02955Y03935
X029884Y039016
Y039684
X029216
X028882Y03935
X02955Y038682
X030218Y03935
X02955Y040018
X048582Y03935
X048916Y039016
X04925Y038682
X049584Y039016
X049918Y03935
X049584Y039684
X04925Y040018
X048916Y039684
X04925Y03935
T03
X043714Y045964
X044186
Y046436
X043714
T04
X0476Y02995
X0488Y03115
X04625Y02895
X04475Y02805
X0432Y02745
X0415Y02705
X0364Y0272
X03475Y02775
X0332Y0285
X03175Y02945
X0305Y03055
X0294Y0318
X02845Y03325
X0277Y03485
X0272Y03645
X026915Y038096
X0269Y04025
X02705Y0415
X02745Y04315
X0281Y04475
X0289Y04625
X03045Y040389
X030775Y040175
X03215Y04075
X03175Y04115
X03295Y03215
X0349Y0326
X0371Y0328
X03765Y03275
X03685Y0315
X0416Y032
X0409Y03395
X0438Y03145
X0457Y03775
X0461Y0374
X04655Y04455
X0439Y045
X0415Y0464
X04115Y04615
X0405Y0462
X03995
X0387Y0459
X0379Y04625
X03725Y0466
X0469Y04425
X04765Y0444
Y0418
X0477Y03835
X0473Y03845
X0517Y03725
X0513Y0356
X0507Y034
X04985Y03255
X05185Y03955
Y0406
X05155Y0423
X05105Y0439
X05025Y0455
X04935Y0469
X0482Y0482
X04695Y04935
X04555Y05025
X044Y051
X0424Y0515
X0418Y04705
X0449Y04695
X03725Y0517
X03555Y0513
X03405Y05065
X0325Y0498
X0312Y0488
X03Y04765
T05
X035354Y030896
X02605Y0385
X026Y04025
X0304Y04305
X034265Y040565
Y039935
X034265Y037335
Y036685
X03285Y034309
X032254Y034304
X03365Y03295
X04385Y0322
X04455Y0429
X0429Y04395
T06
X0416Y0347
X04385Y0352
Y0362
Y0372
Y0382
Y0342
X03765Y04405
X0414Y0481
X0421
X0428
T07
X03405Y042529
Y043671
M30
