%FSLAX24Y24*%
%MOIN*%
G70*
G01*
G75*
G04 Layer_Color=65535*
%ADD10C,0.0100*%
%ADD11R,0.0197X0.0433*%
%ADD12R,0.0433X0.0197*%
G04:AMPARAMS|DCode=13|XSize=30mil|YSize=22mil|CornerRadius=5.5mil|HoleSize=0mil|Usage=FLASHONLY|Rotation=180.000|XOffset=0mil|YOffset=0mil|HoleType=Round|Shape=RoundedRectangle|*
%AMROUNDEDRECTD13*
21,1,0.0300,0.0110,0,0,180.0*
21,1,0.0190,0.0220,0,0,180.0*
1,1,0.0110,-0.0095,0.0055*
1,1,0.0110,0.0095,0.0055*
1,1,0.0110,0.0095,-0.0055*
1,1,0.0110,-0.0095,-0.0055*
%
%ADD13ROUNDEDRECTD13*%
G04:AMPARAMS|DCode=14|XSize=55.1mil|YSize=39.4mil|CornerRadius=4.9mil|HoleSize=0mil|Usage=FLASHONLY|Rotation=180.000|XOffset=0mil|YOffset=0mil|HoleType=Round|Shape=RoundedRectangle|*
%AMROUNDEDRECTD14*
21,1,0.0551,0.0295,0,0,180.0*
21,1,0.0453,0.0394,0,0,180.0*
1,1,0.0098,-0.0226,0.0148*
1,1,0.0098,0.0226,0.0148*
1,1,0.0098,0.0226,-0.0148*
1,1,0.0098,-0.0226,-0.0148*
%
%ADD14ROUNDEDRECTD14*%
G04:AMPARAMS|DCode=15|XSize=50mil|YSize=24mil|CornerRadius=6mil|HoleSize=0mil|Usage=FLASHONLY|Rotation=180.000|XOffset=0mil|YOffset=0mil|HoleType=Round|Shape=RoundedRectangle|*
%AMROUNDEDRECTD15*
21,1,0.0500,0.0120,0,0,180.0*
21,1,0.0380,0.0240,0,0,180.0*
1,1,0.0120,-0.0190,0.0060*
1,1,0.0120,0.0190,0.0060*
1,1,0.0120,0.0190,-0.0060*
1,1,0.0120,-0.0190,-0.0060*
%
%ADD15ROUNDEDRECTD15*%
G04:AMPARAMS|DCode=16|XSize=30mil|YSize=22mil|CornerRadius=5.5mil|HoleSize=0mil|Usage=FLASHONLY|Rotation=135.000|XOffset=0mil|YOffset=0mil|HoleType=Round|Shape=RoundedRectangle|*
%AMROUNDEDRECTD16*
21,1,0.0300,0.0110,0,0,135.0*
21,1,0.0190,0.0220,0,0,135.0*
1,1,0.0110,-0.0028,0.0106*
1,1,0.0110,0.0106,-0.0028*
1,1,0.0110,0.0028,-0.0106*
1,1,0.0110,-0.0106,0.0028*
%
%ADD16ROUNDEDRECTD16*%
%ADD17R,0.1102X0.1102*%
%ADD18O,0.0098X0.0354*%
%ADD19O,0.0354X0.0098*%
G04:AMPARAMS|DCode=20|XSize=40mil|YSize=40mil|CornerRadius=10mil|HoleSize=0mil|Usage=FLASHONLY|Rotation=135.000|XOffset=0mil|YOffset=0mil|HoleType=Round|Shape=RoundedRectangle|*
%AMROUNDEDRECTD20*
21,1,0.0400,0.0200,0,0,135.0*
21,1,0.0200,0.0400,0,0,135.0*
1,1,0.0200,0.0000,0.0141*
1,1,0.0200,0.0141,0.0000*
1,1,0.0200,0.0000,-0.0141*
1,1,0.0200,-0.0141,0.0000*
%
%ADD20ROUNDEDRECTD20*%
%ADD21P,0.1893X4X180.0*%
G04:AMPARAMS|DCode=22|XSize=9.8mil|YSize=29.5mil|CornerRadius=0mil|HoleSize=0mil|Usage=FLASHONLY|Rotation=135.000|XOffset=0mil|YOffset=0mil|HoleType=Round|Shape=Round|*
%AMOVALD22*
21,1,0.0197,0.0098,0.0000,0.0000,225.0*
1,1,0.0098,0.0070,0.0070*
1,1,0.0098,-0.0070,-0.0070*
%
%ADD22OVALD22*%

G04:AMPARAMS|DCode=23|XSize=9.8mil|YSize=29.5mil|CornerRadius=0mil|HoleSize=0mil|Usage=FLASHONLY|Rotation=225.000|XOffset=0mil|YOffset=0mil|HoleType=Round|Shape=Round|*
%AMOVALD23*
21,1,0.0197,0.0098,0.0000,0.0000,315.0*
1,1,0.0098,-0.0070,0.0070*
1,1,0.0098,0.0070,-0.0070*
%
%ADD23OVALD23*%

G04:AMPARAMS|DCode=24|XSize=35.4mil|YSize=19.7mil|CornerRadius=2.5mil|HoleSize=0mil|Usage=FLASHONLY|Rotation=170.000|XOffset=0mil|YOffset=0mil|HoleType=Round|Shape=RoundedRectangle|*
%AMROUNDEDRECTD24*
21,1,0.0354,0.0148,0,0,170.0*
21,1,0.0305,0.0197,0,0,170.0*
1,1,0.0049,-0.0137,0.0099*
1,1,0.0049,0.0163,0.0046*
1,1,0.0049,0.0137,-0.0099*
1,1,0.0049,-0.0163,-0.0046*
%
%ADD24ROUNDEDRECTD24*%
G04:AMPARAMS|DCode=25|XSize=15.7mil|YSize=19.7mil|CornerRadius=2mil|HoleSize=0mil|Usage=FLASHONLY|Rotation=170.000|XOffset=0mil|YOffset=0mil|HoleType=Round|Shape=RoundedRectangle|*
%AMROUNDEDRECTD25*
21,1,0.0157,0.0157,0,0,170.0*
21,1,0.0118,0.0197,0,0,170.0*
1,1,0.0039,-0.0044,0.0088*
1,1,0.0039,0.0072,0.0067*
1,1,0.0039,0.0044,-0.0088*
1,1,0.0039,-0.0072,-0.0067*
%
%ADD25ROUNDEDRECTD25*%
G04:AMPARAMS|DCode=26|XSize=35.4mil|YSize=19.7mil|CornerRadius=2.5mil|HoleSize=0mil|Usage=FLASHONLY|Rotation=162.000|XOffset=0mil|YOffset=0mil|HoleType=Round|Shape=RoundedRectangle|*
%AMROUNDEDRECTD26*
21,1,0.0354,0.0148,0,0,162.0*
21,1,0.0305,0.0197,0,0,162.0*
1,1,0.0049,-0.0122,0.0117*
1,1,0.0049,0.0168,0.0023*
1,1,0.0049,0.0122,-0.0117*
1,1,0.0049,-0.0168,-0.0023*
%
%ADD26ROUNDEDRECTD26*%
G04:AMPARAMS|DCode=27|XSize=15.7mil|YSize=19.7mil|CornerRadius=2mil|HoleSize=0mil|Usage=FLASHONLY|Rotation=162.000|XOffset=0mil|YOffset=0mil|HoleType=Round|Shape=RoundedRectangle|*
%AMROUNDEDRECTD27*
21,1,0.0157,0.0157,0,0,162.0*
21,1,0.0118,0.0197,0,0,162.0*
1,1,0.0039,-0.0032,0.0093*
1,1,0.0039,0.0081,0.0057*
1,1,0.0039,0.0032,-0.0093*
1,1,0.0039,-0.0081,-0.0057*
%
%ADD27ROUNDEDRECTD27*%
G04:AMPARAMS|DCode=28|XSize=35.4mil|YSize=19.7mil|CornerRadius=2.5mil|HoleSize=0mil|Usage=FLASHONLY|Rotation=154.000|XOffset=0mil|YOffset=0mil|HoleType=Round|Shape=RoundedRectangle|*
%AMROUNDEDRECTD28*
21,1,0.0354,0.0148,0,0,154.0*
21,1,0.0305,0.0197,0,0,154.0*
1,1,0.0049,-0.0105,0.0133*
1,1,0.0049,0.0169,-0.0001*
1,1,0.0049,0.0105,-0.0133*
1,1,0.0049,-0.0169,0.0001*
%
%ADD28ROUNDEDRECTD28*%
G04:AMPARAMS|DCode=29|XSize=15.7mil|YSize=19.7mil|CornerRadius=2mil|HoleSize=0mil|Usage=FLASHONLY|Rotation=154.000|XOffset=0mil|YOffset=0mil|HoleType=Round|Shape=RoundedRectangle|*
%AMROUNDEDRECTD29*
21,1,0.0157,0.0157,0,0,154.0*
21,1,0.0118,0.0197,0,0,154.0*
1,1,0.0039,-0.0019,0.0097*
1,1,0.0039,0.0088,0.0045*
1,1,0.0039,0.0019,-0.0097*
1,1,0.0039,-0.0088,-0.0045*
%
%ADD29ROUNDEDRECTD29*%
G04:AMPARAMS|DCode=30|XSize=35.4mil|YSize=19.7mil|CornerRadius=2.5mil|HoleSize=0mil|Usage=FLASHONLY|Rotation=146.000|XOffset=0mil|YOffset=0mil|HoleType=Round|Shape=RoundedRectangle|*
%AMROUNDEDRECTD30*
21,1,0.0354,0.0148,0,0,146.0*
21,1,0.0305,0.0197,0,0,146.0*
1,1,0.0049,-0.0085,0.0147*
1,1,0.0049,0.0168,-0.0024*
1,1,0.0049,0.0085,-0.0147*
1,1,0.0049,-0.0168,0.0024*
%
%ADD30ROUNDEDRECTD30*%
G04:AMPARAMS|DCode=31|XSize=15.7mil|YSize=19.7mil|CornerRadius=2mil|HoleSize=0mil|Usage=FLASHONLY|Rotation=146.000|XOffset=0mil|YOffset=0mil|HoleType=Round|Shape=RoundedRectangle|*
%AMROUNDEDRECTD31*
21,1,0.0157,0.0157,0,0,146.0*
21,1,0.0118,0.0197,0,0,146.0*
1,1,0.0039,-0.0005,0.0098*
1,1,0.0039,0.0093,0.0032*
1,1,0.0039,0.0005,-0.0098*
1,1,0.0039,-0.0093,-0.0032*
%
%ADD31ROUNDEDRECTD31*%
G04:AMPARAMS|DCode=32|XSize=35.4mil|YSize=19.7mil|CornerRadius=2.5mil|HoleSize=0mil|Usage=FLASHONLY|Rotation=138.000|XOffset=0mil|YOffset=0mil|HoleType=Round|Shape=RoundedRectangle|*
%AMROUNDEDRECTD32*
21,1,0.0354,0.0148,0,0,138.0*
21,1,0.0305,0.0197,0,0,138.0*
1,1,0.0049,-0.0064,0.0157*
1,1,0.0049,0.0163,-0.0047*
1,1,0.0049,0.0064,-0.0157*
1,1,0.0049,-0.0163,0.0047*
%
%ADD32ROUNDEDRECTD32*%
G04:AMPARAMS|DCode=33|XSize=15.7mil|YSize=19.7mil|CornerRadius=2mil|HoleSize=0mil|Usage=FLASHONLY|Rotation=138.000|XOffset=0mil|YOffset=0mil|HoleType=Round|Shape=RoundedRectangle|*
%AMROUNDEDRECTD33*
21,1,0.0157,0.0157,0,0,138.0*
21,1,0.0118,0.0197,0,0,138.0*
1,1,0.0039,0.0009,0.0098*
1,1,0.0039,0.0097,0.0019*
1,1,0.0039,-0.0009,-0.0098*
1,1,0.0039,-0.0097,-0.0019*
%
%ADD33ROUNDEDRECTD33*%
G04:AMPARAMS|DCode=34|XSize=35.4mil|YSize=19.7mil|CornerRadius=2.5mil|HoleSize=0mil|Usage=FLASHONLY|Rotation=130.000|XOffset=0mil|YOffset=0mil|HoleType=Round|Shape=RoundedRectangle|*
%AMROUNDEDRECTD34*
21,1,0.0354,0.0148,0,0,130.0*
21,1,0.0305,0.0197,0,0,130.0*
1,1,0.0049,-0.0042,0.0164*
1,1,0.0049,0.0155,-0.0069*
1,1,0.0049,0.0042,-0.0164*
1,1,0.0049,-0.0155,0.0069*
%
%ADD34ROUNDEDRECTD34*%
G04:AMPARAMS|DCode=35|XSize=15.7mil|YSize=19.7mil|CornerRadius=2mil|HoleSize=0mil|Usage=FLASHONLY|Rotation=130.000|XOffset=0mil|YOffset=0mil|HoleType=Round|Shape=RoundedRectangle|*
%AMROUNDEDRECTD35*
21,1,0.0157,0.0157,0,0,130.0*
21,1,0.0118,0.0197,0,0,130.0*
1,1,0.0039,0.0022,0.0096*
1,1,0.0039,0.0098,0.0005*
1,1,0.0039,-0.0022,-0.0096*
1,1,0.0039,-0.0098,-0.0005*
%
%ADD35ROUNDEDRECTD35*%
G04:AMPARAMS|DCode=36|XSize=35.4mil|YSize=19.7mil|CornerRadius=2.5mil|HoleSize=0mil|Usage=FLASHONLY|Rotation=122.000|XOffset=0mil|YOffset=0mil|HoleType=Round|Shape=RoundedRectangle|*
%AMROUNDEDRECTD36*
21,1,0.0354,0.0148,0,0,122.0*
21,1,0.0305,0.0197,0,0,122.0*
1,1,0.0049,-0.0018,0.0169*
1,1,0.0049,0.0143,-0.0090*
1,1,0.0049,0.0018,-0.0169*
1,1,0.0049,-0.0143,0.0090*
%
%ADD36ROUNDEDRECTD36*%
G04:AMPARAMS|DCode=37|XSize=15.7mil|YSize=19.7mil|CornerRadius=2mil|HoleSize=0mil|Usage=FLASHONLY|Rotation=122.000|XOffset=0mil|YOffset=0mil|HoleType=Round|Shape=RoundedRectangle|*
%AMROUNDEDRECTD37*
21,1,0.0157,0.0157,0,0,122.0*
21,1,0.0118,0.0197,0,0,122.0*
1,1,0.0039,0.0035,0.0092*
1,1,0.0039,0.0098,-0.0008*
1,1,0.0039,-0.0035,-0.0092*
1,1,0.0039,-0.0098,0.0008*
%
%ADD37ROUNDEDRECTD37*%
G04:AMPARAMS|DCode=38|XSize=35.4mil|YSize=19.7mil|CornerRadius=2.5mil|HoleSize=0mil|Usage=FLASHONLY|Rotation=114.000|XOffset=0mil|YOffset=0mil|HoleType=Round|Shape=RoundedRectangle|*
%AMROUNDEDRECTD38*
21,1,0.0354,0.0148,0,0,114.0*
21,1,0.0305,0.0197,0,0,114.0*
1,1,0.0049,0.0005,0.0169*
1,1,0.0049,0.0129,-0.0109*
1,1,0.0049,-0.0005,-0.0169*
1,1,0.0049,-0.0129,0.0109*
%
%ADD38ROUNDEDRECTD38*%
G04:AMPARAMS|DCode=39|XSize=15.7mil|YSize=19.7mil|CornerRadius=2mil|HoleSize=0mil|Usage=FLASHONLY|Rotation=114.000|XOffset=0mil|YOffset=0mil|HoleType=Round|Shape=RoundedRectangle|*
%AMROUNDEDRECTD39*
21,1,0.0157,0.0157,0,0,114.0*
21,1,0.0118,0.0197,0,0,114.0*
1,1,0.0039,0.0048,0.0086*
1,1,0.0039,0.0096,-0.0022*
1,1,0.0039,-0.0048,-0.0086*
1,1,0.0039,-0.0096,0.0022*
%
%ADD39ROUNDEDRECTD39*%
G04:AMPARAMS|DCode=40|XSize=35.4mil|YSize=19.7mil|CornerRadius=2.5mil|HoleSize=0mil|Usage=FLASHONLY|Rotation=106.000|XOffset=0mil|YOffset=0mil|HoleType=Round|Shape=RoundedRectangle|*
%AMROUNDEDRECTD40*
21,1,0.0354,0.0148,0,0,106.0*
21,1,0.0305,0.0197,0,0,106.0*
1,1,0.0049,0.0029,0.0167*
1,1,0.0049,0.0113,-0.0126*
1,1,0.0049,-0.0029,-0.0167*
1,1,0.0049,-0.0113,0.0126*
%
%ADD40ROUNDEDRECTD40*%
G04:AMPARAMS|DCode=41|XSize=15.7mil|YSize=19.7mil|CornerRadius=2mil|HoleSize=0mil|Usage=FLASHONLY|Rotation=106.000|XOffset=0mil|YOffset=0mil|HoleType=Round|Shape=RoundedRectangle|*
%AMROUNDEDRECTD41*
21,1,0.0157,0.0157,0,0,106.0*
21,1,0.0118,0.0197,0,0,106.0*
1,1,0.0039,0.0059,0.0078*
1,1,0.0039,0.0092,-0.0035*
1,1,0.0039,-0.0059,-0.0078*
1,1,0.0039,-0.0092,0.0035*
%
%ADD41ROUNDEDRECTD41*%
G04:AMPARAMS|DCode=42|XSize=35.4mil|YSize=19.7mil|CornerRadius=2.5mil|HoleSize=0mil|Usage=FLASHONLY|Rotation=98.000|XOffset=0mil|YOffset=0mil|HoleType=Round|Shape=RoundedRectangle|*
%AMROUNDEDRECTD42*
21,1,0.0354,0.0148,0,0,98.0*
21,1,0.0305,0.0197,0,0,98.0*
1,1,0.0049,0.0052,0.0161*
1,1,0.0049,0.0094,-0.0141*
1,1,0.0049,-0.0052,-0.0161*
1,1,0.0049,-0.0094,0.0141*
%
%ADD42ROUNDEDRECTD42*%
G04:AMPARAMS|DCode=43|XSize=15.7mil|YSize=19.7mil|CornerRadius=2mil|HoleSize=0mil|Usage=FLASHONLY|Rotation=98.000|XOffset=0mil|YOffset=0mil|HoleType=Round|Shape=RoundedRectangle|*
%AMROUNDEDRECTD43*
21,1,0.0157,0.0157,0,0,98.0*
21,1,0.0118,0.0197,0,0,98.0*
1,1,0.0039,0.0070,0.0069*
1,1,0.0039,0.0086,-0.0048*
1,1,0.0039,-0.0070,-0.0069*
1,1,0.0039,-0.0086,0.0048*
%
%ADD43ROUNDEDRECTD43*%
G04:AMPARAMS|DCode=44|XSize=35.4mil|YSize=19.7mil|CornerRadius=2.5mil|HoleSize=0mil|Usage=FLASHONLY|Rotation=10.000|XOffset=0mil|YOffset=0mil|HoleType=Round|Shape=RoundedRectangle|*
%AMROUNDEDRECTD44*
21,1,0.0354,0.0148,0,0,10.0*
21,1,0.0305,0.0197,0,0,10.0*
1,1,0.0049,0.0163,-0.0046*
1,1,0.0049,-0.0137,-0.0099*
1,1,0.0049,-0.0163,0.0046*
1,1,0.0049,0.0137,0.0099*
%
%ADD44ROUNDEDRECTD44*%
G04:AMPARAMS|DCode=45|XSize=15.7mil|YSize=19.7mil|CornerRadius=2mil|HoleSize=0mil|Usage=FLASHONLY|Rotation=10.000|XOffset=0mil|YOffset=0mil|HoleType=Round|Shape=RoundedRectangle|*
%AMROUNDEDRECTD45*
21,1,0.0157,0.0157,0,0,10.0*
21,1,0.0118,0.0197,0,0,10.0*
1,1,0.0039,0.0072,-0.0067*
1,1,0.0039,-0.0044,-0.0088*
1,1,0.0039,-0.0072,0.0067*
1,1,0.0039,0.0044,0.0088*
%
%ADD45ROUNDEDRECTD45*%
G04:AMPARAMS|DCode=46|XSize=35.4mil|YSize=19.7mil|CornerRadius=2.5mil|HoleSize=0mil|Usage=FLASHONLY|Rotation=18.000|XOffset=0mil|YOffset=0mil|HoleType=Round|Shape=RoundedRectangle|*
%AMROUNDEDRECTD46*
21,1,0.0354,0.0148,0,0,18.0*
21,1,0.0305,0.0197,0,0,18.0*
1,1,0.0049,0.0168,-0.0023*
1,1,0.0049,-0.0122,-0.0117*
1,1,0.0049,-0.0168,0.0023*
1,1,0.0049,0.0122,0.0117*
%
%ADD46ROUNDEDRECTD46*%
G04:AMPARAMS|DCode=47|XSize=15.7mil|YSize=19.7mil|CornerRadius=2mil|HoleSize=0mil|Usage=FLASHONLY|Rotation=18.000|XOffset=0mil|YOffset=0mil|HoleType=Round|Shape=RoundedRectangle|*
%AMROUNDEDRECTD47*
21,1,0.0157,0.0157,0,0,18.0*
21,1,0.0118,0.0197,0,0,18.0*
1,1,0.0039,0.0081,-0.0057*
1,1,0.0039,-0.0032,-0.0093*
1,1,0.0039,-0.0081,0.0057*
1,1,0.0039,0.0032,0.0093*
%
%ADD47ROUNDEDRECTD47*%
G04:AMPARAMS|DCode=48|XSize=35.4mil|YSize=19.7mil|CornerRadius=2.5mil|HoleSize=0mil|Usage=FLASHONLY|Rotation=26.000|XOffset=0mil|YOffset=0mil|HoleType=Round|Shape=RoundedRectangle|*
%AMROUNDEDRECTD48*
21,1,0.0354,0.0148,0,0,26.0*
21,1,0.0305,0.0197,0,0,26.0*
1,1,0.0049,0.0169,0.0001*
1,1,0.0049,-0.0105,-0.0133*
1,1,0.0049,-0.0169,-0.0001*
1,1,0.0049,0.0105,0.0133*
%
%ADD48ROUNDEDRECTD48*%
G04:AMPARAMS|DCode=49|XSize=15.7mil|YSize=19.7mil|CornerRadius=2mil|HoleSize=0mil|Usage=FLASHONLY|Rotation=26.000|XOffset=0mil|YOffset=0mil|HoleType=Round|Shape=RoundedRectangle|*
%AMROUNDEDRECTD49*
21,1,0.0157,0.0157,0,0,26.0*
21,1,0.0118,0.0197,0,0,26.0*
1,1,0.0039,0.0088,-0.0045*
1,1,0.0039,-0.0019,-0.0097*
1,1,0.0039,-0.0088,0.0045*
1,1,0.0039,0.0019,0.0097*
%
%ADD49ROUNDEDRECTD49*%
G04:AMPARAMS|DCode=50|XSize=35.4mil|YSize=19.7mil|CornerRadius=2.5mil|HoleSize=0mil|Usage=FLASHONLY|Rotation=34.000|XOffset=0mil|YOffset=0mil|HoleType=Round|Shape=RoundedRectangle|*
%AMROUNDEDRECTD50*
21,1,0.0354,0.0148,0,0,34.0*
21,1,0.0305,0.0197,0,0,34.0*
1,1,0.0049,0.0168,0.0024*
1,1,0.0049,-0.0085,-0.0147*
1,1,0.0049,-0.0168,-0.0024*
1,1,0.0049,0.0085,0.0147*
%
%ADD50ROUNDEDRECTD50*%
G04:AMPARAMS|DCode=51|XSize=15.7mil|YSize=19.7mil|CornerRadius=2mil|HoleSize=0mil|Usage=FLASHONLY|Rotation=34.000|XOffset=0mil|YOffset=0mil|HoleType=Round|Shape=RoundedRectangle|*
%AMROUNDEDRECTD51*
21,1,0.0157,0.0157,0,0,34.0*
21,1,0.0118,0.0197,0,0,34.0*
1,1,0.0039,0.0093,-0.0032*
1,1,0.0039,-0.0005,-0.0098*
1,1,0.0039,-0.0093,0.0032*
1,1,0.0039,0.0005,0.0098*
%
%ADD51ROUNDEDRECTD51*%
G04:AMPARAMS|DCode=52|XSize=35.4mil|YSize=19.7mil|CornerRadius=2.5mil|HoleSize=0mil|Usage=FLASHONLY|Rotation=42.000|XOffset=0mil|YOffset=0mil|HoleType=Round|Shape=RoundedRectangle|*
%AMROUNDEDRECTD52*
21,1,0.0354,0.0148,0,0,42.0*
21,1,0.0305,0.0197,0,0,42.0*
1,1,0.0049,0.0163,0.0047*
1,1,0.0049,-0.0064,-0.0157*
1,1,0.0049,-0.0163,-0.0047*
1,1,0.0049,0.0064,0.0157*
%
%ADD52ROUNDEDRECTD52*%
G04:AMPARAMS|DCode=53|XSize=15.7mil|YSize=19.7mil|CornerRadius=2mil|HoleSize=0mil|Usage=FLASHONLY|Rotation=42.000|XOffset=0mil|YOffset=0mil|HoleType=Round|Shape=RoundedRectangle|*
%AMROUNDEDRECTD53*
21,1,0.0157,0.0157,0,0,42.0*
21,1,0.0118,0.0197,0,0,42.0*
1,1,0.0039,0.0097,-0.0019*
1,1,0.0039,0.0009,-0.0098*
1,1,0.0039,-0.0097,0.0019*
1,1,0.0039,-0.0009,0.0098*
%
%ADD53ROUNDEDRECTD53*%
G04:AMPARAMS|DCode=54|XSize=35.4mil|YSize=19.7mil|CornerRadius=2.5mil|HoleSize=0mil|Usage=FLASHONLY|Rotation=50.000|XOffset=0mil|YOffset=0mil|HoleType=Round|Shape=RoundedRectangle|*
%AMROUNDEDRECTD54*
21,1,0.0354,0.0148,0,0,50.0*
21,1,0.0305,0.0197,0,0,50.0*
1,1,0.0049,0.0155,0.0069*
1,1,0.0049,-0.0042,-0.0164*
1,1,0.0049,-0.0155,-0.0069*
1,1,0.0049,0.0042,0.0164*
%
%ADD54ROUNDEDRECTD54*%
G04:AMPARAMS|DCode=55|XSize=15.7mil|YSize=19.7mil|CornerRadius=2mil|HoleSize=0mil|Usage=FLASHONLY|Rotation=50.000|XOffset=0mil|YOffset=0mil|HoleType=Round|Shape=RoundedRectangle|*
%AMROUNDEDRECTD55*
21,1,0.0157,0.0157,0,0,50.0*
21,1,0.0118,0.0197,0,0,50.0*
1,1,0.0039,0.0098,-0.0005*
1,1,0.0039,0.0022,-0.0096*
1,1,0.0039,-0.0098,0.0005*
1,1,0.0039,-0.0022,0.0096*
%
%ADD55ROUNDEDRECTD55*%
G04:AMPARAMS|DCode=56|XSize=35.4mil|YSize=19.7mil|CornerRadius=2.5mil|HoleSize=0mil|Usage=FLASHONLY|Rotation=58.000|XOffset=0mil|YOffset=0mil|HoleType=Round|Shape=RoundedRectangle|*
%AMROUNDEDRECTD56*
21,1,0.0354,0.0148,0,0,58.0*
21,1,0.0305,0.0197,0,0,58.0*
1,1,0.0049,0.0143,0.0090*
1,1,0.0049,-0.0018,-0.0169*
1,1,0.0049,-0.0143,-0.0090*
1,1,0.0049,0.0018,0.0169*
%
%ADD56ROUNDEDRECTD56*%
G04:AMPARAMS|DCode=57|XSize=15.7mil|YSize=19.7mil|CornerRadius=2mil|HoleSize=0mil|Usage=FLASHONLY|Rotation=58.000|XOffset=0mil|YOffset=0mil|HoleType=Round|Shape=RoundedRectangle|*
%AMROUNDEDRECTD57*
21,1,0.0157,0.0157,0,0,58.0*
21,1,0.0118,0.0197,0,0,58.0*
1,1,0.0039,0.0098,0.0008*
1,1,0.0039,0.0035,-0.0092*
1,1,0.0039,-0.0098,-0.0008*
1,1,0.0039,-0.0035,0.0092*
%
%ADD57ROUNDEDRECTD57*%
G04:AMPARAMS|DCode=58|XSize=35.4mil|YSize=19.7mil|CornerRadius=2.5mil|HoleSize=0mil|Usage=FLASHONLY|Rotation=66.000|XOffset=0mil|YOffset=0mil|HoleType=Round|Shape=RoundedRectangle|*
%AMROUNDEDRECTD58*
21,1,0.0354,0.0148,0,0,66.0*
21,1,0.0305,0.0197,0,0,66.0*
1,1,0.0049,0.0129,0.0109*
1,1,0.0049,0.0005,-0.0169*
1,1,0.0049,-0.0129,-0.0109*
1,1,0.0049,-0.0005,0.0169*
%
%ADD58ROUNDEDRECTD58*%
G04:AMPARAMS|DCode=59|XSize=15.7mil|YSize=19.7mil|CornerRadius=2mil|HoleSize=0mil|Usage=FLASHONLY|Rotation=66.000|XOffset=0mil|YOffset=0mil|HoleType=Round|Shape=RoundedRectangle|*
%AMROUNDEDRECTD59*
21,1,0.0157,0.0157,0,0,66.0*
21,1,0.0118,0.0197,0,0,66.0*
1,1,0.0039,0.0096,0.0022*
1,1,0.0039,0.0048,-0.0086*
1,1,0.0039,-0.0096,-0.0022*
1,1,0.0039,-0.0048,0.0086*
%
%ADD59ROUNDEDRECTD59*%
G04:AMPARAMS|DCode=60|XSize=35.4mil|YSize=19.7mil|CornerRadius=2.5mil|HoleSize=0mil|Usage=FLASHONLY|Rotation=74.000|XOffset=0mil|YOffset=0mil|HoleType=Round|Shape=RoundedRectangle|*
%AMROUNDEDRECTD60*
21,1,0.0354,0.0148,0,0,74.0*
21,1,0.0305,0.0197,0,0,74.0*
1,1,0.0049,0.0113,0.0126*
1,1,0.0049,0.0029,-0.0167*
1,1,0.0049,-0.0113,-0.0126*
1,1,0.0049,-0.0029,0.0167*
%
%ADD60ROUNDEDRECTD60*%
G04:AMPARAMS|DCode=61|XSize=15.7mil|YSize=19.7mil|CornerRadius=2mil|HoleSize=0mil|Usage=FLASHONLY|Rotation=74.000|XOffset=0mil|YOffset=0mil|HoleType=Round|Shape=RoundedRectangle|*
%AMROUNDEDRECTD61*
21,1,0.0157,0.0157,0,0,74.0*
21,1,0.0118,0.0197,0,0,74.0*
1,1,0.0039,0.0092,0.0035*
1,1,0.0039,0.0059,-0.0078*
1,1,0.0039,-0.0092,-0.0035*
1,1,0.0039,-0.0059,0.0078*
%
%ADD61ROUNDEDRECTD61*%
G04:AMPARAMS|DCode=62|XSize=35.4mil|YSize=19.7mil|CornerRadius=2.5mil|HoleSize=0mil|Usage=FLASHONLY|Rotation=82.000|XOffset=0mil|YOffset=0mil|HoleType=Round|Shape=RoundedRectangle|*
%AMROUNDEDRECTD62*
21,1,0.0354,0.0148,0,0,82.0*
21,1,0.0305,0.0197,0,0,82.0*
1,1,0.0049,0.0094,0.0141*
1,1,0.0049,0.0052,-0.0161*
1,1,0.0049,-0.0094,-0.0141*
1,1,0.0049,-0.0052,0.0161*
%
%ADD62ROUNDEDRECTD62*%
G04:AMPARAMS|DCode=63|XSize=15.7mil|YSize=19.7mil|CornerRadius=2mil|HoleSize=0mil|Usage=FLASHONLY|Rotation=82.000|XOffset=0mil|YOffset=0mil|HoleType=Round|Shape=RoundedRectangle|*
%AMROUNDEDRECTD63*
21,1,0.0157,0.0157,0,0,82.0*
21,1,0.0118,0.0197,0,0,82.0*
1,1,0.0039,0.0086,0.0048*
1,1,0.0039,0.0070,-0.0069*
1,1,0.0039,-0.0086,-0.0048*
1,1,0.0039,-0.0070,0.0069*
%
%ADD63ROUNDEDRECTD63*%
G04:AMPARAMS|DCode=64|XSize=35.4mil|YSize=19.7mil|CornerRadius=2.5mil|HoleSize=0mil|Usage=FLASHONLY|Rotation=90.000|XOffset=0mil|YOffset=0mil|HoleType=Round|Shape=RoundedRectangle|*
%AMROUNDEDRECTD64*
21,1,0.0354,0.0148,0,0,90.0*
21,1,0.0305,0.0197,0,0,90.0*
1,1,0.0049,0.0074,0.0153*
1,1,0.0049,0.0074,-0.0153*
1,1,0.0049,-0.0074,-0.0153*
1,1,0.0049,-0.0074,0.0153*
%
%ADD64ROUNDEDRECTD64*%
G04:AMPARAMS|DCode=65|XSize=15.7mil|YSize=19.7mil|CornerRadius=2mil|HoleSize=0mil|Usage=FLASHONLY|Rotation=90.000|XOffset=0mil|YOffset=0mil|HoleType=Round|Shape=RoundedRectangle|*
%AMROUNDEDRECTD65*
21,1,0.0157,0.0157,0,0,90.0*
21,1,0.0118,0.0197,0,0,90.0*
1,1,0.0039,0.0079,0.0059*
1,1,0.0039,0.0079,-0.0059*
1,1,0.0039,-0.0079,-0.0059*
1,1,0.0039,-0.0079,0.0059*
%
%ADD65ROUNDEDRECTD65*%
%ADD66R,0.0886X0.0472*%
%ADD67R,0.0433X0.1063*%
%ADD68R,0.0138X0.0236*%
%ADD69R,0.0453X0.0236*%
G04:AMPARAMS|DCode=70|XSize=30mil|YSize=22mil|CornerRadius=5.5mil|HoleSize=0mil|Usage=FLASHONLY|Rotation=225.000|XOffset=0mil|YOffset=0mil|HoleType=Round|Shape=RoundedRectangle|*
%AMROUNDEDRECTD70*
21,1,0.0300,0.0110,0,0,225.0*
21,1,0.0190,0.0220,0,0,225.0*
1,1,0.0110,-0.0106,-0.0028*
1,1,0.0110,0.0028,0.0106*
1,1,0.0110,0.0106,0.0028*
1,1,0.0110,-0.0028,-0.0106*
%
%ADD70ROUNDEDRECTD70*%
%ADD71R,0.0256X0.0118*%
%ADD72R,0.0689X0.0984*%
%ADD73R,0.0118X0.0256*%
G04:AMPARAMS|DCode=74|XSize=30mil|YSize=22mil|CornerRadius=5.5mil|HoleSize=0mil|Usage=FLASHONLY|Rotation=270.000|XOffset=0mil|YOffset=0mil|HoleType=Round|Shape=RoundedRectangle|*
%AMROUNDEDRECTD74*
21,1,0.0300,0.0110,0,0,270.0*
21,1,0.0190,0.0220,0,0,270.0*
1,1,0.0110,-0.0055,-0.0095*
1,1,0.0110,-0.0055,0.0095*
1,1,0.0110,0.0055,0.0095*
1,1,0.0110,0.0055,-0.0095*
%
%ADD74ROUNDEDRECTD74*%
%ADD75C,0.0200*%
%ADD76C,0.0080*%
%ADD77R,0.4350X0.1000*%
%ADD78R,0.4400X0.1650*%
%ADD79C,0.0276*%
%ADD80R,0.0591X0.0591*%
%ADD81R,0.0591X0.0591*%
%ADD82C,0.0591*%
%ADD83C,0.0250*%
%ADD84C,0.0260*%
%ADD85C,0.0157*%
%ADD86C,0.0300*%
%ADD87C,0.0500*%
%ADD88C,0.0197*%
%ADD89P,0.0341X8X157.5*%
G04:AMPARAMS|DCode=90|XSize=133.9mil|YSize=141.7mil|CornerRadius=0.7mil|HoleSize=0mil|Usage=FLASHONLY|Rotation=135.000|XOffset=0mil|YOffset=0mil|HoleType=Round|Shape=RoundedRectangle|*
%AMROUNDEDRECTD90*
21,1,0.1339,0.1404,0,0,135.0*
21,1,0.1325,0.1417,0,0,135.0*
1,1,0.0013,0.0028,0.0965*
1,1,0.0013,0.0965,0.0028*
1,1,0.0013,-0.0028,-0.0965*
1,1,0.0013,-0.0965,-0.0028*
%
%ADD90ROUNDEDRECTD90*%
G04:AMPARAMS|DCode=91|XSize=133.9mil|YSize=141.7mil|CornerRadius=0.7mil|HoleSize=0mil|Usage=FLASHONLY|Rotation=225.000|XOffset=0mil|YOffset=0mil|HoleType=Round|Shape=RoundedRectangle|*
%AMROUNDEDRECTD91*
21,1,0.1339,0.1404,0,0,225.0*
21,1,0.1325,0.1417,0,0,225.0*
1,1,0.0013,-0.0965,0.0028*
1,1,0.0013,-0.0028,0.0965*
1,1,0.0013,0.0965,-0.0028*
1,1,0.0013,0.0028,-0.0965*
%
%ADD91ROUNDEDRECTD91*%
G04:AMPARAMS|DCode=92|XSize=24mil|YSize=30mil|CornerRadius=6mil|HoleSize=0mil|Usage=FLASHONLY|Rotation=270.000|XOffset=0mil|YOffset=0mil|HoleType=Round|Shape=RoundedRectangle|*
%AMROUNDEDRECTD92*
21,1,0.0240,0.0180,0,0,270.0*
21,1,0.0120,0.0300,0,0,270.0*
1,1,0.0120,-0.0090,-0.0060*
1,1,0.0120,-0.0090,0.0060*
1,1,0.0120,0.0090,0.0060*
1,1,0.0120,0.0090,-0.0060*
%
%ADD92ROUNDEDRECTD92*%
%ADD93R,0.4350X0.0950*%
%ADD94C,0.0098*%
%ADD95C,0.0039*%
%ADD96C,0.0079*%
%ADD97C,0.0010*%
%ADD98C,0.0050*%
%ADD99C,0.0138*%
G36*
X26836Y35234D02*
X26548Y35151D01*
X26238Y35323D01*
X26045Y35996D01*
X26217Y36305D01*
X26505Y36387D01*
X26836Y35234D01*
D02*
G37*
G36*
X44645Y34405D02*
X44595D01*
Y34595D01*
X44645D01*
Y34405D01*
D02*
G37*
G36*
X44905Y34405D02*
X44855Y34405D01*
Y34595D01*
X44905Y34595D01*
Y34405D01*
D02*
G37*
G36*
X52523Y36305D02*
X52695Y35996D01*
X52502Y35323D01*
X52193Y35151D01*
X51904Y35234D01*
X52235Y36387D01*
X52523Y36305D01*
D02*
G37*
G36*
X33445Y36205D02*
X33255D01*
X33255Y36255D01*
X33445D01*
X33445Y36205D01*
D02*
G37*
G36*
X48577Y36308D02*
X48442Y36173D01*
X48407Y36209D01*
X48541Y36343D01*
X48577Y36308D01*
D02*
G37*
G36*
X33445Y35945D02*
X33255D01*
Y35995D01*
X33445D01*
Y35945D01*
D02*
G37*
G36*
X35805Y33905D02*
X35755D01*
Y34095D01*
X35805D01*
Y33905D01*
D02*
G37*
G36*
X34900D02*
X34600D01*
Y33955D01*
X34900D01*
Y33905D01*
D02*
G37*
G36*
X37155Y33905D02*
X37105Y33905D01*
Y34095D01*
X37155Y34095D01*
Y33905D01*
D02*
G37*
G36*
X36450Y33905D02*
X36150D01*
Y33955D01*
X36450D01*
Y33905D01*
D02*
G37*
G36*
Y34045D02*
X36150D01*
Y34095D01*
X36450D01*
Y34045D01*
D02*
G37*
G36*
X34900D02*
X34600D01*
Y34095D01*
X34900D01*
Y34045D01*
D02*
G37*
G36*
X36895Y33905D02*
X36845D01*
Y34095D01*
X36895D01*
Y33905D01*
D02*
G37*
G36*
X46774Y37862D02*
X46739Y37827D01*
X46527Y38039D01*
X46562Y38074D01*
X46774Y37862D01*
D02*
G37*
G36*
X47093Y37741D02*
X46959Y37607D01*
X46923Y37642D01*
X47058Y37777D01*
X47093Y37741D01*
D02*
G37*
G36*
X47277Y37558D02*
X47142Y37423D01*
X47107Y37459D01*
X47241Y37593D01*
X47277Y37558D01*
D02*
G37*
G36*
X46873Y37961D02*
X46838Y37926D01*
X46626Y38138D01*
X46661Y38173D01*
X46873Y37961D01*
D02*
G37*
G36*
X46077Y38758D02*
X45942Y38623D01*
X45907Y38659D01*
X46041Y38793D01*
X46077Y38758D01*
D02*
G37*
G36*
X46343Y38541D02*
X46209Y38407D01*
X46173Y38442D01*
X46308Y38577D01*
X46343Y38541D01*
D02*
G37*
G36*
X46527Y38358D02*
X46392Y38223D01*
X46357Y38259D01*
X46491Y38393D01*
X46527Y38358D01*
D02*
G37*
G36*
X47943Y36941D02*
X47809Y36807D01*
X47773Y36842D01*
X47908Y36977D01*
X47943Y36941D01*
D02*
G37*
G36*
X48127Y36758D02*
X47992Y36623D01*
X47957Y36659D01*
X48091Y36793D01*
X48127Y36758D01*
D02*
G37*
G36*
X48393Y36491D02*
X48259Y36357D01*
X48223Y36392D01*
X48358Y36527D01*
X48393Y36491D01*
D02*
G37*
G36*
X26387Y36980D02*
X26090Y36938D01*
X25808Y37151D01*
X25711Y37844D01*
X25923Y38126D01*
X26220Y38168D01*
X26387Y36980D01*
D02*
G37*
G36*
X47493Y37341D02*
X47359Y37207D01*
X47323Y37242D01*
X47458Y37377D01*
X47493Y37341D01*
D02*
G37*
G36*
X47677Y37158D02*
X47542Y37023D01*
X47507Y37059D01*
X47641Y37193D01*
X47677Y37158D01*
D02*
G37*
G36*
X52817Y38126D02*
X53030Y37844D01*
X52932Y37151D01*
X52650Y36938D01*
X52353Y36980D01*
X52520Y38168D01*
X52817Y38126D01*
D02*
G37*
G36*
X49016Y29907D02*
X48998Y29554D01*
X48477Y29086D01*
X48124Y29104D01*
X47924Y29327D01*
X48815Y30130D01*
X49016Y29907D01*
D02*
G37*
G36*
X30817Y29327D02*
X30616Y29104D01*
X30263Y29086D01*
X29743Y29554D01*
X29724Y29907D01*
X29925Y30130D01*
X30817Y29327D01*
D02*
G37*
G36*
X47637Y28680D02*
X47570Y28332D01*
X46990Y27941D01*
X46643Y28008D01*
X46475Y28257D01*
X47470Y28928D01*
X47637Y28680D01*
D02*
G37*
G36*
X29527Y30585D02*
X29297Y30392D01*
X28945Y30423D01*
X28495Y30959D01*
X28526Y31311D01*
X28756Y31504D01*
X29527Y30585D01*
D02*
G37*
G36*
X51210Y32865D02*
X51290Y32521D01*
X50919Y31927D01*
X50574Y31848D01*
X50320Y32007D01*
X50956Y33024D01*
X51210Y32865D01*
D02*
G37*
G36*
X28420Y32007D02*
X28166Y31848D01*
X27821Y31927D01*
X27450Y32521D01*
X27530Y32865D01*
X27784Y33024D01*
X28420Y32007D01*
D02*
G37*
G36*
X50214Y31311D02*
X50245Y30959D01*
X49795Y30423D01*
X49443Y30392D01*
X49213Y30585D01*
X49984Y31504D01*
X50214Y31311D01*
D02*
G37*
G36*
X35529Y26755D02*
X35436Y26470D01*
X35121Y26309D01*
X34456Y26526D01*
X34295Y26841D01*
X34388Y27126D01*
X35529Y26755D01*
D02*
G37*
G36*
X37283Y26352D02*
X37231Y26056D01*
X36942Y25853D01*
X36252Y25975D01*
X36050Y26264D01*
X36102Y26560D01*
X37283Y26352D01*
D02*
G37*
G36*
X42691Y26264D02*
X42488Y25975D01*
X41798Y25853D01*
X41509Y26056D01*
X41457Y26352D01*
X42638Y26560D01*
X42691Y26264D01*
D02*
G37*
G36*
X44445Y26841D02*
X44285Y26526D01*
X43619Y26309D01*
X43304Y26470D01*
X43211Y26755D01*
X44352Y27126D01*
X44445Y26841D01*
D02*
G37*
G36*
X32265Y28257D02*
X32098Y28008D01*
X31750Y27941D01*
X31170Y28332D01*
X31103Y28680D01*
X31270Y28928D01*
X32265Y28257D01*
D02*
G37*
G36*
X46104Y27651D02*
X45989Y27317D01*
X45360Y27010D01*
X45026Y27125D01*
X44894Y27395D01*
X45973Y27921D01*
X46104Y27651D01*
D02*
G37*
G36*
X33846Y27395D02*
X33714Y27125D01*
X33380Y27010D01*
X32751Y27317D01*
X32636Y27651D01*
X32767Y27921D01*
X33846Y27395D01*
D02*
G37*
G36*
X37805Y33305D02*
X37755Y33305D01*
Y33495D01*
X37805Y33495D01*
Y33305D01*
D02*
G37*
G36*
X40935Y33260D02*
X41055D01*
Y33200D01*
X40745D01*
Y33260D01*
X40865D01*
Y33400D01*
X40935D01*
Y33260D01*
D02*
G37*
G36*
X34595Y32485D02*
X34545D01*
Y32715D01*
X34595D01*
Y32485D01*
D02*
G37*
G36*
X37545Y33305D02*
X37495D01*
Y33495D01*
X37545D01*
Y33305D01*
D02*
G37*
G36*
X35545Y34095D02*
Y33905D01*
X35495Y33905D01*
Y34095D01*
X35545Y34095D01*
D02*
G37*
G36*
X27518Y33566D02*
X27244Y33444D01*
X26914Y33571D01*
X26629Y34210D01*
X26756Y34540D01*
X27030Y34662D01*
X27518Y33566D01*
D02*
G37*
G36*
X51985Y34540D02*
X52111Y34210D01*
X51827Y33571D01*
X51496Y33444D01*
X51222Y33566D01*
X51710Y34662D01*
X51985Y34540D01*
D02*
G37*
G36*
X37145Y31855D02*
X37095D01*
Y32045D01*
X37145D01*
Y31855D01*
D02*
G37*
G36*
X37745Y32045D02*
Y31855D01*
X37695Y31855D01*
Y32045D01*
X37745Y32045D01*
D02*
G37*
G36*
X37405Y31855D02*
X37355Y31855D01*
Y32045D01*
X37405Y32045D01*
Y31855D01*
D02*
G37*
G36*
X38005Y31855D02*
X37955D01*
Y32045D01*
X38005D01*
Y31855D01*
D02*
G37*
G36*
X34155Y32485D02*
X34105D01*
Y32715D01*
X34155D01*
Y32485D01*
D02*
G37*
G36*
X41055Y32205D02*
X41005D01*
Y32395D01*
X41055D01*
Y32205D01*
D02*
G37*
G36*
X40795Y32395D02*
Y32205D01*
X40745Y32205D01*
Y32395D01*
X40795Y32395D01*
D02*
G37*
G36*
X26181Y38770D02*
X25881D01*
X25631Y39020D01*
Y39720D01*
X25881Y39970D01*
X26181D01*
Y38770D01*
D02*
G37*
G36*
X39845Y45595D02*
Y45405D01*
X39795Y45405D01*
Y45595D01*
X39845Y45595D01*
D02*
G37*
G36*
X39295D02*
Y45405D01*
X39245Y45405D01*
Y45595D01*
X39295Y45595D01*
D02*
G37*
G36*
X43573Y44461D02*
X43538Y44426D01*
X43326Y44638D01*
X43361Y44673D01*
X43573Y44461D01*
D02*
G37*
G36*
X40395Y45595D02*
Y45405D01*
X40345Y45405D01*
Y45595D01*
X40395Y45595D01*
D02*
G37*
G36*
X40655Y45405D02*
X40605D01*
Y45595D01*
X40655D01*
Y45405D01*
D02*
G37*
G36*
X40105D02*
X40055D01*
Y45595D01*
X40105D01*
Y45405D01*
D02*
G37*
G36*
X39555D02*
X39505D01*
Y45595D01*
X39555D01*
Y45405D01*
D02*
G37*
G36*
X51827Y45170D02*
X52111Y44530D01*
X51985Y44200D01*
X51710Y44078D01*
X51222Y45174D01*
X51496Y45296D01*
X51827Y45170D01*
D02*
G37*
G36*
X44691Y44277D02*
X44373Y43959D01*
X44309Y44023D01*
X44627Y44341D01*
X44691Y44277D01*
D02*
G37*
G36*
X44663Y44122D02*
X44613Y44072D01*
X44726Y43959D01*
X44691Y43924D01*
X44578Y44037D01*
X44528Y43987D01*
X44528D01*
X44496Y44019D01*
X44631Y44154D01*
X44631D01*
X44663Y44122D01*
D02*
G37*
G36*
X27518Y45174D02*
X27030Y44078D01*
X26756Y44200D01*
X26629Y44530D01*
X26914Y45170D01*
X27244Y45296D01*
X27518Y45174D01*
D02*
G37*
G36*
X44910Y44369D02*
X44875Y44334D01*
X44684Y44525D01*
X44719Y44560D01*
X44910Y44369D01*
D02*
G37*
G36*
X43474Y44362D02*
X43439Y44327D01*
X43227Y44539D01*
X43262Y44574D01*
X43474Y44362D01*
D02*
G37*
G36*
X44422Y44263D02*
X44472Y44313D01*
X44472D01*
X44504Y44281D01*
X44369Y44146D01*
X44369D01*
X44337Y44178D01*
X44387Y44228D01*
X44274Y44341D01*
X44309Y44376D01*
X44422Y44263D01*
D02*
G37*
G36*
X33714Y51615D02*
X33846Y51345D01*
X32767Y50819D01*
X32636Y51089D01*
X32751Y51423D01*
X33380Y51730D01*
X33714Y51615D01*
D02*
G37*
G36*
X45989Y51423D02*
X46104Y51089D01*
X45973Y50819D01*
X44894Y51345D01*
X45026Y51615D01*
X45360Y51730D01*
X45989Y51423D01*
D02*
G37*
G36*
X47570Y50408D02*
X47637Y50061D01*
X47470Y49812D01*
X46475Y50483D01*
X46643Y50732D01*
X46990Y50799D01*
X47570Y50408D01*
D02*
G37*
G36*
X35436Y52270D02*
X35529Y51985D01*
X34388Y51614D01*
X34295Y51899D01*
X34456Y52214D01*
X35121Y52431D01*
X35436Y52270D01*
D02*
G37*
G36*
X42488Y52765D02*
X42691Y52476D01*
X42638Y52180D01*
X41457Y52389D01*
X41509Y52684D01*
X41798Y52887D01*
X42488Y52765D01*
D02*
G37*
G36*
X37231Y52684D02*
X37283Y52389D01*
X36102Y52180D01*
X36050Y52476D01*
X36252Y52765D01*
X36942Y52887D01*
X37231Y52684D01*
D02*
G37*
G36*
X44285Y52214D02*
X44445Y51899D01*
X44352Y51614D01*
X43211Y51985D01*
X43304Y52270D01*
X43619Y52431D01*
X44285Y52214D01*
D02*
G37*
G36*
X29527Y48155D02*
X28756Y47236D01*
X28526Y47429D01*
X28495Y47781D01*
X28945Y48317D01*
X29297Y48348D01*
X29527Y48155D01*
D02*
G37*
G36*
X50919Y46813D02*
X51290Y46219D01*
X51210Y45875D01*
X50956Y45716D01*
X50320Y46734D01*
X50574Y46893D01*
X50919Y46813D01*
D02*
G37*
G36*
X28420Y46734D02*
X27784Y45716D01*
X27530Y45875D01*
X27450Y46219D01*
X27821Y46813D01*
X28166Y46893D01*
X28420Y46734D01*
D02*
G37*
G36*
X49795Y48317D02*
X50245Y47781D01*
X50214Y47429D01*
X49984Y47236D01*
X49213Y48155D01*
X49443Y48348D01*
X49795Y48317D01*
D02*
G37*
G36*
X32098Y50732D02*
X32265Y50483D01*
X31270Y49812D01*
X31103Y50061D01*
X31170Y50408D01*
X31750Y50799D01*
X32098Y50732D01*
D02*
G37*
G36*
X48998Y49186D02*
X49016Y48833D01*
X48815Y48610D01*
X47924Y49413D01*
X48124Y49636D01*
X48477Y49655D01*
X48998Y49186D01*
D02*
G37*
G36*
X30616Y49636D02*
X30817Y49413D01*
X29925Y48610D01*
X29724Y48833D01*
X29743Y49186D01*
X30263Y49655D01*
X30616Y49636D01*
D02*
G37*
G36*
X26387Y41761D02*
X26220Y40573D01*
X25923Y40614D01*
X25711Y40897D01*
X25808Y41590D01*
X26090Y41803D01*
X26387Y41761D01*
D02*
G37*
G36*
X31324Y40512D02*
X31289Y40477D01*
X31077Y40689D01*
X31112Y40724D01*
X31324Y40512D01*
D02*
G37*
G36*
X31643Y40391D02*
X31509Y40257D01*
X31473Y40292D01*
X31608Y40427D01*
X31643Y40391D01*
D02*
G37*
G36*
X52932Y41590D02*
X53030Y40897D01*
X52817Y40614D01*
X52520Y40573D01*
X52353Y41761D01*
X52650Y41803D01*
X52932Y41590D01*
D02*
G37*
G36*
X30843Y41191D02*
X30709Y41057D01*
X30673Y41092D01*
X30808Y41227D01*
X30843Y41191D01*
D02*
G37*
G36*
X31027Y41008D02*
X30892Y40873D01*
X30857Y40909D01*
X30991Y41043D01*
X31027Y41008D01*
D02*
G37*
G36*
X31423Y40611D02*
X31388Y40576D01*
X31176Y40788D01*
X31211Y40823D01*
X31423Y40611D01*
D02*
G37*
G36*
X32777Y39358D02*
X32642Y39223D01*
X32607Y39259D01*
X32741Y39393D01*
X32777Y39358D01*
D02*
G37*
G36*
X45893Y38941D02*
X45759Y38807D01*
X45723Y38842D01*
X45858Y38977D01*
X45893Y38941D01*
D02*
G37*
G36*
X53109Y39720D02*
Y39020D01*
X52859Y38770D01*
X52559D01*
Y39970D01*
X52859D01*
X53109Y39720D01*
D02*
G37*
G36*
X32593Y39541D02*
X32459Y39407D01*
X32423Y39442D01*
X32558Y39577D01*
X32593Y39541D01*
D02*
G37*
G36*
X31827Y40208D02*
X31692Y40073D01*
X31657Y40109D01*
X31791Y40243D01*
X31827Y40208D01*
D02*
G37*
G36*
X32093Y39991D02*
X31959Y39857D01*
X31923Y39892D01*
X32058Y40027D01*
X32093Y39991D01*
D02*
G37*
G36*
X32277Y39808D02*
X32142Y39673D01*
X32107Y39709D01*
X32241Y39843D01*
X32277Y39808D01*
D02*
G37*
G36*
X43924Y43588D02*
X43712Y43376D01*
X43677Y43411D01*
X43889Y43623D01*
X43924Y43588D01*
D02*
G37*
G36*
X45324Y43312D02*
X45289Y43277D01*
X45077Y43489D01*
X45112Y43524D01*
X45324Y43312D01*
D02*
G37*
G36*
X44023Y43489D02*
X43811Y43277D01*
X43776Y43312D01*
X43988Y43524D01*
X44023Y43489D01*
D02*
G37*
G36*
X45423Y43411D02*
X45388Y43376D01*
X45176Y43588D01*
X45211Y43623D01*
X45423Y43411D01*
D02*
G37*
G36*
X44316Y43775D02*
X44281Y43740D01*
X44090Y43931D01*
X44125Y43966D01*
X44316Y43775D01*
D02*
G37*
G36*
X47545Y43555D02*
X47495D01*
Y43745D01*
X47545D01*
Y43555D01*
D02*
G37*
G36*
X47805Y43555D02*
X47755Y43555D01*
Y43745D01*
X47805Y43745D01*
Y43555D01*
D02*
G37*
G36*
X30227Y41808D02*
X30092Y41673D01*
X30057Y41709D01*
X30191Y41843D01*
X30227Y41808D01*
D02*
G37*
G36*
X30443Y41591D02*
X30309Y41457D01*
X30273Y41492D01*
X30408Y41627D01*
X30443Y41591D01*
D02*
G37*
G36*
X30627Y41408D02*
X30492Y41273D01*
X30457Y41309D01*
X30591Y41443D01*
X30627Y41408D01*
D02*
G37*
G36*
X30043Y41991D02*
X29909Y41857D01*
X29873Y41892D01*
X30008Y42027D01*
X30043Y41991D01*
D02*
G37*
G36*
X47805Y42590D02*
X47685D01*
Y42450D01*
X47615D01*
Y42590D01*
X47495D01*
Y42650D01*
X47805D01*
Y42590D01*
D02*
G37*
G36*
X52502Y43418D02*
X52695Y42745D01*
X52523Y42435D01*
X52235Y42353D01*
X51904Y43506D01*
X52193Y43589D01*
X52502Y43418D01*
D02*
G37*
G36*
X26836Y43506D02*
X26505Y42353D01*
X26217Y42435D01*
X26045Y42745D01*
X26238Y43418D01*
X26548Y43589D01*
X26836Y43506D01*
D02*
G37*
D75*
X36350Y44050D02*
X36750D01*
X36550Y44250D02*
Y43850D01*
X41850Y44100D02*
X42250D01*
X42050Y44300D02*
Y43900D01*
X42400Y34700D02*
X42800D01*
X37150Y34750D02*
X37550D01*
D76*
X37263Y26800D02*
G03*
X37263Y26800I-30J0D01*
G01*
X35572Y27207D02*
G03*
X35572Y27207I-30J0D01*
G01*
X33951Y27840D02*
G03*
X33951Y27840I-30J0D01*
G01*
X32432Y28688D02*
G03*
X32432Y28688I-30J0D01*
G01*
X31042Y29734D02*
G03*
X31042Y29734I-30J0D01*
G01*
X29807Y30961D02*
G03*
X29807Y30961I-30J0D01*
G01*
X28750Y32344D02*
G03*
X28750Y32344I-30J0D01*
G01*
X27891Y33859D02*
G03*
X27891Y33859I-30J0D01*
G01*
X27247Y35476D02*
G03*
X27247Y35476I-30J0D01*
G01*
X26828Y37166D02*
G03*
X26828Y37166I-30J0D01*
G01*
X36333Y51776D02*
G03*
X36333Y51776I-30J0D01*
G01*
X34673Y51242D02*
G03*
X34673Y51242I-30J0D01*
G01*
X33102Y50486D02*
G03*
X33102Y50486I-30J0D01*
G01*
X31648Y49524D02*
G03*
X31648Y49524I-30J0D01*
G01*
X30339Y48374D02*
G03*
X30339Y48374I-30J0D01*
G01*
X29199Y47056D02*
G03*
X29199Y47056I-30J0D01*
G01*
X28249Y45595D02*
G03*
X28249Y45595I-30J0D01*
G01*
X27507Y44018D02*
G03*
X27507Y44018I-30J0D01*
G01*
X26987Y42356D02*
G03*
X26987Y42356I-30J0D01*
G01*
X26697Y40639D02*
G03*
X26697Y40639I-30J0D01*
G01*
X42468Y26964D02*
G03*
X42468Y26964I-30J0D01*
G01*
X44127Y27499D02*
G03*
X44127Y27499I-30J0D01*
G01*
X45698Y28254D02*
G03*
X45698Y28254I-30J0D01*
G01*
X47152Y29216D02*
G03*
X47152Y29216I-30J0D01*
G01*
X48461Y30366D02*
G03*
X48461Y30366I-30J0D01*
G01*
X49601Y31685D02*
G03*
X49601Y31685I-30J0D01*
G01*
X50551Y33146D02*
G03*
X50551Y33146I-30J0D01*
G01*
X51293Y34722D02*
G03*
X51293Y34722I-30J0D01*
G01*
X51813Y36384D02*
G03*
X51813Y36384I-30J0D01*
G01*
X52103Y38102D02*
G03*
X52103Y38102I-30J0D01*
G01*
X43229Y51534D02*
G03*
X43229Y51534I-30J0D01*
G01*
X41537Y51940D02*
G03*
X41537Y51940I-30J0D01*
G01*
X44849Y50900D02*
G03*
X44849Y50900I-30J0D01*
G01*
X46368Y50053D02*
G03*
X46368Y50053I-30J0D01*
G01*
X47759Y49006D02*
G03*
X47759Y49006I-30J0D01*
G01*
X48993Y47779D02*
G03*
X48993Y47779I-30J0D01*
G01*
X50050Y46396D02*
G03*
X50050Y46396I-30J0D01*
G01*
X50909Y44882D02*
G03*
X50909Y44882I-30J0D01*
G01*
X26644Y38898D02*
G03*
X26644Y38898I-30J0D01*
G01*
X51553Y43264D02*
G03*
X51553Y43264I-30J0D01*
G01*
X51972Y41574D02*
G03*
X51972Y41574I-30J0D01*
G01*
X52156Y39843D02*
G03*
X52156Y39843I-30J0D01*
G01*
D94*
X37699Y44857D02*
G03*
X37699Y44857I-49J0D01*
G01*
X41649Y33893D02*
G03*
X41649Y33893I-49J0D01*
G01*
X45131Y45383D02*
G03*
X45131Y45383I-49J0D01*
G01*
D95*
X35153Y33210D02*
G03*
X35153Y33210I-20J0D01*
G01*
D96*
X32928Y42883D02*
Y43395D01*
X33519D01*
X34581Y41801D02*
Y44399D01*
X33519Y41801D02*
Y44399D01*
Y41801D02*
X34581D01*
X33519Y44399D02*
X34581D01*
X32928Y42883D02*
X33519D01*
X37099Y43499D02*
Y44601D01*
X37099Y43499D02*
X38201D01*
Y44601D01*
X37099Y44601D02*
X38201D01*
X42151Y34149D02*
Y35251D01*
X41049Y35251D02*
X42151D01*
X41049Y34149D02*
Y35251D01*
X41049Y34149D02*
X42151D01*
X43074Y45324D02*
X43350D01*
X43074D02*
Y45600D01*
Y46800D02*
Y47076D01*
X43350D01*
X44550D02*
X44826D01*
Y46800D02*
Y47076D01*
X44550Y45324D02*
X44826D01*
Y45600D01*
X43350Y38700D02*
X44350D01*
Y33700D02*
Y38700D01*
X43350Y33700D02*
Y38700D01*
Y33700D02*
X44350D01*
X34806Y37705D02*
Y39615D01*
X33163Y37705D02*
X34806D01*
X33163D02*
Y39408D01*
X33369Y39615D01*
X34806D01*
X36383Y33259D02*
X36609D01*
Y33210D02*
Y33259D01*
X36383Y31941D02*
X36609D01*
Y31941D02*
Y31990D01*
X35291Y31941D02*
X35517D01*
X35291Y31941D02*
Y31990D01*
Y33210D02*
Y33259D01*
Y33259D02*
X35517D01*
D97*
X37105Y34095D02*
X37155Y34095D01*
X37105Y33905D02*
Y34095D01*
Y33905D02*
X37155Y33905D01*
Y34095D01*
X36845Y33905D02*
Y34095D01*
X36895D01*
Y33905D02*
Y34095D01*
X36845Y33905D02*
X36895D01*
X36150D02*
Y33955D01*
Y34045D02*
Y34095D01*
Y33905D02*
X36450D01*
X36150Y33955D02*
X36450D01*
Y33905D02*
Y33955D01*
Y34045D02*
Y34095D01*
X36150Y34045D02*
X36450D01*
X36150Y34095D02*
X36450D01*
X37755Y33495D02*
X37805Y33495D01*
X37755Y33305D02*
Y33495D01*
Y33305D02*
X37805Y33305D01*
Y33495D01*
X37495Y33305D02*
Y33495D01*
X37545D01*
Y33305D02*
Y33495D01*
X37495Y33305D02*
X37545D01*
X34595Y32485D02*
Y32715D01*
X34545Y32485D02*
X34595D01*
X34545D02*
Y32715D01*
X34595D01*
X34105Y32485D02*
X34155D01*
Y32715D01*
X34105D02*
X34155D01*
X34105Y32485D02*
Y32715D01*
X46491Y38393D02*
X46527Y38358D01*
X46357Y38259D02*
X46491Y38393D01*
X46357Y38259D02*
X46392Y38223D01*
X46527Y38358D01*
X46173Y38442D02*
X46308Y38577D01*
X46343Y38541D01*
X46209Y38407D02*
X46343Y38541D01*
X46173Y38442D02*
X46209Y38407D01*
X31473Y40292D02*
X31509Y40257D01*
X31643Y40391D01*
X31608Y40427D02*
X31643Y40391D01*
X31473Y40292D02*
X31608Y40427D01*
X31692Y40073D02*
X31827Y40208D01*
X31657Y40109D02*
X31692Y40073D01*
X31657Y40109D02*
X31791Y40243D01*
X31827Y40208D01*
X43227Y44539D02*
X43262Y44574D01*
X43326Y44638D02*
X43361Y44673D01*
X43227Y44539D02*
X43439Y44327D01*
X43262Y44574D02*
X43474Y44362D01*
X43439Y44327D02*
X43474Y44362D01*
X43538Y44426D02*
X43573Y44461D01*
X43326Y44638D02*
X43538Y44426D01*
X43361Y44673D02*
X43573Y44461D01*
X44684Y44525D02*
X44875Y44334D01*
X44719Y44560D02*
X44910Y44369D01*
X44684Y44525D02*
X44719Y44560D01*
X44875Y44334D02*
X44910Y44369D01*
X44090Y43931D02*
X44125Y43966D01*
X44281Y43740D02*
X44316Y43775D01*
X44274Y44341D02*
X44309Y44376D01*
X44274Y44341D02*
X44387Y44228D01*
X44369Y44146D02*
X44504Y44281D01*
X44309Y44376D02*
X44422Y44263D01*
X44472Y44313D01*
X44528Y43987D02*
X44578Y44037D01*
X44309Y44023D02*
X44627Y44341D01*
X44090Y43931D02*
X44281Y43740D01*
X44125Y43966D02*
X44316Y43775D01*
X44578Y44037D02*
X44691Y43924D01*
X44496Y44019D02*
X44631Y44154D01*
X44613Y44072D02*
X44726Y43959D01*
X44691Y43924D02*
X44726Y43959D01*
X44613Y44072D02*
X44663Y44122D01*
X44627Y44341D02*
X44691Y44277D01*
X44373Y43959D02*
X44691Y44277D01*
X44309Y44023D02*
X44373Y43959D01*
X44337Y44178D02*
X44387Y44228D01*
X44337Y44178D02*
X44369Y44146D01*
X44472Y44313D02*
X44504Y44281D01*
X44631Y44154D02*
X44663Y44122D01*
X44496Y44019D02*
X44528Y43987D01*
X47495Y42590D02*
Y42650D01*
X47805Y42590D02*
Y42650D01*
X47615Y42450D02*
X47685D01*
X47495Y42650D02*
X47805D01*
X47685Y42590D02*
X47805D01*
X47495D02*
X47615D01*
X47685Y42450D02*
Y42590D01*
X47615Y42450D02*
Y42590D01*
X41055Y33200D02*
Y33260D01*
X40745Y33200D02*
Y33260D01*
X40865Y33400D02*
X40935D01*
X40745Y33200D02*
X41055D01*
X40745Y33260D02*
X40865D01*
X40935D02*
X41055D01*
X40865D02*
Y33400D01*
X40935Y33260D02*
Y33400D01*
X45723Y38842D02*
X45759Y38807D01*
X45893Y38941D01*
X45858Y38977D02*
X45893Y38941D01*
X45723Y38842D02*
X45858Y38977D01*
X45942Y38623D02*
X46077Y38758D01*
X45907Y38659D02*
X45942Y38623D01*
X45907Y38659D02*
X46041Y38793D01*
X46077Y38758D01*
X46923Y37642D02*
X46959Y37607D01*
X47093Y37741D01*
X47058Y37777D02*
X47093Y37741D01*
X46923Y37642D02*
X47058Y37777D01*
X47142Y37423D02*
X47277Y37558D01*
X47107Y37459D02*
X47142Y37423D01*
X47107Y37459D02*
X47241Y37593D01*
X47277Y37558D01*
X32241Y39843D02*
X32277Y39808D01*
X32107Y39709D02*
X32241Y39843D01*
X32107Y39709D02*
X32142Y39673D01*
X32277Y39808D01*
X31923Y39892D02*
X32058Y40027D01*
X32093Y39991D01*
X31959Y39857D02*
X32093Y39991D01*
X31923Y39892D02*
X31959Y39857D01*
X30191Y41843D02*
X30227Y41808D01*
X30057Y41709D02*
X30191Y41843D01*
X30057Y41709D02*
X30092Y41673D01*
X30227Y41808D01*
X29873Y41892D02*
X30008Y42027D01*
X30043Y41991D01*
X29909Y41857D02*
X30043Y41991D01*
X29873Y41892D02*
X29909Y41857D01*
X41005Y32395D02*
X41055D01*
X41005Y32205D02*
Y32395D01*
Y32205D02*
X41055D01*
Y32395D01*
X40745Y32205D02*
Y32395D01*
X40795Y32395D01*
Y32205D02*
Y32395D01*
X40745Y32205D02*
X40795Y32205D01*
X43677Y43411D02*
X43889Y43623D01*
X43712Y43376D02*
X43924Y43588D01*
X43889Y43623D02*
X43924Y43588D01*
X43988Y43524D02*
X44023Y43489D01*
X43776Y43312D02*
X43988Y43524D01*
X43811Y43277D02*
X44023Y43489D01*
X43677Y43411D02*
X43712Y43376D01*
X43776Y43312D02*
X43811Y43277D01*
X45211Y43623D02*
X45423Y43411D01*
X45176Y43588D02*
X45388Y43376D01*
X45423Y43411D01*
X45289Y43277D02*
X45324Y43312D01*
X45112Y43524D02*
X45324Y43312D01*
X45077Y43489D02*
X45289Y43277D01*
X45176Y43588D02*
X45211Y43623D01*
X45077Y43489D02*
X45112Y43524D01*
X47323Y37242D02*
X47359Y37207D01*
X47493Y37341D01*
X47458Y37377D02*
X47493Y37341D01*
X47323Y37242D02*
X47458Y37377D01*
X47542Y37023D02*
X47677Y37158D01*
X47507Y37059D02*
X47542Y37023D01*
X47507Y37059D02*
X47641Y37193D01*
X47677Y37158D01*
X47495Y43555D02*
X47545D01*
Y43745D01*
X47495D02*
X47545D01*
X47495Y43555D02*
Y43745D01*
X47805Y43555D02*
Y43745D01*
X47755Y43555D02*
X47805Y43555D01*
X47755Y43555D02*
Y43745D01*
X47805Y43745D01*
X47773Y36842D02*
X47809Y36807D01*
X47943Y36941D01*
X47908Y36977D02*
X47943Y36941D01*
X47773Y36842D02*
X47908Y36977D01*
X47992Y36623D02*
X48127Y36758D01*
X47957Y36659D02*
X47992Y36623D01*
X47957Y36659D02*
X48091Y36793D01*
X48127Y36758D01*
X30991Y41043D02*
X31027Y41008D01*
X30857Y40909D02*
X30991Y41043D01*
X30857Y40909D02*
X30892Y40873D01*
X31027Y41008D01*
X30673Y41092D02*
X30808Y41227D01*
X30843Y41191D01*
X30709Y41057D02*
X30843Y41191D01*
X30673Y41092D02*
X30709Y41057D01*
X30591Y41443D02*
X30627Y41408D01*
X30457Y41309D02*
X30591Y41443D01*
X30457Y41309D02*
X30492Y41273D01*
X30627Y41408D01*
X30273Y41492D02*
X30408Y41627D01*
X30443Y41591D01*
X30309Y41457D02*
X30443Y41591D01*
X30273Y41492D02*
X30309Y41457D01*
X44595Y34405D02*
X44645D01*
Y34595D01*
X44595D02*
X44645D01*
X44595Y34405D02*
Y34595D01*
X44905Y34405D02*
Y34595D01*
X44855Y34405D02*
X44905Y34405D01*
X44855Y34405D02*
Y34595D01*
X44905Y34595D01*
X48541Y36343D02*
X48577Y36308D01*
X48407Y36209D02*
X48541Y36343D01*
X48407Y36209D02*
X48442Y36173D01*
X48577Y36308D01*
X48223Y36392D02*
X48358Y36527D01*
X48393Y36491D01*
X48259Y36357D02*
X48393Y36491D01*
X48223Y36392D02*
X48259Y36357D01*
X40605Y45595D02*
X40655D01*
X40605Y45405D02*
Y45595D01*
Y45405D02*
X40655D01*
Y45595D01*
X40345Y45405D02*
Y45595D01*
X40395Y45595D01*
Y45405D02*
Y45595D01*
X40345Y45405D02*
X40395Y45405D01*
X39505Y45595D02*
X39555D01*
X39505Y45405D02*
Y45595D01*
Y45405D02*
X39555D01*
Y45595D01*
X39245Y45405D02*
Y45595D01*
X39295Y45595D01*
Y45405D02*
Y45595D01*
X39245Y45405D02*
X39295Y45405D01*
X40055Y45595D02*
X40105D01*
X40055Y45405D02*
Y45595D01*
Y45405D02*
X40105D01*
Y45595D01*
X39795Y45405D02*
Y45595D01*
X39845Y45595D01*
Y45405D02*
Y45595D01*
X39795Y45405D02*
X39845Y45405D01*
X31077Y40689D02*
X31289Y40477D01*
X31112Y40724D02*
X31324Y40512D01*
X31077Y40689D02*
X31112Y40724D01*
X31176Y40788D02*
X31211Y40823D01*
X31176Y40788D02*
X31388Y40576D01*
X31211Y40823D02*
X31423Y40611D01*
X31289Y40477D02*
X31324Y40512D01*
X31388Y40576D02*
X31423Y40611D01*
X46661Y38173D02*
X46873Y37961D01*
X46626Y38138D02*
X46838Y37926D01*
X46873Y37961D01*
X46739Y37827D02*
X46774Y37862D01*
X46562Y38074D02*
X46774Y37862D01*
X46527Y38039D02*
X46739Y37827D01*
X46626Y38138D02*
X46661Y38173D01*
X46527Y38039D02*
X46562Y38074D01*
X34600Y34095D02*
X34900D01*
X34600Y34045D02*
X34900D01*
Y34095D01*
Y33905D02*
Y33955D01*
X34600D02*
X34900D01*
X34600Y33905D02*
X34900D01*
X34600Y34045D02*
Y34095D01*
Y33905D02*
Y33955D01*
X32741Y39393D02*
X32777Y39358D01*
X32607Y39259D02*
X32741Y39393D01*
X32607Y39259D02*
X32642Y39223D01*
X32777Y39358D01*
X32423Y39442D02*
X32558Y39577D01*
X32593Y39541D01*
X32459Y39407D02*
X32593Y39541D01*
X32423Y39442D02*
X32459Y39407D01*
X37355Y32045D02*
X37405Y32045D01*
X37355Y31855D02*
Y32045D01*
Y31855D02*
X37405Y31855D01*
Y32045D01*
X37095Y31855D02*
Y32045D01*
X37145D01*
Y31855D02*
Y32045D01*
X37095Y31855D02*
X37145D01*
X37695Y31855D02*
X37745Y31855D01*
Y32045D01*
X37695Y32045D02*
X37745Y32045D01*
X37695Y31855D02*
Y32045D01*
X38005Y31855D02*
Y32045D01*
X37955Y31855D02*
X38005D01*
X37955D02*
Y32045D01*
X38005D01*
X35495Y33905D02*
X35545Y33905D01*
Y34095D01*
X35495Y34095D02*
X35545Y34095D01*
X35495Y33905D02*
Y34095D01*
X35805Y33905D02*
Y34095D01*
X35755Y33905D02*
X35805D01*
X35755D02*
Y34095D01*
X35805D01*
X33255Y36255D02*
X33255Y36205D01*
X33445D01*
X33445Y36255D01*
X33255D02*
X33445D01*
X33255Y35945D02*
X33445D01*
X33255D02*
Y35995D01*
X33445D01*
Y35945D02*
Y35995D01*
D98*
X33394Y34059D02*
X33906D01*
X33394Y33941D02*
X33906D01*
X34394Y31309D02*
X34906D01*
X34394Y31191D02*
X34906D01*
X50565Y39218D02*
X50698Y39350D01*
X50565Y39482D02*
X50698Y39350D01*
X49250Y40798D02*
X49382Y40665D01*
X49118D02*
X49250Y40798D01*
X47802Y39350D02*
X47935Y39482D01*
X47802Y39350D02*
X47935Y39218D01*
X49153Y38000D02*
X49347D01*
X49118Y38035D02*
X49153Y38000D01*
X49347D02*
X49382Y38035D01*
X37343Y26741D02*
X37381Y26734D01*
X37404Y26410D02*
X37445Y26643D01*
X37381Y26734D02*
X37477Y26597D01*
X35984Y26581D02*
X37313Y26346D01*
X37450Y26442D01*
X37477Y26597D01*
X35984Y26581D02*
X36052Y26968D01*
X36596Y26873D01*
X36926Y26814D02*
X37110Y26782D01*
X35642Y27133D02*
X35679Y27121D01*
X35657Y26797D02*
X35730Y27021D01*
X35679Y27121D02*
X35755Y26972D01*
X34274Y27163D02*
X35558Y26746D01*
X35706Y26822D01*
X35755Y26972D01*
X34274Y27163D02*
X34395Y27538D01*
X34921Y27367D01*
X35239Y27263D02*
X35417Y27206D01*
X34010Y27753D02*
X34045Y27735D01*
X33978Y27418D02*
X34082Y27630D01*
X34045Y27735D02*
X34100Y27578D01*
X32659Y27973D02*
X33873Y27382D01*
X34031Y27436D01*
X34100Y27578D01*
X32659Y27973D02*
X32832Y28327D01*
X33329Y28085D01*
X33630Y27938D02*
X33798Y27856D01*
X32478Y28589D02*
X32510Y28567D01*
X32399Y28262D02*
X32531Y28458D01*
X32510Y28567D02*
X32542Y28403D01*
X31171Y28995D02*
X32290Y28240D01*
X32454Y28272D01*
X32542Y28403D01*
X31171Y28995D02*
X31391Y29322D01*
X31849Y29013D01*
X32127Y28826D02*
X32282Y28721D01*
X31073Y29626D02*
X31102Y29600D01*
X30950Y29313D02*
X31108Y29488D01*
X31102Y29600D02*
X31111Y29433D01*
X29836Y30210D02*
X30839Y29307D01*
X31006Y29316D01*
X31111Y29433D01*
X29836Y30210D02*
X30099Y30503D01*
X30510Y30133D01*
X30758Y29909D02*
X30897Y29784D01*
X29823Y30845D02*
X29848Y30815D01*
X29657Y30552D02*
X29838Y30704D01*
X29833Y30648D02*
X29848Y30815D01*
X28679Y31596D02*
X29546Y30562D01*
X29713Y30547D01*
X29833Y30648D01*
X28679Y31596D02*
X28980Y31849D01*
X29335Y31426D01*
X29550Y31169D02*
X29671Y31026D01*
X28749Y32223D02*
X28770Y32190D01*
X28545Y31956D02*
X28745Y32081D01*
X28732Y32027D02*
X28770Y32190D01*
X27721Y33126D02*
X28436Y31981D01*
X28599Y31944D01*
X28732Y32027D01*
X27721Y33126D02*
X28055Y33335D01*
X28348Y32866D01*
X28525Y32582D02*
X28624Y32424D01*
X27874Y33735D02*
X27890Y33699D01*
X27634Y33499D02*
X27850Y33595D01*
X27830Y33543D02*
X27890Y33699D01*
X26981Y34772D02*
X27530Y33539D01*
X27686Y33479D01*
X27830Y33543D01*
X26981Y34772D02*
X27341Y34932D01*
X27565Y34427D01*
X27701Y34121D02*
X27777Y33950D01*
X27212Y35352D02*
X27223Y35314D01*
X26942Y35151D02*
X27169Y35216D01*
X27142Y35168D02*
X27223Y35314D01*
X26472Y36503D02*
X26844Y35205D01*
X26990Y35124D01*
X27142Y35168D01*
X26472Y36503D02*
X26851Y36611D01*
X27003Y36080D01*
X27095Y35758D02*
X27147Y35579D01*
X26776Y37044D02*
X26781Y37005D01*
X26480Y36883D02*
X26714Y36916D01*
X26681Y36871D02*
X26781Y37005D01*
X26204Y38287D02*
X26392Y36950D01*
X26525Y36849D01*
X26681Y36871D01*
X26204Y38287D02*
X26594Y38342D01*
X26670Y37794D01*
X26717Y37463D02*
X26743Y37278D01*
X36141Y51787D02*
X36179Y51794D01*
X36008Y52084D02*
X36049Y51851D01*
X36004Y51883D02*
X36141Y51787D01*
X36072Y52175D02*
X37402Y52409D01*
X35976Y52038D02*
X36072Y52175D01*
X35976Y52038D02*
X36004Y51883D01*
X37402Y52409D02*
X37470Y52022D01*
X36926Y51926D02*
X37470Y52022D01*
X36412Y51835D02*
X36596Y51868D01*
X34481Y51230D02*
X34518Y51242D01*
X34309Y51506D02*
X34382Y51281D01*
X34332Y51306D02*
X34481Y51230D01*
X34359Y51605D02*
X35643Y52022D01*
X34284Y51456D02*
X34359Y51605D01*
X34284Y51456D02*
X34332Y51306D01*
X35643Y52022D02*
X35765Y51647D01*
X35239Y51477D02*
X35765Y51647D01*
X34743Y51315D02*
X34921Y51373D01*
X32913Y50452D02*
X32948Y50470D01*
X32704Y50701D02*
X32808Y50489D01*
X32755Y50507D02*
X32913Y50452D01*
X32740Y50806D02*
X33954Y51398D01*
X32686Y50648D02*
X32740Y50806D01*
X32686Y50648D02*
X32755Y50507D01*
X33954Y51398D02*
X34126Y51044D01*
X33630Y50802D02*
X34126Y51044D01*
X33161Y50573D02*
X33329Y50655D01*
X31466Y49469D02*
X31498Y49491D01*
X31224Y49686D02*
X31356Y49490D01*
X31302Y49501D02*
X31466Y49469D01*
X31246Y49795D02*
X32365Y50550D01*
X31214Y49631D02*
X31246Y49795D01*
X31214Y49631D02*
X31302Y49501D01*
X32365Y50550D02*
X32585Y50224D01*
X32127Y49915D02*
X32585Y50224D01*
X31694Y49623D02*
X31849Y49727D01*
X30166Y48298D02*
X30195Y48324D01*
X29897Y48479D02*
X30055Y48303D01*
X29999Y48306D02*
X30166Y48298D01*
X29903Y48590D02*
X30906Y49493D01*
X29894Y48423D02*
X29903Y48590D01*
X29894Y48423D02*
X29999Y48306D01*
X30906Y49493D02*
X31169Y49201D01*
X30758Y48831D02*
X31169Y49201D01*
X30371Y48482D02*
X30510Y48607D01*
X29038Y46960D02*
X29063Y46990D01*
X28746Y47102D02*
X28927Y46951D01*
X28872Y46946D02*
X29038Y46960D01*
X28736Y47213D02*
X29604Y48247D01*
X28736Y47213D02*
X28751Y47047D01*
X28872Y46946D01*
X29604Y48247D02*
X29906Y47994D01*
X29550Y47571D02*
X29906Y47994D01*
X29215Y47171D02*
X29335Y47315D01*
X28102Y45482D02*
X28123Y45515D01*
X27794Y45582D02*
X27994Y45457D01*
X27940Y45444D02*
X28102Y45482D01*
X27769Y45691D02*
X28484Y46835D01*
X27769Y45691D02*
X27806Y45528D01*
X27940Y45444D01*
X28484Y46835D02*
X28818Y46627D01*
X28525Y46158D02*
X28818Y46627D01*
X28248Y45716D02*
X28348Y45874D01*
X27377Y43891D02*
X27393Y43927D01*
X27057Y43947D02*
X27273Y43851D01*
X27221Y43831D02*
X27377Y43891D01*
X27018Y44051D02*
X27567Y45284D01*
X27018Y44051D02*
X27077Y43895D01*
X27221Y43831D01*
X27567Y45284D02*
X27926Y45124D01*
X27701Y44619D02*
X27926Y45124D01*
X27489Y44142D02*
X27565Y44313D01*
X26875Y42215D02*
X26886Y42253D01*
X26551Y42227D02*
X26778Y42161D01*
X26729Y42134D02*
X26875Y42215D01*
X26497Y42324D02*
X26869Y43622D01*
X26497Y42324D02*
X26578Y42178D01*
X26729Y42134D01*
X26869Y43622D02*
X27248Y43513D01*
X27095Y42982D02*
X27248Y43513D01*
X26951Y42480D02*
X27003Y42660D01*
X26606Y40488D02*
X26612Y40527D01*
X26283Y40454D02*
X26517Y40421D01*
X26473Y40388D02*
X26606Y40488D01*
X26216Y40543D02*
X26404Y41880D01*
X26216Y40543D02*
X26317Y40410D01*
X26473Y40388D01*
X26404Y41880D02*
X26794Y41825D01*
X26717Y41278D02*
X26794Y41825D01*
X26644Y40761D02*
X26670Y40946D01*
X42561Y26946D02*
X42600Y26953D01*
X42691Y26889D02*
X42732Y26656D01*
X42600Y26953D02*
X42736Y26857D01*
X41339Y26331D02*
X42668Y26565D01*
X42764Y26702D01*
X42736Y26857D02*
X42764Y26702D01*
X41270Y26718D02*
X41339Y26331D01*
X41270Y26718D02*
X41814Y26814D01*
X42144Y26873D02*
X42328Y26905D01*
X44222Y27498D02*
X44259Y27510D01*
X44358Y27459D02*
X44431Y27235D01*
X44259Y27510D02*
X44408Y27434D01*
X43097Y26718D02*
X44381Y27135D01*
X44457Y27284D01*
X44408Y27434D02*
X44457Y27284D01*
X42975Y27093D02*
X43097Y26718D01*
X42975Y27093D02*
X43501Y27263D01*
X43819Y27367D02*
X43997Y27425D01*
X45792Y28270D02*
X45827Y28288D01*
X45932Y28251D02*
X46036Y28039D01*
X45827Y28288D02*
X45985Y28233D01*
X44786Y27342D02*
X46000Y27934D01*
X46054Y28092D01*
X45985Y28233D02*
X46054Y28092D01*
X44614Y27696D02*
X44786Y27342D01*
X44614Y27696D02*
X45111Y27938D01*
X45411Y28085D02*
X45579Y28167D01*
X47242Y29249D02*
X47274Y29271D01*
X47384Y29250D02*
X47516Y29054D01*
X47274Y29271D02*
X47438Y29239D01*
X46375Y28190D02*
X47495Y28945D01*
X47526Y29109D01*
X47438Y29239D02*
X47526Y29109D01*
X46155Y28516D02*
X46375Y28190D01*
X46155Y28516D02*
X46613Y28826D01*
X46891Y29013D02*
X47046Y29117D01*
X48545Y30416D02*
X48574Y30443D01*
X48685Y30437D02*
X48843Y30261D01*
X48574Y30443D02*
X48741Y30434D01*
X47834Y29247D02*
X48838Y30150D01*
X48846Y30317D01*
X48741Y30434D02*
X48846Y30317D01*
X47571Y29539D02*
X47834Y29247D01*
X47571Y29539D02*
X47982Y29909D01*
X48230Y30133D02*
X48369Y30258D01*
X49677Y31750D02*
X49702Y31780D01*
X49813Y31790D02*
X49994Y31638D01*
X49702Y31780D02*
X49869Y31795D01*
X49136Y30493D02*
X50004Y31527D01*
X49989Y31693D02*
X50004Y31527D01*
X49869Y31795D02*
X49989Y31693D01*
X48834Y30746D02*
X49136Y30493D01*
X48834Y30746D02*
X49190Y31169D01*
X49405Y31426D02*
X49525Y31569D01*
X50617Y33225D02*
X50638Y33258D01*
X50746Y33283D02*
X50947Y33158D01*
X50638Y33258D02*
X50800Y33296D01*
X50256Y31905D02*
X50972Y33050D01*
X50934Y33212D02*
X50972Y33050D01*
X50800Y33296D02*
X50934Y33212D01*
X49922Y32113D02*
X50256Y31905D01*
X49922Y32113D02*
X50215Y32582D01*
X50393Y32866D02*
X50492Y33024D01*
X51347Y34814D02*
X51363Y34850D01*
X51467Y34890D02*
X51683Y34793D01*
X51363Y34850D02*
X51519Y34909D01*
X51174Y33456D02*
X51723Y34689D01*
X51663Y34845D02*
X51723Y34689D01*
X51519Y34909D02*
X51663Y34845D01*
X50814Y33616D02*
X51174Y33456D01*
X50814Y33616D02*
X51039Y34121D01*
X51175Y34427D02*
X51251Y34598D01*
X51854Y36487D02*
X51865Y36525D01*
X51962Y36579D02*
X52189Y36514D01*
X51865Y36525D02*
X52011Y36606D01*
X51871Y35119D02*
X52243Y36416D01*
X52162Y36562D02*
X52243Y36416D01*
X52011Y36606D02*
X52162Y36562D01*
X51493Y35227D02*
X51871Y35119D01*
X51493Y35227D02*
X51645Y35758D01*
X51737Y36080D02*
X51789Y36260D01*
X52129Y38213D02*
X52134Y38252D01*
X52223Y38319D02*
X52457Y38287D01*
X52134Y38252D02*
X52267Y38353D01*
X52336Y36861D02*
X52524Y38198D01*
X52423Y38331D02*
X52524Y38198D01*
X52267Y38353D02*
X52423Y38331D01*
X51946Y36916D02*
X52336Y36861D01*
X51946Y36916D02*
X52023Y37463D01*
X52070Y37794D02*
X52096Y37979D01*
X43061Y51620D02*
X43098Y51607D01*
X43010Y51719D02*
X43083Y51944D01*
X42985Y51768D02*
X43061Y51620D01*
X43183Y51994D02*
X44466Y51577D01*
X43034Y51918D02*
X43183Y51994D01*
X42985Y51768D02*
X43034Y51918D01*
X44345Y51203D02*
X44466Y51577D01*
X43819Y51373D02*
X44345Y51203D01*
X43323Y51534D02*
X43501Y51477D01*
X41359Y52006D02*
X41398Y51999D01*
X41295Y52097D02*
X41336Y52330D01*
X41263Y52143D02*
X41359Y52006D01*
X41427Y52394D02*
X42757Y52159D01*
X41290Y52298D02*
X41427Y52394D01*
X41263Y52143D02*
X41290Y52298D01*
X42688Y51772D02*
X42757Y52159D01*
X42144Y51868D02*
X42688Y51772D01*
X41630Y51958D02*
X41814Y51926D01*
X44695Y51005D02*
X44730Y50987D01*
X44659Y51110D02*
X44762Y51322D01*
X44640Y51163D02*
X44695Y51005D01*
X44867Y51359D02*
X46081Y50767D01*
X44709Y51304D02*
X44867Y51359D01*
X44640Y51163D02*
X44709Y51304D01*
X45908Y50413D02*
X46081Y50767D01*
X45411Y50655D02*
X45908Y50413D01*
X44942Y50884D02*
X45111Y50802D01*
X46230Y50173D02*
X46263Y50151D01*
X46209Y50283D02*
X46341Y50478D01*
X46198Y50337D02*
X46230Y50173D01*
X46450Y50500D02*
X47569Y49745D01*
X46286Y50468D02*
X46450Y50500D01*
X46198Y50337D02*
X46286Y50468D01*
X47349Y49418D02*
X47569Y49745D01*
X46891Y49727D02*
X47349Y49418D01*
X46458Y50019D02*
X46613Y49915D01*
X47638Y49141D02*
X47667Y49114D01*
X47632Y49252D02*
X47790Y49427D01*
X47629Y49307D02*
X47638Y49141D01*
X47901Y49433D02*
X48905Y48530D01*
X47735Y49424D02*
X47901Y49433D01*
X47629Y49307D02*
X47735Y49424D01*
X48641Y48237D02*
X48905Y48530D01*
X48230Y48607D02*
X48641Y48237D01*
X47843Y48956D02*
X47982Y48831D01*
X48892Y47925D02*
X48918Y47895D01*
X48902Y48036D02*
X49083Y48188D01*
X48892Y47925D02*
X48907Y48092D01*
X49194Y48178D02*
X50062Y47144D01*
X49028Y48193D02*
X49194Y48178D01*
X48907Y48092D02*
X49028Y48193D01*
X49760Y46891D02*
X50062Y47144D01*
X49405Y47315D02*
X49760Y46891D01*
X49069Y47714D02*
X49190Y47571D01*
X49970Y46550D02*
X49991Y46517D01*
X49995Y46659D02*
X50195Y46784D01*
X49970Y46550D02*
X50008Y46713D01*
X50304Y46759D02*
X51019Y45614D01*
X50141Y46797D02*
X50304Y46759D01*
X50008Y46713D02*
X50141Y46797D01*
X50685Y45406D02*
X51019Y45614D01*
X50393Y45874D02*
X50685Y45406D01*
X50116Y46317D02*
X50215Y46158D01*
X50851Y45041D02*
X50867Y45005D01*
X50890Y45145D02*
X51106Y45241D01*
X50851Y45041D02*
X50910Y45197D01*
X51210Y45202D02*
X51759Y43968D01*
X51054Y45261D02*
X51210Y45202D01*
X50910Y45197D02*
X51054Y45261D01*
X51400Y43808D02*
X51759Y43968D01*
X51175Y44313D02*
X51400Y43808D01*
X50963Y44790D02*
X51039Y44619D01*
X26575Y38740D02*
Y38780D01*
X26260Y38661D02*
X26496D01*
X26457Y38622D02*
X26575Y38740D01*
X26181D02*
Y40090D01*
Y38740D02*
X26299Y38622D01*
X26457D01*
X26181Y40090D02*
X26575D01*
X26575Y39537D02*
X26575Y40090D01*
Y39016D02*
Y39203D01*
X51517Y43426D02*
X51528Y43389D01*
X51571Y43524D02*
X51799Y43589D01*
X51517Y43426D02*
X51598Y43573D01*
X51896Y43535D02*
X52268Y42237D01*
X51750Y43616D02*
X51896Y43535D01*
X51598Y43573D02*
X51750Y43616D01*
X51890Y42129D02*
X52268Y42237D01*
X51737Y42660D02*
X51890Y42129D01*
X51593Y43162D02*
X51645Y42982D01*
X51959Y41736D02*
X51964Y41697D01*
X52026Y41825D02*
X52260Y41858D01*
X51959Y41736D02*
X52059Y41869D01*
X52349Y41791D02*
X52536Y40454D01*
X52215Y41891D02*
X52349Y41791D01*
X52059Y41869D02*
X52215Y41891D01*
X52147Y40399D02*
X52536Y40454D01*
X52070Y40946D02*
X52147Y40399D01*
X51997Y41463D02*
X52023Y41278D01*
X52165Y39961D02*
Y40000D01*
X52244Y40079D02*
X52480D01*
X52165Y40000D02*
X52283Y40118D01*
X52559Y38650D02*
Y40000D01*
X52441Y40118D02*
X52559Y40000D01*
X52283Y40118D02*
X52441D01*
X52165Y38650D02*
X52559D01*
X52165D02*
X52165Y39203D01*
X52165Y39537D02*
Y39724D01*
X29418Y40665D02*
X29453Y40700D01*
X29647Y40700D02*
X29682Y40665D01*
X29453Y40700D02*
X29647Y40700D01*
X30865Y39482D02*
X30998Y39350D01*
X30865Y39218D02*
X30998Y39350D01*
X29550Y37902D02*
X29682Y38035D01*
X29418D02*
X29550Y37902D01*
X28102Y39350D02*
X28235Y39218D01*
X28102Y39350D02*
X28235Y39482D01*
X33610Y45312D02*
X33557Y45365D01*
X33452D01*
X33400Y45312D01*
Y45260D01*
X33452Y45207D01*
X33557D01*
X33610Y45155D01*
Y45102D01*
X33557Y45050D01*
X33452D01*
X33400Y45102D01*
X33715Y45050D02*
X33820D01*
X33767D01*
Y45365D01*
X33715Y45312D01*
X33977Y45050D02*
X34082D01*
X34030D01*
Y45365D01*
X33977Y45312D01*
X38100Y33250D02*
Y33565D01*
X38257D01*
X38310Y33512D01*
Y33407D01*
X38257Y33355D01*
X38100D01*
X38205D02*
X38310Y33250D01*
X38415D02*
X38520D01*
X38467D01*
Y33565D01*
X38415Y33512D01*
X38887Y33250D02*
X38677D01*
X38887Y33460D01*
Y33512D01*
X38835Y33565D01*
X38730D01*
X38677Y33512D01*
X37250Y33900D02*
Y34215D01*
X37407D01*
X37460Y34162D01*
Y34057D01*
X37407Y34005D01*
X37250D01*
X37355D02*
X37460Y33900D01*
X37565D02*
X37670D01*
X37617D01*
Y34215D01*
X37565Y34162D01*
X37827Y33900D02*
X37932D01*
X37880D01*
Y34215D01*
X37827Y34162D01*
X36188Y34760D02*
X36135Y34707D01*
Y34602D01*
X36188Y34550D01*
X36398D01*
X36450Y34602D01*
Y34707D01*
X36398Y34760D01*
X36450Y34865D02*
Y34970D01*
Y34917D01*
X36135D01*
X36188Y34865D01*
X36450Y35337D02*
Y35127D01*
X36240Y35337D01*
X36188D01*
X36135Y35285D01*
Y35180D01*
X36188Y35127D01*
X34588Y30010D02*
X34535Y29957D01*
Y29852D01*
X34588Y29800D01*
X34798D01*
X34850Y29852D01*
Y29957D01*
X34798Y30010D01*
X34850Y30115D02*
Y30220D01*
Y30167D01*
X34535D01*
X34588Y30115D01*
X34850Y30377D02*
Y30482D01*
Y30430D01*
X34535D01*
X34588Y30377D01*
X33538Y34960D02*
X33485Y34907D01*
Y34802D01*
X33538Y34750D01*
X33748D01*
X33800Y34802D01*
Y34907D01*
X33748Y34960D01*
X33800Y35065D02*
Y35170D01*
Y35117D01*
X33485D01*
X33538Y35065D01*
Y35327D02*
X33485Y35380D01*
Y35485D01*
X33538Y35537D01*
X33590D01*
X33643Y35485D01*
Y35432D01*
Y35485D01*
X33695Y35537D01*
X33748D01*
X33800Y35485D01*
Y35380D01*
X33748Y35327D01*
X33250Y32415D02*
Y32100D01*
X33460D01*
X33565D02*
X33670D01*
X33617D01*
Y32415D01*
X33565Y32362D01*
X33827Y32100D02*
X33932D01*
X33880D01*
Y32415D01*
X33827Y32362D01*
X43050Y47665D02*
Y47402D01*
X43102Y47350D01*
X43207D01*
X43260Y47402D01*
Y47665D01*
X43575Y47350D02*
X43365D01*
X43575Y47560D01*
Y47612D01*
X43522Y47665D01*
X43417D01*
X43365Y47612D01*
X43680Y47350D02*
X43785D01*
X43732D01*
Y47665D01*
X43680Y47612D01*
X44923Y45123D02*
X44848Y44752D01*
X45071Y44974D02*
X44700Y44900D01*
X45145D02*
X45294Y44752D01*
X45219Y44826D01*
X44997Y44603D01*
X45294Y44306D02*
X45145Y44455D01*
X45442D01*
X45479Y44492D01*
Y44566D01*
X45405Y44640D01*
X45331Y44640D01*
X45368Y44232D02*
X45442Y44158D01*
X45405Y44195D01*
X45628Y44418D01*
X45553Y44418D01*
X45050Y37050D02*
X44827Y37273D01*
X44939Y37384D01*
X45013D01*
X45087Y37310D01*
X45087Y37236D01*
X44976Y37124D01*
X45050Y37198D02*
X45198D01*
X45087Y37458D02*
X45087Y37532D01*
X45161Y37607D01*
X45236D01*
X45273Y37569D01*
Y37495D01*
X45236Y37458D01*
X45273Y37495D01*
X45347Y37495D01*
X45384Y37458D01*
X45384Y37384D01*
X45310Y37310D01*
X45236D01*
X45644Y37644D02*
X45495Y37495D01*
Y37792D01*
X45458Y37829D01*
X45384D01*
X45310Y37755D01*
X45310Y37681D01*
X32450Y40800D02*
X32227Y41023D01*
X32339Y41134D01*
X32413D01*
X32487Y41060D01*
X32487Y40986D01*
X32376Y40874D01*
X32450Y40948D02*
X32598D01*
X32487Y41208D02*
X32487Y41282D01*
X32561Y41357D01*
X32636D01*
X32673Y41319D01*
Y41245D01*
X32636Y41208D01*
X32673Y41245D01*
X32747Y41245D01*
X32784Y41208D01*
X32784Y41134D01*
X32710Y41060D01*
X32636D01*
X32895Y41245D02*
X32969Y41319D01*
X32932Y41282D01*
X32710Y41505D01*
X32710Y41431D01*
X42913Y44784D02*
X42839D01*
X42764Y44710D01*
X42764Y44636D01*
X42913Y44487D01*
X42987D01*
X43061Y44561D01*
X43061Y44636D01*
X43321Y44821D02*
X43173Y44673D01*
Y44969D01*
X43136Y45007D01*
X43061D01*
X42987Y44932D01*
X42987Y44858D01*
X43395Y44895D02*
X43469Y44969D01*
X43432Y44932D01*
X43210Y45155D01*
X43210Y45081D01*
X48050Y42865D02*
Y42550D01*
X48207D01*
X48260Y42602D01*
Y42812D01*
X48207Y42865D01*
X48050D01*
X48575Y42550D02*
X48365D01*
X48575Y42760D01*
Y42812D01*
X48522Y42865D01*
X48417D01*
X48365Y42812D01*
X48680Y42550D02*
X48785D01*
X48732D01*
Y42865D01*
X48680Y42812D01*
X39950Y33515D02*
Y33200D01*
X40107D01*
X40160Y33252D01*
Y33462D01*
X40107Y33515D01*
X39950D01*
X40265Y33200D02*
X40370D01*
X40317D01*
Y33515D01*
X40265Y33462D01*
X40527Y33200D02*
X40632D01*
X40580D01*
Y33515D01*
X40527Y33462D01*
X43510Y39165D02*
X43405D01*
X43457D01*
Y38902D01*
X43405Y38850D01*
X43352D01*
X43300Y38902D01*
X43825Y38850D02*
X43615D01*
X43825Y39060D01*
Y39112D01*
X43772Y39165D01*
X43667D01*
X43615Y39112D01*
X43930Y38850D02*
X44035D01*
X43982D01*
Y39165D01*
X43930Y39112D01*
X47427Y40023D02*
X47613Y39837D01*
X47687D01*
X47761Y39911D01*
X47761Y39986D01*
X47576Y40171D01*
X47687Y40208D02*
X47687Y40282D01*
X47761Y40357D01*
X47836D01*
X47873Y40319D01*
Y40245D01*
X47836Y40208D01*
X47873Y40245D01*
X47947Y40245D01*
X47984Y40208D01*
X47984Y40134D01*
X47910Y40060D01*
X47836D01*
X48244Y40394D02*
X48095Y40245D01*
Y40542D01*
X48058Y40579D01*
X47984D01*
X47910Y40505D01*
X47910Y40431D01*
X30850Y42450D02*
X30627Y42673D01*
X30739Y42784D01*
X30813D01*
X30887Y42710D01*
X30887Y42636D01*
X30776Y42524D01*
X30850Y42598D02*
X30998D01*
X31221Y42821D02*
X31073Y42673D01*
Y42969D01*
X31036Y43007D01*
X30961D01*
X30887Y42932D01*
X30887Y42858D01*
X31110Y43081D02*
X31110Y43155D01*
X31184Y43229D01*
X31258D01*
X31295Y43192D01*
Y43118D01*
X31258Y43081D01*
X31295Y43118D01*
X31369Y43118D01*
X31407Y43081D01*
X31407Y43007D01*
X31332Y42932D01*
X31258D01*
X32900Y40400D02*
X32677Y40623D01*
X32789Y40734D01*
X32863D01*
X32937Y40660D01*
X32937Y40586D01*
X32826Y40474D01*
X32900Y40548D02*
X33048D01*
X33271Y40771D02*
X33123Y40623D01*
Y40919D01*
X33086Y40957D01*
X33011D01*
X32937Y40882D01*
X32937Y40808D01*
X33457Y40957D02*
X33234Y41179D01*
X33234Y40957D01*
X33382Y41105D01*
X46000Y36300D02*
X45777Y36523D01*
X45889Y36634D01*
X45963D01*
X46037Y36560D01*
X46037Y36486D01*
X45926Y36374D01*
X46000Y36448D02*
X46148D01*
X46371Y36671D02*
X46223Y36523D01*
Y36819D01*
X46186Y36857D01*
X46111D01*
X46037Y36782D01*
X46037Y36708D01*
X46371Y37116D02*
X46223Y36968D01*
X46334Y36857D01*
X46371Y36968D01*
X46408Y37005D01*
X46482D01*
X46557Y36931D01*
X46557Y36857D01*
X46482Y36782D01*
X46408D01*
X44700Y37450D02*
X44477Y37673D01*
X44589Y37784D01*
X44663D01*
X44737Y37710D01*
X44737Y37636D01*
X44626Y37524D01*
X44700Y37598D02*
X44848D01*
X45071Y37821D02*
X44923Y37673D01*
Y37969D01*
X44886Y38007D01*
X44811D01*
X44737Y37932D01*
X44737Y37858D01*
X44923Y38118D02*
X45071Y38266D01*
X45108Y38229D01*
Y37932D01*
X45145Y37895D01*
X34750Y40115D02*
Y39852D01*
X34802Y39800D01*
X34907D01*
X34960Y39852D01*
Y40115D01*
X35065Y39800D02*
X35170D01*
X35117D01*
Y40115D01*
X35065Y40062D01*
X35327Y39800D02*
X35432D01*
X35380D01*
Y40115D01*
X35327Y40062D01*
X35250Y31715D02*
Y31452D01*
X35302Y31400D01*
X35407D01*
X35460Y31452D01*
Y31715D01*
X35565Y31400D02*
X35670D01*
X35617D01*
Y31715D01*
X35565Y31662D01*
X36037Y31400D02*
X35827D01*
X36037Y31610D01*
Y31662D01*
X35985Y31715D01*
X35880D01*
X35827Y31662D01*
X34638Y34760D02*
X34585Y34707D01*
Y34602D01*
X34638Y34550D01*
X34848D01*
X34900Y34602D01*
Y34707D01*
X34848Y34760D01*
X34900Y34865D02*
Y34970D01*
Y34917D01*
X34585D01*
X34638Y34865D01*
X34900Y35285D02*
X34585D01*
X34743Y35127D01*
Y35337D01*
X43384Y43387D02*
Y43461D01*
X43310Y43536D01*
X43236Y43536D01*
X43087Y43387D01*
Y43313D01*
X43161Y43239D01*
X43236Y43239D01*
X43421Y42979D02*
X43273Y43127D01*
X43569D01*
X43607Y43164D01*
Y43239D01*
X43532Y43313D01*
X43458Y43313D01*
X43681Y43090D02*
X43755Y43090D01*
X43829Y43016D01*
Y42942D01*
X43792Y42905D01*
X43718D01*
X43681Y42942D01*
X43718Y42905D01*
X43718Y42831D01*
X43681Y42793D01*
X43607Y42793D01*
X43532Y42868D01*
Y42942D01*
X45363Y43084D02*
X45289D01*
X45214Y43010D01*
X45214Y42936D01*
X45363Y42787D01*
X45437D01*
X45511Y42861D01*
X45511Y42936D01*
X45771Y43121D02*
X45623Y42973D01*
Y43269D01*
X45586Y43307D01*
X45511D01*
X45437Y43232D01*
X45437Y43158D01*
X45957Y43307D02*
X45734Y43529D01*
X45734Y43307D01*
X45882Y43455D01*
X32013Y41534D02*
X31939D01*
X31864Y41460D01*
X31864Y41386D01*
X32013Y41237D01*
X32087D01*
X32161Y41311D01*
X32161Y41386D01*
X32087Y41608D02*
X32087Y41682D01*
X32161Y41757D01*
X32236D01*
X32273Y41719D01*
Y41645D01*
X32236Y41608D01*
X32273Y41645D01*
X32347Y41645D01*
X32384Y41608D01*
X32384Y41534D01*
X32310Y41460D01*
X32236D01*
X32495Y41645D02*
X32569Y41719D01*
X32532Y41682D01*
X32310Y41905D01*
X32310Y41831D01*
X45463Y37034D02*
X45389D01*
X45314Y36960D01*
X45314Y36886D01*
X45463Y36737D01*
X45537D01*
X45611Y36811D01*
X45611Y36886D01*
X45537Y37108D02*
X45537Y37182D01*
X45611Y37257D01*
X45686D01*
X45723Y37219D01*
Y37145D01*
X45686Y37108D01*
X45723Y37145D01*
X45797Y37145D01*
X45834Y37108D01*
X45834Y37034D01*
X45760Y36960D01*
X45686D01*
X46094Y37294D02*
X45945Y37145D01*
Y37442D01*
X45908Y37479D01*
X45834D01*
X45760Y37405D01*
X45760Y37331D01*
X39800Y32150D02*
Y32465D01*
X39957D01*
X40010Y32412D01*
Y32307D01*
X39957Y32255D01*
X39800D01*
X39905D02*
X40010Y32150D01*
X40115D02*
X40220D01*
X40167D01*
Y32465D01*
X40115Y32412D01*
X40377D02*
X40430Y32465D01*
X40535D01*
X40587Y32412D01*
Y32360D01*
X40535Y32307D01*
X40482D01*
X40535D01*
X40587Y32255D01*
Y32202D01*
X40535Y32150D01*
X40430D01*
X40377Y32202D01*
X31250Y42100D02*
X31027Y42323D01*
X31139Y42434D01*
X31213D01*
X31287Y42360D01*
X31287Y42286D01*
X31176Y42174D01*
X31250Y42248D02*
X31398D01*
X31621Y42471D02*
X31473Y42323D01*
Y42619D01*
X31436Y42657D01*
X31361D01*
X31287Y42582D01*
X31287Y42508D01*
X31695Y42545D02*
X31769Y42619D01*
X31732Y42582D01*
X31510Y42805D01*
X31510Y42731D01*
X31650Y41650D02*
X31427Y41873D01*
X31539Y41984D01*
X31613D01*
X31687Y41910D01*
X31687Y41836D01*
X31576Y41724D01*
X31650Y41798D02*
X31798D01*
X32021Y42021D02*
X31873Y41873D01*
Y42169D01*
X31836Y42207D01*
X31761D01*
X31687Y42132D01*
X31687Y42058D01*
X32244Y42244D02*
X32095Y42095D01*
Y42392D01*
X32058Y42429D01*
X31984D01*
X31910Y42355D01*
X31910Y42281D01*
X46900Y35650D02*
X46677Y35873D01*
X46789Y35984D01*
X46863D01*
X46937Y35910D01*
X46937Y35836D01*
X46826Y35724D01*
X46900Y35798D02*
X47048D01*
X47271Y36021D02*
X47123Y35873D01*
Y36169D01*
X47086Y36207D01*
X47011D01*
X46937Y36132D01*
X46937Y36058D01*
X47271Y36466D02*
X47234Y36355D01*
Y36207D01*
X47308Y36132D01*
X47382D01*
X47457Y36207D01*
X47457Y36281D01*
X47419Y36318D01*
X47345Y36318D01*
X47234Y36207D01*
X46450Y35950D02*
X46227Y36173D01*
X46339Y36284D01*
X46413D01*
X46487Y36210D01*
X46487Y36136D01*
X46376Y36024D01*
X46450Y36098D02*
X46598D01*
X46821Y36321D02*
X46673Y36173D01*
Y36469D01*
X46636Y36507D01*
X46561D01*
X46487Y36432D01*
X46487Y36358D01*
X46710Y36581D02*
X46710Y36655D01*
X46784Y36729D01*
X46858D01*
X46895Y36692D01*
Y36618D01*
X46969Y36618D01*
X47007Y36581D01*
X47007Y36507D01*
X46932Y36432D01*
X46858D01*
X46821Y36469D01*
Y36544D01*
X46747Y36544D01*
X46710Y36581D01*
X46821Y36544D02*
X46895Y36618D01*
X48050Y43550D02*
Y43865D01*
X48207D01*
X48260Y43812D01*
Y43707D01*
X48207Y43655D01*
X48050D01*
X48155D02*
X48260Y43550D01*
X48575D02*
X48365D01*
X48575Y43760D01*
Y43812D01*
X48522Y43865D01*
X48417D01*
X48365Y43812D01*
X48680Y43602D02*
X48732Y43550D01*
X48837D01*
X48890Y43602D01*
Y43812D01*
X48837Y43865D01*
X48732D01*
X48680Y43812D01*
Y43760D01*
X48732Y43707D01*
X48890D01*
X39550Y44650D02*
Y44965D01*
X39707D01*
X39760Y44912D01*
Y44807D01*
X39707Y44755D01*
X39550D01*
X39655D02*
X39760Y44650D01*
X39865Y44912D02*
X39917Y44965D01*
X40022D01*
X40075Y44912D01*
Y44860D01*
X40022Y44807D01*
X39970D01*
X40022D01*
X40075Y44755D01*
Y44702D01*
X40022Y44650D01*
X39917D01*
X39865Y44702D01*
X40180Y44912D02*
X40232Y44965D01*
X40337D01*
X40390Y44912D01*
Y44860D01*
X40337Y44807D01*
X40285D01*
X40337D01*
X40390Y44755D01*
Y44702D01*
X40337Y44650D01*
X40232D01*
X40180Y44702D01*
X38300Y45350D02*
Y45665D01*
X38457D01*
X38510Y45612D01*
Y45507D01*
X38457Y45455D01*
X38300D01*
X38405D02*
X38510Y45350D01*
X38615Y45612D02*
X38667Y45665D01*
X38772D01*
X38825Y45612D01*
Y45560D01*
X38772Y45507D01*
X38720D01*
X38772D01*
X38825Y45455D01*
Y45402D01*
X38772Y45350D01*
X38667D01*
X38615Y45402D01*
X39087Y45350D02*
Y45665D01*
X38930Y45507D01*
X39140D01*
X40800Y45350D02*
Y45665D01*
X40957D01*
X41010Y45612D01*
Y45507D01*
X40957Y45455D01*
X40800D01*
X40905D02*
X41010Y45350D01*
X41115Y45612D02*
X41167Y45665D01*
X41272D01*
X41325Y45612D01*
Y45560D01*
X41272Y45507D01*
X41220D01*
X41272D01*
X41325Y45455D01*
Y45402D01*
X41272Y45350D01*
X41167D01*
X41115Y45402D01*
X41640Y45665D02*
X41430D01*
Y45507D01*
X41535Y45560D01*
X41587D01*
X41640Y45507D01*
Y45402D01*
X41587Y45350D01*
X41482D01*
X41430Y45402D01*
X47400Y35200D02*
X47177Y35423D01*
X47289Y35534D01*
X47363D01*
X47437Y35460D01*
X47437Y35386D01*
X47326Y35274D01*
X47400Y35348D02*
X47548D01*
X47437Y35608D02*
X47437Y35682D01*
X47511Y35757D01*
X47586D01*
X47623Y35719D01*
Y35645D01*
X47586Y35608D01*
X47623Y35645D01*
X47697Y35645D01*
X47734Y35608D01*
X47734Y35534D01*
X47660Y35460D01*
X47586D01*
X47771Y36016D02*
X47734Y35905D01*
Y35757D01*
X47808Y35682D01*
X47882D01*
X47957Y35757D01*
X47957Y35831D01*
X47919Y35868D01*
X47845Y35868D01*
X47734Y35757D01*
X45050Y34350D02*
Y34665D01*
X45207D01*
X45260Y34612D01*
Y34507D01*
X45207Y34455D01*
X45050D01*
X45155D02*
X45260Y34350D01*
X45575D02*
X45365D01*
X45575Y34560D01*
Y34612D01*
X45522Y34665D01*
X45417D01*
X45365Y34612D01*
X45680Y34350D02*
X45785D01*
X45732D01*
Y34665D01*
X45680Y34612D01*
X45942D02*
X45995Y34665D01*
X46100D01*
X46152Y34612D01*
Y34402D01*
X46100Y34350D01*
X45995D01*
X45942Y34402D01*
Y34612D01*
X30788Y38612D02*
X30965Y38435D01*
X31035D01*
X31106Y38506D01*
X31106Y38577D01*
X30929Y38753D01*
X31035Y38789D02*
Y38859D01*
X31106Y38930D01*
X31177Y38930D01*
X31212Y38895D01*
Y38824D01*
X31177Y38789D01*
X31212Y38824D01*
X31283Y38824D01*
X31318Y38789D01*
X31318Y38718D01*
X31247Y38647D01*
X31177D01*
X31424Y38824D02*
X31495Y38895D01*
X31459Y38859D01*
X31247Y39072D01*
Y39001D01*
X35850Y34600D02*
X35535D01*
Y34757D01*
X35588Y34810D01*
X35693D01*
X35745Y34757D01*
Y34600D01*
Y34705D02*
X35850Y34810D01*
Y34915D02*
Y35020D01*
Y34967D01*
X35535D01*
X35588Y34915D01*
X35850Y35335D02*
X35535D01*
X35693Y35177D01*
Y35387D01*
X33350Y39850D02*
X33127Y40073D01*
X33239Y40184D01*
X33313D01*
X33387Y40110D01*
Y40036D01*
X33276Y39924D01*
X33350Y39998D02*
X33498Y39998D01*
X33573Y40073D02*
X33647Y40147D01*
X33610Y40110D01*
X33387Y40332D01*
Y40258D01*
X33684Y40629D02*
X33536Y40481D01*
X33647Y40369D01*
X33684Y40481D01*
X33721Y40518D01*
X33795D01*
X33869Y40444D01*
Y40369D01*
X33795Y40295D01*
X33721D01*
X38000Y30650D02*
X37685D01*
Y30807D01*
X37738Y30860D01*
X37843D01*
X37895Y30807D01*
Y30650D01*
Y30755D02*
X38000Y30860D01*
Y30965D02*
Y31070D01*
Y31017D01*
X37685D01*
X37738Y30965D01*
X37685Y31437D02*
X37738Y31332D01*
X37843Y31227D01*
X37948D01*
X38000Y31280D01*
Y31385D01*
X37948Y31437D01*
X37895D01*
X37843Y31385D01*
Y31227D01*
X37400Y30650D02*
X37085D01*
Y30807D01*
X37138Y30860D01*
X37243D01*
X37295Y30807D01*
Y30650D01*
Y30755D02*
X37400Y30860D01*
Y30965D02*
Y31070D01*
Y31017D01*
X37085D01*
X37138Y30965D01*
X37085Y31227D02*
Y31437D01*
X37138D01*
X37348Y31227D01*
X37400D01*
X32950Y36400D02*
Y36700D01*
X33100D01*
X33150Y36650D01*
Y36550D01*
X33100Y36500D01*
X32950D01*
X33050D02*
X33150Y36400D01*
X33250D02*
X33350D01*
X33300D01*
Y36700D01*
X33250Y36650D01*
X33700Y36700D02*
X33600Y36650D01*
X33500Y36550D01*
Y36450D01*
X33550Y36400D01*
X33650D01*
X33700Y36450D01*
Y36500D01*
X33650Y36550D01*
X33500D01*
X34330Y47510D02*
X34240D01*
X34285D01*
Y47285D01*
X34240Y47240D01*
X34195D01*
X34150Y47285D01*
X34420Y47420D02*
Y47285D01*
X34465Y47240D01*
X34600D01*
Y47420D01*
X34690Y47240D02*
X34780D01*
X34735D01*
Y47510D01*
X34690D01*
X34915Y47420D02*
Y47285D01*
X34960Y47240D01*
X35095D01*
Y47195D01*
X35050Y47150D01*
X35005D01*
X35095Y47240D02*
Y47420D01*
X35635Y47240D02*
X35455D01*
X35635Y47420D01*
Y47465D01*
X35590Y47510D01*
X35500D01*
X35455Y47465D01*
X35724D02*
X35769Y47510D01*
X35859D01*
X35904Y47465D01*
Y47285D01*
X35859Y47240D01*
X35769D01*
X35724Y47285D01*
Y47465D01*
X35994Y47240D02*
X36084D01*
X36039D01*
Y47510D01*
X35994Y47465D01*
X36219D02*
X36264Y47510D01*
X36354D01*
X36399Y47465D01*
Y47420D01*
X36354Y47375D01*
X36399Y47330D01*
Y47285D01*
X36354Y47240D01*
X36264D01*
X36219Y47285D01*
Y47330D01*
X36264Y47375D01*
X36219Y47420D01*
Y47465D01*
X36264Y47375D02*
X36354D01*
X36759Y47240D02*
Y47510D01*
X36894D01*
X36939Y47465D01*
Y47375D01*
X36894Y47330D01*
X36759D01*
X36849D02*
X36939Y47240D01*
X37209D02*
X37029D01*
X37209Y47420D01*
Y47465D01*
X37164Y47510D01*
X37074D01*
X37029Y47465D01*
X34330Y48470D02*
X34240D01*
X34285D01*
Y48245D01*
X34240Y48200D01*
X34195D01*
X34150Y48245D01*
X34465Y48380D02*
X34555D01*
X34600Y48335D01*
Y48200D01*
X34465D01*
X34420Y48245D01*
X34465Y48290D01*
X34600D01*
X34690Y48380D02*
Y48200D01*
Y48290D01*
X34735Y48335D01*
X34780Y48380D01*
X34825D01*
X34960D02*
Y48200D01*
Y48290D01*
X35005Y48335D01*
X35050Y48380D01*
X35095D01*
X35365Y48200D02*
X35275D01*
X35230Y48245D01*
Y48335D01*
X35275Y48380D01*
X35365D01*
X35410Y48335D01*
Y48290D01*
X35230D01*
X35545Y48425D02*
Y48380D01*
X35500D01*
X35590D01*
X35545D01*
Y48245D01*
X35590Y48200D01*
X35769Y48425D02*
Y48380D01*
X35724D01*
X35814D01*
X35769D01*
Y48245D01*
X35814Y48200D01*
X36219D02*
Y48470D01*
X36354D01*
X36399Y48425D01*
Y48335D01*
X36354Y48290D01*
X36219D01*
X36309D02*
X36399Y48200D01*
X36534Y48380D02*
X36624D01*
X36669Y48335D01*
Y48200D01*
X36534D01*
X36489Y48245D01*
X36534Y48290D01*
X36669D01*
X36759Y48200D02*
X36849D01*
X36804D01*
Y48380D01*
X36759D01*
X36984Y48200D02*
Y48380D01*
X37119D01*
X37164Y48335D01*
Y48200D01*
X37254D02*
X37344D01*
X37299D01*
Y48380D01*
X37254D01*
X37614Y48200D02*
X37524D01*
X37479Y48245D01*
Y48335D01*
X37524Y48380D01*
X37614D01*
X37659Y48335D01*
Y48290D01*
X37479D01*
X37749Y48380D02*
Y48200D01*
Y48290D01*
X37794Y48335D01*
X37839Y48380D01*
X37884D01*
X34330Y47945D02*
X34285Y47990D01*
X34195D01*
X34150Y47945D01*
Y47765D01*
X34195Y47720D01*
X34285D01*
X34330Y47765D01*
Y47855D01*
X34240D01*
X34420Y47720D02*
X34510D01*
X34465D01*
Y47990D01*
X34420D01*
X34690Y47720D02*
X34780D01*
X34825Y47765D01*
Y47855D01*
X34780Y47900D01*
X34690D01*
X34645Y47855D01*
Y47765D01*
X34690Y47720D01*
X34915Y47990D02*
Y47720D01*
X35050D01*
X35095Y47765D01*
Y47810D01*
Y47855D01*
X35050Y47900D01*
X34915D01*
X35230D02*
X35320D01*
X35365Y47855D01*
Y47720D01*
X35230D01*
X35185Y47765D01*
X35230Y47810D01*
X35365D01*
X35455Y47720D02*
X35545D01*
X35500D01*
Y47990D01*
X35455D01*
X35680Y47720D02*
X35769D01*
X35724D01*
Y47990D01*
X35680D01*
X34150Y46760D02*
X34195D01*
X34240Y46805D01*
Y47030D01*
X34420D02*
Y46850D01*
Y46940D01*
X34465Y46985D01*
X34510Y47030D01*
X34555D01*
X34735D02*
X34825D01*
X34870Y46985D01*
Y46850D01*
X34735D01*
X34690Y46895D01*
X34735Y46940D01*
X34870D01*
X34960Y46850D02*
X35050D01*
X35005D01*
Y47030D01*
X34960D01*
X35185Y46850D02*
Y47030D01*
X35320D01*
X35365Y46985D01*
Y46850D01*
X35455D02*
X35545D01*
X35500D01*
Y47030D01*
X35455D01*
X35680Y46850D02*
Y47030D01*
X35724D01*
X35769Y46985D01*
Y46850D01*
Y46985D01*
X35814Y47030D01*
X35859Y46985D01*
Y46850D01*
X35994D02*
X36084D01*
X36129Y46895D01*
Y46985D01*
X36084Y47030D01*
X35994D01*
X35949Y46985D01*
Y46895D01*
X35994Y46850D01*
X36219D02*
Y46895D01*
X36264D01*
Y46850D01*
X36219D01*
X36624Y47030D02*
X36489D01*
X36444Y46985D01*
Y46895D01*
X36489Y46850D01*
X36624D01*
X36759D02*
X36849D01*
X36894Y46895D01*
Y46985D01*
X36849Y47030D01*
X36759D01*
X36714Y46985D01*
Y46895D01*
X36759Y46850D01*
X36984D02*
Y47030D01*
X37029D01*
X37074Y46985D01*
Y46850D01*
Y46985D01*
X37119Y47030D01*
X37164Y46985D01*
Y46850D01*
D99*
X49660Y37963D02*
X49661D01*
Y37964D01*
X49660D01*
Y37963D01*
X29140Y40737D02*
X29139D01*
Y40736D01*
X29140D01*
Y40737D01*
M02*
