%FSLAX24Y24*%
%MOIN*%
G70*
G01*
G75*
G04 Layer_Color=16711935*
%ADD10C,0.0100*%
%ADD11R,0.0197X0.0433*%
%ADD12R,0.0433X0.0197*%
G04:AMPARAMS|DCode=13|XSize=30mil|YSize=22mil|CornerRadius=5.5mil|HoleSize=0mil|Usage=FLASHONLY|Rotation=180.000|XOffset=0mil|YOffset=0mil|HoleType=Round|Shape=RoundedRectangle|*
%AMROUNDEDRECTD13*
21,1,0.0300,0.0110,0,0,180.0*
21,1,0.0190,0.0220,0,0,180.0*
1,1,0.0110,-0.0095,0.0055*
1,1,0.0110,0.0095,0.0055*
1,1,0.0110,0.0095,-0.0055*
1,1,0.0110,-0.0095,-0.0055*
%
%ADD13ROUNDEDRECTD13*%
G04:AMPARAMS|DCode=14|XSize=55.1mil|YSize=39.4mil|CornerRadius=4.9mil|HoleSize=0mil|Usage=FLASHONLY|Rotation=180.000|XOffset=0mil|YOffset=0mil|HoleType=Round|Shape=RoundedRectangle|*
%AMROUNDEDRECTD14*
21,1,0.0551,0.0295,0,0,180.0*
21,1,0.0453,0.0394,0,0,180.0*
1,1,0.0098,-0.0226,0.0148*
1,1,0.0098,0.0226,0.0148*
1,1,0.0098,0.0226,-0.0148*
1,1,0.0098,-0.0226,-0.0148*
%
%ADD14ROUNDEDRECTD14*%
G04:AMPARAMS|DCode=15|XSize=50mil|YSize=24mil|CornerRadius=6mil|HoleSize=0mil|Usage=FLASHONLY|Rotation=180.000|XOffset=0mil|YOffset=0mil|HoleType=Round|Shape=RoundedRectangle|*
%AMROUNDEDRECTD15*
21,1,0.0500,0.0120,0,0,180.0*
21,1,0.0380,0.0240,0,0,180.0*
1,1,0.0120,-0.0190,0.0060*
1,1,0.0120,0.0190,0.0060*
1,1,0.0120,0.0190,-0.0060*
1,1,0.0120,-0.0190,-0.0060*
%
%ADD15ROUNDEDRECTD15*%
G04:AMPARAMS|DCode=16|XSize=30mil|YSize=22mil|CornerRadius=5.5mil|HoleSize=0mil|Usage=FLASHONLY|Rotation=135.000|XOffset=0mil|YOffset=0mil|HoleType=Round|Shape=RoundedRectangle|*
%AMROUNDEDRECTD16*
21,1,0.0300,0.0110,0,0,135.0*
21,1,0.0190,0.0220,0,0,135.0*
1,1,0.0110,-0.0028,0.0106*
1,1,0.0110,0.0106,-0.0028*
1,1,0.0110,0.0028,-0.0106*
1,1,0.0110,-0.0106,0.0028*
%
%ADD16ROUNDEDRECTD16*%
%ADD17R,0.1102X0.1102*%
%ADD18O,0.0098X0.0354*%
%ADD19O,0.0354X0.0098*%
G04:AMPARAMS|DCode=20|XSize=40mil|YSize=40mil|CornerRadius=10mil|HoleSize=0mil|Usage=FLASHONLY|Rotation=135.000|XOffset=0mil|YOffset=0mil|HoleType=Round|Shape=RoundedRectangle|*
%AMROUNDEDRECTD20*
21,1,0.0400,0.0200,0,0,135.0*
21,1,0.0200,0.0400,0,0,135.0*
1,1,0.0200,0.0000,0.0141*
1,1,0.0200,0.0141,0.0000*
1,1,0.0200,0.0000,-0.0141*
1,1,0.0200,-0.0141,0.0000*
%
%ADD20ROUNDEDRECTD20*%
%ADD21P,0.1893X4X180.0*%
G04:AMPARAMS|DCode=22|XSize=9.8mil|YSize=29.5mil|CornerRadius=0mil|HoleSize=0mil|Usage=FLASHONLY|Rotation=135.000|XOffset=0mil|YOffset=0mil|HoleType=Round|Shape=Round|*
%AMOVALD22*
21,1,0.0197,0.0098,0.0000,0.0000,225.0*
1,1,0.0098,0.0070,0.0070*
1,1,0.0098,-0.0070,-0.0070*
%
%ADD22OVALD22*%

G04:AMPARAMS|DCode=23|XSize=9.8mil|YSize=29.5mil|CornerRadius=0mil|HoleSize=0mil|Usage=FLASHONLY|Rotation=225.000|XOffset=0mil|YOffset=0mil|HoleType=Round|Shape=Round|*
%AMOVALD23*
21,1,0.0197,0.0098,0.0000,0.0000,315.0*
1,1,0.0098,-0.0070,0.0070*
1,1,0.0098,0.0070,-0.0070*
%
%ADD23OVALD23*%

G04:AMPARAMS|DCode=24|XSize=35.4mil|YSize=19.7mil|CornerRadius=2.5mil|HoleSize=0mil|Usage=FLASHONLY|Rotation=170.000|XOffset=0mil|YOffset=0mil|HoleType=Round|Shape=RoundedRectangle|*
%AMROUNDEDRECTD24*
21,1,0.0354,0.0148,0,0,170.0*
21,1,0.0305,0.0197,0,0,170.0*
1,1,0.0049,-0.0137,0.0099*
1,1,0.0049,0.0163,0.0046*
1,1,0.0049,0.0137,-0.0099*
1,1,0.0049,-0.0163,-0.0046*
%
%ADD24ROUNDEDRECTD24*%
G04:AMPARAMS|DCode=25|XSize=15.7mil|YSize=19.7mil|CornerRadius=2mil|HoleSize=0mil|Usage=FLASHONLY|Rotation=170.000|XOffset=0mil|YOffset=0mil|HoleType=Round|Shape=RoundedRectangle|*
%AMROUNDEDRECTD25*
21,1,0.0157,0.0157,0,0,170.0*
21,1,0.0118,0.0197,0,0,170.0*
1,1,0.0039,-0.0044,0.0088*
1,1,0.0039,0.0072,0.0067*
1,1,0.0039,0.0044,-0.0088*
1,1,0.0039,-0.0072,-0.0067*
%
%ADD25ROUNDEDRECTD25*%
G04:AMPARAMS|DCode=26|XSize=35.4mil|YSize=19.7mil|CornerRadius=2.5mil|HoleSize=0mil|Usage=FLASHONLY|Rotation=162.000|XOffset=0mil|YOffset=0mil|HoleType=Round|Shape=RoundedRectangle|*
%AMROUNDEDRECTD26*
21,1,0.0354,0.0148,0,0,162.0*
21,1,0.0305,0.0197,0,0,162.0*
1,1,0.0049,-0.0122,0.0117*
1,1,0.0049,0.0168,0.0023*
1,1,0.0049,0.0122,-0.0117*
1,1,0.0049,-0.0168,-0.0023*
%
%ADD26ROUNDEDRECTD26*%
G04:AMPARAMS|DCode=27|XSize=15.7mil|YSize=19.7mil|CornerRadius=2mil|HoleSize=0mil|Usage=FLASHONLY|Rotation=162.000|XOffset=0mil|YOffset=0mil|HoleType=Round|Shape=RoundedRectangle|*
%AMROUNDEDRECTD27*
21,1,0.0157,0.0157,0,0,162.0*
21,1,0.0118,0.0197,0,0,162.0*
1,1,0.0039,-0.0032,0.0093*
1,1,0.0039,0.0081,0.0057*
1,1,0.0039,0.0032,-0.0093*
1,1,0.0039,-0.0081,-0.0057*
%
%ADD27ROUNDEDRECTD27*%
G04:AMPARAMS|DCode=28|XSize=35.4mil|YSize=19.7mil|CornerRadius=2.5mil|HoleSize=0mil|Usage=FLASHONLY|Rotation=154.000|XOffset=0mil|YOffset=0mil|HoleType=Round|Shape=RoundedRectangle|*
%AMROUNDEDRECTD28*
21,1,0.0354,0.0148,0,0,154.0*
21,1,0.0305,0.0197,0,0,154.0*
1,1,0.0049,-0.0105,0.0133*
1,1,0.0049,0.0169,-0.0001*
1,1,0.0049,0.0105,-0.0133*
1,1,0.0049,-0.0169,0.0001*
%
%ADD28ROUNDEDRECTD28*%
G04:AMPARAMS|DCode=29|XSize=15.7mil|YSize=19.7mil|CornerRadius=2mil|HoleSize=0mil|Usage=FLASHONLY|Rotation=154.000|XOffset=0mil|YOffset=0mil|HoleType=Round|Shape=RoundedRectangle|*
%AMROUNDEDRECTD29*
21,1,0.0157,0.0157,0,0,154.0*
21,1,0.0118,0.0197,0,0,154.0*
1,1,0.0039,-0.0019,0.0097*
1,1,0.0039,0.0088,0.0045*
1,1,0.0039,0.0019,-0.0097*
1,1,0.0039,-0.0088,-0.0045*
%
%ADD29ROUNDEDRECTD29*%
G04:AMPARAMS|DCode=30|XSize=35.4mil|YSize=19.7mil|CornerRadius=2.5mil|HoleSize=0mil|Usage=FLASHONLY|Rotation=146.000|XOffset=0mil|YOffset=0mil|HoleType=Round|Shape=RoundedRectangle|*
%AMROUNDEDRECTD30*
21,1,0.0354,0.0148,0,0,146.0*
21,1,0.0305,0.0197,0,0,146.0*
1,1,0.0049,-0.0085,0.0147*
1,1,0.0049,0.0168,-0.0024*
1,1,0.0049,0.0085,-0.0147*
1,1,0.0049,-0.0168,0.0024*
%
%ADD30ROUNDEDRECTD30*%
G04:AMPARAMS|DCode=31|XSize=15.7mil|YSize=19.7mil|CornerRadius=2mil|HoleSize=0mil|Usage=FLASHONLY|Rotation=146.000|XOffset=0mil|YOffset=0mil|HoleType=Round|Shape=RoundedRectangle|*
%AMROUNDEDRECTD31*
21,1,0.0157,0.0157,0,0,146.0*
21,1,0.0118,0.0197,0,0,146.0*
1,1,0.0039,-0.0005,0.0098*
1,1,0.0039,0.0093,0.0032*
1,1,0.0039,0.0005,-0.0098*
1,1,0.0039,-0.0093,-0.0032*
%
%ADD31ROUNDEDRECTD31*%
G04:AMPARAMS|DCode=32|XSize=35.4mil|YSize=19.7mil|CornerRadius=2.5mil|HoleSize=0mil|Usage=FLASHONLY|Rotation=138.000|XOffset=0mil|YOffset=0mil|HoleType=Round|Shape=RoundedRectangle|*
%AMROUNDEDRECTD32*
21,1,0.0354,0.0148,0,0,138.0*
21,1,0.0305,0.0197,0,0,138.0*
1,1,0.0049,-0.0064,0.0157*
1,1,0.0049,0.0163,-0.0047*
1,1,0.0049,0.0064,-0.0157*
1,1,0.0049,-0.0163,0.0047*
%
%ADD32ROUNDEDRECTD32*%
G04:AMPARAMS|DCode=33|XSize=15.7mil|YSize=19.7mil|CornerRadius=2mil|HoleSize=0mil|Usage=FLASHONLY|Rotation=138.000|XOffset=0mil|YOffset=0mil|HoleType=Round|Shape=RoundedRectangle|*
%AMROUNDEDRECTD33*
21,1,0.0157,0.0157,0,0,138.0*
21,1,0.0118,0.0197,0,0,138.0*
1,1,0.0039,0.0009,0.0098*
1,1,0.0039,0.0097,0.0019*
1,1,0.0039,-0.0009,-0.0098*
1,1,0.0039,-0.0097,-0.0019*
%
%ADD33ROUNDEDRECTD33*%
G04:AMPARAMS|DCode=34|XSize=35.4mil|YSize=19.7mil|CornerRadius=2.5mil|HoleSize=0mil|Usage=FLASHONLY|Rotation=130.000|XOffset=0mil|YOffset=0mil|HoleType=Round|Shape=RoundedRectangle|*
%AMROUNDEDRECTD34*
21,1,0.0354,0.0148,0,0,130.0*
21,1,0.0305,0.0197,0,0,130.0*
1,1,0.0049,-0.0042,0.0164*
1,1,0.0049,0.0155,-0.0069*
1,1,0.0049,0.0042,-0.0164*
1,1,0.0049,-0.0155,0.0069*
%
%ADD34ROUNDEDRECTD34*%
G04:AMPARAMS|DCode=35|XSize=15.7mil|YSize=19.7mil|CornerRadius=2mil|HoleSize=0mil|Usage=FLASHONLY|Rotation=130.000|XOffset=0mil|YOffset=0mil|HoleType=Round|Shape=RoundedRectangle|*
%AMROUNDEDRECTD35*
21,1,0.0157,0.0157,0,0,130.0*
21,1,0.0118,0.0197,0,0,130.0*
1,1,0.0039,0.0022,0.0096*
1,1,0.0039,0.0098,0.0005*
1,1,0.0039,-0.0022,-0.0096*
1,1,0.0039,-0.0098,-0.0005*
%
%ADD35ROUNDEDRECTD35*%
G04:AMPARAMS|DCode=36|XSize=35.4mil|YSize=19.7mil|CornerRadius=2.5mil|HoleSize=0mil|Usage=FLASHONLY|Rotation=122.000|XOffset=0mil|YOffset=0mil|HoleType=Round|Shape=RoundedRectangle|*
%AMROUNDEDRECTD36*
21,1,0.0354,0.0148,0,0,122.0*
21,1,0.0305,0.0197,0,0,122.0*
1,1,0.0049,-0.0018,0.0169*
1,1,0.0049,0.0143,-0.0090*
1,1,0.0049,0.0018,-0.0169*
1,1,0.0049,-0.0143,0.0090*
%
%ADD36ROUNDEDRECTD36*%
G04:AMPARAMS|DCode=37|XSize=15.7mil|YSize=19.7mil|CornerRadius=2mil|HoleSize=0mil|Usage=FLASHONLY|Rotation=122.000|XOffset=0mil|YOffset=0mil|HoleType=Round|Shape=RoundedRectangle|*
%AMROUNDEDRECTD37*
21,1,0.0157,0.0157,0,0,122.0*
21,1,0.0118,0.0197,0,0,122.0*
1,1,0.0039,0.0035,0.0092*
1,1,0.0039,0.0098,-0.0008*
1,1,0.0039,-0.0035,-0.0092*
1,1,0.0039,-0.0098,0.0008*
%
%ADD37ROUNDEDRECTD37*%
G04:AMPARAMS|DCode=38|XSize=35.4mil|YSize=19.7mil|CornerRadius=2.5mil|HoleSize=0mil|Usage=FLASHONLY|Rotation=114.000|XOffset=0mil|YOffset=0mil|HoleType=Round|Shape=RoundedRectangle|*
%AMROUNDEDRECTD38*
21,1,0.0354,0.0148,0,0,114.0*
21,1,0.0305,0.0197,0,0,114.0*
1,1,0.0049,0.0005,0.0169*
1,1,0.0049,0.0129,-0.0109*
1,1,0.0049,-0.0005,-0.0169*
1,1,0.0049,-0.0129,0.0109*
%
%ADD38ROUNDEDRECTD38*%
G04:AMPARAMS|DCode=39|XSize=15.7mil|YSize=19.7mil|CornerRadius=2mil|HoleSize=0mil|Usage=FLASHONLY|Rotation=114.000|XOffset=0mil|YOffset=0mil|HoleType=Round|Shape=RoundedRectangle|*
%AMROUNDEDRECTD39*
21,1,0.0157,0.0157,0,0,114.0*
21,1,0.0118,0.0197,0,0,114.0*
1,1,0.0039,0.0048,0.0086*
1,1,0.0039,0.0096,-0.0022*
1,1,0.0039,-0.0048,-0.0086*
1,1,0.0039,-0.0096,0.0022*
%
%ADD39ROUNDEDRECTD39*%
G04:AMPARAMS|DCode=40|XSize=35.4mil|YSize=19.7mil|CornerRadius=2.5mil|HoleSize=0mil|Usage=FLASHONLY|Rotation=106.000|XOffset=0mil|YOffset=0mil|HoleType=Round|Shape=RoundedRectangle|*
%AMROUNDEDRECTD40*
21,1,0.0354,0.0148,0,0,106.0*
21,1,0.0305,0.0197,0,0,106.0*
1,1,0.0049,0.0029,0.0167*
1,1,0.0049,0.0113,-0.0126*
1,1,0.0049,-0.0029,-0.0167*
1,1,0.0049,-0.0113,0.0126*
%
%ADD40ROUNDEDRECTD40*%
G04:AMPARAMS|DCode=41|XSize=15.7mil|YSize=19.7mil|CornerRadius=2mil|HoleSize=0mil|Usage=FLASHONLY|Rotation=106.000|XOffset=0mil|YOffset=0mil|HoleType=Round|Shape=RoundedRectangle|*
%AMROUNDEDRECTD41*
21,1,0.0157,0.0157,0,0,106.0*
21,1,0.0118,0.0197,0,0,106.0*
1,1,0.0039,0.0059,0.0078*
1,1,0.0039,0.0092,-0.0035*
1,1,0.0039,-0.0059,-0.0078*
1,1,0.0039,-0.0092,0.0035*
%
%ADD41ROUNDEDRECTD41*%
G04:AMPARAMS|DCode=42|XSize=35.4mil|YSize=19.7mil|CornerRadius=2.5mil|HoleSize=0mil|Usage=FLASHONLY|Rotation=98.000|XOffset=0mil|YOffset=0mil|HoleType=Round|Shape=RoundedRectangle|*
%AMROUNDEDRECTD42*
21,1,0.0354,0.0148,0,0,98.0*
21,1,0.0305,0.0197,0,0,98.0*
1,1,0.0049,0.0052,0.0161*
1,1,0.0049,0.0094,-0.0141*
1,1,0.0049,-0.0052,-0.0161*
1,1,0.0049,-0.0094,0.0141*
%
%ADD42ROUNDEDRECTD42*%
G04:AMPARAMS|DCode=43|XSize=15.7mil|YSize=19.7mil|CornerRadius=2mil|HoleSize=0mil|Usage=FLASHONLY|Rotation=98.000|XOffset=0mil|YOffset=0mil|HoleType=Round|Shape=RoundedRectangle|*
%AMROUNDEDRECTD43*
21,1,0.0157,0.0157,0,0,98.0*
21,1,0.0118,0.0197,0,0,98.0*
1,1,0.0039,0.0070,0.0069*
1,1,0.0039,0.0086,-0.0048*
1,1,0.0039,-0.0070,-0.0069*
1,1,0.0039,-0.0086,0.0048*
%
%ADD43ROUNDEDRECTD43*%
G04:AMPARAMS|DCode=44|XSize=35.4mil|YSize=19.7mil|CornerRadius=2.5mil|HoleSize=0mil|Usage=FLASHONLY|Rotation=10.000|XOffset=0mil|YOffset=0mil|HoleType=Round|Shape=RoundedRectangle|*
%AMROUNDEDRECTD44*
21,1,0.0354,0.0148,0,0,10.0*
21,1,0.0305,0.0197,0,0,10.0*
1,1,0.0049,0.0163,-0.0046*
1,1,0.0049,-0.0137,-0.0099*
1,1,0.0049,-0.0163,0.0046*
1,1,0.0049,0.0137,0.0099*
%
%ADD44ROUNDEDRECTD44*%
G04:AMPARAMS|DCode=45|XSize=15.7mil|YSize=19.7mil|CornerRadius=2mil|HoleSize=0mil|Usage=FLASHONLY|Rotation=10.000|XOffset=0mil|YOffset=0mil|HoleType=Round|Shape=RoundedRectangle|*
%AMROUNDEDRECTD45*
21,1,0.0157,0.0157,0,0,10.0*
21,1,0.0118,0.0197,0,0,10.0*
1,1,0.0039,0.0072,-0.0067*
1,1,0.0039,-0.0044,-0.0088*
1,1,0.0039,-0.0072,0.0067*
1,1,0.0039,0.0044,0.0088*
%
%ADD45ROUNDEDRECTD45*%
G04:AMPARAMS|DCode=46|XSize=35.4mil|YSize=19.7mil|CornerRadius=2.5mil|HoleSize=0mil|Usage=FLASHONLY|Rotation=18.000|XOffset=0mil|YOffset=0mil|HoleType=Round|Shape=RoundedRectangle|*
%AMROUNDEDRECTD46*
21,1,0.0354,0.0148,0,0,18.0*
21,1,0.0305,0.0197,0,0,18.0*
1,1,0.0049,0.0168,-0.0023*
1,1,0.0049,-0.0122,-0.0117*
1,1,0.0049,-0.0168,0.0023*
1,1,0.0049,0.0122,0.0117*
%
%ADD46ROUNDEDRECTD46*%
G04:AMPARAMS|DCode=47|XSize=15.7mil|YSize=19.7mil|CornerRadius=2mil|HoleSize=0mil|Usage=FLASHONLY|Rotation=18.000|XOffset=0mil|YOffset=0mil|HoleType=Round|Shape=RoundedRectangle|*
%AMROUNDEDRECTD47*
21,1,0.0157,0.0157,0,0,18.0*
21,1,0.0118,0.0197,0,0,18.0*
1,1,0.0039,0.0081,-0.0057*
1,1,0.0039,-0.0032,-0.0093*
1,1,0.0039,-0.0081,0.0057*
1,1,0.0039,0.0032,0.0093*
%
%ADD47ROUNDEDRECTD47*%
G04:AMPARAMS|DCode=48|XSize=35.4mil|YSize=19.7mil|CornerRadius=2.5mil|HoleSize=0mil|Usage=FLASHONLY|Rotation=26.000|XOffset=0mil|YOffset=0mil|HoleType=Round|Shape=RoundedRectangle|*
%AMROUNDEDRECTD48*
21,1,0.0354,0.0148,0,0,26.0*
21,1,0.0305,0.0197,0,0,26.0*
1,1,0.0049,0.0169,0.0001*
1,1,0.0049,-0.0105,-0.0133*
1,1,0.0049,-0.0169,-0.0001*
1,1,0.0049,0.0105,0.0133*
%
%ADD48ROUNDEDRECTD48*%
G04:AMPARAMS|DCode=49|XSize=15.7mil|YSize=19.7mil|CornerRadius=2mil|HoleSize=0mil|Usage=FLASHONLY|Rotation=26.000|XOffset=0mil|YOffset=0mil|HoleType=Round|Shape=RoundedRectangle|*
%AMROUNDEDRECTD49*
21,1,0.0157,0.0157,0,0,26.0*
21,1,0.0118,0.0197,0,0,26.0*
1,1,0.0039,0.0088,-0.0045*
1,1,0.0039,-0.0019,-0.0097*
1,1,0.0039,-0.0088,0.0045*
1,1,0.0039,0.0019,0.0097*
%
%ADD49ROUNDEDRECTD49*%
G04:AMPARAMS|DCode=50|XSize=35.4mil|YSize=19.7mil|CornerRadius=2.5mil|HoleSize=0mil|Usage=FLASHONLY|Rotation=34.000|XOffset=0mil|YOffset=0mil|HoleType=Round|Shape=RoundedRectangle|*
%AMROUNDEDRECTD50*
21,1,0.0354,0.0148,0,0,34.0*
21,1,0.0305,0.0197,0,0,34.0*
1,1,0.0049,0.0168,0.0024*
1,1,0.0049,-0.0085,-0.0147*
1,1,0.0049,-0.0168,-0.0024*
1,1,0.0049,0.0085,0.0147*
%
%ADD50ROUNDEDRECTD50*%
G04:AMPARAMS|DCode=51|XSize=15.7mil|YSize=19.7mil|CornerRadius=2mil|HoleSize=0mil|Usage=FLASHONLY|Rotation=34.000|XOffset=0mil|YOffset=0mil|HoleType=Round|Shape=RoundedRectangle|*
%AMROUNDEDRECTD51*
21,1,0.0157,0.0157,0,0,34.0*
21,1,0.0118,0.0197,0,0,34.0*
1,1,0.0039,0.0093,-0.0032*
1,1,0.0039,-0.0005,-0.0098*
1,1,0.0039,-0.0093,0.0032*
1,1,0.0039,0.0005,0.0098*
%
%ADD51ROUNDEDRECTD51*%
G04:AMPARAMS|DCode=52|XSize=35.4mil|YSize=19.7mil|CornerRadius=2.5mil|HoleSize=0mil|Usage=FLASHONLY|Rotation=42.000|XOffset=0mil|YOffset=0mil|HoleType=Round|Shape=RoundedRectangle|*
%AMROUNDEDRECTD52*
21,1,0.0354,0.0148,0,0,42.0*
21,1,0.0305,0.0197,0,0,42.0*
1,1,0.0049,0.0163,0.0047*
1,1,0.0049,-0.0064,-0.0157*
1,1,0.0049,-0.0163,-0.0047*
1,1,0.0049,0.0064,0.0157*
%
%ADD52ROUNDEDRECTD52*%
G04:AMPARAMS|DCode=53|XSize=15.7mil|YSize=19.7mil|CornerRadius=2mil|HoleSize=0mil|Usage=FLASHONLY|Rotation=42.000|XOffset=0mil|YOffset=0mil|HoleType=Round|Shape=RoundedRectangle|*
%AMROUNDEDRECTD53*
21,1,0.0157,0.0157,0,0,42.0*
21,1,0.0118,0.0197,0,0,42.0*
1,1,0.0039,0.0097,-0.0019*
1,1,0.0039,0.0009,-0.0098*
1,1,0.0039,-0.0097,0.0019*
1,1,0.0039,-0.0009,0.0098*
%
%ADD53ROUNDEDRECTD53*%
G04:AMPARAMS|DCode=54|XSize=35.4mil|YSize=19.7mil|CornerRadius=2.5mil|HoleSize=0mil|Usage=FLASHONLY|Rotation=50.000|XOffset=0mil|YOffset=0mil|HoleType=Round|Shape=RoundedRectangle|*
%AMROUNDEDRECTD54*
21,1,0.0354,0.0148,0,0,50.0*
21,1,0.0305,0.0197,0,0,50.0*
1,1,0.0049,0.0155,0.0069*
1,1,0.0049,-0.0042,-0.0164*
1,1,0.0049,-0.0155,-0.0069*
1,1,0.0049,0.0042,0.0164*
%
%ADD54ROUNDEDRECTD54*%
G04:AMPARAMS|DCode=55|XSize=15.7mil|YSize=19.7mil|CornerRadius=2mil|HoleSize=0mil|Usage=FLASHONLY|Rotation=50.000|XOffset=0mil|YOffset=0mil|HoleType=Round|Shape=RoundedRectangle|*
%AMROUNDEDRECTD55*
21,1,0.0157,0.0157,0,0,50.0*
21,1,0.0118,0.0197,0,0,50.0*
1,1,0.0039,0.0098,-0.0005*
1,1,0.0039,0.0022,-0.0096*
1,1,0.0039,-0.0098,0.0005*
1,1,0.0039,-0.0022,0.0096*
%
%ADD55ROUNDEDRECTD55*%
G04:AMPARAMS|DCode=56|XSize=35.4mil|YSize=19.7mil|CornerRadius=2.5mil|HoleSize=0mil|Usage=FLASHONLY|Rotation=58.000|XOffset=0mil|YOffset=0mil|HoleType=Round|Shape=RoundedRectangle|*
%AMROUNDEDRECTD56*
21,1,0.0354,0.0148,0,0,58.0*
21,1,0.0305,0.0197,0,0,58.0*
1,1,0.0049,0.0143,0.0090*
1,1,0.0049,-0.0018,-0.0169*
1,1,0.0049,-0.0143,-0.0090*
1,1,0.0049,0.0018,0.0169*
%
%ADD56ROUNDEDRECTD56*%
G04:AMPARAMS|DCode=57|XSize=15.7mil|YSize=19.7mil|CornerRadius=2mil|HoleSize=0mil|Usage=FLASHONLY|Rotation=58.000|XOffset=0mil|YOffset=0mil|HoleType=Round|Shape=RoundedRectangle|*
%AMROUNDEDRECTD57*
21,1,0.0157,0.0157,0,0,58.0*
21,1,0.0118,0.0197,0,0,58.0*
1,1,0.0039,0.0098,0.0008*
1,1,0.0039,0.0035,-0.0092*
1,1,0.0039,-0.0098,-0.0008*
1,1,0.0039,-0.0035,0.0092*
%
%ADD57ROUNDEDRECTD57*%
G04:AMPARAMS|DCode=58|XSize=35.4mil|YSize=19.7mil|CornerRadius=2.5mil|HoleSize=0mil|Usage=FLASHONLY|Rotation=66.000|XOffset=0mil|YOffset=0mil|HoleType=Round|Shape=RoundedRectangle|*
%AMROUNDEDRECTD58*
21,1,0.0354,0.0148,0,0,66.0*
21,1,0.0305,0.0197,0,0,66.0*
1,1,0.0049,0.0129,0.0109*
1,1,0.0049,0.0005,-0.0169*
1,1,0.0049,-0.0129,-0.0109*
1,1,0.0049,-0.0005,0.0169*
%
%ADD58ROUNDEDRECTD58*%
G04:AMPARAMS|DCode=59|XSize=15.7mil|YSize=19.7mil|CornerRadius=2mil|HoleSize=0mil|Usage=FLASHONLY|Rotation=66.000|XOffset=0mil|YOffset=0mil|HoleType=Round|Shape=RoundedRectangle|*
%AMROUNDEDRECTD59*
21,1,0.0157,0.0157,0,0,66.0*
21,1,0.0118,0.0197,0,0,66.0*
1,1,0.0039,0.0096,0.0022*
1,1,0.0039,0.0048,-0.0086*
1,1,0.0039,-0.0096,-0.0022*
1,1,0.0039,-0.0048,0.0086*
%
%ADD59ROUNDEDRECTD59*%
G04:AMPARAMS|DCode=60|XSize=35.4mil|YSize=19.7mil|CornerRadius=2.5mil|HoleSize=0mil|Usage=FLASHONLY|Rotation=74.000|XOffset=0mil|YOffset=0mil|HoleType=Round|Shape=RoundedRectangle|*
%AMROUNDEDRECTD60*
21,1,0.0354,0.0148,0,0,74.0*
21,1,0.0305,0.0197,0,0,74.0*
1,1,0.0049,0.0113,0.0126*
1,1,0.0049,0.0029,-0.0167*
1,1,0.0049,-0.0113,-0.0126*
1,1,0.0049,-0.0029,0.0167*
%
%ADD60ROUNDEDRECTD60*%
G04:AMPARAMS|DCode=61|XSize=15.7mil|YSize=19.7mil|CornerRadius=2mil|HoleSize=0mil|Usage=FLASHONLY|Rotation=74.000|XOffset=0mil|YOffset=0mil|HoleType=Round|Shape=RoundedRectangle|*
%AMROUNDEDRECTD61*
21,1,0.0157,0.0157,0,0,74.0*
21,1,0.0118,0.0197,0,0,74.0*
1,1,0.0039,0.0092,0.0035*
1,1,0.0039,0.0059,-0.0078*
1,1,0.0039,-0.0092,-0.0035*
1,1,0.0039,-0.0059,0.0078*
%
%ADD61ROUNDEDRECTD61*%
G04:AMPARAMS|DCode=62|XSize=35.4mil|YSize=19.7mil|CornerRadius=2.5mil|HoleSize=0mil|Usage=FLASHONLY|Rotation=82.000|XOffset=0mil|YOffset=0mil|HoleType=Round|Shape=RoundedRectangle|*
%AMROUNDEDRECTD62*
21,1,0.0354,0.0148,0,0,82.0*
21,1,0.0305,0.0197,0,0,82.0*
1,1,0.0049,0.0094,0.0141*
1,1,0.0049,0.0052,-0.0161*
1,1,0.0049,-0.0094,-0.0141*
1,1,0.0049,-0.0052,0.0161*
%
%ADD62ROUNDEDRECTD62*%
G04:AMPARAMS|DCode=63|XSize=15.7mil|YSize=19.7mil|CornerRadius=2mil|HoleSize=0mil|Usage=FLASHONLY|Rotation=82.000|XOffset=0mil|YOffset=0mil|HoleType=Round|Shape=RoundedRectangle|*
%AMROUNDEDRECTD63*
21,1,0.0157,0.0157,0,0,82.0*
21,1,0.0118,0.0197,0,0,82.0*
1,1,0.0039,0.0086,0.0048*
1,1,0.0039,0.0070,-0.0069*
1,1,0.0039,-0.0086,-0.0048*
1,1,0.0039,-0.0070,0.0069*
%
%ADD63ROUNDEDRECTD63*%
G04:AMPARAMS|DCode=64|XSize=35.4mil|YSize=19.7mil|CornerRadius=2.5mil|HoleSize=0mil|Usage=FLASHONLY|Rotation=90.000|XOffset=0mil|YOffset=0mil|HoleType=Round|Shape=RoundedRectangle|*
%AMROUNDEDRECTD64*
21,1,0.0354,0.0148,0,0,90.0*
21,1,0.0305,0.0197,0,0,90.0*
1,1,0.0049,0.0074,0.0153*
1,1,0.0049,0.0074,-0.0153*
1,1,0.0049,-0.0074,-0.0153*
1,1,0.0049,-0.0074,0.0153*
%
%ADD64ROUNDEDRECTD64*%
G04:AMPARAMS|DCode=65|XSize=15.7mil|YSize=19.7mil|CornerRadius=2mil|HoleSize=0mil|Usage=FLASHONLY|Rotation=90.000|XOffset=0mil|YOffset=0mil|HoleType=Round|Shape=RoundedRectangle|*
%AMROUNDEDRECTD65*
21,1,0.0157,0.0157,0,0,90.0*
21,1,0.0118,0.0197,0,0,90.0*
1,1,0.0039,0.0079,0.0059*
1,1,0.0039,0.0079,-0.0059*
1,1,0.0039,-0.0079,-0.0059*
1,1,0.0039,-0.0079,0.0059*
%
%ADD65ROUNDEDRECTD65*%
%ADD66R,0.0886X0.0472*%
%ADD67R,0.0433X0.1063*%
%ADD68R,0.0138X0.0236*%
%ADD69R,0.0453X0.0236*%
G04:AMPARAMS|DCode=70|XSize=30mil|YSize=22mil|CornerRadius=5.5mil|HoleSize=0mil|Usage=FLASHONLY|Rotation=225.000|XOffset=0mil|YOffset=0mil|HoleType=Round|Shape=RoundedRectangle|*
%AMROUNDEDRECTD70*
21,1,0.0300,0.0110,0,0,225.0*
21,1,0.0190,0.0220,0,0,225.0*
1,1,0.0110,-0.0106,-0.0028*
1,1,0.0110,0.0028,0.0106*
1,1,0.0110,0.0106,0.0028*
1,1,0.0110,-0.0028,-0.0106*
%
%ADD70ROUNDEDRECTD70*%
%ADD71R,0.0256X0.0118*%
%ADD72R,0.0689X0.0984*%
%ADD73R,0.0118X0.0256*%
G04:AMPARAMS|DCode=74|XSize=30mil|YSize=22mil|CornerRadius=5.5mil|HoleSize=0mil|Usage=FLASHONLY|Rotation=270.000|XOffset=0mil|YOffset=0mil|HoleType=Round|Shape=RoundedRectangle|*
%AMROUNDEDRECTD74*
21,1,0.0300,0.0110,0,0,270.0*
21,1,0.0190,0.0220,0,0,270.0*
1,1,0.0110,-0.0055,-0.0095*
1,1,0.0110,-0.0055,0.0095*
1,1,0.0110,0.0055,0.0095*
1,1,0.0110,0.0055,-0.0095*
%
%ADD74ROUNDEDRECTD74*%
%ADD75C,0.0200*%
%ADD76C,0.0080*%
%ADD77R,0.4350X0.1000*%
%ADD78R,0.4400X0.1650*%
%ADD79C,0.0276*%
%ADD80R,0.0591X0.0591*%
%ADD81R,0.0591X0.0591*%
%ADD82C,0.0591*%
%ADD83C,0.0250*%
%ADD84C,0.0260*%
%ADD85C,0.0157*%
%ADD86C,0.0300*%
%ADD87C,0.0500*%
%ADD88C,0.0197*%
%ADD89P,0.0341X8X157.5*%
G04:AMPARAMS|DCode=90|XSize=133.9mil|YSize=141.7mil|CornerRadius=0.7mil|HoleSize=0mil|Usage=FLASHONLY|Rotation=135.000|XOffset=0mil|YOffset=0mil|HoleType=Round|Shape=RoundedRectangle|*
%AMROUNDEDRECTD90*
21,1,0.1339,0.1404,0,0,135.0*
21,1,0.1325,0.1417,0,0,135.0*
1,1,0.0013,0.0028,0.0965*
1,1,0.0013,0.0965,0.0028*
1,1,0.0013,-0.0028,-0.0965*
1,1,0.0013,-0.0965,-0.0028*
%
%ADD90ROUNDEDRECTD90*%
G04:AMPARAMS|DCode=91|XSize=133.9mil|YSize=141.7mil|CornerRadius=0.7mil|HoleSize=0mil|Usage=FLASHONLY|Rotation=225.000|XOffset=0mil|YOffset=0mil|HoleType=Round|Shape=RoundedRectangle|*
%AMROUNDEDRECTD91*
21,1,0.1339,0.1404,0,0,225.0*
21,1,0.1325,0.1417,0,0,225.0*
1,1,0.0013,-0.0965,0.0028*
1,1,0.0013,-0.0028,0.0965*
1,1,0.0013,0.0965,-0.0028*
1,1,0.0013,0.0028,-0.0965*
%
%ADD91ROUNDEDRECTD91*%
G04:AMPARAMS|DCode=92|XSize=24mil|YSize=30mil|CornerRadius=6mil|HoleSize=0mil|Usage=FLASHONLY|Rotation=270.000|XOffset=0mil|YOffset=0mil|HoleType=Round|Shape=RoundedRectangle|*
%AMROUNDEDRECTD92*
21,1,0.0240,0.0180,0,0,270.0*
21,1,0.0120,0.0300,0,0,270.0*
1,1,0.0120,-0.0090,-0.0060*
1,1,0.0120,-0.0090,0.0060*
1,1,0.0120,0.0090,0.0060*
1,1,0.0120,0.0090,-0.0060*
%
%ADD92ROUNDEDRECTD92*%
%ADD93R,0.4350X0.0950*%
%ADD94C,0.0098*%
%ADD95C,0.0039*%
%ADD96C,0.0079*%
%ADD97C,0.0010*%
%ADD98C,0.0050*%
%ADD99C,0.0138*%
%ADD100P,0.0000X4X180.0*%
%ADD101C,0.0157*%
G04:AMPARAMS|DCode=102|XSize=23.6mil|YSize=141.7mil|CornerRadius=0mil|HoleSize=0mil|Usage=FLASHONLY|Rotation=135.000|XOffset=0mil|YOffset=0mil|HoleType=Round|Shape=Rectangle|*
%AMROTATEDRECTD102*
4,1,4,0.0585,0.0418,-0.0418,-0.0585,-0.0585,-0.0418,0.0418,0.0585,0.0585,0.0418,0.0*
%
%ADD102ROTATEDRECTD102*%

G04:AMPARAMS|DCode=103|XSize=23.6mil|YSize=141.7mil|CornerRadius=0mil|HoleSize=0mil|Usage=FLASHONLY|Rotation=45.000|XOffset=0mil|YOffset=0mil|HoleType=Round|Shape=Rectangle|*
%AMROTATEDRECTD103*
4,1,4,0.0418,-0.0585,-0.0585,0.0418,-0.0418,0.0585,0.0585,-0.0418,0.0418,-0.0585,0.0*
%
%ADD103ROTATEDRECTD103*%

%ADD104R,0.4400X0.0950*%
%ADD105R,0.4450X0.1400*%
%ADD106R,0.0277X0.0513*%
%ADD107R,0.0513X0.0277*%
G04:AMPARAMS|DCode=108|XSize=38mil|YSize=30mil|CornerRadius=9.5mil|HoleSize=0mil|Usage=FLASHONLY|Rotation=180.000|XOffset=0mil|YOffset=0mil|HoleType=Round|Shape=RoundedRectangle|*
%AMROUNDEDRECTD108*
21,1,0.0380,0.0110,0,0,180.0*
21,1,0.0190,0.0300,0,0,180.0*
1,1,0.0190,-0.0095,0.0055*
1,1,0.0190,0.0095,0.0055*
1,1,0.0190,0.0095,-0.0055*
1,1,0.0190,-0.0095,-0.0055*
%
%ADD108ROUNDEDRECTD108*%
G04:AMPARAMS|DCode=109|XSize=63.1mil|YSize=47.4mil|CornerRadius=8.9mil|HoleSize=0mil|Usage=FLASHONLY|Rotation=180.000|XOffset=0mil|YOffset=0mil|HoleType=Round|Shape=RoundedRectangle|*
%AMROUNDEDRECTD109*
21,1,0.0631,0.0295,0,0,180.0*
21,1,0.0453,0.0474,0,0,180.0*
1,1,0.0178,-0.0226,0.0148*
1,1,0.0178,0.0226,0.0148*
1,1,0.0178,0.0226,-0.0148*
1,1,0.0178,-0.0226,-0.0148*
%
%ADD109ROUNDEDRECTD109*%
G04:AMPARAMS|DCode=110|XSize=58mil|YSize=32mil|CornerRadius=10mil|HoleSize=0mil|Usage=FLASHONLY|Rotation=180.000|XOffset=0mil|YOffset=0mil|HoleType=Round|Shape=RoundedRectangle|*
%AMROUNDEDRECTD110*
21,1,0.0580,0.0120,0,0,180.0*
21,1,0.0380,0.0320,0,0,180.0*
1,1,0.0200,-0.0190,0.0060*
1,1,0.0200,0.0190,0.0060*
1,1,0.0200,0.0190,-0.0060*
1,1,0.0200,-0.0190,-0.0060*
%
%ADD110ROUNDEDRECTD110*%
G04:AMPARAMS|DCode=111|XSize=38mil|YSize=30mil|CornerRadius=9.5mil|HoleSize=0mil|Usage=FLASHONLY|Rotation=135.000|XOffset=0mil|YOffset=0mil|HoleType=Round|Shape=RoundedRectangle|*
%AMROUNDEDRECTD111*
21,1,0.0380,0.0110,0,0,135.0*
21,1,0.0190,0.0300,0,0,135.0*
1,1,0.0190,-0.0028,0.0106*
1,1,0.0190,0.0106,-0.0028*
1,1,0.0190,0.0028,-0.0106*
1,1,0.0190,-0.0106,0.0028*
%
%ADD111ROUNDEDRECTD111*%
%ADD112R,0.1182X0.1182*%
%ADD113O,0.0178X0.0434*%
%ADD114O,0.0434X0.0178*%
G04:AMPARAMS|DCode=115|XSize=48mil|YSize=48mil|CornerRadius=14mil|HoleSize=0mil|Usage=FLASHONLY|Rotation=135.000|XOffset=0mil|YOffset=0mil|HoleType=Round|Shape=RoundedRectangle|*
%AMROUNDEDRECTD115*
21,1,0.0480,0.0200,0,0,135.0*
21,1,0.0200,0.0480,0,0,135.0*
1,1,0.0280,0.0000,0.0141*
1,1,0.0280,0.0141,0.0000*
1,1,0.0280,0.0000,-0.0141*
1,1,0.0280,-0.0141,0.0000*
%
%ADD115ROUNDEDRECTD115*%
G04:AMPARAMS|DCode=116|XSize=15.7mil|YSize=35.4mil|CornerRadius=0mil|HoleSize=0mil|Usage=FLASHONLY|Rotation=135.000|XOffset=0mil|YOffset=0mil|HoleType=Round|Shape=Round|*
%AMOVALD116*
21,1,0.0197,0.0157,0.0000,0.0000,225.0*
1,1,0.0157,0.0070,0.0070*
1,1,0.0157,-0.0070,-0.0070*
%
%ADD116OVALD116*%

G04:AMPARAMS|DCode=117|XSize=15.7mil|YSize=35.4mil|CornerRadius=0mil|HoleSize=0mil|Usage=FLASHONLY|Rotation=225.000|XOffset=0mil|YOffset=0mil|HoleType=Round|Shape=Round|*
%AMOVALD117*
21,1,0.0197,0.0157,0.0000,0.0000,315.0*
1,1,0.0157,-0.0070,0.0070*
1,1,0.0157,0.0070,-0.0070*
%
%ADD117OVALD117*%

G04:AMPARAMS|DCode=118|XSize=43.4mil|YSize=27.7mil|CornerRadius=6.5mil|HoleSize=0mil|Usage=FLASHONLY|Rotation=170.000|XOffset=0mil|YOffset=0mil|HoleType=Round|Shape=RoundedRectangle|*
%AMROUNDEDRECTD118*
21,1,0.0434,0.0148,0,0,170.0*
21,1,0.0305,0.0277,0,0,170.0*
1,1,0.0129,-0.0137,0.0099*
1,1,0.0129,0.0163,0.0046*
1,1,0.0129,0.0137,-0.0099*
1,1,0.0129,-0.0163,-0.0046*
%
%ADD118ROUNDEDRECTD118*%
G04:AMPARAMS|DCode=119|XSize=23.7mil|YSize=27.7mil|CornerRadius=6mil|HoleSize=0mil|Usage=FLASHONLY|Rotation=170.000|XOffset=0mil|YOffset=0mil|HoleType=Round|Shape=RoundedRectangle|*
%AMROUNDEDRECTD119*
21,1,0.0237,0.0157,0,0,170.0*
21,1,0.0118,0.0277,0,0,170.0*
1,1,0.0119,-0.0044,0.0088*
1,1,0.0119,0.0072,0.0067*
1,1,0.0119,0.0044,-0.0088*
1,1,0.0119,-0.0072,-0.0067*
%
%ADD119ROUNDEDRECTD119*%
G04:AMPARAMS|DCode=120|XSize=43.4mil|YSize=27.7mil|CornerRadius=6.5mil|HoleSize=0mil|Usage=FLASHONLY|Rotation=162.000|XOffset=0mil|YOffset=0mil|HoleType=Round|Shape=RoundedRectangle|*
%AMROUNDEDRECTD120*
21,1,0.0434,0.0148,0,0,162.0*
21,1,0.0305,0.0277,0,0,162.0*
1,1,0.0129,-0.0122,0.0117*
1,1,0.0129,0.0168,0.0023*
1,1,0.0129,0.0122,-0.0117*
1,1,0.0129,-0.0168,-0.0023*
%
%ADD120ROUNDEDRECTD120*%
G04:AMPARAMS|DCode=121|XSize=23.7mil|YSize=27.7mil|CornerRadius=6mil|HoleSize=0mil|Usage=FLASHONLY|Rotation=162.000|XOffset=0mil|YOffset=0mil|HoleType=Round|Shape=RoundedRectangle|*
%AMROUNDEDRECTD121*
21,1,0.0237,0.0157,0,0,162.0*
21,1,0.0118,0.0277,0,0,162.0*
1,1,0.0119,-0.0032,0.0093*
1,1,0.0119,0.0081,0.0057*
1,1,0.0119,0.0032,-0.0093*
1,1,0.0119,-0.0081,-0.0057*
%
%ADD121ROUNDEDRECTD121*%
G04:AMPARAMS|DCode=122|XSize=43.4mil|YSize=27.7mil|CornerRadius=6.5mil|HoleSize=0mil|Usage=FLASHONLY|Rotation=154.000|XOffset=0mil|YOffset=0mil|HoleType=Round|Shape=RoundedRectangle|*
%AMROUNDEDRECTD122*
21,1,0.0434,0.0148,0,0,154.0*
21,1,0.0305,0.0277,0,0,154.0*
1,1,0.0129,-0.0105,0.0133*
1,1,0.0129,0.0169,-0.0001*
1,1,0.0129,0.0105,-0.0133*
1,1,0.0129,-0.0169,0.0001*
%
%ADD122ROUNDEDRECTD122*%
G04:AMPARAMS|DCode=123|XSize=23.7mil|YSize=27.7mil|CornerRadius=6mil|HoleSize=0mil|Usage=FLASHONLY|Rotation=154.000|XOffset=0mil|YOffset=0mil|HoleType=Round|Shape=RoundedRectangle|*
%AMROUNDEDRECTD123*
21,1,0.0237,0.0157,0,0,154.0*
21,1,0.0118,0.0277,0,0,154.0*
1,1,0.0119,-0.0019,0.0097*
1,1,0.0119,0.0088,0.0045*
1,1,0.0119,0.0019,-0.0097*
1,1,0.0119,-0.0088,-0.0045*
%
%ADD123ROUNDEDRECTD123*%
G04:AMPARAMS|DCode=124|XSize=43.4mil|YSize=27.7mil|CornerRadius=6.5mil|HoleSize=0mil|Usage=FLASHONLY|Rotation=146.000|XOffset=0mil|YOffset=0mil|HoleType=Round|Shape=RoundedRectangle|*
%AMROUNDEDRECTD124*
21,1,0.0434,0.0148,0,0,146.0*
21,1,0.0305,0.0277,0,0,146.0*
1,1,0.0129,-0.0085,0.0147*
1,1,0.0129,0.0168,-0.0024*
1,1,0.0129,0.0085,-0.0147*
1,1,0.0129,-0.0168,0.0024*
%
%ADD124ROUNDEDRECTD124*%
G04:AMPARAMS|DCode=125|XSize=23.7mil|YSize=27.7mil|CornerRadius=6mil|HoleSize=0mil|Usage=FLASHONLY|Rotation=146.000|XOffset=0mil|YOffset=0mil|HoleType=Round|Shape=RoundedRectangle|*
%AMROUNDEDRECTD125*
21,1,0.0237,0.0157,0,0,146.0*
21,1,0.0118,0.0277,0,0,146.0*
1,1,0.0119,-0.0005,0.0098*
1,1,0.0119,0.0093,0.0032*
1,1,0.0119,0.0005,-0.0098*
1,1,0.0119,-0.0093,-0.0032*
%
%ADD125ROUNDEDRECTD125*%
G04:AMPARAMS|DCode=126|XSize=43.4mil|YSize=27.7mil|CornerRadius=6.5mil|HoleSize=0mil|Usage=FLASHONLY|Rotation=138.000|XOffset=0mil|YOffset=0mil|HoleType=Round|Shape=RoundedRectangle|*
%AMROUNDEDRECTD126*
21,1,0.0434,0.0148,0,0,138.0*
21,1,0.0305,0.0277,0,0,138.0*
1,1,0.0129,-0.0064,0.0157*
1,1,0.0129,0.0163,-0.0047*
1,1,0.0129,0.0064,-0.0157*
1,1,0.0129,-0.0163,0.0047*
%
%ADD126ROUNDEDRECTD126*%
G04:AMPARAMS|DCode=127|XSize=23.7mil|YSize=27.7mil|CornerRadius=6mil|HoleSize=0mil|Usage=FLASHONLY|Rotation=138.000|XOffset=0mil|YOffset=0mil|HoleType=Round|Shape=RoundedRectangle|*
%AMROUNDEDRECTD127*
21,1,0.0237,0.0157,0,0,138.0*
21,1,0.0118,0.0277,0,0,138.0*
1,1,0.0119,0.0009,0.0098*
1,1,0.0119,0.0097,0.0019*
1,1,0.0119,-0.0009,-0.0098*
1,1,0.0119,-0.0097,-0.0019*
%
%ADD127ROUNDEDRECTD127*%
G04:AMPARAMS|DCode=128|XSize=43.4mil|YSize=27.7mil|CornerRadius=6.5mil|HoleSize=0mil|Usage=FLASHONLY|Rotation=130.000|XOffset=0mil|YOffset=0mil|HoleType=Round|Shape=RoundedRectangle|*
%AMROUNDEDRECTD128*
21,1,0.0434,0.0148,0,0,130.0*
21,1,0.0305,0.0277,0,0,130.0*
1,1,0.0129,-0.0042,0.0164*
1,1,0.0129,0.0155,-0.0069*
1,1,0.0129,0.0042,-0.0164*
1,1,0.0129,-0.0155,0.0069*
%
%ADD128ROUNDEDRECTD128*%
G04:AMPARAMS|DCode=129|XSize=23.7mil|YSize=27.7mil|CornerRadius=6mil|HoleSize=0mil|Usage=FLASHONLY|Rotation=130.000|XOffset=0mil|YOffset=0mil|HoleType=Round|Shape=RoundedRectangle|*
%AMROUNDEDRECTD129*
21,1,0.0237,0.0157,0,0,130.0*
21,1,0.0118,0.0277,0,0,130.0*
1,1,0.0119,0.0022,0.0096*
1,1,0.0119,0.0098,0.0005*
1,1,0.0119,-0.0022,-0.0096*
1,1,0.0119,-0.0098,-0.0005*
%
%ADD129ROUNDEDRECTD129*%
G04:AMPARAMS|DCode=130|XSize=43.4mil|YSize=27.7mil|CornerRadius=6.5mil|HoleSize=0mil|Usage=FLASHONLY|Rotation=122.000|XOffset=0mil|YOffset=0mil|HoleType=Round|Shape=RoundedRectangle|*
%AMROUNDEDRECTD130*
21,1,0.0434,0.0148,0,0,122.0*
21,1,0.0305,0.0277,0,0,122.0*
1,1,0.0129,-0.0018,0.0169*
1,1,0.0129,0.0143,-0.0090*
1,1,0.0129,0.0018,-0.0169*
1,1,0.0129,-0.0143,0.0090*
%
%ADD130ROUNDEDRECTD130*%
G04:AMPARAMS|DCode=131|XSize=23.7mil|YSize=27.7mil|CornerRadius=6mil|HoleSize=0mil|Usage=FLASHONLY|Rotation=122.000|XOffset=0mil|YOffset=0mil|HoleType=Round|Shape=RoundedRectangle|*
%AMROUNDEDRECTD131*
21,1,0.0237,0.0157,0,0,122.0*
21,1,0.0118,0.0277,0,0,122.0*
1,1,0.0119,0.0035,0.0092*
1,1,0.0119,0.0098,-0.0008*
1,1,0.0119,-0.0035,-0.0092*
1,1,0.0119,-0.0098,0.0008*
%
%ADD131ROUNDEDRECTD131*%
G04:AMPARAMS|DCode=132|XSize=43.4mil|YSize=27.7mil|CornerRadius=6.5mil|HoleSize=0mil|Usage=FLASHONLY|Rotation=114.000|XOffset=0mil|YOffset=0mil|HoleType=Round|Shape=RoundedRectangle|*
%AMROUNDEDRECTD132*
21,1,0.0434,0.0148,0,0,114.0*
21,1,0.0305,0.0277,0,0,114.0*
1,1,0.0129,0.0005,0.0169*
1,1,0.0129,0.0129,-0.0109*
1,1,0.0129,-0.0005,-0.0169*
1,1,0.0129,-0.0129,0.0109*
%
%ADD132ROUNDEDRECTD132*%
G04:AMPARAMS|DCode=133|XSize=23.7mil|YSize=27.7mil|CornerRadius=6mil|HoleSize=0mil|Usage=FLASHONLY|Rotation=114.000|XOffset=0mil|YOffset=0mil|HoleType=Round|Shape=RoundedRectangle|*
%AMROUNDEDRECTD133*
21,1,0.0237,0.0157,0,0,114.0*
21,1,0.0118,0.0277,0,0,114.0*
1,1,0.0119,0.0048,0.0086*
1,1,0.0119,0.0096,-0.0022*
1,1,0.0119,-0.0048,-0.0086*
1,1,0.0119,-0.0096,0.0022*
%
%ADD133ROUNDEDRECTD133*%
G04:AMPARAMS|DCode=134|XSize=43.4mil|YSize=27.7mil|CornerRadius=6.5mil|HoleSize=0mil|Usage=FLASHONLY|Rotation=106.000|XOffset=0mil|YOffset=0mil|HoleType=Round|Shape=RoundedRectangle|*
%AMROUNDEDRECTD134*
21,1,0.0434,0.0148,0,0,106.0*
21,1,0.0305,0.0277,0,0,106.0*
1,1,0.0129,0.0029,0.0167*
1,1,0.0129,0.0113,-0.0126*
1,1,0.0129,-0.0029,-0.0167*
1,1,0.0129,-0.0113,0.0126*
%
%ADD134ROUNDEDRECTD134*%
G04:AMPARAMS|DCode=135|XSize=23.7mil|YSize=27.7mil|CornerRadius=6mil|HoleSize=0mil|Usage=FLASHONLY|Rotation=106.000|XOffset=0mil|YOffset=0mil|HoleType=Round|Shape=RoundedRectangle|*
%AMROUNDEDRECTD135*
21,1,0.0237,0.0157,0,0,106.0*
21,1,0.0118,0.0277,0,0,106.0*
1,1,0.0119,0.0059,0.0078*
1,1,0.0119,0.0092,-0.0035*
1,1,0.0119,-0.0059,-0.0078*
1,1,0.0119,-0.0092,0.0035*
%
%ADD135ROUNDEDRECTD135*%
G04:AMPARAMS|DCode=136|XSize=43.4mil|YSize=27.7mil|CornerRadius=6.5mil|HoleSize=0mil|Usage=FLASHONLY|Rotation=98.000|XOffset=0mil|YOffset=0mil|HoleType=Round|Shape=RoundedRectangle|*
%AMROUNDEDRECTD136*
21,1,0.0434,0.0148,0,0,98.0*
21,1,0.0305,0.0277,0,0,98.0*
1,1,0.0129,0.0052,0.0161*
1,1,0.0129,0.0094,-0.0141*
1,1,0.0129,-0.0052,-0.0161*
1,1,0.0129,-0.0094,0.0141*
%
%ADD136ROUNDEDRECTD136*%
G04:AMPARAMS|DCode=137|XSize=23.7mil|YSize=27.7mil|CornerRadius=6mil|HoleSize=0mil|Usage=FLASHONLY|Rotation=98.000|XOffset=0mil|YOffset=0mil|HoleType=Round|Shape=RoundedRectangle|*
%AMROUNDEDRECTD137*
21,1,0.0237,0.0157,0,0,98.0*
21,1,0.0118,0.0277,0,0,98.0*
1,1,0.0119,0.0070,0.0069*
1,1,0.0119,0.0086,-0.0048*
1,1,0.0119,-0.0070,-0.0069*
1,1,0.0119,-0.0086,0.0048*
%
%ADD137ROUNDEDRECTD137*%
G04:AMPARAMS|DCode=138|XSize=43.4mil|YSize=27.7mil|CornerRadius=6.5mil|HoleSize=0mil|Usage=FLASHONLY|Rotation=10.000|XOffset=0mil|YOffset=0mil|HoleType=Round|Shape=RoundedRectangle|*
%AMROUNDEDRECTD138*
21,1,0.0434,0.0148,0,0,10.0*
21,1,0.0305,0.0277,0,0,10.0*
1,1,0.0129,0.0163,-0.0046*
1,1,0.0129,-0.0137,-0.0099*
1,1,0.0129,-0.0163,0.0046*
1,1,0.0129,0.0137,0.0099*
%
%ADD138ROUNDEDRECTD138*%
G04:AMPARAMS|DCode=139|XSize=23.7mil|YSize=27.7mil|CornerRadius=6mil|HoleSize=0mil|Usage=FLASHONLY|Rotation=10.000|XOffset=0mil|YOffset=0mil|HoleType=Round|Shape=RoundedRectangle|*
%AMROUNDEDRECTD139*
21,1,0.0237,0.0157,0,0,10.0*
21,1,0.0118,0.0277,0,0,10.0*
1,1,0.0119,0.0072,-0.0067*
1,1,0.0119,-0.0044,-0.0088*
1,1,0.0119,-0.0072,0.0067*
1,1,0.0119,0.0044,0.0088*
%
%ADD139ROUNDEDRECTD139*%
G04:AMPARAMS|DCode=140|XSize=43.4mil|YSize=27.7mil|CornerRadius=6.5mil|HoleSize=0mil|Usage=FLASHONLY|Rotation=18.000|XOffset=0mil|YOffset=0mil|HoleType=Round|Shape=RoundedRectangle|*
%AMROUNDEDRECTD140*
21,1,0.0434,0.0148,0,0,18.0*
21,1,0.0305,0.0277,0,0,18.0*
1,1,0.0129,0.0168,-0.0023*
1,1,0.0129,-0.0122,-0.0117*
1,1,0.0129,-0.0168,0.0023*
1,1,0.0129,0.0122,0.0117*
%
%ADD140ROUNDEDRECTD140*%
G04:AMPARAMS|DCode=141|XSize=23.7mil|YSize=27.7mil|CornerRadius=6mil|HoleSize=0mil|Usage=FLASHONLY|Rotation=18.000|XOffset=0mil|YOffset=0mil|HoleType=Round|Shape=RoundedRectangle|*
%AMROUNDEDRECTD141*
21,1,0.0237,0.0157,0,0,18.0*
21,1,0.0118,0.0277,0,0,18.0*
1,1,0.0119,0.0081,-0.0057*
1,1,0.0119,-0.0032,-0.0093*
1,1,0.0119,-0.0081,0.0057*
1,1,0.0119,0.0032,0.0093*
%
%ADD141ROUNDEDRECTD141*%
G04:AMPARAMS|DCode=142|XSize=43.4mil|YSize=27.7mil|CornerRadius=6.5mil|HoleSize=0mil|Usage=FLASHONLY|Rotation=26.000|XOffset=0mil|YOffset=0mil|HoleType=Round|Shape=RoundedRectangle|*
%AMROUNDEDRECTD142*
21,1,0.0434,0.0148,0,0,26.0*
21,1,0.0305,0.0277,0,0,26.0*
1,1,0.0129,0.0169,0.0001*
1,1,0.0129,-0.0105,-0.0133*
1,1,0.0129,-0.0169,-0.0001*
1,1,0.0129,0.0105,0.0133*
%
%ADD142ROUNDEDRECTD142*%
G04:AMPARAMS|DCode=143|XSize=23.7mil|YSize=27.7mil|CornerRadius=6mil|HoleSize=0mil|Usage=FLASHONLY|Rotation=26.000|XOffset=0mil|YOffset=0mil|HoleType=Round|Shape=RoundedRectangle|*
%AMROUNDEDRECTD143*
21,1,0.0237,0.0157,0,0,26.0*
21,1,0.0118,0.0277,0,0,26.0*
1,1,0.0119,0.0088,-0.0045*
1,1,0.0119,-0.0019,-0.0097*
1,1,0.0119,-0.0088,0.0045*
1,1,0.0119,0.0019,0.0097*
%
%ADD143ROUNDEDRECTD143*%
G04:AMPARAMS|DCode=144|XSize=43.4mil|YSize=27.7mil|CornerRadius=6.5mil|HoleSize=0mil|Usage=FLASHONLY|Rotation=34.000|XOffset=0mil|YOffset=0mil|HoleType=Round|Shape=RoundedRectangle|*
%AMROUNDEDRECTD144*
21,1,0.0434,0.0148,0,0,34.0*
21,1,0.0305,0.0277,0,0,34.0*
1,1,0.0129,0.0168,0.0024*
1,1,0.0129,-0.0085,-0.0147*
1,1,0.0129,-0.0168,-0.0024*
1,1,0.0129,0.0085,0.0147*
%
%ADD144ROUNDEDRECTD144*%
G04:AMPARAMS|DCode=145|XSize=23.7mil|YSize=27.7mil|CornerRadius=6mil|HoleSize=0mil|Usage=FLASHONLY|Rotation=34.000|XOffset=0mil|YOffset=0mil|HoleType=Round|Shape=RoundedRectangle|*
%AMROUNDEDRECTD145*
21,1,0.0237,0.0157,0,0,34.0*
21,1,0.0118,0.0277,0,0,34.0*
1,1,0.0119,0.0093,-0.0032*
1,1,0.0119,-0.0005,-0.0098*
1,1,0.0119,-0.0093,0.0032*
1,1,0.0119,0.0005,0.0098*
%
%ADD145ROUNDEDRECTD145*%
G04:AMPARAMS|DCode=146|XSize=43.4mil|YSize=27.7mil|CornerRadius=6.5mil|HoleSize=0mil|Usage=FLASHONLY|Rotation=42.000|XOffset=0mil|YOffset=0mil|HoleType=Round|Shape=RoundedRectangle|*
%AMROUNDEDRECTD146*
21,1,0.0434,0.0148,0,0,42.0*
21,1,0.0305,0.0277,0,0,42.0*
1,1,0.0129,0.0163,0.0047*
1,1,0.0129,-0.0064,-0.0157*
1,1,0.0129,-0.0163,-0.0047*
1,1,0.0129,0.0064,0.0157*
%
%ADD146ROUNDEDRECTD146*%
G04:AMPARAMS|DCode=147|XSize=23.7mil|YSize=27.7mil|CornerRadius=6mil|HoleSize=0mil|Usage=FLASHONLY|Rotation=42.000|XOffset=0mil|YOffset=0mil|HoleType=Round|Shape=RoundedRectangle|*
%AMROUNDEDRECTD147*
21,1,0.0237,0.0157,0,0,42.0*
21,1,0.0118,0.0277,0,0,42.0*
1,1,0.0119,0.0097,-0.0019*
1,1,0.0119,0.0009,-0.0098*
1,1,0.0119,-0.0097,0.0019*
1,1,0.0119,-0.0009,0.0098*
%
%ADD147ROUNDEDRECTD147*%
G04:AMPARAMS|DCode=148|XSize=43.4mil|YSize=27.7mil|CornerRadius=6.5mil|HoleSize=0mil|Usage=FLASHONLY|Rotation=50.000|XOffset=0mil|YOffset=0mil|HoleType=Round|Shape=RoundedRectangle|*
%AMROUNDEDRECTD148*
21,1,0.0434,0.0148,0,0,50.0*
21,1,0.0305,0.0277,0,0,50.0*
1,1,0.0129,0.0155,0.0069*
1,1,0.0129,-0.0042,-0.0164*
1,1,0.0129,-0.0155,-0.0069*
1,1,0.0129,0.0042,0.0164*
%
%ADD148ROUNDEDRECTD148*%
G04:AMPARAMS|DCode=149|XSize=23.7mil|YSize=27.7mil|CornerRadius=6mil|HoleSize=0mil|Usage=FLASHONLY|Rotation=50.000|XOffset=0mil|YOffset=0mil|HoleType=Round|Shape=RoundedRectangle|*
%AMROUNDEDRECTD149*
21,1,0.0237,0.0157,0,0,50.0*
21,1,0.0118,0.0277,0,0,50.0*
1,1,0.0119,0.0098,-0.0005*
1,1,0.0119,0.0022,-0.0096*
1,1,0.0119,-0.0098,0.0005*
1,1,0.0119,-0.0022,0.0096*
%
%ADD149ROUNDEDRECTD149*%
G04:AMPARAMS|DCode=150|XSize=43.4mil|YSize=27.7mil|CornerRadius=6.5mil|HoleSize=0mil|Usage=FLASHONLY|Rotation=58.000|XOffset=0mil|YOffset=0mil|HoleType=Round|Shape=RoundedRectangle|*
%AMROUNDEDRECTD150*
21,1,0.0434,0.0148,0,0,58.0*
21,1,0.0305,0.0277,0,0,58.0*
1,1,0.0129,0.0143,0.0090*
1,1,0.0129,-0.0018,-0.0169*
1,1,0.0129,-0.0143,-0.0090*
1,1,0.0129,0.0018,0.0169*
%
%ADD150ROUNDEDRECTD150*%
G04:AMPARAMS|DCode=151|XSize=23.7mil|YSize=27.7mil|CornerRadius=6mil|HoleSize=0mil|Usage=FLASHONLY|Rotation=58.000|XOffset=0mil|YOffset=0mil|HoleType=Round|Shape=RoundedRectangle|*
%AMROUNDEDRECTD151*
21,1,0.0237,0.0157,0,0,58.0*
21,1,0.0118,0.0277,0,0,58.0*
1,1,0.0119,0.0098,0.0008*
1,1,0.0119,0.0035,-0.0092*
1,1,0.0119,-0.0098,-0.0008*
1,1,0.0119,-0.0035,0.0092*
%
%ADD151ROUNDEDRECTD151*%
G04:AMPARAMS|DCode=152|XSize=43.4mil|YSize=27.7mil|CornerRadius=6.5mil|HoleSize=0mil|Usage=FLASHONLY|Rotation=66.000|XOffset=0mil|YOffset=0mil|HoleType=Round|Shape=RoundedRectangle|*
%AMROUNDEDRECTD152*
21,1,0.0434,0.0148,0,0,66.0*
21,1,0.0305,0.0277,0,0,66.0*
1,1,0.0129,0.0129,0.0109*
1,1,0.0129,0.0005,-0.0169*
1,1,0.0129,-0.0129,-0.0109*
1,1,0.0129,-0.0005,0.0169*
%
%ADD152ROUNDEDRECTD152*%
G04:AMPARAMS|DCode=153|XSize=23.7mil|YSize=27.7mil|CornerRadius=6mil|HoleSize=0mil|Usage=FLASHONLY|Rotation=66.000|XOffset=0mil|YOffset=0mil|HoleType=Round|Shape=RoundedRectangle|*
%AMROUNDEDRECTD153*
21,1,0.0237,0.0157,0,0,66.0*
21,1,0.0118,0.0277,0,0,66.0*
1,1,0.0119,0.0096,0.0022*
1,1,0.0119,0.0048,-0.0086*
1,1,0.0119,-0.0096,-0.0022*
1,1,0.0119,-0.0048,0.0086*
%
%ADD153ROUNDEDRECTD153*%
G04:AMPARAMS|DCode=154|XSize=43.4mil|YSize=27.7mil|CornerRadius=6.5mil|HoleSize=0mil|Usage=FLASHONLY|Rotation=74.000|XOffset=0mil|YOffset=0mil|HoleType=Round|Shape=RoundedRectangle|*
%AMROUNDEDRECTD154*
21,1,0.0434,0.0148,0,0,74.0*
21,1,0.0305,0.0277,0,0,74.0*
1,1,0.0129,0.0113,0.0126*
1,1,0.0129,0.0029,-0.0167*
1,1,0.0129,-0.0113,-0.0126*
1,1,0.0129,-0.0029,0.0167*
%
%ADD154ROUNDEDRECTD154*%
G04:AMPARAMS|DCode=155|XSize=23.7mil|YSize=27.7mil|CornerRadius=6mil|HoleSize=0mil|Usage=FLASHONLY|Rotation=74.000|XOffset=0mil|YOffset=0mil|HoleType=Round|Shape=RoundedRectangle|*
%AMROUNDEDRECTD155*
21,1,0.0237,0.0157,0,0,74.0*
21,1,0.0118,0.0277,0,0,74.0*
1,1,0.0119,0.0092,0.0035*
1,1,0.0119,0.0059,-0.0078*
1,1,0.0119,-0.0092,-0.0035*
1,1,0.0119,-0.0059,0.0078*
%
%ADD155ROUNDEDRECTD155*%
G04:AMPARAMS|DCode=156|XSize=43.4mil|YSize=27.7mil|CornerRadius=6.5mil|HoleSize=0mil|Usage=FLASHONLY|Rotation=82.000|XOffset=0mil|YOffset=0mil|HoleType=Round|Shape=RoundedRectangle|*
%AMROUNDEDRECTD156*
21,1,0.0434,0.0148,0,0,82.0*
21,1,0.0305,0.0277,0,0,82.0*
1,1,0.0129,0.0094,0.0141*
1,1,0.0129,0.0052,-0.0161*
1,1,0.0129,-0.0094,-0.0141*
1,1,0.0129,-0.0052,0.0161*
%
%ADD156ROUNDEDRECTD156*%
G04:AMPARAMS|DCode=157|XSize=23.7mil|YSize=27.7mil|CornerRadius=6mil|HoleSize=0mil|Usage=FLASHONLY|Rotation=82.000|XOffset=0mil|YOffset=0mil|HoleType=Round|Shape=RoundedRectangle|*
%AMROUNDEDRECTD157*
21,1,0.0237,0.0157,0,0,82.0*
21,1,0.0118,0.0277,0,0,82.0*
1,1,0.0119,0.0086,0.0048*
1,1,0.0119,0.0070,-0.0069*
1,1,0.0119,-0.0086,-0.0048*
1,1,0.0119,-0.0070,0.0069*
%
%ADD157ROUNDEDRECTD157*%
G04:AMPARAMS|DCode=158|XSize=43.4mil|YSize=27.7mil|CornerRadius=6.5mil|HoleSize=0mil|Usage=FLASHONLY|Rotation=90.000|XOffset=0mil|YOffset=0mil|HoleType=Round|Shape=RoundedRectangle|*
%AMROUNDEDRECTD158*
21,1,0.0434,0.0148,0,0,90.0*
21,1,0.0305,0.0277,0,0,90.0*
1,1,0.0129,0.0074,0.0153*
1,1,0.0129,0.0074,-0.0153*
1,1,0.0129,-0.0074,-0.0153*
1,1,0.0129,-0.0074,0.0153*
%
%ADD158ROUNDEDRECTD158*%
G04:AMPARAMS|DCode=159|XSize=23.7mil|YSize=27.7mil|CornerRadius=6mil|HoleSize=0mil|Usage=FLASHONLY|Rotation=90.000|XOffset=0mil|YOffset=0mil|HoleType=Round|Shape=RoundedRectangle|*
%AMROUNDEDRECTD159*
21,1,0.0237,0.0157,0,0,90.0*
21,1,0.0118,0.0277,0,0,90.0*
1,1,0.0119,0.0079,0.0059*
1,1,0.0119,0.0079,-0.0059*
1,1,0.0119,-0.0079,-0.0059*
1,1,0.0119,-0.0079,0.0059*
%
%ADD159ROUNDEDRECTD159*%
%ADD160R,0.0945X0.0532*%
%ADD161R,0.0492X0.1122*%
%ADD162R,0.0197X0.0295*%
%ADD163R,0.0512X0.0295*%
G04:AMPARAMS|DCode=164|XSize=38mil|YSize=30mil|CornerRadius=9.5mil|HoleSize=0mil|Usage=FLASHONLY|Rotation=225.000|XOffset=0mil|YOffset=0mil|HoleType=Round|Shape=RoundedRectangle|*
%AMROUNDEDRECTD164*
21,1,0.0380,0.0110,0,0,225.0*
21,1,0.0190,0.0300,0,0,225.0*
1,1,0.0190,-0.0106,-0.0028*
1,1,0.0190,0.0028,0.0106*
1,1,0.0190,0.0106,0.0028*
1,1,0.0190,-0.0028,-0.0106*
%
%ADD164ROUNDEDRECTD164*%
%ADD165R,0.0336X0.0198*%
%ADD166R,0.0769X0.1064*%
%ADD167R,0.0198X0.0336*%
G04:AMPARAMS|DCode=168|XSize=38mil|YSize=30mil|CornerRadius=9.5mil|HoleSize=0mil|Usage=FLASHONLY|Rotation=270.000|XOffset=0mil|YOffset=0mil|HoleType=Round|Shape=RoundedRectangle|*
%AMROUNDEDRECTD168*
21,1,0.0380,0.0110,0,0,270.0*
21,1,0.0190,0.0300,0,0,270.0*
1,1,0.0190,-0.0055,-0.0095*
1,1,0.0190,-0.0055,0.0095*
1,1,0.0190,0.0055,0.0095*
1,1,0.0190,0.0055,-0.0095*
%
%ADD168ROUNDEDRECTD168*%
%ADD169C,0.0356*%
%ADD170R,0.0671X0.0671*%
%ADD171R,0.0671X0.0671*%
%ADD172C,0.0671*%
%ADD173C,0.0330*%
%ADD174C,0.0380*%
%ADD175C,0.0580*%
G04:AMPARAMS|DCode=176|XSize=32mil|YSize=38mil|CornerRadius=10mil|HoleSize=0mil|Usage=FLASHONLY|Rotation=270.000|XOffset=0mil|YOffset=0mil|HoleType=Round|Shape=RoundedRectangle|*
%AMROUNDEDRECTD176*
21,1,0.0320,0.0180,0,0,270.0*
21,1,0.0120,0.0380,0,0,270.0*
1,1,0.0200,-0.0090,-0.0060*
1,1,0.0200,-0.0090,0.0060*
1,1,0.0200,0.0090,0.0060*
1,1,0.0200,0.0090,-0.0060*
%
%ADD176ROUNDEDRECTD176*%
%ADD177C,0.0340*%
%ADD178C,0.0277*%
G04:AMPARAMS|DCode=179|XSize=0mil|YSize=7.9mil|CornerRadius=0mil|HoleSize=0mil|Usage=FLASHONLY|Rotation=135.000|XOffset=0mil|YOffset=0mil|HoleType=Round|Shape=RoundedRectangle|*
%AMROUNDEDRECTD179*
21,1,0.0000,0.0079,0,0,135.0*
21,1,0.0000,0.0079,0,0,135.0*
1,1,0.0000,0.0028,0.0028*
1,1,0.0000,0.0028,0.0028*
1,1,0.0000,-0.0028,-0.0028*
1,1,0.0000,-0.0028,-0.0028*
%
%ADD179ROUNDEDRECTD179*%
G04:AMPARAMS|DCode=180|XSize=0mil|YSize=7.9mil|CornerRadius=0mil|HoleSize=0mil|Usage=FLASHONLY|Rotation=225.000|XOffset=0mil|YOffset=0mil|HoleType=Round|Shape=RoundedRectangle|*
%AMROUNDEDRECTD180*
21,1,0.0000,0.0079,0,0,225.0*
21,1,0.0000,0.0079,0,0,225.0*
1,1,0.0000,-0.0028,0.0028*
1,1,0.0000,-0.0028,0.0028*
1,1,0.0000,0.0028,-0.0028*
1,1,0.0000,0.0028,-0.0028*
%
%ADD180ROUNDEDRECTD180*%
%ADD181C,0.0060*%
D10*
X53150Y39370D02*
G03*
X53150Y39370I-13780J0D01*
G01*
X37710Y39550D02*
X37620Y39640D01*
X37440D01*
X37350Y39550D01*
Y39190D01*
X37440Y39100D01*
X37620D01*
X37710Y39190D01*
X37890Y39640D02*
Y39190D01*
X37980Y39100D01*
X38160D01*
X38250Y39190D01*
Y39640D01*
X38430D02*
X38790D01*
X38610D01*
Y39100D01*
X39779Y39640D02*
X39599D01*
X39509Y39550D01*
Y39190D01*
X39599Y39100D01*
X39779D01*
X39869Y39190D01*
Y39550D01*
X39779Y39640D01*
X40049D02*
Y39190D01*
X40139Y39100D01*
X40319D01*
X40409Y39190D01*
Y39640D01*
X40589D02*
X40949D01*
X40769D01*
Y39100D01*
D95*
X38386Y47522D02*
G03*
X38664Y47244I139J-139D01*
G01*
X40076D02*
G03*
X40354Y47522I139J139D01*
G01*
Y31218D02*
G03*
X40076Y31496I-139J139D01*
G01*
X38664Y31496D02*
G03*
X38386Y31218I-139J-139D01*
G01*
X42514Y43028D02*
G03*
X42236Y43306I-139J139D01*
G01*
X36509Y43309D02*
G03*
X36230Y43030I-139J-139D01*
G01*
Y35710D02*
G03*
X36509Y35431I139J-139D01*
G01*
X42231D02*
G03*
X42510Y35710I139J139D01*
G01*
X42110Y43307D02*
G03*
X41832Y43029I-139J-139D01*
G01*
X36911Y43030D02*
G03*
X36632Y43309I-139J139D01*
G01*
X36633Y35431D02*
G03*
X36911Y35710I139J139D01*
G01*
X38000D02*
G03*
X38278Y35431I139J-139D01*
G01*
X41829Y35710D02*
G03*
X42107Y35431I139J-139D01*
G01*
X40472D02*
G03*
X40750Y35710I139J139D01*
G01*
X38386Y25394D02*
X40354D01*
X38386Y53346D02*
X40354D01*
Y47523D02*
Y53346D01*
X38665Y47244D02*
X40076D01*
X38386Y47523D02*
Y53346D01*
X40354Y25394D02*
Y31218D01*
X38664Y31496D02*
X40076D01*
X38386Y25394D02*
Y31218D01*
X36909Y42618D02*
X41831D01*
X38000Y35710D02*
Y36122D01*
X40750Y35710D02*
Y36122D01*
X36909D02*
X38000D01*
X40750D02*
X41831D01*
X36909Y35710D02*
Y36122D01*
X41831Y35710D02*
Y36122D01*
X36909Y42618D02*
Y43030D01*
X42510Y35710D02*
Y43032D01*
X42110Y43307D02*
X42234D01*
X41831Y42618D02*
Y43027D01*
X36509Y43309D02*
X36632D01*
X38278Y35433D02*
X40472D01*
X36230Y35710D02*
Y43030D01*
X42107Y35433D02*
X42231D01*
X36509D02*
X36633D01*
M02*
