G04                                                      *
G04 Greetings!                                           *
G04 This Gerber was generated by PCBmodE, an open source *
G04 PCB design software. Get it here:                    *
G04                                                      *
G04   http://pcbmode.com                                 *
G04                                                      *
G04 Also visit                                           *
G04                                                      *
G04   http://boldport.com                                *
G04                                                      *
G04 and follow @boldport / @pcbmode for updates!         *
G04                                                      *

G04 leading zeros omitted (L); absolute data (A); 6 integer digits and 6 fractional digits *
%FSLAX66Y66*%

G04 mode (MO): millimeters (MM) *
%MOMM*%

G04 Aperture definitions *
%ADD10C,0.001X*%
%ADD11C,0.001X*%

%LPD*%
G36*
G01X4735409Y-21424788D02*
G01X4735409Y-21424788D01*
G01X4683734Y-21420450D01*
G01X4632241Y-21414958D01*
G01X4580945Y-21408316D01*
G01X4529864Y-21400524D01*
G01X4479013Y-21391588D01*
G01X4428409Y-21381509D01*
G01X4378067Y-21370291D01*
G01X4328005Y-21357936D01*
G01X4278238Y-21344448D01*
G01X4228783Y-21329828D01*
G01X4179656Y-21314081D01*
G01X4174219Y-21312262D01*
G01X4174219Y-21312262D01*
G01X4126349Y-21295019D01*
G01X4078898Y-21276710D01*
G01X4031881Y-21257343D01*
G01X3985310Y-21236925D01*
G01X3939200Y-21215464D01*
G01X3893564Y-21192968D01*
G01X3848416Y-21169444D01*
G01X3803770Y-21144899D01*
G01X3759640Y-21119341D01*
G01X3716039Y-21092777D01*
G01X3672980Y-21065216D01*
G01X3668230Y-21062092D01*
G01X3668230Y-21062092D01*
G01X3625755Y-21064479D01*
G01X3625755Y-21064479D01*
G01X3625755Y-21064479D01*
G01X3594256Y-21102799D01*
G01X3562429Y-21140996D01*
G01X3530263Y-21179062D01*
G01X3497744Y-21216993D01*
G01X3464860Y-21254783D01*
G01X3431598Y-21292426D01*
G01X3409208Y-21317438D01*
G01X3409208Y-21317438D01*
G01X3345991Y-21274901D01*
G01X3284768Y-21230626D01*
G01X3225529Y-21184661D01*
G01X3168264Y-21137055D01*
G01X3112965Y-21087856D01*
G01X3059622Y-21037113D01*
G01X3008226Y-20984874D01*
G01X2958768Y-20931187D01*
G01X2911239Y-20876101D01*
G01X2865629Y-20819664D01*
G01X2821930Y-20761925D01*
G01X2780132Y-20702932D01*
G01X2740226Y-20642733D01*
G01X2702203Y-20581377D01*
G01X2666054Y-20518913D01*
G01X2631770Y-20455388D01*
G01X2599341Y-20390852D01*
G01X2568758Y-20325352D01*
G01X2540013Y-20258936D01*
G01X2513095Y-20191655D01*
G01X2487996Y-20123555D01*
G01X2464707Y-20054685D01*
G01X2443218Y-19985094D01*
G01X2423520Y-19914830D01*
G01X2405605Y-19843942D01*
G01X2389462Y-19772477D01*
G01X2375083Y-19700485D01*
G01X2362459Y-19628013D01*
G01X2351580Y-19555110D01*
G01X2342438Y-19481825D01*
G01X2335022Y-19408206D01*
G01X2329325Y-19334302D01*
G01X2325336Y-19260160D01*
G01X2323047Y-19185829D01*
G01X2322448Y-19111358D01*
G01X2323530Y-19036795D01*
G01X2326285Y-18962188D01*
G01X2330702Y-18887586D01*
G01X2336774Y-18813038D01*
G01X2344490Y-18738591D01*
G01X2353841Y-18664294D01*
G01X2364818Y-18590196D01*
G01X2377413Y-18516345D01*
G01X2391615Y-18442789D01*
G01X2407417Y-18369577D01*
G01X2424807Y-18296757D01*
G01X2443779Y-18224378D01*
G01X2464321Y-18152488D01*
G01X2486426Y-18081135D01*
G01X2510083Y-18010368D01*
G01X2510083Y-18010368D01*
G01X2510083Y-18010368D01*
G01X2532823Y-17945787D01*
G01X2556614Y-17881968D01*
G01X2581442Y-17818923D01*
G01X2607293Y-17756667D01*
G01X2634153Y-17695210D01*
G01X2662009Y-17634567D01*
G01X2690846Y-17574750D01*
G01X2720650Y-17515773D01*
G01X2751407Y-17457647D01*
G01X2783103Y-17400386D01*
G01X2815725Y-17344002D01*
G01X2849259Y-17288510D01*
G01X2883689Y-17233921D01*
G01X2919003Y-17180248D01*
G01X2955186Y-17127504D01*
G01X2992225Y-17075702D01*
G01X3030106Y-17024856D01*
G01X3068813Y-16974977D01*
G01X3108335Y-16926079D01*
G01X3148655Y-16878174D01*
G01X3189762Y-16831276D01*
G01X3231640Y-16785397D01*
G01X3274275Y-16740551D01*
G01X3317654Y-16696749D01*
G01X3361763Y-16654006D01*
G01X3406587Y-16612333D01*
G01X3452113Y-16571744D01*
G01X3498327Y-16532252D01*
G01X3545215Y-16493869D01*
G01X3592762Y-16456608D01*
G01X3640955Y-16420483D01*
G01X3689780Y-16385506D01*
G01X3739222Y-16351690D01*
G01X3789269Y-16319047D01*
G01X3839905Y-16287592D01*
G01X3891117Y-16257335D01*
G01X3942891Y-16228292D01*
G01X3995213Y-16200474D01*
G01X4048069Y-16173894D01*
G01X4101445Y-16148565D01*
G01X4155327Y-16124500D01*
G01X4209701Y-16101712D01*
G01X4264554Y-16080213D01*
G01X4319870Y-16060018D01*
G01X4375636Y-16041137D01*
G01X4431838Y-16023585D01*
G01X4488463Y-16007375D01*
G01X4545495Y-15992518D01*
G01X4602922Y-15979028D01*
G01X4660729Y-15966919D01*
G01X4660729Y-15966919D01*
G01X4660729Y-15966919D01*
G01X4684279Y-15941361D01*
G01X4684279Y-15941361D01*
G01X4684279Y-15941361D01*
G01X4690766Y-15911687D01*
G01X4699447Y-15882773D01*
G01X4699447Y-15882773D01*
G01X4699447Y-15882773D01*
G01X4716728Y-15840079D01*
G01X4738443Y-15799346D01*
G01X4764472Y-15760661D01*
G01X4794696Y-15724108D01*
G01X4828994Y-15689775D01*
G01X4867247Y-15657748D01*
G01X4909336Y-15628112D01*
G01X4955141Y-15600954D01*
G01X5004543Y-15576360D01*
G01X5057421Y-15554416D01*
G01X5113656Y-15535208D01*
G01X5173129Y-15518822D01*
G01X5204042Y-15511714D01*
G01X5204042Y-15511714D01*
G01X5221852Y-15490643D01*
G01X5221852Y-15490643D01*
G01X5221852Y-15490643D01*
G01X5227147Y-15451327D01*
G01X5237238Y-15413494D01*
G01X5237238Y-15413494D01*
G01X5237238Y-15413494D01*
G01X5254112Y-15373418D01*
G01X5276192Y-15336143D01*
G01X5303213Y-15301723D01*
G01X5334912Y-15270211D01*
G01X5371024Y-15241662D01*
G01X5411287Y-15216127D01*
G01X5455435Y-15193662D01*
G01X5503205Y-15174320D01*
G01X5554334Y-15158153D01*
G01X5608556Y-15145217D01*
G01X5665608Y-15135564D01*
G01X5725226Y-15129248D01*
G01X5787147Y-15126322D01*
G01X5851105Y-15126841D01*
G01X5916838Y-15130857D01*
G01X5984081Y-15138425D01*
G01X6052571Y-15149597D01*
G01X6122043Y-15164428D01*
G01X6192233Y-15182970D01*
G01X6262878Y-15205279D01*
G01X6262878Y-15205279D01*
G01X6262878Y-15205279D01*
G01X6332388Y-15230904D01*
G01X6399233Y-15259229D01*
G01X6463236Y-15290048D01*
G01X6524222Y-15323157D01*
G01X6582015Y-15358353D01*
G01X6636440Y-15395432D01*
G01X6687320Y-15434190D01*
G01X6734479Y-15474422D01*
G01X6777742Y-15515925D01*
G01X6816933Y-15558494D01*
G01X6851876Y-15601927D01*
G01X6882395Y-15646018D01*
G01X6908314Y-15690564D01*
G01X6929458Y-15735360D01*
G01X6945650Y-15780204D01*
G01X6956715Y-15824890D01*
G01X6962477Y-15869215D01*
G01X6962760Y-15912975D01*
G01X6957388Y-15955965D01*
G01X6946186Y-15997983D01*
G01X6946186Y-15997983D01*
G01X6946186Y-15997983D01*
G01X6930402Y-16035324D01*
G01X6909756Y-16070638D01*
G01X6909756Y-16070638D01*
G01X6909756Y-16070638D01*
G01X6912054Y-16095467D01*
G01X6912054Y-16095467D01*
G01X6912054Y-16095467D01*
G01X6951222Y-16144706D01*
G01X6986116Y-16194265D01*
G01X7016693Y-16244003D01*
G01X7042912Y-16293777D01*
G01X7064730Y-16343447D01*
G01X7082105Y-16392869D01*
G01X7094996Y-16441903D01*
G01X7103361Y-16490407D01*
G01X7107157Y-16538240D01*
G01X7106343Y-16585259D01*
G01X7100878Y-16631323D01*
G01X7090718Y-16676290D01*
G01X7083865Y-16698318D01*
G01X7083865Y-16698318D01*
G01X7072053Y-16727514D01*
G01X7058061Y-16755803D01*
G01X7058061Y-16755803D01*
G01X7058061Y-16755803D01*
G01X7061491Y-16787100D01*
G01X7061491Y-16787100D01*
G01X7061491Y-16787100D01*
G01X7099835Y-16832075D01*
G01X7137032Y-16877910D01*
G01X7173079Y-16924586D01*
G01X7207973Y-16972084D01*
G01X7241709Y-17020385D01*
G01X7274286Y-17069470D01*
G01X7305701Y-17119322D01*
G01X7335949Y-17169920D01*
G01X7365027Y-17221246D01*
G01X7392934Y-17273282D01*
G01X7419665Y-17326009D01*
G01X7445217Y-17379407D01*
G01X7469587Y-17433459D01*
G01X7492773Y-17488145D01*
G01X7514770Y-17543446D01*
G01X7535576Y-17599345D01*
G01X7555187Y-17655821D01*
G01X7573600Y-17712857D01*
G01X7590813Y-17770433D01*
G01X7606822Y-17828531D01*
G01X7621624Y-17887132D01*
G01X7635215Y-17946217D01*
G01X7647593Y-18005768D01*
G01X7658754Y-18065765D01*
G01X7668696Y-18126190D01*
G01X7677414Y-18187025D01*
G01X7684907Y-18248249D01*
G01X7691170Y-18309846D01*
G01X7696201Y-18371795D01*
G01X7699996Y-18434079D01*
G01X7702553Y-18496677D01*
G01X7703867Y-18559572D01*
G01X7703937Y-18622745D01*
G01X7702758Y-18686177D01*
G01X7700328Y-18749850D01*
G01X7696644Y-18813743D01*
G01X7691702Y-18877840D01*
G01X7685499Y-18942120D01*
G01X7678032Y-19006566D01*
G01X7669297Y-19071158D01*
G01X7659293Y-19135878D01*
G01X7648015Y-19200706D01*
G01X7635460Y-19265625D01*
G01X7621626Y-19330615D01*
G01X7606508Y-19395657D01*
G01X7590105Y-19460734D01*
G01X7572412Y-19525825D01*
G01X7553427Y-19590913D01*
G01X7533146Y-19655978D01*
G01X7511566Y-19721002D01*
G01X7511566Y-19721002D01*
G01X7511566Y-19721002D01*
G01X7486933Y-19791435D01*
G01X7460713Y-19861381D01*
G01X7432929Y-19930795D01*
G01X7403604Y-19999633D01*
G01X7372758Y-20067851D01*
G01X7340416Y-20135407D01*
G01X7306600Y-20202254D01*
G01X7271331Y-20268351D01*
G01X7234632Y-20333652D01*
G01X7196526Y-20398114D01*
G01X7157035Y-20461693D01*
G01X7116182Y-20524346D01*
G01X7073989Y-20586028D01*
G01X7030477Y-20646695D01*
G01X6985671Y-20706304D01*
G01X6939591Y-20764810D01*
G01X6892262Y-20822170D01*
G01X6843704Y-20878340D01*
G01X6793940Y-20933277D01*
G01X6742993Y-20986935D01*
G01X6690885Y-21039271D01*
G01X6637639Y-21090242D01*
G01X6583277Y-21139803D01*
G01X6527821Y-21187911D01*
G01X6471294Y-21234521D01*
G01X6413718Y-21279591D01*
G01X6355116Y-21323075D01*
G01X6295509Y-21364930D01*
G01X6234922Y-21405112D01*
G01X6173374Y-21443578D01*
G01X6110891Y-21480283D01*
G01X6047492Y-21515183D01*
G01X5983202Y-21548235D01*
G01X5918043Y-21579395D01*
G01X5852036Y-21608618D01*
G01X5785204Y-21635862D01*
G01X5717570Y-21661081D01*
G01X5649156Y-21684233D01*
G01X5579985Y-21705272D01*
G01X5510078Y-21724157D01*
G01X5439459Y-21740841D01*
G01X5368150Y-21755283D01*
G01X5296173Y-21767437D01*
G01X5223550Y-21777260D01*
G01X5150304Y-21784708D01*
G01X5076457Y-21789737D01*
G01X5002033Y-21792303D01*
G01X4927052Y-21792362D01*
G01X4851538Y-21789871D01*
G01X4775513Y-21784785D01*
G01X4775513Y-21784785D01*
G01X4775513Y-21784785D01*
G01X4771956Y-21733932D01*
G01X4768810Y-21683204D01*
G01X4766060Y-21632596D01*
G01X4763691Y-21582101D01*
G01X4761688Y-21531714D01*
G01X4760037Y-21481428D01*
G01X4759124Y-21447957D01*
G01X4759124Y-21447957D01*
G01X4735017Y-21424902D01*
G01X4735017Y-21424902D01*
G37*
G36*
G01X16771700Y-28423999D02*
G01X16771700Y-28423999D01*
G01X16719464Y-28419877D01*
G01X16667326Y-28415106D01*
G01X16615290Y-28409688D01*
G01X16563363Y-28403623D01*
G01X16511549Y-28396913D01*
G01X16459853Y-28389559D01*
G01X16408281Y-28381560D01*
G01X16356836Y-28372919D01*
G01X16305525Y-28363635D01*
G01X16254353Y-28353711D01*
G01X16203323Y-28343146D01*
G01X16152443Y-28331943D01*
G01X16101716Y-28320100D01*
G01X16051147Y-28307621D01*
G01X16000743Y-28294504D01*
G01X15950507Y-28280752D01*
G01X15900445Y-28266366D01*
G01X15850562Y-28251345D01*
G01X15800863Y-28235691D01*
G01X15751353Y-28219406D01*
G01X15751353Y-28219406D01*
G01X15751353Y-28219406D01*
G01X15702907Y-28202228D01*
G01X15654693Y-28184451D01*
G01X15606715Y-28166077D01*
G01X15558978Y-28147107D01*
G01X15511485Y-28127544D01*
G01X15464241Y-28107390D01*
G01X15417251Y-28086649D01*
G01X15370518Y-28065321D01*
G01X15324047Y-28043411D01*
G01X15277842Y-28020919D01*
G01X15231908Y-27997848D01*
G01X15186248Y-27974201D01*
G01X15140867Y-27949979D01*
G01X15095770Y-27925186D01*
G01X15050960Y-27899824D01*
G01X15006442Y-27873894D01*
G01X14962221Y-27847400D01*
G01X14918299Y-27820343D01*
G01X14874682Y-27792727D01*
G01X14831375Y-27764552D01*
G01X14831375Y-27764552D01*
G01X14831375Y-27764552D01*
G01X14791977Y-27747644D01*
G01X14754147Y-27768891D01*
G01X14754147Y-27768891D01*
G01X14754147Y-27768891D01*
G01X14723675Y-27806078D01*
G01X14693037Y-27843202D01*
G01X14662229Y-27880262D01*
G01X14631247Y-27917255D01*
G01X14600090Y-27954181D01*
G01X14568752Y-27991038D01*
G01X14537230Y-28027824D01*
G01X14505522Y-28064538D01*
G01X14473622Y-28101178D01*
G01X14441529Y-28137743D01*
G01X14409238Y-28174231D01*
G01X14376747Y-28210641D01*
G01X14360424Y-28228816D01*
G01X14360424Y-28228816D01*
G01X14302501Y-28190547D01*
G01X14245486Y-28151477D01*
G01X14189377Y-28111616D01*
G01X14134171Y-28070977D01*
G01X14079867Y-28029569D01*
G01X14026463Y-27987404D01*
G01X13973956Y-27944494D01*
G01X13922345Y-27900848D01*
G01X13871628Y-27856478D01*
G01X13821801Y-27811396D01*
G01X13772864Y-27765611D01*
G01X13724814Y-27719135D01*
G01X13677649Y-27671980D01*
G01X13631367Y-27624155D01*
G01X13585965Y-27575672D01*
G01X13541443Y-27526542D01*
G01X13497797Y-27476777D01*
G01X13455026Y-27426386D01*
G01X13413128Y-27375381D01*
G01X13372100Y-27323773D01*
G01X13331940Y-27271574D01*
G01X13292647Y-27218793D01*
G01X13254217Y-27165443D01*
G01X13216650Y-27111533D01*
G01X13179944Y-27057075D01*
G01X13144095Y-27002081D01*
G01X13109101Y-26946560D01*
G01X13074962Y-26890525D01*
G01X13041675Y-26833986D01*
G01X13009237Y-26776953D01*
G01X12977646Y-26719439D01*
G01X12946901Y-26661454D01*
G01X12917000Y-26603009D01*
G01X12887939Y-26544114D01*
G01X12859718Y-26484782D01*
G01X12832334Y-26425023D01*
G01X12805786Y-26364849D01*
G01X12780070Y-26304269D01*
G01X12755185Y-26243295D01*
G01X12731128Y-26181938D01*
G01X12707899Y-26120210D01*
G01X12685494Y-26058120D01*
G01X12663912Y-25995681D01*
G01X12643150Y-25932903D01*
G01X12623206Y-25869797D01*
G01X12604079Y-25806374D01*
G01X12585766Y-25742645D01*
G01X12568265Y-25678621D01*
G01X12551574Y-25614313D01*
G01X12535692Y-25549733D01*
G01X12520615Y-25484890D01*
G01X12506341Y-25419797D01*
G01X12492870Y-25354464D01*
G01X12480198Y-25288902D01*
G01X12468324Y-25223122D01*
G01X12457245Y-25157135D01*
G01X12446959Y-25090952D01*
G01X12437465Y-25024585D01*
G01X12428760Y-24958043D01*
G01X12420842Y-24891339D01*
G01X12413710Y-24824483D01*
G01X12407360Y-24757486D01*
G01X12401791Y-24690360D01*
G01X12397001Y-24623114D01*
G01X12392987Y-24555761D01*
G01X12389748Y-24488311D01*
G01X12387282Y-24420775D01*
G01X12385586Y-24353164D01*
G01X12384659Y-24285490D01*
G01X12384498Y-24217762D01*
G01X12385101Y-24149993D01*
G01X12386466Y-24082193D01*
G01X12388591Y-24014373D01*
G01X12391474Y-23946545D01*
G01X12395113Y-23878718D01*
G01X12399506Y-23810905D01*
G01X12404650Y-23743116D01*
G01X12410545Y-23675362D01*
G01X12417186Y-23607655D01*
G01X12424573Y-23540004D01*
G01X12432704Y-23472422D01*
G01X12441576Y-23404920D01*
G01X12451187Y-23337507D01*
G01X12461535Y-23270196D01*
G01X12472618Y-23202997D01*
G01X12484434Y-23135921D01*
G01X12496981Y-23068979D01*
G01X12510257Y-23002183D01*
G01X12524259Y-22935543D01*
G01X12538986Y-22869070D01*
G01X12554436Y-22802775D01*
G01X12570606Y-22736670D01*
G01X12587494Y-22670765D01*
G01X12605099Y-22605071D01*
G01X12623418Y-22539600D01*
G01X12642449Y-22474362D01*
G01X12662190Y-22409368D01*
G01X12682639Y-22344629D01*
G01X12703794Y-22280157D01*
G01X12725653Y-22215962D01*
G01X12725653Y-22215962D01*
G01X12725653Y-22215962D01*
G01X12746085Y-22157080D01*
G01X12766998Y-22098542D01*
G01X12788388Y-22040350D01*
G01X12810254Y-21982508D01*
G01X12832591Y-21925017D01*
G01X12855396Y-21867881D01*
G01X12878666Y-21811104D01*
G01X12902398Y-21754687D01*
G01X12926588Y-21698634D01*
G01X12951235Y-21642948D01*
G01X12976333Y-21587632D01*
G01X13001881Y-21532688D01*
G01X13027875Y-21478120D01*
G01X13054312Y-21423930D01*
G01X13081188Y-21370122D01*
G01X13108501Y-21316698D01*
G01X13136247Y-21263661D01*
G01X13164423Y-21211015D01*
G01X13193026Y-21158761D01*
G01X13222053Y-21106904D01*
G01X13251501Y-21055445D01*
G01X13281366Y-21004389D01*
G01X13311645Y-20953737D01*
G01X13342335Y-20903493D01*
G01X13373433Y-20853660D01*
G01X13404936Y-20804240D01*
G01X13436841Y-20755236D01*
G01X13469143Y-20706653D01*
G01X13501841Y-20658491D01*
G01X13534931Y-20610755D01*
G01X13568410Y-20563447D01*
G01X13602275Y-20516570D01*
G01X13636522Y-20470127D01*
G01X13671148Y-20424122D01*
G01X13706150Y-20378556D01*
G01X13741526Y-20333433D01*
G01X13777271Y-20288756D01*
G01X13813383Y-20244527D01*
G01X13849858Y-20200750D01*
G01X13886693Y-20157428D01*
G01X13923885Y-20114563D01*
G01X13961432Y-20072159D01*
G01X13999329Y-20030218D01*
G01X14037573Y-19988743D01*
G01X14076162Y-19947737D01*
G01X14115092Y-19907204D01*
G01X14154361Y-19867145D01*
G01X14193964Y-19827565D01*
G01X14233898Y-19788465D01*
G01X14274161Y-19749849D01*
G01X14314750Y-19711720D01*
G01X14355660Y-19674081D01*
G01X14396890Y-19636934D01*
G01X14438435Y-19600283D01*
G01X14480293Y-19564130D01*
G01X14522460Y-19528478D01*
G01X14564933Y-19493331D01*
G01X14607710Y-19458691D01*
G01X14650786Y-19424562D01*
G01X14694159Y-19390945D01*
G01X14737826Y-19357844D01*
G01X14781783Y-19325263D01*
G01X14826027Y-19293203D01*
G01X14870555Y-19261668D01*
G01X14915364Y-19230660D01*
G01X14960451Y-19200184D01*
G01X15005812Y-19170240D01*
G01X15051445Y-19140834D01*
G01X15097345Y-19111966D01*
G01X15143511Y-19083642D01*
G01X15189938Y-19055862D01*
G01X15236624Y-19028631D01*
G01X15283565Y-19001950D01*
G01X15330759Y-18975824D01*
G01X15378201Y-18950255D01*
G01X15425890Y-18925245D01*
G01X15473821Y-18900799D01*
G01X15521991Y-18876918D01*
G01X15570398Y-18853606D01*
G01X15619039Y-18830865D01*
G01X15667909Y-18808700D01*
G01X15717006Y-18787111D01*
G01X15766327Y-18766103D01*
G01X15815868Y-18745678D01*
G01X15865626Y-18725840D01*
G01X15915599Y-18706590D01*
G01X15965782Y-18687933D01*
G01X16016174Y-18669871D01*
G01X16066769Y-18652406D01*
G01X16117567Y-18635543D01*
G01X16168562Y-18619283D01*
G01X16219753Y-18603630D01*
G01X16271135Y-18588587D01*
G01X16322706Y-18574156D01*
G01X16374463Y-18560341D01*
G01X16426402Y-18547144D01*
G01X16478520Y-18534569D01*
G01X16530814Y-18522618D01*
G01X16583281Y-18511294D01*
G01X16635918Y-18500600D01*
G01X16635918Y-18500600D01*
G01X16635918Y-18500600D01*
G01X16668066Y-18481224D01*
G01X16678737Y-18454132D01*
G01X16678737Y-18454132D01*
G01X16678737Y-18454132D01*
G01X16686403Y-18417298D01*
G01X16695664Y-18381090D01*
G01X16706315Y-18347608D01*
G01X16706315Y-18347608D01*
G01X16724996Y-18298683D01*
G01X16746858Y-18251127D01*
G01X16771848Y-18204980D01*
G01X16799912Y-18160279D01*
G01X16830998Y-18117063D01*
G01X16865053Y-18075369D01*
G01X16902022Y-18035236D01*
G01X16941854Y-17996703D01*
G01X16984495Y-17959807D01*
G01X17029892Y-17924587D01*
G01X17077991Y-17891081D01*
G01X17128741Y-17859327D01*
G01X17182087Y-17829363D01*
G01X17237977Y-17801227D01*
G01X17296358Y-17774959D01*
G01X17357176Y-17750595D01*
G01X17420378Y-17728175D01*
G01X17485911Y-17707736D01*
G01X17553723Y-17689316D01*
G01X17623759Y-17672955D01*
G01X17623759Y-17672955D01*
G01X17623759Y-17672955D01*
G01X17650600Y-17649309D01*
G01X17656141Y-17634645D01*
G01X17656141Y-17634645D01*
G01X17656141Y-17634645D01*
G01X17661754Y-17585730D01*
G01X17671351Y-17538099D01*
G01X17684116Y-17494373D01*
G01X17684116Y-17494373D01*
G01X17701362Y-17450048D01*
G01X17722083Y-17407543D01*
G01X17746178Y-17366878D01*
G01X17773541Y-17328074D01*
G01X17804070Y-17291153D01*
G01X17837661Y-17256136D01*
G01X17874210Y-17223044D01*
G01X17913613Y-17191897D01*
G01X17955767Y-17162717D01*
G01X18000569Y-17135525D01*
G01X18047913Y-17110342D01*
G01X18097698Y-17087188D01*
G01X18149818Y-17066086D01*
G01X18204171Y-17047055D01*
G01X18260653Y-17030118D01*
G01X18319160Y-17015294D01*
G01X18379589Y-17002606D01*
G01X18441835Y-16992074D01*
G01X18505796Y-16983719D01*
G01X18571367Y-16977562D01*
G01X18638445Y-16973625D01*
G01X18706926Y-16971928D01*
G01X18776707Y-16972492D01*
G01X18847684Y-16975338D01*
G01X18919752Y-16980488D01*
G01X18992810Y-16987963D01*
G01X19066752Y-16997782D01*
G01X19141475Y-17009969D01*
G01X19216877Y-17024543D01*
G01X19292852Y-17041525D01*
G01X19369297Y-17060938D01*
G01X19446109Y-17082801D01*
G01X19523183Y-17107135D01*
G01X19548915Y-17115800D01*
G01X19548915Y-17115800D01*
G01X19625308Y-17143146D01*
G01X19700003Y-17172311D01*
G01X19772929Y-17203216D01*
G01X19844019Y-17235781D01*
G01X19913203Y-17269925D01*
G01X19980412Y-17305569D01*
G01X20045578Y-17342631D01*
G01X20108630Y-17381033D01*
G01X20169500Y-17420694D01*
G01X20228120Y-17461534D01*
G01X20284419Y-17503472D01*
G01X20338329Y-17546429D01*
G01X20389780Y-17590325D01*
G01X20438705Y-17635079D01*
G01X20485033Y-17680611D01*
G01X20528695Y-17726842D01*
G01X20569623Y-17773690D01*
G01X20607748Y-17821077D01*
G01X20643000Y-17868921D01*
G01X20675310Y-17917144D01*
G01X20704609Y-17965664D01*
G01X20730829Y-18014401D01*
G01X20753900Y-18063276D01*
G01X20773753Y-18112208D01*
G01X20790319Y-18161118D01*
G01X20803529Y-18209925D01*
G01X20813314Y-18258548D01*
G01X20819605Y-18306909D01*
G01X20822333Y-18354926D01*
G01X20821429Y-18402520D01*
G01X20816823Y-18449610D01*
G01X20808447Y-18496117D01*
G01X20796231Y-18541960D01*
G01X20791294Y-18557080D01*
G01X20791294Y-18557080D01*
G01X20772752Y-18603667D01*
G01X20750090Y-18648493D01*
G01X20725058Y-18689181D01*
G01X20725058Y-18689181D01*
G01X20729236Y-18734324D01*
G01X20729236Y-18734324D01*
G01X20729236Y-18734324D01*
G01X20774652Y-18790195D01*
G01X20817044Y-18846332D01*
G01X20856392Y-18902671D01*
G01X20892678Y-18959149D01*
G01X20925883Y-19015704D01*
G01X20955989Y-19072272D01*
G01X20982977Y-19128790D01*
G01X21006828Y-19185196D01*
G01X21027524Y-19241427D01*
G01X21045046Y-19297420D01*
G01X21059376Y-19353112D01*
G01X21070495Y-19408440D01*
G01X21078385Y-19463341D01*
G01X21083026Y-19517752D01*
G01X21084400Y-19571611D01*
G01X21082489Y-19624855D01*
G01X21077274Y-19677420D01*
G01X21068737Y-19729244D01*
G01X21056858Y-19780264D01*
G01X21041620Y-19830417D01*
G01X21041620Y-19830417D01*
G01X21041620Y-19830417D01*
G01X21027436Y-19866708D01*
G01X21011452Y-19902192D01*
G01X20994703Y-19934936D01*
G01X20994703Y-19934936D01*
G01X20989589Y-19966836D01*
G01X21000940Y-19991839D01*
G01X21000940Y-19991839D01*
G01X21000940Y-19991839D01*
G01X21036059Y-20032528D01*
G01X21070657Y-20073612D01*
G01X21104733Y-20115087D01*
G01X21138288Y-20156948D01*
G01X21171319Y-20199192D01*
G01X21203827Y-20241813D01*
G01X21235811Y-20284808D01*
G01X21267270Y-20328173D01*
G01X21298203Y-20371903D01*
G01X21328609Y-20415993D01*
G01X21358489Y-20460440D01*
G01X21387840Y-20505239D01*
G01X21416663Y-20550387D01*
G01X21444957Y-20595878D01*
G01X21472721Y-20641709D01*
G01X21499953Y-20687875D01*
G01X21526655Y-20734372D01*
G01X21552824Y-20781196D01*
G01X21578460Y-20828342D01*
G01X21603563Y-20875806D01*
G01X21628131Y-20923585D01*
G01X21652165Y-20971673D01*
G01X21675662Y-21020066D01*
G01X21698623Y-21068761D01*
G01X21721047Y-21117752D01*
G01X21742933Y-21167037D01*
G01X21764280Y-21216609D01*
G01X21785088Y-21266465D01*
G01X21805356Y-21316602D01*
G01X21825083Y-21367014D01*
G01X21844268Y-21417697D01*
G01X21862912Y-21468647D01*
G01X21881012Y-21519860D01*
G01X21898568Y-21571331D01*
G01X21915581Y-21623057D01*
G01X21932048Y-21675033D01*
G01X21947969Y-21727254D01*
G01X21963344Y-21779717D01*
G01X21978171Y-21832417D01*
G01X21992451Y-21885349D01*
G01X22006181Y-21938511D01*
G01X22019363Y-21991897D01*
G01X22031994Y-22045503D01*
G01X22044074Y-22099324D01*
G01X22055603Y-22153358D01*
G01X22066580Y-22207598D01*
G01X22077003Y-22262042D01*
G01X22086873Y-22316684D01*
G01X22096188Y-22371521D01*
G01X22104948Y-22426548D01*
G01X22113153Y-22481762D01*
G01X22120800Y-22537156D01*
G01X22127891Y-22592729D01*
G01X22134423Y-22648474D01*
G01X22140397Y-22704389D01*
G01X22145811Y-22760468D01*
G01X22150665Y-22816707D01*
G01X22154958Y-22873103D01*
G01X22158689Y-22929650D01*
G01X22161858Y-22986345D01*
G01X22164464Y-23043184D01*
G01X22166507Y-23100161D01*
G01X22167984Y-23157273D01*
G01X22168897Y-23214516D01*
G01X22169243Y-23271885D01*
G01X22169023Y-23329376D01*
G01X22168236Y-23386985D01*
G01X22166881Y-23444707D01*
G01X22164956Y-23502538D01*
G01X22162462Y-23560475D01*
G01X22159398Y-23618512D01*
G01X22155763Y-23676645D01*
G01X22151557Y-23734871D01*
G01X22146777Y-23793184D01*
G01X22141425Y-23851581D01*
G01X22135499Y-23910058D01*
G01X22128999Y-23968609D01*
G01X22121923Y-24027231D01*
G01X22114271Y-24085920D01*
G01X22106042Y-24144671D01*
G01X22097236Y-24203481D01*
G01X22087852Y-24262344D01*
G01X22077889Y-24321256D01*
G01X22067347Y-24380214D01*
G01X22056224Y-24439212D01*
G01X22044520Y-24498247D01*
G01X22032235Y-24557315D01*
G01X22019367Y-24616411D01*
G01X22005915Y-24675531D01*
G01X21991880Y-24734670D01*
G01X21977261Y-24793825D01*
G01X21962056Y-24852991D01*
G01X21946265Y-24912164D01*
G01X21929887Y-24971339D01*
G01X21912922Y-25030513D01*
G01X21895368Y-25089680D01*
G01X21877226Y-25148838D01*
G01X21858494Y-25207981D01*
G01X21839172Y-25267105D01*
G01X21819258Y-25326206D01*
G01X21819258Y-25326206D01*
G01X21819258Y-25326206D01*
G01X21797228Y-25390342D01*
G01X21774471Y-25454267D01*
G01X21750993Y-25517970D01*
G01X21726799Y-25581441D01*
G01X21701893Y-25644670D01*
G01X21676282Y-25707648D01*
G01X21649970Y-25770364D01*
G01X21622963Y-25832808D01*
G01X21595264Y-25894970D01*
G01X21566881Y-25956841D01*
G01X21537816Y-26018411D01*
G01X21508077Y-26079669D01*
G01X21477667Y-26140605D01*
G01X21446592Y-26201210D01*
G01X21414857Y-26261473D01*
G01X21382467Y-26321385D01*
G01X21349427Y-26380936D01*
G01X21315742Y-26440115D01*
G01X21281417Y-26498912D01*
G01X21246458Y-26557319D01*
G01X21210870Y-26615324D01*
G01X21174657Y-26672918D01*
G01X21137824Y-26730090D01*
G01X21100378Y-26786831D01*
G01X21062322Y-26843131D01*
G01X21023662Y-26898980D01*
G01X20984404Y-26954368D01*
G01X20944551Y-27009284D01*
G01X20904110Y-27063719D01*
G01X20863085Y-27117664D01*
G01X20821481Y-27171107D01*
G01X20779304Y-27224039D01*
G01X20736559Y-27276450D01*
G01X20693250Y-27328330D01*
G01X20649383Y-27379670D01*
G01X20604962Y-27430458D01*
G01X20559994Y-27480685D01*
G01X20514483Y-27530342D01*
G01X20468434Y-27579417D01*
G01X20421852Y-27627902D01*
G01X20374743Y-27675786D01*
G01X20327111Y-27723059D01*
G01X20278962Y-27769711D01*
G01X20230300Y-27815733D01*
G01X20181131Y-27861114D01*
G01X20131459Y-27905844D01*
G01X20081291Y-27949914D01*
G01X20030631Y-27993313D01*
G01X19979483Y-28036032D01*
G01X19927854Y-28078059D01*
G01X19875748Y-28119387D01*
G01X19823171Y-28160003D01*
G01X19770127Y-28199900D01*
G01X19716621Y-28239066D01*
G01X19662659Y-28277491D01*
G01X19608246Y-28315166D01*
G01X19553387Y-28352080D01*
G01X19498086Y-28388225D01*
G01X19442350Y-28423588D01*
G01X19386182Y-28458162D01*
G01X19329589Y-28491935D01*
G01X19272575Y-28524898D01*
G01X19215146Y-28557041D01*
G01X19157306Y-28588353D01*
G01X19099060Y-28618826D01*
G01X19040415Y-28648448D01*
G01X18981374Y-28677210D01*
G01X18921942Y-28705102D01*
G01X18862126Y-28732114D01*
G01X18801930Y-28758235D01*
G01X18741359Y-28783457D01*
G01X18680418Y-28807769D01*
G01X18619112Y-28831161D01*
G01X18557447Y-28853622D01*
G01X18495427Y-28875144D01*
G01X18433058Y-28895716D01*
G01X18370345Y-28915328D01*
G01X18307292Y-28933970D01*
G01X18243905Y-28951633D01*
G01X18180190Y-28968305D01*
G01X18116150Y-28983978D01*
G01X18051791Y-28998641D01*
G01X17987119Y-29012285D01*
G01X17922138Y-29024898D01*
G01X17856853Y-29036472D01*
G01X17791270Y-29046997D01*
G01X17725393Y-29056461D01*
G01X17659228Y-29064857D01*
G01X17592780Y-29072172D01*
G01X17526054Y-29078398D01*
G01X17459055Y-29083525D01*
G01X17391788Y-29087542D01*
G01X17324258Y-29090439D01*
G01X17256470Y-29092207D01*
G01X17188430Y-29092836D01*
G01X17120142Y-29092315D01*
G01X17051611Y-29090635D01*
G01X16982843Y-29087786D01*
G01X16913843Y-29083757D01*
G01X16844616Y-29078539D01*
G01X16844616Y-29078539D01*
G01X16844616Y-29078539D01*
G01X16841072Y-29029198D01*
G01X16837745Y-28979923D01*
G01X16834629Y-28930713D01*
G01X16831721Y-28881566D01*
G01X16829017Y-28832480D01*
G01X16826512Y-28783454D01*
G01X16824203Y-28734486D01*
G01X16822086Y-28685574D01*
G01X16820155Y-28636717D01*
G01X16818409Y-28587913D01*
G01X16816841Y-28539161D01*
G01X16815449Y-28490458D01*
G01X16814817Y-28466124D01*
G01X16814817Y-28466124D01*
G01X16809823Y-28437384D01*
G01X16770986Y-28424205D01*
G01X16770986Y-28424205D01*
G37*
G36*
G01X30442000Y-24380788D02*
G01X30442000Y-24380788D01*
G01X30493675Y-24385126D01*
G01X30545168Y-24390618D01*
G01X30596464Y-24397260D01*
G01X30647545Y-24405052D01*
G01X30698396Y-24413988D01*
G01X30749000Y-24424067D01*
G01X30799342Y-24435285D01*
G01X30849404Y-24447640D01*
G01X30899171Y-24461128D01*
G01X30948626Y-24475748D01*
G01X30997753Y-24491495D01*
G01X31003190Y-24493314D01*
G01X31003190Y-24493314D01*
G01X31051060Y-24510557D01*
G01X31098511Y-24528866D01*
G01X31145528Y-24548233D01*
G01X31192099Y-24568651D01*
G01X31238209Y-24590111D01*
G01X31283845Y-24612608D01*
G01X31328993Y-24636132D01*
G01X31373639Y-24660677D01*
G01X31417769Y-24686235D01*
G01X31461370Y-24712799D01*
G01X31504429Y-24740360D01*
G01X31509179Y-24743484D01*
G01X31509179Y-24743484D01*
G01X31551654Y-24741097D01*
G01X31551654Y-24741097D01*
G01X31551654Y-24741097D01*
G01X31583153Y-24702777D01*
G01X31614980Y-24664580D01*
G01X31647146Y-24626514D01*
G01X31679665Y-24588583D01*
G01X31712549Y-24550793D01*
G01X31745811Y-24513150D01*
G01X31768201Y-24488138D01*
G01X31768201Y-24488138D01*
G01X31831418Y-24530675D01*
G01X31892641Y-24574950D01*
G01X31951880Y-24620915D01*
G01X32009145Y-24668521D01*
G01X32064444Y-24717720D01*
G01X32117787Y-24768463D01*
G01X32169183Y-24820702D01*
G01X32218641Y-24874389D01*
G01X32266170Y-24929475D01*
G01X32311780Y-24985912D01*
G01X32355479Y-25043651D01*
G01X32397277Y-25102644D01*
G01X32437183Y-25162843D01*
G01X32475206Y-25224199D01*
G01X32511355Y-25286663D01*
G01X32545639Y-25350188D01*
G01X32578068Y-25414724D01*
G01X32608651Y-25480224D01*
G01X32637396Y-25546640D01*
G01X32664314Y-25613921D01*
G01X32689413Y-25682021D01*
G01X32712702Y-25750891D01*
G01X32734191Y-25820482D01*
G01X32753889Y-25890746D01*
G01X32771804Y-25961634D01*
G01X32787947Y-26033099D01*
G01X32802326Y-26105091D01*
G01X32814950Y-26177563D01*
G01X32825829Y-26250466D01*
G01X32834971Y-26323751D01*
G01X32842387Y-26397370D01*
G01X32848084Y-26471274D01*
G01X32852073Y-26545416D01*
G01X32854362Y-26619747D01*
G01X32854961Y-26694218D01*
G01X32853879Y-26768781D01*
G01X32851124Y-26843388D01*
G01X32846707Y-26917990D01*
G01X32840635Y-26992538D01*
G01X32832919Y-27066985D01*
G01X32823568Y-27141282D01*
G01X32812591Y-27215380D01*
G01X32799996Y-27289231D01*
G01X32785794Y-27362787D01*
G01X32769992Y-27435999D01*
G01X32752602Y-27508819D01*
G01X32733630Y-27581198D01*
G01X32713088Y-27653088D01*
G01X32690983Y-27724441D01*
G01X32667326Y-27795208D01*
G01X32667326Y-27795208D01*
G01X32667326Y-27795208D01*
G01X32644586Y-27859789D01*
G01X32620795Y-27923608D01*
G01X32595967Y-27986653D01*
G01X32570116Y-28048909D01*
G01X32543256Y-28110366D01*
G01X32515400Y-28171009D01*
G01X32486563Y-28230826D01*
G01X32456759Y-28289803D01*
G01X32426002Y-28347929D01*
G01X32394306Y-28405190D01*
G01X32361684Y-28461574D01*
G01X32328150Y-28517066D01*
G01X32293720Y-28571655D01*
G01X32258406Y-28625328D01*
G01X32222223Y-28678072D01*
G01X32185184Y-28729874D01*
G01X32147303Y-28780720D01*
G01X32108596Y-28830599D01*
G01X32069074Y-28879497D01*
G01X32028754Y-28927402D01*
G01X31987647Y-28974300D01*
G01X31945769Y-29020179D01*
G01X31903134Y-29065025D01*
G01X31859755Y-29108827D01*
G01X31815646Y-29151570D01*
G01X31770822Y-29193243D01*
G01X31725296Y-29233832D01*
G01X31679082Y-29273324D01*
G01X31632194Y-29311707D01*
G01X31584647Y-29348968D01*
G01X31536454Y-29385093D01*
G01X31487629Y-29420070D01*
G01X31438187Y-29453886D01*
G01X31388140Y-29486529D01*
G01X31337504Y-29517984D01*
G01X31286292Y-29548241D01*
G01X31234518Y-29577284D01*
G01X31182196Y-29605102D01*
G01X31129340Y-29631682D01*
G01X31075964Y-29657011D01*
G01X31022082Y-29681076D01*
G01X30967708Y-29703864D01*
G01X30912855Y-29725363D01*
G01X30857539Y-29745558D01*
G01X30801773Y-29764439D01*
G01X30745571Y-29781991D01*
G01X30688946Y-29798201D01*
G01X30631914Y-29813058D01*
G01X30574487Y-29826548D01*
G01X30516680Y-29838657D01*
G01X30516680Y-29838657D01*
G01X30516680Y-29838657D01*
G01X30493130Y-29864215D01*
G01X30493130Y-29864215D01*
G01X30493130Y-29864215D01*
G01X30486643Y-29893889D01*
G01X30477962Y-29922803D01*
G01X30477962Y-29922803D01*
G01X30477962Y-29922803D01*
G01X30460681Y-29965497D01*
G01X30438966Y-30006230D01*
G01X30412937Y-30044915D01*
G01X30382713Y-30081468D01*
G01X30348415Y-30115801D01*
G01X30310162Y-30147828D01*
G01X30268073Y-30177464D01*
G01X30222268Y-30204622D01*
G01X30172866Y-30229216D01*
G01X30119988Y-30251160D01*
G01X30063753Y-30270368D01*
G01X30004280Y-30286754D01*
G01X29973367Y-30293862D01*
G01X29973367Y-30293862D01*
G01X29955557Y-30314933D01*
G01X29955557Y-30314933D01*
G01X29955557Y-30314933D01*
G01X29950262Y-30354249D01*
G01X29940171Y-30392082D01*
G01X29940171Y-30392082D01*
G01X29940171Y-30392082D01*
G01X29923297Y-30432158D01*
G01X29901217Y-30469433D01*
G01X29874196Y-30503853D01*
G01X29842497Y-30535365D01*
G01X29806385Y-30563914D01*
G01X29766122Y-30589449D01*
G01X29721974Y-30611914D01*
G01X29674204Y-30631256D01*
G01X29623075Y-30647423D01*
G01X29568853Y-30660359D01*
G01X29511801Y-30670012D01*
G01X29452183Y-30676328D01*
G01X29390262Y-30679254D01*
G01X29326304Y-30678735D01*
G01X29260571Y-30674719D01*
G01X29193328Y-30667151D01*
G01X29124838Y-30655979D01*
G01X29055366Y-30641148D01*
G01X28985176Y-30622606D01*
G01X28914531Y-30600297D01*
G01X28914531Y-30600297D01*
G01X28914531Y-30600297D01*
G01X28845021Y-30574672D01*
G01X28778176Y-30546347D01*
G01X28714173Y-30515528D01*
G01X28653187Y-30482419D01*
G01X28595394Y-30447223D01*
G01X28540969Y-30410144D01*
G01X28490089Y-30371386D01*
G01X28442930Y-30331154D01*
G01X28399667Y-30289651D01*
G01X28360476Y-30247082D01*
G01X28325533Y-30203649D01*
G01X28295014Y-30159558D01*
G01X28269095Y-30115012D01*
G01X28247951Y-30070216D01*
G01X28231759Y-30025372D01*
G01X28220694Y-29980686D01*
G01X28214932Y-29936361D01*
G01X28214649Y-29892601D01*
G01X28220021Y-29849611D01*
G01X28231223Y-29807593D01*
G01X28231223Y-29807593D01*
G01X28231223Y-29807593D01*
G01X28247007Y-29770252D01*
G01X28267653Y-29734938D01*
G01X28267653Y-29734938D01*
G01X28267653Y-29734938D01*
G01X28265355Y-29710109D01*
G01X28265355Y-29710109D01*
G01X28265355Y-29710109D01*
G01X28226187Y-29660870D01*
G01X28191293Y-29611311D01*
G01X28160716Y-29561573D01*
G01X28134497Y-29511799D01*
G01X28112679Y-29462129D01*
G01X28095304Y-29412707D01*
G01X28082413Y-29363673D01*
G01X28074048Y-29315169D01*
G01X28070252Y-29267336D01*
G01X28071066Y-29220317D01*
G01X28076531Y-29174253D01*
G01X28086691Y-29129286D01*
G01X28093544Y-29107258D01*
G01X28093544Y-29107258D01*
G01X28105356Y-29078062D01*
G01X28119348Y-29049773D01*
G01X28119348Y-29049773D01*
G01X28119348Y-29049773D01*
G01X28115918Y-29018476D01*
G01X28115918Y-29018476D01*
G01X28115918Y-29018476D01*
G01X28077574Y-28973501D01*
G01X28040377Y-28927666D01*
G01X28004330Y-28880990D01*
G01X27969436Y-28833492D01*
G01X27935700Y-28785191D01*
G01X27903123Y-28736106D01*
G01X27871708Y-28686254D01*
G01X27841460Y-28635656D01*
G01X27812382Y-28584330D01*
G01X27784475Y-28532294D01*
G01X27757744Y-28479567D01*
G01X27732192Y-28426169D01*
G01X27707822Y-28372117D01*
G01X27684636Y-28317431D01*
G01X27662639Y-28262130D01*
G01X27641833Y-28206231D01*
G01X27622222Y-28149755D01*
G01X27603809Y-28092719D01*
G01X27586596Y-28035143D01*
G01X27570587Y-27977045D01*
G01X27555785Y-27918444D01*
G01X27542194Y-27859359D01*
G01X27529816Y-27799808D01*
G01X27518655Y-27739811D01*
G01X27508713Y-27679386D01*
G01X27499995Y-27618551D01*
G01X27492502Y-27557327D01*
G01X27486239Y-27495730D01*
G01X27481208Y-27433781D01*
G01X27477413Y-27371497D01*
G01X27474856Y-27308899D01*
G01X27473542Y-27246004D01*
G01X27473472Y-27182831D01*
G01X27474651Y-27119399D01*
G01X27477081Y-27055726D01*
G01X27480765Y-26991833D01*
G01X27485707Y-26927736D01*
G01X27491910Y-26863456D01*
G01X27499377Y-26799010D01*
G01X27508112Y-26734418D01*
G01X27518116Y-26669698D01*
G01X27529394Y-26604870D01*
G01X27541949Y-26539951D01*
G01X27555783Y-26474961D01*
G01X27570901Y-26409919D01*
G01X27587304Y-26344842D01*
G01X27604997Y-26279751D01*
G01X27623982Y-26214663D01*
G01X27644263Y-26149598D01*
G01X27665843Y-26084574D01*
G01X27665843Y-26084574D01*
G01X27665843Y-26084574D01*
G01X27690476Y-26014141D01*
G01X27716696Y-25944195D01*
G01X27744480Y-25874781D01*
G01X27773805Y-25805943D01*
G01X27804651Y-25737725D01*
G01X27836993Y-25670169D01*
G01X27870809Y-25603322D01*
G01X27906078Y-25537225D01*
G01X27942777Y-25471924D01*
G01X27980883Y-25407462D01*
G01X28020374Y-25343883D01*
G01X28061227Y-25281230D01*
G01X28103420Y-25219548D01*
G01X28146932Y-25158881D01*
G01X28191738Y-25099272D01*
G01X28237818Y-25040766D01*
G01X28285147Y-24983406D01*
G01X28333705Y-24927236D01*
G01X28383469Y-24872299D01*
G01X28434416Y-24818641D01*
G01X28486524Y-24766305D01*
G01X28539770Y-24715334D01*
G01X28594132Y-24665773D01*
G01X28649588Y-24617665D01*
G01X28706115Y-24571055D01*
G01X28763691Y-24525985D01*
G01X28822293Y-24482501D01*
G01X28881900Y-24440646D01*
G01X28942487Y-24400464D01*
G01X29004035Y-24361998D01*
G01X29066518Y-24325293D01*
G01X29129917Y-24290393D01*
G01X29194207Y-24257341D01*
G01X29259366Y-24226181D01*
G01X29325373Y-24196958D01*
G01X29392205Y-24169714D01*
G01X29459839Y-24144495D01*
G01X29528253Y-24121343D01*
G01X29597424Y-24100304D01*
G01X29667331Y-24081419D01*
G01X29737950Y-24064735D01*
G01X29809259Y-24050293D01*
G01X29881236Y-24038139D01*
G01X29953859Y-24028316D01*
G01X30027105Y-24020868D01*
G01X30100952Y-24015839D01*
G01X30175376Y-24013273D01*
G01X30250357Y-24013214D01*
G01X30325871Y-24015705D01*
G01X30401896Y-24020791D01*
G01X30401896Y-24020791D01*
G01X30401896Y-24020791D01*
G01X30405453Y-24071644D01*
G01X30408599Y-24122372D01*
G01X30411349Y-24172980D01*
G01X30413718Y-24223475D01*
G01X30415721Y-24273862D01*
G01X30417372Y-24324148D01*
G01X30418285Y-24357619D01*
G01X30418285Y-24357619D01*
G01X30442392Y-24380674D01*
G01X30442392Y-24380674D01*
G37*
G36*
G01X27196725Y-17795176D02*
G01X27446725Y-17795176D01*
G01X27446725Y-17795176D01*
G01X27499059Y-17789690D01*
G01X27547611Y-17773985D01*
G01X27591251Y-17749192D01*
G01X27628848Y-17716442D01*
G01X27659270Y-17676865D01*
G01X27681387Y-17631594D01*
G01X27694068Y-17581757D01*
G01X27696725Y-17545176D01*
G01X27696725Y-17295176D01*
G01X27696725Y-17045176D01*
G01X27696725Y-17045176D01*
G01X27691239Y-16992842D01*
G01X27675534Y-16944290D01*
G01X27650741Y-16900650D01*
G01X27617991Y-16863054D01*
G01X27578415Y-16832632D01*
G01X27533143Y-16810515D01*
G01X27483307Y-16797833D01*
G01X27446725Y-16795176D01*
G01X27196725Y-16795176D01*
G01X26946725Y-16795176D01*
G01X26946725Y-16795176D01*
G01X26894392Y-16800662D01*
G01X26845840Y-16816367D01*
G01X26802200Y-16841160D01*
G01X26764603Y-16873910D01*
G01X26734181Y-16913487D01*
G01X26712064Y-16958758D01*
G01X26699383Y-17008595D01*
G01X26696725Y-17045176D01*
G01X26696725Y-17295176D01*
G01X26696725Y-17545176D01*
G01X26696725Y-17545176D01*
G01X26702212Y-17597510D01*
G01X26717917Y-17646062D01*
G01X26742710Y-17689702D01*
G01X26775460Y-17727298D01*
G01X26815036Y-17757720D01*
G01X26860308Y-17779837D01*
G01X26910144Y-17792519D01*
G01X26946725Y-17795176D01*
G01X27196725Y-17795176D01*
G37*
G36*
G01X27196725Y-15345176D02*
G01X26946725Y-15345176D01*
G01X26946725Y-15345176D01*
G01X26894392Y-15350662D01*
G01X26845840Y-15366367D01*
G01X26802200Y-15391160D01*
G01X26764603Y-15423910D01*
G01X26734181Y-15463487D01*
G01X26712064Y-15508758D01*
G01X26699383Y-15558595D01*
G01X26696725Y-15595176D01*
G01X26696725Y-15845176D01*
G01X26696725Y-16095176D01*
G01X26696725Y-16095176D01*
G01X26702212Y-16147510D01*
G01X26717917Y-16196062D01*
G01X26742710Y-16239702D01*
G01X26775460Y-16277298D01*
G01X26815036Y-16307720D01*
G01X26860308Y-16329837D01*
G01X26910144Y-16342519D01*
G01X26946725Y-16345176D01*
G01X27196725Y-16345176D01*
G01X27446725Y-16345176D01*
G01X27446725Y-16345176D01*
G01X27499059Y-16339690D01*
G01X27547611Y-16323985D01*
G01X27591251Y-16299192D01*
G01X27628848Y-16266442D01*
G01X27659270Y-16226865D01*
G01X27681387Y-16181594D01*
G01X27694068Y-16131757D01*
G01X27696725Y-16095176D01*
G01X27696725Y-15845176D01*
G01X27696725Y-15595176D01*
G01X27696725Y-15595176D01*
G01X27691239Y-15542842D01*
G01X27675534Y-15494290D01*
G01X27650741Y-15450650D01*
G01X27617991Y-15413054D01*
G01X27578415Y-15382632D01*
G01X27533143Y-15360515D01*
G01X27483307Y-15347833D01*
G01X27446725Y-15345176D01*
G01X27196725Y-15345176D01*
G37*
G36*
G01X28856392Y-17673788D02*
G01X29106392Y-17673788D01*
G01X29106392Y-17673788D01*
G01X29158725Y-17668302D01*
G01X29207277Y-17652597D01*
G01X29250917Y-17627804D01*
G01X29288514Y-17595054D01*
G01X29318936Y-17555477D01*
G01X29341053Y-17510206D01*
G01X29353734Y-17460369D01*
G01X29356392Y-17423788D01*
G01X29356392Y-17173788D01*
G01X29356392Y-16923788D01*
G01X29356392Y-16923788D01*
G01X29350905Y-16871454D01*
G01X29335200Y-16822902D01*
G01X29310407Y-16779262D01*
G01X29277657Y-16741666D01*
G01X29238081Y-16711244D01*
G01X29192809Y-16689127D01*
G01X29142973Y-16676445D01*
G01X29106392Y-16673788D01*
G01X28856392Y-16673788D01*
G01X28606392Y-16673788D01*
G01X28606392Y-16673788D01*
G01X28554058Y-16679274D01*
G01X28505506Y-16694979D01*
G01X28461866Y-16719772D01*
G01X28424269Y-16752522D01*
G01X28393847Y-16792099D01*
G01X28371730Y-16837370D01*
G01X28359049Y-16887207D01*
G01X28356392Y-16923788D01*
G01X28356392Y-17173788D01*
G01X28356392Y-17423788D01*
G01X28356392Y-17423788D01*
G01X28361878Y-17476122D01*
G01X28377583Y-17524674D01*
G01X28402376Y-17568314D01*
G01X28435126Y-17605910D01*
G01X28474702Y-17636332D01*
G01X28519974Y-17658449D01*
G01X28569810Y-17671131D01*
G01X28606392Y-17673788D01*
G01X28856392Y-17673788D01*
G37*
G36*
G01X28856392Y-15223788D02*
G01X28606392Y-15223788D01*
G01X28606392Y-15223788D01*
G01X28554058Y-15229274D01*
G01X28505506Y-15244979D01*
G01X28461866Y-15269772D01*
G01X28424269Y-15302522D01*
G01X28393847Y-15342099D01*
G01X28371730Y-15387370D01*
G01X28359049Y-15437207D01*
G01X28356392Y-15473788D01*
G01X28356392Y-15723788D01*
G01X28356392Y-15973788D01*
G01X28356392Y-15973788D01*
G01X28361878Y-16026122D01*
G01X28377583Y-16074674D01*
G01X28402376Y-16118314D01*
G01X28435126Y-16155910D01*
G01X28474702Y-16186332D01*
G01X28519974Y-16208449D01*
G01X28569810Y-16221131D01*
G01X28606392Y-16223788D01*
G01X28856392Y-16223788D01*
G01X29106392Y-16223788D01*
G01X29106392Y-16223788D01*
G01X29158725Y-16218302D01*
G01X29207277Y-16202597D01*
G01X29250917Y-16177804D01*
G01X29288514Y-16145054D01*
G01X29318936Y-16105477D01*
G01X29341053Y-16060206D01*
G01X29353734Y-16010369D01*
G01X29356392Y-15973788D01*
G01X29356392Y-15723788D01*
G01X29356392Y-15473788D01*
G01X29356392Y-15473788D01*
G01X29350905Y-15421454D01*
G01X29335200Y-15372902D01*
G01X29310407Y-15329262D01*
G01X29277657Y-15291666D01*
G01X29238081Y-15261244D01*
G01X29192809Y-15239127D01*
G01X29142973Y-15226445D01*
G01X29106392Y-15223788D01*
G01X28856392Y-15223788D01*
G37*
G36*
G01X24536033Y-13932863D02*
G01X24786033Y-13932863D01*
G01X24786033Y-13932863D01*
G01X24838367Y-13927377D01*
G01X24886919Y-13911672D01*
G01X24930559Y-13886879D01*
G01X24968156Y-13854129D01*
G01X24998578Y-13814552D01*
G01X25020695Y-13769281D01*
G01X25033376Y-13719444D01*
G01X25036033Y-13682863D01*
G01X25036033Y-13432863D01*
G01X25036033Y-13182863D01*
G01X25036033Y-13182863D01*
G01X25030547Y-13130529D01*
G01X25014842Y-13081977D01*
G01X24990049Y-13038337D01*
G01X24957299Y-13000741D01*
G01X24917723Y-12970319D01*
G01X24872451Y-12948202D01*
G01X24822615Y-12935520D01*
G01X24786033Y-12932863D01*
G01X24536033Y-12932863D01*
G01X24286033Y-12932863D01*
G01X24286033Y-12932863D01*
G01X24233700Y-12938349D01*
G01X24185148Y-12954054D01*
G01X24141508Y-12978847D01*
G01X24103911Y-13011597D01*
G01X24073489Y-13051174D01*
G01X24051372Y-13096445D01*
G01X24038691Y-13146282D01*
G01X24036033Y-13182863D01*
G01X24036033Y-13432863D01*
G01X24036033Y-13682863D01*
G01X24036033Y-13682863D01*
G01X24041520Y-13735197D01*
G01X24057225Y-13783749D01*
G01X24082018Y-13827389D01*
G01X24114768Y-13864985D01*
G01X24154344Y-13895407D01*
G01X24199616Y-13917524D01*
G01X24249452Y-13930206D01*
G01X24286033Y-13932863D01*
G01X24536033Y-13932863D01*
G37*
G36*
G01X24536033Y-11482863D02*
G01X24286033Y-11482863D01*
G01X24286033Y-11482863D01*
G01X24233700Y-11488349D01*
G01X24185148Y-11504054D01*
G01X24141508Y-11528847D01*
G01X24103911Y-11561597D01*
G01X24073489Y-11601174D01*
G01X24051372Y-11646445D01*
G01X24038691Y-11696282D01*
G01X24036033Y-11732863D01*
G01X24036033Y-11982863D01*
G01X24036033Y-12232863D01*
G01X24036033Y-12232863D01*
G01X24041520Y-12285197D01*
G01X24057225Y-12333749D01*
G01X24082018Y-12377389D01*
G01X24114768Y-12414985D01*
G01X24154344Y-12445407D01*
G01X24199616Y-12467524D01*
G01X24249452Y-12480206D01*
G01X24286033Y-12482863D01*
G01X24536033Y-12482863D01*
G01X24786033Y-12482863D01*
G01X24786033Y-12482863D01*
G01X24838367Y-12477377D01*
G01X24886919Y-12461672D01*
G01X24930559Y-12436879D01*
G01X24968156Y-12404129D01*
G01X24998578Y-12364552D01*
G01X25020695Y-12319281D01*
G01X25033376Y-12269444D01*
G01X25036033Y-12232863D01*
G01X25036033Y-11982863D01*
G01X25036033Y-11732863D01*
G01X25036033Y-11732863D01*
G01X25030547Y-11680529D01*
G01X25014842Y-11631977D01*
G01X24990049Y-11588337D01*
G01X24957299Y-11550741D01*
G01X24917723Y-11520319D01*
G01X24872451Y-11498202D01*
G01X24822615Y-11485520D01*
G01X24786033Y-11482863D01*
G01X24536033Y-11482863D01*
G37*
G36*
G01X14915781Y-7771458D02*
G01X15165781Y-7771458D01*
G01X15165781Y-7771458D01*
G01X15218114Y-7765972D01*
G01X15266666Y-7750267D01*
G01X15310306Y-7725474D01*
G01X15347903Y-7692724D01*
G01X15378325Y-7653147D01*
G01X15400442Y-7607876D01*
G01X15413123Y-7558039D01*
G01X15415781Y-7521458D01*
G01X15415781Y-7271458D01*
G01X15415781Y-7021458D01*
G01X15415781Y-7021458D01*
G01X15410294Y-6969124D01*
G01X15394589Y-6920572D01*
G01X15369796Y-6876932D01*
G01X15337046Y-6839336D01*
G01X15297470Y-6808914D01*
G01X15252198Y-6786797D01*
G01X15202362Y-6774115D01*
G01X15165781Y-6771458D01*
G01X14915781Y-6771458D01*
G01X14665781Y-6771458D01*
G01X14665781Y-6771458D01*
G01X14613447Y-6776944D01*
G01X14564895Y-6792649D01*
G01X14521255Y-6817442D01*
G01X14483658Y-6850192D01*
G01X14453236Y-6889769D01*
G01X14431119Y-6935040D01*
G01X14418438Y-6984877D01*
G01X14415781Y-7021458D01*
G01X14415781Y-7271458D01*
G01X14415781Y-7521458D01*
G01X14415781Y-7521458D01*
G01X14421267Y-7573792D01*
G01X14436972Y-7622344D01*
G01X14461765Y-7665984D01*
G01X14494515Y-7703580D01*
G01X14534091Y-7734002D01*
G01X14579363Y-7756119D01*
G01X14629199Y-7768801D01*
G01X14665781Y-7771458D01*
G01X14915781Y-7771458D01*
G37*
G36*
G01X14915781Y-5321458D02*
G01X14665781Y-5321458D01*
G01X14665781Y-5321458D01*
G01X14613447Y-5326944D01*
G01X14564895Y-5342649D01*
G01X14521255Y-5367442D01*
G01X14483658Y-5400192D01*
G01X14453236Y-5439769D01*
G01X14431119Y-5485040D01*
G01X14418438Y-5534877D01*
G01X14415781Y-5571458D01*
G01X14415781Y-5821458D01*
G01X14415781Y-6071458D01*
G01X14415781Y-6071458D01*
G01X14421267Y-6123792D01*
G01X14436972Y-6172344D01*
G01X14461765Y-6215984D01*
G01X14494515Y-6253580D01*
G01X14534091Y-6284002D01*
G01X14579363Y-6306119D01*
G01X14629199Y-6318801D01*
G01X14665781Y-6321458D01*
G01X14915781Y-6321458D01*
G01X15165781Y-6321458D01*
G01X15165781Y-6321458D01*
G01X15218114Y-6315972D01*
G01X15266666Y-6300267D01*
G01X15310306Y-6275474D01*
G01X15347903Y-6242724D01*
G01X15378325Y-6203147D01*
G01X15400442Y-6157876D01*
G01X15413123Y-6108039D01*
G01X15415781Y-6071458D01*
G01X15415781Y-5821458D01*
G01X15415781Y-5571458D01*
G01X15415781Y-5571458D01*
G01X15410294Y-5519124D01*
G01X15394589Y-5470572D01*
G01X15369796Y-5426932D01*
G01X15337046Y-5389336D01*
G01X15297470Y-5358914D01*
G01X15252198Y-5336797D01*
G01X15202362Y-5324115D01*
G01X15165781Y-5321458D01*
G01X14915781Y-5321458D01*
G37*
G36*
G01X5817602Y-9282422D02*
G01X6067602Y-9282422D01*
G01X6067602Y-9282422D01*
G01X6119935Y-9276936D01*
G01X6168487Y-9261231D01*
G01X6212127Y-9236438D01*
G01X6249724Y-9203688D01*
G01X6280146Y-9164111D01*
G01X6302263Y-9118840D01*
G01X6314944Y-9069003D01*
G01X6317602Y-9032422D01*
G01X6317602Y-8782422D01*
G01X6317602Y-8532422D01*
G01X6317602Y-8532422D01*
G01X6312115Y-8480088D01*
G01X6296410Y-8431536D01*
G01X6271617Y-8387896D01*
G01X6238867Y-8350300D01*
G01X6199291Y-8319878D01*
G01X6154019Y-8297761D01*
G01X6104183Y-8285079D01*
G01X6067602Y-8282422D01*
G01X5817602Y-8282422D01*
G01X5567602Y-8282422D01*
G01X5567602Y-8282422D01*
G01X5515268Y-8287908D01*
G01X5466716Y-8303613D01*
G01X5423076Y-8328406D01*
G01X5385479Y-8361156D01*
G01X5355057Y-8400733D01*
G01X5332940Y-8446004D01*
G01X5320259Y-8495841D01*
G01X5317602Y-8532422D01*
G01X5317602Y-8782422D01*
G01X5317602Y-9032422D01*
G01X5317602Y-9032422D01*
G01X5323088Y-9084756D01*
G01X5338793Y-9133308D01*
G01X5363586Y-9176948D01*
G01X5396336Y-9214544D01*
G01X5435912Y-9244966D01*
G01X5481184Y-9267083D01*
G01X5531020Y-9279765D01*
G01X5567602Y-9282422D01*
G01X5817602Y-9282422D01*
G37*
G36*
G01X5817602Y-6832422D02*
G01X5567602Y-6832422D01*
G01X5567602Y-6832422D01*
G01X5515268Y-6837908D01*
G01X5466716Y-6853613D01*
G01X5423076Y-6878406D01*
G01X5385479Y-6911156D01*
G01X5355057Y-6950733D01*
G01X5332940Y-6996004D01*
G01X5320259Y-7045841D01*
G01X5317602Y-7082422D01*
G01X5317602Y-7332422D01*
G01X5317602Y-7582422D01*
G01X5317602Y-7582422D01*
G01X5323088Y-7634756D01*
G01X5338793Y-7683308D01*
G01X5363586Y-7726948D01*
G01X5396336Y-7764544D01*
G01X5435912Y-7794966D01*
G01X5481184Y-7817083D01*
G01X5531020Y-7829765D01*
G01X5567602Y-7832422D01*
G01X5817602Y-7832422D01*
G01X6067602Y-7832422D01*
G01X6067602Y-7832422D01*
G01X6119935Y-7826936D01*
G01X6168487Y-7811231D01*
G01X6212127Y-7786438D01*
G01X6249724Y-7753688D01*
G01X6280146Y-7714111D01*
G01X6302263Y-7668840D01*
G01X6314944Y-7619003D01*
G01X6317602Y-7582422D01*
G01X6317602Y-7332422D01*
G01X6317602Y-7082422D01*
G01X6317602Y-7082422D01*
G01X6312115Y-7030088D01*
G01X6296410Y-6981536D01*
G01X6271617Y-6937896D01*
G01X6238867Y-6900300D01*
G01X6199291Y-6869878D01*
G01X6154019Y-6847761D01*
G01X6104183Y-6835079D01*
G01X6067602Y-6832422D01*
G01X5817602Y-6832422D01*
G37*
G36*
G01X7093392Y-15223261D02*
G01X7343392Y-15223261D01*
G01X7343392Y-15223261D01*
G01X7395725Y-15217775D01*
G01X7444277Y-15202070D01*
G01X7487917Y-15177277D01*
G01X7525514Y-15144527D01*
G01X7555936Y-15104950D01*
G01X7578053Y-15059679D01*
G01X7590734Y-15009842D01*
G01X7593392Y-14973261D01*
G01X7593392Y-14723261D01*
G01X7593392Y-14473261D01*
G01X7593392Y-14473261D01*
G01X7587905Y-14420927D01*
G01X7572200Y-14372375D01*
G01X7547407Y-14328735D01*
G01X7514657Y-14291139D01*
G01X7475081Y-14260717D01*
G01X7429809Y-14238600D01*
G01X7379973Y-14225918D01*
G01X7343392Y-14223261D01*
G01X7093392Y-14223261D01*
G01X6843392Y-14223261D01*
G01X6843392Y-14223261D01*
G01X6791058Y-14228747D01*
G01X6742506Y-14244452D01*
G01X6698866Y-14269245D01*
G01X6661269Y-14301995D01*
G01X6630847Y-14341572D01*
G01X6608730Y-14386843D01*
G01X6596049Y-14436680D01*
G01X6593392Y-14473261D01*
G01X6593392Y-14723261D01*
G01X6593392Y-14973261D01*
G01X6593392Y-14973261D01*
G01X6598878Y-15025595D01*
G01X6614583Y-15074147D01*
G01X6639376Y-15117787D01*
G01X6672126Y-15155383D01*
G01X6711702Y-15185805D01*
G01X6756974Y-15207922D01*
G01X6806810Y-15220604D01*
G01X6843392Y-15223261D01*
G01X7093392Y-15223261D01*
G37*
G36*
G01X7093392Y-12773261D02*
G01X6843392Y-12773261D01*
G01X6843392Y-12773261D01*
G01X6791058Y-12778747D01*
G01X6742506Y-12794452D01*
G01X6698866Y-12819245D01*
G01X6661269Y-12851995D01*
G01X6630847Y-12891572D01*
G01X6608730Y-12936843D01*
G01X6596049Y-12986680D01*
G01X6593392Y-13023261D01*
G01X6593392Y-13273261D01*
G01X6593392Y-13523261D01*
G01X6593392Y-13523261D01*
G01X6598878Y-13575595D01*
G01X6614583Y-13624147D01*
G01X6639376Y-13667787D01*
G01X6672126Y-13705383D01*
G01X6711702Y-13735805D01*
G01X6756974Y-13757922D01*
G01X6806810Y-13770604D01*
G01X6843392Y-13773261D01*
G01X7093392Y-13773261D01*
G01X7343392Y-13773261D01*
G01X7343392Y-13773261D01*
G01X7395725Y-13767775D01*
G01X7444277Y-13752070D01*
G01X7487917Y-13727277D01*
G01X7525514Y-13694527D01*
G01X7555936Y-13654950D01*
G01X7578053Y-13609679D01*
G01X7590734Y-13559842D01*
G01X7593392Y-13523261D01*
G01X7593392Y-13273261D01*
G01X7593392Y-13023261D01*
G01X7593392Y-13023261D01*
G01X7587905Y-12970927D01*
G01X7572200Y-12922375D01*
G01X7547407Y-12878735D01*
G01X7514657Y-12841139D01*
G01X7475081Y-12810717D01*
G01X7429809Y-12788600D01*
G01X7379973Y-12775918D01*
G01X7343392Y-12773261D01*
G01X7093392Y-12773261D01*
G37*
G36*
G01X8720819Y-15272614D02*
G01X8970819Y-15272614D01*
G01X8970819Y-15272614D01*
G01X9023152Y-15267128D01*
G01X9071704Y-15251423D01*
G01X9115344Y-15226630D01*
G01X9152941Y-15193880D01*
G01X9183363Y-15154303D01*
G01X9205480Y-15109032D01*
G01X9218161Y-15059195D01*
G01X9220819Y-15022614D01*
G01X9220819Y-14772614D01*
G01X9220819Y-14522614D01*
G01X9220819Y-14522614D01*
G01X9215332Y-14470280D01*
G01X9199627Y-14421728D01*
G01X9174834Y-14378088D01*
G01X9142084Y-14340492D01*
G01X9102508Y-14310070D01*
G01X9057236Y-14287953D01*
G01X9007400Y-14275271D01*
G01X8970819Y-14272614D01*
G01X8720819Y-14272614D01*
G01X8470819Y-14272614D01*
G01X8470819Y-14272614D01*
G01X8418485Y-14278100D01*
G01X8369933Y-14293805D01*
G01X8326293Y-14318598D01*
G01X8288696Y-14351348D01*
G01X8258274Y-14390925D01*
G01X8236157Y-14436196D01*
G01X8223476Y-14486033D01*
G01X8220819Y-14522614D01*
G01X8220819Y-14772614D01*
G01X8220819Y-15022614D01*
G01X8220819Y-15022614D01*
G01X8226305Y-15074948D01*
G01X8242010Y-15123500D01*
G01X8266803Y-15167140D01*
G01X8299553Y-15204736D01*
G01X8339129Y-15235158D01*
G01X8384401Y-15257275D01*
G01X8434237Y-15269957D01*
G01X8470819Y-15272614D01*
G01X8720819Y-15272614D01*
G37*
G36*
G01X8720819Y-12822614D02*
G01X8470819Y-12822614D01*
G01X8470819Y-12822614D01*
G01X8418485Y-12828100D01*
G01X8369933Y-12843805D01*
G01X8326293Y-12868598D01*
G01X8288696Y-12901348D01*
G01X8258274Y-12940925D01*
G01X8236157Y-12986196D01*
G01X8223476Y-13036033D01*
G01X8220819Y-13072614D01*
G01X8220819Y-13322614D01*
G01X8220819Y-13572614D01*
G01X8220819Y-13572614D01*
G01X8226305Y-13624948D01*
G01X8242010Y-13673500D01*
G01X8266803Y-13717140D01*
G01X8299553Y-13754736D01*
G01X8339129Y-13785158D01*
G01X8384401Y-13807275D01*
G01X8434237Y-13819957D01*
G01X8470819Y-13822614D01*
G01X8720819Y-13822614D01*
G01X8970819Y-13822614D01*
G01X8970819Y-13822614D01*
G01X9023152Y-13817128D01*
G01X9071704Y-13801423D01*
G01X9115344Y-13776630D01*
G01X9152941Y-13743880D01*
G01X9183363Y-13704303D01*
G01X9205480Y-13659032D01*
G01X9218161Y-13609195D01*
G01X9220819Y-13572614D01*
G01X9220819Y-13322614D01*
G01X9220819Y-13072614D01*
G01X9220819Y-13072614D01*
G01X9215332Y-13020280D01*
G01X9199627Y-12971728D01*
G01X9174834Y-12928088D01*
G01X9142084Y-12890492D01*
G01X9102508Y-12860070D01*
G01X9057236Y-12837953D01*
G01X9007400Y-12825271D01*
G01X8970819Y-12822614D01*
G01X8720819Y-12822614D01*
G37*
G36*
G01X10557920Y-15163313D02*
G01X10807920Y-15163313D01*
G01X10807920Y-15163313D01*
G01X10860253Y-15157827D01*
G01X10908805Y-15142122D01*
G01X10952445Y-15117329D01*
G01X10990042Y-15084579D01*
G01X11020464Y-15045002D01*
G01X11042581Y-14999731D01*
G01X11055262Y-14949894D01*
G01X11057920Y-14913313D01*
G01X11057920Y-14663313D01*
G01X11057920Y-14413313D01*
G01X11057920Y-14413313D01*
G01X11052433Y-14360979D01*
G01X11036728Y-14312427D01*
G01X11011935Y-14268787D01*
G01X10979185Y-14231191D01*
G01X10939609Y-14200769D01*
G01X10894337Y-14178652D01*
G01X10844501Y-14165970D01*
G01X10807920Y-14163313D01*
G01X10557920Y-14163313D01*
G01X10307920Y-14163313D01*
G01X10307920Y-14163313D01*
G01X10255586Y-14168799D01*
G01X10207034Y-14184504D01*
G01X10163394Y-14209297D01*
G01X10125797Y-14242047D01*
G01X10095375Y-14281624D01*
G01X10073258Y-14326895D01*
G01X10060577Y-14376732D01*
G01X10057920Y-14413313D01*
G01X10057920Y-14663313D01*
G01X10057920Y-14913313D01*
G01X10057920Y-14913313D01*
G01X10063406Y-14965647D01*
G01X10079111Y-15014199D01*
G01X10103904Y-15057839D01*
G01X10136654Y-15095435D01*
G01X10176230Y-15125857D01*
G01X10221502Y-15147974D01*
G01X10271338Y-15160656D01*
G01X10307920Y-15163313D01*
G01X10557920Y-15163313D01*
G37*
G36*
G01X10557920Y-12713313D02*
G01X10307920Y-12713313D01*
G01X10307920Y-12713313D01*
G01X10255586Y-12718799D01*
G01X10207034Y-12734504D01*
G01X10163394Y-12759297D01*
G01X10125797Y-12792047D01*
G01X10095375Y-12831624D01*
G01X10073258Y-12876895D01*
G01X10060577Y-12926732D01*
G01X10057920Y-12963313D01*
G01X10057920Y-13213313D01*
G01X10057920Y-13463313D01*
G01X10057920Y-13463313D01*
G01X10063406Y-13515647D01*
G01X10079111Y-13564199D01*
G01X10103904Y-13607839D01*
G01X10136654Y-13645435D01*
G01X10176230Y-13675857D01*
G01X10221502Y-13697974D01*
G01X10271338Y-13710656D01*
G01X10307920Y-13713313D01*
G01X10557920Y-13713313D01*
G01X10807920Y-13713313D01*
G01X10807920Y-13713313D01*
G01X10860253Y-13707827D01*
G01X10908805Y-13692122D01*
G01X10952445Y-13667329D01*
G01X10990042Y-13634579D01*
G01X11020464Y-13595002D01*
G01X11042581Y-13549731D01*
G01X11055262Y-13499894D01*
G01X11057920Y-13463313D01*
G01X11057920Y-13213313D01*
G01X11057920Y-12963313D01*
G01X11057920Y-12963313D01*
G01X11052433Y-12910979D01*
G01X11036728Y-12862427D01*
G01X11011935Y-12818787D01*
G01X10979185Y-12781191D01*
G01X10939609Y-12750769D01*
G01X10894337Y-12728652D01*
G01X10844501Y-12715970D01*
G01X10807920Y-12713313D01*
G01X10557920Y-12713313D01*
G37*
G36*
G01X36486525Y-10275000D02*
G01X37686525Y-10275000D01*
G01X37686525Y-11475000D01*
G01X36486525Y-11475000D01*
G01X36486525Y-10275000D01*
G37*
G36*
G01X37936525Y-10426758D02*
G01X37936525Y-10426758D01*
G01X37979885Y-10423242D01*
G01X37979885Y-10423242D01*
G01X38026007Y-10440811D01*
G01X38033791Y-10468946D01*
G01X38033791Y-10468946D01*
G01X38033671Y-10492061D01*
G01X38033311Y-10541156D01*
G01X38032711Y-10616231D01*
G01X38032619Y-10627442D01*
G01X38032619Y-10627442D01*
G01X38031885Y-10724262D01*
G01X38031547Y-10780763D01*
G01X38031452Y-10805552D01*
G01X38031447Y-10808789D01*
G01X38031447Y-10808789D01*
G01X38077824Y-10779896D01*
G01X38125547Y-10759637D01*
G01X38174617Y-10748013D01*
G01X38217189Y-10744922D01*
G01X38217189Y-10744922D01*
G01X38270249Y-10751039D01*
G01X38316928Y-10769391D01*
G01X38357225Y-10799977D01*
G01X38369240Y-10812891D01*
G01X38369240Y-10812891D01*
G01X38401948Y-10870499D01*
G01X38419343Y-10934369D01*
G01X38426261Y-10987879D01*
G01X38427537Y-11014408D01*
G01X38427541Y-11015039D01*
G01X38427541Y-11015039D01*
G01X38424393Y-11071019D01*
G01X38414949Y-11122944D01*
G01X38399210Y-11170813D01*
G01X38377175Y-11214627D01*
G01X38362502Y-11236817D01*
G01X38362502Y-11236817D01*
G01X38308238Y-11287276D01*
G01X38249049Y-11314112D01*
G01X38199856Y-11324784D01*
G01X38175578Y-11326752D01*
G01X38175002Y-11326758D01*
G01X38175002Y-11326758D01*
G01X38121207Y-11323166D01*
G01X38070565Y-11312391D01*
G01X38023075Y-11294432D01*
G01X37978737Y-11269290D01*
G01X37947072Y-11245313D01*
G01X37947072Y-11245313D01*
G01X37950049Y-11211938D01*
G01X37952416Y-11169469D01*
G01X37954174Y-11117906D01*
G01X37955322Y-11057250D01*
G01X37955861Y-10987500D01*
G01X37955861Y-10987500D01*
G01X37955861Y-10987500D01*
G01X37955683Y-10948423D01*
G01X37955150Y-10903707D01*
G01X37954261Y-10853352D01*
G01X37953016Y-10797358D01*
G01X37951416Y-10735725D01*
G01X37949709Y-10676660D01*
G01X37949709Y-10676660D01*
G01X37945975Y-10572258D01*
G01X37942410Y-10500481D01*
G01X37939394Y-10455914D01*
G01X37937306Y-10433145D01*
G01X37936525Y-10426758D01*
G01X37936525Y-10426758D01*
G37*
%LPC*%
G36*
G01X38030275Y-11197266D02*
G01X38030275Y-11197266D01*
G01X38074080Y-11228994D01*
G01X38120416Y-11249649D01*
G01X38169283Y-11259229D01*
G01X38186135Y-11259961D01*
G01X38186135Y-11259961D01*
G01X38236589Y-11251491D01*
G01X38277210Y-11226082D01*
G01X38304201Y-11190820D01*
G01X38304201Y-11190820D01*
G01X38329801Y-11124892D01*
G01X38340672Y-11064595D01*
G01X38343127Y-11029485D01*
G01X38343166Y-11026758D01*
G01X38343166Y-11026758D01*
G01X38339290Y-10966975D01*
G01X38327662Y-10917000D01*
G01X38308282Y-10876834D01*
G01X38300099Y-10865625D01*
G01X38300099Y-10865625D01*
G01X38242044Y-10823256D01*
G01X38197808Y-10812616D01*
G01X38191994Y-10812305D01*
G01X38190236Y-10812305D01*
G01X38190236Y-10812305D01*
G01X38141994Y-10817627D01*
G01X38095821Y-10833593D01*
G01X38051718Y-10860202D01*
G01X38032619Y-10875586D01*
G01X38032619Y-10875586D01*
G01X38032867Y-10914805D01*
G01X38033205Y-10952637D01*
G01X38033205Y-10952637D01*
G01X38033718Y-11026575D01*
G01X38033791Y-11053711D01*
G01X38033791Y-11053711D01*
G01X38033791Y-11053711D01*
G01X38033360Y-11115019D01*
G01X38032068Y-11164412D01*
G01X38030275Y-11197266D01*
G37*
%LPD*%
G36*
G01X38527736Y-11036719D02*
G01X38527736Y-11036719D01*
G01X38531224Y-10981221D01*
G01X38541689Y-10930743D01*
G01X38559130Y-10885284D01*
G01X38583547Y-10844845D01*
G01X38599807Y-10824903D01*
G01X38599807Y-10824903D01*
G01X38657165Y-10780032D01*
G01X38716548Y-10756168D01*
G01X38764591Y-10746678D01*
G01X38787929Y-10744927D01*
G01X38788478Y-10744922D01*
G01X38788478Y-10744922D01*
G01X38842360Y-10749529D01*
G01X38890943Y-10763350D01*
G01X38934228Y-10786384D01*
G01X38972213Y-10818632D01*
G01X38978029Y-10824903D01*
G01X38978029Y-10824903D01*
G01X39015744Y-10883263D01*
G01X39037201Y-10944947D01*
G01X39046985Y-10998218D01*
G01X39049682Y-11031341D01*
G01X39049807Y-11036719D01*
G01X39049807Y-11036719D01*
G01X39040162Y-11118996D01*
G01X39018215Y-11182610D01*
G01X38994446Y-11225637D01*
G01X38979334Y-11246151D01*
G01X38978029Y-11247656D01*
G01X38978029Y-11247656D01*
G01X38920665Y-11292034D01*
G01X38860989Y-11315636D01*
G01X38812584Y-11325022D01*
G01X38789033Y-11326753D01*
G01X38788478Y-11326758D01*
G01X38788478Y-11326758D01*
G01X38735075Y-11322202D01*
G01X38686801Y-11308533D01*
G01X38643657Y-11285752D01*
G01X38605643Y-11253858D01*
G01X38599807Y-11247656D01*
G01X38599807Y-11247656D01*
G01X38561937Y-11189758D01*
G01X38540393Y-11128337D01*
G01X38530569Y-11075185D01*
G01X38527861Y-11042095D01*
G01X38527736Y-11036719D01*
G37*
%LPC*%
G36*
G01X38612111Y-11019727D02*
G01X38612111Y-11019727D01*
G01X38615763Y-11074766D01*
G01X38626719Y-11124386D01*
G01X38644979Y-11168584D01*
G01X38658693Y-11191406D01*
G01X38658693Y-11191406D01*
G01X38712467Y-11239342D01*
G01X38764333Y-11257267D01*
G01X38788454Y-11259961D01*
G01X38788478Y-11259961D01*
G01X38788478Y-11259961D01*
G01X38841188Y-11253459D01*
G01X38885362Y-11233951D01*
G01X38919142Y-11203711D01*
G01X38919142Y-11203711D01*
G01X38951278Y-11142492D01*
G01X38963830Y-11084038D01*
G01X38966014Y-11054153D01*
G01X38966017Y-11053711D01*
G01X38966017Y-11053711D01*
G01X38962251Y-10998625D01*
G01X38950950Y-10948869D01*
G01X38932116Y-10904440D01*
G01X38917971Y-10881445D01*
G01X38917971Y-10881445D01*
G01X38863620Y-10833100D01*
G01X38812210Y-10815022D01*
G01X38788503Y-10812305D01*
G01X38788478Y-10812305D01*
G01X38788478Y-10812305D01*
G01X38735837Y-10818875D01*
G01X38691865Y-10838586D01*
G01X38658400Y-10869141D01*
G01X38658400Y-10869141D01*
G01X38626666Y-10930762D01*
G01X38614271Y-10989373D01*
G01X38612114Y-11019285D01*
G01X38612111Y-11019727D01*
G37*
%LPD*%
G36*
G01X39103713Y-10800000D02*
G01X39103713Y-10800000D01*
G01X39121584Y-10764844D01*
G01X39121584Y-10764844D01*
G01X39178591Y-10757279D01*
G01X39182814Y-10757227D01*
G01X39216799Y-10757227D01*
G01X39216799Y-10757227D01*
G01X39214594Y-10699942D01*
G01X39211544Y-10650102D01*
G01X39209182Y-10622461D01*
G01X39209182Y-10622461D01*
G01X39249025Y-10618946D01*
G01X39249025Y-10618946D01*
G01X39297260Y-10635399D01*
G01X39306447Y-10664649D01*
G01X39306447Y-10664649D01*
G01X39305080Y-10700428D01*
G01X39301760Y-10758399D01*
G01X39301760Y-10758399D01*
G01X39371486Y-10757996D01*
G01X39428322Y-10756787D01*
G01X39472267Y-10754773D01*
G01X39503322Y-10751953D01*
G01X39503322Y-10751953D01*
G01X39503322Y-10751953D01*
G01X39508010Y-10780078D01*
G01X39508010Y-10780078D01*
G01X39495412Y-10812305D01*
G01X39495412Y-10812305D01*
G01X39455275Y-10821680D01*
G01X39455275Y-10821680D01*
G01X39420165Y-10822326D01*
G01X39368975Y-10822716D01*
G01X39301705Y-10822852D01*
G01X39299416Y-10822852D01*
G01X39299416Y-10822852D01*
G01X39298610Y-10872545D01*
G01X39297973Y-10923212D01*
G01X39297505Y-10974851D01*
G01X39297207Y-11027464D01*
G01X39297078Y-11081050D01*
G01X39297072Y-11095313D01*
G01X39297072Y-11095313D01*
G01X39300110Y-11160412D01*
G01X39309222Y-11207211D01*
G01X39320510Y-11230957D01*
G01X39320510Y-11230957D01*
G01X39375577Y-11261067D01*
G01X39397853Y-11263477D01*
G01X39397853Y-11263477D01*
G01X39447153Y-11253272D01*
G01X39483986Y-11227149D01*
G01X39483986Y-11227149D01*
G01X39505666Y-11270508D01*
G01X39505666Y-11270508D01*
G01X39478807Y-11309009D01*
G01X39474611Y-11311231D01*
G01X39474611Y-11311231D01*
G01X39412903Y-11326092D01*
G01X39399025Y-11326758D01*
G01X39399025Y-11326758D01*
G01X39341245Y-11320878D01*
G01X39295405Y-11303238D01*
G01X39261505Y-11273838D01*
G01X39258107Y-11269336D01*
G01X39258107Y-11269336D01*
G01X39232217Y-11211490D01*
G01X39220318Y-11149443D01*
G01X39216968Y-11105731D01*
G01X39216799Y-11097656D01*
G01X39216799Y-11097656D01*
G01X39217605Y-11020783D01*
G01X39218242Y-10955375D01*
G01X39218709Y-10901431D01*
G01X39219007Y-10858951D01*
G01X39219137Y-10827936D01*
G01X39219142Y-10821680D01*
G01X39219142Y-10821680D01*
G01X39194740Y-10823460D01*
G01X39127859Y-10828799D01*
G01X39107228Y-10830469D01*
G01X39107228Y-10830469D01*
G01X39103713Y-10800000D01*
G37*
G36*
G01X39525588Y-10800000D02*
G01X39525588Y-10800000D01*
G01X39543459Y-10764844D01*
G01X39543459Y-10764844D01*
G01X39600466Y-10757279D01*
G01X39604689Y-10757227D01*
G01X39638674Y-10757227D01*
G01X39638674Y-10757227D01*
G01X39636469Y-10699942D01*
G01X39633419Y-10650102D01*
G01X39631057Y-10622461D01*
G01X39631057Y-10622461D01*
G01X39670900Y-10618946D01*
G01X39670900Y-10618946D01*
G01X39719135Y-10635399D01*
G01X39728322Y-10664649D01*
G01X39728322Y-10664649D01*
G01X39726955Y-10700428D01*
G01X39723635Y-10758399D01*
G01X39723635Y-10758399D01*
G01X39793361Y-10757996D01*
G01X39850197Y-10756787D01*
G01X39894142Y-10754773D01*
G01X39925197Y-10751953D01*
G01X39925197Y-10751953D01*
G01X39925197Y-10751953D01*
G01X39929885Y-10780078D01*
G01X39929885Y-10780078D01*
G01X39917287Y-10812305D01*
G01X39917287Y-10812305D01*
G01X39877150Y-10821680D01*
G01X39877150Y-10821680D01*
G01X39842040Y-10822326D01*
G01X39790850Y-10822716D01*
G01X39723580Y-10822852D01*
G01X39721291Y-10822852D01*
G01X39721291Y-10822852D01*
G01X39720485Y-10872545D01*
G01X39719848Y-10923212D01*
G01X39719380Y-10974851D01*
G01X39719082Y-11027464D01*
G01X39718953Y-11081050D01*
G01X39718947Y-11095313D01*
G01X39718947Y-11095313D01*
G01X39721985Y-11160412D01*
G01X39731097Y-11207211D01*
G01X39742385Y-11230957D01*
G01X39742385Y-11230957D01*
G01X39797452Y-11261067D01*
G01X39819728Y-11263477D01*
G01X39819728Y-11263477D01*
G01X39869028Y-11253272D01*
G01X39905861Y-11227149D01*
G01X39905861Y-11227149D01*
G01X39927541Y-11270508D01*
G01X39927541Y-11270508D01*
G01X39900682Y-11309009D01*
G01X39896486Y-11311231D01*
G01X39896486Y-11311231D01*
G01X39834778Y-11326092D01*
G01X39820900Y-11326758D01*
G01X39820900Y-11326758D01*
G01X39763120Y-11320878D01*
G01X39717280Y-11303238D01*
G01X39683380Y-11273838D01*
G01X39679982Y-11269336D01*
G01X39679982Y-11269336D01*
G01X39654092Y-11211490D01*
G01X39642193Y-11149443D01*
G01X39638843Y-11105731D01*
G01X39638674Y-11097656D01*
G01X39638674Y-11097656D01*
G01X39639480Y-11020783D01*
G01X39640117Y-10955375D01*
G01X39640584Y-10901431D01*
G01X39640882Y-10858951D01*
G01X39641012Y-10827936D01*
G01X39641017Y-10821680D01*
G01X39641017Y-10821680D01*
G01X39616615Y-10823460D01*
G01X39549734Y-10828799D01*
G01X39529103Y-10830469D01*
G01X39529103Y-10830469D01*
G01X39525588Y-10800000D01*
G37*
G36*
G01X40001369Y-11036719D02*
G01X40001369Y-11036719D01*
G01X40004857Y-10981221D01*
G01X40015322Y-10930743D01*
G01X40032763Y-10885284D01*
G01X40057180Y-10844845D01*
G01X40073439Y-10824903D01*
G01X40073439Y-10824903D01*
G01X40130797Y-10780032D01*
G01X40190181Y-10756168D01*
G01X40238224Y-10746678D01*
G01X40261562Y-10744927D01*
G01X40262111Y-10744922D01*
G01X40262111Y-10744922D01*
G01X40315993Y-10749529D01*
G01X40364576Y-10763350D01*
G01X40407861Y-10786384D01*
G01X40445846Y-10818632D01*
G01X40451662Y-10824903D01*
G01X40451662Y-10824903D01*
G01X40489377Y-10883263D01*
G01X40510834Y-10944947D01*
G01X40520618Y-10998218D01*
G01X40523315Y-11031341D01*
G01X40523439Y-11036719D01*
G01X40523439Y-11036719D01*
G01X40513795Y-11118996D01*
G01X40491848Y-11182610D01*
G01X40468079Y-11225637D01*
G01X40452967Y-11246151D01*
G01X40451662Y-11247656D01*
G01X40451662Y-11247656D01*
G01X40394298Y-11292034D01*
G01X40334622Y-11315636D01*
G01X40286216Y-11325022D01*
G01X40262666Y-11326753D01*
G01X40262111Y-11326758D01*
G01X40262111Y-11326758D01*
G01X40208707Y-11322202D01*
G01X40160434Y-11308533D01*
G01X40117290Y-11285752D01*
G01X40079276Y-11253858D01*
G01X40073439Y-11247656D01*
G01X40073439Y-11247656D01*
G01X40035570Y-11189758D01*
G01X40014026Y-11128337D01*
G01X40004202Y-11075185D01*
G01X40001494Y-11042095D01*
G01X40001369Y-11036719D01*
G37*
%LPC*%
G36*
G01X40085744Y-11019727D02*
G01X40085744Y-11019727D01*
G01X40089396Y-11074766D01*
G01X40100352Y-11124386D01*
G01X40118612Y-11168584D01*
G01X40132326Y-11191406D01*
G01X40132326Y-11191406D01*
G01X40186100Y-11239342D01*
G01X40237966Y-11257267D01*
G01X40262086Y-11259961D01*
G01X40262111Y-11259961D01*
G01X40262111Y-11259961D01*
G01X40314821Y-11253459D01*
G01X40358995Y-11233951D01*
G01X40392775Y-11203711D01*
G01X40392775Y-11203711D01*
G01X40424911Y-11142492D01*
G01X40437463Y-11084038D01*
G01X40439647Y-11054153D01*
G01X40439650Y-11053711D01*
G01X40439650Y-11053711D01*
G01X40435883Y-10998625D01*
G01X40424583Y-10948869D01*
G01X40405748Y-10904440D01*
G01X40391603Y-10881445D01*
G01X40391603Y-10881445D01*
G01X40337253Y-10833100D01*
G01X40285843Y-10815022D01*
G01X40262136Y-10812305D01*
G01X40262111Y-10812305D01*
G01X40262111Y-10812305D01*
G01X40209470Y-10818875D01*
G01X40165498Y-10838586D01*
G01X40132033Y-10869141D01*
G01X40132033Y-10869141D01*
G01X40100299Y-10930762D01*
G01X40087904Y-10989373D01*
G01X40085747Y-11019285D01*
G01X40085744Y-11019727D01*
G37*
%LPD*%
G36*
G01X40649416Y-10763086D02*
G01X40649416Y-10763086D01*
G01X40692775Y-10753711D01*
G01X40692775Y-10753711D01*
G01X40736199Y-10771139D01*
G01X40747853Y-10813477D01*
G01X40747853Y-10813477D01*
G01X40788430Y-10786231D01*
G01X40836330Y-10764258D01*
G01X40836330Y-10764258D01*
G01X40836330Y-10764258D01*
G01X40905471Y-10747339D01*
G01X40935939Y-10744922D01*
G01X40935939Y-10744922D01*
G01X40935939Y-10744922D01*
G01X40991140Y-10752411D01*
G01X41033953Y-10774878D01*
G01X41064377Y-10812323D01*
G01X41069533Y-10822852D01*
G01X41069533Y-10822852D01*
G01X41105586Y-10794630D01*
G01X41153158Y-10770550D01*
G01X41160060Y-10767774D01*
G01X41160060Y-10767774D01*
G01X41230588Y-10748724D01*
G01X41268422Y-10744945D01*
G01X41269924Y-10744922D01*
G01X41269924Y-10744922D01*
G01X41322450Y-10752693D01*
G01X41365562Y-10776004D01*
G01X41375685Y-10785059D01*
G01X41375685Y-10785059D01*
G01X41406225Y-10842715D01*
G01X41415692Y-10898621D01*
G01X41416408Y-10914258D01*
G01X41416408Y-10914258D01*
G01X41415718Y-10944474D01*
G01X41414357Y-11000684D01*
G01X41414357Y-11000684D01*
G01X41412749Y-11081867D01*
G01X41412323Y-11122943D01*
G01X41412307Y-11128125D01*
G01X41412307Y-11128125D01*
G01X41413914Y-11186735D01*
G01X41418738Y-11239189D01*
G01X41426777Y-11285487D01*
G01X41432814Y-11309180D01*
G01X41432814Y-11309180D01*
G01X41385939Y-11318555D01*
G01X41385939Y-11318555D01*
G01X41341115Y-11304785D01*
G01X41341115Y-11304785D01*
G01X41327346Y-11257617D01*
G01X41327346Y-11257617D01*
G01X41327346Y-11257617D01*
G01X41327683Y-11223189D01*
G01X41328697Y-11173670D01*
G01X41330386Y-11109061D01*
G01X41330861Y-11092383D01*
G01X41330861Y-11092383D01*
G01X41333411Y-10997209D01*
G01X41334282Y-10954964D01*
G01X41334377Y-10946485D01*
G01X41334377Y-10946485D01*
G01X41328164Y-10889939D01*
G01X41309526Y-10849184D01*
G01X41306252Y-10845117D01*
G01X41306252Y-10845117D01*
G01X41249524Y-10814251D01*
G01X41232424Y-10812305D01*
G01X41232424Y-10812305D01*
G01X41188292Y-10818386D01*
G01X41142359Y-10836630D01*
G01X41094624Y-10867037D01*
G01X41083596Y-10875586D01*
G01X41083596Y-10875586D01*
G01X41084477Y-10940422D01*
G01X41085151Y-10997609D01*
G01X41085618Y-11047148D01*
G01X41085879Y-11089038D01*
G01X41085939Y-11115821D01*
G01X41085939Y-11115821D01*
G01X41086454Y-11174077D01*
G01X41087999Y-11227580D01*
G01X41090574Y-11276330D01*
G01X41093557Y-11313867D01*
G01X41093557Y-11313867D01*
G01X41052541Y-11317383D01*
G01X41052541Y-11317383D01*
G01X41006419Y-11299815D01*
G01X40998635Y-11271680D01*
G01X40998635Y-11271680D01*
G01X41000392Y-11223340D01*
G01X41000392Y-11223340D01*
G01X41002254Y-11159405D01*
G01X41003235Y-11109466D01*
G01X41003322Y-11104102D01*
G01X41003322Y-11104102D01*
G01X41004126Y-11032458D01*
G01X41004439Y-10974250D01*
G01X41004494Y-10946873D01*
G01X41004494Y-10946485D01*
G01X41004494Y-10946485D01*
G01X40997364Y-10885782D01*
G01X40975975Y-10843220D01*
G01X40940327Y-10818799D01*
G01X40899025Y-10812305D01*
G01X40899025Y-10812305D01*
G01X40855508Y-10818668D01*
G01X40809963Y-10837756D01*
G01X40762392Y-10869571D01*
G01X40751369Y-10878516D01*
G01X40751369Y-10878516D01*
G01X40752287Y-10946107D01*
G01X40752978Y-11005019D01*
G01X40753442Y-11055254D01*
G01X40753679Y-11096811D01*
G01X40753713Y-11115821D01*
G01X40753713Y-11115821D01*
G01X40754188Y-11174077D01*
G01X40755614Y-11227580D01*
G01X40757991Y-11276330D01*
G01X40760744Y-11313867D01*
G01X40760744Y-11313867D01*
G01X40720314Y-11317383D01*
G01X40720314Y-11317383D01*
G01X40674192Y-11299815D01*
G01X40666408Y-11271680D01*
G01X40666408Y-11271680D01*
G01X40667360Y-11240731D01*
G01X40669338Y-11183496D01*
G01X40669338Y-11183496D01*
G01X40671305Y-11108533D01*
G01X40672107Y-11048688D01*
G01X40672266Y-11018569D01*
G01X40672267Y-11017383D01*
G01X40672267Y-11017383D01*
G01X40671353Y-10944211D01*
G01X40668611Y-10882196D01*
G01X40664041Y-10831336D01*
G01X40657642Y-10791633D01*
G01X40649416Y-10763086D01*
G01X40649416Y-10763086D01*
G37*
G36*
G01X41828908Y-11231250D02*
G01X41828908Y-11231250D01*
G01X41850303Y-11195133D01*
G01X41882814Y-11180860D01*
G01X41882814Y-11180860D01*
G01X41909849Y-11220621D01*
G01X41939943Y-11239746D01*
G01X41939943Y-11239746D01*
G01X42006095Y-11257726D01*
G01X42035158Y-11259961D01*
G01X42035158Y-11259961D01*
G01X42102667Y-11245817D01*
G01X42118654Y-11237110D01*
G01X42118654Y-11237110D01*
G01X42148970Y-11182234D01*
G01X42150588Y-11166211D01*
G01X42150588Y-11166211D01*
G01X42132625Y-11121826D01*
G01X42118654Y-11111133D01*
G01X42118654Y-11111133D01*
G01X42058538Y-11086153D01*
G01X42041310Y-11081543D01*
G01X42041310Y-11081543D01*
G01X41974732Y-11064578D01*
G01X41950197Y-11057520D01*
G01X41950197Y-11057520D01*
G01X41891837Y-11024265D01*
G01X41872560Y-11005371D01*
G01X41872560Y-11005371D01*
G01X41845381Y-10943910D01*
G01X41840634Y-10904376D01*
G01X41840627Y-10903711D01*
G01X41840627Y-10903711D01*
G01X41849090Y-10855563D01*
G01X41874478Y-10814313D01*
G01X41902443Y-10789453D01*
G01X41902443Y-10789453D01*
G01X41967388Y-10757725D01*
G01X42021331Y-10746381D01*
G01X42042189Y-10744922D01*
G01X42042189Y-10744922D01*
G01X42091292Y-10749800D01*
G01X42139601Y-10764433D01*
G01X42152639Y-10770117D01*
G01X42152639Y-10770117D01*
G01X42201562Y-10817792D01*
G01X42206838Y-10839844D01*
G01X42206838Y-10839844D01*
G01X42185442Y-10877053D01*
G01X42152932Y-10890235D01*
G01X42152932Y-10890235D01*
G01X42125137Y-10851792D01*
G01X42098732Y-10833985D01*
G01X42098732Y-10833985D01*
G01X42034337Y-10814029D01*
G01X42013478Y-10812305D01*
G01X42013478Y-10812305D01*
G01X41963515Y-10822300D01*
G01X41942580Y-10834570D01*
G01X41942580Y-10834570D01*
G01X41913504Y-10887932D01*
G01X41912697Y-10897266D01*
G01X41912697Y-10897266D01*
G01X41930184Y-10941822D01*
G01X41944631Y-10953516D01*
G01X41944631Y-10953516D01*
G01X42003946Y-10979735D01*
G01X42021974Y-10984863D01*
G01X42021974Y-10984863D01*
G01X42087576Y-11002082D01*
G01X42113088Y-11009473D01*
G01X42113088Y-11009473D01*
G01X42172221Y-11042077D01*
G01X42190724Y-11059278D01*
G01X42190724Y-11059278D01*
G01X42218666Y-11119812D01*
G01X42222658Y-11153320D01*
G01X42222658Y-11153320D01*
G01X42222658Y-11153320D01*
G01X42215580Y-11206386D01*
G01X42194345Y-11250037D01*
G01X42161428Y-11282520D01*
G01X42161428Y-11282520D01*
G01X42097112Y-11313453D01*
G01X42040857Y-11325019D01*
G01X42015847Y-11326758D01*
G01X42015822Y-11326758D01*
G01X42015822Y-11326758D01*
G01X41962527Y-11322781D01*
G01X41913970Y-11310851D01*
G01X41885744Y-11299219D01*
G01X41885744Y-11299219D01*
G01X41834440Y-11251725D01*
G01X41828908Y-11231250D01*
G37*
G36*
G01X42325197Y-11036719D02*
G01X42325197Y-11036719D01*
G01X42328685Y-10981221D01*
G01X42339150Y-10930743D01*
G01X42356591Y-10885284D01*
G01X42381008Y-10844845D01*
G01X42397267Y-10824903D01*
G01X42397267Y-10824903D01*
G01X42454626Y-10780032D01*
G01X42514009Y-10756168D01*
G01X42562052Y-10746678D01*
G01X42585390Y-10744927D01*
G01X42585939Y-10744922D01*
G01X42585939Y-10744922D01*
G01X42639821Y-10749529D01*
G01X42688404Y-10763350D01*
G01X42731689Y-10786384D01*
G01X42769674Y-10818632D01*
G01X42775490Y-10824903D01*
G01X42775490Y-10824903D01*
G01X42813205Y-10883263D01*
G01X42834662Y-10944947D01*
G01X42844446Y-10998218D01*
G01X42847143Y-11031341D01*
G01X42847267Y-11036719D01*
G01X42847267Y-11036719D01*
G01X42837623Y-11118996D01*
G01X42815676Y-11182610D01*
G01X42791907Y-11225637D01*
G01X42776795Y-11246151D01*
G01X42775490Y-11247656D01*
G01X42775490Y-11247656D01*
G01X42718126Y-11292034D01*
G01X42658450Y-11315636D01*
G01X42610045Y-11325022D01*
G01X42586494Y-11326753D01*
G01X42585939Y-11326758D01*
G01X42585939Y-11326758D01*
G01X42532536Y-11322202D01*
G01X42484262Y-11308533D01*
G01X42441118Y-11285752D01*
G01X42403104Y-11253858D01*
G01X42397267Y-11247656D01*
G01X42397267Y-11247656D01*
G01X42359398Y-11189758D01*
G01X42337854Y-11128337D01*
G01X42328030Y-11075185D01*
G01X42325322Y-11042095D01*
G01X42325197Y-11036719D01*
G37*
%LPC*%
G36*
G01X42409572Y-11019727D02*
G01X42409572Y-11019727D01*
G01X42413224Y-11074766D01*
G01X42424180Y-11124386D01*
G01X42442440Y-11168584D01*
G01X42456154Y-11191406D01*
G01X42456154Y-11191406D01*
G01X42509928Y-11239342D01*
G01X42561794Y-11257267D01*
G01X42585915Y-11259961D01*
G01X42585939Y-11259961D01*
G01X42585939Y-11259961D01*
G01X42638649Y-11253459D01*
G01X42682823Y-11233951D01*
G01X42716603Y-11203711D01*
G01X42716603Y-11203711D01*
G01X42748739Y-11142492D01*
G01X42761291Y-11084038D01*
G01X42763475Y-11054153D01*
G01X42763478Y-11053711D01*
G01X42763478Y-11053711D01*
G01X42759712Y-10998625D01*
G01X42748411Y-10948869D01*
G01X42729577Y-10904440D01*
G01X42715432Y-10881445D01*
G01X42715432Y-10881445D01*
G01X42661081Y-10833100D01*
G01X42609671Y-10815022D01*
G01X42585964Y-10812305D01*
G01X42585939Y-10812305D01*
G01X42585939Y-10812305D01*
G01X42533298Y-10818875D01*
G01X42489326Y-10838586D01*
G01X42455861Y-10869141D01*
G01X42455861Y-10869141D01*
G01X42424127Y-10930762D01*
G01X42411732Y-10989373D01*
G01X42409575Y-11019285D01*
G01X42409572Y-11019727D01*
G37*
%LPD*%
G36*
G01X42973244Y-10426758D02*
G01X42973244Y-10426758D01*
G01X43015432Y-10423242D01*
G01X43015432Y-10423242D01*
G01X43062556Y-10440811D01*
G01X43070510Y-10468946D01*
G01X43070510Y-10468946D01*
G01X43069440Y-10509589D01*
G01X43068752Y-10533106D01*
G01X43068752Y-10533106D01*
G01X43066910Y-10597525D01*
G01X43065218Y-10658741D01*
G01X43064370Y-10689969D01*
G01X43064357Y-10690430D01*
G01X43064357Y-10690430D01*
G01X43062789Y-10764936D01*
G01X43062012Y-10829009D01*
G01X43061749Y-10872454D01*
G01X43061721Y-10885547D01*
G01X43061721Y-11072461D01*
G01X43061721Y-11072461D01*
G01X43062728Y-11135781D01*
G01X43065752Y-11191866D01*
G01X43070790Y-11240715D01*
G01X43077845Y-11282330D01*
G01X43084572Y-11309180D01*
G01X43084572Y-11309180D01*
G01X43039455Y-11318555D01*
G01X43039455Y-11318555D01*
G01X42993166Y-11304199D01*
G01X42993166Y-11304199D01*
G01X42980275Y-11256446D01*
G01X42980275Y-11256446D01*
G01X42980275Y-11256446D01*
G01X42980403Y-11228682D01*
G01X42980786Y-11178649D01*
G01X42981424Y-11106347D01*
G01X42981447Y-11103809D01*
G01X42981447Y-11103809D01*
G01X42982163Y-11014596D01*
G01X42982505Y-10953343D01*
G01X42982611Y-10919946D01*
G01X42982619Y-10913086D01*
G01X42982619Y-10773633D01*
G01X42982619Y-10773633D01*
G01X42982408Y-10693661D01*
G01X42981775Y-10623551D01*
G01X42980721Y-10563302D01*
G01X42979244Y-10512914D01*
G01X42977346Y-10472388D01*
G01X42975025Y-10441723D01*
G01X42973244Y-10426758D01*
G37*
G36*
G01X43210549Y-11036719D02*
G01X43210549Y-11036719D01*
G01X43214122Y-10981651D01*
G01X43224842Y-10931433D01*
G01X43242708Y-10886065D01*
G01X43267721Y-10845546D01*
G01X43284377Y-10825488D01*
G01X43284377Y-10825488D01*
G01X43343355Y-10778911D01*
G01X43401125Y-10754993D01*
G01X43445052Y-10746181D01*
G01X43462502Y-10744922D01*
G01X43462502Y-10744922D01*
G01X43462502Y-10744922D01*
G01X43510968Y-10749663D01*
G01X43558350Y-10763888D01*
G01X43601955Y-10785938D01*
G01X43601955Y-10785938D01*
G01X43603483Y-10727823D01*
G01X43604223Y-10679360D01*
G01X43604299Y-10661133D01*
G01X43604299Y-10661133D01*
G01X43603845Y-10599114D01*
G01X43602484Y-10542993D01*
G01X43600215Y-10492771D01*
G01X43597039Y-10448448D01*
G01X43594924Y-10426758D01*
G01X43594924Y-10426758D01*
G01X43637697Y-10423242D01*
G01X43637697Y-10423242D01*
G01X43683819Y-10440811D01*
G01X43691603Y-10468946D01*
G01X43691603Y-10468946D01*
G01X43691413Y-10491874D01*
G01X43690842Y-10527704D01*
G01X43689890Y-10576438D01*
G01X43688557Y-10638075D01*
G01X43686844Y-10712615D01*
G01X43686330Y-10734375D01*
G01X43686330Y-10734375D01*
G01X43684182Y-10831055D01*
G01X43682715Y-10908568D01*
G01X43681798Y-10967908D01*
G01X43681303Y-11010069D01*
G01X43681099Y-11036044D01*
G01X43681057Y-11046827D01*
G01X43681057Y-11047266D01*
G01X43681057Y-11047266D01*
G01X43681881Y-11118401D01*
G01X43684356Y-11179510D01*
G01X43688481Y-11230593D01*
G01X43694256Y-11271650D01*
G01X43701680Y-11302680D01*
G01X43703908Y-11309180D01*
G01X43703908Y-11309180D01*
G01X43658205Y-11318555D01*
G01X43658205Y-11318555D01*
G01X43616835Y-11299812D01*
G01X43605471Y-11258789D01*
G01X43605471Y-11258789D01*
G01X43562926Y-11292495D01*
G01X43518212Y-11314768D01*
G01X43471331Y-11325609D01*
G01X43449611Y-11326758D01*
G01X43448439Y-11326758D01*
G01X43448439Y-11326758D01*
G01X43400174Y-11321213D01*
G01X43355315Y-11304577D01*
G01X43313862Y-11276850D01*
G01X43281447Y-11244727D01*
G01X43281447Y-11244727D01*
G01X43242916Y-11183219D01*
G01X43221713Y-11120167D01*
G01X43212661Y-11067976D01*
G01X43210585Y-11039051D01*
G01X43210549Y-11036719D01*
G37*
%LPC*%
G36*
G01X43294924Y-11019727D02*
G01X43294924Y-11019727D01*
G01X43298597Y-11074536D01*
G01X43309618Y-11123793D01*
G01X43327985Y-11167496D01*
G01X43345314Y-11194922D01*
G01X43345314Y-11194922D01*
G01X43402007Y-11244650D01*
G01X43450388Y-11261626D01*
G01X43467189Y-11263477D01*
G01X43467189Y-11263477D01*
G01X43513217Y-11256011D01*
G01X43557712Y-11233614D01*
G01X43600677Y-11196286D01*
G01X43601955Y-11194922D01*
G01X43601955Y-11194922D01*
G01X43601305Y-11108077D01*
G01X43600760Y-11033520D01*
G01X43600320Y-10971249D01*
G01X43599986Y-10921266D01*
G01X43599758Y-10883570D01*
G01X43599635Y-10858160D01*
G01X43599611Y-10848047D01*
G01X43599611Y-10848047D01*
G01X43550419Y-10825605D01*
G01X43502474Y-10814035D01*
G01X43475978Y-10812305D01*
G01X43475978Y-10812305D01*
G01X43423066Y-10818875D01*
G01X43378282Y-10838586D01*
G01X43343557Y-10869141D01*
G01X43343557Y-10869141D01*
G01X43310215Y-10930762D01*
G01X43297193Y-10989373D01*
G01X43294927Y-11019285D01*
G01X43294924Y-11019727D01*
G37*
%LPD*%
G36*
G01X43829299Y-11039063D02*
G01X43829299Y-11039063D01*
G01X43832826Y-10982402D01*
G01X43843407Y-10931530D01*
G01X43861043Y-10886445D01*
G01X43885733Y-10847149D01*
G01X43909279Y-10821094D01*
G01X43909279Y-10821094D01*
G01X43972364Y-10777057D01*
G01X44033168Y-10754444D01*
G01X44078977Y-10746112D01*
G01X44097072Y-10744922D01*
G01X44097072Y-10744922D01*
G01X44097072Y-10744922D01*
G01X44150391Y-10750409D01*
G01X44196395Y-10766868D01*
G01X44233010Y-10792383D01*
G01X44233010Y-10792383D01*
G01X44273894Y-10852074D01*
G01X44284741Y-10896689D01*
G01X44285158Y-10903711D01*
G01X44285158Y-10903711D01*
G01X44278530Y-10956495D01*
G01X44268459Y-10981641D01*
G01X44268459Y-10981641D01*
G01X44228950Y-11027543D01*
G01X44224807Y-11030567D01*
G01X44224807Y-11030567D01*
G01X44165689Y-11053781D01*
G01X44146877Y-11058106D01*
G01X44146877Y-11058106D01*
G01X44077663Y-11067737D01*
G01X44046682Y-11070117D01*
G01X44046682Y-11070117D01*
G01X44046682Y-11070117D01*
G01X43981529Y-11071929D01*
G01X43927660Y-11072436D01*
G01X43917189Y-11072461D01*
G01X43917189Y-11072461D01*
G01X43927391Y-11126934D01*
G01X43945247Y-11173210D01*
G01X43969045Y-11209278D01*
G01X43969045Y-11209278D01*
G01X44025850Y-11247882D01*
G01X44075553Y-11259260D01*
G01X44087111Y-11259961D01*
G01X44087111Y-11259961D01*
G01X44143426Y-11252714D01*
G01X44186466Y-11230971D01*
G01X44214846Y-11197266D01*
G01X44214846Y-11197266D01*
G01X44257702Y-11228981D01*
G01X44262307Y-11247656D01*
G01X44262307Y-11247656D01*
G01X44242689Y-11285485D01*
G01X44207814Y-11305078D01*
G01X44207814Y-11305078D01*
G01X44139821Y-11322305D01*
G01X44092021Y-11326632D01*
G01X44085939Y-11326758D01*
G01X44085939Y-11326758D01*
G01X44031978Y-11322309D01*
G01X43983181Y-11308960D01*
G01X43939547Y-11286713D01*
G01X43901076Y-11255567D01*
G01X43901076Y-11255567D01*
G01X43901076Y-11255567D01*
G01X43863361Y-11200154D01*
G01X43841904Y-11137237D01*
G01X43832120Y-11080832D01*
G01X43829423Y-11044961D01*
G01X43829299Y-11039063D01*
G37*
%LPC*%
G36*
G01X43916017Y-11012695D02*
G01X43916017Y-11012695D01*
G01X43971513Y-11012288D01*
G01X44002150Y-11011524D01*
G01X44002150Y-11011524D01*
G01X44065109Y-11005895D01*
G01X44077736Y-11004199D01*
G01X44077736Y-11004199D01*
G01X44138809Y-10989272D01*
G01X44143947Y-10987207D01*
G01X44143947Y-10987207D01*
G01X44185209Y-10956206D01*
G01X44185256Y-10956153D01*
G01X44185256Y-10956153D01*
G01X44202535Y-10906481D01*
G01X44202541Y-10906055D01*
G01X44202541Y-10906055D01*
G01X44188758Y-10859602D01*
G01X44170900Y-10839258D01*
G01X44170900Y-10839258D01*
G01X44111743Y-10813071D01*
G01X44092385Y-10811133D01*
G01X44092385Y-10811133D01*
G01X44041940Y-10817871D01*
G01X43997272Y-10838085D01*
G01X43969338Y-10860352D01*
G01X43969338Y-10860352D01*
G01X43934571Y-10916988D01*
G01X43919573Y-10976638D01*
G01X43916068Y-11011233D01*
G01X43916017Y-11012695D01*
G37*
%LPD*%
G36*
G01X44411135Y-10757227D02*
G01X44411135Y-10757227D01*
G01X44452150Y-10753711D01*
G01X44452150Y-10753711D01*
G01X44497030Y-10772191D01*
G01X44503713Y-10798828D01*
G01X44503713Y-10798828D01*
G01X44503127Y-10815235D01*
G01X44503127Y-10815235D01*
G01X44502541Y-10841016D01*
G01X44502541Y-10841016D01*
G01X44533185Y-10803284D01*
G01X44566701Y-10774512D01*
G01X44566701Y-10774512D01*
G01X44628943Y-10746961D01*
G01X44646096Y-10744922D01*
G01X44646096Y-10744922D01*
G01X44689455Y-10757520D01*
G01X44689455Y-10757520D01*
G01X44705275Y-10791797D01*
G01X44705275Y-10791797D01*
G01X44688324Y-10835976D01*
G01X44681252Y-10845703D01*
G01X44681252Y-10845703D01*
G01X44636301Y-10823860D01*
G01X44623244Y-10822852D01*
G01X44623244Y-10822852D01*
G01X44577015Y-10835405D01*
G01X44556154Y-10849219D01*
G01X44556154Y-10849219D01*
G01X44511860Y-10898903D01*
G01X44499611Y-10918946D01*
G01X44499611Y-10918946D01*
G01X44498965Y-10953673D01*
G01X44498575Y-11003714D01*
G01X44498439Y-11069070D01*
G01X44498439Y-11071289D01*
G01X44498439Y-11071289D01*
G01X44499447Y-11135439D01*
G01X44502470Y-11192043D01*
G01X44507509Y-11241101D01*
G01X44514563Y-11282615D01*
G01X44521291Y-11309180D01*
G01X44521291Y-11309180D01*
G01X44475588Y-11318555D01*
G01X44475588Y-11318555D01*
G01X44429248Y-11303337D01*
G01X44429006Y-11303028D01*
G01X44429006Y-11303028D01*
G01X44417003Y-11250868D01*
G01X44416994Y-11250000D01*
G01X44416994Y-11250000D01*
G01X44417323Y-11213786D01*
G01X44418166Y-11155371D01*
G01X44418166Y-11155371D01*
G01X44419121Y-11077329D01*
G01X44419335Y-11040347D01*
G01X44419338Y-11037891D01*
G01X44419338Y-11037891D01*
G01X44419072Y-10978117D01*
G01X44418275Y-10922407D01*
G01X44416946Y-10870759D01*
G01X44415085Y-10823173D01*
G01X44412693Y-10779651D01*
G01X44411135Y-10757227D01*
G37*
G36*
G01X44789064Y-10763086D02*
G01X44789064Y-10763086D01*
G01X44832424Y-10753711D01*
G01X44832424Y-10753711D01*
G01X44875847Y-10771139D01*
G01X44887502Y-10813477D01*
G01X44887502Y-10813477D01*
G01X44928078Y-10786231D01*
G01X44975978Y-10764258D01*
G01X44975978Y-10764258D01*
G01X44975978Y-10764258D01*
G01X45045119Y-10747339D01*
G01X45075588Y-10744922D01*
G01X45075588Y-10744922D01*
G01X45075588Y-10744922D01*
G01X45130788Y-10752411D01*
G01X45173601Y-10774878D01*
G01X45204026Y-10812323D01*
G01X45209182Y-10822852D01*
G01X45209182Y-10822852D01*
G01X45245234Y-10794630D01*
G01X45292807Y-10770550D01*
G01X45299709Y-10767774D01*
G01X45299709Y-10767774D01*
G01X45370237Y-10748724D01*
G01X45408070Y-10744945D01*
G01X45409572Y-10744922D01*
G01X45409572Y-10744922D01*
G01X45462099Y-10752693D01*
G01X45505210Y-10776004D01*
G01X45515334Y-10785059D01*
G01X45515334Y-10785059D01*
G01X45545874Y-10842715D01*
G01X45555341Y-10898621D01*
G01X45556057Y-10914258D01*
G01X45556057Y-10914258D01*
G01X45555367Y-10944474D01*
G01X45554006Y-11000684D01*
G01X45554006Y-11000684D01*
G01X45552398Y-11081867D01*
G01X45551971Y-11122943D01*
G01X45551955Y-11128125D01*
G01X45551955Y-11128125D01*
G01X45553563Y-11186735D01*
G01X45558386Y-11239189D01*
G01X45566425Y-11285487D01*
G01X45572463Y-11309180D01*
G01X45572463Y-11309180D01*
G01X45525588Y-11318555D01*
G01X45525588Y-11318555D01*
G01X45480764Y-11304785D01*
G01X45480764Y-11304785D01*
G01X45466994Y-11257617D01*
G01X45466994Y-11257617D01*
G01X45466994Y-11257617D01*
G01X45467332Y-11223189D01*
G01X45468345Y-11173670D01*
G01X45470035Y-11109061D01*
G01X45470510Y-11092383D01*
G01X45470510Y-11092383D01*
G01X45473060Y-10997209D01*
G01X45473930Y-10954964D01*
G01X45474025Y-10946485D01*
G01X45474025Y-10946485D01*
G01X45467812Y-10889939D01*
G01X45449174Y-10849184D01*
G01X45445900Y-10845117D01*
G01X45445900Y-10845117D01*
G01X45389173Y-10814251D01*
G01X45372072Y-10812305D01*
G01X45372072Y-10812305D01*
G01X45327941Y-10818386D01*
G01X45282007Y-10836630D01*
G01X45234272Y-10867037D01*
G01X45223244Y-10875586D01*
G01X45223244Y-10875586D01*
G01X45224125Y-10940422D01*
G01X45224799Y-10997609D01*
G01X45225267Y-11047148D01*
G01X45225528Y-11089038D01*
G01X45225588Y-11115821D01*
G01X45225588Y-11115821D01*
G01X45226103Y-11174077D01*
G01X45227647Y-11227580D01*
G01X45230222Y-11276330D01*
G01X45233205Y-11313867D01*
G01X45233205Y-11313867D01*
G01X45192189Y-11317383D01*
G01X45192189Y-11317383D01*
G01X45146067Y-11299815D01*
G01X45138283Y-11271680D01*
G01X45138283Y-11271680D01*
G01X45140041Y-11223340D01*
G01X45140041Y-11223340D01*
G01X45141902Y-11159405D01*
G01X45142883Y-11109466D01*
G01X45142971Y-11104102D01*
G01X45142971Y-11104102D01*
G01X45143774Y-11032458D01*
G01X45144088Y-10974250D01*
G01X45144142Y-10946873D01*
G01X45144142Y-10946485D01*
G01X45144142Y-10946485D01*
G01X45137013Y-10885782D01*
G01X45115624Y-10843220D01*
G01X45079975Y-10818799D01*
G01X45038674Y-10812305D01*
G01X45038674Y-10812305D01*
G01X44995156Y-10818668D01*
G01X44949612Y-10837756D01*
G01X44902040Y-10869571D01*
G01X44891017Y-10878516D01*
G01X44891017Y-10878516D01*
G01X44891935Y-10946107D01*
G01X44892626Y-11005019D01*
G01X44893090Y-11055254D01*
G01X44893327Y-11096811D01*
G01X44893361Y-11115821D01*
G01X44893361Y-11115821D01*
G01X44893837Y-11174077D01*
G01X44895262Y-11227580D01*
G01X44897639Y-11276330D01*
G01X44900392Y-11313867D01*
G01X44900392Y-11313867D01*
G01X44859963Y-11317383D01*
G01X44859963Y-11317383D01*
G01X44813841Y-11299815D01*
G01X44806057Y-11271680D01*
G01X44806057Y-11271680D01*
G01X44807008Y-11240731D01*
G01X44808986Y-11183496D01*
G01X44808986Y-11183496D01*
G01X44810953Y-11108533D01*
G01X44811755Y-11048688D01*
G01X44811915Y-11018569D01*
G01X44811916Y-11017383D01*
G01X44811916Y-11017383D01*
G01X44811002Y-10944211D01*
G01X44808260Y-10882196D01*
G01X44803689Y-10831336D01*
G01X44797291Y-10791633D01*
G01X44789064Y-10763086D01*
G01X44789064Y-10763086D01*
G37*
G36*
G01X45698439Y-11158008D02*
G01X45698439Y-11158008D01*
G01X45706203Y-11103268D01*
G01X45727150Y-11068067D01*
G01X45727150Y-11068067D01*
G01X45782207Y-11033286D01*
G01X45806252Y-11024414D01*
G01X45806252Y-11024414D01*
G01X45848280Y-11014610D01*
G01X45894960Y-11006336D01*
G01X45946290Y-10999595D01*
G01X46002272Y-10994384D01*
G01X46034767Y-10992188D01*
G01X46034767Y-10992188D01*
G01X46031681Y-10928537D01*
G01X46022422Y-10880318D01*
G01X46009572Y-10851270D01*
G01X46009572Y-10851270D01*
G01X45956584Y-10819521D01*
G01X45906788Y-10812412D01*
G01X45902346Y-10812305D01*
G01X45902346Y-10812305D01*
G01X45855705Y-10822194D01*
G01X45832912Y-10833692D01*
G01X45832912Y-10833692D01*
G01X45787413Y-10880288D01*
G01X45778713Y-10896094D01*
G01X45778713Y-10896094D01*
G01X45731175Y-10872107D01*
G01X45723635Y-10848047D01*
G01X45723635Y-10848047D01*
G01X45738063Y-10805860D01*
G01X45781350Y-10773047D01*
G01X45781350Y-10773047D01*
G01X45781350Y-10773047D01*
G01X45848381Y-10751955D01*
G01X45901939Y-10745416D01*
G01X45915822Y-10744922D01*
G01X45915822Y-10744922D01*
G01X45976182Y-10749302D01*
G01X46025262Y-10762442D01*
G01X46063062Y-10784342D01*
G01X46066994Y-10787696D01*
G01X46066994Y-10787696D01*
G01X46099257Y-10841612D01*
G01X46112404Y-10902647D01*
G01X46115024Y-10939067D01*
G01X46115041Y-10940625D01*
G01X46115041Y-10940625D01*
G01X46114450Y-10980078D01*
G01X46113869Y-11011231D01*
G01X46113869Y-11011231D01*
G01X46112804Y-11084393D01*
G01X46112697Y-11102930D01*
G01X46112697Y-11102930D01*
G01X46114125Y-11167676D01*
G01X46118410Y-11223633D01*
G01X46125551Y-11270801D01*
G01X46135549Y-11309180D01*
G01X46135549Y-11309180D01*
G01X46135549Y-11309180D01*
G01X46088674Y-11318555D01*
G01X46088674Y-11318555D01*
G01X46051467Y-11305957D01*
G01X46051467Y-11305957D01*
G01X46037111Y-11265821D01*
G01X46037111Y-11265821D01*
G01X45992041Y-11296899D01*
G01X45946127Y-11317008D01*
G01X45899369Y-11326149D01*
G01X45883596Y-11326758D01*
G01X45883596Y-11326758D01*
G01X45823111Y-11321291D01*
G01X45774549Y-11304888D01*
G01X45737910Y-11277551D01*
G01X45713192Y-11239278D01*
G01X45700396Y-11190071D01*
G01X45698439Y-11158008D01*
G37*
%LPC*%
G36*
G01X45782814Y-11158008D02*
G01X45782814Y-11158008D01*
G01X45792904Y-11210323D01*
G01X45813869Y-11237696D01*
G01X45813869Y-11237696D01*
G01X45874071Y-11261827D01*
G01X45892971Y-11263477D01*
G01X45892971Y-11263477D01*
G01X45943981Y-11257606D01*
G01X45989503Y-11239995D01*
G01X46029538Y-11210643D01*
G01X46030666Y-11209571D01*
G01X46030666Y-11209571D01*
G01X46029508Y-11161688D01*
G01X46029494Y-11153321D01*
G01X46029494Y-11153321D01*
G01X46030854Y-11102813D01*
G01X46033596Y-11053711D01*
G01X46033596Y-11053711D01*
G01X45982881Y-11059381D01*
G01X45981447Y-11059570D01*
G01X45981447Y-11059570D01*
G01X45934279Y-11065430D01*
G01X45934279Y-11065430D01*
G01X45890334Y-11072461D01*
G01X45890334Y-11072461D01*
G01X45855178Y-11082129D01*
G01X45855178Y-11082129D01*
G01X45824123Y-11095606D01*
G01X45824123Y-11095606D01*
G01X45802443Y-11111719D01*
G01X45802443Y-11111719D01*
G01X45786916Y-11131934D01*
G01X45786916Y-11131934D01*
G01X45782814Y-11158008D01*
G37*
%LPD*%
G36*
G01X46249221Y-11231250D02*
G01X46249221Y-11231250D01*
G01X46270616Y-11195133D01*
G01X46303127Y-11180860D01*
G01X46303127Y-11180860D01*
G01X46330162Y-11220621D01*
G01X46360256Y-11239746D01*
G01X46360256Y-11239746D01*
G01X46426408Y-11257726D01*
G01X46455471Y-11259961D01*
G01X46455471Y-11259961D01*
G01X46522979Y-11245817D01*
G01X46538967Y-11237110D01*
G01X46538967Y-11237110D01*
G01X46569283Y-11182234D01*
G01X46570900Y-11166211D01*
G01X46570900Y-11166211D01*
G01X46552938Y-11121826D01*
G01X46538967Y-11111133D01*
G01X46538967Y-11111133D01*
G01X46478850Y-11086153D01*
G01X46461623Y-11081543D01*
G01X46461623Y-11081543D01*
G01X46395045Y-11064578D01*
G01X46370510Y-11057520D01*
G01X46370510Y-11057520D01*
G01X46312149Y-11024265D01*
G01X46292873Y-11005371D01*
G01X46292873Y-11005371D01*
G01X46265694Y-10943910D01*
G01X46260946Y-10904376D01*
G01X46260939Y-10903711D01*
G01X46260939Y-10903711D01*
G01X46269402Y-10855563D01*
G01X46294790Y-10814313D01*
G01X46322756Y-10789453D01*
G01X46322756Y-10789453D01*
G01X46387700Y-10757725D01*
G01X46441643Y-10746381D01*
G01X46462502Y-10744922D01*
G01X46462502Y-10744922D01*
G01X46511605Y-10749800D01*
G01X46559914Y-10764433D01*
G01X46572951Y-10770117D01*
G01X46572951Y-10770117D01*
G01X46621875Y-10817792D01*
G01X46627150Y-10839844D01*
G01X46627150Y-10839844D01*
G01X46605755Y-10877053D01*
G01X46573244Y-10890235D01*
G01X46573244Y-10890235D01*
G01X46545450Y-10851792D01*
G01X46519045Y-10833985D01*
G01X46519045Y-10833985D01*
G01X46454649Y-10814029D01*
G01X46433791Y-10812305D01*
G01X46433791Y-10812305D01*
G01X46383827Y-10822300D01*
G01X46362892Y-10834570D01*
G01X46362892Y-10834570D01*
G01X46333816Y-10887932D01*
G01X46333010Y-10897266D01*
G01X46333010Y-10897266D01*
G01X46350496Y-10941822D01*
G01X46364943Y-10953516D01*
G01X46364943Y-10953516D01*
G01X46424259Y-10979735D01*
G01X46442287Y-10984863D01*
G01X46442287Y-10984863D01*
G01X46507888Y-11002082D01*
G01X46533400Y-11009473D01*
G01X46533400Y-11009473D01*
G01X46592534Y-11042077D01*
G01X46611037Y-11059278D01*
G01X46611037Y-11059278D01*
G01X46638979Y-11119812D01*
G01X46642971Y-11153321D01*
G01X46642971Y-11153321D01*
G01X46642971Y-11153321D01*
G01X46635892Y-11206386D01*
G01X46614658Y-11250037D01*
G01X46581740Y-11282520D01*
G01X46581740Y-11282520D01*
G01X46517425Y-11313453D01*
G01X46461170Y-11325019D01*
G01X46436160Y-11326758D01*
G01X46436135Y-11326758D01*
G01X46436135Y-11326758D01*
G01X46382840Y-11322781D01*
G01X46334283Y-11310851D01*
G01X46306057Y-11299219D01*
G01X46306057Y-11299219D01*
G01X46254753Y-11251725D01*
G01X46249221Y-11231250D01*
G37*
G36*
G01X46763674Y-10426758D02*
G01X46763674Y-10426758D01*
G01X46805861Y-10423242D01*
G01X46805861Y-10423242D01*
G01X46852986Y-10440811D01*
G01X46860939Y-10468946D01*
G01X46860939Y-10468946D01*
G01X46859484Y-10515324D01*
G01X46859182Y-10524024D01*
G01X46859182Y-10524024D01*
G01X46856990Y-10589412D01*
G01X46855194Y-10645094D01*
G01X46854787Y-10657910D01*
G01X46854787Y-10657910D01*
G01X46853055Y-10730866D01*
G01X46852319Y-10790358D01*
G01X46852153Y-10822766D01*
G01X46852150Y-10825196D01*
G01X46852150Y-10825196D01*
G01X46895510Y-10790076D01*
G01X46940627Y-10764990D01*
G01X46987502Y-10749939D01*
G01X47036135Y-10744922D01*
G01X47036135Y-10744922D01*
G01X47036135Y-10744922D01*
G01X47091261Y-10751428D01*
G01X47135068Y-10770945D01*
G01X47154787Y-10787696D01*
G01X47154787Y-10787696D01*
G01X47188358Y-10848449D01*
G01X47195439Y-10890036D01*
G01X47195510Y-10892578D01*
G01X47195510Y-10892578D01*
G01X47189373Y-10944050D01*
G01X47170964Y-10990068D01*
G01X47150685Y-11019141D01*
G01X47150685Y-11019141D01*
G01X47095389Y-11060294D01*
G01X47043678Y-11077912D01*
G01X47025002Y-11081250D01*
G01X47025002Y-11081250D01*
G01X47062037Y-11140770D01*
G01X47091392Y-11184330D01*
G01X47113067Y-11211930D01*
G01X47115236Y-11214258D01*
G01X47115236Y-11214258D01*
G01X47158254Y-11246108D01*
G01X47189650Y-11252930D01*
G01X47189650Y-11252930D01*
G01X47220705Y-11247656D01*
G01X47220705Y-11247656D01*
G01X47231838Y-11282813D01*
G01X47231838Y-11282813D01*
G01X47206642Y-11315625D01*
G01X47206642Y-11315625D01*
G01X47158596Y-11326758D01*
G01X47158596Y-11326758D01*
G01X47112612Y-11315633D01*
G01X47071877Y-11283985D01*
G01X47071877Y-11283985D01*
G01X47041701Y-11247949D01*
G01X47041701Y-11247949D01*
G01X47011892Y-11204996D01*
G01X47011818Y-11204883D01*
G01X47011818Y-11204883D01*
G01X46986623Y-11164453D01*
G01X46986623Y-11164453D01*
G01X46959338Y-11118300D01*
G01X46959084Y-11117871D01*
G01X46959084Y-11117871D01*
G01X46935353Y-11077149D01*
G01X46935353Y-11077149D01*
G01X46903713Y-11051953D01*
G01X46903713Y-11051953D01*
G01X46910158Y-11023242D01*
G01X46910158Y-11023242D01*
G01X46962548Y-11031574D01*
G01X46971096Y-11032031D01*
G01X46971096Y-11032031D01*
G01X47024575Y-11024616D01*
G01X47065833Y-11002368D01*
G01X47073342Y-10995410D01*
G01X47073342Y-10995410D01*
G01X47105869Y-10935454D01*
G01X47109377Y-10910742D01*
G01X47109377Y-10910742D01*
G01X47098330Y-10861305D01*
G01X47084767Y-10841016D01*
G01X47084767Y-10841016D01*
G01X47029229Y-10813536D01*
G01X47015627Y-10812305D01*
G01X47015627Y-10812305D01*
G01X46969256Y-10820022D01*
G01X46930373Y-10836914D01*
G01X46930373Y-10836914D01*
G01X46873407Y-10877639D01*
G01X46852150Y-10898438D01*
G01X46852150Y-11072461D01*
G01X46852150Y-11072461D01*
G01X46853158Y-11135781D01*
G01X46856181Y-11191866D01*
G01X46861220Y-11240715D01*
G01X46868274Y-11282330D01*
G01X46875002Y-11309180D01*
G01X46875002Y-11309180D01*
G01X46829885Y-11318555D01*
G01X46829885Y-11318555D01*
G01X46783596Y-11304199D01*
G01X46783596Y-11304199D01*
G01X46770705Y-11256445D01*
G01X46770705Y-11256445D01*
G01X46770705Y-11256445D01*
G01X46770833Y-11228682D01*
G01X46771215Y-11178649D01*
G01X46771854Y-11106347D01*
G01X46771877Y-11103809D01*
G01X46771877Y-11103809D01*
G01X46772593Y-11014596D01*
G01X46772935Y-10953343D01*
G01X46773041Y-10919946D01*
G01X46773049Y-10913086D01*
G01X46773049Y-10773633D01*
G01X46773049Y-10773633D01*
G01X46772838Y-10693661D01*
G01X46772205Y-10623551D01*
G01X46771150Y-10563302D01*
G01X46769674Y-10512914D01*
G01X46767775Y-10472388D01*
G01X46765455Y-10441723D01*
G01X46763674Y-10426758D01*
G37*

G04 Pad flashes *
%LPD*%
D11*

G04 end of program *
M02*
