G04                                                      *
G04 Greetings!                                           *
G04 This Gerber was generated by PCBmodE, an open source *
G04 PCB design software. Get it here:                    *
G04                                                      *
G04   http://pcbmode.com                                 *
G04                                                      *
G04 Also visit                                           *
G04                                                      *
G04   http://boldport.com                                *
G04                                                      *
G04 and follow @boldport / @pcbmode for updates!         *
G04                                                      *

G04 leading zeros omitted (L); absolute data (A); 6 integer digits and 6 fractional digits *
%FSLAX66Y66*%

G04 mode (MO): millimeters (MM) *
%MOMM*%

G04 Aperture definitions *
%ADD10C,0.001X*%
%ADD11C,0.001X*%
%ADD20C,0.05X*%

%LPD*%
D20*
G01X17671872Y-0000000D02*
G01X17671872Y-0000000D01*
G01X17669220Y-0000518D01*
G01X17661409Y-0002124D01*
G01X17648652Y-0004899D01*
G01X17631165Y-0008920D01*
G01X17609162Y-0014267D01*
G01X17582857Y-0021020D01*
G01X17552467Y-0029258D01*
G01X17518204Y-0039059D01*
G01X17480284Y-0050503D01*
G01X17438922Y-0063669D01*
G01X17394331Y-0078637D01*
G01X17346728Y-0095485D01*
G01X17296326Y-0114293D01*
G01X17243341Y-0135140D01*
G01X17187986Y-0158106D01*
G01X17130476Y-0183268D01*
G01X17071027Y-0210707D01*
G01X17009853Y-0240502D01*
G01X16947169Y-0272732D01*
G01X16883188Y-0307476D01*
G01X16818127Y-0344813D01*
G01X16752199Y-0384823D01*
G01X16685619Y-0427585D01*
G01X16618603Y-0473177D01*
G01X16551364Y-0521680D01*
G01X16551364Y-0521680D01*
G01X13768747Y-0162109D01*
G01X13768747Y-0162109D01*
G01X13765217Y-0163732D01*
G01X13754897Y-0168630D01*
G01X13738193Y-0176851D01*
G01X13715508Y-0188442D01*
G01X13687248Y-0203447D01*
G01X13653817Y-0221914D01*
G01X13615620Y-0243889D01*
G01X13573062Y-0269419D01*
G01X13526548Y-0298550D01*
G01X13476482Y-0331328D01*
G01X13423270Y-0367800D01*
G01X13367315Y-0408012D01*
G01X13309023Y-0452010D01*
G01X13248799Y-0499842D01*
G01X13187048Y-0551552D01*
G01X13124173Y-0607189D01*
G01X13081833Y-0646484D01*
G01X10095895Y-0903711D01*
G01X10095895Y-0903711D01*
G01X10092975Y-0905914D01*
G01X10084461Y-0912498D01*
G01X10070729Y-0923425D01*
G01X10052152Y-0938656D01*
G01X10029106Y-0958155D01*
G01X10001963Y-0981883D01*
G01X9971098Y-1009802D01*
G01X9936885Y-1041875D01*
G01X9899698Y-1078063D01*
G01X9859912Y-1118329D01*
G01X9817900Y-1162634D01*
G01X9774036Y-1210941D01*
G01X9728695Y-1263212D01*
G01X9682250Y-1319409D01*
G01X9635077Y-1379494D01*
G01X9587548Y-1443429D01*
G01X9540038Y-1511177D01*
G01X9492921Y-1582699D01*
G01X9446572Y-1657957D01*
G01X9401364Y-1736914D01*
G01X9401364Y-1736914D01*
G01X6830465Y-2598242D01*
G01X6830465Y-2598242D01*
G01X6827752Y-2601551D01*
G01X6819920Y-2611371D01*
G01X6807429Y-2627540D01*
G01X6790739Y-2649895D01*
G01X6770313Y-2678274D01*
G01X6746610Y-2712517D01*
G01X6720091Y-2752460D01*
G01X6691217Y-2797941D01*
G01X6660449Y-2848800D01*
G01X6628247Y-2904873D01*
G01X6595071Y-2965999D01*
G01X6561383Y-3032015D01*
G01X6527644Y-3102761D01*
G01X6494313Y-3178073D01*
G01X6461852Y-3257790D01*
G01X6430722Y-3341750D01*
G01X6410934Y-3400000D01*
G01X4101559Y-4807031D01*
G01X4101559Y-4807031D01*
G01X4099939Y-4810256D01*
G01X4095294Y-4819794D01*
G01X4087950Y-4835444D01*
G01X4078233Y-4857002D01*
G01X4066468Y-4884267D01*
G01X4052979Y-4917036D01*
G01X4038093Y-4955105D01*
G01X4022135Y-4998273D01*
G01X4005430Y-5046337D01*
G01X3988303Y-5099094D01*
G01X3971080Y-5156343D01*
G01X3954087Y-5217879D01*
G01X3937647Y-5283501D01*
G01X3922088Y-5353005D01*
G01X3907734Y-5426191D01*
G01X3894910Y-5502854D01*
G01X3883942Y-5582792D01*
G01X3875155Y-5665804D01*
G01X3868875Y-5751685D01*
G01X3865426Y-5840234D01*
G01X3865426Y-5840234D01*
G01X2158199Y-7535937D01*
G01X2158199Y-7535937D01*
G01X2157178Y-7540343D01*
G01X2154371Y-7553298D01*
G01X2150167Y-7574405D01*
G01X2144954Y-7603267D01*
G01X2139121Y-7639488D01*
G01X2133054Y-7682673D01*
G01X2127142Y-7732423D01*
G01X2121774Y-7788344D01*
G01X2117336Y-7850038D01*
G01X2114218Y-7917109D01*
G01X2112806Y-7989161D01*
G01X2113489Y-8065798D01*
G01X2116656Y-8146622D01*
G01X2122693Y-8231238D01*
G01X2124999Y-8256055D01*
G01X0728515Y-10413672D01*
G01X0728515Y-10413672D01*
G01X0728452Y-10419330D01*
G01X0728541Y-10435858D01*
G01X0729197Y-10462588D01*
G01X0730837Y-10498853D01*
G01X0733878Y-10543984D01*
G01X0738736Y-10597314D01*
G01X0745828Y-10658173D01*
G01X0755569Y-10725896D01*
G01X0768376Y-10799812D01*
G01X0784666Y-10879255D01*
G01X0804855Y-10963557D01*
G01X0829359Y-11052048D01*
G01X0843360Y-11097657D01*
G01X-0000000Y-13526563D01*
G01X-0000000Y-13526563D01*
G01X0001130Y-13531420D01*
G01X0004662Y-13545571D01*
G01X0010803Y-13568384D01*
G01X0019762Y-13599227D01*
G01X0031747Y-13637468D01*
G01X0046966Y-13682477D01*
G01X0065629Y-13733621D01*
G01X0087943Y-13790269D01*
G01X0114117Y-13851789D01*
G01X0144360Y-13917550D01*
G01X0178879Y-13986919D01*
G01X0217884Y-14059266D01*
G01X0261583Y-14133959D01*
G01X0310184Y-14210365D01*
G01X0324999Y-14232422D01*
G01X0069335Y-16541407D01*
G01X0069335Y-16541407D01*
G01X0071271Y-16545417D01*
G01X0077116Y-16557070D01*
G01X0086927Y-16575799D01*
G01X0100761Y-16601039D01*
G01X0118675Y-16632222D01*
G01X0140725Y-16668782D01*
G01X0166969Y-16710153D01*
G01X0197463Y-16755768D01*
G01X0232264Y-16805061D01*
G01X0271429Y-16857466D01*
G01X0315014Y-16912416D01*
G01X0363077Y-16969344D01*
G01X0415674Y-17027685D01*
G01X0472863Y-17086872D01*
G01X0534699Y-17146338D01*
G01X0601240Y-17205518D01*
G01X0648243Y-17244532D01*
G01X0904883Y-19295313D01*
G01X0904883Y-19295313D01*
G01X0908091Y-19299227D01*
G01X0917652Y-19310499D01*
G01X0933466Y-19328425D01*
G01X0955437Y-19352301D01*
G01X0983467Y-19381422D01*
G01X1017459Y-19415083D01*
G01X1057313Y-19452580D01*
G01X1102933Y-19493208D01*
G01X1154221Y-19536263D01*
G01X1211079Y-19581041D01*
G01X1273410Y-19626837D01*
G01X1341115Y-19672947D01*
G01X1376953Y-19695899D01*
G01X2111133Y-21777930D01*
G01X2111133Y-21777930D01*
G01X2114166Y-21780331D01*
G01X2123154Y-21787236D01*
G01X2137933Y-21798197D01*
G01X2158335Y-21812764D01*
G01X2184196Y-21830488D01*
G01X2215349Y-21850921D01*
G01X2251628Y-21873614D01*
G01X2292869Y-21898119D01*
G01X2338904Y-21923986D01*
G01X2389569Y-21950767D01*
G01X2444697Y-21978013D01*
G01X2504123Y-22005275D01*
G01X2567681Y-22032106D01*
G01X2635205Y-22058055D01*
G01X2706530Y-22082674D01*
G01X2781489Y-22105514D01*
G01X2833398Y-22119532D01*
G01X3921680Y-23794336D01*
G01X3921680Y-23794336D01*
G01X3926746Y-23796661D01*
G01X3941629Y-23803167D01*
G01X3965853Y-23813144D01*
G01X3998941Y-23825884D01*
G01X4040419Y-23840680D01*
G01X4089810Y-23856823D01*
G01X4146639Y-23873606D01*
G01X4210431Y-23890320D01*
G01X4280709Y-23906258D01*
G01X4356999Y-23920711D01*
G01X4438823Y-23932972D01*
G01X4525708Y-23942332D01*
G01X4570899Y-23945703D01*
G01X6000196Y-25333399D01*
G01X6000196Y-25333399D01*
G01X6005265Y-25334472D01*
G01X6020098Y-25337334D01*
G01X6044133Y-25341453D01*
G01X6076808Y-25346295D01*
G01X6117562Y-25351324D01*
G01X6165833Y-25356009D01*
G01X6221059Y-25359814D01*
G01X6282678Y-25362207D01*
G01X6350128Y-25362652D01*
G01X6422848Y-25360618D01*
G01X6500276Y-25355568D01*
G01X6581849Y-25346971D01*
G01X6667008Y-25334292D01*
G01X6755188Y-25316997D01*
G01X6780860Y-25311133D01*
G01X8304882Y-27216016D01*
G01X8304882Y-27216016D01*
G01X8311624Y-27215805D01*
G01X8331160Y-27214780D01*
G01X8362456Y-27212355D01*
G01X8404480Y-27207942D01*
G01X8456198Y-27200954D01*
G01X8516576Y-27190804D01*
G01X8584581Y-27176904D01*
G01X8659180Y-27158668D01*
G01X8739338Y-27135507D01*
G01X8824023Y-27106836D01*
G01X8824023Y-27106836D01*
G01X10620898Y-27705078D01*
G01X10620898Y-27705078D01*
G01X10626069Y-27703799D01*
G01X10641045Y-27699792D01*
G01X10665026Y-27692802D01*
G01X10697209Y-27682573D01*
G01X10736793Y-27668849D01*
G01X10782977Y-27651374D01*
G01X10834959Y-27629893D01*
G01X10891937Y-27604150D01*
G01X10953109Y-27573890D01*
G01X11017675Y-27538856D01*
G01X11084831Y-27498793D01*
G01X11153778Y-27453446D01*
G01X11188671Y-27428711D01*
G01X12863672Y-27592578D01*
G01X12863672Y-27592578D01*
G01X12869019Y-27589877D01*
G01X12884374Y-27581717D01*
G01X12908705Y-27568012D01*
G01X12940983Y-27548676D01*
G01X12980175Y-27523622D01*
G01X13025252Y-27492764D01*
G01X13075181Y-27456016D01*
G01X13128934Y-27413291D01*
G01X13185477Y-27364504D01*
G01X13243781Y-27309568D01*
G01X13302815Y-27248396D01*
G01X13309375Y-27241211D01*
G01X14992382Y-27027149D01*
G01X14992382Y-27027149D01*
G01X14996816Y-27023493D01*
G01X15009466Y-27012615D01*
G01X15029355Y-26994647D01*
G01X15055506Y-26969724D01*
G01X15086942Y-26937978D01*
G01X15122687Y-26899544D01*
G01X15161763Y-26854554D01*
G01X15203194Y-26803143D01*
G01X15246002Y-26745443D01*
G01X15289212Y-26681588D01*
G01X15331845Y-26611712D01*
G01X15372925Y-26535947D01*
G01X15392577Y-26495899D01*
G01X16804688Y-25962500D01*
G01X16793554Y-26105664D01*
G01X16793554Y-26105664D01*
G01X16796322Y-26169591D01*
G01X16799357Y-26233135D01*
G01X16802692Y-26296301D01*
G01X16806359Y-26359090D01*
G01X16810390Y-26421506D01*
G01X16814817Y-26483550D01*
G01X16819672Y-26545226D01*
G01X16824987Y-26606536D01*
G01X16830794Y-26667483D01*
G01X16837126Y-26728069D01*
G01X16844014Y-26788298D01*
G01X16851491Y-26848171D01*
G01X16859588Y-26907693D01*
G01X16868337Y-26966864D01*
G01X16877772Y-27025689D01*
G01X16887922Y-27084169D01*
G01X16898822Y-27142307D01*
G01X16910502Y-27200107D01*
G01X16922995Y-27257570D01*
G01X16936334Y-27314699D01*
G01X16950549Y-27371498D01*
G01X16965673Y-27427968D01*
G01X16981738Y-27484113D01*
G01X16998776Y-27539935D01*
G01X17016819Y-27595436D01*
G01X17035900Y-27650620D01*
G01X17056050Y-27705489D01*
G01X17077301Y-27760046D01*
G01X17099686Y-27814293D01*
G01X17123237Y-27868234D01*
G01X17147984Y-27921870D01*
G01X17173962Y-27975205D01*
G01X17201201Y-28028241D01*
G01X17229734Y-28080981D01*
G01X17259593Y-28133428D01*
G01X17290809Y-28185584D01*
G01X17323416Y-28237451D01*
G01X17357444Y-28289034D01*
G01X17392927Y-28340333D01*
G01X17429895Y-28391353D01*
G01X17468382Y-28442095D01*
G01X17508419Y-28492563D01*
G01X17550038Y-28542758D01*
G01X17593272Y-28592684D01*
G01X17638152Y-28642344D01*
G01X17684710Y-28691740D01*
G01X17732979Y-28740874D01*
G01X17782991Y-28789750D01*
G01X17834777Y-28838370D01*
G01X17888370Y-28886736D01*
G01X17943801Y-28934852D01*
G01X18001104Y-28982720D01*
G01X18060309Y-29030343D01*
G01X18121449Y-29077724D01*
G01X18184557Y-29124864D01*
G01X18249663Y-29171768D01*
G01X18316800Y-29218436D01*
G01X18386001Y-29264874D01*
G01X18457297Y-29311082D01*
G01X18530720Y-29357063D01*
G01X18606302Y-29402821D01*
G01X18684076Y-29448358D01*
G01X18764074Y-29493676D01*
G01X18846327Y-29538779D01*
G01X18930867Y-29583668D01*
G01X19017727Y-29628347D01*
G01X19106939Y-29672819D01*
G01X19198535Y-29717085D01*
G01X19292546Y-29761149D01*
G01X19389006Y-29805014D01*
G01X19487945Y-29848682D01*
G01X19589396Y-29892155D01*
G01X19693392Y-29935436D01*
G01X19799964Y-29978529D01*
G01X19909143Y-30021436D01*
G01X20020963Y-30064159D01*
G01X20135456Y-30106701D01*
G01X20252652Y-30149065D01*
G01X20372586Y-30191253D01*
G01X20495287Y-30233268D01*
G01X20620790Y-30275114D01*
G01X20749124Y-30316791D01*
G01X20880324Y-30358304D01*
G01X21014420Y-30399655D01*
G01X21151445Y-30440847D01*
G01X21291431Y-30481881D01*
G01X21434410Y-30522762D01*
G01X21580414Y-30563491D01*
G01X21729475Y-30604072D01*
G01X21881625Y-30644506D01*
G01X22036896Y-30684797D01*
G01X22195320Y-30724947D01*
G01X22356930Y-30764960D01*
G01X22521756Y-30804837D01*
G01X22689833Y-30844581D01*
G01X22861191Y-30884196D01*
G01X23035862Y-30923683D01*
G01X23213879Y-30963045D01*
G01X23395273Y-31002286D01*
G01X23580078Y-31041407D01*
G01X23580078Y-31041407D01*
G01X23580078Y-31041407D01*
G01X23760150Y-31080907D01*
G01X23935495Y-31122943D01*
G01X24106172Y-31167457D01*
G01X24272240Y-31214388D01*
G01X24433759Y-31263677D01*
G01X24590787Y-31315265D01*
G01X24743385Y-31369091D01*
G01X24891611Y-31425097D01*
G01X25035524Y-31483223D01*
G01X25175184Y-31543409D01*
G01X25310650Y-31605595D01*
G01X25441981Y-31669723D01*
G01X25569237Y-31735732D01*
G01X25692476Y-31803563D01*
G01X25811758Y-31873156D01*
G01X25927142Y-31944452D01*
G01X26038688Y-32017391D01*
G01X26146454Y-32091914D01*
G01X26250501Y-32167961D01*
G01X26350886Y-32245473D01*
G01X26447669Y-32324389D01*
G01X26540910Y-32404651D01*
G01X26630668Y-32486199D01*
G01X26717002Y-32568973D01*
G01X26799971Y-32652913D01*
G01X26879635Y-32737961D01*
G01X26956053Y-32824056D01*
G01X27029283Y-32911139D01*
G01X27099386Y-32999151D01*
G01X27166420Y-33088031D01*
G01X27230445Y-33177720D01*
G01X27291520Y-33268160D01*
G01X27349704Y-33359289D01*
G01X27405056Y-33451049D01*
G01X27457636Y-33543380D01*
G01X27507503Y-33636222D01*
G01X27554716Y-33729516D01*
G01X27599334Y-33823203D01*
G01X27641417Y-33917222D01*
G01X27681024Y-34011514D01*
G01X27718214Y-34106020D01*
G01X27753046Y-34200680D01*
G01X27785580Y-34295434D01*
G01X27815874Y-34390223D01*
G01X27843989Y-34484988D01*
G01X27869983Y-34579668D01*
G01X27893915Y-34674204D01*
G01X27915845Y-34768537D01*
G01X27935832Y-34862607D01*
G01X27953935Y-34956355D01*
G01X27970214Y-35049720D01*
G01X27984727Y-35142644D01*
G01X27997535Y-35235066D01*
G01X28008695Y-35326927D01*
G01X28018268Y-35418169D01*
G01X28026312Y-35508730D01*
G01X28032888Y-35598551D01*
G01X28038053Y-35687574D01*
G01X28041868Y-35775738D01*
G01X28044391Y-35862984D01*
G01X28045682Y-35949251D01*
G01X28045801Y-36034482D01*
G01X28044805Y-36118616D01*
G01X28042755Y-36201593D01*
G01X28039710Y-36283354D01*
G01X28035729Y-36363839D01*
G01X28030871Y-36442989D01*
G01X28025195Y-36520744D01*
G01X28018762Y-36597045D01*
G01X28011629Y-36671833D01*
G01X28003856Y-36745046D01*
G01X27995503Y-36816627D01*
G01X27986629Y-36886515D01*
G01X27977292Y-36954651D01*
G01X27967553Y-37020975D01*
G01X27957470Y-37085427D01*
G01X27947102Y-37147949D01*
G01X27936509Y-37208480D01*
G01X27925751Y-37266962D01*
G01X27914886Y-37323333D01*
G01X27903973Y-37377536D01*
G01X27893072Y-37429510D01*
G01X27882243Y-37479195D01*
G01X27871543Y-37526533D01*
G01X27861033Y-37571463D01*
G01X27850772Y-37613926D01*
G01X27840819Y-37653863D01*
G01X27831233Y-37691213D01*
G01X27822073Y-37725918D01*
G01X27813399Y-37757917D01*
G01X27805270Y-37787152D01*
G01X27797746Y-37813562D01*
G01X27790884Y-37837088D01*
G01X27784746Y-37857671D01*
G01X27779389Y-37875250D01*
G01X27774873Y-37889767D01*
G01X27771258Y-37901162D01*
G01X27768602Y-37909374D01*
G01X27766965Y-37914346D01*
G01X27766406Y-37916016D01*
G01X27766406Y-37916016D01*
G01X31335938Y-34610743D01*
G01X31335938Y-34610743D01*
G01X31336740Y-34607798D01*
G01X31339037Y-34599068D01*
G01X31342662Y-34584714D01*
G01X31347447Y-34564894D01*
G01X31353225Y-34539769D01*
G01X31359829Y-34509497D01*
G01X31367092Y-34474238D01*
G01X31374847Y-34434151D01*
G01X31382927Y-34389396D01*
G01X31391166Y-34340133D01*
G01X31399395Y-34286520D01*
G01X31407448Y-34228718D01*
G01X31415159Y-34166885D01*
G01X31422359Y-34101181D01*
G01X31428881Y-34031765D01*
G01X31434560Y-33958798D01*
G01X31439228Y-33882438D01*
G01X31442717Y-33802844D01*
G01X31444860Y-33720177D01*
G01X31445492Y-33634596D01*
G01X31444444Y-33546260D01*
G01X31441550Y-33455328D01*
G01X31436642Y-33361961D01*
G01X31429553Y-33266316D01*
G01X31420117Y-33168555D01*
G01X31420117Y-33168555D01*
G01X33857813Y-29604688D01*
G01X33857813Y-29604688D01*
G01X33857908Y-29602603D01*
G01X33858144Y-29596422D01*
G01X33858446Y-29586255D01*
G01X33858742Y-29572211D01*
G01X33858958Y-29554401D01*
G01X33859021Y-29532933D01*
G01X33858856Y-29507919D01*
G01X33858392Y-29479467D01*
G01X33857553Y-29447688D01*
G01X33856267Y-29412691D01*
G01X33854460Y-29374586D01*
G01X33852058Y-29333483D01*
G01X33848989Y-29289492D01*
G01X33845178Y-29242723D01*
G01X33840553Y-29193285D01*
G01X33835039Y-29141288D01*
G01X33828563Y-29086842D01*
G01X33821051Y-29030058D01*
G01X33812431Y-28971043D01*
G01X33802629Y-28909910D01*
G01X33791570Y-28846766D01*
G01X33779182Y-28781723D01*
G01X33765391Y-28714890D01*
G01X33750124Y-28646377D01*
G01X33733307Y-28576293D01*
G01X33714867Y-28504748D01*
G01X33694730Y-28431853D01*
G01X33672822Y-28357717D01*
G01X33649070Y-28282449D01*
G01X33623402Y-28206161D01*
G01X33595742Y-28128961D01*
G01X33566018Y-28050959D01*
G01X33534156Y-27972265D01*
G01X33523047Y-27945899D01*
G01X34894728Y-24357422D01*
G01X34894728Y-24357422D01*
G01X34894019Y-24353787D01*
G01X34891819Y-24343084D01*
G01X34888017Y-24325616D01*
G01X34882501Y-24301688D01*
G01X34875160Y-24271601D01*
G01X34865884Y-24235659D01*
G01X34854560Y-24194165D01*
G01X34841079Y-24147423D01*
G01X34825328Y-24095735D01*
G01X34807196Y-24039405D01*
G01X34786573Y-23978737D01*
G01X34763348Y-23914032D01*
G01X34737408Y-23845596D01*
G01X34708644Y-23773730D01*
G01X34676943Y-23698738D01*
G01X34642196Y-23620923D01*
G01X34604289Y-23540588D01*
G01X34563113Y-23458038D01*
G01X34518557Y-23373574D01*
G01X34470509Y-23287500D01*
G01X34470509Y-23287500D01*
G01X35086525Y-19230664D01*
G01X35086525Y-19230664D01*
G01X35085249Y-19227712D01*
G01X35081400Y-19219032D01*
G01X35074942Y-19204884D01*
G01X35065838Y-19185529D01*
G01X35054054Y-19161228D01*
G01X35039553Y-19132244D01*
G01X35022300Y-19098836D01*
G01X35002260Y-19061267D01*
G01X34979397Y-19019796D01*
G01X34953675Y-18974686D01*
G01X34925059Y-18926198D01*
G01X34893512Y-18874592D01*
G01X34859000Y-18820130D01*
G01X34821487Y-18763073D01*
G01X34780938Y-18703682D01*
G01X34737316Y-18642218D01*
G01X34690585Y-18578943D01*
G01X34640712Y-18514118D01*
G01X34587659Y-18448003D01*
G01X34531392Y-18380860D01*
G01X34471874Y-18312951D01*
G01X34409070Y-18244535D01*
G01X34342944Y-18175876D01*
G01X34273462Y-18107232D01*
G01X34200587Y-18038867D01*
G01X34200587Y-18038867D01*
G01X33879297Y-14340235D01*
G01X33879297Y-14340235D01*
G01X33877724Y-14338141D01*
G01X33873018Y-14331991D01*
G01X33865199Y-14321982D01*
G01X33854287Y-14308311D01*
G01X33840303Y-14291176D01*
G01X33823267Y-14270772D01*
G01X33803198Y-14247299D01*
G01X33780118Y-14220951D01*
G01X33754046Y-14191928D01*
G01X33725002Y-14160425D01*
G01X33693007Y-14126640D01*
G01X33658081Y-14090770D01*
G01X33620244Y-14053012D01*
G01X33579516Y-14013564D01*
G01X33535917Y-13972621D01*
G01X33489468Y-13930383D01*
G01X33440189Y-13887045D01*
G01X33388099Y-13842804D01*
G01X33333220Y-13797858D01*
G01X33275571Y-13752405D01*
G01X33215172Y-13706640D01*
G01X33152044Y-13660761D01*
G01X33086207Y-13614966D01*
G01X33017681Y-13569451D01*
G01X32946486Y-13524414D01*
G01X32946486Y-13524414D01*
G01X31815236Y-9999024D01*
G01X31815236Y-9999024D01*
G01X31812817Y-9996970D01*
G01X31805618Y-9990981D01*
G01X31793724Y-9981309D01*
G01X31777219Y-9968211D01*
G01X31756187Y-9951941D01*
G01X31730715Y-9932754D01*
G01X31700885Y-9910906D01*
G01X31666784Y-9886650D01*
G01X31628496Y-9860243D01*
G01X31586106Y-9831939D01*
G01X31539698Y-9801993D01*
G01X31489358Y-9770660D01*
G01X31435170Y-9738195D01*
G01X31377218Y-9704853D01*
G01X31315588Y-9670889D01*
G01X31250365Y-9636558D01*
G01X31181632Y-9602114D01*
G01X31109476Y-9567814D01*
G01X31033980Y-9533911D01*
G01X30955229Y-9500661D01*
G01X30873309Y-9468318D01*
G01X30788304Y-9437139D01*
G01X30700298Y-9407376D01*
G01X30609377Y-9379287D01*
G01X30515625Y-9353125D01*
G01X30515625Y-9353125D01*
G01X28806642Y-6536328D01*
G01X28806642Y-6536328D01*
G01X28803807Y-6534898D01*
G01X28795403Y-6530765D01*
G01X28781575Y-6524163D01*
G01X28762470Y-6515326D01*
G01X28738236Y-6504488D01*
G01X28709020Y-6491884D01*
G01X28674969Y-6477748D01*
G01X28636229Y-6462314D01*
G01X28592948Y-6445816D01*
G01X28545272Y-6428489D01*
G01X28493350Y-6410566D01*
G01X28437327Y-6392283D01*
G01X28377351Y-6373873D01*
G01X28313569Y-6355571D01*
G01X28246128Y-6337610D01*
G01X28175174Y-6320226D01*
G01X28100856Y-6303651D01*
G01X28023320Y-6288122D01*
G01X27942712Y-6273871D01*
G01X27859181Y-6261133D01*
G01X27859181Y-6261133D01*
G01X25435157Y-3709570D01*
G01X25435157Y-3709570D01*
G01X25431381Y-3708596D01*
G01X25420230Y-3705856D01*
G01X25401970Y-3701623D01*
G01X25376868Y-3696171D01*
G01X25345192Y-3689774D01*
G01X25307206Y-3682705D01*
G01X25263179Y-3675238D01*
G01X25213376Y-3667647D01*
G01X25158065Y-3660204D01*
G01X25097511Y-3653184D01*
G01X25031982Y-3646860D01*
G01X24961743Y-3641506D01*
G01X24887063Y-3637395D01*
G01X24808206Y-3634801D01*
G01X24725441Y-3633997D01*
G01X24639032Y-3635258D01*
G01X24549248Y-3638855D01*
G01X24456354Y-3645064D01*
G01X24360618Y-3654158D01*
G01X24262306Y-3666410D01*
G01X24262306Y-3666410D01*
G01X21658009Y-0933403D01*
G01X21658009Y-0933403D01*
G01X21645299Y-0933133D01*
G01X21612647Y-0933275D01*
G01X21568271Y-0935255D01*
G01X21520386Y-0940502D01*
G01X21477209Y-0950443D01*
G01X21446957Y-0966505D01*
G01X21437847Y-0990115D01*
G01X21458095Y-1022702D01*
G01X21515918Y-1065691D01*
G01X21619532Y-1120512D01*
G01X21619532Y-1120512D01*
G01X17671872Y-0000000D01*
G04 end of program *
M02*
