G04                                                      *
G04 Greetings!                                           *
G04 This Gerber was generated by PCBmodE, an open source *
G04 PCB design software. Get it here:                    *
G04                                                      *
G04   http://pcbmode.com                                 *
G04                                                      *
G04 Also visit                                           *
G04                                                      *
G04   http://boldport.com                                *
G04                                                      *
G04 and follow @boldport / @pcbmode for updates!         *
G04                                                      *

G04 leading zeros omitted (L); absolute data (A); 6 integer digits and 6 fractional digits *
%FSLAX66Y66*%

G04 mode (MO): millimeters (MM) *
%MOMM*%

G04 Aperture definitions *
%ADD10C,0.001X*%
%ADD11C,0.001X*%
%ADD20C,0.15X*%

%LPD*%
D20*
G01X28735924Y-31260307D02*
G01X30637444Y-33033503D01*
G01X29819046Y-33911127D01*
G01X27917526Y-32137931D01*
G01X28735924Y-31260307D01*
G36*
G01X29350596Y-32839886D02*
G01X28810151Y-32812955D01*
G01X29471570Y-32103669D01*
G01X29535838Y-32641238D01*
G37*
D20*
G01X31860865Y-18013676D02*
G01X34254177Y-19029577D01*
G01X33785300Y-20134183D01*
G01X31391987Y-19118282D01*
G01X31860865Y-18013676D01*
G36*
G01X32978714Y-19287765D02*
G01X32461651Y-19447301D01*
G01X32840592Y-18554572D01*
G01X33084843Y-19037740D01*
G37*
D20*
G01X28350773Y-10702577D02*
G01X30744086Y-9686676D01*
G01X31212963Y-10791282D01*
G01X28819651Y-11807183D01*
G01X28350773Y-10702577D01*
G36*
G01X30043800Y-10783519D02*
G01X29799378Y-11266286D01*
G01X29420437Y-10373557D01*
G01X29937670Y-10533495D01*
G37*
D20*
G01X16255456Y-3651747D02*
G01X17395220Y-1314882D01*
G01X18473773Y-1840928D01*
G01X17334008Y-4177792D01*
G01X16255456Y-3651747D01*
G36*
G01X17586302Y-2602110D02*
G01X17718558Y-3126814D01*
G01X16846885Y-2701670D01*
G01X17342174Y-2483041D01*
G37*
D20*
G01X8300040Y-6062730D02*
G01X7410788Y-3619529D01*
G01X8538419Y-3209105D01*
G01X9427672Y-5652306D01*
G01X8300040Y-6062730D01*
G36*
G01X8469478Y-4376261D02*
G01X8938792Y-4645614D01*
G01X8027454Y-4977314D01*
G01X8214242Y-4469160D01*
G37*
D20*
G01X3283813Y-15118662D02*
G01X0927413Y-14019855D01*
G01X1434555Y-12932285D01*
G01X3790955Y-14031093D01*
G01X3283813Y-15118662D01*
G36*
G01X2211110Y-13806338D02*
G01X2733426Y-13664944D01*
G01X2323560Y-14543904D01*
G01X2096320Y-14052506D01*
G37*
D20*
G01X8418138Y-23194803D02*
G01X6397558Y-24831036D01*
G01X5642374Y-23898461D01*
G01X7662953Y-22262228D01*
G01X8418138Y-23194803D01*
G36*
G01X6768386Y-23583656D02*
G01X6870270Y-23052219D01*
G01X7480601Y-23805915D01*
G01X6939320Y-23794742D01*
G37*
D20*
G01X17293329Y-20103034D02*
G01X19285045Y-21774282D01*
G01X18513700Y-22693535D01*
G01X16521984Y-21022287D01*
G01X17293329Y-20103034D01*
G36*
G01X17989826Y-21648279D02*
G01X17448713Y-21649669D01*
G01X18072105Y-20906740D01*
G01X18164418Y-21440208D01*
G37*
G36*
G01X36486525Y-2900000D02*
G01X37686525Y-2900000D01*
G01X37686525Y-4100000D01*
G01X36486525Y-4100000D01*
G01X36486525Y-2900000D01*
G37*
G36*
G01X37936525Y-3279102D02*
G01X37936525Y-3279102D01*
G01X37954396Y-3243946D01*
G01X37954396Y-3243946D01*
G01X38011403Y-3236381D01*
G01X38015626Y-3236329D01*
G01X38049611Y-3236329D01*
G01X38049611Y-3236329D01*
G01X38047406Y-3179044D01*
G01X38044356Y-3129204D01*
G01X38041994Y-3101563D01*
G01X38041994Y-3101563D01*
G01X38081837Y-3098047D01*
G01X38081837Y-3098047D01*
G01X38130072Y-3114500D01*
G01X38139259Y-3143750D01*
G01X38139259Y-3143750D01*
G01X38137892Y-3179530D01*
G01X38134572Y-3237500D01*
G01X38134572Y-3237500D01*
G01X38204298Y-3237098D01*
G01X38261134Y-3235889D01*
G01X38305079Y-3233875D01*
G01X38336134Y-3231055D01*
G01X38336134Y-3231055D01*
G01X38336134Y-3231055D01*
G01X38340822Y-3259180D01*
G01X38340822Y-3259180D01*
G01X38328224Y-3291407D01*
G01X38328224Y-3291407D01*
G01X38288087Y-3300782D01*
G01X38288087Y-3300782D01*
G01X38252977Y-3301428D01*
G01X38201787Y-3301818D01*
G01X38134517Y-3301953D01*
G01X38132228Y-3301954D01*
G01X38132228Y-3301954D01*
G01X38131422Y-3351647D01*
G01X38130785Y-3402314D01*
G01X38130318Y-3453953D01*
G01X38130019Y-3506566D01*
G01X38129890Y-3560151D01*
G01X38129884Y-3574415D01*
G01X38129884Y-3574415D01*
G01X38132922Y-3639514D01*
G01X38142034Y-3686313D01*
G01X38153322Y-3710059D01*
G01X38153322Y-3710059D01*
G01X38208389Y-3740169D01*
G01X38230665Y-3742579D01*
G01X38230665Y-3742579D01*
G01X38279965Y-3732374D01*
G01X38316798Y-3706250D01*
G01X38316798Y-3706250D01*
G01X38338478Y-3749610D01*
G01X38338478Y-3749610D01*
G01X38311619Y-3788111D01*
G01X38307423Y-3790332D01*
G01X38307423Y-3790332D01*
G01X38245715Y-3805194D01*
G01X38231837Y-3805860D01*
G01X38231837Y-3805860D01*
G01X38174057Y-3799980D01*
G01X38128217Y-3782340D01*
G01X38094317Y-3752940D01*
G01X38090919Y-3748438D01*
G01X38090919Y-3748438D01*
G01X38065029Y-3690592D01*
G01X38053130Y-3628545D01*
G01X38049780Y-3584832D01*
G01X38049611Y-3576758D01*
G01X38049611Y-3576758D01*
G01X38050417Y-3499885D01*
G01X38051054Y-3434476D01*
G01X38051521Y-3380532D01*
G01X38051819Y-3338053D01*
G01X38051949Y-3307038D01*
G01X38051954Y-3300782D01*
G01X38051954Y-3300782D01*
G01X38027552Y-3302561D01*
G01X37960671Y-3307901D01*
G01X37940040Y-3309571D01*
G01X37940040Y-3309571D01*
G01X37936525Y-3279102D01*
G37*
G36*
G01X38412306Y-3515821D02*
G01X38412306Y-3515821D01*
G01X38415794Y-3460323D01*
G01X38426259Y-3409844D01*
G01X38443700Y-3364386D01*
G01X38468117Y-3323946D01*
G01X38484376Y-3304004D01*
G01X38484376Y-3304004D01*
G01X38541734Y-3259133D01*
G01X38601118Y-3235270D01*
G01X38649161Y-3225780D01*
G01X38672499Y-3224029D01*
G01X38673048Y-3224024D01*
G01X38673048Y-3224024D01*
G01X38726930Y-3228631D01*
G01X38775513Y-3242451D01*
G01X38818798Y-3265486D01*
G01X38856783Y-3297734D01*
G01X38862599Y-3304004D01*
G01X38862599Y-3304004D01*
G01X38900314Y-3362365D01*
G01X38921771Y-3424049D01*
G01X38931555Y-3477320D01*
G01X38934252Y-3510443D01*
G01X38934376Y-3515821D01*
G01X38934376Y-3515821D01*
G01X38924732Y-3598098D01*
G01X38902785Y-3661712D01*
G01X38879016Y-3704739D01*
G01X38863904Y-3725253D01*
G01X38862599Y-3726758D01*
G01X38862599Y-3726758D01*
G01X38805235Y-3771136D01*
G01X38745559Y-3794738D01*
G01X38697153Y-3804123D01*
G01X38673603Y-3805855D01*
G01X38673048Y-3805860D01*
G01X38673048Y-3805860D01*
G01X38619644Y-3801304D01*
G01X38571371Y-3787635D01*
G01X38528227Y-3764854D01*
G01X38490213Y-3732960D01*
G01X38484376Y-3726758D01*
G01X38484376Y-3726758D01*
G01X38446507Y-3668859D01*
G01X38424963Y-3607439D01*
G01X38415139Y-3554287D01*
G01X38412431Y-3521197D01*
G01X38412306Y-3515821D01*
G37*
%LPC*%
G36*
G01X38496681Y-3498829D02*
G01X38496681Y-3498829D01*
G01X38500333Y-3553868D01*
G01X38511289Y-3603487D01*
G01X38529549Y-3647686D01*
G01X38543263Y-3670508D01*
G01X38543263Y-3670508D01*
G01X38597037Y-3718444D01*
G01X38648903Y-3736368D01*
G01X38673023Y-3739063D01*
G01X38673048Y-3739063D01*
G01X38673048Y-3739063D01*
G01X38725758Y-3732560D01*
G01X38769932Y-3713053D01*
G01X38803712Y-3682813D01*
G01X38803712Y-3682813D01*
G01X38835848Y-3621594D01*
G01X38848400Y-3563139D01*
G01X38850584Y-3533255D01*
G01X38850587Y-3532813D01*
G01X38850587Y-3532813D01*
G01X38846820Y-3477727D01*
G01X38835520Y-3427970D01*
G01X38816685Y-3383542D01*
G01X38802540Y-3360547D01*
G01X38802540Y-3360547D01*
G01X38748190Y-3312202D01*
G01X38696780Y-3294124D01*
G01X38673073Y-3291407D01*
G01X38673048Y-3291407D01*
G01X38673048Y-3291407D01*
G01X38620407Y-3297977D01*
G01X38576435Y-3317688D01*
G01X38542970Y-3348243D01*
G01X38542970Y-3348243D01*
G01X38511236Y-3409864D01*
G01X38498841Y-3468475D01*
G01X38496684Y-3498387D01*
G01X38496681Y-3498829D01*
G37*
%LPD*%
G36*
G01X39060353Y-3242188D02*
G01X39060353Y-3242188D01*
G01X39107228Y-3232813D01*
G01X39107228Y-3232813D01*
G01X39148808Y-3251555D01*
G01X39158790Y-3292579D01*
G01X39158790Y-3292579D01*
G01X39204896Y-3262586D01*
G01X39251808Y-3241163D01*
G01X39299525Y-3228309D01*
G01X39348048Y-3224024D01*
G01X39348048Y-3224024D01*
G01X39348048Y-3224024D01*
G01X39399315Y-3229798D01*
G01X39444833Y-3247122D01*
G01X39484604Y-3275994D01*
G01X39496583Y-3288184D01*
G01X39496583Y-3288184D01*
G01X39530289Y-3345784D01*
G01X39547597Y-3409949D01*
G01X39553973Y-3462084D01*
G01X39554884Y-3483594D01*
G01X39554884Y-3483594D01*
G01X39554884Y-3483594D01*
G01X39552094Y-3537219D01*
G01X39543724Y-3587844D01*
G01X39529774Y-3635469D01*
G01X39527638Y-3641211D01*
G01X39527638Y-3641211D01*
G01X39492196Y-3704637D01*
G01X39455962Y-3745678D01*
G01X39440626Y-3759278D01*
G01X39440626Y-3759278D01*
G01X39377335Y-3791850D01*
G01X39321463Y-3804029D01*
G01X39296511Y-3805860D01*
G01X39296486Y-3805860D01*
G01X39296486Y-3805860D01*
G01X39246426Y-3800620D01*
G01X39198341Y-3784901D01*
G01X39162306Y-3765430D01*
G01X39162306Y-3765430D01*
G01X39162681Y-3807618D01*
G01X39162892Y-3828418D01*
G01X39162892Y-3828418D01*
G01X39163874Y-3897617D01*
G01X39164064Y-3905762D01*
G01X39164064Y-3905762D01*
G01X39166745Y-3964140D01*
G01X39166994Y-3968750D01*
G01X39166994Y-3968750D01*
G01X39173247Y-4032415D01*
G01X39174318Y-4039063D01*
G01X39174318Y-4039063D01*
G01X39186327Y-4088275D01*
G01X39186330Y-4088282D01*
G01X39186330Y-4088282D01*
G01X39138283Y-4097657D01*
G01X39138283Y-4097657D01*
G01X39091943Y-4082438D01*
G01X39091701Y-4082129D01*
G01X39091701Y-4082129D01*
G01X39079698Y-4029970D01*
G01X39079689Y-4029102D01*
G01X39079689Y-4029102D01*
G01X39079746Y-3984891D01*
G01X39079917Y-3937053D01*
G01X39080201Y-3885590D01*
G01X39080600Y-3830500D01*
G01X39081113Y-3771785D01*
G01X39081447Y-3737598D01*
G01X39081447Y-3737598D01*
G01X39082338Y-3641724D01*
G01X39082862Y-3571644D01*
G01X39083115Y-3525323D01*
G01X39083197Y-3500728D01*
G01X39083205Y-3495313D01*
G01X39083205Y-3495313D01*
G01X39082290Y-3424625D01*
G01X39079548Y-3363969D01*
G01X39074978Y-3313344D01*
G01X39068580Y-3272750D01*
G01X39060353Y-3242188D01*
G01X39060353Y-3242188D01*
G37*
%LPC*%
G36*
G01X39162306Y-3357618D02*
G01X39162306Y-3357618D01*
G01X39162956Y-3432619D01*
G01X39163501Y-3499420D01*
G01X39163941Y-3558021D01*
G01X39164275Y-3608422D01*
G01X39164503Y-3650623D01*
G01X39164626Y-3684623D01*
G01X39164650Y-3702735D01*
G01X39164650Y-3702735D01*
G01X39206032Y-3722975D01*
G01X39255270Y-3735088D01*
G01X39308790Y-3739063D01*
G01X39308790Y-3739063D01*
G01X39358668Y-3729908D01*
G01X39400490Y-3702442D01*
G01X39400490Y-3702442D01*
G01X39400490Y-3702442D01*
G01X39440267Y-3646459D01*
G01X39453735Y-3613918D01*
G01X39453810Y-3613672D01*
G01X39453810Y-3613672D01*
G01X39466610Y-3545912D01*
G01X39469310Y-3503661D01*
G01X39469337Y-3501172D01*
G01X39469337Y-3501172D01*
G01X39465620Y-3441600D01*
G01X39454466Y-3392258D01*
G01X39435877Y-3353147D01*
G01X39428029Y-3342383D01*
G01X39428029Y-3342383D01*
G01X39369998Y-3301353D01*
G01X39326312Y-3291616D01*
G01X39321681Y-3291407D01*
G01X39321681Y-3291407D01*
G01X39274738Y-3296975D01*
G01X39228387Y-3313680D01*
G01X39182627Y-3341522D01*
G01X39162306Y-3357618D01*
G37*
%LPD*%
G36*
G01X39932228Y-3710352D02*
G01X39932228Y-3710352D01*
G01X39953623Y-3674235D01*
G01X39986134Y-3659961D01*
G01X39986134Y-3659961D01*
G01X40013169Y-3699723D01*
G01X40043263Y-3718848D01*
G01X40043263Y-3718848D01*
G01X40109415Y-3736827D01*
G01X40138478Y-3739063D01*
G01X40138478Y-3739063D01*
G01X40205986Y-3724918D01*
G01X40221974Y-3716211D01*
G01X40221974Y-3716211D01*
G01X40252290Y-3661336D01*
G01X40253908Y-3645313D01*
G01X40253908Y-3645313D01*
G01X40235945Y-3600928D01*
G01X40221974Y-3590235D01*
G01X40221974Y-3590235D01*
G01X40161858Y-3565254D01*
G01X40144630Y-3560645D01*
G01X40144630Y-3560645D01*
G01X40078052Y-3543680D01*
G01X40053517Y-3536622D01*
G01X40053517Y-3536622D01*
G01X39995157Y-3503367D01*
G01X39975880Y-3484473D01*
G01X39975880Y-3484473D01*
G01X39948701Y-3423012D01*
G01X39943954Y-3383477D01*
G01X39943947Y-3382813D01*
G01X39943947Y-3382813D01*
G01X39952409Y-3334665D01*
G01X39977797Y-3293415D01*
G01X40005763Y-3268555D01*
G01X40005763Y-3268555D01*
G01X40070708Y-3236826D01*
G01X40124651Y-3225483D01*
G01X40145509Y-3224024D01*
G01X40145509Y-3224024D01*
G01X40194612Y-3228902D01*
G01X40242921Y-3243535D01*
G01X40255958Y-3249219D01*
G01X40255958Y-3249219D01*
G01X40304882Y-3296894D01*
G01X40310158Y-3318946D01*
G01X40310158Y-3318946D01*
G01X40288762Y-3356155D01*
G01X40256251Y-3369336D01*
G01X40256251Y-3369336D01*
G01X40228457Y-3330894D01*
G01X40202052Y-3313086D01*
G01X40202052Y-3313086D01*
G01X40137656Y-3293130D01*
G01X40116798Y-3291407D01*
G01X40116798Y-3291407D01*
G01X40066835Y-3301402D01*
G01X40045900Y-3313672D01*
G01X40045900Y-3313672D01*
G01X40016824Y-3367034D01*
G01X40016017Y-3376368D01*
G01X40016017Y-3376368D01*
G01X40033504Y-3420924D01*
G01X40047951Y-3432618D01*
G01X40047951Y-3432618D01*
G01X40107266Y-3458837D01*
G01X40125294Y-3463965D01*
G01X40125294Y-3463965D01*
G01X40190896Y-3481183D01*
G01X40216408Y-3488575D01*
G01X40216408Y-3488575D01*
G01X40275541Y-3521179D01*
G01X40294044Y-3538379D01*
G01X40294044Y-3538379D01*
G01X40321986Y-3598914D01*
G01X40325978Y-3632422D01*
G01X40325978Y-3632422D01*
G01X40325978Y-3632422D01*
G01X40318900Y-3685488D01*
G01X40297665Y-3729139D01*
G01X40264747Y-3761622D01*
G01X40264747Y-3761622D01*
G01X40200432Y-3792555D01*
G01X40144177Y-3804121D01*
G01X40119167Y-3805860D01*
G01X40119142Y-3805860D01*
G01X40119142Y-3805860D01*
G01X40065847Y-3801883D01*
G01X40017290Y-3789953D01*
G01X39989064Y-3778321D01*
G01X39989064Y-3778321D01*
G01X39937760Y-3730827D01*
G01X39932228Y-3710352D01*
G37*
G36*
G01X40438478Y-3103907D02*
G01X40438478Y-3103907D01*
G01X40457521Y-3059082D01*
G01X40457521Y-3059082D01*
G01X40457521Y-3059082D01*
G01X40501759Y-3040625D01*
G01X40501759Y-3040625D01*
G01X40543654Y-3059082D01*
G01X40543654Y-3059082D01*
G01X40561525Y-3103907D01*
G01X40561525Y-3103907D01*
G01X40543236Y-3149442D01*
G01X40542482Y-3150196D01*
G01X40542482Y-3150196D01*
G01X40499415Y-3168946D01*
G01X40499415Y-3168946D01*
G01X40456349Y-3151075D01*
G01X40456349Y-3151075D01*
G01X40438478Y-3103985D01*
G01X40438478Y-3103907D01*
G37*
G36*
G01X40453712Y-3236329D02*
G01X40453712Y-3236329D01*
G01X40494728Y-3232813D01*
G01X40494728Y-3232813D01*
G01X40542422Y-3249601D01*
G01X40550978Y-3277930D01*
G01X40550978Y-3277930D01*
G01X40548634Y-3327149D01*
G01X40548634Y-3327149D01*
G01X40545518Y-3392735D01*
G01X40543958Y-3431444D01*
G01X40543947Y-3431739D01*
G01X40543947Y-3431739D01*
G01X40542037Y-3504842D01*
G01X40541609Y-3547221D01*
G01X40541603Y-3550391D01*
G01X40541603Y-3550391D01*
G01X40542611Y-3614540D01*
G01X40545634Y-3671144D01*
G01X40550673Y-3720203D01*
G01X40557727Y-3761717D01*
G01X40564454Y-3788282D01*
G01X40564454Y-3788282D01*
G01X40518751Y-3797657D01*
G01X40518751Y-3797657D01*
G01X40472377Y-3782744D01*
G01X40471876Y-3782129D01*
G01X40471876Y-3782129D01*
G01X40459581Y-3729970D01*
G01X40459572Y-3729102D01*
G01X40459572Y-3729102D01*
G01X40459983Y-3692888D01*
G01X40461037Y-3634473D01*
G01X40461037Y-3634473D01*
G01X40462230Y-3556431D01*
G01X40462497Y-3519448D01*
G01X40462501Y-3516993D01*
G01X40462501Y-3516993D01*
G01X40462217Y-3457219D01*
G01X40461362Y-3401509D01*
G01X40459938Y-3349861D01*
G01X40457945Y-3302275D01*
G01X40455382Y-3258752D01*
G01X40453712Y-3236329D01*
G37*
G36*
G01X40702150Y-2905860D02*
G01X40702150Y-2905860D01*
G01X40744337Y-2902344D01*
G01X40744337Y-2902344D01*
G01X40791462Y-2919912D01*
G01X40799415Y-2948047D01*
G01X40799415Y-2948047D01*
G01X40798346Y-2988691D01*
G01X40797658Y-3012207D01*
G01X40797658Y-3012207D01*
G01X40795815Y-3076627D01*
G01X40794124Y-3137843D01*
G01X40793276Y-3169071D01*
G01X40793263Y-3169532D01*
G01X40793263Y-3169532D01*
G01X40791695Y-3244038D01*
G01X40790918Y-3308111D01*
G01X40790654Y-3351555D01*
G01X40790626Y-3364649D01*
G01X40790626Y-3551563D01*
G01X40790626Y-3551563D01*
G01X40791634Y-3614883D01*
G01X40794657Y-3670968D01*
G01X40799696Y-3719817D01*
G01X40806750Y-3761432D01*
G01X40813478Y-3788282D01*
G01X40813478Y-3788282D01*
G01X40768361Y-3797657D01*
G01X40768361Y-3797657D01*
G01X40722072Y-3783301D01*
G01X40722072Y-3783301D01*
G01X40709181Y-3735547D01*
G01X40709181Y-3735547D01*
G01X40709181Y-3735547D01*
G01X40709309Y-3707784D01*
G01X40709692Y-3657751D01*
G01X40710330Y-3585449D01*
G01X40710353Y-3582911D01*
G01X40710353Y-3582911D01*
G01X40711069Y-3493698D01*
G01X40711411Y-3432444D01*
G01X40711517Y-3399047D01*
G01X40711525Y-3392188D01*
G01X40711525Y-3252735D01*
G01X40711525Y-3252735D01*
G01X40711314Y-3172763D01*
G01X40710681Y-3102653D01*
G01X40709626Y-3042404D01*
G01X40708150Y-2992016D01*
G01X40706251Y-2951490D01*
G01X40703931Y-2920825D01*
G01X40702150Y-2905860D01*
G37*
G36*
G01X40957619Y-2905860D02*
G01X40957619Y-2905860D01*
G01X40999806Y-2902344D01*
G01X40999806Y-2902344D01*
G01X41046931Y-2919912D01*
G01X41054884Y-2948047D01*
G01X41054884Y-2948047D01*
G01X41053429Y-2994425D01*
G01X41053126Y-3003125D01*
G01X41053126Y-3003125D01*
G01X41050935Y-3068514D01*
G01X41049139Y-3124196D01*
G01X41048732Y-3137012D01*
G01X41048732Y-3137012D01*
G01X41046999Y-3209968D01*
G01X41046264Y-3269460D01*
G01X41046098Y-3301868D01*
G01X41046095Y-3304297D01*
G01X41046095Y-3304297D01*
G01X41089454Y-3269178D01*
G01X41134572Y-3244092D01*
G01X41181447Y-3229041D01*
G01X41230079Y-3224024D01*
G01X41230079Y-3224024D01*
G01X41230079Y-3224024D01*
G01X41285205Y-3230530D01*
G01X41329013Y-3250047D01*
G01X41348732Y-3266797D01*
G01X41348732Y-3266797D01*
G01X41382303Y-3327551D01*
G01X41389384Y-3369138D01*
G01X41389454Y-3371680D01*
G01X41389454Y-3371680D01*
G01X41383318Y-3423152D01*
G01X41364909Y-3469169D01*
G01X41344630Y-3498243D01*
G01X41344630Y-3498243D01*
G01X41289334Y-3539396D01*
G01X41237623Y-3557014D01*
G01X41218947Y-3560352D01*
G01X41218947Y-3560352D01*
G01X41255982Y-3619872D01*
G01X41285337Y-3663432D01*
G01X41307012Y-3691032D01*
G01X41309181Y-3693360D01*
G01X41309181Y-3693360D01*
G01X41352198Y-3725210D01*
G01X41383595Y-3732032D01*
G01X41383595Y-3732032D01*
G01X41414650Y-3726758D01*
G01X41414650Y-3726758D01*
G01X41425783Y-3761915D01*
G01X41425783Y-3761915D01*
G01X41400587Y-3794727D01*
G01X41400587Y-3794727D01*
G01X41352540Y-3805860D01*
G01X41352540Y-3805860D01*
G01X41306557Y-3794734D01*
G01X41265822Y-3763086D01*
G01X41265822Y-3763086D01*
G01X41235646Y-3727051D01*
G01X41235646Y-3727051D01*
G01X41205837Y-3684098D01*
G01X41205763Y-3683985D01*
G01X41205763Y-3683985D01*
G01X41180568Y-3643555D01*
G01X41180568Y-3643555D01*
G01X41153282Y-3597402D01*
G01X41153029Y-3596973D01*
G01X41153029Y-3596973D01*
G01X41129298Y-3556250D01*
G01X41129298Y-3556250D01*
G01X41097658Y-3531055D01*
G01X41097658Y-3531055D01*
G01X41104103Y-3502344D01*
G01X41104103Y-3502344D01*
G01X41156493Y-3510676D01*
G01X41165040Y-3511133D01*
G01X41165040Y-3511133D01*
G01X41218520Y-3503717D01*
G01X41259778Y-3481470D01*
G01X41267287Y-3474512D01*
G01X41267287Y-3474512D01*
G01X41299814Y-3414556D01*
G01X41303322Y-3389844D01*
G01X41303322Y-3389844D01*
G01X41292275Y-3340407D01*
G01X41278712Y-3320118D01*
G01X41278712Y-3320118D01*
G01X41223174Y-3292638D01*
G01X41209572Y-3291407D01*
G01X41209572Y-3291407D01*
G01X41163201Y-3299124D01*
G01X41124318Y-3316016D01*
G01X41124318Y-3316016D01*
G01X41067352Y-3356741D01*
G01X41046095Y-3377539D01*
G01X41046095Y-3551563D01*
G01X41046095Y-3551563D01*
G01X41047103Y-3614883D01*
G01X41050126Y-3670968D01*
G01X41055165Y-3719817D01*
G01X41062219Y-3761432D01*
G01X41068947Y-3788282D01*
G01X41068947Y-3788282D01*
G01X41023829Y-3797657D01*
G01X41023829Y-3797657D01*
G01X40977540Y-3783301D01*
G01X40977540Y-3783301D01*
G01X40964650Y-3735547D01*
G01X40964650Y-3735547D01*
G01X40964650Y-3735547D01*
G01X40964777Y-3707784D01*
G01X40965160Y-3657751D01*
G01X40965798Y-3585449D01*
G01X40965822Y-3582911D01*
G01X40965822Y-3582911D01*
G01X40966538Y-3493698D01*
G01X40966880Y-3432444D01*
G01X40966986Y-3399047D01*
G01X40966994Y-3392188D01*
G01X40966994Y-3252735D01*
G01X40966994Y-3252735D01*
G01X40966783Y-3172763D01*
G01X40966150Y-3102653D01*
G01X40965095Y-3042404D01*
G01X40963619Y-2992016D01*
G01X40961720Y-2951490D01*
G01X40959400Y-2920825D01*
G01X40957619Y-2905860D01*
G37*
G36*
G01X41505470Y-3710352D02*
G01X41505470Y-3710352D01*
G01X41526865Y-3674235D01*
G01X41559376Y-3659961D01*
G01X41559376Y-3659961D01*
G01X41586412Y-3699723D01*
G01X41616505Y-3718848D01*
G01X41616505Y-3718848D01*
G01X41682657Y-3736827D01*
G01X41711720Y-3739063D01*
G01X41711720Y-3739063D01*
G01X41779229Y-3724918D01*
G01X41795216Y-3716211D01*
G01X41795216Y-3716211D01*
G01X41825532Y-3661336D01*
G01X41827150Y-3645313D01*
G01X41827150Y-3645313D01*
G01X41809187Y-3600928D01*
G01X41795216Y-3590235D01*
G01X41795216Y-3590235D01*
G01X41735100Y-3565254D01*
G01X41717872Y-3560645D01*
G01X41717872Y-3560645D01*
G01X41651294Y-3543680D01*
G01X41626759Y-3536622D01*
G01X41626759Y-3536622D01*
G01X41568399Y-3503367D01*
G01X41549122Y-3484473D01*
G01X41549122Y-3484473D01*
G01X41521943Y-3423012D01*
G01X41517196Y-3383477D01*
G01X41517189Y-3382813D01*
G01X41517189Y-3382813D01*
G01X41525652Y-3334665D01*
G01X41551040Y-3293415D01*
G01X41579005Y-3268555D01*
G01X41579005Y-3268555D01*
G01X41643950Y-3236826D01*
G01X41697893Y-3225483D01*
G01X41718751Y-3224024D01*
G01X41718751Y-3224024D01*
G01X41767854Y-3228902D01*
G01X41816163Y-3243535D01*
G01X41829201Y-3249219D01*
G01X41829201Y-3249219D01*
G01X41878124Y-3296894D01*
G01X41883400Y-3318946D01*
G01X41883400Y-3318946D01*
G01X41862004Y-3356155D01*
G01X41829494Y-3369336D01*
G01X41829494Y-3369336D01*
G01X41801699Y-3330894D01*
G01X41775294Y-3313086D01*
G01X41775294Y-3313086D01*
G01X41710899Y-3293130D01*
G01X41690040Y-3291407D01*
G01X41690040Y-3291407D01*
G01X41640077Y-3301402D01*
G01X41619142Y-3313672D01*
G01X41619142Y-3313672D01*
G01X41590066Y-3367034D01*
G01X41589259Y-3376368D01*
G01X41589259Y-3376368D01*
G01X41606746Y-3420924D01*
G01X41621193Y-3432618D01*
G01X41621193Y-3432618D01*
G01X41680508Y-3458837D01*
G01X41698537Y-3463965D01*
G01X41698537Y-3463965D01*
G01X41764138Y-3481183D01*
G01X41789650Y-3488575D01*
G01X41789650Y-3488575D01*
G01X41848783Y-3521179D01*
G01X41867287Y-3538379D01*
G01X41867287Y-3538379D01*
G01X41895228Y-3598914D01*
G01X41899220Y-3632422D01*
G01X41899220Y-3632422D01*
G01X41899220Y-3632422D01*
G01X41892142Y-3685488D01*
G01X41870907Y-3729139D01*
G01X41837990Y-3761622D01*
G01X41837990Y-3761622D01*
G01X41773674Y-3792555D01*
G01X41717419Y-3804121D01*
G01X41692409Y-3805860D01*
G01X41692384Y-3805860D01*
G01X41692384Y-3805860D01*
G01X41639089Y-3801883D01*
G01X41590532Y-3789953D01*
G01X41562306Y-3778321D01*
G01X41562306Y-3778321D01*
G01X41511002Y-3730827D01*
G01X41505470Y-3710352D01*
G37*
G36*
G01X42001759Y-3521680D02*
G01X42001759Y-3521680D01*
G01X42005048Y-3467952D01*
G01X42014914Y-3418637D01*
G01X42025783Y-3386622D01*
G01X42025783Y-3386622D01*
G01X42061820Y-3323645D01*
G01X42087743Y-3294618D01*
G01X42089357Y-3293165D01*
G01X42089357Y-3293165D01*
G01X42147490Y-3254126D01*
G01X42174025Y-3241602D01*
G01X42174025Y-3241602D01*
G01X42240994Y-3225735D01*
G01X42266017Y-3224024D01*
G01X42266017Y-3224024D01*
G01X42316223Y-3228882D01*
G01X42364464Y-3243455D01*
G01X42382326Y-3251563D01*
G01X42382326Y-3251563D01*
G01X42430775Y-3300855D01*
G01X42437697Y-3329493D01*
G01X42437697Y-3329493D01*
G01X42437697Y-3329493D01*
G01X42417504Y-3368419D01*
G01X42379689Y-3381055D01*
G01X42379689Y-3381055D01*
G01X42356376Y-3336928D01*
G01X42329005Y-3314551D01*
G01X42329005Y-3314551D01*
G01X42266089Y-3293121D01*
G01X42246681Y-3291407D01*
G01X42246681Y-3291407D01*
G01X42198558Y-3299995D01*
G01X42156612Y-3325758D01*
G01X42133302Y-3350879D01*
G01X42133302Y-3350879D01*
G01X42102416Y-3412659D01*
G01X42089830Y-3471704D01*
G01X42087322Y-3504501D01*
G01X42087306Y-3505860D01*
G01X42087306Y-3505860D01*
G01X42090851Y-3566089D01*
G01X42101487Y-3617048D01*
G01X42119214Y-3658739D01*
G01X42135939Y-3682520D01*
G01X42135939Y-3682520D01*
G01X42194504Y-3724241D01*
G01X42245578Y-3737822D01*
G01X42261329Y-3739063D01*
G01X42261329Y-3739063D01*
G01X42309882Y-3732093D01*
G01X42334279Y-3723536D01*
G01X42334279Y-3723536D01*
G01X42382884Y-3683621D01*
G01X42387306Y-3676368D01*
G01X42387306Y-3676368D01*
G01X42430742Y-3708032D01*
G01X42434767Y-3724415D01*
G01X42434767Y-3724415D01*
G01X42416436Y-3764227D01*
G01X42380275Y-3785059D01*
G01X42380275Y-3785059D01*
G01X42313422Y-3801367D01*
G01X42264794Y-3805693D01*
G01X42257228Y-3805860D01*
G01X42257228Y-3805860D01*
G01X42204970Y-3801410D01*
G01X42157179Y-3788062D01*
G01X42113856Y-3765815D01*
G01X42075001Y-3734668D01*
G01X42075001Y-3734668D01*
G01X42075001Y-3734668D01*
G01X42036516Y-3679692D01*
G01X42014622Y-3617781D01*
G01X42004638Y-3562507D01*
G01X42001886Y-3527439D01*
G01X42001759Y-3521680D01*
G37*
G36*
G01X42556056Y-3236329D02*
G01X42556056Y-3236329D01*
G01X42597072Y-3232813D01*
G01X42597072Y-3232813D01*
G01X42641952Y-3251293D01*
G01X42648634Y-3277930D01*
G01X42648634Y-3277930D01*
G01X42648048Y-3294336D01*
G01X42648048Y-3294336D01*
G01X42647462Y-3320118D01*
G01X42647462Y-3320118D01*
G01X42678106Y-3282386D01*
G01X42711622Y-3253614D01*
G01X42711622Y-3253614D01*
G01X42773864Y-3226063D01*
G01X42791017Y-3224024D01*
G01X42791017Y-3224024D01*
G01X42834376Y-3236622D01*
G01X42834376Y-3236622D01*
G01X42850197Y-3270899D01*
G01X42850197Y-3270899D01*
G01X42833246Y-3315078D01*
G01X42826173Y-3324805D01*
G01X42826173Y-3324805D01*
G01X42781222Y-3302961D01*
G01X42768165Y-3301954D01*
G01X42768165Y-3301954D01*
G01X42721936Y-3314507D01*
G01X42701076Y-3328321D01*
G01X42701076Y-3328321D01*
G01X42656782Y-3378005D01*
G01X42644533Y-3398047D01*
G01X42644533Y-3398047D01*
G01X42643887Y-3432775D01*
G01X42643496Y-3482816D01*
G01X42643361Y-3548172D01*
G01X42643361Y-3550391D01*
G01X42643361Y-3550391D01*
G01X42644368Y-3614540D01*
G01X42647392Y-3671144D01*
G01X42652431Y-3720203D01*
G01X42659485Y-3761717D01*
G01X42666212Y-3788282D01*
G01X42666212Y-3788282D01*
G01X42620509Y-3797657D01*
G01X42620509Y-3797657D01*
G01X42574170Y-3782438D01*
G01X42573927Y-3782129D01*
G01X42573927Y-3782129D01*
G01X42561924Y-3729970D01*
G01X42561915Y-3729102D01*
G01X42561915Y-3729102D01*
G01X42562245Y-3692888D01*
G01X42563087Y-3634473D01*
G01X42563087Y-3634473D01*
G01X42564042Y-3556431D01*
G01X42564256Y-3519448D01*
G01X42564259Y-3516993D01*
G01X42564259Y-3516993D01*
G01X42563993Y-3457219D01*
G01X42563196Y-3401509D01*
G01X42561867Y-3349861D01*
G01X42560007Y-3302275D01*
G01X42557615Y-3258752D01*
G01X42556056Y-3236329D01*
G37*
G36*
G01X42915822Y-3518165D02*
G01X42915822Y-3518165D01*
G01X42919349Y-3461504D01*
G01X42929930Y-3410631D01*
G01X42947566Y-3365547D01*
G01X42972256Y-3326251D01*
G01X42995802Y-3300196D01*
G01X42995802Y-3300196D01*
G01X43058887Y-3256159D01*
G01X43119691Y-3233545D01*
G01X43165500Y-3225214D01*
G01X43183595Y-3224024D01*
G01X43183595Y-3224024D01*
G01X43183595Y-3224024D01*
G01X43236914Y-3229510D01*
G01X43282918Y-3245970D01*
G01X43319533Y-3271485D01*
G01X43319533Y-3271485D01*
G01X43360417Y-3331175D01*
G01X43371264Y-3375791D01*
G01X43371681Y-3382813D01*
G01X43371681Y-3382813D01*
G01X43365053Y-3435596D01*
G01X43354982Y-3460743D01*
G01X43354982Y-3460743D01*
G01X43315473Y-3506645D01*
G01X43311329Y-3509668D01*
G01X43311329Y-3509668D01*
G01X43252211Y-3532883D01*
G01X43233400Y-3537207D01*
G01X43233400Y-3537207D01*
G01X43164186Y-3546839D01*
G01X43133204Y-3549219D01*
G01X43133204Y-3549219D01*
G01X43133204Y-3549219D01*
G01X43068052Y-3551031D01*
G01X43014183Y-3551538D01*
G01X43003712Y-3551563D01*
G01X43003712Y-3551563D01*
G01X43013914Y-3606035D01*
G01X43031770Y-3652312D01*
G01X43055568Y-3688379D01*
G01X43055568Y-3688379D01*
G01X43112373Y-3726984D01*
G01X43162075Y-3738362D01*
G01X43173634Y-3739063D01*
G01X43173634Y-3739063D01*
G01X43229949Y-3731815D01*
G01X43272989Y-3710073D01*
G01X43301369Y-3676368D01*
G01X43301369Y-3676368D01*
G01X43344224Y-3708083D01*
G01X43348829Y-3726758D01*
G01X43348829Y-3726758D01*
G01X43329212Y-3764586D01*
G01X43294337Y-3784180D01*
G01X43294337Y-3784180D01*
G01X43226344Y-3801407D01*
G01X43178544Y-3805733D01*
G01X43172462Y-3805860D01*
G01X43172462Y-3805860D01*
G01X43118501Y-3801410D01*
G01X43069704Y-3788062D01*
G01X43026069Y-3765815D01*
G01X42987599Y-3734668D01*
G01X42987599Y-3734668D01*
G01X42987599Y-3734668D01*
G01X42949884Y-3679256D01*
G01X42928427Y-3616338D01*
G01X42918643Y-3559934D01*
G01X42915946Y-3524063D01*
G01X42915822Y-3518165D01*
G37*
%LPC*%
G36*
G01X43002540Y-3491797D02*
G01X43002540Y-3491797D01*
G01X43058036Y-3491389D01*
G01X43088673Y-3490625D01*
G01X43088673Y-3490625D01*
G01X43151632Y-3484997D01*
G01X43164259Y-3483301D01*
G01X43164259Y-3483301D01*
G01X43225332Y-3468374D01*
G01X43230470Y-3466309D01*
G01X43230470Y-3466309D01*
G01X43271732Y-3435308D01*
G01X43271779Y-3435254D01*
G01X43271779Y-3435254D01*
G01X43289058Y-3385582D01*
G01X43289064Y-3385157D01*
G01X43289064Y-3385157D01*
G01X43275281Y-3338704D01*
G01X43257423Y-3318360D01*
G01X43257423Y-3318360D01*
G01X43198266Y-3292173D01*
G01X43178908Y-3290235D01*
G01X43178908Y-3290235D01*
G01X43128463Y-3296973D01*
G01X43083794Y-3317187D01*
G01X43055861Y-3339454D01*
G01X43055861Y-3339454D01*
G01X43021094Y-3396090D01*
G01X43006096Y-3455740D01*
G01X43002591Y-3490335D01*
G01X43002540Y-3491797D01*
G37*
%LPD*%
G36*
G01X43479494Y-3518165D02*
G01X43479494Y-3518165D01*
G01X43483021Y-3461504D01*
G01X43493602Y-3410631D01*
G01X43511238Y-3365547D01*
G01X43535928Y-3326251D01*
G01X43559474Y-3300196D01*
G01X43559474Y-3300196D01*
G01X43622558Y-3256159D01*
G01X43683363Y-3233545D01*
G01X43729172Y-3225214D01*
G01X43747267Y-3224024D01*
G01X43747267Y-3224024D01*
G01X43747267Y-3224024D01*
G01X43800586Y-3229510D01*
G01X43846589Y-3245970D01*
G01X43883204Y-3271485D01*
G01X43883204Y-3271485D01*
G01X43924089Y-3331175D01*
G01X43934936Y-3375791D01*
G01X43935353Y-3382813D01*
G01X43935353Y-3382813D01*
G01X43928725Y-3435596D01*
G01X43918654Y-3460743D01*
G01X43918654Y-3460743D01*
G01X43879145Y-3506645D01*
G01X43875001Y-3509668D01*
G01X43875001Y-3509668D01*
G01X43815883Y-3532883D01*
G01X43797072Y-3537207D01*
G01X43797072Y-3537207D01*
G01X43727858Y-3546839D01*
G01X43696876Y-3549219D01*
G01X43696876Y-3549219D01*
G01X43696876Y-3549219D01*
G01X43631724Y-3551031D01*
G01X43577854Y-3551538D01*
G01X43567384Y-3551563D01*
G01X43567384Y-3551563D01*
G01X43577586Y-3606035D01*
G01X43595442Y-3652312D01*
G01X43619240Y-3688379D01*
G01X43619240Y-3688379D01*
G01X43676045Y-3726984D01*
G01X43725747Y-3738362D01*
G01X43737306Y-3739063D01*
G01X43737306Y-3739063D01*
G01X43793621Y-3731815D01*
G01X43836660Y-3710073D01*
G01X43865040Y-3676368D01*
G01X43865040Y-3676368D01*
G01X43907896Y-3708083D01*
G01X43912501Y-3726758D01*
G01X43912501Y-3726758D01*
G01X43892884Y-3764586D01*
G01X43858009Y-3784180D01*
G01X43858009Y-3784180D01*
G01X43790016Y-3801407D01*
G01X43742216Y-3805733D01*
G01X43736134Y-3805860D01*
G01X43736134Y-3805860D01*
G01X43682173Y-3801410D01*
G01X43633375Y-3788062D01*
G01X43589741Y-3765815D01*
G01X43551271Y-3734668D01*
G01X43551271Y-3734668D01*
G01X43551271Y-3734668D01*
G01X43513556Y-3679256D01*
G01X43492099Y-3616338D01*
G01X43482315Y-3559934D01*
G01X43479618Y-3524063D01*
G01X43479494Y-3518165D01*
G37*
%LPC*%
G36*
G01X43566212Y-3491797D02*
G01X43566212Y-3491797D01*
G01X43621708Y-3491389D01*
G01X43652345Y-3490625D01*
G01X43652345Y-3490625D01*
G01X43715304Y-3484997D01*
G01X43727931Y-3483301D01*
G01X43727931Y-3483301D01*
G01X43789003Y-3468374D01*
G01X43794142Y-3466309D01*
G01X43794142Y-3466309D01*
G01X43835404Y-3435308D01*
G01X43835451Y-3435254D01*
G01X43835451Y-3435254D01*
G01X43852730Y-3385582D01*
G01X43852736Y-3385157D01*
G01X43852736Y-3385157D01*
G01X43838953Y-3338704D01*
G01X43821095Y-3318360D01*
G01X43821095Y-3318360D01*
G01X43761938Y-3292173D01*
G01X43742579Y-3290235D01*
G01X43742579Y-3290235D01*
G01X43692135Y-3296973D01*
G01X43647466Y-3317187D01*
G01X43619533Y-3339454D01*
G01X43619533Y-3339454D01*
G01X43584766Y-3396090D01*
G01X43569768Y-3455740D01*
G01X43566263Y-3490335D01*
G01X43566212Y-3491797D01*
G37*
%LPD*%
G36*
G01X44061329Y-3242188D02*
G01X44061329Y-3242188D01*
G01X44104689Y-3232813D01*
G01X44104689Y-3232813D01*
G01X44148112Y-3250241D01*
G01X44159767Y-3292579D01*
G01X44159767Y-3292579D01*
G01X44198872Y-3267761D01*
G01X44247562Y-3246184D01*
G01X44252052Y-3244532D01*
G01X44252052Y-3244532D01*
G01X44322111Y-3227436D01*
G01X44360935Y-3224044D01*
G01X44362501Y-3224024D01*
G01X44362501Y-3224024D01*
G01X44415048Y-3230446D01*
G01X44459251Y-3249711D01*
G01X44478224Y-3264161D01*
G01X44478224Y-3264161D01*
G01X44511298Y-3320093D01*
G01X44522064Y-3375441D01*
G01X44523048Y-3393360D01*
G01X44523048Y-3393360D01*
G01X44522457Y-3423575D01*
G01X44521290Y-3479786D01*
G01X44521290Y-3479786D01*
G01X44519912Y-3560968D01*
G01X44519547Y-3602045D01*
G01X44519533Y-3607227D01*
G01X44519533Y-3607227D01*
G01X44521140Y-3665837D01*
G01X44525964Y-3718291D01*
G01X44534003Y-3764589D01*
G01X44540040Y-3788282D01*
G01X44540040Y-3788282D01*
G01X44493165Y-3797657D01*
G01X44493165Y-3797657D01*
G01X44448341Y-3783887D01*
G01X44448341Y-3783887D01*
G01X44434572Y-3736719D01*
G01X44434572Y-3736719D01*
G01X44434572Y-3736719D01*
G01X44434910Y-3702291D01*
G01X44435923Y-3652772D01*
G01X44437612Y-3588163D01*
G01X44438087Y-3571485D01*
G01X44438087Y-3571485D01*
G01X44440637Y-3476311D01*
G01X44441508Y-3434066D01*
G01X44441603Y-3425586D01*
G01X44441603Y-3425586D01*
G01X44434598Y-3370785D01*
G01X44413582Y-3330366D01*
G01X44408497Y-3324805D01*
G01X44408497Y-3324805D01*
G01X44349746Y-3294658D01*
G01X44323829Y-3291407D01*
G01X44323829Y-3291407D01*
G01X44276788Y-3296975D01*
G01X44230141Y-3313680D01*
G01X44183889Y-3341522D01*
G01X44163283Y-3357618D01*
G01X44163283Y-3357618D01*
G01X44164200Y-3425208D01*
G01X44164891Y-3484121D01*
G01X44165355Y-3534356D01*
G01X44165593Y-3575913D01*
G01X44165626Y-3594922D01*
G01X44165626Y-3594922D01*
G01X44166102Y-3653179D01*
G01X44167528Y-3706682D01*
G01X44169904Y-3755432D01*
G01X44172658Y-3792969D01*
G01X44172658Y-3792969D01*
G01X44132228Y-3796485D01*
G01X44132228Y-3796485D01*
G01X44086106Y-3778917D01*
G01X44078322Y-3750782D01*
G01X44078322Y-3750782D01*
G01X44079274Y-3719833D01*
G01X44081251Y-3662598D01*
G01X44081251Y-3662598D01*
G01X44083219Y-3587635D01*
G01X44084020Y-3527789D01*
G01X44084180Y-3497671D01*
G01X44084181Y-3496485D01*
G01X44084181Y-3496485D01*
G01X44083267Y-3423313D01*
G01X44080525Y-3361297D01*
G01X44075954Y-3310438D01*
G01X44069556Y-3270735D01*
G01X44061329Y-3242188D01*
G01X44061329Y-3242188D01*
G37*

G04 Pad flashes *
%LPD*%
D11*

G04 end of program *
M02*
