G04                                                      *
G04 Greetings!                                           *
G04 This Gerber was generated by PCBmodE, an open source *
G04 PCB design software. Get it here:                    *
G04                                                      *
G04   http://pcbmode.com                                 *
G04                                                      *
G04 Also visit                                           *
G04                                                      *
G04   http://boldport.com                                *
G04                                                      *
G04 and follow @boldport / @pcbmode for updates!         *
G04                                                      *

G04 leading zeros omitted (L); absolute data (A); 6 integer digits and 6 fractional digits *
%FSLAX66Y66*%

G04 mode (MO): millimeters (MM) *
%MOMM*%

G04 Aperture definitions *
%ADD10C,0.001X*%
%ADD11C,0.001X*%

%LPD*%
G36*
G01X4780344Y-21121121D02*
G01X4780344Y-21121121D01*
G01X4728679Y-21116719D01*
G01X4677218Y-21111035D01*
G01X4625980Y-21104073D01*
G01X4574987Y-21095836D01*
G01X4524257Y-21086329D01*
G01X4473812Y-21075553D01*
G01X4423671Y-21063514D01*
G01X4373854Y-21050214D01*
G01X4324381Y-21035657D01*
G01X4275273Y-21019847D01*
G01X4275273Y-21019847D01*
G01X4275273Y-21019847D01*
G01X4227426Y-21002545D01*
G01X4180047Y-20984059D01*
G01X4133152Y-20964400D01*
G01X4086759Y-20943576D01*
G01X4040885Y-20921596D01*
G01X3995545Y-20898471D01*
G01X3950759Y-20874209D01*
G01X3906542Y-20848819D01*
G01X3862911Y-20822312D01*
G01X3819883Y-20794695D01*
G01X3819883Y-20794695D01*
G01X3819883Y-20794695D01*
G01X3781656Y-20796843D01*
G01X3781656Y-20796843D01*
G01X3781656Y-20796843D01*
G01X3749504Y-20835921D01*
G01X3716973Y-20874856D01*
G01X3684044Y-20913638D01*
G01X3650703Y-20952261D01*
G01X3616931Y-20990718D01*
G01X3586763Y-21024506D01*
G01X3586763Y-21024506D01*
G01X3529868Y-20986223D01*
G01X3474767Y-20946375D01*
G01X3421452Y-20905007D01*
G01X3369914Y-20862161D01*
G01X3320144Y-20817882D01*
G01X3272135Y-20772214D01*
G01X3225879Y-20725198D01*
G01X3181367Y-20676880D01*
G01X3138591Y-20627303D01*
G01X3097542Y-20576509D01*
G01X3058213Y-20524544D01*
G01X3020595Y-20471450D01*
G01X2984679Y-20417272D01*
G01X2950459Y-20362051D01*
G01X2917925Y-20305833D01*
G01X2887069Y-20248661D01*
G01X2857883Y-20190578D01*
G01X2830358Y-20131628D01*
G01X2804487Y-20071855D01*
G01X2780261Y-20011301D01*
G01X2757672Y-19950011D01*
G01X2736712Y-19888029D01*
G01X2717372Y-19825397D01*
G01X2699644Y-19762159D01*
G01X2683520Y-19698359D01*
G01X2668992Y-19634041D01*
G01X2656051Y-19569248D01*
G01X2644689Y-19504023D01*
G01X2634898Y-19438411D01*
G01X2626670Y-19372455D01*
G01X2619996Y-19306197D01*
G01X2614868Y-19239683D01*
G01X2611278Y-19172955D01*
G01X2609218Y-19106058D01*
G01X2608679Y-19039034D01*
G01X2609653Y-18971927D01*
G01X2612132Y-18904781D01*
G01X2616108Y-18837640D01*
G01X2621572Y-18770546D01*
G01X2628516Y-18703544D01*
G01X2636933Y-18636677D01*
G01X2646812Y-18569988D01*
G01X2658147Y-18503522D01*
G01X2670930Y-18437322D01*
G01X2685151Y-18371431D01*
G01X2700803Y-18305893D01*
G01X2717877Y-18240752D01*
G01X2736365Y-18176051D01*
G01X2756259Y-18111833D01*
G01X2777551Y-18048143D01*
G01X2777551Y-18048143D01*
G01X2777551Y-18048143D01*
G01X2798017Y-17990020D01*
G01X2819428Y-17932583D01*
G01X2841773Y-17875843D01*
G01X2865040Y-17819812D01*
G01X2889214Y-17764501D01*
G01X2914284Y-17709922D01*
G01X2940237Y-17656087D01*
G01X2967060Y-17603007D01*
G01X2994742Y-17550694D01*
G01X3023269Y-17499159D01*
G01X3052629Y-17448414D01*
G01X3082809Y-17398471D01*
G01X3113796Y-17349340D01*
G01X3145579Y-17301035D01*
G01X3178144Y-17253565D01*
G01X3211479Y-17206944D01*
G01X3245571Y-17161182D01*
G01X3280408Y-17116291D01*
G01X3315977Y-17072283D01*
G01X3352266Y-17029168D01*
G01X3389261Y-16986960D01*
G01X3426951Y-16945669D01*
G01X3465323Y-16905307D01*
G01X3504365Y-16865886D01*
G01X3544062Y-16827417D01*
G01X3584404Y-16789912D01*
G01X3625378Y-16753382D01*
G01X3666970Y-16717838D01*
G01X3709169Y-16683294D01*
G01X3751962Y-16649759D01*
G01X3795335Y-16617247D01*
G01X3839278Y-16585767D01*
G01X3883776Y-16555332D01*
G01X3928818Y-16525954D01*
G01X3974390Y-16497644D01*
G01X4020481Y-16470414D01*
G01X4067078Y-16444274D01*
G01X4114168Y-16419238D01*
G01X4161738Y-16395316D01*
G01X4209777Y-16372520D01*
G01X4258271Y-16350862D01*
G01X4307207Y-16330352D01*
G01X4356574Y-16311004D01*
G01X4406359Y-16292828D01*
G01X4456548Y-16275835D01*
G01X4507130Y-16260039D01*
G01X4558092Y-16245449D01*
G01X4609422Y-16232078D01*
G01X4661106Y-16219937D01*
G01X4713132Y-16209039D01*
G01X4713132Y-16209039D01*
G01X4713132Y-16209039D01*
G01X4734327Y-16186037D01*
G01X4734327Y-16186037D01*
G01X4734327Y-16186037D01*
G01X4740165Y-16159331D01*
G01X4747978Y-16133308D01*
G01X4747978Y-16133308D01*
G01X4747978Y-16133308D01*
G01X4765758Y-16090202D01*
G01X4788572Y-16049343D01*
G01X4816265Y-16010841D01*
G01X4848684Y-15974805D01*
G01X4885678Y-15941346D01*
G01X4927091Y-15910575D01*
G01X4972771Y-15882601D01*
G01X5022564Y-15857536D01*
G01X5076318Y-15835489D01*
G01X5133879Y-15816571D01*
G01X5195093Y-15800892D01*
G01X5202114Y-15799354D01*
G01X5202114Y-15799354D01*
G01X5218143Y-15780391D01*
G01X5218143Y-15780391D01*
G01X5218143Y-15780391D01*
G01X5222908Y-15745006D01*
G01X5231990Y-15710956D01*
G01X5231990Y-15710956D01*
G01X5231990Y-15710956D01*
G01X5247177Y-15674888D01*
G01X5267048Y-15641341D01*
G01X5291368Y-15610363D01*
G01X5319897Y-15582002D01*
G01X5352398Y-15556307D01*
G01X5388634Y-15533326D01*
G01X5428368Y-15513108D01*
G01X5471361Y-15495700D01*
G01X5517376Y-15481150D01*
G01X5566176Y-15469507D01*
G01X5617523Y-15460819D01*
G01X5671179Y-15455135D01*
G01X5726908Y-15452502D01*
G01X5784471Y-15452969D01*
G01X5843630Y-15456583D01*
G01X5904149Y-15463394D01*
G01X5965789Y-15473449D01*
G01X6028314Y-15486797D01*
G01X6091485Y-15503485D01*
G01X6155066Y-15523563D01*
G01X6155066Y-15523563D01*
G01X6155066Y-15523563D01*
G01X6217625Y-15546626D01*
G01X6277785Y-15572118D01*
G01X6335388Y-15599855D01*
G01X6390276Y-15629653D01*
G01X6442290Y-15661330D01*
G01X6491272Y-15694701D01*
G01X6537064Y-15729582D01*
G01X6579507Y-15765791D01*
G01X6618444Y-15803144D01*
G01X6653716Y-15841457D01*
G01X6685164Y-15880546D01*
G01X6712631Y-15920228D01*
G01X6735958Y-15960319D01*
G01X6754988Y-16000636D01*
G01X6769561Y-16040995D01*
G01X6779519Y-16081213D01*
G01X6784705Y-16121105D01*
G01X6784960Y-16160489D01*
G01X6780125Y-16199180D01*
G01X6770043Y-16236996D01*
G01X6770043Y-16236996D01*
G01X6770043Y-16236996D01*
G01X6755838Y-16270604D01*
G01X6737256Y-16302386D01*
G01X6737256Y-16302386D01*
G01X6737256Y-16302386D01*
G01X6739324Y-16324732D01*
G01X6739324Y-16324732D01*
G01X6739324Y-16324732D01*
G01X6778713Y-16374610D01*
G01X6813226Y-16424832D01*
G01X6842810Y-16475216D01*
G01X6867412Y-16525582D01*
G01X6886977Y-16575748D01*
G01X6901452Y-16625532D01*
G01X6910783Y-16674752D01*
G01X6914917Y-16723228D01*
G01X6913800Y-16770777D01*
G01X6907377Y-16817217D01*
G01X6895596Y-16862369D01*
G01X6893954Y-16867298D01*
G01X6893954Y-16867298D01*
G01X6883323Y-16893575D01*
G01X6870730Y-16919035D01*
G01X6870730Y-16919035D01*
G01X6870730Y-16919035D01*
G01X6873818Y-16947202D01*
G01X6873818Y-16947202D01*
G01X6873818Y-16947202D01*
G01X6908328Y-16987680D01*
G01X6941805Y-17028931D01*
G01X6974247Y-17070939D01*
G01X7005651Y-17113687D01*
G01X7036014Y-17157158D01*
G01X7065334Y-17201335D01*
G01X7093606Y-17246201D01*
G01X7120830Y-17291740D01*
G01X7147001Y-17337934D01*
G01X7172116Y-17384766D01*
G01X7196174Y-17432220D01*
G01X7219171Y-17480278D01*
G01X7241104Y-17528925D01*
G01X7261971Y-17578142D01*
G01X7281769Y-17627913D01*
G01X7300494Y-17678222D01*
G01X7318144Y-17729051D01*
G01X7334716Y-17780383D01*
G01X7350208Y-17832201D01*
G01X7364616Y-17884490D01*
G01X7377937Y-17937230D01*
G01X7390169Y-17990407D01*
G01X7401310Y-18044003D01*
G01X7411355Y-18098000D01*
G01X7420302Y-18152383D01*
G01X7428149Y-18207134D01*
G01X7434892Y-18262236D01*
G01X7440529Y-18317673D01*
G01X7445057Y-18373427D01*
G01X7448473Y-18429482D01*
G01X7450773Y-18485821D01*
G01X7451957Y-18542427D01*
G01X7452019Y-18599283D01*
G01X7450959Y-18656372D01*
G01X7448772Y-18713677D01*
G01X7445455Y-18771181D01*
G01X7441008Y-18828868D01*
G01X7435425Y-18886720D01*
G01X7428704Y-18944721D01*
G01X7420844Y-19002854D01*
G01X7411840Y-19061102D01*
G01X7401689Y-19119447D01*
G01X7390390Y-19177874D01*
G01X7377939Y-19236365D01*
G01X7364333Y-19294903D01*
G01X7349570Y-19353472D01*
G01X7333647Y-19412054D01*
G01X7316560Y-19470633D01*
G01X7298307Y-19529192D01*
G01X7278886Y-19587713D01*
G01X7278886Y-19587713D01*
G01X7278886Y-19587713D01*
G01X7256716Y-19651104D01*
G01X7233118Y-19714055D01*
G01X7208112Y-19776527D01*
G01X7181719Y-19838481D01*
G01X7153959Y-19899878D01*
G01X7124851Y-19960678D01*
G01X7094416Y-20020841D01*
G01X7062674Y-20080327D01*
G01X7029645Y-20139098D01*
G01X6995350Y-20197114D01*
G01X6959808Y-20254336D01*
G01X6923040Y-20310723D01*
G01X6885066Y-20366237D01*
G01X6845905Y-20420837D01*
G01X6805580Y-20474485D01*
G01X6764108Y-20527141D01*
G01X6721511Y-20578765D01*
G01X6677809Y-20629318D01*
G01X6633022Y-20678761D01*
G01X6587170Y-20727053D01*
G01X6540273Y-20774156D01*
G01X6492351Y-20820030D01*
G01X6443425Y-20864635D01*
G01X6393515Y-20907932D01*
G01X6342640Y-20949881D01*
G01X6290822Y-20990443D01*
G01X6238080Y-21029579D01*
G01X6184434Y-21067249D01*
G01X6129905Y-21103413D01*
G01X6074513Y-21138032D01*
G01X6018277Y-21171066D01*
G01X5961219Y-21202476D01*
G01X5903358Y-21232223D01*
G01X5844714Y-21260267D01*
G01X5785308Y-21286568D01*
G01X5725160Y-21311087D01*
G01X5664289Y-21333785D01*
G01X5602717Y-21354621D01*
G01X5540462Y-21373557D01*
G01X5477547Y-21390553D01*
G01X5413989Y-21405569D01*
G01X5349811Y-21418566D01*
G01X5285031Y-21429505D01*
G01X5219671Y-21438346D01*
G01X5153749Y-21445049D01*
G01X5087288Y-21449575D01*
G01X5020305Y-21451884D01*
G01X4952823Y-21451938D01*
G01X4884860Y-21449696D01*
G01X4816438Y-21445119D01*
G01X4816438Y-21445119D01*
G01X4816438Y-21445119D01*
G01X4813236Y-21399351D01*
G01X4810405Y-21353696D01*
G01X4807930Y-21308148D01*
G01X4805797Y-21262703D01*
G01X4803995Y-21217354D01*
G01X4802509Y-21172097D01*
G01X4801687Y-21141973D01*
G01X4801687Y-21141973D01*
G01X4779991Y-21121223D01*
G01X4779991Y-21121223D01*
G37*
G36*
G01X16853399Y-27871878D02*
G01X16853399Y-27871878D01*
G01X16796995Y-27867356D01*
G01X16740719Y-27861994D01*
G01X16684579Y-27855793D01*
G01X16628582Y-27848755D01*
G01X16572738Y-27840882D01*
G01X16517053Y-27832174D01*
G01X16461536Y-27822633D01*
G01X16406194Y-27812261D01*
G01X16351036Y-27801058D01*
G01X16296068Y-27789027D01*
G01X16241300Y-27776169D01*
G01X16186739Y-27762484D01*
G01X16132393Y-27747975D01*
G01X16078269Y-27732643D01*
G01X16024376Y-27716489D01*
G01X15970721Y-27699515D01*
G01X15935088Y-27687744D01*
G01X15935088Y-27687744D01*
G01X15882791Y-27669128D01*
G01X15830796Y-27649735D01*
G01X15779109Y-27629568D01*
G01X15727737Y-27608632D01*
G01X15676687Y-27586930D01*
G01X15625965Y-27564466D01*
G01X15575578Y-27541243D01*
G01X15525533Y-27517265D01*
G01X15475835Y-27492536D01*
G01X15426493Y-27467059D01*
G01X15377513Y-27440839D01*
G01X15328900Y-27413877D01*
G01X15280663Y-27386179D01*
G01X15232807Y-27357748D01*
G01X15185339Y-27328588D01*
G01X15138266Y-27298702D01*
G01X15107107Y-27278376D01*
G01X15107107Y-27278376D01*
G01X15071650Y-27263159D01*
G01X15037603Y-27282281D01*
G01X15037603Y-27282281D01*
G01X15037603Y-27282281D01*
G01X15003298Y-27324107D01*
G01X14968759Y-27365845D01*
G01X14933978Y-27407491D01*
G01X14898951Y-27449042D01*
G01X14863670Y-27490496D01*
G01X14828129Y-27531850D01*
G01X14792324Y-27573102D01*
G01X14756246Y-27614248D01*
G01X14719891Y-27655286D01*
G01X14683252Y-27696214D01*
G01X14683252Y-27696214D01*
G01X14683252Y-27696214D01*
G01X14631121Y-27661771D01*
G01X14579807Y-27626608D01*
G01X14529309Y-27590733D01*
G01X14479624Y-27554158D01*
G01X14430750Y-27516891D01*
G01X14382687Y-27478943D01*
G01X14335431Y-27440323D01*
G01X14288981Y-27401042D01*
G01X14243335Y-27361109D01*
G01X14198491Y-27320535D01*
G01X14154447Y-27279329D01*
G01X14111202Y-27237501D01*
G01X14068754Y-27195060D01*
G01X14027100Y-27152018D01*
G01X13986239Y-27108384D01*
G01X13946169Y-27064167D01*
G01X13906887Y-27019378D01*
G01X13868393Y-26974026D01*
G01X13830685Y-26928122D01*
G01X13793760Y-26881675D01*
G01X13757616Y-26834695D01*
G01X13722252Y-26787193D01*
G01X13687666Y-26739177D01*
G01X13653855Y-26690659D01*
G01X13620819Y-26641647D01*
G01X13588555Y-26592152D01*
G01X13557061Y-26542183D01*
G01X13526336Y-26491751D01*
G01X13496377Y-26440866D01*
G01X13467183Y-26389537D01*
G01X13438752Y-26337774D01*
G01X13411081Y-26285587D01*
G01X13384170Y-26232987D01*
G01X13358015Y-26179982D01*
G01X13332616Y-26126583D01*
G01X13307971Y-26072800D01*
G01X13284077Y-26018643D01*
G01X13260933Y-25964121D01*
G01X13238536Y-25909244D01*
G01X13216886Y-25854023D01*
G01X13195979Y-25798468D01*
G01X13175815Y-25742587D01*
G01X13156390Y-25686392D01*
G01X13137705Y-25629891D01*
G01X13119756Y-25573096D01*
G01X13102541Y-25516015D01*
G01X13086059Y-25458659D01*
G01X13070309Y-25401038D01*
G01X13055287Y-25343161D01*
G01X13040992Y-25285038D01*
G01X13027423Y-25226680D01*
G01X13014577Y-25168096D01*
G01X13002453Y-25109296D01*
G01X12991048Y-25050290D01*
G01X12980361Y-24991088D01*
G01X12970390Y-24931700D01*
G01X12961133Y-24872136D01*
G01X12952589Y-24812405D01*
G01X12944754Y-24752518D01*
G01X12937628Y-24692484D01*
G01X12931209Y-24632314D01*
G01X12925494Y-24572017D01*
G01X12920482Y-24511603D01*
G01X12916171Y-24451082D01*
G01X12912558Y-24390464D01*
G01X12909643Y-24329759D01*
G01X12907424Y-24268976D01*
G01X12905898Y-24208127D01*
G01X12905063Y-24147219D01*
G01X12904918Y-24086265D01*
G01X12905460Y-24025272D01*
G01X12906689Y-23964253D01*
G01X12908602Y-23903215D01*
G01X12911197Y-23842169D01*
G01X12914472Y-23781125D01*
G01X12918425Y-23720093D01*
G01X12923055Y-23659083D01*
G01X12928360Y-23598105D01*
G01X12934338Y-23537168D01*
G01X12940986Y-23476283D01*
G01X12948303Y-23415459D01*
G01X12956288Y-23354707D01*
G01X12964938Y-23294035D01*
G01X12974251Y-23233455D01*
G01X12984226Y-23172976D01*
G01X12994861Y-23112608D01*
G01X13006153Y-23052360D01*
G01X13018101Y-22992243D01*
G01X13030703Y-22932267D01*
G01X13043958Y-22872442D01*
G01X13057862Y-22812777D01*
G01X13072415Y-22753282D01*
G01X13087615Y-22693968D01*
G01X13103459Y-22634843D01*
G01X13119946Y-22575919D01*
G01X13137074Y-22517205D01*
G01X13154841Y-22458710D01*
G01X13173245Y-22400445D01*
G01X13192285Y-22342420D01*
G01X13211957Y-22284645D01*
G01X13211957Y-22284645D01*
G01X13211957Y-22284645D01*
G01X13230346Y-22231651D01*
G01X13249168Y-22178967D01*
G01X13268420Y-22126594D01*
G01X13288098Y-22074536D01*
G01X13308201Y-22022794D01*
G01X13328726Y-21971372D01*
G01X13349669Y-21920272D01*
G01X13371028Y-21869497D01*
G01X13392800Y-21819050D01*
G01X13414981Y-21768932D01*
G01X13437570Y-21719148D01*
G01X13460563Y-21669698D01*
G01X13483957Y-21620587D01*
G01X13507750Y-21571816D01*
G01X13531939Y-21523389D01*
G01X13556521Y-21475307D01*
G01X13581492Y-21427574D01*
G01X13606851Y-21380192D01*
G01X13632593Y-21333164D01*
G01X13658718Y-21286492D01*
G01X13685221Y-21240180D01*
G01X13712099Y-21194229D01*
G01X13739350Y-21148642D01*
G01X13766972Y-21103423D01*
G01X13794960Y-21058573D01*
G01X13823313Y-21014095D01*
G01X13852027Y-20969992D01*
G01X13881099Y-20926266D01*
G01X13910527Y-20882921D01*
G01X13940308Y-20839958D01*
G01X13970439Y-20797381D01*
G01X14000917Y-20755192D01*
G01X14031740Y-20713394D01*
G01X14062903Y-20671988D01*
G01X14094405Y-20630979D01*
G01X14126243Y-20590368D01*
G01X14158414Y-20550159D01*
G01X14190914Y-20510353D01*
G01X14223742Y-20470954D01*
G01X14256894Y-20431964D01*
G01X14290367Y-20393386D01*
G01X14324159Y-20355222D01*
G01X14358266Y-20317475D01*
G01X14392686Y-20280147D01*
G01X14427416Y-20243242D01*
G01X14462453Y-20206762D01*
G01X14497794Y-20170709D01*
G01X14533437Y-20135087D01*
G01X14569378Y-20099897D01*
G01X14605615Y-20065143D01*
G01X14642145Y-20030827D01*
G01X14678964Y-19996952D01*
G01X14716071Y-19963519D01*
G01X14753461Y-19930533D01*
G01X14791133Y-19897996D01*
G01X14829084Y-19865909D01*
G01X14867310Y-19834277D01*
G01X14905809Y-19803101D01*
G01X14944578Y-19772384D01*
G01X14983613Y-19742129D01*
G01X15022913Y-19712339D01*
G01X15062475Y-19683015D01*
G01X15102294Y-19654161D01*
G01X15142370Y-19625780D01*
G01X15182698Y-19597873D01*
G01X15223276Y-19570444D01*
G01X15264101Y-19543495D01*
G01X15305170Y-19517029D01*
G01X15346481Y-19491049D01*
G01X15388030Y-19465556D01*
G01X15429814Y-19440555D01*
G01X15471831Y-19416046D01*
G01X15514079Y-19392034D01*
G01X15556553Y-19368520D01*
G01X15599251Y-19345508D01*
G01X15642171Y-19323000D01*
G01X15685309Y-19300998D01*
G01X15728662Y-19279505D01*
G01X15772229Y-19258524D01*
G01X15816005Y-19238058D01*
G01X15859988Y-19218108D01*
G01X15904175Y-19198679D01*
G01X15948564Y-19179772D01*
G01X15993151Y-19161389D01*
G01X16037934Y-19143535D01*
G01X16082909Y-19126210D01*
G01X16128074Y-19109419D01*
G01X16173426Y-19093162D01*
G01X16218962Y-19077445D01*
G01X16264680Y-19062267D01*
G01X16310576Y-19047634D01*
G01X16356647Y-19033546D01*
G01X16402892Y-19020007D01*
G01X16449306Y-19007020D01*
G01X16495887Y-18994586D01*
G01X16542632Y-18982709D01*
G01X16589538Y-18971391D01*
G01X16636603Y-18960635D01*
G01X16683823Y-18950443D01*
G01X16731196Y-18940819D01*
G01X16731196Y-18940819D01*
G01X16731196Y-18940819D01*
G01X16760130Y-18923380D01*
G01X16769733Y-18898998D01*
G01X16769733Y-18898998D01*
G01X16769733Y-18898998D01*
G01X16780347Y-18850441D01*
G01X16794553Y-18803126D01*
G01X16794553Y-18803126D01*
G01X16794553Y-18803126D01*
G01X16811366Y-18759093D01*
G01X16831042Y-18716294D01*
G01X16853533Y-18674761D01*
G01X16878791Y-18634530D01*
G01X16906768Y-18595635D01*
G01X16937417Y-18558111D01*
G01X16970690Y-18521992D01*
G01X17006538Y-18487312D01*
G01X17044915Y-18454105D01*
G01X17085772Y-18422407D01*
G01X17129062Y-18392252D01*
G01X17174737Y-18363673D01*
G01X17222749Y-18336705D01*
G01X17273049Y-18311384D01*
G01X17325592Y-18287742D01*
G01X17380328Y-18265815D01*
G01X17437210Y-18245636D01*
G01X17496190Y-18227241D01*
G01X17557220Y-18210664D01*
G01X17620253Y-18195938D01*
G01X17620253Y-18195938D01*
G01X17620253Y-18195938D01*
G01X17649397Y-18161459D01*
G01X17649397Y-18161459D01*
G01X17649397Y-18161459D01*
G01X17654449Y-18117436D01*
G01X17663086Y-18074568D01*
G01X17674575Y-18035215D01*
G01X17674575Y-18035215D01*
G01X17690095Y-17995322D01*
G01X17708745Y-17957067D01*
G01X17730430Y-17920469D01*
G01X17755057Y-17885546D01*
G01X17782533Y-17852317D01*
G01X17812765Y-17820802D01*
G01X17845659Y-17791018D01*
G01X17881122Y-17762986D01*
G01X17919061Y-17736724D01*
G01X17959382Y-17712251D01*
G01X18001992Y-17689586D01*
G01X18046798Y-17668748D01*
G01X18093707Y-17649756D01*
G01X18142624Y-17632629D01*
G01X18193458Y-17617385D01*
G01X18246114Y-17604044D01*
G01X18300500Y-17592624D01*
G01X18356522Y-17583146D01*
G01X18414086Y-17575626D01*
G01X18473100Y-17570085D01*
G01X18533471Y-17566541D01*
G01X18595104Y-17565014D01*
G01X18657906Y-17565521D01*
G01X18721785Y-17568083D01*
G01X18786647Y-17572718D01*
G01X18852399Y-17579445D01*
G01X18918947Y-17588283D01*
G01X18986198Y-17599251D01*
G01X19054059Y-17612367D01*
G01X19122436Y-17627652D01*
G01X19191237Y-17645123D01*
G01X19260368Y-17664800D01*
G01X19329735Y-17686701D01*
G01X19352894Y-17694499D01*
G01X19352894Y-17694499D01*
G01X19421647Y-17719110D01*
G01X19488872Y-17745359D01*
G01X19554506Y-17773174D01*
G01X19618487Y-17802482D01*
G01X19680753Y-17833212D01*
G01X19741241Y-17865291D01*
G01X19799890Y-17898647D01*
G01X19856637Y-17933209D01*
G01X19911420Y-17968903D01*
G01X19964178Y-18005659D01*
G01X20014847Y-18043404D01*
G01X20063366Y-18082065D01*
G01X20109672Y-18121571D01*
G01X20153704Y-18161850D01*
G01X20195399Y-18202829D01*
G01X20234696Y-18244436D01*
G01X20271531Y-18286600D01*
G01X20305843Y-18329248D01*
G01X20337570Y-18372308D01*
G01X20366649Y-18415708D01*
G01X20393018Y-18459376D01*
G01X20416616Y-18503240D01*
G01X20437380Y-18547227D01*
G01X20455248Y-18591267D01*
G01X20470157Y-18635285D01*
G01X20482046Y-18679211D01*
G01X20490853Y-18722972D01*
G01X20496515Y-18766497D01*
G01X20498970Y-18809712D01*
G01X20498156Y-18852547D01*
G01X20494010Y-18894928D01*
G01X20486472Y-18936784D01*
G01X20475478Y-18978043D01*
G01X20471035Y-18991651D01*
G01X20471035Y-18991651D01*
G01X20454347Y-19033580D01*
G01X20433951Y-19073922D01*
G01X20411422Y-19110542D01*
G01X20411422Y-19110542D01*
G01X20415182Y-19151170D01*
G01X20415182Y-19151170D01*
G01X20415182Y-19151170D01*
G01X20456057Y-19201455D01*
G01X20494209Y-19251978D01*
G01X20529623Y-19302683D01*
G01X20562280Y-19353513D01*
G01X20592165Y-19404412D01*
G01X20619260Y-19455324D01*
G01X20643549Y-19506190D01*
G01X20665015Y-19556956D01*
G01X20683642Y-19607563D01*
G01X20699412Y-19657957D01*
G01X20712309Y-19708080D01*
G01X20722316Y-19757875D01*
G01X20729416Y-19807286D01*
G01X20733593Y-19856256D01*
G01X20734830Y-19904729D01*
G01X20733110Y-19952648D01*
G01X20728417Y-19999957D01*
G01X20720733Y-20046599D01*
G01X20710042Y-20092517D01*
G01X20696328Y-20137654D01*
G01X20696328Y-20137654D01*
G01X20696328Y-20137654D01*
G01X20683563Y-20170316D01*
G01X20669177Y-20202252D01*
G01X20654102Y-20231721D01*
G01X20654102Y-20231721D01*
G01X20649500Y-20260431D01*
G01X20659716Y-20282934D01*
G01X20659716Y-20282934D01*
G01X20659716Y-20282934D01*
G01X20691323Y-20319554D01*
G01X20722461Y-20356530D01*
G01X20753130Y-20393857D01*
G01X20783329Y-20431532D01*
G01X20813057Y-20469552D01*
G01X20842315Y-20507911D01*
G01X20871100Y-20546607D01*
G01X20899413Y-20585635D01*
G01X20927253Y-20624991D01*
G01X20954618Y-20664673D01*
G01X20981510Y-20704675D01*
G01X21007926Y-20744994D01*
G01X21033867Y-20785627D01*
G01X21059331Y-20826569D01*
G01X21084319Y-20867817D01*
G01X21108828Y-20909366D01*
G01X21132859Y-20951214D01*
G01X21156412Y-20993355D01*
G01X21179484Y-21035787D01*
G01X21202077Y-21078505D01*
G01X21224188Y-21121505D01*
G01X21245818Y-21164785D01*
G01X21266966Y-21208339D01*
G01X21287631Y-21252164D01*
G01X21307812Y-21296256D01*
G01X21327510Y-21340612D01*
G01X21346722Y-21385227D01*
G01X21365449Y-21430098D01*
G01X21383690Y-21475221D01*
G01X21401445Y-21520591D01*
G01X21418711Y-21566206D01*
G01X21435490Y-21612061D01*
G01X21451781Y-21658153D01*
G01X21467582Y-21704477D01*
G01X21482892Y-21751030D01*
G01X21497713Y-21797808D01*
G01X21512042Y-21844808D01*
G01X21525879Y-21892024D01*
G01X21539224Y-21939454D01*
G01X21552076Y-21987093D01*
G01X21564433Y-22034939D01*
G01X21576296Y-22082986D01*
G01X21587665Y-22131231D01*
G01X21598537Y-22179671D01*
G01X21608913Y-22228301D01*
G01X21618792Y-22277117D01*
G01X21628173Y-22326117D01*
G01X21637056Y-22375295D01*
G01X21645439Y-22424648D01*
G01X21653324Y-22474172D01*
G01X21660707Y-22523864D01*
G01X21667590Y-22573720D01*
G01X21673972Y-22623735D01*
G01X21679851Y-22673906D01*
G01X21685227Y-22724229D01*
G01X21690100Y-22774700D01*
G01X21694468Y-22825315D01*
G01X21698332Y-22876071D01*
G01X21701690Y-22926964D01*
G01X21704543Y-22977990D01*
G01X21706888Y-23029144D01*
G01X21708726Y-23080424D01*
G01X21710056Y-23131825D01*
G01X21710877Y-23183343D01*
G01X21711189Y-23234975D01*
G01X21710991Y-23286717D01*
G01X21710282Y-23338565D01*
G01X21709062Y-23390515D01*
G01X21707331Y-23442563D01*
G01X21705086Y-23494706D01*
G01X21702328Y-23546939D01*
G01X21699057Y-23599260D01*
G01X21695271Y-23651663D01*
G01X21690970Y-23704145D01*
G01X21686153Y-23756702D01*
G01X21680819Y-23809331D01*
G01X21674969Y-23862027D01*
G01X21668600Y-23914787D01*
G01X21661714Y-23967607D01*
G01X21654308Y-24020483D01*
G01X21646383Y-24073411D01*
G01X21637937Y-24126388D01*
G01X21628970Y-24179409D01*
G01X21619482Y-24232471D01*
G01X21609472Y-24285570D01*
G01X21598938Y-24338702D01*
G01X21587881Y-24391863D01*
G01X21576300Y-24445049D01*
G01X21564194Y-24498257D01*
G01X21551562Y-24551482D01*
G01X21538405Y-24604721D01*
G01X21524720Y-24657971D01*
G01X21510508Y-24711226D01*
G01X21495768Y-24764484D01*
G01X21480500Y-24817740D01*
G01X21464702Y-24870991D01*
G01X21448373Y-24924233D01*
G01X21431515Y-24977461D01*
G01X21414125Y-25030673D01*
G01X21396203Y-25083864D01*
G01X21396203Y-25083864D01*
G01X21396203Y-25083864D01*
G01X21376375Y-25141587D01*
G01X21355894Y-25199119D01*
G01X21334763Y-25256452D01*
G01X21312989Y-25313576D01*
G01X21290574Y-25370482D01*
G01X21267524Y-25427162D01*
G01X21243843Y-25483606D01*
G01X21219536Y-25539806D01*
G01X21194608Y-25595752D01*
G01X21169062Y-25651436D01*
G01X21142905Y-25706849D01*
G01X21116139Y-25761981D01*
G01X21088770Y-25816824D01*
G01X21060803Y-25871368D01*
G01X21032241Y-25925605D01*
G01X21003090Y-25979526D01*
G01X20973354Y-26033121D01*
G01X20943038Y-26086382D01*
G01X20912146Y-26139300D01*
G01X20880683Y-26191866D01*
G01X20848653Y-26244070D01*
G01X20816061Y-26295905D01*
G01X20782912Y-26347360D01*
G01X20749210Y-26398427D01*
G01X20714960Y-26449097D01*
G01X20680166Y-26499361D01*
G01X20644833Y-26549210D01*
G01X20608966Y-26598635D01*
G01X20572569Y-26647626D01*
G01X20535646Y-26696176D01*
G01X20498203Y-26744275D01*
G01X20460244Y-26791914D01*
G01X20421773Y-26839084D01*
G01X20382795Y-26885776D01*
G01X20343314Y-26931981D01*
G01X20303336Y-26977691D01*
G01X20262865Y-27022896D01*
G01X20221905Y-27067586D01*
G01X20180461Y-27111754D01*
G01X20138537Y-27155391D01*
G01X20096139Y-27198486D01*
G01X20053270Y-27241032D01*
G01X20009935Y-27283019D01*
G01X19966140Y-27324439D01*
G01X19921888Y-27365282D01*
G01X19877183Y-27405539D01*
G01X19832032Y-27445202D01*
G01X19786437Y-27484261D01*
G01X19740405Y-27522707D01*
G01X19693939Y-27560532D01*
G01X19647043Y-27597727D01*
G01X19599724Y-27634282D01*
G01X19551984Y-27670189D01*
G01X19503829Y-27705438D01*
G01X19455263Y-27740021D01*
G01X19406291Y-27773928D01*
G01X19356918Y-27807151D01*
G01X19307147Y-27839681D01*
G01X19256985Y-27871508D01*
G01X19206434Y-27902625D01*
G01X19155500Y-27933021D01*
G01X19104188Y-27962687D01*
G01X19052501Y-27991616D01*
G01X19000445Y-28019797D01*
G01X18948024Y-28047222D01*
G01X18895243Y-28073882D01*
G01X18842106Y-28099768D01*
G01X18788618Y-28124870D01*
G01X18734784Y-28149181D01*
G01X18680607Y-28172691D01*
G01X18626093Y-28195390D01*
G01X18571246Y-28217271D01*
G01X18516071Y-28238323D01*
G01X18460572Y-28258539D01*
G01X18404755Y-28277909D01*
G01X18348623Y-28296423D01*
G01X18292180Y-28314074D01*
G01X18235433Y-28330852D01*
G01X18178385Y-28346748D01*
G01X18121041Y-28361754D01*
G01X18063405Y-28375859D01*
G01X18005482Y-28389056D01*
G01X17947277Y-28401335D01*
G01X17888794Y-28412687D01*
G01X17830038Y-28423104D01*
G01X17771013Y-28432576D01*
G01X17711724Y-28441094D01*
G01X17652175Y-28448650D01*
G01X17592372Y-28455234D01*
G01X17532319Y-28460837D01*
G01X17472019Y-28465451D01*
G01X17411479Y-28469066D01*
G01X17350702Y-28471674D01*
G01X17289693Y-28473266D01*
G01X17228457Y-28473831D01*
G01X17166997Y-28473363D01*
G01X17105320Y-28471851D01*
G01X17043429Y-28469286D01*
G01X16981329Y-28465660D01*
G01X16919024Y-28460964D01*
G01X16919024Y-28460964D01*
G01X16919024Y-28460964D01*
G01X16915450Y-28411011D01*
G01X16912121Y-28361132D01*
G01X16909033Y-28311327D01*
G01X16906179Y-28261593D01*
G01X16903555Y-28211928D01*
G01X16901156Y-28162329D01*
G01X16898976Y-28112795D01*
G01X16897010Y-28063324D01*
G01X16895253Y-28013914D01*
G01X16893699Y-27964561D01*
G01X16892344Y-27915265D01*
G01X16892206Y-27909791D01*
G01X16892206Y-27909791D01*
G01X16887710Y-27883925D01*
G01X16852758Y-27872064D01*
G01X16852758Y-27872064D01*
G37*
G36*
G01X30397065Y-24684455D02*
G01X30397065Y-24684455D01*
G01X30448730Y-24688857D01*
G01X30500191Y-24694541D01*
G01X30551429Y-24701503D01*
G01X30602422Y-24709740D01*
G01X30653152Y-24719247D01*
G01X30703597Y-24730023D01*
G01X30753738Y-24742062D01*
G01X30803555Y-24755362D01*
G01X30853028Y-24769919D01*
G01X30902136Y-24785729D01*
G01X30902136Y-24785729D01*
G01X30902136Y-24785729D01*
G01X30949983Y-24803031D01*
G01X30997362Y-24821517D01*
G01X31044257Y-24841176D01*
G01X31090650Y-24862000D01*
G01X31136524Y-24883980D01*
G01X31181864Y-24907105D01*
G01X31226650Y-24931367D01*
G01X31270867Y-24956757D01*
G01X31314498Y-24983265D01*
G01X31357526Y-25010881D01*
G01X31357526Y-25010881D01*
G01X31357526Y-25010881D01*
G01X31395753Y-25008734D01*
G01X31395753Y-25008734D01*
G01X31395753Y-25008734D01*
G01X31427905Y-24969655D01*
G01X31460436Y-24930720D01*
G01X31493365Y-24891938D01*
G01X31526706Y-24853315D01*
G01X31560478Y-24814858D01*
G01X31590646Y-24781070D01*
G01X31590646Y-24781070D01*
G01X31647541Y-24819353D01*
G01X31702642Y-24859201D01*
G01X31755957Y-24900569D01*
G01X31807495Y-24943415D01*
G01X31857265Y-24987693D01*
G01X31905274Y-25033362D01*
G01X31951530Y-25080378D01*
G01X31996042Y-25128696D01*
G01X32038818Y-25178273D01*
G01X32079867Y-25229067D01*
G01X32119196Y-25281032D01*
G01X32156814Y-25334126D01*
G01X32192730Y-25388304D01*
G01X32226950Y-25443525D01*
G01X32259484Y-25499743D01*
G01X32290340Y-25556915D01*
G01X32319526Y-25614998D01*
G01X32347051Y-25673948D01*
G01X32372922Y-25733721D01*
G01X32397148Y-25794275D01*
G01X32419737Y-25855565D01*
G01X32440697Y-25917548D01*
G01X32460037Y-25980179D01*
G01X32477765Y-26043417D01*
G01X32493889Y-26107217D01*
G01X32508417Y-26171535D01*
G01X32521358Y-26236328D01*
G01X32532720Y-26301553D01*
G01X32542511Y-26367165D01*
G01X32550739Y-26433121D01*
G01X32557413Y-26499379D01*
G01X32562541Y-26565893D01*
G01X32566131Y-26632621D01*
G01X32568191Y-26699518D01*
G01X32568730Y-26766542D01*
G01X32567756Y-26833649D01*
G01X32565277Y-26900795D01*
G01X32561301Y-26967936D01*
G01X32555837Y-27035030D01*
G01X32548893Y-27102032D01*
G01X32540476Y-27168899D01*
G01X32530597Y-27235588D01*
G01X32519262Y-27302054D01*
G01X32506479Y-27368254D01*
G01X32492258Y-27434145D01*
G01X32476606Y-27499683D01*
G01X32459532Y-27564824D01*
G01X32441044Y-27629525D01*
G01X32421150Y-27693743D01*
G01X32399858Y-27757433D01*
G01X32399858Y-27757433D01*
G01X32399858Y-27757433D01*
G01X32379392Y-27815556D01*
G01X32357981Y-27872993D01*
G01X32335636Y-27929733D01*
G01X32312369Y-27985764D01*
G01X32288195Y-28041075D01*
G01X32263125Y-28095654D01*
G01X32237172Y-28149489D01*
G01X32210349Y-28202569D01*
G01X32182667Y-28254882D01*
G01X32154140Y-28306417D01*
G01X32124780Y-28357162D01*
G01X32094600Y-28407105D01*
G01X32063613Y-28456236D01*
G01X32031830Y-28504541D01*
G01X31999265Y-28552011D01*
G01X31965930Y-28598632D01*
G01X31931838Y-28644394D01*
G01X31897001Y-28689285D01*
G01X31861432Y-28733293D01*
G01X31825143Y-28776408D01*
G01X31788148Y-28818616D01*
G01X31750457Y-28859907D01*
G01X31712086Y-28900269D01*
G01X31673044Y-28939690D01*
G01X31633347Y-28978159D01*
G01X31593005Y-29015664D01*
G01X31552031Y-29052194D01*
G01X31510439Y-29087738D01*
G01X31468240Y-29122282D01*
G01X31425447Y-29155817D01*
G01X31382074Y-29188329D01*
G01X31338131Y-29219809D01*
G01X31293633Y-29250244D01*
G01X31248591Y-29279622D01*
G01X31203019Y-29307932D01*
G01X31156928Y-29335162D01*
G01X31110331Y-29361302D01*
G01X31063241Y-29386338D01*
G01X31015671Y-29410260D01*
G01X30967632Y-29433056D01*
G01X30919138Y-29454714D01*
G01X30870202Y-29475224D01*
G01X30820835Y-29494572D01*
G01X30771050Y-29512748D01*
G01X30720861Y-29529741D01*
G01X30670279Y-29545537D01*
G01X30619317Y-29560127D01*
G01X30567987Y-29573498D01*
G01X30516303Y-29585639D01*
G01X30464277Y-29596537D01*
G01X30464277Y-29596537D01*
G01X30464277Y-29596537D01*
G01X30443082Y-29619539D01*
G01X30443082Y-29619539D01*
G01X30443082Y-29619539D01*
G01X30437244Y-29646245D01*
G01X30429431Y-29672268D01*
G01X30429431Y-29672268D01*
G01X30429431Y-29672268D01*
G01X30411651Y-29715374D01*
G01X30388837Y-29756233D01*
G01X30361144Y-29794735D01*
G01X30328725Y-29830771D01*
G01X30291731Y-29864230D01*
G01X30250318Y-29895001D01*
G01X30204638Y-29922975D01*
G01X30154845Y-29948040D01*
G01X30101091Y-29970087D01*
G01X30043530Y-29989005D01*
G01X29982316Y-30004684D01*
G01X29975296Y-30006222D01*
G01X29975296Y-30006222D01*
G01X29959266Y-30025185D01*
G01X29959266Y-30025185D01*
G01X29959266Y-30025185D01*
G01X29954501Y-30060570D01*
G01X29945419Y-30094620D01*
G01X29945419Y-30094620D01*
G01X29945419Y-30094620D01*
G01X29930232Y-30130688D01*
G01X29910361Y-30164235D01*
G01X29886041Y-30195213D01*
G01X29857512Y-30223574D01*
G01X29825011Y-30249269D01*
G01X29788775Y-30272250D01*
G01X29749041Y-30292468D01*
G01X29706048Y-30309876D01*
G01X29660033Y-30324426D01*
G01X29611233Y-30336069D01*
G01X29559886Y-30344757D01*
G01X29506230Y-30350441D01*
G01X29450501Y-30353074D01*
G01X29392938Y-30352607D01*
G01X29333779Y-30348993D01*
G01X29273260Y-30342182D01*
G01X29211620Y-30332127D01*
G01X29149095Y-30318779D01*
G01X29085924Y-30302091D01*
G01X29022343Y-30282013D01*
G01X29022343Y-30282013D01*
G01X29022343Y-30282013D01*
G01X28959784Y-30258950D01*
G01X28899624Y-30233458D01*
G01X28842021Y-30205721D01*
G01X28787133Y-30175923D01*
G01X28735119Y-30144246D01*
G01X28686137Y-30110875D01*
G01X28640345Y-30075994D01*
G01X28597902Y-30039785D01*
G01X28558965Y-30002432D01*
G01X28523693Y-29964119D01*
G01X28492245Y-29925030D01*
G01X28464778Y-29885348D01*
G01X28441451Y-29845257D01*
G01X28422421Y-29804940D01*
G01X28407848Y-29764581D01*
G01X28397890Y-29724363D01*
G01X28392704Y-29684471D01*
G01X28392449Y-29645087D01*
G01X28397284Y-29606396D01*
G01X28407366Y-29568580D01*
G01X28407366Y-29568580D01*
G01X28407366Y-29568580D01*
G01X28421571Y-29534972D01*
G01X28440153Y-29503190D01*
G01X28440153Y-29503190D01*
G01X28440153Y-29503190D01*
G01X28438085Y-29480844D01*
G01X28438085Y-29480844D01*
G01X28438085Y-29480844D01*
G01X28398696Y-29430966D01*
G01X28364183Y-29380744D01*
G01X28334599Y-29330360D01*
G01X28309997Y-29279994D01*
G01X28290432Y-29229828D01*
G01X28275957Y-29180044D01*
G01X28266626Y-29130824D01*
G01X28262492Y-29082348D01*
G01X28263609Y-29034799D01*
G01X28270032Y-28988359D01*
G01X28281813Y-28943207D01*
G01X28283455Y-28938278D01*
G01X28283455Y-28938278D01*
G01X28294086Y-28912001D01*
G01X28306679Y-28886541D01*
G01X28306679Y-28886541D01*
G01X28306679Y-28886541D01*
G01X28303591Y-28858374D01*
G01X28303591Y-28858374D01*
G01X28303591Y-28858374D01*
G01X28269081Y-28817896D01*
G01X28235604Y-28776645D01*
G01X28203162Y-28734637D01*
G01X28171758Y-28691889D01*
G01X28141395Y-28648418D01*
G01X28112075Y-28604241D01*
G01X28083803Y-28559375D01*
G01X28056579Y-28513836D01*
G01X28030408Y-28467642D01*
G01X28005293Y-28420810D01*
G01X27981235Y-28373356D01*
G01X27958238Y-28325298D01*
G01X27936305Y-28276651D01*
G01X27915438Y-28227434D01*
G01X27895640Y-28177663D01*
G01X27876915Y-28127354D01*
G01X27859265Y-28076525D01*
G01X27842693Y-28025193D01*
G01X27827201Y-27973375D01*
G01X27812793Y-27921086D01*
G01X27799472Y-27868346D01*
G01X27787240Y-27815169D01*
G01X27776099Y-27761573D01*
G01X27766054Y-27707576D01*
G01X27757107Y-27653193D01*
G01X27749260Y-27598442D01*
G01X27742517Y-27543340D01*
G01X27736880Y-27487903D01*
G01X27732352Y-27432149D01*
G01X27728936Y-27376094D01*
G01X27726636Y-27319755D01*
G01X27725452Y-27263149D01*
G01X27725390Y-27206293D01*
G01X27726450Y-27149204D01*
G01X27728637Y-27091899D01*
G01X27731954Y-27034395D01*
G01X27736401Y-26976708D01*
G01X27741984Y-26918856D01*
G01X27748705Y-26860855D01*
G01X27756565Y-26802722D01*
G01X27765569Y-26744474D01*
G01X27775720Y-26686129D01*
G01X27787019Y-26627702D01*
G01X27799470Y-26569211D01*
G01X27813076Y-26510673D01*
G01X27827839Y-26452104D01*
G01X27843762Y-26393522D01*
G01X27860849Y-26334943D01*
G01X27879102Y-26276384D01*
G01X27898523Y-26217862D01*
G01X27898523Y-26217862D01*
G01X27898523Y-26217862D01*
G01X27920693Y-26154472D01*
G01X27944291Y-26091521D01*
G01X27969297Y-26029049D01*
G01X27995690Y-25967095D01*
G01X28023450Y-25905698D01*
G01X28052558Y-25844898D01*
G01X28082993Y-25784735D01*
G01X28114735Y-25725249D01*
G01X28147764Y-25666478D01*
G01X28182059Y-25608462D01*
G01X28217601Y-25551240D01*
G01X28254369Y-25494853D01*
G01X28292343Y-25439339D01*
G01X28331504Y-25384739D01*
G01X28371829Y-25331091D01*
G01X28413301Y-25278435D01*
G01X28455898Y-25226811D01*
G01X28499600Y-25176258D01*
G01X28544387Y-25126815D01*
G01X28590239Y-25078523D01*
G01X28637136Y-25031420D01*
G01X28685058Y-24985546D01*
G01X28733984Y-24940941D01*
G01X28783894Y-24897644D01*
G01X28834769Y-24855695D01*
G01X28886587Y-24815133D01*
G01X28939329Y-24775997D01*
G01X28992975Y-24738327D01*
G01X29047504Y-24702163D01*
G01X29102896Y-24667544D01*
G01X29159132Y-24634510D01*
G01X29216190Y-24603100D01*
G01X29274051Y-24573353D01*
G01X29332695Y-24545309D01*
G01X29392101Y-24519008D01*
G01X29452249Y-24494489D01*
G01X29513120Y-24471791D01*
G01X29574692Y-24450955D01*
G01X29636947Y-24432019D01*
G01X29699862Y-24415023D01*
G01X29763420Y-24400007D01*
G01X29827598Y-24387010D01*
G01X29892378Y-24376071D01*
G01X29957738Y-24367230D01*
G01X30023660Y-24360527D01*
G01X30090121Y-24356001D01*
G01X30157104Y-24353692D01*
G01X30224586Y-24353638D01*
G01X30292549Y-24355880D01*
G01X30360971Y-24360457D01*
G01X30360971Y-24360457D01*
G01X30360971Y-24360457D01*
G01X30364173Y-24406225D01*
G01X30367004Y-24451880D01*
G01X30369479Y-24497428D01*
G01X30371612Y-24542873D01*
G01X30373414Y-24588222D01*
G01X30374900Y-24633479D01*
G01X30375722Y-24663603D01*
G01X30375722Y-24663603D01*
G01X30397418Y-24684353D01*
G01X30397418Y-24684353D01*
G37*
G36*
G01X27196725Y-17720176D02*
G01X27371726Y-17720176D01*
G01X27371726Y-17720176D01*
G01X27424059Y-17714690D01*
G01X27472611Y-17698985D01*
G01X27516251Y-17674192D01*
G01X27553848Y-17641442D01*
G01X27584270Y-17601865D01*
G01X27606387Y-17556594D01*
G01X27619068Y-17506757D01*
G01X27621726Y-17470176D01*
G01X27621726Y-17295176D01*
G01X27621726Y-17120176D01*
G01X27621726Y-17120176D01*
G01X27616239Y-17067842D01*
G01X27600534Y-17019290D01*
G01X27575741Y-16975650D01*
G01X27542991Y-16938054D01*
G01X27503415Y-16907632D01*
G01X27458143Y-16885515D01*
G01X27408307Y-16872833D01*
G01X27371726Y-16870176D01*
G01X27196725Y-16870176D01*
G01X27021725Y-16870176D01*
G01X27021725Y-16870176D01*
G01X26969392Y-16875662D01*
G01X26920840Y-16891367D01*
G01X26877200Y-16916160D01*
G01X26839603Y-16948910D01*
G01X26809181Y-16988487D01*
G01X26787064Y-17033758D01*
G01X26774383Y-17083595D01*
G01X26771725Y-17120176D01*
G01X26771725Y-17295176D01*
G01X26771725Y-17470176D01*
G01X26771725Y-17470176D01*
G01X26777212Y-17522510D01*
G01X26792917Y-17571062D01*
G01X26817710Y-17614702D01*
G01X26850460Y-17652298D01*
G01X26890036Y-17682720D01*
G01X26935308Y-17704837D01*
G01X26985144Y-17717519D01*
G01X27021725Y-17720176D01*
G01X27196725Y-17720176D01*
G37*
G36*
G01X27196725Y-15420176D02*
G01X27021725Y-15420176D01*
G01X27021725Y-15420176D01*
G01X26969392Y-15425662D01*
G01X26920840Y-15441367D01*
G01X26877200Y-15466160D01*
G01X26839603Y-15498910D01*
G01X26809181Y-15538487D01*
G01X26787064Y-15583758D01*
G01X26774383Y-15633595D01*
G01X26771725Y-15670176D01*
G01X26771725Y-15845176D01*
G01X26771725Y-16020176D01*
G01X26771725Y-16020176D01*
G01X26777212Y-16072510D01*
G01X26792917Y-16121062D01*
G01X26817710Y-16164702D01*
G01X26850460Y-16202298D01*
G01X26890036Y-16232720D01*
G01X26935308Y-16254837D01*
G01X26985144Y-16267519D01*
G01X27021725Y-16270176D01*
G01X27196725Y-16270176D01*
G01X27371726Y-16270176D01*
G01X27371726Y-16270176D01*
G01X27424059Y-16264690D01*
G01X27472611Y-16248985D01*
G01X27516251Y-16224192D01*
G01X27553848Y-16191442D01*
G01X27584270Y-16151865D01*
G01X27606387Y-16106594D01*
G01X27619068Y-16056757D01*
G01X27621726Y-16020176D01*
G01X27621726Y-15845176D01*
G01X27621726Y-15670176D01*
G01X27621726Y-15670176D01*
G01X27616239Y-15617842D01*
G01X27600534Y-15569290D01*
G01X27575741Y-15525650D01*
G01X27542991Y-15488054D01*
G01X27503415Y-15457632D01*
G01X27458143Y-15435515D01*
G01X27408307Y-15422833D01*
G01X27371726Y-15420176D01*
G01X27196725Y-15420176D01*
G37*
G36*
G01X28856392Y-17598788D02*
G01X29031392Y-17598788D01*
G01X29031392Y-17598788D01*
G01X29083725Y-17593302D01*
G01X29132277Y-17577597D01*
G01X29175917Y-17552804D01*
G01X29213514Y-17520054D01*
G01X29243936Y-17480477D01*
G01X29266053Y-17435206D01*
G01X29278734Y-17385369D01*
G01X29281392Y-17348788D01*
G01X29281392Y-17173788D01*
G01X29281392Y-16998788D01*
G01X29281392Y-16998788D01*
G01X29275905Y-16946454D01*
G01X29260200Y-16897902D01*
G01X29235407Y-16854262D01*
G01X29202657Y-16816666D01*
G01X29163081Y-16786244D01*
G01X29117809Y-16764127D01*
G01X29067973Y-16751445D01*
G01X29031392Y-16748788D01*
G01X28856392Y-16748788D01*
G01X28681392Y-16748788D01*
G01X28681392Y-16748788D01*
G01X28629058Y-16754274D01*
G01X28580506Y-16769979D01*
G01X28536866Y-16794772D01*
G01X28499269Y-16827522D01*
G01X28468847Y-16867099D01*
G01X28446730Y-16912370D01*
G01X28434049Y-16962207D01*
G01X28431392Y-16998788D01*
G01X28431392Y-17173788D01*
G01X28431392Y-17348788D01*
G01X28431392Y-17348788D01*
G01X28436878Y-17401122D01*
G01X28452583Y-17449674D01*
G01X28477376Y-17493314D01*
G01X28510126Y-17530910D01*
G01X28549702Y-17561332D01*
G01X28594974Y-17583449D01*
G01X28644810Y-17596131D01*
G01X28681392Y-17598788D01*
G01X28856392Y-17598788D01*
G37*
G36*
G01X28856392Y-15298788D02*
G01X28681392Y-15298788D01*
G01X28681392Y-15298788D01*
G01X28629058Y-15304274D01*
G01X28580506Y-15319979D01*
G01X28536866Y-15344772D01*
G01X28499269Y-15377522D01*
G01X28468847Y-15417099D01*
G01X28446730Y-15462370D01*
G01X28434049Y-15512207D01*
G01X28431392Y-15548788D01*
G01X28431392Y-15723788D01*
G01X28431392Y-15898788D01*
G01X28431392Y-15898788D01*
G01X28436878Y-15951122D01*
G01X28452583Y-15999674D01*
G01X28477376Y-16043314D01*
G01X28510126Y-16080910D01*
G01X28549702Y-16111332D01*
G01X28594974Y-16133449D01*
G01X28644810Y-16146131D01*
G01X28681392Y-16148788D01*
G01X28856392Y-16148788D01*
G01X29031392Y-16148788D01*
G01X29031392Y-16148788D01*
G01X29083725Y-16143302D01*
G01X29132277Y-16127597D01*
G01X29175917Y-16102804D01*
G01X29213514Y-16070054D01*
G01X29243936Y-16030477D01*
G01X29266053Y-15985206D01*
G01X29278734Y-15935369D01*
G01X29281392Y-15898788D01*
G01X29281392Y-15723788D01*
G01X29281392Y-15548788D01*
G01X29281392Y-15548788D01*
G01X29275905Y-15496454D01*
G01X29260200Y-15447902D01*
G01X29235407Y-15404262D01*
G01X29202657Y-15366666D01*
G01X29163081Y-15336244D01*
G01X29117809Y-15314127D01*
G01X29067973Y-15301445D01*
G01X29031392Y-15298788D01*
G01X28856392Y-15298788D01*
G37*
G36*
G01X24536033Y-13857863D02*
G01X24711033Y-13857863D01*
G01X24711033Y-13857863D01*
G01X24763367Y-13852377D01*
G01X24811919Y-13836672D01*
G01X24855559Y-13811879D01*
G01X24893156Y-13779129D01*
G01X24923578Y-13739552D01*
G01X24945695Y-13694281D01*
G01X24958376Y-13644444D01*
G01X24961033Y-13607863D01*
G01X24961033Y-13432863D01*
G01X24961033Y-13257863D01*
G01X24961033Y-13257863D01*
G01X24955547Y-13205529D01*
G01X24939842Y-13156977D01*
G01X24915049Y-13113337D01*
G01X24882299Y-13075741D01*
G01X24842723Y-13045319D01*
G01X24797451Y-13023202D01*
G01X24747615Y-13010520D01*
G01X24711033Y-13007863D01*
G01X24536033Y-13007863D01*
G01X24361034Y-13007863D01*
G01X24361034Y-13007863D01*
G01X24308700Y-13013349D01*
G01X24260148Y-13029054D01*
G01X24216508Y-13053847D01*
G01X24178911Y-13086597D01*
G01X24148489Y-13126174D01*
G01X24126372Y-13171445D01*
G01X24113691Y-13221282D01*
G01X24111034Y-13257863D01*
G01X24111034Y-13432863D01*
G01X24111034Y-13607863D01*
G01X24111034Y-13607863D01*
G01X24116520Y-13660197D01*
G01X24132225Y-13708749D01*
G01X24157018Y-13752389D01*
G01X24189768Y-13789985D01*
G01X24229344Y-13820407D01*
G01X24274616Y-13842524D01*
G01X24324452Y-13855206D01*
G01X24361034Y-13857863D01*
G01X24536033Y-13857863D01*
G37*
G36*
G01X24536033Y-11557863D02*
G01X24361034Y-11557863D01*
G01X24361034Y-11557863D01*
G01X24308700Y-11563349D01*
G01X24260148Y-11579054D01*
G01X24216508Y-11603847D01*
G01X24178911Y-11636597D01*
G01X24148489Y-11676174D01*
G01X24126372Y-11721445D01*
G01X24113691Y-11771282D01*
G01X24111034Y-11807863D01*
G01X24111034Y-11982863D01*
G01X24111034Y-12157863D01*
G01X24111034Y-12157863D01*
G01X24116520Y-12210197D01*
G01X24132225Y-12258749D01*
G01X24157018Y-12302389D01*
G01X24189768Y-12339985D01*
G01X24229344Y-12370407D01*
G01X24274616Y-12392524D01*
G01X24324452Y-12405206D01*
G01X24361034Y-12407863D01*
G01X24536033Y-12407863D01*
G01X24711033Y-12407863D01*
G01X24711033Y-12407863D01*
G01X24763367Y-12402377D01*
G01X24811919Y-12386672D01*
G01X24855559Y-12361879D01*
G01X24893156Y-12329129D01*
G01X24923578Y-12289552D01*
G01X24945695Y-12244281D01*
G01X24958376Y-12194444D01*
G01X24961033Y-12157863D01*
G01X24961033Y-11982863D01*
G01X24961033Y-11807863D01*
G01X24961033Y-11807863D01*
G01X24955547Y-11755529D01*
G01X24939842Y-11706977D01*
G01X24915049Y-11663337D01*
G01X24882299Y-11625741D01*
G01X24842723Y-11595319D01*
G01X24797451Y-11573202D01*
G01X24747615Y-11560520D01*
G01X24711033Y-11557863D01*
G01X24536033Y-11557863D01*
G37*
G36*
G01X14915781Y-7696458D02*
G01X15090780Y-7696458D01*
G01X15090780Y-7696458D01*
G01X15143114Y-7690972D01*
G01X15191666Y-7675267D01*
G01X15235306Y-7650474D01*
G01X15272903Y-7617724D01*
G01X15303325Y-7578147D01*
G01X15325442Y-7532876D01*
G01X15338123Y-7483039D01*
G01X15340780Y-7446458D01*
G01X15340780Y-7271458D01*
G01X15340780Y-7096458D01*
G01X15340780Y-7096458D01*
G01X15335294Y-7044124D01*
G01X15319589Y-6995572D01*
G01X15294796Y-6951932D01*
G01X15262046Y-6914336D01*
G01X15222470Y-6883914D01*
G01X15177198Y-6861797D01*
G01X15127362Y-6849115D01*
G01X15090780Y-6846458D01*
G01X14915781Y-6846458D01*
G01X14740780Y-6846458D01*
G01X14740780Y-6846458D01*
G01X14688447Y-6851944D01*
G01X14639895Y-6867649D01*
G01X14596255Y-6892442D01*
G01X14558658Y-6925192D01*
G01X14528236Y-6964769D01*
G01X14506119Y-7010040D01*
G01X14493438Y-7059877D01*
G01X14490780Y-7096458D01*
G01X14490780Y-7271458D01*
G01X14490780Y-7446458D01*
G01X14490780Y-7446458D01*
G01X14496267Y-7498792D01*
G01X14511972Y-7547344D01*
G01X14536765Y-7590984D01*
G01X14569515Y-7628580D01*
G01X14609091Y-7659002D01*
G01X14654363Y-7681119D01*
G01X14704199Y-7693801D01*
G01X14740780Y-7696458D01*
G01X14915781Y-7696458D01*
G37*
G36*
G01X14915781Y-5396458D02*
G01X14740780Y-5396458D01*
G01X14740780Y-5396458D01*
G01X14688447Y-5401944D01*
G01X14639895Y-5417649D01*
G01X14596255Y-5442442D01*
G01X14558658Y-5475192D01*
G01X14528236Y-5514769D01*
G01X14506119Y-5560040D01*
G01X14493438Y-5609877D01*
G01X14490780Y-5646458D01*
G01X14490780Y-5821458D01*
G01X14490780Y-5996458D01*
G01X14490780Y-5996458D01*
G01X14496267Y-6048792D01*
G01X14511972Y-6097344D01*
G01X14536765Y-6140984D01*
G01X14569515Y-6178580D01*
G01X14609091Y-6209002D01*
G01X14654363Y-6231119D01*
G01X14704199Y-6243801D01*
G01X14740780Y-6246458D01*
G01X14915781Y-6246458D01*
G01X15090780Y-6246458D01*
G01X15090780Y-6246458D01*
G01X15143114Y-6240972D01*
G01X15191666Y-6225267D01*
G01X15235306Y-6200474D01*
G01X15272903Y-6167724D01*
G01X15303325Y-6128147D01*
G01X15325442Y-6082876D01*
G01X15338123Y-6033039D01*
G01X15340780Y-5996458D01*
G01X15340780Y-5821458D01*
G01X15340780Y-5646458D01*
G01X15340780Y-5646458D01*
G01X15335294Y-5594124D01*
G01X15319589Y-5545572D01*
G01X15294796Y-5501932D01*
G01X15262046Y-5464336D01*
G01X15222470Y-5433914D01*
G01X15177198Y-5411797D01*
G01X15127362Y-5399115D01*
G01X15090780Y-5396458D01*
G01X14915781Y-5396458D01*
G37*
G36*
G01X5817602Y-9207422D02*
G01X5992602Y-9207422D01*
G01X5992602Y-9207422D01*
G01X6044935Y-9201936D01*
G01X6093487Y-9186231D01*
G01X6137127Y-9161438D01*
G01X6174724Y-9128688D01*
G01X6205146Y-9089111D01*
G01X6227263Y-9043840D01*
G01X6239944Y-8994003D01*
G01X6242602Y-8957422D01*
G01X6242602Y-8782422D01*
G01X6242602Y-8607422D01*
G01X6242602Y-8607422D01*
G01X6237115Y-8555088D01*
G01X6221410Y-8506536D01*
G01X6196617Y-8462896D01*
G01X6163867Y-8425300D01*
G01X6124291Y-8394878D01*
G01X6079019Y-8372761D01*
G01X6029183Y-8360079D01*
G01X5992602Y-8357422D01*
G01X5817602Y-8357422D01*
G01X5642601Y-8357422D01*
G01X5642601Y-8357422D01*
G01X5590268Y-8362908D01*
G01X5541716Y-8378613D01*
G01X5498076Y-8403406D01*
G01X5460479Y-8436156D01*
G01X5430057Y-8475733D01*
G01X5407940Y-8521004D01*
G01X5395259Y-8570841D01*
G01X5392601Y-8607422D01*
G01X5392601Y-8782422D01*
G01X5392601Y-8957422D01*
G01X5392601Y-8957422D01*
G01X5398088Y-9009756D01*
G01X5413793Y-9058308D01*
G01X5438586Y-9101948D01*
G01X5471336Y-9139544D01*
G01X5510912Y-9169966D01*
G01X5556184Y-9192083D01*
G01X5606020Y-9204765D01*
G01X5642601Y-9207422D01*
G01X5817602Y-9207422D01*
G37*
G36*
G01X5817602Y-6907422D02*
G01X5642601Y-6907422D01*
G01X5642601Y-6907422D01*
G01X5590268Y-6912908D01*
G01X5541716Y-6928613D01*
G01X5498076Y-6953406D01*
G01X5460479Y-6986156D01*
G01X5430057Y-7025733D01*
G01X5407940Y-7071004D01*
G01X5395259Y-7120841D01*
G01X5392601Y-7157422D01*
G01X5392601Y-7332422D01*
G01X5392601Y-7507422D01*
G01X5392601Y-7507422D01*
G01X5398088Y-7559756D01*
G01X5413793Y-7608308D01*
G01X5438586Y-7651948D01*
G01X5471336Y-7689544D01*
G01X5510912Y-7719966D01*
G01X5556184Y-7742083D01*
G01X5606020Y-7754765D01*
G01X5642601Y-7757422D01*
G01X5817602Y-7757422D01*
G01X5992602Y-7757422D01*
G01X5992602Y-7757422D01*
G01X6044935Y-7751936D01*
G01X6093487Y-7736231D01*
G01X6137127Y-7711438D01*
G01X6174724Y-7678688D01*
G01X6205146Y-7639111D01*
G01X6227263Y-7593840D01*
G01X6239944Y-7544003D01*
G01X6242602Y-7507422D01*
G01X6242602Y-7332422D01*
G01X6242602Y-7157422D01*
G01X6242602Y-7157422D01*
G01X6237115Y-7105088D01*
G01X6221410Y-7056536D01*
G01X6196617Y-7012896D01*
G01X6163867Y-6975300D01*
G01X6124291Y-6944878D01*
G01X6079019Y-6922761D01*
G01X6029183Y-6910079D01*
G01X5992602Y-6907422D01*
G01X5817602Y-6907422D01*
G37*
G36*
G01X7093392Y-15148261D02*
G01X7268391Y-15148261D01*
G01X7268391Y-15148261D01*
G01X7320725Y-15142775D01*
G01X7369277Y-15127070D01*
G01X7412917Y-15102277D01*
G01X7450514Y-15069527D01*
G01X7480936Y-15029950D01*
G01X7503053Y-14984679D01*
G01X7515734Y-14934842D01*
G01X7518391Y-14898261D01*
G01X7518391Y-14723261D01*
G01X7518391Y-14548261D01*
G01X7518391Y-14548261D01*
G01X7512905Y-14495927D01*
G01X7497200Y-14447375D01*
G01X7472407Y-14403735D01*
G01X7439657Y-14366139D01*
G01X7400081Y-14335717D01*
G01X7354809Y-14313600D01*
G01X7304973Y-14300918D01*
G01X7268391Y-14298261D01*
G01X7093392Y-14298261D01*
G01X6918392Y-14298261D01*
G01X6918392Y-14298261D01*
G01X6866058Y-14303747D01*
G01X6817506Y-14319452D01*
G01X6773866Y-14344245D01*
G01X6736269Y-14376995D01*
G01X6705847Y-14416572D01*
G01X6683730Y-14461843D01*
G01X6671049Y-14511680D01*
G01X6668392Y-14548261D01*
G01X6668392Y-14723261D01*
G01X6668392Y-14898261D01*
G01X6668392Y-14898261D01*
G01X6673878Y-14950595D01*
G01X6689583Y-14999147D01*
G01X6714376Y-15042787D01*
G01X6747126Y-15080383D01*
G01X6786702Y-15110805D01*
G01X6831974Y-15132922D01*
G01X6881810Y-15145604D01*
G01X6918392Y-15148261D01*
G01X7093392Y-15148261D01*
G37*
G36*
G01X7093392Y-12848261D02*
G01X6918392Y-12848261D01*
G01X6918392Y-12848261D01*
G01X6866058Y-12853747D01*
G01X6817506Y-12869452D01*
G01X6773866Y-12894245D01*
G01X6736269Y-12926995D01*
G01X6705847Y-12966572D01*
G01X6683730Y-13011843D01*
G01X6671049Y-13061680D01*
G01X6668392Y-13098261D01*
G01X6668392Y-13273261D01*
G01X6668392Y-13448261D01*
G01X6668392Y-13448261D01*
G01X6673878Y-13500595D01*
G01X6689583Y-13549147D01*
G01X6714376Y-13592787D01*
G01X6747126Y-13630383D01*
G01X6786702Y-13660805D01*
G01X6831974Y-13682922D01*
G01X6881810Y-13695604D01*
G01X6918392Y-13698261D01*
G01X7093392Y-13698261D01*
G01X7268391Y-13698261D01*
G01X7268391Y-13698261D01*
G01X7320725Y-13692775D01*
G01X7369277Y-13677070D01*
G01X7412917Y-13652277D01*
G01X7450514Y-13619527D01*
G01X7480936Y-13579950D01*
G01X7503053Y-13534679D01*
G01X7515734Y-13484842D01*
G01X7518391Y-13448261D01*
G01X7518391Y-13273261D01*
G01X7518391Y-13098261D01*
G01X7518391Y-13098261D01*
G01X7512905Y-13045927D01*
G01X7497200Y-12997375D01*
G01X7472407Y-12953735D01*
G01X7439657Y-12916139D01*
G01X7400081Y-12885717D01*
G01X7354809Y-12863600D01*
G01X7304973Y-12850918D01*
G01X7268391Y-12848261D01*
G01X7093392Y-12848261D01*
G37*
G36*
G01X8720819Y-15197614D02*
G01X8895819Y-15197614D01*
G01X8895819Y-15197614D01*
G01X8948152Y-15192128D01*
G01X8996704Y-15176423D01*
G01X9040344Y-15151630D01*
G01X9077941Y-15118880D01*
G01X9108363Y-15079303D01*
G01X9130480Y-15034032D01*
G01X9143161Y-14984195D01*
G01X9145819Y-14947614D01*
G01X9145819Y-14772614D01*
G01X9145819Y-14597614D01*
G01X9145819Y-14597614D01*
G01X9140332Y-14545280D01*
G01X9124627Y-14496728D01*
G01X9099834Y-14453088D01*
G01X9067084Y-14415492D01*
G01X9027508Y-14385070D01*
G01X8982236Y-14362953D01*
G01X8932400Y-14350271D01*
G01X8895819Y-14347614D01*
G01X8720819Y-14347614D01*
G01X8545818Y-14347614D01*
G01X8545818Y-14347614D01*
G01X8493485Y-14353100D01*
G01X8444933Y-14368805D01*
G01X8401293Y-14393598D01*
G01X8363696Y-14426348D01*
G01X8333274Y-14465925D01*
G01X8311157Y-14511196D01*
G01X8298476Y-14561033D01*
G01X8295818Y-14597614D01*
G01X8295818Y-14772614D01*
G01X8295818Y-14947614D01*
G01X8295818Y-14947614D01*
G01X8301305Y-14999948D01*
G01X8317010Y-15048500D01*
G01X8341803Y-15092140D01*
G01X8374553Y-15129736D01*
G01X8414129Y-15160158D01*
G01X8459401Y-15182275D01*
G01X8509237Y-15194957D01*
G01X8545818Y-15197614D01*
G01X8720819Y-15197614D01*
G37*
G36*
G01X8720819Y-12897614D02*
G01X8545818Y-12897614D01*
G01X8545818Y-12897614D01*
G01X8493485Y-12903100D01*
G01X8444933Y-12918805D01*
G01X8401293Y-12943598D01*
G01X8363696Y-12976348D01*
G01X8333274Y-13015925D01*
G01X8311157Y-13061196D01*
G01X8298476Y-13111033D01*
G01X8295818Y-13147614D01*
G01X8295818Y-13322614D01*
G01X8295818Y-13497614D01*
G01X8295818Y-13497614D01*
G01X8301305Y-13549948D01*
G01X8317010Y-13598500D01*
G01X8341803Y-13642140D01*
G01X8374553Y-13679736D01*
G01X8414129Y-13710158D01*
G01X8459401Y-13732275D01*
G01X8509237Y-13744957D01*
G01X8545818Y-13747614D01*
G01X8720819Y-13747614D01*
G01X8895819Y-13747614D01*
G01X8895819Y-13747614D01*
G01X8948152Y-13742128D01*
G01X8996704Y-13726423D01*
G01X9040344Y-13701630D01*
G01X9077941Y-13668880D01*
G01X9108363Y-13629303D01*
G01X9130480Y-13584032D01*
G01X9143161Y-13534195D01*
G01X9145819Y-13497614D01*
G01X9145819Y-13322614D01*
G01X9145819Y-13147614D01*
G01X9145819Y-13147614D01*
G01X9140332Y-13095280D01*
G01X9124627Y-13046728D01*
G01X9099834Y-13003088D01*
G01X9067084Y-12965492D01*
G01X9027508Y-12935070D01*
G01X8982236Y-12912953D01*
G01X8932400Y-12900271D01*
G01X8895819Y-12897614D01*
G01X8720819Y-12897614D01*
G37*
G36*
G01X10557920Y-15088313D02*
G01X10732919Y-15088313D01*
G01X10732919Y-15088313D01*
G01X10785253Y-15082827D01*
G01X10833805Y-15067122D01*
G01X10877445Y-15042329D01*
G01X10915042Y-15009579D01*
G01X10945464Y-14970002D01*
G01X10967581Y-14924731D01*
G01X10980262Y-14874894D01*
G01X10982919Y-14838313D01*
G01X10982919Y-14663313D01*
G01X10982919Y-14488313D01*
G01X10982919Y-14488313D01*
G01X10977433Y-14435979D01*
G01X10961728Y-14387427D01*
G01X10936935Y-14343787D01*
G01X10904185Y-14306191D01*
G01X10864609Y-14275769D01*
G01X10819337Y-14253652D01*
G01X10769501Y-14240970D01*
G01X10732919Y-14238313D01*
G01X10557920Y-14238313D01*
G01X10382919Y-14238313D01*
G01X10382919Y-14238313D01*
G01X10330586Y-14243799D01*
G01X10282034Y-14259504D01*
G01X10238394Y-14284297D01*
G01X10200797Y-14317047D01*
G01X10170375Y-14356624D01*
G01X10148258Y-14401895D01*
G01X10135577Y-14451732D01*
G01X10132919Y-14488313D01*
G01X10132919Y-14663313D01*
G01X10132919Y-14838313D01*
G01X10132919Y-14838313D01*
G01X10138406Y-14890647D01*
G01X10154111Y-14939199D01*
G01X10178904Y-14982839D01*
G01X10211654Y-15020435D01*
G01X10251230Y-15050857D01*
G01X10296502Y-15072974D01*
G01X10346338Y-15085656D01*
G01X10382919Y-15088313D01*
G01X10557920Y-15088313D01*
G37*
G36*
G01X10557920Y-12788313D02*
G01X10382919Y-12788313D01*
G01X10382919Y-12788313D01*
G01X10330586Y-12793799D01*
G01X10282034Y-12809504D01*
G01X10238394Y-12834297D01*
G01X10200797Y-12867047D01*
G01X10170375Y-12906624D01*
G01X10148258Y-12951895D01*
G01X10135577Y-13001732D01*
G01X10132919Y-13038313D01*
G01X10132919Y-13213313D01*
G01X10132919Y-13388313D01*
G01X10132919Y-13388313D01*
G01X10138406Y-13440647D01*
G01X10154111Y-13489199D01*
G01X10178904Y-13532839D01*
G01X10211654Y-13570435D01*
G01X10251230Y-13600857D01*
G01X10296502Y-13622974D01*
G01X10346338Y-13635656D01*
G01X10382919Y-13638313D01*
G01X10557920Y-13638313D01*
G01X10732919Y-13638313D01*
G01X10732919Y-13638313D01*
G01X10785253Y-13632827D01*
G01X10833805Y-13617122D01*
G01X10877445Y-13592329D01*
G01X10915042Y-13559579D01*
G01X10945464Y-13520002D01*
G01X10967581Y-13474731D01*
G01X10980262Y-13424894D01*
G01X10982919Y-13388313D01*
G01X10982919Y-13213313D01*
G01X10982919Y-13038313D01*
G01X10982919Y-13038313D01*
G01X10977433Y-12985979D01*
G01X10961728Y-12937427D01*
G01X10936935Y-12893787D01*
G01X10904185Y-12856191D01*
G01X10864609Y-12825769D01*
G01X10819337Y-12803652D01*
G01X10769501Y-12790970D01*
G01X10732919Y-12788313D01*
G01X10557920Y-12788313D01*
G37*
G36*
G01X36486525Y-14625000D02*
G01X37686525Y-14625000D01*
G01X37686525Y-15825000D01*
G01X36486525Y-15825000D01*
G01X36486525Y-14625000D01*
G37*
G36*
G01X37936525Y-14630859D02*
G01X37936525Y-14630859D01*
G01X37979884Y-14627343D01*
G01X37979884Y-14627343D01*
G01X38026006Y-14644912D01*
G01X38033790Y-14673047D01*
G01X38033790Y-14673047D01*
G01X38033670Y-14696162D01*
G01X38033310Y-14745257D01*
G01X38032710Y-14820332D01*
G01X38032619Y-14831543D01*
G01X38032619Y-14831543D01*
G01X38031884Y-14928363D01*
G01X38031546Y-14984864D01*
G01X38031451Y-15009653D01*
G01X38031447Y-15012890D01*
G01X38031447Y-15012890D01*
G01X38077823Y-14983997D01*
G01X38125546Y-14963738D01*
G01X38174616Y-14952114D01*
G01X38217189Y-14949023D01*
G01X38217189Y-14949023D01*
G01X38270248Y-14955140D01*
G01X38316927Y-14973492D01*
G01X38357225Y-15004078D01*
G01X38369240Y-15016992D01*
G01X38369240Y-15016992D01*
G01X38401948Y-15074600D01*
G01X38419343Y-15138470D01*
G01X38426261Y-15191980D01*
G01X38427537Y-15218509D01*
G01X38427540Y-15219140D01*
G01X38427540Y-15219140D01*
G01X38424393Y-15275120D01*
G01X38414949Y-15327045D01*
G01X38399209Y-15374914D01*
G01X38377174Y-15418728D01*
G01X38362501Y-15440918D01*
G01X38362501Y-15440918D01*
G01X38308237Y-15491377D01*
G01X38249049Y-15518213D01*
G01X38199855Y-15528885D01*
G01X38175578Y-15530853D01*
G01X38175001Y-15530859D01*
G01X38175001Y-15530859D01*
G01X38121206Y-15527267D01*
G01X38070564Y-15516492D01*
G01X38023074Y-15498533D01*
G01X37978737Y-15473391D01*
G01X37947072Y-15449414D01*
G01X37947072Y-15449414D01*
G01X37950048Y-15416039D01*
G01X37952415Y-15373570D01*
G01X37954173Y-15322007D01*
G01X37955322Y-15261351D01*
G01X37955861Y-15191601D01*
G01X37955861Y-15191601D01*
G01X37955861Y-15191601D01*
G01X37955683Y-15152524D01*
G01X37955149Y-15107808D01*
G01X37954260Y-15057453D01*
G01X37953016Y-15001459D01*
G01X37951416Y-14939826D01*
G01X37949708Y-14880761D01*
G01X37949708Y-14880761D01*
G01X37945975Y-14776359D01*
G01X37942410Y-14704582D01*
G01X37939394Y-14660015D01*
G01X37937305Y-14637246D01*
G01X37936525Y-14630859D01*
G01X37936525Y-14630859D01*
G37*
%LPC*%
G36*
G01X38030275Y-15401367D02*
G01X38030275Y-15401367D01*
G01X38074079Y-15433095D01*
G01X38120415Y-15453750D01*
G01X38169283Y-15463330D01*
G01X38186134Y-15464062D01*
G01X38186134Y-15464062D01*
G01X38236589Y-15455592D01*
G01X38277209Y-15430183D01*
G01X38304201Y-15394922D01*
G01X38304201Y-15394922D01*
G01X38329800Y-15328993D01*
G01X38340672Y-15268697D01*
G01X38343126Y-15233586D01*
G01X38343165Y-15230859D01*
G01X38343165Y-15230859D01*
G01X38339289Y-15171076D01*
G01X38327661Y-15121101D01*
G01X38308282Y-15080935D01*
G01X38300099Y-15069726D01*
G01X38300099Y-15069726D01*
G01X38242043Y-15027357D01*
G01X38197808Y-15016717D01*
G01X38191994Y-15016406D01*
G01X38190236Y-15016406D01*
G01X38190236Y-15016406D01*
G01X38141993Y-15021728D01*
G01X38095820Y-15037694D01*
G01X38051717Y-15064303D01*
G01X38032619Y-15079687D01*
G01X38032619Y-15079687D01*
G01X38032866Y-15118906D01*
G01X38033204Y-15156738D01*
G01X38033204Y-15156738D01*
G01X38033717Y-15230676D01*
G01X38033790Y-15257812D01*
G01X38033790Y-15257812D01*
G01X38033790Y-15257812D01*
G01X38033360Y-15319120D01*
G01X38032068Y-15368513D01*
G01X38030275Y-15401367D01*
G37*
%LPD*%
G36*
G01X38527736Y-15240820D02*
G01X38527736Y-15240820D01*
G01X38531224Y-15185322D01*
G01X38541689Y-15134844D01*
G01X38559130Y-15089385D01*
G01X38583547Y-15048946D01*
G01X38599806Y-15029004D01*
G01X38599806Y-15029004D01*
G01X38657164Y-14984133D01*
G01X38716547Y-14960269D01*
G01X38764590Y-14950779D01*
G01X38787929Y-14949028D01*
G01X38788478Y-14949023D01*
G01X38788478Y-14949023D01*
G01X38842360Y-14953630D01*
G01X38890943Y-14967451D01*
G01X38934227Y-14990485D01*
G01X38972213Y-15022733D01*
G01X38978029Y-15029004D01*
G01X38978029Y-15029004D01*
G01X39015744Y-15087364D01*
G01X39037201Y-15149048D01*
G01X39046985Y-15202319D01*
G01X39049682Y-15235442D01*
G01X39049806Y-15240820D01*
G01X39049806Y-15240820D01*
G01X39040162Y-15323097D01*
G01X39018215Y-15386711D01*
G01X38994445Y-15429738D01*
G01X38979333Y-15450252D01*
G01X38978029Y-15451757D01*
G01X38978029Y-15451757D01*
G01X38920665Y-15496135D01*
G01X38860988Y-15519737D01*
G01X38812583Y-15529123D01*
G01X38789033Y-15530854D01*
G01X38788478Y-15530859D01*
G01X38788478Y-15530859D01*
G01X38735074Y-15526303D01*
G01X38686800Y-15512634D01*
G01X38643657Y-15489853D01*
G01X38605643Y-15457959D01*
G01X38599806Y-15451757D01*
G01X38599806Y-15451757D01*
G01X38561937Y-15393859D01*
G01X38540392Y-15332438D01*
G01X38530568Y-15279286D01*
G01X38527860Y-15246196D01*
G01X38527736Y-15240820D01*
G37*
%LPC*%
G36*
G01X38612111Y-15223828D02*
G01X38612111Y-15223828D01*
G01X38615763Y-15278867D01*
G01X38626719Y-15328487D01*
G01X38644979Y-15372685D01*
G01X38658693Y-15395507D01*
G01X38658693Y-15395507D01*
G01X38712467Y-15443443D01*
G01X38764333Y-15461368D01*
G01X38788453Y-15464062D01*
G01X38788478Y-15464062D01*
G01X38788478Y-15464062D01*
G01X38841187Y-15457560D01*
G01X38885362Y-15438052D01*
G01X38919142Y-15407812D01*
G01X38919142Y-15407812D01*
G01X38951278Y-15346593D01*
G01X38963830Y-15288139D01*
G01X38966014Y-15258254D01*
G01X38966017Y-15257812D01*
G01X38966017Y-15257812D01*
G01X38962250Y-15202727D01*
G01X38950949Y-15152970D01*
G01X38932115Y-15108541D01*
G01X38917970Y-15085546D01*
G01X38917970Y-15085546D01*
G01X38863620Y-15037201D01*
G01X38812209Y-15019123D01*
G01X38788502Y-15016406D01*
G01X38788478Y-15016406D01*
G01X38788478Y-15016406D01*
G01X38735836Y-15022976D01*
G01X38691865Y-15042687D01*
G01X38658400Y-15073242D01*
G01X38658400Y-15073242D01*
G01X38626666Y-15134863D01*
G01X38614270Y-15193474D01*
G01X38612114Y-15223386D01*
G01X38612111Y-15223828D01*
G37*
%LPD*%
G36*
G01X39103712Y-15004101D02*
G01X39103712Y-15004101D01*
G01X39121583Y-14968945D01*
G01X39121583Y-14968945D01*
G01X39178590Y-14961380D01*
G01X39182814Y-14961328D01*
G01X39216798Y-14961328D01*
G01X39216798Y-14961328D01*
G01X39214594Y-14904043D01*
G01X39211544Y-14854203D01*
G01X39209181Y-14826562D01*
G01X39209181Y-14826562D01*
G01X39249025Y-14823047D01*
G01X39249025Y-14823047D01*
G01X39297259Y-14839500D01*
G01X39306447Y-14868750D01*
G01X39306447Y-14868750D01*
G01X39305080Y-14904529D01*
G01X39301759Y-14962500D01*
G01X39301759Y-14962500D01*
G01X39371486Y-14962097D01*
G01X39428322Y-14960888D01*
G01X39472267Y-14958874D01*
G01X39503322Y-14956054D01*
G01X39503322Y-14956054D01*
G01X39503322Y-14956054D01*
G01X39508009Y-14984179D01*
G01X39508009Y-14984179D01*
G01X39495411Y-15016406D01*
G01X39495411Y-15016406D01*
G01X39455275Y-15025781D01*
G01X39455275Y-15025781D01*
G01X39420165Y-15026427D01*
G01X39368975Y-15026817D01*
G01X39301705Y-15026953D01*
G01X39299415Y-15026953D01*
G01X39299415Y-15026953D01*
G01X39298609Y-15076646D01*
G01X39297973Y-15127313D01*
G01X39297505Y-15178952D01*
G01X39297207Y-15231565D01*
G01X39297078Y-15285151D01*
G01X39297072Y-15299414D01*
G01X39297072Y-15299414D01*
G01X39300109Y-15364513D01*
G01X39309222Y-15411312D01*
G01X39320509Y-15435058D01*
G01X39320509Y-15435058D01*
G01X39375577Y-15465168D01*
G01X39397853Y-15467578D01*
G01X39397853Y-15467578D01*
G01X39447152Y-15457373D01*
G01X39483986Y-15431250D01*
G01X39483986Y-15431250D01*
G01X39505665Y-15474609D01*
G01X39505665Y-15474609D01*
G01X39478806Y-15513110D01*
G01X39474611Y-15515332D01*
G01X39474611Y-15515332D01*
G01X39412903Y-15530193D01*
G01X39399025Y-15530859D01*
G01X39399025Y-15530859D01*
G01X39341245Y-15524979D01*
G01X39295405Y-15507339D01*
G01X39261505Y-15477939D01*
G01X39258107Y-15473437D01*
G01X39258107Y-15473437D01*
G01X39232217Y-15415591D01*
G01X39220317Y-15353544D01*
G01X39216967Y-15309832D01*
G01X39216798Y-15301757D01*
G01X39216798Y-15301757D01*
G01X39217604Y-15224884D01*
G01X39218241Y-15159476D01*
G01X39218709Y-15105532D01*
G01X39219007Y-15063052D01*
G01X39219136Y-15032037D01*
G01X39219142Y-15025781D01*
G01X39219142Y-15025781D01*
G01X39194739Y-15027561D01*
G01X39127859Y-15032900D01*
G01X39107228Y-15034570D01*
G01X39107228Y-15034570D01*
G01X39103712Y-15004101D01*
G37*
G36*
G01X39525587Y-15004101D02*
G01X39525587Y-15004101D01*
G01X39543458Y-14968945D01*
G01X39543458Y-14968945D01*
G01X39600465Y-14961380D01*
G01X39604689Y-14961328D01*
G01X39638673Y-14961328D01*
G01X39638673Y-14961328D01*
G01X39636469Y-14904043D01*
G01X39633419Y-14854203D01*
G01X39631056Y-14826562D01*
G01X39631056Y-14826562D01*
G01X39670900Y-14823047D01*
G01X39670900Y-14823047D01*
G01X39719134Y-14839500D01*
G01X39728322Y-14868750D01*
G01X39728322Y-14868750D01*
G01X39726955Y-14904529D01*
G01X39723634Y-14962500D01*
G01X39723634Y-14962500D01*
G01X39793361Y-14962097D01*
G01X39850197Y-14960888D01*
G01X39894142Y-14958874D01*
G01X39925197Y-14956054D01*
G01X39925197Y-14956054D01*
G01X39925197Y-14956054D01*
G01X39929884Y-14984179D01*
G01X39929884Y-14984179D01*
G01X39917286Y-15016406D01*
G01X39917286Y-15016406D01*
G01X39877150Y-15025781D01*
G01X39877150Y-15025781D01*
G01X39842040Y-15026427D01*
G01X39790850Y-15026817D01*
G01X39723580Y-15026953D01*
G01X39721290Y-15026953D01*
G01X39721290Y-15026953D01*
G01X39720484Y-15076646D01*
G01X39719848Y-15127313D01*
G01X39719380Y-15178952D01*
G01X39719082Y-15231565D01*
G01X39718953Y-15285151D01*
G01X39718947Y-15299414D01*
G01X39718947Y-15299414D01*
G01X39721984Y-15364513D01*
G01X39731097Y-15411312D01*
G01X39742384Y-15435058D01*
G01X39742384Y-15435058D01*
G01X39797452Y-15465168D01*
G01X39819728Y-15467578D01*
G01X39819728Y-15467578D01*
G01X39869027Y-15457373D01*
G01X39905861Y-15431250D01*
G01X39905861Y-15431250D01*
G01X39927540Y-15474609D01*
G01X39927540Y-15474609D01*
G01X39900681Y-15513110D01*
G01X39896486Y-15515332D01*
G01X39896486Y-15515332D01*
G01X39834778Y-15530193D01*
G01X39820900Y-15530859D01*
G01X39820900Y-15530859D01*
G01X39763120Y-15524979D01*
G01X39717280Y-15507339D01*
G01X39683380Y-15477939D01*
G01X39679982Y-15473437D01*
G01X39679982Y-15473437D01*
G01X39654092Y-15415591D01*
G01X39642192Y-15353544D01*
G01X39638842Y-15309832D01*
G01X39638673Y-15301757D01*
G01X39638673Y-15301757D01*
G01X39639479Y-15224884D01*
G01X39640116Y-15159476D01*
G01X39640584Y-15105532D01*
G01X39640882Y-15063052D01*
G01X39641011Y-15032037D01*
G01X39641017Y-15025781D01*
G01X39641017Y-15025781D01*
G01X39616614Y-15027561D01*
G01X39549734Y-15032900D01*
G01X39529103Y-15034570D01*
G01X39529103Y-15034570D01*
G01X39525587Y-15004101D01*
G37*
G36*
G01X40001369Y-15240820D02*
G01X40001369Y-15240820D01*
G01X40004857Y-15185322D01*
G01X40015321Y-15134844D01*
G01X40032762Y-15089385D01*
G01X40057180Y-15048946D01*
G01X40073439Y-15029004D01*
G01X40073439Y-15029004D01*
G01X40130797Y-14984133D01*
G01X40190180Y-14960269D01*
G01X40238223Y-14950779D01*
G01X40261561Y-14949028D01*
G01X40262111Y-14949023D01*
G01X40262111Y-14949023D01*
G01X40315993Y-14953630D01*
G01X40364576Y-14967451D01*
G01X40407860Y-14990485D01*
G01X40445846Y-15022733D01*
G01X40451662Y-15029004D01*
G01X40451662Y-15029004D01*
G01X40489377Y-15087364D01*
G01X40510834Y-15149048D01*
G01X40520618Y-15202319D01*
G01X40523315Y-15235442D01*
G01X40523439Y-15240820D01*
G01X40523439Y-15240820D01*
G01X40513794Y-15323097D01*
G01X40491848Y-15386711D01*
G01X40468078Y-15429738D01*
G01X40452966Y-15450252D01*
G01X40451662Y-15451757D01*
G01X40451662Y-15451757D01*
G01X40394298Y-15496135D01*
G01X40334621Y-15519737D01*
G01X40286216Y-15529123D01*
G01X40262666Y-15530854D01*
G01X40262111Y-15530859D01*
G01X40262111Y-15530859D01*
G01X40208707Y-15526303D01*
G01X40160433Y-15512634D01*
G01X40117289Y-15489853D01*
G01X40079276Y-15457959D01*
G01X40073439Y-15451757D01*
G01X40073439Y-15451757D01*
G01X40035570Y-15393859D01*
G01X40014025Y-15332438D01*
G01X40004201Y-15279286D01*
G01X40001493Y-15246196D01*
G01X40001369Y-15240820D01*
G37*
%LPC*%
G36*
G01X40085744Y-15223828D02*
G01X40085744Y-15223828D01*
G01X40089396Y-15278867D01*
G01X40100352Y-15328487D01*
G01X40118612Y-15372685D01*
G01X40132326Y-15395507D01*
G01X40132326Y-15395507D01*
G01X40186100Y-15443443D01*
G01X40237965Y-15461368D01*
G01X40262086Y-15464062D01*
G01X40262111Y-15464062D01*
G01X40262111Y-15464062D01*
G01X40314820Y-15457560D01*
G01X40358995Y-15438052D01*
G01X40392775Y-15407812D01*
G01X40392775Y-15407812D01*
G01X40424911Y-15346593D01*
G01X40437463Y-15288139D01*
G01X40439647Y-15258254D01*
G01X40439650Y-15257812D01*
G01X40439650Y-15257812D01*
G01X40435883Y-15202727D01*
G01X40424582Y-15152970D01*
G01X40405748Y-15108541D01*
G01X40391603Y-15085546D01*
G01X40391603Y-15085546D01*
G01X40337252Y-15037201D01*
G01X40285842Y-15019123D01*
G01X40262135Y-15016406D01*
G01X40262111Y-15016406D01*
G01X40262111Y-15016406D01*
G01X40209469Y-15022976D01*
G01X40165498Y-15042687D01*
G01X40132033Y-15073242D01*
G01X40132033Y-15073242D01*
G01X40100298Y-15134863D01*
G01X40087903Y-15193474D01*
G01X40085747Y-15223386D01*
G01X40085744Y-15223828D01*
G37*
%LPD*%
G36*
G01X40649415Y-14967187D02*
G01X40649415Y-14967187D01*
G01X40692775Y-14957812D01*
G01X40692775Y-14957812D01*
G01X40736198Y-14975240D01*
G01X40747853Y-15017578D01*
G01X40747853Y-15017578D01*
G01X40788429Y-14990332D01*
G01X40836329Y-14968359D01*
G01X40836329Y-14968359D01*
G01X40836329Y-14968359D01*
G01X40905470Y-14951440D01*
G01X40935939Y-14949023D01*
G01X40935939Y-14949023D01*
G01X40935939Y-14949023D01*
G01X40991139Y-14956512D01*
G01X41033952Y-14978979D01*
G01X41064377Y-15016424D01*
G01X41069533Y-15026953D01*
G01X41069533Y-15026953D01*
G01X41105585Y-14998731D01*
G01X41153158Y-14974651D01*
G01X41160060Y-14971875D01*
G01X41160060Y-14971875D01*
G01X41230588Y-14952825D01*
G01X41268421Y-14949046D01*
G01X41269923Y-14949023D01*
G01X41269923Y-14949023D01*
G01X41322450Y-14956794D01*
G01X41365561Y-14980105D01*
G01X41375685Y-14989160D01*
G01X41375685Y-14989160D01*
G01X41406225Y-15046816D01*
G01X41415692Y-15102722D01*
G01X41416408Y-15118359D01*
G01X41416408Y-15118359D01*
G01X41415718Y-15148575D01*
G01X41414357Y-15204785D01*
G01X41414357Y-15204785D01*
G01X41412749Y-15285968D01*
G01X41412322Y-15327044D01*
G01X41412306Y-15332226D01*
G01X41412306Y-15332226D01*
G01X41413914Y-15390836D01*
G01X41418737Y-15443290D01*
G01X41426776Y-15489588D01*
G01X41432814Y-15513281D01*
G01X41432814Y-15513281D01*
G01X41385939Y-15522656D01*
G01X41385939Y-15522656D01*
G01X41341115Y-15508886D01*
G01X41341115Y-15508886D01*
G01X41327345Y-15461718D01*
G01X41327345Y-15461718D01*
G01X41327345Y-15461718D01*
G01X41327683Y-15427290D01*
G01X41328696Y-15377771D01*
G01X41330386Y-15313162D01*
G01X41330861Y-15296484D01*
G01X41330861Y-15296484D01*
G01X41333411Y-15201310D01*
G01X41334281Y-15159065D01*
G01X41334376Y-15150586D01*
G01X41334376Y-15150586D01*
G01X41328164Y-15094040D01*
G01X41309525Y-15053285D01*
G01X41306251Y-15049218D01*
G01X41306251Y-15049218D01*
G01X41249524Y-15018352D01*
G01X41232423Y-15016406D01*
G01X41232423Y-15016406D01*
G01X41188292Y-15022487D01*
G01X41142359Y-15040731D01*
G01X41094623Y-15071138D01*
G01X41083595Y-15079687D01*
G01X41083595Y-15079687D01*
G01X41084476Y-15144523D01*
G01X41085150Y-15201710D01*
G01X41085618Y-15251249D01*
G01X41085879Y-15293139D01*
G01X41085939Y-15319922D01*
G01X41085939Y-15319922D01*
G01X41086454Y-15378178D01*
G01X41087999Y-15431681D01*
G01X41090573Y-15480431D01*
G01X41093556Y-15517968D01*
G01X41093556Y-15517968D01*
G01X41052540Y-15521484D01*
G01X41052540Y-15521484D01*
G01X41006418Y-15503916D01*
G01X40998634Y-15475781D01*
G01X40998634Y-15475781D01*
G01X41000392Y-15427441D01*
G01X41000392Y-15427441D01*
G01X41002253Y-15363506D01*
G01X41003234Y-15313567D01*
G01X41003322Y-15308203D01*
G01X41003322Y-15308203D01*
G01X41004125Y-15236559D01*
G01X41004439Y-15178351D01*
G01X41004493Y-15150974D01*
G01X41004494Y-15150586D01*
G01X41004494Y-15150586D01*
G01X40997364Y-15089883D01*
G01X40975975Y-15047321D01*
G01X40940326Y-15022900D01*
G01X40899025Y-15016406D01*
G01X40899025Y-15016406D01*
G01X40855507Y-15022769D01*
G01X40809963Y-15041857D01*
G01X40762391Y-15073672D01*
G01X40751369Y-15082617D01*
G01X40751369Y-15082617D01*
G01X40752286Y-15150208D01*
G01X40752977Y-15209120D01*
G01X40753441Y-15259355D01*
G01X40753679Y-15300912D01*
G01X40753712Y-15319922D01*
G01X40753712Y-15319922D01*
G01X40754188Y-15378178D01*
G01X40755614Y-15431681D01*
G01X40757990Y-15480431D01*
G01X40760744Y-15517968D01*
G01X40760744Y-15517968D01*
G01X40720314Y-15521484D01*
G01X40720314Y-15521484D01*
G01X40674192Y-15503916D01*
G01X40666408Y-15475781D01*
G01X40666408Y-15475781D01*
G01X40667359Y-15444832D01*
G01X40669337Y-15387597D01*
G01X40669337Y-15387597D01*
G01X40671305Y-15312634D01*
G01X40672106Y-15252789D01*
G01X40672266Y-15222670D01*
G01X40672267Y-15221484D01*
G01X40672267Y-15221484D01*
G01X40671353Y-15148312D01*
G01X40668611Y-15086297D01*
G01X40664040Y-15035437D01*
G01X40657642Y-14995734D01*
G01X40649415Y-14967187D01*
G01X40649415Y-14967187D01*
G37*
G36*
G01X41828908Y-15435351D02*
G01X41828908Y-15435351D01*
G01X41850303Y-15399234D01*
G01X41882814Y-15384961D01*
G01X41882814Y-15384961D01*
G01X41909849Y-15424722D01*
G01X41939943Y-15443847D01*
G01X41939943Y-15443847D01*
G01X42006095Y-15461827D01*
G01X42035158Y-15464062D01*
G01X42035158Y-15464062D01*
G01X42102666Y-15449918D01*
G01X42118654Y-15441211D01*
G01X42118654Y-15441211D01*
G01X42148970Y-15386335D01*
G01X42150587Y-15370312D01*
G01X42150587Y-15370312D01*
G01X42132625Y-15325927D01*
G01X42118654Y-15315234D01*
G01X42118654Y-15315234D01*
G01X42058537Y-15290254D01*
G01X42041310Y-15285644D01*
G01X42041310Y-15285644D01*
G01X41974732Y-15268679D01*
G01X41950197Y-15261621D01*
G01X41950197Y-15261621D01*
G01X41891836Y-15228366D01*
G01X41872560Y-15209472D01*
G01X41872560Y-15209472D01*
G01X41845381Y-15148011D01*
G01X41840633Y-15108477D01*
G01X41840626Y-15107812D01*
G01X41840626Y-15107812D01*
G01X41849089Y-15059664D01*
G01X41874477Y-15018414D01*
G01X41902443Y-14993554D01*
G01X41902443Y-14993554D01*
G01X41967387Y-14961826D01*
G01X42021330Y-14950482D01*
G01X42042189Y-14949023D01*
G01X42042189Y-14949023D01*
G01X42091292Y-14953901D01*
G01X42139601Y-14968534D01*
G01X42152638Y-14974218D01*
G01X42152638Y-14974218D01*
G01X42201562Y-15021893D01*
G01X42206837Y-15043945D01*
G01X42206837Y-15043945D01*
G01X42185442Y-15081154D01*
G01X42152931Y-15094336D01*
G01X42152931Y-15094336D01*
G01X42125137Y-15055893D01*
G01X42098732Y-15038086D01*
G01X42098732Y-15038086D01*
G01X42034336Y-15018130D01*
G01X42013478Y-15016406D01*
G01X42013478Y-15016406D01*
G01X41963514Y-15026401D01*
G01X41942579Y-15038671D01*
G01X41942579Y-15038671D01*
G01X41913503Y-15092033D01*
G01X41912697Y-15101367D01*
G01X41912697Y-15101367D01*
G01X41930183Y-15145923D01*
G01X41944630Y-15157617D01*
G01X41944630Y-15157617D01*
G01X42003946Y-15183836D01*
G01X42021974Y-15188964D01*
G01X42021974Y-15188964D01*
G01X42087575Y-15206183D01*
G01X42113087Y-15213574D01*
G01X42113087Y-15213574D01*
G01X42172221Y-15246178D01*
G01X42190724Y-15263379D01*
G01X42190724Y-15263379D01*
G01X42218666Y-15323913D01*
G01X42222658Y-15357421D01*
G01X42222658Y-15357421D01*
G01X42222658Y-15357421D01*
G01X42215579Y-15410487D01*
G01X42194345Y-15454138D01*
G01X42161427Y-15486621D01*
G01X42161427Y-15486621D01*
G01X42097112Y-15517554D01*
G01X42040857Y-15529120D01*
G01X42015847Y-15530859D01*
G01X42015822Y-15530859D01*
G01X42015822Y-15530859D01*
G01X41962527Y-15526882D01*
G01X41913970Y-15514952D01*
G01X41885744Y-15503320D01*
G01X41885744Y-15503320D01*
G01X41834440Y-15455826D01*
G01X41828908Y-15435351D01*
G37*
G36*
G01X42325197Y-15240820D02*
G01X42325197Y-15240820D01*
G01X42328685Y-15185322D01*
G01X42339149Y-15134844D01*
G01X42356590Y-15089385D01*
G01X42381008Y-15048946D01*
G01X42397267Y-15029004D01*
G01X42397267Y-15029004D01*
G01X42454625Y-14984133D01*
G01X42514008Y-14960269D01*
G01X42562051Y-14950779D01*
G01X42585389Y-14949028D01*
G01X42585939Y-14949023D01*
G01X42585939Y-14949023D01*
G01X42639821Y-14953630D01*
G01X42688404Y-14967451D01*
G01X42731688Y-14990485D01*
G01X42769674Y-15022733D01*
G01X42775490Y-15029004D01*
G01X42775490Y-15029004D01*
G01X42813205Y-15087364D01*
G01X42834662Y-15149048D01*
G01X42844446Y-15202319D01*
G01X42847143Y-15235442D01*
G01X42847267Y-15240820D01*
G01X42847267Y-15240820D01*
G01X42837623Y-15323097D01*
G01X42815676Y-15386711D01*
G01X42791906Y-15429738D01*
G01X42776794Y-15450252D01*
G01X42775490Y-15451757D01*
G01X42775490Y-15451757D01*
G01X42718126Y-15496135D01*
G01X42658449Y-15519737D01*
G01X42610044Y-15529123D01*
G01X42586494Y-15530854D01*
G01X42585939Y-15530859D01*
G01X42585939Y-15530859D01*
G01X42532535Y-15526303D01*
G01X42484261Y-15512634D01*
G01X42441118Y-15489853D01*
G01X42403104Y-15457959D01*
G01X42397267Y-15451757D01*
G01X42397267Y-15451757D01*
G01X42359398Y-15393859D01*
G01X42337853Y-15332438D01*
G01X42328029Y-15279286D01*
G01X42325321Y-15246196D01*
G01X42325197Y-15240820D01*
G37*
%LPC*%
G36*
G01X42409572Y-15223828D02*
G01X42409572Y-15223828D01*
G01X42413224Y-15278867D01*
G01X42424180Y-15328487D01*
G01X42442440Y-15372685D01*
G01X42456154Y-15395507D01*
G01X42456154Y-15395507D01*
G01X42509928Y-15443443D01*
G01X42561794Y-15461368D01*
G01X42585914Y-15464062D01*
G01X42585939Y-15464062D01*
G01X42585939Y-15464062D01*
G01X42638648Y-15457560D01*
G01X42682823Y-15438052D01*
G01X42716603Y-15407812D01*
G01X42716603Y-15407812D01*
G01X42748739Y-15346593D01*
G01X42761291Y-15288139D01*
G01X42763475Y-15258254D01*
G01X42763478Y-15257812D01*
G01X42763478Y-15257812D01*
G01X42759711Y-15202727D01*
G01X42748410Y-15152970D01*
G01X42729576Y-15108541D01*
G01X42715431Y-15085546D01*
G01X42715431Y-15085546D01*
G01X42661081Y-15037201D01*
G01X42609670Y-15019123D01*
G01X42585963Y-15016406D01*
G01X42585939Y-15016406D01*
G01X42585939Y-15016406D01*
G01X42533297Y-15022976D01*
G01X42489326Y-15042687D01*
G01X42455861Y-15073242D01*
G01X42455861Y-15073242D01*
G01X42424126Y-15134863D01*
G01X42411731Y-15193474D01*
G01X42409575Y-15223386D01*
G01X42409572Y-15223828D01*
G37*
%LPD*%
G36*
G01X42973244Y-14630859D02*
G01X42973244Y-14630859D01*
G01X43015431Y-14627343D01*
G01X43015431Y-14627343D01*
G01X43062556Y-14644912D01*
G01X43070509Y-14673047D01*
G01X43070509Y-14673047D01*
G01X43069440Y-14713690D01*
G01X43068751Y-14737207D01*
G01X43068751Y-14737207D01*
G01X43066909Y-14801626D01*
G01X43065218Y-14862842D01*
G01X43064369Y-14894070D01*
G01X43064357Y-14894531D01*
G01X43064357Y-14894531D01*
G01X43062789Y-14969037D01*
G01X43062012Y-15033110D01*
G01X43061748Y-15076555D01*
G01X43061720Y-15089648D01*
G01X43061720Y-15276562D01*
G01X43061720Y-15276562D01*
G01X43062728Y-15339882D01*
G01X43065751Y-15395967D01*
G01X43070790Y-15444816D01*
G01X43077844Y-15486431D01*
G01X43084572Y-15513281D01*
G01X43084572Y-15513281D01*
G01X43039454Y-15522656D01*
G01X43039454Y-15522656D01*
G01X42993165Y-15508300D01*
G01X42993165Y-15508300D01*
G01X42980275Y-15460547D01*
G01X42980275Y-15460547D01*
G01X42980275Y-15460547D01*
G01X42980402Y-15432783D01*
G01X42980785Y-15382750D01*
G01X42981423Y-15310448D01*
G01X42981447Y-15307910D01*
G01X42981447Y-15307910D01*
G01X42982163Y-15218697D01*
G01X42982504Y-15157444D01*
G01X42982611Y-15124047D01*
G01X42982619Y-15117187D01*
G01X42982619Y-14977734D01*
G01X42982619Y-14977734D01*
G01X42982408Y-14897762D01*
G01X42981775Y-14827652D01*
G01X42980720Y-14767403D01*
G01X42979244Y-14717015D01*
G01X42977345Y-14676489D01*
G01X42975025Y-14645824D01*
G01X42973244Y-14630859D01*
G37*
G36*
G01X43210548Y-15240820D02*
G01X43210548Y-15240820D01*
G01X43214122Y-15185752D01*
G01X43224841Y-15135534D01*
G01X43242708Y-15090166D01*
G01X43267721Y-15049647D01*
G01X43284376Y-15029589D01*
G01X43284376Y-15029589D01*
G01X43343355Y-14983012D01*
G01X43401124Y-14959094D01*
G01X43445051Y-14950282D01*
G01X43462501Y-14949023D01*
G01X43462501Y-14949023D01*
G01X43462501Y-14949023D01*
G01X43510967Y-14953764D01*
G01X43558349Y-14967989D01*
G01X43601954Y-14990039D01*
G01X43601954Y-14990039D01*
G01X43603482Y-14931924D01*
G01X43604222Y-14883461D01*
G01X43604298Y-14865234D01*
G01X43604298Y-14865234D01*
G01X43603844Y-14803215D01*
G01X43602483Y-14747094D01*
G01X43600214Y-14696872D01*
G01X43597038Y-14652549D01*
G01X43594923Y-14630859D01*
G01X43594923Y-14630859D01*
G01X43637697Y-14627343D01*
G01X43637697Y-14627343D01*
G01X43683819Y-14644912D01*
G01X43691603Y-14673047D01*
G01X43691603Y-14673047D01*
G01X43691413Y-14695975D01*
G01X43690841Y-14731805D01*
G01X43689890Y-14780539D01*
G01X43688557Y-14842176D01*
G01X43686844Y-14916716D01*
G01X43686329Y-14938476D01*
G01X43686329Y-14938476D01*
G01X43684182Y-15035156D01*
G01X43682714Y-15112668D01*
G01X43681798Y-15172009D01*
G01X43681302Y-15214170D01*
G01X43681098Y-15240145D01*
G01X43681056Y-15250928D01*
G01X43681056Y-15251367D01*
G01X43681056Y-15251367D01*
G01X43681881Y-15322502D01*
G01X43684356Y-15383611D01*
G01X43688481Y-15434694D01*
G01X43694255Y-15475751D01*
G01X43701680Y-15506781D01*
G01X43703908Y-15513281D01*
G01X43703908Y-15513281D01*
G01X43658204Y-15522656D01*
G01X43658204Y-15522656D01*
G01X43616834Y-15503913D01*
G01X43605470Y-15462890D01*
G01X43605470Y-15462890D01*
G01X43562925Y-15496596D01*
G01X43518212Y-15518869D01*
G01X43471330Y-15529710D01*
G01X43449611Y-15530859D01*
G01X43448439Y-15530859D01*
G01X43448439Y-15530859D01*
G01X43400173Y-15525314D01*
G01X43355314Y-15508678D01*
G01X43313861Y-15480951D01*
G01X43281447Y-15448828D01*
G01X43281447Y-15448828D01*
G01X43242916Y-15387320D01*
G01X43221712Y-15324268D01*
G01X43212660Y-15272077D01*
G01X43210585Y-15243152D01*
G01X43210548Y-15240820D01*
G37*
%LPC*%
G36*
G01X43294923Y-15223828D02*
G01X43294923Y-15223828D01*
G01X43298597Y-15278637D01*
G01X43309617Y-15327894D01*
G01X43327985Y-15371597D01*
G01X43345314Y-15399023D01*
G01X43345314Y-15399023D01*
G01X43402007Y-15448751D01*
G01X43450388Y-15465727D01*
G01X43467189Y-15467578D01*
G01X43467189Y-15467578D01*
G01X43513216Y-15460112D01*
G01X43557712Y-15437715D01*
G01X43600676Y-15400387D01*
G01X43601954Y-15399023D01*
G01X43601954Y-15399023D01*
G01X43601304Y-15312178D01*
G01X43600759Y-15237621D01*
G01X43600320Y-15175350D01*
G01X43599986Y-15125367D01*
G01X43599757Y-15087671D01*
G01X43599634Y-15062261D01*
G01X43599611Y-15052148D01*
G01X43599611Y-15052148D01*
G01X43550418Y-15029706D01*
G01X43502473Y-15018136D01*
G01X43475978Y-15016406D01*
G01X43475978Y-15016406D01*
G01X43423065Y-15022976D01*
G01X43378281Y-15042687D01*
G01X43343556Y-15073242D01*
G01X43343556Y-15073242D01*
G01X43310215Y-15134863D01*
G01X43297192Y-15193474D01*
G01X43294926Y-15223386D01*
G01X43294923Y-15223828D01*
G37*
%LPD*%
G36*
G01X43829298Y-15243164D02*
G01X43829298Y-15243164D01*
G01X43832825Y-15186503D01*
G01X43843407Y-15135631D01*
G01X43861042Y-15090546D01*
G01X43885732Y-15051250D01*
G01X43909279Y-15025195D01*
G01X43909279Y-15025195D01*
G01X43972363Y-14981158D01*
G01X44033168Y-14958545D01*
G01X44078976Y-14950213D01*
G01X44097072Y-14949023D01*
G01X44097072Y-14949023D01*
G01X44097072Y-14949023D01*
G01X44150391Y-14954510D01*
G01X44196394Y-14970969D01*
G01X44233009Y-14996484D01*
G01X44233009Y-14996484D01*
G01X44273894Y-15056175D01*
G01X44284740Y-15100790D01*
G01X44285158Y-15107812D01*
G01X44285158Y-15107812D01*
G01X44278530Y-15160596D01*
G01X44268458Y-15185742D01*
G01X44268458Y-15185742D01*
G01X44228949Y-15231644D01*
G01X44224806Y-15234668D01*
G01X44224806Y-15234668D01*
G01X44165688Y-15257882D01*
G01X44146876Y-15262207D01*
G01X44146876Y-15262207D01*
G01X44077662Y-15271838D01*
G01X44046681Y-15274218D01*
G01X44046681Y-15274218D01*
G01X44046681Y-15274218D01*
G01X43981529Y-15276030D01*
G01X43927659Y-15276537D01*
G01X43917189Y-15276562D01*
G01X43917189Y-15276562D01*
G01X43927391Y-15331035D01*
G01X43945247Y-15377311D01*
G01X43969044Y-15413379D01*
G01X43969044Y-15413379D01*
G01X44025849Y-15451983D01*
G01X44075552Y-15463361D01*
G01X44087111Y-15464062D01*
G01X44087111Y-15464062D01*
G01X44143426Y-15456815D01*
G01X44186465Y-15435072D01*
G01X44214845Y-15401367D01*
G01X44214845Y-15401367D01*
G01X44257701Y-15433082D01*
G01X44262306Y-15451757D01*
G01X44262306Y-15451757D01*
G01X44242689Y-15489586D01*
G01X44207814Y-15509179D01*
G01X44207814Y-15509179D01*
G01X44139820Y-15526406D01*
G01X44092020Y-15530733D01*
G01X44085939Y-15530859D01*
G01X44085939Y-15530859D01*
G01X44031978Y-15526410D01*
G01X43983180Y-15513061D01*
G01X43939546Y-15490814D01*
G01X43901076Y-15459668D01*
G01X43901076Y-15459668D01*
G01X43901076Y-15459668D01*
G01X43863360Y-15404255D01*
G01X43841903Y-15341338D01*
G01X43832119Y-15284933D01*
G01X43829422Y-15249062D01*
G01X43829298Y-15243164D01*
G37*
%LPC*%
G36*
G01X43916017Y-15216796D02*
G01X43916017Y-15216796D01*
G01X43971513Y-15216389D01*
G01X44002150Y-15215625D01*
G01X44002150Y-15215625D01*
G01X44065109Y-15209996D01*
G01X44077736Y-15208300D01*
G01X44077736Y-15208300D01*
G01X44138808Y-15193373D01*
G01X44143947Y-15191308D01*
G01X44143947Y-15191308D01*
G01X44185209Y-15160307D01*
G01X44185255Y-15160254D01*
G01X44185255Y-15160254D01*
G01X44202534Y-15110582D01*
G01X44202540Y-15110156D01*
G01X44202540Y-15110156D01*
G01X44188758Y-15063703D01*
G01X44170900Y-15043359D01*
G01X44170900Y-15043359D01*
G01X44111743Y-15017172D01*
G01X44092384Y-15015234D01*
G01X44092384Y-15015234D01*
G01X44041940Y-15021972D01*
G01X43997271Y-15042186D01*
G01X43969337Y-15064453D01*
G01X43969337Y-15064453D01*
G01X43934571Y-15121089D01*
G01X43919572Y-15180739D01*
G01X43916067Y-15215334D01*
G01X43916017Y-15216796D01*
G37*
%LPD*%
G36*
G01X44411134Y-14961328D02*
G01X44411134Y-14961328D01*
G01X44452150Y-14957812D01*
G01X44452150Y-14957812D01*
G01X44497030Y-14976292D01*
G01X44503712Y-15002929D01*
G01X44503712Y-15002929D01*
G01X44503126Y-15019336D01*
G01X44503126Y-15019336D01*
G01X44502540Y-15045117D01*
G01X44502540Y-15045117D01*
G01X44533184Y-15007385D01*
G01X44566701Y-14978613D01*
G01X44566701Y-14978613D01*
G01X44628943Y-14951062D01*
G01X44646095Y-14949023D01*
G01X44646095Y-14949023D01*
G01X44689454Y-14961621D01*
G01X44689454Y-14961621D01*
G01X44705275Y-14995898D01*
G01X44705275Y-14995898D01*
G01X44688324Y-15040077D01*
G01X44681251Y-15049804D01*
G01X44681251Y-15049804D01*
G01X44636300Y-15027961D01*
G01X44623244Y-15026953D01*
G01X44623244Y-15026953D01*
G01X44577014Y-15039506D01*
G01X44556154Y-15053320D01*
G01X44556154Y-15053320D01*
G01X44511860Y-15103004D01*
G01X44499611Y-15123047D01*
G01X44499611Y-15123047D01*
G01X44498965Y-15157774D01*
G01X44498574Y-15207815D01*
G01X44498439Y-15273171D01*
G01X44498439Y-15275390D01*
G01X44498439Y-15275390D01*
G01X44499447Y-15339540D01*
G01X44502470Y-15396144D01*
G01X44507509Y-15445202D01*
G01X44514563Y-15486716D01*
G01X44521290Y-15513281D01*
G01X44521290Y-15513281D01*
G01X44475587Y-15522656D01*
G01X44475587Y-15522656D01*
G01X44429248Y-15507438D01*
G01X44429005Y-15507129D01*
G01X44429005Y-15507129D01*
G01X44417002Y-15454969D01*
G01X44416994Y-15454101D01*
G01X44416994Y-15454101D01*
G01X44417323Y-15417887D01*
G01X44418165Y-15359472D01*
G01X44418165Y-15359472D01*
G01X44419120Y-15281430D01*
G01X44419334Y-15244448D01*
G01X44419337Y-15241992D01*
G01X44419337Y-15241992D01*
G01X44419072Y-15182218D01*
G01X44418274Y-15126508D01*
G01X44416945Y-15074860D01*
G01X44415085Y-15027274D01*
G01X44412693Y-14983752D01*
G01X44411134Y-14961328D01*
G37*
G36*
G01X44789064Y-14967187D02*
G01X44789064Y-14967187D01*
G01X44835939Y-14957812D01*
G01X44835939Y-14957812D01*
G01X44877519Y-14976555D01*
G01X44887501Y-15017578D01*
G01X44887501Y-15017578D01*
G01X44933607Y-14987585D01*
G01X44980519Y-14966162D01*
G01X45028236Y-14953308D01*
G01X45076759Y-14949023D01*
G01X45076759Y-14949023D01*
G01X45076759Y-14949023D01*
G01X45128026Y-14954797D01*
G01X45173544Y-14972121D01*
G01X45213315Y-15000993D01*
G01X45225294Y-15013183D01*
G01X45225294Y-15013183D01*
G01X45258999Y-15070784D01*
G01X45276308Y-15134948D01*
G01X45282684Y-15187083D01*
G01X45283595Y-15208593D01*
G01X45283595Y-15208593D01*
G01X45283595Y-15208593D01*
G01X45280805Y-15262218D01*
G01X45272435Y-15312843D01*
G01X45258485Y-15360468D01*
G01X45256349Y-15366211D01*
G01X45256349Y-15366211D01*
G01X45220907Y-15429636D01*
G01X45184673Y-15470677D01*
G01X45169337Y-15484277D01*
G01X45169337Y-15484277D01*
G01X45106046Y-15516849D01*
G01X45050174Y-15529028D01*
G01X45025222Y-15530859D01*
G01X45025197Y-15530859D01*
G01X45025197Y-15530859D01*
G01X44975137Y-15525619D01*
G01X44927052Y-15509900D01*
G01X44891017Y-15490429D01*
G01X44891017Y-15490429D01*
G01X44891392Y-15532617D01*
G01X44891603Y-15553418D01*
G01X44891603Y-15553418D01*
G01X44892585Y-15622616D01*
G01X44892775Y-15630761D01*
G01X44892775Y-15630761D01*
G01X44895456Y-15689139D01*
G01X44895704Y-15693750D01*
G01X44895704Y-15693750D01*
G01X44901958Y-15757414D01*
G01X44903029Y-15764062D01*
G01X44903029Y-15764062D01*
G01X44915038Y-15813274D01*
G01X44915040Y-15813281D01*
G01X44915040Y-15813281D01*
G01X44866994Y-15822656D01*
G01X44866994Y-15822656D01*
G01X44820654Y-15807438D01*
G01X44820412Y-15807129D01*
G01X44820412Y-15807129D01*
G01X44808409Y-15754969D01*
G01X44808400Y-15754101D01*
G01X44808400Y-15754101D01*
G01X44808457Y-15709890D01*
G01X44808628Y-15662052D01*
G01X44808912Y-15610589D01*
G01X44809311Y-15555499D01*
G01X44809824Y-15496784D01*
G01X44810158Y-15462597D01*
G01X44810158Y-15462597D01*
G01X44811049Y-15366723D01*
G01X44811572Y-15296643D01*
G01X44811826Y-15250323D01*
G01X44811908Y-15225727D01*
G01X44811915Y-15220312D01*
G01X44811915Y-15220312D01*
G01X44811001Y-15149625D01*
G01X44808259Y-15088968D01*
G01X44803689Y-15038343D01*
G01X44797290Y-14997750D01*
G01X44789064Y-14967187D01*
G01X44789064Y-14967187D01*
G37*
%LPC*%
G36*
G01X44891017Y-15082617D02*
G01X44891017Y-15082617D01*
G01X44891667Y-15157618D01*
G01X44892212Y-15224420D01*
G01X44892652Y-15283021D01*
G01X44892986Y-15333422D01*
G01X44893214Y-15375622D01*
G01X44893337Y-15409623D01*
G01X44893361Y-15427734D01*
G01X44893361Y-15427734D01*
G01X44934742Y-15447975D01*
G01X44983981Y-15460087D01*
G01X45037501Y-15464062D01*
G01X45037501Y-15464062D01*
G01X45087379Y-15454907D01*
G01X45129201Y-15427441D01*
G01X45129201Y-15427441D01*
G01X45129201Y-15427441D01*
G01X45168978Y-15371459D01*
G01X45182446Y-15338918D01*
G01X45182521Y-15338672D01*
G01X45182521Y-15338672D01*
G01X45195321Y-15270911D01*
G01X45198021Y-15228660D01*
G01X45198048Y-15226172D01*
G01X45198048Y-15226172D01*
G01X45194330Y-15166599D01*
G01X45183177Y-15117257D01*
G01X45164588Y-15078146D01*
G01X45156740Y-15067382D01*
G01X45156740Y-15067382D01*
G01X45098709Y-15026352D01*
G01X45055023Y-15016615D01*
G01X45050392Y-15016406D01*
G01X45050392Y-15016406D01*
G01X45003449Y-15021974D01*
G01X44957098Y-15038679D01*
G01X44911338Y-15066521D01*
G01X44891017Y-15082617D01*
G37*
%LPD*%
G36*
G01X45390822Y-15362109D02*
G01X45390822Y-15362109D01*
G01X45398585Y-15307369D01*
G01X45419533Y-15272168D01*
G01X45419533Y-15272168D01*
G01X45474589Y-15237387D01*
G01X45498634Y-15228515D01*
G01X45498634Y-15228515D01*
G01X45540663Y-15218711D01*
G01X45587342Y-15210437D01*
G01X45638673Y-15203696D01*
G01X45694654Y-15198485D01*
G01X45727150Y-15196289D01*
G01X45727150Y-15196289D01*
G01X45724063Y-15132638D01*
G01X45714804Y-15084419D01*
G01X45701954Y-15055371D01*
G01X45701954Y-15055371D01*
G01X45648967Y-15023622D01*
G01X45599170Y-15016513D01*
G01X45594728Y-15016406D01*
G01X45594728Y-15016406D01*
G01X45548087Y-15026295D01*
G01X45525294Y-15037793D01*
G01X45525294Y-15037793D01*
G01X45479795Y-15084389D01*
G01X45471095Y-15100195D01*
G01X45471095Y-15100195D01*
G01X45423557Y-15076208D01*
G01X45416017Y-15052148D01*
G01X45416017Y-15052148D01*
G01X45430446Y-15009961D01*
G01X45473732Y-14977148D01*
G01X45473732Y-14977148D01*
G01X45473732Y-14977148D01*
G01X45540764Y-14956056D01*
G01X45594322Y-14949517D01*
G01X45608204Y-14949023D01*
G01X45608204Y-14949023D01*
G01X45668564Y-14953403D01*
G01X45717644Y-14966543D01*
G01X45755444Y-14988443D01*
G01X45759376Y-14991797D01*
G01X45759376Y-14991797D01*
G01X45791639Y-15045713D01*
G01X45804787Y-15106748D01*
G01X45807407Y-15143168D01*
G01X45807423Y-15144726D01*
G01X45807423Y-15144726D01*
G01X45806832Y-15184179D01*
G01X45806251Y-15215332D01*
G01X45806251Y-15215332D01*
G01X45805186Y-15288494D01*
G01X45805079Y-15307031D01*
G01X45805079Y-15307031D01*
G01X45806508Y-15371777D01*
G01X45810792Y-15427734D01*
G01X45817933Y-15474902D01*
G01X45827931Y-15513281D01*
G01X45827931Y-15513281D01*
G01X45827931Y-15513281D01*
G01X45781056Y-15522656D01*
G01X45781056Y-15522656D01*
G01X45743849Y-15510058D01*
G01X45743849Y-15510058D01*
G01X45729494Y-15469922D01*
G01X45729494Y-15469922D01*
G01X45684423Y-15501000D01*
G01X45638509Y-15521109D01*
G01X45591751Y-15530250D01*
G01X45575978Y-15530859D01*
G01X45575978Y-15530859D01*
G01X45515494Y-15525392D01*
G01X45466932Y-15508989D01*
G01X45430292Y-15481652D01*
G01X45405574Y-15443379D01*
G01X45392779Y-15394172D01*
G01X45390822Y-15362109D01*
G37*
%LPC*%
G36*
G01X45475197Y-15362109D02*
G01X45475197Y-15362109D01*
G01X45485286Y-15414424D01*
G01X45506251Y-15441797D01*
G01X45506251Y-15441797D01*
G01X45566453Y-15465928D01*
G01X45585353Y-15467578D01*
G01X45585353Y-15467578D01*
G01X45636363Y-15461707D01*
G01X45681886Y-15444096D01*
G01X45721921Y-15414744D01*
G01X45723048Y-15413672D01*
G01X45723048Y-15413672D01*
G01X45721891Y-15365789D01*
G01X45721876Y-15357422D01*
G01X45721876Y-15357422D01*
G01X45723236Y-15306914D01*
G01X45725978Y-15257812D01*
G01X45725978Y-15257812D01*
G01X45675263Y-15263482D01*
G01X45673829Y-15263671D01*
G01X45673829Y-15263671D01*
G01X45626662Y-15269531D01*
G01X45626662Y-15269531D01*
G01X45582716Y-15276562D01*
G01X45582716Y-15276562D01*
G01X45547560Y-15286230D01*
G01X45547560Y-15286230D01*
G01X45516505Y-15299707D01*
G01X45516505Y-15299707D01*
G01X45494826Y-15315820D01*
G01X45494826Y-15315820D01*
G01X45479298Y-15336035D01*
G01X45479298Y-15336035D01*
G01X45475197Y-15362109D01*
G37*
%LPD*%
G36*
G01X45941603Y-15435351D02*
G01X45941603Y-15435351D01*
G01X45962998Y-15399234D01*
G01X45995509Y-15384961D01*
G01X45995509Y-15384961D01*
G01X46022544Y-15424722D01*
G01X46052638Y-15443847D01*
G01X46052638Y-15443847D01*
G01X46118790Y-15461827D01*
G01X46147853Y-15464062D01*
G01X46147853Y-15464062D01*
G01X46215361Y-15449918D01*
G01X46231349Y-15441211D01*
G01X46231349Y-15441211D01*
G01X46261665Y-15386335D01*
G01X46263283Y-15370312D01*
G01X46263283Y-15370312D01*
G01X46245320Y-15325927D01*
G01X46231349Y-15315234D01*
G01X46231349Y-15315234D01*
G01X46171233Y-15290254D01*
G01X46154005Y-15285644D01*
G01X46154005Y-15285644D01*
G01X46087427Y-15268679D01*
G01X46062892Y-15261621D01*
G01X46062892Y-15261621D01*
G01X46004532Y-15228366D01*
G01X45985255Y-15209472D01*
G01X45985255Y-15209472D01*
G01X45958076Y-15148011D01*
G01X45953329Y-15108477D01*
G01X45953322Y-15107812D01*
G01X45953322Y-15107812D01*
G01X45961784Y-15059664D01*
G01X45987172Y-15018414D01*
G01X46015138Y-14993554D01*
G01X46015138Y-14993554D01*
G01X46080083Y-14961826D01*
G01X46134026Y-14950482D01*
G01X46154884Y-14949023D01*
G01X46154884Y-14949023D01*
G01X46203987Y-14953901D01*
G01X46252296Y-14968534D01*
G01X46265333Y-14974218D01*
G01X46265333Y-14974218D01*
G01X46314257Y-15021893D01*
G01X46319533Y-15043945D01*
G01X46319533Y-15043945D01*
G01X46298137Y-15081154D01*
G01X46265626Y-15094336D01*
G01X46265626Y-15094336D01*
G01X46237832Y-15055893D01*
G01X46211427Y-15038086D01*
G01X46211427Y-15038086D01*
G01X46147031Y-15018130D01*
G01X46126173Y-15016406D01*
G01X46126173Y-15016406D01*
G01X46076210Y-15026401D01*
G01X46055275Y-15038671D01*
G01X46055275Y-15038671D01*
G01X46026199Y-15092033D01*
G01X46025392Y-15101367D01*
G01X46025392Y-15101367D01*
G01X46042879Y-15145923D01*
G01X46057326Y-15157617D01*
G01X46057326Y-15157617D01*
G01X46116641Y-15183836D01*
G01X46134669Y-15188964D01*
G01X46134669Y-15188964D01*
G01X46200271Y-15206183D01*
G01X46225783Y-15213574D01*
G01X46225783Y-15213574D01*
G01X46284916Y-15246178D01*
G01X46303419Y-15263379D01*
G01X46303419Y-15263379D01*
G01X46331361Y-15323913D01*
G01X46335353Y-15357422D01*
G01X46335353Y-15357422D01*
G01X46335353Y-15357422D01*
G01X46328275Y-15410487D01*
G01X46307040Y-15454138D01*
G01X46274122Y-15486621D01*
G01X46274122Y-15486621D01*
G01X46209807Y-15517554D01*
G01X46153552Y-15529120D01*
G01X46128542Y-15530859D01*
G01X46128517Y-15530859D01*
G01X46128517Y-15530859D01*
G01X46075222Y-15526882D01*
G01X46026665Y-15514952D01*
G01X45998439Y-15503320D01*
G01X45998439Y-15503320D01*
G01X45947135Y-15455826D01*
G01X45941603Y-15435351D01*
G37*
G36*
G01X46383986Y-15004101D02*
G01X46383986Y-15004101D01*
G01X46401857Y-14968945D01*
G01X46401857Y-14968945D01*
G01X46458864Y-14961380D01*
G01X46463087Y-14961328D01*
G01X46497072Y-14961328D01*
G01X46497072Y-14961328D01*
G01X46494867Y-14904043D01*
G01X46491817Y-14854203D01*
G01X46489454Y-14826562D01*
G01X46489454Y-14826562D01*
G01X46529298Y-14823047D01*
G01X46529298Y-14823047D01*
G01X46577533Y-14839500D01*
G01X46586720Y-14868750D01*
G01X46586720Y-14868750D01*
G01X46585353Y-14904529D01*
G01X46582033Y-14962500D01*
G01X46582033Y-14962500D01*
G01X46651759Y-14962097D01*
G01X46708595Y-14960888D01*
G01X46752540Y-14958874D01*
G01X46783595Y-14956054D01*
G01X46783595Y-14956054D01*
G01X46783595Y-14956054D01*
G01X46788283Y-14984179D01*
G01X46788283Y-14984179D01*
G01X46775685Y-15016406D01*
G01X46775685Y-15016406D01*
G01X46735548Y-15025781D01*
G01X46735548Y-15025781D01*
G01X46700438Y-15026427D01*
G01X46649248Y-15026817D01*
G01X46581978Y-15026953D01*
G01X46579689Y-15026953D01*
G01X46579689Y-15026953D01*
G01X46578883Y-15076646D01*
G01X46578246Y-15127313D01*
G01X46577778Y-15178952D01*
G01X46577480Y-15231565D01*
G01X46577351Y-15285151D01*
G01X46577345Y-15299414D01*
G01X46577345Y-15299414D01*
G01X46580383Y-15364513D01*
G01X46589495Y-15411312D01*
G01X46600783Y-15435058D01*
G01X46600783Y-15435058D01*
G01X46655850Y-15465168D01*
G01X46678126Y-15467578D01*
G01X46678126Y-15467578D01*
G01X46727426Y-15457373D01*
G01X46764259Y-15431250D01*
G01X46764259Y-15431250D01*
G01X46785939Y-15474609D01*
G01X46785939Y-15474609D01*
G01X46759080Y-15513110D01*
G01X46754884Y-15515332D01*
G01X46754884Y-15515332D01*
G01X46693176Y-15530193D01*
G01X46679298Y-15530859D01*
G01X46679298Y-15530859D01*
G01X46621518Y-15524979D01*
G01X46575678Y-15507339D01*
G01X46541778Y-15477939D01*
G01X46538380Y-15473437D01*
G01X46538380Y-15473437D01*
G01X46512490Y-15415591D01*
G01X46500590Y-15353544D01*
G01X46497241Y-15309832D01*
G01X46497072Y-15301757D01*
G01X46497072Y-15301757D01*
G01X46497878Y-15224884D01*
G01X46498514Y-15159476D01*
G01X46498982Y-15105532D01*
G01X46499280Y-15063052D01*
G01X46499410Y-15032037D01*
G01X46499415Y-15025781D01*
G01X46499415Y-15025781D01*
G01X46475013Y-15027561D01*
G01X46408132Y-15032900D01*
G01X46387501Y-15034570D01*
G01X46387501Y-15034570D01*
G01X46383986Y-15004101D01*
G37*
G36*
G01X46859767Y-15243164D02*
G01X46859767Y-15243164D01*
G01X46863294Y-15186503D01*
G01X46873876Y-15135631D01*
G01X46891511Y-15090546D01*
G01X46916201Y-15051250D01*
G01X46939747Y-15025195D01*
G01X46939747Y-15025195D01*
G01X47002832Y-14981158D01*
G01X47063637Y-14958545D01*
G01X47109445Y-14950213D01*
G01X47127540Y-14949023D01*
G01X47127540Y-14949023D01*
G01X47127540Y-14949023D01*
G01X47180859Y-14954510D01*
G01X47226863Y-14970969D01*
G01X47263478Y-14996484D01*
G01X47263478Y-14996484D01*
G01X47304362Y-15056175D01*
G01X47315209Y-15100790D01*
G01X47315626Y-15107812D01*
G01X47315626Y-15107812D01*
G01X47308998Y-15160596D01*
G01X47298927Y-15185742D01*
G01X47298927Y-15185742D01*
G01X47259418Y-15231644D01*
G01X47255275Y-15234668D01*
G01X47255275Y-15234668D01*
G01X47196157Y-15257882D01*
G01X47177345Y-15262207D01*
G01X47177345Y-15262207D01*
G01X47108131Y-15271838D01*
G01X47077150Y-15274218D01*
G01X47077150Y-15274218D01*
G01X47077150Y-15274218D01*
G01X47011997Y-15276030D01*
G01X46958128Y-15276537D01*
G01X46947658Y-15276562D01*
G01X46947658Y-15276562D01*
G01X46957860Y-15331035D01*
G01X46975716Y-15377311D01*
G01X46999513Y-15413379D01*
G01X46999513Y-15413379D01*
G01X47056318Y-15451983D01*
G01X47106021Y-15463361D01*
G01X47117579Y-15464062D01*
G01X47117579Y-15464062D01*
G01X47173895Y-15456815D01*
G01X47216934Y-15435072D01*
G01X47245314Y-15401367D01*
G01X47245314Y-15401367D01*
G01X47288170Y-15433082D01*
G01X47292775Y-15451757D01*
G01X47292775Y-15451757D01*
G01X47273158Y-15489586D01*
G01X47238283Y-15509179D01*
G01X47238283Y-15509179D01*
G01X47170289Y-15526406D01*
G01X47122489Y-15530733D01*
G01X47116408Y-15530859D01*
G01X47116408Y-15530859D01*
G01X47062446Y-15526410D01*
G01X47013649Y-15513061D01*
G01X46970015Y-15490814D01*
G01X46931544Y-15459668D01*
G01X46931544Y-15459668D01*
G01X46931544Y-15459668D01*
G01X46893829Y-15404255D01*
G01X46872372Y-15341338D01*
G01X46862588Y-15284933D01*
G01X46859891Y-15249062D01*
G01X46859767Y-15243164D01*
G37*
%LPC*%
G36*
G01X46946486Y-15216797D02*
G01X46946486Y-15216797D01*
G01X47001981Y-15216389D01*
G01X47032619Y-15215625D01*
G01X47032619Y-15215625D01*
G01X47095577Y-15209996D01*
G01X47108204Y-15208300D01*
G01X47108204Y-15208300D01*
G01X47169277Y-15193373D01*
G01X47174415Y-15191308D01*
G01X47174415Y-15191308D01*
G01X47215678Y-15160307D01*
G01X47215724Y-15160254D01*
G01X47215724Y-15160254D01*
G01X47233003Y-15110582D01*
G01X47233009Y-15110156D01*
G01X47233009Y-15110156D01*
G01X47219227Y-15063703D01*
G01X47201369Y-15043359D01*
G01X47201369Y-15043359D01*
G01X47142211Y-15017172D01*
G01X47122853Y-15015234D01*
G01X47122853Y-15015234D01*
G01X47072409Y-15021972D01*
G01X47027740Y-15042186D01*
G01X46999806Y-15064453D01*
G01X46999806Y-15064453D01*
G01X46965040Y-15121089D01*
G01X46950041Y-15180739D01*
G01X46946536Y-15215334D01*
G01X46946486Y-15216797D01*
G37*

G04 Pad flashes *
%LPD*%
D11*

G04 end of program *
M02*
