%FSLAX33Y33*%
%MOMM*%
%LNbottom silkscreen_traces*%
%LNbottom silkscreen component 0ee08989bcddf7ff*%
G36*
G01*
X34616Y30096D02*
X34616Y30727D01*
X34852Y30727D01*
X34852Y30812D01*
X34284Y30812D01*
X34284Y30727D01*
X34521Y30727D01*
X34521Y30096D01*
X34616Y30096D01*
X34616Y30096D01*
X34187Y30096D02*
X34187Y30812D01*
X33917Y30812D01*
X33883Y30811D01*
X33854Y30810D01*
X33829Y30808D01*
X33808Y30805D01*
X33783Y30799D01*
X33760Y30792D01*
X33739Y30783D01*
X33720Y30771D01*
X33703Y30758D01*
X33688Y30742D01*
X33674Y30723D01*
X33662Y30702D01*
X33653Y30679D01*
X33646Y30656D01*
X33642Y30631D01*
X33641Y30605D01*
X33644Y30561D01*
X33655Y30520D01*
X33673Y30483D01*
X33699Y30450D01*
X33734Y30422D01*
X33780Y30403D01*
X33839Y30391D01*
X33860Y30389D01*
X33865Y30473D01*
X33829Y30480D01*
X33799Y30490D01*
X33777Y30505D01*
X33760Y30524D01*
X33748Y30547D01*
X33741Y30572D01*
X33738Y30602D01*
X33740Y30623D01*
X33744Y30643D01*
X33751Y30662D01*
X33761Y30678D01*
X33773Y30693D01*
X33787Y30705D01*
X33803Y30714D01*
X33821Y30721D01*
X33835Y30723D01*
X33855Y30725D01*
X33880Y30727D01*
X33909Y30727D01*
X34092Y30727D01*
X34092Y30471D01*
X34092Y30471D01*
X33907Y30471D01*
X33865Y30473D01*
X33860Y30389D01*
X33909Y30387D01*
X34092Y30387D01*
X34092Y30096D01*
X34187Y30096D01*
X34187Y30096D01*
X33225Y30096D02*
X33313Y30096D01*
X33313Y30656D01*
X33330Y30641D01*
X33349Y30625D01*
X33371Y30610D01*
X33396Y30595D01*
X33421Y30581D01*
X33445Y30569D01*
X33467Y30558D01*
X33488Y30550D01*
X33488Y30635D01*
X33453Y30653D01*
X33419Y30673D01*
X33388Y30695D01*
X33359Y30719D01*
X33334Y30743D01*
X33312Y30767D01*
X33295Y30791D01*
X33281Y30814D01*
X33225Y30814D01*
X33225Y30096D01*
X33225Y30096D01*
X33000Y30449D02*
X32998Y30509D01*
X32993Y30563D01*
X32985Y30611D01*
X32973Y30653D01*
X32959Y30690D01*
X32941Y30722D01*
X32920Y30749D01*
X32896Y30772D01*
X32868Y30791D01*
X32838Y30804D01*
X32804Y30812D01*
X32766Y30814D01*
X32738Y30813D01*
X32712Y30809D01*
X32688Y30801D01*
X32665Y30791D01*
X32644Y30778D01*
X32625Y30763D01*
X32608Y30745D01*
X32593Y30724D01*
X32580Y30701D01*
X32568Y30676D01*
X32558Y30648D01*
X32549Y30618D01*
X32542Y30584D01*
X32537Y30544D01*
X32534Y30499D01*
X32533Y30449D01*
X32534Y30389D01*
X32539Y30335D01*
X32547Y30287D01*
X32559Y30245D01*
X32573Y30209D01*
X32591Y30177D01*
X32612Y30149D01*
X32636Y30126D01*
X32663Y30107D01*
X32694Y30094D01*
X32728Y30086D01*
X32766Y30084D01*
X32773Y30084D01*
X32766Y30156D01*
X32737Y30159D01*
X32710Y30170D01*
X32686Y30189D01*
X32664Y30214D01*
X32646Y30251D01*
X32633Y30302D01*
X32626Y30368D01*
X32623Y30449D01*
X32626Y30530D01*
X32633Y30596D01*
X32646Y30647D01*
X32664Y30684D01*
X32686Y30709D01*
X32711Y30727D01*
X32738Y30738D01*
X32767Y30742D01*
X32796Y30739D01*
X32822Y30729D01*
X32844Y30713D01*
X32864Y30690D01*
X32884Y30651D01*
X32898Y30597D01*
X32906Y30530D01*
X32909Y30449D01*
X32909Y30449D01*
X32907Y30368D01*
X32899Y30302D01*
X32886Y30251D01*
X32868Y30214D01*
X32846Y30189D01*
X32822Y30170D01*
X32795Y30159D01*
X32766Y30156D01*
X32773Y30084D01*
X32815Y30088D01*
X32859Y30102D01*
X32896Y30125D01*
X32929Y30158D01*
X32960Y30209D01*
X32982Y30275D01*
X32995Y30355D01*
X33000Y30449D01*
X33000Y30449D01*
G37*
%LNbottom silkscreen component c8d90169438ddb06*%
G36*
X37266Y3510D02*
X37266Y4142D01*
X37502Y4142D01*
X37502Y4226D01*
X36934Y4226D01*
X36934Y4142D01*
X37171Y4142D01*
X37171Y3510D01*
X37266Y3510D01*
X37266Y3510D01*
X36837Y3510D02*
X36837Y4226D01*
X36567Y4226D01*
X36533Y4226D01*
X36504Y4224D01*
X36479Y4222D01*
X36458Y4219D01*
X36433Y4214D01*
X36410Y4207D01*
X36389Y4197D01*
X36370Y4186D01*
X36353Y4172D01*
X36338Y4156D01*
X36324Y4138D01*
X36312Y4117D01*
X36303Y4094D01*
X36296Y4070D01*
X36292Y4045D01*
X36291Y4019D01*
X36294Y3975D01*
X36305Y3935D01*
X36323Y3898D01*
X36349Y3865D01*
X36384Y3837D01*
X36430Y3817D01*
X36489Y3805D01*
X36510Y3804D01*
X36515Y3888D01*
X36479Y3894D01*
X36449Y3905D01*
X36427Y3920D01*
X36410Y3939D01*
X36398Y3961D01*
X36391Y3987D01*
X36388Y4016D01*
X36390Y4038D01*
X36394Y4058D01*
X36401Y4076D01*
X36411Y4093D01*
X36423Y4108D01*
X36437Y4120D01*
X36453Y4129D01*
X36471Y4135D01*
X36485Y4138D01*
X36505Y4140D01*
X36530Y4141D01*
X36559Y4142D01*
X36742Y4142D01*
X36742Y3886D01*
X36742Y3886D01*
X36557Y3886D01*
X36515Y3888D01*
X36510Y3804D01*
X36559Y3801D01*
X36742Y3801D01*
X36742Y3510D01*
X36837Y3510D01*
X36837Y3510D01*
X36206Y3698D02*
X36113Y3706D01*
X36107Y3674D01*
X36096Y3647D01*
X36083Y3623D01*
X36066Y3604D01*
X36046Y3590D01*
X36025Y3579D01*
X36001Y3573D01*
X35976Y3570D01*
X35945Y3573D01*
X35917Y3582D01*
X35891Y3597D01*
X35868Y3618D01*
X35849Y3644D01*
X35835Y3674D01*
X35827Y3708D01*
X35824Y3745D01*
X35827Y3781D01*
X35835Y3812D01*
X35848Y3840D01*
X35867Y3864D01*
X35889Y3883D01*
X35915Y3896D01*
X35945Y3905D01*
X35977Y3907D01*
X35998Y3906D01*
X36018Y3903D01*
X36036Y3896D01*
X36054Y3888D01*
X36070Y3878D01*
X36084Y3866D01*
X36097Y3853D01*
X36108Y3838D01*
X36190Y3849D01*
X36121Y4216D01*
X35765Y4216D01*
X35765Y4132D01*
X36050Y4132D01*
X36089Y3940D01*
X36056Y3960D01*
X36023Y3974D01*
X35989Y3982D01*
X35954Y3985D01*
X35909Y3981D01*
X35867Y3969D01*
X35830Y3948D01*
X35796Y3920D01*
X35767Y3885D01*
X35747Y3846D01*
X35735Y3802D01*
X35731Y3753D01*
X35735Y3706D01*
X35745Y3662D01*
X35763Y3622D01*
X35788Y3585D01*
X35825Y3547D01*
X35869Y3520D01*
X35919Y3504D01*
X35976Y3498D01*
X36022Y3502D01*
X36064Y3512D01*
X36102Y3529D01*
X36135Y3553D01*
X36163Y3582D01*
X36184Y3616D01*
X36198Y3655D01*
X36206Y3698D01*
X36206Y3698D01*
G37*
%LNtext*%
G36*
X10385Y32640D02*
X10385Y33549D01*
X9982Y33549D01*
X9925Y33548D01*
X9875Y33543D01*
X9833Y33535D01*
X9797Y33525D01*
X9767Y33510D01*
X9740Y33491D01*
X9717Y33467D01*
X9696Y33438D01*
X9680Y33406D01*
X9668Y33373D01*
X9661Y33338D01*
X9658Y33301D01*
X9662Y33255D01*
X9674Y33212D01*
X9694Y33173D01*
X9721Y33138D01*
X9757Y33108D01*
X9801Y33084D01*
X9853Y33066D01*
X9884Y33060D01*
X9903Y33157D01*
X9877Y33165D01*
X9855Y33175D01*
X9836Y33187D01*
X9820Y33202D01*
X9807Y33219D01*
X9796Y33239D01*
X9788Y33259D01*
X9784Y33279D01*
X9782Y33301D01*
X9785Y33332D01*
X9794Y33360D01*
X9809Y33385D01*
X9829Y33407D01*
X9856Y33425D01*
X9890Y33438D01*
X9930Y33446D01*
X9977Y33449D01*
X10265Y33449D01*
X10265Y33148D01*
X10265Y33148D01*
X10006Y33148D01*
X9967Y33149D01*
X9933Y33152D01*
X9903Y33157D01*
X9884Y33060D01*
X9914Y33054D01*
X9892Y33042D01*
X9872Y33031D01*
X9856Y33020D01*
X9842Y33008D01*
X9816Y32983D01*
X9791Y32954D01*
X9766Y32922D01*
X9742Y32887D01*
X9584Y32640D01*
X9735Y32640D01*
X9856Y32829D01*
X9881Y32868D01*
X9904Y32901D01*
X9924Y32930D01*
X9942Y32954D01*
X9959Y32974D01*
X9975Y32991D01*
X9990Y33005D01*
X10003Y33015D01*
X10017Y33023D01*
X10031Y33030D01*
X10044Y33035D01*
X10058Y33039D01*
X10070Y33041D01*
X10085Y33043D01*
X10104Y33043D01*
X10125Y33044D01*
X10265Y33044D01*
X10265Y32640D01*
X10385Y32640D01*
X10385Y32640D01*
X8928Y32747D02*
X8928Y32640D01*
X9529Y32640D01*
X9529Y32660D01*
X9527Y32680D01*
X9523Y32699D01*
X9516Y32718D01*
X9503Y32748D01*
X9487Y32778D01*
X9466Y32809D01*
X9443Y32838D01*
X9415Y32869D01*
X9381Y32903D01*
X9342Y32938D01*
X9297Y32976D01*
X9229Y33034D01*
X9173Y33085D01*
X9129Y33130D01*
X9097Y33169D01*
X9074Y33204D01*
X9057Y33238D01*
X9048Y33271D01*
X9044Y33303D01*
X9047Y33335D01*
X9056Y33364D01*
X9071Y33391D01*
X9092Y33415D01*
X9117Y33435D01*
X9147Y33449D01*
X9179Y33458D01*
X9216Y33460D01*
X9254Y33457D01*
X9288Y33448D01*
X9318Y33433D01*
X9345Y33412D01*
X9366Y33386D01*
X9381Y33354D01*
X9390Y33319D01*
X9394Y33278D01*
X9508Y33290D01*
X9498Y33350D01*
X9480Y33403D01*
X9454Y33448D01*
X9420Y33486D01*
X9378Y33515D01*
X9330Y33536D01*
X9275Y33549D01*
X9213Y33553D01*
X9151Y33548D01*
X9096Y33535D01*
X9048Y33512D01*
X9006Y33480D01*
X8973Y33442D01*
X8949Y33399D01*
X8935Y33352D01*
X8930Y33300D01*
X8931Y33273D01*
X8935Y33246D01*
X8942Y33220D01*
X8952Y33193D01*
X8965Y33166D01*
X8982Y33139D01*
X9002Y33111D01*
X9026Y33082D01*
X9056Y33050D01*
X9095Y33013D01*
X9142Y32970D01*
X9198Y32922D01*
X9244Y32883D01*
X9281Y32851D01*
X9308Y32826D01*
X9327Y32808D01*
X9341Y32793D01*
X9353Y32778D01*
X9364Y32762D01*
X9374Y32747D01*
X8928Y32747D01*
X8928Y32747D01*
X8532Y32640D02*
X8532Y33442D01*
X8832Y33442D01*
X8832Y33549D01*
X8111Y33549D01*
X8111Y33442D01*
X8412Y33442D01*
X8412Y32640D01*
X8532Y32640D01*
X8532Y32640D01*
X7446Y32747D02*
X7446Y32640D01*
X8047Y32640D01*
X8047Y32660D01*
X8045Y32680D01*
X8040Y32699D01*
X8034Y32718D01*
X8021Y32748D01*
X8004Y32778D01*
X7984Y32809D01*
X7961Y32838D01*
X7933Y32869D01*
X7899Y32903D01*
X7860Y32938D01*
X7815Y32976D01*
X7747Y33034D01*
X7691Y33085D01*
X7647Y33130D01*
X7614Y33169D01*
X7592Y33204D01*
X7575Y33238D01*
X7566Y33271D01*
X7562Y33303D01*
X7565Y33335D01*
X7574Y33364D01*
X7589Y33391D01*
X7610Y33415D01*
X7635Y33435D01*
X7664Y33449D01*
X7697Y33458D01*
X7734Y33460D01*
X7772Y33457D01*
X7806Y33448D01*
X7836Y33433D01*
X7863Y33412D01*
X7884Y33386D01*
X7899Y33354D01*
X7908Y33319D01*
X7912Y33278D01*
X8026Y33290D01*
X8016Y33350D01*
X7998Y33403D01*
X7972Y33448D01*
X7938Y33486D01*
X7896Y33515D01*
X7847Y33536D01*
X7793Y33549D01*
X7731Y33553D01*
X7669Y33548D01*
X7614Y33535D01*
X7566Y33512D01*
X7524Y33480D01*
X7491Y33442D01*
X7467Y33399D01*
X7452Y33352D01*
X7448Y33300D01*
X7449Y33273D01*
X7453Y33246D01*
X7460Y33220D01*
X7470Y33193D01*
X7483Y33166D01*
X7500Y33139D01*
X7520Y33111D01*
X7544Y33082D01*
X7574Y33050D01*
X7613Y33013D01*
X7660Y32970D01*
X7716Y32922D01*
X7762Y32883D01*
X7799Y32851D01*
X7826Y32826D01*
X7845Y32808D01*
X7859Y32793D01*
X7871Y32778D01*
X7882Y32762D01*
X7892Y32747D01*
X7446Y32747D01*
X7446Y32747D01*
X6990Y32898D02*
X6882Y32913D01*
X6877Y32865D01*
X6870Y32825D01*
X6858Y32794D01*
X6842Y32770D01*
X6823Y32753D01*
X6801Y32741D01*
X6775Y32734D01*
X6746Y32732D01*
X6724Y32733D01*
X6704Y32737D01*
X6685Y32743D01*
X6668Y32753D01*
X6653Y32764D01*
X6640Y32777D01*
X6630Y32792D01*
X6623Y32809D01*
X6617Y32829D01*
X6614Y32855D01*
X6611Y32886D01*
X6611Y32923D01*
X6611Y33549D01*
X6490Y33549D01*
X6490Y32930D01*
X6492Y32876D01*
X6497Y32828D01*
X6506Y32787D01*
X6518Y32753D01*
X6534Y32723D01*
X6553Y32698D01*
X6577Y32676D01*
X6605Y32657D01*
X6636Y32643D01*
X6670Y32633D01*
X6707Y32627D01*
X6746Y32624D01*
X6802Y32629D01*
X6851Y32642D01*
X6894Y32663D01*
X6929Y32693D01*
X6957Y32732D01*
X6976Y32779D01*
X6987Y32834D01*
X6990Y32898D01*
X6990Y32898D01*
X5876Y32640D02*
X5876Y32737D01*
X5918Y32688D01*
X5967Y32653D01*
X6023Y32632D01*
X6085Y32625D01*
X6114Y32627D01*
X6142Y32631D01*
X6168Y32638D01*
X6194Y32647D01*
X6218Y32659D01*
X6238Y32673D01*
X6255Y32687D01*
X6269Y32704D01*
X6280Y32721D01*
X6290Y32741D01*
X6298Y32763D01*
X6304Y32786D01*
X6307Y32805D01*
X6309Y32829D01*
X6310Y32857D01*
X6310Y32891D01*
X6310Y33299D01*
X6199Y33299D01*
X6199Y32933D01*
X6198Y32893D01*
X6197Y32860D01*
X6195Y32834D01*
X6192Y32815D01*
X6185Y32795D01*
X6175Y32776D01*
X6163Y32760D01*
X6147Y32746D01*
X6129Y32735D01*
X6109Y32728D01*
X6087Y32723D01*
X6063Y32721D01*
X6038Y32723D01*
X6014Y32728D01*
X5991Y32736D01*
X5969Y32747D01*
X5948Y32761D01*
X5931Y32777D01*
X5917Y32796D01*
X5906Y32817D01*
X5898Y32842D01*
X5893Y32871D01*
X5889Y32906D01*
X5888Y32946D01*
X5888Y33299D01*
X5776Y33299D01*
X5776Y32640D01*
X5876Y32640D01*
X5876Y32640D01*
X5604Y32640D02*
X5604Y33549D01*
X5492Y33549D01*
X5492Y32640D01*
X5604Y32640D01*
X5604Y32640D01*
X5324Y32386D02*
X5337Y32491D01*
X5319Y32487D01*
X5303Y32484D01*
X5287Y32482D01*
X5273Y32481D01*
X5255Y32482D01*
X5239Y32484D01*
X5225Y32488D01*
X5213Y32494D01*
X5203Y32500D01*
X5193Y32509D01*
X5184Y32518D01*
X5177Y32528D01*
X5171Y32540D01*
X5163Y32558D01*
X5154Y32581D01*
X5143Y32611D01*
X5141Y32617D01*
X5139Y32623D01*
X5136Y32630D01*
X5133Y32639D01*
X5383Y33299D01*
X5262Y33299D01*
X5125Y32917D01*
X5112Y32880D01*
X5100Y32843D01*
X5088Y32804D01*
X5078Y32765D01*
X5067Y32803D01*
X5056Y32841D01*
X5045Y32878D01*
X5032Y32915D01*
X4891Y33299D01*
X4779Y33299D01*
X5030Y32629D01*
X5049Y32579D01*
X5066Y32537D01*
X5080Y32504D01*
X5092Y32479D01*
X5108Y32454D01*
X5124Y32432D01*
X5142Y32413D01*
X5161Y32398D01*
X5181Y32387D01*
X5203Y32379D01*
X5227Y32374D01*
X5252Y32373D01*
X5269Y32374D01*
X5287Y32376D01*
X5305Y32380D01*
X5324Y32386D01*
X5324Y32386D01*
X4331Y33227D02*
X4359Y33397D01*
X4359Y33549D01*
X4232Y33549D01*
X4232Y33397D01*
X4262Y33227D01*
X4331Y33227D01*
X4331Y33227D01*
X3700Y32640D02*
X3811Y32640D01*
X3811Y33351D01*
X3833Y33332D01*
X3858Y33313D01*
X3886Y33294D01*
X3917Y33274D01*
X3949Y33256D01*
X3979Y33241D01*
X4008Y33228D01*
X4035Y33217D01*
X4035Y33325D01*
X3989Y33348D01*
X3947Y33373D01*
X3907Y33401D01*
X3871Y33431D01*
X3838Y33462D01*
X3811Y33493D01*
X3789Y33523D01*
X3772Y33553D01*
X3700Y33553D01*
X3700Y32640D01*
X3700Y32640D01*
X3242Y33133D02*
X3205Y33063D01*
X3221Y33055D01*
X3249Y33033D01*
X3271Y33005D01*
X3287Y32974D01*
X3297Y32940D01*
X3300Y32902D01*
X3300Y32902D01*
X3299Y32879D01*
X3295Y32855D01*
X3288Y32832D01*
X3278Y32810D01*
X3265Y32789D01*
X3250Y32770D01*
X3231Y32754D01*
X3210Y32741D01*
X3188Y32730D01*
X3164Y32722D01*
X3140Y32718D01*
X3114Y32716D01*
X3076Y32719D01*
X3041Y32729D01*
X3010Y32745D01*
X2982Y32768D01*
X2959Y32795D01*
X2943Y32826D01*
X2933Y32861D01*
X2930Y32899D01*
X2933Y32937D01*
X2943Y32972D01*
X2960Y33004D01*
X2984Y33032D01*
X3012Y33055D01*
X3044Y33071D01*
X3079Y33081D01*
X3118Y33085D01*
X3156Y33081D01*
X3190Y33072D01*
X3205Y33063D01*
X3242Y33133D01*
X3200Y33199D01*
X3175Y33186D01*
X3146Y33178D01*
X3115Y33176D01*
X3084Y33178D01*
X3056Y33186D01*
X3031Y33199D01*
X3009Y33216D01*
X2991Y33238D01*
X2978Y33262D01*
X2970Y33288D01*
X2968Y33316D01*
X2971Y33345D01*
X2979Y33372D01*
X2992Y33397D01*
X3010Y33419D01*
X3033Y33437D01*
X3058Y33451D01*
X3086Y33458D01*
X3116Y33461D01*
X3147Y33458D01*
X3175Y33451D01*
X3200Y33438D01*
X3222Y33420D01*
X3241Y33399D01*
X3254Y33375D01*
X3262Y33350D01*
X3264Y33322D01*
X3264Y33322D01*
X3262Y33291D01*
X3254Y33264D01*
X3241Y33239D01*
X3223Y33217D01*
X3200Y33199D01*
X3242Y33133D01*
X3274Y33147D01*
X3302Y33164D01*
X3326Y33183D01*
X3345Y33206D01*
X3360Y33230D01*
X3370Y33257D01*
X3376Y33287D01*
X3378Y33318D01*
X3374Y33366D01*
X3361Y33410D01*
X3338Y33449D01*
X3307Y33485D01*
X3269Y33515D01*
X3224Y33536D01*
X3174Y33549D01*
X3117Y33553D01*
X3061Y33548D01*
X3010Y33536D01*
X2965Y33514D01*
X2926Y33484D01*
X2894Y33447D01*
X2871Y33407D01*
X2858Y33363D01*
X2853Y33315D01*
X2855Y33285D01*
X2861Y33256D01*
X2872Y33230D01*
X2886Y33205D01*
X2905Y33183D01*
X2928Y33164D01*
X2955Y33147D01*
X2987Y33133D01*
X2948Y33117D01*
X2913Y33097D01*
X2884Y33073D01*
X2860Y33045D01*
X2841Y33013D01*
X2827Y32978D01*
X2819Y32941D01*
X2816Y32900D01*
X2821Y32844D01*
X2837Y32793D01*
X2862Y32746D01*
X2898Y32704D01*
X2943Y32669D01*
X2994Y32644D01*
X3051Y32629D01*
X3115Y32624D01*
X3180Y32629D01*
X3237Y32644D01*
X3288Y32669D01*
X3333Y32704D01*
X3369Y32746D01*
X3394Y32794D01*
X3410Y32846D01*
X3415Y32903D01*
X3412Y32945D01*
X3404Y32984D01*
X3390Y33020D01*
X3370Y33051D01*
X3345Y33079D01*
X3316Y33102D01*
X3281Y33120D01*
X3242Y33133D01*
X3242Y33133D01*
X10288Y37458D02*
X10180Y37473D01*
X10176Y37425D01*
X10168Y37385D01*
X10156Y37354D01*
X10141Y37330D01*
X10122Y37313D01*
X10099Y37301D01*
X10074Y37294D01*
X10045Y37292D01*
X10023Y37293D01*
X10003Y37297D01*
X9984Y37303D01*
X9967Y37313D01*
X9951Y37324D01*
X9939Y37337D01*
X9929Y37352D01*
X9921Y37369D01*
X9916Y37389D01*
X9912Y37415D01*
X9910Y37446D01*
X9909Y37483D01*
X9909Y38109D01*
X9789Y38109D01*
X9789Y37490D01*
X9790Y37436D01*
X9795Y37388D01*
X9804Y37347D01*
X9816Y37313D01*
X9832Y37283D01*
X9852Y37258D01*
X9876Y37236D01*
X9904Y37217D01*
X9935Y37203D01*
X9969Y37193D01*
X10005Y37187D01*
X10044Y37184D01*
X10100Y37189D01*
X10150Y37202D01*
X10192Y37223D01*
X10227Y37253D01*
X10255Y37292D01*
X10274Y37339D01*
X10286Y37394D01*
X10288Y37458D01*
X10288Y37458D01*
X9177Y37281D02*
X9207Y37257D01*
X9212Y37254D01*
X9254Y37316D01*
X9234Y37334D01*
X9217Y37355D01*
X9204Y37378D01*
X9196Y37399D01*
X9190Y37425D01*
X9187Y37455D01*
X9186Y37490D01*
X9186Y37531D01*
X9186Y37531D01*
X9220Y37519D01*
X9262Y37508D01*
X9311Y37498D01*
X9368Y37488D01*
X9400Y37483D01*
X9427Y37478D01*
X9449Y37472D01*
X9465Y37466D01*
X9479Y37459D01*
X9491Y37451D01*
X9501Y37441D01*
X9510Y37430D01*
X9516Y37417D01*
X9521Y37405D01*
X9524Y37391D01*
X9525Y37377D01*
X9523Y37355D01*
X9517Y37336D01*
X9506Y37318D01*
X9491Y37302D01*
X9472Y37289D01*
X9450Y37280D01*
X9423Y37274D01*
X9392Y37273D01*
X9361Y37274D01*
X9331Y37280D01*
X9304Y37288D01*
X9278Y37301D01*
X9254Y37316D01*
X9212Y37254D01*
X9237Y37236D01*
X9267Y37220D01*
X9296Y37207D01*
X9325Y37197D01*
X9355Y37191D01*
X9387Y37186D01*
X9419Y37185D01*
X9470Y37188D01*
X9515Y37198D01*
X9553Y37215D01*
X9586Y37238D01*
X9611Y37266D01*
X9629Y37299D01*
X9640Y37334D01*
X9644Y37374D01*
X9643Y37397D01*
X9639Y37420D01*
X9632Y37441D01*
X9622Y37462D01*
X9610Y37481D01*
X9597Y37498D01*
X9581Y37513D01*
X9564Y37526D01*
X9546Y37538D01*
X9526Y37547D01*
X9506Y37556D01*
X9484Y37563D01*
X9466Y37567D01*
X9443Y37571D01*
X9416Y37575D01*
X9385Y37580D01*
X9322Y37588D01*
X9268Y37597D01*
X9222Y37607D01*
X9186Y37618D01*
X9186Y37628D01*
X9185Y37637D01*
X9185Y37643D01*
X9185Y37647D01*
X9187Y37679D01*
X9193Y37705D01*
X9203Y37727D01*
X9217Y37743D01*
X9241Y37760D01*
X9270Y37772D01*
X9304Y37779D01*
X9344Y37781D01*
X9381Y37779D01*
X9412Y37774D01*
X9439Y37766D01*
X9460Y37753D01*
X9478Y37737D01*
X9493Y37715D01*
X9505Y37688D01*
X9516Y37656D01*
X9625Y37671D01*
X9616Y37704D01*
X9605Y37734D01*
X9592Y37761D01*
X9576Y37784D01*
X9557Y37804D01*
X9534Y37822D01*
X9508Y37837D01*
X9477Y37850D01*
X9444Y37860D01*
X9408Y37868D01*
X9369Y37872D01*
X9328Y37873D01*
X9288Y37872D01*
X9251Y37868D01*
X9219Y37862D01*
X9191Y37854D01*
X9166Y37843D01*
X9145Y37831D01*
X9127Y37818D01*
X9113Y37804D01*
X9102Y37788D01*
X9092Y37770D01*
X9084Y37750D01*
X9079Y37728D01*
X9076Y37711D01*
X9074Y37688D01*
X9073Y37659D01*
X9073Y37625D01*
X9073Y37476D01*
X9072Y37405D01*
X9071Y37349D01*
X9069Y37307D01*
X9066Y37279D01*
X9061Y37259D01*
X9055Y37239D01*
X9047Y37219D01*
X9038Y37200D01*
X9154Y37200D01*
X9162Y37218D01*
X9168Y37238D01*
X9173Y37259D01*
X9177Y37281D01*
X9177Y37281D01*
X8901Y37200D02*
X8901Y37859D01*
X8801Y37859D01*
X8801Y37759D01*
X8782Y37791D01*
X8764Y37817D01*
X8746Y37837D01*
X8730Y37851D01*
X8713Y37861D01*
X8696Y37868D01*
X8677Y37872D01*
X8658Y37873D01*
X8630Y37871D01*
X8601Y37864D01*
X8572Y37853D01*
X8543Y37837D01*
X8582Y37734D01*
X8602Y37745D01*
X8623Y37752D01*
X8643Y37757D01*
X8664Y37758D01*
X8681Y37757D01*
X8698Y37753D01*
X8714Y37746D01*
X8729Y37736D01*
X8743Y37724D01*
X8754Y37710D01*
X8764Y37693D01*
X8771Y37675D01*
X8779Y37645D01*
X8785Y37613D01*
X8788Y37579D01*
X8790Y37545D01*
X8790Y37200D01*
X8901Y37200D01*
X8901Y37200D01*
X8478Y37200D02*
X8478Y37859D01*
X8378Y37859D01*
X8378Y37759D01*
X8359Y37791D01*
X8341Y37817D01*
X8323Y37837D01*
X8307Y37851D01*
X8290Y37861D01*
X8273Y37868D01*
X8254Y37872D01*
X8235Y37873D01*
X8207Y37871D01*
X8178Y37864D01*
X8149Y37853D01*
X8120Y37837D01*
X8159Y37734D01*
X8179Y37745D01*
X8200Y37752D01*
X8220Y37757D01*
X8241Y37758D01*
X8259Y37757D01*
X8275Y37753D01*
X8291Y37746D01*
X8306Y37736D01*
X8320Y37724D01*
X8331Y37710D01*
X8341Y37693D01*
X8348Y37675D01*
X8356Y37645D01*
X8362Y37613D01*
X8365Y37579D01*
X8367Y37545D01*
X8367Y37200D01*
X8478Y37200D01*
X8478Y37200D01*
X7603Y37412D02*
X7488Y37398D01*
X7505Y37350D01*
X7527Y37308D01*
X7555Y37272D01*
X7589Y37241D01*
X7628Y37217D01*
X7673Y37199D01*
X7723Y37189D01*
X7778Y37185D01*
X7846Y37191D01*
X7907Y37207D01*
X7961Y37235D01*
X8007Y37274D01*
X8044Y37323D01*
X8070Y37381D01*
X8086Y37448D01*
X8091Y37524D01*
X8086Y37602D01*
X8070Y37671D01*
X8043Y37731D01*
X8006Y37782D01*
X7960Y37822D01*
X7907Y37851D01*
X7849Y37868D01*
X7784Y37873D01*
X7774Y37873D01*
X7783Y37782D01*
X7819Y37778D01*
X7853Y37769D01*
X7884Y37753D01*
X7912Y37730D01*
X7935Y37702D01*
X7953Y37670D01*
X7964Y37633D01*
X7970Y37593D01*
X7970Y37593D01*
X7602Y37593D01*
X7607Y37631D01*
X7616Y37665D01*
X7629Y37694D01*
X7644Y37717D01*
X7673Y37745D01*
X7705Y37766D01*
X7742Y37778D01*
X7783Y37782D01*
X7774Y37873D01*
X7721Y37868D01*
X7664Y37851D01*
X7613Y37823D01*
X7568Y37784D01*
X7531Y37734D01*
X7505Y37675D01*
X7489Y37607D01*
X7484Y37531D01*
X7484Y37525D01*
X7484Y37518D01*
X7485Y37510D01*
X7485Y37501D01*
X7976Y37501D01*
X7970Y37450D01*
X7958Y37405D01*
X7939Y37367D01*
X7915Y37335D01*
X7885Y37309D01*
X7853Y37291D01*
X7816Y37280D01*
X7777Y37277D01*
X7747Y37279D01*
X7720Y37285D01*
X7695Y37295D01*
X7672Y37309D01*
X7652Y37328D01*
X7633Y37351D01*
X7617Y37379D01*
X7603Y37412D01*
X7603Y37412D01*
X7104Y37300D02*
X7088Y37201D01*
X7111Y37197D01*
X7133Y37194D01*
X7153Y37192D01*
X7172Y37191D01*
X7201Y37193D01*
X7226Y37196D01*
X7248Y37202D01*
X7267Y37211D01*
X7282Y37221D01*
X7295Y37233D01*
X7306Y37246D01*
X7314Y37261D01*
X7320Y37281D01*
X7324Y37310D01*
X7326Y37347D01*
X7327Y37393D01*
X7327Y37772D01*
X7409Y37772D01*
X7409Y37859D01*
X7327Y37859D01*
X7327Y38022D01*
X7216Y38089D01*
X7216Y37859D01*
X7104Y37859D01*
X7104Y37772D01*
X7216Y37772D01*
X7216Y37387D01*
X7216Y37365D01*
X7215Y37347D01*
X7213Y37334D01*
X7210Y37325D01*
X7207Y37319D01*
X7203Y37313D01*
X7197Y37308D01*
X7191Y37304D01*
X7184Y37300D01*
X7175Y37298D01*
X7165Y37296D01*
X7153Y37295D01*
X7143Y37296D01*
X7132Y37297D01*
X7119Y37298D01*
X7104Y37300D01*
X7104Y37300D01*
X6751Y37300D02*
X6735Y37201D01*
X6758Y37197D01*
X6780Y37194D01*
X6800Y37192D01*
X6819Y37191D01*
X6848Y37193D01*
X6873Y37196D01*
X6895Y37202D01*
X6914Y37211D01*
X6929Y37221D01*
X6942Y37233D01*
X6953Y37246D01*
X6961Y37261D01*
X6967Y37281D01*
X6971Y37310D01*
X6974Y37347D01*
X6975Y37393D01*
X6975Y37772D01*
X7056Y37772D01*
X7056Y37859D01*
X6975Y37859D01*
X6975Y38022D01*
X6863Y38089D01*
X6863Y37859D01*
X6751Y37859D01*
X6751Y37772D01*
X6863Y37772D01*
X6863Y37387D01*
X6863Y37365D01*
X6862Y37347D01*
X6860Y37334D01*
X6858Y37325D01*
X6854Y37319D01*
X6850Y37313D01*
X6845Y37308D01*
X6838Y37304D01*
X6831Y37300D01*
X6822Y37298D01*
X6812Y37296D01*
X6800Y37295D01*
X6790Y37296D01*
X6779Y37297D01*
X6766Y37298D01*
X6751Y37300D01*
X6751Y37300D01*
X6273Y37200D02*
X6273Y38109D01*
X5870Y38109D01*
X5813Y38108D01*
X5763Y38103D01*
X5721Y38095D01*
X5685Y38085D01*
X5655Y38070D01*
X5628Y38051D01*
X5605Y38027D01*
X5584Y37998D01*
X5568Y37966D01*
X5556Y37933D01*
X5549Y37898D01*
X5546Y37861D01*
X5550Y37815D01*
X5562Y37772D01*
X5582Y37733D01*
X5609Y37698D01*
X5645Y37668D01*
X5689Y37644D01*
X5741Y37626D01*
X5772Y37620D01*
X5791Y37717D01*
X5765Y37725D01*
X5743Y37735D01*
X5724Y37747D01*
X5708Y37762D01*
X5695Y37779D01*
X5684Y37799D01*
X5676Y37819D01*
X5672Y37839D01*
X5670Y37861D01*
X5673Y37892D01*
X5682Y37920D01*
X5697Y37945D01*
X5717Y37967D01*
X5744Y37985D01*
X5778Y37998D01*
X5818Y38006D01*
X5865Y38009D01*
X6153Y38009D01*
X6153Y37708D01*
X6153Y37708D01*
X5894Y37708D01*
X5855Y37709D01*
X5821Y37712D01*
X5791Y37717D01*
X5772Y37620D01*
X5802Y37614D01*
X5780Y37602D01*
X5760Y37591D01*
X5744Y37580D01*
X5730Y37568D01*
X5704Y37543D01*
X5679Y37514D01*
X5654Y37482D01*
X5630Y37447D01*
X5472Y37200D01*
X5623Y37200D01*
X5744Y37389D01*
X5769Y37428D01*
X5792Y37461D01*
X5812Y37490D01*
X5830Y37514D01*
X5847Y37534D01*
X5863Y37551D01*
X5878Y37565D01*
X5891Y37575D01*
X5905Y37583D01*
X5919Y37590D01*
X5932Y37595D01*
X5946Y37599D01*
X5958Y37601D01*
X5973Y37603D01*
X5992Y37603D01*
X6013Y37604D01*
X6153Y37604D01*
X6153Y37200D01*
X6273Y37200D01*
X6273Y37200D01*
X4942Y37281D02*
X4973Y37257D01*
X4978Y37254D01*
X5020Y37316D01*
X5000Y37334D01*
X4983Y37355D01*
X4970Y37378D01*
X4962Y37399D01*
X4956Y37425D01*
X4953Y37455D01*
X4952Y37490D01*
X4952Y37531D01*
X4952Y37531D01*
X4986Y37519D01*
X5028Y37508D01*
X5077Y37498D01*
X5134Y37488D01*
X5166Y37483D01*
X5193Y37478D01*
X5215Y37472D01*
X5231Y37466D01*
X5245Y37459D01*
X5257Y37451D01*
X5267Y37441D01*
X5275Y37430D01*
X5282Y37417D01*
X5287Y37405D01*
X5290Y37391D01*
X5291Y37377D01*
X5289Y37355D01*
X5282Y37336D01*
X5272Y37318D01*
X5257Y37302D01*
X5238Y37289D01*
X5215Y37280D01*
X5189Y37274D01*
X5158Y37273D01*
X5127Y37274D01*
X5097Y37280D01*
X5069Y37288D01*
X5043Y37301D01*
X5020Y37316D01*
X4978Y37254D01*
X5003Y37236D01*
X5033Y37220D01*
X5062Y37207D01*
X5091Y37197D01*
X5121Y37191D01*
X5153Y37186D01*
X5185Y37185D01*
X5236Y37188D01*
X5281Y37198D01*
X5319Y37215D01*
X5352Y37238D01*
X5377Y37266D01*
X5395Y37299D01*
X5406Y37334D01*
X5410Y37374D01*
X5409Y37397D01*
X5404Y37420D01*
X5398Y37441D01*
X5388Y37462D01*
X5376Y37481D01*
X5363Y37498D01*
X5347Y37513D01*
X5330Y37526D01*
X5312Y37538D01*
X5292Y37547D01*
X5272Y37556D01*
X5250Y37563D01*
X5231Y37567D01*
X5209Y37571D01*
X5182Y37575D01*
X5151Y37580D01*
X5088Y37588D01*
X5033Y37597D01*
X4988Y37607D01*
X4952Y37618D01*
X4951Y37628D01*
X4951Y37637D01*
X4951Y37643D01*
X4951Y37647D01*
X4953Y37679D01*
X4959Y37705D01*
X4969Y37727D01*
X4983Y37743D01*
X5007Y37760D01*
X5036Y37772D01*
X5070Y37779D01*
X5110Y37781D01*
X5147Y37779D01*
X5178Y37774D01*
X5205Y37766D01*
X5226Y37753D01*
X5244Y37737D01*
X5259Y37715D01*
X5271Y37688D01*
X5282Y37656D01*
X5391Y37671D01*
X5382Y37704D01*
X5371Y37734D01*
X5358Y37761D01*
X5342Y37784D01*
X5323Y37804D01*
X5300Y37822D01*
X5273Y37837D01*
X5243Y37850D01*
X5210Y37860D01*
X5174Y37868D01*
X5135Y37872D01*
X5094Y37873D01*
X5054Y37872D01*
X5017Y37868D01*
X4985Y37862D01*
X4957Y37854D01*
X4932Y37843D01*
X4911Y37831D01*
X4893Y37818D01*
X4879Y37804D01*
X4868Y37788D01*
X4858Y37770D01*
X4850Y37750D01*
X4844Y37728D01*
X4842Y37711D01*
X4840Y37688D01*
X4839Y37659D01*
X4839Y37625D01*
X4839Y37476D01*
X4838Y37405D01*
X4837Y37349D01*
X4835Y37307D01*
X4832Y37279D01*
X4827Y37259D01*
X4821Y37239D01*
X4813Y37219D01*
X4803Y37200D01*
X4920Y37200D01*
X4928Y37218D01*
X4934Y37238D01*
X4939Y37259D01*
X4942Y37281D01*
X4942Y37281D01*
X4665Y37200D02*
X4665Y37859D01*
X4554Y37859D01*
X4554Y37200D01*
X4665Y37200D01*
X4665Y37200D01*
X4665Y37981D02*
X4665Y38109D01*
X4554Y38109D01*
X4554Y37981D01*
X4665Y37981D01*
X4665Y37981D01*
X4384Y37200D02*
X4384Y37859D01*
X4283Y37859D01*
X4283Y37765D01*
X4243Y37812D01*
X4195Y37846D01*
X4138Y37867D01*
X4074Y37873D01*
X4044Y37872D01*
X4016Y37868D01*
X3990Y37861D01*
X3964Y37852D01*
X3941Y37841D01*
X3921Y37827D01*
X3903Y37812D01*
X3889Y37796D01*
X3878Y37778D01*
X3868Y37758D01*
X3861Y37737D01*
X3855Y37713D01*
X3852Y37695D01*
X3850Y37671D01*
X3849Y37641D01*
X3849Y37605D01*
X3849Y37200D01*
X3960Y37200D01*
X3960Y37601D01*
X3961Y37633D01*
X3963Y37660D01*
X3967Y37684D01*
X3973Y37703D01*
X3981Y37719D01*
X3991Y37733D01*
X4004Y37746D01*
X4019Y37757D01*
X4037Y37765D01*
X4055Y37772D01*
X4076Y37775D01*
X4097Y37777D01*
X4132Y37774D01*
X4164Y37765D01*
X4193Y37751D01*
X4220Y37731D01*
X4243Y37704D01*
X4259Y37666D01*
X4269Y37618D01*
X4272Y37560D01*
X4272Y37200D01*
X4384Y37200D01*
X4384Y37200D01*
X3677Y37200D02*
X3677Y37859D01*
X3565Y37859D01*
X3565Y37200D01*
X3677Y37200D01*
X3677Y37200D01*
X3677Y37981D02*
X3677Y38109D01*
X3565Y38109D01*
X3565Y37981D01*
X3677Y37981D01*
X3677Y37981D01*
X2944Y37412D02*
X2829Y37398D01*
X2846Y37350D01*
X2868Y37308D01*
X2896Y37272D01*
X2930Y37241D01*
X2970Y37217D01*
X3014Y37199D01*
X3064Y37189D01*
X3119Y37185D01*
X3187Y37191D01*
X3248Y37207D01*
X3302Y37235D01*
X3348Y37274D01*
X3385Y37323D01*
X3411Y37381D01*
X3427Y37448D01*
X3432Y37524D01*
X3427Y37602D01*
X3411Y37671D01*
X3384Y37731D01*
X3347Y37782D01*
X3301Y37822D01*
X3249Y37851D01*
X3190Y37868D01*
X3125Y37873D01*
X3116Y37873D01*
X3124Y37782D01*
X3161Y37778D01*
X3194Y37769D01*
X3225Y37753D01*
X3253Y37730D01*
X3276Y37702D01*
X3294Y37670D01*
X3305Y37633D01*
X3311Y37593D01*
X3311Y37593D01*
X2943Y37593D01*
X2949Y37631D01*
X2957Y37665D01*
X2970Y37694D01*
X2985Y37717D01*
X3014Y37745D01*
X3047Y37766D01*
X3083Y37778D01*
X3124Y37782D01*
X3116Y37873D01*
X3062Y37868D01*
X3005Y37851D01*
X2954Y37823D01*
X2909Y37784D01*
X2872Y37734D01*
X2846Y37675D01*
X2831Y37607D01*
X2825Y37531D01*
X2825Y37525D01*
X2826Y37518D01*
X2826Y37510D01*
X2826Y37501D01*
X3317Y37501D01*
X3311Y37450D01*
X3299Y37405D01*
X3280Y37367D01*
X3256Y37335D01*
X3226Y37309D01*
X3194Y37291D01*
X3158Y37280D01*
X3118Y37277D01*
X3088Y37279D01*
X3061Y37285D01*
X3036Y37295D01*
X3013Y37309D01*
X2993Y37328D01*
X2974Y37351D01*
X2958Y37379D01*
X2944Y37412D01*
X2944Y37412D01*
X2690Y37200D02*
X2690Y37859D01*
X2590Y37859D01*
X2590Y37759D01*
X2571Y37791D01*
X2553Y37817D01*
X2535Y37837D01*
X2519Y37851D01*
X2502Y37861D01*
X2485Y37868D01*
X2466Y37872D01*
X2447Y37873D01*
X2419Y37871D01*
X2390Y37864D01*
X2361Y37853D01*
X2332Y37837D01*
X2371Y37734D01*
X2391Y37745D01*
X2412Y37752D01*
X2432Y37757D01*
X2453Y37758D01*
X2470Y37757D01*
X2487Y37753D01*
X2503Y37746D01*
X2518Y37736D01*
X2532Y37724D01*
X2543Y37710D01*
X2553Y37693D01*
X2560Y37675D01*
X2568Y37645D01*
X2574Y37613D01*
X2577Y37579D01*
X2579Y37545D01*
X2579Y37200D01*
X2690Y37200D01*
X2690Y37200D01*
X10188Y36052D02*
X10074Y36062D01*
X10069Y36029D01*
X10061Y36000D01*
X10050Y35973D01*
X10037Y35950D01*
X10020Y35929D01*
X9999Y35911D01*
X9974Y35894D01*
X9945Y35879D01*
X9914Y35868D01*
X9880Y35859D01*
X9844Y35854D01*
X9806Y35852D01*
X9773Y35854D01*
X9741Y35858D01*
X9712Y35864D01*
X9684Y35873D01*
X9660Y35884D01*
X9638Y35897D01*
X9621Y35912D01*
X9606Y35929D01*
X9595Y35947D01*
X9587Y35966D01*
X9582Y35986D01*
X9580Y36007D01*
X9582Y36028D01*
X9586Y36047D01*
X9594Y36065D01*
X9605Y36082D01*
X9619Y36097D01*
X9638Y36111D01*
X9660Y36124D01*
X9687Y36135D01*
X9711Y36143D01*
X9746Y36153D01*
X9792Y36165D01*
X9849Y36180D01*
X9907Y36194D01*
X9955Y36209D01*
X9994Y36223D01*
X10024Y36236D01*
X10055Y36254D01*
X10081Y36274D01*
X10103Y36297D01*
X10121Y36321D01*
X10135Y36347D01*
X10145Y36374D01*
X10151Y36404D01*
X10153Y36434D01*
X10151Y36468D01*
X10143Y36501D01*
X10131Y36532D01*
X10114Y36563D01*
X10092Y36591D01*
X10066Y36615D01*
X10035Y36636D01*
X10000Y36654D01*
X9961Y36667D01*
X9921Y36677D01*
X9878Y36683D01*
X9833Y36685D01*
X9784Y36683D01*
X9738Y36676D01*
X9695Y36666D01*
X9655Y36652D01*
X9619Y36634D01*
X9587Y36612D01*
X9559Y36586D01*
X9536Y36556D01*
X9518Y36524D01*
X9504Y36489D01*
X9496Y36452D01*
X9492Y36413D01*
X9607Y36404D01*
X9614Y36445D01*
X9627Y36480D01*
X9646Y36510D01*
X9670Y36535D01*
X9700Y36554D01*
X9736Y36568D01*
X9779Y36576D01*
X9828Y36579D01*
X9879Y36576D01*
X9923Y36569D01*
X9959Y36556D01*
X9987Y36539D01*
X10009Y36518D01*
X10025Y36494D01*
X10034Y36469D01*
X10037Y36442D01*
X10035Y36419D01*
X10028Y36397D01*
X10017Y36378D01*
X10002Y36362D01*
X9978Y36346D01*
X9939Y36329D01*
X9887Y36313D01*
X9821Y36297D01*
X9753Y36281D01*
X9697Y36266D01*
X9652Y36252D01*
X9619Y36239D01*
X9582Y36219D01*
X9550Y36197D01*
X9524Y36173D01*
X9502Y36146D01*
X9486Y36117D01*
X9474Y36086D01*
X9467Y36052D01*
X9464Y36017D01*
X9467Y35981D01*
X9475Y35946D01*
X9488Y35913D01*
X9506Y35880D01*
X9529Y35850D01*
X9556Y35823D01*
X9589Y35800D01*
X9625Y35780D01*
X9665Y35765D01*
X9708Y35753D01*
X9753Y35747D01*
X9800Y35744D01*
X9860Y35747D01*
X9914Y35753D01*
X9963Y35765D01*
X10007Y35780D01*
X10047Y35801D01*
X10082Y35825D01*
X10112Y35855D01*
X10138Y35889D01*
X10159Y35926D01*
X10174Y35966D01*
X10184Y36008D01*
X10188Y36052D01*
X10188Y36052D01*
X8883Y35760D02*
X8883Y35857D01*
X8924Y35808D01*
X8973Y35773D01*
X9029Y35752D01*
X9092Y35745D01*
X9120Y35747D01*
X9148Y35751D01*
X9175Y35758D01*
X9200Y35767D01*
X9224Y35779D01*
X9244Y35793D01*
X9262Y35807D01*
X9275Y35824D01*
X9287Y35841D01*
X9296Y35861D01*
X9304Y35883D01*
X9310Y35906D01*
X9313Y35925D01*
X9315Y35949D01*
X9316Y35977D01*
X9317Y36011D01*
X9317Y36419D01*
X9205Y36419D01*
X9205Y36053D01*
X9205Y36013D01*
X9203Y35980D01*
X9201Y35954D01*
X9198Y35935D01*
X9191Y35915D01*
X9182Y35896D01*
X9169Y35880D01*
X9154Y35866D01*
X9136Y35855D01*
X9115Y35848D01*
X9093Y35843D01*
X9069Y35841D01*
X9045Y35843D01*
X9021Y35848D01*
X8997Y35856D01*
X8975Y35867D01*
X8955Y35881D01*
X8937Y35897D01*
X8923Y35916D01*
X8913Y35937D01*
X8905Y35962D01*
X8899Y35991D01*
X8896Y36026D01*
X8894Y36066D01*
X8894Y36419D01*
X8783Y36419D01*
X8783Y35760D01*
X8883Y35760D01*
X8883Y35760D01*
X8628Y35705D02*
X8520Y35689D01*
X8515Y35666D01*
X8507Y35646D01*
X8496Y35629D01*
X8482Y35616D01*
X8459Y35603D01*
X8433Y35593D01*
X8403Y35587D01*
X8368Y35585D01*
X8332Y35587D01*
X8300Y35593D01*
X8272Y35603D01*
X8249Y35616D01*
X8229Y35633D01*
X8213Y35653D01*
X8201Y35677D01*
X8192Y35703D01*
X8188Y35725D01*
X8185Y35756D01*
X8184Y35796D01*
X8184Y35846D01*
X8236Y35902D01*
X8226Y35912D01*
X8204Y35945D01*
X8187Y35988D01*
X8178Y36038D01*
X8174Y36097D01*
X8178Y36154D01*
X8188Y36203D01*
X8205Y36245D01*
X8228Y36280D01*
X8256Y36307D01*
X8287Y36326D01*
X8321Y36337D01*
X8357Y36341D01*
X8393Y36337D01*
X8426Y36326D01*
X8456Y36307D01*
X8484Y36281D01*
X8507Y36247D01*
X8523Y36205D01*
X8533Y36157D01*
X8536Y36101D01*
X8536Y36101D01*
X8533Y36041D01*
X8523Y35989D01*
X8507Y35946D01*
X8484Y35912D01*
X8457Y35886D01*
X8426Y35867D01*
X8393Y35856D01*
X8355Y35852D01*
X8319Y35856D01*
X8285Y35867D01*
X8254Y35886D01*
X8236Y35902D01*
X8184Y35846D01*
X8223Y35808D01*
X8266Y35782D01*
X8314Y35765D01*
X8366Y35760D01*
X8430Y35766D01*
X8486Y35784D01*
X8535Y35815D01*
X8576Y35858D01*
X8609Y35909D01*
X8632Y35966D01*
X8646Y36027D01*
X8651Y36093D01*
X8649Y36139D01*
X8642Y36184D01*
X8631Y36226D01*
X8617Y36267D01*
X8598Y36305D01*
X8575Y36338D01*
X8548Y36366D01*
X8518Y36390D01*
X8484Y36409D01*
X8447Y36423D01*
X8408Y36431D01*
X8365Y36433D01*
X8310Y36428D01*
X8259Y36410D01*
X8214Y36380D01*
X8173Y36339D01*
X8173Y36419D01*
X8070Y36419D01*
X8070Y35849D01*
X8072Y35778D01*
X8078Y35718D01*
X8088Y35669D01*
X8102Y35631D01*
X8119Y35601D01*
X8142Y35574D01*
X8169Y35550D01*
X8201Y35530D01*
X8237Y35514D01*
X8276Y35502D01*
X8320Y35495D01*
X8368Y35493D01*
X8424Y35496D01*
X8474Y35506D01*
X8519Y35523D01*
X8558Y35546D01*
X8590Y35576D01*
X8612Y35612D01*
X8625Y35655D01*
X8628Y35705D01*
X8628Y35705D01*
X7472Y35841D02*
X7503Y35817D01*
X7507Y35814D01*
X7549Y35876D01*
X7529Y35894D01*
X7513Y35915D01*
X7499Y35938D01*
X7491Y35959D01*
X7486Y35985D01*
X7482Y36015D01*
X7481Y36050D01*
X7481Y36091D01*
X7481Y36091D01*
X7515Y36079D01*
X7557Y36068D01*
X7606Y36058D01*
X7663Y36048D01*
X7695Y36043D01*
X7722Y36038D01*
X7744Y36032D01*
X7761Y36026D01*
X7774Y36019D01*
X7786Y36011D01*
X7796Y36001D01*
X7805Y35990D01*
X7812Y35977D01*
X7816Y35965D01*
X7819Y35951D01*
X7820Y35937D01*
X7818Y35915D01*
X7812Y35896D01*
X7801Y35878D01*
X7787Y35862D01*
X7768Y35849D01*
X7745Y35840D01*
X7718Y35834D01*
X7688Y35833D01*
X7656Y35834D01*
X7627Y35840D01*
X7599Y35848D01*
X7573Y35861D01*
X7549Y35876D01*
X7507Y35814D01*
X7533Y35796D01*
X7562Y35780D01*
X7591Y35767D01*
X7620Y35757D01*
X7651Y35751D01*
X7682Y35746D01*
X7714Y35745D01*
X7765Y35748D01*
X7810Y35758D01*
X7849Y35775D01*
X7881Y35798D01*
X7907Y35826D01*
X7925Y35859D01*
X7936Y35894D01*
X7939Y35934D01*
X7938Y35957D01*
X7934Y35980D01*
X7927Y36001D01*
X7917Y36022D01*
X7905Y36041D01*
X7892Y36058D01*
X7877Y36073D01*
X7860Y36086D01*
X7841Y36098D01*
X7822Y36107D01*
X7801Y36116D01*
X7779Y36123D01*
X7761Y36127D01*
X7738Y36131D01*
X7711Y36135D01*
X7680Y36140D01*
X7617Y36148D01*
X7563Y36157D01*
X7517Y36167D01*
X7481Y36178D01*
X7481Y36188D01*
X7481Y36197D01*
X7481Y36203D01*
X7480Y36207D01*
X7482Y36239D01*
X7488Y36265D01*
X7498Y36287D01*
X7512Y36303D01*
X7536Y36320D01*
X7565Y36332D01*
X7600Y36339D01*
X7639Y36341D01*
X7676Y36339D01*
X7708Y36334D01*
X7734Y36326D01*
X7756Y36313D01*
X7773Y36297D01*
X7788Y36275D01*
X7801Y36248D01*
X7811Y36216D01*
X7920Y36231D01*
X7911Y36264D01*
X7900Y36294D01*
X7887Y36321D01*
X7871Y36344D01*
X7852Y36364D01*
X7829Y36382D01*
X7803Y36397D01*
X7773Y36410D01*
X7739Y36420D01*
X7703Y36428D01*
X7664Y36432D01*
X7623Y36433D01*
X7583Y36432D01*
X7547Y36428D01*
X7514Y36422D01*
X7486Y36414D01*
X7461Y36403D01*
X7440Y36391D01*
X7423Y36378D01*
X7409Y36364D01*
X7397Y36348D01*
X7387Y36330D01*
X7380Y36310D01*
X7374Y36288D01*
X7371Y36271D01*
X7370Y36248D01*
X7369Y36219D01*
X7368Y36185D01*
X7368Y36036D01*
X7368Y35965D01*
X7366Y35909D01*
X7364Y35867D01*
X7361Y35839D01*
X7357Y35819D01*
X7350Y35799D01*
X7343Y35779D01*
X7333Y35760D01*
X7449Y35760D01*
X7457Y35778D01*
X7464Y35798D01*
X7469Y35819D01*
X7472Y35841D01*
X7472Y35841D01*
X7196Y35760D02*
X7196Y36419D01*
X7096Y36419D01*
X7096Y36319D01*
X7077Y36351D01*
X7059Y36377D01*
X7042Y36397D01*
X7025Y36411D01*
X7008Y36421D01*
X6991Y36428D01*
X6972Y36432D01*
X6953Y36433D01*
X6925Y36431D01*
X6896Y36424D01*
X6868Y36413D01*
X6839Y36397D01*
X6877Y36294D01*
X6898Y36305D01*
X6918Y36312D01*
X6938Y36317D01*
X6959Y36318D01*
X6977Y36317D01*
X6994Y36313D01*
X7010Y36306D01*
X7025Y36296D01*
X7038Y36284D01*
X7050Y36270D01*
X7059Y36253D01*
X7066Y36235D01*
X7074Y36205D01*
X7080Y36173D01*
X7084Y36139D01*
X7085Y36105D01*
X7085Y35760D01*
X7196Y35760D01*
X7196Y35760D01*
X5980Y36117D02*
X5980Y36223D01*
X5595Y36224D01*
X5595Y35887D01*
X5639Y35853D01*
X5685Y35825D01*
X5731Y35800D01*
X5778Y35780D01*
X5825Y35765D01*
X5873Y35753D01*
X5922Y35747D01*
X5971Y35744D01*
X6037Y35748D01*
X6099Y35759D01*
X6158Y35777D01*
X6215Y35802D01*
X6266Y35834D01*
X6311Y35872D01*
X6349Y35917D01*
X6380Y35968D01*
X6404Y36024D01*
X6422Y36083D01*
X6432Y36145D01*
X6436Y36210D01*
X6432Y36275D01*
X6422Y36338D01*
X6404Y36399D01*
X6380Y36458D01*
X6349Y36512D01*
X6312Y36558D01*
X6269Y36597D01*
X6220Y36629D01*
X6166Y36653D01*
X6108Y36671D01*
X6046Y36681D01*
X5980Y36685D01*
X5932Y36683D01*
X5887Y36677D01*
X5843Y36667D01*
X5802Y36653D01*
X5764Y36635D01*
X5731Y36614D01*
X5702Y36591D01*
X5677Y36564D01*
X5656Y36533D01*
X5637Y36498D01*
X5622Y36459D01*
X5608Y36415D01*
X5717Y36385D01*
X5728Y36418D01*
X5740Y36447D01*
X5753Y36473D01*
X5768Y36494D01*
X5785Y36513D01*
X5805Y36530D01*
X5828Y36545D01*
X5855Y36558D01*
X5884Y36568D01*
X5914Y36576D01*
X5946Y36580D01*
X5980Y36582D01*
X6020Y36580D01*
X6057Y36575D01*
X6091Y36568D01*
X6122Y36557D01*
X6151Y36543D01*
X6177Y36527D01*
X6200Y36510D01*
X6219Y36490D01*
X6237Y36470D01*
X6252Y36448D01*
X6266Y36425D01*
X6277Y36401D01*
X6292Y36358D01*
X6303Y36313D01*
X6309Y36266D01*
X6312Y36218D01*
X6309Y36159D01*
X6301Y36106D01*
X6288Y36058D01*
X6270Y36014D01*
X6246Y35976D01*
X6218Y35943D01*
X6185Y35915D01*
X6148Y35893D01*
X6107Y35875D01*
X6065Y35863D01*
X6022Y35855D01*
X5978Y35853D01*
X5939Y35855D01*
X5901Y35861D01*
X5863Y35870D01*
X5825Y35883D01*
X5790Y35898D01*
X5760Y35914D01*
X5734Y35930D01*
X5713Y35947D01*
X5713Y36117D01*
X5980Y36117D01*
X5980Y36117D01*
X5434Y35760D02*
X5434Y36669D01*
X5322Y36669D01*
X5322Y35760D01*
X5434Y35760D01*
X5434Y35760D01*
X5149Y35760D02*
X5149Y36419D01*
X5037Y36419D01*
X5037Y35760D01*
X5149Y35760D01*
X5149Y35760D01*
X5149Y36541D02*
X5149Y36669D01*
X5037Y36669D01*
X5037Y36541D01*
X5149Y36541D01*
X5149Y36541D01*
X4440Y35760D02*
X4440Y35843D01*
X4491Y35895D01*
X4489Y35897D01*
X4467Y35931D01*
X4451Y35972D01*
X4441Y36022D01*
X4438Y36079D01*
X4441Y36142D01*
X4451Y36197D01*
X4468Y36242D01*
X4490Y36278D01*
X4518Y36305D01*
X4548Y36325D01*
X4582Y36337D01*
X4619Y36341D01*
X4654Y36337D01*
X4687Y36326D01*
X4717Y36307D01*
X4743Y36280D01*
X4765Y36246D01*
X4780Y36202D01*
X4790Y36150D01*
X4793Y36089D01*
X4793Y36089D01*
X4790Y36029D01*
X4780Y35978D01*
X4763Y35935D01*
X4740Y35900D01*
X4712Y35872D01*
X4681Y35853D01*
X4649Y35841D01*
X4614Y35837D01*
X4579Y35841D01*
X4546Y35852D01*
X4516Y35871D01*
X4491Y35895D01*
X4440Y35843D01*
X4475Y35800D01*
X4517Y35770D01*
X4567Y35751D01*
X4624Y35745D01*
X4663Y35748D01*
X4700Y35756D01*
X4735Y35770D01*
X4769Y35789D01*
X4800Y35812D01*
X4828Y35841D01*
X4851Y35873D01*
X4871Y35910D01*
X4887Y35950D01*
X4899Y35993D01*
X4905Y36040D01*
X4908Y36089D01*
X4906Y36137D01*
X4899Y36183D01*
X4889Y36226D01*
X4875Y36268D01*
X4856Y36305D01*
X4834Y36338D01*
X4807Y36367D01*
X4776Y36391D01*
X4742Y36409D01*
X4707Y36423D01*
X4669Y36431D01*
X4629Y36433D01*
X4600Y36432D01*
X4573Y36427D01*
X4547Y36419D01*
X4523Y36408D01*
X4501Y36395D01*
X4481Y36379D01*
X4463Y36362D01*
X4448Y36343D01*
X4448Y36669D01*
X4337Y36669D01*
X4337Y35760D01*
X4440Y35760D01*
X4440Y35760D01*
X3710Y35972D02*
X3595Y35958D01*
X3611Y35910D01*
X3634Y35868D01*
X3662Y35832D01*
X3696Y35801D01*
X3735Y35777D01*
X3780Y35759D01*
X3830Y35749D01*
X3884Y35745D01*
X3953Y35751D01*
X4014Y35767D01*
X4068Y35795D01*
X4114Y35834D01*
X4151Y35883D01*
X4177Y35941D01*
X4193Y36008D01*
X4198Y36084D01*
X4193Y36162D01*
X4177Y36231D01*
X4150Y36291D01*
X4113Y36342D01*
X4067Y36382D01*
X4014Y36411D01*
X3956Y36428D01*
X3891Y36433D01*
X3881Y36433D01*
X3889Y36342D01*
X3926Y36338D01*
X3960Y36329D01*
X3991Y36313D01*
X4019Y36290D01*
X4042Y36262D01*
X4059Y36230D01*
X4071Y36193D01*
X4077Y36153D01*
X4077Y36153D01*
X3709Y36153D01*
X3714Y36191D01*
X3723Y36225D01*
X3735Y36254D01*
X3751Y36277D01*
X3780Y36305D01*
X3812Y36326D01*
X3849Y36338D01*
X3889Y36342D01*
X3881Y36433D01*
X3828Y36428D01*
X3771Y36411D01*
X3720Y36383D01*
X3675Y36344D01*
X3638Y36294D01*
X3612Y36235D01*
X3596Y36167D01*
X3591Y36091D01*
X3591Y36085D01*
X3591Y36078D01*
X3591Y36070D01*
X3592Y36061D01*
X4083Y36061D01*
X4077Y36010D01*
X4064Y35965D01*
X4046Y35927D01*
X4022Y35895D01*
X3992Y35869D01*
X3959Y35851D01*
X3923Y35840D01*
X3884Y35837D01*
X3854Y35839D01*
X3827Y35845D01*
X3802Y35855D01*
X3779Y35869D01*
X3758Y35888D01*
X3740Y35911D01*
X3724Y35939D01*
X3710Y35972D01*
X3710Y35972D01*
X3456Y35760D02*
X3456Y36419D01*
X3355Y36419D01*
X3355Y36319D01*
X3337Y36351D01*
X3319Y36377D01*
X3301Y36397D01*
X3284Y36411D01*
X3268Y36421D01*
X3250Y36428D01*
X3232Y36432D01*
X3213Y36433D01*
X3185Y36431D01*
X3156Y36424D01*
X3127Y36413D01*
X3098Y36397D01*
X3137Y36294D01*
X3157Y36305D01*
X3178Y36312D01*
X3198Y36317D01*
X3218Y36318D01*
X3236Y36317D01*
X3253Y36313D01*
X3269Y36306D01*
X3284Y36296D01*
X3298Y36284D01*
X3309Y36270D01*
X3318Y36253D01*
X3326Y36235D01*
X3334Y36205D01*
X3340Y36173D01*
X3343Y36139D01*
X3344Y36105D01*
X3344Y35760D01*
X3456Y35760D01*
X3456Y35760D01*
X10383Y34065D02*
X10362Y34159D01*
X10346Y34156D01*
X10332Y34153D01*
X10320Y34151D01*
X10309Y34151D01*
X10294Y34152D01*
X10280Y34156D01*
X10268Y34163D01*
X10259Y34173D01*
X10251Y34189D01*
X10246Y34213D01*
X10243Y34245D01*
X10242Y34287D01*
X10242Y34979D01*
X10130Y34979D01*
X10130Y34284D01*
X10132Y34228D01*
X10138Y34181D01*
X10148Y34143D01*
X10162Y34115D01*
X10185Y34088D01*
X10216Y34068D01*
X10252Y34057D01*
X10296Y34053D01*
X10318Y34053D01*
X10340Y34056D01*
X10362Y34059D01*
X10383Y34065D01*
X10383Y34065D01*
X10242Y35099D02*
X10242Y35229D01*
X10130Y35229D01*
X10130Y35099D01*
X10242Y35099D01*
X10242Y35099D01*
X9960Y34320D02*
X9960Y34979D01*
X9860Y34979D01*
X9860Y34879D01*
X9841Y34911D01*
X9823Y34937D01*
X9806Y34957D01*
X9789Y34971D01*
X9772Y34981D01*
X9755Y34988D01*
X9736Y34992D01*
X9717Y34993D01*
X9689Y34991D01*
X9660Y34984D01*
X9632Y34973D01*
X9603Y34957D01*
X9641Y34854D01*
X9662Y34865D01*
X9682Y34872D01*
X9702Y34877D01*
X9723Y34878D01*
X9741Y34877D01*
X9758Y34873D01*
X9774Y34866D01*
X9789Y34856D01*
X9802Y34844D01*
X9814Y34830D01*
X9823Y34813D01*
X9830Y34795D01*
X9838Y34765D01*
X9844Y34733D01*
X9848Y34699D01*
X9849Y34665D01*
X9849Y34320D01*
X9960Y34320D01*
X9960Y34320D01*
X9107Y34401D02*
X9137Y34377D01*
X9142Y34374D01*
X9184Y34436D01*
X9164Y34454D01*
X9147Y34475D01*
X9134Y34498D01*
X9126Y34519D01*
X9120Y34545D01*
X9117Y34575D01*
X9116Y34610D01*
X9116Y34651D01*
X9116Y34651D01*
X9150Y34639D01*
X9192Y34628D01*
X9241Y34618D01*
X9298Y34608D01*
X9330Y34603D01*
X9357Y34598D01*
X9379Y34592D01*
X9395Y34586D01*
X9409Y34579D01*
X9421Y34571D01*
X9431Y34561D01*
X9440Y34550D01*
X9446Y34537D01*
X9451Y34525D01*
X9454Y34511D01*
X9455Y34497D01*
X9453Y34475D01*
X9447Y34456D01*
X9436Y34438D01*
X9421Y34422D01*
X9402Y34409D01*
X9380Y34400D01*
X9353Y34394D01*
X9322Y34393D01*
X9291Y34394D01*
X9261Y34400D01*
X9234Y34408D01*
X9208Y34421D01*
X9184Y34436D01*
X9142Y34374D01*
X9167Y34356D01*
X9197Y34340D01*
X9226Y34327D01*
X9255Y34317D01*
X9285Y34311D01*
X9317Y34306D01*
X9349Y34305D01*
X9400Y34308D01*
X9445Y34318D01*
X9484Y34335D01*
X9516Y34358D01*
X9541Y34386D01*
X9560Y34419D01*
X9570Y34454D01*
X9574Y34494D01*
X9573Y34517D01*
X9569Y34540D01*
X9562Y34561D01*
X9552Y34582D01*
X9540Y34601D01*
X9527Y34618D01*
X9511Y34633D01*
X9494Y34646D01*
X9476Y34658D01*
X9457Y34667D01*
X9436Y34676D01*
X9414Y34683D01*
X9396Y34687D01*
X9373Y34691D01*
X9346Y34695D01*
X9315Y34700D01*
X9252Y34708D01*
X9198Y34717D01*
X9152Y34727D01*
X9116Y34738D01*
X9116Y34748D01*
X9115Y34757D01*
X9115Y34763D01*
X9115Y34767D01*
X9117Y34799D01*
X9123Y34825D01*
X9133Y34847D01*
X9147Y34863D01*
X9171Y34880D01*
X9200Y34892D01*
X9234Y34899D01*
X9274Y34901D01*
X9311Y34899D01*
X9342Y34894D01*
X9369Y34886D01*
X9390Y34873D01*
X9408Y34857D01*
X9423Y34835D01*
X9436Y34808D01*
X9446Y34776D01*
X9555Y34791D01*
X9546Y34824D01*
X9535Y34854D01*
X9522Y34881D01*
X9506Y34904D01*
X9487Y34924D01*
X9464Y34942D01*
X9438Y34957D01*
X9407Y34970D01*
X9374Y34980D01*
X9338Y34988D01*
X9299Y34992D01*
X9258Y34993D01*
X9218Y34992D01*
X9181Y34988D01*
X9149Y34982D01*
X9121Y34974D01*
X9096Y34963D01*
X9075Y34951D01*
X9057Y34938D01*
X9043Y34924D01*
X9032Y34908D01*
X9022Y34890D01*
X9014Y34870D01*
X9009Y34848D01*
X9006Y34831D01*
X9004Y34808D01*
X9003Y34779D01*
X9003Y34745D01*
X9003Y34596D01*
X9003Y34525D01*
X9001Y34469D01*
X8999Y34427D01*
X8996Y34399D01*
X8991Y34379D01*
X8985Y34359D01*
X8977Y34339D01*
X8968Y34320D01*
X9084Y34320D01*
X9092Y34338D01*
X9098Y34358D01*
X9103Y34379D01*
X9107Y34401D01*
X9107Y34401D01*
X8829Y34320D02*
X8829Y34979D01*
X8718Y34979D01*
X8718Y34320D01*
X8829Y34320D01*
X8829Y34320D01*
X8829Y35101D02*
X8829Y35229D01*
X8718Y35229D01*
X8718Y35101D01*
X8829Y35101D01*
X8829Y35101D01*
X8548Y34320D02*
X8548Y34979D01*
X8447Y34979D01*
X8447Y34885D01*
X8407Y34932D01*
X8359Y34966D01*
X8302Y34987D01*
X8238Y34993D01*
X8209Y34992D01*
X8181Y34988D01*
X8154Y34981D01*
X8128Y34972D01*
X8105Y34961D01*
X8085Y34947D01*
X8068Y34932D01*
X8054Y34916D01*
X8042Y34898D01*
X8033Y34878D01*
X8025Y34857D01*
X8019Y34833D01*
X8016Y34815D01*
X8014Y34791D01*
X8013Y34761D01*
X8013Y34725D01*
X8013Y34320D01*
X8124Y34320D01*
X8124Y34721D01*
X8125Y34753D01*
X8128Y34780D01*
X8132Y34804D01*
X8137Y34823D01*
X8145Y34839D01*
X8155Y34853D01*
X8168Y34866D01*
X8183Y34877D01*
X8201Y34885D01*
X8220Y34892D01*
X8240Y34895D01*
X8261Y34897D01*
X8296Y34894D01*
X8328Y34885D01*
X8357Y34871D01*
X8384Y34851D01*
X8407Y34824D01*
X8423Y34786D01*
X8433Y34738D01*
X8436Y34680D01*
X8436Y34320D01*
X8548Y34320D01*
X8548Y34320D01*
X7841Y34320D02*
X7841Y34979D01*
X7729Y34979D01*
X7729Y34320D01*
X7841Y34320D01*
X7841Y34320D01*
X7841Y35101D02*
X7841Y35229D01*
X7729Y35229D01*
X7729Y35101D01*
X7841Y35101D01*
X7841Y35101D01*
X7559Y34320D02*
X7559Y34979D01*
X7460Y34979D01*
X7460Y34886D01*
X7443Y34909D01*
X7423Y34930D01*
X7402Y34948D01*
X7377Y34964D01*
X7350Y34977D01*
X7322Y34986D01*
X7292Y34992D01*
X7260Y34993D01*
X7225Y34992D01*
X7193Y34986D01*
X7165Y34976D01*
X7140Y34963D01*
X7118Y34946D01*
X7100Y34927D01*
X7085Y34904D01*
X7074Y34878D01*
X7032Y34929D01*
X6984Y34965D01*
X6930Y34986D01*
X6870Y34993D01*
X6824Y34990D01*
X6784Y34980D01*
X6749Y34963D01*
X6720Y34939D01*
X6697Y34908D01*
X6680Y34870D01*
X6670Y34825D01*
X6667Y34772D01*
X6667Y34320D01*
X6778Y34320D01*
X6778Y34735D01*
X6779Y34766D01*
X6781Y34792D01*
X6784Y34814D01*
X6789Y34831D01*
X6795Y34845D01*
X6804Y34858D01*
X6815Y34869D01*
X6828Y34879D01*
X6843Y34887D01*
X6859Y34892D01*
X6877Y34896D01*
X6895Y34897D01*
X6928Y34894D01*
X6959Y34885D01*
X6986Y34871D01*
X7011Y34851D01*
X7031Y34824D01*
X7045Y34790D01*
X7054Y34750D01*
X7056Y34703D01*
X7056Y34320D01*
X7168Y34320D01*
X7168Y34748D01*
X7170Y34783D01*
X7175Y34813D01*
X7183Y34839D01*
X7195Y34860D01*
X7211Y34876D01*
X7231Y34887D01*
X7256Y34894D01*
X7285Y34897D01*
X7308Y34895D01*
X7330Y34891D01*
X7351Y34883D01*
X7372Y34872D01*
X7390Y34858D01*
X7406Y34841D01*
X7419Y34822D01*
X7430Y34799D01*
X7438Y34773D01*
X7443Y34741D01*
X7447Y34704D01*
X7448Y34662D01*
X7448Y34320D01*
X7559Y34320D01*
X7559Y34320D01*
X6543Y34649D02*
X6537Y34735D01*
X6518Y34808D01*
X6486Y34870D01*
X6441Y34920D01*
X6396Y34952D01*
X6347Y34975D01*
X6293Y34989D01*
X6234Y34993D01*
X6169Y34988D01*
X6111Y34971D01*
X6058Y34943D01*
X6012Y34904D01*
X5974Y34856D01*
X5948Y34798D01*
X5931Y34733D01*
X5926Y34659D01*
X5928Y34598D01*
X5935Y34545D01*
X5947Y34498D01*
X5964Y34459D01*
X5985Y34424D01*
X6011Y34394D01*
X6041Y34368D01*
X6075Y34345D01*
X6112Y34328D01*
X6151Y34315D01*
X6192Y34308D01*
X6234Y34305D01*
X6242Y34306D01*
X6234Y34397D01*
X6194Y34401D01*
X6158Y34413D01*
X6125Y34432D01*
X6096Y34460D01*
X6072Y34496D01*
X6054Y34540D01*
X6044Y34592D01*
X6041Y34653D01*
X6044Y34710D01*
X6055Y34760D01*
X6072Y34803D01*
X6096Y34838D01*
X6126Y34866D01*
X6158Y34885D01*
X6195Y34897D01*
X6234Y34901D01*
X6274Y34897D01*
X6311Y34885D01*
X6344Y34866D01*
X6373Y34838D01*
X6397Y34803D01*
X6414Y34760D01*
X6425Y34709D01*
X6428Y34649D01*
X6428Y34649D01*
X6425Y34590D01*
X6414Y34539D01*
X6397Y34495D01*
X6373Y34460D01*
X6344Y34432D01*
X6311Y34413D01*
X6274Y34401D01*
X6234Y34397D01*
X6242Y34306D01*
X6300Y34311D01*
X6359Y34327D01*
X6412Y34355D01*
X6458Y34394D01*
X6495Y34443D01*
X6522Y34502D01*
X6538Y34571D01*
X6543Y34649D01*
X6543Y34649D01*
X5763Y34320D02*
X5763Y34447D01*
X5636Y34447D01*
X5636Y34320D01*
X5763Y34320D01*
X5763Y34320D01*
X5013Y34561D02*
X4903Y34547D01*
X4915Y34493D01*
X4935Y34446D01*
X4961Y34404D01*
X4995Y34369D01*
X5034Y34341D01*
X5077Y34321D01*
X5125Y34309D01*
X5177Y34305D01*
X5241Y34311D01*
X5299Y34327D01*
X5350Y34355D01*
X5394Y34393D01*
X5430Y34442D01*
X5456Y34501D01*
X5471Y34569D01*
X5476Y34647D01*
X5474Y34698D01*
X5468Y34747D01*
X5456Y34792D01*
X5441Y34833D01*
X5421Y34871D01*
X5396Y34903D01*
X5367Y34931D01*
X5333Y34953D01*
X5297Y34971D01*
X5258Y34983D01*
X5218Y34991D01*
X5176Y34993D01*
X5125Y34990D01*
X5079Y34980D01*
X5037Y34963D01*
X5001Y34939D01*
X4970Y34909D01*
X4945Y34874D01*
X4926Y34832D01*
X4913Y34785D01*
X5022Y34768D01*
X5031Y34799D01*
X5043Y34826D01*
X5059Y34849D01*
X5077Y34868D01*
X5097Y34883D01*
X5120Y34893D01*
X5145Y34900D01*
X5172Y34902D01*
X5212Y34898D01*
X5248Y34887D01*
X5281Y34868D01*
X5309Y34841D01*
X5332Y34807D01*
X5348Y34763D01*
X5358Y34711D01*
X5362Y34650D01*
X5358Y34588D01*
X5349Y34535D01*
X5333Y34492D01*
X5311Y34457D01*
X5283Y34431D01*
X5252Y34412D01*
X5217Y34401D01*
X5178Y34397D01*
X5147Y34399D01*
X5118Y34407D01*
X5092Y34420D01*
X5068Y34437D01*
X5048Y34460D01*
X5032Y34488D01*
X5020Y34522D01*
X5013Y34561D01*
X5013Y34561D01*
X4849Y34649D02*
X4842Y34735D01*
X4823Y34808D01*
X4792Y34870D01*
X4747Y34920D01*
X4702Y34952D01*
X4653Y34975D01*
X4599Y34989D01*
X4540Y34993D01*
X4475Y34988D01*
X4417Y34971D01*
X4364Y34943D01*
X4318Y34904D01*
X4280Y34856D01*
X4253Y34798D01*
X4237Y34733D01*
X4232Y34659D01*
X4234Y34598D01*
X4241Y34545D01*
X4253Y34498D01*
X4270Y34459D01*
X4291Y34424D01*
X4317Y34394D01*
X4347Y34368D01*
X4381Y34345D01*
X4418Y34328D01*
X4457Y34315D01*
X4498Y34308D01*
X4540Y34305D01*
X4548Y34306D01*
X4540Y34397D01*
X4500Y34401D01*
X4464Y34413D01*
X4431Y34432D01*
X4402Y34460D01*
X4378Y34496D01*
X4360Y34540D01*
X4350Y34592D01*
X4346Y34653D01*
X4350Y34710D01*
X4360Y34760D01*
X4378Y34803D01*
X4402Y34838D01*
X4431Y34866D01*
X4464Y34885D01*
X4500Y34897D01*
X4540Y34901D01*
X4580Y34897D01*
X4617Y34885D01*
X4649Y34866D01*
X4679Y34838D01*
X4703Y34803D01*
X4720Y34760D01*
X4731Y34709D01*
X4734Y34649D01*
X4734Y34649D01*
X4731Y34590D01*
X4720Y34539D01*
X4703Y34495D01*
X4679Y34460D01*
X4649Y34432D01*
X4617Y34413D01*
X4580Y34401D01*
X4540Y34397D01*
X4548Y34306D01*
X4606Y34311D01*
X4665Y34327D01*
X4718Y34355D01*
X4764Y34394D01*
X4801Y34443D01*
X4827Y34502D01*
X4843Y34571D01*
X4849Y34649D01*
X4849Y34649D01*
X4101Y34320D02*
X4101Y34979D01*
X4001Y34979D01*
X4001Y34886D01*
X3984Y34909D01*
X3965Y34930D01*
X3943Y34948D01*
X3919Y34964D01*
X3892Y34977D01*
X3864Y34986D01*
X3833Y34992D01*
X3801Y34993D01*
X3766Y34992D01*
X3735Y34986D01*
X3706Y34976D01*
X3681Y34963D01*
X3660Y34946D01*
X3641Y34927D01*
X3627Y34904D01*
X3615Y34878D01*
X3573Y34929D01*
X3525Y34965D01*
X3472Y34986D01*
X3412Y34993D01*
X3366Y34990D01*
X3325Y34980D01*
X3290Y34963D01*
X3261Y34939D01*
X3238Y34908D01*
X3222Y34870D01*
X3212Y34825D01*
X3209Y34772D01*
X3209Y34320D01*
X3320Y34320D01*
X3320Y34735D01*
X3320Y34766D01*
X3322Y34792D01*
X3326Y34814D01*
X3330Y34831D01*
X3337Y34845D01*
X3346Y34858D01*
X3357Y34869D01*
X3370Y34879D01*
X3385Y34887D01*
X3401Y34892D01*
X3418Y34896D01*
X3437Y34897D01*
X3470Y34894D01*
X3500Y34885D01*
X3528Y34871D01*
X3552Y34851D01*
X3572Y34824D01*
X3587Y34790D01*
X3595Y34750D01*
X3598Y34703D01*
X3598Y34320D01*
X3710Y34320D01*
X3710Y34748D01*
X3711Y34783D01*
X3716Y34813D01*
X3725Y34839D01*
X3737Y34860D01*
X3753Y34876D01*
X3773Y34887D01*
X3797Y34894D01*
X3826Y34897D01*
X3849Y34895D01*
X3872Y34891D01*
X3893Y34883D01*
X3913Y34872D01*
X3932Y34858D01*
X3948Y34841D01*
X3961Y34822D01*
X3971Y34799D01*
X3979Y34773D01*
X3985Y34741D01*
X3988Y34704D01*
X3989Y34662D01*
X3989Y34320D01*
X4101Y34320D01*
X4101Y34320D01*
G37*
M02*