%FSLAX33Y33*%
%MOMM*%
%AMRect-W670710-H870710-RO0.500*
21,1,0.67071,0.87071,0.,0.,270*%
%AMRect-W1500000-H4000000-RO1.500*
21,1,1.5,4.,0.,0.,90*%
%AMRect-W670710-H870710-RO1.000*
21,1,0.67071,0.87071,0.,0.,180*%
%AMRect-W1400000-H1000000-RO1.000*
21,1,1.4,1.,0.,0.,180*%
%AMRect-W670710-H870710-RO1.500*
21,1,0.67071,0.87071,0.,0.,90*%
%AMRect-W700000-H1600000-RO1.500*
21,1,0.7,1.6,0.,0.,90*%
%AMRect-W1200000-H1600000-RO0.500*
21,1,1.2,1.6,0.,0.,270*%
%AMRect-W1600000-H1400000-RO0.500*
21,1,1.6,1.4,0.,0.,270*%
%AMRect-W1200000-H2200000-RO0.500*
21,1,1.2,2.2,0.,0.,270*%
%AMRect-W280000-H850000-RO0.500*
21,1,0.28,0.85,0.,0.,270*%
%AMRect-W2400000-H1650000-RO0.500*
21,1,2.4,1.65,0.,0.,270*%
%AMRect-W700000-H280000-RO0.500*
21,1,0.7,0.28,0.,0.,270*%
%AMRect-W1280000-H550000-RO1.000*
21,1,1.28,0.55,0.,0.,180*%
%AMRect-W1520000-H1680000-RO1.000*
21,1,1.52,1.68,0.,0.,180*%
%AMRect-W1880000-H1680000-RO1.000*
21,1,1.88,1.68,0.,0.,180*%
%AMRect-W2300000-H500000-RO1.750*
21,1,2.3,0.5,0.,0.,45*%
%AMRect-W2500000-H2000000-RO1.750*
21,1,2.5,2.,0.,0.,45*%
%AMRect-W600000-H1200000-RO0.500*
21,1,0.6,1.2,0.,0.,270*%
%ADD10C,1.0668*%
%ADD11Rect-W670710-H870710-RO0.500*%
%ADD12Rect-W1500000-H4000000-RO1.500*%
%ADD13R,0.67071X0.87071*%
%ADD14Rect-W670710-H870710-RO1.000*%
%ADD15R,0.67071X1.32071*%
%ADD16Rect-W1400000-H1000000-RO1.000*%
%ADD17R,1.57X1.57*%
%ADD18C,1.57*%
%ADD19Rect-W670710-H870710-RO1.500*%
%ADD20C,2.*%
%ADD21Rect-W700000-H1600000-RO1.500*%
%ADD22Rect-W1200000-H1600000-RO0.500*%
%ADD23Rect-W1600000-H1400000-RO0.500*%
%ADD24Rect-W1200000-H2200000-RO0.500*%
%ADD25C,3.*%
%ADD26R,0.7X1.5*%
%ADD27R,1.X0.8*%
%ADD28R,1.22X0.62*%
%ADD29C,0.6*%
%ADD30Rect-W280000-H850000-RO0.500*%
%ADD31Rect-W2400000-H1650000-RO0.500*%
%ADD32Rect-W700000-H280000-RO0.500*%
%ADD33Rect-W1280000-H550000-RO1.000*%
%ADD34Rect-W1520000-H1680000-RO1.000*%
%ADD35Rect-W1880000-H1680000-RO1.000*%
%ADD36Rect-W2300000-H500000-RO1.750*%
%ADD37Rect-W2500000-H2000000-RO1.750*%
%ADD38Rect-W600000-H1200000-RO0.500*%
%ADD39R,2.X1.2*%
%ADD40R,1.2X2.*%
%ADD41R,0.9X0.25*%
%ADD42R,0.25X0.9*%
%ADD43R,3.25X3.25*%
D10*
%LNtop solder mask_traces*%
G01*
X35350Y32275D03*
X33715Y13550D03*
X43725Y15925D03*
X19175Y19850D03*
X22850Y17850D03*
X35350Y38775D03*
X42975Y31075D03*
X13675Y22525D03*
X22160Y28750D03*
X23475Y27828D03*
X25375Y41221D03*
X11450Y11375D03*
X19625Y21575D03*
X28296Y8644D03*
X19400Y13135D03*
X12450Y43450D03*
X29535Y13375D03*
X1850Y25175D03*
X29010Y25975D03*
X24785Y26610D03*
X25675Y14375D03*
X18025Y18575D03*
X16550Y28925D03*
X45486Y11950D03*
X35350Y40200D03*
X5025Y13750D03*
X21550Y2015D03*
X31990Y8644D03*
X23850Y19100D03*
X23850Y17850D03*
X14799Y15475D03*
X25535Y32500D03*
X42600Y9010D03*
X35300Y33775D03*
X36940Y27060D03*
X16550Y10425D03*
X16550Y12325D03*
X12332Y9225D03*
X2950Y43750D03*
X25675Y12400D03*
X30300Y18100D03*
X39950Y25725D03*
X42600Y6000D03*
X39125Y38025D03*
X22850Y19100D03*
X16550Y17475D03*
X23365Y32290D03*
X36175Y7259D03*
X44375Y20599D03*
X23304Y40025D03*
X13814Y5050D03*
X27575Y33410D03*
X37875Y18875D03*
X46375Y14150D03*
X46950Y28450D03*
X39950Y24125D03*
X35350Y42025D03*
X28517Y5550D03*
X1150Y9750D03*
X35350Y35425D03*
X12450Y25075D03*
X9750Y1200D03*
X27575Y28075D03*
X15200Y37810D03*
X44375Y39875D03*
X28081Y13375D03*
X41600Y31175D03*
X24600Y7050D03*
X29500Y37075D03*
X20215Y35610D03*
X42400Y11950D03*
X29010Y30025D03*
%LNtop solder mask component 0f6bbc825d3b9acc*%
D11*
X46375Y20050D03*
X46375Y18350D03*
%LNtop solder mask component b5f7dfc42feccbac*%
D12*
X35025Y17485D03*
X35025Y20185D03*
%LNtop solder mask component 486ebf370a6266ad*%
D13*
X26479Y44025D03*
X28179Y44025D03*
%LNtop solder mask component d38d5b245d314990*%
D14*
X18465Y34510D03*
X16765Y34510D03*
%LNtop solder mask component f6f6c710f3d5fc34*%
D15*
X22415Y12475D03*
X24515Y12475D03*
%LNtop solder mask component cb9ffe53114e7353*%
D16*
X18050Y25210D03*
X18050Y27110D03*
X15850Y26160D03*
%LNtop solder mask component 67c3e5d30430499a*%
D11*
X22160Y25175D03*
X22160Y23475D03*
%LNtop solder mask component 076615648775bf88*%
D15*
X40260Y15925D03*
X42360Y15925D03*
%LNtop solder mask component cca6af50c4a98013*%
D13*
X33475Y7259D03*
X35175Y7259D03*
%LNtop solder mask component 715ed7d0b1d3afca*%
D16*
X18050Y21575D03*
X18050Y23475D03*
X15850Y22525D03*
%LNtop solder mask component ac8baea792a2aaac*%
D17*
X16315Y43275D03*
D18*
X18855Y43275D03*
X21395Y43275D03*
X23935Y43275D03*
%LNtop solder mask component 9d8acad3d9d6a0d6*%
D19*
X23365Y29350D03*
X23365Y31050D03*
%LNtop solder mask component 03c325690ca4418d*%
D20*
X47625Y5400D03*
%LNtop solder mask component 40ec898d0e2ff914*%
X31700Y13076D03*
%LNtop solder mask component bae0712a27b4ea41*%
D13*
X33475Y8680D03*
X35175Y8680D03*
%LNtop solder mask component 63a34d2486bad1c4*%
D11*
X27575Y31050D03*
X27575Y29350D03*
%LNtop solder mask component e9e38080a465162a*%
D19*
X29535Y10365D03*
X29535Y12065D03*
%LNtop solder mask component 40d403f1b58e725a*%
X25535Y29350D03*
X25535Y31050D03*
%LNtop solder mask component eebbd8b22b528fb9*%
D21*
X13200Y32310D03*
X13200Y33410D03*
X13200Y34510D03*
X13200Y35610D03*
X13200Y36710D03*
X13200Y37810D03*
X13200Y38910D03*
X13200Y40010D03*
X13200Y41110D03*
D22*
X12450Y42210D03*
D23*
X12450Y27610D03*
D24*
X2950Y42210D03*
X1850Y26710D03*
%LNtop solder mask component 7a5c382ed73f7f01*%
D11*
X19400Y15810D03*
X19400Y14110D03*
%LNtop solder mask component 348ef3f49df1d6a5*%
D14*
X30710Y15000D03*
X29010Y15000D03*
%LNtop solder mask component d8a0c5ab795ca37c*%
D19*
X24785Y23475D03*
X24785Y25175D03*
%LNtop solder mask component 8aec1219b16a3ed0*%
D20*
X26116Y2015D03*
%LNtop solder mask component c15ab15aefc1d0d4*%
D25*
X46000Y24200D03*
%LNtop solder mask component 585378ffb4492eb4*%
D13*
X36940Y24125D03*
X38640Y24125D03*
%LNtop solder mask component 58a0b494729c8b0f*%
D11*
X23475Y25175D03*
X23475Y23475D03*
%LNtop solder mask component be3523eaeecb83a3*%
D26*
X42600Y3885D03*
X44100Y3885D03*
X39600Y3885D03*
D27*
X38200Y3285D03*
X38200Y0985D03*
X45500Y3285D03*
X45500Y0985D03*
%LNtop solder mask component b08b3aeb38ad64a9*%
D14*
X18465Y38910D03*
X16765Y38910D03*
%LNtop solder mask component 6bf5079ea5defa21*%
D28*
X30365Y5779D03*
X30365Y4829D03*
X30365Y3879D03*
X32985Y3879D03*
X32985Y5779D03*
%LNtop solder mask component 3289a17518b3d6e7*%
D29*
X40475Y19625D03*
X40475Y18125D03*
X41475Y19625D03*
X41475Y18125D03*
X40975Y18875D03*
D30*
X39500Y19875D03*
X39500Y19375D03*
X39500Y18875D03*
X39500Y18375D03*
X39500Y17875D03*
X42450Y17875D03*
X42450Y18375D03*
X42450Y18875D03*
X42450Y19375D03*
X42450Y19875D03*
D31*
X40975Y18875D03*
D32*
X40725Y20425D03*
X40725Y17325D03*
X41225Y20425D03*
X41225Y17325D03*
%LNtop solder mask component a8562578979f14ee*%
D33*
X41215Y10050D03*
X41215Y11950D03*
X39185Y11000D03*
%LNtop solder mask component a19249a7d97fb8cf*%
D11*
X46375Y17060D03*
X46375Y15360D03*
%LNtop solder mask component 1ac4e853d3c269f5*%
D13*
X22475Y14375D03*
X24175Y14375D03*
%LNtop solder mask component dd2aebd6988071a3*%
X10999Y19471D03*
X12699Y19471D03*
%LNtop solder mask component 6f19398e3a637eba*%
D19*
X28081Y10365D03*
X28081Y12065D03*
%LNtop solder mask component 7b06acf78c478343*%
D14*
X35175Y11500D03*
X33475Y11500D03*
%LNtop solder mask component ecfddb6ce83e4997*%
D34*
X26155Y8875D03*
D35*
X22575Y8875D03*
%LNtop solder mask component 0009601b2b7bb17d*%
D25*
X5250Y21000D03*
%LNtop solder mask component 196f46a316006fd3*%
D20*
X33350Y22450D03*
%LNtop solder mask component 8fb6001151396292*%
D25*
X17900Y4200D03*
%LNtop solder mask component 32500ce6d7552bec*%
D34*
X26599Y5669D03*
D35*
X23019Y5669D03*
%LNtop solder mask component 945664e6b963058c*%
D20*
X43725Y14025D03*
%LNtop solder mask component 29d9dd5f841c3255*%
D14*
X18465Y33325D03*
X16765Y33325D03*
%LNtop solder mask component ac187e3dfa2fb0b0*%
D20*
X39525Y40425D03*
%LNtop solder mask component cc942e27117a1124*%
D14*
X38640Y22725D03*
X36940Y22725D03*
%LNtop solder mask component 32fdad48a9229fea*%
D15*
X36950Y25725D03*
X39050Y25725D03*
%LNtop solder mask component 28271c4a93275f5c*%
D36*
X8301Y10589D03*
X8867Y10023D03*
X9433Y9458D03*
X9998Y8892D03*
X10564Y8326D03*
D37*
X2326Y8645D03*
X6215Y12534D03*
X8620Y2351D03*
X12509Y6240D03*
%LNtop solder mask component 1717958014e64759*%
D14*
X35175Y10080D03*
X33475Y10080D03*
%LNtop solder mask component 29d89bcfd640546a*%
D15*
X39250Y8350D03*
X41350Y8350D03*
%LNtop solder mask component 14e52fb64ffb705e*%
D14*
X18465Y36710D03*
X16765Y36710D03*
%LNtop solder mask component 7f8b45e1c2dd502c*%
D38*
X12624Y12325D03*
X12624Y11375D03*
X12624Y10425D03*
X14924Y10425D03*
X14924Y11375D03*
X14924Y12325D03*
%LNtop solder mask component 92a8953b046f1d64*%
D14*
X28179Y40025D03*
X26479Y40025D03*
%LNtop solder mask component a15209bcba32dbde*%
D13*
X26479Y42190D03*
X28179Y42190D03*
%LNtop solder mask component 0cf16f86440a554b*%
D39*
X31950Y44025D03*
X31950Y42025D03*
X31950Y40025D03*
X31950Y38025D03*
X31950Y36025D03*
X31950Y34025D03*
X31950Y32025D03*
X31950Y30025D03*
X46950Y30025D03*
X46950Y32025D03*
X46950Y34025D03*
X46950Y36025D03*
X46950Y38025D03*
X46950Y40025D03*
X46950Y42025D03*
X46950Y44025D03*
D40*
X34450Y29025D03*
X36450Y29025D03*
X38450Y29025D03*
X40450Y29025D03*
X42450Y29025D03*
X44450Y29025D03*
%LNtop solder mask component 340e420777b80da6*%
D20*
X23521Y2015D03*
%LNtop solder mask component b1720f8b90caa6c0*%
D13*
X26485Y38025D03*
X28185Y38025D03*
%LNtop solder mask component 73a5e44f660ff0af*%
D15*
X12699Y14065D03*
X14799Y14065D03*
%LNtop solder mask component dcefecd9652566ea*%
D13*
X29010Y16790D03*
X30710Y16790D03*
%LNtop solder mask component 8f391d09d547739e*%
D41*
X20950Y20100D03*
X20950Y19600D03*
X20950Y19100D03*
X20950Y18600D03*
X20950Y18100D03*
X20950Y17600D03*
X20950Y17100D03*
X25750Y17100D03*
X25750Y17600D03*
X25750Y18100D03*
X25750Y18600D03*
X25750Y19100D03*
X25750Y19600D03*
X25750Y20100D03*
D42*
X21850Y16200D03*
X22350Y16200D03*
X22850Y16200D03*
X23350Y16200D03*
X23850Y16200D03*
X24350Y16200D03*
X24850Y16200D03*
X24850Y21000D03*
X24350Y21000D03*
X23850Y21000D03*
X23350Y21000D03*
X22850Y21000D03*
X22350Y21000D03*
X21850Y21000D03*
D43*
X23350Y18600D03*
%LNtop solder mask component 465837ab5bd8404d*%
D13*
X10999Y17846D03*
X12699Y17846D03*
%LNtop solder mask component a90cc3663dad593a*%
D19*
X19950Y23475D03*
X19950Y25175D03*
M02*