%FSLAX33Y33*%
%MOMM*%
%ADD10C,1.0668*%
%ADD11R,1.57X1.57*%
%ADD12C,1.57*%
%ADD13C,2.*%
%ADD14C,3.*%
%ADD15C,0.6*%
D10*
%LNbottom solder mask_traces*%
G01*
X35350Y32275D03*
X33715Y13550D03*
X43725Y15925D03*
X19175Y19850D03*
X22850Y17850D03*
X35350Y38775D03*
X42975Y31075D03*
X13675Y22525D03*
X22160Y28750D03*
X23475Y27828D03*
X25375Y41221D03*
X11450Y11375D03*
X19625Y21575D03*
X28296Y8644D03*
X19400Y13135D03*
X12450Y43450D03*
X29535Y13375D03*
X1850Y25175D03*
X29010Y25975D03*
X24785Y26610D03*
X25675Y14375D03*
X18025Y18575D03*
X16550Y28925D03*
X45486Y11950D03*
X35350Y40200D03*
X5025Y13750D03*
X21550Y2015D03*
X31990Y8644D03*
X23850Y19100D03*
X23850Y17850D03*
X14799Y15475D03*
X25535Y32500D03*
X42600Y9010D03*
X35300Y33775D03*
X36940Y27060D03*
X16550Y10425D03*
X16550Y12325D03*
X12332Y9225D03*
X2950Y43750D03*
X25675Y12400D03*
X30300Y18100D03*
X39950Y25725D03*
X42600Y6000D03*
X39125Y38025D03*
X22850Y19100D03*
X16550Y17475D03*
X23365Y32290D03*
X36175Y7259D03*
X44375Y20599D03*
X23304Y40025D03*
X13814Y5050D03*
X27575Y33410D03*
X37875Y18875D03*
X46375Y14150D03*
X46950Y28450D03*
X39950Y24125D03*
X35350Y42025D03*
X28517Y5550D03*
X1150Y9750D03*
X35350Y35425D03*
X12450Y25075D03*
X9750Y1200D03*
X27575Y28075D03*
X15200Y37810D03*
X44375Y39875D03*
X28081Y13375D03*
X41600Y31175D03*
X24600Y7050D03*
X29500Y37075D03*
X20215Y35610D03*
X42400Y11950D03*
X29010Y30025D03*
%LNbottom solder mask component ac8baea792a2aaac*%
D11*
X16315Y43275D03*
D12*
X18855Y43275D03*
X21395Y43275D03*
X23935Y43275D03*
%LNbottom solder mask component 0ee08989bcddf7ff*%
D13*
X33300Y28721D03*
%LNbottom solder mask component c15ab15aefc1d0d4*%
D14*
X46000Y24200D03*
%LNbottom solder mask component c8d90169438ddb06*%
D13*
X35950Y2135D03*
%LNbottom solder mask component 3289a17518b3d6e7*%
D15*
X40475Y19625D03*
X40475Y18125D03*
X41475Y19625D03*
X41475Y18125D03*
X40975Y18875D03*
%LNbottom solder mask component 0009601b2b7bb17d*%
D14*
X5250Y21000D03*
%LNbottom solder mask component 8fb6001151396292*%
X17900Y4200D03*
M02*