%FSLAX33Y33*%
%MOMM*%
%AMRect-W670710-H870710-RO0.500*
21,1,0.67071,0.87071,0.,0.,270*%
%AMRect-W1500000-H4000000-RO1.500*
21,1,1.5,4.,0.,0.,90*%
%AMRect-W670710-H870710-RO1.000*
21,1,0.67071,0.87071,0.,0.,180*%
%AMRect-W1400000-H1000000-RO1.000*
21,1,1.4,1.,0.,0.,180*%
%AMRect-W670710-H870710-RO1.500*
21,1,0.67071,0.87071,0.,0.,90*%
%AMRect-W700000-H1600000-RO1.500*
21,1,0.7,1.6,0.,0.,90*%
%AMRect-W1200000-H1600000-RO0.500*
21,1,1.2,1.6,0.,0.,270*%
%AMRect-W1600000-H1400000-RO0.500*
21,1,1.6,1.4,0.,0.,270*%
%AMRect-W1200000-H2200000-RO0.500*
21,1,1.2,2.2,0.,0.,270*%
%AMRect-W280000-H850000-RO0.500*
21,1,0.28,0.85,0.,0.,270*%
%AMRect-W2400000-H1650000-RO0.500*
21,1,2.4,1.65,0.,0.,270*%
%AMRect-W700000-H280000-RO0.500*
21,1,0.7,0.28,0.,0.,270*%
%AMRect-W1280000-H550000-RO1.000*
21,1,1.28,0.55,0.,0.,180*%
%AMRect-W1520000-H1680000-RO1.000*
21,1,1.52,1.68,0.,0.,180*%
%AMRect-W1880000-H1680000-RO1.000*
21,1,1.88,1.68,0.,0.,180*%
%AMRect-W2300000-H500000-RO1.750*
21,1,2.3,0.5,0.,0.,45*%
%AMRect-W2500000-H2000000-RO1.750*
21,1,2.5,2.,0.,0.,45*%
%AMRect-W600000-H1200000-RO0.500*
21,1,0.6,1.2,0.,0.,270*%
%ADD10C,0.254*%
%ADD11C,0.508*%
%ADD12C,1.0668*%
%ADD13Rect-W670710-H870710-RO0.500*%
%ADD14Rect-W1500000-H4000000-RO1.500*%
%ADD15R,0.67071X0.87071*%
%ADD16Rect-W670710-H870710-RO1.000*%
%ADD17R,0.67071X1.32071*%
%ADD18Rect-W1400000-H1000000-RO1.000*%
%ADD19R,1.57X1.57*%
%ADD20C,1.57*%
%ADD21Rect-W670710-H870710-RO1.500*%
%ADD22C,2.*%
%ADD23Rect-W700000-H1600000-RO1.500*%
%ADD24Rect-W1200000-H1600000-RO0.500*%
%ADD25Rect-W1600000-H1400000-RO0.500*%
%ADD26Rect-W1200000-H2200000-RO0.500*%
%ADD27C,3.*%
%ADD28R,0.7X1.5*%
%ADD29R,1.X0.8*%
%ADD30R,1.22X0.62*%
%ADD31C,0.6*%
%ADD32Rect-W280000-H850000-RO0.500*%
%ADD33Rect-W2400000-H1650000-RO0.500*%
%ADD34Rect-W700000-H280000-RO0.500*%
%ADD35Rect-W1280000-H550000-RO1.000*%
%ADD36Rect-W1520000-H1680000-RO1.000*%
%ADD37Rect-W1880000-H1680000-RO1.000*%
%ADD38Rect-W2300000-H500000-RO1.750*%
%ADD39Rect-W2500000-H2000000-RO1.750*%
%ADD40Rect-W600000-H1200000-RO0.500*%
%ADD41R,2.X1.2*%
%ADD42R,1.2X2.*%
%ADD43R,0.9X0.25*%
%ADD44R,0.25X0.9*%
%ADD45R,3.25X3.25*%
D10*
%LNtop copper_traces*%
G01*
X35675Y34150D02*
X35300Y33775D01*
X20250Y27110D02*
X21050Y26310D01*
D11*
X12450Y27610D02*
X12450Y25075D01*
D10*
X31990Y8644D02*
X33440Y8644D01*
X19400Y14110D02*
X19400Y13135D01*
X42150Y10050D02*
X42600Y9600D01*
D11*
X20200Y11375D02*
X21300Y12475D01*
X23625Y3775D02*
X24554Y3775D01*
D10*
X24460Y24350D02*
X24785Y24025D01*
D11*
X1850Y26710D02*
X1850Y25175D01*
D10*
X35350Y42025D02*
X35350Y42025D01*
X21850Y15650D02*
X22475Y15025D01*
X46950Y34150D02*
X35675Y34150D01*
D11*
X13200Y37810D02*
X15200Y37810D01*
D10*
X25535Y28140D02*
X26925Y26750D01*
X33169Y2015D02*
X37850Y6696D01*
X28179Y40025D02*
X31750Y40025D01*
X31950Y34025D02*
X33100Y34025D01*
X21850Y16200D02*
X21850Y15650D01*
D11*
X14799Y14065D02*
X14799Y15475D01*
X22475Y14375D02*
X22475Y12535D01*
D10*
X18050Y25210D02*
X19950Y25210D01*
X44085Y18875D02*
X45225Y20015D01*
X31991Y11580D02*
X33350Y11580D01*
D11*
X8620Y2351D02*
X9696Y1275D01*
X29325Y4829D02*
X28604Y5550D01*
D10*
X36700Y12100D02*
X35250Y13550D01*
X29025Y14900D02*
X29025Y16635D01*
X15960Y16600D02*
X18890Y16600D01*
X39175Y17875D02*
X38975Y17675D01*
D11*
X32150Y3879D02*
X32964Y3879D01*
X25050Y5669D02*
X26470Y5669D01*
D10*
X36700Y9269D02*
X36075Y8644D01*
X13200Y34425D02*
X16679Y34425D01*
X28200Y3879D02*
X30344Y3879D01*
X31950Y36025D02*
X25690Y36025D01*
X23475Y22036D02*
X23475Y23475D01*
X24785Y24025D02*
X24785Y23535D01*
X23475Y25210D02*
X23475Y27828D01*
X31950Y32025D02*
X30325Y32025D01*
X33475Y10080D02*
X33475Y8680D01*
X13200Y33410D02*
X16679Y33410D01*
X33275Y31075D02*
X34350Y32150D01*
X28046Y12265D02*
X28046Y13335D01*
X19925Y19100D02*
X19175Y19850D01*
X13200Y36710D02*
X16765Y36710D01*
X29010Y16925D02*
X29025Y16635D01*
X44375Y39875D02*
X46950Y39875D01*
D11*
X2950Y42210D02*
X2950Y43750D01*
X24475Y12400D02*
X25675Y12400D01*
D10*
X29475Y12215D02*
X29475Y13247D01*
X13090Y19471D02*
X12699Y19471D01*
X37850Y6696D02*
X37850Y12525D01*
X39500Y17875D02*
X39175Y17875D01*
X41215Y10050D02*
X42150Y10050D01*
X37960Y17485D02*
X35025Y17485D01*
X22850Y21000D02*
X22850Y21865D01*
X18775Y17475D02*
X19400Y18100D01*
X20356Y17094D02*
X19463Y16200D01*
X25375Y41950D02*
X25375Y41221D01*
D11*
X13799Y11801D02*
X14225Y11375D01*
X24600Y6119D02*
X25050Y5669D01*
D10*
X38600Y42025D02*
X35350Y38775D01*
X33100Y34025D02*
X33775Y34700D01*
X33275Y31075D02*
X30060Y31075D01*
X18050Y21575D02*
X19625Y21575D01*
X46950Y32025D02*
X35600Y32025D01*
X40996Y30325D02*
X42450Y30325D01*
X17625Y17475D02*
X16550Y17475D01*
D11*
X20675Y9400D02*
X20675Y10900D01*
D10*
X10352Y10448D02*
X12624Y10448D01*
X13090Y19471D02*
X15960Y16600D01*
X47550Y19875D02*
X47550Y11675D01*
X38675Y22725D02*
X42275Y22725D01*
X44375Y39875D02*
X44375Y39875D01*
X25690Y36025D02*
X25065Y36700D01*
X26375Y40025D02*
X23304Y40025D01*
X23850Y21650D02*
X24725Y22525D01*
D11*
X13034Y14065D02*
X13799Y13300D01*
D10*
X47625Y5400D02*
X46635Y6390D01*
X35175Y11500D02*
X35175Y10080D01*
X22165Y22550D02*
X22165Y23471D01*
X45225Y20015D02*
X46340Y20015D01*
X28179Y42190D02*
X28179Y40104D01*
D11*
X43590Y12085D02*
X42400Y13275D01*
D10*
X42450Y19375D02*
X43560Y19375D01*
X22165Y22550D02*
X22850Y21865D01*
X43725Y14025D02*
X44740Y14025D01*
X42450Y18375D02*
X46375Y18375D01*
X19400Y15825D02*
X19400Y16200D01*
D11*
X21300Y12475D02*
X22225Y12475D01*
D10*
X46950Y38025D02*
X39125Y38025D01*
D11*
X20675Y9400D02*
X21200Y8875D01*
X42360Y15925D02*
X43725Y15925D01*
D10*
X30365Y6487D02*
X28296Y8556D01*
X38165Y20185D02*
X35025Y20185D01*
X33350Y25725D02*
X33350Y22450D01*
D11*
X29535Y9450D02*
X31700Y7285D01*
D10*
X36075Y8644D02*
X35175Y8644D01*
X35600Y32025D02*
X35350Y32275D01*
X46850Y36025D02*
X35950Y36025D01*
X26479Y37425D02*
X26829Y37075D01*
X41600Y31225D02*
X41600Y31300D01*
D11*
X24600Y6119D02*
X24600Y8400D01*
X16675Y11375D02*
X14225Y11375D01*
D10*
X19890Y17600D02*
X20950Y17600D01*
D11*
X11781Y14090D02*
X12624Y14065D01*
X46950Y30025D02*
X46950Y28450D01*
D10*
X17950Y23475D02*
X20500Y23475D01*
X28185Y38025D02*
X31950Y38025D01*
X18475Y34500D02*
X27850Y34500D01*
X35350Y42025D02*
X35350Y43350D01*
X27575Y31075D02*
X27575Y33410D01*
X35375Y15000D02*
X30900Y15000D01*
X11483Y35610D02*
X10950Y35077D01*
D11*
X41100Y13275D02*
X40200Y14175D01*
D10*
X42450Y19875D02*
X43075Y19875D01*
X35175Y7259D02*
X36175Y7259D01*
X45620Y13625D02*
X45620Y12085D01*
X39525Y40425D02*
X39525Y42025D01*
X42450Y30325D02*
X42975Y30850D01*
X25535Y28140D02*
X25535Y29350D01*
X26479Y38025D02*
X26479Y37425D01*
X24785Y26610D02*
X24785Y26610D01*
X26116Y2015D02*
X33169Y2015D01*
X21850Y22121D02*
X21850Y21000D01*
X42275Y22725D02*
X43425Y21575D01*
D11*
X38640Y24125D02*
X39950Y24125D01*
D10*
X29010Y25975D02*
X28985Y25950D01*
X47350Y20075D02*
X47550Y19875D01*
X26479Y42190D02*
X26479Y44025D01*
D11*
X33350Y25725D02*
X31950Y27125D01*
D10*
X30060Y31075D02*
X29010Y30025D01*
X46950Y11075D02*
X43590Y11075D01*
X15750Y15825D02*
X19025Y15825D01*
X46375Y17060D02*
X46375Y18375D01*
X42275Y6000D02*
X42600Y6000D01*
X46375Y20075D02*
X47350Y20075D01*
X39250Y7075D02*
X39250Y10935D01*
X38850Y18375D02*
X37960Y17485D01*
X29010Y25975D02*
X29010Y16925D01*
X41950Y8350D02*
X42600Y9000D01*
D11*
X31950Y27125D02*
X31950Y29900D01*
D10*
X39175Y44025D02*
X35350Y40200D01*
X18890Y16600D02*
X19890Y17600D01*
X18750Y18600D02*
X20950Y18600D01*
X33775Y34700D02*
X33775Y38475D01*
X44980Y17396D02*
X44980Y14265D01*
X39500Y18875D02*
X37875Y18875D01*
D11*
X8306Y10614D02*
X11781Y14090D01*
D10*
X23350Y21000D02*
X23350Y21911D01*
X44501Y17875D02*
X44980Y17396D01*
D11*
X29535Y9450D02*
X29535Y10284D01*
X2150Y8645D02*
X1194Y9600D01*
D10*
X38450Y30240D02*
X38450Y29025D01*
D11*
X24554Y3775D02*
X26116Y2213D01*
D10*
X29010Y28721D02*
X29010Y27575D01*
X35350Y43350D02*
X34675Y44025D01*
X14924Y12325D02*
X16550Y12325D01*
X39385Y31175D02*
X41600Y31175D01*
X23365Y31050D02*
X23365Y32290D01*
X23275Y29350D02*
X25535Y29350D01*
D11*
X39050Y25725D02*
X39950Y25725D01*
D10*
X26829Y37075D02*
X29500Y37075D01*
X15850Y28225D02*
X16550Y28925D01*
X44980Y14265D02*
X45620Y13625D01*
D11*
X36940Y22725D02*
X36940Y27060D01*
D10*
X30710Y16790D02*
X30710Y17690D01*
X15850Y26325D02*
X15850Y28225D01*
X42975Y31075D02*
X42975Y30950D01*
X46950Y44025D02*
X39175Y44025D01*
X38871Y6696D02*
X39250Y7075D01*
X43075Y19875D02*
X43425Y20225D01*
X33775Y38475D02*
X33275Y38975D01*
X43560Y19375D02*
X44200Y20015D01*
X31990Y8644D02*
X32025Y8680D01*
D11*
X24179Y14375D02*
X25675Y14375D01*
D10*
X39500Y18375D02*
X38850Y18375D01*
X29010Y28721D02*
X30315Y30025D01*
X25535Y31050D02*
X25535Y32500D01*
D11*
X40200Y14175D02*
X40200Y15925D01*
D10*
X28200Y3900D02*
X26315Y2015D01*
D11*
X13100Y35610D02*
X20215Y35610D01*
D10*
X33440Y6696D02*
X32994Y6250D01*
X46950Y42025D02*
X38600Y42025D01*
X43425Y21575D02*
X43425Y20225D01*
X18275Y33410D02*
X27560Y33410D01*
X44200Y20599D02*
X44501Y20900D01*
X31950Y30025D02*
X30315Y30025D01*
X32994Y6250D02*
X32994Y5788D01*
X39385Y31175D02*
X38450Y30240D01*
X25615Y42190D02*
X25375Y41950D01*
X42600Y9600D02*
X42600Y9000D01*
X29010Y27575D02*
X28185Y26750D01*
X23350Y21911D02*
X23475Y22036D01*
X18050Y27110D02*
X20250Y27110D01*
X30755Y10365D02*
X29495Y10365D01*
X27575Y29350D02*
X27575Y28075D01*
D11*
X23019Y5489D02*
X23019Y4381D01*
X23521Y2015D02*
X21550Y2015D01*
D10*
X17625Y17475D02*
X18775Y17475D01*
X9362Y9458D02*
X10352Y10448D01*
D11*
X44100Y3775D02*
X44100Y6390D01*
D10*
X14924Y10425D02*
X16550Y10425D01*
X39300Y15925D02*
X38950Y16275D01*
X25065Y36700D02*
X18435Y36700D01*
D11*
X23236Y10376D02*
X22575Y9715D01*
X11463Y9225D02*
X12332Y9225D01*
D10*
X39350Y19875D02*
X38675Y20550D01*
X18025Y18575D02*
X18050Y18600D01*
X30710Y17690D02*
X30300Y18100D01*
X44740Y14025D02*
X44980Y14265D01*
X20356Y17094D02*
X21169Y17094D01*
X20500Y23471D02*
X21850Y22121D01*
D11*
X21200Y8875D02*
X22575Y8875D01*
D10*
X15850Y22525D02*
X13675Y22525D01*
X40200Y15925D02*
X39300Y15925D01*
D11*
X16675Y11375D02*
X20200Y11375D01*
D10*
X13250Y38910D02*
X16765Y38910D01*
X21525Y24350D02*
X24460Y24350D01*
X8867Y10023D02*
X11169Y12325D01*
X21050Y24825D02*
X21525Y24350D01*
X30365Y5788D02*
X30365Y6487D01*
X45486Y11950D02*
X45620Y12085D01*
D11*
X31700Y4329D02*
X31700Y7285D01*
D10*
X30325Y32025D02*
X27850Y34500D01*
X36700Y9269D02*
X36700Y12100D01*
X47550Y11675D02*
X46950Y11075D01*
X37850Y6696D02*
X38871Y6696D01*
X44100Y6390D02*
X46635Y6390D01*
D11*
X20200Y11375D02*
X20675Y10900D01*
X25075Y8875D02*
X24600Y8400D01*
D10*
X38675Y20550D02*
X38675Y22690D01*
D11*
X43590Y6900D02*
X43590Y12085D01*
D10*
X18750Y18600D02*
X18050Y18600D01*
X28185Y26750D02*
X26925Y26750D01*
X40550Y29025D02*
X40550Y29879D01*
D11*
X30250Y4829D02*
X29325Y4829D01*
X12699Y14065D02*
X13034Y14065D01*
D10*
X33275Y42025D02*
X34350Y40950D01*
X31990Y11580D02*
X31990Y13076D01*
X41215Y11950D02*
X42400Y11950D01*
X10950Y19520D02*
X10950Y35077D01*
D11*
X6215Y12534D02*
X5174Y13575D01*
D10*
X31750Y42025D02*
X33275Y42025D01*
D11*
X12624Y11375D02*
X11450Y11375D01*
X12450Y42210D02*
X12450Y43450D01*
D10*
X19400Y18100D02*
X20950Y18100D01*
X21050Y26310D02*
X21050Y24825D01*
X11169Y12325D02*
X12624Y12325D01*
X13729Y17846D02*
X15750Y15825D01*
X39500Y19375D02*
X38975Y19375D01*
X46375Y15360D02*
X46375Y14150D01*
X13729Y17846D02*
X12699Y17846D01*
D11*
X13799Y13300D02*
X13799Y11801D01*
X42400Y13275D02*
X41100Y13275D01*
D10*
X35950Y36025D02*
X35350Y35425D01*
D11*
X23019Y4381D02*
X23625Y3775D01*
D10*
X10999Y17846D02*
X10999Y19422D01*
D11*
X44100Y6390D02*
X43590Y6900D01*
X33350Y25725D02*
X36940Y25725D01*
D10*
X42450Y18875D02*
X44085Y18875D01*
X34350Y32150D02*
X34350Y40950D01*
X30755Y10344D02*
X31991Y11580D01*
X33275Y38975D02*
X24134Y38975D01*
X24785Y26610D02*
X24785Y25210D01*
X35375Y15000D02*
X37850Y12525D01*
X33440Y7285D02*
X33440Y6696D01*
X28179Y44025D02*
X34675Y44025D01*
X20950Y19100D02*
X19925Y19100D01*
D11*
X23236Y10376D02*
X29536Y10376D01*
D10*
X44200Y20015D02*
X44200Y20599D01*
X18475Y38910D02*
X24069Y38910D01*
X40550Y29879D02*
X40996Y30325D01*
D11*
X22575Y8875D02*
X22575Y9715D01*
D10*
X22475Y15025D02*
X22475Y14375D01*
X25535Y32500D02*
X25535Y32500D01*
X33715Y13550D02*
X35250Y13550D01*
X41350Y8350D02*
X41950Y8350D01*
D11*
X31700Y4329D02*
X32150Y3879D01*
X12624Y6240D02*
X13814Y5050D01*
D10*
X23850Y21000D02*
X23850Y21650D01*
X13100Y35610D02*
X11483Y35610D01*
X22165Y25175D02*
X22165Y28621D01*
X24725Y22525D02*
X24725Y23415D01*
D11*
X10564Y8326D02*
X11463Y9225D01*
X42600Y4050D02*
X42600Y6000D01*
X25075Y8875D02*
X26155Y8875D01*
D10*
X42450Y17875D02*
X44501Y17875D01*
X26479Y42190D02*
X25615Y42190D01*
X38975Y19375D02*
X38165Y20185D01*
X38950Y16275D02*
X38950Y17650D01*
D12*
X35350Y32275D03*
X33715Y13550D03*
X43725Y15925D03*
X19175Y19850D03*
X22850Y17850D03*
X35350Y38775D03*
X42975Y31075D03*
X13675Y22525D03*
X22160Y28750D03*
X23475Y27828D03*
X25375Y41221D03*
X11450Y11375D03*
X19625Y21575D03*
X28296Y8644D03*
X19400Y13135D03*
X12450Y43450D03*
X29535Y13375D03*
X1850Y25175D03*
X29010Y25975D03*
X24785Y26610D03*
X25675Y14375D03*
X18025Y18575D03*
X16550Y28925D03*
X45486Y11950D03*
X35350Y40200D03*
X5025Y13750D03*
X21550Y2015D03*
X31990Y8644D03*
X23850Y19100D03*
X23850Y17850D03*
X14799Y15475D03*
X25535Y32500D03*
X42600Y9010D03*
X35300Y33775D03*
X36940Y27060D03*
X16550Y10425D03*
X16550Y12325D03*
X12332Y9225D03*
X2950Y43750D03*
X25675Y12400D03*
X30300Y18100D03*
X39950Y25725D03*
X42600Y6000D03*
X39125Y38025D03*
X22850Y19100D03*
X16550Y17475D03*
X23365Y32290D03*
X36175Y7259D03*
X44375Y20599D03*
X23304Y40025D03*
X13814Y5050D03*
X27575Y33410D03*
X37875Y18875D03*
X46375Y14150D03*
X46950Y28450D03*
X39950Y24125D03*
X35350Y42025D03*
X28517Y5550D03*
X1150Y9750D03*
X35350Y35425D03*
X12450Y25075D03*
X9750Y1200D03*
X27575Y28075D03*
X15200Y37810D03*
X44375Y39875D03*
X28081Y13375D03*
X41600Y31175D03*
X24600Y7050D03*
X29500Y37075D03*
X20215Y35610D03*
X42400Y11950D03*
X29010Y30025D03*
%LNtop copper component 0f6bbc825d3b9acc*%
D13*
X46375Y20050D03*
X46375Y18350D03*
%LNtop copper component b5f7dfc42feccbac*%
D14*
X35025Y17485D03*
X35025Y20185D03*
%LNtop copper component 486ebf370a6266ad*%
D15*
X26479Y44025D03*
X28179Y44025D03*
%LNtop copper component d38d5b245d314990*%
D16*
X18465Y34510D03*
X16765Y34510D03*
%LNtop copper component f6f6c710f3d5fc34*%
D17*
X22415Y12475D03*
X24515Y12475D03*
%LNtop copper component cb9ffe53114e7353*%
D18*
X18050Y25210D03*
X18050Y27110D03*
X15850Y26160D03*
%LNtop copper component 67c3e5d30430499a*%
D13*
X22160Y25175D03*
X22160Y23475D03*
%LNtop copper component 076615648775bf88*%
D17*
X40260Y15925D03*
X42360Y15925D03*
%LNtop copper component cca6af50c4a98013*%
D15*
X33475Y7259D03*
X35175Y7259D03*
%LNtop copper component 715ed7d0b1d3afca*%
D18*
X18050Y21575D03*
X18050Y23475D03*
X15850Y22525D03*
%LNtop copper component ac8baea792a2aaac*%
D19*
X16315Y43275D03*
D20*
X18855Y43275D03*
X21395Y43275D03*
X23935Y43275D03*
%LNtop copper component 9d8acad3d9d6a0d6*%
D21*
X23365Y29350D03*
X23365Y31050D03*
%LNtop copper component 03c325690ca4418d*%
D22*
X47625Y5400D03*
%LNtop copper component 40ec898d0e2ff914*%
X31700Y13076D03*
%LNtop copper component bae0712a27b4ea41*%
D15*
X33475Y8680D03*
X35175Y8680D03*
%LNtop copper component 63a34d2486bad1c4*%
D13*
X27575Y31050D03*
X27575Y29350D03*
%LNtop copper component e9e38080a465162a*%
D21*
X29535Y10365D03*
X29535Y12065D03*
%LNtop copper component 40d403f1b58e725a*%
X25535Y29350D03*
X25535Y31050D03*
%LNtop copper component eebbd8b22b528fb9*%
D23*
X13200Y32310D03*
X13200Y33410D03*
X13200Y34510D03*
X13200Y35610D03*
X13200Y36710D03*
X13200Y37810D03*
X13200Y38910D03*
X13200Y40010D03*
X13200Y41110D03*
D24*
X12450Y42210D03*
D25*
X12450Y27610D03*
D26*
X2950Y42210D03*
X1850Y26710D03*
%LNtop copper component 7a5c382ed73f7f01*%
D13*
X19400Y15810D03*
X19400Y14110D03*
%LNtop copper component 348ef3f49df1d6a5*%
D16*
X30710Y15000D03*
X29010Y15000D03*
%LNtop copper component d8a0c5ab795ca37c*%
D21*
X24785Y23475D03*
X24785Y25175D03*
%LNtop copper component 8aec1219b16a3ed0*%
D22*
X26116Y2015D03*
%LNtop copper component c15ab15aefc1d0d4*%
D27*
X46000Y24200D03*
%LNtop copper component 585378ffb4492eb4*%
D15*
X36940Y24125D03*
X38640Y24125D03*
%LNtop copper component 58a0b494729c8b0f*%
D13*
X23475Y25175D03*
X23475Y23475D03*
%LNtop copper component be3523eaeecb83a3*%
D28*
X42600Y3885D03*
X44100Y3885D03*
X39600Y3885D03*
D29*
X38200Y3285D03*
X38200Y0985D03*
X45500Y3285D03*
X45500Y0985D03*
%LNtop copper component b08b3aeb38ad64a9*%
D16*
X18465Y38910D03*
X16765Y38910D03*
%LNtop copper component 6bf5079ea5defa21*%
D30*
X30365Y5779D03*
X30365Y4829D03*
X30365Y3879D03*
X32985Y3879D03*
X32985Y5779D03*
%LNtop copper component 3289a17518b3d6e7*%
D31*
X40475Y19625D03*
X40475Y18125D03*
X41475Y19625D03*
X41475Y18125D03*
X40975Y18875D03*
D32*
X39500Y19875D03*
X39500Y19375D03*
X39500Y18875D03*
X39500Y18375D03*
X39500Y17875D03*
X42450Y17875D03*
X42450Y18375D03*
X42450Y18875D03*
X42450Y19375D03*
X42450Y19875D03*
D33*
X40975Y18875D03*
D34*
X40725Y20425D03*
X40725Y17325D03*
X41225Y20425D03*
X41225Y17325D03*
%LNtop copper component a8562578979f14ee*%
D35*
X41215Y10050D03*
X41215Y11950D03*
X39185Y11000D03*
%LNtop copper component a19249a7d97fb8cf*%
D13*
X46375Y17060D03*
X46375Y15360D03*
%LNtop copper component 1ac4e853d3c269f5*%
D15*
X22475Y14375D03*
X24175Y14375D03*
%LNtop copper component dd2aebd6988071a3*%
X10999Y19471D03*
X12699Y19471D03*
%LNtop copper component 6f19398e3a637eba*%
D21*
X28081Y10365D03*
X28081Y12065D03*
%LNtop copper component 7b06acf78c478343*%
D16*
X35175Y11500D03*
X33475Y11500D03*
%LNtop copper component ecfddb6ce83e4997*%
D36*
X26155Y8875D03*
D37*
X22575Y8875D03*
%LNtop copper component 0009601b2b7bb17d*%
D27*
X5250Y21000D03*
%LNtop copper component 196f46a316006fd3*%
D22*
X33350Y22450D03*
%LNtop copper component 8fb6001151396292*%
D27*
X17900Y4200D03*
%LNtop copper component 32500ce6d7552bec*%
D36*
X26599Y5669D03*
D37*
X23019Y5669D03*
%LNtop copper component 945664e6b963058c*%
D22*
X43725Y14025D03*
%LNtop copper component 29d9dd5f841c3255*%
D16*
X18465Y33325D03*
X16765Y33325D03*
%LNtop copper component ac187e3dfa2fb0b0*%
D22*
X39525Y40425D03*
%LNtop copper component cc942e27117a1124*%
D16*
X38640Y22725D03*
X36940Y22725D03*
%LNtop copper component 32fdad48a9229fea*%
D17*
X36950Y25725D03*
X39050Y25725D03*
%LNtop copper component 28271c4a93275f5c*%
D38*
X8301Y10589D03*
X8867Y10023D03*
X9433Y9458D03*
X9998Y8892D03*
X10564Y8326D03*
D39*
X2326Y8645D03*
X6215Y12534D03*
X8620Y2351D03*
X12509Y6240D03*
%LNtop copper component 1717958014e64759*%
D16*
X35175Y10080D03*
X33475Y10080D03*
%LNtop copper component 29d89bcfd640546a*%
D17*
X39250Y8350D03*
X41350Y8350D03*
%LNtop copper component 14e52fb64ffb705e*%
D16*
X18465Y36710D03*
X16765Y36710D03*
%LNtop copper component 7f8b45e1c2dd502c*%
D40*
X12624Y12325D03*
X12624Y11375D03*
X12624Y10425D03*
X14924Y10425D03*
X14924Y11375D03*
X14924Y12325D03*
%LNtop copper component 92a8953b046f1d64*%
D16*
X28179Y40025D03*
X26479Y40025D03*
%LNtop copper component a15209bcba32dbde*%
D15*
X26479Y42190D03*
X28179Y42190D03*
%LNtop copper component 0cf16f86440a554b*%
D41*
X31950Y44025D03*
X31950Y42025D03*
X31950Y40025D03*
X31950Y38025D03*
X31950Y36025D03*
X31950Y34025D03*
X31950Y32025D03*
X31950Y30025D03*
X46950Y30025D03*
X46950Y32025D03*
X46950Y34025D03*
X46950Y36025D03*
X46950Y38025D03*
X46950Y40025D03*
X46950Y42025D03*
X46950Y44025D03*
D42*
X34450Y29025D03*
X36450Y29025D03*
X38450Y29025D03*
X40450Y29025D03*
X42450Y29025D03*
X44450Y29025D03*
%LNtop copper component 340e420777b80da6*%
D22*
X23521Y2015D03*
%LNtop copper component b1720f8b90caa6c0*%
D15*
X26485Y38025D03*
X28185Y38025D03*
%LNtop copper component 73a5e44f660ff0af*%
D17*
X12699Y14065D03*
X14799Y14065D03*
%LNtop copper component dcefecd9652566ea*%
D15*
X29010Y16790D03*
X30710Y16790D03*
%LNtop copper component 8f391d09d547739e*%
D43*
X20950Y20100D03*
X20950Y19600D03*
X20950Y19100D03*
X20950Y18600D03*
X20950Y18100D03*
X20950Y17600D03*
X20950Y17100D03*
X25750Y17100D03*
X25750Y17600D03*
X25750Y18100D03*
X25750Y18600D03*
X25750Y19100D03*
X25750Y19600D03*
X25750Y20100D03*
D44*
X21850Y16200D03*
X22350Y16200D03*
X22850Y16200D03*
X23350Y16200D03*
X23850Y16200D03*
X24350Y16200D03*
X24850Y16200D03*
X24850Y21000D03*
X24350Y21000D03*
X23850Y21000D03*
X23350Y21000D03*
X22850Y21000D03*
X22350Y21000D03*
X21850Y21000D03*
D45*
X23350Y18600D03*
%LNtop copper component 465837ab5bd8404d*%
D15*
X10999Y17846D03*
X12699Y17846D03*
%LNtop copper component a90cc3663dad593a*%
D21*
X19950Y23475D03*
X19950Y25175D03*
M02*